<?xml version="1.0" encoding="UTF-8"?>
<svg id="Layer_1" data-name="Layer 1" xmlns="http://www.w3.org/2000/svg" xmlns:xlink="http://www.w3.org/1999/xlink" viewBox="0 0 771.55 95.41">
  <defs>
    <style>
      .cls-1 {
        stroke: #f1f2f2;
      }

      .cls-1, .cls-2, .cls-3, .cls-4, .cls-5, .cls-6, .cls-7 {
        fill: none;
      }

      .cls-1, .cls-3 {
        stroke-linecap: round;
        stroke-linejoin: round;
      }

      .cls-2, .cls-8, .cls-9, .cls-10, .cls-11, .cls-12, .cls-13, .cls-14, .cls-15, .cls-16, .cls-17, .cls-18, .cls-19, .cls-20, .cls-21, .cls-22, .cls-23, .cls-24, .cls-25, .cls-26, .cls-27, .cls-28, .cls-29, .cls-30 {
        stroke-width: 0px;
      }

      .cls-8 {
        fill: url(#linear-gradient);
      }

      .cls-9 {
        fill: url(#radial-gradient);
      }

      .cls-31 {
        fill: #737477;
        stroke: #020202;
        stroke-width: .2px;
      }

      .cls-31, .cls-4, .cls-5, .cls-6, .cls-7 {
        stroke-miterlimit: 10;
      }

      .cls-10 {
        fill: #575654;
        opacity: .28;
      }

      .cls-10, .cls-11, .cls-32, .cls-33 {
        isolation: isolate;
      }

      .cls-3 {
        stroke: #010101;
        stroke-width: .11px;
      }

      .cls-11 {
        fill: #e6e7e8;
        opacity: .3;
      }

      .cls-32 {
        font-family: Arciform, 'Arciform Sans';
        font-size: 13.22px;
      }

      .cls-32, .cls-22 {
        fill: #414042;
      }

      .cls-12 {
        fill: url(#radial-gradient-2);
      }

      .cls-13 {
        fill: url(#radial-gradient-3);
      }

      .cls-14 {
        fill: url(#radial-gradient-4);
      }

      .cls-4, .cls-7 {
        stroke: #fff;
      }

      .cls-5 {
        stroke: #282828;
      }

      .cls-34 {
        opacity: .21;
      }

      .cls-16 {
        fill: #4d5e3b;
      }

      .cls-17 {
        fill: #2b2d30;
      }

      .cls-18 {
        fill: #808285;
      }

      .cls-19 {
        fill: #58595b;
      }

      .cls-20 {
        fill: #585855;
      }

      .cls-21 {
        fill: #363631;
      }

      .cls-23 {
        fill: #0b0b0b;
      }

      .cls-24 {
        fill: #212121;
      }

      .cls-25 {
        fill: #231f20;
      }

      .cls-26 {
        fill: #161515;
      }

      .cls-27 {
        fill: #d1d3d4;
      }

      .cls-28 {
        fill: #939598;
      }

      .cls-29 {
        fill: #030303;
      }

      .cls-30 {
        fill: #050505;
      }

      .cls-6 {
        stroke: #d1d3d4;
        stroke-width: .25px;
      }

      .cls-7 {
        stroke-width: .5px;
      }
    </style>
    <radialGradient id="radial-gradient" cx="747.67" cy="-430.92" fx="747.67" fy="-430.92" r="1.1" gradientTransform="translate(0 -193.24) scale(1 -.51)" gradientUnits="userSpaceOnUse">
      <stop offset="0" stop-color="#fff"/>
      <stop offset="1" stop-color="#8c8e91"/>
    </radialGradient>
    <radialGradient id="radial-gradient-2" cy="-547.29" fy="-547.29" r="1.1" xlink:href="#radial-gradient"/>
    <radialGradient id="radial-gradient-3" cx="643.44" fx="643.44" xlink:href="#radial-gradient"/>
    <radialGradient id="radial-gradient-4" cx="620.41" cy="-432.66" fx="620.41" fy="-432.66" xlink:href="#radial-gradient"/>
    <linearGradient id="linear-gradient" x1="385.77" y1="-45.63" x2="385.77" y2="76.02" gradientTransform="translate(0 41.82) scale(1 -1)" gradientUnits="userSpaceOnUse">
      <stop offset=".3" stop-color="#939598"/>
      <stop offset=".89" stop-color="#000"/>
    </linearGradient>
  </defs>
  <rect class="cls-2" y="14.5" width="771.55" height="80.92"/>
  <g>
    <circle class="cls-17" cx="754.25" cy="81.61" r="4.65"/>
    <g>
      <line class="cls-4" x1="756.61" y1="79.25" x2="751.89" y2="83.97"/>
      <line class="cls-4" x1="756.62" y1="83.97" x2="751.89" y2="79.25"/>
    </g>
  </g>
  <rect class="cls-21" y="14.5" width="771.55" height="80.92"/>
  <g>
    <circle class="cls-11" cx="49.17" cy="30.84" r="5.98"/>
    <circle class="cls-11" cx="49.39" cy="78.98" r="5.98"/>
    <circle class="cls-23" cx="49.51" cy="30.6" r="5.86"/>
    <path class="cls-22" d="m50.24,28.01v1.86h1.84c.36,0,.65.29.65.66s-.29.65-.65.65h-1.84v1.82c0,.36-.29.65-.66.65s-.65-.29-.65-.65v-1.82h-1.85c-.37,0-.66-.29-.66-.65s.29-.66.66-.66h1.85v-1.86c0-.37.29-.66.65-.66s.66.29.66.66Z"/>
    <circle class="cls-11" cx="274.17" cy="54.64" r="5.86"/>
    <circle class="cls-11" cx="504.81" cy="54.64" r="5.86"/>
    <circle class="cls-11" cx="188.88" cy="27.85" r="4.44"/>
    <circle class="cls-11" cx="562.02" cy="27.85" r="4.44"/>
    <circle class="cls-23" cx="274.88" cy="54.27" r="5.86"/>
    <path class="cls-22" d="m275.61,51.68v1.86h1.84c.36,0,.65.29.65.66s-.29.65-.65.65h-1.84v1.82c0,.36-.29.65-.66.65s-.65-.29-.65-.65v-1.82h-1.85c-.37,0-.66-.29-.66-.65s.29-.66.66-.66h1.85v-1.86c0-.37.29-.66.65-.66s.66.29.66.66Z"/>
    <circle class="cls-23" cx="505.21" cy="54.27" r="5.86"/>
    <g class="cls-33">
      <text class="cls-32" transform="translate(501.69 57.4)"><tspan x="0" y="0">+</tspan></text>
    </g>
    <circle class="cls-23" cx="189.18" cy="27.66" r="4.36"/>
    <path class="cls-22" d="m189.57,25.48v1.58h1.56c.3,0,.55.25.55.56s-.25.55-.55.55h-1.56v1.54c0,.3-.25.55-.56.55s-.55-.25-.55-.55v-1.54h-1.57c-.31,0-.56-.25-.56-.55s.25-.56.56-.56h1.57v-1.58c0-.31.25-.56.55-.56s.56.25.56.56Z"/>
    <circle class="cls-23" cx="49.51" cy="78.86" r="5.86"/>
    <path class="cls-22" d="m50.24,76.27v1.86h1.84c.36,0,.65.29.65.66s-.29.65-.65.65h-1.84v1.82c0,.36-.29.65-.66.65s-.65-.29-.65-.65v-1.82h-1.85c-.37,0-.66-.29-.66-.65s.29-.66.66-.66h1.85v-1.86c0-.37.29-.66.65-.66s.66.29.66.66Z"/>
    <polygon class="cls-25" points="45.98 39.22 43.65 44.58 43.65 66.67 45.98 72.03 59.03 72.03 59.03 39.22 45.98 39.22"/>
    <path class="cls-6" d="m49.36,42.24c0,.29-.08.95-.52,1.63-.42.64-.95.97-1.21,1.11v21.29c.26.14.79.47,1.21,1.11.44.68.51,1.34.52,1.63h5.69v-26.77h-5.69Z"/>
    <circle class="cls-30" cx="75.93" cy="54.16" r="5.46"/>
    <circle class="cls-30" cx="100.57" cy="54.16" r="5.46"/>
    <circle class="cls-30" cx="125.21" cy="54.16" r="5.46"/>
    <circle class="cls-29" cx="148.69" cy="31.92" r="2.76"/>
    <circle class="cls-29" cx="148.69" cy="76.91" r="2.76"/>
    <path class="cls-29" d="m154.34,68.36l-7.4,1.45c-3.32.65-6.4-1.89-6.4-5.27v-21.55c0-3.38,3.09-5.92,6.4-5.27l7.4,1.45c2.26.44,3.9,2.43,3.9,4.74v19.74c0,2.31-1.63,4.29-3.9,4.74v-.03Z"/>
    <path class="cls-18" d="m176.59,25.83c-.03-.13-.07-.25-.1-.39-.11-.33-.23-.65-.4-.96-.06-.13-.13-.25-.2-.37-.04-.07-.08-.13-.12-.19-.09-.13-.18-.25-.26-.37-.11-.15-.23-.3-.35-.43-.11-.12-.22-.23-.33-.33-.04-.06-.1-.1-.15-.14-.1-.1-.21-.19-.32-.26,0-.01-.02-.02-.04-.03-.11-.09-.23-.18-.36-.26-.06-.03-.12-.07-.19-.11-.1-.07-.21-.12-.32-.18-.4-.21-.82-.37-1.26-.48-.12-.04-.24-.07-.36-.09-.19-.04-.37-.07-.57-.09,2.48.32,4.41,2.45,4.41,5v54.57c0,.32-.03.64-.09.94-.02.13-.06.26-.1.39-.03.18-.09.34-.17.51-.04.14-.1.28-.18.41-.06.14-.13.26-.22.4-.07.12-.14.24-.24.36-.08.12-.18.24-.29.35-.09.11-.2.22-.31.32-.21.21-.45.4-.71.55-.36.25-.77.44-1.19.57-.17.06-.33.1-.51.14-.14.03-.28.06-.42.07-.21.03-.42.04-.63.04H31.68c-.21,0-.42,0-.63-.04-.14,0-.28-.03-.42-.07-.18-.04-.34-.09-.51-.14-.42-.13-.83-.32-1.19-.57-.25-.15-.5-.34-.71-.55-.11-.1-.22-.21-.31-.32-.11-.11-.21-.23-.29-.35-.1-.12-.18-.24-.24-.36-.09-.13-.17-.25-.22-.4-.08-.13-.13-.26-.18-.41-.08-.17-.13-.33-.17-.51-.04-.12-.08-.25-.1-.39-.06-.3-.09-.62-.09-.94V26.15c0-2.56,1.93-4.68,4.41-5-.2.02-.39.04-.57.09-.12.02-.24.04-.36.09-.44.11-.86.28-1.26.48-.11.06-.22.11-.32.18-.07.04-.13.08-.19.11-.13.09-.25.18-.36.26-.02.01-.03.02-.04.03-.11.08-.22.17-.32.26-.06.04-.11.09-.15.14-.12.11-.23.22-.33.33-.12.13-.24.28-.35.43-.09.12-.18.24-.26.37-.04.06-.08.12-.12.19-.07.12-.14.24-.2.37-.17.31-.29.63-.4.96-.03.13-.07.25-.1.39-.11.45-.17.93-.17,1.41v53.47c0,3.39,2.75,6.15,6.14,6.15h138.95c3.38,0,6.14-2.75,6.14-6.15V27.24c0-.48-.06-.96-.17-1.41h0Z"/>
    <path class="cls-22" d="m175.66,26.14v1.11c0-2.79-2.26-5.05-5.03-5.05H31.68c-2.78,0-5.03,2.26-5.03,5.05v-1.11c0-2.56,1.93-4.68,4.41-5,.21-.02.42-.03.63-.03h138.95c.21,0,.42.01.63.03,2.48.32,4.41,2.45,4.41,5h-.02Z"/>
    <path class="cls-19" d="m28.93,84.93c-.25-.17-.48-.34-.71-.55-.11-.1-.21-.21-.31-.32s-.2-.23-.29-.35c-.09-.11-.17-.24-.24-.36-.09-.13-.15-.26-.22-.4-.07-.13-.13-.26-.18-.41-.08-.17-.13-.33-.17-.51-.04-.12-.08-.25-.1-.39-.06-.3-.09-.62-.09-.94V26.13c0-2.56,1.93-4.68,4.41-5-.2.02-.39.04-.57.09-.12.02-.24.04-.36.09-.44.11-.86.28-1.26.48-.11.06-.22.11-.32.18-.07.04-.13.08-.19.11-.13.09-.25.18-.36.26-.02.01-.03.02-.04.03-.11.08-.22.17-.32.26-.06.04-.11.09-.15.14-.12.11-.23.22-.33.33-.12.13-.24.28-.35.43-.09.12-.18.24-.26.37-.04.06-.08.12-.12.19-.07.12-.14.24-.2.37-.17.31-.29.63-.4.96-.03.13-.07.25-.1.39-.11.45-.17.93-.17,1.41v52.36c0,3.03,2.2,5.55,5.09,6.04-.18-.04-.34-.09-.51-.14-.42-.14-.83-.33-1.19-.57v.02ZM176.59,25.84c-.03-.13-.07-.25-.1-.39-.11-.33-.23-.65-.4-.96-.06-.13-.13-.25-.2-.37-.04-.07-.08-.13-.12-.19-.09-.13-.18-.25-.26-.37-.11-.15-.23-.3-.35-.43-.1-.11-.21-.22-.33-.33-.04-.06-.1-.1-.15-.14-.1-.1-.21-.19-.32-.26,0-.01-.02-.02-.04-.03-.11-.09-.23-.18-.36-.26-.06-.03-.12-.07-.19-.11-.1-.07-.21-.12-.32-.18-.4-.21-.82-.37-1.26-.48-.12-.04-.24-.07-.36-.09-.19-.04-.37-.07-.57-.09,2.48.32,4.41,2.45,4.41,5v54.57c0,.32-.03.64-.09.94-.02.13-.06.26-.1.39-.03.18-.09.34-.17.51-.04.14-.11.28-.18.41s-.13.26-.22.4c-.08.12-.15.25-.24.36-.09.12-.19.24-.29.35-.09.11-.2.22-.31.32-.22.21-.45.39-.71.55-.36.24-.77.43-1.19.57-.17.06-.33.1-.51.14,2.89-.48,5.09-3.01,5.09-6.04V27.27c0-.48-.06-.96-.17-1.41v-.02Z"/>
    <ellipse class="cls-23" cx="562.18" cy="27.66" rx="4.54" ry="4.36"/>
    <path class="cls-22" d="m562.68,25.72v1.39h1.37c.27,0,.48.22.48.49s-.22.48-.48.48h-1.37v1.36c0,.27-.22.48-.49.48s-.48-.22-.48-.48v-1.36h-1.38c-.28,0-.49-.22-.49-.48s.22-.49.49-.49h1.38v-1.39c0-.28.22-.49.48-.49s.49.22.49.49Z"/>
    <g>
      <circle class="cls-27" cx="748" cy="26.92" r="4.65"/>
      <path class="cls-22" d="m750.24,26.35h-.01c-.9,0-1.63-.73-1.63-1.63v-.03c0-.33-.26-.59-.59-.59s-.58.26-.58.59v.03c0,.23-.04.46-.14.66-.24.57-.82.97-1.49.97h-.02c-.33,0-.59.26-.59.59s.26.58.59.58h.02c.67,0,1.24.4,1.49.97.1.2.14.43.14.66,0,.32.26.58.58.58s.59-.26.59-.58c0-.9.73-1.63,1.63-1.63h.01c.32,0,.58-.26.58-.58s-.26-.59-.58-.59h0Z"/>
      <g class="cls-34">
        <path class="cls-9" d="m748.61,26.5h0c-.26,0-.49-.11-.67-.3-.14-.15-.38-.15-.52,0-.18.19-.41.3-.67.3h-.01c-.21,0-.37.2-.37.45s.16.44.37.44h.01c.26,0,.49.11.67.3.14.15.38.15.52,0,.18-.19.41-.3.67-.3h0c.2,0,.36-.2.36-.44s-.16-.45-.36-.45Z"/>
      </g>
    </g>
    <g>
      <circle class="cls-27" cx="748" cy="86.26" r="4.65"/>
      <path class="cls-22" d="m750.24,85.69h-.01c-.9,0-1.63-.73-1.63-1.63v-.03c0-.33-.26-.59-.59-.59s-.58.26-.58.59v.03c0,.23-.04.46-.14.66-.24.57-.82.97-1.49.97h-.02c-.33,0-.59.26-.59.59s.26.58.59.58h.02c.67,0,1.24.4,1.49.97.1.2.14.43.14.66,0,.32.26.58.58.58s.59-.26.59-.58c0-.9.73-1.63,1.63-1.63h.01c.32,0,.58-.26.58-.58s-.26-.59-.58-.59h0Z"/>
      <g class="cls-34">
        <path class="cls-12" d="m748.61,85.84h0c-.26,0-.49-.11-.67-.3-.14-.15-.38-.15-.52,0-.18.19-.41.3-.67.3h-.01c-.21,0-.37.2-.37.45s.16.44.37.44h.01c.26,0,.49.11.67.3.14.15.38.15.52,0,.18-.19.41-.3.67-.3h0c.2,0,.36-.2.36-.44s-.16-.45-.36-.45Z"/>
      </g>
    </g>
    <g>
      <circle class="cls-27" cx="643.78" cy="26.92" r="4.65"/>
      <path class="cls-22" d="m646.01,26.35h-.01c-.9,0-1.63-.73-1.63-1.63v-.03c0-.33-.26-.59-.59-.59s-.58.26-.58.59v.03c0,.23-.04.46-.14.66-.24.57-.82.97-1.49.97h-.02c-.33,0-.59.26-.59.59s.26.58.59.58h.02c.67,0,1.24.4,1.49.97.1.2.14.43.14.66,0,.32.26.58.58.58s.59-.26.59-.58c0-.9.73-1.63,1.63-1.63h.01c.32,0,.58-.26.58-.58s-.26-.59-.58-.59h0Z"/>
      <g class="cls-34">
        <path class="cls-13" d="m644.38,26.5h0c-.26,0-.49-.11-.67-.3-.14-.15-.38-.15-.52,0-.18.19-.41.3-.67.3h-.01c-.21,0-.37.2-.37.45s.16.44.37.44h.01c.26,0,.49.11.67.3.14.15.38.15.52,0,.18-.19.41-.3.67-.3h0c.2,0,.36-.2.36-.44s-.16-.45-.36-.45Z"/>
      </g>
    </g>
    <g>
      <circle class="cls-27" cx="620.75" cy="27.8" r="4.65"/>
      <path class="cls-22" d="m622.98,27.24h-.01c-.9,0-1.63-.73-1.63-1.63v-.03c0-.33-.26-.59-.59-.59s-.58.26-.58.59v.03c0,.23-.04.46-.14.66-.24.57-.82.97-1.49.97h-.02c-.33,0-.59.26-.59.59s.26.58.59.58h.02c.67,0,1.24.4,1.49.97.1.2.14.43.14.66,0,.32.26.58.58.58s.59-.26.59-.58c0-.9.73-1.63,1.63-1.63h.01c.32,0,.58-.26.58-.58s-.26-.59-.58-.59h0Z"/>
      <g class="cls-34">
        <path class="cls-14" d="m621.35,27.39h0c-.26,0-.49-.11-.67-.3-.14-.15-.38-.15-.52,0-.18.19-.41.3-.67.3h-.01c-.21,0-.37.2-.37.45s.16.44.37.44h.01c.26,0,.49.11.67.3.14.15.38.15.52,0,.18-.19.41-.3.67-.3h0c.2,0,.36-.2.36-.44s-.16-.45-.36-.45Z"/>
      </g>
    </g>
    <circle class="cls-23" cx="552.98" cy="54.27" r="3.19"/>
    <rect class="cls-24" x="577.29" y="36.5" width="26.26" height="38.33"/>
    <g>
      <path class="cls-28" d="m586.01,78.52c.69,0,1.29.26,1.8.79s.76,1.18.76,1.97-.25,1.48-.76,2.02c-.51.53-1.13.8-1.85.8s-1.35-.26-1.85-.78-.75-1.2-.75-2.02.29-1.54.86-2.07c.5-.46,1.1-.7,1.79-.7h0Zm-.07.29c-.48,0-.86.18-1.15.53-.36.44-.54,1.08-.54,1.93s.19,1.54.56,2.01c.29.36.66.53,1.13.53.5,0,.91-.19,1.24-.59.33-.39.49-1,.49-1.85,0-.91-.18-1.59-.54-2.04-.29-.36-.69-.53-1.19-.53h0Z"/>
      <path class="cls-28" d="m590.52,78.94v2.09h.97c.22,0,.39-.05.49-.15.1-.1.17-.29.21-.58h.15v1.8h-.15c0-.21-.03-.36-.08-.46s-.12-.17-.21-.22-.22-.07-.4-.07h-.97v1.67c0,.27.02.45.05.53.03.07.08.12.16.17.12.06.24.09.36.09h.19v.15h-2.29v-.15h.19c.22,0,.38-.06.48-.19.06-.08.09-.29.09-.6v-3.44c0-.27-.02-.45-.05-.53-.03-.07-.08-.12-.16-.17-.11-.06-.23-.09-.36-.09h-.19v-.15h3.96l.05,1.17h-.14c-.07-.25-.15-.43-.24-.55s-.2-.2-.33-.25-.34-.08-.61-.08h-1.17Z"/>
      <path class="cls-28" d="m595,78.94v2.09h.97c.22,0,.39-.05.49-.15.1-.1.17-.29.21-.58h.15v1.8h-.15c0-.21-.03-.36-.08-.46s-.12-.17-.21-.22-.22-.07-.4-.07h-.97v1.67c0,.27.02.45.05.53.03.07.08.12.16.17.12.06.24.09.36.09h.19v.15h-2.29v-.15h.19c.22,0,.38-.06.48-.19.06-.08.09-.29.09-.6v-3.44c0-.27-.02-.45-.05-.53-.03-.07-.08-.12-.16-.17-.11-.06-.23-.09-.36-.09h-.19v-.15h3.96l.05,1.17h-.14c-.07-.25-.15-.43-.24-.55s-.2-.2-.33-.25-.34-.08-.61-.08h-1.17Z"/>
    </g>
    <g>
      <path class="cls-28" d="m587.47,27.91c.69,0,1.29.26,1.8.79s.76,1.18.76,1.97-.25,1.48-.76,2.02c-.51.53-1.13.8-1.85.8s-1.35-.26-1.85-.78-.75-1.2-.75-2.02.29-1.54.86-2.07c.5-.46,1.1-.7,1.79-.7h0Zm-.07.29c-.48,0-.86.18-1.15.53-.36.44-.54,1.08-.54,1.93s.19,1.54.56,2.01c.29.36.66.53,1.13.53.5,0,.91-.19,1.24-.59.33-.39.49-1,.49-1.85,0-.91-.18-1.59-.54-2.04-.29-.36-.69-.53-1.19-.53h0Z"/>
      <path class="cls-28" d="m590.23,28.03h1.45l3.26,3.99v-3.07c0-.33-.04-.53-.11-.61-.1-.11-.25-.17-.46-.17h-.19v-.15h1.85v.15h-.19c-.23,0-.39.07-.48.2-.06.08-.09.28-.09.57v4.49h-.14l-3.51-4.29v3.28c0,.33.04.53.11.61.1.11.25.16.46.16h.19v.15h-1.85v-.15h.19c.23,0,.39-.07.48-.2.06-.08.09-.27.09-.57v-3.7c-.15-.18-.27-.3-.35-.36-.08-.06-.2-.11-.35-.16-.08-.02-.19-.04-.35-.04v-.15.02Z"/>
    </g>
    <g>
      <line class="cls-1" x1="545.77" y1="72.19" x2="555.99" y2="72.19"/>
      <line class="cls-1" x1="546.92" y1="74.67" x2="554.84" y2="74.67"/>
      <line class="cls-1" x1="548.07" y1="77.15" x2="553.69" y2="77.15"/>
    </g>
    <line class="cls-1" x1="550.88" y1="66.47" x2="550.88" y2="72.19"/>
    <polygon class="cls-27" points="740.76 34.99 740.76 21.11 659.46 21.11 659.46 34.99 615.61 34.99 615.61 95.41 740.76 95.41 740.76 73.86 753.24 73.86 753.24 34.99 740.76 34.99"/>
    <rect class="cls-24" x="615.05" y="34.34" width="44.4" height="60.86"/>
    <g>
      <polygon class="cls-15" points="654.27 75.51 654.16 75.95 654.16 76.28 654.05 76.72 653.94 77.06 653.72 77.39 653.61 77.72 653.39 78.05 653.06 78.27 645.57 85.76 645.35 86.09 645.02 86.31 644.69 86.53 644.35 86.64 644.02 86.75 643.58 86.86 643.25 86.97 642.81 86.97 629.04 86.97 627.83 86.86 626.73 86.53 625.63 85.98 624.74 85.21 623.97 84.22 623.42 83.22 623.09 82.12 622.98 80.91 622.98 46.1 623.09 44.89 623.42 43.78 623.97 42.68 624.74 41.8 625.63 41.03 626.73 40.48 627.83 40.15 629.04 40.04 642.81 40.04 643.25 40.04 643.58 40.04 644.02 40.15 644.35 40.37 644.69 40.48 645.02 40.7 645.35 40.92 645.57 41.14 653.06 48.63 653.39 48.96 653.61 49.29 653.72 49.62 653.94 49.95 654.05 50.28 654.16 50.61 654.16 51.06 654.27 51.39 654.27 75.51"/>
      <rect class="cls-31" x="630.8" y="47.86" width="7.82" height="3.86"/>
      <rect class="cls-3" x="630.8" y="47.86" width="7.82" height="3.86"/>
      <line class="cls-3" x1="637.63" y1="48.85" x2="638.63" y2="47.86"/>
      <line class="cls-3" x1="637.63" y1="50.73" x2="638.63" y2="51.72"/>
      <line class="cls-3" x1="631.69" y1="50.73" x2="630.8" y2="51.72"/>
      <rect class="cls-31" x="630.8" y="75.18" width="7.82" height="3.97"/>
      <rect class="cls-3" x="631.69" y="48.85" width="5.84" height="1.98"/>
      <line class="cls-3" x1="630.8" y1="47.86" x2="631.69" y2="48.85"/>
      <line class="cls-3" x1="637.63" y1="76.17" x2="638.63" y2="75.18"/>
      <line class="cls-3" x1="637.63" y1="78.16" x2="638.63" y2="79.15"/>
      <line class="cls-3" x1="630.8" y1="79.15" x2="631.69" y2="78.16"/>
      <rect class="cls-3" x="631.69" y="76.17" width="5.84" height="1.98"/>
      <line class="cls-3" x1="631.69" y1="76.17" x2="630.8" y2="75.18"/>
      <rect class="cls-31" x="638.63" y="61.52" width="7.82" height="3.86"/>
      <line class="cls-3" x1="638.63" y1="65.49" x2="639.62" y2="64.5"/>
      <line class="cls-3" x1="639.62" y1="62.51" x2="638.63" y2="61.52"/>
      <line class="cls-3" x1="645.46" y1="62.51" x2="646.45" y2="61.52"/>
      <rect class="cls-3" x="639.62" y="62.51" width="5.84" height="1.98"/>
      <line class="cls-3" x1="645.46" y1="64.5" x2="646.45" y2="65.49"/>
    </g>
    <path class="cls-15" d="m581.77,69l-.11,1.98c0,.22,0,.33.55.33h16.31c.22,0,.44,0,.44-.22v-2.2s-17.19.11-17.19.11Z"/>
    <path class="cls-26" d="m581.11,43.33l18.62.22s-1.43,16.42-.55,24.57c0,0,.33,1.21-.33,1.21h-16.86s-.88,0-.66-1.1c.11,0,1.21-12.23-.22-24.9h0Z"/>
    <circle class="cls-7" cx="590.48" cy="61.84" r="1.99"/>
    <g>
      <g id="_Grid_Repeat_" data-name=" Grid Repeat ">
        <g id="_Grid_Repeat_-2" data-name=" Grid Repeat -2">
          <polygon class="cls-25" points="666.47 29.29 664.13 29.29 662.95 31.32 664.13 33.35 666.47 33.35 667.64 31.32 666.47 29.29"/>
        </g>
      </g>
      <g id="_Grid_Repeat_-3" data-name=" Grid Repeat -3">
        <g id="_Grid_Repeat_-4" data-name=" Grid Repeat -4">
          <polygon class="cls-25" points="679.14 29.29 676.79 29.29 675.62 31.32 676.79 33.35 679.14 33.35 680.31 31.32 679.14 29.29"/>
        </g>
      </g>
      <g id="_Grid_Repeat_-5" data-name=" Grid Repeat -5">
        <g id="_Grid_Repeat_-6" data-name=" Grid Repeat -6">
          <polygon class="cls-25" points="704.47 29.29 702.13 29.29 700.96 31.32 702.13 33.35 704.47 33.35 705.64 31.32 704.47 29.29"/>
        </g>
      </g>
      <g id="_Grid_Repeat_-7" data-name=" Grid Repeat -7">
        <g id="_Grid_Repeat_-8" data-name=" Grid Repeat -8">
          <polygon class="cls-25" points="717.14 29.29 714.79 29.29 713.62 31.32 714.79 33.35 717.14 33.35 718.31 31.32 717.14 29.29"/>
        </g>
      </g>
      <g id="_Grid_Repeat_-9" data-name=" Grid Repeat -9">
        <g id="_Grid_Repeat_-10" data-name=" Grid Repeat -10">
          <polygon class="cls-25" points="729.81 29.29 727.46 29.29 726.29 31.32 727.46 33.35 729.81 33.35 730.98 31.32 729.81 29.29"/>
        </g>
      </g>
      <g id="_Grid_Repeat_-11" data-name=" Grid Repeat -11">
        <g id="_Grid_Repeat_-12" data-name=" Grid Repeat -12">
          <polygon class="cls-25" points="666.47 35.96 664.13 35.96 662.95 37.99 664.13 40.02 666.47 40.02 667.64 37.99 666.47 35.96"/>
        </g>
      </g>
      <g id="_Grid_Repeat_-13" data-name=" Grid Repeat -13">
        <g id="_Grid_Repeat_-14" data-name=" Grid Repeat -14">
          <polygon class="cls-25" points="672.8 32.63 670.46 32.63 669.29 34.66 670.46 36.69 672.8 36.69 673.98 34.66 672.8 32.63"/>
        </g>
      </g>
      <g id="_Grid_Repeat_-15" data-name=" Grid Repeat -15">
        <g id="_Grid_Repeat_-16" data-name=" Grid Repeat -16">
          <polygon class="cls-25" points="685.47 32.63 683.13 32.63 681.95 34.66 683.13 36.69 685.47 36.69 686.64 34.66 685.47 32.63"/>
        </g>
      </g>
      <g id="_Grid_Repeat_-17" data-name=" Grid Repeat -17">
        <g id="_Grid_Repeat_-18" data-name=" Grid Repeat -18">
          <polygon class="cls-25" points="679.14 35.96 676.79 35.96 675.62 37.99 676.79 40.02 679.14 40.02 680.31 37.99 679.14 35.96"/>
        </g>
      </g>
      <g id="_Grid_Repeat_-19" data-name=" Grid Repeat -19">
        <g id="_Grid_Repeat_-20" data-name=" Grid Repeat -20">
          <polygon class="cls-25" points="704.47 35.96 702.13 35.96 700.96 37.99 702.13 40.02 704.47 40.02 705.64 37.99 704.47 35.96"/>
        </g>
      </g>
      <g id="_Grid_Repeat_-21" data-name=" Grid Repeat -21">
        <g id="_Grid_Repeat_-22" data-name=" Grid Repeat -22">
          <polygon class="cls-25" points="691.8 35.96 689.46 35.96 688.29 37.99 689.46 40.02 691.8 40.02 692.98 37.99 691.8 35.96"/>
        </g>
      </g>
      <g id="_Grid_Repeat_-23" data-name=" Grid Repeat -23">
        <g id="_Grid_Repeat_-24" data-name=" Grid Repeat -24">
          <polygon class="cls-25" points="710.81 32.63 708.46 32.63 707.29 34.66 708.46 36.69 710.81 36.69 711.98 34.66 710.81 32.63"/>
        </g>
      </g>
      <g id="_Grid_Repeat_-25" data-name=" Grid Repeat -25">
        <g id="_Grid_Repeat_-26" data-name=" Grid Repeat -26">
          <polygon class="cls-25" points="698.14 32.63 695.79 32.63 694.62 34.66 695.79 36.69 698.14 36.69 699.31 34.66 698.14 32.63"/>
        </g>
      </g>
      <g id="_Grid_Repeat_-27" data-name=" Grid Repeat -27">
        <g id="_Grid_Repeat_-28" data-name=" Grid Repeat -28">
          <polygon class="cls-25" points="717.14 35.96 714.79 35.96 713.62 37.99 714.79 40.02 717.14 40.02 718.31 37.99 717.14 35.96"/>
        </g>
      </g>
      <g id="_Grid_Repeat_-29" data-name=" Grid Repeat -29">
        <g id="_Grid_Repeat_-30" data-name=" Grid Repeat -30">
          <polygon class="cls-25" points="723.47 32.63 721.13 32.63 719.96 34.66 721.13 36.69 723.47 36.69 724.65 34.66 723.47 32.63"/>
        </g>
      </g>
      <g id="_Grid_Repeat_-31" data-name=" Grid Repeat -31">
        <g id="_Grid_Repeat_-32" data-name=" Grid Repeat -32">
          <polygon class="cls-25" points="729.81 35.96 727.46 35.96 726.29 37.99 727.46 40.02 729.81 40.02 730.98 37.99 729.81 35.96"/>
        </g>
      </g>
      <g id="_Grid_Repeat_-33" data-name=" Grid Repeat -33">
        <g id="_Grid_Repeat_-34" data-name=" Grid Repeat -34">
          <polygon class="cls-25" points="742.47 35.96 740.13 35.96 738.96 37.99 740.13 40.02 742.47 40.02 743.65 37.99 742.47 35.96"/>
        </g>
      </g>
      <g id="_Grid_Repeat_-35" data-name=" Grid Repeat -35">
        <g id="_Grid_Repeat_-36" data-name=" Grid Repeat -36">
          <polygon class="cls-25" points="736.14 32.63 733.8 32.63 732.62 34.66 733.8 36.69 736.14 36.69 737.31 34.66 736.14 32.63"/>
        </g>
      </g>
      <g id="_Grid_Repeat_-37" data-name=" Grid Repeat -37">
        <g id="_Grid_Repeat_-38" data-name=" Grid Repeat -38">
          <polygon class="cls-25" points="666.47 42.63 664.13 42.63 662.95 44.66 664.13 46.69 666.47 46.69 667.64 44.66 666.47 42.63"/>
        </g>
      </g>
      <g id="_Grid_Repeat_-39" data-name=" Grid Repeat -39">
        <g id="_Grid_Repeat_-40" data-name=" Grid Repeat -40">
          <polygon class="cls-25" points="672.8 39.29 670.46 39.29 669.29 41.32 670.46 43.35 672.8 43.35 673.98 41.32 672.8 39.29"/>
        </g>
      </g>
      <g id="_Grid_Repeat_-41" data-name=" Grid Repeat -41">
        <g id="_Grid_Repeat_-42" data-name=" Grid Repeat -42">
          <polygon class="cls-25" points="679.14 42.63 676.79 42.63 675.62 44.66 676.79 46.69 679.14 46.69 680.31 44.66 679.14 42.63"/>
        </g>
      </g>
      <g id="_Grid_Repeat_-43" data-name=" Grid Repeat -43">
        <g id="_Grid_Repeat_-44" data-name=" Grid Repeat -44">
          <polygon class="cls-25" points="685.47 39.29 683.13 39.29 681.95 41.32 683.13 43.35 685.47 43.35 686.64 41.32 685.47 39.29"/>
        </g>
      </g>
      <g id="_Grid_Repeat_-45" data-name=" Grid Repeat -45">
        <g id="_Grid_Repeat_-46" data-name=" Grid Repeat -46">
          <polygon class="cls-25" points="691.8 42.63 689.46 42.63 688.29 44.66 689.46 46.69 691.8 46.69 692.98 44.66 691.8 42.63"/>
        </g>
      </g>
      <g id="_Grid_Repeat_-47" data-name=" Grid Repeat -47">
        <g id="_Grid_Repeat_-48" data-name=" Grid Repeat -48">
          <polygon class="cls-25" points="698.14 39.29 695.79 39.29 694.62 41.32 695.79 43.35 698.14 43.35 699.31 41.32 698.14 39.29"/>
        </g>
      </g>
      <g id="_Grid_Repeat_-49" data-name=" Grid Repeat -49">
        <g id="_Grid_Repeat_-50" data-name=" Grid Repeat -50">
          <polygon class="cls-25" points="704.47 42.63 702.13 42.63 700.96 44.66 702.13 46.69 704.47 46.69 705.64 44.66 704.47 42.63"/>
        </g>
      </g>
      <g id="_Grid_Repeat_-51" data-name=" Grid Repeat -51">
        <g id="_Grid_Repeat_-52" data-name=" Grid Repeat -52">
          <polygon class="cls-25" points="710.81 39.29 708.46 39.29 707.29 41.32 708.46 43.35 710.81 43.35 711.98 41.32 710.81 39.29"/>
        </g>
      </g>
      <g id="_Grid_Repeat_-53" data-name=" Grid Repeat -53">
        <g id="_Grid_Repeat_-54" data-name=" Grid Repeat -54">
          <polygon class="cls-25" points="717.14 42.63 714.79 42.63 713.62 44.66 714.79 46.69 717.14 46.69 718.31 44.66 717.14 42.63"/>
        </g>
      </g>
      <g id="_Grid_Repeat_-55" data-name=" Grid Repeat -55">
        <g id="_Grid_Repeat_-56" data-name=" Grid Repeat -56">
          <polygon class="cls-25" points="723.47 39.29 721.13 39.29 719.96 41.32 721.13 43.35 723.47 43.35 724.65 41.32 723.47 39.29"/>
        </g>
      </g>
      <g id="_Grid_Repeat_-57" data-name=" Grid Repeat -57">
        <g id="_Grid_Repeat_-58" data-name=" Grid Repeat -58">
          <polygon class="cls-25" points="729.81 42.63 727.46 42.63 726.29 44.66 727.46 46.69 729.81 46.69 730.98 44.66 729.81 42.63"/>
        </g>
      </g>
      <g id="_Grid_Repeat_-59" data-name=" Grid Repeat -59">
        <g id="_Grid_Repeat_-60" data-name=" Grid Repeat -60">
          <polygon class="cls-25" points="736.14 39.29 733.8 39.29 732.62 41.32 733.8 43.35 736.14 43.35 737.31 41.32 736.14 39.29"/>
        </g>
      </g>
      <g id="_Grid_Repeat_-61" data-name=" Grid Repeat -61">
        <g id="_Grid_Repeat_-62" data-name=" Grid Repeat -62">
          <polygon class="cls-25" points="742.47 42.63 740.13 42.63 738.96 44.66 740.13 46.69 742.47 46.69 743.65 44.66 742.47 42.63"/>
        </g>
      </g>
      <g id="_Grid_Repeat_-63" data-name=" Grid Repeat -63">
        <g id="_Grid_Repeat_-64" data-name=" Grid Repeat -64">
          <polygon class="cls-25" points="748.81 39.29 746.46 39.29 745.29 41.32 746.46 43.35 748.81 43.35 749.98 41.32 748.81 39.29"/>
        </g>
      </g>
      <g id="_Grid_Repeat_-65" data-name=" Grid Repeat -65">
        <g id="_Grid_Repeat_-66" data-name=" Grid Repeat -66">
          <polygon class="cls-25" points="666.47 49.29 664.13 49.29 662.95 51.32 664.13 53.35 666.47 53.35 667.64 51.32 666.47 49.29"/>
        </g>
      </g>
      <g id="_Grid_Repeat_-67" data-name=" Grid Repeat -67">
        <g id="_Grid_Repeat_-68" data-name=" Grid Repeat -68">
          <polygon class="cls-25" points="672.8 45.96 670.46 45.96 669.29 47.99 670.46 50.02 672.8 50.02 673.98 47.99 672.8 45.96"/>
        </g>
      </g>
      <g id="_Grid_Repeat_-69" data-name=" Grid Repeat -69">
        <g id="_Grid_Repeat_-70" data-name=" Grid Repeat -70">
          <polygon class="cls-25" points="679.14 49.29 676.79 49.29 675.62 51.32 676.79 53.35 679.14 53.35 680.31 51.32 679.14 49.29"/>
        </g>
      </g>
      <g id="_Grid_Repeat_-71" data-name=" Grid Repeat -71">
        <g id="_Grid_Repeat_-72" data-name=" Grid Repeat -72">
          <polygon class="cls-25" points="685.47 45.96 683.13 45.96 681.95 47.99 683.13 50.02 685.47 50.02 686.64 47.99 685.47 45.96"/>
        </g>
      </g>
      <g id="_Grid_Repeat_-73" data-name=" Grid Repeat -73">
        <g id="_Grid_Repeat_-74" data-name=" Grid Repeat -74">
          <polygon class="cls-25" points="691.8 49.29 689.46 49.29 688.29 51.32 689.46 53.35 691.8 53.35 692.98 51.32 691.8 49.29"/>
        </g>
      </g>
      <g id="_Grid_Repeat_-75" data-name=" Grid Repeat -75">
        <g id="_Grid_Repeat_-76" data-name=" Grid Repeat -76">
          <polygon class="cls-25" points="698.14 45.96 695.79 45.96 694.62 47.99 695.79 50.02 698.14 50.02 699.31 47.99 698.14 45.96"/>
        </g>
      </g>
      <g id="_Grid_Repeat_-77" data-name=" Grid Repeat -77">
        <g id="_Grid_Repeat_-78" data-name=" Grid Repeat -78">
          <polygon class="cls-25" points="704.47 49.29 702.13 49.29 700.96 51.32 702.13 53.35 704.47 53.35 705.64 51.32 704.47 49.29"/>
        </g>
      </g>
      <g id="_Grid_Repeat_-79" data-name=" Grid Repeat -79">
        <g id="_Grid_Repeat_-80" data-name=" Grid Repeat -80">
          <polygon class="cls-25" points="710.81 45.96 708.46 45.96 707.29 47.99 708.46 50.02 710.81 50.02 711.98 47.99 710.81 45.96"/>
        </g>
      </g>
      <g id="_Grid_Repeat_-81" data-name=" Grid Repeat -81">
        <g id="_Grid_Repeat_-82" data-name=" Grid Repeat -82">
          <polygon class="cls-25" points="717.14 49.29 714.79 49.29 713.62 51.32 714.79 53.35 717.14 53.35 718.31 51.32 717.14 49.29"/>
        </g>
      </g>
      <g id="_Grid_Repeat_-83" data-name=" Grid Repeat -83">
        <g id="_Grid_Repeat_-84" data-name=" Grid Repeat -84">
          <polygon class="cls-25" points="723.47 45.96 721.13 45.96 719.96 47.99 721.13 50.02 723.47 50.02 724.65 47.99 723.47 45.96"/>
        </g>
      </g>
      <g id="_Grid_Repeat_-85" data-name=" Grid Repeat -85">
        <g id="_Grid_Repeat_-86" data-name=" Grid Repeat -86">
          <polygon class="cls-25" points="729.81 49.29 727.46 49.29 726.29 51.32 727.46 53.35 729.81 53.35 730.98 51.32 729.81 49.29"/>
        </g>
      </g>
      <g id="_Grid_Repeat_-87" data-name=" Grid Repeat -87">
        <g id="_Grid_Repeat_-88" data-name=" Grid Repeat -88">
          <polygon class="cls-25" points="736.14 45.96 733.8 45.96 732.62 47.99 733.8 50.02 736.14 50.02 737.31 47.99 736.14 45.96"/>
        </g>
      </g>
      <g id="_Grid_Repeat_-89" data-name=" Grid Repeat -89">
        <g id="_Grid_Repeat_-90" data-name=" Grid Repeat -90">
          <polygon class="cls-25" points="742.47 49.29 740.13 49.29 738.96 51.32 740.13 53.35 742.47 53.35 743.65 51.32 742.47 49.29"/>
        </g>
      </g>
      <g id="_Grid_Repeat_-91" data-name=" Grid Repeat -91">
        <g id="_Grid_Repeat_-92" data-name=" Grid Repeat -92">
          <polygon class="cls-25" points="748.81 45.96 746.46 45.96 745.29 47.99 746.46 50.02 748.81 50.02 749.98 47.99 748.81 45.96"/>
        </g>
      </g>
      <g id="_Grid_Repeat_-93" data-name=" Grid Repeat -93">
        <g id="_Grid_Repeat_-94" data-name=" Grid Repeat -94">
          <polygon class="cls-25" points="666.47 55.96 664.13 55.96 662.95 57.99 664.13 60.02 666.47 60.02 667.64 57.99 666.47 55.96"/>
        </g>
      </g>
      <g id="_Grid_Repeat_-95" data-name=" Grid Repeat -95">
        <g id="_Grid_Repeat_-96" data-name=" Grid Repeat -96">
          <polygon class="cls-25" points="672.8 52.63 670.46 52.63 669.29 54.66 670.46 56.69 672.8 56.69 673.98 54.66 672.8 52.63"/>
        </g>
      </g>
      <g id="_Grid_Repeat_-97" data-name=" Grid Repeat -97">
        <g id="_Grid_Repeat_-98" data-name=" Grid Repeat -98">
          <polygon class="cls-25" points="679.14 55.96 676.79 55.96 675.62 57.99 676.79 60.02 679.14 60.02 680.31 57.99 679.14 55.96"/>
        </g>
      </g>
      <g id="_Grid_Repeat_-99" data-name=" Grid Repeat -99">
        <g id="_Grid_Repeat_-100" data-name=" Grid Repeat -100">
          <polygon class="cls-25" points="685.47 52.63 683.13 52.63 681.95 54.66 683.13 56.69 685.47 56.69 686.64 54.66 685.47 52.63"/>
        </g>
      </g>
      <g id="_Grid_Repeat_-101" data-name=" Grid Repeat -101">
        <g id="_Grid_Repeat_-102" data-name=" Grid Repeat -102">
          <polygon class="cls-25" points="691.8 55.96 689.46 55.96 688.29 57.99 689.46 60.02 691.8 60.02 692.98 57.99 691.8 55.96"/>
        </g>
      </g>
      <g id="_Grid_Repeat_-103" data-name=" Grid Repeat -103">
        <g id="_Grid_Repeat_-104" data-name=" Grid Repeat -104">
          <polygon class="cls-25" points="698.14 52.63 695.79 52.63 694.62 54.66 695.79 56.69 698.14 56.69 699.31 54.66 698.14 52.63"/>
        </g>
      </g>
      <g id="_Grid_Repeat_-105" data-name=" Grid Repeat -105">
        <g id="_Grid_Repeat_-106" data-name=" Grid Repeat -106">
          <polygon class="cls-25" points="704.47 55.96 702.13 55.96 700.96 57.99 702.13 60.02 704.47 60.02 705.64 57.99 704.47 55.96"/>
        </g>
      </g>
      <g id="_Grid_Repeat_-107" data-name=" Grid Repeat -107">
        <g id="_Grid_Repeat_-108" data-name=" Grid Repeat -108">
          <polygon class="cls-25" points="710.81 52.63 708.46 52.63 707.29 54.66 708.46 56.69 710.81 56.69 711.98 54.66 710.81 52.63"/>
        </g>
      </g>
      <g id="_Grid_Repeat_-109" data-name=" Grid Repeat -109">
        <g id="_Grid_Repeat_-110" data-name=" Grid Repeat -110">
          <polygon class="cls-25" points="717.14 55.96 714.79 55.96 713.62 57.99 714.79 60.02 717.14 60.02 718.31 57.99 717.14 55.96"/>
        </g>
      </g>
      <g id="_Grid_Repeat_-111" data-name=" Grid Repeat -111">
        <g id="_Grid_Repeat_-112" data-name=" Grid Repeat -112">
          <polygon class="cls-25" points="723.47 52.63 721.13 52.63 719.96 54.66 721.13 56.69 723.47 56.69 724.65 54.66 723.47 52.63"/>
        </g>
      </g>
      <g id="_Grid_Repeat_-113" data-name=" Grid Repeat -113">
        <g id="_Grid_Repeat_-114" data-name=" Grid Repeat -114">
          <polygon class="cls-25" points="729.81 55.96 727.46 55.96 726.29 57.99 727.46 60.02 729.81 60.02 730.98 57.99 729.81 55.96"/>
        </g>
      </g>
      <g id="_Grid_Repeat_-115" data-name=" Grid Repeat -115">
        <g id="_Grid_Repeat_-116" data-name=" Grid Repeat -116">
          <polygon class="cls-25" points="736.14 52.63 733.8 52.63 732.62 54.66 733.8 56.69 736.14 56.69 737.31 54.66 736.14 52.63"/>
        </g>
      </g>
      <g id="_Grid_Repeat_-117" data-name=" Grid Repeat -117">
        <g id="_Grid_Repeat_-118" data-name=" Grid Repeat -118">
          <polygon class="cls-25" points="742.47 55.96 740.13 55.96 738.96 57.99 740.13 60.02 742.47 60.02 743.65 57.99 742.47 55.96"/>
        </g>
      </g>
      <g id="_Grid_Repeat_-119" data-name=" Grid Repeat -119">
        <g id="_Grid_Repeat_-120" data-name=" Grid Repeat -120">
          <polygon class="cls-25" points="748.81 52.63 746.46 52.63 745.29 54.66 746.46 56.69 748.81 56.69 749.98 54.66 748.81 52.63"/>
        </g>
      </g>
      <g id="_Grid_Repeat_-121" data-name=" Grid Repeat -121">
        <g id="_Grid_Repeat_-122" data-name=" Grid Repeat -122">
          <polygon class="cls-25" points="666.47 62.63 664.13 62.63 662.95 64.66 664.13 66.69 666.47 66.69 667.64 64.66 666.47 62.63"/>
        </g>
      </g>
      <g id="_Grid_Repeat_-123" data-name=" Grid Repeat -123">
        <g id="_Grid_Repeat_-124" data-name=" Grid Repeat -124">
          <polygon class="cls-25" points="672.8 59.29 670.46 59.29 669.29 61.32 670.46 63.36 672.8 63.36 673.98 61.32 672.8 59.29"/>
        </g>
      </g>
      <g id="_Grid_Repeat_-125" data-name=" Grid Repeat -125">
        <g id="_Grid_Repeat_-126" data-name=" Grid Repeat -126">
          <polygon class="cls-25" points="679.14 62.63 676.79 62.63 675.62 64.66 676.79 66.69 679.14 66.69 680.31 64.66 679.14 62.63"/>
        </g>
      </g>
      <g id="_Grid_Repeat_-127" data-name=" Grid Repeat -127">
        <g id="_Grid_Repeat_-128" data-name=" Grid Repeat -128">
          <polygon class="cls-25" points="685.47 59.29 683.13 59.29 681.95 61.32 683.13 63.36 685.47 63.36 686.64 61.32 685.47 59.29"/>
        </g>
      </g>
      <g id="_Grid_Repeat_-129" data-name=" Grid Repeat -129">
        <g id="_Grid_Repeat_-130" data-name=" Grid Repeat -130">
          <polygon class="cls-25" points="691.8 62.63 689.46 62.63 688.29 64.66 689.46 66.69 691.8 66.69 692.98 64.66 691.8 62.63"/>
        </g>
      </g>
      <g id="_Grid_Repeat_-131" data-name=" Grid Repeat -131">
        <g id="_Grid_Repeat_-132" data-name=" Grid Repeat -132">
          <polygon class="cls-25" points="698.14 59.29 695.79 59.29 694.62 61.32 695.79 63.36 698.14 63.36 699.31 61.32 698.14 59.29"/>
        </g>
      </g>
      <g id="_Grid_Repeat_-133" data-name=" Grid Repeat -133">
        <g id="_Grid_Repeat_-134" data-name=" Grid Repeat -134">
          <polygon class="cls-25" points="704.47 62.63 702.13 62.63 700.96 64.66 702.13 66.69 704.47 66.69 705.64 64.66 704.47 62.63"/>
        </g>
      </g>
      <g id="_Grid_Repeat_-135" data-name=" Grid Repeat -135">
        <g id="_Grid_Repeat_-136" data-name=" Grid Repeat -136">
          <polygon class="cls-25" points="710.81 59.29 708.46 59.29 707.29 61.32 708.46 63.36 710.81 63.36 711.98 61.32 710.81 59.29"/>
        </g>
      </g>
      <g id="_Grid_Repeat_-137" data-name=" Grid Repeat -137">
        <g id="_Grid_Repeat_-138" data-name=" Grid Repeat -138">
          <polygon class="cls-25" points="717.14 62.63 714.79 62.63 713.62 64.66 714.79 66.69 717.14 66.69 718.31 64.66 717.14 62.63"/>
        </g>
      </g>
      <g id="_Grid_Repeat_-139" data-name=" Grid Repeat -139">
        <g id="_Grid_Repeat_-140" data-name=" Grid Repeat -140">
          <polygon class="cls-25" points="723.47 59.29 721.13 59.29 719.96 61.32 721.13 63.36 723.47 63.36 724.65 61.32 723.47 59.29"/>
        </g>
      </g>
      <g id="_Grid_Repeat_-141" data-name=" Grid Repeat -141">
        <g id="_Grid_Repeat_-142" data-name=" Grid Repeat -142">
          <polygon class="cls-25" points="729.81 62.63 727.46 62.63 726.29 64.66 727.46 66.69 729.81 66.69 730.98 64.66 729.81 62.63"/>
        </g>
      </g>
      <g id="_Grid_Repeat_-143" data-name=" Grid Repeat -143">
        <g id="_Grid_Repeat_-144" data-name=" Grid Repeat -144">
          <polygon class="cls-25" points="736.14 59.29 733.8 59.29 732.62 61.32 733.8 63.36 736.14 63.36 737.31 61.32 736.14 59.29"/>
        </g>
      </g>
      <g id="_Grid_Repeat_-145" data-name=" Grid Repeat -145">
        <g id="_Grid_Repeat_-146" data-name=" Grid Repeat -146">
          <polygon class="cls-25" points="742.47 62.63 740.13 62.63 738.96 64.66 740.13 66.69 742.47 66.69 743.65 64.66 742.47 62.63"/>
        </g>
      </g>
      <g id="_Grid_Repeat_-147" data-name=" Grid Repeat -147">
        <g id="_Grid_Repeat_-148" data-name=" Grid Repeat -148">
          <polygon class="cls-25" points="748.81 59.29 746.46 59.29 745.29 61.32 746.46 63.36 748.81 63.36 749.98 61.32 748.81 59.29"/>
        </g>
      </g>
      <g id="_Grid_Repeat_-149" data-name=" Grid Repeat -149">
        <g id="_Grid_Repeat_-150" data-name=" Grid Repeat -150">
          <polygon class="cls-25" points="666.47 69.29 664.13 69.29 662.95 71.33 664.13 73.36 666.47 73.36 667.64 71.33 666.47 69.29"/>
        </g>
      </g>
      <g id="_Grid_Repeat_-151" data-name=" Grid Repeat -151">
        <g id="_Grid_Repeat_-152" data-name=" Grid Repeat -152">
          <polygon class="cls-25" points="672.8 65.96 670.46 65.96 669.29 67.99 670.46 70.02 672.8 70.02 673.98 67.99 672.8 65.96"/>
        </g>
      </g>
      <g id="_Grid_Repeat_-153" data-name=" Grid Repeat -153">
        <g id="_Grid_Repeat_-154" data-name=" Grid Repeat -154">
          <polygon class="cls-25" points="679.14 69.29 676.79 69.29 675.62 71.33 676.79 73.36 679.14 73.36 680.31 71.33 679.14 69.29"/>
        </g>
      </g>
      <g id="_Grid_Repeat_-155" data-name=" Grid Repeat -155">
        <g id="_Grid_Repeat_-156" data-name=" Grid Repeat -156">
          <polygon class="cls-25" points="685.47 65.96 683.13 65.96 681.95 67.99 683.13 70.02 685.47 70.02 686.64 67.99 685.47 65.96"/>
        </g>
      </g>
      <g id="_Grid_Repeat_-157" data-name=" Grid Repeat -157">
        <g id="_Grid_Repeat_-158" data-name=" Grid Repeat -158">
          <polygon class="cls-25" points="691.8 69.29 689.46 69.29 688.29 71.33 689.46 73.36 691.8 73.36 692.98 71.33 691.8 69.29"/>
        </g>
      </g>
      <g id="_Grid_Repeat_-159" data-name=" Grid Repeat -159">
        <g id="_Grid_Repeat_-160" data-name=" Grid Repeat -160">
          <polygon class="cls-25" points="698.14 65.96 695.79 65.96 694.62 67.99 695.79 70.02 698.14 70.02 699.31 67.99 698.14 65.96"/>
        </g>
      </g>
      <g id="_Grid_Repeat_-161" data-name=" Grid Repeat -161">
        <g id="_Grid_Repeat_-162" data-name=" Grid Repeat -162">
          <polygon class="cls-25" points="704.47 69.29 702.13 69.29 700.96 71.33 702.13 73.36 704.47 73.36 705.64 71.33 704.47 69.29"/>
        </g>
      </g>
      <g id="_Grid_Repeat_-163" data-name=" Grid Repeat -163">
        <g id="_Grid_Repeat_-164" data-name=" Grid Repeat -164">
          <polygon class="cls-25" points="710.81 65.96 708.46 65.96 707.29 67.99 708.46 70.02 710.81 70.02 711.98 67.99 710.81 65.96"/>
        </g>
      </g>
      <g id="_Grid_Repeat_-165" data-name=" Grid Repeat -165">
        <g id="_Grid_Repeat_-166" data-name=" Grid Repeat -166">
          <polygon class="cls-25" points="717.14 69.29 714.79 69.29 713.62 71.33 714.79 73.36 717.14 73.36 718.31 71.33 717.14 69.29"/>
        </g>
      </g>
      <g id="_Grid_Repeat_-167" data-name=" Grid Repeat -167">
        <g id="_Grid_Repeat_-168" data-name=" Grid Repeat -168">
          <polygon class="cls-25" points="723.47 65.96 721.13 65.96 719.96 67.99 721.13 70.02 723.47 70.02 724.65 67.99 723.47 65.96"/>
        </g>
      </g>
      <g id="_Grid_Repeat_-169" data-name=" Grid Repeat -169">
        <g id="_Grid_Repeat_-170" data-name=" Grid Repeat -170">
          <polygon class="cls-25" points="729.81 69.29 727.46 69.29 726.29 71.33 727.46 73.36 729.81 73.36 730.98 71.33 729.81 69.29"/>
        </g>
      </g>
      <g id="_Grid_Repeat_-171" data-name=" Grid Repeat -171">
        <g id="_Grid_Repeat_-172" data-name=" Grid Repeat -172">
          <polygon class="cls-25" points="736.14 65.96 733.8 65.96 732.62 67.99 733.8 70.02 736.14 70.02 737.31 67.99 736.14 65.96"/>
        </g>
      </g>
      <g id="_Grid_Repeat_-173" data-name=" Grid Repeat -173">
        <g id="_Grid_Repeat_-174" data-name=" Grid Repeat -174">
          <polygon class="cls-25" points="742.47 69.29 740.13 69.29 738.96 71.33 740.13 73.36 742.47 73.36 743.65 71.33 742.47 69.29"/>
        </g>
      </g>
      <g id="_Grid_Repeat_-175" data-name=" Grid Repeat -175">
        <g id="_Grid_Repeat_-176" data-name=" Grid Repeat -176">
          <polygon class="cls-25" points="748.81 65.96 746.46 65.96 745.29 67.99 746.46 70.02 748.81 70.02 749.98 67.99 748.81 65.96"/>
        </g>
      </g>
      <g id="_Grid_Repeat_-177" data-name=" Grid Repeat -177">
        <g id="_Grid_Repeat_-178" data-name=" Grid Repeat -178">
          <polygon class="cls-25" points="666.47 75.96 664.13 75.96 662.95 77.99 664.13 80.02 666.47 80.02 667.64 77.99 666.47 75.96"/>
        </g>
      </g>
      <g id="_Grid_Repeat_-179" data-name=" Grid Repeat -179">
        <g id="_Grid_Repeat_-180" data-name=" Grid Repeat -180">
          <polygon class="cls-25" points="672.8 72.63 670.46 72.63 669.29 74.66 670.46 76.69 672.8 76.69 673.98 74.66 672.8 72.63"/>
        </g>
      </g>
      <g id="_Grid_Repeat_-181" data-name=" Grid Repeat -181">
        <g id="_Grid_Repeat_-182" data-name=" Grid Repeat -182">
          <polygon class="cls-25" points="679.14 75.96 676.79 75.96 675.62 77.99 676.79 80.02 679.14 80.02 680.31 77.99 679.14 75.96"/>
        </g>
      </g>
      <g id="_Grid_Repeat_-183" data-name=" Grid Repeat -183">
        <g id="_Grid_Repeat_-184" data-name=" Grid Repeat -184">
          <polygon class="cls-25" points="685.47 72.63 683.13 72.63 681.95 74.66 683.13 76.69 685.47 76.69 686.64 74.66 685.47 72.63"/>
        </g>
      </g>
      <g id="_Grid_Repeat_-185" data-name=" Grid Repeat -185">
        <g id="_Grid_Repeat_-186" data-name=" Grid Repeat -186">
          <polygon class="cls-25" points="691.8 75.96 689.46 75.96 688.29 77.99 689.46 80.02 691.8 80.02 692.98 77.99 691.8 75.96"/>
        </g>
      </g>
      <g id="_Grid_Repeat_-187" data-name=" Grid Repeat -187">
        <g id="_Grid_Repeat_-188" data-name=" Grid Repeat -188">
          <polygon class="cls-25" points="698.14 72.63 695.79 72.63 694.62 74.66 695.79 76.69 698.14 76.69 699.31 74.66 698.14 72.63"/>
        </g>
      </g>
      <g id="_Grid_Repeat_-189" data-name=" Grid Repeat -189">
        <g id="_Grid_Repeat_-190" data-name=" Grid Repeat -190">
          <polygon class="cls-25" points="704.47 75.96 702.13 75.96 700.96 77.99 702.13 80.02 704.47 80.02 705.64 77.99 704.47 75.96"/>
        </g>
      </g>
      <g id="_Grid_Repeat_-191" data-name=" Grid Repeat -191">
        <g id="_Grid_Repeat_-192" data-name=" Grid Repeat -192">
          <polygon class="cls-25" points="710.81 72.63 708.46 72.63 707.29 74.66 708.46 76.69 710.81 76.69 711.98 74.66 710.81 72.63"/>
        </g>
      </g>
      <g id="_Grid_Repeat_-193" data-name=" Grid Repeat -193">
        <g id="_Grid_Repeat_-194" data-name=" Grid Repeat -194">
          <polygon class="cls-25" points="717.14 75.96 714.79 75.96 713.62 77.99 714.79 80.02 717.14 80.02 718.31 77.99 717.14 75.96"/>
        </g>
      </g>
      <g id="_Grid_Repeat_-195" data-name=" Grid Repeat -195">
        <g id="_Grid_Repeat_-196" data-name=" Grid Repeat -196">
          <polygon class="cls-25" points="723.47 72.63 721.13 72.63 719.96 74.66 721.13 76.69 723.47 76.69 724.65 74.66 723.47 72.63"/>
        </g>
      </g>
      <g id="_Grid_Repeat_-197" data-name=" Grid Repeat -197">
        <g id="_Grid_Repeat_-198" data-name=" Grid Repeat -198">
          <polygon class="cls-25" points="729.81 75.96 727.46 75.96 726.29 77.99 727.46 80.02 729.81 80.02 730.98 77.99 729.81 75.96"/>
        </g>
      </g>
      <g id="_Grid_Repeat_-199" data-name=" Grid Repeat -199">
        <g id="_Grid_Repeat_-200" data-name=" Grid Repeat -200">
          <polygon class="cls-25" points="736.14 72.63 733.8 72.63 732.62 74.66 733.8 76.69 736.14 76.69 737.31 74.66 736.14 72.63"/>
        </g>
      </g>
      <g id="_Grid_Repeat_-201" data-name=" Grid Repeat -201">
        <g id="_Grid_Repeat_-202" data-name=" Grid Repeat -202">
          <polygon class="cls-25" points="666.47 82.63 664.13 82.63 662.95 84.66 664.13 86.69 666.47 86.69 667.64 84.66 666.47 82.63"/>
        </g>
      </g>
      <g id="_Grid_Repeat_-203" data-name=" Grid Repeat -203">
        <g id="_Grid_Repeat_-204" data-name=" Grid Repeat -204">
          <polygon class="cls-25" points="672.8 79.3 670.46 79.3 669.29 81.33 670.46 83.36 672.8 83.36 673.98 81.33 672.8 79.3"/>
        </g>
      </g>
      <g id="_Grid_Repeat_-205" data-name=" Grid Repeat -205">
        <g id="_Grid_Repeat_-206" data-name=" Grid Repeat -206">
          <polygon class="cls-25" points="679.14 82.63 676.79 82.63 675.62 84.66 676.79 86.69 679.14 86.69 680.31 84.66 679.14 82.63"/>
        </g>
      </g>
      <g id="_Grid_Repeat_-207" data-name=" Grid Repeat -207">
        <g id="_Grid_Repeat_-208" data-name=" Grid Repeat -208">
          <polygon class="cls-25" points="685.47 79.3 683.13 79.3 681.95 81.33 683.13 83.36 685.47 83.36 686.64 81.33 685.47 79.3"/>
        </g>
      </g>
      <g id="_Grid_Repeat_-209" data-name=" Grid Repeat -209">
        <g id="_Grid_Repeat_-210" data-name=" Grid Repeat -210">
          <polygon class="cls-25" points="691.8 82.63 689.46 82.63 688.29 84.66 689.46 86.69 691.8 86.69 692.98 84.66 691.8 82.63"/>
        </g>
      </g>
      <g id="_Grid_Repeat_-211" data-name=" Grid Repeat -211">
        <g id="_Grid_Repeat_-212" data-name=" Grid Repeat -212">
          <polygon class="cls-25" points="698.14 79.3 695.79 79.3 694.62 81.33 695.79 83.36 698.14 83.36 699.31 81.33 698.14 79.3"/>
        </g>
      </g>
      <g id="_Grid_Repeat_-213" data-name=" Grid Repeat -213">
        <g id="_Grid_Repeat_-214" data-name=" Grid Repeat -214">
          <polygon class="cls-25" points="704.47 82.63 702.13 82.63 700.96 84.66 702.13 86.69 704.47 86.69 705.64 84.66 704.47 82.63"/>
        </g>
      </g>
      <g id="_Grid_Repeat_-215" data-name=" Grid Repeat -215">
        <g id="_Grid_Repeat_-216" data-name=" Grid Repeat -216">
          <polygon class="cls-25" points="710.81 79.3 708.46 79.3 707.29 81.33 708.46 83.36 710.81 83.36 711.98 81.33 710.81 79.3"/>
        </g>
      </g>
      <g id="_Grid_Repeat_-217" data-name=" Grid Repeat -217">
        <g id="_Grid_Repeat_-218" data-name=" Grid Repeat -218">
          <polygon class="cls-25" points="717.14 82.63 714.79 82.63 713.62 84.66 714.79 86.69 717.14 86.69 718.31 84.66 717.14 82.63"/>
        </g>
      </g>
      <g id="_Grid_Repeat_-219" data-name=" Grid Repeat -219">
        <g id="_Grid_Repeat_-220" data-name=" Grid Repeat -220">
          <polygon class="cls-25" points="723.47 79.3 721.13 79.3 719.96 81.33 721.13 83.36 723.47 83.36 724.65 81.33 723.47 79.3"/>
        </g>
      </g>
      <g id="_Grid_Repeat_-221" data-name=" Grid Repeat -221">
        <g id="_Grid_Repeat_-222" data-name=" Grid Repeat -222">
          <polygon class="cls-25" points="729.81 82.63 727.46 82.63 726.29 84.66 727.46 86.69 729.81 86.69 730.98 84.66 729.81 82.63"/>
        </g>
      </g>
      <g id="_Grid_Repeat_-223" data-name=" Grid Repeat -223">
        <g id="_Grid_Repeat_-224" data-name=" Grid Repeat -224">
          <polygon class="cls-25" points="736.14 79.3 733.8 79.3 732.62 81.33 733.8 83.36 736.14 83.36 737.31 81.33 736.14 79.3"/>
        </g>
      </g>
      <g id="_Grid_Repeat_-225" data-name=" Grid Repeat -225">
        <g id="_Grid_Repeat_-226" data-name=" Grid Repeat -226">
          <polygon class="cls-25" points="666.47 89.3 664.13 89.3 662.95 91.33 664.13 93.36 666.47 93.36 667.64 91.33 666.47 89.3"/>
        </g>
      </g>
      <g id="_Grid_Repeat_-227" data-name=" Grid Repeat -227">
        <g id="_Grid_Repeat_-228" data-name=" Grid Repeat -228">
          <polygon class="cls-25" points="672.8 85.96 670.46 85.96 669.29 87.99 670.46 90.02 672.8 90.02 673.98 87.99 672.8 85.96"/>
        </g>
      </g>
      <g id="_Grid_Repeat_-229" data-name=" Grid Repeat -229">
        <g id="_Grid_Repeat_-230" data-name=" Grid Repeat -230">
          <polygon class="cls-25" points="679.14 89.3 676.79 89.3 675.62 91.33 676.79 93.36 679.14 93.36 680.31 91.33 679.14 89.3"/>
        </g>
      </g>
      <g id="_Grid_Repeat_-231" data-name=" Grid Repeat -231">
        <g id="_Grid_Repeat_-232" data-name=" Grid Repeat -232">
          <polygon class="cls-25" points="685.47 85.96 683.13 85.96 681.95 87.99 683.13 90.02 685.47 90.02 686.64 87.99 685.47 85.96"/>
        </g>
      </g>
      <g id="_Grid_Repeat_-233" data-name=" Grid Repeat -233">
        <g id="_Grid_Repeat_-234" data-name=" Grid Repeat -234">
          <polygon class="cls-25" points="691.8 89.3 689.46 89.3 688.29 91.33 689.46 93.36 691.8 93.36 692.98 91.33 691.8 89.3"/>
        </g>
      </g>
      <g id="_Grid_Repeat_-235" data-name=" Grid Repeat -235">
        <g id="_Grid_Repeat_-236" data-name=" Grid Repeat -236">
          <polygon class="cls-25" points="698.14 85.96 695.79 85.96 694.62 87.99 695.79 90.02 698.14 90.02 699.31 87.99 698.14 85.96"/>
        </g>
      </g>
      <g id="_Grid_Repeat_-237" data-name=" Grid Repeat -237">
        <g id="_Grid_Repeat_-238" data-name=" Grid Repeat -238">
          <polygon class="cls-25" points="704.47 89.3 702.13 89.3 700.96 91.33 702.13 93.36 704.47 93.36 705.64 91.33 704.47 89.3"/>
        </g>
      </g>
      <g id="_Grid_Repeat_-239" data-name=" Grid Repeat -239">
        <g id="_Grid_Repeat_-240" data-name=" Grid Repeat -240">
          <polygon class="cls-25" points="710.81 85.96 708.46 85.96 707.29 87.99 708.46 90.02 710.81 90.02 711.98 87.99 710.81 85.96"/>
        </g>
      </g>
      <g id="_Grid_Repeat_-241" data-name=" Grid Repeat -241">
        <g id="_Grid_Repeat_-242" data-name=" Grid Repeat -242">
          <polygon class="cls-25" points="717.14 89.3 714.79 89.3 713.62 91.33 714.79 93.36 717.14 93.36 718.31 91.33 717.14 89.3"/>
        </g>
      </g>
      <g id="_Grid_Repeat_-243" data-name=" Grid Repeat -243">
        <g id="_Grid_Repeat_-244" data-name=" Grid Repeat -244">
          <polygon class="cls-25" points="723.47 85.96 721.13 85.96 719.96 87.99 721.13 90.02 723.47 90.02 724.65 87.99 723.47 85.96"/>
        </g>
      </g>
      <g id="_Grid_Repeat_-245" data-name=" Grid Repeat -245">
        <g id="_Grid_Repeat_-246" data-name=" Grid Repeat -246">
          <polygon class="cls-25" points="729.81 89.3 727.46 89.3 726.29 91.33 727.46 93.36 729.81 93.36 730.98 91.33 729.81 89.3"/>
        </g>
      </g>
      <g id="_Grid_Repeat_-247" data-name=" Grid Repeat -247">
        <g id="_Grid_Repeat_-248" data-name=" Grid Repeat -248">
          <polygon class="cls-25" points="736.14 85.96 733.8 85.96 732.62 87.99 733.8 90.02 736.14 90.02 737.31 87.99 736.14 85.96"/>
        </g>
      </g>
    </g>
    <line class="cls-6" x1="53.68" y1="45.82" x2="53.68" y2="65.43"/>
    <g>
      <g>
        <path class="cls-16" d="m460.35,56.64c0,7.43-4.67,13.77-11.24,16.24-1.91.72-3.97,1.11-6.13,1.11s-4.23-.4-6.14-1.11c-6.56-2.48-11.23-8.81-11.23-16.24s4.67-13.77,11.23-16.25c1.91-.72,3.98-1.11,6.14-1.11s4.22.4,6.13,1.11c6.57,2.48,11.24,8.81,11.24,16.25Z"/>
        <path class="cls-20" d="m436.85,40.39v32.49c1.91.72,3.98,1.11,6.14,1.11s4.22-.4,6.13-1.11v-32.49h-12.27Z"/>
      </g>
      <g>
        <path class="cls-25" d="m446.87,73.53c.76-.18,1.52-.38,2.24-.66,2.18-.82,4.15-2.08,5.81-3.65v-4.48l4.32-2.49.14.08c.61-1.76.95-3.63.96-5.59v-.19c0-.99-.1-1.95-.26-2.89l-.84.49-4.32-2.49v-4.99l1.58-.91c-.41-.51-.85-.98-1.31-1.44l-1.37.79-4.32-2.49v-2.05c-.13-.05-.26-.12-.39-.17-.59-.22-1.19-.4-1.81-.56v2.78l-4.32,2.49-4.32-2.49v-2.78c-.62.16-1.23.34-1.82.56-.13.05-.26.11-.39.16v2.06l-4.32,2.49-1.37-.79c-.46.46-.9.94-1.31,1.44l1.58.91v4.99l-4.32,2.49-.84-.48c-.17.96-.26,1.94-.26,2.94v.08c0,1.98.35,3.88.96,5.65l.14-.08,4.32,2.49v4.48c1.66,1.58,3.63,2.83,5.81,3.66.72.27,1.48.48,2.25.66l3.89-2.25,3.89,2.24h0Zm5.85-3.81l-4.32,2.49-4.32-2.49v-4.99l4.32-2.49,4.32,2.49v4.99Zm5.42-14.03v4.99l-4.32,2.49-4.32-2.49v-4.99l4.32-2.49,4.32,2.49Zm-14.05-9.04l4.32-2.49,4.32,2.49v4.99l-4.32,2.49-4.32-2.49v-4.99Zm3.22,9.04v4.99l-4.32,2.49-4.32-2.49v-4.99l4.32-2.49,4.32,2.49Zm-14.05-9.04l4.32-2.49,4.32,2.49v4.99l-4.32,2.49-4.32-2.49v-4.99Zm-5.42,14.03v-4.99l4.32-2.49,4.32,2.49v4.99l-4.32,2.49-4.32-2.49Zm14.05,9.04l-4.32,2.49-4.32-2.49v-4.99l4.32-2.49,4.32,2.49v4.99Z"/>
        <path class="cls-25" d="m431.04,33.57v-4.67c-2.93,1.27-5.62,2.97-7.98,5.06l3.66,2.1,4.32-2.49Z"/>
        <path class="cls-25" d="m441.89,33.57v-4.99l-3.17-1.83c-1.2.17-2.38.41-3.53.72h-.02l-1.92,1.11v4.99l4.32,2.49,4.32-2.49Z"/>
        <path class="cls-25" d="m452.73,33.57v-4.99l-1.92-1.11h-.02c-1.15-.31-2.32-.55-3.53-.72l-3.17,1.83v4.99l4.32,2.49,4.32-2.49Z"/>
        <path class="cls-25" d="m462.91,33.95c-2.36-2.08-5.05-3.79-7.98-5.06v4.67l4.32,2.49,3.66-2.1Z"/>
        <path class="cls-25" d="m425.62,42.6v-4.98l-4.01-2.31c-1.78,1.78-3.35,3.8-4.63,5.98v1.31l4.32,2.5,4.32-2.5Z"/>
        <path class="cls-25" d="m436.46,37.62l-4.32-2.49-4.32,2.49v4.99l2.95,1.7c1.62-1.6,3.55-2.89,5.69-3.76,0,0,0-2.93,0-2.93Z"/>
        <path class="cls-25" d="m447.3,39.83v-2.21l-4.32-2.49-4.32,2.49v2.21c1.38-.35,2.83-.55,4.32-.55s2.94.2,4.32.56h0Z"/>
        <path class="cls-25" d="m458.14,42.61v-4.99l-4.32-2.49-4.32,2.49v2.93c2.14.87,4.07,2.15,5.69,3.75l2.95-1.7h0Z"/>
        <path class="cls-25" d="m460.35,42.6l4.32,2.5,4.32-2.5v-1.31c-1.28-2.18-2.84-4.2-4.63-5.98l-4.01,2.31v4.98Z"/>
        <path class="cls-25" d="m420.2,51.65v-4.99l-4.32-2.49-.54.31c-1.11,2.51-1.89,5.22-2.27,8.04l2.81,1.62s4.32-2.49,4.32-2.49Z"/>
        <path class="cls-25" d="m426.73,44.17l-4.32,2.49v4.99l3.48,2.01c.51-2.96,1.77-5.66,3.58-7.9l-2.74-1.58h0Z"/>
        <path class="cls-25" d="m463.56,51.65v-4.99l-4.32-2.49-2.74,1.58c1.81,2.24,3.07,4.94,3.58,7.9l3.48-2.01h0Z"/>
        <path class="cls-25" d="m465.77,51.65l4.32,2.49,2.81-1.62c-.37-2.82-1.16-5.52-2.27-8.03h0l-.54-.32-4.32,2.49v4.99Z"/>
        <path class="cls-25" d="m414.78,55.7l-1.92-1.1c-.06.67-.08,1.36-.08,2.04,0,1.69.14,3.35.42,4.96l1.58-.91v-4.98h0Z"/>
        <path class="cls-25" d="m425.63,56.6v-.9l-4.32-2.49-4.32,2.49v4.99l4.32,2.49,4.32-2.49v-4.09Z"/>
        <path class="cls-25" d="m460.35,56.73v3.95l4.32,2.49,4.32-2.49v-4.99l-4.32-2.49-4.32,2.49v1.04Z"/>
        <path class="cls-25" d="m473.11,54.6l-1.92,1.1v4.98l1.58.91c.28-1.61.42-3.27.42-4.96,0-.68-.02-1.37-.08-2.04h0Z"/>
        <path class="cls-25" d="m420.2,64.75l-4.32-2.5-2.29,1.32c.67,2.89,1.76,5.61,3.22,8.11l3.39-1.95v-4.98Z"/>
        <path class="cls-25" d="m426.59,62.33l-4.18,2.41v4.99l4.32,2.49,4.32-2.49v-.51c-1.99-1.89-3.53-4.24-4.45-6.89h-.01Z"/>
        <path class="cls-25" d="m454.93,69.22v.5l4.32,2.49,4.32-2.49v-4.99l-4.18-2.41c-.92,2.65-2.46,5-4.46,6.89h0Z"/>
        <path class="cls-25" d="m465.77,64.75v4.98l3.39,1.95c1.45-2.5,2.54-5.21,3.22-8.1h0l-2.29-1.33-4.32,2.5Z"/>
        <path class="cls-25" d="m425.62,73.78l-4.32-2.49-3.49,2.02c1.63,2.47,3.62,4.68,5.91,6.57l1.91-1.1v-4.99h-.01Z"/>
        <polygon class="cls-25" points="436.46 73.78 432.15 71.29 427.83 73.78 427.83 78.77 432.15 81.26 436.46 78.77 436.46 73.78"/>
        <path class="cls-25" d="m447.3,73.78l-.43-.25c-1.25.29-2.55.46-3.89.46s-2.64-.17-3.89-.46l-.43.25v4.99l4.32,2.49,4.32-2.49v-4.99Z"/>
        <polygon class="cls-25" points="458.14 73.78 453.82 71.29 449.51 73.78 449.51 78.77 453.82 81.26 458.14 78.77 458.14 73.78"/>
        <path class="cls-25" d="m460.35,73.78v4.99l1.91,1.1c2.28-1.88,4.27-4.1,5.91-6.57l-3.49-2.02-4.32,2.49h-.01Z"/>
        <path class="cls-25" d="m425.35,81.13c1.76,1.28,3.67,2.37,5.7,3.23v-1.53l-4.32-2.5-1.38.8Z"/>
        <path class="cls-25" d="m433.25,82.82v2.39c2.72.93,5.62,1.48,8.64,1.58v-3.97l-4.32-2.5-4.32,2.5Z"/>
        <path class="cls-25" d="m444.09,82.82v3.97c3.02-.1,5.92-.65,8.64-1.58v-2.39l-4.32-2.5-4.32,2.5Z"/>
        <path class="cls-25" d="m454.93,82.82v1.53c2.03-.86,3.93-1.95,5.7-3.23l-1.38-.8-4.32,2.5Z"/>
      </g>
      <g>
        <path class="cls-10" d="m454.93,28.9c2.93,1.27,5.61,2.97,7.97,5.05l.66-.38v-4.99l-4.32-2.49-4.32,2.49v4.99h0v-4.67h.01Z"/>
        <path class="cls-10" d="m474.4,46.66l-3.77-2.18h0c1.11,2.51,1.89,5.21,2.27,8.03l1.5-.87v-4.99h0Z"/>
        <polygon class="cls-10" points="426.73 36.06 428.69 34.93 426.73 36.06 426.73 36.06"/>
        <polygon class="cls-10" points="433.25 82.82 433.25 82.82 435.22 81.68 433.25 82.82"/>
        <polygon class="cls-10" points="470.09 54.14 465.77 51.65 465.77 46.66 465.77 46.66 465.77 51.65 470.08 54.14 470.09 54.14"/>
        <path class="cls-10" d="m447.26,26.75c1.2.17,2.38.41,3.53.72h0l-2.39-1.38-2.22,1.28,1.07-.62h.01Z"/>
        <polygon class="cls-10" points="470.08 44.17 470.08 44.17 467.59 45.6 470.08 44.17"/>
        <polygon class="cls-10" points="468.57 42.84 468.98 42.61 468.98 42.6 468.57 42.84"/>
        <path class="cls-10" d="m460.35,42.61l3.5,2.02-3.5-2.03v-4.98l4.01-2.31c1.78,1.78,3.34,3.8,4.62,5.97v-3.66l-4.32-2.49-4.32,2.49v4.99h.01Z"/>
        <polygon class="cls-10" points="452.72 82.82 452.72 82.82 451.46 82.09 452.72 82.82"/>
        <polygon class="cls-10" points="441.88 82.82 441.88 82.82 440.04 81.75 441.88 82.82"/>
        <polygon class="cls-10" points="464.66 71.29 460.35 73.78 460.35 78.77 460.35 78.77 460.35 73.78 464.67 71.29 464.66 71.29"/>
        <polygon class="cls-10" points="436.61 35.51 437.57 36.06 438.25 35.66 437.57 36.06 436.61 35.51"/>
        <polygon class="cls-10" points="448.41 36.06 448.41 36.06 446.21 34.79 448.41 36.06"/>
        <polygon class="cls-10" points="420.21 46.66 420.2 46.66 420.2 51.65 415.89 54.14 415.62 53.98 415.89 54.14 420.21 51.65 420.21 46.66"/>
        <polygon class="cls-10" points="416.99 42.6 416.99 42.61 418.1 43.24 416.99 42.6"/>
        <polygon class="cls-10" points="459.24 36.06 459.25 36.06 455.8 34.07 459.24 36.06"/>
        <path class="cls-10" d="m433.25,85.21v2.59l4.32,2.49,4.32-2.49v-1.02c-3.02-.1-5.91-.65-8.64-1.58h0Z"/>
        <path class="cls-10" d="m444.09,86.79v-3.97l2.57-1.49-2.57,1.48v4.99l4.32,2.49,4.32-2.49v-2.59c-2.72.92-5.62,1.48-8.63,1.57h-.01Z"/>
        <path class="cls-10" d="m460.63,81.13c-1.76,1.28-3.67,2.37-5.7,3.23v-1.53l3.16-1.83-3.17,1.83v4.99l4.32,2.49,4.32-2.49v-4.99l-3.36-1.94.42.25h0Z"/>
        <path class="cls-10" d="m417.81,73.31l3.49-2.02,4.31,2.48-4.3-2.49-4.32,2.49v4.99l4.32,2.49,2.41-1.39c-2.28-1.88-4.27-4.1-5.9-6.56h-.01Z"/>
        <path class="cls-10" d="m431.04,82.82v1.53c-2.03-.86-3.93-1.95-5.7-3.23l.61-.36-3.55,2.05v4.99l4.32,2.49,4.32-2.49v-4.99l-2.45-1.42,2.45,1.42h0Z"/>
        <path class="cls-10" d="m475.5,53.21l-4.32,2.49v4.99l4.32,2.49,4.32-2.49v-4.99l-4.32-2.49Zm-2.74,8.39l-1.58-.91v-4.98l1.92-1.1c.06.67.08,1.36.08,2.04,0,1.69-.14,3.35-.42,4.96h0Z"/>
        <path class="cls-10" d="m472.38,63.58c-.67,2.89-1.76,5.6-3.22,8.1l-3.39-1.95v-4.98l4.31-2.5h0l-4.32,2.49v4.99l4.32,2.49,4.32-2.49v-4.99l-2.02-1.17h0Z"/>
        <path class="cls-10" d="m462.26,79.87l2.41,1.39,4.32-2.49v-4.99l-.82-.47c-1.63,2.47-3.62,4.68-5.9,6.56h-.01Z"/>
        <path class="cls-10" d="m414.79,55.7l-4.32-2.49-4.32,2.49v4.99l4.32,2.49,4.32-2.49v-4.99Zm0,4.98l-1.58.91c-.28-1.61-.42-3.27-.42-4.96,0-.68.02-1.37.08-2.04l1.92,1.1v4.98h0Z"/>
        <polygon class="cls-10" points="416.9 44.75 415.89 44.17 415.89 44.17 416.9 44.75"/>
        <path class="cls-10" d="m421.61,35.31l4.01,2.31v4.98l-2.78,1.61,2.78-1.61v-4.99l-4.32-2.49-4.32,2.49v3.67c1.28-2.18,2.84-4.19,4.62-5.98h.01Z"/>
        <path class="cls-10" d="m431.04,28.9v4.67h0v-4.99l-4.32-2.49-4.32,2.49v4.99l.66.38c2.36-2.08,5.04-3.79,7.97-5.05h.01Z"/>
        <path class="cls-10" d="m435.19,27.46c1.15-.31,2.32-.55,3.53-.72l-1.15-.66-2.39,1.38h.01Z"/>
        <path class="cls-10" d="m415.34,44.48l-3.77,2.18v4.99l1.51.87c.37-2.82,1.16-5.52,2.27-8.03h-.01Z"/>
        <rect class="cls-10" x="444.09" y="28.56" height="4.99"/>
        <path class="cls-10" d="m420.21,64.74l-3.95-2.28,3.94,2.28v4.98l-3.39,1.95c-1.45-2.5-2.54-5.22-3.22-8.1l-2.02,1.17v4.99l4.32,2.49,4.32-2.49v-4.99Z"/>
      </g>
      <g>
        <g>
          <path class="cls-16" d="m358.31,56.64c0,7.43-4.67,13.77-11.24,16.24-1.91.72-3.97,1.11-6.13,1.11s-4.23-.4-6.14-1.11c-6.56-2.48-11.23-8.81-11.23-16.24s4.67-13.77,11.23-16.25c1.91-.72,3.98-1.11,6.14-1.11s4.22.4,6.13,1.11c6.57,2.48,11.24,8.81,11.24,16.25Z"/>
          <path class="cls-20" d="m334.82,40.39v32.49c1.91.72,3.98,1.11,6.14,1.11s4.22-.4,6.13-1.11v-32.49h-12.27Z"/>
        </g>
        <g>
          <path class="cls-25" d="m344.84,73.53c.76-.18,1.52-.38,2.24-.66,2.18-.82,4.15-2.08,5.81-3.65v-4.48l4.32-2.49.14.08c.61-1.76.95-3.63.96-5.59v-.19c0-.99-.1-1.95-.26-2.89l-.84.49-4.32-2.49v-4.99l1.58-.91c-.41-.51-.85-.98-1.31-1.44l-1.37.79-4.32-2.49v-2.05c-.13-.05-.26-.12-.39-.17-.59-.22-1.19-.4-1.81-.56v2.78l-4.32,2.49-4.32-2.49v-2.78c-.62.16-1.23.34-1.82.56-.13.05-.26.11-.39.16v2.06l-4.32,2.49-1.37-.79c-.46.46-.9.94-1.31,1.44l1.58.91v4.99l-4.32,2.49-.84-.48c-.17.96-.26,1.94-.26,2.94v.08c0,1.98.35,3.88.96,5.65l.14-.08,4.32,2.49v4.48c1.66,1.58,3.63,2.83,5.81,3.66.72.27,1.48.48,2.25.66l3.89-2.25,3.89,2.24h0Zm5.85-3.81l-4.32,2.49-4.32-2.49v-4.99l4.32-2.49,4.32,2.49v4.99Zm5.42-14.03v4.99l-4.32,2.49-4.32-2.49v-4.99l4.32-2.49,4.32,2.49Zm-14.05-9.04l4.32-2.49,4.32,2.49v4.99l-4.32,2.49-4.32-2.49v-4.99Zm3.22,9.04v4.99l-4.32,2.49-4.32-2.49v-4.99l4.32-2.49,4.32,2.49Zm-14.05-9.04l4.32-2.49,4.32,2.49v4.99l-4.32,2.49-4.32-2.49v-4.99Zm-5.42,14.03v-4.99l4.32-2.49,4.32,2.49v4.99l-4.32,2.49-4.32-2.49Zm14.05,9.04l-4.32,2.49-4.32-2.49v-4.99l4.32-2.49,4.32,2.49v4.99Z"/>
          <path class="cls-25" d="m329.01,33.57v-4.67c-2.93,1.27-5.62,2.97-7.98,5.06l3.66,2.1,4.32-2.49Z"/>
          <path class="cls-25" d="m339.85,33.57v-4.99l-3.17-1.83c-1.2.17-2.38.41-3.53.72h-.02l-1.92,1.11v4.99l4.32,2.49,4.32-2.49Z"/>
          <path class="cls-25" d="m350.69,33.57v-4.99l-1.92-1.11h-.02c-1.15-.31-2.32-.55-3.53-.72l-3.17,1.83v4.99l4.32,2.49,4.32-2.49Z"/>
          <path class="cls-25" d="m360.87,33.95c-2.36-2.08-5.05-3.79-7.98-5.06v4.67l4.32,2.49,3.66-2.1Z"/>
          <path class="cls-25" d="m323.59,42.6v-4.98l-4.01-2.31c-1.78,1.78-3.35,3.8-4.63,5.98v1.31l4.32,2.5,4.32-2.5Z"/>
          <path class="cls-25" d="m334.43,37.62l-4.32-2.49-4.32,2.49v4.99l2.95,1.7c1.62-1.6,3.55-2.89,5.69-3.76,0,0,0-2.93,0-2.93Z"/>
          <path class="cls-25" d="m345.27,39.83v-2.21l-4.32-2.49-4.32,2.49v2.21c1.38-.35,2.83-.55,4.32-.55s2.94.2,4.32.56h0Z"/>
          <path class="cls-25" d="m356.11,42.61v-4.99l-4.32-2.49-4.32,2.49v2.93c2.14.87,4.07,2.15,5.69,3.75l2.95-1.7h0Z"/>
          <path class="cls-25" d="m358.31,42.6l4.32,2.5,4.32-2.5v-1.31c-1.28-2.18-2.84-4.2-4.63-5.98l-4.01,2.31v4.98Z"/>
          <path class="cls-25" d="m318.17,51.65v-4.99l-4.32-2.49-.54.31c-1.11,2.51-1.89,5.22-2.27,8.04l2.81,1.62s4.32-2.49,4.32-2.49Z"/>
          <path class="cls-25" d="m324.69,44.17l-4.32,2.49v4.99l3.48,2.01c.51-2.96,1.77-5.66,3.58-7.9l-2.74-1.58h0Z"/>
          <path class="cls-25" d="m361.53,51.65v-4.99l-4.32-2.49-2.74,1.58c1.81,2.24,3.07,4.94,3.58,7.9l3.48-2.01h0Z"/>
          <path class="cls-25" d="m363.74,51.65l4.32,2.49,2.81-1.62c-.37-2.82-1.16-5.52-2.27-8.03h0l-.54-.32-4.32,2.49v4.99Z"/>
          <path class="cls-25" d="m312.75,55.7l-1.92-1.1c-.06.67-.08,1.36-.08,2.04,0,1.69.14,3.35.42,4.96l1.58-.91v-4.98h0Z"/>
          <path class="cls-25" d="m323.59,56.6v-.9l-4.32-2.49-4.32,2.49v4.99l4.32,2.49,4.32-2.49v-4.09Z"/>
          <path class="cls-25" d="m358.31,56.73v3.95l4.32,2.49,4.32-2.49v-4.99l-4.32-2.49-4.32,2.49v1.04Z"/>
          <path class="cls-25" d="m371.07,54.6l-1.92,1.1v4.98l1.58.91c.28-1.61.42-3.27.42-4.96,0-.68-.02-1.37-.08-2.04h0Z"/>
          <path class="cls-25" d="m318.17,64.75l-4.32-2.5-2.29,1.32c.67,2.89,1.76,5.61,3.22,8.11l3.39-1.95v-4.98Z"/>
          <path class="cls-25" d="m324.56,62.33l-4.18,2.41v4.99l4.32,2.49,4.32-2.49v-.51c-1.99-1.89-3.53-4.24-4.45-6.89h-.01Z"/>
          <path class="cls-25" d="m352.89,69.22v.5l4.32,2.49,4.32-2.49v-4.99l-4.18-2.41c-.92,2.65-2.46,5-4.46,6.89h0Z"/>
          <path class="cls-25" d="m363.74,64.75v4.98l3.39,1.95c1.45-2.5,2.54-5.21,3.22-8.1h0l-2.29-1.33-4.32,2.5Z"/>
          <path class="cls-25" d="m323.59,73.78l-4.32-2.49-3.49,2.02c1.63,2.47,3.62,4.68,5.91,6.57l1.91-1.1v-4.99h-.01Z"/>
          <polygon class="cls-25" points="334.43 73.78 330.11 71.29 325.79 73.78 325.79 78.77 330.11 81.26 334.43 78.77 334.43 73.78"/>
          <path class="cls-25" d="m345.27,73.78l-.43-.25c-1.25.29-2.55.46-3.89.46s-2.64-.17-3.89-.46l-.43.25v4.99l4.32,2.49,4.32-2.49v-4.99Z"/>
          <polygon class="cls-25" points="356.11 73.78 351.79 71.29 347.47 73.78 347.47 78.77 351.79 81.26 356.11 78.77 356.11 73.78"/>
          <path class="cls-25" d="m358.31,73.78v4.99l1.91,1.1c2.28-1.88,4.27-4.1,5.91-6.57l-3.49-2.02-4.32,2.49h-.01Z"/>
          <path class="cls-25" d="m323.31,81.13c1.76,1.28,3.67,2.37,5.7,3.23v-1.53l-4.32-2.5-1.38.8Z"/>
          <path class="cls-25" d="m331.21,82.82v2.39c2.72.93,5.62,1.48,8.64,1.58v-3.97l-4.32-2.5-4.32,2.5Z"/>
          <path class="cls-25" d="m342.05,82.82v3.97c3.02-.1,5.92-.65,8.64-1.58v-2.39l-4.32-2.5-4.32,2.5Z"/>
          <path class="cls-25" d="m352.89,82.82v1.53c2.03-.86,3.93-1.95,5.7-3.23l-1.38-.8-4.32,2.5Z"/>
        </g>
        <g>
          <path class="cls-10" d="m352.89,28.9c2.93,1.27,5.61,2.97,7.97,5.05l.66-.38v-4.99l-4.32-2.49-4.32,2.49v4.99h0v-4.67h.01Z"/>
          <path class="cls-10" d="m372.37,46.66l-3.77-2.18h0c1.11,2.51,1.89,5.21,2.27,8.03l1.5-.87v-4.99h0Z"/>
          <polygon class="cls-10" points="324.69 36.06 326.65 34.93 324.69 36.06 324.69 36.06"/>
          <polygon class="cls-10" points="331.21 82.82 331.21 82.82 333.19 81.68 331.21 82.82"/>
          <polygon class="cls-10" points="368.05 54.14 363.74 51.65 363.74 46.66 363.73 46.66 363.73 51.65 368.05 54.14 368.05 54.14"/>
          <path class="cls-10" d="m345.23,26.75c1.2.17,2.38.41,3.53.72h0l-2.39-1.38-2.22,1.28,1.07-.62h.01Z"/>
          <polygon class="cls-10" points="368.05 44.17 368.05 44.17 365.56 45.6 368.05 44.17"/>
          <polygon class="cls-10" points="366.54 42.84 366.95 42.61 366.95 42.6 366.54 42.84"/>
          <path class="cls-10" d="m358.31,42.61l3.5,2.02-3.5-2.03v-4.98l4.01-2.31c1.78,1.78,3.34,3.8,4.62,5.97v-3.66l-4.32-2.49-4.32,2.49v4.99h.01Z"/>
          <polygon class="cls-10" points="350.69 82.82 350.69 82.82 349.42 82.09 350.69 82.82"/>
          <polygon class="cls-10" points="339.85 82.82 339.85 82.82 338 81.75 339.85 82.82"/>
          <polygon class="cls-10" points="362.63 71.29 358.31 73.78 358.31 78.77 358.31 78.77 358.31 73.78 362.63 71.29 362.63 71.29"/>
          <polygon class="cls-10" points="334.58 35.51 335.53 36.06 336.21 35.66 335.53 36.06 334.58 35.51"/>
          <polygon class="cls-10" points="346.37 36.06 346.37 36.06 344.17 34.79 346.37 36.06"/>
          <polygon class="cls-10" points="318.17 46.66 318.17 46.66 318.17 51.65 313.85 54.14 313.58 53.98 313.85 54.14 318.17 51.65 318.17 46.66"/>
          <polygon class="cls-10" points="314.96 42.6 314.96 42.61 316.06 43.24 314.96 42.6"/>
          <polygon class="cls-10" points="357.21 36.06 357.21 36.06 353.77 34.07 357.21 36.06"/>
          <path class="cls-10" d="m331.21,85.21v2.59l4.32,2.49,4.32-2.49v-1.02c-3.02-.1-5.91-.65-8.64-1.58h0Z"/>
          <path class="cls-10" d="m342.05,86.79v-3.97l2.57-1.49-2.57,1.48v4.99l4.32,2.49,4.32-2.49v-2.59c-2.72.92-5.62,1.48-8.63,1.57h-.01Z"/>
          <path class="cls-10" d="m358.59,81.13c-1.76,1.28-3.67,2.37-5.7,3.23v-1.53l3.16-1.83-3.17,1.83v4.99l4.32,2.49,4.32-2.49v-4.99l-3.36-1.94.42.25h0Z"/>
          <path class="cls-10" d="m315.78,73.31l3.49-2.02,4.31,2.48-4.3-2.49-4.32,2.49v4.99l4.32,2.49,2.41-1.39c-2.28-1.88-4.27-4.1-5.9-6.56h-.01Z"/>
          <path class="cls-10" d="m329.01,82.82v1.53c-2.03-.86-3.93-1.95-5.7-3.23l.61-.36-3.55,2.05v4.99l4.32,2.49,4.32-2.49v-4.99l-2.45-1.42,2.45,1.42h0Z"/>
          <path class="cls-10" d="m373.47,53.21l-4.32,2.49v4.99l4.32,2.49,4.32-2.49v-4.99l-4.32-2.49Zm-2.74,8.39l-1.58-.91v-4.98l1.92-1.1c.06.67.08,1.36.08,2.04,0,1.69-.14,3.35-.42,4.96h0Z"/>
          <path class="cls-10" d="m370.35,63.58c-.67,2.89-1.76,5.6-3.22,8.1l-3.39-1.95v-4.98l4.31-2.5h0l-4.32,2.49v4.99l4.32,2.49,4.32-2.49v-4.99l-2.02-1.17h0Z"/>
          <path class="cls-10" d="m360.22,79.87l2.41,1.39,4.32-2.49v-4.99l-.82-.47c-1.63,2.47-3.62,4.68-5.9,6.56h-.01Z"/>
          <path class="cls-10" d="m312.75,55.7l-4.32-2.49-4.32,2.49v4.99l4.32,2.49,4.32-2.49v-4.99Zm0,4.98l-1.58.91c-.28-1.61-.42-3.27-.42-4.96,0-.68.02-1.37.08-2.04l1.92,1.1v4.98h0Z"/>
          <polygon class="cls-10" points="314.86 44.75 313.85 44.17 313.85 44.17 314.86 44.75"/>
          <path class="cls-10" d="m319.58,35.31l4.01,2.31v4.98l-2.78,1.61,2.78-1.61v-4.99l-4.32-2.49-4.32,2.49v3.67c1.28-2.18,2.84-4.19,4.62-5.98h.01Z"/>
          <path class="cls-10" d="m329.01,28.9v4.67h0v-4.99l-4.32-2.49-4.32,2.49v4.99l.66.38c2.36-2.08,5.04-3.79,7.97-5.05h.01Z"/>
          <path class="cls-10" d="m333.15,27.46c1.15-.31,2.32-.55,3.53-.72l-1.15-.66-2.39,1.38h.01Z"/>
          <path class="cls-10" d="m313.31,44.48l-3.77,2.18v4.99l1.51.87c.37-2.82,1.16-5.52,2.27-8.03h-.01Z"/>
          <rect class="cls-10" x="342.05" y="28.57" height="4.99"/>
          <path class="cls-10" d="m318.17,64.74l-3.95-2.28,3.94,2.28v4.98l-3.39,1.95c-1.45-2.5-2.54-5.22-3.22-8.1l-2.02,1.17v4.99l4.32,2.49,4.32-2.49v-4.99Z"/>
        </g>
      </g>
    </g>
  </g>
  <polygon class="cls-8" points="721.88 0 49.67 0 0 14.5 771.55 14.5 721.88 0"/>
  <path class="cls-5" d="m763.29,21.11v74.31H8.26V21.11h173.34v5.86c0,4.1,3.32,7.43,7.41,7.43s7.43-3.33,7.43-7.43v-5.86h358.08v5.86c0,4.1,3.32,7.43,7.41,7.43s7.43-3.33,7.43-7.43v-5.86h47.7c1.1-.95,2.53-1.52,4.1-1.52s2.99.57,4.09,1.52h14.52c1.1-.95,2.53-1.52,4.09-1.52s3,.57,4.1,1.52h96.22c.94-.8,2.15-1.28,3.48-1.28s2.56.47,3.49,1.28h12.14Z"/>
</svg>