<?xml version="1.0" encoding="utf-8"?>
<!-- Generator: Adobe Illustrator 28.0.0, SVG Export Plug-In . SVG Version: 6.00 Build 0)  -->
<svg version="1.1" id="katman_1" xmlns="http://www.w3.org/2000/svg" xmlns:xlink="http://www.w3.org/1999/xlink" x="0px" y="0px"
	 viewBox="0 0 2087.6 224.2" style="enable-background:new 0 0 2087.6 224.2;" xml:space="preserve">
<style type="text/css">
	.st0{fill:none;stroke:#94BACE;stroke-miterlimit:10;}
	.st1{fill:#94BACE;}
	.st2{fill:#FFFFFF;}
	.st3{fill:#DAE7EE;}
	.st4{fill-rule:evenodd;clip-rule:evenodd;fill:#D31E16;}
	.st5{fill:#DF0E17;}
	.st6{fill:#BE272E;}
	.st7{fill-rule:evenodd;clip-rule:evenodd;fill:#DF0E17;}
	.st8{fill:none;stroke:#DF0E17;stroke-linecap:round;stroke-miterlimit:10;}
	.st9{fill:none;stroke:#FFFFFF;stroke-miterlimit:10;}
	.st10{fill:none;stroke:#DF0E17;stroke-miterlimit:10;}
	.st11{fill:#343132;}
	.st12{fill:#010101;}
	.st13{fill:#0E8036;}
	.st14{fill:#EEE21A;}
	.st15{clip-path:url(#SVGID_00000048493673069608548600000018137557505217037494_);}
	.st16{fill:none;stroke:#C3996D;stroke-linecap:round;stroke-miterlimit:10;}
	.st17{clip-path:url(#SVGID_00000074443891779094903280000013343939551156094888_);}
	.st18{clip-path:url(#SVGID_00000129193947602660025640000003636884199180468872_);}
	.st19{clip-path:url(#SVGID_00000155840832980816462870000010812453917567480507_);}
	.st20{clip-path:url(#SVGID_00000177472459146823900590000014292952295293114017_);}
	.st21{clip-path:url(#SVGID_00000138538965408612696940000009991884878851987079_);}
	.st22{clip-path:url(#SVGID_00000098940220218814119980000005437517047216441761_);}
	.st23{opacity:0.6;fill-rule:evenodd;clip-rule:evenodd;fill:#848484;enable-background:new    ;}
	.st24{fill:#848484;}
	.st25{opacity:0.2;}
	.st26{clip-path:url(#SVGID_00000031170244854217083680000009432942871047199669_);}
	.st27{fill:#AFAFAF;}
	.st28{fill:none;stroke:#94BACE;stroke-width:2;stroke-miterlimit:10;}
	.st29{fill:#303030;}
	.st30{fill:#002440;}
	.st31{fill:#D9EEFB;}
	.st32{fill:#E8F4FC;}
	.st33{fill:#144C72;}
	.st34{fill:#2F3B5A;}
	.st35{fill:#F0F8FF;}
	.st36{fill:#E4EBEF;}
	.st37{fill:#1FBDEC;}
	.st38{fill:#D5E0E7;}
	.st39{fill:#537981;}
	.st40{fill:#EAF3F6;}
	.st41{fill:#6484A1;}
	.st42{fill:#83BFD7;}
</style>
<g>
	<g>
		<line class="st0" x1="1141.6" y1="127.5" x2="1098.5" y2="127.5"/>
		<path class="st1" d="M1142.9,120.8l6.1,6.1c0.3,0.3,0.3,0.8,0,1.1l-6.1,6.1c-0.5,0.5-1.3,0.1-1.3-0.5v-12.3
			C1141.6,120.7,1142.4,120.3,1142.9,120.8L1142.9,120.8z"/>
		<path class="st1" d="M1097.2,120.8l-6.1,6.1c-0.3,0.3-0.3,0.8,0,1.1l6.1,6.1c0.5,0.5,1.3,0.1,1.3-0.5v-12.3
			C1098.6,120.7,1097.7,120.3,1097.2,120.8L1097.2,120.8z"/>
	</g>
	<g>
		<path class="st2" d="M1461.7,88.9h-163.9c-9,0-17.3,0.7-24.6,2.2l-89.2,17.6h396.8L1485.5,91C1478.4,89.5,1470.3,88.9,1461.7,88.9
			L1461.7,88.9z"/>
		<g>
			<path class="st3" d="M1585.6,146.1c-0.4,3.6-3.5,6.3-7.2,6.3h-393.6c-4,0-7.2-3.2-7.2-7.2v-29.4c0-1.1,0.2-2.1,0.7-3
				c0,0.3-0.1,0.6-0.1,0.9v29.4c0,4,3.2,7.2,7.2,7.2H1579C1582,150.3,1584.5,148.6,1585.6,146.1L1585.6,146.1z"/>
			<path class="st2" d="M1585.7,115.8v29.4c0,0.3,0,0.6-0.1,0.9c-1.1,2.5-3.6,4.2-6.6,4.2h-393.6c-4,0-7.2-3.2-7.2-7.2v-29.4
				c0-0.3,0-0.6,0.1-0.9c1.2-2.5,3.7-4.2,6.6-4.2h393.6C1582.4,108.6,1585.7,111.9,1585.7,115.8L1585.7,115.8z"/>
			<g>
				<path class="st4" d="M1220.6,123.2l-5.9,8.5l5.8,8.4c0,0,0.6,0.5,1.2,0.7c0.5,0.1,0.6,0.6,0.7,0.9h-5.9c0,0-0.3-0.7,1.4-1.1
					l-4.6-6.6l-4.5,6.6c0.1,0,0.1,0.1,0.2,0.1c1.6,0.5,1.3,1.1,1.3,1.1h-5.6c0.1-0.3,0.1-0.8,0.6-0.9c0.4-0.1,1-0.5,1.3-0.9
					l10.3-15.1c0.6-0.9,1.2-1.8,2.2-2C1219.9,122.7,1220.6,123.2,1220.6,123.2 M1205.8,123.2l5.6,8.1l1.4-2.1l-3.7-5.4
					C1207.6,121.6,1205.8,123.2,1205.8,123.2L1205.8,123.2z"/>
				<path class="st5" d="M1213.7,124.7c0.1,0,0.2-0.1,0.2-0.2V112c0-0.1-0.1-0.2-0.2-0.2c-0.1,0-0.2,0.1-0.2,0.2v12.5
					C1213.4,124.6,1213.6,124.7,1213.7,124.7z"/>
				<path class="st5" d="M1213.7,149.2c0.1,0,0.2-0.1,0.2-0.1v-9.9c0-0.1-0.1-0.1-0.2-0.1c-0.1,0-0.2,0.1-0.2,0.1v9.9
					C1213.4,149.1,1213.6,149.2,1213.7,149.2z"/>
			</g>
			<rect x="1260.4" y="150.1" class="st6" width="242" height="2.3"/>
			<path class="st5" d="M1495,118.5l-1.7,1.7l7,10.1l-5,7.2c-1.4,0.4-2.5,1.7-2.7,3.2l-0.4,3.2h10.2v6.3h-242v-41.5h242v10.2
				c-1.4-1.6-2.9-1.8-3.8-1.8C1496.6,117,1495.2,118.3,1495,118.5L1495,118.5z"/>
			<g>
				<path class="st7" d="M1539.5,134.9v-1.8c0-0.1,0-0.5-0.1-0.7c0-0.1-0.2-0.1-0.2-0.2c-0.2-0.1-0.3-0.1-0.4-0.1h-0.2
					c-0.2,0-0.2-0.1-0.2-0.2v-0.2c0-0.1,0.1-0.2,0.2-0.2h4.3c0.2,0,0.2,0.1,0.2,0.2v0.2c0,0.1-0.1,0.2-0.2,0.2s-0.4,0.1-0.6,0.1
					c-0.1,0.1-0.2,0.1-0.2,0.3c-0.1,0.1-0.1,0.5-0.1,0.6v2c0,0.1-0.1,0.1-0.2,0.2c-0.6,0.3-1.2,0.5-1.8,0.7
					c-0.7,0.1-1.3,0.2-1.9,0.2c-0.8,0-1.5-0.1-2.2-0.4c-0.6-0.2-1.1-0.6-1.6-1c-0.4-0.5-0.8-0.9-1.1-1.4c-0.4-0.8-0.4-1.5-0.4-2.3
					c0-1.5,0.4-2.8,1.5-3.8c1-1,2.2-1.6,3.7-1.6c0.4,0,0.8,0,1.3,0.1c0.3,0.1,0.7,0.2,1,0.4c0.2,0.1,0.5,0.2,0.7,0.2
					c0.1,0,0.2,0,0.2-0.1c0.1-0.1,0.2-0.3,0.2-0.5c0-0.1,0.2-0.1,0.2-0.1h0.2c0.2,0,0.2,0.1,0.2,0.2v3.4c0,0.1-0.1,0.2-0.2,0.2h-0.2
					c-0.1,0-0.2-0.1-0.2-0.1c-0.2-0.8-0.6-1.5-1.2-2c-0.5-0.5-1.1-0.7-1.7-0.7s-1.1,0.1-1.5,0.5c-0.4,0.5-0.8,1-0.9,1.6
					c-0.2,0.8-0.3,1.4-0.3,2.2c0,0.8,0.1,1.6,0.3,2.4c0.2,0.5,0.4,1,0.9,1.4c0.4,0.3,0.9,0.5,1.4,0.5c0.2,0,0.4,0,0.6-0.1
					C1539.2,135,1539.3,135,1539.5,134.9L1539.5,134.9z"/>
				<path class="st7" d="M1530.6,127.1c-1-1-2.2-1.5-3.6-1.4c-1.4-0.1-2.5,0.5-3.4,1.4c-1,1-1.4,2.3-1.4,3.7c0,1.3,0.3,2.4,1.1,3.4
					c1,1.3,2.3,1.9,3.9,1.9s2.9-0.6,3.9-1.9c0.8-1,1.1-2.2,1.1-3.4C1532,129.4,1531.6,128.1,1530.6,127.1L1530.6,127.1z
					 M1528.8,133.5c-0.2,0.5-0.4,1-0.8,1.4c-0.3,0.2-0.6,0.3-1,0.3c-0.6,0-1.1-0.3-1.3-0.8c-0.6-1-0.8-2.4-0.8-3.5
					c0-1,0.1-2.2,0.5-3.1c0.4-0.7,0.8-1.2,1.6-1.2c0.4,0,0.7,0.1,1,0.4c0.4,0.2,0.6,0.8,0.8,1.2c0.3,0.8,0.3,1.9,0.3,2.8
					S1529,132.8,1528.8,133.5L1528.8,133.5z"/>
				<path class="st7" d="M1516.5,134.9c0.2,0.1,0.5,0.1,0.7,0.1h0.8c0.4,0,0.8-0.1,1.1-0.2s0.5-0.5,0.8-0.8c0.3-0.5,0.4-1.1,0.6-1.6
					c0-0.1,0.2-0.1,0.2-0.1h0.3c0.1,0,0.2,0,0.2,0.1c0.1,0.1,0.1,0.1,0.1,0.2l-0.3,3.4c0,0.1-0.2,0.2-0.2,0.2h-7.8
					c-0.2,0-0.2-0.1-0.2-0.2v-0.2c0-0.1,0.1-0.2,0.2-0.2h0.3c0.2,0,0.4,0,0.5-0.1s0.2-0.1,0.2-0.2c0.1-0.1,0.1-0.7,0.1-0.8v-6.4
					c0-0.1,0-0.7-0.1-0.8c0-0.1-0.2-0.1-0.2-0.2c-0.2-0.1-0.3-0.1-0.4-0.1h-0.3c-0.2,0-0.2-0.1-0.2-0.2v-0.2c0-0.1,0.1-0.2,0.2-0.2
					h4.7c0.2,0,0.2,0.1,0.2,0.2v0.2c0,0.1-0.1,0.2-0.2,0.2h-0.4c-0.2,0-0.4,0-0.5,0.1s-0.2,0.1-0.2,0.2c-0.1,0.1-0.1,0.7-0.1,0.8
					v6.1c0,0.1,0,0.7,0.1,0.8C1516.5,134.8,1516.5,134.9,1516.5,134.9L1516.5,134.9z"/>
				<path class="st7" d="M1512.9,120.4l-6.7,9.6l6.6,9.4c0,0,0.7,0.6,1.3,0.8c0.5,0.1,0.7,0.7,0.8,1h-6.5c0,0-0.4-0.8,1.5-1.4
					l-5.2-7.5l-5.2,7.4c0.1,0,0.2,0.1,0.2,0.1c1.8,0.5,1.4,1.4,1.4,1.4h-6.3c0.1-0.3,0.2-0.8,0.7-1c0.4-0.1,1.1-0.5,1.4-1l11.6-16.9
					c0.7-1,1.3-2,2.5-2.2C1512.1,119.7,1512.9,120.4,1512.9,120.4 M1496.4,120.4l6.3,9l1.6-2.4l-4.2-6
					C1498.3,118.5,1496.4,120.3,1496.4,120.4L1496.4,120.4z"/>
				<line class="st8" x1="1504.9" y1="111.8" x2="1504.9" y2="122.2"/>
				<line class="st8" x1="1504.9" y1="138.1" x2="1504.9" y2="152.1"/>
			</g>
			<g>
				<path class="st2" d="M1276.1,139.9h0.3c0.9,0,1.7,0.7,1.7,1.6v0.4c0,0.9-0.7,1.6-1.7,1.6h-0.3c-0.9,0-1.7-0.7-1.7-1.6v-0.4
					C1274.5,140.7,1275.2,139.9,1276.1,139.9z"/>
				<path class="st2" d="M1276.1,135.1h0.3c0.9,0,1.7,0.7,1.7,1.6v0.4c0,0.9-0.7,1.6-1.7,1.6h-0.3c-0.9,0-1.7-0.7-1.7-1.6v-0.4
					C1274.5,135.9,1275.2,135.1,1276.1,135.1z"/>
				<path class="st9" d="M1281,130.2h0.3c0.9,0,1.7,0.7,1.7,1.6v0.4c0,0.9-0.7,1.6-1.7,1.6h-0.3c-0.9,0-1.7-0.7-1.7-1.6v-0.4
					C1279.4,131,1280.1,130.2,1281,130.2z"/>
				<path class="st2" d="M1271.1,130.1h0.3c0.9,0,1.7,0.7,1.7,1.6v0.4c0,0.9-0.7,1.6-1.7,1.6h-0.3c-0.9,0-1.7-0.7-1.7-1.6v-0.4
					C1269.4,130.9,1270.2,130.1,1271.1,130.1z"/>
				<path class="st9" d="M1271.1,125.1h0.3c0.9,0,1.7,0.7,1.7,1.6v0.4c0,0.9-0.7,1.6-1.7,1.6h-0.3c-0.9,0-1.7-0.7-1.7-1.6v-0.4
					C1269.4,125.9,1270.2,125.1,1271.1,125.1z"/>
				<path class="st2" d="M1266.1,120.1h0.3c0.9,0,1.7,0.7,1.7,1.6v0.4c0,0.9-0.7,1.6-1.7,1.6h-0.3c-0.9,0-1.7-0.7-1.7-1.6v-0.4
					C1264.4,120.9,1265.2,120.1,1266.1,120.1z"/>
				<path class="st2" d="M1271.1,115.1h0.3c0.9,0,1.7,0.7,1.7,1.6v0.4c0,0.9-0.7,1.6-1.7,1.6h-0.3c-0.9,0-1.7-0.7-1.7-1.6v-0.4
					C1269.4,115.9,1270.2,115.1,1271.1,115.1z"/>
				<path class="st9" d="M1271.1,135.1h0.3c0.9,0,1.7,0.7,1.7,1.6v0.4c0,0.9-0.7,1.6-1.7,1.6h-0.3c-0.9,0-1.7-0.7-1.7-1.6v-0.4
					C1269.4,135.9,1270.2,135.1,1271.1,135.1z"/>
				<path class="st2" d="M1271.1,140.1h0.3c0.9,0,1.7,0.7,1.7,1.6v0.4c0,0.9-0.7,1.6-1.7,1.6h-0.3c-0.9,0-1.7-0.7-1.7-1.6v-0.4
					C1269.4,140.9,1270.2,140.1,1271.1,140.1z"/>
				<path class="st5" d="M1252.6,139.9h0.3c0.9,0,1.7,0.7,1.7,1.6v0.4c0,0.9-0.7,1.6-1.7,1.6h-0.3c-0.9,0-1.7-0.7-1.7-1.6v-0.4
					C1251,140.7,1251.7,139.9,1252.6,139.9z"/>
				<path class="st5" d="M1257.3,135.1h0.3c0.9,0,1.7,0.7,1.7,1.6v0.4c0,0.9-0.7,1.6-1.7,1.6h-0.3c-0.9,0-1.7-0.7-1.7-1.6v-0.4
					C1255.7,135.9,1256.4,135.1,1257.3,135.1z"/>
				<path class="st5" d="M1257.5,130.2h0.3c0.9,0,1.7,0.7,1.7,1.6v0.4c0,0.9-0.7,1.6-1.7,1.6h-0.3c-0.9,0-1.7-0.7-1.7-1.6v-0.4
					C1255.9,131,1256.6,130.2,1257.5,130.2z"/>
				<path class="st10" d="M1257.5,125.3h0.3c0.9,0,1.7,0.7,1.7,1.6v0.4c0,0.9-0.7,1.6-1.7,1.6h-0.3c-0.9,0-1.7-0.7-1.7-1.6v-0.4
					C1255.9,126,1256.6,125.3,1257.5,125.3z"/>
				<path class="st5" d="M1257.5,120.4h0.3c0.9,0,1.7,0.7,1.7,1.6v0.4c0,0.9-0.7,1.6-1.7,1.6h-0.3c-0.9,0-1.7-0.7-1.7-1.6V122
					C1255.9,121.1,1256.6,120.4,1257.5,120.4z"/>
				<path class="st5" d="M1243.2,125.7h0.3c0.9,0,1.7,0.7,1.7,1.6v0.4c0,0.9-0.7,1.6-1.7,1.6h-0.3c-0.9,0-1.7-0.7-1.7-1.6v-0.3
					C1241.5,126.5,1242.3,125.7,1243.2,125.7z"/>
				<path class="st5" d="M1252.6,130.2h0.3c0.9,0,1.7,0.7,1.7,1.6v0.4c0,0.9-0.7,1.6-1.7,1.6h-0.3c-0.9,0-1.7-0.7-1.7-1.6v-0.4
					C1250.9,130.9,1251.6,130.2,1252.6,130.2z"/>
				<path class="st5" d="M1247.6,140.1h0.3c0.9,0,1.7,0.7,1.7,1.6v0.4c0,0.9-0.7,1.6-1.7,1.6h-0.3c-0.9,0-1.7-0.7-1.7-1.6v-0.4
					C1246,140.9,1246.7,140.1,1247.6,140.1z"/>
			</g>
			<circle class="st11" cx="1291.4" cy="141.9" r="3.6"/>
			<circle class="st11" cx="1343" cy="141.9" r="1.9"/>
			<circle class="st11" cx="1343" cy="136.9" r="1.9"/>
			<path class="st2" d="M1300.3,131.2h12c1.7,0,3,1.4,3,3v8.9c0,1.7-1.4,3-3,3h-12c-1.7,0-3-1.4-3-3v-8.9
				C1297.3,132.5,1298.6,131.2,1300.3,131.2z"/>
			<path class="st2" d="M1319.8,126.5h14.2c1.7,0,3,1.4,3,3v13.6c0,1.7-1.4,3-3,3h-14.2c-1.7,0-3-1.4-3-3v-13.6
				C1316.8,127.8,1318.2,126.5,1319.8,126.5z"/>
			<path class="st2" d="M1353.7,131.2h12c1.7,0,3,1.4,3,3v8.9c0,1.7-1.4,3-3,3h-12c-1.7,0-3-1.4-3-3v-8.9
				C1350.7,132.5,1352,131.2,1353.7,131.2z"/>
			<path class="st12" d="M1320.7,137.3h12.5c0.9,0,1.5,0.7,1.5,1.5v2.5c0,0.9-0.7,1.5-1.5,1.5h-12.5c-0.9,0-1.5-0.7-1.5-1.5v-2.5
				C1319.2,138,1319.9,137.3,1320.7,137.3z"/>
			<path class="st12" d="M1320.7,129.3h12.5c0.9,0,1.5,0.7,1.5,1.5v2.5c0,0.9-0.7,1.5-1.5,1.5h-12.5c-0.9,0-1.5-0.7-1.5-1.5v-2.5
				C1319.2,130,1319.9,129.3,1320.7,129.3z"/>
			<circle class="st13" cx="1366.7" cy="133.2" r="1.3"/>
			<circle class="st14" cx="1352.7" cy="133.2" r="1.3"/>
			<path class="st2" d="M1376.5,131.2h12c1.7,0,3,1.4,3,3v8.9c0,1.7-1.4,3-3,3h-12c-1.7,0-3-1.4-3-3v-8.9
				C1373.4,132.5,1374.8,131.2,1376.5,131.2z"/>
			<circle class="st13" cx="1389.5" cy="133.2" r="1.3"/>
			<circle class="st14" cx="1375.4" cy="133.2" r="1.3"/>
			<path class="st2" d="M1399.3,131.2h12c1.7,0,3,1.4,3,3v8.9c0,1.7-1.4,3-3,3h-12c-1.7,0-3-1.4-3-3v-8.9
				C1396.2,132.5,1397.6,131.2,1399.3,131.2z"/>
			<circle class="st13" cx="1412.3" cy="133.2" r="1.3"/>
			<circle class="st14" cx="1398.2" cy="133.2" r="1.3"/>
			<path class="st2" d="M1422,131.2h12c1.7,0,3,1.4,3,3v8.9c0,1.7-1.4,3-3,3h-12c-1.7,0-3-1.4-3-3v-8.9
				C1419,132.5,1420.4,131.2,1422,131.2z"/>
			<path class="st13" d="M1435,131.8c0.7,0,1.3,0.6,1.3,1.3s-0.6,1.3-1.3,1.3c-0.7,0-1.3-0.6-1.3-1.3S1434.3,131.8,1435,131.8z"/>
			<circle class="st14" cx="1421" cy="133.2" r="1.3"/>
			<path class="st2" d="M1444.8,131.2h12c1.7,0,3,1.4,3,3v8.9c0,1.7-1.4,3-3,3h-12c-1.7,0-3-1.4-3-3v-8.9
				C1441.8,132.5,1443.1,131.2,1444.8,131.2z"/>
			<circle class="st13" cx="1457.8" cy="133.2" r="1.3"/>
			<circle class="st14" cx="1443.8" cy="133.2" r="1.3"/>
			<path class="st2" d="M1467.6,131.2h12c1.7,0,3,1.4,3,3v8.9c0,1.7-1.4,3-3,3h-12c-1.7,0-3-1.4-3-3v-8.9
				C1464.6,132.5,1465.9,131.2,1467.6,131.2z"/>
			<g>
				<path class="st12" d="M1478.4,144.2h-9.7c-0.4,0-0.7-0.3-0.7-0.7v-7.9c0-0.4,0.3-0.7,0.7-0.7h1v-0.4c0-0.4,0.3-0.7,0.7-0.7h0.4
					v-0.5c0-0.4,0.3-0.7,0.7-0.7h4.2c0.4,0,0.7,0.3,0.7,0.7v0.5h0.4c0.4,0,0.7,0.3,0.7,0.7v0.4h1c0.4,0,0.7,0.3,0.7,0.7v7.9
					C1479.2,143.9,1478.8,144.2,1478.4,144.2L1478.4,144.2z"/>
				<g>
					<g>
						<defs>
							<path id="SVGID_1_" d="M1478.4,144.2h-9.7c-0.4,0-0.7-0.3-0.7-0.7v-7.9c0-0.4,0.3-0.7,0.7-0.7h1v-0.4c0-0.4,0.3-0.7,0.7-0.7
								h0.4v-0.5c0-0.4,0.3-0.7,0.7-0.7h4.2c0.4,0,0.7,0.3,0.7,0.7v0.5h0.4c0.4,0,0.7,0.3,0.7,0.7v0.4h1c0.4,0,0.7,0.3,0.7,0.7v7.9
								C1479.2,143.9,1478.8,144.2,1478.4,144.2L1478.4,144.2z"/>
						</defs>
						<clipPath id="SVGID_00000033341262446400908150000013671373286027192464_">
							<use xlink:href="#SVGID_1_"  style="overflow:visible;"/>
						</clipPath>
						<g style="clip-path:url(#SVGID_00000033341262446400908150000013671373286027192464_);">
							<g>
								<line class="st16" x1="1471" y1="144.6" x2="1471" y2="141.2"/>
								<line class="st16" x1="1473.4" y1="144.6" x2="1473.4" y2="141.2"/>
								<line class="st16" x1="1475.7" y1="144.6" x2="1475.7" y2="141.2"/>
							</g>
						</g>
					</g>
				</g>
			</g>
			<g>
				<path class="st12" d="M1455.7,144.2h-9.7c-0.4,0-0.7-0.3-0.7-0.7v-7.9c0-0.4,0.3-0.7,0.7-0.7h1v-0.4c0-0.4,0.3-0.7,0.7-0.7h0.4
					v-0.5c0-0.4,0.3-0.7,0.7-0.7h4.2c0.4,0,0.7,0.3,0.7,0.7v0.5h0.4c0.4,0,0.7,0.3,0.7,0.7v0.4h1c0.4,0,0.7,0.3,0.7,0.7v7.9
					C1456.4,143.9,1456.1,144.2,1455.7,144.2L1455.7,144.2z"/>
				<g>
					<g>
						<defs>
							<path id="SVGID_00000168086776156598264070000007565688729124813468_" d="M1455.7,144.2h-9.7c-0.4,0-0.7-0.3-0.7-0.7v-7.9
								c0-0.4,0.3-0.7,0.7-0.7h1v-0.4c0-0.4,0.3-0.7,0.7-0.7h0.4v-0.5c0-0.4,0.3-0.7,0.7-0.7h4.2c0.4,0,0.7,0.3,0.7,0.7v0.5h0.4
								c0.4,0,0.7,0.3,0.7,0.7v0.4h1c0.4,0,0.7,0.3,0.7,0.7v7.9C1456.4,143.9,1456.1,144.2,1455.7,144.2L1455.7,144.2z"/>
						</defs>
						<clipPath id="SVGID_00000052799103922456626890000008318174536433773735_">
							<use xlink:href="#SVGID_00000168086776156598264070000007565688729124813468_"  style="overflow:visible;"/>
						</clipPath>
						<g style="clip-path:url(#SVGID_00000052799103922456626890000008318174536433773735_);">
							<g>
								<line class="st16" x1="1448.2" y1="144.6" x2="1448.2" y2="141.2"/>
								<line class="st16" x1="1450.6" y1="144.6" x2="1450.6" y2="141.2"/>
								<line class="st16" x1="1453" y1="144.6" x2="1453" y2="141.2"/>
							</g>
						</g>
					</g>
				</g>
			</g>
			<g>
				<path class="st12" d="M1432.9,144.2h-9.7c-0.4,0-0.7-0.3-0.7-0.7v-7.9c0-0.4,0.3-0.7,0.7-0.7h1v-0.4c0-0.4,0.3-0.7,0.7-0.7h0.4
					v-0.5c0-0.4,0.3-0.7,0.7-0.7h4.2c0.4,0,0.7,0.3,0.7,0.7v0.5h0.4c0.4,0,0.7,0.3,0.7,0.7v0.4h1c0.4,0,0.7,0.3,0.7,0.7v7.9
					C1433.6,143.9,1433.3,144.2,1432.9,144.2L1432.9,144.2z"/>
				<g>
					<g>
						<defs>
							<path id="SVGID_00000084515555324756602340000017496665266259828136_" d="M1432.9,144.2h-9.7c-0.4,0-0.7-0.3-0.7-0.7v-7.9
								c0-0.4,0.3-0.7,0.7-0.7h1v-0.4c0-0.4,0.3-0.7,0.7-0.7h0.4v-0.5c0-0.4,0.3-0.7,0.7-0.7h4.2c0.4,0,0.7,0.3,0.7,0.7v0.5h0.4
								c0.4,0,0.7,0.3,0.7,0.7v0.4h1c0.4,0,0.7,0.3,0.7,0.7v7.9C1433.6,143.9,1433.3,144.2,1432.9,144.2L1432.9,144.2z"/>
						</defs>
						<clipPath id="SVGID_00000170971021357563486200000013327235143279022758_">
							<use xlink:href="#SVGID_00000084515555324756602340000017496665266259828136_"  style="overflow:visible;"/>
						</clipPath>
						<g style="clip-path:url(#SVGID_00000170971021357563486200000013327235143279022758_);">
							<g>
								<line class="st16" x1="1425.4" y1="144.6" x2="1425.4" y2="141.2"/>
								<line class="st16" x1="1427.8" y1="144.6" x2="1427.8" y2="141.2"/>
								<line class="st16" x1="1430.2" y1="144.6" x2="1430.2" y2="141.2"/>
							</g>
						</g>
					</g>
				</g>
			</g>
			<g>
				<path class="st12" d="M1410.1,144.2h-9.7c-0.4,0-0.7-0.3-0.7-0.7v-7.9c0-0.4,0.3-0.7,0.7-0.7h1v-0.4c0-0.4,0.3-0.7,0.7-0.7h0.4
					v-0.5c0-0.4,0.3-0.7,0.7-0.7h4.2c0.4,0,0.7,0.3,0.7,0.7v0.5h0.4c0.4,0,0.7,0.3,0.7,0.7v0.4h1c0.4,0,0.7,0.3,0.7,0.7v7.9
					C1410.8,143.9,1410.5,144.2,1410.1,144.2L1410.1,144.2z"/>
				<g>
					<g>
						<defs>
							<path id="SVGID_00000005976458554983052420000018214948109240303505_" d="M1410.1,144.2h-9.7c-0.4,0-0.7-0.3-0.7-0.7v-7.9
								c0-0.4,0.3-0.7,0.7-0.7h1v-0.4c0-0.4,0.3-0.7,0.7-0.7h0.4v-0.5c0-0.4,0.3-0.7,0.7-0.7h4.2c0.4,0,0.7,0.3,0.7,0.7v0.5h0.4
								c0.4,0,0.7,0.3,0.7,0.7v0.4h1c0.4,0,0.7,0.3,0.7,0.7v7.9C1410.8,143.9,1410.5,144.2,1410.1,144.2L1410.1,144.2z"/>
						</defs>
						<clipPath id="SVGID_00000000194311873861176330000004256324408801891493_">
							<use xlink:href="#SVGID_00000005976458554983052420000018214948109240303505_"  style="overflow:visible;"/>
						</clipPath>
						<g style="clip-path:url(#SVGID_00000000194311873861176330000004256324408801891493_);">
							<g>
								<line class="st16" x1="1402.7" y1="144.6" x2="1402.7" y2="141.2"/>
								<line class="st16" x1="1405" y1="144.6" x2="1405" y2="141.2"/>
								<line class="st16" x1="1407.4" y1="144.6" x2="1407.4" y2="141.2"/>
							</g>
						</g>
					</g>
				</g>
			</g>
			<g>
				<path class="st12" d="M1387.3,144.2h-9.7c-0.4,0-0.7-0.3-0.7-0.7v-7.9c0-0.4,0.3-0.7,0.7-0.7h1v-0.4c0-0.4,0.3-0.7,0.7-0.7h0.4
					v-0.5c0-0.4,0.3-0.7,0.7-0.7h4.2c0.4,0,0.7,0.3,0.7,0.7v0.5h0.4c0.4,0,0.7,0.3,0.7,0.7v0.4h1c0.4,0,0.7,0.3,0.7,0.7v7.9
					C1388.1,143.9,1387.7,144.2,1387.3,144.2L1387.3,144.2z"/>
				<g>
					<g>
						<defs>
							<path id="SVGID_00000089536190646595237530000016756116255758139282_" d="M1387.3,144.2h-9.7c-0.4,0-0.7-0.3-0.7-0.7v-7.9
								c0-0.4,0.3-0.7,0.7-0.7h1v-0.4c0-0.4,0.3-0.7,0.7-0.7h0.4v-0.5c0-0.4,0.3-0.7,0.7-0.7h4.2c0.4,0,0.7,0.3,0.7,0.7v0.5h0.4
								c0.4,0,0.7,0.3,0.7,0.7v0.4h1c0.4,0,0.7,0.3,0.7,0.7v7.9C1388.1,143.9,1387.7,144.2,1387.3,144.2L1387.3,144.2z"/>
						</defs>
						<clipPath id="SVGID_00000000912987868083777900000004905513641563759508_">
							<use xlink:href="#SVGID_00000089536190646595237530000016756116255758139282_"  style="overflow:visible;"/>
						</clipPath>
						<g style="clip-path:url(#SVGID_00000000912987868083777900000004905513641563759508_);">
							<g>
								<line class="st16" x1="1379.9" y1="144.6" x2="1379.9" y2="141.2"/>
								<line class="st16" x1="1382.3" y1="144.6" x2="1382.3" y2="141.2"/>
								<line class="st16" x1="1384.6" y1="144.6" x2="1384.6" y2="141.2"/>
							</g>
						</g>
					</g>
				</g>
			</g>
			<g>
				<path class="st12" d="M1364.6,144.2h-9.7c-0.4,0-0.7-0.3-0.7-0.7v-7.9c0-0.4,0.3-0.7,0.7-0.7h1v-0.4c0-0.4,0.3-0.7,0.7-0.7h0.4
					v-0.5c0-0.4,0.3-0.7,0.7-0.7h4.2c0.4,0,0.7,0.3,0.7,0.7v0.5h0.4c0.4,0,0.7,0.3,0.7,0.7v0.4h1c0.4,0,0.7,0.3,0.7,0.7v7.9
					C1365.3,143.9,1365,144.2,1364.6,144.2L1364.6,144.2z"/>
				<g>
					<g>
						<defs>
							<path id="SVGID_00000045618784422390136260000001232527447324262285_" d="M1364.6,144.2h-9.7c-0.4,0-0.7-0.3-0.7-0.7v-7.9
								c0-0.4,0.3-0.7,0.7-0.7h1v-0.4c0-0.4,0.3-0.7,0.7-0.7h0.4v-0.5c0-0.4,0.3-0.7,0.7-0.7h4.2c0.4,0,0.7,0.3,0.7,0.7v0.5h0.4
								c0.4,0,0.7,0.3,0.7,0.7v0.4h1c0.4,0,0.7,0.3,0.7,0.7v7.9C1365.3,143.9,1365,144.2,1364.6,144.2L1364.6,144.2z"/>
						</defs>
						<clipPath id="SVGID_00000094615763963308599160000005477010337170914697_">
							<use xlink:href="#SVGID_00000045618784422390136260000001232527447324262285_"  style="overflow:visible;"/>
						</clipPath>
						<g style="clip-path:url(#SVGID_00000094615763963308599160000005477010337170914697_);">
							<g>
								<line class="st16" x1="1357.1" y1="144.6" x2="1357.1" y2="141.2"/>
								<line class="st16" x1="1359.5" y1="144.6" x2="1359.5" y2="141.2"/>
								<line class="st16" x1="1361.8" y1="144.6" x2="1361.8" y2="141.2"/>
							</g>
						</g>
					</g>
				</g>
			</g>
			<g>
				<path class="st12" d="M1311.2,132.6h-9.7c-0.4,0-0.7,0.3-0.7,0.7v7.9c0,0.4,0.3,0.7,0.7,0.7h1v0.4c0,0.4,0.3,0.7,0.7,0.7h0.4
					v0.5c0,0.4,0.3,0.7,0.7,0.7h4.2c0.4,0,0.7-0.3,0.7-0.7V143h0.4c0.4,0,0.7-0.3,0.7-0.7v-0.4h1c0.4,0,0.7-0.3,0.7-0.7v-7.9
					C1311.9,132.9,1311.6,132.6,1311.2,132.6L1311.2,132.6z"/>
				<g>
					<g>
						<defs>
							<path id="SVGID_00000011731955806587588080000016810579886251189150_" d="M1311.2,132.6h-9.7c-0.4,0-0.7,0.3-0.7,0.7v7.9
								c0,0.4,0.3,0.7,0.7,0.7h1v0.4c0,0.4,0.3,0.7,0.7,0.7h0.4v0.5c0,0.4,0.3,0.7,0.7,0.7h4.2c0.4,0,0.7-0.3,0.7-0.7V143h0.4
								c0.4,0,0.7-0.3,0.7-0.7v-0.4h1c0.4,0,0.7-0.3,0.7-0.7v-7.9C1311.9,132.9,1311.6,132.6,1311.2,132.6L1311.2,132.6z"/>
						</defs>
						<clipPath id="SVGID_00000025437746733160228750000007588583215484446383_">
							<use xlink:href="#SVGID_00000011731955806587588080000016810579886251189150_"  style="overflow:visible;"/>
						</clipPath>
						<g style="clip-path:url(#SVGID_00000025437746733160228750000007588583215484446383_);">
							<g>
								<line class="st16" x1="1303.7" y1="132.2" x2="1303.7" y2="135.6"/>
								<line class="st16" x1="1306.1" y1="132.2" x2="1306.1" y2="135.6"/>
								<line class="st16" x1="1308.5" y1="132.2" x2="1308.5" y2="135.6"/>
							</g>
						</g>
					</g>
				</g>
			</g>
			<circle class="st13" cx="1480.6" cy="133.2" r="1.3"/>
			<circle class="st14" cx="1466.6" cy="133.2" r="1.3"/>
			<path class="st23" d="M1532.3,151.8c0-1.3-0.4-3.9-1.3-4.9s-2-1.4-3.2-1.3c-1.2-0.1-2.3,0.4-3.1,1.3c-0.9,1-1.3,3.6-1.3,4.9
				 M1525.9,151.8c0-0.9,0.1-3.4,0.5-4.2c0.3-0.6,0.7-1.1,1.5-1.1c0.3,0,0.7,0.1,0.9,0.3c0.3,0.3,0.5,0.7,0.7,1.1
				c0.3,0.7,0.3,3.1,0.3,3.9"/>
			<path class="st23" d="M1532.3,108.8c0,1.3-0.4,3.9-1.3,4.9s-2,1.4-3.2,1.3c-1.2,0.1-2.3-0.4-3.1-1.3c-0.9-1-1.3-3.6-1.3-4.9
				 M1525.9,108.8c0,0.9,0.1,3.4,0.5,4.2c0.3,0.6,0.7,1.1,1.5,1.1c0.3,0,0.7-0.1,0.9-0.3c0.3-0.3,0.5-0.7,0.7-1.1
				c0.3-0.7,0.3-3.1,0.3-3.9"/>
			<g>
				<path class="st24" d="M1548.7,129.1h-1.1l-0.2,0.5h-0.5l1-2.7h0.5l1,2.7h-0.5L1548.7,129.1L1548.7,129.1z M1548.6,128.8
					l-0.4-1.3l-0.4,1.3H1548.6L1548.6,128.8z"/>
				<path class="st24" d="M1551.1,127.6c0.1,0.1,0.2,0.1,0.3,0.2v-0.3h0.4v2.2c0,0.2,0,0.4-0.1,0.5s-0.2,0.3-0.4,0.4
					c-0.2,0.1-0.3,0.1-0.6,0.1c-0.3,0-0.5-0.1-0.7-0.2s-0.3-0.3-0.3-0.6h0.4c0,0.1,0.1,0.2,0.2,0.3c0.1,0.1,0.2,0.1,0.4,0.1
					c0.2,0,0.3,0,0.4-0.2c0.1-0.1,0.2-0.3,0.2-0.5v-0.4c-0.1,0.1-0.2,0.2-0.3,0.3s-0.3,0.1-0.4,0.1c-0.2,0-0.4,0-0.5-0.1
					c-0.2-0.1-0.3-0.2-0.4-0.4c-0.1-0.2-0.1-0.4-0.1-0.6s0-0.4,0.1-0.6c0.1-0.2,0.2-0.3,0.4-0.4c0.2-0.1,0.3-0.1,0.5-0.1
					C1550.9,127.5,1551,127.5,1551.1,127.6L1551.1,127.6z M1551.3,128.2c-0.1-0.1-0.1-0.2-0.2-0.2s-0.2-0.1-0.3-0.1s-0.2,0-0.3,0.1
					c-0.1,0.1-0.2,0.1-0.2,0.2c-0.1,0.1-0.1,0.2-0.1,0.4s0,0.3,0.1,0.4s0.1,0.2,0.2,0.3s0.2,0.1,0.3,0.1s0.2,0,0.3-0.1
					s0.2-0.1,0.2-0.2c0.1-0.1,0.1-0.2,0.1-0.4S1551.4,128.3,1551.3,128.2L1551.3,128.2z M1551.3,127.2c-0.1,0.1-0.2,0.1-0.4,0.1
					s-0.3,0-0.4-0.1s-0.2-0.2-0.2-0.4v-0.1h0.2c0,0.1,0,0.2,0.1,0.2s0.1,0.1,0.3,0.1s0.2,0,0.3-0.1s0.1-0.1,0.1-0.2h0.3v0.1
					C1551.4,127,1551.4,127.1,1551.3,127.2L1551.3,127.2z"/>
				<path class="st24" d="M1555.4,127.7c-0.1-0.1-0.2-0.2-0.3-0.3s-0.3-0.1-0.4-0.1c-0.2,0-0.3,0-0.5,0.1s-0.2,0.2-0.3,0.3
					c-0.1,0.1-0.1,0.3-0.1,0.5c0,0.2,0,0.4,0.1,0.5s0.2,0.3,0.3,0.4c0.1,0.1,0.3,0.1,0.5,0.1s0.4-0.1,0.6-0.2s0.2-0.3,0.3-0.5h-1
					v-0.4h1.5v0.4c0,0.2-0.1,0.4-0.2,0.6s-0.3,0.3-0.5,0.4s-0.4,0.2-0.7,0.2c-0.3,0-0.5-0.1-0.7-0.2s-0.4-0.3-0.5-0.5
					s-0.2-0.5-0.2-0.7s0.1-0.5,0.2-0.7s0.3-0.4,0.5-0.5s0.4-0.2,0.7-0.2c0.3,0,0.6,0.1,0.8,0.2s0.4,0.3,0.5,0.6L1555.4,127.7
					L1555.4,127.7z"/>
				<path class="st24" d="M1558.4,127.5v2.1h-0.4v-0.2c-0.1,0.1-0.2,0.2-0.3,0.2c-0.1,0-0.2,0.1-0.4,0.1c-0.2,0-0.3,0-0.4-0.1
					s-0.2-0.2-0.3-0.3s-0.1-0.3-0.1-0.5v-1.3h0.4v1.2c0,0.2,0.1,0.3,0.1,0.4c0.1,0.1,0.2,0.1,0.4,0.1s0.3,0,0.4-0.1s0.2-0.2,0.2-0.4
					v-1.2L1558.4,127.5L1558.4,127.5z M1557,127.2c0,0-0.1-0.1-0.1-0.2s0-0.1,0.1-0.2s0.1-0.1,0.2-0.1s0.1,0,0.2,0.1
					s0.1,0.1,0.1,0.2s0,0.1-0.1,0.2s-0.1,0.1-0.2,0.1S1557,127.2,1557,127.2z M1557.6,127.2c0,0-0.1-0.1-0.1-0.2s0-0.1,0.1-0.2
					s0.1-0.1,0.2-0.1s0.1,0,0.2,0.1s0.1,0.1,0.1,0.2s0,0.1-0.1,0.2s-0.1,0.1-0.2,0.1S1557.7,127.2,1557.6,127.2z"/>
				<path class="st24" d="M1559.9,129.3l0.6-1.8h0.5l-0.8,2.1h-0.5l-0.8-2.1h0.5L1559.9,129.3z"/>
				<path class="st24" d="M1563.2,128.8h-1.6c0,0.2,0.1,0.3,0.2,0.4s0.2,0.2,0.4,0.2c0.2,0,0.4-0.1,0.5-0.3h0.5
					c-0.1,0.2-0.2,0.4-0.3,0.5c-0.2,0.1-0.4,0.2-0.6,0.2s-0.4,0-0.6-0.1s-0.3-0.2-0.4-0.4s-0.1-0.4-0.1-0.6s0-0.4,0.1-0.6
					c0.1-0.2,0.2-0.3,0.4-0.4s0.3-0.1,0.6-0.1s0.4,0,0.5,0.1s0.3,0.2,0.4,0.4c0.1,0.2,0.1,0.3,0.1,0.5
					C1563.2,128.6,1563.2,128.7,1563.2,128.8L1563.2,128.8z M1562.8,128.4c0-0.2-0.1-0.3-0.2-0.4c-0.1-0.1-0.3-0.1-0.4-0.1
					c-0.2,0-0.3,0-0.4,0.1c-0.1,0.1-0.2,0.2-0.2,0.4H1562.8L1562.8,128.4z"/>
				<path class="st24" d="M1565.2,127.6c0.1,0.1,0.2,0.2,0.3,0.3c0.1,0.1,0.1,0.3,0.1,0.5v1.3h-0.4v-1.2c0-0.2-0.1-0.3-0.1-0.4
					c0-0.1-0.2-0.1-0.4-0.1s-0.3,0-0.4,0.1c-0.1,0.1-0.2,0.2-0.2,0.4v1.2h-0.4v-2.1h0.4v0.2c0.1-0.1,0.2-0.2,0.3-0.2
					s0.2-0.1,0.4-0.1C1564.9,127.5,1565.1,127.5,1565.2,127.6L1565.2,127.6z"/>
				<path class="st24" d="M1566.6,126.8v2.9h-0.4v-2.9H1566.6z"/>
				<path class="st24" d="M1567.3,127.2c-0.1,0-0.1-0.1-0.1-0.2s0-0.1,0.1-0.2s0.1-0.1,0.2-0.1s0.1,0,0.2,0.1s0.1,0.1,0.1,0.2
					s0,0.1-0.1,0.2c-0.1,0-0.1,0.1-0.2,0.1S1567.3,127.2,1567.3,127.2z M1567.7,127.5v2.1h-0.4v-2.1H1567.7z"/>
				<path class="st24" d="M1569.1,128.6l1,1.1h-0.6l-0.8-0.9v0.9h-0.4v-2.9h0.4v1.7l0.8-0.9h0.6L1569.1,128.6L1569.1,128.6z"/>
				<path class="st24" d="M1572.3,129.3l0.6-1.8h0.5l-0.8,2.1h-0.5l-0.8-2.1h0.5L1572.3,129.3z"/>
				<path class="st24" d="M1575.6,128.8h-1.6c0,0.2,0.1,0.3,0.2,0.4s0.2,0.2,0.4,0.2c0.2,0,0.4-0.1,0.5-0.3h0.5
					c-0.1,0.2-0.2,0.4-0.3,0.5c-0.2,0.1-0.4,0.2-0.6,0.2s-0.4,0-0.6-0.1s-0.3-0.2-0.4-0.4s-0.1-0.4-0.1-0.6s0-0.4,0.1-0.6
					c0.1-0.2,0.2-0.3,0.4-0.4s0.3-0.1,0.6-0.1s0.4,0,0.5,0.1s0.3,0.2,0.4,0.4c0.1,0.2,0.1,0.3,0.1,0.5
					C1575.7,128.6,1575.7,128.7,1575.6,128.8L1575.6,128.8z M1575.2,128.4c0-0.2-0.1-0.3-0.2-0.4c-0.1-0.1-0.3-0.1-0.4-0.1
					c-0.2,0-0.3,0-0.4,0.1c-0.1,0.1-0.2,0.2-0.2,0.4H1575.2L1575.2,128.4z"/>
				<path class="st24" d="M1547.5,134h0.9v0.4h-1.4v-2.7h0.4L1547.5,134L1547.5,134z"/>
				<path class="st24" d="M1549.2,134.2c-0.2-0.1-0.3-0.2-0.4-0.4c-0.1-0.2-0.1-0.4-0.1-0.6s0.1-0.4,0.1-0.6
					c0.1-0.2,0.2-0.3,0.4-0.4c0.2-0.1,0.3-0.1,0.6-0.1s0.4,0,0.6,0.1s0.3,0.2,0.4,0.4c0.1,0.2,0.1,0.4,0.1,0.6s-0.1,0.4-0.2,0.6
					s-0.2,0.3-0.4,0.4c-0.2,0.1-0.4,0.1-0.6,0.1S1549.4,134.3,1549.2,134.2L1549.2,134.2z M1550.1,133.9c0.1,0,0.2-0.1,0.2-0.2
					c0.1-0.1,0.1-0.2,0.1-0.4s0-0.3-0.1-0.4s-0.1-0.2-0.2-0.2s-0.2-0.1-0.3-0.1s-0.2,0-0.3,0.1s-0.2,0.1-0.2,0.2
					c-0.1,0.1-0.1,0.2-0.1,0.4c0,0.2,0.1,0.4,0.2,0.5s0.3,0.2,0.4,0.2S1550,134,1550.1,133.9L1550.1,133.9z"/>
				<path class="st24" d="M1552.6,132.3c0.1,0.1,0.2,0.1,0.3,0.2v-0.3h0.4v2.2c0,0.2,0,0.4-0.1,0.5s-0.2,0.3-0.4,0.4
					c-0.2,0.1-0.3,0.1-0.6,0.1c-0.3,0-0.5-0.1-0.7-0.2s-0.3-0.3-0.3-0.6h0.4c0,0.1,0.1,0.2,0.2,0.3c0.1,0.1,0.2,0.1,0.4,0.1
					c0.2,0,0.3,0,0.4-0.2c0.1-0.1,0.2-0.3,0.2-0.5v-0.4c-0.1,0.1-0.2,0.2-0.3,0.3s-0.3,0.1-0.4,0.1c-0.2,0-0.4,0-0.5-0.1
					c-0.2-0.1-0.3-0.2-0.4-0.4c-0.1-0.2-0.1-0.4-0.1-0.6s0-0.4,0.1-0.6s0.2-0.3,0.4-0.4c0.2-0.1,0.3-0.1,0.5-0.1
					C1552.4,132.2,1552.5,132.2,1552.6,132.3L1552.6,132.3z M1552.8,132.9c-0.1-0.1-0.1-0.2-0.2-0.2s-0.2-0.1-0.3-0.1
					s-0.2,0-0.3,0.1c-0.1,0.1-0.2,0.1-0.2,0.2c-0.1,0.1-0.1,0.2-0.1,0.4s0,0.3,0.1,0.4s0.1,0.2,0.2,0.3s0.2,0.1,0.3,0.1
					s0.2,0,0.3-0.1s0.2-0.1,0.2-0.2c0.1-0.1,0.1-0.2,0.1-0.4S1552.9,133,1552.8,132.9L1552.8,132.9z"/>
				<path class="st24" d="M1554.4,131.5v2.9h-0.4v-2.9H1554.4z"/>
				<path class="st24" d="M1555,132.7c0.1-0.2,0.2-0.3,0.4-0.4c0.2-0.1,0.3-0.1,0.5-0.1s0.3,0,0.4,0.1s0.2,0.1,0.3,0.2v-0.3h0.4v2.1
					h-0.4V134c-0.1,0.1-0.2,0.2-0.3,0.2c-0.1,0.1-0.3,0.1-0.4,0.1c-0.2,0-0.3,0-0.5-0.1s-0.3-0.2-0.4-0.4c-0.1-0.2-0.1-0.4-0.1-0.6
					S1554.9,132.8,1555,132.7L1555,132.7z M1556.5,132.9c-0.1-0.1-0.1-0.2-0.2-0.2s-0.2-0.1-0.3-0.1s-0.2,0-0.3,0.1
					c-0.1,0.1-0.2,0.1-0.2,0.2c-0.1,0.1-0.1,0.2-0.1,0.4s0,0.3,0.1,0.4s0.1,0.2,0.2,0.3s0.2,0.1,0.3,0.1s0.2,0,0.3-0.1
					s0.2-0.1,0.2-0.2c0.1-0.1,0.1-0.2,0.1-0.4S1556.6,133,1556.5,132.9L1556.5,132.9z"/>
				<path class="st24" d="M1560.7,132.3c0.1,0.1,0.2,0.2,0.3,0.3c0.1,0.1,0.1,0.3,0.1,0.5v1.3h-0.4v-1.2c0-0.2-0.1-0.3-0.1-0.4
					s-0.2-0.1-0.4-0.1s-0.3,0-0.4,0.1s-0.2,0.2-0.2,0.4v1.2h-0.4v-1.2c0-0.2-0.1-0.3-0.1-0.4s-0.2-0.1-0.4-0.1s-0.3,0-0.4,0.1
					s-0.2,0.2-0.2,0.4v1.2h-0.4v-2.1h0.4v0.2c0.1-0.1,0.2-0.2,0.3-0.2s0.2-0.1,0.4-0.1c0.2,0,0.3,0,0.5,0.1c0.1,0.1,0.2,0.2,0.3,0.3
					c0.1-0.1,0.2-0.2,0.3-0.3c0.1-0.1,0.3-0.1,0.4-0.1C1560.4,132.2,1560.6,132.2,1560.7,132.3L1560.7,132.3z"/>
				<path class="st24" d="M1561.7,132.7c0.1-0.2,0.2-0.3,0.4-0.4c0.2-0.1,0.3-0.1,0.5-0.1s0.3,0,0.4,0.1s0.2,0.1,0.3,0.2v-0.3h0.4
					v2.1h-0.4V134c-0.1,0.1-0.2,0.2-0.3,0.2c-0.1,0.1-0.3,0.1-0.4,0.1c-0.2,0-0.3,0-0.5-0.1s-0.3-0.2-0.4-0.4
					c-0.1-0.2-0.1-0.4-0.1-0.6S1561.6,132.8,1561.7,132.7L1561.7,132.7z M1563.2,132.9c-0.1-0.1-0.1-0.2-0.2-0.2s-0.2-0.1-0.3-0.1
					s-0.2,0-0.3,0.1c-0.1,0.1-0.2,0.1-0.2,0.2c-0.1,0.1-0.1,0.2-0.1,0.4s0,0.3,0.1,0.4s0.1,0.2,0.2,0.3s0.2,0.1,0.3,0.1
					s0.2,0,0.3-0.1s0.2-0.1,0.2-0.2c0.1-0.1,0.1-0.2,0.1-0.4S1563.3,133,1563.2,132.9L1563.2,132.9z"/>
				<path class="st24" d="M1565.8,134.3c-0.2-0.1-0.3-0.1-0.3-0.3s-0.1-0.2-0.1-0.4h0.5c0,0.1,0.1,0.2,0.1,0.3
					c0.1,0.1,0.2,0.1,0.3,0.1s0.3,0,0.4-0.1s0.1-0.2,0.1-0.3c0-0.1,0-0.2-0.1-0.2s-0.1-0.1-0.2-0.1s-0.2-0.1-0.3-0.1
					c-0.2,0-0.3-0.1-0.4-0.1s-0.2-0.1-0.3-0.2c-0.1-0.1-0.1-0.2-0.1-0.4c0-0.2,0-0.3,0.1-0.4s0.2-0.2,0.3-0.3s0.3-0.1,0.5-0.1
					c0.3,0,0.5,0.1,0.7,0.2s0.3,0.3,0.3,0.5h-0.5c0-0.1-0.1-0.2-0.1-0.2s-0.2-0.1-0.3-0.1c-0.1,0-0.2,0-0.3,0.1
					c-0.1,0.1-0.1,0.2-0.1,0.3c0,0.1,0,0.1,0.1,0.2s0.1,0.1,0.2,0.1s0.2,0.1,0.3,0.1c0.2,0,0.3,0.1,0.4,0.1s0.2,0.1,0.3,0.2
					c0.1,0.1,0.1,0.2,0.1,0.4c0,0.1,0,0.3-0.1,0.4s-0.2,0.2-0.3,0.3s-0.3,0.1-0.5,0.1C1566.1,134.4,1565.9,134.4,1565.8,134.3
					L1565.8,134.3z"/>
				<path class="st24" d="M1567.7,131.8c-0.1,0-0.1-0.1-0.1-0.2s0-0.1,0.1-0.2s0.1-0.1,0.2-0.1s0.1,0,0.2,0.1s0.1,0.1,0.1,0.2
					s0,0.1-0.1,0.2c-0.1,0-0.1,0.1-0.2,0.1S1567.8,131.9,1567.7,131.8z M1568.2,132.2v2.1h-0.4v-2.1H1568.2z"/>
				<path class="st24" d="M1569.1,134.3c-0.1-0.1-0.2-0.1-0.3-0.2s-0.1-0.2-0.1-0.4h0.5c0,0.1,0.1,0.2,0.1,0.2s0.2,0.1,0.3,0.1
					s0.2,0,0.3-0.1c0.1,0,0.1-0.1,0.1-0.2s0-0.1-0.1-0.2c-0.1,0-0.2-0.1-0.4-0.1c-0.2,0-0.3-0.1-0.4-0.1s-0.2-0.1-0.3-0.2
					c-0.1-0.1-0.1-0.2-0.1-0.3c0-0.1,0-0.2,0.1-0.3s0.2-0.2,0.3-0.2s0.3-0.1,0.4-0.1c0.2,0,0.4,0.1,0.6,0.2s0.2,0.3,0.2,0.5h-0.4
					c0-0.1-0.1-0.2-0.1-0.2s-0.2-0.1-0.3-0.1s-0.2,0-0.3,0.1s-0.1,0.1-0.1,0.2s0,0.1,0.1,0.1s0.1,0.1,0.2,0.1s0.2,0,0.3,0.1
					c0.2,0,0.3,0.1,0.4,0.1s0.2,0.1,0.3,0.2c0.1,0.1,0.1,0.2,0.1,0.3c0,0.1,0,0.2-0.1,0.3c-0.1,0.1-0.2,0.2-0.3,0.2
					s-0.3,0.1-0.4,0.1S1569.2,134.4,1569.1,134.3L1569.1,134.3z"/>
				<path class="st24" d="M1571.3,132.6v1.2c0,0.1,0,0.1,0.1,0.2s0.1,0,0.2,0h0.3v0.4h-0.3c-0.2,0-0.3,0-0.5-0.1
					c-0.1-0.1-0.2-0.2-0.2-0.5v-1.2h-0.2v-0.4h0.2v-0.5h0.4v0.5h0.5v0.4H1571.3L1571.3,132.6z"/>
				<path class="st24" d="M1574.2,133.4h-1.6c0,0.2,0.1,0.3,0.2,0.4s0.2,0.2,0.4,0.2c0.2,0,0.4-0.1,0.5-0.3h0.5
					c-0.1,0.2-0.2,0.4-0.3,0.5c-0.2,0.1-0.4,0.2-0.6,0.2s-0.4,0-0.6-0.1s-0.3-0.2-0.4-0.4s-0.1-0.4-0.1-0.6s0-0.4,0.1-0.6
					s0.2-0.3,0.4-0.4s0.3-0.1,0.6-0.1s0.4,0,0.5,0.1s0.3,0.2,0.4,0.4s0.1,0.3,0.1,0.5C1574.2,133.3,1574.2,133.4,1574.2,133.4
					L1574.2,133.4z M1573.8,133.1c0-0.2-0.1-0.3-0.2-0.4s-0.3-0.1-0.4-0.1c-0.2,0-0.3,0-0.4,0.1s-0.2,0.2-0.2,0.4H1573.8
					L1573.8,133.1z"/>
				<path class="st24" d="M1577.7,132.3c0.1,0.1,0.2,0.2,0.3,0.3c0.1,0.1,0.1,0.3,0.1,0.5v1.3h-0.4v-1.2c0-0.2-0.1-0.3-0.1-0.4
					s-0.2-0.1-0.4-0.1s-0.3,0-0.4,0.1s-0.2,0.2-0.2,0.4v1.2h-0.4v-1.2c0-0.2-0.1-0.3-0.1-0.4s-0.2-0.1-0.4-0.1s-0.3,0-0.4,0.1
					s-0.2,0.2-0.2,0.4v1.2h-0.4v-2.1h0.4v0.2c0.1-0.1,0.2-0.2,0.3-0.2s0.2-0.1,0.4-0.1c0.2,0,0.3,0,0.5,0.1c0.1,0.1,0.2,0.2,0.3,0.3
					c0.1-0.1,0.2-0.2,0.3-0.3c0.1-0.1,0.3-0.1,0.4-0.1C1577.4,132.2,1577.6,132.2,1577.7,132.3L1577.7,132.3z"/>
				<path class="st24" d="M1578.8,131.8c-0.1,0-0.1-0.1-0.1-0.2s0-0.1,0.1-0.2s0.1-0.1,0.2-0.1s0.1,0,0.2,0.1s0.1,0.1,0.1,0.2
					s0,0.1-0.1,0.2c-0.1,0-0.1,0.1-0.2,0.1S1578.8,131.9,1578.8,131.8z M1579.2,132.2v2.1h-0.4v-2.1H1579.2z"/>
			</g>
		</g>
		<g class="st25">
			<g>
				<g>
					<g>
						<defs>
							<polygon id="SVGID_00000061460343913257571850000009101548266234453889_" points="1308.7,101.1 1331.5,93.4 1444.3,93.4 
								1467,101.1 							"/>
						</defs>
						<clipPath id="SVGID_00000076584183889750888090000014803777390675203499_">
							<use xlink:href="#SVGID_00000061460343913257571850000009101548266234453889_"  style="overflow:visible;"/>
						</clipPath>
						<g style="clip-path:url(#SVGID_00000076584183889750888090000014803777390675203499_);">
							<g>
								<path class="st27" d="M1436.5,95.2c-0.9,0-1.8,0-2.7,0c-0.8,0-1.6,0-2.3,0.1c-0.7,0.1-1.4,0.1-2,0.1s-1.1,0.1-1.6,0.2
									s-1,0.2-1.3,0.3c-0.3,0.1-0.6,0.2-0.7,0.3c-0.1,0.1-0.2,0.2-0.1,0.3c0.1,0.1,0.2,0.2,0.4,0.4c0.1,0.1,0.3,0.1,0.4,0.2
									c0.1,0.1,0.3,0.1,0.5,0.2c0.2,0.1,0.5,0.1,0.8,0.2c0.3,0.1,0.6,0.1,1,0.2c0.2,0,0.5,0.1,0.8,0.1c0.3,0,0.6,0.1,1,0.1
									s0.7,0.1,1.1,0.1c0.4,0,0.8,0.1,1.2,0.1s0.8,0.1,1.3,0.1s0.9,0.1,1.4,0.1s0.9,0.1,1.4,0.1s1,0.1,1.5,0.1
									c0.6,0,1.2,0.1,1.7,0.1s1.2,0,1.7,0s1.2,0,1.7,0s1.1,0,1.7,0c0.5,0,1,0,1.5,0s0.9,0,1.4,0s0.9,0,1.4,0s0.9,0,1.4,0
									c0.4,0,0.8,0,1.2,0s0.8,0,1.2-0.1s0.8,0,1.1-0.1s0.7-0.1,1.1-0.1h0.1h0.1l0,0l0,0l-2.3-0.8c0,0-0.1,0-0.2-0.1
									s-0.1,0-0.2-0.1s-0.1,0-0.1-0.1s0,0,0,0s0,0,0.1,0s0.1,0,0.1,0h0.1h0.1c0.1,0,0.2,0,0.3,0s0.3,0,0.4,0s0.3,0,0.4,0
									s0.3,0,0.4,0s0.2,0,0.3,0s0.1,0,0.2,0s0.1,0,0,0s0,0-0.1,0l-0.2-0.1c0,0-0.1,0-0.2,0s-0.1,0-0.2,0s-0.2,0-0.2,0
									s-0.2,0-0.3,0h-11.9c-0.1,0-0.2,0-0.3,0s-0.1,0-0.2,0s-0.1,0-0.1,0s0,0,0.1,0l0.2,0.1h0.1c0,0,0.1,0,0.2,0s0.2,0,0.2,0
									s0.2,0,0.3,0h0.6c0.1,0,0.2,0,0.3,0s0.2,0,0.3,0s0.2,0,0.3,0s0.2,0,0.4,0c0.1,0,0.2,0,0.2,0s0.2,0,0.3,0s0.2,0,0.2,0h0.1
									c0.1,0,0.2,0,0.3,0s0.2,0,0.2,0.1s0.2,0,0.2,0.1s0.1,0,0.1,0.1l1.8,0.7c-0.1,0-0.2,0-0.3,0s-0.2,0-0.3,0s-0.2,0-0.4,0
									s-0.3,0-0.4,0.1c-0.2,0-0.3,0-0.4,0s-0.3,0-0.4,0s-0.3,0-0.4,0s-0.3,0-0.5,0c-0.4,0-0.8,0-1.2,0s-0.8,0-1.1,0
									s-0.8,0-1.2-0.1s-0.8,0-1.2-0.1c-0.4,0-0.8-0.1-1.2-0.1s-0.7-0.1-1-0.1s-0.6-0.1-0.9-0.1s-0.5-0.1-0.7-0.1
									c-0.3-0.1-0.6-0.2-0.9-0.2s-0.5-0.1-0.7-0.2c-0.2-0.1-0.4-0.1-0.6-0.2s-0.3-0.1-0.5-0.2c-0.1-0.1-0.2-0.1-0.3-0.2
									s-0.2-0.1-0.2-0.2s-0.1-0.1-0.1-0.2s-0.1-0.1-0.1-0.2c0,0,0-0.1,0.1-0.1s0.1-0.1,0.2-0.1c0.1,0,0.2-0.1,0.4-0.1
									c0.2,0,0.3-0.1,0.6-0.1c0.2,0,0.5,0,0.7-0.1s0.5,0,0.8,0s0.6,0,0.9,0s0.7,0,1.1,0s0.8,0,1.2,0s0.8,0,1.2,0s0.8,0,1.3,0.1
									s0.9,0.1,1.3,0.1c0.5,0,1,0.1,1.4,0.1s0.9,0.1,1.3,0.2s0.8,0.1,1.2,0.2s0.7,0.1,1.1,0.2h0.1c0,0,0.1,0,0.2,0s0.2,0,0.2,0
									s0.1,0,0.2,0h0.6c0.1,0,0.2,0,0.2,0s0.1,0,0.2,0s0.1,0,0.1,0s0,0-0.1,0l-3.1-1.1h-0.1c0,0-0.1,0-0.2,0s-0.1,0-0.2,0
									s-0.2,0-0.3,0h-0.6c0,0-0.1,0-0.2,0s-0.1,0-0.2,0s-0.1,0-0.1,0l0,0l0,0l0,0c0,0,0,0-0.1,0s0,0-0.1,0l0,0c0,0,0,0-0.1,0
									s-0.1,0-0.1,0h-0.1c-0.1,0-0.2,0-0.4,0s-0.3,0-0.5,0s-0.4,0-0.6,0s-0.3,0-0.4,0c-0.2,0-0.5,0-0.7,0s-0.5,0-0.7,0
									s-0.5,0-0.7,0s-0.4,0-0.7,0c-0.3,0-0.6,0-0.9,0s-0.6,0-0.8,0s-0.5,0-0.8,0S1436.8,95.2,1436.5,95.2"/>
								<path class="st27" d="M1411.8,98.4c-0.4,0-0.9,0-1.3,0c-0.4,0-0.8,0-1.1-0.1c-0.3-0.1-0.7-0.1-1-0.1c-0.3,0-0.6-0.1-0.8-0.1
									c-0.5-0.1-1-0.2-1.3-0.3c-0.3-0.1-0.7-0.2-0.9-0.3c-0.2-0.1-0.4-0.2-0.6-0.3s-0.2-0.2-0.3-0.3c-0.1-0.1-0.1-0.2-0.2-0.3
									c-0.1-0.1,0-0.2,0-0.3s0.1-0.2,0.2-0.3c0.1-0.1,0.3-0.2,0.5-0.2c0.2,0,0.4-0.1,0.7-0.1c0.3,0,0.5-0.1,0.8-0.1
									c0.3,0,0.7-0.1,1.1-0.1c0.4,0,0.9,0,1.4,0c0.2,0,0.5,0,0.7,0c0.2,0,0.4,0,0.7,0c0.3,0,0.4,0,0.6,0s0.4,0,0.7,0.1
									c0.3,0,0.5,0,0.7,0.1c0.2,0.1,0.4,0.1,0.6,0.1s0.4,0.1,0.6,0.1s0.3,0.1,0.5,0.1c0.3,0.1,0.5,0.1,0.7,0.2
									c0.2,0.1,0.4,0.2,0.5,0.2s0.3,0.2,0.4,0.2c0.1,0,0.2,0.2,0.3,0.2s0.2,0.1,0.2,0.2s0.1,0.2,0.2,0.2c0.1,0,0,0.2,0,0.2
									s0,0.2-0.1,0.2c0,0-0.1,0.1-0.2,0.1c-0.1,0-0.2,0.1-0.4,0.1c-0.2,0-0.3,0.1-0.5,0.1c-0.2,0-0.4,0.1-0.7,0.1
									c-0.2,0-0.4,0-0.6,0.1s-0.4,0-0.7,0c-0.3,0-0.5,0-0.7,0C1412.3,98.1,1412.1,98.5,1411.8,98.4 M1409.2,95.1
									c-0.1,0-0.1,0-0.2,0c-0.1,0-0.1,0-0.2,0c-0.1,0-0.1,0-0.2,0c-0.1,0-0.1,0-0.2,0c-0.1,0-0.1,0-0.2,0c-0.1,0-0.1,0-0.2,0
									c-0.1,0-0.1,0-0.2,0c-0.1,0-0.1,0-0.2,0c-0.8,0-1.6,0-2.3,0c-0.7,0-1.4,0-2.1,0.1s-1.3,0.1-1.8,0.1s-1.1,0.1-1.6,0.2
									c-0.6,0.1-1.1,0.2-1.5,0.3s-0.8,0.2-1,0.3c-0.2,0.1-0.5,0.2-0.6,0.3s-0.1,0.2-0.1,0.4c0,0.1,0.1,0.2,0.3,0.3
									c0.2,0.1,0.4,0.2,0.7,0.3c0.3,0.1,0.6,0.2,1.1,0.3s0.9,0.2,1.5,0.3c0.8,0.1,1.6,0.2,2.5,0.3s1.9,0.2,2.9,0.2
									c1,0.1,2.1,0.1,3.2,0.1c1.1,0,2.3,0,3.5,0c1.2,0,2.4,0,3.5,0s2-0.1,2.9-0.1s1.7-0.1,2.4-0.2c0.7-0.1,1.3-0.2,1.8-0.4
									c0.4-0.1,0.7-0.2,0.9-0.3c0.2-0.1,0.4-0.2,0.4-0.3s0.1-0.2,0-0.3s-0.2-0.2-0.3-0.3c-0.2-0.1-0.5-0.2-0.8-0.4
									c-0.3-0.2-0.7-0.2-1.2-0.3s-1-0.2-1.6-0.3s-1.3-0.2-2-0.3c-0.7-0.1-1.4-0.1-2.1-0.2s-1.5-0.1-2.2-0.1
									c-0.7,0-1.5-0.1-2.3-0.1C1410.9,95,1410,95.1,1409.2,95.1"/>
								<path class="st27" d="M1384,95.2h-12.1c-0.1,0-0.2,0-0.2,0s-0.1,0-0.2,0c-0.1,0-0.1,0-0.1,0s0,0-0.1,0l-0.1,0.1l0,0
									c0,0,0,0,0.1,0s0.1,0,0.2,0c0.1,0,0.2,0,0.2,0h0.8c0.1,0,0.2,0,0.3,0s0.2,0,0.3,0s0.2,0,0.3,0s0.2,0,0.3,0c0,0,0.1,0,0.2,0
									c0.1,0,0.1,0,0.2,0c0.1,0,0.1,0,0.1,0s0.1,0,0,0h0.1c0,0,0,0,0,0.1s0,0,0,0.1s0,0,0,0l-1.4,2.3c0,0,0,0,0,0.1s0,0.1-0.1,0.1
									s-0.1,0.1-0.1,0.1s-0.1,0-0.2,0.1l0,0h-0.1c0,0-0.1,0-0.2,0c-0.1,0-0.1,0-0.2,0c-0.1,0-0.2,0-0.4,0c-0.2,0-0.3,0-0.4,0
									c-0.1,0-0.3,0-0.4,0c-0.1,0-0.3,0-0.4,0h-0.9c-0.1,0-0.2,0-0.3,0s-0.2,0-0.2,0s-0.1,0-0.2,0c-0.1,0-0.1,0-0.1,0l-0.1,0.1
									l0,0c0,0,0,0,0.1,0s0.1,0,0.2,0c0.1,0,0.2,0,0.3,0h23.6c0.1,0,0.1,0,0.2,0c0.1,0,0.2,0,0.2,0s0.1,0,0.2,0c0.1,0,0.1,0,0.1,0
									l0.5-1.3l0,0l0,0c0,0,0,0-0.1,0s-0.1,0-0.1,0l0,0h-0.1h-0.1c0,0-0.1,0-0.2,0h-0.8c0,0-0.1,0-0.2,0c-0.1,0-0.1,0-0.2,0
									c-0.1,0-0.1,0-0.2,0c-0.1,0-0.1,0-0.1,0c-0.1,0-0.2,0.1-0.3,0.2s-0.2,0.1-0.3,0.2s-0.3,0.1-0.4,0.2
									c-0.1,0.1-0.3,0.1-0.6,0.1c-0.2,0-0.3,0.1-0.5,0.1c-0.2,0-0.3,0.1-0.5,0.1c-0.2,0-0.4,0-0.5,0.1s-0.4,0-0.6,0.1
									s-0.5,0-0.7,0c-0.2,0-0.5,0-0.8,0c-0.3,0-0.5,0-0.8,0c-0.3,0-0.5,0-0.8,0h-2.2c-0.1,0-0.3,0-0.4,0c-0.1,0-0.4,0-0.6,0
									s-0.4,0-0.6,0s-0.3,0-0.4,0h-0.1c0,0,0,0-0.1,0s0,0-0.1,0s0,0-0.1,0l0,0l0,0l0,0l0,0c0,0-0.1,0-0.1-0.1s0-0.1,0-0.1v-0.1
									c0,0,0,0,0-0.1l0.7-2.2l0,0c0,0,0,0,0-0.1s0,0,0.1-0.1s0.1,0,0.1,0l0,0c0,0,0,0,0.1,0s0.1,0,0.1,0s0.1,0,0.2,0s0.2,0,0.3,0
									s0.2,0,0.4,0c0.2,0,0.2,0,0.4,0c0.2,0,0.2,0,0.3,0h1c0.1,0,0.2,0,0.3,0s0.1,0,0.2,0c0.1,0,0.1,0,0.1,0l0,0v-0.1l0,0h-0.1
									c0,0-0.1,0-0.2,0C1384.3,95.2,1384.1,95.2,1384,95.2"/>
								<path class="st27" d="M1370.7,93.5c-0.1,0-0.2,0-0.3,0s-0.2,0-0.3,0s-0.2,0-0.3,0s-0.2,0-0.3,0c-0.8,0-1.4,0-2.1,0.1
									s-1.2,0.1-1.7,0.1s-1,0.1-1.5,0.2s-1,0.1-1.5,0.2l-44.5,6.1c-0.4,0-0.8,0.1-1.3,0.1s-1,0.1-1.5,0.1s-1.1,0.1-1.6,0.1
									s-1,0.1-1.4,0.1c-0.5,0-0.9,0-1.3,0.1c-0.4,0.1-0.7,0.1-1,0.1c-0.3,0-0.5,0.1-0.8,0.1c-0.3,0-0.4,0.1-0.6,0.1h20.9
									c0,0,0.1,0,0.2-0.1c0.1-0.1,0.2-0.1,0.2-0.2s-0.3-0.1-0.8-0.2s-1.4-0.1-2.7-0.2c-0.1,0-0.1,0-0.2,0c-0.1,0-0.1,0-0.2,0
									c-0.1,0-0.1,0-0.2,0c-0.1,0-0.1,0-0.2,0l22-3.1l11,3.1c-1.6,0.1-2.7,0.1-3.6,0.2c-0.9,0.1-1.3,0.1-1.7,0.2s-0.4,0.1-0.5,0.2
									s0,0.1,0,0.1h21.4c0,0-0.1-0.1-0.2-0.1c-0.1,0-0.2-0.1-0.3-0.1s-0.4-0.1-0.6-0.1s-0.6-0.1-1-0.1c-0.5,0-1,0-1.4-0.1
									s-0.9-0.1-1.2-0.1c-0.3,0-0.7-0.1-0.9-0.1c-0.2,0-0.3,0-0.3,0l-15-3.8l20.2-2.9c0,0-0.1,0-0.2,0c-0.1,0-0.3,0-0.6,0
									c-0.3,0-0.6,0-1,0S1371.2,93.5,1370.7,93.5 M1338.9,93.4c-0.5,0-1.1,0-1.6,0s-1,0-1.3,0.1c-0.3,0.1-0.7,0-0.9,0.1
									c-0.2,0.1-0.3,0-0.3,0l9.5,2.7l5.8-0.8l-6.9-1.7c-0.3-0.1-0.6-0.1-0.9-0.2s-0.7-0.1-1-0.1c-0.3,0-0.7,0-1.1-0.1
									C1339.8,93.3,1339.3,93.4,1338.9,93.4"/>
							</g>
						</g>
					</g>
				</g>
			</g>
		</g>
	</g>
	<g>
		<line class="st0" x1="1742" y1="125.6" x2="1626.9" y2="125.6"/>
		<path class="st1" d="M1744.5,112.9l11.7,11.7c0.6,0.6,0.6,1.5,0,2.1l-11.7,11.7c-1,1-2.5,0.2-2.5-1v-23.6
			C1742,112.6,1743.6,112,1744.5,112.9L1744.5,112.9z"/>
	</g>
	<g>
		<path class="st28" d="M2042.5,92.3c0-0.2,0-0.3,0-0.5c0-34.2-27.7-62-62-62c-9.9,0-19.2,2.3-27.5,6.4
			c-11.7-18.8-32.6-31.3-56.5-31.3c-35.7,0-64.9,28.1-66.6,63.3c-29.7,3.4-52.8,28.7-52.8,59.3c0,33,26.7,59.7,59.7,59.7h201.7
			c26.3,0,47.6-21.3,47.6-47.6S2066.9,94.3,2042.5,92.3L2042.5,92.3z"/>
		<g>
			<path d="M1867.9,111.7c-0.5,0-0.8-0.2-1.2-0.5c-0.3-0.3-0.5-0.7-0.5-1.2s0.2-0.9,0.5-1.2c0.3-0.3,0.7-0.5,1.2-0.5
				s0.8,0.2,1.2,0.5c0.3,0.3,0.5,0.7,0.5,1.2s-0.2,0.8-0.5,1.2C1868.8,111.5,1868.4,111.7,1867.9,111.7z M1866.7,138.2v-23.8h2.5
				v23.8H1866.7z"/>
			<path d="M1885.5,120.2c1.5,0,2.7,0.3,3.8,0.8c1.1,0.6,2,1.4,2.6,2.5s0.9,2.6,0.9,4.3v10.4h-2.4v-10.1c0-1.9-0.5-3.3-1.4-4.3
				s-2.3-1.4-4-1.4c-1.3,0-2.4,0.2-3.3,0.8c-0.9,0.6-1.7,1.2-2.2,2.2s-0.8,2.1-0.8,3.5v9.4h-2.4v-17.8h2.3v4.9l-0.4-0.9
				c0.6-1.3,1.5-2.3,2.7-3C1882.1,120.8,1883.8,120.2,1885.5,120.2L1885.5,120.2z"/>
			<path d="M1896.6,122.4v-2h11v2H1896.6z M1905.1,138.4c-1.7,0-3-0.4-3.9-1.4c-0.9-0.9-1.4-2.2-1.4-3.8v-16.8h2.4V133
				c0,1,0.3,1.9,0.8,2.4c0.5,0.6,1.3,0.9,2.3,0.9c1.1,0,2-0.3,2.7-0.9l0.8,1.7c-0.5,0.4-1,0.8-1.7,0.9
				C1906.4,138.1,1905.8,138.4,1905.1,138.4L1905.1,138.4z"/>
			<path d="M1920.2,138.4c-1.9,0-3.5-0.4-4.9-1.2s-2.5-1.9-3.3-3.2c-0.8-1.3-1.2-2.9-1.2-4.7c0-1.8,0.4-3.3,1.1-4.7s1.8-2.4,3.1-3.2
				c1.3-0.8,2.8-1.2,4.5-1.2c1.7,0,3.2,0.4,4.5,1.1c1.3,0.7,2.3,1.8,3.1,3.2c0.8,1.4,1.1,2.9,1.1,4.7c0,0.1,0,0.2,0,0.4
				c0,0.2,0,0.2,0,0.4h-15.5v-1.8h14.2l-1,0.7c0-1.3-0.3-2.4-0.8-3.4c-0.6-1-1.3-1.8-2.3-2.4s-2-0.8-3.3-0.8c-1.3,0-2.3,0.3-3.3,0.8
				s-1.7,1.4-2.3,2.4c-0.5,1-0.8,2.2-0.8,3.5v0.4c0,1.4,0.3,2.6,0.9,3.6c0.6,1,1.4,1.8,2.5,2.4s2.3,0.9,3.7,0.9c1.1,0,2.1-0.2,3-0.6
				c0.9-0.4,1.8-1,2.4-1.8l1.4,1.6c-0.8,0.9-1.8,1.7-3,2.2C1922.9,138.1,1921.6,138.4,1920.2,138.4L1920.2,138.4z"/>
			<path d="M1933.1,138.2v-17.8h2.3v4.9l-0.2-0.8c0.5-1.4,1.3-2.4,2.5-3.1c1.2-0.7,2.6-1.1,4.4-1.1v2.3c-0.1,0-0.2,0-0.3,0
				s-0.2,0-0.3,0c-1.9,0-3.4,0.6-4.4,1.7s-1.6,2.8-1.6,4.9v9.1h-2.4V138.2z"/>
			<path d="M1955.6,120.2c1.5,0,2.7,0.3,3.8,0.8c1.1,0.6,2,1.4,2.6,2.5s0.9,2.6,0.9,4.3v10.4h-2.4v-10.1c0-1.9-0.5-3.3-1.4-4.3
				s-2.3-1.4-4-1.4c-1.3,0-2.4,0.2-3.3,0.8c-0.9,0.5-1.7,1.2-2.2,2.2s-0.8,2.1-0.8,3.5v9.4h-2.4v-17.8h2.3v4.9l-0.4-0.9
				c0.6-1.3,1.5-2.3,2.7-3C1952.4,120.6,1953.9,120.2,1955.6,120.2L1955.6,120.2z"/>
			<path d="M1977.1,138.4c-1.9,0-3.5-0.4-4.9-1.2s-2.5-1.9-3.3-3.2c-0.8-1.3-1.2-2.9-1.2-4.7c0-1.8,0.4-3.3,1.1-4.7s1.8-2.4,3.1-3.2
				c1.3-0.8,2.8-1.2,4.5-1.2c1.7,0,3.2,0.4,4.5,1.1c1.3,0.7,2.3,1.8,3.1,3.2c0.8,1.4,1.1,2.9,1.1,4.7c0,0.1,0,0.2,0,0.4
				c0,0.1,0,0.2,0,0.4h-15.5v-1.8h14.2l-1,0.7c0-1.3-0.3-2.4-0.8-3.4s-1.3-1.8-2.3-2.4s-2-0.8-3.3-0.8c-1.3,0-2.3,0.3-3.3,0.8
				s-1.7,1.4-2.3,2.4c-0.5,1-0.8,2.2-0.8,3.5v0.4c0,1.4,0.3,2.6,0.9,3.6c0.6,1,1.4,1.8,2.5,2.4c1.1,0.6,2.3,0.9,3.7,0.9
				c1.1,0,2.1-0.2,3-0.6c0.9-0.4,1.8-1,2.4-1.8l1.4,1.6c-0.8,0.9-1.8,1.7-3,2.2C1979.7,138.2,1978.5,138.4,1977.1,138.4
				L1977.1,138.4z"/>
			<path d="M1987.2,122.4v-2h11.1v2H1987.2z M1995.7,138.4c-1.7,0-3-0.4-3.9-1.4s-1.4-2.2-1.4-3.8v-16.8h2.4V133
				c0,1,0.3,1.9,0.8,2.4c0.5,0.6,1.3,0.9,2.3,0.9c1.1,0,1.9-0.3,2.7-0.9l0.8,1.7c-0.5,0.4-1.1,0.8-1.7,0.9
				C1997,138.3,1996.4,138.4,1995.7,138.4L1995.7,138.4z"/>
		</g>
	</g>
	<g>
		<path d="M928.3,189.2c-1.4,0-2.7-0.2-4-0.7s-2.3-1-3-1.8l0.8-1.5c0.7,0.6,1.5,1.2,2.7,1.6c1.1,0.4,2.3,0.7,3.5,0.7
			s2.1-0.1,2.9-0.4c0.7-0.3,1.3-0.7,1.6-1.2s0.5-1.1,0.5-1.7c0-0.7-0.2-1.3-0.6-1.8s-1-0.8-1.7-1.1c-0.7-0.3-1.4-0.5-2.3-0.7
			c-0.8-0.2-1.7-0.4-2.5-0.6s-1.6-0.5-2.3-0.9s-1.2-0.9-1.7-1.5s-0.6-1.4-0.6-2.4c0-0.9,0.2-1.8,0.7-2.6s1.2-1.4,2.3-1.9
			s2.3-0.7,3.9-0.7c1.1,0,2.1,0.1,3.1,0.4s1.9,0.7,2.7,1.2l-0.7,1.6c-0.8-0.5-1.7-0.9-2.6-1.2s-1.8-0.4-2.6-0.4
			c-1.1,0-2.1,0.1-2.8,0.5s-1.3,0.7-1.6,1.2s-0.5,1.1-0.5,1.7c0,0.7,0.2,1.3,0.6,1.8c0.4,0.5,1,0.8,1.7,1s1.5,0.5,2.3,0.7
			s1.6,0.4,2.5,0.6c0.8,0.2,1.6,0.5,2.3,0.9s1.2,0.9,1.7,1.5c0.4,0.6,0.6,1.4,0.6,2.4c0,0.9-0.2,1.8-0.8,2.5s-1.3,1.4-2.3,1.9
			C931.2,188.9,929.9,189.2,928.3,189.2L928.3,189.2z"/>
		<path d="M943.9,189l-6.3-18.8h2l5.9,17.7h-1l6.1-17.7h1.8l6,17.7h-1l6-17.7h1.9L959,189h-2.1l-5.8-16.8h0.5l-5.8,16.8H943.9
			L943.9,189z"/>
		<path d="M969.1,189v-18.8h2V189H969.1z"/>
		<path d="M980.9,189v-17.1h-6.7v-1.7h15.2v1.7h-6.6V189H980.9L980.9,189z"/>
		<path d="M1000.5,189.2c-1.4,0-2.7-0.2-3.9-0.7s-2.2-1.1-3.1-2s-1.6-1.9-2-3c-0.5-1.2-0.7-2.4-0.7-3.8s0.2-2.6,0.7-3.8
			s1.2-2.2,2.1-3c0.9-0.9,1.9-1.5,3.1-2s2.5-0.7,3.9-0.7s2.6,0.2,3.8,0.7s2.2,1.1,3,2.1l-1.3,1.3c-0.8-0.8-1.6-1.4-2.5-1.7
			s-1.9-0.5-3-0.5s-2.2,0.2-3.1,0.6c-1,0.4-1.8,0.9-2.5,1.6s-1.3,1.5-1.7,2.5c-0.4,0.9-0.6,2-0.6,3.1s0.2,2.2,0.6,3.1
			c0.4,0.9,1,1.8,1.7,2.5s1.6,1.2,2.5,1.6c1,0.4,2,0.6,3.1,0.6s2.1-0.2,3-0.5c0.9-0.4,1.8-0.9,2.5-1.7l1.3,1.3
			c-0.8,0.9-1.8,1.6-3,2.1C1003.2,189,1001.9,189.2,1000.5,189.2L1000.5,189.2z"/>
		<path d="M1013.7,189h-2v-18.8h2V189z M1025.6,180.3h-12.2v-1.8h12.2V180.3z M1025.4,170.2h2V189h-2V170.2z"/>
		<path d="M922.3,209.1c-0.5-0.9-0.9-1.9-1.2-3c-0.3-1.1-0.4-2.4-0.4-3.7s0.1-2.6,0.4-3.7s0.7-2.2,1.2-3h1c-0.6,1-1,2-1.2,3.1
			s-0.4,2.3-0.4,3.6s0.1,2.5,0.4,3.6s0.7,2.2,1.2,3.1H922.3z"/>
		<path d="M927.3,206.4c-0.6,0-1.2-0.1-1.8-0.3s-1-0.4-1.3-0.7l0.5-0.8c0.3,0.2,0.7,0.4,1.2,0.6s1,0.2,1.5,0.2
			c0.7,0,1.2-0.1,1.5-0.3c0.3-0.2,0.5-0.5,0.5-0.9c0-0.3-0.1-0.5-0.3-0.7s-0.4-0.3-0.7-0.4s-0.6-0.1-1-0.2s-0.7-0.1-1.1-0.2
			s-0.7-0.2-1-0.3c-0.3-0.1-0.5-0.4-0.7-0.6s-0.3-0.6-0.3-1s0.1-0.8,0.3-1.1s0.6-0.6,1-0.8s1-0.3,1.6-0.3c0.5,0,1,0.1,1.5,0.2
			s0.9,0.3,1.2,0.5l-0.5,0.8c-0.3-0.2-0.7-0.4-1.1-0.5s-0.8-0.1-1.2-0.1c-0.7,0-1.2,0.1-1.5,0.4s-0.5,0.5-0.5,0.9
			c0,0.3,0.1,0.5,0.3,0.7s0.4,0.3,0.7,0.4s0.6,0.2,1,0.2c0.3,0.1,0.7,0.1,1,0.2s0.7,0.2,1,0.3c0.3,0.1,0.5,0.3,0.7,0.6
			s0.3,0.6,0.3,1s-0.1,0.8-0.4,1.1s-0.6,0.6-1.1,0.8C928.5,206.3,928,206.3,927.3,206.4L927.3,206.4z"/>
		<path d="M935.4,206.4c-0.6,0-1.2-0.1-1.7-0.4s-0.8-0.6-1.1-1.1s-0.4-1.1-0.4-1.8v-4.4h1v4.3c0,0.8,0.2,1.4,0.6,1.8s1,0.6,1.7,0.6
			c0.5,0,1-0.1,1.4-0.3s0.7-0.5,0.9-0.9s0.3-0.9,0.3-1.5v-4h1v7.6h-1v-2.1l0.2,0.4c-0.2,0.6-0.6,1-1.1,1.3
			C936.7,206.2,936.1,206.4,935.4,206.4L935.4,206.4z"/>
		<path d="M942,209.1v-10.4h1v2.3l-0.1,1.5l0.1,1.5v5h-1V209.1z M945.9,206.4c-0.7,0-1.2-0.1-1.8-0.5c-0.5-0.3-1-0.7-1.3-1.3
			s-0.5-1.3-0.5-2.1s0.2-1.5,0.5-2.1s0.7-1,1.2-1.3s1.1-0.5,1.8-0.5s1.4,0.2,1.9,0.5s1,0.8,1.3,1.4s0.5,1.2,0.5,2s-0.2,1.4-0.5,2
			s-0.8,1-1.3,1.4C947.3,206.2,946.6,206.4,945.9,206.4L945.9,206.4z M945.8,205.5c0.5,0,1-0.1,1.4-0.4c0.4-0.2,0.8-0.6,1-1
			s0.4-1,0.4-1.5s-0.1-1.1-0.4-1.5s-0.6-0.8-1-1s-0.9-0.4-1.4-0.4s-1,0.1-1.5,0.4c-0.4,0.2-0.8,0.6-1,1s-0.4,1-0.4,1.5
			s0.1,1.1,0.4,1.5s0.6,0.8,1,1S945.3,205.5,945.8,205.5z"/>
		<path d="M951.7,209.1v-10.4h1v2.3l-0.1,1.5l0.1,1.5v5h-1V209.1z M955.7,206.4c-0.7,0-1.2-0.1-1.8-0.5c-0.5-0.3-1-0.7-1.3-1.3
			s-0.5-1.3-0.5-2.1s0.2-1.5,0.5-2.1s0.7-1,1.2-1.3s1.1-0.5,1.8-0.5s1.4,0.2,1.9,0.5s1,0.8,1.3,1.4s0.5,1.2,0.5,2s-0.2,1.4-0.5,2
			s-0.8,1-1.3,1.4C957,206.2,956.4,206.4,955.7,206.4L955.7,206.4z M955.6,205.5c0.5,0,1-0.1,1.4-0.4c0.4-0.2,0.8-0.6,1-1
			s0.4-1,0.4-1.5s-0.1-1.1-0.4-1.5s-0.6-0.8-1-1s-0.9-0.4-1.4-0.4s-1,0.1-1.5,0.4c-0.4,0.2-0.8,0.6-1,1s-0.4,1-0.4,1.5
			s0.1,1.1,0.4,1.5s0.6,0.8,1,1S955,205.5,955.6,205.5z"/>
		<path d="M964.6,206.4c-0.7,0-1.4-0.2-2-0.5s-1-0.8-1.4-1.4s-0.5-1.2-0.5-2s0.2-1.4,0.5-2s0.8-1,1.4-1.4c0.6-0.3,1.2-0.5,2-0.5
			s1.4,0.2,2,0.5s1,0.8,1.4,1.4c0.3,0.6,0.5,1.2,0.5,2s-0.2,1.4-0.5,2s-0.8,1-1.4,1.4S965.3,206.4,964.6,206.4L964.6,206.4z
			 M964.6,205.5c0.5,0,1-0.1,1.5-0.4c0.4-0.2,0.8-0.6,1-1c0.2-0.5,0.4-1,0.4-1.5s-0.1-1.1-0.4-1.5c-0.2-0.4-0.6-0.8-1-1
			s-0.9-0.4-1.4-0.4s-1,0.1-1.4,0.4s-0.8,0.6-1,1s-0.4,1-0.4,1.5s0.1,1.1,0.4,1.5c0.2,0.5,0.6,0.8,1,1
			C963.6,205.3,964.1,205.5,964.6,205.5z"/>
		<path d="M970.5,206.3v-7.6h1v2.1l-0.1-0.4c0.2-0.6,0.6-1,1.1-1.3s1.1-0.5,1.9-0.5v1h-0.1h-0.1c-0.8,0-1.4,0.2-1.9,0.7
			s-0.7,1.2-0.7,2.1v3.9L970.5,206.3L970.5,206.3z"/>
		<path d="M975.3,199.6v-0.9h4.7v0.9H975.3z M978.9,206.4c-0.7,0-1.3-0.2-1.6-0.6s-0.6-0.9-0.6-1.6v-7.1h1v7c0,0.4,0.1,0.8,0.3,1
			s0.5,0.4,1,0.4s0.8-0.1,1.1-0.4l0.4,0.7c-0.2,0.2-0.4,0.3-0.7,0.4S979.2,206.3,978.9,206.4L978.9,206.4z"/>
		<path d="M989.3,206.4c-0.8,0-1.5-0.1-2.1-0.3s-1-0.6-1.3-1s-0.5-1-0.5-1.5s0.2-1.1,0.5-1.5s0.7-0.7,1.3-0.9s1.3-0.3,2.1-0.3
			s1.5,0.1,2.1,0.3c0.6,0.2,1,0.5,1.3,0.9s0.5,0.9,0.5,1.5s-0.2,1.1-0.5,1.5s-0.8,0.8-1.3,1C990.8,206.3,990.1,206.4,989.3,206.4
			L989.3,206.4z M989.3,201.3c-0.8,0-1.4-0.1-1.9-0.3c-0.5-0.2-0.9-0.5-1.2-0.9s-0.4-0.8-0.4-1.4s0.2-1,0.4-1.4s0.7-0.7,1.2-0.9
			c0.5-0.2,1.2-0.3,1.9-0.3s1.3,0.1,1.9,0.3c0.5,0.2,1,0.5,1.2,0.9c0.3,0.4,0.5,0.9,0.5,1.4s-0.1,1-0.4,1.4s-0.7,0.7-1.2,0.9
			C990.7,201.2,990,201.3,989.3,201.3L989.3,201.3z M989.3,205.5c0.9,0,1.6-0.2,2.1-0.5c0.5-0.4,0.8-0.9,0.8-1.5s-0.2-1.1-0.8-1.5
			c-0.5-0.4-1.2-0.5-2.1-0.5s-1.6,0.2-2.1,0.5c-0.5,0.4-0.8,0.9-0.8,1.5s0.2,1.1,0.8,1.5C987.7,205.3,988.4,205.5,989.3,205.5z
			 M989.3,200.6c0.8,0,1.4-0.2,1.8-0.5s0.7-0.8,0.7-1.3c0-0.6-0.2-1-0.7-1.4s-1.1-0.5-1.8-0.5s-1.4,0.2-1.8,0.5s-0.7,0.8-0.7,1.3
			s0.2,1,0.7,1.3S988.5,200.6,989.3,200.6L989.3,200.6z"/>
		<path d="M998.7,206.4c-0.8,0-1.5-0.2-2.1-0.6s-1.1-1-1.4-1.8c-0.3-0.8-0.5-1.7-0.5-2.8s0.2-2,0.5-2.8s0.8-1.4,1.4-1.8
			c0.6-0.4,1.3-0.6,2.1-0.6s1.5,0.2,2.1,0.6s1.1,1,1.4,1.8c0.3,0.8,0.5,1.7,0.5,2.8s-0.2,2-0.5,2.8s-0.8,1.4-1.4,1.8
			S999.4,206.4,998.7,206.4z M998.7,205.4c0.6,0,1.1-0.2,1.5-0.5s0.8-0.8,1-1.4s0.4-1.4,0.4-2.3s-0.1-1.7-0.4-2.3
			c-0.2-0.6-0.6-1.1-1-1.4s-1-0.5-1.5-0.5s-1.1,0.2-1.5,0.5s-0.8,0.8-1,1.4s-0.4,1.4-0.4,2.3s0.1,1.7,0.4,2.3s0.6,1.1,1,1.4
			S998.1,205.4,998.7,205.4z"/>
		<path d="M1004,206.3v-0.7l4.2-4.1c0.4-0.4,0.7-0.7,0.9-1s0.3-0.5,0.4-0.8s0.1-0.5,0.1-0.7c0-0.6-0.2-1-0.6-1.4s-1-0.5-1.8-0.5
			c-0.6,0-1.1,0.1-1.6,0.3s-0.8,0.5-1.2,0.9l-0.7-0.6c0.4-0.5,0.9-0.8,1.5-1.1s1.3-0.4,2.1-0.4c0.7,0,1.3,0.1,1.8,0.3
			s0.9,0.5,1.2,0.9s0.4,0.9,0.4,1.5c0,0.3,0,0.6-0.1,1c-0.1,0.3-0.2,0.6-0.5,1s-0.6,0.8-1,1.2l-3.8,3.8l-0.3-0.4h6.2v0.9L1004,206.3
			L1004,206.3z"/>
		<path d="M1013.3,206.4c-0.2,0-0.4-0.1-0.5-0.2c-0.2-0.1-0.2-0.3-0.2-0.6s0.1-0.4,0.2-0.6c0.2-0.1,0.3-0.2,0.5-0.2s0.4,0.1,0.5,0.2
			c0.2,0.1,0.2,0.3,0.2,0.6s-0.1,0.4-0.2,0.6C1013.7,206.3,1013.5,206.4,1013.3,206.4z"/>
		<path d="M1017.1,206.3v-9.6l0.5,0.5h-2.8v-0.9h3.4v10.1L1017.1,206.3L1017.1,206.3z"/>
		<path d="M1020.1,206.3l3.2-4.1v0.5l-3-3.9h1.2l2.5,3.2h-0.4l2.5-3.2h1.1l-3.1,4v-0.5l3.2,4.1h-1.2l-2.6-3.5l0.4,0.1l-2.6,3.4
			L1020.1,206.3L1020.1,206.3z"/>
		<path d="M1029.1,209.1h-1c0.6-1,1-2,1.3-3.1c0.3-1.1,0.4-2.3,0.4-3.6s-0.1-2.5-0.4-3.6c-0.3-1.1-0.7-2.2-1.3-3.1h1
			c0.5,0.9,1,1.9,1.2,3c0.2,1.1,0.4,2.4,0.4,3.7s-0.1,2.6-0.4,3.7S1029.6,208.2,1029.1,209.1z"/>
	</g>
	<g>
		<path d="M1354.1,189l7.7-10.4v1.5l-7.2-9.9h2.3l6.1,8.3h-0.9l6.1-8.3h2.2l-7.2,9.8v-1.4l7.7,10.4h-2.3l-6.5-8.8h0.8l-6.5,8.8
			H1354.1z"/>
		<path d="M1373.7,189v-18.8h2v17.1h10.5v1.7L1373.7,189L1373.7,189z"/>
		<path d="M1397.3,189.2c-1.4,0-2.7-0.2-3.9-0.7c-1.2-0.5-2.3-1.1-3.1-2c-0.9-0.9-1.6-1.9-2.1-3s-0.7-2.4-0.7-3.8s0.2-2.6,0.7-3.8
			c0.5-1.2,1.2-2.2,2.1-3c0.9-0.8,1.9-1.5,3.1-2s2.5-0.7,4-0.7s2.7,0.2,3.9,0.7c1.2,0.5,2.2,1.1,3.1,2c0.9,0.9,1.6,1.9,2.1,3
			c0.5,1.2,0.7,2.4,0.7,3.8s-0.2,2.6-0.7,3.8c-0.5,1.2-1.2,2.2-2.1,3c-0.9,0.9-1.9,1.5-3.1,2S1398.7,189.2,1397.3,189.2z
			 M1397.3,187.4c1.1,0,2.2-0.2,3.1-0.6c1-0.4,1.8-0.9,2.5-1.6c0.7-0.7,1.3-1.5,1.7-2.5s0.6-2,0.6-3.1s-0.2-2.2-0.6-3.1
			c-0.4-0.9-0.9-1.8-1.7-2.5c-0.8-0.7-1.5-1.2-2.5-1.6s-2-0.6-3.1-0.6s-2.2,0.2-3.1,0.6c-0.9,0.4-1.8,0.9-2.5,1.6
			c-0.7,0.7-1.3,1.5-1.7,2.5c-0.4,0.9-0.6,2-0.6,3.1s0.2,2.1,0.6,3.1c0.4,1,1,1.8,1.7,2.5c0.7,0.7,1.5,1.2,2.5,1.6
			S1396.2,187.4,1397.3,187.4L1397.3,187.4z"/>
		<path d="M1419.9,189.2c-1.4,0-2.8-0.2-4-0.7c-1.2-0.5-2.3-1.1-3.1-2c-0.9-0.9-1.6-1.9-2.1-3c-0.5-1.2-0.7-2.4-0.7-3.8
			s0.2-2.6,0.7-3.8s1.2-2.2,2.1-3c0.9-0.9,2-1.5,3.2-2c1.2-0.5,2.5-0.7,4-0.7s2.7,0.2,3.9,0.7c1.2,0.5,2.2,1.1,3,2l-1.2,1.3
			c-0.8-0.8-1.7-1.4-2.6-1.7c-0.9-0.3-2-0.5-3.1-0.5c-1.2,0-2.2,0.2-3.2,0.6s-1.8,0.9-2.5,1.6c-0.7,0.7-1.3,1.5-1.7,2.5
			s-0.6,2-0.6,3.1s0.2,2.1,0.6,3.1c0.4,1,1,1.8,1.7,2.5c0.7,0.7,1.6,1.2,2.5,1.6c1,0.4,2,0.6,3.2,0.6c1.1,0,2.1-0.2,3-0.5
			s1.8-0.9,2.7-1.6l1.1,1.5c-0.9,0.8-1.9,1.4-3.1,1.8S1421.2,189.2,1419.9,189.2L1419.9,189.2z M1424.9,186.6v-6.9h1.9v7.2
			L1424.9,186.6L1424.9,186.6z"/>
		<path d="M1321.4,209.1c-0.5-0.9-0.9-1.9-1.2-3c-0.3-1.1-0.4-2.4-0.4-3.7s0.2-2.6,0.4-3.7c0.2-1.1,0.7-2.2,1.2-3h1
			c-0.6,1-1,2-1.2,3.1c-0.2,1.1-0.4,2.3-0.4,3.6s0.1,2.5,0.4,3.6s0.7,2.2,1.2,3.1H1321.4z"/>
		<path d="M1327.6,206.4c-0.8,0-1.5-0.1-2.1-0.3s-1-0.6-1.3-1c-0.3-0.4-0.5-1-0.5-1.5s0.2-1.1,0.5-1.5c0.3-0.4,0.7-0.7,1.3-0.9
			s1.3-0.3,2.1-0.3c0.8,0,1.5,0.1,2.1,0.3c0.6,0.2,1,0.5,1.3,0.9c0.3,0.4,0.5,0.9,0.5,1.5s-0.2,1.1-0.5,1.5c-0.3,0.4-0.8,0.8-1.3,1
			C1329.1,206.3,1328.4,206.4,1327.6,206.4L1327.6,206.4z M1327.6,201.3c-0.8,0-1.4-0.1-1.9-0.3c-0.5-0.2-0.9-0.5-1.2-0.9
			c-0.3-0.4-0.4-0.8-0.4-1.4s0.2-1,0.4-1.4c0.2-0.4,0.7-0.7,1.2-0.9c0.5-0.2,1.2-0.3,1.9-0.3c0.7,0,1.3,0.1,1.9,0.3
			c0.5,0.2,1,0.5,1.2,0.9c0.3,0.4,0.5,0.9,0.5,1.4s-0.1,1-0.4,1.4s-0.7,0.7-1.2,0.9C1329,201.2,1328.3,201.3,1327.6,201.3
			L1327.6,201.3z M1327.6,205.5c0.9,0,1.6-0.2,2.1-0.5c0.5-0.4,0.8-0.9,0.8-1.5s-0.2-1.1-0.8-1.5c-0.5-0.4-1.2-0.5-2.1-0.5
			c-0.9,0-1.6,0.2-2.1,0.5c-0.5,0.4-0.8,0.9-0.8,1.5s0.2,1.1,0.8,1.5C1326,205.3,1326.7,205.5,1327.6,205.5z M1327.6,200.6
			c0.8,0,1.4-0.2,1.8-0.5c0.4-0.3,0.7-0.8,0.7-1.3c0-0.6-0.2-1-0.7-1.4s-1.1-0.5-1.8-0.5c-0.7,0-1.4,0.2-1.8,0.5
			c-0.4,0.3-0.7,0.8-0.7,1.3s0.2,1,0.7,1.3S1326.8,200.6,1327.6,200.6L1327.6,200.6z"/>
		<path d="M1337,206.4c-0.8,0-1.5-0.2-2.1-0.6s-1.1-1-1.4-1.8c-0.3-0.8-0.5-1.7-0.5-2.8s0.2-2,0.5-2.8c0.3-0.8,0.8-1.4,1.4-1.8
			s1.3-0.6,2.1-0.6c0.8,0,1.5,0.2,2.1,0.6s1.1,1,1.4,1.8s0.5,1.7,0.5,2.8s-0.2,2-0.5,2.8c-0.3,0.8-0.8,1.4-1.4,1.8
			C1338.5,206.2,1337.7,206.4,1337,206.4z M1337,205.4c0.6,0,1.1-0.2,1.5-0.5s0.8-0.8,1-1.4c0.2-0.6,0.4-1.4,0.4-2.3
			s-0.1-1.7-0.4-2.3c-0.2-0.6-0.6-1.1-1-1.4s-1-0.5-1.5-0.5s-1.1,0.2-1.5,0.5s-0.8,0.8-1,1.4c-0.2,0.6-0.4,1.4-0.4,2.3
			s0.1,1.7,0.4,2.3s0.6,1.1,1,1.4S1336.4,205.4,1337,205.4z"/>
		<path d="M1342.3,206.3v-0.7l4.2-4.1c0.4-0.4,0.7-0.7,0.9-1c0.2-0.3,0.3-0.5,0.4-0.8c0.1-0.3,0.1-0.5,0.1-0.7c0-0.6-0.2-1-0.6-1.4
			c-0.4-0.4-1-0.5-1.8-0.5c-0.6,0-1.1,0.1-1.6,0.3s-0.8,0.5-1.2,0.9l-0.7-0.6c0.4-0.5,0.9-0.8,1.5-1.1s1.3-0.4,2.1-0.4
			c0.7,0,1.3,0.1,1.8,0.3s0.9,0.5,1.2,0.9c0.3,0.4,0.4,0.9,0.4,1.5c0,0.3,0,0.6-0.1,1c-0.1,0.3-0.2,0.6-0.5,1
			c-0.3,0.4-0.6,0.8-1,1.2l-3.8,3.8l-0.3-0.4h6.2v0.9L1342.3,206.3L1342.3,206.3z"/>
		<path d="M1351.6,206.4c-0.2,0-0.4-0.1-0.5-0.2c-0.2-0.1-0.2-0.3-0.2-0.6s0.1-0.4,0.2-0.6c0.2-0.1,0.3-0.2,0.5-0.2
			c0.2,0,0.4,0.1,0.5,0.2c0.2,0.1,0.2,0.3,0.2,0.6s-0.1,0.4-0.2,0.6C1351.9,206.3,1351.8,206.4,1351.6,206.4z"/>
		<path d="M1355.4,206.3v-9.6l0.5,0.5h-2.8v-0.9h3.4v10.1L1355.4,206.3L1355.4,206.3z"/>
		<path d="M1358.4,206.3l3.2-4.1v0.5l-3-3.9h1.2l2.5,3.2h-0.4l2.5-3.2h1.1l-3.1,4v-0.5l3.2,4.1h-1.2l-2.6-3.5l0.4,0.1l-2.6,3.4
			L1358.4,206.3L1358.4,206.3z"/>
		<path d="M1371,206.3v-7.6h1v2.1l-0.1-0.4c0.2-0.6,0.6-1,1.1-1.3s1.1-0.5,1.9-0.5v1h-0.1h-0.1c-0.8,0-1.4,0.2-1.9,0.7
			s-0.7,1.2-0.7,2.1v3.9L1371,206.3L1371,206.3z"/>
		<path d="M1378.2,206.4c-0.6,0-1.1-0.1-1.5-0.3s-0.7-0.5-1-0.8c-0.3-0.3-0.3-0.7-0.3-1.1s0.1-0.8,0.3-1.1c0.2-0.3,0.5-0.6,0.9-0.8
			s1-0.3,1.7-0.3h2.6v0.8h-2.6c-0.7,0-1.2,0.1-1.5,0.4c-0.3,0.3-0.4,0.6-0.4,1s0.2,0.8,0.5,1c0.3,0.3,0.8,0.4,1.4,0.4
			c0.6,0,1.1-0.1,1.5-0.4s0.7-0.6,0.9-1.1l0.2,0.7c-0.2,0.5-0.5,0.9-1,1.2C1379.5,206.2,1378.9,206.4,1378.2,206.4L1378.2,206.4z
			 M1380.8,206.3v-1.7v-0.3v-2.8c0-0.6-0.2-1.1-0.5-1.5c-0.3-0.4-0.9-0.5-1.6-0.5c-0.5,0-1,0.1-1.4,0.2c-0.4,0.2-0.8,0.4-1.1,0.6
			l-0.5-0.8c0.4-0.3,0.8-0.6,1.4-0.8c0.6-0.2,1.1-0.3,1.7-0.3c1,0,1.7,0.2,2.3,0.7c0.5,0.5,0.8,1.2,0.8,2.2v4.7L1380.8,206.3
			L1380.8,206.3z"/>
		<path d="M1387.6,206.4c-0.7,0-1.4-0.2-1.9-0.5s-1-0.8-1.3-1.4c-0.3-0.6-0.5-1.2-0.5-2s0.2-1.4,0.5-2c0.3-0.6,0.8-1,1.3-1.4
			c0.6-0.3,1.2-0.5,1.9-0.5c0.7,0,1.2,0.1,1.8,0.5c0.5,0.3,0.9,0.7,1.2,1.3c0.3,0.6,0.5,1.3,0.5,2.1s-0.2,1.5-0.5,2.1
			c-0.3,0.6-0.7,1-1.2,1.3S1388.3,206.4,1387.6,206.4z M1387.7,205.5c0.5,0,1-0.1,1.5-0.4c0.4-0.2,0.8-0.6,1-1
			c0.2-0.4,0.4-1,0.4-1.5s-0.1-1.1-0.4-1.5c-0.2-0.4-0.6-0.8-1-1s-0.9-0.4-1.5-0.4s-1,0.1-1.4,0.4c-0.4,0.2-0.8,0.6-1,1
			c-0.2,0.4-0.4,1-0.4,1.5s0.1,1.1,0.4,1.5c0.2,0.5,0.6,0.8,1,1C1386.7,205.3,1387.1,205.5,1387.7,205.5z M1390.5,206.3V204l0.1-1.5
			l-0.1-1.5v-5.4h1v10.7L1390.5,206.3L1390.5,206.3z"/>
		<path d="M1394.9,197.2c-0.2,0-0.4-0.1-0.5-0.2s-0.2-0.3-0.2-0.5s0.1-0.4,0.2-0.5c0.1-0.1,0.3-0.2,0.5-0.2c0.2,0,0.3,0.1,0.5,0.2
			c0.1,0.1,0.2,0.3,0.2,0.5s-0.1,0.4-0.2,0.5C1395.3,197.1,1395,197.2,1394.9,197.2z M1394.3,206.3v-7.6h1v7.6H1394.3z"/>
		<path d="M1401.3,206.4c-0.6,0-1.2-0.1-1.7-0.4s-0.8-0.6-1.1-1.1c-0.3-0.5-0.4-1.1-0.4-1.8v-4.4h1v4.3c0,0.8,0.2,1.4,0.6,1.8
			c0.4,0.4,1,0.6,1.7,0.6c0.5,0,1-0.1,1.4-0.3s0.7-0.5,0.9-0.9c0.2-0.4,0.3-0.9,0.3-1.5v-4h1v7.6h-1v-2.1l0.2,0.4
			c-0.2,0.6-0.6,1-1.1,1.3S1402,206.4,1401.3,206.4L1401.3,206.4z"/>
		<path d="M1409.9,206.4c-0.6,0-1.2-0.1-1.8-0.3s-1-0.4-1.3-0.7l0.5-0.8c0.3,0.2,0.7,0.4,1.2,0.6s1,0.2,1.5,0.2
			c0.7,0,1.2-0.1,1.5-0.3c0.3-0.2,0.5-0.5,0.5-0.9c0-0.3-0.1-0.5-0.3-0.7c-0.2-0.2-0.4-0.3-0.7-0.4c-0.3-0.1-0.6-0.1-1-0.2
			s-0.7-0.1-1.1-0.2c-0.4-0.1-0.7-0.2-1-0.3c-0.3-0.1-0.5-0.4-0.7-0.6c-0.2-0.2-0.3-0.6-0.3-1s0.1-0.8,0.3-1.1
			c0.2-0.3,0.6-0.6,1-0.8s1-0.3,1.6-0.3c0.5,0,1,0.1,1.5,0.2s0.9,0.3,1.2,0.5l-0.5,0.8c-0.3-0.2-0.7-0.4-1.1-0.5
			c-0.4-0.1-0.8-0.1-1.2-0.1c-0.7,0-1.2,0.1-1.5,0.4c-0.3,0.3-0.5,0.5-0.5,0.9c0,0.3,0.1,0.5,0.3,0.7c0.2,0.2,0.4,0.3,0.7,0.4
			c0.3,0.1,0.6,0.2,1,0.2c0.3,0.1,0.7,0.1,1,0.2c0.3,0.1,0.7,0.2,1,0.3c0.3,0.1,0.5,0.3,0.7,0.6c0.2,0.3,0.3,0.6,0.3,1
			s-0.1,0.8-0.4,1.1s-0.6,0.6-1.1,0.8C1411.1,206.3,1410.6,206.3,1409.9,206.4L1409.9,206.4z"/>
		<path d="M1420.7,206.4c-0.6,0-1.2-0.1-1.8-0.3s-1-0.4-1.3-0.7l0.5-0.8c0.3,0.2,0.7,0.4,1.2,0.6s1,0.2,1.5,0.2
			c0.7,0,1.2-0.1,1.5-0.3c0.3-0.2,0.5-0.5,0.5-0.9c0-0.3-0.1-0.5-0.3-0.7c-0.2-0.2-0.4-0.3-0.7-0.4c-0.3-0.1-0.6-0.1-1-0.2
			s-0.7-0.1-1.1-0.2c-0.4-0.1-0.7-0.2-1-0.3c-0.3-0.1-0.5-0.4-0.7-0.6c-0.2-0.2-0.3-0.6-0.3-1s0.1-0.8,0.3-1.1
			c0.2-0.3,0.6-0.6,1-0.8s1-0.3,1.6-0.3c0.5,0,1,0.1,1.5,0.2s0.9,0.3,1.2,0.5l-0.5,0.8c-0.3-0.2-0.7-0.4-1.1-0.5
			c-0.4-0.1-0.8-0.1-1.2-0.1c-0.7,0-1.2,0.1-1.5,0.4c-0.3,0.3-0.5,0.5-0.5,0.9c0,0.3,0.1,0.5,0.3,0.7c0.2,0.2,0.4,0.3,0.7,0.4
			c0.3,0.1,0.6,0.2,1,0.2c0.3,0.1,0.7,0.1,1,0.2c0.3,0.1,0.7,0.2,1,0.3c0.3,0.1,0.5,0.3,0.7,0.6c0.2,0.3,0.3,0.6,0.3,1
			s-0.1,0.8-0.4,1.1s-0.6,0.6-1.1,0.8C1421.9,206.3,1421.4,206.3,1420.7,206.4L1420.7,206.4z"/>
		<path d="M1428.9,206.4c-0.8,0-1.5-0.2-2.1-0.5s-1.1-0.8-1.4-1.4s-0.5-1.2-0.5-2s0.2-1.4,0.5-2c0.3-0.6,0.8-1,1.3-1.4
			s1.2-0.5,1.9-0.5c0.7,0,1.3,0.2,1.9,0.5c0.6,0.3,1,0.8,1.3,1.4c0.3,0.6,0.5,1.2,0.5,2v0.1c0,0,0,0.1,0,0.2h-6.6V202h6l-0.4,0.3
			c0-0.5-0.1-1-0.3-1.5c-0.2-0.4-0.5-0.8-1-1c-0.4-0.2-0.9-0.4-1.4-0.4s-1,0.1-1.4,0.4c-0.4,0.2-0.7,0.6-1,1
			c-0.3,0.4-0.3,0.9-0.3,1.5v0.2c0,0.6,0.1,1.1,0.4,1.5s0.6,0.8,1.1,1s1,0.4,1.6,0.4c0.5,0,0.9-0.1,1.3-0.2c0.4-0.2,0.7-0.4,1-0.8
			l0.6,0.7c-0.3,0.4-0.8,0.7-1.3,0.9C1430.1,206.3,1429.5,206.4,1428.9,206.4L1428.9,206.4z"/>
		<path d="M1434.4,206.3v-7.6h1v2.1l-0.1-0.4c0.2-0.6,0.6-1,1.1-1.3s1.1-0.5,1.9-0.5v1h-0.1h-0.1c-0.8,0-1.4,0.2-1.9,0.7
			c-0.4,0.5-0.7,1.2-0.7,2.1v3.9L1434.4,206.3L1434.4,206.3z"/>
		<path d="M1442.3,206.3l-3.3-7.6h1.1l3.1,7h-0.5l3.1-7h1l-3.4,7.6H1442.3L1442.3,206.3z"/>
		<path d="M1451.2,206.4c-0.8,0-1.5-0.2-2.1-0.5s-1.1-0.8-1.4-1.4s-0.5-1.2-0.5-2s0.2-1.4,0.5-2s0.8-1,1.3-1.4s1.2-0.5,1.9-0.5
			s1.3,0.2,1.9,0.5s1,0.8,1.3,1.4s0.5,1.2,0.5,2v0.1c0,0,0,0.1,0,0.2h-6.6V202h6l-0.4,0.3c0-0.5-0.1-1-0.3-1.5c-0.2-0.4-0.6-0.8-1-1
			s-0.9-0.4-1.4-0.4s-1,0.1-1.4,0.4c-0.4,0.2-0.7,0.6-1,1s-0.3,0.9-0.3,1.5v0.2c0,0.6,0.1,1.1,0.4,1.5s0.6,0.8,1.1,1s1,0.4,1.6,0.4
			c0.5,0,0.9-0.1,1.3-0.2c0.4-0.2,0.7-0.4,1-0.8l0.6,0.7c-0.3,0.4-0.8,0.7-1.3,0.9C1452.3,206.3,1451.8,206.4,1451.2,206.4
			L1451.2,206.4z"/>
		<path d="M1456.7,206.3v-7.6h1v2.1l-0.1-0.4c0.2-0.6,0.6-1,1.1-1.3s1.1-0.5,1.9-0.5v1h-0.1h-0.1c-0.8,0-1.4,0.2-1.9,0.7
			c-0.4,0.5-0.7,1.2-0.7,2.1v3.9L1456.7,206.3L1456.7,206.3z"/>
		<path d="M1462.4,209.1h-1c0.6-1,1-2,1.3-3.1s0.4-2.3,0.4-3.6s-0.1-2.5-0.4-3.6s-0.7-2.2-1.3-3.1h1c0.6,0.9,1,1.9,1.2,3
			s0.4,2.4,0.4,3.7s-0.1,2.6-0.4,3.7S1463,208.2,1462.4,209.1z"/>
	</g>
	<g>
		<line class="st0" x1="852.2" y1="127.5" x2="601.2" y2="127.5"/>
		<path class="st1" d="M853.7,120.8l6.6,6.1c0.3,0.3,0.3,0.8,0,1.1l-6.6,6.1c-0.5,0.5-1.4,0.1-1.4-0.5v-12.3
			C852.2,120.7,853.1,120.3,853.7,120.8L853.7,120.8z"/>
	</g>
	<g>
		<path class="st29" d="M617,98.7v-15h1.6v13.7h8.4v1.4h-10V98.7z"/>
		<path class="st29" d="M633.7,98.9c-1.1,0-2.1-0.2-2.9-0.7s-1.6-1.2-2.1-2s-0.8-1.9-0.8-3s0.2-2.1,0.8-3c0.5-0.9,1.2-1.5,2-2
			s1.8-0.7,2.9-0.7c1.1,0,2.1,0.2,3,0.7c0.9,0.5,1.5,1.2,2,2c0.5,0.9,0.7,1.9,0.7,3s-0.2,2.1-0.7,3s-1.2,1.5-2.1,2
			S634.8,98.9,633.7,98.9L633.7,98.9z M633.7,97.5c0.8,0,1.5-0.2,2.2-0.5s1.1-0.9,1.5-1.5c0.4-0.6,0.6-1.4,0.6-2.3s-0.2-1.7-0.6-2.3
			s-0.9-1.2-1.5-1.5c-0.6-0.3-1.3-0.5-2.1-0.5c-0.8,0-1.5,0.2-2.1,0.5c-0.6,0.4-1.1,0.9-1.5,1.5c-0.4,0.7-0.6,1.4-0.6,2.3
			s0.2,1.6,0.6,2.3c0.4,0.7,0.9,1.2,1.5,1.5C632.3,97.3,633,97.5,633.7,97.5L633.7,97.5z"/>
		<path class="st29" d="M642.6,98.7V82.8h1.5v15.9H642.6z M643.8,95.8v-2l7-6.4h1.9l-4.9,4.7l-0.9,0.7L643.8,95.8L643.8,95.8z
			 M651.3,98.7l-4.7-5.9l1-1.2l5.6,7h-1.9V98.7z"/>
		<path class="st29" d="M658.4,98.9c-0.8,0-1.6-0.1-2.2-0.4s-1.1-0.7-1.4-1.2c-0.3-0.5-0.5-1.1-0.5-1.7s0.1-1.1,0.4-1.6
			s0.7-0.9,1.4-1.2c0.6-0.3,1.5-0.4,2.6-0.4h3.9v1.1h-3.8c-1.1,0-1.8,0.2-2.3,0.6c-0.4,0.4-0.6,0.9-0.6,1.4c0,0.6,0.2,1.2,0.8,1.5
			c0.5,0.4,1.2,0.6,2.1,0.6c0.9,0,1.6-0.2,2.2-0.6c0.6-0.4,1.1-1,1.4-1.7l0.3,1c-0.3,0.7-0.8,1.3-1.5,1.8S659.5,98.8,658.4,98.9
			L658.4,98.9z M662.3,98.7v-2.5l-0.1-0.4v-4.2c0-1-0.3-1.7-0.8-2.2s-1.3-0.8-2.4-0.8c-0.7,0-1.4,0.1-2.1,0.4s-1.2,0.6-1.7,1
			l-0.7-1.1c0.6-0.5,1.3-0.9,2.1-1.1s1.6-0.4,2.5-0.4c1.5,0,2.6,0.4,3.4,1.1c0.8,0.7,1.2,1.8,1.2,3.3v7L662.3,98.7L662.3,98.7z"/>
		<path class="st29" d="M667.9,98.7V82.8h1.5v15.9H667.9z"/>
		<path class="st29" d="M682.4,98.9c-0.8,0-1.6-0.1-2.2-0.4c-0.6-0.3-1.1-0.7-1.4-1.2s-0.5-1.1-0.5-1.7s0.1-1.1,0.4-1.6
			s0.7-0.9,1.4-1.2c0.6-0.3,1.5-0.4,2.6-0.4h3.9v1.1h-3.8c-1.1,0-1.8,0.2-2.3,0.6c-0.4,0.4-0.6,0.9-0.6,1.4c0,0.6,0.2,1.2,0.8,1.5
			c0.5,0.4,1.2,0.6,2.1,0.6c0.9,0,1.6-0.2,2.2-0.6c0.6-0.4,1.1-1,1.4-1.7l0.3,1c-0.3,0.7-0.8,1.3-1.5,1.8S683.5,98.8,682.4,98.9
			L682.4,98.9z M686.3,98.7v-2.5l-0.1-0.4v-4.2c0-1-0.3-1.7-0.8-2.2s-1.3-0.8-2.4-0.8c-0.7,0-1.4,0.1-2.1,0.4
			c-0.7,0.2-1.2,0.6-1.7,1l-0.7-1.1c0.6-0.5,1.3-0.9,2.1-1.1c0.8-0.2,1.6-0.4,2.5-0.4c1.5,0,2.6,0.4,3.4,1.1s1.2,1.8,1.2,3.3v7
			L686.3,98.7L686.3,98.7z"/>
		<path class="st29" d="M696.4,98.3c-1.1,0-2-0.2-2.9-0.7c-0.9-0.5-1.5-1.1-2-1.9s-0.7-1.8-0.7-2.9s0.2-2,0.7-2.8s1.2-1.5,2-1.9
			s1.8-0.7,2.9-0.7c1,0,1.9,0.2,2.7,0.6s1.4,1,1.9,1.8s0.7,1.8,0.7,3s-0.2,2.2-0.7,3s-1.1,1.4-1.9,1.9
			C698.4,98.1,697.4,98.3,696.4,98.3L696.4,98.3z M696.7,103c-1,0-2-0.1-3-0.5c-0.9-0.3-1.7-0.7-2.3-1.3l0.8-1.2
			c0.5,0.5,1.2,0.9,2,1.1s1.6,0.4,2.5,0.4c1.4,0,2.5-0.3,3.1-1c0.7-0.7,1-1.7,1-3.1v-2.8l0.2-1.9l-0.1-1.9v-3.4h1.5v9.9
			c0,1.9-0.5,3.4-1.4,4.3C700,102.6,698.6,103,696.7,103L696.7,103z M696.6,97c0.8,0,1.6-0.2,2.2-0.5c0.6-0.4,1.1-0.8,1.5-1.5
			c0.4-0.7,0.6-1.3,0.6-2.1s-0.2-1.5-0.6-2.1c-0.4-0.6-0.9-1.1-1.5-1.5c-0.6-0.4-1.4-0.5-2.2-0.5c-0.8,0-1.5,0.2-2.2,0.5
			c-0.6,0.4-1.2,0.8-1.5,1.5c-0.4,0.6-0.5,1.3-0.5,2.1s0.2,1.5,0.5,2.1s0.9,1.1,1.5,1.5C695,96.9,695.8,97,696.6,97z M696.8,85.8
			c-0.9,0-1.7-0.2-2.3-0.7s-1-1.2-1-2h1.1c0,0.6,0.2,1,0.7,1.3s0.9,0.5,1.5,0.5c0.6,0,1.1-0.2,1.5-0.5c0.4-0.3,0.6-0.8,0.6-1.3h1.1
			c0,0.9-0.4,1.5-1,2C698.4,85.6,697.7,85.8,696.8,85.8L696.8,85.8z"/>
		<path class="st29" d="M711.1,98.9c-1.1,0-2-0.2-2.9-0.7c-0.9-0.5-1.5-1.2-2-2c-0.5-0.9-0.7-1.9-0.7-3s0.2-2.1,0.7-3s1.1-1.5,2-2
			c0.9-0.5,1.8-0.7,2.9-0.7c1,0,1.9,0.2,2.6,0.7s1.4,1.1,1.9,1.9s0.7,1.9,0.7,3.1s-0.2,2.2-0.7,3.1s-1.1,1.5-1.9,2
			S712.1,98.9,711.1,98.9L711.1,98.9z M711.2,97.5c0.8,0,1.5-0.2,2.1-0.5c0.6-0.3,1.1-0.9,1.5-1.5c0.4-0.6,0.5-1.4,0.5-2.3
			s-0.2-1.7-0.5-2.3s-0.9-1.2-1.5-1.5c-0.6-0.4-1.4-0.5-2.1-0.5s-1.5,0.2-2.1,0.5c-0.6,0.3-1.1,0.9-1.5,1.5
			c-0.4,0.7-0.6,1.4-0.6,2.3s0.2,1.6,0.6,2.3c0.4,0.7,0.9,1.2,1.5,1.5C709.7,97.3,710.4,97.5,711.2,97.5z M715.5,98.7v-3.4l0.1-2.3
			l-0.2-2.3v-8h1.5v15.9L715.5,98.7L715.5,98.7z"/>
		<path class="st29" d="M724.3,98.9c-0.8,0-1.6-0.1-2.2-0.4c-0.6-0.3-1.1-0.7-1.4-1.2s-0.5-1.1-0.5-1.7s0.1-1.1,0.4-1.6
			s0.7-0.9,1.4-1.2c0.6-0.3,1.5-0.4,2.6-0.4h3.9v1.1h-3.8c-1.1,0-1.8,0.2-2.3,0.6c-0.4,0.4-0.6,0.9-0.6,1.4c0,0.6,0.2,1.2,0.8,1.5
			c0.5,0.4,1.2,0.6,2.1,0.6c0.9,0,1.6-0.2,2.2-0.6c0.6-0.4,1.1-1,1.4-1.7l0.3,1c-0.3,0.7-0.8,1.3-1.5,1.8S725.4,98.8,724.3,98.9
			L724.3,98.9z M728.2,98.7v-2.5l-0.1-0.4v-4.2c0-1-0.3-1.7-0.8-2.2s-1.3-0.8-2.4-0.8c-0.7,0-1.4,0.1-2.1,0.4
			c-0.7,0.2-1.2,0.6-1.7,1l-0.7-1.1c0.6-0.5,1.3-0.9,2.1-1.1c0.8-0.2,1.6-0.4,2.5-0.4c1.5,0,2.6,0.4,3.4,1.1s1.2,1.8,1.2,3.3v7
			L728.2,98.7L728.2,98.7z"/>
		<path class="st29" d="M733.8,98.7V82.8h1.5v15.9H733.8z M735,95.8v-2l7-6.4h1.9l-5,4.7l-0.9,0.7L735,95.8L735,95.8z M742.5,98.7
			l-4.7-5.9l1-1.2l5.6,7h-1.9V98.7z"/>
		<path class="st29" d="M747.3,85.2c-0.3,0-0.5-0.1-0.7-0.3s-0.3-0.4-0.3-0.7s0.1-0.5,0.3-0.7s0.4-0.3,0.7-0.3
			c0.3,0,0.5,0.1,0.7,0.3s0.3,0.4,0.3,0.7s-0.1,0.5-0.3,0.7C747.8,85.1,747.6,85.2,747.3,85.2z M746.5,98.8V87.5h1.5v11.3H746.5z"/>
		<path class="st29" d="M762.6,98.9c-1.1,0-2.1-0.2-3-0.7c-0.9-0.5-1.6-1.2-2.1-2s-0.8-1.9-0.8-3s0.2-2.1,0.8-3
			c0.5-0.9,1.2-1.5,2.1-2c0.9-0.5,1.9-0.7,3-0.7c1,0,1.8,0.2,2.6,0.6c0.8,0.4,1.4,0.9,1.8,1.7l-1.1,0.8c-0.4-0.6-0.9-1-1.4-1.3
			c-0.6-0.3-1.2-0.4-1.9-0.4c-0.8,0-1.5,0.2-2.2,0.5c-0.6,0.4-1.1,0.9-1.5,1.5c-0.4,0.7-0.6,1.4-0.6,2.3s0.2,1.7,0.6,2.3
			c0.4,0.6,0.9,1.2,1.5,1.5c0.6,0.3,1.4,0.5,2.2,0.5c0.7,0,1.3-0.1,1.9-0.4c0.6-0.3,1-0.7,1.4-1.2l1.1,0.8c-0.4,0.7-1,1.3-1.8,1.7
			S763.5,98.9,762.6,98.9L762.6,98.9z"/>
		<path class="st29" d="M770.7,85.2c-0.3,0-0.5-0.1-0.7-0.3s-0.3-0.4-0.3-0.7s0.1-0.5,0.3-0.7c0.2-0.2,0.4-0.3,0.7-0.3
			c0.3,0,0.5,0.1,0.7,0.3s0.3,0.4,0.3,0.7s-0.1,0.5-0.3,0.7C771.2,85.1,771,85.2,770.7,85.2z M770,98.8V87.5h1.5v11.3H770z"/>
		<path class="st29" d="M781.5,87.4c0.9,0,1.7,0.2,2.4,0.5c0.7,0.3,1.2,0.9,1.6,1.6c0.4,0.7,0.6,1.6,0.6,2.7v6.5h-1.5v-6.3
			c0-1.2-0.3-2.1-0.9-2.7c-0.6-0.6-1.4-0.9-2.5-0.9c-0.8,0-1.5,0.2-2.1,0.5c-0.6,0.3-1,0.8-1.4,1.4c-0.3,0.6-0.5,1.3-0.5,2.2v5.9
			h-1.5V82.9h1.5v7.7l-0.3-0.6c0.4-0.8,0.9-1.5,1.7-1.9C779.4,87.7,780.4,87.4,781.5,87.4L781.5,87.4z"/>
		<path class="st29" d="M793.4,98.9c-0.8,0-1.6-0.1-2.2-0.4c-0.6-0.3-1.1-0.7-1.4-1.2s-0.5-1.1-0.5-1.7s0.1-1.1,0.4-1.6
			s0.7-0.9,1.4-1.2c0.6-0.3,1.5-0.4,2.6-0.4h3.9v1.1h-3.8c-1.1,0-1.8,0.2-2.3,0.6c-0.4,0.4-0.6,0.9-0.6,1.4c0,0.6,0.2,1.2,0.8,1.5
			c0.5,0.4,1.2,0.6,2.1,0.6c0.9,0,1.6-0.2,2.2-0.6c0.6-0.4,1.1-1,1.4-1.7l0.3,1c-0.3,0.7-0.8,1.3-1.5,1.8S794.5,98.8,793.4,98.9
			L793.4,98.9z M797.3,98.7v-2.5l-0.1-0.4v-4.2c0-1-0.3-1.7-0.8-2.2s-1.3-0.8-2.4-0.8c-0.7,0-1.4,0.1-2.1,0.4
			c-0.7,0.2-1.2,0.6-1.7,1l-0.7-1.1c0.6-0.5,1.3-0.9,2.1-1.1c0.8-0.2,1.6-0.4,2.5-0.4c1.5,0,2.6,0.4,3.4,1.1s1.2,1.8,1.2,3.3v7
			L797.3,98.7L797.3,98.7z"/>
		<path class="st29" d="M801.7,98.7v-1l7.5-9.5l0.3,0.5h-7.7v-1.3h8.9v1l-7.5,9.5l-0.4-0.5h8v1.3H801.7L801.7,98.7z"/>
		<path class="st29" d="M813.8,98.7V82.8h1.5v15.9H813.8z"/>
		<path class="st29" d="M822.8,98.9c-0.8,0-1.6-0.1-2.2-0.4c-0.6-0.3-1.1-0.7-1.4-1.2s-0.5-1.1-0.5-1.7s0.1-1.1,0.4-1.6
			s0.7-0.9,1.4-1.2c0.6-0.3,1.5-0.4,2.6-0.4h3.9v1.1h-3.8c-1.1,0-1.8,0.2-2.3,0.6c-0.4,0.4-0.6,0.9-0.6,1.4c0,0.6,0.2,1.2,0.8,1.5
			c0.5,0.4,1.2,0.6,2.1,0.6c0.9,0,1.6-0.2,2.2-0.6c0.6-0.4,1.1-1,1.4-1.7l0.3,1c-0.3,0.7-0.8,1.3-1.5,1.8S823.8,98.8,822.8,98.9
			L822.8,98.9z M826.7,98.7v-2.5l-0.1-0.4v-4.2c0-1-0.3-1.7-0.8-2.2s-1.3-0.8-2.4-0.8c-0.7,0-1.4,0.1-2.1,0.4
			c-0.7,0.2-1.2,0.6-1.7,1l-0.7-1.1c0.6-0.5,1.3-0.9,2.1-1.1c0.8-0.2,1.6-0.4,2.5-0.4c1.5,0,2.6,0.4,3.4,1.1s1.2,1.8,1.2,3.3v7
			L826.7,98.7L826.7,98.7z"/>
		<path class="st29" d="M832.2,98.7V87.4h1.5v3.1l-0.1-0.5c0.3-0.9,0.8-1.5,1.6-2c0.8-0.5,1.7-0.7,2.8-0.7v1.5c-0.1,0-0.1,0-0.2,0
			c-0.1,0-0.1,0-0.2,0c-1.2,0-2.1,0.4-2.8,1.1c-0.7,0.7-1,1.8-1,3.1v5.8L832.2,98.7L832.2,98.7z"/>
	</g>
	<g>
		<g>
			<g id="BcFDJe.tif">
				<g>
					<path class="st30" d="M378.7,155v1.6c0,0.3,0,0.6,0,0.9c-0.1,0.8-0.5,1.2-1.3,1.3c-0.3,0-0.5,0-0.8,0h-31.2c-0.3,0-0.7,0-1.1,0
						c-1,0-2,0-2.9,0c-0.8,0-1.6,0-2.4,0c-1.8,0-2.2-0.4-2.1-2.3c-0.1-3.3-0.1-6.7,0-10c0-0.3,0-0.6,0-1V95c0-0.4,0-0.7,0-1
						c0.1-0.6,0.5-1,1.1-1.1c0.3-0.1,0.6,0,1,0h1.3l-4.7-7.6c-1.2,1-2.2,2.4-2.7,4.2c-0.1,0.3,0,0.6-0.3,0.9v74.1
						c0.3,0.1,0.2,0.4,0.3,0.6c1.1,3.9,4.2,6.2,8.2,6.2c10.1,0,20.2,0,30.3,0c1.6,0,3.1,0.2,4.7-0.1c3.9-0.7,6.7-3.8,6.9-7.8
						c0-0.4,0-0.8,0-1.1V162L378.7,155L378.7,155z M362.8,166.3c0,0.7-0.3,1.1-1,1.1h-8.1c-0.7,0-1-0.3-1-1c0-0.9,0-1.9,0-2.8
						c0-0.7,0.3-0.9,1-0.9c1.4,0,2.8,0,4.2,0c1.3,0,2.6,0,3.9,0c0.8,0,1.2,0.3,1.1,1.1C362.8,164.6,362.8,165.4,362.8,166.3
						L362.8,166.3z"/>
					<path class="st31" d="M378.7,102.2v11.4c0,13.8,0,27.7,0,41.5v1.6c0,0.3,0,0.6,0,0.9c-0.1,0.8-0.5,1.2-1.3,1.3
						c-0.3,0-0.5,0-0.8,0h-31.2c-0.3,0-0.7,0-1.1,0c0.1-0.2,0.2-0.5,0.4-0.8c1.2-2.1,2.4-4.2,3.7-6.2c4.6-7.7,9.2-15.5,13.9-23.2
						c1.5-2.5,3-5,4.5-7.5c2.3-3.8,4.5-7.6,6.8-11.4c0.5-0.8,1-1.7,1.5-2.5c1.2-2,2.3-4,3.6-5.9
						C378.7,101.6,378.7,101.9,378.7,102.2L378.7,102.2z"/>
					<path class="st31" d="M368.8,93c-0.1,0.3-0.2,0.6-0.4,1c-1.6,2.7-3.2,5.4-4.8,8.1c-0.6,1-1.1,1.9-1.7,2.8
						c-2.3,3.9-4.7,7.8-7,11.7c-3.8,6.4-7.6,12.7-11.4,19.1c-2.2,3.6-4.4,7.3-6.6,10.9c0-0.3,0-0.6,0-1V95.1c0-0.4,0-0.7,0-1
						c0.1-0.6,0.5-1,1.1-1.1c0.3-0.1,0.6,0,1,0h1.3c3.7,0,7.5,0,11.2,0c5.5,0,11,0,16.5,0C368.2,93,368.5,93,368.8,93L368.8,93z"/>
					<path class="st32" d="M378.7,101.2c-1.3,1.9-2.4,3.9-3.6,5.9c-0.5,0.8-1,1.7-1.5,2.5c-2.3,3.8-4.5,7.6-6.8,11.4
						c-1.5,2.5-3,5-4.5,7.5c-4.6,7.7-9.2,15.5-13.9,23.2c-1.2,2.1-2.5,4.2-3.7,6.2c-0.2,0.2-0.2,0.5-0.4,0.8c-1,0-2,0-2.9,0
						c-0.8,0-1.6,0-2.4,0c-1.8,0-2.2-0.4-2.1-2.3c-0.1-3.3-0.1-6.7,0-10c2.2-3.6,4.4-7.3,6.6-10.9c3.8-6.4,7.6-12.7,11.4-19.1
						c2.3-3.9,4.7-7.8,7-11.7c0.6-0.9,1.1-1.9,1.7-2.8c1.6-2.7,3.2-5.4,4.8-8.1c0.2-0.3,0.3-0.6,0.4-1c2-0.2,4.1-0.1,6.1,0
						c0.8,0,1.6,0,2.3,0c1,0,1.5,0.5,1.5,1.5c0,0.6,0,1.2,0,1.8C378.7,98,378.8,99.6,378.7,101.2L378.7,101.2z"/>
					<path class="st33" d="M357.8,162.6c1.3,0,2.6,0,3.9,0c0.8,0,1.2,0.3,1.1,1.1c0,0.8,0,1.7,0,2.5c0,0.7-0.3,1.1-1,1.1
						c-2.7,0-5.4,0-8.1,0c-0.7,0-1-0.3-1-1c0-0.9,0-1.9,0-2.8c0-0.7,0.3-0.9,0.9-0.9C355,162.7,356.4,162.6,357.8,162.6z"/>
					<path class="st34" d="M364.2,88.1c0,0.6-0.5,0.6-0.9,0.6c-1.8,0-3.7,0-5.6,0s-3.6,0-5.4,0c-0.4,0-0.9,0-0.9-0.6
						s0.4-0.8,0.9-0.8h10.9C363.8,87.3,364.2,87.5,364.2,88.1L364.2,88.1z"/>
				</g>
			</g>
			<path class="st33" d="M376.2,83.6l-0.1-0.1h-36.6c-0.1,0.1-0.3,0.2-0.4,0.2c-0.3,0.1-0.6,0.1-0.8,0.2c-1,0.4-2,0.9-2.7,1.5
				l4.7,7.6c3.7,0,7.5,0,11.2,0c5.5,0,11,0,16.5,0c0.3,0,0.6,0,0.9,0c2-0.2,4.1-0.1,6.1,0c0.8,0,1.6,0,2.3,0c1,0,1.5,0.5,1.5,1.5
				c0,0.6,0,1.2,0,1.8c0.1,1.6,0.1,3.3,0,4.9c0,0.3,0,0.6,0,1v11.4c0,13.8,0,27.7,0,41.5l4.3,6.9V92.5
				C383,87.7,380.8,84.9,376.2,83.6L376.2,83.6z M363.3,88.7c-1.8,0-3.7,0-5.6,0c-1.9,0-3.6,0-5.4,0c-0.4,0-0.9,0-0.9-0.6
				s0.4-0.8,0.9-0.8h10.9c0.5,0,0.9,0.2,0.9,0.8C364.2,88.7,363.7,88.7,363.3,88.7L363.3,88.7z"/>
		</g>
		<g>
			<path class="st35" d="M545,146.5c0,1.4-0.4,1.6-1.7,1.6c-2.5,0-6.3,0-11.1,0l-66.3-66.3c9,0,21.2,0,33.5,0c5.5,0,11,0,16.3,0
				c12.2,0,22.7,0,27.6,0c1.3,0,1.7,0.2,1.7,1.6C545,104.5,545,125.5,545,146.5z"/>
			<g>
				<g id="EcWaTZ.tif">
					<g>
						<path class="st30" d="M546.8,73.7c-0.1,0-0.1-0.1-0.1-0.2h-94.9c-0.1,0.4-0.5,0.4-0.8,0.5c-3.5,1.4-5.4,4-5.6,7.8
							c0,6.9,0,13.8,0,20.7v16.6c0,4.1,0,8.2,0,12.3l0,0c0,5.4,0,10.7,0,16.1c0,5.4,3.5,8.9,8.9,8.9c2.4,0,4.8,0,7.2,0h24.2
							c4.6,0,9.1,0,13.7,0c5.5,0,11.1,0,16.6,0c8.2,0,16.4,0,24.5,0h4.2c5,0,8.6-3.5,8.6-8.6V82.3C553.3,77.9,551.1,75,546.8,73.7
							L546.8,73.7z M545,146.5c0,1.4-0.4,1.6-1.7,1.6c-2.5,0-6.3,0-11.1,0h-19.4c-21.1,0-46.2,0-56,0h-1.3c-1.2,0-1.8-0.6-1.8-1.8
							v-2.8c0-20,0-40,0-60c0-1.3,0.3-1.8,1.7-1.8c2.4,0,6,0,10.5,0c8.9,0,21.2,0,33.5,0c5.5,0,11,0,16.3,0c3,0,5.9,0,8.7,0
							c8.4,0,15.2,0,18.9,0c1.3,0,1.7,0.2,1.7,1.6C545,104.5,545,125.5,545,146.5L545,146.5z"/>
						<path class="st36" d="M425.5,102.5h-13.8V84.9c0.2-0.5,0.5-0.9,0.8-1.3L425.5,102.5z"/>
						<rect x="411.7" y="102.5" class="st33" width="24.9" height="16.6"/>
						<path class="st36" d="M454.3,156.4c-5.4,0-8.9-3.5-8.9-8.9c0-5.3,0-10.7,0-16.1l0,0l-8.5-12.4h-25.2v59.3
							c1.1,2.4,3,3.1,5.6,3.1c6.4-0.1,12.9-0.1,19.3-0.1c6.8,0,13.5,0,20.3,0c3,0,4.6-1.6,4.6-4.6c0-6.8,0-13.5,0-20.3
							C459.1,156.4,456.7,156.4,454.3,156.4L454.3,156.4z M436.6,173.8L436.6,173.8c-3.2-0.6-4.9-3.1-3.8-5.7c0.7-1.7,2-2.4,3.8-2.6
							l0,0c2.4-0.1,4.2,1.7,4.2,4.2C440.7,172.2,438.9,173.9,436.6,173.8z"/>
						<path class="st37" d="M436.5,173.9c-3.2-0.6-4.8-3.1-3.8-5.7c0.7-1.7,2-2.4,3.8-2.6l0,0C436.6,168.3,436.6,171.1,436.5,173.9
							L436.5,173.9L436.5,173.9z"/>
						<path class="st31" d="M532.2,148.2c4.8,0,8.6,0,11.1,0C540.8,148.2,536.9,148.2,532.2,148.2c-4.8,0-10.4,0-16.5,0h-2.9
							c-21,0-45.9,0-56,0h-1.3c-1.2,0-1.8-0.6-1.8-1.8v-2.8c0-20,0-40,0-60c0-1.3,0.3-1.8,1.7-1.8c2.4,0,6,0,10.5,0L532.2,148.2
							L532.2,148.2z"/>
						<path class="st35" d="M543.3,81.8c-4.9,0-15.4,0-27.6,0C527.7,81.8,538.2,81.8,543.3,81.8z"/>
						<path class="st36" d="M511.5,173c-4.1,0-8.1,0-12.2,0l-0.1,0.1c-2.9,0-5.7,0-8.6,0c-2.7,0-5.3,0-8,0v-16.6h2.9L511.5,173
							L511.5,173z"/>
						<path class="st38" d="M445.4,81.8c0,6.9,0,13.8,0,20.7c-2.9,0-5.9,0-8.8,0h-11.1l-13-19c0.8-1,1.8-1.8,3.3-1.8
							c7,0,13.9,0,20.9,0C439.5,81.8,442.4,81.8,445.4,81.8z"/>
						<path class="st33" d="M445.4,102.5v16.6c-2.8,0-5.7,0-8.5,0h-0.3v-16.6C439.5,102.5,442.4,102.5,445.4,102.5L445.4,102.5z"/>
						<path class="st38" d="M528.4,177.1c0,2.3-1.7,4.2-3.9,4.2c-7,0-13.9,0-20.9,0l0,0l-12.9-8.2c2.9,0,5.7,0,8.6,0l0.1-0.1
							c4.1,0,8.1,0,12.2,0c1.5,0,2.9,0,4.4,0c2.8,0,5.6,0,8.4,0C526.6,173.1,528.4,174.9,528.4,177.1L528.4,177.1z"/>
						<path class="st36" d="M503.6,181.3c-1.4,0-2.8,0-4.3,0c-6.6,0-13.2,0-19.7,0c-1.8,0-3.5,0-5.3,0c-2.2,0-4-1.9-4-4.1
							c0-2.1,1.6-3.9,3.7-4.1c0.2,0,0.3,0,0.5,0c2.8-0.1,5.5,0,8.3,0c2.8,0,5.3,0,8,0L503.6,181.3L503.6,181.3z"/>
						<path class="st39" d="M436.6,173.8c0-2.8,0-5.5,0-8.2c2.4-0.1,4.2,1.7,4.2,4.2C440.7,172.2,438.9,173.9,436.6,173.8
							L436.6,173.8z"/>
					</g>
				</g>
				<path class="st38" d="M516,156.4V173c-1.5,0-2.9,0-4.4,0l-25.9-16.6c4.6,0,9.1,0,13.7,0C504.9,156.4,510.4,156.4,516,156.4
					L516,156.4z"/>
				<path class="st38" d="M445.4,131.5l-8.5-12.4c2.8,0,5.7,0,8.5,0C445.4,123.3,445.4,127.4,445.4,131.5z"/>
			</g>
		</g>
		<g>
			<g>
				<rect x="208" y="88.9" class="st36" width="95.9" height="23.3"/>
				<path class="st30" d="M223,96.8h7.3c1.5,0,2.8,1.2,2.8,2.8v2.5c0,1.5-1.2,2.8-2.8,2.8H223c-1.5,0-2.8-1.2-2.8-2.8v-2.5
					C220.3,98.1,221.5,96.8,223,96.8z"/>
				<rect x="262" y="100.8" class="st30" width="4.8" height="4.8"/>
				<rect x="274.5" y="100.8" class="st30" width="4.8" height="4.8"/>
				<rect x="287.1" y="100.8" class="st30" width="4.8" height="4.8"/>
			</g>
			<g>
				<rect x="208" y="115.7" class="st36" width="95.9" height="23.3"/>
				<path class="st30" d="M223,123.7h7.3c1.5,0,2.8,1.2,2.8,2.8v2.5c0,1.5-1.2,2.8-2.8,2.8H223c-1.5,0-2.8-1.2-2.8-2.8v-2.6
					C220.3,124.9,221.5,123.7,223,123.7z"/>
				<rect x="262" y="127.7" class="st30" width="4.8" height="4.8"/>
				<rect x="274.5" y="127.7" class="st30" width="4.8" height="4.8"/>
				<rect x="287.1" y="127.7" class="st30" width="4.8" height="4.8"/>
			</g>
			<g>
				<rect x="208" y="142.6" class="st36" width="95.9" height="23.3"/>
				<path class="st30" d="M223,150.5h7.3c1.5,0,2.8,1.2,2.8,2.8v2.5c0,1.5-1.2,2.8-2.8,2.8H223c-1.5,0-2.8-1.2-2.8-2.8v-2.5
					C220.3,151.8,221.5,150.5,223,150.5z"/>
				<rect x="262" y="154.5" class="st30" width="4.8" height="4.8"/>
				<rect x="274.5" y="154.5" class="st30" width="4.8" height="4.8"/>
				<rect x="287.1" y="154.5" class="st30" width="4.8" height="4.8"/>
			</g>
		</g>
		<g>
			<path class="st38" d="M47.9,160.8h53.2c0.1,0.7,0.1,1.4,0.2,2.1h24.9c0-0.7,0.1-1.3,0.1-2.1h53c0.5,2.5-0.8,4.9-3,5.9
				c-0.4,0.2-0.8,0.3-1.2,0.5H52.3c-2.2-0.7-3.7-2.1-4.4-4.4V160.8L47.9,160.8z M60.1,164c0,0.1,0,0.2,0,0.3h5.4c0-0.1,0-0.2,0-0.3
				H60.1z"/>
			<path class="st30" d="M113.7,87.7c16.4,0,32.8,0,49.2,0c3.2,0,4.5,1.3,4.5,4.5c0,20.6,0,41.3,0,62c0,3.3-1.3,4.6-4.6,4.6
				c-32.7,0-65.4,0-98.1,0c-3.4,0-4.6-1.3-4.6-4.7c0-20.6,0-41.2,0-61.8c0-3.3,1.3-4.5,4.6-4.5C80.9,87.7,97.3,87.7,113.7,87.7
				L113.7,87.7z M161.7,93.3h-96V153h96V93.3L161.7,93.3z M115.4,90.4c-0.8-0.5-1.2-1.2-1.6-1.1c-0.4,0.1-0.8,0.8-1.2,1.2
				c0.4,0.4,0.8,1,1.2,1S114.7,90.9,115.4,90.4z"/>
		</g>
	</g>
	<path class="st0" d="M551,32.7c27.7,0,50.2,22.5,50.2,50.2V172c0,27.7-22.5,50.2-50.2,50.2H50.2C22.5,222.2,0,199.7,0,172V82.8
		c0-27.7,22.5-50.2,50.2-50.2h-0.9L551,32.7L551,32.7z"/>
	<g>
		<path class="st40" d="M900,102.8v-0.1h150.2v0.1C1031.2,102.8,918.6,102.8,900,102.8L900,102.8z"/>
		<path class="st35" d="M887.6,150c0.8-10.2-1.7-21.8,1-31.4c43.3-0.6,128.4-0.6,172.8,0c2.8,9.5,1.3,21,1,30.9
			c-0.1,2.3-1.9,2.9-3.8,2.7c-35.9,0-122.2,0-156.9,0C898.1,151.4,889,154.3,887.6,150L887.6,150z"/>
		<path class="st31" d="M1061.5,118.6c-44.8-0.6-129.1-0.6-172.8,0c4.8-6.1,6.2-18,16-15.9c15.7,0,129.8,0,145.5,0
			C1056.2,105.1,1057.5,113.8,1061.5,118.6L1061.5,118.6z M911.1,109.2c0.9,0,2.3,0.3,2.5-1c0.4-2.2-3-1.8-4.4-1.5
			C907.1,108,909.4,109.7,911.1,109.2L911.1,109.2z M939.5,109.2c1.7,0.6,4-1.2,1.9-2.4c-1.3-0.3-4.7-0.8-4.4,1.4
			C937.3,109.5,938.6,109.2,939.5,109.2L939.5,109.2z M903.1,109.2c5.3,0.1,1.8-3.9-1.7-2.4C899.3,107.9,901.3,109.7,903.1,109.2z
			 M947.5,109.2c1.8,0.5,3.8-1.2,1.7-2.4C945.7,105.2,942.2,109.3,947.5,109.2z M929.2,109.2c4.9,0.2,2.1-3.6-1.3-2.6
			C925.4,107.4,927,109.8,929.2,109.2z M909.5,114.5c1.1,0.1,2.8-0.1,2.8-1.4c-0.2-1.8-2.8-1-4-1.2
			C905.8,112.4,907.7,115.1,909.5,114.5z M929.1,114.5c1.1,0.1,2.7,0,2.8-1.4c-0.1-1.8-2.8-1.1-4-1.2
			C925.3,112.4,927.2,115.1,929.1,114.5L929.1,114.5z M901.9,111.9c-2.1-0.6-4,1.8-1.3,2.6C904,115.5,906.7,111.8,901.9,111.9z
			 M921.4,111.9c-5-0.1-2.1,3.6,1.3,2.6C925.1,113.7,923.6,111.3,921.4,111.9z M941,111.9c-2.1-0.6-4,1.8-1.3,2.6
			C943.1,115.5,945.7,111.8,941,111.9z M921.4,109.2c2.2,0.6,3.9-1.8,1.3-2.5C919.3,105.6,916.5,109.3,921.4,109.2z"/>
		<g>
			<path class="st41" d="M900,132.7c-4.9,0.3-5.6,0-5.2-5c-0.2-2,2.6-1,2.6-2.9c0.3-1.9,5-1.8,5.2,0.1c0.1,0.8,0.5,1.2,1.2,1.3
				c2.3,0.3,1.1,3.4,1.4,5C905.1,133.7,901.6,132.3,900,132.7L900,132.7z"/>
			<path class="st41" d="M918.4,132.7c-4.9,0.3-5.6,0-5.2-5c-0.2-2,2.6-1,2.6-2.9c0.3-1.9,5-1.8,5.2,0.1c0.1,0.8,0.5,1.2,1.2,1.3
				c2.3,0.3,1.1,3.4,1.4,5C923.5,133.7,920,132.3,918.4,132.7L918.4,132.7z"/>
			<path class="st41" d="M936.8,132.7c-4.9,0.3-5.6,0-5.2-5c-0.2-2,2.6-1,2.6-2.9c0.3-1.9,5-1.8,5.2,0.1c0.1,0.8,0.5,1.2,1.2,1.3
				c2.3,0.3,1.1,3.4,1.3,5C941.9,133.7,938.4,132.3,936.8,132.7L936.8,132.7z"/>
			<path class="st41" d="M955.2,132.7c-4.9,0.3-5.6,0-5.2-5c-0.2-2,2.6-1,2.6-2.9c0.3-1.9,5-1.8,5.2,0.1c0.1,0.8,0.5,1.2,1.2,1.3
				c2.3,0.3,1.1,3.4,1.3,5C960.3,133.7,956.8,132.3,955.2,132.7L955.2,132.7z"/>
			<path class="st41" d="M973.6,132.7c-4.9,0.3-5.6,0-5.2-5c-0.2-2,2.6-1,2.6-2.9c0.3-1.9,5-1.8,5.2,0.1c0.1,0.8,0.5,1.2,1.2,1.3
				c2.3,0.3,1.1,3.4,1.3,5C978.7,133.7,975.2,132.3,973.6,132.7L973.6,132.7z"/>
			<path class="st41" d="M992,132.7c-4.9,0.3-5.6,0-5.2-5c-0.2-2,2.6-1,2.6-2.9c0.3-1.9,5-1.8,5.2,0.1c0.1,0.8,0.5,1.2,1.2,1.3
				c2.3,0.3,1.1,3.4,1.3,5C997.1,133.7,993.6,132.3,992,132.7L992,132.7z"/>
			<path class="st41" d="M1010.4,132.7c-4.9,0.3-5.6,0-5.2-5c-0.2-2,2.6-1,2.6-2.9c0.3-1.9,5-1.8,5.2,0.1c0.1,0.8,0.5,1.2,1.2,1.3
				c2.3,0.3,1.1,3.4,1.3,5C1015.5,133.7,1012.1,132.3,1010.4,132.7L1010.4,132.7z"/>
			<path class="st41" d="M1028.8,132.7c-4.9,0.3-5.6,0-5.2-5c-0.2-2,2.6-1,2.6-2.9c0.3-1.9,5-1.8,5.2,0.1c0.1,0.8,0.5,1.2,1.2,1.3
				c2.3,0.3,1.1,3.4,1.3,5C1033.9,133.7,1030.5,132.3,1028.8,132.7L1028.8,132.7z"/>
			<path class="st41" d="M1047.2,132.7c-4.9,0.3-5.6,0-5.2-5c-0.2-2,2.6-1,2.6-2.9c0.3-1.9,5-1.8,5.2,0.1c0.1,0.8,0.5,1.2,1.2,1.3
				c2.3,0.3,1.1,3.4,1.3,5C1052.3,133.7,1048.9,132.3,1047.2,132.7L1047.2,132.7z"/>
			<path class="st41" d="M900,146.8c-4.9,0.3-5.6,0-5.2-5c-0.2-2,2.6-1,2.6-2.9c0.3-1.9,5-1.8,5.2,0.1c0.1,0.8,0.5,1.2,1.2,1.3
				c2.3,0.3,1.1,3.4,1.4,5C905.1,147.8,901.6,146.5,900,146.8L900,146.8z"/>
			<path class="st41" d="M918.4,146.8c-4.9,0.3-5.6,0-5.2-5c-0.2-2,2.6-1,2.6-2.9c0.3-1.9,5-1.8,5.2,0.1c0.1,0.8,0.5,1.2,1.2,1.3
				c2.3,0.3,1.1,3.4,1.4,5C923.5,147.8,920,146.5,918.4,146.8L918.4,146.8z"/>
			<path class="st41" d="M936.8,146.8c-4.9,0.3-5.6,0-5.2-5c-0.2-2,2.6-1,2.6-2.9c0.3-1.9,5-1.8,5.2,0.1c0.1,0.8,0.5,1.2,1.2,1.3
				c2.3,0.3,1.1,3.4,1.3,5C941.9,147.8,938.4,146.5,936.8,146.8L936.8,146.8z"/>
			<path class="st41" d="M955.2,146.8c-4.9,0.3-5.6,0-5.2-5c-0.2-2,2.6-1,2.6-2.9c0.3-1.9,5-1.8,5.2,0.1c0.1,0.8,0.5,1.2,1.2,1.3
				c2.3,0.3,1.1,3.4,1.3,5C960.3,147.8,956.8,146.5,955.2,146.8L955.2,146.8z"/>
			<path class="st41" d="M973.6,146.8c-4.9,0.3-5.6,0-5.2-5c-0.2-2,2.6-1,2.6-2.9c0.3-1.9,5-1.8,5.2,0.1c0.1,0.8,0.5,1.2,1.2,1.3
				c2.3,0.3,1.1,3.4,1.3,5C978.7,147.8,975.2,146.5,973.6,146.8L973.6,146.8z"/>
			<path class="st41" d="M992,146.8c-4.9,0.3-5.6,0-5.2-5c-0.2-2,2.6-1,2.6-2.9c0.3-1.9,5-1.8,5.2,0.1c0.1,0.8,0.5,1.2,1.2,1.3
				c2.3,0.3,1.1,3.4,1.3,5C997.1,147.8,993.6,146.5,992,146.8L992,146.8z"/>
			<path class="st41" d="M1010.4,146.8c-4.9,0.3-5.6,0-5.2-5c-0.2-2,2.6-1,2.6-2.9c0.3-1.9,5-1.8,5.2,0.1c0.1,0.8,0.5,1.2,1.2,1.3
				c2.3,0.3,1.1,3.4,1.3,5C1015.5,147.8,1012.1,146.5,1010.4,146.8L1010.4,146.8z"/>
			<path class="st41" d="M1028.8,146.8c-4.9,0.3-5.6,0-5.2-5c-0.2-2,2.6-1,2.6-2.9c0.3-1.9,5-1.8,5.2,0.1c0.1,0.8,0.5,1.2,1.2,1.3
				c2.3,0.3,1.1,3.4,1.3,5C1033.9,147.8,1030.5,146.5,1028.8,146.8L1028.8,146.8z"/>
			<path class="st41" d="M1047.2,146.8c-4.9,0.3-5.6,0-5.2-5c-0.2-2,2.6-1,2.6-2.9c0.3-1.9,5-1.8,5.2,0.1c0.1,0.8,0.5,1.2,1.2,1.3
				c2.3,0.3,1.1,3.4,1.3,5C1052.3,147.8,1048.9,146.5,1047.2,146.8L1047.2,146.8z"/>
		</g>
		<path class="st42" d="M911.1,109.2c-1.7,0.6-4-1.2-1.9-2.4c1.4-0.3,4.7-0.8,4.4,1.5C913.3,109.5,912,109.1,911.1,109.2
			L911.1,109.2z"/>
		<path class="st42" d="M939.5,109.2c-0.9,0-2.3,0.3-2.5-1c-0.3-2.2,3-1.8,4.4-1.4C943.6,108,941.2,109.7,939.5,109.2L939.5,109.2z"
			/>
		<path class="st42" d="M903.1,109.2c-1.8,0.5-3.8-1.2-1.7-2.4C905,105.3,908.4,109.3,903.1,109.2z"/>
		<path class="st42" d="M947.5,109.2c-5.4,0.1-1.8-4,1.7-2.4C951.3,107.9,949.3,109.7,947.5,109.2z"/>
		<path class="st42" d="M929.2,109.2c-2.2,0.6-3.8-1.8-1.3-2.6C931.4,105.6,934.2,109.3,929.2,109.2z"/>
		<path class="st42" d="M909.5,114.5c-1,0.2-2.9-0.4-2.3-1.8c0.5-1.3,2.5-0.6,3.6-0.8C913.8,112.2,911.7,115.3,909.5,114.5z"/>
		<path class="st42" d="M929.1,114.5c-1.9,0.6-3.7-2.1-1.2-2.6c1.3,0.2,4-0.6,4,1.2C931.8,114.5,930.2,114.6,929.1,114.5
			L929.1,114.5z"/>
		<path class="st42" d="M901.9,111.9c4.8-0.2,2.1,3.6-1.3,2.6C897.9,113.7,899.8,111.3,901.9,111.9z"/>
		<path class="st42" d="M921.4,111.9c2.2-0.6,3.7,1.8,1.3,2.6C919.3,115.5,916.5,111.8,921.4,111.9z"/>
		<path class="st42" d="M941,111.9c4.8-0.1,2.1,3.6-1.3,2.6C937,113.7,938.9,111.3,941,111.9z"/>
		<path class="st42" d="M921.4,109.2c-4.9,0.1-2.1-3.6,1.3-2.5C925.3,107.4,923.6,109.8,921.4,109.2z"/>
		<path class="st42" d="M1039.2,109.2c1.7,0.6,4-1.2,1.9-2.4c-1.4-0.3-4.7-0.8-4.3,1.5C1036.9,109.5,1038.2,109.1,1039.2,109.2
			L1039.2,109.2z"/>
		<path class="st42" d="M1010.7,109.2c0.9,0,2.3,0.3,2.5-1c0.3-2.2-3-1.8-4.4-1.4C1006.7,108,1009,109.7,1010.7,109.2L1010.7,109.2z
			"/>
		<path class="st42" d="M1047.1,109.2c1.8,0.5,3.8-1.2,1.7-2.4C1045.3,105.3,1041.8,109.3,1047.1,109.2z"/>
		<path class="st42" d="M1002.7,109.2c5.4,0.1,1.8-4-1.7-2.4C999,107.9,1001,109.7,1002.7,109.2z"/>
		<path class="st42" d="M1021,109.2c2.2,0.6,3.8-1.8,1.3-2.6C1018.9,105.6,1016.1,109.3,1021,109.2z"/>
		<path class="st42" d="M1040.7,114.5c1,0.2,2.9-0.4,2.3-1.8c-0.5-1.3-2.5-0.6-3.6-0.8C1036.4,112.2,1038.5,115.3,1040.7,114.5z"/>
		<path class="st42" d="M1021.2,114.5c1.9,0.6,3.7-2.1,1.2-2.6c-1.3,0.2-4-0.6-4,1.2C1018.4,114.5,1020,114.6,1021.2,114.5
			L1021.2,114.5z"/>
		<path class="st42" d="M1048.3,111.9c-4.8-0.2-2.1,3.6,1.3,2.6C1052.3,113.7,1050.5,111.3,1048.3,111.9z"/>
		<path class="st42" d="M1028.8,111.9c-2.2-0.6-3.7,1.8-1.3,2.6C1030.9,115.5,1033.8,111.8,1028.8,111.9z"/>
		<path class="st42" d="M1009.3,111.9c-4.8-0.1-2.1,3.6,1.3,2.6C1013.3,113.7,1011.4,111.3,1009.3,111.9z"/>
		<path class="st42" d="M1028.8,109.2c4.9,0.1,2.1-3.6-1.3-2.5C1025,107.4,1026.6,109.8,1028.8,109.2z"/>
		<path class="st42" d="M987.3,109.2c1.7,0.6,4-1.2,1.9-2.4c-1.4-0.3-4.7-0.8-4.3,1.5C985.1,109.5,986.4,109.1,987.3,109.2
			L987.3,109.2z"/>
		<path class="st42" d="M962.8,109.2c0.9,0,2.3,0.3,2.5-1c0.3-2.2-3-1.8-4.4-1.4C958.8,108,961.1,109.7,962.8,109.2L962.8,109.2z"/>
		<path class="st42" d="M994.3,109.2c1.8,0.5,3.8-1.2,1.7-2.4C992.4,105.3,989,109.3,994.3,109.2z"/>
		<path class="st42" d="M955.5,109.2c5.4,0.1,1.8-4-1.7-2.4C951.8,107.9,953.8,109.7,955.5,109.2z"/>
		<path class="st42" d="M971.2,109.2c2.2,0.6,3.8-1.8,1.3-2.6C969,105.6,966.2,109.3,971.2,109.2z"/>
		<path class="st42" d="M987.2,114.5c1,0.2,2.9-0.4,2.3-1.8c-0.5-1.3-2.5-0.6-3.6-0.8C982.8,112.2,985,115.3,987.2,114.5z"/>
		<path class="st42" d="M971.3,114.5c1.9,0.6,3.7-2.1,1.2-2.6c-1.3,0.2-4-0.6-4,1.2C968.6,114.5,970.2,114.6,971.3,114.5
			L971.3,114.5z"/>
		<path class="st42" d="M949.8,111.9c-5-0.1-2.1,3.6,1.4,2.6C953.6,113.7,952,111.3,949.8,111.9z"/>
		<path class="st42" d="M993.8,111.9c-4.8-0.2-2.1,3.6,1.3,2.6C997.8,113.7,995.9,111.3,993.8,111.9z"/>
		<path class="st42" d="M1001.2,111.9c-4.8-0.2-2.1,3.6,1.3,2.6C1005.2,113.7,1003.3,111.3,1001.2,111.9z"/>
		<path class="st42" d="M979,111.9c-2.2-0.6-3.7,1.8-1.3,2.6C981.1,115.5,983.9,111.8,979,111.9z"/>
		<path class="st42" d="M959.4,111.9c-4.8-0.1-2.1,3.6,1.3,2.6C963.4,113.7,961.5,111.3,959.4,111.9z"/>
		<path class="st42" d="M979,109.2c4.9,0.1,2.1-3.6-1.3-2.5C975.1,107.4,976.8,109.8,979,109.2z"/>
	</g>
	<g>
		<path d="M1069,152.4l4.6-10.1h1l4.6,10.1h-1.1l-4.2-9.5h0.4l-4.2,9.5H1069L1069,152.4z M1070.8,149.7l0.3-0.9h5.9l0.3,0.9H1070.8
			L1070.8,149.7z"/>
		<path d="M1080.7,152.4v-10.7h1v10.7H1080.7z"/>
		<path d="M1084.6,152.4v-10.7h1v10.7H1084.6z"/>
		<path d="M1091.5,152.5c-0.7,0-1.4-0.2-2-0.5s-1-0.8-1.4-1.4s-0.5-1.2-0.5-2s0.2-1.4,0.5-2c0.3-0.6,0.8-1,1.4-1.4
			c0.6-0.3,1.2-0.5,2-0.5c0.8,0,1.4,0.2,2,0.5s1,0.8,1.4,1.4c0.3,0.6,0.5,1.2,0.5,2s-0.2,1.4-0.5,2c-0.3,0.6-0.8,1-1.4,1.4
			C1092.9,152.4,1092.2,152.5,1091.5,152.5L1091.5,152.5z M1091.5,151.6c0.5,0,1-0.1,1.5-0.4c0.4-0.2,0.8-0.6,1-1
			c0.2-0.5,0.4-1,0.4-1.5s-0.1-1.1-0.4-1.5c-0.2-0.4-0.6-0.8-1-1s-0.9-0.4-1.4-0.4s-1,0.1-1.4,0.4s-0.8,0.6-1,1
			c-0.2,0.4-0.4,1-0.4,1.5s0.1,1.1,0.4,1.5c0.2,0.5,0.6,0.8,1,1C1090.5,151.4,1091,151.6,1091.5,151.6z"/>
		<path d="M1098.8,152.4l-2.8-7.6h1l2.6,7h-0.5l2.7-7h0.9l2.6,7h-0.5l2.6-7h0.9l-2.9,7.6h-1l-2.5-6.6h0.3l-2.5,6.6H1098.8
			L1098.8,152.4z"/>
		<path d="M1116.7,152.5c-0.7,0-1.4-0.2-2-0.5s-1-0.8-1.4-1.4s-0.5-1.2-0.5-2s0.2-1.4,0.5-2c0.3-0.6,0.8-1,1.4-1.4
			c0.6-0.3,1.2-0.5,2-0.5c0.8,0,1.4,0.2,2,0.5s1,0.8,1.4,1.4c0.3,0.6,0.5,1.2,0.5,2s-0.2,1.4-0.5,2c-0.3,0.6-0.8,1-1.4,1.4
			C1118.1,152.4,1117.5,152.5,1116.7,152.5L1116.7,152.5z M1116.7,151.6c0.5,0,1-0.1,1.5-0.4c0.4-0.2,0.8-0.6,1-1
			c0.2-0.5,0.4-1,0.4-1.5s-0.1-1.1-0.4-1.5c-0.2-0.4-0.6-0.8-1-1s-0.9-0.4-1.4-0.4s-1,0.1-1.4,0.4s-0.8,0.6-1,1
			c-0.2,0.4-0.4,1-0.4,1.5s0.1,1.1,0.4,1.5c0.2,0.5,0.6,0.8,1,1C1115.7,151.4,1116.2,151.6,1116.7,151.6z"/>
		<path d="M1122.7,152.4v-7.6h1v2.1l-0.1-0.4c0.2-0.6,0.6-1,1.1-1.3s1.1-0.5,1.9-0.5v1h-0.1h-0.1c-0.8,0-1.4,0.2-1.9,0.7
			s-0.7,1.2-0.7,2.1v3.9L1122.7,152.4L1122.7,152.4z"/>
		<path d="M1132.5,152.4v-10.1h4.3c1.1,0,2,0.2,2.6,0.7s0.9,1.1,0.9,1.9c0,0.5-0.1,1-0.4,1.4s-0.6,0.7-1,0.9s-0.9,0.3-1.4,0.3
			l0.2-0.3c0.6,0,1.2,0.1,1.7,0.3c0.5,0.2,0.8,0.5,1.1,0.9c0.3,0.4,0.4,0.9,0.4,1.5c0,0.9-0.3,1.5-0.9,2c-0.6,0.5-1.6,0.7-2.8,0.7
			L1132.5,152.4L1132.5,152.4z M1133.5,151.5h3.6c0.9,0,1.6-0.1,2-0.5c0.5-0.3,0.7-0.8,0.7-1.5s-0.2-1.1-0.7-1.4s-1.2-0.5-2-0.5
			h-3.7v-0.9h3.3c0.8,0,1.4-0.1,1.9-0.5s0.7-0.8,0.7-1.4s-0.2-1.1-0.7-1.4s-1.1-0.5-1.9-0.5h-3.2V151.5L1133.5,151.5z"/>
		<path d="M1143.1,152.4v-10.7h1v10.7H1143.1z"/>
		<path d="M1150,152.5c-0.7,0-1.4-0.2-2-0.5s-1-0.8-1.4-1.4s-0.5-1.2-0.5-2s0.2-1.4,0.5-2c0.3-0.6,0.8-1,1.4-1.4
			c0.6-0.3,1.2-0.5,2-0.5c0.8,0,1.4,0.2,2,0.5s1,0.8,1.4,1.4c0.3,0.6,0.5,1.2,0.5,2s-0.2,1.4-0.5,2c-0.3,0.6-0.8,1-1.4,1.4
			C1151.4,152.4,1150.8,152.5,1150,152.5L1150,152.5z M1150,151.6c0.5,0,1-0.1,1.5-0.4c0.4-0.2,0.8-0.6,1-1c0.2-0.5,0.4-1,0.4-1.5
			s-0.1-1.1-0.4-1.5c-0.2-0.4-0.6-0.8-1-1s-0.9-0.4-1.4-0.4s-1,0.1-1.4,0.4s-0.8,0.6-1,1c-0.2,0.4-0.4,1-0.4,1.5s0.1,1.1,0.4,1.5
			c0.2,0.5,0.6,0.8,1,1C1149,151.4,1149.5,151.6,1150,151.6z"/>
		<path d="M1159.1,152.5c-0.8,0-1.4-0.2-2-0.5s-1-0.8-1.4-1.4s-0.5-1.2-0.5-2s0.2-1.4,0.5-2c0.3-0.6,0.8-1,1.4-1.4
			c0.6-0.3,1.3-0.5,2-0.5c0.6,0,1.2,0.1,1.7,0.4c0.5,0.2,0.9,0.6,1.2,1.1l-0.8,0.5c-0.3-0.4-0.6-0.7-1-0.9s-0.8-0.3-1.2-0.3
			c-0.5,0-1,0.1-1.5,0.4s-0.8,0.6-1,1c-0.2,0.4-0.4,1-0.4,1.5s0.1,1.1,0.4,1.5c0.2,0.4,0.6,0.8,1,1s0.9,0.4,1.5,0.4
			c0.5,0,0.9-0.1,1.2-0.3c0.3-0.2,0.7-0.5,1-0.8l0.8,0.5c-0.3,0.5-0.7,0.9-1.2,1.1C1160.3,152.4,1159.8,152.5,1159.1,152.5
			L1159.1,152.5z"/>
		<path d="M1164,152.4v-10.7h1v10.7H1164z M1164.8,150.4v-1.3l4.7-4.3h1.2l-3.3,3.2l-0.6,0.5L1164.8,150.4L1164.8,150.4z
			 M1169.8,152.4l-3.2-3.9l0.7-0.8l3.7,4.7L1169.8,152.4L1169.8,152.4z"/>
	</g>
</g>
</svg>
