<?xml version="1.0" encoding="utf-8"?>
<!-- Generator: Adobe Illustrator 27.8.1, SVG Export Plug-In . SVG Version: 6.00 Build 0)  -->
<svg version="1.1" id="katman_1" xmlns="http://www.w3.org/2000/svg" xmlns:xlink="http://www.w3.org/1999/xlink" x="0px" y="0px"
	 viewBox="0 0 1174.5 618.1" style="enable-background:new 0 0 1174.5 618.1;" xml:space="preserve">
<style type="text/css">
	.st0{fill:none;stroke:#94BACE;stroke-miterlimit:10;}
	.st1{fill:#94BACE;}
	.st2{fill:#FFFFFF;}
	.st3{fill:#DAE7EE;}
	.st4{fill-rule:evenodd;clip-rule:evenodd;fill:#D31E16;}
	.st5{fill:#DF0E17;}
	.st6{fill:#BE272E;}
	.st7{fill-rule:evenodd;clip-rule:evenodd;fill:#DF0E17;}
	.st8{fill:none;stroke:#DF0E17;stroke-linecap:round;stroke-miterlimit:10;}
	.st9{fill:none;stroke:#FFFFFF;stroke-miterlimit:10;}
	.st10{fill:none;stroke:#DF0E17;stroke-miterlimit:10;}
	.st11{fill:#343132;}
	.st12{fill:#010101;}
	.st13{fill:#0E8036;}
	.st14{fill:#EEE21A;}
	.st15{clip-path:url(#SVGID_00000162314842503139983310000004033096578995802752_);}
	.st16{fill:none;stroke:#C3996D;stroke-linecap:round;stroke-miterlimit:10;}
	.st17{clip-path:url(#SVGID_00000164504451297681567640000014883346116159212985_);}
	.st18{clip-path:url(#SVGID_00000125602494411843604940000007114483015014251399_);}
	.st19{clip-path:url(#SVGID_00000059270360986184985280000009197857103485630118_);}
	.st20{clip-path:url(#SVGID_00000088836738952167684830000003282158483174815158_);}
	.st21{clip-path:url(#SVGID_00000084516892344357890390000011599364977895644548_);}
	.st22{clip-path:url(#SVGID_00000121237120574953927400000014454948384472782738_);}
	.st23{opacity:0.6;fill-rule:evenodd;clip-rule:evenodd;fill:#848484;enable-background:new    ;}
	.st24{fill:#848484;}
	.st25{opacity:0.2;}
	.st26{clip-path:url(#SVGID_00000091000198204369479310000004035496821189923261_);}
	.st27{fill:#AFAFAF;}
	.st28{fill:none;stroke:#94BACE;stroke-width:2;stroke-miterlimit:10;}
	.st29{fill:#303030;}
	.st30{fill:#002440;}
	.st31{fill:#D9EEFB;}
	.st32{fill:#E8F4FC;}
	.st33{fill:#144C72;}
	.st34{fill:#2F3B5A;}
	.st35{fill:#F0F8FF;}
	.st36{fill:#E4EBEF;}
	.st37{fill:#1FBDEC;}
	.st38{fill:#D5E0E7;}
	.st39{fill:#537981;}
	.st40{fill:#EAF3F6;}
	.st41{fill:#6484A1;}
	.st42{fill:#83BFD7;}
</style>
<g>
	<g>
		<line class="st0" x1="730.4" y1="317.1" x2="687.3" y2="317.1"/>
		<path class="st1" d="M731.7,310.4l6.1,6.1c0.3,0.3,0.3,0.8,0,1.1l-6.1,6.1c-0.5,0.5-1.3,0.1-1.3-0.5v-12.3
			C730.4,310.3,731.2,309.9,731.7,310.4L731.7,310.4z"/>
		<path class="st1" d="M686,310.4l-6.1,6.1c-0.3,0.3-0.3,0.8,0,1.1l6.1,6.1c0.5,0.5,1.3,0.1,1.3-0.5v-12.3
			C687.4,310.3,686.5,309.9,686,310.4L686,310.4z"/>
	</g>
	<g>
		<path class="st2" d="M1050.5,278.5H886.6c-9,0-17.3,0.7-24.6,2.2l-89.2,17.6h396.8l-95.3-17.7
			C1067.2,279.1,1059.1,278.5,1050.5,278.5L1050.5,278.5z"/>
		<g>
			<path class="st3" d="M1174.4,335.7c-0.4,3.6-3.5,6.3-7.2,6.3H773.6c-4,0-7.2-3.2-7.2-7.2v-29.4c0-1.1,0.2-2.1,0.7-3
				c0,0.3-0.1,0.6-0.1,0.9v29.4c0,4,3.2,7.2,7.2,7.2h393.6C1170.8,339.9,1173.3,338.2,1174.4,335.7L1174.4,335.7z"/>
			<path class="st2" d="M1174.5,305.4v29.4c0,0.3,0,0.6-0.1,0.9c-1.1,2.5-3.6,4.2-6.6,4.2H774.2c-4,0-7.2-3.2-7.2-7.2v-29.4
				c0-0.3,0-0.6,0.1-0.9c1.2-2.5,3.7-4.2,6.6-4.2h393.6C1171.2,298.2,1174.5,301.5,1174.5,305.4L1174.5,305.4z"/>
			<g>
				<path class="st4" d="M809.4,312.8l-5.9,8.5l5.8,8.4c0,0,0.6,0.5,1.2,0.7c0.5,0.1,0.6,0.6,0.7,0.9h-5.9c0,0-0.3-0.7,1.4-1.1
					l-4.6-6.6l-4.5,6.6c0.1,0,0.1,0.1,0.2,0.1c1.6,0.5,1.3,1.1,1.3,1.1h-5.6c0.1-0.3,0.1-0.8,0.6-0.9c0.4-0.1,1-0.5,1.3-0.9
					l10.3-15.1c0.6-0.9,1.2-1.8,2.2-2C808.7,312.3,809.4,312.8,809.4,312.8 M794.6,312.8l5.6,8.1l1.4-2.1l-3.7-5.4
					C796.4,311.2,794.6,312.8,794.6,312.8L794.6,312.8z"/>
				<path class="st5" d="M802.5,314.3c0.1,0,0.2-0.1,0.2-0.2v-12.5c0-0.1-0.1-0.2-0.2-0.2s-0.2,0.1-0.2,0.2v12.5
					C802.2,314.2,802.4,314.3,802.5,314.3z"/>
				<path class="st5" d="M802.5,338.8c0.1,0,0.2-0.1,0.2-0.1v-9.9c0-0.1-0.1-0.1-0.2-0.1s-0.2,0.1-0.2,0.1v9.9
					C802.2,338.7,802.4,338.8,802.5,338.8z"/>
			</g>
			<rect x="849.2" y="339.7" class="st6" width="242" height="2.3"/>
			<path class="st5" d="M1083.8,308.1l-1.7,1.7l7,10.1l-5,7.2c-1.4,0.4-2.5,1.7-2.7,3.2l-0.4,3.2h10.2v6.3h-242v-41.5h242v10.2
				c-1.4-1.6-2.9-1.8-3.8-1.8C1085.4,306.6,1084,307.9,1083.8,308.1L1083.8,308.1z"/>
			<g>
				<path class="st7" d="M1128.3,324.5v-1.8c0-0.1,0-0.5-0.1-0.7c0-0.1-0.2-0.1-0.2-0.2c-0.2-0.1-0.3-0.1-0.4-0.1h-0.2
					c-0.2,0-0.2-0.1-0.2-0.2v-0.2c0-0.1,0.1-0.2,0.2-0.2h4.3c0.2,0,0.2,0.1,0.2,0.2v0.2c0,0.1-0.1,0.2-0.2,0.2s-0.4,0.1-0.6,0.1
					c-0.1,0.1-0.2,0.1-0.2,0.3c-0.1,0.1-0.1,0.5-0.1,0.6v2c0,0.1-0.1,0.1-0.2,0.2c-0.6,0.3-1.2,0.5-1.8,0.7
					c-0.7,0.1-1.3,0.2-1.9,0.2c-0.8,0-1.5-0.1-2.2-0.4c-0.6-0.2-1.1-0.6-1.6-1c-0.4-0.5-0.8-0.9-1.1-1.4c-0.4-0.8-0.4-1.5-0.4-2.3
					c0-1.5,0.4-2.8,1.5-3.8c1-1,2.2-1.6,3.7-1.6c0.4,0,0.8,0,1.3,0.1c0.3,0.1,0.7,0.2,1,0.4c0.2,0.1,0.5,0.2,0.7,0.2
					c0.1,0,0.2,0,0.2-0.1c0.1-0.1,0.2-0.3,0.2-0.5c0-0.1,0.2-0.1,0.2-0.1h0.2c0.2,0,0.2,0.1,0.2,0.2v3.4c0,0.1-0.1,0.2-0.2,0.2h-0.2
					c-0.1,0-0.2-0.1-0.2-0.1c-0.2-0.8-0.6-1.5-1.2-2c-0.5-0.5-1.1-0.7-1.7-0.7s-1.1,0.1-1.5,0.5c-0.4,0.5-0.8,1-0.9,1.6
					c-0.2,0.8-0.3,1.4-0.3,2.2c0,0.8,0.1,1.6,0.3,2.4c0.2,0.5,0.4,1,0.9,1.4c0.4,0.3,0.9,0.5,1.4,0.5c0.2,0,0.4,0,0.6-0.1
					C1128,324.6,1128.1,324.6,1128.3,324.5L1128.3,324.5z"/>
				<path class="st7" d="M1119.4,316.7c-1-1-2.2-1.5-3.6-1.4c-1.4-0.1-2.5,0.5-3.4,1.4c-1,1-1.4,2.3-1.4,3.7c0,1.3,0.3,2.4,1.1,3.4
					c1,1.3,2.3,1.9,3.9,1.9s2.9-0.6,3.9-1.9c0.8-1,1.1-2.2,1.1-3.4C1120.8,319,1120.4,317.7,1119.4,316.7L1119.4,316.7z
					 M1117.6,323.1c-0.2,0.5-0.4,1-0.8,1.4c-0.3,0.2-0.6,0.3-1,0.3c-0.6,0-1.1-0.3-1.3-0.8c-0.6-1-0.8-2.4-0.8-3.5
					c0-1,0.1-2.2,0.5-3.1c0.4-0.7,0.8-1.2,1.6-1.2c0.4,0,0.7,0.1,1,0.4c0.4,0.2,0.6,0.8,0.8,1.2c0.3,0.8,0.3,1.9,0.3,2.8
					S1117.8,322.4,1117.6,323.1L1117.6,323.1z"/>
				<path class="st7" d="M1105.3,324.5c0.2,0.1,0.5,0.1,0.7,0.1h0.8c0.4,0,0.8-0.1,1.1-0.2s0.5-0.5,0.8-0.8c0.3-0.5,0.4-1.1,0.6-1.6
					c0-0.1,0.2-0.1,0.2-0.1h0.3c0.1,0,0.2,0,0.2,0.1c0.1,0.1,0.1,0.1,0.1,0.2l-0.3,3.4c0,0.1-0.2,0.2-0.2,0.2h-7.8
					c-0.2,0-0.2-0.1-0.2-0.2v-0.2c0-0.1,0.1-0.2,0.2-0.2h0.3c0.2,0,0.4,0,0.5-0.1c0.1-0.1,0.2-0.1,0.2-0.2c0.1-0.1,0.1-0.7,0.1-0.8
					v-6.4c0-0.1,0-0.7-0.1-0.8c0-0.1-0.2-0.1-0.2-0.2c-0.2-0.1-0.3-0.1-0.4-0.1h-0.3c-0.2,0-0.2-0.1-0.2-0.2v-0.2
					c0-0.1,0.1-0.2,0.2-0.2h4.7c0.2,0,0.2,0.1,0.2,0.2v0.2c0,0.1-0.1,0.2-0.2,0.2h-0.4c-0.2,0-0.4,0-0.5,0.1
					c-0.1,0.1-0.2,0.1-0.2,0.2c-0.1,0.1-0.1,0.7-0.1,0.8v6.1c0,0.1,0,0.7,0.1,0.8C1105.3,324.4,1105.3,324.5,1105.3,324.5
					L1105.3,324.5z"/>
				<path class="st7" d="M1101.7,310l-6.7,9.6l6.6,9.4c0,0,0.7,0.6,1.3,0.8c0.5,0.1,0.7,0.7,0.8,1h-6.5c0,0-0.4-0.8,1.5-1.4
					l-5.2-7.5l-5.2,7.4c0.1,0,0.2,0.1,0.2,0.1c1.8,0.5,1.4,1.4,1.4,1.4h-6.3c0.1-0.3,0.2-0.8,0.7-1c0.4-0.1,1.1-0.5,1.4-1l11.6-16.9
					c0.7-1,1.3-2,2.5-2.2C1100.9,309.3,1101.7,310,1101.7,310 M1085.2,310l6.3,9l1.6-2.4l-4.2-6
					C1087.1,308.1,1085.2,309.9,1085.2,310L1085.2,310z"/>
				<line class="st8" x1="1093.7" y1="301.4" x2="1093.7" y2="311.8"/>
				<line class="st8" x1="1093.7" y1="327.7" x2="1093.7" y2="341.7"/>
			</g>
			<g>
				<path class="st2" d="M864.9,329.5h0.3c0.9,0,1.7,0.7,1.7,1.6v0.4c0,0.9-0.7,1.6-1.7,1.6h-0.3c-0.9,0-1.7-0.7-1.7-1.6v-0.4
					C863.3,330.3,864,329.5,864.9,329.5z"/>
				<path class="st2" d="M864.9,324.7h0.3c0.9,0,1.7,0.7,1.7,1.6v0.4c0,0.9-0.7,1.6-1.7,1.6h-0.3c-0.9,0-1.7-0.7-1.7-1.6v-0.4
					C863.3,325.5,864,324.7,864.9,324.7z"/>
				<path class="st9" d="M869.8,319.8h0.3c0.9,0,1.7,0.7,1.7,1.6v0.4c0,0.9-0.7,1.6-1.7,1.6h-0.3c-0.9,0-1.7-0.7-1.7-1.6v-0.4
					C868.2,320.6,868.9,319.8,869.8,319.8z"/>
				<path class="st2" d="M859.9,319.7h0.3c0.9,0,1.7,0.7,1.7,1.6v0.4c0,0.9-0.7,1.6-1.7,1.6h-0.3c-0.9,0-1.7-0.7-1.7-1.6v-0.4
					C858.2,320.5,859,319.7,859.9,319.7z"/>
				<path class="st9" d="M859.9,314.7h0.3c0.9,0,1.7,0.7,1.7,1.6v0.4c0,0.9-0.7,1.6-1.7,1.6h-0.3c-0.9,0-1.7-0.7-1.7-1.6v-0.4
					C858.2,315.5,859,314.7,859.9,314.7z"/>
				<path class="st2" d="M854.9,309.7h0.3c0.9,0,1.7,0.7,1.7,1.6v0.4c0,0.9-0.7,1.6-1.7,1.6h-0.3c-0.9,0-1.7-0.7-1.7-1.6v-0.4
					C853.2,310.5,854,309.7,854.9,309.7z"/>
				<path class="st2" d="M859.9,304.7h0.3c0.9,0,1.7,0.7,1.7,1.6v0.4c0,0.9-0.7,1.6-1.7,1.6h-0.3c-0.9,0-1.7-0.7-1.7-1.6v-0.4
					C858.2,305.5,859,304.7,859.9,304.7z"/>
				<path class="st9" d="M859.9,324.7h0.3c0.9,0,1.7,0.7,1.7,1.6v0.4c0,0.9-0.7,1.6-1.7,1.6h-0.3c-0.9,0-1.7-0.7-1.7-1.6v-0.4
					C858.2,325.5,859,324.7,859.9,324.7z"/>
				<path class="st2" d="M859.9,329.7h0.3c0.9,0,1.7,0.7,1.7,1.6v0.4c0,0.9-0.7,1.6-1.7,1.6h-0.3c-0.9,0-1.7-0.7-1.7-1.6v-0.4
					C858.2,330.5,859,329.7,859.9,329.7z"/>
				<path class="st5" d="M841.4,329.5h0.3c0.9,0,1.7,0.7,1.7,1.6v0.4c0,0.9-0.7,1.6-1.7,1.6h-0.3c-0.9,0-1.7-0.7-1.7-1.6v-0.4
					C839.8,330.3,840.5,329.5,841.4,329.5z"/>
				<path class="st5" d="M846.1,324.7h0.3c0.9,0,1.7,0.7,1.7,1.6v0.4c0,0.9-0.7,1.6-1.7,1.6h-0.3c-0.9,0-1.7-0.7-1.7-1.6v-0.4
					C844.5,325.5,845.2,324.7,846.1,324.7z"/>
				<path class="st5" d="M846.3,319.8h0.3c0.9,0,1.7,0.7,1.7,1.6v0.4c0,0.9-0.7,1.6-1.7,1.6h-0.3c-0.9,0-1.7-0.7-1.7-1.6v-0.4
					C844.7,320.6,845.4,319.8,846.3,319.8z"/>
				<path class="st10" d="M846.3,314.9h0.3c0.9,0,1.7,0.7,1.7,1.6v0.4c0,0.9-0.7,1.6-1.7,1.6h-0.3c-0.9,0-1.7-0.7-1.7-1.6v-0.4
					C844.7,315.6,845.4,314.9,846.3,314.9z"/>
				<path class="st5" d="M846.3,310h0.3c0.9,0,1.7,0.7,1.7,1.6v0.4c0,0.9-0.7,1.6-1.7,1.6h-0.3c-0.9,0-1.7-0.7-1.7-1.6v-0.4
					C844.7,310.7,845.4,310,846.3,310z"/>
				<path class="st5" d="M832,315.3h0.3c0.9,0,1.7,0.7,1.7,1.6v0.4c0,0.9-0.7,1.6-1.7,1.6H832c-0.9,0-1.7-0.7-1.7-1.6V317
					C830.3,316.1,831.1,315.3,832,315.3z"/>
				<path class="st5" d="M841.4,319.8h0.3c0.9,0,1.7,0.7,1.7,1.6v0.4c0,0.9-0.7,1.6-1.7,1.6h-0.3c-0.9,0-1.7-0.7-1.7-1.6v-0.4
					C839.7,320.5,840.4,319.8,841.4,319.8z"/>
				<path class="st5" d="M836.4,329.7h0.3c0.9,0,1.7,0.7,1.7,1.6v0.4c0,0.9-0.7,1.6-1.7,1.6h-0.3c-0.9,0-1.7-0.7-1.7-1.6v-0.4
					C834.8,330.5,835.5,329.7,836.4,329.7z"/>
			</g>
			<circle class="st11" cx="880.2" cy="331.5" r="3.6"/>
			<circle class="st11" cx="931.8" cy="331.5" r="1.9"/>
			<circle class="st11" cx="931.8" cy="326.5" r="1.9"/>
			<path class="st2" d="M889.1,320.8h12c1.7,0,3,1.4,3,3v8.9c0,1.7-1.4,3-3,3h-12c-1.7,0-3-1.4-3-3v-8.9
				C886.1,322.1,887.4,320.8,889.1,320.8z"/>
			<path class="st2" d="M908.6,316.1h14.2c1.7,0,3,1.4,3,3v13.6c0,1.7-1.4,3-3,3h-14.2c-1.7,0-3-1.4-3-3v-13.6
				C905.6,317.4,907,316.1,908.6,316.1z"/>
			<path class="st2" d="M942.5,320.8h12c1.7,0,3,1.4,3,3v8.9c0,1.7-1.4,3-3,3h-12c-1.7,0-3-1.4-3-3v-8.9
				C939.5,322.1,940.8,320.8,942.5,320.8z"/>
			<path class="st12" d="M909.5,326.9H922c0.9,0,1.5,0.7,1.5,1.5v2.5c0,0.9-0.7,1.5-1.5,1.5h-12.5c-0.9,0-1.5-0.7-1.5-1.5v-2.5
				C908,327.6,908.7,326.9,909.5,326.9z"/>
			<path class="st12" d="M909.5,318.9H922c0.9,0,1.5,0.7,1.5,1.5v2.5c0,0.9-0.7,1.5-1.5,1.5h-12.5c-0.9,0-1.5-0.7-1.5-1.5v-2.5
				C908,319.6,908.7,318.9,909.5,318.9z"/>
			<circle class="st13" cx="955.5" cy="322.8" r="1.3"/>
			<circle class="st14" cx="941.5" cy="322.8" r="1.3"/>
			<path class="st2" d="M965.3,320.8h12c1.7,0,3,1.4,3,3v8.9c0,1.7-1.4,3-3,3h-12c-1.7,0-3-1.4-3-3v-8.9
				C962.2,322.1,963.6,320.8,965.3,320.8z"/>
			<circle class="st13" cx="978.3" cy="322.8" r="1.3"/>
			<circle class="st14" cx="964.2" cy="322.8" r="1.3"/>
			<path class="st2" d="M988.1,320.8h12c1.7,0,3,1.4,3,3v8.9c0,1.7-1.4,3-3,3h-12c-1.7,0-3-1.4-3-3v-8.9
				C985,322.1,986.4,320.8,988.1,320.8z"/>
			<circle class="st13" cx="1001.1" cy="322.8" r="1.3"/>
			<circle class="st14" cx="987" cy="322.8" r="1.3"/>
			<path class="st2" d="M1010.8,320.8h12c1.7,0,3,1.4,3,3v8.9c0,1.7-1.4,3-3,3h-12c-1.7,0-3-1.4-3-3v-8.9
				C1007.8,322.1,1009.2,320.8,1010.8,320.8z"/>
			<path class="st13" d="M1023.8,321.4c0.7,0,1.3,0.6,1.3,1.3s-0.6,1.3-1.3,1.3s-1.3-0.6-1.3-1.3S1023.1,321.4,1023.8,321.4z"/>
			<circle class="st14" cx="1009.8" cy="322.8" r="1.3"/>
			<path class="st2" d="M1033.6,320.8h12c1.7,0,3,1.4,3,3v8.9c0,1.7-1.4,3-3,3h-12c-1.7,0-3-1.4-3-3v-8.9
				C1030.6,322.1,1031.9,320.8,1033.6,320.8z"/>
			<circle class="st13" cx="1046.6" cy="322.8" r="1.3"/>
			<circle class="st14" cx="1032.6" cy="322.8" r="1.3"/>
			<path class="st2" d="M1056.4,320.8h12c1.7,0,3,1.4,3,3v8.9c0,1.7-1.4,3-3,3h-12c-1.7,0-3-1.4-3-3v-8.9
				C1053.4,322.1,1054.7,320.8,1056.4,320.8z"/>
			<g>
				<path class="st12" d="M1067.2,333.8h-9.7c-0.4,0-0.7-0.3-0.7-0.7v-7.9c0-0.4,0.3-0.7,0.7-0.7h1v-0.4c0-0.4,0.3-0.7,0.7-0.7h0.4
					v-0.5c0-0.4,0.3-0.7,0.7-0.7h4.2c0.4,0,0.7,0.3,0.7,0.7v0.5h0.4c0.4,0,0.7,0.3,0.7,0.7v0.4h1c0.4,0,0.7,0.3,0.7,0.7v7.9
					C1068,333.5,1067.6,333.8,1067.2,333.8L1067.2,333.8z"/>
				<g>
					<defs>
						<path id="SVGID_1_" d="M1067.2,333.8h-9.7c-0.4,0-0.7-0.3-0.7-0.7v-7.9c0-0.4,0.3-0.7,0.7-0.7h1v-0.4c0-0.4,0.3-0.7,0.7-0.7
							h0.4v-0.5c0-0.4,0.3-0.7,0.7-0.7h4.2c0.4,0,0.7,0.3,0.7,0.7v0.5h0.4c0.4,0,0.7,0.3,0.7,0.7v0.4h1c0.4,0,0.7,0.3,0.7,0.7v7.9
							C1068,333.5,1067.6,333.8,1067.2,333.8L1067.2,333.8z"/>
					</defs>
					<clipPath id="SVGID_00000145038963509588825480000013544055515301002922_">
						<use xlink:href="#SVGID_1_"  style="overflow:visible;"/>
					</clipPath>
					<g style="clip-path:url(#SVGID_00000145038963509588825480000013544055515301002922_);">
						<g>
							<line class="st16" x1="1059.8" y1="334.2" x2="1059.8" y2="330.8"/>
							<line class="st16" x1="1062.2" y1="334.2" x2="1062.2" y2="330.8"/>
							<line class="st16" x1="1064.5" y1="334.2" x2="1064.5" y2="330.8"/>
						</g>
					</g>
				</g>
			</g>
			<g>
				<path class="st12" d="M1044.5,333.8h-9.7c-0.4,0-0.7-0.3-0.7-0.7v-7.9c0-0.4,0.3-0.7,0.7-0.7h1v-0.4c0-0.4,0.3-0.7,0.7-0.7h0.4
					v-0.5c0-0.4,0.3-0.7,0.7-0.7h4.2c0.4,0,0.7,0.3,0.7,0.7v0.5h0.4c0.4,0,0.7,0.3,0.7,0.7v0.4h1c0.4,0,0.7,0.3,0.7,0.7v7.9
					C1045.2,333.5,1044.9,333.8,1044.5,333.8L1044.5,333.8z"/>
				<g>
					<defs>
						<path id="SVGID_00000098924272815802726710000011247894664502848148_" d="M1044.5,333.8h-9.7c-0.4,0-0.7-0.3-0.7-0.7v-7.9
							c0-0.4,0.3-0.7,0.7-0.7h1v-0.4c0-0.4,0.3-0.7,0.7-0.7h0.4v-0.5c0-0.4,0.3-0.7,0.7-0.7h4.2c0.4,0,0.7,0.3,0.7,0.7v0.5h0.4
							c0.4,0,0.7,0.3,0.7,0.7v0.4h1c0.4,0,0.7,0.3,0.7,0.7v7.9C1045.2,333.5,1044.9,333.8,1044.5,333.8L1044.5,333.8z"/>
					</defs>
					<clipPath id="SVGID_00000145056507211924847890000015686260561596936089_">
						<use xlink:href="#SVGID_00000098924272815802726710000011247894664502848148_"  style="overflow:visible;"/>
					</clipPath>
					<g style="clip-path:url(#SVGID_00000145056507211924847890000015686260561596936089_);">
						<g>
							<line class="st16" x1="1037" y1="334.2" x2="1037" y2="330.8"/>
							<line class="st16" x1="1039.4" y1="334.2" x2="1039.4" y2="330.8"/>
							<line class="st16" x1="1041.8" y1="334.2" x2="1041.8" y2="330.8"/>
						</g>
					</g>
				</g>
			</g>
			<g>
				<path class="st12" d="M1021.7,333.8h-9.7c-0.4,0-0.7-0.3-0.7-0.7v-7.9c0-0.4,0.3-0.7,0.7-0.7h1v-0.4c0-0.4,0.3-0.7,0.7-0.7h0.4
					v-0.5c0-0.4,0.3-0.7,0.7-0.7h4.2c0.4,0,0.7,0.3,0.7,0.7v0.5h0.4c0.4,0,0.7,0.3,0.7,0.7v0.4h1c0.4,0,0.7,0.3,0.7,0.7v7.9
					C1022.4,333.5,1022.1,333.8,1021.7,333.8L1021.7,333.8z"/>
				<g>
					<defs>
						<path id="SVGID_00000037674758447621944820000005015863434735090079_" d="M1021.7,333.8h-9.7c-0.4,0-0.7-0.3-0.7-0.7v-7.9
							c0-0.4,0.3-0.7,0.7-0.7h1v-0.4c0-0.4,0.3-0.7,0.7-0.7h0.4v-0.5c0-0.4,0.3-0.7,0.7-0.7h4.2c0.4,0,0.7,0.3,0.7,0.7v0.5h0.4
							c0.4,0,0.7,0.3,0.7,0.7v0.4h1c0.4,0,0.7,0.3,0.7,0.7v7.9C1022.4,333.5,1022.1,333.8,1021.7,333.8L1021.7,333.8z"/>
					</defs>
					<clipPath id="SVGID_00000173146201078946000040000009067390884155443613_">
						<use xlink:href="#SVGID_00000037674758447621944820000005015863434735090079_"  style="overflow:visible;"/>
					</clipPath>
					<g style="clip-path:url(#SVGID_00000173146201078946000040000009067390884155443613_);">
						<g>
							<line class="st16" x1="1014.2" y1="334.2" x2="1014.2" y2="330.8"/>
							<line class="st16" x1="1016.6" y1="334.2" x2="1016.6" y2="330.8"/>
							<line class="st16" x1="1019" y1="334.2" x2="1019" y2="330.8"/>
						</g>
					</g>
				</g>
			</g>
			<g>
				<path class="st12" d="M998.9,333.8h-9.7c-0.4,0-0.7-0.3-0.7-0.7v-7.9c0-0.4,0.3-0.7,0.7-0.7h1v-0.4c0-0.4,0.3-0.7,0.7-0.7h0.4
					v-0.5c0-0.4,0.3-0.7,0.7-0.7h4.2c0.4,0,0.7,0.3,0.7,0.7v0.5h0.4c0.4,0,0.7,0.3,0.7,0.7v0.4h1c0.4,0,0.7,0.3,0.7,0.7v7.9
					C999.6,333.5,999.3,333.8,998.9,333.8L998.9,333.8z"/>
				<g>
					<defs>
						<path id="SVGID_00000175304018860013333870000006159287297976063138_" d="M998.9,333.8h-9.7c-0.4,0-0.7-0.3-0.7-0.7v-7.9
							c0-0.4,0.3-0.7,0.7-0.7h1v-0.4c0-0.4,0.3-0.7,0.7-0.7h0.4v-0.5c0-0.4,0.3-0.7,0.7-0.7h4.2c0.4,0,0.7,0.3,0.7,0.7v0.5h0.4
							c0.4,0,0.7,0.3,0.7,0.7v0.4h1c0.4,0,0.7,0.3,0.7,0.7v7.9C999.6,333.5,999.3,333.8,998.9,333.8L998.9,333.8z"/>
					</defs>
					<clipPath id="SVGID_00000051342746843979542630000001660837060986843277_">
						<use xlink:href="#SVGID_00000175304018860013333870000006159287297976063138_"  style="overflow:visible;"/>
					</clipPath>
					<g style="clip-path:url(#SVGID_00000051342746843979542630000001660837060986843277_);">
						<g>
							<line class="st16" x1="991.5" y1="334.2" x2="991.5" y2="330.8"/>
							<line class="st16" x1="993.8" y1="334.2" x2="993.8" y2="330.8"/>
							<line class="st16" x1="996.2" y1="334.2" x2="996.2" y2="330.8"/>
						</g>
					</g>
				</g>
			</g>
			<g>
				<path class="st12" d="M976.1,333.8h-9.7c-0.4,0-0.7-0.3-0.7-0.7v-7.9c0-0.4,0.3-0.7,0.7-0.7h1v-0.4c0-0.4,0.3-0.7,0.7-0.7h0.4
					v-0.5c0-0.4,0.3-0.7,0.7-0.7h4.2c0.4,0,0.7,0.3,0.7,0.7v0.5h0.4c0.4,0,0.7,0.3,0.7,0.7v0.4h1c0.4,0,0.7,0.3,0.7,0.7v7.9
					C976.9,333.5,976.5,333.8,976.1,333.8L976.1,333.8z"/>
				<g>
					<defs>
						<path id="SVGID_00000134956073915961466460000011114967151157317055_" d="M976.1,333.8h-9.7c-0.4,0-0.7-0.3-0.7-0.7v-7.9
							c0-0.4,0.3-0.7,0.7-0.7h1v-0.4c0-0.4,0.3-0.7,0.7-0.7h0.4v-0.5c0-0.4,0.3-0.7,0.7-0.7h4.2c0.4,0,0.7,0.3,0.7,0.7v0.5h0.4
							c0.4,0,0.7,0.3,0.7,0.7v0.4h1c0.4,0,0.7,0.3,0.7,0.7v7.9C976.9,333.5,976.5,333.8,976.1,333.8L976.1,333.8z"/>
					</defs>
					<clipPath id="SVGID_00000140692499953021315430000011920709252165482148_">
						<use xlink:href="#SVGID_00000134956073915961466460000011114967151157317055_"  style="overflow:visible;"/>
					</clipPath>
					<g style="clip-path:url(#SVGID_00000140692499953021315430000011920709252165482148_);">
						<g>
							<line class="st16" x1="968.7" y1="334.2" x2="968.7" y2="330.8"/>
							<line class="st16" x1="971.1" y1="334.2" x2="971.1" y2="330.8"/>
							<line class="st16" x1="973.4" y1="334.2" x2="973.4" y2="330.8"/>
						</g>
					</g>
				</g>
			</g>
			<g>
				<path class="st12" d="M953.4,333.8h-9.7c-0.4,0-0.7-0.3-0.7-0.7v-7.9c0-0.4,0.3-0.7,0.7-0.7h1v-0.4c0-0.4,0.3-0.7,0.7-0.7h0.4
					v-0.5c0-0.4,0.3-0.7,0.7-0.7h4.2c0.4,0,0.7,0.3,0.7,0.7v0.5h0.4c0.4,0,0.7,0.3,0.7,0.7v0.4h1c0.4,0,0.7,0.3,0.7,0.7v7.9
					C954.1,333.5,953.8,333.8,953.4,333.8L953.4,333.8z"/>
				<g>
					<defs>
						<path id="SVGID_00000127040351102911266480000013788137482674197386_" d="M953.4,333.8h-9.7c-0.4,0-0.7-0.3-0.7-0.7v-7.9
							c0-0.4,0.3-0.7,0.7-0.7h1v-0.4c0-0.4,0.3-0.7,0.7-0.7h0.4v-0.5c0-0.4,0.3-0.7,0.7-0.7h4.2c0.4,0,0.7,0.3,0.7,0.7v0.5h0.4
							c0.4,0,0.7,0.3,0.7,0.7v0.4h1c0.4,0,0.7,0.3,0.7,0.7v7.9C954.1,333.5,953.8,333.8,953.4,333.8L953.4,333.8z"/>
					</defs>
					<clipPath id="SVGID_00000166676514507362788670000010627852493663298691_">
						<use xlink:href="#SVGID_00000127040351102911266480000013788137482674197386_"  style="overflow:visible;"/>
					</clipPath>
					<g style="clip-path:url(#SVGID_00000166676514507362788670000010627852493663298691_);">
						<g>
							<line class="st16" x1="945.9" y1="334.2" x2="945.9" y2="330.8"/>
							<line class="st16" x1="948.3" y1="334.2" x2="948.3" y2="330.8"/>
							<line class="st16" x1="950.6" y1="334.2" x2="950.6" y2="330.8"/>
						</g>
					</g>
				</g>
			</g>
			<g>
				<path class="st12" d="M900,322.2h-9.7c-0.4,0-0.7,0.3-0.7,0.7v7.9c0,0.4,0.3,0.7,0.7,0.7h1v0.4c0,0.4,0.3,0.7,0.7,0.7h0.4v0.5
					c0,0.4,0.3,0.7,0.7,0.7h4.2c0.4,0,0.7-0.3,0.7-0.7v-0.5h0.4c0.4,0,0.7-0.3,0.7-0.7v-0.4h1c0.4,0,0.7-0.3,0.7-0.7v-7.9
					C900.7,322.5,900.4,322.2,900,322.2L900,322.2z"/>
				<g>
					<defs>
						<path id="SVGID_00000031201337336436424900000000711022261402898068_" d="M900,322.2h-9.7c-0.4,0-0.7,0.3-0.7,0.7v7.9
							c0,0.4,0.3,0.7,0.7,0.7h1v0.4c0,0.4,0.3,0.7,0.7,0.7h0.4v0.5c0,0.4,0.3,0.7,0.7,0.7h4.2c0.4,0,0.7-0.3,0.7-0.7v-0.5h0.4
							c0.4,0,0.7-0.3,0.7-0.7v-0.4h1c0.4,0,0.7-0.3,0.7-0.7v-7.9C900.7,322.5,900.4,322.2,900,322.2L900,322.2z"/>
					</defs>
					<clipPath id="SVGID_00000085936153285449002980000015249606423233172386_">
						<use xlink:href="#SVGID_00000031201337336436424900000000711022261402898068_"  style="overflow:visible;"/>
					</clipPath>
					<g style="clip-path:url(#SVGID_00000085936153285449002980000015249606423233172386_);">
						<g>
							<line class="st16" x1="892.5" y1="321.8" x2="892.5" y2="325.2"/>
							<line class="st16" x1="894.9" y1="321.8" x2="894.9" y2="325.2"/>
							<line class="st16" x1="897.3" y1="321.8" x2="897.3" y2="325.2"/>
						</g>
					</g>
				</g>
			</g>
			<circle class="st13" cx="1069.4" cy="322.8" r="1.3"/>
			<circle class="st14" cx="1055.4" cy="322.8" r="1.3"/>
			<path class="st23" d="M1121.1,341.4c0-1.3-0.4-3.9-1.3-4.9c-0.9-1-2-1.4-3.2-1.3c-1.2-0.1-2.3,0.4-3.1,1.3
				c-0.9,1-1.3,3.6-1.3,4.9 M1114.7,341.4c0-0.9,0.1-3.4,0.5-4.2c0.3-0.6,0.7-1.1,1.5-1.1c0.3,0,0.7,0.1,0.9,0.3
				c0.3,0.3,0.5,0.7,0.7,1.1c0.3,0.7,0.3,3.1,0.3,3.9"/>
			<path class="st23" d="M1121.1,298.4c0,1.3-0.4,3.9-1.3,4.9c-0.9,1-2,1.4-3.2,1.3c-1.2,0.1-2.3-0.4-3.1-1.3
				c-0.9-1-1.3-3.6-1.3-4.9 M1114.7,298.4c0,0.9,0.1,3.4,0.5,4.2c0.3,0.6,0.7,1.1,1.5,1.1c0.3,0,0.7-0.1,0.9-0.3
				c0.3-0.3,0.5-0.7,0.7-1.1c0.3-0.7,0.3-3.1,0.3-3.9"/>
			<g>
				<path class="st24" d="M1137.5,318.7h-1.1l-0.2,0.5h-0.5l1-2.7h0.5l1,2.7h-0.5L1137.5,318.7L1137.5,318.7z M1137.4,318.4
					l-0.4-1.3l-0.4,1.3H1137.4L1137.4,318.4z"/>
				<path class="st24" d="M1139.9,317.2c0.1,0.1,0.2,0.1,0.3,0.2v-0.3h0.4v2.2c0,0.2,0,0.4-0.1,0.5s-0.2,0.3-0.4,0.4
					c-0.2,0.1-0.3,0.1-0.6,0.1c-0.3,0-0.5-0.1-0.7-0.2s-0.3-0.3-0.3-0.6h0.4c0,0.1,0.1,0.2,0.2,0.3c0.1,0.1,0.2,0.1,0.4,0.1
					c0.2,0,0.3,0,0.4-0.2c0.1-0.1,0.2-0.3,0.2-0.5v-0.4c-0.1,0.1-0.2,0.2-0.3,0.3s-0.3,0.1-0.4,0.1c-0.2,0-0.4,0-0.5-0.1
					c-0.2-0.1-0.3-0.2-0.4-0.4c-0.1-0.2-0.1-0.4-0.1-0.6s0-0.4,0.1-0.6c0.1-0.2,0.2-0.3,0.4-0.4c0.2-0.1,0.3-0.1,0.5-0.1
					C1139.7,317.1,1139.8,317.1,1139.9,317.2L1139.9,317.2z M1140.1,317.8c-0.1-0.1-0.1-0.2-0.2-0.2s-0.2-0.1-0.3-0.1
					s-0.2,0-0.3,0.1c-0.1,0.1-0.2,0.1-0.2,0.2c-0.1,0.1-0.1,0.2-0.1,0.4s0,0.3,0.1,0.4c0.1,0.1,0.1,0.2,0.2,0.3s0.2,0.1,0.3,0.1
					s0.2,0,0.3-0.1s0.2-0.1,0.2-0.2c0.1-0.1,0.1-0.2,0.1-0.4S1140.2,317.9,1140.1,317.8L1140.1,317.8z M1140.1,316.8
					c-0.1,0.1-0.2,0.1-0.4,0.1s-0.3,0-0.4-0.1c-0.1-0.1-0.2-0.2-0.2-0.4v-0.1h0.2c0,0.1,0,0.2,0.1,0.2s0.1,0.1,0.3,0.1
					s0.2,0,0.3-0.1s0.1-0.1,0.1-0.2h0.3v0.1C1140.2,316.6,1140.2,316.7,1140.1,316.8L1140.1,316.8z"/>
				<path class="st24" d="M1144.2,317.3c-0.1-0.1-0.2-0.2-0.3-0.3s-0.3-0.1-0.4-0.1c-0.2,0-0.3,0-0.5,0.1s-0.2,0.2-0.3,0.3
					c-0.1,0.1-0.1,0.3-0.1,0.5s0,0.4,0.1,0.5s0.2,0.3,0.3,0.4c0.1,0.1,0.3,0.1,0.5,0.1c0.2,0,0.4-0.1,0.6-0.2
					c0.2-0.1,0.2-0.3,0.3-0.5h-1v-0.4h1.5v0.4c0,0.2-0.1,0.4-0.2,0.6s-0.3,0.3-0.5,0.4s-0.4,0.2-0.7,0.2c-0.3,0-0.5-0.1-0.7-0.2
					s-0.4-0.3-0.5-0.5s-0.2-0.5-0.2-0.7s0.1-0.5,0.2-0.7c0.1-0.2,0.3-0.4,0.5-0.5s0.4-0.2,0.7-0.2c0.3,0,0.6,0.1,0.8,0.2
					s0.4,0.3,0.5,0.6L1144.2,317.3L1144.2,317.3z"/>
				<path class="st24" d="M1147.2,317.1v2.1h-0.4V319c-0.1,0.1-0.2,0.2-0.3,0.2c-0.1,0-0.2,0.1-0.4,0.1c-0.2,0-0.3,0-0.4-0.1
					s-0.2-0.2-0.3-0.3s-0.1-0.3-0.1-0.5v-1.3h0.4v1.2c0,0.2,0.1,0.3,0.1,0.4c0.1,0.1,0.2,0.1,0.4,0.1s0.3,0,0.4-0.1s0.2-0.2,0.2-0.4
					v-1.2L1147.2,317.1L1147.2,317.1z M1145.8,316.8c0,0-0.1-0.1-0.1-0.2s0-0.1,0.1-0.2s0.1-0.1,0.2-0.1s0.1,0,0.2,0.1
					s0.1,0.1,0.1,0.2s0,0.1-0.1,0.2s-0.1,0.1-0.2,0.1S1145.8,316.8,1145.8,316.8z M1146.4,316.8c0,0-0.1-0.1-0.1-0.2s0-0.1,0.1-0.2
					s0.1-0.1,0.2-0.1s0.1,0,0.2,0.1s0.1,0.1,0.1,0.2s0,0.1-0.1,0.2s-0.1,0.1-0.2,0.1S1146.5,316.8,1146.4,316.8z"/>
				<path class="st24" d="M1148.7,318.9l0.6-1.8h0.5l-0.8,2.1h-0.5l-0.8-2.1h0.5L1148.7,318.9z"/>
				<path class="st24" d="M1152,318.4h-1.6c0,0.2,0.1,0.3,0.2,0.4s0.2,0.2,0.4,0.2c0.2,0,0.4-0.1,0.5-0.3h0.5
					c-0.1,0.2-0.2,0.4-0.3,0.5c-0.2,0.1-0.4,0.2-0.6,0.2c-0.2,0-0.4,0-0.6-0.1s-0.3-0.2-0.4-0.4s-0.1-0.4-0.1-0.6s0-0.4,0.1-0.6
					c0.1-0.2,0.2-0.3,0.4-0.4s0.3-0.1,0.6-0.1s0.4,0,0.5,0.1s0.3,0.2,0.4,0.4s0.1,0.3,0.1,0.5C1152,318.2,1152,318.3,1152,318.4
					L1152,318.4z M1151.6,318c0-0.2-0.1-0.3-0.2-0.4c-0.1-0.1-0.3-0.1-0.4-0.1c-0.2,0-0.3,0-0.4,0.1c-0.1,0.1-0.2,0.2-0.2,0.4
					L1151.6,318L1151.6,318z"/>
				<path class="st24" d="M1154,317.2c0.1,0.1,0.2,0.2,0.3,0.3c0.1,0.1,0.1,0.3,0.1,0.5v1.3h-0.4v-1.2c0-0.2-0.1-0.3-0.1-0.4
					s-0.2-0.1-0.4-0.1s-0.3,0-0.4,0.1s-0.2,0.2-0.2,0.4v1.2h-0.4v-2.1h0.4v0.2c0.1-0.1,0.2-0.2,0.3-0.2s0.2-0.1,0.4-0.1
					C1153.7,317.1,1153.9,317.1,1154,317.2L1154,317.2z"/>
				<path class="st24" d="M1155.4,316.4v2.9h-0.4v-2.9H1155.4z"/>
				<path class="st24" d="M1156.1,316.8c-0.1,0-0.1-0.1-0.1-0.2s0-0.1,0.1-0.2s0.1-0.1,0.2-0.1s0.1,0,0.2,0.1s0.1,0.1,0.1,0.2
					s0,0.1-0.1,0.2c-0.1,0-0.1,0.1-0.2,0.1S1156.1,316.8,1156.1,316.8z M1156.5,317.1v2.1h-0.4v-2.1H1156.5z"/>
				<path class="st24" d="M1157.9,318.2l1,1.1h-0.6l-0.8-0.9v0.9h-0.4v-2.9h0.4v1.7l0.8-0.9h0.6L1157.9,318.2L1157.9,318.2z"/>
				<path class="st24" d="M1161.1,318.9l0.6-1.8h0.5l-0.8,2.1h-0.5l-0.8-2.1h0.5L1161.1,318.9z"/>
				<path class="st24" d="M1164.4,318.4h-1.6c0,0.2,0.1,0.3,0.2,0.4s0.2,0.2,0.4,0.2c0.2,0,0.4-0.1,0.5-0.3h0.5
					c-0.1,0.2-0.2,0.4-0.3,0.5c-0.2,0.1-0.4,0.2-0.6,0.2c-0.2,0-0.4,0-0.6-0.1s-0.3-0.2-0.4-0.4s-0.1-0.4-0.1-0.6s0-0.4,0.1-0.6
					c0.1-0.2,0.2-0.3,0.4-0.4s0.3-0.1,0.6-0.1s0.4,0,0.5,0.1s0.3,0.2,0.4,0.4s0.1,0.3,0.1,0.5
					C1164.5,318.2,1164.5,318.3,1164.4,318.4L1164.4,318.4z M1164,318c0-0.2-0.1-0.3-0.2-0.4c-0.1-0.1-0.3-0.1-0.4-0.1
					c-0.2,0-0.3,0-0.4,0.1c-0.1,0.1-0.2,0.2-0.2,0.4L1164,318L1164,318z"/>
				<path class="st24" d="M1136.3,323.6h0.9v0.4h-1.4v-2.7h0.4V323.6z"/>
				<path class="st24" d="M1138,323.8c-0.2-0.1-0.3-0.2-0.4-0.4c-0.1-0.2-0.1-0.4-0.1-0.6s0.1-0.4,0.1-0.6c0.1-0.2,0.2-0.3,0.4-0.4
					c0.2-0.1,0.3-0.1,0.6-0.1s0.4,0,0.6,0.1c0.2,0.1,0.3,0.2,0.4,0.4c0.1,0.2,0.1,0.4,0.1,0.6s-0.1,0.4-0.2,0.6
					c-0.1,0.2-0.2,0.3-0.4,0.4c-0.2,0.1-0.4,0.1-0.6,0.1S1138.2,323.9,1138,323.8L1138,323.8z M1138.9,323.5c0.1,0,0.2-0.1,0.2-0.2
					c0.1-0.1,0.1-0.2,0.1-0.4s0-0.3-0.1-0.4c-0.1-0.1-0.1-0.2-0.2-0.2s-0.2-0.1-0.3-0.1s-0.2,0-0.3,0.1s-0.2,0.1-0.2,0.2
					c-0.1,0.1-0.1,0.2-0.1,0.4c0,0.2,0.1,0.4,0.2,0.5s0.3,0.2,0.4,0.2C1138.7,323.6,1138.8,323.6,1138.9,323.5L1138.9,323.5z"/>
				<path class="st24" d="M1141.4,321.9c0.1,0.1,0.2,0.1,0.3,0.2v-0.3h0.4v2.2c0,0.2,0,0.4-0.1,0.5s-0.2,0.3-0.4,0.4
					c-0.2,0.1-0.3,0.1-0.6,0.1c-0.3,0-0.5-0.1-0.7-0.2s-0.3-0.3-0.3-0.6h0.4c0,0.1,0.1,0.2,0.2,0.3c0.1,0.1,0.2,0.1,0.4,0.1
					c0.2,0,0.3,0,0.4-0.2c0.1-0.1,0.2-0.3,0.2-0.5v-0.4c-0.1,0.1-0.2,0.2-0.3,0.3s-0.3,0.1-0.4,0.1c-0.2,0-0.4,0-0.5-0.1
					c-0.2-0.1-0.3-0.2-0.4-0.4c-0.1-0.2-0.1-0.4-0.1-0.6s0-0.4,0.1-0.6c0.1-0.2,0.2-0.3,0.4-0.4c0.2-0.1,0.3-0.1,0.5-0.1
					C1141.2,321.8,1141.3,321.8,1141.4,321.9L1141.4,321.9z M1141.6,322.5c-0.1-0.1-0.1-0.2-0.2-0.2s-0.2-0.1-0.3-0.1
					s-0.2,0-0.3,0.1c-0.1,0.1-0.2,0.1-0.2,0.2c-0.1,0.1-0.1,0.2-0.1,0.4s0,0.3,0.1,0.4c0.1,0.1,0.1,0.2,0.2,0.3s0.2,0.1,0.3,0.1
					s0.2,0,0.3-0.1s0.2-0.1,0.2-0.2c0.1-0.1,0.1-0.2,0.1-0.4S1141.7,322.6,1141.6,322.5L1141.6,322.5z"/>
				<path class="st24" d="M1143.2,321.1v2.9h-0.4v-2.9H1143.2z"/>
				<path class="st24" d="M1143.8,322.3c0.1-0.2,0.2-0.3,0.4-0.4c0.2-0.1,0.3-0.1,0.5-0.1c0.2,0,0.3,0,0.4,0.1s0.2,0.1,0.3,0.2v-0.3
					h0.4v2.1h-0.4v-0.3c-0.1,0.1-0.2,0.2-0.3,0.2c-0.1,0.1-0.3,0.1-0.4,0.1c-0.2,0-0.3,0-0.5-0.1c-0.2-0.1-0.3-0.2-0.4-0.4
					c-0.1-0.2-0.1-0.4-0.1-0.6S1143.7,322.4,1143.8,322.3L1143.8,322.3z M1145.3,322.5c-0.1-0.1-0.1-0.2-0.2-0.2s-0.2-0.1-0.3-0.1
					s-0.2,0-0.3,0.1c-0.1,0.1-0.2,0.1-0.2,0.2c-0.1,0.1-0.1,0.2-0.1,0.4s0,0.3,0.1,0.4c0.1,0.1,0.1,0.2,0.2,0.3s0.2,0.1,0.3,0.1
					s0.2,0,0.3-0.1s0.2-0.1,0.2-0.2c0.1-0.1,0.1-0.2,0.1-0.4S1145.4,322.6,1145.3,322.5L1145.3,322.5z"/>
				<path class="st24" d="M1149.5,321.9c0.1,0.1,0.2,0.2,0.3,0.3c0.1,0.1,0.1,0.3,0.1,0.5v1.3h-0.4v-1.2c0-0.2-0.1-0.3-0.1-0.4
					s-0.2-0.1-0.4-0.1s-0.3,0-0.4,0.1s-0.2,0.2-0.2,0.4v1.2h-0.4v-1.2c0-0.2-0.1-0.3-0.1-0.4s-0.2-0.1-0.4-0.1s-0.3,0-0.4,0.1
					s-0.2,0.2-0.2,0.4v1.2h-0.4v-2.1h0.4v0.2c0.1-0.1,0.2-0.2,0.3-0.2s0.2-0.1,0.4-0.1c0.2,0,0.3,0,0.5,0.1c0.1,0.1,0.2,0.2,0.3,0.3
					c0.1-0.1,0.2-0.2,0.3-0.3c0.1-0.1,0.3-0.1,0.4-0.1C1149.2,321.8,1149.4,321.8,1149.5,321.9L1149.5,321.9z"/>
				<path class="st24" d="M1150.5,322.3c0.1-0.2,0.2-0.3,0.4-0.4c0.2-0.1,0.3-0.1,0.5-0.1c0.2,0,0.3,0,0.4,0.1s0.2,0.1,0.3,0.2v-0.3
					h0.4v2.1h-0.4v-0.3c-0.1,0.1-0.2,0.2-0.3,0.2c-0.1,0.1-0.3,0.1-0.4,0.1c-0.2,0-0.3,0-0.5-0.1c-0.2-0.1-0.3-0.2-0.4-0.4
					c-0.1-0.2-0.1-0.4-0.1-0.6S1150.4,322.4,1150.5,322.3L1150.5,322.3z M1152,322.5c-0.1-0.1-0.1-0.2-0.2-0.2s-0.2-0.1-0.3-0.1
					s-0.2,0-0.3,0.1c-0.1,0.1-0.2,0.1-0.2,0.2c-0.1,0.1-0.1,0.2-0.1,0.4s0,0.3,0.1,0.4c0.1,0.1,0.1,0.2,0.2,0.3s0.2,0.1,0.3,0.1
					s0.2,0,0.3-0.1s0.2-0.1,0.2-0.2c0.1-0.1,0.1-0.2,0.1-0.4S1152.1,322.6,1152,322.5L1152,322.5z"/>
				<path class="st24" d="M1154.6,323.9c-0.2-0.1-0.3-0.1-0.3-0.3s-0.1-0.2-0.1-0.4h0.5c0,0.1,0.1,0.2,0.1,0.3
					c0.1,0.1,0.2,0.1,0.3,0.1s0.3,0,0.4-0.1c0.1-0.1,0.1-0.2,0.1-0.3c0-0.1,0-0.2-0.1-0.2s-0.1-0.1-0.2-0.1s-0.2-0.1-0.3-0.1
					c-0.2,0-0.3-0.1-0.4-0.1c-0.1,0-0.2-0.1-0.3-0.2c-0.1-0.1-0.1-0.2-0.1-0.4c0-0.2,0-0.3,0.1-0.4s0.2-0.2,0.3-0.3s0.3-0.1,0.5-0.1
					c0.3,0,0.5,0.1,0.7,0.2s0.3,0.3,0.3,0.5h-0.5c0-0.1-0.1-0.2-0.1-0.2s-0.2-0.1-0.3-0.1c-0.1,0-0.2,0-0.3,0.1
					c-0.1,0.1-0.1,0.2-0.1,0.3c0,0.1,0,0.1,0.1,0.2s0.1,0.1,0.2,0.1s0.2,0.1,0.3,0.1c0.2,0,0.3,0.1,0.4,0.1s0.2,0.1,0.3,0.2
					c0.1,0.1,0.1,0.2,0.1,0.4c0,0.1,0,0.3-0.1,0.4c-0.1,0.1-0.2,0.2-0.3,0.3s-0.3,0.1-0.5,0.1C1154.9,324,1154.7,324,1154.6,323.9
					L1154.6,323.9z"/>
				<path class="st24" d="M1156.5,321.4c-0.1,0-0.1-0.1-0.1-0.2s0-0.1,0.1-0.2s0.1-0.1,0.2-0.1s0.1,0,0.2,0.1s0.1,0.1,0.1,0.2
					s0,0.1-0.1,0.2c-0.1,0-0.1,0.1-0.2,0.1S1156.6,321.5,1156.5,321.4z M1157,321.8v2.1h-0.4v-2.1H1157z"/>
				<path class="st24" d="M1157.9,323.9c-0.1-0.1-0.2-0.1-0.3-0.2s-0.1-0.2-0.1-0.4h0.5c0,0.1,0.1,0.2,0.1,0.2s0.2,0.1,0.3,0.1
					s0.2,0,0.3-0.1c0.1,0,0.1-0.1,0.1-0.2c0-0.1,0-0.1-0.1-0.2c-0.1,0-0.2-0.1-0.4-0.1c-0.2,0-0.3-0.1-0.4-0.1s-0.2-0.1-0.3-0.2
					c-0.1-0.1-0.1-0.2-0.1-0.3c0-0.1,0-0.2,0.1-0.3s0.2-0.2,0.3-0.2s0.3-0.1,0.4-0.1c0.2,0,0.4,0.1,0.6,0.2c0.2,0.1,0.2,0.3,0.2,0.5
					h-0.4c0-0.1-0.1-0.2-0.1-0.2s-0.2-0.1-0.3-0.1s-0.2,0-0.3,0.1s-0.1,0.1-0.1,0.2c0,0.1,0,0.1,0.1,0.1s0.1,0.1,0.2,0.1
					s0.2,0,0.3,0.1c0.2,0,0.3,0.1,0.4,0.1c0.1,0,0.2,0.1,0.3,0.2c0.1,0.1,0.1,0.2,0.1,0.3c0,0.1,0,0.2-0.1,0.3
					c-0.1,0.1-0.2,0.2-0.3,0.2s-0.3,0.1-0.4,0.1S1158,324,1157.9,323.9L1157.9,323.9z"/>
				<path class="st24" d="M1160.1,322.2v1.2c0,0.1,0,0.1,0.1,0.2s0.1,0,0.2,0h0.3v0.4h-0.3c-0.2,0-0.3,0-0.5-0.1
					c-0.1-0.1-0.2-0.2-0.2-0.5v-1.2h-0.2v-0.4h0.2v-0.5h0.4v0.5h0.5v0.4L1160.1,322.2L1160.1,322.2z"/>
				<path class="st24" d="M1163,323h-1.6c0,0.2,0.1,0.3,0.2,0.4s0.2,0.2,0.4,0.2c0.2,0,0.4-0.1,0.5-0.3h0.5
					c-0.1,0.2-0.2,0.4-0.3,0.5c-0.2,0.1-0.4,0.2-0.6,0.2c-0.2,0-0.4,0-0.6-0.1s-0.3-0.2-0.4-0.4s-0.1-0.4-0.1-0.6s0-0.4,0.1-0.6
					c0.1-0.2,0.2-0.3,0.4-0.4s0.3-0.1,0.6-0.1s0.4,0,0.5,0.1s0.3,0.2,0.4,0.4s0.1,0.3,0.1,0.5C1163,322.9,1163,323,1163,323
					L1163,323z M1162.6,322.7c0-0.2-0.1-0.3-0.2-0.4c-0.1-0.1-0.3-0.1-0.4-0.1c-0.2,0-0.3,0-0.4,0.1c-0.1,0.1-0.2,0.2-0.2,0.4
					L1162.6,322.7L1162.6,322.7z"/>
				<path class="st24" d="M1166.5,321.9c0.1,0.1,0.2,0.2,0.3,0.3c0.1,0.1,0.1,0.3,0.1,0.5v1.3h-0.4v-1.2c0-0.2-0.1-0.3-0.1-0.4
					s-0.2-0.1-0.4-0.1s-0.3,0-0.4,0.1s-0.2,0.2-0.2,0.4v1.2h-0.4v-1.2c0-0.2-0.1-0.3-0.1-0.4s-0.2-0.1-0.4-0.1s-0.3,0-0.4,0.1
					s-0.2,0.2-0.2,0.4v1.2h-0.4v-2.1h0.4v0.2c0.1-0.1,0.2-0.2,0.3-0.2s0.2-0.1,0.4-0.1c0.2,0,0.3,0,0.5,0.1c0.1,0.1,0.2,0.2,0.3,0.3
					c0.1-0.1,0.2-0.2,0.3-0.3c0.1-0.1,0.3-0.1,0.4-0.1C1166.2,321.8,1166.4,321.8,1166.5,321.9L1166.5,321.9z"/>
				<path class="st24" d="M1167.6,321.4c-0.1,0-0.1-0.1-0.1-0.2s0-0.1,0.1-0.2s0.1-0.1,0.2-0.1s0.1,0,0.2,0.1s0.1,0.1,0.1,0.2
					s0,0.1-0.1,0.2c-0.1,0-0.1,0.1-0.2,0.1S1167.6,321.5,1167.6,321.4z M1168,321.8v2.1h-0.4v-2.1H1168z"/>
			</g>
		</g>
		<g class="st25">
			<g>
				<g>
					<defs>
						<polygon id="SVGID_00000060715533656235716530000014715404933787401118_" points="897.5,290.7 920.3,283 1033.1,283 
							1055.8,290.7 						"/>
					</defs>
					<clipPath id="SVGID_00000101086465079810130140000004326474290122266808_">
						<use xlink:href="#SVGID_00000060715533656235716530000014715404933787401118_"  style="overflow:visible;"/>
					</clipPath>
					<g style="clip-path:url(#SVGID_00000101086465079810130140000004326474290122266808_);">
						<g>
							<path class="st27" d="M1025.3,284.8c-0.9,0-1.8,0-2.7,0c-0.8,0-1.6,0-2.3,0.1s-1.4,0.1-2,0.1s-1.1,0.1-1.6,0.2
								c-0.5,0.1-1,0.2-1.3,0.3s-0.6,0.2-0.7,0.3s-0.2,0.2-0.1,0.3s0.2,0.2,0.4,0.4c0.1,0.1,0.3,0.1,0.4,0.2s0.3,0.1,0.5,0.2
								s0.5,0.1,0.8,0.2s0.6,0.1,1,0.2c0.2,0,0.5,0.1,0.8,0.1s0.6,0.1,1,0.1s0.7,0.1,1.1,0.1s0.8,0.1,1.2,0.1c0.4,0,0.8,0.1,1.3,0.1
								s0.9,0.1,1.4,0.1s0.9,0.1,1.4,0.1s1,0.1,1.5,0.1c0.6,0,1.2,0.1,1.7,0.1s1.2,0,1.7,0s1.2,0,1.7,0s1.1,0,1.7,0c0.5,0,1,0,1.5,0
								s0.9,0,1.4,0s0.9,0,1.4,0s0.9,0,1.4,0c0.4,0,0.8,0,1.2,0s0.8,0,1.2-0.1s0.8,0,1.1-0.1s0.7-0.1,1.1-0.1c0,0,0.1,0,0.1,0
								s0.1,0,0.1,0s0,0,0,0s0,0,0,0l-2.3-0.8c0,0-0.1,0-0.2-0.1s-0.1,0-0.2-0.1s-0.1,0-0.1-0.1s0,0,0,0c0,0,0,0,0.1,0s0.1,0,0.1,0
								s0.1,0,0.1,0s0.1,0,0.1,0c0.1,0,0.2,0,0.3,0s0.3,0,0.4,0s0.3,0,0.4,0s0.3,0,0.4,0s0.2,0,0.3,0s0.1,0,0.2,0s0.1,0,0,0
								s0,0-0.1,0l-0.2-0.1c0,0-0.1,0-0.2,0s-0.1,0-0.2,0s-0.2,0-0.2,0s-0.2,0-0.3,0h-11.9c-0.1,0-0.2,0-0.3,0s-0.1,0-0.2,0
								s-0.1,0-0.1,0s0,0,0.1,0l0.2,0.1c0,0,0.1,0,0.1,0s0.1,0,0.2,0s0.2,0,0.2,0s0.2,0,0.3,0h0.6c0.1,0,0.2,0,0.3,0s0.2,0,0.3,0
								s0.2,0,0.3,0s0.2,0,0.4,0c0.1,0,0.2,0,0.2,0s0.2,0,0.3,0s0.2,0,0.2,0s0.1,0,0.1,0c0.1,0,0.2,0,0.3,0s0.2,0,0.2,0.1
								s0.2,0,0.2,0.1s0.1,0,0.1,0.1l1.8,0.7c-0.1,0-0.2,0-0.3,0s-0.2,0-0.3,0s-0.2,0-0.4,0s-0.3,0-0.4,0.1c-0.2,0-0.3,0-0.4,0
								s-0.3,0-0.4,0s-0.3,0-0.4,0s-0.3,0-0.5,0c-0.4,0-0.8,0-1.2,0s-0.8,0-1.1,0s-0.8,0-1.2-0.1s-0.8,0-1.2-0.1
								c-0.4,0-0.8-0.1-1.2-0.1s-0.7-0.1-1-0.1s-0.6-0.1-0.9-0.1s-0.5-0.1-0.7-0.1c-0.3-0.1-0.6-0.2-0.9-0.2s-0.5-0.1-0.7-0.2
								s-0.4-0.1-0.6-0.2s-0.3-0.1-0.5-0.2c-0.1-0.1-0.2-0.1-0.3-0.2s-0.2-0.1-0.2-0.2s-0.1-0.1-0.1-0.2s-0.1-0.1-0.1-0.2
								c0,0,0-0.1,0.1-0.1s0.1-0.1,0.2-0.1s0.2-0.1,0.4-0.1s0.3-0.1,0.6-0.1c0.2,0,0.5,0,0.7-0.1s0.5,0,0.8,0s0.6,0,0.9,0
								s0.7,0,1.1,0s0.8,0,1.2,0s0.8,0,1.2,0s0.8,0,1.3,0.1s0.9,0.1,1.3,0.1c0.5,0,1,0.1,1.4,0.1s0.9,0.1,1.3,0.2s0.8,0.1,1.2,0.2
								s0.7,0.1,1.1,0.2c0,0,0.1,0,0.1,0s0.1,0,0.2,0s0.2,0,0.2,0s0.1,0,0.2,0h0.6c0.1,0,0.2,0,0.2,0s0.1,0,0.2,0s0.1,0,0.1,0
								s0,0-0.1,0l-3.1-1.1c0,0-0.1,0-0.1,0s-0.1,0-0.2,0s-0.1,0-0.2,0s-0.2,0-0.3,0h-0.6c0,0-0.1,0-0.2,0s-0.1,0-0.2,0
								s-0.1,0-0.1,0s0,0,0,0c0,0,0,0,0,0s0,0,0,0s0,0-0.1,0s0,0-0.1,0c0,0,0,0,0,0s0,0-0.1,0s-0.1,0-0.1,0s-0.1,0-0.1,0
								c-0.1,0-0.2,0-0.4,0s-0.3,0-0.5,0s-0.4,0-0.6,0s-0.3,0-0.4,0c-0.2,0-0.5,0-0.7,0s-0.5,0-0.7,0s-0.5,0-0.7,0s-0.4,0-0.7,0
								c-0.3,0-0.6,0-0.9,0s-0.6,0-0.8,0s-0.5,0-0.8,0S1025.6,284.8,1025.3,284.8"/>
							<path class="st27" d="M1000.6,288c-0.4,0-0.9,0-1.3,0s-0.8,0-1.1-0.1s-0.7-0.1-1-0.1s-0.6-0.1-0.8-0.1
								c-0.5-0.1-1-0.2-1.3-0.3s-0.7-0.2-0.9-0.3s-0.4-0.2-0.6-0.3s-0.2-0.2-0.3-0.3c-0.1-0.1-0.1-0.2-0.2-0.3s0-0.2,0-0.3
								s0.1-0.2,0.2-0.3s0.3-0.2,0.5-0.2c0.2,0,0.4-0.1,0.7-0.1s0.5-0.1,0.8-0.1s0.7-0.1,1.1-0.1s0.9,0,1.4,0c0.2,0,0.5,0,0.7,0
								s0.4,0,0.7,0s0.4,0,0.6,0s0.4,0,0.7,0.1c0.3,0,0.5,0,0.7,0.1s0.4,0.1,0.6,0.1s0.4,0.1,0.6,0.1s0.3,0.1,0.5,0.1
								c0.3,0.1,0.5,0.1,0.7,0.2s0.4,0.2,0.5,0.2s0.3,0.2,0.4,0.2s0.2,0.2,0.3,0.2s0.2,0.1,0.2,0.2s0.1,0.2,0.2,0.2s0,0.2,0,0.2
								s0,0.2-0.1,0.2c0,0-0.1,0.1-0.2,0.1s-0.2,0.1-0.4,0.1s-0.3,0.1-0.5,0.1s-0.4,0.1-0.7,0.1c-0.2,0-0.4,0-0.6,0.1s-0.4,0-0.7,0
								s-0.5,0-0.7,0S1000.9,288.1,1000.6,288 M998,284.7c-0.1,0-0.1,0-0.2,0s-0.1,0-0.2,0s-0.1,0-0.2,0s-0.1,0-0.2,0s-0.1,0-0.2,0
								s-0.1,0-0.2,0s-0.1,0-0.2,0s-0.1,0-0.2,0c-0.8,0-1.6,0-2.3,0s-1.4,0-2.1,0.1s-1.3,0.1-1.8,0.1s-1.1,0.1-1.6,0.2
								c-0.6,0.1-1.1,0.2-1.5,0.3s-0.8,0.2-1,0.3s-0.5,0.2-0.6,0.3s-0.1,0.2-0.1,0.4c0,0.1,0.1,0.2,0.3,0.3s0.4,0.2,0.7,0.3
								s0.6,0.2,1.1,0.3s0.9,0.2,1.5,0.3c0.8,0.1,1.6,0.2,2.5,0.3s1.9,0.2,2.9,0.2c1,0.1,2.1,0.1,3.2,0.1s2.3,0,3.5,0s2.4,0,3.5,0
								s2-0.1,2.9-0.1s1.7-0.1,2.4-0.2s1.3-0.2,1.8-0.4c0.4-0.1,0.7-0.2,0.9-0.3s0.4-0.2,0.4-0.3s0.1-0.2,0-0.3s-0.2-0.2-0.3-0.3
								c-0.2-0.1-0.5-0.2-0.8-0.4s-0.7-0.2-1.2-0.3s-1-0.2-1.6-0.3s-1.3-0.2-2-0.3c-0.7-0.1-1.4-0.1-2.1-0.2s-1.5-0.1-2.2-0.1
								s-1.5-0.1-2.3-0.1S998.8,284.7,998,284.7"/>
							<path class="st27" d="M972.8,284.8h-12.1c-0.1,0-0.2,0-0.2,0s-0.1,0-0.2,0s-0.1,0-0.1,0s0,0-0.1,0l-0.1,0.1c0,0,0,0,0,0
								s0,0,0.1,0s0.1,0,0.2,0s0.2,0,0.2,0h0.8c0.1,0,0.2,0,0.3,0s0.2,0,0.3,0s0.2,0,0.3,0s0.2,0,0.3,0c0,0,0.1,0,0.2,0s0.1,0,0.2,0
								s0.1,0,0.1,0s0.1,0,0,0c0,0,0.1,0,0.1,0s0,0,0,0.1s0,0,0,0.1s0,0,0,0l-1.4,2.3c0,0,0,0,0,0.1s0,0.1-0.1,0.1s-0.1,0.1-0.1,0.1
								s-0.1,0-0.2,0.1c0,0,0,0,0,0s-0.1,0-0.1,0s-0.1,0-0.2,0s-0.1,0-0.2,0c-0.1,0-0.2,0-0.4,0s-0.3,0-0.4,0s-0.3,0-0.4,0
								s-0.3,0-0.4,0h-0.9c-0.1,0-0.2,0-0.3,0s-0.2,0-0.2,0s-0.1,0-0.2,0s-0.1,0-0.1,0l-0.1,0.1c0,0,0,0,0,0s0,0,0.1,0s0.1,0,0.2,0
								s0.2,0,0.3,0h23.6c0.1,0,0.1,0,0.2,0s0.2,0,0.2,0s0.1,0,0.2,0s0.1,0,0.1,0l0.5-1.3c0,0,0,0,0,0s0,0,0,0s0,0-0.1,0
								s-0.1,0-0.1,0c0,0,0,0,0,0s-0.1,0-0.1,0s-0.1,0-0.1,0s-0.1,0-0.2,0h-0.8c0,0-0.1,0-0.2,0s-0.1,0-0.2,0s-0.1,0-0.2,0
								s-0.1,0-0.1,0c-0.1,0-0.2,0.1-0.3,0.2s-0.2,0.1-0.3,0.2s-0.3,0.1-0.4,0.2s-0.3,0.1-0.6,0.1c-0.2,0-0.3,0.1-0.5,0.1
								s-0.3,0.1-0.5,0.1s-0.4,0-0.5,0.1s-0.4,0-0.6,0.1s-0.5,0-0.7,0s-0.5,0-0.8,0s-0.5,0-0.8,0s-0.5,0-0.8,0h-2.2
								c-0.1,0-0.3,0-0.4,0s-0.4,0-0.6,0s-0.4,0-0.6,0s-0.3,0-0.4,0c0,0-0.1,0-0.1,0s0,0-0.1,0s0,0-0.1,0s0,0-0.1,0c0,0,0,0,0,0
								s0,0,0,0s0,0,0,0s0,0,0,0c0,0-0.1,0-0.1-0.1s0-0.1,0-0.1s0-0.1,0-0.1s0,0,0-0.1l0.7-2.2c0,0,0,0,0,0s0,0,0-0.1s0,0,0.1-0.1
								s0.1,0,0.1,0c0,0,0,0,0,0s0,0,0.1,0s0.1,0,0.1,0s0.1,0,0.2,0c0.1,0,0.2,0,0.3,0s0.2,0,0.4,0s0.2,0,0.4,0s0.2,0,0.3,0h1
								c0.1,0,0.2,0,0.3,0s0.1,0,0.2,0s0.1,0,0.1,0s0,0,0,0v-0.1c0,0,0,0,0,0s-0.1,0-0.1,0s-0.1,0-0.2,0S972.9,284.8,972.8,284.8"/>
							<path class="st27" d="M959.5,283.1c-0.1,0-0.2,0-0.3,0s-0.2,0-0.3,0s-0.2,0-0.3,0s-0.2,0-0.3,0c-0.8,0-1.4,0-2.1,0.1
								s-1.2,0.1-1.7,0.1s-1,0.1-1.5,0.2c-0.5,0.1-1,0.1-1.5,0.2l-44.5,6.1c-0.4,0-0.8,0.1-1.3,0.1s-1,0.1-1.5,0.1s-1.1,0.1-1.6,0.1
								s-1,0.1-1.4,0.1c-0.5,0-0.9,0-1.3,0.1s-0.7,0.1-1,0.1s-0.5,0.1-0.8,0.1s-0.4,0.1-0.6,0.1h20.9c0,0,0.1,0,0.2-0.1
								s0.2-0.1,0.2-0.2s-0.3-0.1-0.8-0.2s-1.4-0.1-2.7-0.2c-0.1,0-0.1,0-0.2,0s-0.1,0-0.2,0s-0.1,0-0.2,0s-0.1,0-0.2,0l22-3.1
								l11,3.1c-1.6,0.1-2.7,0.1-3.6,0.2s-1.3,0.1-1.7,0.2s-0.4,0.1-0.5,0.2s0,0.1,0,0.1h21.4c0,0-0.1-0.1-0.2-0.1s-0.2-0.1-0.3-0.1
								s-0.4-0.1-0.6-0.1s-0.6-0.1-1-0.1c-0.5,0-1,0-1.4-0.1s-0.9-0.1-1.2-0.1s-0.7-0.1-0.9-0.1s-0.3,0-0.3,0l-15-3.8l20.2-2.9
								c0,0-0.1,0-0.2,0s-0.3,0-0.6,0s-0.6,0-1,0S960,283.1,959.5,283.1 M927.7,283c-0.5,0-1.1,0-1.6,0s-1,0-1.3,0.1s-0.7,0-0.9,0.1
								s-0.3,0-0.3,0l9.5,2.7l5.8-0.8l-6.9-1.7c-0.3-0.1-0.6-0.1-0.9-0.2s-0.7-0.1-1-0.1s-0.7,0-1.1-0.1S928.1,283,927.7,283"/>
						</g>
					</g>
				</g>
			</g>
		</g>
	</g>
	<g>
		<line class="st0" x1="961.6" y1="207" x2="961.6" y2="267.1"/>
		<path class="st1" d="M955,205.7l6.1-6.1c0.3-0.3,0.8-0.3,1.1,0l6.1,6.1c0.5,0.5,0.1,1.3-0.5,1.3h-12.3
			C954.8,207,954.5,206.2,955,205.7L955,205.7z"/>
		<path class="st28" d="M1081.3,88.4c0-0.2,0-0.3,0-0.5c0-34.2-27.7-62-62-62c-9.9,0-19.2,2.3-27.5,6.4C980.1,13.5,959.2,1,935.3,1
			c-35.7,0-64.9,28.1-66.6,63.3c-29.7,3.4-52.8,28.7-52.8,59.3c0,33,26.7,59.7,59.7,59.7h201.7c26.3,0,47.6-21.3,47.6-47.6
			S1105.7,90.4,1081.3,88.4L1081.3,88.4z"/>
		<g>
			<path d="M906.7,107.8c-0.5,0-0.8-0.2-1.2-0.5c-0.3-0.3-0.5-0.7-0.5-1.2s0.2-0.9,0.5-1.2c0.3-0.3,0.7-0.5,1.2-0.5s0.8,0.2,1.2,0.5
				c0.3,0.3,0.5,0.7,0.5,1.2s-0.2,0.8-0.5,1.2C907.6,107.6,907.2,107.8,906.7,107.8z M905.5,134.3v-23.8h2.5v23.8H905.5z"/>
			<path d="M924.3,116.3c1.5,0,2.7,0.3,3.8,0.8c1.1,0.6,2,1.4,2.6,2.5s0.9,2.6,0.9,4.3v10.4h-2.4v-10.1c0-1.9-0.5-3.3-1.4-4.3
				s-2.3-1.4-4-1.4c-1.3,0-2.4,0.2-3.3,0.8s-1.7,1.2-2.2,2.2s-0.8,2.1-0.8,3.5v9.4h-2.4v-17.8h2.3v4.9l-0.4-0.9
				c0.6-1.3,1.5-2.3,2.7-3S922.6,116.3,924.3,116.3L924.3,116.3z"/>
			<path d="M935.4,118.5v-2h11v2H935.4z M943.9,134.5c-1.7,0-3-0.4-3.9-1.4c-0.9-0.9-1.4-2.2-1.4-3.8v-16.8h2.4v16.6
				c0,1,0.3,1.9,0.8,2.4c0.5,0.6,1.3,0.9,2.3,0.9c1.1,0,2-0.3,2.7-0.9l0.8,1.7c-0.5,0.4-1,0.8-1.7,0.9S944.6,134.5,943.9,134.5
				L943.9,134.5z"/>
			<path d="M959,134.5c-1.9,0-3.5-0.4-4.9-1.2s-2.5-1.9-3.3-3.2s-1.2-2.9-1.2-4.7s0.4-3.3,1.1-4.7s1.8-2.4,3.1-3.2s2.8-1.2,4.5-1.2
				s3.2,0.4,4.5,1.1s2.3,1.8,3.1,3.2c0.8,1.4,1.1,2.9,1.1,4.7c0,0.1,0,0.2,0,0.4s0,0.2,0,0.4h-15.5v-1.8h14.2l-1,0.7
				c0-1.3-0.3-2.4-0.8-3.4c-0.6-1-1.3-1.8-2.3-2.4c-1-0.6-2-0.8-3.3-0.8s-2.3,0.3-3.3,0.8s-1.7,1.4-2.3,2.4c-0.5,1-0.8,2.2-0.8,3.5
				v0.4c0,1.4,0.3,2.6,0.9,3.6c0.6,1,1.4,1.8,2.5,2.4s2.3,0.9,3.7,0.9c1.1,0,2.1-0.2,3-0.6c0.9-0.4,1.8-1,2.4-1.8l1.4,1.6
				c-0.8,0.9-1.8,1.7-3,2.2C961.7,134.2,960.4,134.5,959,134.5L959,134.5z"/>
			<path d="M971.9,134.3v-17.8h2.3v4.9l-0.2-0.8c0.5-1.4,1.3-2.4,2.5-3.1s2.6-1.1,4.4-1.1v2.3c-0.1,0-0.2,0-0.3,0
				c-0.1,0-0.2,0-0.3,0c-1.9,0-3.4,0.6-4.4,1.7s-1.6,2.8-1.6,4.9v9.1H971.9L971.9,134.3z"/>
			<path d="M994.4,116.3c1.5,0,2.7,0.3,3.8,0.8c1.1,0.6,2,1.4,2.6,2.5c0.6,1.1,0.9,2.6,0.9,4.3v10.4h-2.4v-10.1
				c0-1.9-0.5-3.3-1.4-4.3c-0.9-1-2.3-1.4-4-1.4c-1.3,0-2.4,0.2-3.3,0.8c-0.9,0.5-1.7,1.2-2.2,2.2s-0.8,2.1-0.8,3.5v9.4h-2.4v-17.8
				h2.3v4.9l-0.4-0.9c0.6-1.3,1.5-2.3,2.7-3C991.2,116.7,992.7,116.3,994.4,116.3L994.4,116.3z"/>
			<path d="M1015.9,134.5c-1.9,0-3.5-0.4-4.9-1.2c-1.4-0.8-2.5-1.9-3.3-3.2s-1.2-2.9-1.2-4.7s0.4-3.3,1.1-4.7s1.8-2.4,3.1-3.2
				s2.8-1.2,4.5-1.2s3.2,0.4,4.5,1.1s2.3,1.8,3.1,3.2c0.8,1.4,1.1,2.9,1.1,4.7c0,0.1,0,0.2,0,0.4c0,0.1,0,0.2,0,0.4h-15.5v-1.8h14.2
				l-1,0.7c0-1.3-0.3-2.4-0.8-3.4s-1.3-1.8-2.3-2.4c-1-0.6-2-0.8-3.3-0.8s-2.3,0.3-3.3,0.8s-1.7,1.4-2.3,2.4c-0.5,1-0.8,2.2-0.8,3.5
				v0.4c0,1.4,0.3,2.6,0.9,3.6c0.6,1,1.4,1.8,2.5,2.4c1.1,0.6,2.3,0.9,3.7,0.9c1.1,0,2.1-0.2,3-0.6c0.9-0.4,1.8-1,2.4-1.8l1.4,1.6
				c-0.8,0.9-1.8,1.7-3,2.2S1017.3,134.5,1015.9,134.5L1015.9,134.5z"/>
			<path d="M1026,118.5v-2h11.1v2H1026z M1034.5,134.5c-1.7,0-3-0.4-3.9-1.4s-1.4-2.2-1.4-3.8v-16.8h2.4v16.6c0,1,0.3,1.9,0.8,2.4
				c0.5,0.6,1.3,0.9,2.3,0.9c1.1,0,1.9-0.3,2.7-0.9l0.8,1.7c-0.5,0.4-1.1,0.8-1.7,0.9C1035.8,134.4,1035.2,134.5,1034.5,134.5
				L1034.5,134.5z"/>
		</g>
	</g>
	<g>
		<path d="M517.1,378.8c-1.4,0-2.7-0.2-4-0.7c-1.3-0.5-2.3-1-3-1.8l0.8-1.5c0.7,0.6,1.5,1.2,2.7,1.6c1.1,0.4,2.3,0.7,3.5,0.7
			s2.1-0.1,2.9-0.4c0.7-0.3,1.3-0.7,1.6-1.2c0.3-0.5,0.5-1.1,0.5-1.7c0-0.7-0.2-1.3-0.6-1.8s-1-0.8-1.7-1.1
			c-0.7-0.3-1.4-0.5-2.3-0.7c-0.8-0.2-1.7-0.4-2.5-0.6c-0.8-0.2-1.6-0.5-2.3-0.9s-1.2-0.9-1.7-1.5s-0.6-1.4-0.6-2.4
			c0-0.9,0.2-1.8,0.7-2.6s1.2-1.4,2.3-1.9s2.3-0.7,3.9-0.7c1.1,0,2.1,0.1,3.1,0.4c1,0.3,1.9,0.7,2.7,1.2l-0.7,1.6
			c-0.8-0.5-1.7-0.9-2.6-1.2s-1.8-0.4-2.6-0.4c-1.1,0-2.1,0.1-2.8,0.5s-1.3,0.7-1.6,1.2c-0.3,0.5-0.5,1.1-0.5,1.7
			c0,0.7,0.2,1.3,0.6,1.8c0.4,0.5,1,0.8,1.7,1s1.5,0.5,2.3,0.7s1.6,0.4,2.5,0.6c0.8,0.2,1.6,0.5,2.3,0.9s1.2,0.9,1.7,1.5
			c0.4,0.6,0.6,1.4,0.6,2.4c0,0.9-0.2,1.8-0.8,2.5s-1.3,1.4-2.3,1.9C520,378.5,518.7,378.8,517.1,378.8L517.1,378.8z"/>
		<path d="M532.7,378.6l-6.3-18.8h2l5.9,17.7h-1l6.1-17.7h1.8l6,17.7h-1l6-17.7h1.9l-6.3,18.8h-2.1l-5.8-16.8h0.5l-5.8,16.8H532.7
			L532.7,378.6z"/>
		<path d="M557.9,378.6v-18.8h2v18.8H557.9z"/>
		<path d="M569.7,378.6v-17.1H563v-1.7h15.2v1.7h-6.6v17.1H569.7L569.7,378.6z"/>
		<path d="M589.3,378.8c-1.4,0-2.7-0.2-3.9-0.7s-2.2-1.1-3.1-2s-1.6-1.9-2-3c-0.5-1.2-0.7-2.4-0.7-3.8s0.2-2.6,0.7-3.8
			s1.2-2.2,2.1-3c0.9-0.9,1.9-1.5,3.1-2s2.5-0.7,3.9-0.7s2.6,0.2,3.8,0.7c1.2,0.5,2.2,1.1,3,2.1l-1.3,1.3c-0.8-0.8-1.6-1.4-2.5-1.7
			s-1.9-0.5-3-0.5c-1.1,0-2.2,0.2-3.1,0.6c-1,0.4-1.8,0.9-2.5,1.6c-0.7,0.7-1.3,1.5-1.7,2.5c-0.4,0.9-0.6,2-0.6,3.1s0.2,2.2,0.6,3.1
			c0.4,0.9,1,1.8,1.7,2.5s1.6,1.2,2.5,1.6c1,0.4,2,0.6,3.1,0.6s2.1-0.2,3-0.5c0.9-0.4,1.8-0.9,2.5-1.7l1.3,1.3
			c-0.8,0.9-1.8,1.6-3,2.1C592,378.6,590.7,378.8,589.3,378.8L589.3,378.8z"/>
		<path d="M602.5,378.6h-2v-18.8h2V378.6z M614.4,369.9h-12.2v-1.8h12.2V369.9z M614.2,359.8h2v18.8h-2V359.8z"/>
		<path d="M511.1,398.7c-0.5-0.9-0.9-1.9-1.2-3s-0.4-2.4-0.4-3.7s0.1-2.6,0.4-3.7s0.7-2.2,1.2-3h1c-0.6,1-1,2-1.2,3.1
			s-0.4,2.3-0.4,3.6s0.1,2.5,0.4,3.6s0.7,2.2,1.2,3.1H511.1z"/>
		<path d="M516.1,396c-0.6,0-1.2-0.1-1.8-0.3s-1-0.4-1.3-0.7l0.5-0.8c0.3,0.2,0.7,0.4,1.2,0.6s1,0.2,1.5,0.2c0.7,0,1.2-0.1,1.5-0.3
			c0.3-0.2,0.5-0.5,0.5-0.9c0-0.3-0.1-0.5-0.3-0.7s-0.4-0.3-0.7-0.4s-0.6-0.1-1-0.2c-0.4-0.1-0.7-0.1-1.1-0.2s-0.7-0.2-1-0.3
			c-0.3-0.1-0.5-0.4-0.7-0.6s-0.3-0.6-0.3-1s0.1-0.8,0.3-1.1s0.6-0.6,1-0.8s1-0.3,1.6-0.3c0.5,0,1,0.1,1.5,0.2
			c0.5,0.1,0.9,0.3,1.2,0.5l-0.5,0.8c-0.3-0.2-0.7-0.4-1.1-0.5s-0.8-0.1-1.2-0.1c-0.7,0-1.2,0.1-1.5,0.4s-0.5,0.5-0.5,0.9
			c0,0.3,0.1,0.5,0.3,0.7s0.4,0.3,0.7,0.4c0.3,0.1,0.6,0.2,1,0.2c0.3,0.1,0.7,0.1,1,0.2s0.7,0.2,1,0.3c0.3,0.1,0.5,0.3,0.7,0.6
			s0.3,0.6,0.3,1c0,0.4-0.1,0.8-0.4,1.1s-0.6,0.6-1.1,0.8C517.3,395.9,516.8,395.9,516.1,396L516.1,396z"/>
		<path d="M524.2,396c-0.6,0-1.2-0.1-1.7-0.4s-0.8-0.6-1.1-1.1c-0.3-0.5-0.4-1.1-0.4-1.8v-4.4h1v4.3c0,0.8,0.2,1.4,0.6,1.8
			s1,0.6,1.7,0.6c0.5,0,1-0.1,1.4-0.3s0.7-0.5,0.9-0.9c0.2-0.4,0.3-0.9,0.3-1.5v-4h1v7.6h-1v-2.1l0.2,0.4c-0.2,0.6-0.6,1-1.1,1.3
			C525.5,395.8,524.9,396,524.2,396L524.2,396z"/>
		<path d="M530.8,398.7v-10.4h1v2.3l-0.1,1.5l0.1,1.5v5H530.8z M534.7,396c-0.7,0-1.2-0.1-1.8-0.5c-0.5-0.3-1-0.7-1.3-1.3
			s-0.5-1.3-0.5-2.1s0.2-1.5,0.5-2.1s0.7-1,1.2-1.3s1.1-0.5,1.8-0.5c0.7,0,1.4,0.2,1.9,0.5s1,0.8,1.3,1.4s0.5,1.2,0.5,2
			s-0.2,1.4-0.5,2s-0.8,1-1.3,1.4C536.1,395.8,535.4,396,534.7,396L534.7,396z M534.6,395.1c0.5,0,1-0.1,1.4-0.4
			c0.4-0.2,0.8-0.6,1-1s0.4-1,0.4-1.5s-0.1-1.1-0.4-1.5s-0.6-0.8-1-1c-0.4-0.2-0.9-0.4-1.4-0.4s-1,0.1-1.5,0.4c-0.4,0.2-0.8,0.6-1,1
			s-0.4,1-0.4,1.5s0.1,1.1,0.4,1.5s0.6,0.8,1,1S534.1,395.1,534.6,395.1z"/>
		<path d="M540.5,398.7v-10.4h1v2.3l-0.1,1.5l0.1,1.5v5H540.5z M544.5,396c-0.7,0-1.2-0.1-1.8-0.5c-0.5-0.3-1-0.7-1.3-1.3
			s-0.5-1.3-0.5-2.1s0.2-1.5,0.5-2.1s0.7-1,1.2-1.3s1.1-0.5,1.8-0.5c0.7,0,1.4,0.2,1.9,0.5s1,0.8,1.3,1.4s0.5,1.2,0.5,2
			s-0.2,1.4-0.5,2s-0.8,1-1.3,1.4C545.8,395.8,545.2,396,544.5,396L544.5,396z M544.4,395.1c0.5,0,1-0.1,1.4-0.4
			c0.4-0.2,0.8-0.6,1-1s0.4-1,0.4-1.5s-0.1-1.1-0.4-1.5s-0.6-0.8-1-1c-0.4-0.2-0.9-0.4-1.4-0.4s-1,0.1-1.5,0.4c-0.4,0.2-0.8,0.6-1,1
			s-0.4,1-0.4,1.5s0.1,1.1,0.4,1.5s0.6,0.8,1,1S543.8,395.1,544.4,395.1z"/>
		<path d="M553.4,396c-0.7,0-1.4-0.2-2-0.5s-1-0.8-1.4-1.4s-0.5-1.2-0.5-2s0.2-1.4,0.5-2c0.3-0.6,0.8-1,1.4-1.4
			c0.6-0.3,1.2-0.5,2-0.5s1.4,0.2,2,0.5s1,0.8,1.4,1.4c0.3,0.6,0.5,1.2,0.5,2s-0.2,1.4-0.5,2s-0.8,1-1.4,1.4S554.1,396,553.4,396
			L553.4,396z M553.4,395.1c0.5,0,1-0.1,1.5-0.4c0.4-0.2,0.8-0.6,1-1c0.2-0.5,0.4-1,0.4-1.5s-0.1-1.1-0.4-1.5c-0.2-0.4-0.6-0.8-1-1
			c-0.4-0.2-0.9-0.4-1.4-0.4s-1,0.1-1.4,0.4s-0.8,0.6-1,1s-0.4,1-0.4,1.5s0.1,1.1,0.4,1.5c0.2,0.5,0.6,0.8,1,1
			C552.4,394.9,552.9,395.1,553.4,395.1z"/>
		<path d="M559.3,395.9v-7.6h1v2.1l-0.1-0.4c0.2-0.6,0.6-1,1.1-1.3c0.5-0.3,1.1-0.5,1.9-0.5v1c0,0-0.1,0-0.1,0s-0.1,0-0.1,0
			c-0.8,0-1.4,0.2-1.9,0.7c-0.5,0.5-0.7,1.2-0.7,2.1v3.9L559.3,395.9L559.3,395.9z"/>
		<path d="M564.1,389.2v-0.9h4.7v0.9H564.1z M567.7,396c-0.7,0-1.3-0.2-1.6-0.6s-0.6-0.9-0.6-1.6v-7.1h1v7c0,0.4,0.1,0.8,0.3,1
			s0.5,0.4,1,0.4c0.5,0,0.8-0.1,1.1-0.4l0.4,0.7c-0.2,0.2-0.4,0.3-0.7,0.4S568,395.9,567.7,396L567.7,396z"/>
		<path d="M578.1,396c-0.8,0-1.5-0.1-2.1-0.3s-1-0.6-1.3-1s-0.5-1-0.5-1.5s0.2-1.1,0.5-1.5s0.7-0.7,1.3-0.9s1.3-0.3,2.1-0.3
			s1.5,0.1,2.1,0.3c0.6,0.2,1,0.5,1.3,0.9c0.3,0.4,0.5,0.9,0.5,1.5s-0.2,1.1-0.5,1.5c-0.3,0.4-0.8,0.8-1.3,1
			C579.6,395.9,578.9,396,578.1,396L578.1,396z M578.1,390.9c-0.8,0-1.4-0.1-1.9-0.3c-0.5-0.2-0.9-0.5-1.2-0.9s-0.4-0.8-0.4-1.4
			c0-0.6,0.2-1,0.4-1.4s0.7-0.7,1.2-0.9c0.5-0.2,1.2-0.3,1.9-0.3s1.3,0.1,1.9,0.3c0.5,0.2,1,0.5,1.2,0.9c0.3,0.4,0.5,0.9,0.5,1.4
			s-0.1,1-0.4,1.4s-0.7,0.7-1.2,0.9C579.5,390.8,578.8,390.9,578.1,390.9L578.1,390.9z M578.1,395.1c0.9,0,1.6-0.2,2.1-0.5
			c0.5-0.4,0.8-0.9,0.8-1.5s-0.2-1.1-0.8-1.5c-0.5-0.4-1.2-0.5-2.1-0.5s-1.6,0.2-2.1,0.5c-0.5,0.4-0.8,0.9-0.8,1.5s0.2,1.1,0.8,1.5
			C576.5,394.9,577.2,395.1,578.1,395.1z M578.1,390.2c0.8,0,1.4-0.2,1.8-0.5s0.7-0.8,0.7-1.3c0-0.6-0.2-1-0.7-1.4s-1.1-0.5-1.8-0.5
			s-1.4,0.2-1.8,0.5s-0.7,0.8-0.7,1.3s0.2,1,0.7,1.3S577.3,390.2,578.1,390.2L578.1,390.2z"/>
		<path d="M587.5,396c-0.8,0-1.5-0.2-2.1-0.6c-0.6-0.4-1.1-1-1.4-1.8c-0.3-0.8-0.5-1.7-0.5-2.8s0.2-2,0.5-2.8s0.8-1.4,1.4-1.8
			c0.6-0.4,1.3-0.6,2.1-0.6s1.5,0.2,2.1,0.6c0.6,0.4,1.1,1,1.4,1.8c0.3,0.8,0.5,1.7,0.5,2.8s-0.2,2-0.5,2.8
			c-0.3,0.8-0.8,1.4-1.4,1.8S588.2,396,587.5,396z M587.5,395c0.6,0,1.1-0.2,1.5-0.5s0.8-0.8,1-1.4s0.4-1.4,0.4-2.3
			s-0.1-1.7-0.4-2.3c-0.2-0.6-0.6-1.1-1-1.4s-1-0.5-1.5-0.5s-1.1,0.2-1.5,0.5s-0.8,0.8-1,1.4s-0.4,1.4-0.4,2.3s0.1,1.7,0.4,2.3
			s0.6,1.1,1,1.4S586.9,395,587.5,395z"/>
		<path d="M592.8,395.9v-0.7l4.2-4.1c0.4-0.4,0.7-0.7,0.9-1c0.2-0.3,0.3-0.5,0.4-0.8s0.1-0.5,0.1-0.7c0-0.6-0.2-1-0.6-1.4
			s-1-0.5-1.8-0.5c-0.6,0-1.1,0.1-1.6,0.3s-0.8,0.5-1.2,0.9l-0.7-0.6c0.4-0.5,0.9-0.8,1.5-1.1s1.3-0.4,2.1-0.4
			c0.7,0,1.3,0.1,1.8,0.3s0.9,0.5,1.2,0.9c0.3,0.4,0.4,0.9,0.4,1.5c0,0.3,0,0.6-0.1,1c-0.1,0.3-0.2,0.6-0.5,1s-0.6,0.8-1,1.2
			l-3.8,3.8l-0.3-0.4h6.2v0.9L592.8,395.9L592.8,395.9z"/>
		<path d="M602.1,396c-0.2,0-0.4-0.1-0.5-0.2c-0.2-0.1-0.2-0.3-0.2-0.6s0.1-0.4,0.2-0.6c0.2-0.1,0.3-0.2,0.5-0.2s0.4,0.1,0.5,0.2
			c0.2,0.1,0.2,0.3,0.2,0.6s-0.1,0.4-0.2,0.6C602.5,395.9,602.3,396,602.1,396z"/>
		<path d="M605.9,395.9v-9.6l0.5,0.5h-2.8v-0.9h3.4v10.1L605.9,395.9L605.9,395.9z"/>
		<path d="M608.9,395.9l3.2-4.1v0.5l-3-3.9h1.2l2.5,3.2h-0.4l2.5-3.2h1.1l-3.1,4v-0.5l3.2,4.1h-1.2l-2.6-3.5l0.4,0.1l-2.6,3.4
			L608.9,395.9L608.9,395.9z"/>
		<path d="M617.9,398.7h-1c0.6-1,1-2,1.3-3.1s0.4-2.3,0.4-3.6s-0.1-2.5-0.4-3.6c-0.3-1.1-0.7-2.2-1.3-3.1h1c0.5,0.9,1,1.9,1.2,3
			s0.4,2.4,0.4,3.7s-0.1,2.6-0.4,3.7S618.4,397.8,617.9,398.7z"/>
	</g>
	<g>
		<path d="M942.9,378.6l7.7-10.4v1.5l-7.2-9.9h2.3l6.1,8.3l-0.9,0l6.1-8.3h2.2l-7.2,9.8v-1.4l7.7,10.4h-2.3l-6.5-8.8h0.8l-6.5,8.8
			H942.9z"/>
		<path d="M962.5,378.6v-18.8h2v17.1H975v1.7H962.5z"/>
		<path d="M986.1,378.8c-1.4,0-2.7-0.2-3.9-0.7s-2.3-1.1-3.1-2c-0.9-0.9-1.6-1.9-2.1-3c-0.5-1.1-0.7-2.4-0.7-3.8s0.2-2.6,0.7-3.8
			c0.5-1.2,1.2-2.2,2.1-3s1.9-1.5,3.1-2s2.5-0.7,4-0.7s2.7,0.2,3.9,0.7s2.2,1.1,3.1,2s1.6,1.9,2.1,3c0.5,1.2,0.7,2.4,0.7,3.8
			s-0.2,2.6-0.7,3.8c-0.5,1.2-1.2,2.2-2.1,3c-0.9,0.9-1.9,1.5-3.1,2S987.5,378.8,986.1,378.8z M986.1,377c1.1,0,2.2-0.2,3.1-0.6
			c1-0.4,1.8-0.9,2.5-1.6s1.3-1.5,1.7-2.5s0.6-2,0.6-3.1s-0.2-2.2-0.6-3.1s-0.9-1.8-1.7-2.5s-1.5-1.2-2.5-1.6s-2-0.6-3.1-0.6
			s-2.2,0.2-3.1,0.6s-1.8,0.9-2.5,1.6s-1.3,1.5-1.7,2.5c-0.4,0.9-0.6,2-0.6,3.1s0.2,2.1,0.6,3.1c0.4,1,1,1.8,1.7,2.5
			c0.7,0.7,1.5,1.2,2.5,1.6C984,376.8,985,377,986.1,377L986.1,377z"/>
		<path d="M1008.7,378.8c-1.4,0-2.8-0.2-4-0.7s-2.3-1.1-3.1-2c-0.9-0.9-1.6-1.9-2.1-3c-0.5-1.2-0.7-2.4-0.7-3.8s0.2-2.6,0.7-3.8
			s1.2-2.2,2.1-3c0.9-0.9,2-1.5,3.2-2s2.5-0.7,4-0.7s2.7,0.2,3.9,0.7c1.2,0.5,2.2,1.1,3,2l-1.2,1.3c-0.8-0.8-1.7-1.4-2.6-1.7
			s-2-0.5-3.1-0.5c-1.2,0-2.2,0.2-3.2,0.6c-1,0.4-1.8,0.9-2.5,1.6c-0.7,0.7-1.3,1.5-1.7,2.5s-0.6,2-0.6,3.1s0.2,2.1,0.6,3.1
			c0.4,1,1,1.8,1.7,2.5c0.7,0.7,1.6,1.2,2.5,1.6c1,0.4,2,0.6,3.2,0.6c1.1,0,2.1-0.2,3-0.5s1.8-0.9,2.7-1.6l1.1,1.5
			c-0.9,0.8-1.9,1.4-3.1,1.8S1010,378.8,1008.7,378.8L1008.7,378.8z M1013.7,376.2v-6.9h1.9v7.2L1013.7,376.2L1013.7,376.2z"/>
		<path d="M910.2,398.7c-0.5-0.9-0.9-1.9-1.2-3s-0.4-2.4-0.4-3.7s0.2-2.6,0.4-3.7s0.7-2.2,1.2-3h1c-0.6,1-1,2-1.2,3.1
			s-0.4,2.3-0.4,3.6s0.1,2.5,0.4,3.6s0.7,2.2,1.2,3.1H910.2z"/>
		<path d="M916.4,396c-0.8,0-1.5-0.1-2.1-0.3s-1-0.6-1.3-1s-0.5-1-0.5-1.5s0.2-1.1,0.5-1.5s0.7-0.7,1.3-0.9s1.3-0.3,2.1-0.3
			s1.5,0.1,2.1,0.3c0.6,0.2,1,0.5,1.3,0.9c0.3,0.4,0.5,0.9,0.5,1.5s-0.2,1.1-0.5,1.5c-0.3,0.4-0.8,0.8-1.3,1
			C917.9,395.9,917.2,396,916.4,396L916.4,396z M916.4,390.9c-0.8,0-1.4-0.1-1.9-0.3c-0.5-0.2-0.9-0.5-1.2-0.9s-0.4-0.8-0.4-1.4
			c0-0.6,0.2-1,0.4-1.4s0.7-0.7,1.2-0.9c0.5-0.2,1.2-0.3,1.9-0.3s1.3,0.1,1.9,0.3c0.5,0.2,1,0.5,1.2,0.9c0.3,0.4,0.5,0.9,0.5,1.4
			s-0.1,1-0.4,1.4s-0.7,0.7-1.2,0.9C917.8,390.8,917.1,390.9,916.4,390.9L916.4,390.9z M916.4,395.1c0.9,0,1.6-0.2,2.1-0.5
			c0.5-0.4,0.8-0.9,0.8-1.5s-0.2-1.1-0.8-1.5c-0.5-0.4-1.2-0.5-2.1-0.5s-1.6,0.2-2.1,0.5c-0.5,0.4-0.8,0.9-0.8,1.5s0.2,1.1,0.8,1.5
			C914.8,394.9,915.5,395.1,916.4,395.1z M916.4,390.2c0.8,0,1.4-0.2,1.8-0.5s0.7-0.8,0.7-1.3c0-0.6-0.2-1-0.7-1.4s-1.1-0.5-1.8-0.5
			s-1.4,0.2-1.8,0.5s-0.7,0.8-0.7,1.3s0.2,1,0.7,1.3S915.6,390.2,916.4,390.2L916.4,390.2z"/>
		<path d="M925.8,396c-0.8,0-1.5-0.2-2.1-0.6c-0.6-0.4-1.1-1-1.4-1.8c-0.3-0.8-0.5-1.7-0.5-2.8s0.2-2,0.5-2.8s0.8-1.4,1.4-1.8
			c0.6-0.4,1.3-0.6,2.1-0.6s1.5,0.2,2.1,0.6c0.6,0.4,1.1,1,1.4,1.8c0.3,0.8,0.5,1.7,0.5,2.8s-0.2,2-0.5,2.8
			c-0.3,0.8-0.8,1.4-1.4,1.8S926.5,396,925.8,396z M925.8,395c0.6,0,1.1-0.2,1.5-0.5s0.8-0.8,1-1.4s0.4-1.4,0.4-2.3
			s-0.1-1.7-0.4-2.3c-0.2-0.6-0.6-1.1-1-1.4s-1-0.5-1.5-0.5s-1.1,0.2-1.5,0.5s-0.8,0.8-1,1.4s-0.4,1.4-0.4,2.3s0.1,1.7,0.4,2.3
			s0.6,1.1,1,1.4S925.2,395,925.8,395z"/>
		<path d="M931.1,395.9v-0.7l4.2-4.1c0.4-0.4,0.7-0.7,0.9-1c0.2-0.3,0.3-0.5,0.4-0.8s0.1-0.5,0.1-0.7c0-0.6-0.2-1-0.6-1.4
			s-1-0.5-1.8-0.5c-0.6,0-1.1,0.1-1.6,0.3s-0.8,0.5-1.2,0.9l-0.7-0.6c0.4-0.5,0.9-0.8,1.5-1.1s1.3-0.4,2.1-0.4
			c0.7,0,1.3,0.1,1.8,0.3s0.9,0.5,1.2,0.9c0.3,0.4,0.4,0.9,0.4,1.5c0,0.3,0,0.6-0.1,1c-0.1,0.3-0.2,0.6-0.5,1s-0.6,0.8-1,1.2
			l-3.8,3.8l-0.3-0.4h6.2v0.9L931.1,395.9L931.1,395.9z"/>
		<path d="M940.4,396c-0.2,0-0.4-0.1-0.5-0.2c-0.2-0.1-0.2-0.3-0.2-0.6s0.1-0.4,0.2-0.6c0.2-0.1,0.3-0.2,0.5-0.2s0.4,0.1,0.5,0.2
			c0.2,0.1,0.2,0.3,0.2,0.6s-0.1,0.4-0.2,0.6C940.7,395.9,940.6,396,940.4,396z"/>
		<path d="M944.2,395.9v-9.6l0.5,0.5h-2.8v-0.9h3.4v10.1L944.2,395.9L944.2,395.9z"/>
		<path d="M947.2,395.9l3.2-4.1v0.5l-3-3.9h1.2l2.5,3.2h-0.4l2.5-3.2h1.1l-3.1,4v-0.5l3.2,4.1h-1.2l-2.6-3.5l0.4,0.1l-2.6,3.4
			L947.2,395.9L947.2,395.9z"/>
		<path d="M959.8,395.9v-7.6h1v2.1l-0.1-0.4c0.2-0.6,0.6-1,1.1-1.3c0.5-0.3,1.1-0.5,1.9-0.5v1c0,0-0.1,0-0.1,0s-0.1,0-0.1,0
			c-0.8,0-1.4,0.2-1.9,0.7c-0.5,0.5-0.7,1.2-0.7,2.1v3.9L959.8,395.9L959.8,395.9z"/>
		<path d="M967,396c-0.6,0-1.1-0.1-1.5-0.3s-0.7-0.5-1-0.8s-0.3-0.7-0.3-1.1c0-0.4,0.1-0.8,0.3-1.1s0.5-0.6,0.9-0.8s1-0.3,1.7-0.3
			h2.6v0.8h-2.6c-0.7,0-1.2,0.1-1.5,0.4s-0.4,0.6-0.4,1c0,0.4,0.2,0.8,0.5,1c0.3,0.3,0.8,0.4,1.4,0.4s1.1-0.1,1.5-0.4
			c0.4-0.3,0.7-0.6,0.9-1.1l0.2,0.7c-0.2,0.5-0.5,0.9-1,1.2C968.3,395.8,967.7,396,967,396L967,396z M969.6,395.9v-1.7l0-0.3v-2.8
			c0-0.6-0.2-1.1-0.5-1.5s-0.9-0.5-1.6-0.5c-0.5,0-1,0.1-1.4,0.2c-0.4,0.2-0.8,0.4-1.1,0.6l-0.5-0.8c0.4-0.3,0.8-0.6,1.4-0.8
			s1.1-0.3,1.7-0.3c1,0,1.7,0.2,2.3,0.7c0.5,0.5,0.8,1.2,0.8,2.2v4.7L969.6,395.9L969.6,395.9z"/>
		<path d="M976.4,396c-0.7,0-1.4-0.2-1.9-0.5s-1-0.8-1.3-1.4c-0.3-0.6-0.5-1.2-0.5-2s0.2-1.4,0.5-2c0.3-0.6,0.8-1,1.3-1.4
			c0.6-0.3,1.2-0.5,1.9-0.5c0.7,0,1.2,0.1,1.8,0.5c0.5,0.3,0.9,0.7,1.2,1.3c0.3,0.6,0.5,1.3,0.5,2.1s-0.2,1.5-0.5,2.1
			s-0.7,1-1.2,1.3C977.7,395.8,977.1,396,976.4,396z M976.5,395.1c0.5,0,1-0.1,1.5-0.4c0.4-0.2,0.8-0.6,1-1s0.4-1,0.4-1.5
			s-0.1-1.1-0.4-1.5c-0.2-0.4-0.6-0.8-1-1c-0.4-0.2-0.9-0.4-1.5-0.4s-1,0.1-1.4,0.4c-0.4,0.2-0.8,0.6-1,1s-0.4,1-0.4,1.5
			s0.1,1.1,0.4,1.5c0.2,0.5,0.6,0.8,1,1C975.5,394.9,975.9,395.1,976.5,395.1z M979.3,395.9v-2.3l0.1-1.5l-0.1-1.5v-5.4h1v10.7
			L979.3,395.9L979.3,395.9z"/>
		<path d="M983.7,386.8c-0.2,0-0.4-0.1-0.5-0.2s-0.2-0.3-0.2-0.5c0-0.2,0.1-0.4,0.2-0.5s0.3-0.2,0.5-0.2s0.3,0.1,0.5,0.2
			c0.1,0.1,0.2,0.3,0.2,0.5s-0.1,0.4-0.2,0.5S983.8,386.8,983.7,386.8z M983.1,395.9v-7.6h1v7.6H983.1z"/>
		<path d="M990.1,396c-0.6,0-1.2-0.1-1.7-0.4s-0.8-0.6-1.1-1.1c-0.3-0.5-0.4-1.1-0.4-1.8v-4.4h1v4.3c0,0.8,0.2,1.4,0.6,1.8
			s1,0.6,1.7,0.6c0.5,0,1-0.1,1.4-0.3s0.7-0.5,0.9-0.9c0.2-0.4,0.3-0.9,0.3-1.5v-4h1v7.6h-1v-2.1l0.2,0.4c-0.2,0.6-0.6,1-1.1,1.3
			C991.4,395.8,990.8,396,990.1,396L990.1,396z"/>
		<path d="M998.7,396c-0.6,0-1.2-0.1-1.8-0.3s-1-0.4-1.3-0.7l0.5-0.8c0.3,0.2,0.7,0.4,1.2,0.6s1,0.2,1.5,0.2c0.7,0,1.2-0.1,1.5-0.3
			c0.3-0.2,0.5-0.5,0.5-0.9c0-0.3-0.1-0.5-0.3-0.7s-0.4-0.3-0.7-0.4s-0.6-0.1-1-0.2c-0.4-0.1-0.7-0.1-1.1-0.2s-0.7-0.2-1-0.3
			c-0.3-0.1-0.5-0.4-0.7-0.6s-0.3-0.6-0.3-1s0.1-0.8,0.3-1.1s0.6-0.6,1-0.8s1-0.3,1.6-0.3c0.5,0,1,0.1,1.5,0.2
			c0.5,0.1,0.9,0.3,1.2,0.5l-0.5,0.8c-0.3-0.2-0.7-0.4-1.1-0.5s-0.8-0.1-1.2-0.1c-0.7,0-1.2,0.1-1.5,0.4s-0.5,0.5-0.5,0.9
			c0,0.3,0.1,0.5,0.3,0.7s0.4,0.3,0.7,0.4c0.3,0.1,0.6,0.2,1,0.2c0.3,0.1,0.7,0.1,1,0.2s0.7,0.2,1,0.3c0.3,0.1,0.5,0.3,0.7,0.6
			s0.3,0.6,0.3,1c0,0.4-0.1,0.8-0.4,1.1s-0.6,0.6-1.1,0.8C999.9,395.9,999.4,395.9,998.7,396L998.7,396z"/>
		<path d="M1009.5,396c-0.6,0-1.2-0.1-1.8-0.3s-1-0.4-1.3-0.7l0.5-0.8c0.3,0.2,0.7,0.4,1.2,0.6s1,0.2,1.5,0.2c0.7,0,1.2-0.1,1.5-0.3
			c0.3-0.2,0.5-0.5,0.5-0.9c0-0.3-0.1-0.5-0.3-0.7s-0.4-0.3-0.7-0.4s-0.6-0.1-1-0.2c-0.4-0.1-0.7-0.1-1.1-0.2s-0.7-0.2-1-0.3
			c-0.3-0.1-0.5-0.4-0.7-0.6s-0.3-0.6-0.3-1s0.1-0.8,0.3-1.1s0.6-0.6,1-0.8s1-0.3,1.6-0.3c0.5,0,1,0.1,1.5,0.2
			c0.5,0.1,0.9,0.3,1.2,0.5l-0.5,0.8c-0.3-0.2-0.7-0.4-1.1-0.5s-0.8-0.1-1.2-0.1c-0.7,0-1.2,0.1-1.5,0.4s-0.5,0.5-0.5,0.9
			c0,0.3,0.1,0.5,0.3,0.7s0.4,0.3,0.7,0.4c0.3,0.1,0.6,0.2,1,0.2c0.3,0.1,0.7,0.1,1,0.2s0.7,0.2,1,0.3c0.3,0.1,0.5,0.3,0.7,0.6
			s0.3,0.6,0.3,1c0,0.4-0.1,0.8-0.4,1.1s-0.6,0.6-1.1,0.8C1010.7,395.9,1010.2,395.9,1009.5,396L1009.5,396z"/>
		<path d="M1017.7,396c-0.8,0-1.5-0.2-2.1-0.5c-0.6-0.3-1.1-0.8-1.4-1.4s-0.5-1.2-0.5-2s0.2-1.4,0.5-2s0.8-1,1.3-1.4
			s1.2-0.5,1.9-0.5s1.3,0.2,1.9,0.5s1,0.8,1.3,1.4s0.5,1.2,0.5,2c0,0,0,0.1,0,0.1s0,0.1,0,0.2h-6.6v-0.8h6l-0.4,0.3
			c0-0.5-0.1-1-0.3-1.5c-0.2-0.4-0.5-0.8-1-1c-0.4-0.2-0.9-0.4-1.4-0.4s-1,0.1-1.4,0.4c-0.4,0.2-0.7,0.6-1,1s-0.3,0.9-0.3,1.5v0.2
			c0,0.6,0.1,1.1,0.4,1.5s0.6,0.8,1.1,1c0.5,0.2,1,0.4,1.6,0.4c0.5,0,0.9-0.1,1.3-0.2c0.4-0.2,0.7-0.4,1-0.8l0.6,0.7
			c-0.3,0.4-0.8,0.7-1.3,0.9C1018.9,395.9,1018.3,396,1017.7,396L1017.7,396z"/>
		<path d="M1023.2,395.9v-7.6h1v2.1l-0.1-0.4c0.2-0.6,0.6-1,1.1-1.3c0.5-0.3,1.1-0.5,1.9-0.5v1c0,0-0.1,0-0.1,0s-0.1,0-0.1,0
			c-0.8,0-1.4,0.2-1.9,0.7c-0.4,0.5-0.7,1.2-0.7,2.1v3.9L1023.2,395.9L1023.2,395.9z"/>
		<path d="M1031.1,395.9l-3.3-7.6h1.1l3.1,7h-0.5l3.1-7h1l-3.4,7.6H1031.1L1031.1,395.9z"/>
		<path d="M1040,396c-0.8,0-1.5-0.2-2.1-0.5c-0.6-0.3-1.1-0.8-1.4-1.4s-0.5-1.2-0.5-2s0.2-1.4,0.5-2s0.8-1,1.3-1.4s1.2-0.5,1.9-0.5
			s1.3,0.2,1.9,0.5s1,0.8,1.3,1.4s0.5,1.2,0.5,2c0,0,0,0.1,0,0.1s0,0.1,0,0.2h-6.6v-0.8h6l-0.4,0.3c0-0.5-0.1-1-0.3-1.5
			c-0.2-0.4-0.6-0.8-1-1c-0.4-0.2-0.9-0.4-1.4-0.4s-1,0.1-1.4,0.4c-0.4,0.2-0.7,0.6-1,1s-0.3,0.9-0.3,1.5v0.2c0,0.6,0.1,1.1,0.4,1.5
			s0.6,0.8,1.1,1c0.5,0.2,1,0.4,1.6,0.4c0.5,0,0.9-0.1,1.3-0.2c0.4-0.2,0.7-0.4,1-0.8l0.6,0.7c-0.3,0.4-0.8,0.7-1.3,0.9
			C1041.1,395.9,1040.6,396,1040,396L1040,396z"/>
		<path d="M1045.5,395.9v-7.6h1v2.1l-0.1-0.4c0.2-0.6,0.6-1,1.1-1.3c0.5-0.3,1.1-0.5,1.9-0.5v1c0,0-0.1,0-0.1,0s-0.1,0-0.1,0
			c-0.8,0-1.4,0.2-1.9,0.7c-0.4,0.5-0.7,1.2-0.7,2.1v3.9L1045.5,395.9L1045.5,395.9z"/>
		<path d="M1051.2,398.7h-1c0.6-1,1-2,1.3-3.1s0.4-2.3,0.4-3.6s-0.1-2.5-0.4-3.6c-0.3-1.1-0.7-2.2-1.3-3.1h1c0.6,0.9,1,1.9,1.2,3
			s0.4,2.4,0.4,3.7s-0.1,2.6-0.4,3.7S1051.8,397.8,1051.2,398.7z"/>
	</g>
	<g>
		<line class="st0" x1="441" y1="317.1" x2="190" y2="317.1"/>
		<path class="st1" d="M442.5,310.4l6.6,6.1c0.3,0.3,0.3,0.8,0,1.1l-6.6,6.1c-0.5,0.5-1.4,0.1-1.4-0.5v-12.3
			C441,310.3,441.9,309.9,442.5,310.4L442.5,310.4z"/>
	</g>
	<g>
		<path class="st29" d="M205.8,288.3v-15h1.6V287h8.4v1.4H205.8L205.8,288.3z"/>
		<path class="st29" d="M222.5,288.5c-1.1,0-2.1-0.2-2.9-0.7s-1.6-1.2-2.1-2s-0.8-1.9-0.8-3s0.2-2.1,0.8-3c0.5-0.9,1.2-1.5,2-2
			s1.8-0.7,2.9-0.7s2.1,0.2,3,0.7c0.9,0.5,1.5,1.2,2,2c0.5,0.9,0.7,1.9,0.7,3s-0.2,2.1-0.7,3c-0.5,0.9-1.2,1.5-2.1,2
			S223.6,288.5,222.5,288.5L222.5,288.5z M222.5,287.1c0.8,0,1.5-0.2,2.2-0.5s1.1-0.9,1.5-1.5s0.6-1.4,0.6-2.3s-0.2-1.7-0.6-2.3
			s-0.9-1.2-1.5-1.5s-1.3-0.5-2.1-0.5s-1.5,0.2-2.1,0.5c-0.6,0.4-1.1,0.9-1.5,1.5c-0.4,0.7-0.6,1.4-0.6,2.3s0.2,1.6,0.6,2.3
			c0.4,0.7,0.9,1.2,1.5,1.5S221.8,287.1,222.5,287.1L222.5,287.1z"/>
		<path class="st29" d="M231.4,288.3v-15.9h1.5v15.9H231.4z M232.6,285.4l0-2l7-6.4h1.9l-4.9,4.7l-0.9,0.7L232.6,285.4L232.6,285.4z
			 M240.1,288.3l-4.7-5.9l1-1.2l5.6,7H240.1L240.1,288.3z"/>
		<path class="st29" d="M247.2,288.5c-0.8,0-1.6-0.1-2.2-0.4s-1.1-0.7-1.4-1.2c-0.3-0.5-0.5-1.1-0.5-1.7c0-0.6,0.1-1.1,0.4-1.6
			s0.7-0.9,1.4-1.2c0.6-0.3,1.5-0.4,2.6-0.4h3.9v1.1h-3.8c-1.1,0-1.8,0.2-2.3,0.6c-0.4,0.4-0.6,0.9-0.6,1.4c0,0.6,0.2,1.2,0.8,1.5
			c0.5,0.4,1.2,0.6,2.1,0.6s1.6-0.2,2.2-0.6c0.6-0.4,1.1-1,1.4-1.7l0.3,1c-0.3,0.7-0.8,1.3-1.5,1.8S248.3,288.4,247.2,288.5
			L247.2,288.5z M251.1,288.3v-2.5l-0.1-0.4v-4.2c0-1-0.3-1.7-0.8-2.2s-1.3-0.8-2.4-0.8c-0.7,0-1.4,0.1-2.1,0.4s-1.2,0.6-1.7,1
			l-0.7-1.1c0.6-0.5,1.3-0.9,2.1-1.1s1.6-0.4,2.5-0.4c1.5,0,2.6,0.4,3.4,1.1c0.8,0.7,1.2,1.8,1.2,3.3v7L251.1,288.3L251.1,288.3z"/>
		<path class="st29" d="M256.7,288.3v-15.9h1.5v15.9H256.7z"/>
		<path class="st29" d="M271.2,288.5c-0.8,0-1.6-0.1-2.2-0.4c-0.6-0.3-1.1-0.7-1.4-1.2s-0.5-1.1-0.5-1.7c0-0.6,0.1-1.1,0.4-1.6
			s0.7-0.9,1.4-1.2c0.6-0.3,1.5-0.4,2.6-0.4h3.9v1.1h-3.8c-1.1,0-1.8,0.2-2.3,0.6c-0.4,0.4-0.6,0.9-0.6,1.4c0,0.6,0.2,1.2,0.8,1.5
			c0.5,0.4,1.2,0.6,2.1,0.6s1.6-0.2,2.2-0.6c0.6-0.4,1.1-1,1.4-1.7l0.3,1c-0.3,0.7-0.8,1.3-1.5,1.8S272.3,288.4,271.2,288.5
			L271.2,288.5z M275.1,288.3v-2.5l-0.1-0.4v-4.2c0-1-0.3-1.7-0.8-2.2s-1.3-0.8-2.4-0.8c-0.7,0-1.4,0.1-2.1,0.4
			c-0.7,0.2-1.2,0.6-1.7,1l-0.7-1.1c0.6-0.5,1.3-0.9,2.1-1.1s1.6-0.4,2.5-0.4c1.5,0,2.6,0.4,3.4,1.1c0.8,0.7,1.2,1.8,1.2,3.3v7
			L275.1,288.3L275.1,288.3z"/>
		<path class="st29" d="M285.2,287.9c-1.1,0-2-0.2-2.9-0.7c-0.9-0.5-1.5-1.1-2-1.9s-0.7-1.8-0.7-2.9s0.2-2,0.7-2.8s1.2-1.5,2-1.9
			s1.8-0.7,2.9-0.7c1,0,1.9,0.2,2.7,0.6c0.8,0.4,1.4,1,1.9,1.8s0.7,1.8,0.7,3s-0.2,2.2-0.7,3c-0.5,0.8-1.1,1.4-1.9,1.9
			C287.2,287.7,286.2,287.9,285.2,287.9L285.2,287.9z M285.5,292.6c-1,0-2-0.1-3-0.5c-0.9-0.3-1.7-0.7-2.3-1.3l0.8-1.2
			c0.5,0.5,1.2,0.9,2,1.1s1.6,0.4,2.5,0.4c1.4,0,2.5-0.3,3.1-1c0.7-0.7,1-1.7,1-3.1v-2.8l0.2-1.9l-0.1-1.9v-3.4h1.5v9.9
			c0,1.9-0.5,3.4-1.4,4.3C288.8,292.2,287.4,292.6,285.5,292.6L285.5,292.6z M285.4,286.6c0.8,0,1.6-0.2,2.2-0.5
			c0.6-0.4,1.1-0.8,1.5-1.5s0.6-1.3,0.6-2.1s-0.2-1.5-0.6-2.1c-0.4-0.6-0.9-1.1-1.5-1.5c-0.6-0.4-1.4-0.5-2.2-0.5s-1.5,0.2-2.2,0.5
			c-0.6,0.4-1.2,0.8-1.5,1.5c-0.4,0.6-0.5,1.3-0.5,2.1s0.2,1.5,0.5,2.1s0.9,1.1,1.5,1.5S284.6,286.6,285.4,286.6z M285.6,275.4
			c-0.9,0-1.7-0.2-2.3-0.7s-1-1.2-1-2h1.1c0,0.6,0.2,1,0.7,1.3s0.9,0.5,1.5,0.5s1.1-0.2,1.5-0.5s0.6-0.8,0.6-1.3h1.1
			c0,0.9-0.4,1.5-1,2C287.2,275.2,286.5,275.4,285.6,275.4L285.6,275.4z"/>
		<path class="st29" d="M299.9,288.5c-1.1,0-2-0.2-2.9-0.7c-0.9-0.5-1.5-1.2-2-2c-0.5-0.9-0.7-1.9-0.7-3s0.2-2.1,0.7-3
			c0.5-0.9,1.1-1.5,2-2s1.8-0.7,2.9-0.7c1,0,1.9,0.2,2.6,0.7s1.4,1.1,1.9,1.9s0.7,1.9,0.7,3.1s-0.2,2.2-0.7,3.1s-1.1,1.5-1.9,2
			S300.9,288.5,299.9,288.5L299.9,288.5z M300,287.1c0.8,0,1.5-0.2,2.1-0.5s1.1-0.9,1.5-1.5s0.5-1.4,0.5-2.3s-0.2-1.7-0.5-2.3
			s-0.9-1.2-1.5-1.5c-0.6-0.4-1.4-0.5-2.1-0.5s-1.5,0.2-2.1,0.5s-1.1,0.9-1.5,1.5c-0.4,0.7-0.6,1.4-0.6,2.3s0.2,1.6,0.6,2.3
			c0.4,0.7,0.9,1.2,1.5,1.5S299.2,287.1,300,287.1z M304.3,288.3v-3.4l0.1-2.3l-0.2-2.3v-8h1.5v15.9H304.3z"/>
		<path class="st29" d="M313.1,288.5c-0.8,0-1.6-0.1-2.2-0.4c-0.6-0.3-1.1-0.7-1.4-1.2s-0.5-1.1-0.5-1.7c0-0.6,0.1-1.1,0.4-1.6
			s0.7-0.9,1.4-1.2c0.6-0.3,1.5-0.4,2.6-0.4h3.9v1.1h-3.8c-1.1,0-1.8,0.2-2.3,0.6c-0.4,0.4-0.6,0.9-0.6,1.4c0,0.6,0.2,1.2,0.8,1.5
			c0.5,0.4,1.2,0.6,2.1,0.6s1.6-0.2,2.2-0.6c0.6-0.4,1.1-1,1.4-1.7l0.3,1c-0.3,0.7-0.8,1.3-1.5,1.8S314.2,288.4,313.1,288.5
			L313.1,288.5z M317,288.3v-2.5l-0.1-0.4v-4.2c0-1-0.3-1.7-0.8-2.2s-1.3-0.8-2.4-0.8c-0.7,0-1.4,0.1-2.1,0.4
			c-0.7,0.2-1.2,0.6-1.7,1l-0.7-1.1c0.6-0.5,1.3-0.9,2.1-1.1s1.6-0.4,2.5-0.4c1.5,0,2.6,0.4,3.4,1.1c0.8,0.7,1.2,1.8,1.2,3.3v7
			L317,288.3L317,288.3z"/>
		<path class="st29" d="M322.6,288.3v-15.9h1.5v15.9H322.6z M323.8,285.4l0-2l7-6.4h1.9l-5,4.7l-0.9,0.7L323.8,285.4L323.8,285.4z
			 M331.3,288.3l-4.7-5.9l1-1.2l5.6,7H331.3L331.3,288.3z"/>
		<path class="st29" d="M336.1,274.8c-0.3,0-0.5-0.1-0.7-0.3s-0.3-0.4-0.3-0.7s0.1-0.5,0.3-0.7c0.2-0.2,0.4-0.3,0.7-0.3
			s0.5,0.1,0.7,0.3s0.3,0.4,0.3,0.7s-0.1,0.5-0.3,0.7S336.4,274.8,336.1,274.8z M335.3,288.4v-11.3h1.5v11.3H335.3z"/>
		<path class="st29" d="M351.4,288.5c-1.1,0-2.1-0.2-3-0.7s-1.6-1.2-2.1-2s-0.8-1.9-0.8-3s0.2-2.1,0.8-3c0.5-0.9,1.2-1.5,2.1-2
			s1.9-0.7,3-0.7c1,0,1.8,0.2,2.6,0.6s1.4,0.9,1.8,1.7l-1.1,0.8c-0.4-0.6-0.9-1-1.4-1.3c-0.6-0.3-1.2-0.4-1.9-0.4
			c-0.8,0-1.5,0.2-2.2,0.5c-0.6,0.4-1.1,0.9-1.5,1.5c-0.4,0.7-0.6,1.4-0.6,2.3s0.2,1.7,0.6,2.3s0.9,1.2,1.5,1.5s1.4,0.5,2.2,0.5
			c0.7,0,1.3-0.1,1.9-0.4c0.6-0.3,1-0.7,1.4-1.2l1.1,0.8c-0.4,0.7-1,1.3-1.8,1.7S352.3,288.5,351.4,288.5L351.4,288.5z"/>
		<path class="st29" d="M359.5,274.8c-0.3,0-0.5-0.1-0.7-0.3s-0.3-0.4-0.3-0.7s0.1-0.5,0.3-0.7c0.2-0.2,0.4-0.3,0.7-0.3
			s0.5,0.1,0.7,0.3s0.3,0.4,0.3,0.7s-0.1,0.5-0.3,0.7S359.8,274.8,359.5,274.8z M358.8,288.4v-11.3h1.5v11.3H358.8z"/>
		<path class="st29" d="M370.3,277c0.9,0,1.7,0.2,2.4,0.5s1.2,0.9,1.6,1.6c0.4,0.7,0.6,1.6,0.6,2.7v6.5h-1.5V282
			c0-1.2-0.3-2.1-0.9-2.7c-0.6-0.6-1.4-0.9-2.5-0.9c-0.8,0-1.5,0.2-2.1,0.5s-1,0.8-1.4,1.4c-0.3,0.6-0.5,1.3-0.5,2.2v5.9h-1.5v-15.9
			h1.5v7.7l-0.3-0.6c0.4-0.8,0.9-1.5,1.7-1.9S369.2,277,370.3,277L370.3,277z"/>
		<path class="st29" d="M382.2,288.5c-0.8,0-1.6-0.1-2.2-0.4c-0.6-0.3-1.1-0.7-1.4-1.2s-0.5-1.1-0.5-1.7c0-0.6,0.1-1.1,0.4-1.6
			s0.7-0.9,1.4-1.2c0.6-0.3,1.5-0.4,2.6-0.4h3.9v1.1h-3.8c-1.1,0-1.8,0.2-2.3,0.6c-0.4,0.4-0.6,0.9-0.6,1.4c0,0.6,0.2,1.2,0.8,1.5
			c0.5,0.4,1.2,0.6,2.1,0.6s1.6-0.2,2.2-0.6c0.6-0.4,1.1-1,1.4-1.7l0.3,1c-0.3,0.7-0.8,1.3-1.5,1.8S383.3,288.4,382.2,288.5
			L382.2,288.5z M386.1,288.3v-2.5l-0.1-0.4v-4.2c0-1-0.3-1.7-0.8-2.2s-1.3-0.8-2.4-0.8c-0.7,0-1.4,0.1-2.1,0.4
			c-0.7,0.2-1.2,0.6-1.7,1l-0.7-1.1c0.6-0.5,1.3-0.9,2.1-1.1s1.6-0.4,2.5-0.4c1.5,0,2.6,0.4,3.4,1.1c0.8,0.7,1.2,1.8,1.2,3.3v7
			L386.1,288.3L386.1,288.3z"/>
		<path class="st29" d="M390.5,288.3v-1l7.5-9.5l0.3,0.5h-7.7v-1.3h8.9v1l-7.5,9.5l-0.4-0.5h8v1.3L390.5,288.3L390.5,288.3z"/>
		<path class="st29" d="M402.6,288.3v-15.9h1.5v15.9H402.6z"/>
		<path class="st29" d="M411.6,288.5c-0.8,0-1.6-0.1-2.2-0.4c-0.6-0.3-1.1-0.7-1.4-1.2s-0.5-1.1-0.5-1.7c0-0.6,0.1-1.1,0.4-1.6
			s0.7-0.9,1.4-1.2c0.6-0.3,1.5-0.4,2.6-0.4h3.9v1.1h-3.8c-1.1,0-1.8,0.2-2.3,0.6c-0.4,0.4-0.6,0.9-0.6,1.4c0,0.6,0.2,1.2,0.8,1.5
			c0.5,0.4,1.2,0.6,2.1,0.6s1.6-0.2,2.2-0.6c0.6-0.4,1.1-1,1.4-1.7l0.3,1c-0.3,0.7-0.8,1.3-1.5,1.8S412.6,288.4,411.6,288.5
			L411.6,288.5z M415.5,288.3v-2.5l-0.1-0.4v-4.2c0-1-0.3-1.7-0.8-2.2s-1.3-0.8-2.4-0.8c-0.7,0-1.4,0.1-2.1,0.4
			c-0.7,0.2-1.2,0.6-1.7,1l-0.7-1.1c0.6-0.5,1.3-0.9,2.1-1.1s1.6-0.4,2.5-0.4c1.5,0,2.6,0.4,3.4,1.1c0.8,0.7,1.2,1.8,1.2,3.3v7
			L415.5,288.3L415.5,288.3z"/>
		<path class="st29" d="M421,288.3v-11.3h1.5v3.1l-0.1-0.5c0.3-0.9,0.8-1.5,1.6-2s1.7-0.7,2.8-0.7v1.5c-0.1,0-0.1,0-0.2,0
			c-0.1,0-0.1,0-0.2,0c-1.2,0-2.1,0.4-2.8,1.1s-1,1.8-1,3.1v5.8L421,288.3L421,288.3z"/>
	</g>
	<g>
		<g>
			<g id="BcFDJe.tif">
				<g>
					<path class="st30" d="M116.2,562.5v1.6c0,0.3,0,0.6,0,0.9c-0.1,0.8-0.5,1.2-1.3,1.3c-0.3,0-0.5,0-0.8,0H82.9
						c-0.3,0-0.7,0-1.1,0c-1,0-2,0-2.9,0c-0.8,0-1.6,0-2.4,0c-1.8,0-2.2-0.4-2.1-2.3c-0.1-3.3-0.1-6.7,0-10c0-0.3,0-0.6,0-1v-50.5
						c0-0.4,0-0.7,0-1c0.1-0.6,0.5-1,1.1-1.1c0.3-0.1,0.6,0,1,0h1.3l-4.7-7.6c-1.2,1-2.2,2.4-2.7,4.2c-0.1,0.3,0,0.6-0.3,0.9V572
						c0.3,0.1,0.2,0.4,0.3,0.6c1.1,3.9,4.2,6.2,8.2,6.2c10.1,0,20.2,0,30.3,0c1.6,0,3.1,0.2,4.7-0.1c3.9-0.7,6.7-3.8,6.9-7.8
						c0-0.4,0-0.8,0-1.1v-0.3L116.2,562.5L116.2,562.5z M100.3,573.8c0,0.7-0.3,1.1-1,1.1h-8.1c-0.7,0-1-0.3-1-1c0-0.9,0-1.9,0-2.8
						c0-0.7,0.3-0.9,1-0.9c1.4,0,2.8,0,4.2,0c1.3,0,2.6,0,3.9,0c0.8,0,1.2,0.3,1.1,1.1C100.3,572.1,100.3,572.9,100.3,573.8
						L100.3,573.8z"/>
					<path class="st31" d="M116.2,509.7v11.4c0,13.8,0,27.7,0,41.5v1.6c0,0.3,0,0.6,0,0.9c-0.1,0.8-0.5,1.2-1.3,1.3
						c-0.3,0-0.5,0-0.8,0H82.9c-0.3,0-0.7,0-1.1,0c0.1-0.2,0.2-0.5,0.4-0.8c1.2-2.1,2.4-4.2,3.7-6.2c4.6-7.7,9.2-15.5,13.9-23.2
						c1.5-2.5,3-5,4.5-7.5c2.3-3.8,4.5-7.6,6.8-11.4c0.5-0.8,1-1.7,1.5-2.5c1.2-2,2.3-4,3.6-5.9
						C116.2,509.1,116.2,509.4,116.2,509.7L116.2,509.7z"/>
					<path class="st31" d="M106.3,500.5c-0.1,0.3-0.2,0.6-0.4,1c-1.6,2.7-3.2,5.4-4.8,8.1c-0.6,1-1.1,1.9-1.7,2.8
						c-2.3,3.9-4.7,7.8-7,11.7c-3.8,6.4-7.6,12.7-11.4,19.1c-2.2,3.6-4.4,7.3-6.6,10.9c0-0.3,0-0.6,0-1v-50.5c0-0.4,0-0.7,0-1
						c0.1-0.6,0.5-1,1.1-1.1c0.3-0.1,0.6,0,1,0h1.3c3.7,0,7.5,0,11.2,0c5.5,0,11,0,16.5,0C105.7,500.5,106,500.5,106.3,500.5
						L106.3,500.5z"/>
					<path class="st32" d="M116.2,508.7c-1.3,1.9-2.4,3.9-3.6,5.9c-0.5,0.8-1,1.7-1.5,2.5c-2.3,3.8-4.5,7.6-6.8,11.4
						c-1.5,2.5-3,5-4.5,7.5c-4.6,7.7-9.2,15.5-13.9,23.2c-1.2,2.1-2.5,4.2-3.7,6.2c-0.2,0.2-0.2,0.5-0.4,0.8c-1,0-2,0-2.9,0
						c-0.8,0-1.6,0-2.4,0c-1.8,0-2.2-0.4-2.1-2.3c-0.1-3.3-0.1-6.7,0-10c2.2-3.6,4.4-7.3,6.6-10.9c3.8-6.4,7.6-12.7,11.4-19.1
						c2.3-3.9,4.7-7.8,7-11.7c0.6-0.9,1.1-1.9,1.7-2.8c1.6-2.7,3.2-5.4,4.8-8.1c0.2-0.3,0.3-0.6,0.4-1c2-0.2,4.1-0.1,6.1,0
						c0.8,0,1.6,0,2.3,0c1,0,1.5,0.5,1.5,1.5c0,0.6,0,1.2,0,1.8C116.2,505.5,116.3,507.1,116.2,508.7L116.2,508.7z"/>
					<path class="st33" d="M95.3,570.1c1.3,0,2.6,0,3.9,0c0.8,0,1.2,0.3,1.1,1.1c0,0.8,0,1.7,0,2.5c0,0.7-0.3,1.1-1,1.1
						c-2.7,0-5.4,0-8.1,0c-0.7,0-1-0.3-1-1c0-0.9,0-1.9,0-2.8c0-0.7,0.3-0.9,0.9-0.9C92.5,570.2,93.9,570.1,95.3,570.1z"/>
					<path class="st34" d="M101.7,495.6c0,0.6-0.5,0.6-0.9,0.6c-1.8,0-3.7,0-5.6,0s-3.6,0-5.4,0c-0.4,0-0.9,0-0.9-0.6
						c0-0.6,0.4-0.8,0.9-0.8h10.9C101.3,494.8,101.7,495,101.7,495.6L101.7,495.6z"/>
				</g>
			</g>
			<path class="st33" d="M113.7,491.1c0,0-0.1-0.1-0.1-0.1H77c-0.1,0.1-0.3,0.2-0.4,0.2c-0.3,0.1-0.6,0.1-0.8,0.2
				c-1,0.4-2,0.9-2.7,1.5l4.7,7.6c3.7,0,7.5,0,11.2,0c5.5,0,11,0,16.5,0c0.3,0,0.6,0,0.9,0c2-0.2,4.1-0.1,6.1,0c0.8,0,1.6,0,2.3,0
				c1,0,1.5,0.5,1.5,1.5c0,0.6,0,1.2,0,1.8c0.1,1.6,0.1,3.3,0,4.9c0,0.3,0,0.6,0,1v11.4c0,13.8,0,27.7,0,41.5l4.3,6.9V500
				C120.5,495.2,118.3,492.4,113.7,491.1L113.7,491.1z M100.8,496.2c-1.8,0-3.7,0-5.6,0s-3.6,0-5.4,0c-0.4,0-0.9,0-0.9-0.6
				c0-0.6,0.4-0.8,0.9-0.8h10.9c0.5,0,0.9,0.2,0.9,0.8C101.7,496.2,101.2,496.2,100.8,496.2L100.8,496.2z"/>
		</g>
		<g>
			<path class="st35" d="M157.8,128.2c0,1.4-0.4,1.6-1.7,1.6c-2.5,0-6.3,0-11.1,0L78.7,63.5c9,0,21.2,0,33.5,0c5.5,0,11,0,16.3,0
				c12.2,0,22.7,0,27.6,0c1.3,0,1.7,0.2,1.7,1.6C157.8,86.2,157.8,107.2,157.8,128.2z"/>
			<g>
				<g id="EcWaTZ.tif">
					<g>
						<path class="st30" d="M159.6,55.4c-0.1,0-0.1-0.1-0.1-0.2H64.6c-0.1,0.4-0.5,0.4-0.8,0.5c-3.5,1.4-5.4,4-5.6,7.8
							c0,6.9,0,13.8,0,20.7v16.6c0,4.1,0,8.2,0,12.3l0,0c0,5.4,0,10.7,0,16.1c0,5.4,3.5,8.9,8.9,8.9c2.4,0,4.8,0,7.2,0h24.2
							c4.6,0,9.1,0,13.7,0c5.5,0,11.1,0,16.6,0c8.2,0,16.4,0,24.5,0h4.2c5,0,8.6-3.5,8.6-8.6V64C166.1,59.6,163.9,56.7,159.6,55.4
							L159.6,55.4z M157.8,128.2c0,1.4-0.4,1.6-1.7,1.6c-2.5,0-6.3,0-11.1,0h-19.4c-21.1,0-46.2,0-56,0h-1.3c-1.2,0-1.8-0.6-1.8-1.8
							v-2.8c0-20,0-40,0-60c0-1.3,0.3-1.8,1.7-1.8c2.4,0,6,0,10.5,0c8.9,0,21.2,0,33.5,0c5.5,0,11,0,16.3,0c3,0,5.9,0,8.7,0
							c8.4,0,15.2,0,18.9,0c1.3,0,1.7,0.2,1.7,1.6C157.8,86.2,157.8,107.2,157.8,128.2L157.8,128.2z"/>
						<path class="st36" d="M38.3,84.2H24.5V66.6c0.2-0.5,0.5-0.9,0.8-1.3L38.3,84.2z"/>
						<rect x="24.5" y="84.2" class="st33" width="24.9" height="16.6"/>
						<path class="st36" d="M67.1,138.1c-5.4,0-8.9-3.5-8.9-8.9c0-5.3,0-10.7,0-16.1l0,0l-8.5-12.4H24.5V160c1.1,2.4,3,3.1,5.6,3.1
							c6.4-0.1,12.9-0.1,19.3-0.1c6.8,0,13.5,0,20.3,0c3,0,4.6-1.6,4.6-4.6c0-6.8,0-13.5,0-20.3C71.9,138.1,69.5,138.1,67.1,138.1
							L67.1,138.1z M49.4,155.5L49.4,155.5c-3.2-0.6-4.9-3.1-3.8-5.7c0.7-1.7,2-2.4,3.8-2.6l0,0c2.4-0.1,4.2,1.7,4.2,4.2
							C53.5,153.9,51.7,155.6,49.4,155.5z"/>
						<path class="st37" d="M49.3,155.6c-3.2-0.6-4.8-3.1-3.8-5.7c0.7-1.7,2-2.4,3.8-2.6l0,0C49.4,150,49.4,152.8,49.3,155.6
							L49.3,155.6L49.3,155.6z"/>
						<path class="st31" d="M145,129.9c4.8,0,8.6,0,11.1,0C153.6,129.9,149.7,129.9,145,129.9c-4.8,0-10.4,0-16.5,0h-2.9
							c-21,0-45.9,0-56,0h-1.3c-1.2,0-1.8-0.6-1.8-1.8v-2.8c0-20,0-40,0-60c0-1.3,0.3-1.8,1.7-1.8c2.4,0,6,0,10.5,0L145,129.9
							L145,129.9z"/>
						<path class="st35" d="M156.1,63.5c-4.9,0-15.4,0-27.6,0C140.5,63.5,151,63.5,156.1,63.5z"/>
						<path class="st36" d="M124.3,154.7c-4.1,0-8.1,0-12.2,0l-0.1,0.1c-2.9,0-5.7,0-8.6,0c-2.7,0-5.3,0-8,0v-16.6h2.9L124.3,154.7
							L124.3,154.7z"/>
						<path class="st38" d="M58.2,63.5c0,6.9,0,13.8,0,20.7c-2.9,0-5.9,0-8.8,0H38.3l-13-19c0.8-1,1.8-1.8,3.3-1.8
							c7,0,13.9,0,20.9,0C52.3,63.5,55.2,63.5,58.2,63.5z"/>
						<path class="st33" d="M58.2,84.2v16.6c-2.8,0-5.7,0-8.5,0h-0.3V84.2C52.3,84.2,55.2,84.2,58.2,84.2L58.2,84.2z"/>
						<path class="st38" d="M141.2,158.8c0,2.3-1.7,4.2-3.9,4.2c-7,0-13.9,0-20.9,0l0,0l-12.9-8.2c2.9,0,5.7,0,8.6,0l0.1-0.1
							c4.1,0,8.1,0,12.2,0c1.5,0,2.9,0,4.4,0c2.8,0,5.6,0,8.4,0C139.4,154.8,141.2,156.6,141.2,158.8L141.2,158.8z"/>
						<path class="st36" d="M116.4,163c-1.4,0-2.8,0-4.3,0c-6.6,0-13.2,0-19.7,0c-1.8,0-3.5,0-5.3,0c-2.2,0-4-1.9-4-4.1
							c0-2.1,1.6-3.9,3.7-4.1c0.2,0,0.3,0,0.5,0c2.8-0.1,5.5,0,8.3,0s5.3,0,8,0L116.4,163L116.4,163z"/>
						<path class="st39" d="M49.4,155.5c0-2.8,0-5.5,0-8.2c2.4-0.1,4.2,1.7,4.2,4.2C53.5,153.9,51.7,155.6,49.4,155.5L49.4,155.5z"
							/>
					</g>
				</g>
				<path class="st38" d="M128.8,138.1v16.6c-1.5,0-2.9,0-4.4,0l-25.9-16.6c4.6,0,9.1,0,13.7,0C117.7,138.1,123.2,138.1,128.8,138.1
					L128.8,138.1z"/>
				<path class="st38" d="M58.2,113.2l-8.5-12.4c2.8,0,5.7,0,8.5,0C58.2,105,58.2,109.1,58.2,113.2z"/>
			</g>
		</g>
		<g>
			<g>
				<rect x="47.3" y="354.5" class="st36" width="95.9" height="23.3"/>
				<path class="st30" d="M62.3,362.4h7.3c1.5,0,2.8,1.2,2.8,2.8v2.5c0,1.5-1.2,2.8-2.8,2.8h-7.3c-1.5,0-2.8-1.2-2.8-2.8v-2.5
					C59.6,363.7,60.8,362.4,62.3,362.4z"/>
				<rect x="101.3" y="366.4" class="st30" width="4.8" height="4.8"/>
				<rect x="113.8" y="366.4" class="st30" width="4.8" height="4.8"/>
				<rect x="126.4" y="366.4" class="st30" width="4.8" height="4.8"/>
			</g>
			<g>
				<rect x="47.3" y="381.3" class="st36" width="95.9" height="23.3"/>
				<path class="st30" d="M62.3,389.3h7.3c1.5,0,2.8,1.2,2.8,2.8v2.5c0,1.5-1.2,2.8-2.8,2.8h-7.3c-1.5,0-2.8-1.2-2.8-2.8V392
					C59.6,390.5,60.8,389.3,62.3,389.3z"/>
				<rect x="101.3" y="393.3" class="st30" width="4.8" height="4.8"/>
				<rect x="113.8" y="393.3" class="st30" width="4.8" height="4.8"/>
				<rect x="126.4" y="393.3" class="st30" width="4.8" height="4.8"/>
			</g>
			<g>
				<rect x="47.3" y="408.2" class="st36" width="95.9" height="23.3"/>
				<path class="st30" d="M62.3,416.1h7.3c1.5,0,2.8,1.2,2.8,2.8v2.5c0,1.5-1.2,2.8-2.8,2.8h-7.3c-1.5,0-2.8-1.2-2.8-2.8v-2.5
					C59.6,417.4,60.8,416.1,62.3,416.1z"/>
				<rect x="101.3" y="420.1" class="st30" width="4.8" height="4.8"/>
				<rect x="113.8" y="420.1" class="st30" width="4.8" height="4.8"/>
				<rect x="126.4" y="420.1" class="st30" width="4.8" height="4.8"/>
			</g>
		</g>
		<g>
			<path class="st38" d="M29.5,284.4h53.2c0.1,0.7,0.1,1.4,0.2,2.1h24.9c0-0.7,0.1-1.3,0.1-2.1h53c0.5,2.5-0.8,4.9-3,5.9
				c-0.4,0.2-0.8,0.3-1.2,0.5H33.9c-2.2-0.7-3.7-2.1-4.4-4.4L29.5,284.4L29.5,284.4z M41.7,287.6c0,0.1,0,0.2,0,0.3h5.4
				c0-0.1,0-0.2,0-0.3H41.7z"/>
			<path class="st30" d="M95.3,211.3c16.4,0,32.8,0,49.2,0c3.2,0,4.5,1.3,4.5,4.5c0,20.6,0,41.3,0,62c0,3.3-1.3,4.6-4.6,4.6
				c-32.7,0-65.4,0-98.1,0c-3.4,0-4.6-1.3-4.6-4.7c0-20.6,0-41.2,0-61.8c0-3.3,1.3-4.5,4.6-4.5C62.5,211.3,78.9,211.3,95.3,211.3
				L95.3,211.3z M143.3,216.9h-96v59.7h96L143.3,216.9L143.3,216.9z M97,214c-0.8-0.5-1.2-1.2-1.6-1.1c-0.4,0.1-0.8,0.8-1.2,1.2
				c0.4,0.4,0.8,1,1.2,1S96.3,214.5,97,214z"/>
		</g>
	</g>
	<path class="st0" d="M190,567.5c0,27.7-22.5,50.2-50.2,50.2H50.7c-27.7,0-50.2-22.5-50.2-50.2V66.7c0-27.7,22.5-50.2,50.2-50.2
		h89.2c27.7,0,50.2,22.5,50.2,50.2v-0.9V567.5z"/>
	<g>
		<path class="st40" d="M488.8,292.4c0,0,0-0.1,0-0.1H639c0,0,0,0.1,0,0.1C620,292.4,507.4,292.4,488.8,292.4L488.8,292.4z"/>
		<path class="st35" d="M476.4,339.6c0.8-10.2-1.7-21.8,1-31.4c43.3-0.6,128.4-0.6,172.8,0c2.8,9.5,1.3,21,1,30.9
			c-0.1,2.3-1.9,2.9-3.8,2.7c-35.9,0-122.2,0-156.9,0C486.9,341,477.8,343.9,476.4,339.6L476.4,339.6z"/>
		<path class="st31" d="M650.3,308.2c-44.8-0.6-129.1-0.6-172.8,0c4.8-6.1,6.2-18,16-15.9c15.7,0,129.8,0,145.5,0
			C645,294.7,646.3,303.4,650.3,308.2L650.3,308.2z M499.9,298.8c0.9,0,2.3,0.3,2.5-1c0.4-2.2-3-1.8-4.4-1.5
			C495.9,297.6,498.2,299.3,499.9,298.8L499.9,298.8z M528.3,298.8c1.7,0.6,4-1.2,1.9-2.4c-1.3-0.3-4.7-0.8-4.4,1.4
			C526.1,299.1,527.4,298.8,528.3,298.8L528.3,298.8z M491.9,298.8c5.3,0.1,1.8-3.9-1.7-2.4C488.1,297.5,490.1,299.3,491.9,298.8z
			 M536.3,298.8c1.8,0.5,3.8-1.2,1.7-2.4C534.5,294.8,531,298.9,536.3,298.8z M518,298.8c4.9,0.2,2.1-3.6-1.3-2.6
			C514.2,297,515.8,299.4,518,298.8z M498.3,304.1c1.1,0.1,2.8-0.1,2.8-1.4c-0.2-1.8-2.8-1-4-1.2C494.6,302,496.5,304.7,498.3,304.1
			z M517.9,304.1c1.1,0.1,2.7,0,2.8-1.4c-0.1-1.8-2.8-1.1-4-1.2C514.1,302,516,304.7,517.9,304.1L517.9,304.1z M490.7,301.5
			c-2.1-0.6-4,1.8-1.3,2.6C492.8,305.1,495.5,301.4,490.7,301.5z M510.2,301.5c-5-0.1-2.1,3.6,1.3,2.6
			C513.9,303.3,512.4,300.9,510.2,301.5z M529.8,301.5c-2.1-0.6-4,1.8-1.3,2.6C531.9,305.1,534.5,301.4,529.8,301.5z M510.2,298.8
			c2.2,0.6,3.9-1.8,1.3-2.5C508.1,295.2,505.3,298.9,510.2,298.8z"/>
		<g>
			<path class="st41" d="M488.8,322.3c-4.9,0.3-5.6,0-5.2-5c-0.2-2,2.6-1,2.6-2.9c0.3-1.9,5-1.8,5.2,0.1c0.1,0.8,0.5,1.2,1.2,1.3
				c2.3,0.3,1.1,3.4,1.4,5C493.9,323.3,490.4,321.9,488.8,322.3L488.8,322.3z"/>
			<path class="st41" d="M507.2,322.3c-4.9,0.3-5.6,0-5.2-5c-0.2-2,2.6-1,2.6-2.9c0.3-1.9,5-1.8,5.2,0.1c0.1,0.8,0.5,1.2,1.2,1.3
				c2.3,0.3,1.1,3.4,1.4,5C512.3,323.3,508.8,321.9,507.2,322.3L507.2,322.3z"/>
			<path class="st41" d="M525.6,322.3c-4.9,0.3-5.6,0-5.2-5c-0.2-2,2.6-1,2.6-2.9c0.3-1.9,5-1.8,5.2,0.1c0.1,0.8,0.5,1.2,1.2,1.3
				c2.3,0.3,1.1,3.4,1.3,5C530.7,323.3,527.2,321.9,525.6,322.3L525.6,322.3z"/>
			<path class="st41" d="M544,322.3c-4.9,0.3-5.6,0-5.2-5c-0.2-2,2.6-1,2.6-2.9c0.3-1.9,5-1.8,5.2,0.1c0.1,0.8,0.5,1.2,1.2,1.3
				c2.3,0.3,1.1,3.4,1.3,5C549.1,323.3,545.6,321.9,544,322.3L544,322.3z"/>
			<path class="st41" d="M562.4,322.3c-4.9,0.3-5.6,0-5.2-5c-0.2-2,2.6-1,2.6-2.9c0.3-1.9,5-1.8,5.2,0.1c0.1,0.8,0.5,1.2,1.2,1.3
				c2.3,0.3,1.1,3.4,1.3,5C567.5,323.3,564,321.9,562.4,322.3L562.4,322.3z"/>
			<path class="st41" d="M580.8,322.3c-4.9,0.3-5.6,0-5.2-5c-0.2-2,2.6-1,2.6-2.9c0.3-1.9,5-1.8,5.2,0.1c0.1,0.8,0.5,1.2,1.2,1.3
				c2.3,0.3,1.1,3.4,1.3,5C585.9,323.3,582.4,321.9,580.8,322.3L580.8,322.3z"/>
			<path class="st41" d="M599.2,322.3c-4.9,0.3-5.6,0-5.2-5c-0.2-2,2.6-1,2.6-2.9c0.3-1.9,5-1.8,5.2,0.1c0.1,0.8,0.5,1.2,1.2,1.3
				c2.3,0.3,1.1,3.4,1.3,5C604.3,323.3,600.9,321.9,599.2,322.3L599.2,322.3z"/>
			<path class="st41" d="M617.6,322.3c-4.9,0.3-5.6,0-5.2-5c-0.2-2,2.6-1,2.6-2.9c0.3-1.9,5-1.8,5.2,0.1c0.1,0.8,0.5,1.2,1.2,1.3
				c2.3,0.3,1.1,3.4,1.3,5C622.7,323.3,619.3,321.9,617.6,322.3L617.6,322.3z"/>
			<path class="st41" d="M636,322.3c-4.9,0.3-5.6,0-5.2-5c-0.2-2,2.6-1,2.6-2.9c0.3-1.9,5-1.8,5.2,0.1c0.1,0.8,0.5,1.2,1.2,1.3
				c2.3,0.3,1.1,3.4,1.3,5C641.1,323.3,637.7,321.9,636,322.3L636,322.3z"/>
			<path class="st41" d="M488.8,336.4c-4.9,0.3-5.6,0-5.2-5c-0.2-2,2.6-1,2.6-2.9c0.3-1.9,5-1.8,5.2,0.1c0.1,0.8,0.5,1.2,1.2,1.3
				c2.3,0.3,1.1,3.4,1.4,5C493.9,337.4,490.4,336.1,488.8,336.4L488.8,336.4z"/>
			<path class="st41" d="M507.2,336.4c-4.9,0.3-5.6,0-5.2-5c-0.2-2,2.6-1,2.6-2.9c0.3-1.9,5-1.8,5.2,0.1c0.1,0.8,0.5,1.2,1.2,1.3
				c2.3,0.3,1.1,3.4,1.4,5C512.3,337.4,508.8,336.1,507.2,336.4L507.2,336.4z"/>
			<path class="st41" d="M525.6,336.4c-4.9,0.3-5.6,0-5.2-5c-0.2-2,2.6-1,2.6-2.9c0.3-1.9,5-1.8,5.2,0.1c0.1,0.8,0.5,1.2,1.2,1.3
				c2.3,0.3,1.1,3.4,1.3,5C530.7,337.4,527.2,336.1,525.6,336.4L525.6,336.4z"/>
			<path class="st41" d="M544,336.4c-4.9,0.3-5.6,0-5.2-5c-0.2-2,2.6-1,2.6-2.9c0.3-1.9,5-1.8,5.2,0.1c0.1,0.8,0.5,1.2,1.2,1.3
				c2.3,0.3,1.1,3.4,1.3,5C549.1,337.4,545.6,336.1,544,336.4L544,336.4z"/>
			<path class="st41" d="M562.4,336.4c-4.9,0.3-5.6,0-5.2-5c-0.2-2,2.6-1,2.6-2.9c0.3-1.9,5-1.8,5.2,0.1c0.1,0.8,0.5,1.2,1.2,1.3
				c2.3,0.3,1.1,3.4,1.3,5C567.5,337.4,564,336.1,562.4,336.4L562.4,336.4z"/>
			<path class="st41" d="M580.8,336.4c-4.9,0.3-5.6,0-5.2-5c-0.2-2,2.6-1,2.6-2.9c0.3-1.9,5-1.8,5.2,0.1c0.1,0.8,0.5,1.2,1.2,1.3
				c2.3,0.3,1.1,3.4,1.3,5C585.9,337.4,582.4,336.1,580.8,336.4L580.8,336.4z"/>
			<path class="st41" d="M599.2,336.4c-4.9,0.3-5.6,0-5.2-5c-0.2-2,2.6-1,2.6-2.9c0.3-1.9,5-1.8,5.2,0.1c0.1,0.8,0.5,1.2,1.2,1.3
				c2.3,0.3,1.1,3.4,1.3,5C604.3,337.4,600.9,336.1,599.2,336.4L599.2,336.4z"/>
			<path class="st41" d="M617.6,336.4c-4.9,0.3-5.6,0-5.2-5c-0.2-2,2.6-1,2.6-2.9c0.3-1.9,5-1.8,5.2,0.1c0.1,0.8,0.5,1.2,1.2,1.3
				c2.3,0.3,1.1,3.4,1.3,5C622.7,337.4,619.3,336.1,617.6,336.4L617.6,336.4z"/>
			<path class="st41" d="M636,336.4c-4.9,0.3-5.6,0-5.2-5c-0.2-2,2.6-1,2.6-2.9c0.3-1.9,5-1.8,5.2,0.1c0.1,0.8,0.5,1.2,1.2,1.3
				c2.3,0.3,1.1,3.4,1.3,5C641.1,337.4,637.7,336.1,636,336.4L636,336.4z"/>
		</g>
		<path class="st42" d="M499.9,298.8c-1.7,0.6-4-1.2-1.9-2.4c1.4-0.3,4.7-0.8,4.4,1.5C502.1,299.1,500.8,298.7,499.9,298.8
			L499.9,298.8z"/>
		<path class="st42" d="M528.3,298.8c-0.9,0-2.3,0.3-2.5-1c-0.3-2.2,3-1.8,4.4-1.4C532.4,297.6,530,299.3,528.3,298.8L528.3,298.8z"
			/>
		<path class="st42" d="M491.9,298.8c-1.8,0.5-3.8-1.2-1.7-2.4C493.8,294.9,497.2,298.9,491.9,298.8z"/>
		<path class="st42" d="M536.3,298.8c-5.4,0.1-1.8-4,1.7-2.4C540.1,297.5,538.1,299.3,536.3,298.8z"/>
		<path class="st42" d="M518,298.8c-2.2,0.6-3.8-1.8-1.3-2.6C520.2,295.2,523,298.9,518,298.8z"/>
		<path class="st42" d="M498.3,304.1c-1,0.2-2.9-0.4-2.3-1.8c0.5-1.3,2.5-0.6,3.6-0.8C502.6,301.8,500.5,304.9,498.3,304.1z"/>
		<path class="st42" d="M517.9,304.1c-1.9,0.6-3.7-2.1-1.2-2.6c1.3,0.2,4-0.6,4,1.2C520.6,304.1,519,304.2,517.9,304.1L517.9,304.1z
			"/>
		<path class="st42" d="M490.7,301.5c4.8-0.2,2.1,3.6-1.3,2.6C486.7,303.3,488.6,300.9,490.7,301.5z"/>
		<path class="st42" d="M510.2,301.5c2.2-0.6,3.7,1.8,1.3,2.6C508.1,305.1,505.3,301.4,510.2,301.5z"/>
		<path class="st42" d="M529.8,301.5c4.8-0.1,2.1,3.6-1.3,2.6C525.8,303.3,527.7,300.9,529.8,301.5z"/>
		<path class="st42" d="M510.2,298.8c-4.9,0.1-2.1-3.6,1.3-2.5C514.1,297,512.4,299.4,510.2,298.8z"/>
		<path class="st42" d="M628,298.8c1.7,0.6,4-1.2,1.9-2.4c-1.4-0.3-4.7-0.8-4.3,1.5C625.7,299.1,627,298.7,628,298.8L628,298.8z"/>
		<path class="st42" d="M599.5,298.8c0.9,0,2.3,0.3,2.5-1c0.3-2.2-3-1.8-4.4-1.4C595.5,297.6,597.8,299.3,599.5,298.8L599.5,298.8z"
			/>
		<path class="st42" d="M635.9,298.8c1.8,0.5,3.8-1.2,1.7-2.4C634.1,294.9,630.6,298.9,635.9,298.8z"/>
		<path class="st42" d="M591.5,298.8c5.4,0.1,1.8-4-1.7-2.4C587.8,297.5,589.8,299.3,591.5,298.8z"/>
		<path class="st42" d="M609.8,298.8c2.2,0.6,3.8-1.8,1.3-2.6C607.7,295.2,604.9,298.9,609.8,298.8z"/>
		<path class="st42" d="M629.5,304.1c1,0.2,2.9-0.4,2.3-1.8c-0.5-1.3-2.5-0.6-3.6-0.8C625.2,301.8,627.3,304.9,629.5,304.1z"/>
		<path class="st42" d="M610,304.1c1.9,0.6,3.7-2.1,1.2-2.6c-1.3,0.2-4-0.6-4,1.2C607.2,304.1,608.8,304.2,610,304.1L610,304.1z"/>
		<path class="st42" d="M637.1,301.5c-4.8-0.2-2.1,3.6,1.3,2.6C641.1,303.3,639.3,300.9,637.1,301.5z"/>
		<path class="st42" d="M617.6,301.5c-2.2-0.6-3.7,1.8-1.3,2.6C619.7,305.1,622.6,301.4,617.6,301.5z"/>
		<path class="st42" d="M598.1,301.5c-4.8-0.1-2.1,3.6,1.3,2.6C602.1,303.3,600.2,300.9,598.1,301.5z"/>
		<path class="st42" d="M617.6,298.8c4.9,0.1,2.1-3.6-1.3-2.5C613.8,297,615.4,299.4,617.6,298.8z"/>
		<path class="st42" d="M576.1,298.8c1.7,0.6,4-1.2,1.9-2.4c-1.4-0.3-4.7-0.8-4.3,1.5C573.9,299.1,575.2,298.7,576.1,298.8
			L576.1,298.8z"/>
		<path class="st42" d="M551.6,298.8c0.9,0,2.3,0.3,2.5-1c0.3-2.2-3-1.8-4.4-1.4C547.6,297.6,549.9,299.3,551.6,298.8L551.6,298.8z"
			/>
		<path class="st42" d="M583.1,298.8c1.8,0.5,3.8-1.2,1.7-2.4C581.2,294.9,577.8,298.9,583.1,298.8z"/>
		<path class="st42" d="M544.3,298.8c5.4,0.1,1.8-4-1.7-2.4C540.6,297.5,542.6,299.3,544.3,298.8z"/>
		<path class="st42" d="M560,298.8c2.2,0.6,3.8-1.8,1.3-2.6C557.8,295.2,555,298.9,560,298.8z"/>
		<path class="st42" d="M576,304.1c1,0.2,2.9-0.4,2.3-1.8c-0.5-1.3-2.5-0.6-3.6-0.8C571.6,301.8,573.8,304.9,576,304.1z"/>
		<path class="st42" d="M560.1,304.1c1.9,0.6,3.7-2.1,1.2-2.6c-1.3,0.2-4-0.6-4,1.2C557.4,304.1,559,304.2,560.1,304.1L560.1,304.1z
			"/>
		<path class="st42" d="M538.6,301.5c-5-0.1-2.1,3.6,1.4,2.6C542.4,303.3,540.8,300.9,538.6,301.5z"/>
		<path class="st42" d="M582.6,301.5c-4.8-0.2-2.1,3.6,1.3,2.6C586.6,303.3,584.7,300.9,582.6,301.5z"/>
		<path class="st42" d="M590,301.5c-4.8-0.2-2.1,3.6,1.3,2.6C594,303.3,592.1,300.9,590,301.5z"/>
		<path class="st42" d="M567.8,301.5c-2.2-0.6-3.7,1.8-1.3,2.6C569.9,305.1,572.7,301.4,567.8,301.5z"/>
		<path class="st42" d="M548.2,301.5c-4.8-0.1-2.1,3.6,1.3,2.6C552.2,303.3,550.3,300.9,548.2,301.5z"/>
		<path class="st42" d="M567.8,298.8c4.9,0.1,2.1-3.6-1.3-2.5C563.9,297,565.6,299.4,567.8,298.8z"/>
	</g>
</g>
<g>
	<path d="M657.8,342l4.6-10.1h1L668,342h-1.1l-4.2-9.5h0.4l-4.2,9.5H657.8L657.8,342z M659.6,339.3l0.3-0.9h5.9l0.3,0.9H659.6
		L659.6,339.3z"/>
	<path d="M669.5,342v-10.7h1V342H669.5z"/>
	<path d="M673.4,342v-10.7h1V342H673.4z"/>
	<path d="M680.3,342.1c-0.7,0-1.4-0.2-2-0.5s-1-0.8-1.4-1.4s-0.5-1.2-0.5-2s0.2-1.4,0.5-2c0.3-0.6,0.8-1,1.4-1.4
		c0.6-0.3,1.2-0.5,2-0.5s1.4,0.2,2,0.5s1,0.8,1.4,1.4c0.3,0.6,0.5,1.2,0.5,2s-0.2,1.4-0.5,2s-0.8,1-1.4,1.4S681,342.1,680.3,342.1
		L680.3,342.1z M680.3,341.2c0.5,0,1-0.1,1.5-0.4c0.4-0.2,0.8-0.6,1-1c0.2-0.5,0.4-1,0.4-1.5s-0.1-1.1-0.4-1.5c-0.2-0.4-0.6-0.8-1-1
		c-0.4-0.2-0.9-0.4-1.4-0.4s-1,0.1-1.4,0.4s-0.8,0.6-1,1s-0.4,1-0.4,1.5s0.1,1.1,0.4,1.5c0.2,0.5,0.6,0.8,1,1
		C679.3,341,679.8,341.2,680.3,341.2z"/>
	<path d="M687.6,342l-2.8-7.6h1l2.6,7h-0.5l2.7-7h0.9l2.6,7h-0.5l2.6-7h0.9l-2.9,7.6h-1l-2.5-6.6h0.3l-2.5,6.6H687.6L687.6,342z"/>
	<path d="M705.5,342.1c-0.7,0-1.4-0.2-2-0.5s-1-0.8-1.4-1.4s-0.5-1.2-0.5-2s0.2-1.4,0.5-2c0.3-0.6,0.8-1,1.4-1.4
		c0.6-0.3,1.2-0.5,2-0.5s1.4,0.2,2,0.5s1,0.8,1.4,1.4c0.3,0.6,0.5,1.2,0.5,2s-0.2,1.4-0.5,2s-0.8,1-1.4,1.4S706.3,342.1,705.5,342.1
		L705.5,342.1z M705.5,341.2c0.5,0,1-0.1,1.5-0.4c0.4-0.2,0.8-0.6,1-1c0.2-0.5,0.4-1,0.4-1.5s-0.1-1.1-0.4-1.5c-0.2-0.4-0.6-0.8-1-1
		c-0.4-0.2-0.9-0.4-1.4-0.4s-1,0.1-1.4,0.4s-0.8,0.6-1,1s-0.4,1-0.4,1.5s0.1,1.1,0.4,1.5c0.2,0.5,0.6,0.8,1,1
		C704.5,341,705,341.2,705.5,341.2z"/>
	<path d="M711.5,342v-7.6h1v2.1l-0.1-0.4c0.2-0.6,0.6-1,1.1-1.3c0.5-0.3,1.1-0.5,1.9-0.5v1c0,0-0.1,0-0.1,0s-0.1,0-0.1,0
		c-0.8,0-1.4,0.2-1.9,0.7c-0.5,0.5-0.7,1.2-0.7,2.1v3.9L711.5,342L711.5,342z"/>
	<path d="M721.3,342v-10.1h4.3c1.1,0,2,0.2,2.6,0.7c0.6,0.5,0.9,1.1,0.9,1.9c0,0.5-0.1,1-0.4,1.4s-0.6,0.7-1,0.9s-0.9,0.3-1.4,0.3
		l0.2-0.3c0.6,0,1.2,0.1,1.7,0.3c0.5,0.2,0.8,0.5,1.1,0.9s0.4,0.9,0.4,1.5c0,0.9-0.3,1.5-0.9,2s-1.6,0.7-2.8,0.7L721.3,342
		L721.3,342z M722.3,341.1h3.6c0.9,0,1.6-0.1,2-0.5c0.5-0.3,0.7-0.8,0.7-1.5s-0.2-1.1-0.7-1.4c-0.5-0.3-1.2-0.5-2-0.5h-3.7v-0.9h3.3
		c0.8,0,1.4-0.1,1.9-0.5s0.7-0.8,0.7-1.4s-0.2-1.1-0.7-1.4c-0.5-0.3-1.1-0.5-1.9-0.5h-3.2L722.3,341.1L722.3,341.1z"/>
	<path d="M731.9,342v-10.7h1V342H731.9z"/>
	<path d="M738.8,342.1c-0.7,0-1.4-0.2-2-0.5s-1-0.8-1.4-1.4s-0.5-1.2-0.5-2s0.2-1.4,0.5-2c0.3-0.6,0.8-1,1.4-1.4
		c0.6-0.3,1.2-0.5,2-0.5s1.4,0.2,2,0.5s1,0.8,1.4,1.4c0.3,0.6,0.5,1.2,0.5,2s-0.2,1.4-0.5,2s-0.8,1-1.4,1.4S739.6,342.1,738.8,342.1
		L738.8,342.1z M738.8,341.2c0.5,0,1-0.1,1.5-0.4c0.4-0.2,0.8-0.6,1-1c0.2-0.5,0.4-1,0.4-1.5s-0.1-1.1-0.4-1.5c-0.2-0.4-0.6-0.8-1-1
		c-0.4-0.2-0.9-0.4-1.4-0.4s-1,0.1-1.4,0.4s-0.8,0.6-1,1s-0.4,1-0.4,1.5s0.1,1.1,0.4,1.5c0.2,0.5,0.6,0.8,1,1
		C737.8,341,738.3,341.2,738.8,341.2z"/>
	<path d="M747.9,342.1c-0.8,0-1.4-0.2-2-0.5s-1-0.8-1.4-1.4s-0.5-1.2-0.5-2s0.2-1.4,0.5-2c0.3-0.6,0.8-1,1.4-1.4
		c0.6-0.3,1.3-0.5,2-0.5c0.6,0,1.2,0.1,1.7,0.4c0.5,0.2,0.9,0.6,1.2,1.1l-0.8,0.5c-0.3-0.4-0.6-0.7-1-0.9s-0.8-0.3-1.2-0.3
		c-0.5,0-1,0.1-1.5,0.4s-0.8,0.6-1,1s-0.4,1-0.4,1.5s0.1,1.1,0.4,1.5c0.2,0.4,0.6,0.8,1,1c0.4,0.2,0.9,0.4,1.5,0.4
		c0.5,0,0.9-0.1,1.2-0.3s0.7-0.5,1-0.8l0.8,0.5c-0.3,0.5-0.7,0.9-1.2,1.1C749.1,342,748.6,342.1,747.9,342.1L747.9,342.1z"/>
	<path d="M752.8,342v-10.7h1V342H752.8z M753.6,340l0-1.3l4.7-4.3h1.2l-3.3,3.2l-0.6,0.5L753.6,340L753.6,340z M758.6,342l-3.2-3.9
		l0.7-0.8l3.7,4.7H758.6L758.6,342z"/>
</g>
</svg>
