<?xml version="1.0" encoding="utf-8"?>
<!-- Generator: Adobe Illustrator 27.9.0, SVG Export Plug-In . SVG Version: 6.00 Build 0)  -->
<svg version="1.1" id="Layer_1" xmlns="http://www.w3.org/2000/svg" xmlns:xlink="http://www.w3.org/1999/xlink" x="0px" y="0px"
	 viewBox="0 0 729.1 437.2" style="enable-background:new 0 0 729.1 437.2;" xml:space="preserve">
<style type="text/css">
	.st0{fill:none;stroke:#6E6E77;stroke-width:3;stroke-miterlimit:10;}
	.st1{fill:#D7DCEA;}
	.st2{fill:#F4F7FC;}
	.st3{fill:none;stroke:#6E6E77;stroke-width:28;stroke-miterlimit:10;}
	.st4{fill:#DEE4EE;}
	.st5{fill:#6E6E77;}
	.st6{opacity:0.12;fill:#151433;enable-background:new    ;}
	.st7{opacity:0.38;fill:#FFFFFF;enable-background:new    ;}
	.st8{fill:none;stroke:#FFFFFF;stroke-width:3;stroke-linecap:round;stroke-linejoin:round;}
	.st9{fill:#F5FBFF;}
	.st10{enable-background:new    ;}
	.st11{fill:#5697D1;}
	.st12{fill:#E20E17;}
	.st13{fill:#B2000D;}
	.st14{fill:#FFFFFF;}
	.st15{display:none;fill:#FFFFFF;}
	.st16{fill:none;stroke:#FFFFFF;stroke-width:6;stroke-linecap:round;stroke-linejoin:round;}
</style>
<path class="st0" d="M446,134.6v84.5c0,15.7-12.7,28.4-28.5,28.4H277"/>
<path class="st0" d="M114.9,152.4v84.5c0,15.7,12.7,28.5,28.4,28.5H284"/>
<ellipse class="st1" cx="173.3" cy="327.6" rx="53.4" ry="42.5"/>
<ellipse class="st1" cx="441.3" cy="234.4" rx="53.4" ry="42.5"/>
<ellipse transform="matrix(0.3733 -0.9277 0.9277 0.3733 84.5477 668.3216)" class="st1" cx="536.9" cy="271.6" rx="42.5" ry="66"/>
<ellipse transform="matrix(0.3812 -0.9245 0.9245 0.3812 85.7371 783.3796)" class="st1" cx="628.1" cy="327.6" rx="42.5" ry="71.5"/>
<path class="st2" d="M728,361.1c-0.8-2.9-2.2-5.7-4-8.3c-1.2-1.7-2.5-3.3-4-4.9c-2-2-4.3-4-6.8-5.7c0,0,0,0,0,0
	c-14.8-12.2-33.8-19.5-54.5-19.5c-4.8,0-9.4,0.4-14,1.1c-2.2,0.3-4.3,0.8-6.4,1.3c-0.8-4.2-1.9-8.3-3.3-12.2
	c-11.8-33.4-43.7-57.4-81.1-57.4c-0.5,0-1,0-1.5,0c-15.1-24.9-42.4-41.5-73.6-41.5c-7.2,0-14.2,0.9-20.9,2.6h0
	c-15.6-21.9-41.1-36.2-70.1-36.2s-54.2,14.1-69.9,35.9h0c-2.4-0.2-4.8-0.3-7.2-0.3c-29.5,0-55.6,14.9-71.1,37.6c-0.7,0-1.4,0-2.1,0
	c-37.7,0-69.7,24.2-81.3,58c-0.9,2.4-1.6,4.9-2.2,7.4c-0.1,0.3-0.2,0.6-0.2,0.9c-1.8-0.3-3.7-0.5-5.5-0.7c-2.5-0.2-5.1-0.3-7.6-0.3
	c-26.7,0-50.4,12.1-66.2,31.1c-3.5,4.3-6.7,8.9-9.4,13.8c-0.3,0.5-0.6,1.1-0.9,1.6c-0.1,0.8-0.2,1.6-0.2,2.4c0,3.6,1.2,7.1,3.3,10.3
	c9.7,14.7,39.5,22.8,74.8,22.8c7.3,0,14.4-0.4,21.1-1c16.9,10.2,42.4,15.7,70.9,15.7c20.8,0,39.9-2.9,55.3-8.4
	c14.4,6.2,31.7,9.8,50.3,9.8c27.6,0,52.3-7.9,68.9-20.4c15.6,8.4,35.8,13.4,57.8,13.4c17.3,0,33.5-3.1,47.2-8.5
	c12.1,5.6,26.9,8.9,42.9,8.9c25.5,0,48-8.4,61.1-21c10.8,10.6,29.5,17.5,50.8,17.5c28.1,0,51.8-12.2,58.6-28.8c1.3-3.1,2-6.4,2-9.8
	v-0.1C729.1,365.8,728.8,363.4,728,361.1L728,361.1z"/>
<path class="st1" d="M239.6,253.5c15.5-22.7,41.5-37.6,71.1-37.6c2.4,0,4.8,0.1,7.2,0.3c35.6,3,65.1,27.6,75.1,60.7
	C315.2,188,239.6,253.5,239.6,253.5"/>
<path class="st1" d="M193.9,337.2c-68-17.4-111.6,11.4-128.8,26.5c14.6-26.8,42.9-45,75.6-45c2.6,0,5.1,0.1,7.6,0.3
	c1.8,0.2,3.7,0.4,5.5,0.7c0.1-0.3,0.1-0.6,0.2-0.9C168.9,321.2,182.7,328.3,193.9,337.2L193.9,337.2z"/>
<path class="st1" d="M273.6,261.4c-6.2,0-87.2-16.9-119.6,57.4c17.2-52,49.4-65.4,83.5-65.4c0.7,0,1.4,0,2.1,0
	C251.8,253.8,263.3,256.6,273.6,261.4L273.6,261.4z"/>
<path class="st1" d="M398.2,180.9c-1.1,0.1-2.4,0.2-3.8,0.2c-37.2,0.8-57.3,33.8-59.8,38.2c-5.4-1.5-10.9-2.6-16.6-3.1
	c15.6-21.7,41.1-35.9,69.9-35.9C391.3,180.3,394.8,180.5,398.2,180.9L398.2,180.9z"/>
<g>
	<path class="st3" d="M575.2,166.7h9.3c27.8,0,50.3,22.5,50.3,50.3v59.6H524.9V217C524.9,189.2,547.5,166.7,575.2,166.7L575.2,166.7
		z"/>
	<path class="st4" d="M675.6,268.1v145c0,0.6-0.1,1.2-0.2,1.9c-0.9,4.3-4.7,7.6-9.2,7.6H495.8c-5.2,0-9.4-4.2-9.4-9.4v-145
		c0-5.2,4.2-9.4,9.4-9.4h170.5C671.4,258.6,675.6,262.9,675.6,268.1L675.6,268.1z"/>
	<circle class="st5" cx="581" cy="326.9" r="24.1"/>
	<polygon class="st5" points="581.4,326.9 595.2,382.3 566.8,382.3 580.5,326.9 581.4,326.9 	"/>
	<path class="st6" d="M666.2,422.5H495.8c-5.2,0-9.4-4.2-9.4-9.4v-145c0,0,2.9,99.6,15.2,135.7C508.8,424.9,666.2,422.5,666.2,422.5
		z"/>
	<path class="st7" d="M675.6,268.1v6.7c-1.7-1.2-3.6-2.3-5.7-3.4c-19.5-9.5-174.1-12.8-174.1-12.8h170.5
		C671.4,258.6,675.6,262.9,675.6,268.1L675.6,268.1z"/>
	<line class="st8" x1="669.9" y1="274.8" x2="669.9" y2="311.4"/>
	<line class="st8" x1="669.9" y1="317.1" x2="669.9" y2="326.3"/>
	<line class="st8" x1="669.9" y1="331.4" x2="669.9" y2="332.8"/>
</g>
<path class="st9" d="M18.3,86.6h193.2c10.1,0,18.3,8.2,18.3,18.3v111.1c0,10.1-8.2,18.3-18.3,18.3H18.3C8.2,234.4,0,226.2,0,216.1
	V105C0,94.8,8.2,86.6,18.3,86.6z"/>
<g>
	<path class="st5" d="M18.1,163.4H207c1.4,0,2.5,1.1,2.5,2.5l0,0c0,1.4-1.1,2.5-2.5,2.5H18.1c-1.4,0-2.5-1.1-2.5-2.5l0,0
		C15.6,164.6,16.8,163.4,18.1,163.4z"/>
	<path class="st5" d="M18.1,175.6H127c1.4,0,2.5,1.1,2.5,2.5l0,0c0,1.4-1.1,2.5-2.5,2.5H18.1c-1.4,0-2.5-1.1-2.5-2.5l0,0
		C15.6,176.7,16.8,175.6,18.1,175.6z"/>
	<path class="st5" d="M18.1,187.7h146.3c1.4,0,2.5,1.1,2.5,2.5l0,0c0,1.4-1.1,2.5-2.5,2.5H18.1c-1.4,0-2.5-1.1-2.5-2.5l0,0
		C15.6,188.8,16.8,187.7,18.1,187.7z"/>
	<path class="st5" d="M18.1,199.8h173.3c1.4,0,2.5,1.1,2.5,2.5l0,0c0,1.4-1.1,2.5-2.5,2.5H18.1c-1.4,0-2.5-1.1-2.5-2.5l0,0
		C15.6,200.9,16.8,199.8,18.1,199.8z"/>
</g>
<g>
	<path class="st5" d="M56.5,152.2H15.6c0-5.6,2.3-10.7,6-14.4c1.5-1.5,3.3-2.8,5.2-3.8c2.5,2.1,5.7,3.4,9.2,3.4s6.7-1.3,9.2-3.4
		c1.9,1,3.7,2.3,5.2,3.8C54.2,141.4,56.5,146.6,56.5,152.2L56.5,152.2z"/>
	<circle class="st5" cx="36.1" cy="123.2" r="12"/>
</g>
<g class="st10">
	<path class="st11" d="M77.3,134.3l-2.1,1.2v-0.4l2.1,1.2l-0.8,1.3l-2-1.2l0.2-0.1l0,2.2h-1.5l0-2.2l0.2,0.1l-2,1.2l-0.8-1.3
		l2.1-1.2v0.4l-2.1-1.2l0.8-1.3l2,1.2l-0.2,0.1l0-2.2h1.5l0,2.2l-0.2-0.1l2-1.2L77.3,134.3z"/>
	<path class="st11" d="M85.9,134.3l-2.1,1.2v-0.4l2.1,1.2l-0.8,1.3l-2-1.2l0.2-0.1l0,2.2h-1.5l0-2.2l0.2,0.1l-2,1.2l-0.8-1.3
		l2.1-1.2v0.4l-2.1-1.2l0.8-1.3l2,1.2l-0.2,0.1l0-2.2h1.5l0,2.2l-0.2-0.1l2-1.2L85.9,134.3z"/>
	<path class="st11" d="M94.4,134.3l-2.1,1.2v-0.4l2.1,1.2l-0.8,1.3l-2-1.2l0.2-0.1l0,2.2h-1.5l0-2.2l0.2,0.1l-2,1.2l-0.8-1.3
		l2.1-1.2v0.4l-2.1-1.2l0.8-1.3l2,1.2l-0.2,0.1l0-2.2h1.5l0,2.2l-0.2-0.1l2-1.2L94.4,134.3z"/>
	<path class="st11" d="M102.9,134.3l-2.1,1.2v-0.4l2.1,1.2l-0.8,1.3l-2-1.2l0.2-0.1l0,2.2h-1.5l0-2.2l0.2,0.1l-2,1.2l-0.8-1.3
		l2.1-1.2v0.4l-2.1-1.2l0.8-1.3l2,1.2l-0.2,0.1l0-2.2h1.5l0,2.2l-0.2-0.1l2-1.2L102.9,134.3z"/>
	<path class="st11" d="M111.5,134.3l-2.1,1.2v-0.4l2.1,1.2l-0.8,1.3l-2-1.2l0.2-0.1l0,2.2h-1.5l0-2.2l0.2,0.1l-2,1.2l-0.8-1.3
		l2.1-1.2v0.4l-2.1-1.2l0.8-1.3l2,1.2l-0.2,0.1l0-2.2h1.5l0,2.2l-0.2-0.1l2-1.2L111.5,134.3z"/>
	<path class="st11" d="M120,134.3l-2.1,1.2v-0.4l2.1,1.2l-0.8,1.3l-2-1.2l0.2-0.1l0,2.2H116l0-2.2l0.2,0.1l-2,1.2l-0.8-1.3l2.1-1.2
		v0.4l-2.1-1.2l0.8-1.3l2,1.2l-0.2,0.1l0-2.2h1.5l0,2.2l-0.2-0.1l2-1.2L120,134.3z"/>
	<path class="st11" d="M128.6,134.3l-2.1,1.2v-0.4l2.1,1.2l-0.8,1.3l-2-1.2l0.2-0.1l0,2.2h-1.5l0-2.2l0.2,0.1l-2,1.2l-0.8-1.3
		l2.1-1.2v0.4l-2.1-1.2l0.8-1.3l2,1.2l-0.2,0.1l0-2.2h1.5l0,2.2l-0.2-0.1l2-1.2L128.6,134.3z"/>
</g>
<path class="st9" d="M349.4,0h193.2C552.8,0,561,8.2,561,18.3v111.1c0,10.1-8.2,18.3-18.3,18.3H349.4c-10.1,0-18.3-8.2-18.3-18.3
	V18.3C331.1,8.2,339.3,0,349.4,0z"/>
<path class="st5" d="M349.2,69.7h146.3c1.4,0,2.5,1.1,2.5,2.5v0c0,1.4-1.1,2.5-2.5,2.5H349.2c-1.4,0-2.5-1.1-2.5-2.5v0
	C346.7,70.8,347.9,69.7,349.2,69.7z"/>
<g>
	<path class="st5" d="M387.6,55.6h-40.8c0-5.6,2.3-10.7,6-14.4c1.5-1.5,3.3-2.8,5.2-3.8c2.5,2.1,5.7,3.4,9.2,3.4s6.7-1.3,9.2-3.4
		c1.9,1,3.7,2.3,5.2,3.8C385.3,44.8,387.6,49.9,387.6,55.6L387.6,55.6z"/>
	<circle class="st5" cx="367.1" cy="26.5" r="12"/>
</g>
<g class="st10">
	<path class="st12" d="M408.4,37.7l-2.1,1.2v-0.4l2.1,1.2l-0.8,1.3l-2-1.2l0.2-0.1l0,2.2h-1.5l0-2.2l0.2,0.1l-2,1.2l-0.8-1.3
		l2.1-1.2v0.4l-2.1-1.2l0.8-1.3l2,1.2l-0.2,0.1l0-2.2h1.5l0,2.2l-0.2-0.1l2-1.2L408.4,37.7z"/>
	<path class="st12" d="M416.9,37.7l-2.1,1.2v-0.4l2.1,1.2l-0.8,1.3l-2-1.2l0.2-0.1l0,2.2h-1.5l0-2.2l0.2,0.1l-2,1.2l-0.8-1.3
		l2.1-1.2v0.4l-2.1-1.2l0.8-1.3l2,1.2l-0.2,0.1l0-2.2h1.5l0,2.2l-0.2-0.1l2-1.2L416.9,37.7z"/>
	<path class="st12" d="M425.5,37.7l-2.1,1.2v-0.4l2.1,1.2l-0.8,1.3l-2-1.2l0.2-0.1l0,2.2h-1.5l0-2.2l0.2,0.1l-2,1.2l-0.8-1.3
		l2.1-1.2v0.4l-2.1-1.2l0.8-1.3l2,1.2l-0.2,0.1l0-2.2h1.5l0,2.2l-0.2-0.1l2-1.2L425.5,37.7z"/>
	<path class="st12" d="M434,37.7l-2.1,1.2v-0.4l2.1,1.2l-0.8,1.3l-2-1.2l0.2-0.1l0,2.2H430l0-2.2l0.2,0.1l-2,1.2l-0.8-1.3l2.1-1.2
		v0.4l-2.1-1.2l0.8-1.3l2,1.2l-0.2,0.1l0-2.2h1.5l0,2.2l-0.2-0.1l2-1.2L434,37.7z"/>
	<path class="st12" d="M442.6,37.7l-2.1,1.2v-0.4l2.1,1.2l-0.8,1.3l-2-1.2l0.2-0.1l0,2.2h-1.5l0-2.2l0.2,0.1l-2,1.2l-0.8-1.3
		l2.1-1.2v0.4l-2.1-1.2l0.8-1.3l2,1.2l-0.2,0.1l0-2.2h1.5l0,2.2l-0.2-0.1l2-1.2L442.6,37.7z"/>
	<path class="st12" d="M451.1,37.7l-2.1,1.2v-0.4l2.1,1.2l-0.8,1.3l-2-1.2l0.2-0.1l0,2.2h-1.5l0-2.2l0.2,0.1l-2,1.2l-0.8-1.3
		l2.1-1.2v0.4l-2.1-1.2l0.8-1.3l2,1.2l-0.2,0.1l0-2.2h1.5l0,2.2l-0.2-0.1l2-1.2L451.1,37.7z"/>
	<path class="st12" d="M459.7,37.7l-2.1,1.2v-0.4l2.1,1.2l-0.8,1.3l-2-1.2l0.2-0.1l0,2.2h-1.5l0-2.2l0.2,0.1l-2,1.2l-0.8-1.3
		l2.1-1.2v0.4l-2.1-1.2l0.8-1.3l2,1.2l-0.2,0.1l0-2.2h1.5l0,2.2l-0.2-0.1l2-1.2L459.7,37.7z"/>
</g>
<g class="st10">
	<path class="st12" d="M354.9,92l-2.1,1.2v-0.4l2.1,1.2l-0.8,1.3l-2-1.2l0.2-0.1l0,2.2h-1.5l0-2.2l0.2,0.1l-2,1.2l-0.8-1.3l2.1-1.2
		v0.4l-2.1-1.2l0.8-1.3l2,1.2l-0.2,0.1l0-2.2h1.5l0,2.2l-0.2-0.1l2-1.2L354.9,92z"/>
	<path class="st12" d="M363.4,92l-2.1,1.2v-0.4l2.1,1.2l-0.8,1.3l-2-1.2l0.2-0.1l0,2.2h-1.5l0-2.2l0.2,0.1l-2,1.2l-0.8-1.3l2.1-1.2
		v0.4l-2.1-1.2l0.8-1.3l2,1.2l-0.2,0.1l0-2.2h1.5l0,2.2l-0.2-0.1l2-1.2L363.4,92z"/>
	<path class="st12" d="M372,92l-2.1,1.2v-0.4l2.1,1.2l-0.8,1.3l-2-1.2l0.2-0.1l0,2.2H368l0-2.2l0.2,0.1l-2,1.2l-0.8-1.3l2.1-1.2v0.4
		l-2.1-1.2l0.8-1.3l2,1.2L368,92l0-2.2h1.5l0,2.2l-0.2-0.1l2-1.2L372,92z"/>
	<path class="st12" d="M380.5,92l-2.1,1.2v-0.4l2.1,1.2l-0.8,1.3l-2-1.2l0.2-0.1l0,2.2h-1.5l0-2.2l0.2,0.1l-2,1.2l-0.8-1.3l2.1-1.2
		v0.4L374,92l0.8-1.3l2,1.2l-0.2,0.1l0-2.2h1.5l0,2.2l-0.2-0.1l2-1.2L380.5,92z"/>
	<path class="st12" d="M389.1,92l-2.1,1.2v-0.4l2.1,1.2l-0.8,1.3l-2-1.2l0.2-0.1l0,2.2h-1.5l0-2.2l0.2,0.1l-2,1.2l-0.8-1.3l2.1-1.2
		v0.4l-2.1-1.2l0.8-1.3l2,1.2l-0.2,0.1l0-2.2h1.5l0,2.2l-0.2-0.1l2-1.2L389.1,92z"/>
	<path class="st12" d="M397.6,92l-2.1,1.2v-0.4l2.1,1.2l-0.8,1.3l-2-1.2l0.2-0.1l0,2.2h-1.5l0-2.2l0.2,0.1l-2,1.2l-0.8-1.3l2.1-1.2
		v0.4l-2.1-1.2l0.8-1.3l2,1.2l-0.2,0.1l0-2.2h1.5l0,2.2l-0.2-0.1l2-1.2L397.6,92z"/>
	<path class="st12" d="M406.2,92l-2.1,1.2v-0.4l2.1,1.2l-0.8,1.3l-2-1.2l0.2-0.1l0,2.2h-1.5l0-2.2l0.2,0.1l-2,1.2l-0.8-1.3l2.1-1.2
		v0.4l-2.1-1.2l0.8-1.3l2,1.2l-0.2,0.1l0-2.2h1.5l0,2.2l-0.2-0.1l2-1.2L406.2,92z"/>
</g>
<g class="st10">
	<path class="st12" d="M354.9,110.1l-2.1,1.2v-0.4l2.1,1.2l-0.8,1.3l-2-1.2l0.2-0.1l0,2.2h-1.5l0-2.2l0.2,0.1l-2,1.2l-0.8-1.3
		l2.1-1.2v0.4l-2.1-1.2l0.8-1.3l2,1.2l-0.2,0.1l0-2.2h1.5l0,2.2l-0.2-0.1l2-1.2L354.9,110.1z"/>
	<path class="st12" d="M363.4,110.1l-2.1,1.2v-0.4l2.1,1.2l-0.8,1.3l-2-1.2l0.2-0.1l0,2.2h-1.5l0-2.2l0.2,0.1l-2,1.2l-0.8-1.3
		l2.1-1.2v0.4l-2.1-1.2l0.8-1.3l2,1.2l-0.2,0.1l0-2.2h1.5l0,2.2l-0.2-0.1l2-1.2L363.4,110.1z"/>
	<path class="st12" d="M372,110.1l-2.1,1.2v-0.4l2.1,1.2l-0.8,1.3l-2-1.2l0.2-0.1l0,2.2H368l0-2.2l0.2,0.1l-2,1.2l-0.8-1.3l2.1-1.2
		v0.4l-2.1-1.2l0.8-1.3l2,1.2l-0.2,0.1l0-2.2h1.5l0,2.2l-0.2-0.1l2-1.2L372,110.1z"/>
	<path class="st12" d="M380.5,110.1l-2.1,1.2v-0.4l2.1,1.2l-0.8,1.3l-2-1.2l0.2-0.1l0,2.2h-1.5l0-2.2l0.2,0.1l-2,1.2L374,112
		l2.1-1.2v0.4l-2.1-1.2l0.8-1.3l2,1.2l-0.2,0.1l0-2.2h1.5l0,2.2l-0.2-0.1l2-1.2L380.5,110.1z"/>
	<path class="st12" d="M389.1,110.1l-2.1,1.2v-0.4l2.1,1.2l-0.8,1.3l-2-1.2l0.2-0.1l0,2.2h-1.5l0-2.2l0.2,0.1l-2,1.2l-0.8-1.3
		l2.1-1.2v0.4l-2.1-1.2l0.8-1.3l2,1.2l-0.2,0.1l0-2.2h1.5l0,2.2l-0.2-0.1l2-1.2L389.1,110.1z"/>
	<path class="st12" d="M397.6,110.1l-2.1,1.2v-0.4l2.1,1.2l-0.8,1.3l-2-1.2l0.2-0.1l0,2.2h-1.5l0-2.2l0.2,0.1l-2,1.2l-0.8-1.3
		l2.1-1.2v0.4l-2.1-1.2l0.8-1.3l2,1.2l-0.2,0.1l0-2.2h1.5l0,2.2l-0.2-0.1l2-1.2L397.6,110.1z"/>
	<path class="st12" d="M406.2,110.1l-2.1,1.2v-0.4l2.1,1.2l-0.8,1.3l-2-1.2l0.2-0.1l0,2.2h-1.5l0-2.2l0.2,0.1l-2,1.2l-0.8-1.3
		l2.1-1.2v0.4l-2.1-1.2l0.8-1.3l2,1.2l-0.2,0.1l0-2.2h1.5l0,2.2l-0.2-0.1l2-1.2L406.2,110.1z"/>
</g>
<g id="Shield">
	<path id="Shield_Part" class="st13" d="M543.2,322.3c0.3-2.5-1.4-4.9-3.9-5.3c-12-1.9-43.6-7.1-71.9-30.1l-0.1-0.1
		c25.8,23.7,55.2,30.2,66.8,32.6c2.5,0.5,4.1,2.9,3.7,5.5c-14.7,86-59.9,106.2-81.5,110.9C479.8,431.1,531.6,410.6,543.2,322.3
		L543.2,322.3z"/>
	<path id="Shield_Part-2" class="st14" d="M462.9,286.5c-30.6,14.6-61.5,13.9-72.7,13c-2.5-0.2-4.6,1.6-4.9,4.1
		c-11.7,109.2,51.4,131.4,58.5,133.5c0.4,0.1,0.9,0.2,1.3,0.2c7.4-0.1,74.2-4.2,92.6-112.5c0.4-2.4-1.2-4.8-3.6-5.2
		c-11-2.2-40.9-9.9-66.4-32.3C466.5,286,464.5,285.8,462.9,286.5L462.9,286.5z"/>
	<path id="Shield_Part-3" class="st12" d="M461.4,296.9c-26.3,12.5-52.6,12.3-63,11.5c-2.6-0.2-4.9,1.8-5.1,4.4
		c-6.6,91.8,44.1,112.8,51.8,115.4c0.6,0.2,1.3,0.3,1.9,0.2c8.2-0.6,64.4-8.2,80.9-97.1c0.5-2.5-1.2-5-3.7-5.5
		c-10.2-2.1-35.7-9-57.6-28.2C465.1,296.4,463,296.1,461.4,296.9L461.4,296.9z"/>
</g>
<path class="st15" d="M203.3,452.8c0.3-2.6,3.8-0.1,4.9-1c0.3-10.4,7-19.2,17.7-19c0.2-0.1,3.8,0.5,3.8,0.5c0,0,0,0,0,0
	c18.5,3.8,11.5,25,11.5,25s3.8,0,4.6,1.6c-1.1,7.8-3.1,20.9-4.2,28.5c-0.4,2.5-1.4,6.6-4,6.2l-34.3-6.8c-2.5-0.4-4.3-2.7-4-5.3
	C200.5,475,202.5,460.3,203.3,452.8L203.3,452.8z M218.2,468.6c0.9,5.3,2.4,1,0.2,8.1c-0.2,1.1-1.2,3.3,0.7,3.4
	c1.7-0.1,5.3,1.8,5.8-0.5c0-2.1,0.1-4.2,0.1-6.3c0-0.2,0-0.6,0.2-0.7c1.5-0.8,2.3-2.5,2.3-4.1C227.5,462.5,218.3,462.5,218.2,468.6
	L218.2,468.6z M215.7,453.1c0.3-0.1,18.4,3.8,18.5,3.5c0.2-2.2,1-5.5,0.8-7.8C232.7,435.2,214.4,438.1,215.7,453.1L215.7,453.1z"/>
<polyline class="st16" points="430.8,361.3 447.3,379.1 488.5,337.6 "/>
</svg>
