<?xml version="1.0" encoding="UTF-8"?>
<svg id="katman_1" data-name="katman 1" xmlns="http://www.w3.org/2000/svg" viewBox="0 0 315.07 287.5">
  <defs>
    <style>
      .cls-1 {
        fill: #4d4d4d;
        stroke-width: 0px;
      }
    </style>
  </defs>
  <path class="cls-1" d="m0,140.61c25.54-.02,51.08-.04,76.62-.05.3,0,.59.09,1.11.18v15.67c-1.21,0-2.41,0-3.62,0-23.48,0-46.96,0-70.44.01-1.22,0-2.45.17-3.67.26,0-5.36,0-10.71,0-16.07Zm15.09,7.88c-.4-1.46-.45-3.03-1.2-4.11-1.23-1.78-3.13-1.86-4.85-.57-1.76,1.32-1.8,7.73-.06,9.13,1.68,1.35,3.58,1.33,4.85-.43.77-1.06.85-2.62,1.26-4.02Zm9.8,0c-.04-.92.21-2.01-.2-2.71-.61-1.04-1.58-2.34-2.6-2.54-1.03-.2-3.21.67-3.29,1.29-.35,2.61-.31,5.33.09,7.94.09.57,2.29,1.28,3.38,1.1.93-.15,1.86-1.38,2.4-2.35.4-.72.18-1.8.22-2.72Zm10.97-.09c-.83-1.72-1.22-3.75-2.45-4.68-.83-.63-4.06.13-4.11.53-.35,2.78-.31,5.66.08,8.44.05.38,3.25,1.03,4.17.38,1.16-.81,1.48-2.83,2.32-4.68Z"/>
  <path class="cls-1" d="m0,174.59h77.74v15.91h-3.59c-23.49,0-46.97,0-70.46,0-1.23,0-2.46.1-3.7.15,0-5.36,0-10.71,0-16.07Zm15.33,7.89c-.1-.88.14-2.22-.42-2.83-.97-1.07-2.53-2.5-3.67-2.37-3.33.4-2.97,3.3-3,5.77-.04,2.33.39,4.66,3.12,4.75,1.2.04,2.62-1.41,3.61-2.49.5-.54.26-1.76.36-2.83Zm10.08-.21h.01c0-.41,0-.82,0-1.23.03-2.3-1.03-3.87-3.38-3.89-2.34-.02-3.45,1.52-3.49,3.81-.02,1.13-.03,2.26,0,3.38.07,2.19,1.28,3.58,3.4,3.6,2.11.02,3.39-1.28,3.44-3.51.02-.72,0-1.44,0-2.15Zm10.52.33c-.06,0-.12-.02-.19-.02,0-.72.29-1.67-.06-2.11-.98-1.24-2.08-2.95-3.39-3.21-2.08-.42-3.33,1.22-3.4,3.39-.05,1.53-.31,3.21.2,4.56.43,1.12,1.79,2.49,2.86,2.59,1.07.11,2.54-1,3.34-1.97.61-.75.45-2.13.64-3.22Z"/>
  <path class="cls-1" d="m0,106.62c.71-.07,1.43-.2,2.14-.2,24.4-.01,48.8,0,73.19,0,.72,0,1.43.07,2.38.12v15.49c-.69.06-1.38.18-2.07.18-24.6,0-49.21,0-73.81,0-.61,0-1.23-.1-1.84-.15,0-5.15,0-10.3,0-15.45Zm28.38,7.61s-.07,0-.11,0c.04.92-.03,1.86.15,2.75.42,2.05,1.85,2.99,3.82,2.63,3.39-.62,2.91-3.39,2.96-5.83.05-2.32-.3-4.43-3.1-4.79-2-.25-3.37.71-3.7,2.78-.13.8-.02,1.63-.02,2.45Zm-2.67.37c-1.05-2.02-1.62-4.02-2.92-5.24-.58-.54-3.76.35-3.84.88-.4,2.68-.38,5.49.03,8.17.08.52,3.08,1.37,3.87.82,1.26-.87,1.8-2.79,2.85-4.64Zm-18.38-.35c.63,1.64.81,3.77,1.93,4.56.97.69,3.34.36,4.5-.4,1.65-1.09,1.64-7.15-.02-8.22-1.17-.76-3.44-1.03-4.53-.38-1.06.64-1.23,2.74-1.88,4.44Z"/>
  <path class="cls-1" d="m166.76,234.84h-18.24V57.42c3,.47,6.01,1.3,9.02,1.31,3.02.01,6.05-.79,9.22-1.26v177.37Z"/>
  <path class="cls-1" d="m93.09,274.06c0-3.06-.15-5.83.04-8.58.22-3.25,2.12-4.94,5.43-5.15.92-.06,1.85-.03,2.78-.03,37.57,0,75.13,0,112.7,0,6.86,0,8.28,1.43,8.28,8.35,0,1.73,0,3.46,0,5.42H93.09Z"/>
  <path class="cls-1" d="m270.55,62.2c-2.02-.73-3.69-1.22-5.27-1.93-8.04-3.58-13.28-9.68-15.3-18.2-.61-2.57-1.66-2.92-3.92-2.91-20.6.08-41.2.04-61.79.04h-3.54v-6.9c1.1,0,2.19,0,3.29,0,22.04,0,44.08,0,66.12,0,5.09,0,5.32.22,5.94,5.23,1.31,10.63,9.71,18.2,20.05,18.07,10.3-.13,18.32-7.58,19.59-18.17.07-.61.12-1.23.2-1.84.26-2.04,1.4-3.22,3.48-3.15,2.27.07,3.61,1.61,3.29,3.64-.6,3.82-1.2,7.79-2.73,11.28-3.08,7.04-8.75,11.54-16.03,13.99-.66.22-1.33.44-2.4.79,6.32,12.41,12.53,24.64,18.77,36.89-5.52,1.66-7.22.98-9.61-3.68-4.36-8.51-8.72-17.02-13.09-25.53-.45-.89-.96-1.75-1.61-2.92-4.79,9.54-9.4,18.73-14.01,27.92-2.72,5.41-3.11,5.59-9.87,4.3,6.13-12.27,12.22-24.45,18.45-36.91Z"/>
  <path class="cls-1" d="m134.58,32.62v6.58c-1.21,0-2.31,0-3.41,0-20.7,0-41.4.04-62.09-.06-2.38-.01-3.21.6-3.84,3.01-2.6,9.93-9.02,16.39-18.88,19.37-.69.21-1.39.39-2.08.59-.09.03-.17.11-.61.41,6.19,12.13,12.4,24.31,18.88,37-2.52,0-4.58.21-6.55-.1-.85-.13-1.77-1.23-2.23-2.11-4.76-9.12-9.42-18.28-14.12-27.42-.47-.91-.96-1.8-1.65-3.09-2.78,5.53-5.39,10.73-8,15.93-2.21,4.41-4.59,8.75-6.56,13.26-1.19,2.73-2.72,4.14-5.79,3.59-.99-.18-2.03-.03-3.72-.03,6.38-12.78,12.53-25.13,18.82-37.73-.83-.32-1.54-.6-2.25-.88-10.53-4.18-16.53-11.83-17.74-23.14-.38-3.49.62-5.21,3.01-5.42,2.41-.2,3.61,1.26,3.91,4.76.78,9.1,7.3,16.52,15.92,18.11,9.04,1.66,17.98-2.76,21.67-11.06,1.1-2.48,1.57-5.31,1.94-8.03.33-2.46,1.36-3.84,3.87-3.84,23.58,0,47.16.02,70.74.04.19,0,.38.12.78.26Z"/>
  <path class="cls-1" d="m157.48,287.48c-30.89,0-61.77,0-92.66,0-4.49,0-6.07-.88-6.14-3.41-.07-2.64,1.59-3.59,6.26-3.59,61.77,0,123.55,0,185.32,0,1.03,0,2.07-.06,3.08.09,1.97.28,3.23,1.35,3.2,3.47-.03,2.13-1.37,3.13-3.32,3.38-1.01.13-2.06.07-3.08.07-30.89,0-61.77,0-92.66,0Z"/>
  <path class="cls-1" d="m315.07,156.23h-77.62v-15.44h77.62v15.44Zm-52.98-7.77s0,0,.01,0c0-.82.33-1.89-.07-2.4-.9-1.16-2.08-2.69-3.28-2.83-1.02-.11-2.84,1.32-3.22,2.43-.56,1.65-.6,3.79,0,5.41.43,1.17,2.24,2.46,3.48,2.51.99.04,2.21-1.6,3.02-2.71.39-.54.07-1.59.07-2.4Zm11.08-.01c-.83-1.75-1.21-3.78-2.43-4.72-.83-.64-4.07.09-4.12.48-.36,2.78-.35,5.66.03,8.44.05.38,3.22,1.06,4.15.42,1.17-.8,1.52-2.8,2.38-4.62Zm-28.5-.13c.54,1.6.62,3.69,1.66,4.43,1.03.73,3.37.67,4.53-.04,1.93-1.18,1.88-7.55-.07-8.66-1.18-.67-3.42-.63-4.55.09-.97.62-1.05,2.64-1.57,4.18Z"/>
  <path class="cls-1" d="m237.39,190.27v-15.46h77.62v15.46h-77.62Zm28.6-8.65c-.01,5.08,1.79,7.16,4.61,6.12,2.14-.79,2.42-2.58,2.39-4.52-.04-2.22.45-4.74-2.24-5.84-2.03-.83-3.66-.02-4.42,2.04-.34.93-.31,2-.34,2.2Zm-3.22,1.03s-.08,0-.12,0c0-.92.29-1.99-.07-2.73-.5-1.02-1.35-2.24-2.31-2.55-.95-.3-2.46.14-3.31.8-1.72,1.32-1.57,7.41,0,8.87,1.9,1.76,4.98.89,5.62-1.64.22-.88.13-1.83.18-2.75Zm-10.24-.18c-.05-.82.19-1.85-.22-2.4-.83-1.12-2.04-2.8-3.03-2.76-1.24.06-2.96,1.39-3.46,2.59-.61,1.49-.62,3.58-.05,5.09.47,1.24,2.17,2.78,3.31,2.77,1.1,0,2.34-1.71,3.24-2.89.41-.54.15-1.59.2-2.41Z"/>
  <path class="cls-1" d="m315.07,106.64v15.42h-77.54v-15.42h77.54Zm-62.32,7.86c-.98-1.95-1.48-3.94-2.76-5.05-.67-.59-3.85.19-3.9.62-.38,2.78-.39,5.66-.02,8.44.06.44,3.12,1.25,3.9.67,1.26-.93,1.78-2.86,2.78-4.68Zm2.55-.3h.01c0,.92-.16,1.88.03,2.75.44,1.98,1.82,3.02,3.83,2.67,3.45-.6,2.87-3.4,2.94-5.81.07-2.3-.19-4.44-3.03-4.82-2.02-.27-3.35.76-3.76,2.76-.16.79-.03,1.63-.03,2.45Zm17.8.22c-.81-1.77-1.18-3.81-2.39-4.77-.82-.65-4.08.06-4.13.44-.38,2.78-.39,5.65-.02,8.43.05.39,3.21,1.1,4.14.48,1.18-.79,1.54-2.79,2.41-4.57Z"/>
  <path class="cls-1" d="m197.23,253.15h-79.62c0-2.24-.2-4.39.05-6.48.36-2.99,2.56-4.71,5.87-4.75,5.87-.06,11.73-.02,17.6-.02,15.95,0,31.91.23,47.86-.11,7.21-.15,10.03,2.46,8.24,11.35Z"/>
  <path class="cls-1" d="m157.64,51.81c-9.14,0-16.14-6.9-16.16-15.91-.02-9.14,7.12-16.36,16.17-16.35,9.07,0,16.21,7.23,16.15,16.35-.06,9.06-7.03,15.92-16.16,15.91Zm5.97-16.19c-.07-3.25-2.65-5.7-6-5.68-3.32.01-5.89,2.52-5.9,5.77,0,3.28,2.89,6.08,6.13,5.95,3.18-.13,5.82-2.91,5.76-6.04Z"/>
  <path class="cls-1" d="m8.18,133.45v-4.18h61.52v4.18H8.18Z"/>
  <path class="cls-1" d="m245.49,133.39v-4.06h61.44v4.06h-61.44Z"/>
  <path class="cls-1" d="m8.14,167.53v-3.97h61.51v3.97H8.14Z"/>
  <path class="cls-1" d="m245.51,167.5v-4.03h61.5v4.03h-61.5Z"/>
  <path class="cls-1" d="m166.79,14.52c-6.24-2.39-12.25-2.69-18.31-.01-.43-5.15-.64-9.93,4.17-12.97,3.25-2.06,6.67-2.04,9.91-.01,4.81,3.01,4.71,7.77,4.23,13Z"/>
</svg>