<?xml version="1.0" encoding="utf-8"?>
<!-- Generator: Adobe Illustrator 27.8.1, SVG Export Plug-In . SVG Version: 6.00 Build 0)  -->
<svg version="1.1" id="katman_1" xmlns="http://www.w3.org/2000/svg" xmlns:xlink="http://www.w3.org/1999/xlink" x="0px" y="0px"
	 viewBox="0 0 404.9 405.3" style="enable-background:new 0 0 404.9 405.3;" xml:space="preserve">
<style type="text/css">
	.st0{fill:#666666;}
</style>
<g>
	<path class="st0" d="M400.7,261.1l-0.2-0.2l0,0c-6.4-8.2-13.2-12.2-20.6-12.2c-14,0-27.2,14.1-39.9,27.8
		c-6.3,6.7-12.2,13.1-17.8,17.1l0-7.5c0-8.6,0-21,0-30.1c2.3-20.8-7.2-37.9-24.2-43.4c-1.9-0.7-2.1-1-2.1-1.1
		c-0.1-0.3,0.8-1.5,1.2-2.2c6.6-9.2,9.1-20.1,7-30.8c-2.1-10.5-8.4-19.6-17.9-25.4c-2.7-1.7-2.7-2.3-1-5.2
		c23.3-38.6,17.2-87.5-14.8-119c-1.8-1.6-3.7-2.5-5.6-2.5c-3,0-5.7,2.1-6.6,5.2c-0.8,2.7-0.3,6.5,3.5,9.2
		c15.5,14.6,24.9,43.6,22.3,69c-1.7,17.1-8.7,30.3-19.6,37.2c-10.1,0.4-18.8,4.1-25.8,11.1l0,0l-0.3,0.4c-2,2.6-3.5,4.4-4.2,4.4
		c-0.5,0-1.5-1.1-2.8-2.6c-0.5-0.6-1.1-1.3-1.8-2l-0.1-0.1l-0.2-0.1c-5.9-3.1-6.8-7.4-3.2-14.6l0.1-0.1l0-0.2
		c0.3-1.9,1.1-2.3,2.2-2.3c1.2,0,2.6,0.5,4.1,0.9c1.5,0.5,2.8,0.9,4.1,1c1.5,0.4,3,0.6,4.4,0.6c9.6,0,14.5-9.1,18.7-17.1
		c0.5-0.9,0.9-1.7,1.4-2.5c6.3-10.4-3.1-19.6-8.2-24.6c-1.1-1.5,0.2-3.2,3.4-6.5c4.4-4.6,10.5-11,4.8-20.7c-0.5-0.9-1-1.8-1.5-2.7
		c-4.2-7.9-9-16.9-18.6-16.9c-1.3,0-2.7,0.2-4.1,0.5c-1.1,0.2-2.3,0.6-3.4,1c-1.5,0.5-3,1-4.2,1c-0.7,0-1.3-0.2-1.8-0.5
		c-1.6-1-2-3.2-2.5-5.6c-0.2-1.2-0.5-2.4-0.9-3.5c-2.7-7.4-7.9-11.2-15.6-11.5l-1,0c-1.9-0.1-3.9-0.2-5.8-0.2
		c-8.6,0-17.9,1.4-20.8,12c-0.4,1-0.6,2.2-0.8,3.3c-0.5,2.2-0.9,4.4-2.3,5.3c-0.7,0.2-1.4,0.3-2.2,0.3c-1.9,0-3.8-0.5-5.8-1
		c-2.2-0.6-4.4-1.2-6.8-1.2c-4.6,0-8.3,2.3-11.8,7.2c-8,11.9-15.5,23.2,0,35.8c0.8,0.6,1.3,1.3,1.3,1.9c0.1,1.5-1.8,3.6-3.8,5.9
		c-4.4,4.7-10.3,11.2-4.8,20.4l0.6,1c7.9,14.4,10.1,18.3,18.3,18.3c2.7,0,6-0.4,10.5-1c1.4-0.2,3-0.4,4.6-0.6c1,2,3.5,9.8,3.6,11.4
		c-1.1,1.2-2.4,2.3-3.8,3.5c-2,1.7-4.1,3.4-5.6,5.7c-0.8,1.2-1.2,1.2-1.2,1.2c-0.1,0-0.5-0.2-1.4-1.3c-7.7-9.4-17.6-14.3-29.7-14.7
		c-2.6-0.1-4.1-0.9-5.5-3.2c-18.8-30.2-19.2-60.3-1.4-89.5c13.7-24,40.4-38.8,69.6-38.8c12.5,0,25,2.8,36,8.1c1.5,0.8,3,1.2,4.5,1.2
		c3.5,0,6.4-2.4,7-5.9c0.5-2.8-0.5-6.7-5.1-8.5C231.3,3.5,217.3,0,203,0c-34.9,0-68.9,21.3-86.7,54.3c-16.8,31.2-15.5,65.6,3.5,94.5
		c1.2,2,1.1,2.4-0.9,3.7c-9.9,6.1-16.5,15.3-18.6,26c-2.1,10.6,0.5,21.6,7.3,31c1.1,1.5,1.1,1.9,1,2c0,0.2-0.5,0.5-2.1,1
		c-15.1,5.4-24.2,18.3-24.3,34.5l0,1.6c0,8.2,0,16.7,0,25.1c0,2.2-1,2.9-3.7,2.9c-1.1,0-2.3-0.1-3.5-0.3c-1.2-0.1-2.5-0.3-3.6-0.3
		c-1.1,0-1.9,0.1-2.6,0.4c-0.3,0-0.6,0-0.9,0c-2.7,0-3-1.5-3.2-4.7c-0.3-3.4-0.6-8-7.6-8c-0.3,0-0.6,0-1,0c-1.3,0.2-3.1,0.3-5.7,0.3
		c-3.5,0-7.8-0.2-12.4-0.3c-5.5-0.2-11.1-0.4-16.5-0.4c-13.6,0-20.1,1.3-21.6,4.5L0.1,268v26.6c0,34.8,0,70.8-0.1,106.1
		c0,2.6,0.3,4.5,4.2,4.5h0.2c8-0.1,16.6-0.1,27.9-0.1c4.6,0,9.3,0,13.9,0c4.6,0,9.3,0,13.9,0h0.2l0.2-0.1c4.2-2,4.4-5.7,4.5-8.5
		c0.1-2.9,0.4-3.9,2.3-3.9h1.5c25,0,49.4,1.7,73,3.4c15.8,1.1,32.2,2.3,48.7,2.9l2.3,0.1c4.2,0.2,8.6,0.5,12.8,0.5c0,0,0,0,0,0
		c7.5,0,13.5-0.8,19.1-2.5c30.9-9.5,61.8-19.1,90.8-28c6.1-1.9,10.9-4.6,14.6-8.3l3.4-3.4c21.1-21,42.8-42.7,64.1-64.2
		C406,284.9,407.3,271.4,400.7,261.1z M68.5,290.7h0.3c5.2,0,8.1,0,9.2,1.2c1.1,1.2,1.1,4.1,1.1,9.5c0,6.2,0,12.5,0,18.8
		c0,17.7,0,35.9,0.1,53.9c0,1.7-0.2,2.7-0.7,3.2c-0.5,0.5-1.4,0.7-2.9,0.7l-0.7,0c-4.9-0.1-7.7-0.1-8.7-1.2c-1.1-1.1-1.1-4-1.1-9.1
		v-33.4c0-3.6,0-7.2,0-10.8c0-9.6,0-19.5-0.1-29.2c0-1.5,0.2-2.4,0.6-2.8C66.2,290.9,67,290.7,68.5,290.7l-0.1-1L68.5,290.7z
		 M265.8,160.7c33.2-0.2,32.9,51-0.2,50.7C232.3,210.4,232.3,161.4,265.8,160.7z M376.2,294.3c-17.3,17.3-35.3,35.2-52.8,52.9
		c-4.1,4.2-8.9,7-14.4,8.7c-13.4,3.2-26.8,7.9-39.7,12.4C247,376,224,384,200.4,385c-34.6-2.2-71-4.4-102.5-6.3l-0.4,0
		c-1.9-0.1-3.2-0.2-3.5-0.5c-0.3-0.4-0.3-1.8-0.3-3.7v-72.7c0-15.2,0-15.2,12.6-24.1c8.9-6.8,19.6-10.3,30.8-10.3
		c16.3,0,32.9,7.3,45.5,20.1l0.1,0.1c2.9,2.3,5.8,3.4,9.4,3.4h0.2c8.8-0.1,17.7-0.1,24.3-0.1l20.6,0c2.8,0,5.6,0,8.6,0
		c0.5,0,1.1-0.1,1.6-0.1c7.1,0,14.3,4,14.3,11.7c0.1,3.3-1,6.1-3.1,8.3c-2.2,2.3-5.5,3.5-9.2,3.5c-3.5,0.2-7.3,0.3-11.5,0.3
		c-5.6,0-11.3-0.2-16.9-0.3c-5.6-0.2-11.3-0.3-16.9-0.3c-10.4,0-18.6,0.6-26,1.8l-0.3,0l-0.2,0.2c-3.1,2.8-6.6,6.1-9.8,9.8
		c-1.8,2-2.2,4.5-1.2,6.9c1.2,2.8,4.1,4.8,7,4.8c1.6,0,3.2-0.6,4.4-1.8c0.7-0.6,1.4-1.3,2-1.9c2.5-2.5,4.7-4.6,8.2-4.6
		c0.3,0,0.7,0,1.1,0.1l0,0h0.1c16.4,0,33.1,0.1,49.2,0.1c20.2,0,41.1,0,61.6,0.1h0.2c5.7,0,9.8-1.7,13.7-5.7l9.4-9.5
		c15.7-15.8,31.9-32.2,48.1-48c2.3-1.7,4.7-2.6,7.1-2.6c4.7,0,9.2,3.4,11,8.3c1.5,4.1,0.6,8.2-2.2,11.4v-0.1L376.2,294.3z
		 M158.6,120.5c-3-4.6-3.2-4.9,4.2-11.7c9.8-10.2,8.8-13-0.2-22.2c-3.5-3.6-5.2-5.4-5.4-7.1c-0.2-1.7,1.1-3.9,3.6-8.2
		c1.4-2.4,3.2-3.5,5.7-3.5c0.7,0,1.4,0.1,2.2,0.3l1.8,0.4c2.9,0.7,6,1.4,8.9,2c1,0.2,2,0.4,2.9,0.4c6.6,0,8.2-6.5,9.6-12.3
		c1.5-6.2,2.7-9.9,6.6-10c1.4,0,2.6,0.1,3.6,0.1c1,0,1.9,0,2.7,0c0.6,0,1.2,0,1.6,0c3.4,0,3.4,0,4.8,4.9c0.4,1.5,1,3.4,1.8,5.7
		c2.7,8.1,4,11.4,9.1,11.4c1.9,0,4.4-0.5,8.2-1.3c3.7-0.8,6.4-1.5,8.3-1.5c3.2,0,4.3,1.7,8.3,8.7l0.1,0.2c1.2,2.1,1.1,3.4-0.5,5
		c-7.8,7.6-11.5,11.6-11.5,16c0,4.5,4,8.7,11.6,16.2c1.5,1.5,1.6,2.7,0.5,4.7l-0.1,0.2c-4,7.3-5,8.8-8.3,8.8c-1.9,0-4.4-0.5-8.3-1.3
		c-4.1-0.9-6.7-1.4-8.7-1.4c-5.1,0-6.2,3.4-8.8,11.6c-3.3,10.4-3.3,10.4-13,10.4h-1.3c-2.9,0-4-0.8-4.6-3.3l0-0.1l0-0.1
		c-0.7-1.6-1.1-3.5-1.6-5.6c-1.5-6.1-3.1-13.1-11-13.1h-0.1c-1.7,0-4.3,0.7-6.9,1.5c-3,0.9-6.3,1.9-8.8,1.9c-2.4,0-3.1-0.9-3.4-1.7
		C160.7,123.8,159.5,122,158.6,120.5z M202,161.7h0.5c16.2,0,23.6,12.6,23.6,24.3c0,11.8-7.4,24.4-23.7,24.4h-0.3
		c-16.2,0-23.6-12.6-23.6-24.4C178.5,174.3,185.8,161.7,202,161.7z M204.3,225.2c3.9,0.2,7.9,0.3,11.8,0.3c2.6,0,4.9-0.1,7-0.2
		c11.8,0.1,20.7,8.7,21.1,20.5c0.2,5.6,0.2,11.4,0.1,17c0,3.7,0,7.5,0,11.3c0,0.9-0.1,1.5-0.4,1.8c-0.3,0.3-1,0.5-2.1,0.5
		c-6.6,0-13.3-0.1-19.9-0.1c-5.9,0-11.8,0-17.7,0l-9.2,0c-2,0-3.3-0.4-4.4-1.4c-9.3-7.9-18-14.7-29-18.5c-0.7-0.2-1-0.6-1.2-1.2
		c-3.2-9.4,2.3-22.8,11.3-27.6c5.7-2,12.1-2.8,20.8-2.8C196.4,224.8,200.4,225,204.3,225.2z M307.3,243c1,10.8,0.8,30.6,0.6,45
		c-0.1,7.6-0.1,14.2,0,17.8c-1,6.3-5,8.9-13.9,8.9c-2.3,0-4.7-0.2-7.1-0.3c-2.3-0.2-4.5-0.3-6.7-0.3c-1.6,0-3,0.1-4.2,0.3h-0.1
		c-1.5,0-1.8-0.2-1.8-0.3c0-0.1-0.2-0.4,0.3-2c5.6-18.8-3.2-25.5-9.6-30.3c-3.2-2.4-5.8-4.4-5.8-7.1c-0.2-4.2-0.1-8.6,0.1-12.8
		c0.4-11.9,0.8-24.1-6-34.5c-0.7-1-0.9-1.5-0.9-1.7c0.2-0.1,0.6-0.2,1.7-0.2h0.1c1.6,0.1,3.4,0.2,5.4,0.2c2.8,0,5.8-0.1,8.9-0.2
		c3.2-0.1,6.4-0.3,9.6-0.3C291.6,224.9,304.6,227.1,307.3,243z M138.6,210.4c-16.3,0-23.7-12.7-23.7-24.4c0-11.7,7.4-24.3,23.6-24.3
		h0.2c16.6,0.3,24.2,12.8,24.2,24.3C162.9,197.5,155.3,210.1,138.6,210.4z M137.3,225.1c3,0.1,6.2,0.2,9.3,0.2c1.4,0,2.7,0,4.1,0
		c0.2,0,0.5,0,0.7,0c0.4,0,0.6,0.1,0.7,0.1c0,0.5-0.8,2.1-1.5,3.4c-2.2,4.3-5.9,11.5-5,21.2c0,2.5-0.7,2.9-2.5,2.9
		c-0.2,0-0.5,0-0.7,0c-1.8-0.1-3.6-0.2-5.3-0.2c-13.6,0-26.7,4.2-39,12.6l-0.1,0l-0.1,0.1c-0.6,0.6-1,0.8-1.1,0.8
		c-0.5-0.8-0.3-4.5-0.2-6.3c0.1-2.1,0.2-3.5,0-4.4c-0.8-10.8,1-18.4,5.5-23.2c5.9-6.4,16.1-7.2,26.2-7.2
		C131.3,225,134.3,225.1,137.3,225.1z M17.1,390.5c-1.2,0-2-0.2-2.4-0.6c-0.4-0.4-0.6-1.3-0.6-2.7c0.1-13.1,0.1-26.4,0.1-39.2
		c0-4.6,0-9.2,0-13.7c0.8-18.6,0.2-31.4-0.3-39.8c-0.4-8.5-0.7-13.2,1.1-15c1.1-1.2,3.2-1.6,7.7-1.6c1.7,0,3.6,0,5.8,0.1
		c3,0.1,6.8,0.2,11.1,0.2c2.6,0,5.1,0,7.6-0.1h0.2c2.4,0,2.9,0.6,2.9,3c-0.1,35.3-0.1,71.1,0,106.4c0,2.5-0.6,3-3,3h-0.1
		c-5.3-0.1-10.6-0.1-15.5-0.1c-4.9,0-9.8,0-14.4,0.1H17.1z"/>
	<path class="st0" d="M32.5,329.3c0.2,0,0.4,0,0.6,0c0.1,0,0.2,0,0.4,0c0.2,0,0.3,0,0.5-0.1c0.1,0,0.2,0,0.3-0.1
		c0.1,0,0.1,0,0.2-0.1c0.2-0.1,0.5-0.2,0.7-0.2c0.1-0.1,0.2-0.1,0.3-0.2c0.1,0,0.2-0.1,0.3-0.2c0.6-0.3,1.1-0.6,1.5-1.1c0,0,0,0,0,0
		c0,0,0,0,0,0c0,0,0,0,0.1-0.1c0,0,0,0,0,0c1.4-1.2,2.3-2.9,2.4-5.3c0.1-2.1-0.5-4-1.9-5.4c0-0.1-0.1-0.1-0.2-0.1
		c-0.1-0.1-0.2-0.3-0.3-0.4c0,0,0,0,0,0c-0.1-0.1-0.1-0.1-0.2-0.2c-0.1-0.1-0.3-0.3-0.5-0.4c-0.2-0.1-0.3-0.2-0.5-0.3
		c-0.1,0-0.2-0.1-0.2-0.1c-0.1-0.1-0.3-0.1-0.4-0.2c-0.1-0.1-0.2-0.1-0.4-0.2c-0.3-0.1-0.7-0.2-1-0.3c-0.1,0-0.3-0.1-0.4-0.1
		c-0.2,0-0.5-0.1-0.7-0.1c-0.2,0-0.5,0-0.8,0c0,0-0.2,0-0.3,0c-0.6,0-1.2,0.1-1.7,0.2c-0.3,0.1-0.5,0.1-0.8,0.2
		c-0.1,0-0.2,0.1-0.4,0.1c-0.2,0.1-0.5,0.2-0.7,0.3c-0.5,0.3-1,0.6-1.5,1.1c-0.1,0.1-0.2,0.2-0.2,0.2c0,0,0,0,0,0
		c-0.1,0.1-0.2,0.2-0.3,0.3c-1.3,1.3-2,3.1-2,5.1c-0.1,2,0.6,3.8,1.9,5.2c0.1,0.1,0.2,0.2,0.3,0.2c0,0,0,0,0,0c0,0,0,0,0,0
		c0,0,0,0,0,0c0.1,0.1,0.2,0.2,0.3,0.3c0.4,0.3,0.8,0.7,1.2,0.9c1.1,0.6,2.4,0.9,3.8,0.9C32.2,329.3,32.5,329.3,32.5,329.3z"/>
	<path class="st0" d="M182.6,98.9c0,0.3,0,0.6,0.1,0.9c0.5,5.8,3,10.2,6.5,13.1c2.9,2.5,6.7,4.3,11.6,4.7c0.2,0,0.5,0,0.8,0.1
		c0.3,0,0.7,0,1.1,0h0c1.7,0,3.2-0.3,4.7-0.6c0.7-0.2,1.4-0.4,2.1-0.6c2-0.7,3.8-1.7,5.3-2.8c3.3-2.5,5.5-6,6.5-9.8c0,0,0,0,0,0
		c0.2-0.6,0.3-1.1,0.4-1.7c0.3-1.5,0.5-3,0.5-4.5c0-0.2,0-0.5,0-0.7c0-0.6-0.1-1.2-0.1-1.8c0-0.3-0.1-0.6-0.1-0.9
		c-0.1-0.3-0.1-0.6-0.2-0.9c0-0.2-0.1-0.5-0.2-0.7c-0.2-0.6-0.3-1.3-0.6-1.9c-0.2-0.5-0.4-1.1-0.6-1.6c-0.4-0.9-0.9-1.8-1.4-2.6
		c-0.2-0.3-0.3-0.5-0.5-0.8c-0.7-1-1.5-2-2.5-2.8c-0.5-0.5-1-0.9-1.5-1.2c-0.8-0.6-1.6-1.1-2.5-1.6c-0.9-0.5-1.9-0.9-2.9-1.2
		c-0.7-0.2-1.4-0.4-2.1-0.6c-0.2,0-0.4-0.1-0.5-0.1c-0.5-0.1-0.9-0.2-1.4-0.2c-0.9-0.1-1.8-0.2-2.8-0.2c-1.7,0.1-3.2,0.3-4.7,0.6
		c-8,1.9-12.6,7.8-14.1,14.2c-0.4,1.8-0.7,3.6-0.7,5.3V98c0,0.2,0,0.4,0,0.6C182.6,98.8,182.6,98.8,182.6,98.9z M198.4,94.2
		c0,0,0.1-0.1,0.1-0.1c0.1-0.1,0.2-0.2,0.3-0.3c0.1-0.1,0.2-0.2,0.4-0.3c0.1-0.1,0.3-0.2,0.4-0.3c0.4-0.2,0.8-0.4,1.3-0.5
		c0,0,0.1,0,0.1,0c0.3-0.1,0.7-0.1,1-0.1c0.1,0,0.2,0,0.3,0c0.1,0,0.2,0,0.3,0c0.4,0,0.8,0,1.1,0.1c0.4,0.1,0.7,0.2,1,0.3
		c0.3,0.1,0.6,0.3,0.8,0.5c0.1,0.1,0.2,0.2,0.3,0.3c0.4,0.5,0.8,1,1,1.6c0.1,0.2,0.1,0.3,0.2,0.5c0.2,0.6,0.3,1.2,0.3,1.9
		c0,0.2,0,0.3,0,0.5c0,0.1,0,0.3,0,0.4c0,0.1,0,0.2,0,0.3c0,0.2-0.1,0.3-0.1,0.5c0,0.2-0.1,0.3-0.2,0.5c0,0.2-0.1,0.3-0.2,0.5
		c-0.2,0.5-0.5,0.9-0.8,1.2c-0.1,0.1-0.2,0.2-0.3,0.3c-0.2,0.2-0.5,0.3-0.7,0.5c-0.1,0.1-0.2,0.1-0.3,0.2c0,0-0.1,0-0.1,0
		c-0.1,0-0.2,0.1-0.4,0.1c-0.1,0-0.3,0.1-0.4,0.1c-0.1,0-0.3,0.1-0.5,0.1c-0.2,0-0.3,0-0.5,0l-0.4,0c0,0-0.3,0-0.4,0
		c-0.4,0-0.8,0-1.1-0.1c-1-0.2-1.8-0.7-2.4-1.4c-0.1-0.1-0.2-0.2-0.3-0.4c-0.1-0.1-0.2-0.3-0.2-0.4c-0.1-0.1-0.1-0.3-0.2-0.4
		c-0.1-0.1-0.1-0.2-0.1-0.3c0-0.1-0.1-0.1-0.1-0.2c-0.1-0.4-0.2-0.7-0.2-1.1c0-0.1,0-0.2,0-0.3c0-0.1,0-0.3,0-0.4c0-0.2,0-0.3,0-0.5
		c0-0.4,0.1-0.7,0.2-1.1c0-0.1,0.1-0.3,0.1-0.4c0-0.2,0.1-0.3,0.2-0.5c0.1-0.1,0.1-0.3,0.2-0.4c0.1-0.1,0.2-0.3,0.2-0.4
		C198.2,94.4,198.3,94.3,198.4,94.2z"/>
	<path class="st0" d="M26.6,301.5C26.7,301.5,26.7,301.5,26.6,301.5C26.7,301.5,26.7,301.5,26.6,301.5c0.2,0.3,0.4,0.5,0.6,0.6
		c1.3,1.2,3,1.9,5,1.9c0,0,0,0,0,0v-0.2c0,0,0,0,0.1,0c2.2,0,4.3-0.8,5.7-2.3c1.3-1.4,2-3.3,1.9-5.4c-0.2-5-4-7.3-7.6-7.3v-0.2h0
		c-2.2,0-3.9,0.7-5.1,1.9c-0.1,0.1-0.1,0.1-0.2,0.2c-1.5,1.3-2.5,3.2-2.5,5.7C24.7,298.5,25.4,300.2,26.6,301.5z"/>
</g>
</svg>
