<?xml version="1.0" encoding="UTF-8"?>
<svg id="Layer_1" data-name="Layer 1" xmlns="http://www.w3.org/2000/svg" xmlns:xlink="http://www.w3.org/1999/xlink" viewBox="0 0 1764.63 691.64">
  <defs>
    <style>
      .cls-1 {
        opacity: .9;
      }

      .cls-1, .cls-2, .cls-3, .cls-4, .cls-5, .cls-6, .cls-7, .cls-8, .cls-9, .cls-10, .cls-11, .cls-12, .cls-13, .cls-14, .cls-15, .cls-16, .cls-17, .cls-18, .cls-19, .cls-20, .cls-21, .cls-22, .cls-23, .cls-24, .cls-25, .cls-26, .cls-27, .cls-28, .cls-29, .cls-30, .cls-31, .cls-32, .cls-33, .cls-34, .cls-35, .cls-36, .cls-37, .cls-38, .cls-39, .cls-40, .cls-41, .cls-42, .cls-43, .cls-44, .cls-45, .cls-46, .cls-47, .cls-48 {
        stroke-width: 0px;
      }

      .cls-1, .cls-3, .cls-4, .cls-5, .cls-6, .cls-7, .cls-8, .cls-9, .cls-11, .cls-22, .cls-23, .cls-24, .cls-25, .cls-26 {
        isolation: isolate;
      }

      .cls-1, .cls-4, .cls-7, .cls-8, .cls-11, .cls-12, .cls-25, .cls-26 {
        fill: #66abc4;
      }

      .cls-49 {
        stroke-width: 3px;
      }

      .cls-49, .cls-2, .cls-50, .cls-51 {
        fill: none;
      }

      .cls-49, .cls-50, .cls-51 {
        stroke: #e10819;
        stroke-linecap: round;
        stroke-linejoin: round;
      }

      .cls-52 {
        clip-path: url(#clippath);
      }

      .cls-3 {
        opacity: .09;
      }

      .cls-3, .cls-9, .cls-10, .cls-12, .cls-13, .cls-14, .cls-15, .cls-16, .cls-17, .cls-18, .cls-19, .cls-20, .cls-21, .cls-22, .cls-23, .cls-24 {
        fill-rule: evenodd;
      }

      .cls-3, .cls-9, .cls-20, .cls-23, .cls-41 {
        fill: #9bc9dd;
      }

      .cls-4 {
        opacity: .55;
      }

      .cls-50, .cls-51 {
        stroke-width: 5px;
      }

      .cls-51 {
        stroke-dasharray: 0 0 0 0 0 0 2 8.98 0 0 0 0;
      }

      .cls-5 {
        fill: #1b1464;
        opacity: .18;
      }

      .cls-53 {
        clip-path: url(#clippath-1);
      }

      .cls-54 {
        clip-path: url(#clippath-4);
      }

      .cls-55 {
        clip-path: url(#clippath-3);
      }

      .cls-56 {
        clip-path: url(#clippath-2);
      }

      .cls-57 {
        clip-path: url(#clippath-7);
      }

      .cls-58 {
        clip-path: url(#clippath-6);
      }

      .cls-59 {
        clip-path: url(#clippath-5);
      }

      .cls-6 {
        fill: #0071bc;
        opacity: .14;
      }

      .cls-7 {
        opacity: .64;
      }

      .cls-8 {
        opacity: .21;
      }

      .cls-9 {
        opacity: .28;
      }

      .cls-10 {
        fill: url(#radial-gradient);
      }

      .cls-11 {
        opacity: .87;
      }

      .cls-60 {
        opacity: .36;
      }

      .cls-61 {
        opacity: .66;
      }

      .cls-62 {
        opacity: .69;
      }

      .cls-13 {
        fill: #00f1ff;
      }

      .cls-14 {
        fill: #23052c;
      }

      .cls-15 {
        fill: #e10819;
      }

      .cls-16 {
        fill: #d6e4ea;
      }

      .cls-17 {
        fill: #e9f9ff;
      }

      .cls-18, .cls-22, .cls-47 {
        fill: #f5fbff;
      }

      .cls-19, .cls-45 {
        fill: #fff;
      }

      .cls-21 {
        fill: #eaf5f9;
      }

      .cls-22, .cls-24 {
        opacity: .12;
      }

      .cls-23 {
        opacity: .22;
      }

      .cls-24 {
        fill: #7fc3ea;
      }

      .cls-25 {
        opacity: .95;
      }

      .cls-26 {
        opacity: .94;
      }

      .cls-27 {
        fill: #f9fbfe;
      }

      .cls-28 {
        fill: #79b5cc;
      }

      .cls-29 {
        fill: #878787;
      }

      .cls-30 {
        fill: #0c8236;
      }

      .cls-31 {
        fill: #c3c4c8;
      }

      .cls-32 {
        fill: #ddeaf1;
      }

      .cls-33 {
        fill: #c69c6d;
      }

      .cls-34 {
        fill: #d71e16;
      }

      .cls-35 {
        fill: #e20e17;
      }

      .cls-36 {
        fill: #d7eaf3;
      }

      .cls-37 {
        fill: #a9afb1;
      }

      .cls-38 {
        fill: #c1272d;
      }

      .cls-39 {
        fill: #a5c7d3;
      }

      .cls-40 {
        fill: #b7b7b7;
      }

      .cls-42 {
        fill: #b3b3b3;
      }

      .cls-43 {
        fill: #333132;
      }

      .cls-44 {
        fill: #f1e519;
      }

      .cls-46 {
        fill: #edf5f9;
      }

      .cls-48 {
        fill: #010101;
      }
    </style>
    <radialGradient id="radial-gradient" cx="1341.58" cy="473.84" fx="1341.58" fy="473.84" r="3.62" gradientTransform="translate(0 -12.66)" gradientUnits="userSpaceOnUse">
      <stop offset="0" stop-color="#597fe0"/>
      <stop offset=".99" stop-color="#5243b3"/>
    </radialGradient>
    <clipPath id="clippath">
      <path class="cls-2" d="M1299.99,604.86c-1.77.02-11.15-.11-13.13-.1-.97-.18-3.91.58-3.88-1.12l-.11-12.57c-.03-1.41,1.85-1.08,2.75-1.1-.24-1.17.62-1.94,1.76-1.72-.09-.82.03-1.99,1.11-1.97h6.8c1.08-.03,1.23,1.15,1.15,1.98,1.15-.21,2.02.55,1.8,1.73.91.04,2.81-.31,2.79,1.12l.08,12.65c.01.6-.52,1.11-1.12,1.09"/>
    </clipPath>
    <clipPath id="clippath-1">
      <path class="cls-2" d="M1263.09,604.58c-1.72.02-10.87-.1-12.79-.1-.95-.18-3.83.57-3.79-1.11l-.16-12.41c-.05-1.39,1.8-1.07,2.67-1.09-.24-1.14.58-1.91,1.71-1.69-.09-.79,0-1.96,1.07-1.94h6.64c1.05-.02,1.2,1.14,1.13,1.95,1.13-.22,1.96.56,1.75,1.71.9.04,2.74-.29,2.73,1.11l.13,12.49c.02.59-.51,1.09-1.1,1.08"/>
    </clipPath>
    <clipPath id="clippath-2">
      <path class="cls-2" d="M1227.11,604.31c-1.69.02-10.6-.1-12.49-.09-.94-.17-3.73.56-3.7-1.1l-.2-12.26c-.05-1.36,1.75-1.06,2.61-1.07-.23-1.11.54-1.89,1.65-1.67-.09-.78,0-1.94,1.04-1.92h6.48c1.03-.02,1.17,1.14,1.1,1.93,1.12-.21,1.92.56,1.72,1.69.88.03,2.68-.28,2.66,1.09l.18,12.33c.02.58-.47,1.08-1.05,1.07"/>
    </clipPath>
    <clipPath id="clippath-3">
      <path class="cls-2" d="M1192.01,604.05c-1.64.02-10.35-.1-12.18-.09-.92-.17-3.65.54-3.62-1.08l-.25-12.11c-.06-1.33,1.69-1.05,2.53-1.06-.23-1.09.52-1.87,1.61-1.65-.09-.76-.02-1.91,1.01-1.9h6.31c1.02-.02,1.15,1.13,1.09,1.9,1.1-.21,1.88.57,1.69,1.67.87.03,2.61-.27,2.6,1.08-.4.76,1.32,13.89-.8,13.24"/>
    </clipPath>
    <clipPath id="clippath-4">
      <path class="cls-2" d="M1157.76,603.79c-1.6.02-10.1-.1-11.88-.09-.91-.16-3.57.53-3.54-1.07l-.29-11.96c-.07-1.32,1.64-1.04,2.47-1.05-.23-1.06.48-1.85,1.57-1.63-.08-.74-.04-1.88.97-1.87h6.17c1,0,1.13,1.12,1.07,1.88,1.09-.21,1.82.57,1.65,1.65.86.02,2.56-.26,2.55,1.07-.4.76,1.36,13.68-.73,13.08"/>
    </clipPath>
    <clipPath id="clippath-5">
      <path class="cls-2" d="M1124.33,603.54c-1.57.02-9.86-.1-11.61-.09-.89-.15-3.48.52-3.46-1.06l-.33-11.82c-.07-1.29,1.6-1.03,2.41-1.04-.22-1.04.44-1.83,1.52-1.61-.08-.73-.05-1.86.95-1.85h6.02c.98,0,1.09,1.11,1.04,1.86,1.07-.21,1.79.57,1.62,1.63.84.02,2.5-.25,2.49,1.05-.39.75,1.39,13.47-.66,12.92"/>
    </clipPath>
    <clipPath id="clippath-6">
      <path class="cls-2" d="M1048.42,586c-1.49-.03-9.34.01-11-.01-.83.14-3.34-.53-3.21,1.01l.42,11.51c0,1.22,1.54,1.01,2.35,1.02-.14.99.5,1.78,1.53,1.58-.03.72.06,1.8,1.01,1.8l5.69.04c.96.01.95-1.1.88-1.79,1.04.22,1.66-.57,1.44-1.56.78-.01,2.38.26,2.29-.99-.42-.78.53-13.05-1.38-12.6"/>
    </clipPath>
    <clipPath id="clippath-7">
      <polygon class="cls-2" points="1061.41 221.33 1071.76 126.02 1189.06 116.23 1182.31 217.23 1061.41 221.33"/>
    </clipPath>
  </defs>
  <path class="cls-18" d="M847.39,107.09c-19.07,23.16-47.04,57.11-42.77,98.37,4.91,47.38,47.03,53.18,62.01,96.23,28.12,80.81-91.64,142.63-79.34,227.98,14.53,100.78,200.89,148.87,216.2,152.66,120.35,29.77,140.3-21.02,372.09-25.66,118.48-2.37,155.91,10.05,201.01-21.38,72.25-50.35,117.35-164.7,83.4-235.23-20.6-42.79-60.58-49.39-64.15-91.95-3.59-42.75,35.1-55.38,36.35-98.37,1.56-53.35-55.86-109.07-113.34-128.31-78.43-26.25-106.34,32.39-203.11,29.78-132.91-3.58-151.6-116.13-275.91-111.04-108.02,4.42-180.97,92.97-192.46,106.92Z"/>
  <g>
    <g>
      <g>
        <path class="cls-19" d="M1104.93,514.53l-114.55,10.96c57.43,1.56,212.68,6.05,267.15-7.15l-152.6-3.8h0Z"/>
        <path class="cls-20" d="M990.38,525.48l-4.88,6.32,188.35,5.27,87.45-12.73-3.78-6.01c-53.77,13.16-210.49,8.73-267.15,7.15h.01Z"/>
        <polygon class="cls-14" points="1174.52 528.56 1173.85 537.08 1261.31 524.34 1257.53 518.33 1174.52 528.56"/>
        <polygon class="cls-16" points="1110.16 462.6 1118.99 519.31 1172.41 519.31 1155.71 462.6 1110.16 462.6"/>
        <polygon class="cls-12" points="1155.71 462.6 1166.12 462.6 1178.59 519.31 1172.41 519.31 1155.71 462.6"/>
        <polygon class="cls-20" points="1113.06 481.22 1164.06 490.96 1155.71 462.6 1110.16 462.6 1113.06 481.22"/>
        <path class="cls-19" d="M1118.24,514.53c.76,2.85.84,9.51.74,12.49l-128.61-1.54c7.94-.5,123.28-12.7,127.86-10.96h.01Z"/>
        <polygon class="cls-17" points="847.82 470.75 897.94 158.1 1424.72 115.84 1369.74 470.75 847.82 470.75"/>
        <polygon class="cls-12" points="1424.72 115.84 1435.29 123.94 1382.36 476.03 1369.74 470.75 1424.72 115.84"/>
        <polygon class="cls-20" points="847.82 470.75 860.5 474.04 1382.36 476.03 1369.74 470.75 847.82 470.75"/>
        <polygon class="cls-12" points="866.57 449.84 1352.79 449.84 1402.51 128.78 912.58 167.82 866.57 449.84"/>
        <polygon class="cls-19" points="870 449.84 914.53 169.54 1401.96 132 1352.79 449.84 870 449.84"/>
        <polygon class="cls-20" points="1001.82 466.2 1003.5 457.32 1144.8 457.32 1146.86 458.54 1145.38 467.81 1003.93 467.6 1001.82 466.2"/>
        <polygon class="cls-21" points="1144.8 457.32 1143.84 466.2 1001.82 466.2 1003.5 457.32 1144.8 457.32"/>
        <polygon class="cls-41" points="1029 466.2 1027.82 466.14 1029.62 457.26 1030.8 457.32 1029 466.2"/>
        <polygon class="cls-41" points="1071.15 466.17 1069.81 466.15 1071.36 457.27 1072.69 457.29 1071.15 466.17"/>
        <polygon class="cls-41" points="1111.3 466.17 1109.38 466.16 1110.74 457.28 1112.66 457.29 1111.3 466.17"/>
        <polygon class="cls-3" points="1121.03 140.2 1126.38 150.78 1402.51 128.78 1377.01 293.3 1394.12 313.37 1424.72 115.84 1121.03 140.2"/>
        <polygon class="cls-9" points="1083.84 143.18 1093.88 153.38 1043.73 157.37 1034.35 147.15 1083.84 143.18"/>
        <path class="cls-10" d="M1345.24,461.18c.03,4.78-7.41,4.74-7.33,0-.07-4.76,7.37-4.76,7.33,0Z"/>
        <path class="cls-13" d="M1345.24,461.18c0,1.75-1.23,3.21-2.84,3.55-5.48-2.29,2.01-10.55,2.84-3.55Z"/>
      </g>
      <polygon class="cls-23" points="890.47 204.66 882.48 254.51 894.83 254.92 906.07 203.96 890.47 204.66"/>
      <polygon class="cls-23" points="892.23 193.68 896.65 166.12 906.07 165.31 899.59 192.89 892.23 193.68"/>
      <polygon class="cls-18" points="942.45 237.46 911.96 437.2 1185.49 437.2 1213.26 222.78 942.45 237.46"/>
      <polygon class="cls-15" points="942.45 237.46 939.78 254.92 1211.36 237.46 1213.26 222.78 942.45 237.46"/>
      <g>
        <polygon class="cls-18" points="980.28 192.83 942.45 430.25 1238.57 430.25 1281.14 169.26 980.28 192.83"/>
        <polygon class="cls-15" points="980.28 192.83 978.1 206.29 1278.32 186.54 1281.14 169.26 980.28 192.83"/>
        <g>
          <polygon class="cls-19" points="1254.27 176.59 1257.36 174.15 1266.85 182.58 1265.69 184.44 1254.27 176.59"/>
          <polygon class="cls-19" points="1265.73 174.15 1267.91 175.43 1253.37 184.44 1252.34 182.77 1265.73 174.15"/>
        </g>
        <polygon class="cls-19" points="985.04 195.42 984.14 203.4 992.07 202.84 993.4 194.71 985.04 195.42"/>
      </g>
      <g class="cls-60">
        <polygon class="cls-12" points="1150.18 219.49 992.14 229.19 993.05 223.32 1151.19 213.32 1150.18 219.49"/>
        <polygon class="cls-12" points="1109.82 274.34 984.24 279.96 985.15 274.12 1110.8 268.26 1109.82 274.34"/>
        <polygon class="cls-12" points="1095.05 233.91 1016.77 238.44 1017.7 232.52 1096.03 227.84 1095.05 233.91"/>
        <polygon class="cls-12" points="1112.46 232.9 1101.41 233.54 1102.39 227.46 1113.45 226.8 1112.46 232.9"/>
        <polygon class="cls-12" points="1158.1 239.94 1146.73 240.57 1147.74 234.4 1159.12 233.76 1158.1 239.94"/>
        <polygon class="cls-12" points="1156.49 249.71 1145.14 250.3 1146.14 244.14 1157.51 243.53 1156.49 249.71"/>
        <polygon class="cls-12" points="1140.65 240.9 1015.3 247.77 1016.23 241.87 1141.66 234.75 1140.65 240.9"/>
        <polygon class="cls-12" points="1139.06 250.61 1013.84 257.1 1014.76 251.2 1140.07 244.47 1139.06 250.61"/>
        <polygon class="cls-12" points="1122.13 261.97 1111.02 262.51 1112 256.43 1123.13 255.87 1122.13 261.97"/>
        <polygon class="cls-12" points="1167.3 218.44 1155.87 219.15 1156.88 212.96 1168.33 212.23 1167.3 218.44"/>
        <polygon class="cls-12" points="1212.88 331.19 975.3 337.34 976.21 331.54 1213.94 324.93 1212.88 331.19"/>
        <polygon class="cls-12" points="1230.69 330.73 1218.8 331.04 1219.85 324.77 1231.75 324.44 1230.69 330.73"/>
        <polygon class="cls-12" points="1126.51 273.59 1115.36 274.09 1116.35 268 1127.51 267.48 1126.51 273.59"/>
        <polygon class="cls-12" points="1139.95 281.96 982.9 288.55 983.81 282.72 1140.95 275.83 1139.95 281.96"/>
        <polygon class="cls-12" points="1156.96 281.25 1145.6 281.73 1146.61 275.58 1157.98 275.08 1156.96 281.25"/>
        <polygon class="cls-12" points="1107.64 262.68 1012.23 267.3 1013.16 261.41 1108.62 256.6 1107.64 262.68"/>
        <polygon class="cls-12" points="1085.24 294.85 1007.44 297.85 1008.36 291.97 1086.21 288.82 1085.24 294.85"/>
        <polygon class="cls-12" points="1102.53 294.18 1091.55 294.61 1092.53 288.57 1103.52 288.12 1102.53 294.18"/>
        <polygon class="cls-12" points="1147.88 302.08 1136.58 302.49 1137.59 296.36 1148.89 295.94 1147.88 302.08"/>
        <polygon class="cls-12" points="1146.29 311.79 1135 312.15 1136 306.04 1147.3 305.65 1146.29 311.79"/>
        <polygon class="cls-12" points="1130.55 302.7 1005.98 307.13 1006.9 301.26 1131.54 296.59 1130.55 302.7"/>
        <polygon class="cls-12" points="1128.97 312.35 1004.52 316.4 1005.45 310.53 1129.97 306.25 1128.97 312.35"/>
        <polygon class="cls-12" points="1112.15 323.35 1101.1 323.67 1102.08 317.62 1113.13 317.28 1112.15 323.35"/>
        <polygon class="cls-12" points="1097.74 323.77 1002.93 326.54 1003.85 320.68 1098.72 317.73 1097.74 323.77"/>
        <polygon class="cls-12" points="1096.52 356.32 971.98 358.67 972.88 352.88 1097.5 350.29 1096.52 356.32"/>
        <polygon class="cls-12" points="1108.73 344.33 1097.71 344.58 1098.69 338.54 1109.72 338.27 1108.73 344.33"/>
        <polygon class="cls-12" points="1198.7 415.59 963.12 415.59 964.02 409.83 1199.74 409.38 1198.7 415.59"/>
        <polygon class="cls-12" points="1216.35 415.59 1204.56 415.59 1205.61 409.37 1217.4 409.35 1216.35 415.59"/>
        <polygon class="cls-12" points="1113.07 356.01 1102.02 356.22 1103 350.18 1114.06 349.95 1113.07 356.01"/>
        <polygon class="cls-12" points="1126.39 364.69 970.66 367.19 971.56 361.41 1127.39 358.61 1126.39 364.69"/>
        <polygon class="cls-12" points="1143.26 364.42 1132 364.6 1133 358.51 1144.27 358.31 1143.26 364.42"/>
        <polygon class="cls-12" points="1094.36 344.65 999.75 346.79 1000.67 340.95 1095.33 338.63 1094.36 344.65"/>
        <polygon class="cls-12" points="1072.15 376.11 994.99 377.09 995.91 371.26 1073.11 370.13 1072.15 376.11"/>
        <polygon class="cls-12" points="1089.3 375.89 1078.41 376.03 1079.38 370.04 1090.27 369.88 1089.3 375.89"/>
        <polygon class="cls-12" points="1134.26 384.93 1123.06 385.04 1124.05 378.97 1135.26 378.84 1134.26 384.93"/>
        <polygon class="cls-12" points="1132.68 394.55 1121.49 394.62 1122.48 388.56 1133.68 388.46 1132.68 394.55"/>
        <polygon class="cls-12" points="1117.07 385.1 993.55 386.29 994.46 380.47 1118.06 379.04 1117.07 385.1"/>
        <polygon class="cls-12" points="1115.51 394.66 992.1 395.48 993.02 389.66 1116.5 388.61 1115.51 394.66"/>
        <polygon class="cls-12" points="1098.83 405.18 1087.88 405.22 1088.85 399.22 1099.81 399.16 1098.83 405.18"/>
        <polygon class="cls-12" points="1084.55 405.23 990.52 405.54 991.44 399.73 1085.52 399.24 1084.55 405.23"/>
      </g>
      <g>
        <polygon class="cls-18" points="1220.37 285.54 1387.01 276.61 1367.01 423.97 1196.81 423.97 1220.37 285.54"/>
        <polygon class="cls-18" points="1178.59 267.34 1345.24 258.41 1325.64 402.81 1155.04 405.77 1178.59 267.34"/>
        <polygon class="cls-15" points="1178.59 267.34 1176.14 281.76 1343.27 272.9 1345.24 258.41 1178.59 267.34"/>
        <g>
          <polygon class="cls-19" points="1325.32 263.64 1327.99 261.19 1336.19 269.62 1335.19 271.49 1325.32 263.64"/>
          <polygon class="cls-19" points="1335.21 261.19 1337.1 262.48 1324.54 271.49 1323.65 269.81 1335.21 261.19"/>
        </g>
        <polygon class="cls-12" points="1345.24 258.41 1347.06 261.19 1326.69 404.19 1155.89 406.63 1155.04 405.77 1325.64 402.81 1345.24 258.41"/>
      </g>
      <g>
        <polygon class="cls-22" points="1091.71 142.55 1245.67 130.21 1235.3 196.2 1081.25 204.54 1091.71 142.55"/>
        <polygon class="cls-18" points="1039.95 130.16 1263.9 107.08 1239.33 261.58 1015.11 277.45 1039.95 130.16"/>
        <polygon class="cls-12" points="1263.9 107.08 1266.39 110.44 1240.76 263.24 1016.24 278.47 1015.11 277.45 1239.33 261.58 1263.9 107.08"/>
        <polygon class="cls-17" points="1073.81 142.14 1059.61 230.83 1204.06 221.24 1218.71 129.08 1073.81 142.14"/>
      </g>
      <g class="cls-60">
        <polygon class="cls-12" points="1315.59 292.28 1179.38 298.99 1180.23 293.95 1316.52 286.97 1315.59 292.28"/>
        <polygon class="cls-12" points="1280.26 339.09 1172.05 342.64 1172.89 337.62 1281.17 333.87 1280.26 339.09"/>
        <polygon class="cls-12" points="1267.96 304.12 1200.49 307.21 1201.35 302.13 1268.87 298.91 1267.96 304.12"/>
        <polygon class="cls-12" points="1282.96 303.43 1273.44 303.87 1274.35 298.64 1283.88 298.19 1282.96 303.43"/>
        <polygon class="cls-12" points="1322.2 309.97 1312.4 310.39 1313.33 305.09 1323.14 304.65 1322.2 309.97"/>
        <polygon class="cls-12" points="1320.71 318.36 1310.92 318.75 1311.86 313.46 1321.65 313.05 1320.71 318.36"/>
        <polygon class="cls-12" points="1307.16 310.61 1199.13 315.24 1199.99 310.16 1308.09 305.33 1307.16 310.61"/>
        <polygon class="cls-12" points="1305.69 318.96 1197.78 323.25 1198.63 318.18 1306.62 313.68 1305.69 318.96"/>
        <polygon class="cls-12" points="1290.99 328.57 1281.41 328.92 1282.33 323.69 1291.91 323.32 1290.99 328.57"/>
        <polygon class="cls-12" points="1330.35 291.55 1320.49 292.03 1321.43 286.72 1331.29 286.21 1330.35 291.55"/>
        <polygon class="cls-12" points="1294.64 338.62 1285.04 338.94 1285.95 333.7 1295.56 333.37 1294.64 338.62"/>
        <polygon class="cls-12" points="1306.13 345.97 1170.81 350.02 1171.65 345.01 1307.06 340.7 1306.13 345.97"/>
        <polygon class="cls-12" points="1320.79 345.53 1311 345.82 1311.93 340.54 1321.73 340.23 1320.79 345.53"/>
        <polygon class="cls-12" points="1278.5 329.03 1196.29 332.02 1197.15 326.96 1279.41 323.8 1278.5 329.03"/>
        <polygon class="cls-12" points="1258.88 356.5 1191.84 358.28 1192.7 353.23 1259.78 351.32 1258.88 356.5"/>
        <polygon class="cls-12" points="1273.78 356.11 1264.32 356.36 1265.22 351.17 1274.69 350.9 1273.78 356.11"/>
        <polygon class="cls-12" points="1312.75 363.38 1303.02 363.61 1303.95 358.35 1313.69 358.1 1312.75 363.38"/>
        <polygon class="cls-12" points="1311.28 371.72 1301.56 371.92 1302.48 366.66 1312.21 366.44 1311.28 371.72"/>
        <polygon class="cls-12" points="1297.82 363.73 1190.49 366.26 1191.35 361.21 1298.74 358.48 1297.82 363.73"/>
        <polygon class="cls-12" points="1296.36 372.03 1189.14 374.23 1190 369.19 1297.28 366.78 1296.36 372.03"/>
        <polygon class="cls-12" points="1281.76 381.33 1272.24 381.49 1273.15 376.29 1282.67 376.11 1281.76 381.33"/>
        <polygon class="cls-12" points="1269.35 381.54 1187.66 382.94 1188.52 377.91 1270.25 376.35 1269.35 381.54"/>
      </g>
      <g>
        <g>
          <polygon class="cls-19" points="983.98 76.19 1044.28 69.97 1037.66 111.57 977.29 115.85 983.98 76.19"/>
          <path class="cls-12" d="M1044.28,69.97l2.9,3.92-5.98,40.43c-3.02-.52-63.04,5.97-63.91,1.52l60.37-4.27,6.62-41.6h0Z"/>
        </g>
        <g>
          <polygon class="cls-12" points="1003.15 79.8 989.72 95.77 1001.38 108.35 1002.26 101.44 993.55 95.64 1002.2 87 1003.15 79.8"/>
          <polygon class="cls-12" points="1018.3 77.86 1028.01 90.34 1013.78 106.43 1014.43 99.63 1024.33 91.26 1017.67 84.91 1018.3 77.86"/>
          <polygon class="cls-12" points="1002.24 108.22 1014.93 78.29 1017.72 77.93 1004.46 107.87 1002.24 108.22"/>
        </g>
      </g>
    </g>
    <g>
      <path class="cls-5" d="M1764.63,562.65c-48.91,11.74-204.79,55.29-225.52,57.65,33.72-15.7,106.02-57.65,106.02-57.65,0,0,85.31,1.06,119.5,0Z"/>
      <g>
        <path class="cls-45" d="M1715.49,509.71c-2.9.62-159.45,33.97-162.22,34.57l-15.07.15-681.9,6.86c193.83-41.17,657.92-45.33,859.19-41.58Z"/>
        <g>
          <path class="cls-32" d="M1546.55,609.04c-.02-2.03,2.39-2.03,2.36,0,.03,2.01-2.38,2.02-2.36,0Z"/>
          <path class="cls-32" d="M1547.73,554.37c-.02-2.02,2.4-2.01,2.37,0,.02,2.01-2.4,2.02-2.37,0Z"/>
          <path class="cls-32" d="M1549.6,578.06c1.53-.03,1.53,3.14,0,3.11-1.55.04-1.55-3.14,0-3.11Z"/>
          <path class="cls-32" d="M1718.76,515.87c-2.32,71.34,15.21,51.35-53.99,71.28-36.12,9.11-90.05,24.9-126.57,33.21v-76.88c4.12.19,165.84-32.3,174.02-33.71,3.56-.55,6.57,2.09,6.54,6.09h0Z"/>
          <g class="cls-61">
            <g>
              <path class="cls-39" d="M1595,572.53c.54-1.24,2.95-1.14,2.29.27-.94.62-11.78,27.81-13.76,26.14-2.94,1.2,11.83-25.99,11.47-26.41h0Z"/>
              <path class="cls-39" d="M1596.73,568.89c-1.91,2.83-12.89-18.96-13.76-19.07-.65-1.16,1.75-2.37,2.29-1.33-.3.71,14.36,19.78,11.47,20.4Z"/>
              <path class="cls-39" d="M1607.42,571.42c.54-1.2,2.95-1.14,2.29.22l-9.34,18.64c-.3.64-1.12,1.05-1.73.94-2.81,1.05,9.04-19.34,8.77-19.81h0Z"/>
              <path class="cls-39" d="M1598.65,548.37c.6-.41,1.42-.42,1.73.06l9.34,13.86c.65,1.02-1.75,2.33-2.29,1.39.22-.68-11.55-14.85-8.77-15.32h0Z"/>
              <path class="cls-39" d="M1610.02,568.15c-2.09.57-2.09-2.03,0-2.53,2.09-.55,2.09,2.01,0,2.53Z"/>
              <path class="cls-39" d="M1620.55,565.86c.54-1.16,2.95-1.11,2.29.2-.94.59-11.78,25.95-13.76,24.45-2.94,1.18,11.83-24.28,11.47-24.66h0Z"/>
              <path class="cls-39" d="M1622.28,562.46c-1.91,2.65-12.89-17.3-13.76-17.39-.65-1.07,1.75-2.22,2.29-1.26-.3.66,14.36,18.02,11.47,18.65Z"/>
              <path class="cls-39" d="M1632.97,564.57c.54-1.12,2.95-1.11,2.29.15l-9.34,17.37c-.3.59-1.12,1-1.73.91-2.81,1.03,9.04-18.02,8.77-18.44h0Z"/>
              <path class="cls-39" d="M1624.2,543.51c.6-.39,1.42-.41,1.73.03l9.34,12.59c.65.93-1.75,2.17-2.29,1.33.22-.63-11.55-13.48-8.77-13.95h0Z"/>
              <path class="cls-39" d="M1682.26,549.43c1.91-2.21,12.89,11.61,13.76,11.51.65.64-1.75,1.96-2.29,1.36.3-.55-14.36-12.2-11.47-12.87Z"/>
              <path class="cls-39" d="M1693.73,528.62c.54-.87,2.95-.79,2.29.19-.94.43-11.78,19.7-13.76,18.55-2.94.9,11.83-18.45,11.47-18.74Z"/>
              <path class="cls-39" d="M1669.84,554.37c.6-.39,1.42-.5,1.73-.16l9.34,9.61c.65.71-1.75,2.03-2.29,1.38.22-.56-11.55-10.14-8.77-10.84h0Z"/>
              <path class="cls-39" d="M1671.57,548.05c-.54.98-2.95,1-2.29-.12l9.34-14.48c.3-.47,1.13-.74,1.73-.62,2.81-.64-9.04,14.86-8.77,15.22h0Z"/>
              <path class="cls-39" d="M1670.58,551.38c.03,1.32-3.25,2.18-3.22.82-.03-1.33,3.25-2.16,3.22-.82Z"/>
              <path class="cls-39" d="M1656.71,556.08c1.91-2.4,12.89,13.27,13.76,13.19.65.74-1.75,2.11-2.29,1.43.3-.6-14.36-13.95-11.47-14.62Z"/>
              <path class="cls-39" d="M1668.18,533.3c.54-.95,2.95-.82,2.29.26-.94.46-11.78,21.56-13.76,20.24-2.94.92,11.83-20.16,11.47-20.49h0Z"/>
              <path class="cls-39" d="M1644.29,561.19c.6-.42,1.42-.51,1.73-.13l9.34,10.88c.65.8-1.75,2.19-2.29,1.45.22-.61-11.55-11.51-8.77-12.2h0Z"/>
              <path class="cls-39" d="M1653.07,538.34c.54-1.01,2.95-.86,2.29.28-.75.43-9.29,17.63-10.88,16.43-.64.01-1.07-.41-.75-.96l9.34-15.75Z"/>
              <path class="cls-39" d="M1639.49,558.19c2.09-.55,2.09,1.77,0,2.3-2.09.56-2.09-1.79,0-2.3Z"/>
            </g>
          </g>
          <path class="cls-27" d="M1552.07,614.27c-3.77.85-10.27,1.82-13.73,3.65v2.36c4.72-.64,15.35-5.26,19.76-7.22.06-.49.11-1.05.15-1.66l-6.18,2.88h0ZM1555.28,543.85c-1.42-1.21-2.85-1.98-3.87-2.46l-13.21,2.1v.94c1.23-.07,16.47.09,17.07-.58h.01ZM1549.61,581.18c1.53.04,1.53-3.14,0-3.11-1.55-.03-1.55,3.14,0,3.11ZM1550.11,554.38c.02-2.01-2.4-2.02-2.37,0-.02,2.02,2.4,2.01,2.37,0ZM1546.55,609.05c-.02,2.02,2.39,2.01,2.36,0,.03-2.03-2.39-2.03-2.36,0Z"/>
          <path class="cls-6" d="M1555.49,616.36l155.31-41.36c3.66-.69,5.3-2.5,6.45-4.18l-159.21,42.53c-.71,1.52-.91,2.38-2.55,3.01Z"/>
          <g>
            <path class="cls-39" d="M1550.79,579.62c.02,2.02-2.4,2.01-2.37,0-.02-2.01,2.4-2.02,2.37,0Z"/>
            <path class="cls-39" d="M1548.91,609.04c.03,2.01-2.38,2.02-2.36,0-.02-2.03,2.39-2.03,2.36,0Z"/>
            <path class="cls-39" d="M1550.11,554.37c.02,2.01-2.4,2.02-2.37,0-.02-2.02,2.4-2.01,2.37,0Z"/>
          </g>
        </g>
        <g class="cls-62">
          <g>
            <path class="cls-42" d="M1413.84,521.67c-63.89,3.02-19.84,11.47,13.71,3.15-1.52,0-20.73-.04-21.86.57,1.04.35,2.97-.14,4.26.2-4.57,2.47-12.49,2.85-17.31,1.06,3.77-3.72,26.67-6.42,30.33-2.95.99.05,2.16.11,3.12-.13-.1-.08,5.7-2.1,4.86-2.14-5.69.62-11.38.13-17.12.24"/>
            <path class="cls-42" d="M1349.58,528.21c-15.86-.38,18.96-8.22,20.44-4.36-6.15,3.3-13.53,4.11-20.44,4.36M1365.66,522.4c-2.34-.39-38.75,2.42-29.83,5.87,10.25,3.44,74.84-5.6,29.83-5.87"/>
            <path class="cls-42" d="M1306.31,523.64c-.64.01-1.39.06-1.95.35,1.29.15,2.75-.16,4.03.12v.03c-6.27,2.22-16.95,5.38-23.45,5.51,1.22.26,33.78-.45,35.28-.47.25.06,8.45-2.19,8.89-2.33v-.03l-.06-.03.03-.03c-8.39.81-16.78,2.5-25.3,1.99,6.08-2.21,16.23-5.29,22.58-5.35.14-.15-.47-.06-.59-.08l-19.46.33"/>
            <path class="cls-42" d="M1313.73,520.25c-21.84,1.18-93.79,12.08-115.74,13.88,1.9-.13,39.7-.09,23.33-1.22l38.98-5.02,4.76,4.43c-3.24.27-6.53.19-9.63.99,7.78-.27,20.95.01,28.65-.58-.91-.98-3.73-.22-5.22-.85l-7.01-5.5,46.3-5.97c-1.46-.18-2.94-.17-4.42-.15M1260.56,521.12c-2.48.05-5,.23-7.46.47l5.24,4.73,11.83-1.52c-3.2-2.78-5.18-4.15-9.61-3.68"/>
          </g>
        </g>
        <g>
          <path class="cls-47" d="M1538.32,610.92c-.42-9.98.59-57.13-1.37-58.65-2.14-4.84-7.35-7.68-12.63-7.58l-139.2,1.68-.06,17.1c-4.71-5.4-11.97-2.43-15.82,2.22l12.09,16.7-8.63,11.94c-4.7.89-4.94,6.76-5.46,10.51l17.7.13-.04,10.33v.3l3.86.04c-.42-29.02,1.78-26.32,1.11.01l32.15.35c.28-10.48,15.41-10.27,15.51.17,9.83-.38,93.57,2.09,100.8.24v-5.51.02h-.01ZM1388.98,551.72c0-.7,1.13-.73,1.12,0l-.06,17.36c-.01.3-.27.53-.57.53-1.24.42-.19-17.52-.49-17.88h0ZM1374.79,566.04c5.45-5.01,10.81,8.3,13.75,11l-2.89,3.98-10.86-14.98ZM1405.47,600.46c-2.43-.02-7.57-.05-9.97-.06-.21-1.32,1.34-1.77,2.63-2.21l-8.97-12.46-9,12.23c1.27.43,3.16.92,2.84,2.36-3.12-.03-7.86-.05-10.98-.07.11-1.75,2.09-1.64,3.13-2.66.65-.45,20.23-27.98,20.76-28.57,1.48-2.65,4.82-5.23,7.77-3.17l-11.76,16.01,11.47,15.7c1.03,1.13,3.31,1.08,3.54,2.88h-1.45v.02h-.01ZM1417.42,591.78c-.17.87-13.76.14-14.45.3-.33-.09-.22-.63-.19-.88.45-.56,1.82.19,2.07-.83.24-1.93.31-11.43.07-13.36-.31-.94-1.95-.03-2.09-.87,0-.31-.05-.8.4-.76l8.33-.02c.44-.03.4.45.39.76-.16.92-2.21-.28-2.34,1.29-.05,1.78-.28,10.99,0,12.72.01,0,.02-.02.03-.03.02,0,.03-.02.05-.02,0-.03.04,0,.05,0,8.18,1.69,5.38-5.52,8.12-4.32.32-.12-.48,5.9-.44,6.02h0ZM1437.42,584.89c-3.33,15.32-25.46,3.98-14.97-7.79,5.72-5.97,16.83-.54,14.97,7.79ZM1438.21,547.96c-.21,6.33-5.28,10.25-11.34,8.02-3.82-1.41-4.44-6.28-4.57-9.82,2.96-.03,12.95-.15,16.07-.19-.01.55-.06,1.24-.16,1.99ZM1457.45,585.3c-.09.7-1.23.24-1.61.73-.89.82-.27,3.87-.52,4.95-20.44,9.94-22.6-22.1-1.33-14.87.01-.02.02-.05.02-.08.2-.19.27-.53.42-.76.17-.39,1.25-.42,1.23.12l-.07,5.73c.01.5-.76.42-1.07.29-.99-4.44-7.42-6.95-9.53-1.91-2.07,4.37-.56,14.45,6.01,10.86-.25-1.13.81-4.45-.9-4.67-.39-.1-1.21.22-1.22-.4,0-.31-.03-.79.42-.75h7.75c.45-.05.43.44.41.75h-.01ZM1426.92,549.71c-.32,3.15,2.44,7.35,5.45,4.32,1.66-2.11,1.21-5.48,1.36-8l-6.94.08c0,1.01.03,2.44.13,3.6ZM1432.98,613.88c-.99-7.38-7.41-3.71-6.66,2.19l6.78.08c-.02-.74-.04-1.55-.12-2.27ZM1432.25,581.31c.24-3.93-4.09-7.25-6.47-2.96-1.53,3.55-2.16,12.91,3.63,12.22,3.42-1.46,2.82-6.18,2.85-9.27h-.01ZM1426.79,546.11c-1.01,12.09,8.01,11.83,6.94-.08l-6.94.08ZM1432.29,582.52c-.9-12.18-9.71-4.41-7.24,4.04,2.34,8.81,8.4,2.19,7.24-4.04ZM961.52,610.79s-2.66-59.24-2.66-59.26c0,0-102.56-.33-102.57-.23,0,.11.6,8.57.6,8.68,1.25,5.47.69,43.71,5.68,47.11-.72,5.85,95.96,2.76,98.95,3.95v-.25M901.04,574.76c-.52-.07-.9-17.5-1.09-17.76-.01-.16.06-.29.23-.29.74.02.9,17.47,1.16,17.78.05.18-.12.35-.3.27h0ZM957.36,573.65c1.94-.1,1.28-3.05,1.09-4.28-.5-1.34-2.69-.97-3.77-.8-1.23.5-.65,2.57-.69,3.55,0,1.8,2.15,1.57,3.37,1.53ZM893.68,572.01c1.76.41,5.61,7.75,6.75,9.04l-1.6,2.93-7.39-11.24c.52-.56,1.44-.99,2.24-.72h0ZM892.04,598.47c1.56.01,4.42.03,5.96.04.1-.94-1.03-1.41-1.9-1.7l5.09-9.14,6.15,9.29c-.85.29-1.73.73-1.59,1.6,1.98,0,5.31.02,7.29.04-.14-1.28-1.66-1.36-2.37-2.19l-7.8-11.76,6.68-11.98c-2.01-1.57-3.92.56-4.67,2.4l-11.56,20.97c-.51,1.1-2.25,1.05-2.19,2.44h.91ZM957.7,581.12c2.33-.09,1.74-3.39,1.43-4.9-.58-1.62-3-1.36-4.31-1.05-1.45.61-.91,2.77-.92,3.97.02,2.06,2.28,2.12,3.8,1.98h0ZM939.44,581.29c1.93-.1,1.24-3.01,1.07-4.23-.49-1.34-2.65-.99-3.72-.81-1.21.5-.63,2.55-.67,3.52,0,1.77,2.12,1.55,3.32,1.52h0ZM951.63,587.6c1.93-.1,1.27-3.02,1.08-4.25-.49-1.34-2.67-.99-3.75-.82-1.28.67-.68,3-.54,4.13.4,1.26,2.23.89,3.21.94h0ZM957.98,587.68c1.95-.1,1.28-3.04,1.09-4.27-.5-1.35-2.69-.99-3.77-.82-1.22.51-.64,2.56-.68,3.54-.02,1.79,2.15,1.58,3.36,1.55h0ZM958.03,594.66c1.94-.07,1.28-3.03,1.09-4.25-.5-1.34-2.68-1-3.77-.83-1.21.51-.64,2.55-.68,3.53-.01,1.79,2.14,1.59,3.36,1.55ZM902.78,608.87c-.49.02-.72-13.77-.89-13.94-.01-.13.12-.19.24-.19.65-.14.74,13.76.96,13.96,0,.16-.17.23-.31.17ZM952.33,601.46c1.92-.09,1.26-3.02,1.07-4.23-.48-1.35-2.66-.99-3.74-.84-1.22.49-.64,2.54-.68,3.52-.01,1.78,2.14,1.58,3.35,1.55ZM945.98,601.68c1.92-.11,1.25-3,1.06-4.22-.47-1.33-2.66-1.01-3.72-.83-1.21.48-.63,2.54-.68,3.5,0,1.77,2.13,1.57,3.34,1.55h0ZM1433.72,546.02c1.06,11.94-7.96,12.14-6.94.08l6.94-.08M955.55,575.91c-1.51.1-.81,2.71-.73,3.64.38,1.05,2.39.64,3.21.57.96-.38.38-2.39.46-3.13.01-1.48-2.03-1.03-2.94-1.08h0ZM1427.74,576.49c-4.95,1.84-3.85,18.12,2.97,13.25,2.32-3.13,3.12-14.42-2.97-13.25ZM1433.09,616.14c.71-8.36-7.2-8.44-6.78-.08l6.78.08"/>
          <path class="cls-32" d="M1433.11,616.14l-6.78-.07c-.05.83-.09,1.68-.1,2.48l6.89.08c0-.8,0-1.66-.01-2.49h0ZM1538.47,615.67c-1.23.29-100.94.52-100.94.52.12.83.19,1.68.19,2.49-4.63-.05-11.31-.13-15.93-.19,0-.81.1-1.66.23-2.48l-32.14-.35c-.12.41.3,3.34-.34,3.46l148.67,1.23.27-4.69h-.01ZM856.3,551.29c.76,10.33,1.55,44.99,3.71,55.49,1.4,3.35,4.54,6.06,8.24,6.11l520.81,6.24c-.64-.12-.2-3.06-.31-3.46l-3.85-.04v3.46l-423.23-5.07-.13-2.97c-114.36-6.26-99.5,22.75-105.24-59.74v-.02h0Z"/>
          <path class="cls-46" d="M1551.41,541.38h0l-13.21,3.05c-.06,7.78.3,69.86,0,75.93,23.58-7.33,22.05,5.65,23-40.49-1.27-13.14,3.12-42.74-9.79-38.49ZM1548.91,552.81c1.55-.04,1.55,3.14,0,3.11-1.53.04-1.53-3.14,0-3.11ZM1547.73,610.59c-1.54.03-1.53-3.15,0-3.12,1.53-.03,1.54,3.15,0,3.12ZM1549.6,581.17c-1.55.04-1.55-3.14,0-3.11,1.53-.03,1.53,3.14,0,3.11Z"/>
          <path class="cls-34" d="M908.04,572.11c-1.68,0-2.45,1.66-3.15,2.93l-11.57,20.97c-.5,1.1-2.25,1.04-2.19,2.44,1.95.01,4.92.03,6.87.04.08-.95-1.04-1.4-1.91-1.71l5.09-9.14,6.16,9.29c-.85.3-1.75.74-1.59,1.6,1.98.01,5.31.03,7.29.04-.13-1.28-1.66-1.37-2.38-2.19l-7.79-11.77,6.68-11.98c-.39-.31-.97-.54-1.52-.53h.01ZM893.15,571.91c-.65,0-1.31.38-1.71.8l7.4,11.24,1.6-2.93c-1.44-1.48-4.89-9.12-7.29-9.11h0Z"/>
          <path class="cls-35" d="M900.19,556.71c-.17,0-.25.13-.23.29.26.31.45,17.75,1.16,17.77.69,0-.88-17.48-.67-17.78-.01-.13-.12-.28-.26-.28h0Z"/>
          <path class="cls-35" d="M902.15,594.74c-.7-.11.69,13.75.47,13.96.02.11.16.18.26.19.7.11-.69-13.75-.47-13.96,0-.12-.14-.2-.26-.19h0Z"/>
          <path class="cls-38" d="M961.52,610.75c0,.08.14,3.1.15,3.26l423.22,5.07c0-.16.01-3.71.01-3.75l-423.38-4.54v-.03h0Z"/>
          <path class="cls-35" d="M975.65,589.97c-.86.07-3.01-.42-2.87,1.08.14.77-.25,2.78.74,3.14.81.07,2.88.5,3.21-.57,0-.99.44-3.57-1.08-3.65h0ZM988.32,582.92c-.87.08-3.04-.42-2.91,1.1.14.77-.26,2.8.75,3.15.81.06,2.9.5,3.24-.58,0-.99.45-3.59-1.07-3.67h-.01ZM975.03,575.61c-.87.08-3.02-.41-2.88,1.1.14.77-.25,2.78.74,3.14.81.06,2.88.49,3.21-.58,0-.99.45-3.58-1.08-3.65h.01ZM974.23,601.88c-1.92-.1-1.56-2.98-1.47-4.28.42-1.38,2.68-.96,3.73-.8,1.25.47.89,2.54,1.01,3.55.16,1.84-2.09,1.55-3.27,1.53h0ZM1093.42,602.64c-3.45.03-3.66-5.71-.07-5.59,3.33.09,3.53,5.58.07,5.59h0ZM980.73,601.66c-1.94-.09-1.58-2.98-1.48-4.29.42-1.39,2.69-.96,3.75-.81,1.26.47.89,2.55,1.01,3.57.15,1.84-2.1,1.56-3.28,1.53h0ZM1022.26,604.69c-6.23.03-6.92-10.5-.4-10.57,6.24-.05,6.94,10.52.4,10.57h0ZM980.44,594.76c-1.94-.09-1.58-2.98-1.49-4.29.42-1.39,2.69-.98,3.75-.82,1.26.47.9,2.55,1.02,3.57.15,1.84-2.1,1.57-3.28,1.54h0ZM1093.19,595.17c-3.45.02-3.63-5.71-.06-5.59,3.35.09,3.52,5.59.06,5.59h0ZM973.94,595.19c-2.31-.09-2.09-3.31-1.89-4.92.49-1.67,2.98-1.32,4.27-1.06,1.48.57,1.2,2.73,1.29,3.98.17,2.11-2.2,2.11-3.67,1.99h0ZM1032.81,605.78c-1.5,0-2.69-1.38-2.73-2.85l-.6-16.26c-.09-1.45,1.03-2.86,2.52-2.83,1.1.28,21.23-.79,21.3.84,1.58.52,1.07,17.1,1.42,18.43.08,1.46-1.07,2.86-2.57,2.83l-19.34-.17h0ZM1107.17,606.42c-1.56,0-2.83-1.39-2.85-2.93l-.48-16.71c-.08-1.52,1.14-2.94,2.69-2.91,1.13.29,22.45-.81,22.5.87,1.67.53.97,17.58,1.32,18.95.07,1.53-1.18,2.94-2.74,2.9l-20.44-.18h0ZM1140.17,606.7c-1.58,0-2.89-1.4-2.91-2.96l-.42-16.91c-.07-1.55,1.2-2.97,2.77-2.95,1.15.29,23.01-.82,23.05.88,1.7.54.91,17.79,1.27,19.18.07,1.57-1.23,2.98-2.82,2.94l-20.94-.18h0ZM1173.98,606.99c-1.6,0-2.97-1.4-2.98-3l-.36-17.12c-.06-1.59,1.26-3.01,2.86-2.98,1.17.29,23.57-.83,23.61.89,1.75.54.86,18,1.22,19.42.06,1.6-1.3,3.02-2.91,2.98l-21.44-.18h0ZM1208.62,607.29c-1.63,0-3.02-1.41-3.03-3.03l-.3-17.33c-.06-1.62,1.31-3.05,2.93-3.02,1.18.29,24.18-.83,24.2.9,1.79.55.81,18.22,1.17,19.66.05,1.64-1.35,3.05-2.99,3.01l-21.99-.19h.01ZM1244.12,607.59c-1.65,0-3.09-1.42-3.09-3.07l-.23-17.54c-.05-1.65,1.37-3.09,3.02-3.06,1.2.3,24.8-.84,24.81.91,1.82.56.75,18.45,1.11,19.91.04,1.67-1.41,3.09-3.08,3.05l-22.54-.19h0ZM1280.53,607.9c-1.68,0-3.17-1.42-3.17-3.11l-.16-17.77c-.04-1.69,1.44-3.13,3.12-3.1,1.22.3,25.43-.85,25.44.92,1.88.57.69,18.68,1.06,20.16.03,1.71-1.48,3.13-3.18,3.09l-23.11-.2h0ZM973.61,587.58c-1.93-.09-1.56-2.99-1.48-4.29.41-1.39,2.68-.98,3.74-.83,1.26.47.89,2.55,1.01,3.57.16,1.84-2.09,1.57-3.28,1.55h.01ZM986.59,588.18c-2.33-.08-2.12-3.32-1.91-4.94.51-1.68,3.01-1.33,4.32-1.08,1.49.57,1.2,2.75,1.29,4.01.17,2.13-2.22,2.13-3.71,2.01h.01ZM1059.54,606.01c-1.52,0-2.74-1.38-2.77-2.87l-.8-23.39c-.08-1.47,1.07-2.89,2.58-2.87.8.22,25.4-.79,24.87.79,1.66.15,1.22,24.54,1.59,25.68.08,1.49-1.11,2.9-2.64,2.86l-22.84-.2h.01ZM973.32,580.86c-2.31-.08-2.09-3.31-1.89-4.92.49-1.68,2.98-1.34,4.28-1.08,1.49.57,1.2,2.74,1.29,3.99.17,2.11-2.19,2.13-3.68,2.02h0ZM966.5,573.24c-1.93-.08-1.57-2.98-1.48-4.29.41-1.39,2.67-1,3.73-.85,1.26.47.89,2.55,1.01,3.57.16,1.83-2.08,1.59-3.26,1.57h0ZM972.68,566.01c-1.94-.08-1.56-2.99-1.48-4.29.41-1.4,2.68-1.01,3.74-.86,1.26.47.89,2.56,1.02,3.58.16,1.84-2.09,1.59-3.28,1.58h0ZM1385.11,546.37l-426.25,5.15s2.66,59.25,2.66,59.26l423.38,4.54.03-10.34-17.69-.13c.54-3.76.75-9.61,5.46-10.51l8.64-11.95-12.1-16.7c3.85-4.66,11.12-7.64,15.83-2.22l.05-17.11h-.01Z"/>
          <path class="cls-35" d="M1448.44,574.89c-13.49.08-12.02,20.19,1.59,17.76,1.74-.31,4.06-.49,5.32-1.78l.04-3.42c-.22-1.67,1.06-1.51,2.04-1.99.05-.33.14-.97-.37-.92h-7.75c-.52-.06-.5.75-.32,1.04.54.26,1.31-.11,1.78.41.6.75.12,3.44.24,4.37-8.22,4.56-9.59-13.65-1.9-13.68,4.71-.1,4.32,5.07,6.25,4.79.51.13.17-5.89.3-6.07.03-.49-.62-.4-.94-.36-.43.12-.41.72-.71,1-1.7.19-3.61-1.54-5.57-1.13h0v-.02h0Z"/>
          <path class="cls-35" d="M1428.49,590.68c-5.5-.46-5.15-15.6,1.17-14.22,3.98,1.73,3.92,14.04-1.17,14.22h0ZM1429.16,574.68c-11.71-1.16-12.38,18.13-.54,17.63,11.24.67,11.93-17.84.54-17.63h0Z"/>
          <path class="cls-35" d="M1411.56,575.36l-8.33.02c-.5-.04-.42.59-.38.92.7.57,2.32-.26,2.19,1.39,0,1.21.02,11.26-.11,12.39-.07,1.67-2.85.05-2.09,1.93.34.24,13.9.09,14.29.11.5-.03.93-6.17.72-6.37-2.85-1.1.28,5.87-8.25,4.37-.28-.45,0-10.83-.06-11.63-.07-.92.14-2.17,1.34-2,.26-.04.93.13,1.04-.21.05-.32.14-.96-.37-.92h.01Z"/>
          <path class="cls-35" d="M1401.35,565.13c-2.54,0-4.18,1.96-5.45,3.91-.49.52-20.18,28.2-20.76,28.57-1.03,1-3.02.92-3.12,2.66,3.12.02,7.87.05,10.98.06.31-1.44-1.56-1.95-2.84-2.36l9-12.23,8.97,12.45c-1.28.45-2.84.9-2.62,2.22,3.1.02,8.31.05,11.42.07-.22-1.8-2.51-1.75-3.54-2.88l-11.47-15.7,11.76-16.01c-.62-.45-1.5-.75-2.33-.74h0v-.02h0ZM1377.56,564.91c-1.02,0-2.08.5-2.77,1.12l10.87,14.99,2.89-3.98c-2.22-2.17-7.26-12.37-10.99-12.13h0Z"/>
          <path class="cls-35" d="M1389.54,551.17c-1.28-.21-.3,17.38-.62,17.9,0,.38.44.63.77.48.2-.08.35-.27.35-.49l.06-17.36c0-.3-.27-.54-.56-.53h0Z"/>
          <path class="cls-35" d="M1389.38,594.88c-1.3-.15-.28,20.23-.63,20.78.2.51-.62,4,.77,3.47.65-.09.22-3.07.34-3.46l.07-20.25c0-.3-.27-.54-.56-.54h.01Z"/>
          <path class="cls-45" d="M982.45,596.44c-1.18-.02-3.44-.31-3.28,1.53.13,1.02-.24,3.09,1.01,3.56,1.06.16,3.33.59,3.75-.8.09-1.31.46-4.21-1.49-4.3h.01Z"/>
          <path class="cls-45" d="M982.16,589.53c-1.18-.02-3.43-.3-3.28,1.55.13,1.02-.24,3.09,1.01,3.57,1.06.16,3.33.58,3.75-.81.09-1.31.46-4.21-1.49-4.3h.01Z"/>
          <path class="cls-45" d="M986.56,587.26c-1.53-.08-1.08-2.68-1.08-3.66.34-1.08,2.43-.65,3.24-.58,1,.35.6,2.39.74,3.16.14,1.51-2.04,1.02-2.91,1.09h.01ZM988.29,582c-1.49-.11-3.88-.11-3.71,2.02.1,1.26-.2,3.43,1.3,4,1.31.26,3.81.62,4.32-1.07.21-1.62.43-4.87-1.9-4.95h0Z"/>
          <path class="cls-45" d="M975.33,582.34c-1.18-.02-3.43-.29-3.27,1.55.13,1.02-.24,3.09,1.01,3.56,1.06.16,3.32.57,3.74-.82.09-1.31.46-4.21-1.48-4.3h0Z"/>
          <path class="cls-45" d="M973.29,579.94c-1.51-.08-1.06-2.67-1.07-3.65.32-1.07,2.4-.65,3.21-.59,1,.35.61,2.38.75,3.14.13,1.5-2.02,1.03-2.88,1.1h-.01ZM975,574.7c-1.48-.11-3.84-.09-3.67,2.02.1,1.25-.2,3.41,1.28,3.98,1.3.26,3.78.6,4.28-1.07.2-1.61.43-4.86-1.9-4.93h0Z"/>
          <path class="cls-45" d="M968.2,567.99c-1.19-.01-3.42-.26-3.26,1.57.13,1.02-.24,3.09,1.01,3.56,1.06.16,3.32.55,3.73-.84.09-1.3.46-4.21-1.48-4.29h0Z"/>
          <path class="cls-45" d="M974.39,560.74c-1.19,0-3.44-.26-3.27,1.59.13,1.02-.25,3.1,1.01,3.56,1.06.15,3.33.54,3.75-.85.09-1.31.46-4.23-1.49-4.3h0Z"/>
          <path class="cls-45" d="M973.91,594.28c-1.51-.09-1.06-2.67-1.07-3.65.33-1.07,2.4-.63,3.2-.57.99.35.61,2.37.75,3.14.13,1.51-2.01,1.02-2.88,1.09h0ZM975.62,589.05c-1.47-.11-3.84-.12-3.66,2,.1,1.25-.19,3.4,1.28,3.98,1.29.26,3.77.62,4.28-1.05.21-1.61.42-4.84-1.9-4.92h0Z"/>
          <path class="cls-45" d="M975.94,596.68c-1.17-.02-3.42-.31-3.26,1.52.13,1.02-.24,3.08,1.01,3.55,1.05.16,3.32.59,3.73-.8.09-1.31.45-4.19-1.48-4.28h0Z"/>
          <path class="cls-35" d="M952.11,596.29c-1.16-.02-3.37-.3-3.2,1.52.13,1.01-.23,3.05,1,3.52,1.04.16,3.27.58,3.67-.79.08-1.29.44-4.15-1.47-4.25h0Z"/>
          <path class="cls-35" d="M957.82,589.47c-1.17-.02-3.38-.29-3.22,1.53.13,1.01-.23,3.06,1.01,3.53,1.04.16,3.28.57,3.69-.8.08-1.3.44-4.17-1.47-4.26h-.01Z"/>
          <path class="cls-35" d="M957.77,582.46c-1.17-.02-3.39-.28-3.23,1.54.13,1.01-.23,3.07,1.01,3.54,1.05.16,3.29.56,3.69-.81.08-1.3.45-4.18-1.47-4.27h0Z"/>
          <path class="cls-35" d="M955.76,580.2c-1.5-.08-1.05-2.65-1.06-3.63.31-1.07,2.37-.66,3.16-.59.98.36.6,2.37.74,3.13.14,1.49-1.98,1.02-2.84,1.09h0ZM957.43,574.98c-1.47-.11-3.8-.08-3.61,2.02.1,1.24-.19,3.39,1.28,3.96,1.28.26,3.74.59,4.22-1.07.19-1.6.42-4.82-1.88-4.91h-.01Z"/>
          <path class="cls-35" d="M957.14,568.42c-1.17-.01-3.39-.26-3.23,1.56.13,1.01-.24,3.07,1.01,3.54,1.05.15,3.29.55,3.7-.84.08-1.29.45-4.19-1.48-4.26h0Z"/>
          <path class="cls-35" d="M939.22,576.11c-1.16-.02-3.35-.26-3.18,1.54.13,1-.23,3.04,1,3.51,1.03.15,3.25.55,3.64-.82.08-1.28.44-4.15-1.46-4.23h0Z"/>
          <path class="cls-35" d="M951.42,582.41c-1.17-.02-3.37-.28-3.2,1.54.13,1.01-.23,3.05,1,3.52,1.04.16,3.27.56,3.67-.81.08-1.29.44-4.16-1.47-4.25h0Z"/>
          <path class="cls-35" d="M945.76,596.52c-1.15-.02-3.35-.3-3.19,1.5.13,1.01-.23,3.04,1,3.51,1.03.16,3.25.58,3.65-.79.08-1.29.43-4.13-1.46-4.23h0Z"/>
          <path class="cls-43" d="M1021.87,594.12c-6.52.08-5.83,10.6.4,10.57,6.53-.05,5.84-10.62-.4-10.57h0Z"/>
          <path class="cls-43" d="M1093.26,597.06c-3.51.02-3.21,5.62.18,5.59,3.52,0,3.22-5.63-.18-5.59h0Z"/>
          <path class="cls-43" d="M1093.03,589.57c-3.5.02-3.23,5.62.16,5.6,3.52-.01,3.25-5.64-.16-5.6h0Z"/>
          <path class="cls-45" d="M1045.13,586c1.14.25,4.11-.76,4.28,1.02l.4,11.58c.09,1.25-1.51.99-2.29.99.22.99-.4,1.78-1.44,1.56.08.69.09,1.8-.88,1.79l-5.69-.04c-.94,0-1.04-1.09-1.01-1.8-1.03.2-1.67-.59-1.53-1.58-.8-.02-2.35.22-2.35-1.02.19-.44-.87-12.22-.17-12.23.54-.6,2.63-.17,3.33-.29h7.34v.02h.01ZM1051.41,583.85h-19.39c-1.49-.03-2.61,1.38-2.52,2.83.33,1.39-.1,17.68,1.44,18.26-.05,1.63,20.24.7,21.23,1.01,1.5.03,2.65-1.36,2.57-2.83l-.56-16.41c-.03-1.49-1.25-2.87-2.77-2.86h0Z"/>
          <path class="cls-45" d="M1061.33,601.26c-2.4.07-1.21-5.52-1.6-6.81-.04-.75.56-1.46,1.32-1.45.61.13,18.94-.16,19.49.19,1.61.44.76,5.62,1.06,6.73.02.57-.29,1.12-.81,1.35-.52.34-18.9-.13-19.47-.02h.01ZM1060.93,589.4c-2.41.08-1.21-5.54-1.6-6.82-.04-.75.55-1.47,1.33-1.46h18.97c.38-.01.74.15,1,.42.84.51.42,5.63.61,6.43.02.57-.29,1.13-.81,1.36-.52.34-18.92-.05-19.49.07h0ZM1081.47,576.81l-22.91.05c-1.51-.02-2.67,1.4-2.58,2.87.37,1.21.03,25.18,1.65,25.41.1,1.73,23.69.68,24.76,1.05,1.53.04,2.72-1.36,2.64-2.86l-.73-23.63c-.03-1.51-1.28-2.91-2.82-2.89h-.01Z"/>
          <path class="cls-45" d="M1110.28,603.44c-2,.53-.93-12.1-1.35-12.86-.08-1.29,1.6-1.03,2.42-1.04-.22-1.04.44-1.83,1.52-1.61-.08-.73-.05-1.86.95-1.85h6.02c.98,0,1.09,1.11,1.04,1.86,1.07-.21,1.79.57,1.62,1.63.84.02,2.5-.25,2.49,1.05l.31,11.89c.11,1.59-2.57.87-3.43,1.01-1.77-.04-9.97-.05-11.58-.09h-.01ZM1106.77,588.86c-2.47.02-2.59-4.06-.04-3.98,2.39.05,2.51,3.98.04,3.98h0ZM1127.07,588.9c-2.51.02-2.61-4.1-.03-4.01,2.43.05,2.53,4.01.03,4.01h0ZM1127.03,583.87h-20.49c-1.55-.03-2.77,1.39-2.69,2.91.33,1.43-.27,18.17,1.35,18.77-.08,1.67,21.41.72,22.42,1.04,1.56.04,2.81-1.37,2.74-2.91l-.43-16.87c-.02-1.55-1.32-2.96-2.9-2.94h0Z"/>
          <path class="cls-48" d="M1080,593.07c-.59.12-18.94-.3-19.48.04-1.57.46-.38,5.6-.62,6.67.02.58.36,1.12.88,1.35.52.35,18.9.12,19.47.25,2.46.09.86-5.59,1.18-6.84-.01-.77-.66-1.48-1.44-1.47h0Z"/>
          <path class="cls-48" d="M1079.63,581.11h-18.97c-.77,0-1.37.72-1.33,1.47.34,1.12-.54,6.24,1.06,6.7.52.34,18.92.04,19.49.16,2.46.08.86-5.61,1.18-6.87-.01-.77-.66-1.48-1.44-1.47h0Z"/>
          <path class="cls-30" d="M1126.97,584.89c-2.53,0-2.36,4.04.11,4.01,2.54,0,2.37-4.05-.11-4.01h0Z"/>
          <path class="cls-44" d="M1106.66,584.88c-2.5.02-2.31,4,.11,3.98,2.51,0,2.33-4.02-.11-3.98h0Z"/>
          <path class="cls-45" d="M1143.37,603.68c-2.03.54-.9-12.25-1.33-13.01-.07-1.32,1.64-1.04,2.47-1.05-.23-1.06.48-1.85,1.57-1.63-.08-.74-.04-1.88.97-1.87h6.17c1,0,1.13,1.12,1.07,1.88,1.09-.21,1.82.57,1.65,1.65.86.03,2.56-.26,2.55,1.07l.27,12.03c.09,1.61-2.64.88-3.52,1.02-1.82-.04-10.22-.06-11.87-.09h0ZM1139.83,588.93c-2.53.02-2.62-4.12-.02-4.03,2.45.05,2.55,4.04.02,4.03h0ZM1160.63,588.98c-2.57.03-2.65-4.16-.01-4.06,2.49.05,2.57,4.07.01,4.06h0ZM1160.61,583.89h-20.99c-1.57-.03-2.84,1.39-2.77,2.94.34,1.45-.36,18.39,1.3,19-.1,1.69,21.94.74,22.96,1.06,1.59.04,2.89-1.37,2.82-2.94l-.37-17.07c-.01-1.59-1.35-3-2.96-2.98h.01Z"/>
          <path class="cls-30" d="M1160.54,584.92c-2.58,0-2.43,4.09.09,4.06,2.6.01,2.45-4.1-.09-4.06h0Z"/>
          <path class="cls-44" d="M1139.73,584.9c-2.55,0-2.38,4.06.1,4.03,2.57,0,2.4-4.07-.1-4.03h0Z"/>
          <path class="cls-45" d="M1177.27,603.94c-2.09.6-.88-12.41-1.31-13.17-.06-1.34,1.69-1.05,2.54-1.06-.23-1.09.52-1.87,1.61-1.65-.09-.76-.02-1.91,1.01-1.9h6.31c1.02-.02,1.15,1.13,1.09,1.9,1.1-.21,1.88.57,1.69,1.67.87.03,2.62-.27,2.6,1.08l.23,12.18c.09,1.64-2.71.89-3.61,1.03-1.86-.04-10.47-.06-12.15-.09h0ZM1173.71,589.01c-2.6.04-2.67-4.18,0-4.08,2.51.05,2.58,4.1,0,4.08h0ZM1195.01,589.06c-2.64.03-2.69-4.22,0-4.11,2.56.04,2.6,4.14,0,4.11h0ZM1195.01,583.9h-21.5c-1.6-.03-2.92,1.39-2.86,2.98.34,1.47-.45,18.62,1.26,19.23-.1,1.71,22.48.75,23.52,1.07,1.61.04,2.97-1.37,2.91-2.98l-.31-17.28c0-1.62-1.4-3.03-3.03-3.02h.01Z"/>
          <path class="cls-30" d="M1194.94,584.94c-2.64-.01-2.52,4.14.07,4.11,2.66.03,2.54-4.16-.07-4.11h0Z"/>
          <path class="cls-44" d="M1173.62,584.93c-2.61,0-2.46,4.12.09,4.08,2.62.01,2.48-4.13-.09-4.08h0Z"/>
          <path class="cls-45" d="M1212,604.2c-2.12.69-.87-12.59-1.29-13.34-.05-1.36,1.75-1.06,2.61-1.07-.23-1.11.54-1.89,1.65-1.67-.09-.78,0-1.94,1.04-1.92h6.48c1.03-.02,1.17,1.14,1.1,1.93,1.12-.21,1.92.56,1.72,1.69.88.03,2.68-.28,2.66,1.09l.18,12.33c.08,1.67-2.79.9-3.7,1.05-1.91-.04-10.73-.06-12.46-.09h0ZM1208.41,589.08c-2.67.03-2.71-4.24,0-4.13,2.58.04,2.62,4.16,0,4.13h0ZM1230.25,589.13c-2.71.04-2.73-4.28.02-4.16,2.63.04,2.64,4.19-.02,4.16h0ZM1230.27,583.91h-22.04c-1.63-.04-2.99,1.39-2.93,3.01.34,1.49-.53,18.84,1.2,19.46-.13,1.72,23.06.76,24.11,1.09,1.64.04,3.04-1.38,2.99-3.01l-.25-17.5c0-1.65-1.43-3.07-3.08-3.05h0Z"/>
          <path class="cls-30" d="M1230.19,584.97c-2.7-.02-2.6,4.2.06,4.16,2.71.03,2.61-4.22-.06-4.16h0Z"/>
          <path class="cls-44" d="M1208.34,584.95c-2.66-.02-2.54,4.17.07,4.13,2.68.02,2.56-4.18-.07-4.13h0Z"/>
          <path class="cls-45" d="M1247.6,604.46c-.59,0-1.1-.5-1.1-1.09l-.16-12.41c-.05-1.39,1.8-1.07,2.67-1.09-.24-1.14.58-1.91,1.71-1.69-.09-.79,0-1.96,1.07-1.94h6.64c1.05-.02,1.2,1.14,1.13,1.95,1.13-.22,1.96.56,1.75,1.71.89.04,2.75-.3,2.73,1.11l.13,12.49c.06,1.69-2.87.91-3.8,1.06-1.96-.05-11-.06-12.78-.1h.01ZM1243.99,589.15c-2.73.04-2.74-4.31.03-4.18,2.65.04,2.66,4.22-.03,4.18h0ZM1266.38,589.2c-2.78.04-2.77-4.35.04-4.21,2.69.04,2.69,4.26-.04,4.21h0ZM1266.43,583.91h-22.6c-1.65-.03-3.07,1.4-3.02,3.05.34,1.52-.63,19.08,1.15,19.71-.15,1.74,23.65.77,24.71,1.1,1.67.04,3.12-1.38,3.08-3.05l-.18-17.72c0-1.69-1.46-3.12-3.15-3.09h.01Z"/>
          <path class="cls-30" d="M1266.33,585c-2.76-.03-2.68,4.26.05,4.21,2.78.05,2.7-4.27-.05-4.21h0Z"/>
          <path class="cls-44" d="M1243.93,584.98c-2.72-.02-2.62,4.22.06,4.18,2.74.04,2.65-4.24-.06-4.18h0Z"/>
          <path class="cls-45" d="M1284.11,604.74c-.6,0-1.13-.5-1.13-1.1l-.11-12.57c-.03-1.41,1.85-1.08,2.75-1.1-.24-1.17.62-1.94,1.76-1.72-.09-.82.03-1.99,1.11-1.97h6.8c1.08-.03,1.23,1.15,1.15,1.98,1.15-.21,2.02.55,1.8,1.73.91.04,2.81-.31,2.79,1.12l.08,12.65c.06,1.72-2.95.91-3.91,1.07-2-.05-11.28-.06-13.1-.1h0ZM1280.47,589.24c-2.81.05-2.79-4.38.04-4.23,2.72.04,2.7,4.28-.04,4.23h0ZM1303.43,589.29c-2.86.05-2.82-4.42.06-4.26,2.76.03,2.72,4.33-.06,4.26h0ZM1303.49,583.94h-23.17c-1.68-.04-3.16,1.4-3.12,3.09.35,1.54-.73,19.32,1.1,19.96-.16,1.76,24.26.79,25.33,1.12,1.7.04,3.21-1.37,3.18-3.09l-.1-17.94c.01-1.72-1.51-3.16-3.22-3.13h0Z"/>
          <path class="cls-48" d="M1287.3,604.76c.21-.45-.59-5.46.48-5.29,1.04-.18.35,4.87.56,5.3h-1.04ZM1291.15,604.79c.21-.45-.58-5.47.49-5.3,1.05-.18.34,4.87.56,5.3h-1.05ZM1295.01,604.82c.21-.45-.58-5.48.49-5.3,1.05-.18.34,4.88.56,5.31h-1.05ZM1295.29,586.29h-6.8c-1.07-.03-1.21,1.14-1.11,1.96-1.14-.22-2,.55-1.76,1.72-.88.04-2.79-.32-2.75,1.1l.11,12.57c-.03,1.7,2.92.96,3.88,1.12l10.34.08c.94-.18,3.97.66,3.9-1.07l-.08-12.65c.01-1.42-1.88-1.09-2.79-1.12.22-1.18-.65-1.94-1.8-1.73.08-.83-.07-2-1.15-1.98h.01Z"/>
          <g class="cls-52">
            <g>
              <path class="cls-33" d="M1287.78,599.47c-1.07-.2-.27,4.86-.48,5.29h1.04c-.21-.45.49-5.45-.56-5.29"/>
              <path class="cls-33" d="M1291.64,599.49c-1.07-.2-.28,4.87-.49,5.3h1.04c-.21-.45.49-5.45-.56-5.3"/>
              <path class="cls-33" d="M1295.5,599.52c-1.07-.2-.28,4.88-.49,5.3h1.05c-.21-.45.49-5.46-.56-5.3"/>
            </g>
          </g>
          <path class="cls-48" d="M1250.72,604.49c.2-.44-.59-5.38.44-5.22,1.04-.18.36,4.8.58,5.23h-1.02,0ZM1254.47,604.52c.2-.44-.59-5.39.44-5.23,1.04-.18.36,4.81.57,5.24h-1.02.01ZM1258.23,604.55c.21-.44-.58-5.4.45-5.24,1.04-.18.36,4.82.57,5.24h-1.02,0ZM1258.43,586.25h-6.64c-1.06-.03-1.16,1.14-1.07,1.94-1.13-.22-1.95.55-1.71,1.69-.86.03-2.73-.31-2.67,1.09l.16,12.41c-.04,1.67,2.85.95,3.79,1.11l10.09.08c.92-.17,3.87.64,3.8-1.06l-.13-12.49c0-1.39-1.84-1.08-2.73-1.11.21-1.15-.62-1.92-1.75-1.71.08-.81-.07-1.97-1.13-1.95h-.01Z"/>
          <g class="cls-53">
            <g>
              <path class="cls-33" d="M1251.16,599.26c-1.02-.18-.24,4.81-.44,5.22h1.01c-.21-.45.46-5.38-.58-5.22"/>
              <path class="cls-33" d="M1254.92,599.29c-1.03-.18-.24,4.82-.44,5.23h1.02c-.21-.45.46-5.39-.57-5.23"/>
              <path class="cls-33" d="M1258.68,599.31c-1.03-.18-.24,4.82-.45,5.24h1.02c-.21-.45.47-5.4-.57-5.24"/>
            </g>
          </g>
          <path class="cls-48" d="M1215.04,604.22c.2-.43-.6-5.32.42-5.16.99-.16.37,4.75.57,5.17h-.99ZM1218.7,604.25c.2-.44-.6-5.33.42-5.16,1-.17.37,4.76.57,5.17h-.99ZM1222.38,604.28c.2-.43-.6-5.33.41-5.17,1-.17.36,4.76.57,5.18h-.99.01ZM1222.5,586.21h-6.48c-1.04-.02-1.13,1.13-1.04,1.91-1.11-.22-1.88.56-1.65,1.67-.85.03-2.67-.3-2.61,1.07l.2,12.26c-.03,1.64,2.77.94,3.7,1.1l9.84.07c.9-.17,3.79.63,3.7-1.05l-.18-12.33c.01-1.37-1.78-1.07-2.66-1.09.2-1.13-.61-1.9-1.72-1.69.07-.79-.06-1.94-1.1-1.93h0Z"/>
          <g class="cls-56">
            <g>
              <path class="cls-33" d="M1215.46,599.06c-1.02-.18-.22,4.75-.42,5.16h.99c-.21-.43.42-5.3-.57-5.16"/>
              <path class="cls-33" d="M1219.12,599.08c-1.02-.18-.22,4.76-.42,5.16h.99c-.21-.43.42-5.31-.57-5.16"/>
              <path class="cls-33" d="M1222.79,599.1c-1.01-.18-.22,4.77-.41,5.17h.99c-.21-.44.43-5.32-.57-5.17"/>
            </g>
          </g>
          <path class="cls-48" d="M1180.24,603.96c.2-.43-.61-5.25.38-5.1.97-.16.38,4.69.58,5.1h-.97.01ZM1183.81,603.99c.2-.43-.61-5.25.39-5.1.97-.16.38,4.7.58,5.11h-.97ZM1187.39,604.02c.2-.43-.61-5.26.39-5.11.97-.16.38,4.71.58,5.12h-.97ZM1187.43,586.17h-6.31c-1.02-.02-1.1,1.13-1.01,1.89-1.1-.22-1.84.56-1.61,1.65-.83.03-2.6-.29-2.53,1.06l.25,12.11c-.03,1.61,2.7.93,3.62,1.08l9.6.07c.88-.16,3.71.62,3.61-1.03l-.23-12.18c.01-1.34-1.73-1.07-2.6-1.08.19-1.1-.59-1.88-1.69-1.67.06-.78-.06-1.92-1.09-1.9h-.01Z"/>
          <g class="cls-55">
            <g>
              <path class="cls-33" d="M1180.62,598.86c-1-.17-.19,4.7-.39,5.1h.97c-.2-.43.39-5.23-.58-5.1"/>
              <path class="cls-33" d="M1184.19,598.88c-1-.17-.19,4.7-.39,5.1h.97c-.21-.43.39-5.24-.58-5.1"/>
              <path class="cls-33" d="M1187.78,598.9c-1-.17-.2,4.71-.39,5.11h.97c-.21-.43.39-5.25-.58-5.11"/>
            </g>
          </g>
          <path class="cls-48" d="M1146.27,603.71c.19-.41-.61-5.17.35-5.03.96-.16.39,4.64.6,5.04h-.95ZM1149.76,603.74c.19-.42-.61-5.18.35-5.04.96-.16.39,4.64.6,5.05h-.95ZM1153.25,603.77c.19-.42-.61-5.18.35-5.05.97-.16.39,4.65.59,5.05h-.95.01ZM1153.22,586.13h-6.17c-1-.02-1.05,1.13-.97,1.87-1.08-.22-1.8.57-1.57,1.63-.82.02-2.55-.28-2.47,1.05l.29,11.96c-.04,1.59,2.63.92,3.54,1.07l9.37.07c.87-.16,3.62.6,3.52-1.02l-.27-12.03c0-1.31-1.7-1.06-2.55-1.07.18-1.07-.56-1.86-1.65-1.65.05-.76-.07-1.89-1.07-1.88h0Z"/>
          <g class="cls-54">
            <g>
              <path class="cls-33" d="M1146.62,598.67c-.96-.15-.16,4.65-.35,5.03h.94c-.21-.42.37-5.18-.6-5.03"/>
              <path class="cls-33" d="M1150.11,598.69c-.96-.16-.16,4.65-.35,5.04h.95c-.21-.43.37-5.18-.6-5.04"/>
              <path class="cls-33" d="M1153.6,598.71c-.96-.16-.17,4.66-.35,5.05h.95c-.21-.43.37-5.19-.59-5.05"/>
            </g>
          </g>
          <path class="cls-48" d="M1113.11,603.46c.18-.41-.63-5.11.33-4.97.92-.15.4,4.59.59,4.98h-.92,0ZM1116.51,603.49c.19-.41-.63-5.12.33-4.98.93-.15.39,4.59.59,4.99h-.92,0ZM1119.93,603.52c.18-.41-.62-5.12.32-4.99.93-.15.39,4.6.59,4.99h-.92.01ZM1119.83,586.09h-6.02c-.99-.01-1.03,1.12-.95,1.84-1.07-.22-1.74.58-1.52,1.61-.81.02-2.5-.27-2.41,1.04l.33,11.82c-.03,1.56,2.57.92,3.46,1.06l9.15.07c.85-.15,3.55.59,3.43-1.01l-.31-11.89c0-1.29-1.64-1.05-2.49-1.05.17-1.05-.55-1.83-1.62-1.63.05-.75-.06-1.87-1.04-1.86h0Z"/>
          <g class="cls-59">
            <g>
              <path class="cls-33" d="M1113.43,598.48c-.95-.16-.14,4.59-.33,4.97h.92c-.2-.41.33-5.1-.59-4.97"/>
              <path class="cls-33" d="M1116.84,598.5c-.95-.16-.15,4.6-.33,4.98h.92c-.2-.41.33-5.11-.59-4.98"/>
              <path class="cls-33" d="M1120.25,598.52c-.94-.15-.14,4.6-.32,4.99h.92c-.2-.42.34-5.12-.59-4.99"/>
            </g>
          </g>
          <path class="cls-48" d="M1048.42,586h-3.3c-.17.4.64,4.99-.26,4.88-.89.14-.42-4.49-.61-4.88h-2.36c-.17.39.63,4.97-.26,4.87-.89.14-.42-4.48-.62-4.87h-2.35c-.17.39.63,4.97-.26,4.86-.89.14-.42-4.48-.62-4.87-.94.18-3.64-.64-3.58,1.01l.42,11.51c0,1.22,1.54,1.01,2.35,1.02-.14.99.5,1.78,1.53,1.58-.03.72.06,1.8,1.01,1.8l5.69.04c.96.01.95-1.1.88-1.79,1.04.22,1.66-.57,1.44-1.56.78-.01,2.38.26,2.29-.99-.42-.78.53-13.05-1.38-12.6h-.01Z"/>
          <g class="cls-58">
            <g>
              <path class="cls-33" d="M1038.66,585.99h-.87c.2.41-.28,4.98.62,4.86.89.12.09-4.49.26-4.86"/>
              <path class="cls-33" d="M1041.89,585.99h-.87c.2.41-.28,4.99.61,4.87.89.13.09-4.5.26-4.87"/>
              <path class="cls-33" d="M1045.13,586h-.88c.2.41-.28,5,.61,4.88.9.13.09-4.5.26-4.88"/>
            </g>
          </g>
          <path class="cls-30" d="M1303.41,585.02c-2.83-.05-2.78,4.32.03,4.26,2.84.06,2.79-4.33-.03-4.26h0Z"/>
          <path class="cls-44" d="M1280.43,585.01c-2.78-.04-2.72,4.28.04,4.23,2.8.05,2.73-4.3-.04-4.23h0Z"/>
          <path class="cls-37" d="M1426.33,616.07l-4.32-.05c-.13.82-.22,1.66-.23,2.48l4.45.05c0-.8.04-1.66.1-2.48h0ZM1437.53,616.19l-4.42-.05c.02.83.02,1.69.01,2.49l4.6.05c0-.82-.07-1.67-.19-2.49h0Z"/>
          <path class="cls-40" d="M1430.18,608.29c-4.72-.61-7.89,3.31-8.17,7.73l4.32.05c-.42-8.37,7.5-8.27,6.78.07l4.42.05c-.24-4.1-2.87-8.1-7.35-7.9h0Z"/>
          <path class="cls-40" d="M1433.74,546.02c1.07,11.94-7.96,12.15-6.94.08l6.94-.08ZM1438.38,545.96l-16.07.19c-.94,14.19,16.9,13.68,16.07-.19h0Z"/>
        </g>
      </g>
    </g>
    <g>
      <polygon class="cls-29" points="1500.57 576.44 1501.41 576.43 1501.33 581.42 1500.49 581.42 1500.57 576.44"/>
      <polygon class="cls-29" points="1487.54 577.73 1488.62 580.74 1489.8 577.72 1490.68 577.72 1489.1 581.42 1488.12 581.42 1486.65 577.73 1487.54 577.73"/>
      <path class="cls-29" d="M1484.43,576.87c0-.52.88-.52.86,0,.01.52-.89.53-.86,0Z"/>
      <path class="cls-29" d="M1483.18,576.88c-.01-.52.87-.55.86-.01.02.52-.88.53-.86.01Z"/>
      <path class="cls-29" d="M1470.89,576.38h.48c-.07.67,1.27.66,1.22,0h.47c.18,1.41-2.36,1.44-2.17,0h0Z"/>
      <path class="cls-29" d="M1467.52,576.8h-.95l-1.83,4.63h.84l.37-.94h2.09l.34.94h.86l-1.72-4.63ZM1466.19,579.87l.84-2.15.78,2.15h-1.62Z"/>
      <polygon class="cls-29" points="1467.43 589.42 1464.92 589.42 1464.97 584.8 1465.8 584.8 1465.75 588.8 1467.44 588.81 1467.43 589.42"/>
      <path class="cls-29" d="M1473.04,577.75v.53c-4.23-2.85-4.26,5.5-.04,2.6.38,1.51-1.47,2.43-2.25,1.06h-.81c.22,1.6,2.92,1.74,3.64.45.47-.54.21-3.95.3-4.64h-.84ZM1473,579.77c-.21,1.72-2.88,1.1-2.33-.55.36-1.44,2.66-.92,2.33.55Z"/>
      <polygon class="cls-29" points="1478.39 589.45 1477.57 589.45 1477.63 584.51 1478.45 584.51 1478.39 589.45"/>
      <path class="cls-29" d="M1478.71,581.45c-5.26-1.26.18-7.62,2.74-3.34h-.99c-.89-1.46-3.4-.46-3.07,1.23.1,1.81,3.07,1.95,3.31.14h-1.88v-.6h2.78c.19,1.57-1.37,2.8-2.88,2.57h-.01Z"/>
      <path class="cls-29" d="M1482.51,585.76v.54c-4.23-2.9-4.3,5.52-.05,2.6v.56h.83l.05-3.7h-.83ZM1482.47,587.78c-.18,1.62-2.71,1.22-2.38-.38.19-1.58,2.69-1.2,2.38.38Z"/>
      <path class="cls-29" d="M1484.14,581.48c-2.18.28-1.81-2.37-1.77-3.74h.83c.11.84-.55,3.19.95,3.08,1.49.12.91-2.24,1.04-3.09h.84l-.05,3.69h-.84v-.43c-.24.3-.63.43-1,.49h0Z"/>
      <path class="cls-29" d="M1490.87,589.47h-.82c-.11-.85.55-3.2-.96-3.09-1.5-.12-.92,2.23-1.05,3.09h-.81c-.11-.84.54-3.2-.96-3.09-1.51-.14-.92,2.23-1.05,3.08h-.83l.06-3.7h.82v.43c.68-.72,2.1-.65,2.61.25,2.5-2.29,3.42.85,3.01,3.03h-.02Z"/>
      <path class="cls-29" d="M1494.95,579.22c-.2-2.14-3.76-2.02-3.93.08-.46,2.23,3.05,3.05,3.82,1.02h-.89c-.48.89-2.06.58-2.09-.46h3.07c.05-.2.05-.44.03-.64h0ZM1491.87,579.25c.08-1.22,2.21-1.26,2.21-.01h-2.21Z"/>
      <path class="cls-29" d="M1494.98,585.77v.55c-4.24-2.93-4.35,5.52-.05,2.61v.55h.83l.06-3.71h-.84ZM1494.95,587.62c.07,1.63-2.54,1.62-2.42-.02-.06-1.6,2.54-1.59,2.42.02Z"/>
      <path class="cls-29" d="M1498.63,579.12c-.06-.88-1.41-1.08-1.84-.38-.31.38-.14,2.22-.2,2.69h-.83l.06-3.71h.83v.43c2.54-1.83,3.14,1.34,2.79,3.28h-.82c0-.15.06-2.23.02-2.3h-.01Z"/>
      <path class="cls-29" d="M1502.2,588.35c-.29,1.64-3.51,1.6-3.54-.15h.88c.1,1.35,2.75.49,1.51-.5-.66-.38-1.62-.27-2.14-.91-1.24-2.12,3.12-2.92,3.28-.75h-.92c-.1-.99-2.14-.73-1.63.31.77.74,2.84.41,2.57,2h0Z"/>
      <path class="cls-29" d="M1502.4,576.72c.01-.63,1.09-.65,1.06,0,0,.65-1.07.65-1.06,0Z"/>
      <polygon class="cls-29" points="1502.5 577.7 1503.33 577.7 1503.27 581.42 1502.44 581.42 1502.5 577.7"/>
      <polygon class="cls-29" points="1504.01 589.5 1503.18 589.5 1503.24 585.78 1504.07 585.78 1504.01 589.5"/>
      <path class="cls-29" d="M1504.2,584.91c-.13.61-1.19.44-1.04-.2.13-.63,1.19-.46,1.04.2Z"/>
      <polygon class="cls-29" points="1504.45 576.43 1505.29 576.43 1505.24 579.33 1506.74 577.7 1507.9 577.69 1506 579.57 1507.84 581.41 1506.71 581.41 1505.23 579.83 1505.21 581.42 1504.37 581.42 1504.45 576.43"/>
      <path class="cls-29" d="M1508.14,588.62c-.35,1.41-3.14,1.23-3.22-.26h.86c.04,1.05,2.41.42,1.21-.25-.55-.21-1.22-.24-1.68-.62-1.45-1.81,2.81-2.57,2.83-.56h-.85c.03-.81-1.84-.71-1.31.11.69.51,2.34.31,2.16,1.58h0Z"/>
      <path class="cls-29" d="M1511.06,586.41h-.97c.11.77-.57,2.94.93,2.45v.65c-2.34.37-1.77-1.59-1.78-3.11h-.48v-.62h.49l.02-.92h.84v.92h.96v.62h-.01Z"/>
      <polygon class="cls-29" points="1509.94 577.69 1510.84 577.69 1511.94 580.73 1513.15 577.69 1514.04 577.68 1512.42 581.41 1511.42 581.41 1509.94 577.69"/>
      <path class="cls-29" d="M1515.54,587.3c-.19-2.03-3.48-2.09-3.93-.19-.77,2.35,2.95,3.48,3.81,1.29h-.9c-.47.89-2.1.59-2.1-.46h3.11c.02-.21.03-.43.02-.64h-.01ZM1512.42,587.32c.11-1.23,2.21-1.27,2.25,0h-2.25Z"/>
      <path class="cls-29" d="M1518.37,579.19c-.2-2.15-3.79-2.02-3.99.08-.46,2.27,3.09,3.06,3.88,1.03h-.92c-.45.9-2.11.58-2.1-.46h3.12c.03-.22.05-.44.02-.65h-.01ZM1515.25,579.22c.09-1.23,2.24-1.27,2.25,0h-2.25Z"/>
      <path class="cls-29" d="M1522.97,589.54h-.85c-.11-.85.57-3.24-.96-3.12-1.53-.13-.96,2.24-1.09,3.11h-.83c-.08-.94.56-3.46-1.18-3.1-1.28.08-.73,2.31-.87,3.1h-.84l.07-3.74h.84v.43c.7-.72,2.13-.64,2.67.25,2.55-2.3,3.49.84,3.06,3.07h-.02Z"/>
      <path class="cls-29" d="M1524.02,584.82c-.01-.65,1.09-.65,1.07,0,0,.63-1.1.66-1.07,0Z"/>
      <polygon class="cls-29" points="1524.04 589.54 1524.11 585.8 1524.95 585.8 1524.88 589.54 1524.04 589.54"/>
      <path class="cls-2" d="M1502.93,577.22c.67,0,.7-1.01,0-.99-.68-.02-.7,1,0,.99"/>
      <path class="cls-29" d="M1471.82,576.85c-.27,0-.47-.21-.44-.47h-.48c-.18,1.44,2.36,1.41,2.17-.01h-.47c.02.43-.44.54-.78.48h0Z"/>
      <polygon class="cls-29" points="1505.21 581.42 1505.23 579.83 1506.71 581.41 1507.84 581.41 1506 579.57 1507.9 577.69 1506.74 577.7 1505.24 579.33 1505.29 576.43 1504.45 576.43 1504.37 581.42 1505.21 581.42"/>
      <polygon class="cls-29" points="1501.33 581.42 1501.41 576.43 1500.57 576.44 1500.49 581.42 1501.33 581.42"/>
      <path class="cls-2" d="M1484.85,577.27c.63.02.53-.93-.08-.79-.48.07-.42.82.08.79"/>
      <path class="cls-2" d="M1483.61,577.27c.5.04.59-.72.1-.79-.6-.14-.74.81-.1.79"/>
      <path class="cls-29" d="M1479.38,581.45c1.28-.1,2.36-1.27,2.2-2.58h-2.77v.62h1.87c-.24,1.8-3.21,1.66-3.31-.15-.34-1.69,2.17-2.69,3.07-1.23h.99c-3.13-4.66-8.13,3.15-2.06,3.34h.01Z"/>
      <path class="cls-29" d="M1467.52,576.8h-.95l-1.83,4.63h.84l.37-.94h2.09l.34.94h.86l-1.72-4.63ZM1466.19,579.87l.84-2.15.78,2.15h-1.62Z"/>
      <path class="cls-29" d="M1518.37,579.19c-.2-2.15-3.79-2.02-3.99.08-.46,2.27,3.09,3.06,3.88,1.03h-.92c-.45.9-2.11.58-2.1-.46h3.12c.03-.22.05-.44.02-.65h-.01ZM1515.25,579.22c.09-1.23,2.24-1.27,2.25,0h-2.25Z"/>
      <path class="cls-29" d="M1496.65,577.71h-.83l-.06,3.71h.83c.13-.86-.44-3.21,1.06-3.1,1.52-.12.86,2.25.96,3.1h.82c.36-1.95-.25-5.1-2.8-3.28v-.43h.02Z"/>
      <path class="cls-29" d="M1494.95,579.22c-.2-2.14-3.76-2.02-3.93.08-.46,2.23,3.05,3.05,3.82,1.02h-.89c-.48.89-2.06.58-2.09-.46h3.07c.05-.2.05-.44.03-.64h0ZM1491.87,579.25c.08-1.22,2.21-1.26,2.21-.01h-2.21Z"/>
      <path class="cls-29" d="M1473.04,577.75v.53c-4.23-2.85-4.26,5.5-.04,2.6.38,1.51-1.47,2.43-2.25,1.06h-.81c.22,1.6,2.92,1.74,3.64.45.47-.54.21-3.95.3-4.64h-.84ZM1473,579.77c-.21,1.72-2.88,1.1-2.33-.55.36-1.44,2.66-.92,2.33.55Z"/>
      <polygon class="cls-29" points="1513.15 577.69 1511.94 580.73 1510.84 577.69 1509.94 577.69 1511.42 581.41 1512.42 581.41 1514.04 577.68 1513.15 577.69"/>
      <polygon class="cls-29" points="1502.44 581.42 1503.27 581.42 1503.33 577.7 1502.5 577.7 1502.44 581.42 1502.44 581.42"/>
      <polygon class="cls-29" points="1489.8 577.72 1488.62 580.74 1487.54 577.73 1486.65 577.73 1488.12 581.42 1489.1 581.42 1490.68 577.72 1489.8 577.72"/>
      <path class="cls-29" d="M1484.15,580.82c-1.5.11-.84-2.24-.95-3.08h-.83c-.35,1.91.29,5.07,2.79,3.25v.43h.83l.05-3.69h-.84c-.13.85.45,3.2-1.04,3.09h-.01Z"/>
      <path class="cls-2" d="M1524.55,585.31c.69.02.71-1.01,0-.99-.69-.03-.71,1.04,0,.99"/>
      <path class="cls-2" d="M1503.68,585.3c.67.01.7-.99.02-.99-.7-.03-.73,1.01-.02.99"/>
      <polygon class="cls-29" points="1478.39 589.45 1478.45 584.51 1477.63 584.51 1477.57 589.45 1478.39 589.45"/>
      <path class="cls-29" d="M1500.22,584.77c-1.16-.07-2.14,1.45-1.07,2.24.64.53,2.05.22,2.22,1.19-.05.93-1.78.92-1.83,0h-.88c.07,2.37,4.89,1.27,3.23-.86-.55-.51-1.4-.45-2.03-.8-1.17-.91,1.27-1.73,1.41-.5h.92c-.04-.98-1.12-1.37-1.96-1.26h-.01Z"/>
      <polygon class="cls-29" points="1467.43 589.42 1467.44 588.81 1465.75 588.8 1465.8 584.8 1464.97 584.8 1464.92 589.42 1467.43 589.42"/>
      <path class="cls-29" d="M1509.23,586.41c0,1.52-.56,3.48,1.77,3.11v-.65c-1.48.49-.81-1.69-.92-2.45h.97v-.62h-.96v-.92h-.83l-.02.92h-.48v.62h.47Z"/>
      <path class="cls-29" d="M1519.79,586.31c-.59-.75-1.9-.76-2.56-.09v-.43h-.83l-.07,3.74h.84c.15-.8-.41-3.01.87-3.1,1.74-.36,1.11,2.16,1.18,3.1h.83c.14-.87-.44-3.24,1.09-3.11,1.53-.13.85,2.27.96,3.12h.85c.43-2.24-.51-5.36-3.06-3.07-.04-.06-.08-.11-.12-.16h.02Z"/>
      <path class="cls-29" d="M1515.54,587.3c-.19-2.03-3.48-2.09-3.93-.19-.77,2.35,2.95,3.48,3.81,1.29h-.9c-.47.89-2.1.59-2.1-.46h3.11c.02-.21.03-.43.02-.64h-.01ZM1512.42,587.32c.11-1.23,2.21-1.27,2.25,0h-2.25Z"/>
      <path class="cls-29" d="M1506.92,585.75c.63.05,1.21.52,1.22,1.17h-.85c-.18-1.18-3.38-.29.56.87,1.46,1.87-2.88,2.55-2.93.56h.86c0,.93,2.21.58,1.34-.19-2.42-.24-3.03-2.5-.21-2.41h.01Z"/>
      <path class="cls-29" d="M1494.98,585.77v.55c-4.24-2.93-4.35,5.52-.05,2.61v.55h.83l.06-3.71h-.84ZM1494.95,587.62c.07,1.63-2.54,1.62-2.42-.02-.06-1.6,2.54-1.59,2.42.02Z"/>
      <path class="cls-29" d="M1487.75,586.27c-.59-.73-1.86-.75-2.51-.08v-.42h-.81l-.06,3.69h.83c.14-.85-.46-3.21,1.05-3.08,1.5-.12.86,2.25.96,3.09h.81c.11-.94-.44-3.43,1.27-3.07,1.26.08.62,2.31.74,3.07h.82c.41-2.19-.5-5.32-3.01-3.03-.03-.06-.07-.12-.11-.17h.02Z"/>
      <path class="cls-29" d="M1482.51,585.76v.54c-4.23-2.9-4.3,5.52-.05,2.6v.56h.83l.05-3.7h-.83ZM1482.47,587.78c-.18,1.62-2.71,1.22-2.38-.38.19-1.58,2.69-1.2,2.38.38Z"/>
      <polygon class="cls-29" points="1524.04 589.54 1524.88 589.54 1524.95 585.8 1524.11 585.8 1524.04 589.54 1524.04 589.54"/>
      <polygon class="cls-29" points="1503.18 589.5 1504.01 589.5 1504.07 585.78 1503.24 585.78 1503.18 589.5 1503.18 589.5"/>
      <path class="cls-2" d="M1472.98,579.24c-.39-1.55-2.8-.81-2.32.7.39,1.58,2.79.82,2.32-.7Z"/>
      <path class="cls-2" d="M1494.87,587.11c-.64-1.48-2.89-.46-2.26,1.01.63,1.51,2.89.46,2.26-1.01Z"/>
      <path class="cls-2" d="M1482.44,587.25c-.38-1.56-2.8-.83-2.33.69.4,1.58,2.81.85,2.33-.69Z"/>
      <path class="cls-29" d="M1467.52,576.8h-.95l-1.83,4.63h.84l.37-.94h2.09l.34.94h.86l-1.72-4.63ZM1466.19,579.87l.84-2.15.78,2.15h-1.62Z"/>
      <path class="cls-2" d="M1472.6,576.38c.04.66-1.29.67-1.22,0h-.48c-.18,1.44,2.36,1.41,2.17-.01h-.47ZM1473.04,577.75v.53c-4.23-2.85-4.26,5.5-.04,2.6.38,1.51-1.47,2.43-2.25,1.06h-.81c.22,1.6,2.92,1.74,3.64.45.47-.54.21-3.95.3-4.64h-.84ZM1473,579.77c-.21,1.72-2.88,1.1-2.33-.55.36-1.44,2.66-.92,2.33.55Z"/>
      <path class="cls-29" d="M1479.13,576.73c-2.27-.18-3.6,2.95-1.63,4.27,1.61,1.19,4.35.01,4.09-2.12h-2.77v.62h1.88c-.19,1.59-2.68,1.74-3.2.29-.82-1.8,1.9-3.34,2.96-1.67h.99c-.36-.93-1.36-1.41-2.32-1.39h0Z"/>
      <path class="cls-2" d="M1485.26,576.71c-.21-.47-1.01-.18-.8.32.2.48,1.02.17.8-.32ZM1484.03,576.79c-.1-.52-.95-.35-.85.17.11.49.98.36.85-.17ZM1485.19,577.73c-.14.85.45,3.2-1.04,3.09-1.5.11-.84-2.24-.95-3.08h-.83c-.35,1.91.29,5.07,2.79,3.25v.43h.83l.05-3.69h-.85Z"/>
      <polygon class="cls-29" points="1490.68 577.73 1489.8 577.73 1488.62 580.74 1487.54 577.73 1486.65 577.73 1488.12 581.42 1489.1 581.42 1490.68 577.73 1490.68 577.73"/>
      <path class="cls-29" d="M1494.95,579.22c-.2-2.14-3.76-2.02-3.93.08-.46,2.23,3.05,3.05,3.82,1.02h-.89c-.48.89-2.06.58-2.09-.46h3.07c.05-.2.05-.44.03-.64h0ZM1491.87,579.25c.08-1.22,2.21-1.26,2.21-.01h-2.21Z"/>
      <path class="cls-29" d="M1497.84,577.66c-.44,0-.91.16-1.21.49v-.43h-.82l-.06,3.7h.83c.13-.87-.44-3.2,1.06-3.1,1.52-.11.86,2.25.97,3.1h.82c0-1.3.49-3.92-1.59-3.76h0Z"/>
      <polygon class="cls-29" points="1501.41 576.44 1500.58 576.44 1500.5 581.42 1501.33 581.42 1501.41 576.44 1501.41 576.44"/>
      <path class="cls-2" d="M1503.43,576.53c-.28-.64-1.35-.14-.94.47.32.48,1.17.08.94-.47ZM1502.5,577.7l-.06,3.72h.83l.06-3.72h-.83Z"/>
      <polygon class="cls-29" points="1505.29 576.43 1504.46 576.43 1504.37 581.42 1505.21 581.42 1505.24 579.82 1506.71 581.42 1507.84 581.42 1506 579.56 1507.9 577.7 1506.74 577.7 1505.24 579.33 1505.29 576.43 1505.29 576.43"/>
      <polygon class="cls-29" points="1514.05 577.69 1513.15 577.69 1511.94 580.73 1510.84 577.69 1509.95 577.7 1511.42 581.41 1512.42 581.41 1514.05 577.69 1514.05 577.69"/>
      <path class="cls-29" d="M1518.37,579.19c-.2-2.15-3.79-2.02-3.99.08-.46,2.27,3.09,3.06,3.88,1.03h-.92c-.45.9-2.11.58-2.1-.46h3.12c.03-.22.05-.44.02-.65h-.01ZM1515.25,579.22c.09-1.23,2.24-1.27,2.25,0h-2.25Z"/>
      <polygon class="cls-29" points="1465.8 584.79 1464.98 584.79 1464.92 589.42 1467.43 589.42 1467.43 588.8 1465.75 588.8 1465.8 584.79 1465.8 584.79"/>
      <path class="cls-29" d="M1471.88,587.32c-.35-2.79-5-1.63-3.88,1.03.8,1.98,4.25,1.16,3.88-1.03ZM1471.05,587.78c-.31,1.82-3.01.97-2.26-.73.55-1.27,2.57-.64,2.26.73Z"/>
      <path class="cls-29" d="M1475.71,585.76v.54c-4.23-2.91-4.29,5.51-.05,2.58.39,1.51-1.46,2.43-2.25,1.07h-.8c.21,1.6,2.89,1.72,3.64.45.43-.56.19-3.95.28-4.64h-.82ZM1475.67,587.77c-.19,1.61-2.71,1.22-2.38-.38.19-1.57,2.68-1.19,2.38.38Z"/>
      <polygon class="cls-29" points="1478.45 584.51 1477.63 584.51 1477.57 589.44 1478.39 589.44 1478.45 584.51 1478.45 584.51"/>
      <path class="cls-2" d="M1482.51,585.76v.54c-4.23-2.9-4.3,5.52-.05,2.6v.56h.83l.05-3.7h-.83ZM1482.47,587.78c-.18,1.62-2.71,1.22-2.38-.38.19-1.58,2.69-1.2,2.38.38Z"/>
      <path class="cls-29" d="M1489.26,585.71c-.55,0-1.12.25-1.41.73-.5-.89-1.93-.97-2.61-.25v-.42h-.82l-.05,3.69h.82c.14-.85-.45-3.2,1.05-3.08,1.5-.11.85,2.25.96,3.08h.81c.13-.85-.45-3.2,1.05-3.08,1.51-.12.85,2.25.96,3.09h.82c0-1.3.47-3.89-1.6-3.76h.02Z"/>
      <path class="cls-2" d="M1494.98,585.77v.55c-4.24-2.93-4.35,5.52-.05,2.61v.55h.83l.06-3.71h-.84ZM1494.95,587.62c.07,1.63-2.54,1.62-2.42-.02-.06-1.6,2.54-1.59,2.42.02Z"/>
      <path class="cls-29" d="M1500.48,584.76c-1.16-.16-2.4,1.15-1.45,2.15.58.54,1.49.42,2.12.85,1,1.06-1.53,1.69-1.6.44h-.89c.07,2.24,4.62,1.42,3.34-.74-.49-.61-1.39-.57-2.06-.87-1.37-.84,1.14-1.86,1.32-.56h.92c-.03-.87-.93-1.31-1.71-1.27h.01Z"/>
      <path class="cls-2" d="M1504.2,584.71c-.1-.64-1.19-.44-1.04.2.11.62,1.18.43,1.04-.2ZM1503.24,585.78l-.06,3.72h.83l.06-3.72h-.83Z"/>
      <path class="cls-29" d="M1506.58,585.73c-2.85.38-1.34,2.21.64,2.5.57.83-1.43.97-1.43.14h-.87c.12,2.22,4.83.97,2.69-.73-3.37-.66-.85-2.07-.32-.71h.85c0-.8-.83-1.23-1.55-1.19h0Z"/>
      <path class="cls-29" d="M1510.11,584.87h-.85l-.02.92h-.48v.63h.47c.01,1.51-.56,3.49,1.77,3.1v-.65c-1.58.37-.77-1.62-.93-2.45h.98v-.63h-.97l.02-.92h.01Z"/>
      <path class="cls-29" d="M1515.54,587.3c-.19-2.03-3.48-2.09-3.93-.19-.77,2.35,2.95,3.48,3.81,1.29h-.9c-.47.89-2.1.59-2.1-.46h3.11c.02-.21.03-.43.02-.64h-.01ZM1512.42,587.32c.11-1.23,2.21-1.27,2.25,0h-2.25Z"/>
      <path class="cls-29" d="M1521.35,585.74c-.55,0-1.15.25-1.44.74-.52-.91-1.97-.98-2.68-.25v-.43h-.83l-.07,3.73h.84c.13-.87-.44-3.24,1.09-3.11,1.53-.12.85,2.27.96,3.12h.83c.13-.87-.44-3.24,1.1-3.11,1.53-.12.85,2.27.96,3.12h.84c0-1.32.48-3.93-1.62-3.8h.02Z"/>
      <path class="cls-2" d="M1525.08,584.72c-.13-.63-1.18-.45-1.06.2.13.63,1.19.44,1.06-.2ZM1524.11,585.8l-.07,3.74h.84l.07-3.74h-.84Z"/>
    </g>
    <path class="cls-39" d="M1711.8,565.04c.03,3.1-3.21,3.1-3.18,0-.03-3.1,3.21-3.1,3.18,0Z"/>
    <path class="cls-39" d="M1574.26,604.61c.02,2.17-2.25,2.17-2.23,0-.02-2.17,2.25-2.17,2.23,0Z"/>
    <path class="cls-39" d="M1573.14,543.8c.02,2.17-2.25,2.17-2.23,0-.02-2.17,2.25-2.17,2.23,0Z"/>
  </g>
  <g>
    <path class="cls-50" d="M129.15,220.1c.15-.27.32-.56.5-.86"/>
    <path class="cls-51" d="M134.33,211.57c14.66-22.91,53.61-74.08,122.79-91.5,70.37-17.72,164.46,1.38,185.44,52.2,23.76,57.53-68.23,102.24-62.67,218.93-.42,32.36,8.47,62.42,23.99,88.06,82.31,135.93,290.7,88.07,308.15-69.88,7.62-69.01,5.63-133.56,107-143.03"/>
    <path class="cls-50" d="M819.04,266.35c.33-.03.66-.06,1-.09"/>
  </g>
  <g class="cls-57">
    <g>
      <path class="cls-4" d="M1180.49,146.27c-.13.11-.27.21-.4.32s-.27.21-.4.32-.27.21-.4.32-.27.21-.4.32c-2.61,2.29-5.65,4.91-8.91,7.68s-6.71,5.69-10.16,8.59-6.88,5.76-10.08,8.42-6.17,5.12-8.69,7.2c-.17.14-.34.28-.51.42s-.34.28-.51.42-.34.28-.51.42-.34.28-.51.42c-.61.47-1.2.87-1.79,1.21s-1.16.62-1.73.85-1.13.4-1.68.52-1.09.2-1.63.22c-1.93.1-3.75-.39-5.48-1.24s-3.38-2.06-4.95-3.41-3.08-2.83-4.55-4.24-2.88-2.73-4.27-3.77c-.48-.42-.97-.85-1.45-1.27s-.97-.84-1.45-1.27-.96-.84-1.44-1.26l-1.44-1.26c-.7-.53-1.4-1.07-2.1-1.6s-1.37-1.07-2.02-1.61-1.27-1.09-1.84-1.65-1.1-1.13-1.57-1.71c-.14-.12-.27-.24-.41-.36s-.27-.24-.41-.36-.27-.24-.41-.36-.27-.24-.41-.36c-.02-.04-.03-.08-.05-.12s-.02-.09-.03-.13,0-.09,0-.13v-.14c-.1.08-.2.16-.29.24s-.2.16-.3.23-.2.15-.3.23-.2.15-.3.22c.08,0,.15,0,.22.04s.15.07.23.13.17.13.27.22.21.2.34.32c.07.07.14.14.2.21s.14.14.2.21.13.14.2.21.13.14.2.2c1.71.97,3.83,2.61,6.05,4.56s4.54,4.24,6.62,6.47,3.94,4.43,5.22,6.21,1.98,3.14,1.76,3.7c-.11.1-.22.19-.34.29s-.22.19-.33.29-.22.19-.33.28-.22.19-.33.28c-.32.55-.77,1.12-1.36,1.73s-1.33,1.27-2.2,2-1.89,1.52-3.04,2.41-2.45,1.87-3.89,2.97c-3.56,3.13-6.69,5.93-9.45,8.38s-5.12,4.56-7.15,6.32-3.73,3.18-5.13,4.25-2.52,1.79-3.39,2.15c-.2.19-.41.38-.62.58s-.41.39-.62.58-.42.39-.63.59-.42.4-.63.6c-.15.78-.23,1.5-.21,2.15s.13,1.23.36,1.7.57.85,1.04,1.1,1.08.38,1.84.35h.32l11.02-.38,11.15-.38,11.28-.39,11.41-.39c.26-.07.57-.14.92-.2s.75-.11,1.18-.15.92-.08,1.43-.11,1.07-.06,1.65-.08c.91-.03,1.89-.05,2.94-.06s2.18,0,3.35,0,2.41.02,3.68.03,2.59.03,3.93.04c1.34,0,2.71.03,4.09.04s2.79,0,4.19,0,2.81,0,4.2-.03,2.77-.05,4.13-.1c2.97-.1,5.82-.27,8.38-.54s4.87-.65,6.73-1.16,3.31-1.17,4.16-2,1.13-1.83.68-3.03c-3.18-3.18-6.15-5.98-8.91-8.47s-5.29-4.64-7.63-6.54-4.45-3.54-6.35-4.98-3.6-2.68-5.08-3.77c-1.68-1.22-3.08-2.26-4.21-3.18s-1.98-1.74-2.54-2.52-.84-1.53-.81-2.32.35-1.63.98-2.58c.45-.7,1.07-1.46,1.87-2.32s1.77-1.8,2.91-2.86,2.48-2.26,3.99-3.6,3.21-2.84,5.1-4.51c1.22-1.09,2.51-2.25,3.89-3.5s2.83-2.58,4.37-4,3.16-2.94,4.86-4.56,3.49-3.34,5.36-5.17"/>
      <path class="cls-47" d="M1129.38,138.89c-1.94.14-3.88.29-5.81.44s-3.85.3-5.77.46-3.83.31-5.74.47-3.8.33-5.7.5c-.01.39-.04.79-.08,1.2s-.08.82-.14,1.24-.13.84-.21,1.28-.18.87-.29,1.32h0c-.12.12-.21.26-.26.4s-.09.28-.11.42-.03.29-.03.43,0,.29-.01.43c-.43,1.06-.9,2.05-1.42,2.99s-1.07,1.82-1.66,2.65-1.21,1.6-1.87,2.31-1.33,1.38-2.04,1.98c.09.19.18.38.28.57s.21.38.33.56.24.37.37.55.27.36.41.54c.46.58.99,1.15,1.57,1.71s1.2,1.11,1.84,1.65,1.33,1.08,2.02,1.61,1.4,1.07,2.1,1.6c.53.41,1.07.82,1.59,1.23s1.03.83,1.52,1.25.97.84,1.41,1.27.87.87,1.25,1.31c1.39,1.03,2.81,2.36,4.27,3.77s2.97,2.89,4.55,4.24,3.22,2.56,4.95,3.41,3.55,1.34,5.48,1.24c.54-.03,1.08-.1,1.63-.22s1.11-.3,1.68-.52,1.15-.51,1.74-.85,1.18-.74,1.79-1.21c.16-.13.32-.27.49-.4s.33-.27.5-.41.34-.28.52-.43.35-.29.53-.44c2.52-2.08,5.49-4.54,8.69-7.2s6.64-5.53,10.08-8.42,6.91-5.82,10.16-8.59,6.3-5.39,8.91-7.68c.33-.29.66-.58.98-.86s.63-.56.94-.83.6-.53.89-.79.57-.51.84-.75c.14-.17.28-.33.43-.48s.31-.3.47-.44.33-.28.49-.42.34-.27.51-.4c.43-.4.81-.76,1.16-1.1s.65-.64.91-.9.48-.5.64-.69.29-.35.35-.46c.17-.83.15-1.55-.02-2.14s-.49-1.07-.91-1.43-.96-.62-1.55-.77-1.26-.2-1.95-.15c-1.41.12-2.81.23-4.21.35s-2.8.22-4.19.33-2.79.22-4.18.32-2.78.21-4.16.31c-1.54.11-3.08.23-4.62.34s-3.07.22-4.6.33-3.05.22-4.58.33-3.04.22-4.56.32c-1.56.11-3.13.22-4.69.33s-3.11.22-4.66.33-3.1.22-4.64.34-3.08.23-4.62.34"/>
      <path class="cls-8" d="M1187.51,139.4c-.17.34-.37.65-.59.94s-.48.55-.75.81-.55.49-.84.72-.59.46-.88.69c-.14.13-.29.27-.44.41s-.31.28-.46.43-.32.29-.49.45-.34.31-.51.46c-.01,0-.02.03-.03.04s-.02.03-.03.04-.02.03-.03.04-.02.03-.03.04c-2.09,2.06-4.08,3.98-5.97,5.79s-3.69,3.49-5.38,5.06-3.3,3.03-4.8,4.39-2.92,2.62-4.24,3.79c-1.88,1.68-3.57,3.17-5.08,4.51s-2.83,2.53-3.98,3.6-2.12,2.01-2.92,2.87-1.43,1.61-1.89,2.31c-.6.93-.9,1.76-.91,2.54s.27,1.54.83,2.33,1.4,1.61,2.51,2.54,2.5,1.97,4.15,3.19c1.49,1.08,3.19,2.31,5.1,3.75s4.04,3.07,6.36,4.97,4.88,4.07,7.62,6.55,5.72,5.31,8.88,8.5c.43-6.12.85-12.21,1.26-18.28s.81-12.06,1.2-18.05.79-11.91,1.18-17.82.78-11.76,1.18-17.6"/>
      <path class="cls-7" d="M1154.71,187.39c1.48,1.09,3.18,2.33,5.08,3.77s4.03,3.09,6.35,4.98,4.88,4.07,7.63,6.54,5.73,5.29,8.91,8.47c-3.16-3.2-6.13-6.01-8.88-8.5s-5.29-4.65-7.62-6.55-4.45-3.53-6.36-4.97-3.61-2.66-5.1-3.75M1162.01,163.48c-1.89,1.68-3.59,3.17-5.1,4.51s-2.84,2.53-3.99,3.6-2.12,2.01-2.91,2.86-1.42,1.62-1.87,2.32c.46-.7,1.09-1.46,1.89-2.31s1.77-1.8,2.92-2.87,2.48-2.26,3.98-3.6,3.2-2.84,5.08-4.51"/>
      <path class="cls-36" d="M1184.44,142.56c-.17.13-.34.27-.51.4s-.33.28-.49.42-.32.29-.47.44-.3.31-.43.48c.17-.16.35-.31.51-.46s.33-.3.49-.45.31-.29.46-.43.3-.27.44-.41"/>
      <path class="cls-8" d="M1095.87,159.18c-.78.5-1.57.95-2.38,1.34s-1.62.72-2.45,1-1.65.49-2.48.66-1.66.27-2.48.32c-.15,0-.3.02-.46.02h-1.36c-.59,8.4-1.41,15.75-2.25,22.05s-1.69,11.57-2.32,15.75c-.64,4.19-1.07,7.31-1.06,9.37s.45,3.06,1.56,3.02c.08,0,.16,0,.24-.02s.17-.03.26-.06.19-.05.28-.09.2-.07.31-.12c2.72-2.52,5.27-4.82,7.67-6.92s4.65-4,6.74-5.72,4.03-3.27,5.81-4.67,3.42-2.65,4.9-3.78c.79-.69,1.6-1.4,2.43-2.13s1.68-1.47,2.56-2.23,1.77-1.54,2.69-2.33,1.86-1.6,2.83-2.43c.64-1.12.72-2.15.23-3.3s-1.52-2.41-3.09-4-3.66-3.47-6.25-5.88-5.67-5.3-9.22-8.9c-.28-.16-.55-.3-.8-.42s-.5-.22-.73-.3-.44-.14-.65-.18-.39-.06-.56-.05"/>
      <path class="cls-7" d="M1106.42,191.33c-1.48,1.13-3.11,2.38-4.9,3.78s-3.72,2.95-5.81,4.67-4.34,3.62-6.74,5.72-4.96,4.39-7.67,6.92c.87-.37,1.99-1.09,3.39-2.15s3.1-2.48,5.13-4.25,4.4-3.87,7.15-6.32,5.88-5.24,9.45-8.38M1098.6,160.12c3.55,3.6,6.63,6.5,9.22,8.9s4.69,4.3,6.25,5.88,2.6,2.85,3.09,4,.41,2.18-.23,3.3c.11-.09.22-.19.33-.28s.22-.19.33-.28.22-.19.33-.29.22-.19.34-.29c.22-.56-.48-1.92-1.76-3.7s-3.13-3.97-5.22-6.21-4.4-4.51-6.62-6.47-4.34-3.59-6.05-4.56"/>
      <path class="cls-11" d="M1094.54,159.8c-.32.17-.66.33-1.03.48s-.76.29-1.16.42-.82.24-1.23.33-.84.17-1.26.23c.4-.03.79-.09,1.19-.16s.79-.18,1.19-.3.79-.27,1.17-.43.77-.35,1.14-.56M1096.71,158.6c-.07,0-.15.02-.24.06s-.18.08-.28.13-.22.13-.35.21-.28.18-.44.28c.03,0,.07-.03.1-.04s.07-.02.11-.03.07-.02.11-.02h.14c.07-.05.14-.09.21-.14s.14-.1.21-.14.14-.1.21-.15.14-.1.21-.15h0M1098.09,157.08c-.02.05-.05.11-.07.16s-.04.1-.05.16-.03.1-.04.15-.02.1-.02.15c.03-.02.05-.05.08-.07s.05-.05.08-.07.05-.05.08-.07.05-.05.08-.07c-.01-.03-.03-.06-.04-.08s-.02-.06-.04-.09-.02-.06-.04-.09-.02-.06-.03-.09M1100.63,153.42c-.2.31-.42.61-.65.91s-.45.59-.67.87-.43.56-.61.83-.35.52-.48.77c.24-.25.47-.51.7-.77s.43-.54.64-.83.39-.57.57-.87.35-.6.51-.91M1092.04,152.34c.09-.87.17-1.74.26-2.61s.17-1.74.26-2.61.17-1.73.26-2.6.17-1.73.25-2.59c0,.8-.01,1.65-.06,2.51s-.12,1.76-.21,2.66-.2,1.8-.33,2.68-.27,1.74-.43,2.56M1084.16,140.46c-.12,0-.23,0-.34-.06s-.21-.13-.32-.26-.21-.28-.31-.49-.21-.45-.32-.75c-.08-.47.19-1,.68-1.55s1.18-1.1,1.97-1.6,1.66-.95,2.49-1.28,1.62-.56,2.24-.61h.42c.06,0,.13,0,.18.02s.11.03.16.04c0,1.3-.03,2.68-.11,4.1s-.2,2.88-.35,4.34-.33,2.94-.55,4.38-.45,2.85-.7,4.19c-.15.05-.29.09-.42.13s-.27.07-.39.1-.25.05-.36.07-.23.03-.33.04c-1.15.08-1.76-.41-2.04-1.24s-.24-2.02-.06-3.33.48-2.74.71-4.09.39-2.6.28-3.54c-.31.16-.58.33-.83.48s-.47.3-.68.43-.39.24-.56.32-.32.13-.47.14M1089.15,124.56c-1.95.16-3.91.63-5.81,1.4s-3.73,1.85-5.42,3.25-3.22,3.12-4.53,5.17-2.38,4.43-3.14,7.17c-.78,3.27-.88,6.19-.45,8.74s1.4,4.73,2.75,6.51,3.11,3.17,5.11,4.13,4.25,1.5,6.6,1.58c.01-.21.03-.42.04-.63s.03-.42.04-.64.03-.43.04-.64.03-.43.04-.64c.07.04.13.09.2.13s.13.08.2.12.14.08.21.12.14.07.21.11c-.12-.11-.23-.24-.32-.37s-.17-.29-.23-.45-.11-.34-.13-.52-.04-.39-.03-.6c.4.22.81.4,1.22.56s.84.27,1.27.36.86.15,1.3.18.88.03,1.32,0c1.21-.08,2.42-.37,3.6-.84s2.32-1.13,3.38-1.94,2.05-1.78,2.91-2.87,1.6-2.3,2.18-3.61v.2c.03-.11.06-.23.08-.34s.05-.23.07-.34.04-.23.06-.34.03-.23.05-.34c.23-.7.36-1.4.42-2.09s.04-1.37-.02-2.04-.19-1.33-.34-1.97-.34-1.27-.53-1.89c.4-.04.81-.08,1.21-.11s.81-.08,1.21-.11.81-.07,1.21-.11.81-.07,1.22-.11c.1-2.82-.36-5.3-1.26-7.41s-2.22-3.85-3.84-5.21-3.52-2.35-5.59-2.95-4.28-.81-6.52-.62"/>
      <path class="cls-26" d="M1101.7,150.33c-.57,1.3-1.31,2.52-2.18,3.61s-1.85,2.05-2.91,2.87-2.21,1.47-3.38,1.94-2.39.77-3.6.84c-.44.03-.88.03-1.32,0s-.87-.09-1.3-.18-.85-.21-1.27-.36-.82-.34-1.22-.56c0,.22,0,.42.03.6s.07.36.13.52.14.31.23.45.2.26.32.37c.33.17.68.31,1.03.43s.72.21,1.09.28.75.11,1.14.14.78.02,1.17,0h.16c.42-.06.84-.13,1.26-.23s.83-.21,1.23-.33.79-.27,1.16-.42.71-.31,1.03-.48c.07-.04.14-.08.22-.12s.14-.09.21-.13.14-.09.21-.13.14-.09.21-.14c.17-.11.31-.2.44-.28s.25-.15.35-.21.2-.1.28-.13.16-.05.24-.06h0c.1-.07.2-.15.3-.22s.2-.15.3-.23.2-.15.3-.23.2-.16.29-.24c0-.05.01-.1.02-.15s.02-.1.04-.15.03-.1.05-.16.04-.11.07-.16v-.08s.03-.03.04-.04.03-.03.04-.04.03-.03.04-.04.03-.03.04-.04c.13-.24.3-.5.48-.77s.39-.54.61-.83.44-.58.67-.87.44-.6.65-.91c.12-.23.23-.47.34-.7s.2-.47.29-.71.17-.48.25-.72.14-.48.21-.73v-.2"/>
      <path class="cls-28" d="M1106.36,140.76c-.41.04-.81.07-1.22.11s-.81.07-1.21.11-.81.07-1.21.11-.81.08-1.21.11c.19.61.38,1.24.53,1.89s.27,1.3.34,1.97.08,1.35.02,2.04-.19,1.39-.42,2.09c-.01.11-.03.22-.05.34s-.04.23-.06.34-.05.23-.07.34-.05.23-.08.34c-.06.24-.13.48-.21.73s-.16.48-.25.72-.19.48-.29.71-.22.47-.34.7c-.16.31-.33.61-.51.91s-.37.59-.57.87-.41.56-.64.83-.45.53-.7.77c-.01,0-.03.03-.04.04s-.03.03-.04.04-.03.03-.04.04-.03.03-.04.04v.08l.03.09s.02.06.04.09.02.06.04.09.03.06.04.08c.7-.6,1.39-1.26,2.04-1.98s1.28-1.49,1.87-2.31,1.15-1.71,1.66-2.65.99-1.94,1.42-2.99c0-.14.01-.29.01-.43s0-.29.03-.43.05-.28.11-.42.14-.27.26-.41h0c.11-.44.2-.87.29-1.31s.16-.86.21-1.28.11-.83.14-1.24.06-.8.08-1.2"/>
      <path class="cls-1" d="M1095.83,159.18h-.12s-.08,0-.11.02-.07.02-.11.03-.07.02-.1.04c-.06.04-.13.09-.19.13s-.14.09-.21.13-.14.09-.22.13-.15.09-.23.13c-.37.21-.75.4-1.14.56s-.78.31-1.17.43-.79.22-1.19.3-.79.13-1.19.16c-.07,0-.14.02-.2.03s-.14.02-.2.02-.13,0-.2.02-.13,0-.2,0c-.39.03-.77.03-1.14,0s-.71-.06-1.04-.14-.63-.17-.9-.3-.51-.29-.72-.48c-.07-.04-.14-.07-.21-.11s-.14-.08-.21-.12-.13-.08-.2-.12-.13-.09-.2-.13c-.01.22-.03.43-.04.64s-.03.43-.04.64-.03.43-.04.64-.03.42-.04.63h1.36c.16,0,.3,0,.46-.02.82-.05,1.65-.16,2.48-.32s1.66-.38,2.48-.66,1.64-.61,2.45-1,1.6-.84,2.38-1.34h-.02"/>
      <path class="cls-25" d="M1085.25,160.44c.2.19.45.35.72.48s.57.23.9.3.68.12,1.04.14.75.02,1.14,0h.2c.07,0,.13,0,.2-.02s.13,0,.2-.02.14-.02.2-.03h-.16c-.39.03-.79.03-1.17,0s-.77-.07-1.14-.14-.74-.16-1.09-.28-.7-.26-1.03-.43M1095.4,159.28c-.07.05-.14.09-.21.14s-.14.09-.21.13-.14.09-.21.13-.14.08-.22.12c.08-.04.16-.08.23-.13s.15-.09.22-.13.14-.09.21-.13.13-.09.19-.13"/>
      <path class="cls-31" d="M1093.06,141.92c-.08.86-.17,1.73-.25,2.59s-.17,1.73-.26,2.6-.17,1.74-.26,2.61-.17,1.74-.26,2.61c.16-.82.3-1.68.43-2.56s.24-1.78.33-2.68.16-1.79.21-2.66.07-1.71.06-2.51"/>
    </g>
  </g>
  <path class="cls-24" d="M218.35,213.3c4.41-.45,8.36,1.86,9.69,6.13,25.76,49.64,51.73,99.17,77.38,148.86-39.23-11.11-80.52-17.15-120.59-26.4,12.02-33.86,25.99-67.24,37.1-101.27,1.06-.66,1.55-1.56,1.17-2.82.07-.21.13-.42.2-.63.9-.58.97-1.49,1.19-2.87-76.12,162.24-20.91,145.39-201.38,110.04-.71-.77-1.57-1.05-2.6-.77-.54-.35-1.11-.46-1.71-.16-.31-.1-.62-.24-.95-.25.86.31,1.68.96,2.62.59,33.75,10.03,69.15,18.48,103.57,27.5,4.15.36.97,4.12.39,6.53-14.12,32.37-27.75,64.96-41.69,97.41-1.53,3.83-4.48,7.43-3.04,12.05-26.33-50.13-52.23-100.48-78.46-150.67-1.73-3.32-1.64-6.36.17-9.58,71.11-39.4,144.96-75.36,216.93-113.69h.01Z"/>
  <path class="cls-4" d="M79.71,487.25c-1.44-4.62,33.89-85.03,44.72-109.46.58-2.41,3.77-6.18-.39-6.53-5.67-1.41-73.3-18.64-101-26.69l.07-.23c173.25,32.29,125.98,57.14,198.62-103.8l.2.08c-11.11,34.03-25.08,67.41-37.1,101.27,40.06,9.25,81.36,15.29,120.59,26.4,3.77,5.03,3.87,11.76-2.57,14.73-70.19,36.5-140.39,72.99-210.54,109.56-3.84,2-10.67.74-12.6-5.34h0Z"/>
  <path class="cls-24" d="M307.38,410.73c1.58-.16,2.99.67,3.46,2.19,9.2,17.74,18.48,35.43,27.65,53.19-14.02-3.97-28.77-6.13-43.09-9.43,4.29-12.1,9.29-24.02,13.26-36.18.38-.24.55-.56.42-1.01.02-.08.05-.15.07-.23.32-.21.34-.53.43-1.02-27.2,57.98-7.48,51.94-71.95,39.32-.25-.28-.56-.37-.93-.27-.19-.13-.4-.17-.61-.06-.11-.04-.22-.09-.34-.09.31.11.6.34.94.21,12.06,3.58,24.71,6.6,37.01,9.83,1.48.13.35,1.47.14,2.33-4.99,13.06-12.39,25.83-15.98,39.11-9.41-17.91-18.66-35.9-28.03-53.84-.62-1.18-.59-2.27.06-3.42,25.41-14.08,51.8-26.93,77.51-40.62h-.02Z"/>
  <path class="cls-4" d="M257.84,508.61c-.51-1.65,12.11-30.38,15.98-39.11.21-.86,1.35-2.21-.14-2.33-2.03-.5-26.19-6.66-36.09-9.54l.03-.08c61.56,11.6,45.26,20.18,70.97-37.09l.07.03c-3.97,12.16-8.96,24.09-13.26,36.18,14.32,3.3,29.07,5.46,43.09,9.43,1.35,1.8,1.38,4.2-.92,5.26-25.08,13.04-50.16,26.08-75.23,39.15-1.37.72-3.81.27-4.5-1.91h0Z"/>
  <path class="cls-24" d="M144.71,493.49c1.58-.16,2.99.67,3.46,2.19,9.2,17.74,18.48,35.43,27.65,53.19-14.02-3.97-28.77-6.13-43.09-9.43,4.29-12.1,9.29-24.02,13.26-36.18.38-.24.55-.56.42-1.01.02-.08.05-.15.07-.23.32-.21.34-.53.43-1.02-27.2,57.98-7.48,51.94-71.95,39.32-.25-.28-.56-.37-.93-.27-.19-.13-.4-.17-.61-.06-.11-.04-.22-.09-.34-.09.31.11.6.34.94.21,12.06,3.58,24.71,6.6,37.01,9.83,1.48.13.35,1.47.14,2.33-4.99,13.06-12.39,25.83-15.98,39.11-9.41-17.91-18.66-35.9-28.03-53.84-.62-1.18-.59-2.27.06-3.42,25.41-14.08,51.8-26.93,77.51-40.62h-.02Z"/>
  <path class="cls-4" d="M95.17,591.37c-.51-1.65,12.11-30.38,15.98-39.11.21-.86,1.35-2.21-.14-2.33-2.03-.5-26.19-6.66-36.09-9.54l.03-.08c61.56,11.6,45.26,20.18,70.97-37.09l.07.03c-3.97,12.16-8.96,24.09-13.26,36.18,14.32,3.3,29.07,5.46,43.09,9.43,1.35,1.8,1.38,4.2-.92,5.26-25.08,13.04-50.16,26.08-75.23,39.15-1.37.72-3.81.27-4.5-1.91h0Z"/>
  <polygon class="cls-49" points="827.32 250.78 859.27 262.9 830.06 279.19 827.32 250.78"/>
</svg>