<?xml version="1.0" encoding="UTF-8"?>
<svg id="Layer_1" data-name="Layer 1" xmlns="http://www.w3.org/2000/svg" viewBox="0 0 921.92 140.57">
  <defs>
    <style>
      .cls-1 {
        fill: #282627;
        isolation: isolate;
        opacity: .2;
        stroke-width: 0px;
      }
    </style>
  </defs>
  <path class="cls-1" d="M836.06,0c-47.41,0-85.85,30.72-85.85,68.62,0,7.66,1.57,15.03,4.47,21.92l-10.33,24.58,18.71-10.38c15.14,19.51,42.17,32.5,73,32.5,47.42,0,85.86-30.72,85.86-68.62S883.48,0,836.06,0ZM876.41,44.17l-48.95,55.75c-.99,1.13-2.41,1.77-3.9,1.77h-.2c-1.56-.06-3.02-.82-3.95-2.07l-19.98-26.56c-1.73-2.3-1.26-5.55,1.03-7.28,2.29-1.72,5.55-1.26,7.27,1.03l16.14,21.45,44.73-50.95c1.9-2.15,5.18-2.37,7.33-.47,2.16,1.89,2.37,5.17.48,7.33Z"/>
  <path class="cls-1" d="M118.7,107.43c2.06-4.89,3.18-10.12,3.18-15.56,0-26.9-27.29-48.7-60.94-48.7S0,64.97,0,91.87s27.29,48.7,60.94,48.7c21.88,0,41.07-9.22,51.81-23.06l13.28,7.37s-7.33-17.45-7.33-17.45ZM40.1,93.86c-2.7,0-4.89-2.19-4.89-4.89s2.19-4.89,4.89-4.89,4.89,2.19,4.89,4.89-2.19,4.89-4.89,4.89ZM63.02,93.86c-2.71,0-4.9-2.19-4.9-4.89s2.19-4.89,4.9-4.89,4.89,2.19,4.89,4.89-2.19,4.89-4.89,4.89ZM85.93,93.86c-2.7,0-4.89-2.19-4.89-4.89s2.19-4.89,4.89-4.89,4.9,2.19,4.9,4.89-2.19,4.89-4.9,4.89Z"/>
</svg>