<?xml version="1.0" encoding="UTF-8"?>
<svg id="Layer_1" data-name="Layer 1" xmlns="http://www.w3.org/2000/svg" xmlns:xlink="http://www.w3.org/1999/xlink" viewBox="0 0 668.4 94.46">
  <defs>
    <style>
      .cls-1 {
        clip-path: url(#clippath);
      }

      .cls-2, .cls-3, .cls-4, .cls-5, .cls-6, .cls-7, .cls-8, .cls-9, .cls-10, .cls-11, .cls-12, .cls-13, .cls-14 {
        stroke-width: 0px;
      }

      .cls-2, .cls-15, .cls-16, .cls-17 {
        fill: none;
      }

      .cls-3 {
        opacity: .06;
      }

      .cls-3, .cls-4 {
        fill: #272361;
      }

      .cls-18, .cls-13 {
        fill: #fafafd;
      }

      .cls-19 {
        fill: #6b6f73;
        stroke-width: .2px;
      }

      .cls-19, .cls-15 {
        stroke: #000;
      }

      .cls-19, .cls-20, .cls-16, .cls-17 {
        stroke-miterlimit: 10;
      }

      .cls-21 {
        clip-path: url(#clippath-1);
      }

      .cls-15 {
        stroke-linecap: round;
        stroke-linejoin: round;
        stroke-width: .11px;
      }

      .cls-4 {
        opacity: .11;
      }

      .cls-20 {
        fill: #363739;
        stroke: #131718;
      }

      .cls-16, .cls-17 {
        stroke: #fff;
      }

      .cls-22 {
        isolation: isolate;
      }

      .cls-6 {
        fill: #f7f8fc;
      }

      .cls-7 {
        fill: #2a000b;
      }

      .cls-8 {
        fill: #2b2d30;
      }

      .cls-9 {
        fill: #2958a5;
      }

      .cls-10 {
        fill: #cccbcb;
      }

      .cls-11 {
        fill: #b72027;
      }

      .cls-12 {
        fill: #fff;
      }

      .cls-14 {
        fill: #f4f7fc;
      }

      .cls-17 {
        stroke-width: .5px;
      }
    </style>
    <clipPath id="clippath">
      <rect class="cls-13" x="11.08" y="24.77" width="647.02" height="65.96"/>
    </clipPath>
    <clipPath id="clippath-1">
      <polygon class="cls-2" points="265.78 16.67 279.52 6.3 388.87 6.3 402.62 16.67 265.78 16.67"/>
    </clipPath>
  </defs>
  <path class="cls-4" d="m668.4,90.72c0,2.07-149.62,2.07-334.2,2.07S0,92.78,0,90.72s149.62-3.75,334.2-3.75,334.2,1.68,334.2,3.75Z"/>
  <polygon class="cls-6" points="602.95 .11 65.45 .11 .15 20.51 668.25 20.51 602.95 .11"/>
  <g>
    <rect class="cls-18" x="11.08" y="24.77" width="647.02" height="65.96"/>
    <g class="cls-1">
      <polygon class="cls-3" points="656.27 32.05 324.15 32.05 324.15 43.02 307.49 43.02 307.49 32.05 12.78 31.59 13.31 72.22 34.99 72.68 34.99 91.17 1.42 91.17 1.42 22.02 667.77 22.02 667.77 91.17 632.35 91.17 632.35 75.31 656.27 75.31 656.27 32.05"/>
    </g>
  </g>
  <rect class="cls-20" x="509.97" y="35.42" width="69.44" height="44.66" rx="7.47" ry="7.47"/>
  <g>
    <polygon class="cls-5" points="574.43 66.65 574.42 66.93 574.37 67.21 574.31 67.49 574.21 67.75 574.09 68.01 573.94 68.25 573.78 68.48 573.58 68.69 568.07 74.21 567.86 74.4 567.63 74.57 567.39 74.71 567.13 74.83 566.86 74.93 566.59 75 566.31 75.04 566.03 75.05 555.83 75.05 554.96 74.97 554.12 74.71 553.35 74.3 552.67 73.74 552.11 73.07 551.7 72.29 551.45 71.46 551.36 70.58 551.36 44.92 551.45 44.05 551.7 43.21 552.11 42.44 552.67 41.76 553.35 41.2 554.12 40.79 554.96 40.54 555.83 40.45 566.03 40.45 566.31 40.46 566.59 40.51 566.86 40.57 567.13 40.67 567.39 40.79 567.63 40.94 567.86 41.11 568.07 41.3 573.58 46.81 573.78 47.03 573.94 47.25 574.09 47.49 574.21 47.75 574.31 48.02 574.37 48.29 574.42 48.57 574.43 48.85 574.43 66.65"/>
    <rect class="cls-19" x="557.13" y="46.22" width="5.77" height="2.88"/>
    <rect class="cls-15" x="557.13" y="46.22" width="5.77" height="2.88"/>
    <line class="cls-15" x1="562.17" y1="46.94" x2="562.9" y2="46.22"/>
    <line class="cls-15" x1="562.17" y1="48.38" x2="562.9" y2="49.1"/>
    <line class="cls-15" x1="557.85" y1="48.38" x2="557.13" y2="49.1"/>
    <rect class="cls-19" x="557.13" y="66.4" width="5.77" height="2.88"/>
    <rect class="cls-15" x="557.85" y="46.94" width="4.33" height="1.44"/>
    <line class="cls-15" x1="557.13" y1="46.22" x2="557.85" y2="46.94"/>
    <line class="cls-15" x1="562.17" y1="67.12" x2="562.9" y2="66.4"/>
    <line class="cls-15" x1="562.17" y1="68.56" x2="562.9" y2="69.29"/>
    <line class="cls-15" x1="557.13" y1="69.29" x2="557.85" y2="68.56"/>
    <rect class="cls-15" x="557.85" y="67.12" width="4.33" height="1.44"/>
    <line class="cls-15" x1="557.85" y1="67.12" x2="557.13" y2="66.4"/>
    <rect class="cls-19" x="562.9" y="56.31" width="5.77" height="2.88"/>
    <line class="cls-15" x1="562.9" y1="59.19" x2="563.62" y2="58.47"/>
    <line class="cls-15" x1="563.62" y1="57.03" x2="562.9" y2="56.31"/>
    <line class="cls-15" x1="567.94" y1="57.03" x2="568.66" y2="56.31"/>
    <rect class="cls-15" x="563.62" y="57.03" width="4.33" height="1.44"/>
    <line class="cls-15" x1="567.94" y1="58.47" x2="568.66" y2="59.19"/>
  </g>
  <rect class="cls-5" x="516.83" y="40.47" width="18.04" height="34.58"/>
  <g>
    <path class="cls-7" d="m519.51,66.35l-.06,1.46c0,.13.04.24.37.24l12.03-.03c.15,0,.34.03.34-.19v-1.61s-12.68.13-12.68.13Z"/>
    <path class="cls-11" d="m519,47.47l13.71.17s-1.09,12.13-.36,18.08c0,0,.22.89-.25.89h-12.39s-.65.01-.45-.77c0,0,.77-9.03-.26-18.37Z"/>
    <circle class="cls-17" cx="525.85" cy="61.12" r="1.95"/>
    <rect class="cls-12" x="525.58" y="53.16" width=".56" height="3.49"/>
  </g>
  <g>
    <circle class="cls-8" cx="372.4" cy="41.21" r="2.4"/>
    <circle class="cls-8" cx="379.42" cy="41.17" r="2.4"/>
    <circle class="cls-8" cx="386.41" cy="41" r="2.4"/>
    <circle class="cls-8" cx="393.21" cy="40.91" r="2.4"/>
    <circle class="cls-8" cx="396.45" cy="46.66" r="2.4"/>
    <circle class="cls-8" cx="399.87" cy="52.16" r="2.4"/>
    <circle class="cls-8" cx="402.94" cy="57.44" r="2.4"/>
    <circle class="cls-8" cx="399.67" cy="62.92" r="2.4"/>
    <circle class="cls-8" cx="396.45" cy="68.41" r="2.4"/>
    <circle class="cls-8" cx="393.21" cy="74.02" r="2.4"/>
    <circle class="cls-8" cx="386.74" cy="74.02" r="2.4"/>
    <circle class="cls-8" cx="380.19" cy="74.02" r="2.4"/>
    <circle class="cls-8" cx="373.48" cy="74.02" r="2.4"/>
    <circle class="cls-8" cx="370.08" cy="69.08" r="2.4"/>
    <circle class="cls-8" cx="366.18" cy="64.02" r="2.4"/>
    <circle class="cls-8" cx="362.49" cy="58.55" r="2.4"/>
    <circle class="cls-8" cx="365.93" cy="52.97" r="2.4"/>
    <circle class="cls-8" cx="369" cy="46.83" r="2.4"/>
    <circle class="cls-8" cx="376.07" cy="46.83" r="2.4"/>
    <circle class="cls-8" cx="383.08" cy="46.83" r="2.4"/>
    <circle class="cls-8" cx="389.76" cy="46.83" r="2.4"/>
    <circle class="cls-8" cx="393.2" cy="52.35" r="2.4"/>
    <circle class="cls-8" cx="396.62" cy="57.62" r="2.4"/>
    <circle class="cls-8" cx="393.2" cy="63.36" r="2.4"/>
    <circle class="cls-8" cx="390.05" cy="68.41" r="2.4"/>
    <circle class="cls-8" cx="383.26" cy="68.85" r="2.4"/>
    <circle class="cls-8" cx="376.65" cy="68.83" r="2.4"/>
    <circle class="cls-8" cx="373.16" cy="63.75" r="2.4"/>
    <circle class="cls-8" cx="369.27" cy="58.4" r="2.4"/>
    <circle class="cls-8" cx="372.76" cy="52.72" r="2.4"/>
    <g>
      <circle class="cls-8" cx="365.52" cy="75.48" r="3.35"/>
      <g>
        <line class="cls-16" x1="367.21" y1="73.78" x2="363.82" y2="77.17"/>
        <line class="cls-16" x1="367.22" y1="77.17" x2="363.82" y2="73.78"/>
      </g>
    </g>
    <g>
      <circle class="cls-8" cx="400.7" cy="75.48" r="3.35"/>
      <g>
        <line class="cls-16" x1="402.39" y1="73.78" x2="399" y2="77.17"/>
        <line class="cls-16" x1="402.39" y1="77.17" x2="399" y2="73.78"/>
      </g>
    </g>
    <g>
      <circle class="cls-8" cx="365.52" cy="40.03" r="3.35"/>
      <g>
        <line class="cls-16" x1="367.21" y1="38.33" x2="363.82" y2="41.73"/>
        <line class="cls-16" x1="367.22" y1="41.73" x2="363.82" y2="38.33"/>
      </g>
    </g>
    <g>
      <circle class="cls-8" cx="400.7" cy="40.03" r="3.35"/>
      <g>
        <line class="cls-16" x1="402.39" y1="38.33" x2="399" y2="41.73"/>
        <line class="cls-16" x1="402.39" y1="41.73" x2="399" y2="38.33"/>
      </g>
    </g>
  </g>
  <g>
    <circle class="cls-8" cx="226.11" cy="41.21" r="2.4"/>
    <circle class="cls-8" cx="233.13" cy="41.17" r="2.4"/>
    <circle class="cls-8" cx="240.12" cy="41" r="2.4"/>
    <circle class="cls-8" cx="246.92" cy="40.91" r="2.4"/>
    <circle class="cls-8" cx="250.16" cy="46.66" r="2.4"/>
    <circle class="cls-8" cx="253.58" cy="52.16" r="2.4"/>
    <circle class="cls-8" cx="256.65" cy="57.44" r="2.4"/>
    <circle class="cls-8" cx="253.38" cy="62.92" r="2.4"/>
    <circle class="cls-8" cx="250.16" cy="68.41" r="2.4"/>
    <circle class="cls-8" cx="246.92" cy="73.91" r="2.4"/>
    <circle class="cls-8" cx="240.45" cy="73.91" r="2.4"/>
    <circle class="cls-8" cx="233.9" cy="73.91" r="2.4"/>
    <circle class="cls-8" cx="227.28" cy="73.91" r="2.4"/>
    <circle class="cls-8" cx="223.79" cy="69.08" r="2.4"/>
    <circle class="cls-8" cx="219.89" cy="64.02" r="2.4"/>
    <circle class="cls-8" cx="216.2" cy="58.55" r="2.4"/>
    <circle class="cls-8" cx="219.64" cy="52.97" r="2.4"/>
    <circle class="cls-8" cx="222.71" cy="46.83" r="2.4"/>
    <circle class="cls-8" cx="229.78" cy="46.75" r="2.4"/>
    <circle class="cls-8" cx="236.79" cy="46.83" r="2.4"/>
    <circle class="cls-8" cx="243.47" cy="46.83" r="2.4"/>
    <circle class="cls-8" cx="246.92" cy="52.35" r="2.4"/>
    <circle class="cls-8" cx="250.33" cy="57.62" r="2.4"/>
    <circle class="cls-8" cx="246.92" cy="63.36" r="2.4"/>
    <circle class="cls-8" cx="243.76" cy="68.41" r="2.4"/>
    <circle class="cls-8" cx="236.97" cy="68.85" r="2.4"/>
    <circle class="cls-8" cx="230.37" cy="68.83" r="2.4"/>
    <circle class="cls-8" cx="227.19" cy="63.75" r="2.4"/>
    <circle class="cls-8" cx="222.98" cy="58.4" r="2.4"/>
    <circle class="cls-8" cx="226.47" cy="52.72" r="2.4"/>
    <g>
      <circle class="cls-8" cx="219.23" cy="75.48" r="3.35"/>
      <g>
        <line class="cls-16" x1="220.93" y1="73.78" x2="217.53" y2="77.17"/>
        <line class="cls-16" x1="220.93" y1="77.17" x2="217.53" y2="73.78"/>
      </g>
    </g>
    <g>
      <circle class="cls-8" cx="254.41" cy="75.48" r="3.35"/>
      <g>
        <line class="cls-16" x1="256.1" y1="73.78" x2="252.71" y2="77.17"/>
        <line class="cls-16" x1="256.1" y1="77.17" x2="252.71" y2="73.78"/>
      </g>
    </g>
    <g>
      <circle class="cls-8" cx="219.23" cy="40.03" r="3.35"/>
      <g>
        <line class="cls-16" x1="220.93" y1="38.33" x2="217.53" y2="41.73"/>
        <line class="cls-16" x1="220.93" y1="41.73" x2="217.53" y2="38.33"/>
      </g>
    </g>
    <g>
      <circle class="cls-8" cx="254.41" cy="40.03" r="3.35"/>
      <g>
        <line class="cls-16" x1="256.1" y1="38.33" x2="252.71" y2="41.73"/>
        <line class="cls-16" x1="256.1" y1="41.73" x2="252.71" y2="38.33"/>
      </g>
    </g>
  </g>
  <g>
    <path class="cls-8" d="m89.85,72.4l-8.5-.79c-1.66-.24-2.09-.48-2.27-1.75l-.93-20.63c0-.98.52-2.25,2.43-2.51l7.33-1.11c1.99-.36,3.92,1.16,3.92,2.14l.22,22.32c0,.98-.06,2.39-2.2,2.33Z"/>
    <g>
      <path class="cls-9" d="m88.81,70.73l-6.64-.69c-1.3-.21-1.63-.42-1.77-1.53l-.73-17.93c0-.86.4-1.95,1.9-2.18l5.73-.97c1.56-.31,3.06,1.01,3.06,1.86l.17,19.4c0,.86-.05,2.07-1.72,2.03Z"/>
      <g>
        <circle class="cls-8" cx="81.79" cy="50.95" r="1"/>
        <circle class="cls-8" cx="81.79" cy="54.5" r="1"/>
        <circle class="cls-8" cx="81.79" cy="58.23" r="1"/>
        <circle class="cls-8" cx="81.79" cy="61.81" r="1"/>
        <circle class="cls-8" cx="81.79" cy="65.49" r="1"/>
        <circle class="cls-8" cx="85.14" cy="67.17" r="1"/>
        <circle class="cls-8" cx="88.32" cy="65.18" r="1"/>
        <circle class="cls-8" cx="85.14" cy="63.59" r="1"/>
        <circle class="cls-8" cx="85.27" cy="60.01" r="1"/>
        <circle class="cls-8" cx="85.14" cy="56.3" r="1"/>
        <circle class="cls-8" cx="85.14" cy="52.79" r="1"/>
        <circle class="cls-8" cx="88.1" cy="50.95" r="1"/>
        <circle class="cls-8" cx="88.32" cy="54.5" r="1"/>
        <circle class="cls-8" cx="88.41" cy="58.01" r="1"/>
        <circle class="cls-8" cx="88.3" cy="61.59" r="1"/>
      </g>
    </g>
    <g>
      <polygon class="cls-8" points="86.72 37.22 83.04 37.22 81.21 40.4 83.04 43.58 86.72 43.58 88.56 40.4 86.72 37.22"/>
      <g>
        <circle class="cls-8" cx="84.88" cy="40.4" r="1.89"/>
        <g>
          <line class="cls-16" x1="85.84" y1="39.44" x2="83.93" y2="41.36"/>
          <line class="cls-16" x1="85.84" y1="41.36" x2="83.93" y2="39.44"/>
        </g>
      </g>
    </g>
    <g>
      <polygon class="cls-8" points="87.29 74.67 83.61 74.67 81.77 77.85 83.61 81.04 87.29 81.04 89.13 77.85 87.29 74.67"/>
      <g>
        <circle class="cls-8" cx="85.45" cy="77.85" r="1.89"/>
        <g>
          <line class="cls-16" x1="86.41" y1="76.9" x2="84.49" y2="78.81"/>
          <line class="cls-16" x1="86.41" y1="78.81" x2="84.49" y2="76.9"/>
        </g>
      </g>
    </g>
  </g>
  <g>
    <polygon class="cls-14" points="656.76 30.72 323.73 30.72 323.73 41.88 307.03 41.88 307.03 30.72 11.09 30.72 11.61 72.06 32.72 72.06 32.72 90.88 .15 90.88 .15 20.51 668.25 20.51 668.25 90.88 634.12 90.88 634.12 74.74 656.76 74.74 656.76 30.72"/>
    <circle class="cls-8" cx="20" cy="84.3" r="3.92"/>
    <g>
      <line class="cls-16" x1="21.99" y1="82.31" x2="18.01" y2="86.29"/>
      <line class="cls-16" x1="21.99" y1="86.29" x2="18.01" y2="82.32"/>
    </g>
  </g>
  <g>
    <circle class="cls-8" cx="314.85" cy="31.1" r="3.92"/>
    <g>
      <line class="cls-16" x1="316.84" y1="29.11" x2="312.87" y2="33.09"/>
      <line class="cls-16" x1="316.84" y1="33.09" x2="312.87" y2="29.12"/>
    </g>
  </g>
  <g class="cls-22">
    <g class="cls-21">
      <g>
        <path class="cls-10" d="m349.13,8.37h-18.6c-.07,0-.15,0-.21,0s-.13.01-.18.02-.1.02-.13.03-.06.02-.07.04l-.97,1.51s0,.02,0,.02.01.02.02.02.03.01.05.02.04.01.07.02c.03,0,.06.01.1.02s.07,0,.11.01.08,0,.12,0,.08,0,.13,0h.69c.07,0,.14,0,.2,0s.12,0,.17-.02.1-.02.13-.03.07-.02.08-.03c.09-.06.2-.13.31-.19s.23-.13.36-.2.27-.13.42-.19.31-.12.48-.17c.11-.03.22-.07.35-.1s.26-.06.41-.09.3-.06.46-.08.34-.05.52-.07c.19-.02.38-.04.59-.05s.41-.02.63-.03.43-.01.65-.02.43,0,.65,0h1.76c.08,0,.21,0,.35,0s.31,0,.48,0,.33,0,.48,0,.27,0,.35.01c.05,0,.09,0,.13.01s.08,0,.12.02.07.01.1.02.05.01.07.02c.04.02.07.05.1.08s.05.07.06.11.03.08.03.11.01.06.01.08l.43,2.94s0,.05.01.09,0,.08,0,.12,0,.09-.02.12-.04.07-.07.08c-.02.01-.05.02-.07.03s-.06.02-.09.03-.07.02-.12.03-.09.02-.14.02c-.09.01-.2.02-.3.03s-.21.01-.33.02-.22,0-.33,0-.22,0-.33,0h-1.01c-.09,0-.17,0-.25.01s-.15.02-.2.03-.1.03-.14.04-.05.03-.05.05v.13s.03.03.06.05.08.03.14.04.13.02.21.03.16.01.25.01h12.43c.09,0,.17,0,.25-.01s.14-.02.2-.03.1-.03.13-.04.04-.03.03-.05l-.05-.13s-.03-.03-.07-.05-.09-.03-.15-.04-.14-.02-.22-.03-.17-.01-.25-.01h-.76c-.1,0-.2,0-.3,0s-.21,0-.32,0-.21,0-.31-.02-.19-.02-.28-.03c-.05,0-.11-.01-.16-.02s-.1-.02-.15-.02-.09-.02-.13-.03-.07-.02-.1-.03c-.05-.02-.08-.05-.12-.09s-.06-.08-.08-.13-.04-.09-.05-.13-.02-.07-.03-.09l-.88-3.03s-.01-.04-.02-.08-.01-.07-.02-.11,0-.07,0-.1.03-.06.05-.07c.02-.01.04-.02.06-.03s.05-.02.08-.03.06-.02.1-.02.08-.01.12-.02c.08-.01.17-.02.27-.02s.19-.01.29-.02.2,0,.3,0,.2,0,.3,0h.69c.08,0,.16,0,.23,0s.13-.01.18-.02.09-.02.11-.03.04-.03.03-.04l-.04-.11s-.03-.03-.06-.04-.08-.02-.14-.03-.12-.02-.19-.02-.15,0-.23,0m-60.5-.09c-.39,0-.78,0-1.17,0s-.79,0-1.18.02-.79.02-1.19.03-.8.03-1.19.04c-.39.02-.78.03-1.17.05s-.78.04-1.17.06-.78.05-1.16.07-.77.06-1.16.09c-.06,0-.11,0-.16.02s-.09.01-.13.02-.07.02-.1.03-.05.02-.06.03l-1.13.89s-.04.03-.07.06-.07.05-.11.08-.08.05-.13.08-.08.04-.12.05c-.04.01-.09.03-.13.04s-.1.02-.15.03-.11.02-.17.03-.12.02-.19.02c-.09,0-.21.02-.34.02s-.27.01-.41.02-.28,0-.41,0-.25,0-.34,0c-.08,0-.16,0-.23.01s-.15.01-.21.02-.12.02-.17.04-.08.03-.1.04l-.15.12s-.02.03-.01.04.04.03.08.04.1.02.16.02.14,0,.22,0h10.69c.08,0,.17,0,.25,0s.15-.01.22-.02.12-.02.17-.04.08-.03.09-.04l.12-.12s.02-.03,0-.04-.05-.03-.09-.04-.1-.02-.17-.02-.14,0-.23,0h-.56c-.09,0-.18,0-.27,0s-.17,0-.25,0-.16,0-.24-.01-.15-.01-.21-.02c-.04,0-.08-.01-.12-.02s-.08-.01-.12-.02-.07-.02-.1-.02-.05-.02-.06-.03c-.01-.01-.01-.04,0-.06s.03-.06.06-.09.05-.06.08-.09.05-.05.07-.06l.92-.82c.11,0,.21-.01.32-.02s.21-.01.32-.02.21-.01.32-.01.21,0,.32-.01c.12,0,.25,0,.37-.01s.25,0,.37,0,.25,0,.37,0,.24,0,.37,0c.31,0,.62,0,.91.01s.58.02.85.03.53.04.78.06.48.05.7.09c.24.04.45.08.62.13s.32.1.44.15.22.11.29.17.13.12.16.18c.05.09.08.17.09.26s0,.18-.03.27-.08.19-.14.28-.14.19-.22.28c-.08.09-.17.17-.28.26s-.23.18-.37.26-.29.18-.45.26-.35.18-.55.26c-.17.07-.35.15-.55.22s-.43.14-.67.21-.52.13-.81.2-.61.12-.96.17c-.32.05-.65.09-.99.13s-.68.06-1.03.09-.7.04-1.06.05-.73.02-1.1.02c-.44,0-.85,0-1.24-.02s-.76-.04-1.11-.07-.67-.07-.98-.11-.59-.09-.86-.14c-.33-.07-.6-.14-.84-.21s-.43-.16-.58-.24-.28-.17-.37-.26-.15-.18-.19-.27c0-.01-.02-.02-.05-.03s-.06-.02-.1-.03-.09-.01-.15-.02-.12,0-.19,0h-.58c-.08,0-.17,0-.25,0s-.16.01-.23.03-.13.02-.18.04-.09.03-.11.05l-2.2,1.73s-.03.04-.01.05.04.03.09.04.1.02.17.03.15.01.24.01h.61c.07,0,.14,0,.21,0s.14-.01.2-.02.12-.02.18-.03.1-.02.14-.04c.05-.02.1-.04.17-.06s.14-.04.22-.07.16-.04.24-.06.16-.04.24-.05c.04,0,.08-.01.12-.02s.08,0,.13-.01.09,0,.13,0,.09,0,.13,0c.09,0,.21,0,.35.02s.3.02.45.04.31.03.45.04.26.02.34.03c.18.02.36.03.55.05s.39.03.59.05.4.03.61.04.41.02.6.03c.26.01.52.02.78.03s.53.01.8.02.54,0,.81.01.55,0,.82,0c.97,0,1.91-.02,2.84-.05s1.83-.09,2.72-.15,1.74-.16,2.56-.26,1.62-.22,2.39-.36c.77-.14,1.45-.28,2.05-.43s1.11-.3,1.54-.46.78-.32,1.06-.49.48-.34.61-.51c.07-.09.12-.19.15-.28s.03-.18,0-.27-.08-.18-.16-.26-.19-.17-.34-.25c-.11-.06-.23-.12-.37-.18s-.29-.11-.46-.17-.35-.1-.54-.15-.4-.1-.63-.14c-.23-.05-.47-.09-.73-.13s-.52-.08-.79-.12-.56-.07-.85-.1-.6-.06-.91-.09c-.37-.03-.76-.06-1.17-.08s-.82-.04-1.25-.05-.86-.02-1.3-.03-.87,0-1.31,0m24.51,4.5c-.25,0-.49,0-.72-.01s-.45-.02-.67-.03-.42-.03-.62-.05-.39-.05-.57-.08c-.22-.04-.42-.08-.59-.13s-.32-.1-.45-.16-.24-.11-.34-.17-.17-.11-.24-.17c-.12-.1-.2-.21-.25-.33s-.06-.23-.05-.35.04-.24.09-.35.1-.22.16-.32.12-.2.2-.3.17-.2.28-.3.24-.2.4-.29.33-.19.53-.28c.12-.05.26-.11.42-.17s.32-.11.51-.16.39-.1.62-.15.47-.09.73-.12c.18-.02.37-.04.56-.06s.39-.03.59-.04.41-.02.61-.02.42,0,.63,0c.35,0,.67,0,.98.02s.58.03.84.06.5.06.71.1.41.09.59.14c.35.1.61.22.81.35s.34.27.43.41.13.29.13.43-.02.28-.06.42c-.04.11-.09.24-.17.36s-.18.26-.31.39-.3.27-.51.39-.47.25-.77.36c-.24.09-.51.17-.81.25s-.63.14-1,.2-.77.1-1.22.13-.93.05-1.46.05m1.97-4.5c-.96,0-1.88.02-2.77.05s-1.74.09-2.55.15-1.59.16-2.33.26-1.45.23-2.11.38c-.5.11-.95.23-1.35.35s-.75.25-1.04.37-.55.26-.75.4-.35.28-.45.42c-.12.17-.17.34-.15.5s.12.32.3.48.45.31.8.45.8.29,1.35.42c.51.13,1.08.24,1.69.33s1.29.17,2,.23,1.47.11,2.27.14,1.63.04,2.5.04c.05,0,.1,0,.15,0s.1,0,.15,0,.1,0,.15,0,.1,0,.15,0c.05,0,.1,0,.14,0s.1,0,.14,0,.09,0,.14,0,.09,0,.14,0c.84,0,1.66-.02,2.46-.05s1.56-.08,2.3-.14,1.45-.14,2.12-.23,1.32-.2,1.92-.32c.67-.13,1.25-.27,1.74-.42s.89-.3,1.22-.45.56-.32.73-.48.26-.33.29-.5c.03-.15,0-.3-.08-.44s-.22-.28-.41-.41-.44-.26-.75-.38-.67-.24-1.1-.35c-.54-.14-1.15-.26-1.8-.37s-1.36-.19-2.12-.25-1.56-.11-2.42-.14-1.75-.05-2.7-.05"/>
        <path class="cls-10" d="m375.74,11.38l-3.14,1.18,14.32,3.3c.67.15,1.32.28,1.95.39s1.23.19,1.81.25,1.13.11,1.64.13,1,.04,1.45.04c.65,0,1.23-.02,1.73-.06s.92-.08,1.26-.13.6-.1.77-.13.26-.06.26-.06l-22.05-4.91m13.13-5.07h-14.31s-.03.02,0,.05.1.08.3.13.55.11,1.11.17,1.33.12,2.4.17c.04,0,.09,0,.13,0s.09,0,.13,0,.08,0,.13,0,.08,0,.12,0l-9.25,3.17-14.36-3.2c1.03-.05,1.73-.11,2.22-.17s.74-.12.88-.17.14-.1.11-.13-.09-.05-.09-.05h-14.85s.07.06.15.1.17.07.3.11.3.07.52.1.47.05.78.07c.36.01.72.04,1.07.07s.69.06.98.1.54.06.72.09.28.04.29.04l18.03,4.16-15.04,5.16s.1.02.3.04.47.06.83.1.78.07,1.27.1,1.03.04,1.61.04c.1,0,.2,0,.3,0s.2,0,.3,0,.2,0,.31,0,.21,0,.31-.01c.85-.04,1.59-.11,2.23-.2s1.19-.2,1.68-.33.92-.26,1.32-.4.77-.28,1.14-.42l22.05-8.14c.11-.04.28-.08.48-.12s.44-.08.69-.11.53-.06.8-.09.55-.04.81-.06c.28-.01.5-.04.66-.07s.27-.07.34-.1.11-.08.12-.11,0-.07,0-.1"/>
      </g>
    </g>
  </g>
  <g>
    <circle class="cls-8" cx="650.5" cy="84.3" r="3.92"/>
    <g>
      <line class="cls-16" x1="652.48" y1="82.31" x2="648.51" y2="86.29"/>
      <line class="cls-16" x1="652.48" y1="86.29" x2="648.51" y2="82.32"/>
    </g>
  </g>
</svg>