<?xml version="1.0" encoding="utf-8"?>
<!-- Generator: Adobe Illustrator 27.8.1, SVG Export Plug-In . SVG Version: 6.00 Build 0)  -->
<svg version="1.1" id="katman_1" xmlns="http://www.w3.org/2000/svg" xmlns:xlink="http://www.w3.org/1999/xlink" x="0px" y="0px"
	 viewBox="0 0 401.1 331.8" style="enable-background:new 0 0 401.1 331.8;" xml:space="preserve">
<style type="text/css">
	.st0{fill:#666666;}
</style>
<path class="st0" d="M21.3,166.1c-0.3-5.4-8.6-2.2-11.5-3.1c-4.4-0.4-11.8-0.3-11.3,6c0.9,8.2,8.8,5.7,14.3,6
	C19.8,175.4,22.3,174.3,21.3,166.1z"/>
<path class="st0" d="M30,138.6c-8.8,0-5.1,9.8-5.7,15.2c0,6.1,0.6,6.3,6.3,6.3c5.2,0,5.6-0.5,5.6-5.6
	C35.3,148.7,39.3,138.2,30,138.6L30,138.6z"/>
<path class="st0" d="M35.3,179.3c-9.6-5.5-12.2,1.2-11.1,9.9c0.2,5.8-1.2,10.8,6.3,9.7c5.2,0,5.6-0.5,5.6-5.6
	C35.6,188.9,37.3,183.2,35.3,179.3L35.3,179.3z"/>
<path class="st0" d="M59.7,166.2c0.4-3.8-3.8-3.3-6.8-3.1c-3.6,0.1-11.1-0.7-12.7,1.2c-1,0.4-3,11.1,1.7,10.7c3-0.2,6.4,0,9.5-0.1
	C59.5,175.1,60.1,174.2,59.7,166.2L59.7,166.2z"/>
<path class="st0" d="M377.3,232.7c0.5-6.4-0.5-6.7-6.6-6.9c-6.5-0.4-5,7.7-5.2,12.6c-0.7,8.7,2.3,9.1,9,8.5
	C380,246.5,376.3,236.5,377.3,232.7z"/>
<path class="st0" d="M73.5,51.6c-14-8.1-11.4,7.9-11.3,16.6c-0.4,4,10.1,4.1,11.2,0.9C74.1,67.8,74.9,54.3,73.5,51.6L73.5,51.6z"/>
<path class="st0" d="M377.3,190.2c0.3-3.5-5.2-2.7-7-3c-4.7,0-5,3-5,8.6c0.6,6.3-2.7,13.1,6.6,13
	C381.3,208.2,376.3,196.2,377.3,190.2L377.3,190.2z"/>
<path class="st0" d="M359.9,223c2,0,2.4-1.2,2.5-2.3c1.2-8.4,0.1-9.8-8.2-9.6c-5.6,0.7-12.5-2.9-12.9,5.6
	C340.7,227.1,353.6,222,359.9,223L359.9,223z"/>
<path class="st0" d="M400.9,214.3c0.1-5.5-7.6-2.5-10.7-3.2c-3.8,0.4-10.4-2-9.9,3.9c0,7.5,0.5,8,8.2,8
	C396.6,222.9,402.3,224.8,400.9,214.3z"/>
<path class="st0" d="M91.4,221.1c-5.5,0-7.2-0.1-7,4.7c0,6.1,0,7.4,5.9,7.3c5.9,0,6.1-0.7,6.1-4.8C96.4,222.7,96.8,221,91.4,221.1z"
	/>
<path class="st0" d="M362.6,280.7c-5.6,0-7.5-0.1-7.3,4.6c0,5.6-0.4,7.4,4.9,7.3c6,0,7.2-0.1,7.1-5.7
	C367.4,280.9,366.7,280.7,362.6,280.7L362.6,280.7z"/>
<path class="st0" d="M354.3,124.1c4.3-0.3,8.8,0.3,8.1-4.6c-0.1-5.6,0.5-7.6-4.7-7.4c-5.8-0.1-7.5,0.1-7.2,6.1
	C350.3,120.9,350.3,124.3,354.3,124.1L354.3,124.1z"/>
<g>
	<path class="st0" d="M305,291.9c-4.4-1.8-10.4-0.2-15.4-0.7c8.2-20.9,8.8-47.4-2.9-68.4c-12-22.4-32.6-40.2-53.5-53.6
		c-1.5-0.9-1.5-1.3-1.5-1.4c0-0.1,0.1-0.5,1.6-1.6c42.9-26.9,77.3-71.8,56.3-122.2c5.1-0.7,10.8,1.3,15.3-0.9c0.9-1,1-2.5,1-3.7
		c-0.2-13.2,0-26.2,0.1-39.3H95.4v1c0.8,13.8-1.5,28.7,0.8,42.2c4.3,2,10.1,0.1,15,0.8c-20.8,51.8,12.8,95.1,57.9,123.5
		c-11.8,8.6-22.8,15.8-31.8,25.4c2.7,1.6,7,9.7,10,6.5c10-9,18.7-15.6,27.4-20.9c18.8-15.4-8.1-26-18.4-35.2
		c-31.3-23.5-50-60-33.3-96.4c1-2.2,2.1-2.9,4.8-2.9c25,0,49.4,0.1,72.6,0.1c24.9,0,49.5,0,73-0.1c2.4,0,3.5,0.8,4.4,2.9
		c20.5,46-13.1,85.8-51.7,109.7c-8.3,4.9-8.6,16.2-1.1,21.6c28.7,19,60.1,45.7,58.7,82.1c-1.3,7.3-2,29.9-9.9,31
		c-23.6,0-47.3,0-70.9,0c-25.4,0-50.9,0-76.3,0.1c-9.4-2.8-11-36.6-8.4-45.2c2.2-12,8-23.1,18.2-35c3.6-3.6,3.5-5.1-0.8-8.4
		c-3.9-4.9-6.8-2.7-9.4,2c-22.4,26.8-26.4,55.3-15,86.5c-4.4,1.1-16.4-3-15.8,3.7c0.9,11.7-1.6,24.5,1,35.6c45.4,3.1,92.9,0,135.5,1
		c0.7-0.1,68.7,0.1,69.4,0c2.3,0.4,4.9-0.5,4.5-3.2C305,315.2,307,303.1,305,291.9z M110.4,31.8c-2.5-0.1-2.8-0.2-2.7-2.6h0
		c0.3-4.6,0.3-9.4,0-14.4c0-2.2,0.2-2.2,2.5-2.3c20,0.4,174.3-0.7,181.3,0.4c0.8,5.5-0.1,12.1,0.3,17.6c-0.1,1.5,0,1.3-1.1,1.4
		C233.6,31.7,169,31.8,110.4,31.8z M284.5,319.1c-7.2-0.1-79.1,0-88.1,0h-37c-14.8-0.4-33.8,0.8-51.4-0.4c-0.3-4.5-0.4-10.7,0-15.1
		c1.9-0.6,4.4,0.1,6.5-0.2h168c3.4,0,3.3-0.3,3.2,3.2v0C285.1,308.6,286.9,320,284.5,319.1z"/>
	<path class="st0" d="M209.2,161.8c4-4.9,7.4-10.2,12.7-13.7c28.4-17.7,62.4-49.9,50-91c-0.6-2.8-2-3.9-5-3.9
		c-12.9,0.1-25.8,0.1-35.6,0.1c-31.3,0-66.3,0-97.6-0.1c-2,0-4.1,0.3-4.8,3.5c-12.4,36.5,16.1,69.3,43.2,87.1
		C190.9,151.5,195.3,182.5,209.2,161.8L209.2,161.8z M201.9,151.8c-0.4,0.5-1,1.4-1.4,1.9c-22.5-28.6-69.5-41-61.3-88.6
		c9.9,0.3,49.6,0,60.2,0.1v0c18.6,0,41.9,0,60.3,0c1.3,0,1.9-0.2,2,1.5c5.8,33.1-21.3,54.4-47,72
		C209.3,142.2,205.5,147.1,201.9,151.8z"/>
	<path class="st0" d="M132.5,282v-1l0.2,1c34.7,0,105.5,0,139.3,0c-6.5-22.1-27.4-42.5-48.5-57.8c-27.3-21.1-54.2,2.7-72.9,23h0
		C149.2,248.6,119.3,284,132.5,282z M148.3,268.8c14.2-17.6,30.2-37.6,51.3-41.4c21.4,3.2,39.8,24.1,53.2,42.4
		c-34,0.2-69.7,0.1-103.6,0.1C148.1,270,146.8,270.5,148.3,268.8z"/>
	<path class="st0" d="M205.7,177.4c-1-1.2-3.6-1.1-5.3-0.9c-5,0.3-6,0.4-6,4.6c0,3.4,0,5,0.6,6c1.4,2.1,9,1.4,10.2,0.4
		c1.1-0.9,1.1-2.6,1.1-5.1C206.2,180.8,207,178.8,205.7,177.4z"/>
	<path class="st0" d="M201,196.4c-5.8,0-6.6,0.3-6.6,4.6c0,5.8-0.3,7.5,5.2,7.3c6.5,0,6.8-0.6,6.8-5.8
		C206.5,196.1,205.3,196.4,201,196.4z"/>
</g>
</svg>
