<?xml version="1.0" encoding="UTF-8"?>
<svg id="katman_1" data-name="katman 1" xmlns="http://www.w3.org/2000/svg" viewBox="0 0 681.49 71.67">
  <defs>
    <style>
      .cls-1 {
        fill-rule: evenodd;
      }

      .cls-1, .cls-2 {
        fill: #fff;
        stroke-width: 0px;
      }
    </style>
  </defs>
  <g>
    <path class="cls-2" d="m573.1,33.48c-.43,2.55-2.48,2.91-2.48,2.91,0,0-.92.18-2.91.45-1.99.27-1.94-2.55-1.94-2.55,1.24-13.82.27-24.38.27-24.38-.17-2.59,2.21-2.06,2.21-2.06l2.69.6c1.99.76,2.15,3.25,2.15,3.25,1.02,9.86.43,19.23,0,21.78m-10.5,1.41c-.43,2.33-2.21,2.55-2.21,2.55h-2.75c-2.1,0-2.1-2.82-2.1-2.82l.27-19.23c.03-2.01,1.08-2.11,1.4-2.38.32-.27,1.35-.54,3.56-.38,2.21.16,2.16,2.28,2.16,2.28.21,6.07.11,17.66-.32,19.99m-10.18-.05c-.05,2.11-1.51,2.02-1.51,2.02,0,0-.43-.07-3.07-.46-2.64-.39-2.53-2.75-2.53-2.75-.22-4.06-.27-9.48-.32-12.25-.05-2.76,2.21-2.98,2.21-2.98l3.37-.24c1.92.18,1.86,1.97,1.86,1.97-.27,5.09.05,12.57,0,14.68m22.68-9.83c4.01-1.39,5.93-4.99,6.8-7.41-2.43-10.1-11.46-17.6-22.25-17.6s-19.04,6.87-21.9,16.31c2.01-1.33,6.99-3.87,14.18-2.42,0,0-10.21,3.17-14.62,14.13,2.27,10.31,11.41,18.02,22.34,18.02,12.64,0,22.89-10.31,22.89-23.02v-.02c-4.81,3.05-7.44,2-7.44,2"/>
    <polygon class="cls-2" points="591.52 39.28 591.52 6.81 600 6.81 600 18.34 611.54 18.34 611.54 6.81 620.03 6.81 620.03 39.28 611.54 39.28 611.54 25.59 600 25.59 600 39.28 591.52 39.28"/>
    <polygon class="cls-2" points="631.34 39.28 631.34 13.4 621.9 13.4 621.9 6.81 649.22 6.81 649.22 13.4 639.78 13.4 639.78 39.28 631.34 39.28"/>
    <polygon class="cls-2" points="651.01 39.28 651.01 6.81 659.32 6.81 659.32 19.2 671.04 6.81 681.18 6.81 667.84 20.45 681.49 39.28 671.42 39.28 662.16 26.27 659.32 29.07 659.32 39.28 651.01 39.28"/>
    <polygon class="cls-2" points="542.52 52.88 542.52 55.78 538.64 55.78 538.64 52.88 537.5 52.88 537.5 59.71 538.64 59.71 538.64 56.67 542.52 56.67 542.52 59.71 543.66 59.71 543.66 52.88 542.52 52.88"/>
    <path class="cls-2" d="m549.26,57.53l-1.46-3.83-1.43,3.83h2.89Zm.29.8h-3.47l-.51,1.38h-1.2l2.59-6.83h1.66l2.63,6.83h-1.18l-.52-1.38Z"/>
    <path class="cls-2" d="m553.09,58.83h1.66c.45,0,.77,0,.97-.02.49-.02.78-.16.89-.4.07-.14.1-.35.1-.63,0-.32-.03-.56-.1-.72-.1-.24-.33-.38-.69-.42-.12-.01-.4-.02-.86-.02h-1.97v2.2Zm0-3.02h1.95c.41,0,.69-.02.85-.06.31-.08.49-.24.57-.5.03-.12.05-.29.05-.52,0-.28-.03-.49-.1-.61-.1-.19-.29-.31-.58-.34-.12-.01-.3-.02-.53-.02h-2.21v2.05Zm-1.14,3.9v-6.83h3.48c.4,0,.68,0,.86.03.52.06.89.26,1.1.6.17.26.25.65.25,1.18,0,.56-.13.95-.39,1.17-.15.13-.37.23-.64.3v.02c.33.06.57.14.72.25.34.22.51.68.51,1.38,0,.84-.24,1.39-.71,1.66-.31.17-.79.26-1.44.26h-3.75Z"/>
    <polygon class="cls-2" points="559.85 53.76 559.85 55.79 563.46 55.79 563.46 56.6 559.85 56.6 559.85 58.83 563.65 58.83 563.65 59.71 558.71 59.71 558.71 52.88 563.63 52.88 563.63 53.76 559.85 53.76"/>
    <path class="cls-2" d="m565.85,56.31h2.2c.81,0,1.26-.23,1.36-.7.02-.1.03-.26.03-.49,0-.42-.03-.71-.08-.86-.12-.32-.49-.48-1.13-.48h-2.39v2.53Zm-1.14,3.41v-6.83h3.59c1.24,0,1.97.36,2.19,1.09.07.22.1.52.1.9,0,.48-.04.83-.12,1.06-.12.34-.35.57-.7.7-.13.05-.29.08-.49.11v.03c.81.05,1.22.5,1.22,1.32v1.61h-1.15v-1.39c0-.44-.1-.73-.3-.89-.2-.15-.52-.23-.95-.23h-2.25v2.51h-1.14Z"/>
    <polygon class="cls-2" points="572.92 52.88 572.92 58.77 576.55 58.77 576.55 59.71 571.77 59.71 571.77 52.88 572.92 52.88"/>
    <polygon class="cls-2" points="578.2 53.76 578.2 55.79 581.81 55.79 581.81 56.6 578.2 56.6 578.2 58.83 582 58.83 582 59.71 577.06 59.71 577.06 52.88 581.99 52.88 581.99 53.76 578.2 53.76"/>
    <path class="cls-2" d="m585.81,60.22l.58.45-1.07.97-.45-.31.94-1.1Zm2.56-5.42h-1.11c0-.33-.03-.57-.1-.71-.1-.2-.3-.33-.61-.38-.16-.03-.42-.04-.78-.04-.8,0-1.3.06-1.52.18-.23.13-.35.42-.35.86,0,.33.05.57.16.72.13.16.37.26.72.3.15.02.52.04,1.1.07.68.03,1.14.07,1.38.11.53.1.89.33,1.08.69.13.23.19.6.19,1.1,0,.77-.14,1.29-.42,1.56-.28.27-.67.43-1.19.47-.37.03-.82.05-1.35.05-.86,0-1.44-.04-1.74-.13-.63-.18-.98-.62-1.07-1.32-.02-.15-.03-.4-.04-.75h1.11v.16c0,.54.12.89.38,1.04.17.1.67.15,1.52.15.8,0,1.29-.1,1.47-.29.13-.14.2-.45.2-.94,0-.26-.03-.46-.1-.59-.1-.18-.33-.3-.69-.34-.12-.01-.49-.04-1.12-.07-.63-.03-1.03-.06-1.21-.09-.57-.08-.97-.28-1.21-.59-.21-.28-.31-.69-.31-1.25,0-.78.19-1.3.57-1.56.29-.2.68-.32,1.15-.36.33-.03.71-.04,1.15-.04.72,0,1.23.03,1.53.1.53.12.88.38,1.06.77.1.23.15.55.15.96v.16Z"/>
    <path class="cls-2" d="m597.95,52.88v6.83h-1.13v-4.56c0-.32,0-.68.03-1.08l.02-.36h-.03l-.12.32c-.1.27-.23.59-.37.97l-2.07,4.72h-1.07l-2.07-4.68-.37-.96-.13-.32h-.03v.34c.04.46.05.81.05,1.05v4.56h-1.13v-6.83h1.88l1.64,3.77c.06.14.23.55.5,1.25l.16.41h.03l.16-.41c.24-.63.4-1.04.49-1.25l1.63-3.77h1.92Z"/>
    <polygon class="cls-2" points="600.23 53.76 600.23 55.79 603.84 55.79 603.84 56.6 600.23 56.6 600.23 58.83 604.03 58.83 604.03 59.71 599.09 59.71 599.09 52.88 604.01 52.88 604.01 53.76 600.23 53.76"/>
    <polygon class="cls-2" points="610.66 53.82 610.66 59.71 609.52 59.71 609.52 53.82 607.24 53.82 607.24 52.88 612.96 52.88 612.96 53.82 610.66 53.82"/>
    <polygon class="cls-2" points="614.61 53.76 614.61 55.79 618.22 55.79 618.22 56.6 614.61 56.6 614.61 58.83 618.41 58.83 618.41 59.71 613.47 59.71 613.47 52.88 618.4 52.88 618.4 53.76 614.61 53.76"/>
    <polygon class="cls-2" points="620.62 52.88 620.62 55.76 621.31 55.76 624.06 52.88 625.49 52.88 622.3 56.2 625.85 59.71 624.36 59.71 621.32 56.67 620.62 56.67 620.62 59.71 619.48 59.71 619.48 52.88 620.62 52.88"/>
    <path class="cls-2" d="m633.06,52.88v6.83h-1.9l-2.61-4.18c-.1-.16-.35-.6-.74-1.31l-.24-.44h-.03v.36c.01.36.02.71.02,1.07v4.51h-1.13v-6.83h1.89l2.31,3.76c.24.39.57.94.97,1.64l.32.55h.03v-.35c-.02-.35-.03-.7-.03-1.05v-4.54h1.13Z"/>
    <path class="cls-2" d="m639.21,57.23v-1.91c0-.64-.12-1.07-.35-1.3-.16-.15-.43-.25-.82-.29-.13-.01-.43-.02-.91-.02-.76,0-1.25.04-1.47.13-.42.16-.63.66-.63,1.49v.96c0,.76,0,1.21.02,1.36.06.59.26.95.6,1.08.23.09.73.14,1.5.14.46,0,.76,0,.9-.03.39-.04.66-.14.82-.3.1-.1.18-.26.24-.48.07-.24.1-.52.1-.84m-1.98-4.42c.91,0,1.55.08,1.93.23.63.25,1.01.78,1.15,1.6.04.24.06.75.06,1.51,0,.91-.02,1.51-.07,1.79-.12.8-.47,1.32-1.05,1.58-.31.14-.72.22-1.2.25-.25.01-.58.02-.97.02-1.01,0-1.71-.09-2.11-.28-.68-.32-1.03-1.02-1.07-2.09,0-.23-.01-.59-.01-1.07,0-.83.02-1.39.07-1.67.13-.82.5-1.36,1.13-1.61.28-.12.65-.19,1.11-.22.28-.02.63-.02,1.05-.02"/>
    <polygon class="cls-2" points="642.46 52.88 642.46 58.77 646.09 58.77 646.09 59.71 641.32 59.71 641.32 52.88 642.46 52.88"/>
    <path class="cls-2" d="m651.7,57.23v-1.91c0-.64-.12-1.07-.35-1.3-.16-.15-.43-.25-.82-.29-.13-.01-.43-.02-.91-.02-.76,0-1.25.04-1.47.13-.42.16-.63.66-.63,1.49v.96c0,.76,0,1.21.02,1.36.06.59.26.95.6,1.08.23.09.73.14,1.5.14.46,0,.76,0,.9-.03.39-.04.66-.14.82-.3.1-.1.18-.26.24-.48.07-.24.1-.52.1-.84m-1.98-4.42c.91,0,1.55.08,1.92.23.63.25,1.01.78,1.15,1.6.04.24.06.75.06,1.51,0,.91-.02,1.51-.06,1.79-.12.8-.48,1.32-1.06,1.58-.31.14-.72.22-1.2.25-.25.01-.58.02-.97.02-1.01,0-1.71-.09-2.11-.28-.68-.32-1.03-1.02-1.07-2.09,0-.23-.01-.59-.01-1.07,0-.83.02-1.39.07-1.67.13-.82.5-1.36,1.13-1.61.28-.12.65-.19,1.1-.22.28-.02.64-.02,1.06-.02"/>
    <path class="cls-2" d="m658.13,52.88v4.77c0,.73-.1,1.22-.3,1.48-.2.26-.48.44-.83.54-.29.08-.69.11-1.2.11-.59,0-1.04-.05-1.36-.14-.5-.15-.82-.42-.95-.82-.06-.19-.09-.57-.09-1.12,0-.2,0-.39.01-.57h1.1v.61c0,.35.02.59.07.72.09.23.28.36.57.4.18.02.39.03.63.03.42,0,.71-.05.86-.14.2-.13.32-.37.34-.72.01-.16.02-.33.02-.52v-4.62h1.14Z"/>
    <path class="cls-2" d="m660.53,52.04h-.93v-.75h.93v.75Zm.1,7.67h-1.14v-6.83h1.14v6.83Z"/>
    <polygon class="cls-2" points="663.14 52.88 663.14 58.77 666.77 58.77 666.77 59.71 661.99 59.71 661.99 52.88 663.14 52.88"/>
    <polygon class="cls-2" points="668.42 53.76 668.42 55.79 672.03 55.79 672.03 56.6 668.42 56.6 668.42 58.83 672.22 58.83 672.22 59.71 667.28 59.71 667.28 52.88 672.21 52.88 672.21 53.76 668.42 53.76"/>
    <path class="cls-2" d="m674.42,56.31h2.2c.81,0,1.26-.23,1.36-.7.02-.1.03-.26.03-.49,0-.42-.03-.71-.08-.86-.12-.32-.49-.48-1.13-.48h-2.39v2.53Zm-1.14,3.41v-6.83h3.59c1.24,0,1.97.36,2.19,1.09.07.22.1.52.1.9,0,.48-.04.83-.12,1.06-.12.34-.35.57-.7.7-.13.05-.29.08-.49.11v.03c.81.05,1.22.5,1.22,1.32v1.61h-1.15v-1.39c0-.44-.1-.73-.3-.89-.2-.15-.52-.23-.95-.23h-2.25v2.51h-1.14Z"/>
    <path class="cls-2" d="m681.39,52.04h-.93v-.75h.93v.75Zm.1,7.67h-1.14v-6.83h1.14v6.83Z"/>
    <polygon class="cls-2" points="577.9 64.82 575.16 67.68 574.46 67.68 574.46 64.82 573.32 64.82 573.32 71.6 574.46 71.6 574.46 68.58 575.16 68.58 578.21 71.6 579.69 71.6 576.15 68.11 579.33 64.82 577.9 64.82"/>
    <path class="cls-2" d="m584.76,63.99h-.93v-.75h.93v.75Zm-2,0h-.93v-.75h.93v.75Zm2.41.83h1.14v4.63c0,.6-.07,1.03-.21,1.3-.2.4-.58.67-1.13.8-.3.08-.84.12-1.61.12-.99,0-1.66-.07-2.01-.19-.44-.16-.74-.42-.9-.77-.12-.27-.18-.67-.18-1.21v-4.67h1.14v4.67c0,.44.05.73.14.88.12.18.35.3.7.36.19.03.52.05.98.05.69,0,1.16-.04,1.41-.12.29-.09.46-.35.51-.77.01-.1.02-.24.02-.43v-4.64Z"/>
    <path class="cls-2" d="m596.09,64.82v6.78h-1.13v-4.53c0-.32,0-.68.03-1.07l.02-.36h-.03l-.12.32c-.1.27-.23.59-.37.96l-2.07,4.68h-1.07l-2.07-4.64-.37-.95-.13-.32h-.03v.34c.04.46.05.8.05,1.04v4.53h-1.13v-6.78h1.88l1.65,3.74c.06.14.23.55.5,1.24l.16.41h.03l.16-.41c.24-.62.4-1.03.49-1.24l1.63-3.75h1.92Z"/>
    <polygon class="cls-2" points="597.23 64.82 597.23 71.6 602.17 71.6 602.17 70.73 598.37 70.73 598.37 68.52 601.98 68.52 601.98 67.71 598.37 67.71 598.37 65.69 602.16 65.69 602.16 64.82 597.23 64.82"/>
    <polygon class="cls-2" points="603.23 64.82 603.23 71.6 608.01 71.6 608.01 70.67 604.37 70.67 604.37 64.82 603.23 64.82"/>
    <polygon class="cls-2" points="608.52 64.82 608.52 71.6 613.46 71.6 613.46 70.73 609.66 70.73 609.66 68.52 613.27 68.52 613.27 67.71 609.66 67.71 609.66 65.69 613.45 65.69 613.45 64.82 608.52 64.82"/>
    <path class="cls-2" d="m621.15,64.82v6.78h-1.9l-2.61-4.15c-.1-.16-.35-.6-.74-1.3l-.24-.44h-.03v.35c.01.35.02.71.02,1.06v4.48h-1.13v-6.78h1.89l2.31,3.73c.24.39.57.93.97,1.62l.31.54h.03v-.35c-.02-.35-.03-.7-.03-1.04v-4.51h1.13Z"/>
    <path class="cls-2" d="m630.93,64.82v6.78h-1.13v-4.53c0-.32,0-.68.03-1.07l.02-.36h-.03l-.12.32c-.1.27-.23.59-.37.96l-2.07,4.68h-1.07l-2.07-4.64-.38-.95-.13-.32h-.03v.34c.04.46.05.8.05,1.04v4.53h-1.13v-6.78h1.88l1.64,3.74c.06.14.23.55.5,1.24l.16.41h.03l.16-.41c.24-.62.4-1.03.49-1.24l1.63-3.75h1.92Z"/>
    <polygon class="cls-2" points="632.07 64.82 632.07 71.6 637.01 71.6 637.01 70.73 633.21 70.73 633.21 68.52 636.82 68.52 636.82 67.71 633.21 67.71 633.21 65.69 636.99 65.69 636.99 64.82 632.07 64.82"/>
    <path class="cls-2" d="m643.37,66.73h-1.11c0-.33-.03-.56-.1-.71-.1-.2-.31-.33-.61-.38-.16-.03-.42-.04-.78-.04-.8,0-1.3.06-1.52.18-.23.13-.35.42-.35.85,0,.33.05.57.16.71.13.16.37.26.72.3.15.02.52.04,1.1.06.68.03,1.14.07,1.38.11.53.1.89.33,1.08.68.13.23.19.6.19,1.09,0,.76-.14,1.28-.42,1.54-.28.27-.68.42-1.19.47-.37.03-.82.05-1.35.05-.86,0-1.44-.04-1.74-.13-.63-.18-.98-.62-1.07-1.31-.02-.14-.03-.39-.04-.74h1.11v.15c0,.54.12.88.37,1.03.17.1.67.15,1.52.15.8,0,1.29-.1,1.47-.29.13-.14.2-.45.2-.93,0-.26-.04-.45-.1-.58-.1-.18-.33-.29-.69-.34-.12-.01-.49-.04-1.12-.07-.63-.03-1.03-.06-1.21-.09-.57-.08-.98-.27-1.21-.58-.21-.27-.31-.69-.31-1.24,0-.77.19-1.29.57-1.54.29-.2.68-.32,1.15-.36.33-.03.71-.04,1.15-.04.72,0,1.23.03,1.53.1.53.12.88.37,1.05.77.1.23.15.55.15.95v.15Z"/>
    <path class="cls-2" d="m644.53,71.6h1.14v-6.78h-1.14v6.78Zm.11-7.61h.93v-.75h-.93v.75Z"/>
  </g>
  <path class="cls-2" d="m34,1.55l-15.67,13.1v8.92h11.63l8.48-7.1h4.06l15.86,18.98-.39,3.19-3.21-.17-12.06-14.42-3.6,3.02,12.06,14.42-.39,3.19-3.21-.17-12.06-14.42-3.6,3.02,12.06,14.42-.39,3.19-3.17-.19-4.42-2.43-1.38-4.89-4.65-2.33-1.39-4.9-4.63-2.3-1.89-5.49h-9.35l-4.94,4.15L0,23.58v46.54h174.02V1.55H34ZM8.5,40.79l-.71-2.47,7.16-5.99h3.67l.67,2.51-8.48,7.09-2.31-1.14Zm5.93,7.08l-.71-2.47,8.48-7.09,2.35,1.1.67,2.51-8.48,7.09-2.31-1.14Zm5.93,7.1l-.71-2.47,8.48-7.09,2.35,1.1.67,2.51-8.48,7.09-2.31-1.14Zm8.24,8.21l-2.31-1.14-.71-2.47,8.48-7.09,2.35,1.1.67,2.51-8.48,7.09Zm140.72,2.22H62.85v-31.91l-18.19-21.75h-7.81s-8.46,7.1-8.46,7.1h-5.23l-.06-1.8,12.89-10.78h133.33v59.15Z"/>
  <path class="cls-2" d="m76.21,34.46v-6.43l1.13,2.95-6.66-11.18h5.21l4.5,7.64h-3.04l4.54-7.64h4.77l-6.62,11.18,1.09-2.95v6.43h-4.94Z"/>
  <path class="cls-2" d="m92.16,30.73h7.33v3.73h-12.18v-14.65h11.91v3.73h-7.05v7.2Zm-.34-5.48h6.53v3.56h-6.53v-3.56Z"/>
  <path class="cls-2" d="m101.39,34.46v-14.65h7.05c1.37,0,2.55.22,3.55.67,1,.45,1.77,1.09,2.31,1.92.54.83.82,1.81.82,2.94s-.27,2.1-.82,2.92-1.32,1.44-2.31,1.87c-1,.43-2.18.65-3.55.65h-4.31l2.2-2.03v5.71h-4.94Zm4.94-5.17l-2.2-2.24h4c.68,0,1.19-.15,1.52-.46s.49-.73.49-1.26-.16-.95-.49-1.26-.83-.46-1.52-.46h-4l2.2-2.24v7.91Zm3.83,5.17l-3.6-5.34h5.23l3.64,5.34h-5.28Z"/>
  <path class="cls-2" d="m116.99,34.46v-14.65h4.94v10.82h6.62v3.83h-11.56Z"/>
  <path class="cls-2" d="m129.91,34.46v-14.65h4.94v14.65h-4.94Zm2.47-15.64c-.7,0-1.27-.22-1.72-.67-.45-.45-.67-1.02-.67-1.72s.22-1.27.67-1.72c.45-.45,1.02-.67,1.72-.67s1.27.22,1.72.67c.45.45.67,1.02.67,1.72s-.22,1.27-.67,1.72c-.45.45-1.02.67-1.72.67Z"/>
  <path class="cls-2" d="m76.21,55.95v-6.43l1.13,2.95-6.66-11.18h5.21l4.5,7.64h-3.04l4.54-7.64h4.77l-6.62,11.18,1.09-2.95v6.43h-4.94Z"/>
  <path class="cls-2" d="m84.77,55.95l6.41-14.65h4.86l6.41,14.65h-5.11l-4.73-12.31h1.93l-4.73,12.31h-5.02Zm3.81-2.55l1.26-3.56h6.74l1.26,3.56h-9.25Z"/>
  <path class="cls-2" d="m102.71,55.95v-3.04l8.16-9.5.61,1.72h-8.56v-3.83h12.92v3.04l-8.16,9.5-.61-1.72h9.11v3.83h-13.46Z"/>
  <path class="cls-2" d="m117.62,55.95v-14.65h4.94v14.65h-4.94Z"/>
  <path class="cls-2" d="m124.94,55.95v-14.65h4.94v10.82h6.62v3.83h-11.56Z"/>
  <path class="cls-2" d="m137.86,55.95v-14.65h4.94v14.65h-4.94Z"/>
  <path class="cls-2" d="m145.19,55.95v-14.65h4.06l5.86,9.57h-2.14l5.69-9.57h4.06l.04,14.65h-4.5l-.04-7.87h.71l-3.89,6.55h-2.18l-4.06-6.55h.88v7.87h-4.5Z"/>
  <g>
    <path class="cls-1" d="m313.14,12.23h-4.12v-3.01h12.02v3.01h-4.1v10.41h-3.8v-10.41Z"/>
    <path class="cls-1" d="m323.79,21.28c-1.11-1.09-1.66-2.63-1.66-4.62v-7.44h3.8v7.32c0,2.15.85,3.22,2.55,3.22s2.53-1.07,2.53-3.22v-7.32h3.74v7.44c0,1.99-.55,3.53-1.66,4.62-1.11,1.09-2.66,1.63-4.65,1.63s-3.54-.54-4.65-1.63Zm1.57-13.54c-.29-.27-.43-.64-.43-1.08s.14-.81.43-1.09c.29-.28.65-.42,1.08-.42s.8.14,1.08.42c.29.28.43.65.43,1.09s-.14.81-.43,1.08c-.29.27-.65.41-1.08.41s-.8-.14-1.08-.41Zm4.06,0c-.29-.27-.43-.64-.43-1.08s.14-.81.43-1.09c.29-.28.65-.42,1.08-.42s.8.14,1.08.42c.29.28.43.65.43,1.09s-.14.81-.43,1.08c-.29.27-.65.41-1.08.41s-.8-.14-1.08-.41Z"/>
    <path class="cls-1" d="m343.19,19.08h-2.07v3.57h-3.8v-13.42h6.13c1.21,0,2.27.2,3.16.6.89.4,1.58.98,2.07,1.73.49.75.73,1.63.73,2.64s-.23,1.82-.68,2.54c-.45.72-1.1,1.29-1.95,1.7l2.89,4.22h-4.06l-2.43-3.57Zm1.8-6.35c-.4-.35-.98-.52-1.76-.52h-2.11v3.93h2.11c.78,0,1.37-.17,1.76-.51.4-.34.59-.82.59-1.45s-.2-1.11-.59-1.46Z"/>
    <path class="cls-1" d="m356.68,17.77l-1.42,1.51v3.36h-3.76v-13.42h3.76v5.58l5.2-5.58h4.18l-5.48,5.94,5.77,7.48h-4.41l-3.83-4.87Z"/>
    <path class="cls-1" d="m366.45,7.63c-.35-.36-.53-.81-.53-1.36s.18-1,.54-1.35c.36-.35.81-.53,1.36-.53s1,.18,1.36.53c.36.35.54.8.54,1.35s-.18,1-.54,1.36c-.36.36-.81.54-1.36.54s-1.02-.18-1.37-.54Zm-.53,1.59h3.8v13.42h-3.8v-13.42Z"/>
    <path class="cls-1" d="m379.61,17.83v4.81h-3.8v-4.87l-5.12-8.55h4.01l3.18,5.33,3.18-5.33h3.68l-5.14,8.61Z"/>
    <path class="cls-1" d="m396.42,19.71v2.93h-10.77v-13.42h10.53v2.93h-6.77v2.26h5.96v2.84h-5.96v2.45h7.02Z"/>
    <path class="cls-1" d="m311.84,43.78c-1.02-.27-1.85-.63-2.49-1.07l1.25-2.8c.6.4,1.3.72,2.09.96.79.24,1.57.36,2.34.36,1.46,0,2.19-.36,2.19-1.09,0-.38-.21-.67-.62-.85-.42-.19-1.08-.38-2-.58-1.01-.22-1.85-.45-2.53-.7-.68-.25-1.26-.65-1.74-1.2-.49-.55-.73-1.29-.73-2.22,0-.82.22-1.56.67-2.21.45-.66,1.11-1.18,2-1.56.89-.38,1.98-.58,3.27-.58.88,0,1.75.1,2.61.3.86.2,1.61.49,2.26.87l-1.17,2.82c-1.28-.69-2.52-1.04-3.72-1.04-.75,0-1.3.11-1.65.34-.35.22-.52.51-.52.87s.2.63.61.81c.41.18,1.07.36,1.97.56,1.02.22,1.87.45,2.54.7.67.25,1.25.65,1.74,1.19.49.54.74,1.28.74,2.21,0,.81-.22,1.53-.67,2.19-.45.65-1.12,1.17-2.01,1.56-.89.39-1.98.58-3.26.58-1.09,0-2.14-.13-3.16-.4Z"/>
    <path class="cls-1" d="m323.22,28.9c-.35-.36-.53-.81-.53-1.36s.18-1,.54-1.35c.36-.35.81-.53,1.36-.53s1,.18,1.36.53c.36.35.54.8.54,1.35s-.18,1-.54,1.36c-.36.36-.81.54-1.36.54s-1.02-.18-1.37-.54Zm-.53,1.59h3.8v13.42h-3.8v-13.42Z"/>
    <path class="cls-1" d="m341.31,38.17c.43.57.65,1.26.65,2.06,0,1.18-.47,2.08-1.42,2.72-.95.64-2.31.96-4.1.96h-7.25v-13.42h6.86c1.71,0,3.02.32,3.91.95.89.63,1.34,1.49,1.34,2.56,0,.64-.16,1.21-.47,1.72-.31.5-.76.9-1.33,1.2.77.27,1.37.69,1.8,1.26Zm-8.36-4.94v2.59h2.61c1.28,0,1.92-.43,1.92-1.3s-.64-1.28-1.92-1.28h-2.61Zm5.18,6.58c0-.91-.66-1.36-1.99-1.36h-3.18v2.72h3.18c1.33,0,1.99-.45,1.99-1.36Z"/>
    <path class="cls-1" d="m354.71,40.98v2.93h-10.77v-13.42h10.52v2.93h-6.77v2.26h5.96v2.84h-5.96v2.45h7.02Z"/>
    <path class="cls-1" d="m362.68,40.34h-2.07v3.57h-3.8v-13.42h6.13c1.21,0,2.27.2,3.16.6.89.4,1.58.98,2.07,1.73.49.75.73,1.63.73,2.64s-.23,1.82-.68,2.54c-.45.72-1.1,1.29-1.95,1.7l2.89,4.22h-4.06l-2.43-3.57Zm1.8-6.35c-.4-.35-.98-.52-1.76-.52h-2.11v3.93h2.11c.78,0,1.37-.17,1.76-.51.4-.34.59-.82.59-1.45s-.2-1.11-.59-1.46Z"/>
    <path class="cls-1" d="m385.57,36.91h3.35v5.56c-.77.55-1.65.97-2.65,1.27-1,.29-1.99.44-2.99.44-1.41,0-2.67-.3-3.8-.89-1.12-.59-2.01-1.42-2.65-2.48-.64-1.06-.96-2.26-.96-3.6s.32-2.54.96-3.6c.64-1.06,1.53-1.89,2.66-2.48,1.14-.59,2.42-.89,3.85-.89,1.25,0,2.38.21,3.37.63,1,.42,1.83,1.03,2.49,1.82l-2.42,2.19c-.91-1-1.99-1.5-3.26-1.5-1.15,0-2.08.35-2.78,1.04-.7.7-1.05,1.63-1.05,2.79,0,.74.16,1.4.48,1.98.32.58.77,1.04,1.34,1.36.58.33,1.23.49,1.97.49s1.41-.15,2.05-.44v-3.68Z"/>
    <path class="cls-1" d="m392.89,42.55c-1.11-1.09-1.66-2.63-1.66-4.62v-7.44h3.8v7.32c0,2.15.85,3.22,2.55,3.22s2.53-1.07,2.53-3.22v-7.32h3.74v7.44c0,1.99-.55,3.53-1.66,4.62-1.11,1.09-2.66,1.63-4.65,1.63s-3.54-.54-4.65-1.63Zm1.57-13.54c-.29-.27-.43-.64-.43-1.08s.14-.81.43-1.09c.29-.28.65-.42,1.08-.42s.8.14,1.08.42c.29.28.43.65.43,1.09s-.14.81-.43,1.08c-.29.27-.65.41-1.08.41s-.8-.14-1.08-.41Zm4.06,0c-.29-.27-.43-.64-.43-1.08s.14-.81.43-1.09c.29-.28.65-.42,1.08-.42s.8.14,1.08.42c.29.28.43.65.43,1.09s-.14.81-.43,1.08c-.29.27-.65.41-1.08.41s-.8-.14-1.08-.41Z"/>
    <path class="cls-1" d="m420.02,30.49l-5.75,13.42h-3.74l-5.73-13.42h4.1l3.64,8.74,3.72-8.74h3.76Z"/>
    <path class="cls-1" d="m431.58,40.98v2.93h-10.77v-13.42h10.53v2.93h-6.77v2.26h5.96v2.84h-5.96v2.45h7.02Z"/>
    <path class="cls-1" d="m446.46,30.49v13.42h-3.12l-5.92-7.15v7.15h-3.72v-13.42h3.12l5.92,7.15v-7.15h3.72Z"/>
    <path class="cls-1" d="m449.14,30.49h3.8v10.41h6.4v3.01h-10.2v-13.42Z"/>
    <path class="cls-1" d="m461.37,28.9c-.35-.36-.53-.81-.53-1.36s.18-1,.54-1.35c.36-.35.81-.53,1.36-.53s1,.18,1.36.53c.36.35.54.8.54,1.35s-.18,1-.54,1.36c-.36.36-.81.54-1.36.54s-1.02-.18-1.37-.54Zm-.53,1.59h3.8v13.42h-3.8v-13.42Z"/>
    <path class="cls-1" d="m472.51,39.04l-1.42,1.51v3.36h-3.76v-13.42h3.76v5.58l5.2-5.58h4.18l-5.48,5.94,5.77,7.48h-4.41l-3.83-4.87Z"/>
    <path class="cls-1" d="m315.46,60.31l-1.42,1.51v3.36h-3.76v-13.42h3.76v5.58l5.2-5.58h4.18l-5.48,5.94,5.77,7.48h-4.41l-3.83-4.87Z"/>
    <path class="cls-1" d="m326.06,63.82c-1.11-1.09-1.66-2.63-1.66-4.62v-7.44h3.8v7.32c0,2.15.85,3.22,2.55,3.22s2.53-1.07,2.53-3.22v-7.32h3.74v7.44c0,1.99-.55,3.53-1.66,4.62-1.11,1.09-2.66,1.63-4.65,1.63s-3.54-.54-4.65-1.63Zm1.57-13.54c-.29-.27-.43-.64-.43-1.08s.14-.81.43-1.09c.29-.28.65-.42,1.08-.42s.8.14,1.08.42c.29.28.43.65.43,1.09s-.14.81-.43,1.08c-.29.27-.65.41-1.08.41s-.8-.14-1.08-.41Zm4.06,0c-.29-.27-.43-.64-.43-1.08s.14-.81.43-1.09c.29-.28.65-.42,1.08-.42s.8.14,1.08.42c.29.28.43.65.43,1.09s-.14.81-.43,1.08c-.29.27-.65.41-1.08.41s-.8-.14-1.08-.41Z"/>
    <path class="cls-1" d="m351.7,65.18l-.04-7.11-3.45,5.79h-1.69l-3.43-5.6v6.92h-3.51v-13.42h3.12l4.72,7.75,4.6-7.75h3.12l.04,13.42h-3.49Z"/>
    <path class="cls-1" d="m368.64,62.24v2.93h-10.77v-13.42h10.53v2.93h-6.77v2.26h5.96v2.84h-5.96v2.45h7.02Z"/>
    <path class="cls-1" d="m370.75,51.76h3.8v10.41h6.4v3.01h-10.2v-13.42Z"/>
    <path class="cls-1" d="m393.22,62.24v2.93h-10.77v-13.42h10.53v2.93h-6.77v2.26h5.96v2.84h-5.96v2.45h7.02Z"/>
    <path class="cls-1" d="m408.1,51.76v13.42h-3.12l-5.92-7.15v7.15h-3.72v-13.42h3.12l5.92,7.15v-7.15h3.72Z"/>
    <path class="cls-1" d="m422.9,65.18l-.04-7.11-3.45,5.79h-1.69l-3.43-5.6v6.92h-3.51v-13.42h3.12l4.72,7.75,4.6-7.75h3.13l.04,13.42h-3.49Z"/>
    <path class="cls-1" d="m439.85,62.24v2.93h-10.77v-13.42h10.53v2.93h-6.77v2.26h5.96v2.84h-5.96v2.45h7.02Z"/>
    <path class="cls-1" d="m443.51,65.04c-1.02-.27-1.85-.63-2.49-1.07l1.25-2.8c.6.4,1.3.72,2.09.96.79.24,1.57.36,2.34.36,1.46,0,2.19-.36,2.19-1.09,0-.38-.21-.67-.62-.85-.42-.19-1.08-.38-2-.58-1.01-.22-1.85-.45-2.53-.7-.68-.25-1.26-.65-1.74-1.2-.49-.55-.73-1.29-.73-2.22,0-.82.22-1.56.67-2.21.45-.66,1.11-1.18,2-1.56.89-.38,1.98-.58,3.27-.58.88,0,1.75.1,2.61.3.86.2,1.61.49,2.26.87l-1.17,2.82c-1.28-.69-2.52-1.04-3.72-1.04-.75,0-1.3.11-1.65.34-.35.22-.52.51-.52.87s.2.63.61.81c.41.18,1.07.36,1.97.56,1.02.22,1.87.45,2.54.7.67.25,1.25.65,1.74,1.19.49.54.74,1.28.74,2.21,0,.81-.22,1.53-.67,2.19-.45.65-1.12,1.17-2.01,1.56-.89.39-1.98.58-3.26.58-1.09,0-2.14-.13-3.16-.4Z"/>
    <path class="cls-1" d="m454.89,50.17c-.35-.36-.53-.81-.53-1.36s.18-1,.54-1.35c.36-.35.81-.53,1.36-.53s1,.18,1.36.53c.36.35.54.8.54,1.35s-.18,1-.54,1.36c-.36.36-.81.54-1.36.54s-1.02-.18-1.37-.54Zm-.53,1.59h3.8v13.42h-3.8v-13.42Z"/>
    <g>
      <path class="cls-2" d="m267.63,53.48c6.05-.08,11.13-2.35,15.27-6.75.6-.64,1.09-1.26.76-2.28-.24-.75.58-1.83,1.38-2.13,1.03-.38,2-.09,2.6.76.55.79.54,1.95-.05,2.62-.49.56-1.09.91-1.86.86-.41-.03-.69.09-.96.43-2.19,2.7-4.88,4.77-8.04,6.19-2.05.92-4.21,1.46-6.45,1.81-2.66.41-5.23.14-7.81-.45-5.95-1.37-10.52-4.72-13.88-9.78-1.04-1.57-1.86-3.26-2.43-5.04-.85-2.63-1.24-5.36-1.1-8.14.03-.6.17-1.2.26-1.8.08-.58-.01-1.02-.59-1.4-2.26-1.5-4.11-3.43-5.6-5.72-.21-.33-.23-.55-.02-.88,1.88-2.99,4.24-5.54,7.08-7.64,1.02-.75,2.11-1.38,3.19-2.05.67-.42,1.27-.37,1.94-.13,1.28.46,2.56.91,3.84,1.37.7.25,1.29-.08,1.86-.4,4.09-2.32,8.52-2.89,13.11-2.53.79.06,1.42.03,2.13-.34,1.12-.58,2.5.11,3.02,1.37.35.83-.28,2.16-1.22,2.6-1.15.54-2.5.13-2.89-1.09-.38-1.19-1.36-.89-2.05-.94-2.15-.15-4.29-.03-6.41.49-2.2.54-4.26,1.33-6.17,2.55-.8.51-1.46-.12-2.15-.31-1.24-.33-2.43-.82-3.65-1.19-.79-.24-1.34.38-1.91.74-2.92,1.85-5.42,4.16-7.43,6.98-.66.93-.6,1.01.07,1.9,1.43,1.92,3.27,3.37,5.24,4.67.38.25.55.56.42.95-.51,1.56-.29,3.17-.3,4.76-.03,4.25,1.43,8.01,3.87,11.42,2.4,3.35,5.58,5.72,9.38,7.21,2.41.94,4.95,1.36,7.56,1.32Z"/>
      <path class="cls-2" d="m265.04,65.74s-.03.05-.04.05v-.09s.02-.01.03-.01c0,.02,0,.03,0,.05Z"/>
      <path class="cls-2" d="m237.42,26.45c1.15,1.43,2.47,2.66,3.99,3.69.39.26.55.53.42,1.07-.75,3.1-.72,6.21-.06,9.33.05.22.05.45.07.68.34,1.03.53,2.11,1.08,3.06,1.01,2.13,2.23,4.13,3.86,5.85.47.5.91,1.05,1.48,1.41,1.11.71,1.31,1.84,1.6,2.96.34,1.32.71,2.63,1.05,3.94.09.35.3.53.63.68,1.24.55,2.53.96,3.83,1.38.48.15.8.15,1.19-.28.73-.8,1.84-.87,2.71-.31.89.56,1.2,1.6.82,2.73-.27.82-1.23,1.39-2.24,1.32-.95-.06-1.69-.77-1.88-1.78-.11-.35-.43-.42-.71-.48-1.85-.4-3.55-1.19-5.24-1.98-.54-.76-.61-1.69-.82-2.55-.28-1.17-.73-2.3-.89-3.5-.05-.35-.34-.6-.6-.84-1.76-1.6-3.41-3.3-4.54-5.42-.92-1.66-1.75-3.37-2.26-5.2-.43-1.52-.8-3.08-.84-4.68-.04-2-.1-4,.4-5.97.1-.38,0-.65-.37-.79-.65-.44-1.29-.91-1.81-1.52-.54-.55-.88-.51-1.02.19-.28,1.33-.49,2.67-.66,4.03-.15,1.19-.19,2.37-.12,3.55.11,1.81.38,3.6.81,5.37.43,1.33.8,2.68,1.38,3.96.11.25.2.52.41.71.65,1.02,1.14,2.13,1.86,3.11.26.37.5.48.93.47,1.02-.03,1.93.52,2.21,1.29.37,1.02.16,1.84-.66,2.6-.92.86-2.74.57-3.16-.57-.35-.66-.39-1.37-.12-2.05.17-.43.09-.72-.2-1.02-1.09-1.44-1.94-3.02-2.58-4.71-.29-.74-.44-1.53-.82-2.24-.39-1.47-.73-2.95-.97-4.46-.04-.22-.05-.45.12-.64.42-1.02.19-2.09.24-3.14.03-.63,0-1.25,0-1.73-.14,1.51.23,3.2-.23,4.85-.24.03-.21-.14-.22-.29-.31-3.89.08-7.7,1.34-11.4.09-.25-.01-.8.58-.66Z"/>
      <path class="cls-2" d="m261.33,61.99c-.09-1.01.5-1.65,1.25-2.03.78-.39,1.76-.35,2.29.36.67.9,1.45.75,2.27.57,3.65-.79,7.02-2.23,10.04-4.43.73-.53,1.41-1.15,2.12-1.72.32-.26.35-.57.27-.96-.23-1.11.39-2.11,1.55-2.52.92-.33,1.96.14,2.52,1.03.53.84.36,1.62-.15,2.33-.56.77-1.39,1.15-2.33.9-.51-.13-.78,0-1.13.31-2.99,2.65-6.41,4.58-10.23,5.77-1.13.35-2.3.6-3.47.8-.48.08-.74.27-.99.67-.96,1.52-2.81,1.5-3.78-.02-.22-.34-.26-.7-.24-1.06Z"/>
      <path class="cls-2" d="m249.18,23.09c.87.86.52,2.14-.45,2.95-.83.69-2.04.6-2.88-.24-.78-.79-.83-2.05-.11-2.88.42-.48.93-.82,1.56-.82.5,0,.74-.25.93-.63.44-.89,1.02-1.68,1.67-2.42.38-.43.36-.92.33-1.43-.07-1.13.79-2.16,1.97-2.28.95-.1,1.67.34,2.15,1.14.49.81.35,1.62-.16,2.35-.56.82-1.42,1.08-2.35.82-.56-.16-.85-.02-1.14.41-.45.67-.92,1.32-1.38,1.98-.31.31-.46.65-.14,1.04Z"/>
      <path class="cls-2" d="m276.46,7.69c.84.29,1.56.79,2.3,1.25.29.18.54.21.85.11,1.22-.4,2.27.12,2.77,1.36.39.98-.11,2.12-1.16,2.64-1.01.5-2.17.13-2.78-.92-.12-.21-.33-.42-.29-.69.15-.93-.49-1.27-1.15-1.61-.96-.49-1.91-.99-2.86-1.49-1.39-.68-2.88-1.1-4.35-1.54-.77-.23-1.58-.36-2.38-.53.15-.36.47-.18.62-.23-.17.02-.5-.14-.67.21-.53.05-1.01-.17-1.51-.27-.26-.25-.03-.31.15-.39.16-.07.41.08.5-.19.26-.49.8-.35,1.19-.54,2.36.38,4.64,1.02,6.82,2.01.12.05.24.07.36.11.57.15,1.06.46,1.6.69Z"/>
      <path class="cls-2" d="m291.82,42.29c0-.09,0-.19-.03-.27.04.08.06.17.03.27Zm-28.33-37.67s.09.01.13.02c.07,0,.14.01.2.01-.11-.01-.22-.03-.33-.03Zm-5.33,1.26s-.01,0-.02.01h.03s0-.01,0-.01Z"/>
      <path class="cls-2" d="m252.5,5.9c-.4.55-1.09.46-1.63.67-2.69,1.07-5.21,2.42-7.52,4.18-2.67,2.04-5.02,4.4-6.96,7.13-1.06,1.5-1.95,3.13-2.73,4.82-.92,2-1.53,4.09-2.17,6.17-.12.4.15.87-.2,1.23-.18-.41-.06-.82,0-1.23.15-1.05.48-2.06.82-3.05.88-2.58,2.06-5.02,3.57-7.3,1.74-2.63,3.82-4.97,6.24-6.99,2.42-2.02,5.08-3.64,7.97-4.87.71-.3,1.46-.53,2.19-.79.14-.11.28-.12.42.01Z"/>
      <path class="cls-2" d="m291.83,39.57c.11.19.18.4.14.63-.06.05-.1.05-.14-.02-.18-.4-.6-.6-.81-.99-.52-.93-.49-1.71.16-2.53.55-.69,1.57-.99,2.4-.71.81.28,1.57,1.24,1.54,2.07-.03.81-.48,1.44-1.14,1.88-.38.25-.59.6-.61.99-.09,1.27-.47,2.47-.8,3.68-.85,3.14-2.2,6.05-4.03,8.74-.25.37-.39.83-.81,1.08-.08-.05-.09-.11-.02-.18.72-1.2,1.49-2.37,2.14-3.61.67-1.26,1.21-2.59,1.74-3.92.42-1.03.56-2.14,1.03-3.15.27-.58.33-1.31.4-1.97.06-.58.13-1.14.34-1.69.05-.19.22-.26.37-.36.77-.54,1.04-1.75.57-2.47-.49-.75-1.62-.95-2.41-.43-.81.53-.98,1.59-.39,2.48.11.17.3.28.34.49Z"/>
      <path class="cls-2" d="m232.69,42.46c-.21-.95-.52-1.89-.6-2.85-.21-2.72-.36-5.46.15-8.16.26-1.38.55-2.76.95-4.13.79-2.68,1.96-5.14,3.4-7.51.13-.22.25-.44.53-.51-.97,1.76-2.05,3.46-2.75,5.35-.77,2.07-1.38,4.18-1.76,6.37-.46,2.6-.26,5.2-.27,7.8,0,.96.42,1.88.35,2.85.07.26.19.52,0,.78Z"/>
      <path class="cls-2" d="m263.83,4.65c-.06,0-.13-.01-.2-.01-.04-.01-.09-.01-.13-.02.11,0,.22.02.33.03Z"/>
      <path class="cls-2" d="m290.91,44.75c.2.72-.3,1.27-.52,1.85-.81,2.21-1.94,4.26-3.26,6.21-1.86,2.76-4.18,5.05-6.77,7.11-1.57,1.25-3.27,2.28-5.09,3.12-.37.17-.65.6-1.15.46-.05-.04-.06-.08-.05-.11.02-.04.03-.05.05-.05,3.98-1.8,7.49-4.28,10.4-7.56,2.09-2.36,3.8-4.96,5.04-7.86.44-1.04.84-2.09,1.18-3.16.05-.07.11-.07.16,0Z"/>
      <path class="cls-2" d="m231.13,41.26c.23.16.32.39.32.65,0,1.4.64,2.64.98,3.95.52,2.01,1.5,3.83,2.46,5.63.9,1.67,2.06,3.21,3.3,4.67,1.34,1.57,2.83,2.96,4.42,4.26.17.14.37.28.41.53-1.87-1.13-3.3-2.74-4.74-4.33-2.09-2.31-3.74-4.94-5.02-7.78-.87-1.94-1.6-3.94-1.98-6.05,0-.52-.31-1.01-.15-1.54Z"/>
      <path class="cls-2" d="m258.18,5.89h-.03s0-.01.02-.01c0,0,0,.01,0,.01Z"/>
      <path class="cls-2" d="m235.71,38.82c.17,1.03.18,2.08.51,3.11.21.64.27,1.37.42,2.05.06.08.05.14-.03.2-.68-1.81-1.04-3.68-1.22-5.6-.16-1.82-.16-3.64,0-5.46.15-1.69.52-3.34,1-4.96.16-.56.34-1.11.5-1.67.15-.53.33-.32.52-.03-.52.27-.51.83-.64,1.27-.77,2.62-1.37,5.27-1.2,8.02.06,1.02-.19,2.06.15,3.07h0Z"/>
      <path class="cls-2" d="m237.24,42.48c-.73-2.86-1.13-5.74-.8-8.71.16-1.45.46-2.87.68-4.3.05-.34.04-.83.56-.86.38-.02.6.22.62.61-.47-.35-.79-.26-.91.34-.58,2.78-.98,5.56-.66,8.42.15,1.33.46,2.64.54,3.98.06.18.11.35-.02.52Z"/>
      <path class="cls-2" d="m240.11,30.75c.66.04.5.53.45.9-.22,1.62-.53,3.23-.43,4.88.09,1.46.29,2.89.6,4.32.46,2.19,1.31,4.21,2.36,6.17.06.1.05.24.07.36-.96-1.26-1.5-2.72-2.04-4.18-1.14-3.09-1.31-6.31-1.11-9.56.04-.67.16-1.35.33-2.01.1-.38-.02-.63-.24-.89Z"/>
      <path class="cls-2" d="m265.04,65.74s-.03.05-.04.05v-.16s.03.04.03.06c0,.02,0,.03,0,.05Z"/>
      <path class="cls-2" d="m231.13,41.26c.1.51.27,1.01.15,1.54-.78-2.84-1.01-5.74-.82-8.66.12-1.77.27-3.55.82-5.26,0,.41,0,.82,0,1.23-.51.69-.2,1.52-.38,2.27-.2.8-.28,1.63-.21,2.46.05.06.08.13.08.21-.08.55,0,1.11-.06,1.67,0,.04-.01.07-.02.11-.03,1.49.29,2.95.44,4.43Z"/>
      <path class="cls-2" d="m287.71,54.21c0,.06.01.12.02.18-1.5,2.24-3.34,4.17-5.48,5.81.37-.68,1-1.12,1.52-1.66,1.36-1.4,2.81-2.72,3.94-4.33Z"/>
      <path class="cls-2" d="m265.04,65.74s-.03.05-.04.05v-.16s.03.04.03.06c0,.02,0,.03,0,.05Z"/>
      <path class="cls-2" d="m250.02,59.71c.75.07,1.35.53,2.03.79,1.08.41,2.14.87,3.3,1.05.31.05.67.16.63.62-1.09-.6-2.35-.72-3.47-1.24-.84-.39-1.76-.61-2.48-1.22Z"/>
      <path class="cls-2" d="m237.24,42.48c0-.17.02-.34.02-.52.53,1.08.64,2.31,1.17,3.4.26.53.45,1.11.66,1.67-.75-.66-.84-1.66-1.22-2.51-.29-.65-.44-1.36-.65-2.05Z"/>
      <path class="cls-2" d="m290.91,44.75c-.05,0-.11,0-.16,0,.36-1.52.72-3.05,1.08-4.57.05,0,.09,0,.14.02.04.58-.27,1.09-.3,1.66h0c-.25.96-.51,1.93-.76,2.9Z"/>
      <path class="cls-2" d="m232.69,42.46c0-.26,0-.52,0-.78.52.74.37,1.68.74,2.47.17.37.22.81.32,1.21-.59-.57-.54-1.38-.77-2.09-.09-.28-.06-.59-.29-.82Z"/>
      <path class="cls-2" d="m239.96,50.87c.44.26.55.55.31,1.06-.31.64-.13,1.34,0,2.01-.48-.47-.48-1.04-.34-1.64.11-.47.32-.95.02-1.43Z"/>
      <path class="cls-2" d="m242.92,44.28c-.68-.91-.93-1.97-1.08-3.06.52.96.72,2.04,1.08,3.06Z"/>
      <path class="cls-2" d="m236.62,44.17c0-.07.02-.14.03-.2.46.66.62,1.41.73,2.19-.42-.6-.57-1.3-.76-1.98Z"/>
      <path class="cls-2" d="m274.92,7.1c0-.05,0-.11,0-.16.57.15,1.12.34,1.55.76-.57-.06-1.02-.42-1.55-.6Z"/>
      <path class="cls-2" d="m249.18,23.09c-.56-.43-.3-.74.14-1.04-.14.33-.27.67-.14,1.04Z"/>
      <path class="cls-2" d="m286.74,44.34c-.06.51-.33.84-.86.89-.46.04-.98-.44-.93-.88.06-.5.38-.83.86-.92.41-.08.93.48.93.92Z"/>
      <path class="cls-2" d="m274.14,12.03c.02.58-.39,1.01-.96,1.03-.65.02-1.14-.42-1.16-1.04-.02-.48.58-1.09,1.07-1.1.51,0,1.04.55,1.06,1.11Z"/>
      <path class="cls-2" d="m291.83,39.57c-.94-.54-1.16-1.49-.59-2.59.4-.77,1.44-1.02,2.27-.72.9.32,1.19.95,1.18,1.78,0,.91-.37,1.61-1.34,1.85-.52-.06-.92-.69-1.53-.3Z"/>
      <path class="cls-2" d="m263.83,4.65c-.06,0-.13-.01-.2-.01-.04-.01-.09-.01-.13-.02.11,0,.22.02.33.03Z"/>
      <path class="cls-2" d="m231.25,30.82c.32.81.13,1.58,0,2.25v-2.25Z"/>
      <path class="cls-2" d="m230.68,34.99s0-.1,0-.14c.31.13.33.13.29,1.37,0,.19.29.65-.29.61,0,0,0,0,0,0-.12-.61-.11-1.23,0-1.84Z"/>
      <path class="cls-2" d="m258.18,5.89h-.03s0-.01.02-.01c0,0,0,.01,0,.01Z"/>
      <path class="cls-2" d="m258.32,5.81c-.05.02-.1.04-.14.06,0-.01.01-.02.02-.03.04-.01.08-.03.12-.03Z"/>
      <path class="cls-2" d="m264.69,5.73c.64-.34,1.32-.06,1.98-.15.15.25-.05.23-.18.21-.26-.05-.52-.15-.74.1-.3,0-.61,0-.91,0-.05-.05-.1-.1-.15-.15Z"/>
      <path class="cls-2" d="m291.67,41.86c.38.14.41.36,0,1.09,0-.37,0-.73,0-1.1,0,0,0,0,0,0Z"/>
      <path class="cls-2" d="m243.04,52.89c-.08.48-.38.88-.98.86-.55-.02-.95-.34-.98-.94-.03-.53.5-1.01,1.02-1,.49,0,.94.5.93,1.09Z"/>
      <path class="cls-2" d="m258.07,60.87c.57.05.94.37.96.9.02.57-.39.87-.94.87-.52,0-.9-.27-.9-.82,0-.55.33-.88.89-.95Z"/>
      <path class="cls-2" d="m235.72,38.82v-5.65c.4.12.47.38.46.7,0,1.32-.01,2.64,0,3.96,0,.42-.29.67-.47.99,0,0,0,0,0,0Z"/>
      <path class="cls-2" d="m240.4,34.24v3.31s-.04,0-.06,0v-3.31s.04,0,.06,0Z"/>
      <path class="cls-2" d="m264.41,61.92c-.06.58-.34.96-.9.97-.57.02-.93-.33-.93-.88,0-.52.29-.94.88-.95.57,0,.85.35.95.86Z"/>
      <path class="cls-2" d="m281.52,52.5c.74.02,1.12.29,1.13.81.01.55-.36.86-.91.91-.48.04-.95-.44-.9-.91.06-.52.33-.83.68-.81Z"/>
      <path class="cls-2" d="m247.46,23.38c.51.15.97.36.9.96-.06.52-.42.89-.96.87-.54-.02-.88-.38-.87-.94.01-.59.46-.77.93-.9Z"/>
      <path class="cls-2" d="m253.31,17.54c-.03.57-.36.85-.88.86-.59.01-.9-.36-.89-.91,0-.49.29-.79.82-.8.59,0,.89.29.95.85Z"/>
      <path class="cls-2" d="m279.02,10.61q.23-.82-.22-1.11c.91-.05,1.88-.4,2.72.11.83.5.6,1.46.51,2.23-.06.56-.66.72-1.15.99-.7.38-1.19.04-1.67-.19-.59-.28-.68-1.01-.92-1.58-.09-.21-.15-.6.14-.76.27-.15.3.39.6.32.28.34.15.84.5,1.16.32.29.64.63,1.12.34.44-.27.83-.63.71-1.22-.11-.53-.54-.8-1.01-.92-.26-.06-.49.22-.7.39-.18.14-.29.46-.61.25Z"/>
      <path class="cls-2" d="m267.43,6.19c0-.11-.12-.29.07-.29.44-.02.89-.09,1.45.12-.58.28-1.07.1-1.53.17,0,0,0,0,0,0Z"/>
      <path class="cls-2" d="m291.8,39.52c-.12.26.11.46.1.69-.02.53-.33,1.01-.31,1.55.07.06.13.12.17.19-.04-.06-.1-.09-.21-.11-.25.94-.36,1.91-.71,2.83-.22,1.17-.73,2.24-1.18,3.32-1.03,2.45-2.43,4.66-4.08,6.72-1.98,2.47-4.32,4.56-6.94,6.31-1.41.96-2.92,1.76-4.51,2.39v-.08c-.46.17-.94.33-1.41.5-1.63.57-3.27,1.07-4.98,1.39-.92.17-1.84.21-2.74.4,0,.02.03.04.03.06,0,.02,0,.03,0,.05-.02.03-.03.05-.04.05v-.16c-1.2-.04-2.37.28-3.57.17-1.11-.09-2.23-.16-3.32-.3-1.45-.2-2.88-.48-4.28-.93-1.21-.38-2.42-.82-3.62-1.23-3.16-1.45-6.05-3.3-8.59-5.71-3.64-3.44-6.27-7.52-7.88-12.27-.19-.27-.29-.58-.38-.9-.21-.7-.26-1.46-.57-2.14-.23-1.06-.51-2.11-.56-3.19-.09-1.84-.11-3.68-.04-5.53.1-2.45.69-4.77,1.38-7.09.35-1.2.84-2.37,1.39-3.48.63-1.29,1.26-2.59,2.18-3.72.14-.18.3-.34.42-.52,2.95-4.23,6.74-7.48,11.36-9.76,1.04-.51,2.09-.97,3.13-1.44.92-.06,1.73-.52,2.61-.71,2.2-.44,4.39-.87,6.66-.9,3.54-.04,6.98.38,10.34,1.52.83.28,1.58.77,2.48.84-.59-.47-1.32-.67-2.02-.91-1.53-.51-3.08-.97-4.68-1.25-.56-.1-1.11-.21-1.66-.31-.12-.09-.23-.15-.35-.17.42-.01.85-.04,1.26-.13-.03-.14-.13-.3.13-.3.3,0,.58-.06.79-.31.09.04.18.1.28.12,1.89.31,3.73.81,5.53,1.49.48.18.91.69,1.52.52.02,0,.03-.02.05-.06.01-.03,0-.07-.06-.1-3.13-1.54-6.51-2.33-9.94-2.63-4.38-.39-8.72.06-12.89,1.58.08,0,.15,0,.23.01-.39.13-.8.27-1.18.42-3.22,1.25-6.21,2.88-8.87,5.13-2.53,2.12-4.76,4.5-6.57,7.29-1.87,2.88-3.21,5.97-4.1,9.29-.19.71-.18,1.46-.51,2.12-.22,1.51-.51,3.02-.5,4.55.37.77.34,1.53,0,2.3-.05,1.42.35,2.8.37,4.21.18.31.33.63.34,1,0,.78.26,1.5.48,2.22.68,2.12,1.47,4.2,2.53,6.18,1.37,2.59,3.08,4.9,5.08,7.03,1.12,1.19,2.37,2.26,3.63,3.3.02.05.02.12.06.14,3.02,2.33,6.36,4.04,10.01,5.12,2.52.75,5.1,1.2,7.74,1.28,3.63.11,7.17-.29,10.63-1.33,2.63-.8,5.13-1.94,7.44-3.43,1.19-.77,2.42-1.47,3.37-2.53,1.98-1.88,4.02-3.74,5.55-6.03.27-.26.43-.61.63-.93,1.6-2.39,2.8-4.95,3.71-7.67.4-1.2.69-2.42.97-3.65.15-.66.22-1.37.28-2.06-.49-.3-.94-.88-1.6-.32Zm-26.65-33.8c-.11.02-.21.08-.31.16.03-.06.02-.11-.01-.15.11,0,.22-.01.32-.01Zm-1.53-1.08s-.09-.01-.13-.02c.11,0,.22.02.33.03-.06,0-.13-.01-.2-.01Zm-5.43,1.2s.08-.03.12-.03c-.05.02-.1.04-.14.06,0-.01.01-.02.02-.03Zm-.03.04s0,.01,0,.01h-.03s0-.01.02-.01Z"/>
      <path class="cls-2" d="m230.68,34.99c0,.61,0,1.23,0,1.84-.2-.61-.19-1.23,0-1.84Z"/>
      <path class="cls-2" d="m273.91,12.08c-.05.5-.33.82-.82.8-.53-.02-.8-.38-.79-.91.01-.54.39-.75.85-.75.52,0,.72.38.76.86Z"/>
      <path class="cls-2" d="m292.91,39.27c-.65,0-1.38-.65-1.39-1.24,0-.51.82-1.34,1.33-1.35.55,0,1.26.78,1.25,1.38,0,.7-.51,1.2-1.2,1.21Z"/>
      <path class="cls-2" d="m279.02,10.61c.21,0,.27-.18.4-.3.42-.38.79-.83,1.46-.32.48.37.86.75.64,1.36-.21.58-.61,1.07-1.3,1.07-.51,0-1.14-.72-1.2-1.28-.02-.17,0-.35,0-.53h0Z"/>
      <path class="cls-2" d="m292.9,37.13c.54.06.9.33.92.91.02.48-.5.96-1,.93-.59-.04-.84-.44-.88-.96-.04-.48.44-.88.95-.88Z"/>
      <path class="cls-2" d="m281.21,11.06c-.04.55-.36.88-.91.89-.54,0-.88-.35-.88-.86,0-.54.31-.92.91-.9.53.01.85.29.89.87Z"/>
      <path class="cls-2" d="m292.75,17.41l4.36-4.69-.27,6.45c0,.15.08.29.22.35l6.11,2.55-6.17,1.76c-.14.04-.24.16-.26.31l-.67,6.78-3.65-5.34c-.08-.12-.23-.18-.37-.15l-6.64,1.45,3.99-5.53c.08-.11.09-.27.02-.39l-3.14-5.53,6.09,2.07c.13.05.28,0,.38-.1Z"/>
    </g>
  </g>
</svg>