<?xml version="1.0" encoding="UTF-8"?>
<svg id="katman_1" data-name="katman 1" xmlns="http://www.w3.org/2000/svg" viewBox="0 0 482.69 482.66">
  <defs>
    <style>
      .cls-1 {
        opacity: .67;
      }

      .cls-2 {
        fill: #111;
        stroke-width: 0px;
      }
    </style>
  </defs>
  <g id="aWLl6e.tif" class="cls-1">
    <g>
      <path class="cls-2" d="m482.69,139.78c-2.54,2.09-4.9,4.46-7.64,6.23-57.6,37.04-115.23,74.04-172.95,110.9-3.39,2.17-4.57,4.43-4.53,8.38.2,20.61.1,41.22.09,61.83,0,8.17-2.62,10.75-10.87,10.76-30.33.01-60.66.01-90.99,0-8.18,0-10.75-2.61-10.75-10.86-.01-20.78-.11-41.56.09-62.34.03-3.65-1.15-5.62-4.18-7.56-58.26-37.25-116.46-74.61-174.62-112.01-2.04-1.31-4.2-2.98-5.36-5.02-2.7-4.71.54-10.42,6.06-11.25,1.48-.22,3.01-.11,4.52-.11,153.17,0,306.33.02,459.5-.09,4.91,0,8.82,1,11.65,5.11v6.03Zm-446.33,5.28c2.09,1.46,3.36,2.42,4.69,3.27,51,32.72,101.98,65.49,153.07,98.06,5.12,3.27,7.21,7.05,7.11,13.13-.32,18.93-.12,37.86-.12,56.79,0,1.76,0,3.52,0,5.21h80.45v-5.66c0-18.76.2-37.53-.12-56.29-.1-6.07,1.91-9.85,7.07-13.13,51.11-32.56,102.08-65.32,153.09-98.04,1.39-.89,2.72-1.89,4.81-3.35H36.37Z"/>
      <path class="cls-2" d="m482.69,378.1c-1.31,4.63-2.36,9.35-3.97,13.87-10.52,29.63-41.2,47.05-72.54,41.31-30.48-5.58-52.71-33.14-52.2-64.73.5-30.94,23.91-57.49,54.69-62.03,34.91-5.15,67,18.02,73.07,52.74.17.95.62,1.84.94,2.76v16.09Zm-64.35-56.31c-26.64.04-48.25,21.64-48.27,48.24-.02,26.57,21.74,48.36,48.23,48.28,26.83-.07,48.41-21.87,48.28-48.76-.12-26.23-21.91-47.8-48.25-47.76Z"/>
      <path class="cls-2" d="m352.97,0c2.2.67,4.4,1.35,6.61,1.99,22.31,6.53,37.29,29.01,34.36,51.55-3.17,24.39-22.9,42.52-46.75,42.96-24.1.45-44.67-16.45-48.71-40.01-4.39-25.61,11.72-49.62,37.17-55.43,1.1-.25,2.16-.71,3.23-1.07,4.69,0,9.39,0,14.08,0Zm25.12,48.43c.08-17.79-14.37-32.34-32.12-32.33-17.8,0-32.22,14.44-32.21,32.26,0,17.53,14.36,31.98,31.87,32.09,17.82.11,32.38-14.25,32.46-32.01Z"/>
      <path class="cls-2" d="m174.98,0c1.57.49,3.13,1.02,4.71,1.47,19.25,5.48,31.94,24.45,29.21,43.67-2.93,20.64-20.01,35.55-40.44,35.29-20.2-.25-36.99-15.45-39.53-35.78-2.44-19.53,10.66-38.38,30.21-43.48C160.42.84,161.66.39,162.92,0c4.02,0,8.04,0,12.07,0Zm-6.01,64.32c13.15-.02,23.97-10.76,24.07-23.89.1-13.36-10.75-24.28-24.15-24.32-13.08-.05-24.02,10.81-24.06,23.88-.04,13.41,10.81,24.35,24.14,24.33Z"/>
      <path class="cls-2" d="m482.69,62.35c-.5,1.19-1.07,2.35-1.48,3.57-5.03,15.14-19.97,24.65-35.07,22.29-16.17-2.52-27.78-15.85-27.8-31.91-.02-16.02,11.66-29.43,27.8-31.91,15.15-2.33,30.01,7.14,35.07,22.31.41,1.22.98,2.39,1.48,3.58v12.07Zm-16.12-6.1c-.03-8.77-7.21-15.94-16.01-16-8.76-.06-16.05,7.11-16.12,15.86-.08,9,7.27,16.36,16.25,16.26,8.77-.09,15.91-7.35,15.88-16.12Z"/>
      <path class="cls-2" d="m64.43,305.7c35.06-.06,64.13,28.8,64.29,63.79.16,35.78-28.64,64.9-64.18,64.89C28.8,434.39,0,405.57.02,369.86c.03-35.35,28.88-64.1,64.41-64.16Zm-48.32,64.24c-.05,26.59,21.67,48.4,48.15,48.37,26.64-.04,48.24-21.55,48.37-48.18.13-26.5-21.63-48.35-48.16-48.35-26.65,0-48.31,21.57-48.35,48.16Z"/>
      <path class="cls-2" d="m241.34,482.66c-35.7-.07-64.43-28.97-64.33-64.72.09-35.32,29.04-63.98,64.6-63.97,35.23.01,64.23,29.19,64.1,64.49-.14,35.48-29,64.27-64.37,64.2Zm-48.24-64.25c.03,26.36,21.59,48.07,47.84,48.18,26.86.11,48.63-21.52,48.68-48.37.05-26.48-21.8-48.24-48.35-48.16-26.63.08-48.19,21.73-48.16,48.35Z"/>
      <path class="cls-2" d="m56.24,16.09c26.65,0,48.3,21.58,48.33,48.17.04,26.61-21.66,48.39-48.15,48.35-26.83-.04-48.43-21.8-48.35-48.69.08-26.24,21.83-47.83,48.17-47.83Zm32.25,48.41c.07-17.79-14.39-32.33-32.14-32.32-17.8.01-32.21,14.46-32.19,32.27.01,17.53,14.37,31.97,31.89,32.07,17.81.11,32.38-14.27,32.44-32.03Z"/>
      <path class="cls-2" d="m249.28,112.62c-17.77-.08-32.13-14.6-32.05-32.43.08-17.72,14.69-32.06,32.54-31.92,17.51.14,31.79,14.58,31.8,32.16,0,17.77-14.53,32.26-32.28,32.18Zm16.18-32.38c-.11-8.77-7.35-15.87-16.15-15.86-8.75.01-15.97,7.25-15.97,16.01,0,9,7.41,16.29,16.39,16.11,8.76-.17,15.84-7.49,15.73-16.27Z"/>
      <path class="cls-2" d="m251.26,221.71c2.68-3.43,5.35-6.85,8.13-10.4,4.2,4.2,7.73,7.74,11.19,11.21-8.2,8.46-16.16,16.99-24.51,25.12-2.99,2.91-7.05,2.49-10.04-.42-8.16-7.9-16.09-16.04-24.31-24.28,3.94-3.55,7.64-6.88,11.79-10.62,2.61,2.48,5.79,5.5,9.56,9.07v-60.1h16.21v59.26c.66.38,1.32.77,1.98,1.15Z"/>
      <path class="cls-2" d="m415.82,374.64c6.62-10.99,13.07-21.7,19.78-32.84,4.59,2.76,8.95,5.38,13.76,8.27-5.06,8.42-9.94,16.54-14.82,24.66-3.02,5.02-5.93,10.12-9.08,15.05-2.85,4.45-7.04,5.78-11.18,3.18-8.2-5.15-16.18-10.67-24.52-16.22,3-4.5,5.76-8.65,8.86-13.31,5.76,3.75,11.29,7.35,17.2,11.19Z"/>
      <path class="cls-2" d="m44.69,363.39c5.81,3.83,11.23,7.4,17.14,11.29,6.68-11.09,13.2-21.91,19.83-32.91,4.65,2.82,8.92,5.41,13.65,8.28-2.46,4.18-4.78,8.16-7.14,12.11-5.33,8.91-10.63,17.83-16.04,26.7-3.6,5.9-7.73,6.87-13.43,3.15-7.55-4.94-15.01-10.02-22.87-15.27,3.02-4.54,5.85-8.8,8.87-13.34Z"/>
      <path class="cls-2" d="m258.65,390.02c4.73,2.9,9.1,5.58,13.69,8.39-8.15,13.57-15.99,26.8-24.05,39.91-2.71,4.4-7.03,5.45-11.27,2.76-8.05-5.1-15.89-10.51-24.24-16.07,3.02-4.53,5.85-8.78,8.88-13.34,5.78,3.79,11.21,7.35,17.15,11.25,6.66-11.04,13.17-21.86,19.84-32.91Z"/>
    </g>
  </g>
</svg>