<?xml version="1.0" encoding="UTF-8"?>
<svg id="Layer_1" data-name="Layer 1" xmlns="http://www.w3.org/2000/svg" xmlns:xlink="http://www.w3.org/1999/xlink" viewBox="0 0 969.4 676.1">
  <defs>
    <style>
      .cls-1 {
        opacity: .1;
      }

      .cls-1, .cls-2 {
        fill: #616580;
      }

      .cls-1, .cls-2, .cls-3, .cls-4, .cls-5, .cls-6, .cls-7, .cls-8, .cls-9, .cls-10, .cls-11, .cls-12, .cls-13, .cls-14, .cls-15, .cls-16, .cls-17, .cls-18, .cls-19, .cls-20, .cls-21, .cls-22, .cls-23, .cls-24, .cls-25, .cls-26, .cls-27, .cls-28, .cls-29, .cls-30, .cls-31, .cls-32, .cls-33, .cls-34, .cls-35, .cls-36, .cls-37, .cls-38, .cls-39 {
        stroke-width: 0px;
      }

      .cls-1, .cls-2, .cls-8 {
        isolation: isolate;
      }

      .cls-2 {
        opacity: .15;
      }

      .cls-40 {
        clip-path: url(#clippath);
      }

      .cls-3 {
        fill: none;
      }

      .cls-41 {
        stroke: #fff;
        stroke-miterlimit: 10;
        stroke-width: 3px;
      }

      .cls-4 {
        fill: url(#linear-gradient);
      }

      .cls-42 {
        clip-path: url(#clippath-1);
      }

      .cls-43 {
        clip-path: url(#clippath-4);
      }

      .cls-44 {
        clip-path: url(#clippath-3);
      }

      .cls-45 {
        clip-path: url(#clippath-2);
      }

      .cls-46 {
        clip-path: url(#clippath-7);
      }

      .cls-47 {
        clip-path: url(#clippath-6);
      }

      .cls-48 {
        clip-path: url(#clippath-5);
      }

      .cls-49 {
        opacity: .2;
      }

      .cls-5, .cls-6, .cls-8 {
        fill-rule: evenodd;
      }

      .cls-5, .cls-23 {
        fill: #e20e17;
      }

      .cls-6 {
        fill: #d71e16;
      }

      .cls-8 {
        opacity: .6;
      }

      .cls-8, .cls-12 {
        fill: #878787;
      }

      .cls-9 {
        fill: #f9a72d;
      }

      .cls-10 {
        fill: #76809b;
      }

      .cls-11 {
        fill: #48410d;
      }

      .cls-13 {
        fill: #18191d;
      }

      .cls-14 {
        fill: #0c8236;
      }

      .cls-15 {
        fill: #1555ac;
      }

      .cls-16 {
        fill: #1573bb;
      }

      .cls-17 {
        fill: #248fd1;
      }

      .cls-18 {
        fill: #e2cf1b;
      }

      .cls-19 {
        fill: #ddeaf1;
      }

      .cls-20 {
        fill: #c7c9d6;
      }

      .cls-21 {
        fill: #afb5cf;
      }

      .cls-22 {
        fill: #c69c6d;
      }

      .cls-24 {
        fill: #b2b2b2;
      }

      .cls-25 {
        fill: #c1272d;
      }

      .cls-26 {
        fill: #a5c7d3;
      }

      .cls-27 {
        fill: #abb1c7;
      }

      .cls-28 {
        fill: #737b9f;
      }

      .cls-29 {
        fill: #333132;
      }

      .cls-30 {
        fill: #333;
      }

      .cls-31 {
        fill: #6c707b;
      }

      .cls-32 {
        fill: #877700;
      }

      .cls-33 {
        fill: #fecf73;
      }

      .cls-34 {
        fill: #f1e519;
      }

      .cls-35 {
        fill: #fff;
      }

      .cls-36 {
        fill: #fffffd;
      }

      .cls-37 {
        fill: #fbfcfe;
      }

      .cls-38 {
        fill: #eef2fb;
      }

      .cls-39 {
        fill: #010101;
      }
    </style>
    <clipPath id="clippath">
      <path class="cls-3" d="m671.1,373.1h-17c-1.3-.2-5.1.8-5.1-1.5v-16.6c0-1.9,2.4-1.4,3.6-1.5-.3-1.6.7-2.5,2.3-2.3-.1-1.1,0-2.6,1.5-2.6h8.8c1.4,0,1.6,1.5,1.5,2.6,1.6-.2,2.6.7,2.3,2.3,1.2,0,3.6-.4,3.6,1.5v16.7c0,.8-.7,1.4-1.5,1.4h0Z"/>
    </clipPath>
    <clipPath id="clippath-1">
      <path class="cls-3" d="m622.8,373.1h-17c-1.3-.2-5.1.8-5.1-1.5v-16.6c0-1.9,2.4-1.4,3.6-1.5-.3-1.6.7-2.5,2.3-2.3-.1-1.1,0-2.6,1.5-2.6h8.8c1.4,0,1.6,1.5,1.5,2.6,1.6-.2,2.6.7,2.3,2.3,1.2,0,3.6-.4,3.6,1.5v16.7c0,.8-.7,1.4-1.5,1.4h0Z"/>
    </clipPath>
    <clipPath id="clippath-2">
      <path class="cls-3" d="m574.5,373.1h-17c-1.3-.2-5.1.8-5.1-1.5v-16.6c0-1.9,2.4-1.4,3.6-1.5-.3-1.6.7-2.5,2.3-2.3-.1-1.1,0-2.6,1.5-2.6h8.8c1.4,0,1.6,1.5,1.5,2.6,1.6-.2,2.6.7,2.3,2.3,1.2,0,3.6-.4,3.6,1.5v16.7c0,.8-.7,1.4-1.5,1.4h0Z"/>
    </clipPath>
    <clipPath id="clippath-3">
      <path class="cls-3" d="m526.2,373.1h-17c-1.3-.2-5.1.8-5.1-1.5v-16.6c0-1.9,2.4-1.4,3.6-1.5-.3-1.6.7-2.5,2.3-2.3-.1-1.1,0-2.6,1.5-2.6h8.8c1.4,0,1.6,1.5,1.5,2.6,1.6-.2,2.6.7,2.3,2.3,1.2,0,3.6-.4,3.6,1.5v16.7c0,.8-.7,1.4-1.5,1.4h0Z"/>
    </clipPath>
    <clipPath id="clippath-4">
      <path class="cls-3" d="m477.9,373.1h-17c-1.3-.2-5.1.8-5.1-1.5v-16.6c0-1.9,2.4-1.4,3.6-1.5-.3-1.6.7-2.5,2.3-2.3-.1-1.1,0-2.6,1.5-2.6h8.8c1.4,0,1.6,1.5,1.5,2.6,1.6-.2,2.6.7,2.3,2.3,1.2,0,3.6-.4,3.6,1.5v16.7c-.1.8-.7,1.4-1.5,1.4h0Z"/>
    </clipPath>
    <clipPath id="clippath-5">
      <path class="cls-3" d="m429.6,373.1h-17c-1.3-.2-5.1.8-5.1-1.5v-16.6c0-1.9,2.4-1.4,3.6-1.5-.3-1.6.7-2.5,2.3-2.3-.1-1.1,0-2.6,1.5-2.6h8.8c1.4,0,1.6,1.5,1.5,2.6,1.6-.2,2.6.7,2.3,2.3,1.2,0,3.6-.4,3.6,1.5v16.7c-.1.8-.7,1.4-1.5,1.4h0Z"/>
    </clipPath>
    <clipPath id="clippath-6">
      <path class="cls-3" d="m316.3,348.7h-17c-1.3.2-5.1-.8-5.1,1.5v16.7c0,1.9,2.4,1.4,3.6,1.5-.3,1.6.7,2.5,2.3,2.3-.1,1.1,0,2.6,1.5,2.6h8.8c1.4,0,1.6-1.5,1.5-2.6,1.6.2,2.6-.7,2.3-2.3,1.2,0,3.6.4,3.6-1.5v-16.7c0-.9-.7-1.5-1.5-1.5h0Z"/>
    </clipPath>
    <clipPath id="clippath-7">
      <path class="cls-3" d="m311.1,293.4c66.5-7.1,269.4-7.1,335.8,0h-335.8Z"/>
    </clipPath>
    <linearGradient id="linear-gradient" x1="1.59" y1="1359.44" x2="414.2" y2="1359.44" gradientTransform="translate(0 -715.89)" gradientUnits="userSpaceOnUse">
      <stop offset="0" stop-color="#fff" stop-opacity="0"/>
      <stop offset=".18" stop-color="#ffeace" stop-opacity=".18"/>
      <stop offset=".36" stop-color="#ffd8a3" stop-opacity=".36"/>
      <stop offset=".54" stop-color="#ffc982" stop-opacity=".54"/>
      <stop offset=".71" stop-color="#ffbf6a" stop-opacity=".71"/>
      <stop offset=".87" stop-color="#ffb95c" stop-opacity=".87"/>
      <stop offset="1" stop-color="#ffb757"/>
    </linearGradient>
  </defs>
  <g id="katman_1" data-name="katman 1">
    <g>
      <g>
        <path class="cls-35" d="m768.5,286.3c-135.5,2.3-628.8-7.9-754.7,11.4h946c-57.1-4.4-134.1-12.2-191.3-11.4Z"/>
        <g>
          <path class="cls-19" d="m970.1,377.2c-1,7.5-7.4,13.4-15.2,13.4H15.6c-8.5,0-15.3-6.9-15.3-15.3-.5-2.7-.6-68.9,1.4-68.7-.1.6-.1,1.3-.1,2v62.3c0,8.5,6.8,15.3,15.3,15.3h939.3c6.1,0,11.5-3.7,13.9-9h0Z"/>
          <path class="cls-37" d="m970.2,313v62.3c-.4,6.5-7.7,10.8-14,10.9H16.9c-8.5,0-15.3-6.9-15.3-15.3v-62.3c.4-6.5,7.7-10.8,14-10.9h939.2c8.5,0,15.4,6.9,15.4,15.3h0Z"/>
          <g>
            <path class="cls-6" d="m91.5,328.7l-12.5,18.1,12.4,17.9c.3.6,4.1,1.8,3.9,3.3h-12.5s-.6-1.4,2.9-2.5l-9.8-14.1-9.7,14c.1,0,.3.1.4.1,3.3,1,2.7,2.5,2.7,2.5h-11.9c0-2.1,3.1-2.1,4-3.7l21.9-32c1.3-3.1,5.8-5.9,8.2-3.6m-31.3,0l11.8,17.1,3-4.5-7.9-11.3c-3.1-4.8-6.9-1.3-6.9-1.3Z"/>
            <path class="cls-23" d="m76.8,331.9c1.2.1,0-26.5.4-26.9,0-.1-.1-.4-.4-.4-1.2-.1,0,26.5-.4,26.9,0,.2.3.4.4.4Z"/>
            <path class="cls-23" d="m76.8,383.9c.3,0,.4-.1.4-.3-.4-.3.8-21.6-.4-21.3-1.2-.3-.1,21-.4,21.3,0,.1.3.3.4.3Z"/>
          </g>
          <rect class="cls-25" x="175.9" y="385.7" width="617.5" height="4.9"/>
          <path class="cls-23" d="m777.8,318.7l-3.7,3.5,14.8,21.4-10.5,15.3c-5.8,1.1-6.1,8.9-6.7,13.6h21.7v13.3H175.8v-88h617.5v21.7c-4.7-6-12.7-3.7-15.5-.8h0Z"/>
          <g>
            <path class="cls-5" d="m872.2,353.5c-.2-1.3.6-4.8-.6-5.7-.6-.4-1.8.3-1.9-.6,0-.4-.1-1,.5-1,.2.2,10.1-.5,9.5.5.3,1.2-1,.9-1.7,1.3-.5.4-.7,1.2-.6,1.9v4.3c-2,2-5.5,2.2-8.2,2.4-19.4-1.4-11.2-29.1,6.5-20.9.3-.3.3-1.3,1-1.3.4,0,1-.1,1,.5-.2.3.5,8-.5,7.6-2,0-1.6-6-7.1-6-9.2.1-7.5,22.6,2.1,17h0Z"/>
            <path class="cls-5" d="m853.4,336.9c-10.1-9.8-23.5,4.8-15.7,15.2,10,11.9,25.5-4.6,15.7-15.2Zm-3.8,13.6c-.5,3.3-4.8,4.9-6.7,1.9-2.6-4-2.8-19.7,5.1-15.7,3.2,3.4,2.3,9.6,1.6,13.8h0Z"/>
            <path class="cls-5" d="m823.6,353.4c9.7,1.9,6.2-7,9.5-5.5.5-.2-.6,7.5-.5,7.6,0,.3-.3.5-.5.5h-16.6c-.6,0-.5-.6-.5-1,.2-1.1,2.3.1,2.5-1.3.3-.4.1-14.3.2-15.2.1-1.7-.3-2.6-2.2-2.4-.7.1-.7-1.5,0-1.4h10c.6,0,.5.6.5,1-.2,1.1-2.4-.2-2.7,1.3-.3,2.5-.3,14,0,16.5.1-.3.1-.1.3-.1h0Z"/>
            <path class="cls-5" d="m815.9,322.6l-14.1,20.3,14,20c.3.7,4.5,1.9,4.3,3.6h-13.8s-.8-1.6,3.2-2.9l-10.9-15.9-10.9,15.7c3.3.7,3.9,2.8,3.5,3h-13.5c0-2.3,3.3-2.3,4.4-4.1l24.6-35.8c1.3-3.3,6.7-6.5,9.2-3.9m-35,.1l13.3,19.2,3.5-5.1c-3.7-3.9-10.5-20.5-16.8-14.1Z"/>
            <path class="cls-23" d="m798.8,327.1c-.3,0-.5-.2-.5-.5v-22c0-.3.2-.5.5-.5s.5.2.5.5v22c0,.3-.2.5-.5.5Z"/>
            <path class="cls-23" d="m798.8,390.5c-1.4.1,0-29.8-.5-30.3,0-.3.2-.5.5-.5,1.4-.1,0,29.8.5,30.3,0,.3-.2.5-.5.5Z"/>
          </g>
          <g>
            <path class="cls-35" d="m211.8,372c-1.5-.3-6.1,1-6.1-1.7.3-1.5-1-6.1,1.7-6,1.5.3,6.1-1,6.1,1.7-.3,1.4,1,6.1-1.7,6Z"/>
            <path class="cls-35" d="m211.8,361.7c-1.5-.3-6.1,1-6.1-1.7.3-1.5-1-6.1,1.7-6,1.5.3,6.1-1,6.1,1.7-.3,1.5,1,6.1-1.7,6Z"/>
            <path class="cls-35" d="m222.3,351.8c-1.9-.2-6.6,1-6.6-2.2.2-1.9-1-6.6,2.2-6.5,1.9.2,6.6-1,6.6,2.2-.3,1.8.9,6.6-2.2,6.5Zm-4.4-7.7c-2.1-.1-.9,4.5-1.2,5.6-.1,2.1,4.5.9,5.6,1.2,2.1.1.9-4.5,1.2-5.6.1-2.1-4.5-.9-5.6-1.2Z"/>
            <path class="cls-35" d="m201.2,351.1c-1.5-.3-6.1,1-6.1-1.7.3-1.5-1-6.1,1.7-6,1.5.3,6.1-1,6.1,1.7-.3,1.5,1,6.1-1.7,6Z"/>
            <path class="cls-35" d="m201.2,341c-1.9-.2-6.6,1-6.6-2.2.2-1.9-1-6.6,2.2-6.5,1.9.2,6.6-1,6.6,2.2-.2,1.8,1,6.6-2.2,6.5Zm-4.3-7.7c-2.1-.1-.9,4.5-1.2,5.6-.1,2.1,4.5.9,5.6,1.2,2.1.1.9-4.5,1.2-5.6,0-2.1-4.6-1-5.6-1.2Z"/>
            <path class="cls-35" d="m190.6,329.9c-1.5-.3-6.1,1-6.1-1.7.3-1.5-1-6.1,1.7-6,1.5.3,6.1-1,6.1,1.7-.3,1.4,1,6.1-1.7,6Z"/>
            <path class="cls-35" d="m201.2,319.3c-1.5-.3-6.1,1-6.1-1.7.3-1.5-1-6.1,1.7-6,1.5.3,6.1-1,6.1,1.7-.3,1.4,1,6.1-1.7,6Z"/>
            <path class="cls-35" d="m201.2,362.2c-1.9-.2-6.6,1-6.6-2.2.2-1.9-1-6.6,2.2-6.5,1.9.2,6.6-1,6.6,2.2-.2,1.8,1,6.6-2.2,6.5Zm-4.3-7.7c-2.1-.1-.9,4.5-1.2,5.6-.1,2.1,4.5.9,5.6,1.2,2.1.1.9-4.5,1.2-5.6,0-2.1-4.6-.9-5.6-1.2Z"/>
            <path class="cls-35" d="m201.2,372.4c-1.5-.3-6.1,1-6.1-1.7.3-1.5-1-6.1,1.7-6,1.5.3,6.1-1,6.1,1.7-.3,1.4,1,6-1.7,6Z"/>
            <path class="cls-23" d="m162,372c-1.5-.3-6.1,1-6.1-1.7.3-1.5-1-6.1,1.7-6,1.5.3,6.1-1,6.1,1.7-.3,1.4.9,6.1-1.7,6Z"/>
            <path class="cls-23" d="m172,361.7c-1.5-.3-6.1,1-6.1-1.7.3-1.5-1-6.1,1.7-6,1.5.3,6.1-1,6.1,1.7-.3,1.5.9,6.1-1.7,6Z"/>
            <path class="cls-23" d="m172.4,351.3c-1.5-.3-6.1,1-6.1-1.7.3-1.5-1-6.1,1.7-6,1.5.3,6.1-1,6.1,1.7-.3,1.4,1,6.1-1.7,6Z"/>
            <path class="cls-23" d="m172.4,341.4c-1.9-.2-6.6,1-6.6-2.2.2-1.9-1-6.6,2.2-6.5,1.9.2,6.6-1,6.6,2.2-.2,1.8,1,6.6-2.2,6.5Zm-4.4-7.8c-2.1-.1-.9,4.5-1.2,5.6-.1,2.1,4.5.9,5.6,1.2,2.1.1.9-4.5,1.2-5.6.1-2-4.5-.9-5.6-1.2Z"/>
            <path class="cls-23" d="m172.4,330.5c-1.5-.3-6.1,1-6.1-1.7.3-1.5-1-6.1,1.7-6,1.5.3,6.1-1,6.1,1.7-.3,1.4,1,6-1.7,6Z"/>
            <path class="cls-23" d="m142,341.8c-1.5-.3-6.1,1-6.1-1.7.3-1.5-1-6.1,1.7-6,1.5.3,6.1-1,6.1,1.7-.2,1.4,1,6.1-1.7,6Z"/>
            <path class="cls-23" d="m161.9,351.2c-1.5-.3-6.1,1-6.1-1.7.3-1.5-1-6.1,1.7-6,1.5.3,6.1-1,6.1,1.7-.3,1.4.9,6.1-1.7,6Z"/>
            <path class="cls-23" d="m151.4,372.4c-1.5-.3-6.1,1-6.1-1.7.3-1.5-1-6.1,1.7-6,1.5.3,6.1-1,6.1,1.7-.3,1.4.9,6-1.7,6Z"/>
          </g>
          <path class="cls-29" d="m282.1,368.2c.1,10-15.6,10-15.4,0-.1-10,15.6-10,15.4,0Z"/>
          <path class="cls-29" d="m387.8,368.9c-.7,5.1-8.7,3.8-7.8-1.2.7-5.2,8.7-3.9,7.8,1.2Z"/>
          <path class="cls-29" d="m387.8,358.2c-.7,5.1-8.7,3.8-7.8-1.2.7-5.1,8.7-3.8,7.8,1.2Z"/>
          <path class="cls-35" d="m322.1,377.4c-41.3-2.3-35,11.2-35.2-28.8,0-1.7,1.4-3,3-3,41.3,2.3,35-11.2,35.2,28.8,0,1.6-1.3,3-3,3Z"/>
          <path class="cls-35" d="m331.3,335.6h36.9c1.7,0,3,1.4,3,3v35.7c0,1.7-1.4,3-3,3h-36.9c-1.7,0-3-1.4-3-3v-35.7c0-1.7,1.3-3,3-3Z"/>
          <path class="cls-35" d="m435.3,345.6c-41.3,2.3-35-11.2-35.2,28.8,0,1.7,1.4,3,3,3,41.3-2.3,35,11.2,35.2-28.8.1-1.7-1.3-3-3-3Z"/>
          <path class="cls-39" d="m364.7,370.5c-1-.8-32.7,1.8-31.4-1.5.5-1.4-1.3-10.6,1.5-10.3h29.9c2.9-.3,1.1,9,1.5,10.3,0,.8-.6,1.5-1.5,1.5h0Z"/>
          <path class="cls-39" d="m364.7,353.5c-1-.8-32.7,1.8-31.4-1.5.5-1.4-1.3-10.6,1.5-10.3h29.9c2.9-.3,1.1,9,1.5,10.3,0,.8-.6,1.5-1.5,1.5h0Z"/>
          <path class="cls-14" d="m436.9,350.2c-.5,3.6-6.1,2.7-5.5-.9.5-3.5,6.1-2.7,5.5.9Z"/>
          <path class="cls-34" d="m407.1,350.2c-.5,3.6-6.1,2.7-5.5-.9.5-3.5,6.1-2.7,5.5.9Z"/>
          <path class="cls-35" d="m483.6,345.6c-41.3,2.3-35-11.2-35.2,28.8,0,1.7,1.4,3,3,3,41.3-2.3,34.9,11.2,35.2-28.8.1-1.7-1.3-3-3-3h0Z"/>
          <path class="cls-14" d="m485.2,350.2c-.5,3.6-6.1,2.7-5.5-.9.5-3.5,6.1-2.7,5.5.9Z"/>
          <path class="cls-34" d="m455.4,350.2c-.5,3.6-6.1,2.7-5.5-.9.5-3.5,6.1-2.7,5.5.9Z"/>
          <path class="cls-35" d="m532,345.6c-41.3,2.3-35-11.2-35.2,28.8,0,1.7,1.3,3,3,3,41.3-2.3,35,11.2,35.2-28.8,0-1.7-1.3-3-3-3Z"/>
          <path class="cls-14" d="m533.5,350.2c-.5,3.6-6.2,2.7-5.5-.9.5-3.5,6.1-2.7,5.5.9Z"/>
          <path class="cls-34" d="m503.7,350.2c-.5,3.6-6.2,2.7-5.5-.9.5-3.5,6.1-2.7,5.5.9Z"/>
          <path class="cls-35" d="m580.3,345.6c-41.3,2.3-35-11.2-35.2,28.8,0,1.7,1.3,3,3,3,41.3-2.3,35,11.2,35.2-28.8,0-1.7-1.3-3-3-3Z"/>
          <path class="cls-14" d="m581.8,350.2c-.5,3.6-6.2,2.7-5.5-.9.5-3.5,6.1-2.7,5.5.9Z"/>
          <path class="cls-34" d="m552,350.2c-.5,3.6-6.2,2.7-5.5-.9.5-3.5,6.1-2.7,5.5.9Z"/>
          <path class="cls-35" d="m628.6,345.6c-41.3,2.3-35-11.2-35.2,28.8,0,1.7,1.3,3,3,3,41.3-2.3,35,11.2,35.2-28.8,0-1.7-1.3-3-3-3Z"/>
          <path class="cls-14" d="m630.1,350.2c-.5,3.6-6.2,2.7-5.5-.9.5-3.5,6.2-2.7,5.5.9Z"/>
          <path class="cls-34" d="m600.3,350.2c-.5,3.6-6.2,2.7-5.5-.9.5-3.5,6.2-2.7,5.5.9Z"/>
          <path class="cls-35" d="m676.9,345.6c-41.3,2.3-35-11.2-35.2,28.8,0,1.7,1.3,3,3,3,41.3-2.3,35,11.2,35.2-28.8,0-1.7-1.3-3-3-3Z"/>
          <g>
            <path class="cls-39" d="m671.1,373.1h-17c-1.3-.2-5.1.8-5.1-1.5v-16.6c0-1.9,2.4-1.4,3.6-1.5-.3-1.6.7-2.5,2.3-2.3-.1-1.1,0-2.6,1.5-2.6h8.8c1.4,0,1.6,1.5,1.5,2.6,1.6-.2,2.6.7,2.3,2.3,1.2,0,3.6-.4,3.6,1.5v16.7c0,.8-.7,1.4-1.5,1.4h0Z"/>
            <g class="cls-40">
              <g>
                <path class="cls-22" d="m655.3,374.5c-1,.4-.3-7.4-.5-7.7,0-.3.2-.5.5-.5,1-.4.3,7.4.5,7.7,0,.3-.2.5-.5.5Z"/>
                <path class="cls-22" d="m660.3,374.5c-1,.4-.3-7.4-.5-7.7,0-.3.2-.5.5-.5,1-.4.3,7.4.5,7.7,0,.3-.2.5-.5.5Z"/>
                <path class="cls-22" d="m665.3,374.5c-1,.4-.3-7.4-.5-7.7,0-.3.2-.5.5-.5,1-.4.3,7.4.5,7.7,0,.3-.2.5-.5.5Z"/>
              </g>
            </g>
          </g>
          <g>
            <path class="cls-39" d="m622.8,373.1h-17c-1.3-.2-5.1.8-5.1-1.5v-16.6c0-1.9,2.4-1.4,3.6-1.5-.3-1.6.7-2.5,2.3-2.3-.1-1.1,0-2.6,1.5-2.6h8.8c1.4,0,1.6,1.5,1.5,2.6,1.6-.2,2.6.7,2.3,2.3,1.2,0,3.6-.4,3.6,1.5v16.7c0,.8-.7,1.4-1.5,1.4h0Z"/>
            <g class="cls-42">
              <g>
                <path class="cls-22" d="m607,374.5c-1,.4-.3-7.4-.5-7.7,0-.3.2-.5.5-.5,1-.4.3,7.4.5,7.7,0,.3-.2.5-.5.5Z"/>
                <path class="cls-22" d="m612,374.5c-1,.4-.3-7.4-.5-7.7,0-.3.2-.5.5-.5,1-.4.3,7.4.5,7.7,0,.3-.2.5-.5.5Z"/>
                <path class="cls-22" d="m617,374.5c-1,.4-.3-7.4-.5-7.7,0-.3.2-.5.5-.5,1-.4.3,7.4.5,7.7,0,.3-.2.5-.5.5Z"/>
              </g>
            </g>
          </g>
          <g>
            <path class="cls-39" d="m574.5,373.1h-17c-1.3-.2-5.1.8-5.1-1.5v-16.6c0-1.9,2.4-1.4,3.6-1.5-.3-1.6.7-2.5,2.3-2.3-.1-1.1,0-2.6,1.5-2.6h8.8c1.4,0,1.6,1.5,1.5,2.6,1.6-.2,2.6.7,2.3,2.3,1.2,0,3.6-.4,3.6,1.5v16.7c0,.8-.7,1.4-1.5,1.4h0Z"/>
            <g class="cls-45">
              <g>
                <path class="cls-22" d="m558.7,374.5c-1,.4-.3-7.4-.5-7.7,0-.3.2-.5.5-.5,1-.4.3,7.4.5,7.7,0,.3-.2.5-.5.5Z"/>
                <path class="cls-22" d="m563.7,374.5c-1,.4-.3-7.4-.5-7.7,0-.3.2-.5.5-.5,1-.4.3,7.4.5,7.7,0,.3-.2.5-.5.5Z"/>
                <path class="cls-22" d="m568.7,374.5c-1,.4-.3-7.4-.5-7.7,0-.3.2-.5.5-.5,1-.4.3,7.4.5,7.7,0,.3-.2.5-.5.5Z"/>
              </g>
            </g>
          </g>
          <g>
            <path class="cls-39" d="m526.2,373.1h-17c-1.3-.2-5.1.8-5.1-1.5v-16.6c0-1.9,2.4-1.4,3.6-1.5-.3-1.6.7-2.5,2.3-2.3-.1-1.1,0-2.6,1.5-2.6h8.8c1.4,0,1.6,1.5,1.5,2.6,1.6-.2,2.6.7,2.3,2.3,1.2,0,3.6-.4,3.6,1.5v16.7c0,.8-.7,1.4-1.5,1.4h0Z"/>
            <g class="cls-44">
              <g>
                <path class="cls-22" d="m510.4,374.5c-1,.4-.3-7.4-.5-7.7,0-.3.2-.5.5-.5,1-.4.3,7.4.5,7.7,0,.3-.2.5-.5.5Z"/>
                <path class="cls-22" d="m515.4,374.5c-1,.4-.3-7.4-.5-7.7,0-.3.2-.5.5-.5,1-.4.3,7.4.5,7.7,0,.3-.2.5-.5.5Z"/>
                <path class="cls-22" d="m520.4,374.5c-1,.4-.3-7.4-.5-7.7,0-.3.2-.5.5-.5,1-.4.3,7.4.5,7.7,0,.3-.2.5-.5.5Z"/>
              </g>
            </g>
          </g>
          <g>
            <path class="cls-39" d="m477.9,373.1h-17c-1.3-.2-5.1.8-5.1-1.5v-16.6c0-1.9,2.4-1.4,3.6-1.5-.3-1.6.7-2.5,2.3-2.3-.1-1.1,0-2.6,1.5-2.6h8.8c1.4,0,1.6,1.5,1.5,2.6,1.6-.2,2.6.7,2.3,2.3,1.2,0,3.6-.4,3.6,1.5v16.7c-.1.8-.7,1.4-1.5,1.4h0Z"/>
            <g class="cls-43">
              <g>
                <path class="cls-22" d="m462.1,374.5c-1,.4-.3-7.4-.5-7.7,0-.3.2-.5.5-.5,1-.4.3,7.4.5,7.7,0,.3-.3.5-.5.5Z"/>
                <path class="cls-22" d="m467.1,374.5c-1,.4-.3-7.4-.5-7.7,0-.3.2-.5.5-.5,1-.4.3,7.4.5,7.7,0,.3-.2.5-.5.5Z"/>
                <path class="cls-22" d="m472.1,374.5c-1,.4-.3-7.4-.5-7.7,0-.3.2-.5.5-.5,1-.4.3,7.4.5,7.7,0,.3-.2.5-.5.5Z"/>
              </g>
            </g>
          </g>
          <g>
            <path class="cls-39" d="m429.6,373.1h-17c-1.3-.2-5.1.8-5.1-1.5v-16.6c0-1.9,2.4-1.4,3.6-1.5-.3-1.6.7-2.5,2.3-2.3-.1-1.1,0-2.6,1.5-2.6h8.8c1.4,0,1.6,1.5,1.5,2.6,1.6-.2,2.6.7,2.3,2.3,1.2,0,3.6-.4,3.6,1.5v16.7c-.1.8-.7,1.4-1.5,1.4h0Z"/>
            <g class="cls-48">
              <g>
                <path class="cls-22" d="m413.8,374.5c-1,.4-.3-7.4-.5-7.7,0-.3.2-.5.5-.5,1-.4.3,7.4.5,7.7,0,.3-.3.5-.5.5Z"/>
                <path class="cls-22" d="m418.8,374.5c-1,.4-.3-7.4-.5-7.7,0-.3.2-.5.5-.5,1-.4.3,7.4.5,7.7,0,.3-.2.5-.5.5Z"/>
                <path class="cls-22" d="m423.8,374.5c-1,.4-.3-7.4-.5-7.7,0-.3.2-.5.5-.5,1-.4.3,7.4.5,7.7,0,.3-.2.5-.5.5Z"/>
              </g>
            </g>
          </g>
          <g>
            <path class="cls-39" d="m316.3,348.7h-17c-1.3.2-5.1-.8-5.1,1.5v16.7c0,1.9,2.4,1.4,3.6,1.5-.3,1.6.7,2.5,2.3,2.3-.1,1.1,0,2.6,1.5,2.6h8.8c1.4,0,1.6-1.5,1.5-2.6,1.6.2,2.6-.7,2.3-2.3,1.2,0,3.6.4,3.6-1.5v-16.7c0-.9-.7-1.5-1.5-1.5h0Z"/>
            <g class="cls-47">
              <g>
                <path class="cls-22" d="m300.5,355.5c-1,.4-.3-7.4-.5-7.7,0-.3.2-.5.5-.5,1-.4.3,7.4.5,7.7,0,.3-.2.5-.5.5Z"/>
                <path class="cls-22" d="m305.5,355.5c-1,.4-.3-7.4-.5-7.7,0-.3.2-.5.5-.5,1-.4.3,7.4.5,7.7,0,.3-.2.5-.5.5Z"/>
                <path class="cls-22" d="m310.6,355.5c-1,.4-.3-7.4-.5-7.7,0-.3.2-.5.5-.5,1-.4.3,7.4.5,7.7,0,.3-.3.5-.5.5Z"/>
              </g>
            </g>
          </g>
          <path class="cls-14" d="m678.5,350.2c-.5,3.6-6.2,2.7-5.5-.9.4-3.5,6.1-2.7,5.5.9Z"/>
          <path class="cls-34" d="m648.7,350.2c-.5,3.6-6.2,2.7-5.5-.9.4-3.5,6.1-2.7,5.5.9Z"/>
          <path class="cls-8" d="m856.9,389.3c.9-17.6-19.8-17.6-18.9,0m5.3,0c-1-15.1,9.4-15.1,8.2,0"/>
          <path class="cls-8" d="m856.9,298c.9,17.6-19.8,17.6-18.9,0m5.3,0c-1,15.1,9.4,15.1,8.2,0"/>
          <g>
            <path class="cls-12" d="m891.9,341.2h-2.4l-.4,1.2h-1l2.1-5.8h1.1l2.1,5.8h-1l-.5-1.2h0Zm-.3-.7l-.9-2.7-.9,2.7h1.8Z"/>
            <path class="cls-12" d="m896.9,338c.3.1.5.3.6.5v-.7h1c-.1.9.2,5-.3,5.8-.8,1.6-4,1.4-4.2-.6h.9c.9,1.7,3.1.4,2.6-1.3-3.8,3.5-5.4-5.4-.6-3.7Zm.5,1.3c-1-1.7-3.3,0-2.4,1.6,1,1.8,3.3,0,2.4-1.6Zm-.1-2.2c-.8.7-2.4.2-2.2-1h.5c-.1.8,1.5.8,1.4,0h.5c.1.4,0,.8-.2,1h0Z"/>
            <path class="cls-12" d="m906.1,338.3c-1.4-2.2-4.5.2-3.3,2.3.8,1.5,3.4,1.2,3.5-.6h-2.2v-.8h3.2c.5,3-3.9,4.4-5.4,1.8-2.1-3.5,3.7-6.5,5.2-2.7h-1Z"/>
            <path class="cls-12" d="m912.4,337.8v4.6h-.9v-.5c-3.1,2.3-3.5-1.9-3.2-4h.9c.2,1-.6,3.9,1.1,3.8,1.8.1,1-2.8,1.2-3.8h.9v-.1Zm-3.1-.7c-.5-.5.3-1.2.7-.7.5.5-.2,1.2-.7.7Zm1.4,0c-.5-.5.3-1.2.7-.7.5.5-.2,1.2-.7.7Z"/>
            <path class="cls-12" d="m915.4,341.5l1.3-3.7h1l-1.7,4.6h-1.1l-1.7-4.6h1l1.2,3.7h0Z"/>
            <path class="cls-12" d="m922.6,340.5h-3.5c0,1.2,1.9,1.7,2.4.6h1c-1.2,3.1-5.7.6-4.1-2.2,1.2-2.2,4.8-.9,4.2,1.6h0Zm-1-.8c0-1.5-2.5-1.5-2.5,0h2.5Z"/>
            <path class="cls-12" d="m926.8,338c1.4.6.8,3.2.9,4.4h-.9c-.2-1,.6-3.9-1.1-3.8-1.8-.1-1,2.8-1.2,3.8h-.9v-4.6h.9v.5c.5-.6,1.6-.7,2.3-.3h0Z"/>
            <path class="cls-12" d="m929.9,336.3v6.1h-.9v-6.1h.9Z"/>
            <path class="cls-12" d="m931.2,337.1c-.6-.5.3-1.4.8-.9.6.6-.3,1.4-.8.9Zm.9.7v4.6h-.9v-4.6h.9Z"/>
            <path class="cls-12" d="m935.1,340.1l2.1,2.3h-1.3l-1.7-2v2h-.9v-6.1h.9v3.6l1.7-2h1.3l-2.1,2.2h0Z"/>
            <path class="cls-12" d="m941.8,341.5l1.3-3.7h1l-1.7,4.6h-1.1l-1.7-4.6h1l1.2,3.7h0Z"/>
            <path class="cls-12" d="m948.9,340.5h-3.5c0,1.2,1.9,1.7,2.4.6h1c-1.2,3.1-5.7.6-4.1-2.2,1.3-2.2,4.9-.9,4.2,1.6h0Zm-.9-.8c0-1.5-2.5-1.5-2.5,0h2.5Z"/>
            <path class="cls-12" d="m889.3,351.6h2v.8h-2.9v-5.8h.9v5Z"/>
            <path class="cls-12" d="m892.9,352.1c-2.6-1.5-.3-5.7,2.4-4.1,2.6,1.5.2,5.6-2.4,4.1Zm1.8-.7c1.5-.9.4-3.7-1.3-2.7-1.5.9-.4,3.7,1.3,2.7Z"/>
            <path class="cls-12" d="m900.1,347.9c.3.1.5.3.6.5v-.7h1c-.1.9.2,5-.3,5.8-.8,1.6-4,1.4-4.2-.6h.9c.9,1.7,3.1.4,2.6-1.3-3.8,3.6-5.4-5.4-.6-3.7Zm.5,1.3c-1-1.7-3.3,0-2.4,1.6,1,1.8,3.3,0,2.4-1.6Z"/>
            <path class="cls-12" d="m903.9,346.2v6.1h-.9v-6.1h.9Z"/>
            <path class="cls-12" d="m905.1,348.8c.6-1.3,2.6-1.5,3.5-.4v-.7h1v4.6h-1v-.7c-1.8,2.2-4.8-.6-3.5-2.8Zm3.3.4c-1-1.7-3.3,0-2.4,1.6,1,1.8,3.3,0,2.4-1.6Z"/>
            <path class="cls-12" d="m917.2,347.9c1.4.6.8,3.2.9,4.4h-.9c-.2-1,.6-3.9-1.1-3.8-1.8-.1-1,2.8-1.2,3.8h-.9c-.2-1,.6-3.9-1.1-3.8-1.8-.1-1,2.8-1.2,3.8h-1v-4.6h.9v.5c.8-.9,2.5-.8,3,.3.5-.8,1.8-1,2.6-.6h0Z"/>
            <path class="cls-12" d="m919.3,348.8c.6-1.3,2.6-1.5,3.5-.4v-.7h1v4.6h-1v-.7c-1.8,2.2-4.8-.6-3.5-2.8Zm3.3.4c-1-1.7-3.3,0-2.4,1.6,1,1.8,3.3,0,2.4-1.6Z"/>
            <path class="cls-12" d="m928,352.2c-.6-.3-1-.8-1-1.4h1c.2,1.9,3.4.2,1.5-.7-.7-.3-1.7-.3-2.2-1-1.5-2.5,3.5-3.6,3.7-.9h-1c-.3-1.7-3.2-.2-1.4.7,3.6.2,2.8,4.5-.6,3.3h0Z"/>
            <path class="cls-12" d="m932.2,347c-.6-.5.3-1.4.8-.9.6.6-.3,1.5-.8.9Zm.8.8v4.6h-.9v-4.6h.9Z"/>
            <path class="cls-12" d="m935,352.2c-.5-.2-.9-.7-.9-1.3h1c0,1.1,2.5.7,1.5-.2-.6-.3-1.7-.4-2.2-1-1.3-2.2,3.3-2.9,3.3-.6h-1c0-1.3-2.7-.4-1.2.3,3.3.4,2.4,3.9-.5,2.8h0Z"/>
            <path class="cls-12" d="m939.8,348.5c.2,1-.7,3.5,1.1,3v.8c-2.7.5-2-2.1-2.1-3.8h-.5v-.8h.5v-1.1h1v1.1h1.1v.8h-1.1Z"/>
            <path class="cls-12" d="m945.9,350.4h-3.5c0,1.2,1.9,1.7,2.4.6h1c-1.2,3.1-5.7.6-4.1-2.2,1.2-2.2,4.9-.9,4.2,1.6h0Zm-.9-.8c0-1.5-2.5-1.5-2.5,0h2.5Z"/>
            <path class="cls-12" d="m953.4,347.9c1.4.6.8,3.2.9,4.4h-.9c-.2-1,.6-3.9-1.1-3.8-1.8-.1-1,2.8-1.2,3.8h-.9c-.2-1,.6-3.9-1.1-3.8-1.8-.1-1,2.8-1.2,3.8h-.9v-4.6h.9v.5c.8-.9,2.5-.8,3,.3.3-.8,1.6-1,2.5-.6h0Z"/>
            <path class="cls-12" d="m955.5,347c-.6-.5.3-1.4.8-.9.6.6-.2,1.5-.8.9Zm.9.8v4.6h-.9v-4.6h.9Z"/>
          </g>
        </g>
        <g class="cls-49">
          <g class="cls-46">
            <g>
              <path class="cls-24" d="m582.2,290c-61.7.8,27.1,3.2,41,1.9-.7-.1-5.3-.5-5.7-.6,1.4-.2,3-.1,4.5-.1,1.7-.3-26.4-.1-27.2-.1-.3,0-1.1,0-.9,0,4.5.2,9.3,0,13.7.7-10.5,0-21.5.7-31.8-1.3,11.5-1.1,23.6.1,35.1.1-2.6-.3-7.9-.9-10.5-.7-.2,0-.2.1-.4.1-5.8.1-11.9-.1-17.8,0"/>
              <path class="cls-24" d="m529.7,291.9c-5.2-.3-11.5.5-16-1.2,6.2-1.9,41.9.9,16,1.2m-5.5-2c-8.7.3-18.4-.6-26.4,1,16.7,1.9,34.9,1.1,51.7.9,21.5-1.2-21-2.1-25.3-1.9"/>
              <path class="cls-24" d="m470.9,290h-25.6c-.5,0-1,0-1.5.1,2,.1,4.3,0,6.3.1.2,0,.2.1,0,.1l-3.1,1.3c-2.3.5-4.9.2-7.2.3-.4,0-2.1,0-1.5.1h52.4l1.2-.8c-.2-.1-.3,0-.5,0h-4c-7.8,1-16,.5-23.9.6-.2,0-.9.1-.7-.2.4-.3,1.5-1.5,2.1-1.4,2.3-.1,4.8,0,7.1-.1-.1-.2-.7-.1-1.1-.1"/>
              <path class="cls-24" d="m442.6,289c-26.4.3-105.3,3.9-131.5,4.4,12.8,0,32,.1,44.9,0,.7-.4-6.2-.3-8.5-.4,15.6-.8,55-2.5,70,0-5.1.1-8.3,0-12,.4,12.1.1,33.1,0,45.4,0-8.8-.3-35.4-1.9-44.6-2.7l42.8-1.7c-2,0-4.3,0-6.5,0m-67.4,0c-2.9,0-6.2,0-8.9.1,7.7.8,24.9,2,32.5,1.1-6.1-.4-17.7-1.4-23.6-1.2"/>
            </g>
          </g>
        </g>
      </g>
      <g>
        <g>
          <polygon class="cls-20" points="608.6 562.2 608.6 566.8 576.5 568.4 576.5 562.2 608.6 562.2"/>
          <rect class="cls-37" x="380" y="562.2" width="196.5" height="6.3"/>
          <polygon class="cls-20" points="380 562.2 380 568.4 348 566.8 346.3 566.8 346.3 562.2 380 562.2"/>
        </g>
        <g>
          <path class="cls-36" d="m575.7,568.4c0,.8-3.3,74.8-3.5,78.2h-189.5c-.2-3.8-3.5-77-3.5-78.2h196.5Z"/>
          <polygon class="cls-38" points="382.7 646.6 351.7 640.5 347.1 566.8 379.2 568.4 382.7 646.6"/>
          <polygon class="cls-38" points="607.8 566.8 603.2 640.5 572.2 646.6 575.7 568.4 607.8 566.8"/>
          <polygon class="cls-2" points="607.8 566.8 607.7 568.1 575.7 571.4 575.7 568.4 607.8 566.8"/>
          <polygon class="cls-2" points="347.1 566.8 347.2 568.1 379.2 571.4 379.2 568.4 347.1 566.8"/>
          <polygon class="cls-21" points="572.2 646.6 568.8 655.8 386.1 655.8 382.7 646.6 572.2 646.6"/>
          <polygon class="cls-27" points="382.7 646.6 351.7 640.5 358.8 649.8 386.1 655.8 382.7 646.6"/>
          <polygon class="cls-27" points="568.8 655.8 596.1 649.8 603.2 640.5 572.2 646.6 568.8 655.8"/>
          <path class="cls-36" d="m348.8,558h257.3c2.2,0,2.7,2.4,2.4,4.1h-262.1c-.2-1.7.2-4.1,2.4-4.1h0Z"/>
          <g>
            <g>
              <polygon class="cls-28" points="579.7 653.2 578.6 653.4 586.4 643.7 588.5 643.3 579.7 653.2"/>
              <polygon class="cls-28" points="602.8 610.9 601.6 640.7 599.6 641.1 600.7 611.3 602.8 610.9"/>
              <polygon class="cls-28" points="592.8 650.5 591.7 650.8 599.6 641.1 601.6 640.7 592.8 650.5"/>
              <path class="cls-28" d="m589.6,613.2c0,.5-1.1,29.7-1.1,30.1l-2,.4,1.1-30.2,2-.3h0Z"/>
              <g>
                <polygon class="cls-28" points="584.8 652 586 651.8 595.6 641.7 593.6 642.1 584.8 652"/>
                <path class="cls-28" d="m596.4,612.1l-.7,29.6-2,.4.7-29.6,2-.4h0Z"/>
              </g>
            </g>
            <g>
              <polygon class="cls-28" points="375.2 653.2 376.4 653.4 368.5 643.7 366.4 643.3 375.2 653.2"/>
              <polygon class="cls-28" points="352.2 610.9 353.3 640.7 355.3 641.1 354.2 611.3 352.2 610.9"/>
              <polygon class="cls-28" points="362.1 650.5 363.2 650.8 355.3 641.1 353.3 640.7 362.1 650.5"/>
              <path class="cls-28" d="m365.3,613.2c0,.5,1.1,29.7,1.1,30.1l2,.4-1.1-30.2-2-.3h0Z"/>
              <g>
                <polygon class="cls-28" points="370.1 652 368.9 651.8 359.3 641.7 361.3 642.1 370.1 652"/>
                <path class="cls-28" d="m358.6,612.1l.7,29.6,2,.4-.7-29.6-2-.4h0Z"/>
              </g>
            </g>
          </g>
          <line class="cls-3" x1="596.8" y1="612.1" x2="594.7" y2="612.5"/>
          <path class="cls-13" d="m459.3,621.4c.1,5.3-8.3,5.3-8.2,0,0-5.3,8.3-5.3,8.2,0Z"/>
          <path class="cls-16" d="m392.5,596.2h38.8c1.7,0,3,1.3,3,3v26.3c0,1.7-1.3,3-3,3h-38.8c-1.7,0-3-1.3-3-3v-26.3c0-1.7,1.3-3,3-3Z"/>
          <g>
            <polygon class="cls-13" points="415.1 600.2 415.1 596.2 408.6 596.2 408.6 600.2 393.8 600.2 393.8 624.5 430 624.5 430 600.2 415.1 600.2"/>
            <path class="cls-16" d="m401.2,606.8h-1.8v11.2h1.8v-2.8h2.5v-5.6h-2.5v-2.8h0Z"/>
            <path class="cls-16" d="m422.5,606.8v2.8h-2.5v5.6h2.5v2.8h1.8v-11.2h-1.8Z"/>
            <path class="cls-16" d="m411.9,608.1c-5.5-.1-5.5,8.6,0,8.5,5.5.1,5.5-8.6,0-8.5Z"/>
          </g>
          <path class="cls-18" d="m475.8,595.8h45.5c1.7,0,3,1.3,3,3v33.4c0,1.7-1.3,3-3,3h-45.5c-1.7,0-3-1.3-3-3v-33.4c0-1.6,1.4-3,3-3Z"/>
          <path class="cls-13" d="m535.8,597.1h25.4c1.7,0,3,1.3,3,3v32.1c0,1.7-1.3,3-3,3h-25.4c-1.7,0-3-1.3-3-3v-32.1c0-1.7,1.4-3,3-3Z"/>
          <polygon class="cls-32" points="517.6 606.7 511.2 606.7 511.2 603.3 507.9 603.3 507.9 600 504.9 600 504.9 595.8 492.3 595.8 492.3 600 489.3 600 489.3 603.3 486 603.3 486 606.7 479.6 606.7 479.6 626 486 626 486 629.3 511.2 629.3 511.2 626 517.6 626 517.6 606.7"/>
          <g>
            <rect class="cls-11" x="509.6" y="611.7" width="1.2" height="13.4"/>
            <rect class="cls-11" x="506.7" y="611.7" width="1.2" height="13.4"/>
            <rect class="cls-11" x="503.8" y="611.7" width="1.2" height="13.4"/>
            <rect class="cls-11" x="500.9" y="611.7" width="1.2" height="13.4"/>
            <rect class="cls-11" x="498" y="611.7" width="1.2" height="13.4"/>
            <rect class="cls-11" x="495.1" y="611.7" width="1.2" height="13.4"/>
            <rect class="cls-11" x="492.1" y="611.7" width="1.2" height="13.4"/>
            <rect class="cls-11" x="489.2" y="611.7" width="1.2" height="13.4"/>
            <rect class="cls-11" x="486.3" y="611.7" width="1.2" height="13.4"/>
          </g>
          <path class="cls-7" d="m559.4,612.6c-.1,14.3-21.8,14.3-21.8,0,.1-14.3,21.8-14.3,21.8,0Z"/>
          <path class="cls-35" d="m551.4,612.6c0,3.7-5.8,3.7-5.7,0-.1-3.7,5.7-3.7,5.7,0Z"/>
          <g>
            <rect class="cls-31" x="387.9" y="655.8" width="17.5" height="5.4"/>
            <rect class="cls-31" x="549.5" y="655.8" width="17.5" height="5.4"/>
          </g>
          <g>
            <path class="cls-10" d="m542.8,579.7c1.7-.1,1.8,1.5,1.8,2.9.1,1.8-1.5,2.1-2.9,2v3.4h-.6v-8.2l1.7-.1h0Zm-.2,4.4c1.4.1,1.4-1.3,1.4-2.4.2-1.5-1.3-1.5-2.4-1.5v3.8h1v.1Z"/>
            <path class="cls-10" d="m547.3,587.9h-.8l-1.3-8.2h.5l1.2,7.5,1.2-7.5h.6l1.2,7.4,1.2-7.5h.5l-1.3,8.2h-.7l-1.1-6.7-1.2,6.8h0Z"/>
            <path class="cls-10" d="m554.1,579.7c2.3-.3,2.4,3.9.6,4.3,1.9.3.8,2.7,1.4,3.9h-.6c-.5-2,.6-4.1-2.6-3.7v3.7h-.5v-8.2h1.7Zm-.3,4.1c1.4.2,1.6-1,1.5-2.2.1-1.5-1.3-1.5-2.4-1.4v3.5l.9.1h0Z"/>
          </g>
          <g>
            <path class="cls-10" d="m492.3,587.9v-8.2h.5v7.7h2.6v.5h-3.1Z"/>
            <path class="cls-10" d="m497,586.1l-.4,1.8h-.5l1.8-8.2h.8l1.8,8.2h-.5l-.4-1.8h-2.6Zm0-.5h2.4l-1.2-5.3-1.2,5.3Z"/>
            <path class="cls-10" d="m501.8,587.9h-.5v-8.2h.7l2.5,6.9v-6.9h.5v8.2h-.6l-2.6-7.3v7.3h0Z"/>
          </g>
          <g>
            <path class="cls-10" d="m450.9,579.7c2.3-.3,2.4,3.9.6,4.3,1.9.3.8,2.7,1.4,3.9h-.6c-.5-2,.6-4.1-2.6-3.7v3.7h-.6v-8.2h1.8Zm-.3,4.1c1.4.2,1.6-1,1.5-2.2.1-1.5-1.3-1.5-2.4-1.4v3.5l.9.1h0Z"/>
            <path class="cls-10" d="m457.1,581.7v.2h-.5c.4-2.1-2.6-2.4-2.4-.2,0,2,3,2,3,4.3.2,3-4.2,2.5-3.5-.4h.5c-.5,2.2,2.6,2.8,2.5.5,0-2-3-2-3-4.3-.3-2.8,3.7-2.8,3.4-.1h0Z"/>
            <path class="cls-10" d="m459.4,587.9v-7.7h-1.7v-.5h3.9v.5h-1.7v7.7h-.5Z"/>
          </g>
          <g>
            <path class="cls-10" d="m407.4,579.7c1.7-.1,1.8,1.5,1.8,2.9.1,1.8-1.5,2.1-2.9,2v3.4h-.5v-8.2l1.6-.1h0Zm-.2,4.4c1.4.1,1.4-1.3,1.4-2.4.2-1.5-1.3-1.5-2.4-1.5v3.8h1v.1Z"/>
            <path class="cls-10" d="m409.9,581.7c-.3-2.7,3.9-2.7,3.6,0-.3,1.6,1,6.4-1.8,6.3-2.8.1-1.5-4.7-1.8-6.3h0Zm.6,4.2c-.2,2,2.7,2,2.5,0-.3-1.2.9-5.9-1.3-5.8-2.2-.1-.9,4.6-1.2,5.8h0Z"/>
            <path class="cls-10" d="m414.9,587.9h-.5v-8.2h.7l2.5,6.9v-6.9h.5v8.2h-.6l-2.6-7.3v7.3h0Z"/>
          </g>
          <polygon class="cls-1" points="575.7 568.4 575.7 571.4 379.2 571.4 379.2 568.4 575.7 568.4"/>
        </g>
      </g>
      <path class="cls-26" d="m328.2,277.7c-1.4,0-2.5-1.1-2.5-2.5v-77.9h5v77.9c0,1.4-1.1,2.5-2.5,2.5Z"/>
      <g>
        <polygon class="cls-26" points="348.6 213.9 345 217.3 328.2 199.2 311.4 217.3 307.8 213.9 328.2 191.9 348.6 213.9"/>
        <polygon class="cls-26" points="348.6 213.9 345 217.3 328.2 199.2 311.4 217.3 307.8 213.9 328.2 191.9 348.6 213.9"/>
      </g>
      <path class="cls-26" d="m372.5,110.4c-2.5-1.5-6.3,0-6.6,3.1h8.6c-.2-1.3-.9-2.4-2-3.1Z"/>
      <path class="cls-26" d="m315.6,110.4c-2.5-1.5-6.3,0-6.6,3.1h8.6c-.1-1.3-.9-2.4-2-3.1Z"/>
      <path class="cls-26" d="m405.1,88.3c1.1-32.5-35.8-55.3-64.3-40.3-23.2-39.2-87.3-23.1-88.6,23-52.5,5.8-48.3,85.7,5,85.6h145.1c18.9,0,34.2-15.3,34.2-34.2s-13.8-32.6-31.4-34.1h0Zm-140.8,35.5h-5.2v-22.7h5.2v22.7Zm22.9,0h-5.1c-.7-3.2,2.2-13.6-3.5-13.3-6.3-.3-3.7,9.7-4.2,13.3h-5.1v-17.4h4.8v2.1c3-3.4,9.8-3.2,12.1,1,1.7,2.4.8,11.3,1,14.3h0Zm13.9-.1c-9.5,2.2-9.1-6.5-8.8-13.2h-2.7v-3.9h2.7v-4.2h5.1v4.2h4.3v3.9h-4.3c.2,2.7-1.5,12.3,4.2,8.8l1.4,3.6c-.5.4-1.1.6-1.9.8Zm21.3-7.9c0,.2,0,.5-.1.7h-13.2c.8,4.1,6.8,4.5,9.4,1.8l2.7,2.9c-7.1,7.6-21.8-1-15.9-10.8,4.5-7.9,18.4-4.3,17.1,5.4h0Zm14.2-5.1c-7.6-1.6-5.5,8.6-5.8,13h-5.1v-17.4h4.8v2.3c1.4-1.9,3.5-2.6,6-2.6.1.1.1,4.7.1,4.7Zm20.8,13.1h-5.1c-.7-3.2,2.2-13.6-3.5-13.3-6.3-.3-3.7,9.7-4.2,13.3h-5.1v-17.4h4.8v2.1c3-3.4,9.8-3.2,12.1,1,1.7,2.4.8,11.3,1,14.3h0Zm21.8-8c0,.2,0,.5-.1.7h-13.2c.8,4.1,6.8,4.5,9.4,1.8l2.7,2.9c-7.1,7.6-21.8-1-15.9-10.8,4.5-7.9,18.4-4.3,17.1,5.4h0Zm12.8,7.9c-9.5,2.2-9.1-6.5-8.8-13.2h-2.7v-3.9h2.7v-4.2h5.1v4.2h4.3v3.9h-4.3c.2,2.7-1.5,12.3,4.2,8.8l1.4,3.6c-.6.4-1.2.6-1.9.8Z"/>
      <path class="cls-26" d="m343.4,39c8-2.8,16.9-3.6,25.3-2.3-10.6-16.2-34-23.9-52.6-16.2,10.7,3.2,20.2,9.6,27.3,18.5h0Z"/>
      <path class="cls-26" d="m245.6,64.8c4.3-30.1,34.3-51.6,64.6-45.7-24.3-35.8-86-17.9-86.5,26.1-41.1,3.8-51.9,62.2-15.3,80.5-6.9-26.7,10.6-55.1,37.2-60.9h0Z"/>
      <g>
        <g>
          <g>
            <path class="cls-33" d="m409.6,352.8h19.2c1.5,0,2.7,1.2,2.7,2.7v14.9c0,1.5-1.2,2.7-2.7,2.7h-19.2c-1.5,0-2.7-1.2-2.7-2.7v-14.9c0-1.5,1.2-2.7,2.7-2.7Z"/>
            <path class="cls-9" d="m410.8,354.7h16.9c1.5,0,2.7,1.2,2.7,2.7v13c0,1.5-1.2,2.7-2.7,2.7h-16.9c-1.5,0-2.7-1.2-2.7-2.7v-13c0-1.5,1.2-2.7,2.7-2.7Z"/>
          </g>
          <g>
            <path class="cls-33" d="m410.4,357.7c.3-.7,1.4-1.3,2.7-1.3,2.1-.1,15-.5,14.9,1.3.7.2,1.3,1.2,1.3,2.4s.3,10.5-.4,11.2c-.2,1-1.1,1.9-2.3,1.8-1-.1-14,.3-15.6-.3-1.1-.4-2.1-1.2-2-2.4s-.8-12.8,1.4-12.7h0Z"/>
            <path class="cls-9" d="m412.7,357.9c1.2.2,14.5-1,14.4,1.4.7.3,1.3,1.2,1.3,2.4,0,1.1.2,9-.4,9.7-.2,1-1.1,1.9-2.3,1.7-1.2-.2-14.5,1-14.4-1.4-.7-.3-1.3-1.2-1.3-2.4,0-1.1-.2-9,.4-9.7.2-.9,1.2-1.8,2.3-1.7Z"/>
          </g>
          <g>
            <path class="cls-33" d="m424.6,373.1c-2.4-.6-13.6,1.9-13.3-2.7.5-2.4-1.7-10.7,2.7-10.5,2.4.6,13.6-1.9,13.3,2.7-.6,2.4,1.7,10.7-2.7,10.5Z"/>
            <path class="cls-9" d="m423.8,373.1c-2.4-.6-12,1.9-11.8-2.7.4-2.3-1.5-9.4,2.7-9.3,2.4.6,12-1.9,11.8,2.7-.4,2.4,1.5,9.5-2.7,9.3Z"/>
          </g>
        </g>
        <rect class="cls-9" x="416.2" y="356.8" width="6.1" height="2.1"/>
        <rect class="cls-33" x="416.2" y="346" width="6.1" height="10.8"/>
      </g>
      <g>
        <g>
          <g>
            <path class="cls-33" d="m482,603h33c1.5,0,2.7,1.2,2.7,2.7v21.1c0,1.5-1.2,2.7-2.7,2.7h-33c-1.5,0-2.7-1.2-2.7-2.7v-21.1c0-1.5,1.2-2.7,2.7-2.7Z"/>
            <path class="cls-9" d="m483.8,605.5h29.4c1.5,0,2.7,1.2,2.7,2.7v18.6c0,1.5-1.2,2.7-2.7,2.7h-29.4c-1.5,0-2.7-1.2-2.7-2.7v-18.6c0-1.5,1.2-2.7,2.7-2.7Z"/>
          </g>
          <g>
            <path class="cls-33" d="m485.4,607.6h26.3c1.5,0,2.7,1.2,2.7,2.7v16.5c0,1.5-1.2,2.7-2.7,2.7h-26.3c-1.5,0-2.7-1.2-2.7-2.7v-16.5c0-1.5,1.2-2.7,2.7-2.7Z"/>
            <path class="cls-9" d="m485.5,611c0-.8,1-1.3,2.3-1.3h21.4c1.3,0,2.3.6,2.3,1.3.8,0,1.4,3.2,1.3,3.9-.1.9.2,10.6-.1,12.2-.3,1.4-1.2,2.4-2.6,2.4h-23.3c-1.4,0-2.4-1-2.7-2.3,0-.1-.1-.7-.1-.9.3-1.2-.8-15.4,1.5-15.3h0Z"/>
          </g>
          <g>
            <path class="cls-33" d="m488.7,612.2h19.6c1.5,0,2.7,1.2,2.7,2.7v11.9c0,1.5-1.2,2.7-2.7,2.7h-19.6c-1.5,0-2.7-1.2-2.7-2.7v-11.9c0-1.5,1.2-2.7,2.7-2.7Z"/>
            <path class="cls-9" d="m507.1,629.5h-17.3c-1.5,0-2.7-1.2-2.7-2.7.6-2.4-1.9-13.2,2.7-13h17.3c1.5,0,2.7,1.2,2.7,2.7-.6,2.5,2,13.3-2.7,13Z"/>
          </g>
        </g>
        <rect class="cls-9" x="493.8" y="608.2" width="9.5" height="2.7"/>
        <rect class="cls-33" x="493.8" y="594.1" width="9.5" height="14.1"/>
      </g>
      <rect class="cls-17" x="399" y="599.2" width="25.4" height="25.4"/>
      <rect class="cls-15" x="395.6" y="602.9" width="32.2" height="17.9"/>
      <g>
        <g>
          <path class="cls-16" d="m420,616.3c.2,10.8-16.8,10.8-16.6,0-.2-10.8,16.8-10.8,16.6,0Z"/>
          <path class="cls-15" d="m419.5,616.3c.1,10.1-15.8,10.1-15.6,0-.2-10.2,15.8-10.2,15.6,0Z"/>
        </g>
        <g>
          <path class="cls-16" d="m419.2,616.3c0,9.8-15,9.8-15,0s15-9.8,15,0Z"/>
          <path class="cls-15" d="m418.8,616.3c0,9.2-14.1,9.2-14.1,0s14.1-9.2,14.1,0Z"/>
        </g>
        <g>
          <path class="cls-16" d="m418.4,616.3c.1,8.7-13.6,8.7-13.5,0-.1-8.8,13.6-8.8,13.5,0Z"/>
          <path class="cls-15" d="m418,616.3c.1,8.2-12.8,8.2-12.6,0-.1-8.2,12.7-8.2,12.6,0Z"/>
        </g>
      </g>
    </g>
    <path class="cls-4" d="m392.3,673H4.3c-1.5,0-2.8-1.2-2.7-2.7.1-1.3-.3-2.3,1-2.3h389.7c4.6,0,8.8-1.8,12-5s5-7.5,4.9-12.1l-.3-34.3c0-1.4,1.1-2.5,2.5-2.5s2.5,1.1,2.5,2.5l.3,34.3c0,5.9-2.2,11.5-6.4,15.6-4.1,4.2-9.6,6.5-15.5,6.5Z"/>
    <path class="cls-9" d="m639.3,676.1h-121.8c-13.2,0-24-10.8-24-24v-29.3h9v29.3c0,8.3,6.7,15,15,15h121.8c14.8,0,26.8-12,26.8-26.8v-108.6c0-14.8-12-26.8-26.8-26.8h-188.7c-18.9,0-34.6-15.2-35.8-34.5v-102.1h9v101.7c.9,14.6,12.7,25.9,26.8,25.9h188.7c19.7,0,35.8,16,35.8,35.8v108.6c0,19.8-16.1,35.8-35.8,35.8Z"/>
  </g>
  <g id="color-gpon">
    <g>
      <path class="cls-30" d="m72.7,655.9h2.4v-6.9h8.6v-2.1h-8.6v-5.9h9.6v-2.1h-12v17Z"/>
      <rect class="cls-30" x="87.6" y="643" width="2.3" height="12.9"/>
      <path class="cls-30" d="m88.7,637.8c-.4,0-.7.1-1,.4-.3.2-.4.6-.4,1s.1.7.4,1c.2.3.6.4,1,.4s.8-.1,1-.4c.3-.2.4-.6.4-1s-.1-.7-.4-1c-.2-.3-.6-.4-1-.4Z"/>
      <path class="cls-30" d="m104.5,643.6c-1-.5-2.1-.8-3.4-.8-1,0-2,.2-2.9.7-.6.4-1.2.8-1.6,1.4v-7.1h-2.3v18.1h2.3v-2c.4.6,1,1,1.6,1.4.9.5,1.9.7,3,.7,1.3,0,2.3-.4,3.3-.9s1.7-1.3,2.3-2.3c.6-1,.9-2.2.9-3.5s-.3-2.4-.9-3.4c-.6-1-1.3-1.8-2.3-2.3Zm.3,8.2c-.4.7-1,1.2-1.6,1.6-.6.4-1.4.6-2.2.6s-1.5-.2-2.2-.6c-.7-.4-1.2-.9-1.6-1.6s-.6-1.5-.6-2.4.2-1.7.6-2.4.9-1.2,1.6-1.6c.6-.4,1.4-.6,2.2-.6s1.5.2,2.2.6,1.2.9,1.6,1.6c.4.7.6,1.5.6,2.4s-.2,1.7-.6,2.4Z"/>
      <path class="cls-30" d="m119.5,643.8c-.9-.5-2.1-.8-3.3-.8s-2.3.2-3.3.8c-1,.5-1.8,1.3-2.3,2.3s-.8,2.1-.8,3.4.3,2.4.9,3.4c.5,1,1.3,1.7,2.4,2.3,1,.5,2.2.8,3.6.8,1,0,2-.2,2.9-.4.9-.4,1.6-.9,2.2-1.6l-1.3-1.5c-.4.5-1,.9-1.6,1.2s-1.3.4-2.1.4c-1,0-1.7-.2-2.5-.6-.8-.4-1.3-.9-1.7-1.6-.3-.5-.5-1-.6-1.6h10.5v-.7c0-1.3-.3-2.5-.8-3.5s-1.3-1.8-2.2-2.3Zm-5.5,1.7c.7-.3,1.4-.5,2.2-.5s1.6.1,2.2.5c.6.3,1.1.8,1.5,1.5.2.4.4,1,.5,1.6h-8.4c0-.6.2-1.1.5-1.6.4-.6.9-1.1,1.5-1.5Z"/>
      <path class="cls-30" d="m128,645.2v-2.2h-2.2v12.9h2.3v-6.4c0-1.4.4-2.4,1.1-3.2.8-.7,1.8-1.1,3-1.1h.5v-2.3c-1.2,0-2.3.3-3.1.7-.7.3-1.2.9-1.6,1.6Z"/>
      <path class="cls-30" d="m156.9,640.8c-.8-.8-1.8-1.4-2.9-1.8-1.1-.4-2.3-.6-3.6-.6s-2.5.3-3.6.7-2.1,1-2.9,1.8-1.4,1.7-1.9,2.8-.7,2.2-.7,3.5.2,2.4.7,3.5,1.1,2,1.9,2.8,1.8,1.3,2.9,1.8c1.1.5,2.3.7,3.6.7s2.5-.4,3.6-.8,2.1-1,2.9-1.8,1.4-1.7,1.9-2.8.7-2.2.7-3.5-.2-2.4-.7-3.5-1.1-2-1.9-2.8Zm-.4,9.1c-.3.8-.8,1.5-1.4,2.1-.6.6-1.3,1.1-2.1,1.4s-1.7.5-2.6.5c-1,0-1.8-.2-2.6-.5-.8-.4-1.5-.8-2.1-1.4-.6-.6-1.1-1.3-1.4-2.1s-.5-1.7-.5-2.6.2-1.8.5-2.6.8-1.5,1.4-2.1c.6-.6,1.3-1.1,2.1-1.4s1.7-.5,2.6-.5,1.8.2,2.6.5c.8.4,1.5.8,2.1,1.4.6.6,1.1,1.3,1.4,2.1s.5,1.7.5,2.6-.2,1.8-.5,2.6Z"/>
      <path class="cls-30" d="m173.1,643.6c-1-.5-2.1-.8-3.4-.8-1.1,0-2.1.2-3,.7-.7.4-1.2.9-1.7,1.5v-2h-2.2v17.6l2.3.1v-6.8c.4.6,1,1,1.6,1.4.8.5,1.8.7,2.9.7,1.3,0,2.5-.4,3.5-.9s1.7-1.3,2.3-2.3.9-2.2.9-3.5-.3-2.4-.9-3.4c-.6-1-1.3-1.8-2.3-2.3Zm.1,8.2c-.4.7-1,1.2-1.6,1.6-.6.4-1.4.6-2.2.6s-1.5-.2-2.2-.6-1.2-.9-1.6-1.6c-.4-.7-.6-1.5-.6-2.4s.2-1.7.6-2.4c.4-.7.9-1.2,1.6-1.6.6-.4,1.4-.6,2.2-.6s1.5.2,2.2.6,1.2.9,1.6,1.6.6,1.5.6,2.4-.2,1.7-.6,2.4Z"/>
      <path class="cls-30" d="m184,654.1c-.6,0-1.2-.2-1.5-.6s-.5-.9-.5-1.6v-7h3.7v-1.9h-3.7v-2.8h-2.3v2.8h-2.2v1.9h2.2v7.1c0,1.3.4,2.3,1.1,3,.7.7,1.7,1,3,1,.6,0,1.1-.1,1.4-.1.5-.2.9-.4,1.3-.7l-.7-1.7c-.5.4-1.1.6-1.8.6Z"/>
      <path class="cls-30" d="m190.6,637.8c-.4,0-.7.1-1,.4-.3.2-.4.6-.4,1s.1.7.4,1c.2.3.6.4,1,.4s.8-.1,1-.4c.3-.2.4-.6.4-1s-.1-.7-.4-1c-.2-.3-.6-.4-1-.4Z"/>
      <rect class="cls-30" x="189.5" y="643" width="2.3" height="12.9"/>
      <polygon class="cls-30" points="208.5 642.9 205.7 642.9 198.6 649.4 198.6 637.8 196.3 637.8 196.3 655.9 198.6 655.9 198.6 652.3 201.2 649.9 206.1 655.9 208.9 655.9 203 648.3 208.5 642.9"/>
      <polygon class="cls-30" points="232.7 638.8 229.9 638.8 220.6 648.4 220.6 638.9 218.2 638.9 218.2 655.9 220.6 655.9 220.6 651.5 223.7 648.3 230.2 655.9 233 655.9 225.3 646.6 232.7 638.8"/>
      <path class="cls-30" d="m239.6,642.9c-1,0-2,.1-2.9.4-.9.2-1.7.7-2.4,1.2l1,1.8c.5-.4,1.2-.8,1.9-1,.7-.3,1.4-.4,2.2-.4,1.2,0,2,.3,2.6.8s.9,1.3.9,2.3v.4h-3.8c-1.2,0-2.2.2-3,.5-.7.4-1.3.8-1.6,1.4-.3.6-.5,1.1-.5,1.9s.2,1.4.6,2c.4.5,1,1,1.7,1.3s1.5.5,2.5.5c1.1,0,2.1-.2,2.9-.7.5-.3,1-.7,1.3-1.2v1.7l2.1.1v-7.8c0-1.7-.4-3-1.4-3.9-1-.9-2.3-1.3-4.1-1.3Zm1.8,10.7c-.7.4-1.4.6-2.3.6s-1.5-.2-2.1-.6c-.6-.4-.8-.9-.8-1.5,0-.5.2-1,.6-1.4.4-.4,1.2-.6,2.4-.6h3.7v2.1l-.1-.3c-.3.7-.7,1.3-1.4,1.7Z"/>
      <path class="cls-30" d="m259.7,643.6c-1-.5-2.1-.8-3.4-.8-1,0-2,.2-2.9.7-.6.4-1.2.8-1.6,1.4v-7.1h-2.3v18.1h2.3v-2c.4.6,1,1,1.6,1.4.9.5,1.9.7,3,.7,1.2,0,2.3-.4,3.3-.9s1.7-1.3,2.3-2.3c.6-1,.9-2.2.9-3.5s-.3-2.4-.9-3.4-1.3-1.8-2.3-2.3Zm.3,8.2c-.4.7-.9,1.2-1.6,1.6-.6.4-1.4.6-2.2.6s-1.6-.2-2.2-.6c-.7-.4-1.2-.9-1.6-1.6s-.6-1.5-.6-2.4.2-1.7.6-2.4.9-1.2,1.6-1.6c.6-.4,1.4-.6,2.2-.6s1.5.2,2.2.6c.7.4,1.2.9,1.6,1.6.4.7.6,1.5.6,2.4s-.2,1.7-.6,2.4Z"/>
      <rect class="cls-30" x="266.1" y="637.8" width="2.3" height="18.1"/>
      <path class="cls-30" d="m284.3,646.1c-.6-1-1.4-1.8-2.4-2.3s-2.1-.8-3.4-.8-2.5.3-3.5.8-1.8,1.3-2.4,2.3-.9,2.1-.9,3.4.3,2.4.9,3.4,1.4,1.7,2.4,2.3c1,.5,2.2.8,3.5.8,1.2,0,2.4-.3,3.4-.8s1.8-1.3,2.4-2.3.9-2.1.9-3.4-.3-2.4-.9-3.4Zm-2.1,5.7c-.3.7-.9,1.2-1.5,1.6-.6.4-1.4.6-2.2.6-.9,0-1.6-.2-2.2-.6-.7-.4-1.2-.9-1.6-1.6-.4-.7-.6-1.5-.6-2.4s.2-1.7.6-2.4,1-1.2,1.6-1.6c.6-.4,1.4-.6,2.2-.6s1.5.2,2.2.6c.6.4,1.1.9,1.5,1.6.4.7.6,1.5.6,2.4s-.3,1.7-.6,2.4Z"/>
    </g>
    <g>
      <path class="cls-30" d="m461.2,481.3v-17c2.5.1,8.3-.5,10.5.7,4.4,1.7,4.4,8.7,0,10.5-2,1.1-6.8.6-9.1.7l1.1-1.1v6.3l-2.5-.1h0Zm2.4-6.1l-1.1-1.2c3.3-.2,10.1,1.2,10-3.8.1-5-6.7-3.6-10-3.8l1.1-1.2v10h0Z"/>
      <path class="cls-30" d="m478.5,481.3v-17c2.5.1,8.3-.5,10.5.7,4.4,1.7,4.4,8.7,0,10.5-2,1.1-6.8.6-9.1.7l1.1-1.1v6.3l-2.5-.1h0Zm2.5-6.1l-1.1-1.2c3.3-.2,10.1,1.2,10-3.8.2-5-6.7-3.6-10-3.8l1.1-1.2v10h0Z"/>
      <path class="cls-30" d="m495.9,481.3v-17c2.5.1,8.3-.5,10.5.7,4.4,1.7,4.4,8.7,0,10.5-2,1.1-6.8.6-9.1.7l1.1-1.1v6.3l-2.5-.1h0Zm2.4-6.1l-1.1-1.2c3.3-.2,10.1,1.2,10-3.8.2-5-6.7-3.6-10-3.8l1.1-1.2v10h0Z"/>
      <path class="cls-30" d="m521.1,481.5c-11.8.5-11.8-17.9,0-17.4,11.8-.6,11.8,17.9,0,17.4Zm0-2.2c8.6.3,8.6-13.4,0-13.1-8.6-.3-8.6,13.4,0,13.1Z"/>
      <path class="cls-30" d="m536.3,479.1h9.9v2.1h-12.4v-17h12v2.1h-9.6l.1,12.8h0Zm-.2-7.5h8.8v2.1h-8.8v-2.1Z"/>
      <path class="cls-30" d="m556.7,481.3v-17c2.8.2,10-.7,12.2,1.2,3.3,2.4,1,7.9-3,7.5l.4-.7c4.3-.5,6.9,5.2,3.4,7.9-2.2,1.8-10,.8-13,1.1h0Zm2.5-2c2.7-.4,9.7,1.4,9.8-2.8,0-4.4-7.2-2.4-10-2.9v-2c2.6-.3,9,1.3,9.1-2.7-.1-4-6.3-2.4-8.9-2.7v13.1h0Z"/>
      <path class="cls-30" d="m578.6,481.4c-6.4.4-6.1-8.4.4-7.6h4.1v1.7c-13.1-1.5-4.7,8.6-.4,1.8l.5,1.6c-.8,1.8-2.6,2.5-4.6,2.5h0Zm4.2-.1c0-1.9-.2-5.9-.1-7.9.1-4-5.3-3.6-7.5-1.7l-1-1.8c11.3-5.5,11.3,2.7,10.8,11.4h-2.2Z"/>
      <path class="cls-30" d="m594.7,480.7c-8.5.4-8.5-12.9,0-12.5,8-.5,8,13,0,12.5Zm.3,5.4c-2.1,0-4.6-.6-6.2-1.9l1.1-1.8c5.3,3.6,10.5,1.7,9.4-5.4.4-2.5,0-6.1.1-8.7h2.2c-.5,5.6,2.9,18.7-6.6,17.8h0Zm0-7.4c5.8.3,5.8-8.7,0-8.4-5.8-.4-5.8,8.7,0,8.4Zm.2-12.1c-2,0-3.9-1.2-3.9-3.3h1.6c.1,2.6,4.7,2.6,4.7,0h1.6c-.1,2.2-2,3.3-4,3.3Z"/>
      <path class="cls-30" d="m606.2,481.3v-18.1h2.3v18.1h-2.3Z"/>
      <path class="cls-30" d="m616.7,481.4c-6.4.4-6.1-8.4.4-7.6h4.1v1.7c-13.1-1.5-4.7,8.6-.4,1.8l.5,1.6c-.8,1.8-2.5,2.5-4.6,2.5h0Zm4.3-.1c0-1.9-.2-5.9-.1-7.9.1-4-5.3-3.6-7.5-1.7l-1-1.8c11.3-5.5,11.3,2.7,10.8,11.4h-2.2Z"/>
      <path class="cls-30" d="m634.4,468.2c6.9-.4,5.2,8.7,5.3,13h-2.3c-.5-3,1.8-11.3-3.5-10.9-5.6-.4-3.8,7.5-4.1,10.9h-2.3v-12.9h2.2v3.5l-.4-.9c1-1.8,3-2.7,5.1-2.7h0Z"/>
      <path class="cls-30" d="m642.2,470.3v-1.9h8.2v1.9h-8.2Zm6.3,11.1c-6.7.6-3.3-12.3-4.1-15.9h2.3v11.7c-.2,2.2,2.5,2.7,3.8,1.6l.7,1.7c-.6.6-1.7.9-2.7.9h0Z"/>
      <path class="cls-30" d="m654.2,481.3v-12.9h2.3v12.9h-2.3Z"/>
    </g>
  </g>
  <path class="cls-41" d="m713.8,377.5h-17c-3.6,0-6.6-2.9-6.6-6.6v-7c0-3.6,2.9-6.6,6.6-6.6h17c3.6,0,6.6,2.9,6.6,6.6v7c-.1,3.6-3,6.6-6.6,6.6Z"/>
  <path class="cls-41" d="m751.8,377.5h-17c-3.6,0-6.6-2.9-6.6-6.6v-7c0-3.6,2.9-6.6,6.6-6.6h17c3.6,0,6.6,2.9,6.6,6.6v7c0,3.6-3,6.6-6.6,6.6Z"/>
</svg>