<?xml version="1.0" encoding="UTF-8"?>
<svg id="katman_1" data-name="katman 1" xmlns="http://www.w3.org/2000/svg" viewBox="0 0 823.86 823.91">
  <defs>
    <style>
      .cls-1 {
        fill: #4d4d4d;
        stroke-width: 0px;
      }
    </style>
  </defs>
  <path class="cls-1" d="m823.36,526.54c-9.55,34.09-55.73,43.93-73.92,11.4-2.97-5.3-6.03-6.83-11.49-6.51-24.46,3.1-47.7-14.46-47.33-40.18-.19-39.58-.04-78.83-.06-118.45h-26.18c-1.01,68.69,0,137.48-.48,206.19-.01,5.5,1.29,8.57,6.61,11.42,35.28,18.48,19.79,74.47-19.47,73.87-39.82.93-55.48-54.79-20.01-74.1,3.67-2.09,6.61-3.41,6.59-8.89-.52-69.56.33-139.1-.46-208.65h-106.02c16.64,21.03,13.28,45.25,13.31,68.8.1,82.89.03,165.82.04,248.7,87.77,18.94,15.12,141.68-51.67,133.34-133.89.37-267.79.43-401.68-.03-47.44-.16-86.45-37.42-90.84-84.64-2.5-26.83,11.49-44.34,39.55-48.39,0-91.12-.01-182.29,0-273.42,1.16-67.23,52.82-74.93,108.52-71.42.39-.7.77-1.41,1.16-2.11-80.96-60.86-40.24-199.55,60.23-208.95,7.67-1.19,11.3-3.68,14.22-11.28C253.53,41.22,329.03-4.25,415,.31c66.35,8.99,119.12,42.67,149.88,102.84,1.22,2.33,5.43,4.71,8.01,4.47,60.42-6.96,108.51,29.58,135.77,80.89,144.75-20.85,156.66,187.09,8.46,184.76.1,39.53-.2,79.23.1,118.77.49,6.92,4.39,12.38,11.04,12.34,6.97-.04,15.27,5.14,20.88-5.3,22.7-40.63,80.73-16.08,74.23,27.46Zm-186.4-180.97c32.02,0,63.27.6,94.49-.18,28.35-.71,49.16-14.77,60.05-40.91,25.3-63.4-42.83-114.1-100.4-80.98-14.23-51.3-51.25-97.42-123.52-88.8-16.81,2.72-16.98,1.64-23.92-13.86C486.07-15.38,277.47,3.18,244.23,146.32q-3.44,13.52-17.34,13.39c-98.43-1.13-130.23,134.43-40.61,177.14,31-272.31,428.77-267.89,450.68,8.73Zm-93.37-137.15c-15.18-10.07-28.82-19.12-43.17-28.64-3.93,9.19-7.15,16.69-10.54,24.64-8.53-3.56-16.26-6.8-24.3-10.15,3.43-8.45,6.42-15.82,10.12-24.92-17.17-3.38-33.43-6.58-50.95-10.03v26.26h-26.65v-26.28c-17.15,3.44-33.39,6.7-50.27,10.09,3.7,9.46,6.65,17.02,9.77,24.98-8.47,3.49-16.03,6.6-24.14,9.95-3.49-8.1-6.72-15.61-10.62-24.67-14.51,9.79-28.23,19.05-43.77,29.52,7.97,6.72,14.06,11.85,19.86,16.73-6.89,7.23-12.74,13.38-20.16,21.17-5.33-6.57-10.5-12.94-16.91-20.84-10.52,15.7-19.67,29.35-29.3,43.73,9.04,3.99,16.71,7.37,24.61,10.85-3.56,8.45-6.74,16.01-10.13,24.04-8.28-3.29-15.85-6.3-25.03-9.96-3.28,17.03-6.36,33-9.64,50.04h134.17c7.17-27.24,24.7-44.24,51.87-51.5.05-22.51-.17-44.42.1-66.84.1-8.02,5.48-13.44,12.66-13.73,10.71-.72,15.14,10.7,13.8,20.16,0,20.16,0,40.32,0,57.49,31.61,17.26,37.62,23.38,54.72,54.45h131.48c-3.38-17-6.59-33.09-9.96-50.03-9.23,3.71-16.79,6.75-24.99,10.04-3.48-8.56-6.64-16.3-9.88-24.25,8.32-3.64,15.75-6.9,24.54-10.75-9.84-14.6-19-28.18-29.45-43.67-6.91,7.66-12.36,13.7-16.79,18.61-7.16-6.3-13.53-11.9-21.24-18.69,6.57-5.79,12.55-11.06,20.2-17.8ZM66.39,690.32h451.52c0-91.17,0-182.21,0-273.37,0-28.88-15.8-44.79-44.49-44.79-120.84-.01-241.68-.01-362.52,0-28.64,0-44.5,15.97-44.51,44.77-.01,91.17,0,182.21,0,273.39Zm318.69,27.12c3.47,25.91-10.64,52.84-38.83,52.99-36.22.37-72.45.41-108.67-.03-27.89-.21-41.86-27.45-38.34-52.96-51.19,0-102.11,0-153.27,0-16.27,0-21.38,5.99-18.84,22.05,5.42,34.28,32.38,57.51,67.4,57.58,131.91.09,263.81.13,395.72,0,35.04-.08,62.66-24.54,67.14-58.85,1.93-14.83-3.13-20.76-17.84-20.77-51.97-.02-102.15,0-154.46,0Zm-159.29.36c-.6,11.23-.99,26.37,13.89,26.1,35.06.17,70.13.18,105.19-.01,14.56.29,14.25-15.12,13.65-26.09h-132.74Zm149.77-372.73h72.38c-10-34.27-62.89-34.07-72.38,0Zm421.17,173.55c.08-17.31-25.46-18.12-26.42-.78-.07,17.33,25.43,18.12,26.42.78Zm-145.98,119.07c17.33-.49,17.26-26.06-.07-26.43-17.34.47-17.24,26.05.07,26.43Z"/>
  <path class="cls-1" d="m302.75,138.72c-7.71-3.84-15.07-7.51-22.4-11.16,23.54-55.5,92.13-85.04,147.28-70.24-1.81,8.07-3.63,16.19-5.53,24.66-52.53-7.84-92.07,10.51-119.34,56.73Z"/>
  <path class="cls-1" d="m292.57,398.72c55.88,0,111.76,0,167.64,0,21,0,31.14,10.06,31.14,30.92.02,68.05.02,136.1,0,204.15,0,20.27-10.33,30.51-30.73,30.51-112.31.01-224.63.01-336.94,0-20.44,0-30.71-10.2-30.71-30.52-.02-68.33-.02-136.66,0-204.98,0-19.6,10.57-30.07,30.31-30.08,56.43-.02,112.87,0,169.3,0Zm171.63,238.68v-211.46H119.96v211.46h344.24Z"/>
  <path class="cls-1" d="m172.05,610.83h-25.53v-158.31h25.53v158.31Z"/>
  <path class="cls-1" d="m384.53,610.83h-25.53v-158.31h25.53v158.31Z"/>
  <path class="cls-1" d="m278.48,478.88v131.68h-25.63v-131.68h25.63Z"/>
  <path class="cls-1" d="m411.99,610.79v-131.83h25.78v131.83h-25.78Z"/>
  <path class="cls-1" d="m199.57,610.73v-105.16h25.67v105.16h-25.67Z"/>
  <path class="cls-1" d="m306.02,531.89h25.54v78.63h-25.54v-78.63Z"/>
</svg>