<?xml version="1.0" encoding="utf-8"?>
<!-- Generator: Adobe Illustrator 28.0.0, SVG Export Plug-In . SVG Version: 6.00 Build 0)  -->
<svg version="1.1" id="katman_1" xmlns="http://www.w3.org/2000/svg" xmlns:xlink="http://www.w3.org/1999/xlink" x="0px" y="0px"
	 viewBox="0 0 544.6 775.3" style="enable-background:new 0 0 544.6 775.3;" xml:space="preserve">
<style type="text/css">
	.st0{fill-rule:evenodd;clip-rule:evenodd;fill:#E10A1A;}
	.st1{enable-background:new    ;}
	.st2{fill:#4D4D4D;}
	.st3{fill:none;stroke:#333333;stroke-width:0.25;stroke-miterlimit:10;}
	.st4{fill:#B3B3B3;}
	.st5{fill:#E7E7E7;stroke:#333333;stroke-width:0.25;stroke-miterlimit:10;}
	.st6{fill:#00B600;}
	.st7{fill:#FFFFFF;}
	.st8{fill:none;stroke:#999999;stroke-width:7;stroke-miterlimit:10;}
	.st9{fill:#999999;}
	.st10{fill:#141414;}
</style>
<g>
	<g>
		<path class="st0" d="M298.3,189.8c-2.5,0-3.9,1.6-4.9,3.7c-1.3,2.6-1.5,6.3-1.5,9.2c0,3.3,0.4,7.7,2.3,10.5c1,1.5,2.3,2.2,4.1,2.2
			c1.1,0,2.1-0.3,2.9-0.9c1.3-1,2-2.6,2.5-4c0.7-2.4,0.9-5.1,0.9-7.6s-0.1-5.9-0.9-8.3c-0.5-1.3-1.2-2.8-2.3-3.7
			C300.5,190.1,299.5,189.8,298.3,189.8 M335.8,214.7v-5.5c0-0.4,0-1.6-0.2-2c-0.1-0.3-0.4-0.5-0.5-0.5c-0.4-0.2-0.8-0.3-1.3-0.3
			H333c-0.4,0-0.7-0.4-0.7-0.7V205c0-0.4,0.4-0.7,0.7-0.7h12.9c0.4,0,0.7,0.4,0.7,0.7v0.7c0,0.4-0.3,0.7-0.7,0.7
			c-0.5,0-1.4,0.1-1.7,0.4c-0.3,0.2-0.5,0.5-0.5,0.8c-0.1,0.3-0.1,1.4-0.1,1.7v6c0,0.3-0.2,0.5-0.5,0.6c-1.7,0.8-3.6,1.5-5.5,1.9
			s-3.9,0.6-5.8,0.6c-2.2,0-4.6-0.3-6.6-1.2c-1.7-0.7-3.3-1.8-4.6-3.1c-1.3-1.3-2.4-2.6-3.1-4.3c-1-2.2-1.5-4.5-1.5-6.9
			c0-4.4,1.4-8.3,4.4-11.5s6.8-4.8,11.1-4.8c1.3,0,2.5,0.1,3.7,0.4c0.9,0.2,2,0.6,2.9,1c0.5,0.2,1.6,0.7,2,0.7
			c0.2,0,0.4-0.1,0.5-0.3c0.3-0.3,0.5-1,0.6-1.4c0.1-0.3,0.4-0.5,0.7-0.5h0.7c0.4,0,0.7,0.4,0.7,0.7v10.2c0,0.4-0.4,0.7-0.7,0.7
			h-0.7c-0.4,0-0.6-0.2-0.7-0.5c-0.7-2.3-1.8-4.5-3.7-5.9c-1.6-1.3-3.3-2-5.3-2c-1.7,0-3.2,0.5-4.5,1.6c-1.4,1.3-2.2,2.9-2.6,4.8
			c-0.5,2.1-0.8,4.3-0.8,6.5c0,2.4,0.2,4.8,0.9,7.1c0.5,1.6,1.3,3.2,2.6,4.2c1.3,0.9,2.7,1.3,4.3,1.3c0.6,0,1.2-0.1,1.8-0.2
			C334.8,215,335.3,214.8,335.8,214.7L335.8,214.7z M298.1,187c4.2-0.2,7.9,1.1,10.9,4.3c2.9,3.1,4.2,6.9,4.2,11.2
			c0,3.7-1,7.1-3.1,10.1c-2.8,4-6.8,5.8-11.7,5.8c-4.9,0-8.8-1.7-11.7-5.6c-2.3-3.1-3.2-6.6-3.2-10.3c0-4.3,1.3-8.1,4.2-11.2
			C290.4,188.2,294,186.8,298.1,187L298.1,187z M266.8,214.6c0.5,0.1,1.6,0.1,2.1,0.1h2.2c1.1,0,2.2-0.2,3.1-0.7s1.6-1.4,2.2-2.3
			c0.8-1.5,1.5-3.4,1.8-4.9c0.1-0.4,0.4-0.5,0.7-0.5h0.8c0.2,0,0.4,0.1,0.5,0.3c0.2,0.2,0.2,0.4,0.2,0.5l-1,10.1
			c0,0.4-0.4,0.6-0.7,0.6h-23.6c-0.4,0-0.7-0.4-0.7-0.7v-0.7c0-0.4,0.4-0.7,0.7-0.7h0.9c0.5,0,1-0.1,1.5-0.4
			c0.3-0.1,0.4-0.4,0.5-0.7c0.2-0.4,0.2-2,0.2-2.5V193c0-0.5,0-2.1-0.2-2.6c-0.1-0.3-0.4-0.5-0.5-0.6c-0.4-0.3-0.9-0.3-1.4-0.3h-0.9
			c-0.4,0-0.7-0.4-0.7-0.7V188c0-0.4,0.4-0.7,0.7-0.7h14.2c0.4,0,0.7,0.4,0.7,0.7v0.7c0,0.4-0.4,0.7-0.7,0.7h-1.2
			c-0.5,0-1,0.1-1.5,0.4c-0.3,0.2-0.4,0.5-0.5,0.7c-0.2,0.4-0.2,2-0.2,2.5v18.5c0,0.5,0,2.1,0.2,2.6
			C266.3,214.3,266.5,214.5,266.8,214.6L266.8,214.6z"/>
		<path class="st0" d="M255.8,170.9l-19.9,28.7l19.7,28.2c0,0,2,1.7,3.9,2.2c1.6,0.4,2.1,2.1,2.2,2.9H242c0,0-1-2.3,4.5-3.9
			L231,206.6l-15.4,22.2c0.2,0.1,0.5,0.1,0.6,0.2c5.3,1.6,4.3,3.9,4.3,3.9h-19c0.1-0.8,0.5-2.5,2.1-2.9c1.5-0.4,3.4-1.6,4.3-2.8
			l34.8-50.8c1.9-2.8,3.9-6,7.6-6.9C253.5,169,255.8,170.9,255.8,170.9 M206.1,170.9l18.8,27.2l4.8-7l-12.5-18
			C212,165.4,206.1,170.9,206.1,170.9L206.1,170.9z"/>
	</g>
	<g class="st1">
		<path class="st2" d="M189.4,276.9c-1.1,0-2.2-0.2-3.2-0.6s-1.8-0.9-2.5-1.6s-1.3-1.5-1.7-2.4s-0.6-1.9-0.6-3s0.2-2.1,0.6-3
			c0.4-0.9,1-1.7,1.7-2.4c0.7-0.7,1.6-1.2,2.5-1.6c1-0.4,2-0.6,3.2-0.6c1.1,0,2.2,0.2,3.2,0.6s1.8,0.9,2.5,1.6s1.3,1.5,1.7,2.4
			s0.6,1.9,0.6,3.1c0,1.1-0.2,2.1-0.6,3.1c-0.4,0.9-0.9,1.7-1.7,2.4s-1.6,1.2-2.5,1.6C191.6,276.7,190.6,276.9,189.4,276.9z
			 M189.4,275c0.8,0,1.6-0.1,2.3-0.4s1.3-0.7,1.8-1.2s0.9-1.1,1.2-1.8c0.3-0.7,0.4-1.5,0.4-2.3s-0.1-1.6-0.4-2.3
			c-0.3-0.7-0.7-1.3-1.2-1.8s-1.1-0.9-1.8-1.2c-0.7-0.3-1.5-0.4-2.3-0.4s-1.6,0.1-2.3,0.4s-1.3,0.7-1.8,1.2s-0.9,1.1-1.2,1.8
			c-0.3,0.7-0.4,1.5-0.4,2.3s0.1,1.6,0.4,2.3c0.3,0.7,0.7,1.3,1.2,1.8s1.1,0.9,1.8,1.2C187.8,274.9,188.6,275,189.4,275z"/>
	</g>
	<g class="st1">
		<path class="st2" d="M198.8,267.1v-1.7h7.2v1.7H198.8z M204.3,276.9c-1.1,0-2-0.3-2.7-0.9c-0.6-0.6-0.9-1.5-0.9-2.6V263h2.1v10.3
			c0,0.6,0.2,1.1,0.5,1.4s0.7,0.5,1.3,0.5s1.2-0.2,1.6-0.5l0.6,1.5c-0.3,0.3-0.7,0.5-1.1,0.6C205.3,276.8,204.8,276.9,204.3,276.9z"
			/>
	</g>
	<g class="st1">
		<path class="st2" d="M214,276.9c-1.2,0-2.3-0.2-3.2-0.7s-1.6-1.2-2.1-2.1s-0.8-1.9-0.8-3s0.2-2.1,0.7-3s1.2-1.6,2-2
			c0.9-0.5,1.8-0.7,2.9-0.7c1.1,0,2.1,0.2,2.9,0.7c0.8,0.5,1.5,1.2,2,2c0.5,0.9,0.7,1.9,0.7,3.1c0,0.1,0,0.2,0,0.3
			c0,0.1,0,0.2,0,0.3h-9.6v-1.5h8.6l-0.8,0.5c0-0.7-0.1-1.4-0.4-1.9c-0.3-0.6-0.7-1-1.3-1.3c-0.5-0.3-1.2-0.5-1.9-0.5
			s-1.3,0.2-1.9,0.5c-0.6,0.3-1,0.8-1.3,1.3c-0.3,0.6-0.5,1.2-0.5,2v0.3c0,0.8,0.2,1.4,0.5,2s0.8,1.1,1.5,1.4
			c0.6,0.3,1.3,0.5,2.2,0.5c0.7,0,1.3-0.1,1.8-0.3c0.5-0.2,1-0.6,1.4-1l1.1,1.3c-0.5,0.6-1.2,1.1-1.9,1.4
			C215.7,276.7,214.9,276.9,214,276.9z"/>
		<path class="st2" d="M222,276.8v-15.9h2.1v15.9H222z"/>
	</g>
	<g class="st1">
		<path class="st2" d="M234,276.8v-15h2.1v15H234z M235.9,273.1l-0.1-2.6l8.5-8.7h2.4l-6.6,6.9l-1.2,1.3L235.9,273.1z M244.6,276.8
			l-6.1-7.1l1.4-1.6l7.2,8.7H244.6z"/>
	</g>
	<g class="st1">
		<path class="st2" d="M253.5,276.9c-1,0-1.8-0.2-2.6-0.5c-0.7-0.4-1.3-0.9-1.7-1.6s-0.6-1.7-0.6-2.8v-6.5h2.1v6.3
			c0,1.1,0.3,1.9,0.8,2.5s1.3,0.8,2.3,0.8c0.7,0,1.3-0.1,1.9-0.4c0.5-0.3,0.9-0.7,1.2-1.3c0.3-0.6,0.4-1.2,0.4-2v-5.9h2.1v11.3h-1.9
			v-3.1l0.3,0.8c-0.4,0.8-0.9,1.3-1.7,1.8C255.2,276.7,254.4,276.9,253.5,276.9z"/>
		<path class="st2" d="M263.2,276.8v-15.9h2.1v15.9H263.2z"/>
		<path class="st2" d="M269.1,276.8v-15.9h2.1v15.9H269.1z"/>
		<path class="st2" d="M278.4,276.9c-0.8,0-1.6-0.1-2.2-0.4s-1.1-0.7-1.5-1.2c-0.3-0.5-0.5-1.1-0.5-1.7s0.1-1.2,0.4-1.7
			s0.8-0.9,1.4-1.2c0.7-0.3,1.6-0.4,2.7-0.4h3.6v1.5h-3.5c-1,0-1.7,0.2-2.1,0.5s-0.5,0.8-0.5,1.2c0,0.6,0.2,1,0.7,1.3
			c0.4,0.3,1.1,0.5,1.8,0.5c0.8,0,1.4-0.2,2-0.5s1-0.8,1.3-1.5l0.4,1.4c-0.3,0.7-0.7,1.2-1.4,1.6
			C280.3,276.7,279.5,276.9,278.4,276.9z M282.1,276.8v-2.4L282,274v-4.1c0-0.9-0.3-1.5-0.8-2s-1.3-0.7-2.3-0.7
			c-0.7,0-1.3,0.1-2,0.3c-0.6,0.2-1.2,0.5-1.6,0.9l-0.9-1.5c0.6-0.5,1.3-0.8,2.1-1.1c0.8-0.2,1.7-0.4,2.6-0.4c1.6,0,2.8,0.4,3.6,1.1
			c0.8,0.8,1.3,1.9,1.3,3.5v6.8L282.1,276.8L282.1,276.8z"/>
		<path class="st2" d="M293.9,265.3c0.9,0,1.7,0.2,2.4,0.5c0.7,0.4,1.3,0.9,1.7,1.6c0.4,0.7,0.6,1.6,0.6,2.8v6.5h-2.1v-6.3
			c0-1.1-0.3-1.9-0.8-2.5s-1.3-0.8-2.3-0.8c-0.7,0-1.4,0.1-1.9,0.4s-1,0.7-1.3,1.3c-0.3,0.6-0.4,1.2-0.4,2.1v5.8h-2.1v-11.3h2v3.1
			l-0.3-0.8c0.4-0.7,0.9-1.3,1.7-1.7C292,265.5,292.9,265.3,293.9,265.3z"/>
		<path class="st2" d="M302.4,276.8v-11.3h2.1v11.3H302.4z"/>
		<path class="st2" d="M313.3,276.9c-1.2,0-2.2-0.2-3.1-0.7s-1.6-1.2-2.1-2.1s-0.8-1.9-0.8-3s0.3-2.1,0.8-3s1.2-1.6,2.1-2
			c0.9-0.5,1.9-0.7,3.1-0.7c1,0,1.9,0.2,2.7,0.6c0.8,0.4,1.4,1,1.9,1.8l-1.6,1c-0.4-0.6-0.8-1-1.4-1.2c-0.5-0.3-1.1-0.4-1.7-0.4
			c-0.7,0-1.4,0.2-2,0.5s-1,0.8-1.4,1.4c-0.3,0.6-0.5,1.3-0.5,2.1c0,0.8,0.2,1.5,0.5,2.1s0.8,1.1,1.4,1.4s1.2,0.5,2,0.5
			c0.6,0,1.2-0.1,1.7-0.4s1-0.7,1.4-1.2l1.6,1c-0.4,0.8-1.1,1.4-1.9,1.8C315.3,276.7,314.4,276.9,313.3,276.9z"/>
		<path class="st2" d="M320.6,276.8v-11.3h2.1v11.3H320.6z"/>
		<path class="st2" d="M339.4,276.9c-1.2,0-2.2-0.2-3.2-0.6s-1.8-0.9-2.5-1.6s-1.3-1.5-1.7-2.4c-0.4-0.9-0.6-1.9-0.6-3.1
			c0-1.1,0.2-2.1,0.6-3.1c0.4-0.9,1-1.7,1.7-2.4c0.7-0.7,1.6-1.2,2.5-1.6c1-0.4,2-0.6,3.2-0.6s2.3,0.2,3.2,0.6s1.8,1,2.5,1.7
			l-1.3,1.3c-0.6-0.6-1.3-1-2-1.3s-1.5-0.4-2.3-0.4c-0.9,0-1.6,0.1-2.4,0.4c-0.7,0.3-1.4,0.7-1.9,1.2s-0.9,1.1-1.2,1.8
			c-0.3,0.7-0.4,1.5-0.4,2.3s0.1,1.6,0.4,2.3c0.3,0.7,0.7,1.3,1.2,1.8s1.2,0.9,1.9,1.2c0.7,0.3,1.5,0.4,2.4,0.4
			c0.8,0,1.6-0.1,2.3-0.4c0.7-0.2,1.4-0.7,2-1.3l1.2,1.6c-0.7,0.6-1.6,1.1-2.6,1.4C341.5,276.8,340.4,276.9,339.4,276.9z M343,274.7
			v-5.6h2.1v5.8L343,274.7z"/>
		<path class="st2" d="M349.9,263.4c-0.4,0-0.7-0.1-0.9-0.4c-0.2-0.2-0.4-0.5-0.4-0.9s0.1-0.7,0.4-0.9c0.2-0.2,0.5-0.4,0.9-0.4
			s0.7,0.1,0.9,0.4c0.2,0.2,0.4,0.5,0.4,0.9s-0.1,0.7-0.4,0.9C350.5,263.3,350.2,263.4,349.9,263.4z M348.8,276.8v-11.3h2.1v11.3
			H348.8z"/>
	</g>
	<g class="st1">
		<path class="st2" d="M354.8,276.8v-11.3h2v3.1l-0.2-0.8c0.3-0.8,0.8-1.4,1.6-1.8c0.7-0.4,1.7-0.6,2.7-0.6v2c-0.1,0-0.2,0-0.2,0
			c-0.1,0-0.2,0-0.2,0c-1.1,0-2,0.3-2.6,1s-1,1.6-1,2.8v5.6L354.8,276.8L354.8,276.8z"/>
	</g>
	<g class="st1">
		<path class="st2" d="M364.4,263.4c-0.4,0-0.7-0.1-0.9-0.4c-0.2-0.2-0.4-0.5-0.4-0.9s0.1-0.7,0.4-0.9c0.2-0.2,0.5-0.4,0.9-0.4
			s0.7,0.1,0.9,0.4c0.2,0.2,0.4,0.5,0.4,0.9s-0.1,0.7-0.4,0.9C365.1,263.3,364.8,263.4,364.4,263.4z M363.4,276.8v-11.3h2.1v11.3
			H363.4z"/>
		<path class="st2" d="M372.6,276.9c-0.9,0-1.8-0.1-2.7-0.4c-0.8-0.3-1.5-0.6-2-0.9l0.9-1.6c0.5,0.3,1.1,0.6,1.8,0.8
			c0.7,0.2,1.4,0.3,2.2,0.3c1,0,1.6-0.1,2.1-0.4c0.4-0.3,0.6-0.6,0.6-1.1c0-0.4-0.1-0.6-0.4-0.8c-0.3-0.2-0.6-0.3-1-0.4
			s-0.9-0.2-1.4-0.3c-0.5-0.1-1-0.2-1.5-0.3c-0.5-0.1-1-0.3-1.4-0.5s-0.8-0.5-1-0.9c-0.3-0.4-0.4-0.9-0.4-1.6s0.2-1.3,0.6-1.8
			s0.9-0.9,1.6-1.2c0.7-0.3,1.5-0.4,2.5-0.4c0.7,0,1.5,0.1,2.3,0.3c0.8,0.2,1.4,0.4,1.9,0.8l-0.9,1.6c-0.5-0.3-1-0.6-1.6-0.7
			s-1.1-0.2-1.7-0.2c-0.9,0-1.6,0.1-2,0.4s-0.7,0.7-0.7,1.1s0.1,0.7,0.4,0.9c0.3,0.2,0.6,0.4,1,0.5s0.9,0.2,1.4,0.3
			c0.5,0.1,1,0.2,1.5,0.3c0.5,0.1,1,0.3,1.4,0.5s0.8,0.5,1,0.9c0.3,0.4,0.4,0.9,0.4,1.5c0,0.7-0.2,1.3-0.6,1.8s-1,0.9-1.7,1.2
			C374.5,276.7,373.6,276.9,372.6,276.9z M372.2,281.5c-0.4,0-0.7,0-1-0.1s-0.6-0.2-0.9-0.4l0.4-1c0.2,0.1,0.5,0.2,0.7,0.3
			c0.2,0.1,0.5,0.1,0.8,0.1c0.4,0,0.7-0.1,0.9-0.2c0.2-0.1,0.3-0.4,0.3-0.6c0-0.3-0.1-0.5-0.3-0.6c-0.2-0.1-0.5-0.2-0.9-0.2h-0.6
			l0.5-2.1h1.2l-0.3,1.2c0.6,0.1,1.1,0.2,1.4,0.6c0.3,0.3,0.5,0.7,0.5,1.2c0,0.6-0.2,1.1-0.7,1.4C373.6,281.4,373,281.5,372.2,281.5
			z"/>
		<path class="st2" d="M381.1,263.4c-0.4,0-0.7-0.1-0.9-0.4c-0.2-0.2-0.4-0.5-0.4-0.9s0.1-0.7,0.4-0.9c0.2-0.2,0.5-0.4,0.9-0.4
			s0.7,0.1,0.9,0.4c0.2,0.2,0.4,0.5,0.4,0.9s-0.1,0.7-0.4,0.9C381.8,263.3,381.5,263.4,381.1,263.4z M380.1,276.8v-11.3h2.1v11.3
			H380.1z"/>
	</g>
	<g>
		<rect x="103.3" y="365.2" class="st3" width="341.1" height="47.4"/>
		<g class="st1">
			<path class="st2" d="M105.5,354v-10.7h-4.2v-1.5h10.1v1.5h-4.2V354H105.5z"/>
		</g>
		<g class="st1">
			<path class="st2" d="M118.6,354.1c-0.9,0-1.8-0.2-2.6-0.5c-0.8-0.3-1.5-0.7-2-1.3c-0.6-0.6-1-1.2-1.4-2c-0.3-0.8-0.5-1.6-0.5-2.5
				s0.2-1.7,0.5-2.5s0.8-1.4,1.4-2s1.3-1,2.1-1.3c0.8-0.3,1.6-0.5,2.6-0.5c0.9,0,1.8,0.2,2.6,0.5c0.8,0.3,1.5,0.8,2,1.4l-1.1,1.1
				c-0.5-0.5-1-0.9-1.6-1.1s-1.2-0.4-1.9-0.4c-0.7,0-1.3,0.1-1.9,0.3c-0.6,0.2-1.1,0.6-1.5,1s-0.8,0.9-1,1.5s-0.4,1.2-0.4,1.9
				c0,0.7,0.1,1.3,0.4,1.9c0.2,0.6,0.6,1.1,1,1.5s0.9,0.7,1.5,1c0.6,0.2,1.2,0.3,1.9,0.3c0.7,0,1.3-0.1,1.9-0.4
				c0.6-0.2,1.1-0.6,1.6-1.1l1.1,1.1c-0.6,0.6-1.2,1.1-2,1.4C120.5,353.9,119.6,354.1,118.6,354.1z"/>
		</g>
		<g class="st1">
			<path class="st2" d="M130.5,354v-12.2h1.7V354H130.5z M132,351l-0.1-2.1l6.9-7.1h2l-5.4,5.7l-1,1.1L132,351z M139.2,354l-5-5.8
				l1.2-1.3l5.9,7.1L139.2,354L139.2,354z"/>
		</g>
		<g class="st1">
			<path class="st2" d="M143.5,343c-0.3,0-0.5-0.1-0.7-0.3c-0.2-0.2-0.3-0.4-0.3-0.7s0.1-0.5,0.3-0.7s0.4-0.3,0.7-0.3
				s0.5,0.1,0.7,0.3c0.2,0.2,0.3,0.4,0.3,0.7s-0.1,0.5-0.3,0.7C144,342.9,143.8,343,143.5,343z M142.7,354v-9.3h1.7v9.3H142.7z"/>
			<path class="st2" d="M159.1,344.6c0.7,0,1.4,0.1,2,0.4s1,0.7,1.3,1.3c0.3,0.6,0.5,1.3,0.5,2.3v5.3h-1.7v-5.1c0-0.9-0.2-1.6-0.6-2
				c-0.4-0.5-1-0.7-1.8-0.7c-0.6,0-1,0.1-1.5,0.3s-0.7,0.6-1,1c-0.2,0.5-0.3,1-0.3,1.7v4.8h-1.7v-5.1c0-0.9-0.2-1.6-0.6-2
				c-0.4-0.5-1-0.7-1.8-0.7c-0.5,0-1,0.1-1.5,0.3c-0.4,0.2-0.7,0.6-1,1c-0.2,0.5-0.3,1-0.3,1.7v4.8h-1.7v-9.3h1.6v2.5l-0.3-0.6
				c0.3-0.6,0.7-1.1,1.3-1.4s1.3-0.5,2.1-0.5c0.9,0,1.6,0.2,2.3,0.7c0.6,0.4,1.1,1.1,1.3,2L155,347c0.3-0.7,0.8-1.3,1.5-1.7
				C157.4,344.8,158.2,344.6,159.1,344.6z"/>
			<path class="st2" d="M166,354v-13h1.7v13H166z"/>
			<path class="st2" d="M171.7,343c-0.3,0-0.5-0.1-0.7-0.3c-0.2-0.2-0.3-0.4-0.3-0.7s0.1-0.5,0.3-0.7s0.4-0.3,0.7-0.3
				s0.5,0.1,0.7,0.3c0.2,0.2,0.3,0.4,0.3,0.7s-0.1,0.5-0.3,0.7C172.2,342.9,172,343,171.7,343z M170.9,354v-9.3h1.7v9.3H170.9z"/>
			<path class="st2" d="M175.7,354v-13h1.7v13H175.7z M177.1,351.7v-2.1l5.3-4.9h2l-4.1,4l-0.9,0.8L177.1,351.7z M182.8,354
				l-3.6-4.5l1.1-1.3l4.6,5.9h-2.1V354z"/>
			<path class="st2" d="M191.5,354v-12.2h1.4l8.1,10h-0.8v-10h1.7V354h-1.4l-8.1-10h0.8v10H191.5z"/>
			<path class="st2" d="M209.4,354.1c-0.9,0-1.8-0.2-2.5-0.6s-1.3-1-1.7-1.7s-0.6-1.5-0.6-2.4s0.2-1.7,0.6-2.4
				c0.4-0.7,1-1.3,1.7-1.7c0.7-0.4,1.5-0.6,2.5-0.6c0.9,0,1.7,0.2,2.5,0.6c0.7,0.4,1.3,1,1.7,1.7s0.6,1.5,0.6,2.5
				c0,0.9-0.2,1.7-0.6,2.4c-0.4,0.7-1,1.3-1.7,1.7C211.1,353.9,210.3,354.1,209.4,354.1z M209.4,352.6c0.6,0,1.1-0.1,1.6-0.4
				s0.8-0.6,1.1-1.1s0.4-1.1,0.4-1.7c0-0.7-0.1-1.2-0.4-1.7c-0.3-0.5-0.6-0.9-1.1-1.1c-0.5-0.3-1-0.4-1.6-0.4s-1.1,0.1-1.6,0.4
				s-0.8,0.6-1.1,1.1s-0.4,1.1-0.4,1.7c0,0.7,0.1,1.2,0.4,1.7c0.3,0.5,0.7,0.9,1.1,1.1C208.2,352.5,208.8,352.6,209.4,352.6z"/>
			<path class="st2" d="M219.1,355.7l5.8-16.5h1.5l-5.8,16.5H219.1z"/>
		</g>
		<g class="st1">
			<path class="st2" d="M232.3,354v-12.2h4.8c1.1,0,2,0.2,2.7,0.5c0.8,0.3,1.3,0.8,1.7,1.5c0.4,0.6,0.6,1.4,0.6,2.3
				s-0.2,1.6-0.6,2.3c-0.4,0.6-1,1.1-1.7,1.5s-1.7,0.5-2.7,0.5h-3.8l0.8-0.8v4.5L232.3,354L232.3,354z M234,349.6l-0.8-0.9h3.8
				c1.1,0,2-0.2,2.5-0.7c0.6-0.5,0.9-1.2,0.9-2s-0.3-1.5-0.9-2c-0.6-0.5-1.4-0.7-2.5-0.7h-3.8l0.8-0.9V349.6z"/>
		</g>
		<g class="st1">
			<path class="st2" d="M247.1,354.1c-0.7,0-1.3-0.1-1.8-0.3c-0.5-0.2-0.9-0.6-1.2-1s-0.4-0.9-0.4-1.4s0.1-1,0.4-1.4
				c0.2-0.4,0.6-0.7,1.2-1c0.5-0.2,1.3-0.4,2.2-0.4h2.9v1.2h-2.9c-0.8,0-1.4,0.1-1.7,0.4s-0.4,0.6-0.4,1c0,0.5,0.2,0.8,0.5,1.1
				c0.4,0.3,0.9,0.4,1.5,0.4s1.2-0.1,1.7-0.4s0.8-0.7,1-1.2l0.3,1.2c-0.2,0.5-0.6,1-1.2,1.3C248.7,353.9,247.9,354.1,247.1,354.1z
				 M250.1,354v-2l-0.1-0.4v-3.3c0-0.7-0.2-1.3-0.6-1.7c-0.4-0.4-1-0.6-1.9-0.6c-0.5,0-1.1,0.1-1.6,0.3c-0.5,0.2-1,0.4-1.3,0.7
				l-0.7-1.3c0.5-0.4,1.1-0.7,1.7-0.9c0.7-0.2,1.4-0.3,2.1-0.3c1.3,0,2.2,0.3,2.9,0.9s1,1.6,1,2.8v5.6h-1.5V354z"/>
			<path class="st2" d="M257.5,354.1c-0.8,0-1.5-0.1-2.2-0.3c-0.7-0.2-1.2-0.5-1.6-0.8l0.7-1.3c0.4,0.3,0.9,0.5,1.5,0.7
				s1.2,0.3,1.8,0.3c0.8,0,1.3-0.1,1.7-0.3c0.3-0.2,0.5-0.5,0.5-0.9c0-0.3-0.1-0.5-0.3-0.7c-0.2-0.2-0.5-0.3-0.8-0.4
				s-0.7-0.2-1.1-0.2c-0.4-0.1-0.8-0.1-1.3-0.2c-0.4-0.1-0.8-0.2-1.2-0.4c-0.3-0.2-0.6-0.4-0.8-0.8c-0.2-0.3-0.3-0.7-0.3-1.3
				c0-0.6,0.2-1,0.5-1.5s0.8-0.7,1.3-1c0.6-0.2,1.3-0.3,2.1-0.3c0.6,0,1.2,0.1,1.8,0.2c0.6,0.1,1.1,0.4,1.5,0.6l-0.7,1.3
				c-0.4-0.3-0.9-0.5-1.3-0.6c-0.5-0.1-0.9-0.2-1.4-0.2c-0.7,0-1.3,0.1-1.6,0.4c-0.4,0.2-0.5,0.5-0.5,0.9c0,0.3,0.1,0.6,0.3,0.7
				c0.2,0.2,0.5,0.3,0.8,0.4s0.7,0.2,1.1,0.2c0.4,0.1,0.8,0.1,1.3,0.2c0.4,0.1,0.8,0.2,1.1,0.4c0.3,0.2,0.6,0.4,0.8,0.7
				c0.2,0.3,0.3,0.7,0.3,1.3c0,0.6-0.2,1-0.5,1.4s-0.8,0.7-1.4,1C259,353.9,258.3,354.1,257.5,354.1z"/>
			<path class="st2" d="M266.2,354.1c-0.8,0-1.5-0.1-2.2-0.3c-0.7-0.2-1.2-0.5-1.6-0.8l0.7-1.3c0.4,0.3,0.9,0.5,1.5,0.7
				s1.2,0.3,1.8,0.3c0.8,0,1.3-0.1,1.7-0.3c0.3-0.2,0.5-0.5,0.5-0.9c0-0.3-0.1-0.5-0.3-0.7c-0.2-0.2-0.5-0.3-0.8-0.4
				s-0.7-0.2-1.1-0.2c-0.4-0.1-0.8-0.1-1.3-0.2c-0.4-0.1-0.8-0.2-1.2-0.4c-0.3-0.2-0.6-0.4-0.8-0.8c-0.2-0.3-0.3-0.7-0.3-1.3
				c0-0.6,0.2-1,0.5-1.5c0.3-0.4,0.8-0.7,1.3-1c0.6-0.2,1.3-0.3,2.1-0.3c0.6,0,1.2,0.1,1.8,0.2c0.6,0.1,1.1,0.4,1.5,0.6l-0.7,1.3
				c-0.4-0.3-0.9-0.5-1.3-0.6c-0.5-0.1-0.9-0.2-1.4-0.2c-0.7,0-1.3,0.1-1.6,0.4c-0.4,0.2-0.5,0.5-0.5,0.9c0,0.3,0.1,0.6,0.3,0.7
				c0.2,0.2,0.5,0.3,0.8,0.4s0.7,0.2,1.1,0.2c0.4,0.1,0.8,0.1,1.3,0.2c0.4,0.1,0.8,0.2,1.1,0.4c0.3,0.2,0.6,0.4,0.8,0.7
				c0.2,0.3,0.3,0.7,0.3,1.3c0,0.6-0.2,1-0.5,1.4s-0.8,0.7-1.4,1C267.8,353.9,267.1,354.1,266.2,354.1z"/>
			<path class="st2" d="M272.3,357.3v-12.6h1.6v2.5l-0.1,2.1l0.2,2.1v5.9H272.3z M277.3,354.1c-0.8,0-1.5-0.2-2.1-0.5
				c-0.6-0.4-1.1-0.9-1.5-1.6s-0.6-1.6-0.6-2.6s0.2-1.9,0.6-2.6s0.9-1.2,1.5-1.6c0.6-0.3,1.3-0.5,2.1-0.5c0.9,0,1.7,0.2,2.4,0.6
				s1.3,0.9,1.7,1.7c0.4,0.7,0.6,1.5,0.6,2.5c0,0.9-0.2,1.8-0.6,2.5s-1,1.3-1.7,1.7C279,353.9,278.2,354.1,277.3,354.1z
				 M277.1,352.6c0.6,0,1.1-0.1,1.6-0.4s0.8-0.6,1.1-1.1c0.3-0.5,0.4-1.1,0.4-1.7c0-0.7-0.1-1.2-0.4-1.7s-0.6-0.9-1.1-1.1
				c-0.5-0.3-1-0.4-1.6-0.4s-1.1,0.1-1.6,0.4s-0.8,0.6-1.1,1.1c-0.3,0.5-0.4,1.1-0.4,1.7c0,0.7,0.1,1.2,0.4,1.7s0.6,0.9,1.1,1.1
				C276,352.5,276.5,352.6,277.1,352.6z"/>
			<path class="st2" d="M288.2,354.1c-0.9,0-1.8-0.2-2.5-0.6s-1.3-1-1.7-1.7s-0.6-1.5-0.6-2.4s0.2-1.7,0.6-2.4s1-1.3,1.7-1.7
				c0.7-0.4,1.5-0.6,2.5-0.6c0.9,0,1.7,0.2,2.5,0.6c0.7,0.4,1.3,1,1.7,1.7c0.4,0.7,0.6,1.5,0.6,2.5c0,0.9-0.2,1.7-0.6,2.4
				c-0.4,0.7-1,1.3-1.7,1.7C290,353.9,289.1,354.1,288.2,354.1z M288.2,352.6c0.6,0,1.1-0.1,1.6-0.4s0.8-0.6,1.1-1.1
				c0.3-0.5,0.4-1.1,0.4-1.7c0-0.7-0.1-1.2-0.4-1.7s-0.6-0.9-1.1-1.1c-0.5-0.3-1-0.4-1.6-0.4s-1.1,0.1-1.6,0.4s-0.8,0.6-1.1,1.1
				c-0.3,0.5-0.4,1.1-0.4,1.7c0,0.7,0.1,1.2,0.4,1.7s0.7,0.9,1.1,1.1C287.1,352.5,287.6,352.6,288.2,352.6z"/>
		</g>
		<g class="st1">
			<path class="st2" d="M295.4,354v-9.3h1.6v2.5l-0.2-0.6c0.3-0.6,0.7-1.1,1.3-1.5c0.6-0.3,1.4-0.5,2.2-0.5v1.6c-0.1,0-0.1,0-0.2,0
				s-0.1,0-0.2,0c-0.9,0-1.6,0.3-2.1,0.8s-0.8,1.3-0.8,2.3v4.6h-1.6V354z"/>
		</g>
		<g class="st1">
			<path class="st2" d="M301.4,346.1v-1.4h5.9v1.4H301.4z M306,354.1c-0.9,0-1.7-0.2-2.2-0.8c-0.5-0.5-0.8-1.2-0.8-2.1v-8.5h1.7v8.4
				c0,0.5,0.1,0.9,0.4,1.2c0.3,0.3,0.6,0.4,1.1,0.4s1-0.1,1.3-0.4l0.5,1.2c-0.3,0.2-0.6,0.4-0.9,0.5
				C306.7,354,306.3,354.1,306,354.1z"/>
			<path class="st2" d="M315,354v-12.2h1.4l8.1,10h-0.8v-10h1.7V354H324l-8.1-10h0.8v10H315z"/>
			<path class="st2" d="M332.8,354.1c-0.8,0-1.5-0.1-2.1-0.4s-1.1-0.7-1.4-1.3c-0.3-0.6-0.5-1.4-0.5-2.3v-5.3h1.7v5.1
				c0,0.9,0.2,1.6,0.7,2c0.4,0.5,1.1,0.7,1.8,0.7c0.6,0,1.1-0.1,1.5-0.4c0.4-0.2,0.8-0.6,1-1c0.2-0.5,0.3-1,0.3-1.7v-4.8h1.7v9.3
				h-1.6v-2.5l0.3,0.7c-0.3,0.6-0.8,1.1-1.4,1.4C334.2,353.9,333.5,354.1,332.8,354.1z"/>
			<path class="st2" d="M352.3,344.6c0.7,0,1.4,0.1,2,0.4s1,0.7,1.3,1.3c0.3,0.6,0.5,1.3,0.5,2.3v5.3h-1.7v-5.1c0-0.9-0.2-1.6-0.6-2
				c-0.4-0.5-1-0.7-1.8-0.7c-0.6,0-1,0.1-1.5,0.3c-0.4,0.2-0.7,0.6-1,1c-0.2,0.5-0.3,1-0.3,1.7v4.8h-1.7v-5.1c0-0.9-0.2-1.6-0.6-2
				c-0.4-0.5-1-0.7-1.8-0.7c-0.5,0-1,0.1-1.5,0.3c-0.4,0.2-0.7,0.6-1,1c-0.2,0.5-0.3,1-0.3,1.7v4.8h-1.7v-9.3h1.6v2.5l-0.3-0.6
				c0.3-0.6,0.7-1.1,1.3-1.4c0.6-0.3,1.3-0.5,2.1-0.5c0.9,0,1.6,0.2,2.3,0.7c0.6,0.4,1.1,1.1,1.3,2l-0.7-0.3
				c0.3-0.7,0.8-1.3,1.5-1.7C350.6,344.8,351.4,344.6,352.3,344.6z"/>
			<path class="st2" d="M359.2,354v-13h1.7v6.2l-0.2,2.1l0.1,2.1v2.5L359.2,354L359.2,354z M364.1,354.1c-0.8,0-1.5-0.2-2.1-0.5
				c-0.6-0.4-1.1-0.9-1.5-1.6s-0.5-1.6-0.5-2.6s0.2-1.9,0.6-2.6s0.9-1.2,1.5-1.6c0.6-0.3,1.3-0.5,2.1-0.5c0.9,0,1.7,0.2,2.4,0.6
				c0.7,0.4,1.3,0.9,1.7,1.7c0.4,0.7,0.6,1.5,0.6,2.5c0,0.9-0.2,1.8-0.6,2.5s-1,1.3-1.7,1.7C365.8,353.9,365,354.1,364.1,354.1z
				 M364,352.6c0.6,0,1.1-0.1,1.6-0.4s0.8-0.6,1.1-1.1c0.3-0.5,0.4-1.1,0.4-1.7c0-0.7-0.1-1.2-0.4-1.7s-0.6-0.9-1.1-1.1
				c-0.5-0.3-1-0.4-1.6-0.4s-1.1,0.1-1.6,0.4s-0.8,0.6-1.1,1.1c-0.3,0.5-0.4,1.1-0.4,1.7c0,0.7,0.1,1.2,0.4,1.7s0.6,0.9,1.1,1.1
				C362.8,352.5,363.4,352.6,364,352.6z"/>
			<path class="st2" d="M375.2,354.1c-1,0-1.9-0.2-2.6-0.6c-0.8-0.4-1.3-1-1.7-1.7c-0.4-0.7-0.6-1.5-0.6-2.4s0.2-1.7,0.6-2.4
				c0.4-0.7,1-1.3,1.7-1.7c0.7-0.4,1.5-0.6,2.4-0.6s1.7,0.2,2.4,0.6c0.7,0.4,1.2,1,1.6,1.7s0.6,1.6,0.6,2.5c0,0.1,0,0.2,0,0.2
				c0,0.1,0,0.2,0,0.3h-7.9v-1.2h7l-0.7,0.4c0-0.6-0.1-1.1-0.4-1.6s-0.6-0.8-1.1-1.1c-0.4-0.3-1-0.4-1.6-0.4s-1.1,0.1-1.6,0.4
				s-0.8,0.6-1.1,1.1c-0.3,0.5-0.4,1-0.4,1.6v0.3c0,0.6,0.1,1.2,0.4,1.7s0.7,0.9,1.2,1.1c0.5,0.3,1.1,0.4,1.8,0.4
				c0.5,0,1-0.1,1.5-0.3c0.4-0.2,0.8-0.5,1.2-0.8l0.9,1.1c-0.4,0.5-0.9,0.9-1.6,1.1C376.7,353.9,376,354.1,375.2,354.1z"/>
			<path class="st2" d="M381.8,354v-9.3h1.6v2.5l-0.2-0.6c0.3-0.6,0.7-1.1,1.3-1.5c0.6-0.3,1.4-0.5,2.2-0.5v1.6c-0.1,0-0.1,0-0.2,0
				s-0.1,0-0.2,0c-0.9,0-1.6,0.3-2.1,0.8s-0.8,1.3-0.8,2.3v4.6h-1.6V354z"/>
		</g>
		<g class="st1">
			<path class="st4" d="M133.5,395.3v-10.7h-4.2v-1.5h10.1v1.5h-4.2v10.7H133.5z"/>
		</g>
		<g class="st1">
			<path class="st4" d="M146.6,395.4c-0.9,0-1.8-0.2-2.6-0.5s-1.5-0.7-2-1.3c-0.6-0.6-1-1.2-1.4-2c-0.3-0.8-0.5-1.6-0.5-2.5
				s0.2-1.7,0.5-2.5s0.8-1.4,1.4-2c0.6-0.6,1.3-1,2.1-1.3s1.6-0.5,2.6-0.5c0.9,0,1.8,0.2,2.6,0.5s1.5,0.8,2,1.4l-1.1,1.1
				c-0.5-0.5-1-0.9-1.6-1.1s-1.2-0.4-1.9-0.4s-1.3,0.1-1.9,0.3c-0.6,0.2-1.1,0.6-1.5,1s-0.8,0.9-1,1.5s-0.4,1.2-0.4,1.9
				c0,0.7,0.1,1.3,0.4,1.9c0.2,0.6,0.6,1.1,1,1.5s0.9,0.7,1.5,1c0.6,0.2,1.2,0.3,1.9,0.3s1.3-0.1,1.9-0.4c0.6-0.2,1.1-0.6,1.6-1.1
				l1.1,1.1c-0.6,0.6-1.2,1.1-2,1.4C148.5,395.3,147.6,395.4,146.6,395.4z"/>
		</g>
		<g class="st1">
			<path class="st4" d="M158.5,395.3v-12.2h1.7v12.2H158.5z M160,392.3l-0.1-2.1l6.9-7.1h2l-5.4,5.7l-1,1.1L160,392.3z M167.2,395.3
				l-5-5.8l1.2-1.3l5.9,7.1L167.2,395.3L167.2,395.3z"/>
		</g>
		<g class="st1">
			<path class="st4" d="M171.5,384.4c-0.3,0-0.5-0.1-0.7-0.3c-0.2-0.2-0.3-0.4-0.3-0.7s0.1-0.5,0.3-0.7s0.4-0.3,0.7-0.3
				s0.5,0.1,0.7,0.3c0.2,0.2,0.3,0.4,0.3,0.7s-0.1,0.5-0.3,0.7C172,384.3,171.8,384.4,171.5,384.4z M170.6,395.3V386h1.7v9.3H170.6z
				"/>
			<path class="st4" d="M187.1,385.9c0.7,0,1.4,0.1,2,0.4s1,0.7,1.3,1.3c0.3,0.6,0.5,1.3,0.5,2.3v5.3h-1.7v-5.1c0-0.9-0.2-1.6-0.6-2
				s-1-0.7-1.8-0.7c-0.6,0-1,0.1-1.5,0.3c-0.4,0.2-0.7,0.6-1,1c-0.2,0.5-0.3,1-0.3,1.7v4.8h-1.7v-5.1c0-0.9-0.2-1.6-0.6-2
				c-0.4-0.5-1-0.7-1.8-0.7c-0.5,0-1,0.1-1.5,0.3c-0.4,0.2-0.7,0.6-1,1c-0.2,0.5-0.3,1-0.3,1.7v4.8h-1.7V386h1.6v2.5l-0.3-0.6
				c0.3-0.6,0.7-1.1,1.3-1.4s1.3-0.5,2.1-0.5c0.9,0,1.6,0.2,2.3,0.7c0.6,0.4,1.1,1.1,1.3,2l-0.7-0.3c0.3-0.7,0.8-1.3,1.5-1.7
				S186.2,385.9,187.1,385.9z"/>
			<path class="st4" d="M194,395.3v-13h1.7v13H194z"/>
			<path class="st4" d="M199.7,384.4c-0.3,0-0.5-0.1-0.7-0.3c-0.2-0.2-0.3-0.4-0.3-0.7s0.1-0.5,0.3-0.7s0.4-0.3,0.7-0.3
				s0.5,0.1,0.7,0.3s0.3,0.4,0.3,0.7s-0.1,0.5-0.3,0.7C200.2,384.3,200,384.4,199.7,384.4z M198.8,395.3V386h1.7v9.3H198.8z"/>
			<path class="st4" d="M203.7,395.3v-13h1.7v13H203.7z M205.1,393.1V391l5.3-4.9h2l-4.1,4l-0.9,0.8L205.1,393.1z M210.8,395.3
				l-3.6-4.5l1.1-1.3l4.6,5.9h-2.1V395.3z"/>
			<path class="st4" d="M219.4,395.3v-12.2h1.4l8.1,10h-0.8v-10h1.7v12.2h-1.4l-8.1-10h0.8v10H219.4z"/>
			<path class="st4" d="M237.3,395.4c-0.9,0-1.8-0.2-2.5-0.6s-1.3-1-1.7-1.7s-0.6-1.5-0.6-2.4s0.2-1.7,0.6-2.4
				c0.4-0.7,1-1.3,1.7-1.7c0.7-0.4,1.5-0.6,2.5-0.6c0.9,0,1.7,0.2,2.5,0.6c0.7,0.4,1.3,1,1.7,1.7s0.6,1.5,0.6,2.5
				c0,0.9-0.2,1.7-0.6,2.4c-0.4,0.7-1,1.3-1.7,1.7C239.1,395.2,238.3,395.4,237.3,395.4z M237.3,393.9c0.6,0,1.1-0.1,1.6-0.4
				s0.8-0.6,1.1-1.1s0.4-1.1,0.4-1.7c0-0.7-0.1-1.2-0.4-1.7c-0.3-0.5-0.6-0.9-1.1-1.1c-0.5-0.3-1-0.4-1.6-0.4s-1.1,0.1-1.6,0.4
				s-0.8,0.6-1.1,1.1s-0.4,1.1-0.4,1.7c0,0.7,0.1,1.2,0.4,1.7c0.3,0.5,0.7,0.9,1.1,1.1C236.2,393.8,236.7,393.9,237.3,393.9z"/>
			<path class="st4" d="M247.1,397l5.8-16.5h1.5l-5.8,16.5H247.1z"/>
		</g>
		<g class="st1">
			<path class="st4" d="M260.3,395.3v-12.2h4.8c1.1,0,2,0.2,2.7,0.5c0.8,0.3,1.3,0.8,1.7,1.5c0.4,0.6,0.6,1.4,0.6,2.3
				s-0.2,1.6-0.6,2.3c-0.4,0.6-1,1.1-1.7,1.5s-1.7,0.5-2.7,0.5h-3.8l0.8-0.8v4.5L260.3,395.3L260.3,395.3z M262,390.9l-0.8-0.9h3.8
				c1.1,0,2-0.2,2.5-0.7c0.6-0.5,0.9-1.2,0.9-2s-0.3-1.5-0.9-2s-1.4-0.7-2.5-0.7h-3.8l0.8-0.9V390.9z"/>
		</g>
		<g class="st1">
			<path class="st4" d="M275.1,395.4c-0.7,0-1.3-0.1-1.8-0.3c-0.5-0.2-0.9-0.6-1.2-1c-0.3-0.4-0.4-0.9-0.4-1.4s0.1-1,0.4-1.4
				c0.2-0.4,0.6-0.7,1.2-1c0.5-0.2,1.3-0.4,2.2-0.4h2.9v1.2h-2.9c-0.8,0-1.4,0.1-1.7,0.4c-0.3,0.3-0.4,0.6-0.4,1
				c0,0.5,0.2,0.8,0.5,1.1c0.4,0.3,0.9,0.4,1.5,0.4s1.2-0.1,1.7-0.4s0.8-0.7,1-1.2l0.3,1.2c-0.2,0.5-0.6,1-1.2,1.3
				S275.9,395.4,275.1,395.4z M278.1,395.3v-2L278,393v-3.3c0-0.7-0.2-1.3-0.6-1.7c-0.4-0.4-1-0.6-1.9-0.6c-0.5,0-1.1,0.1-1.6,0.3
				c-0.5,0.2-1,0.4-1.3,0.7l-0.7-1.3c0.5-0.4,1.1-0.7,1.7-0.9c0.7-0.2,1.4-0.3,2.1-0.3c1.3,0,2.2,0.3,2.9,0.9c0.7,0.6,1,1.6,1,2.8
				v5.6L278.1,395.3L278.1,395.3z"/>
			<path class="st4" d="M285.5,395.4c-0.8,0-1.5-0.1-2.2-0.3c-0.7-0.2-1.2-0.5-1.6-0.8l0.7-1.3c0.4,0.3,0.9,0.5,1.5,0.7
				s1.2,0.3,1.8,0.3c0.8,0,1.3-0.1,1.7-0.3c0.3-0.2,0.5-0.5,0.5-0.9c0-0.3-0.1-0.5-0.3-0.7c-0.2-0.2-0.5-0.3-0.8-0.4
				s-0.7-0.2-1.1-0.2c-0.4-0.1-0.8-0.1-1.3-0.2c-0.4-0.1-0.8-0.2-1.2-0.4c-0.3-0.2-0.6-0.4-0.8-0.8c-0.2-0.3-0.3-0.7-0.3-1.3
				c0-0.6,0.2-1,0.5-1.5c0.3-0.4,0.8-0.7,1.3-1c0.6-0.2,1.3-0.3,2.1-0.3c0.6,0,1.2,0.1,1.8,0.2s1.1,0.4,1.5,0.6l-0.7,1.3
				c-0.4-0.3-0.9-0.5-1.3-0.6c-0.5-0.1-0.9-0.2-1.4-0.2c-0.7,0-1.3,0.1-1.6,0.4c-0.4,0.2-0.5,0.5-0.5,0.9c0,0.3,0.1,0.6,0.3,0.7
				c0.2,0.2,0.5,0.3,0.8,0.4s0.7,0.2,1.1,0.2c0.4,0.1,0.8,0.1,1.3,0.2c0.4,0.1,0.8,0.2,1.1,0.4c0.3,0.2,0.6,0.4,0.8,0.7
				c0.2,0.3,0.3,0.7,0.3,1.3c0,0.6-0.2,1-0.5,1.4s-0.8,0.7-1.4,1C287,395.3,286.3,395.4,285.5,395.4z"/>
			<path class="st4" d="M294.2,395.4c-0.8,0-1.5-0.1-2.2-0.3c-0.7-0.2-1.2-0.5-1.6-0.8l0.7-1.3c0.4,0.3,0.9,0.5,1.5,0.7
				s1.2,0.3,1.8,0.3c0.8,0,1.3-0.1,1.7-0.3c0.3-0.2,0.5-0.5,0.5-0.9c0-0.3-0.1-0.5-0.3-0.7c-0.2-0.2-0.5-0.3-0.8-0.4
				s-0.7-0.2-1.1-0.2c-0.4-0.1-0.8-0.1-1.3-0.2c-0.4-0.1-0.8-0.2-1.2-0.4c-0.3-0.2-0.6-0.4-0.8-0.8c-0.2-0.3-0.3-0.7-0.3-1.3
				c0-0.6,0.2-1,0.5-1.5c0.3-0.4,0.8-0.7,1.3-1c0.6-0.2,1.3-0.3,2.1-0.3c0.6,0,1.2,0.1,1.8,0.2c0.6,0.1,1.1,0.4,1.5,0.6l-0.7,1.3
				c-0.4-0.3-0.9-0.5-1.3-0.6c-0.5-0.1-0.9-0.2-1.4-0.2c-0.7,0-1.3,0.1-1.6,0.4c-0.4,0.2-0.5,0.5-0.5,0.9c0,0.3,0.1,0.6,0.3,0.7
				c0.2,0.2,0.5,0.3,0.8,0.4s0.7,0.2,1.1,0.2c0.4,0.1,0.8,0.1,1.3,0.2c0.4,0.1,0.8,0.2,1.1,0.4c0.3,0.2,0.6,0.4,0.8,0.7
				c0.2,0.3,0.3,0.7,0.3,1.3c0,0.6-0.2,1-0.5,1.4s-0.8,0.7-1.4,1C295.8,395.3,295,395.4,294.2,395.4z"/>
			<path class="st4" d="M300.3,398.7V386h1.6v2.5l-0.1,2.1l0.2,2.1v5.9h-1.7V398.7z M305.2,395.4c-0.8,0-1.5-0.2-2.1-0.5
				c-0.6-0.4-1.1-0.9-1.5-1.6s-0.6-1.6-0.6-2.6s0.2-1.9,0.5-2.6c0.4-0.7,0.9-1.2,1.5-1.6c0.6-0.3,1.3-0.5,2.1-0.5
				c0.9,0,1.7,0.2,2.4,0.6c0.7,0.4,1.3,0.9,1.7,1.7c0.4,0.7,0.6,1.5,0.6,2.5c0,0.9-0.2,1.8-0.6,2.5s-1,1.3-1.7,1.7
				C306.9,395.2,306.1,395.4,305.2,395.4z M305.1,393.9c0.6,0,1.1-0.1,1.6-0.4s0.8-0.6,1.1-1.1c0.3-0.5,0.4-1.1,0.4-1.7
				c0-0.7-0.1-1.2-0.4-1.7s-0.6-0.9-1.1-1.1c-0.5-0.3-1-0.4-1.6-0.4s-1.1,0.1-1.6,0.4s-0.8,0.6-1.1,1.1c-0.3,0.5-0.4,1.1-0.4,1.7
				c0,0.7,0.1,1.2,0.4,1.7s0.6,0.9,1.1,1.1C304,393.8,304.5,393.9,305.1,393.9z"/>
			<path class="st4" d="M316.2,395.4c-0.9,0-1.8-0.2-2.5-0.6s-1.3-1-1.7-1.7c-0.4-0.7-0.6-1.5-0.6-2.4s0.2-1.7,0.6-2.4
				c0.4-0.7,1-1.3,1.7-1.7c0.7-0.4,1.5-0.6,2.5-0.6c0.9,0,1.7,0.2,2.5,0.6c0.7,0.4,1.3,1,1.7,1.7c0.4,0.7,0.6,1.5,0.6,2.5
				c0,0.9-0.2,1.7-0.6,2.4c-0.4,0.7-1,1.3-1.7,1.7C317.9,395.2,317.1,395.4,316.2,395.4z M316.2,393.9c0.6,0,1.1-0.1,1.6-0.4
				s0.8-0.6,1.1-1.1c0.3-0.5,0.4-1.1,0.4-1.7c0-0.7-0.1-1.2-0.4-1.7s-0.6-0.9-1.1-1.1c-0.5-0.3-1-0.4-1.6-0.4s-1.1,0.1-1.6,0.4
				s-0.8,0.6-1.1,1.1c-0.3,0.5-0.4,1.1-0.4,1.7c0,0.7,0.1,1.2,0.4,1.7s0.7,0.9,1.1,1.1C315.1,393.8,315.6,393.9,316.2,393.9z"/>
		</g>
		<g class="st1">
			<path class="st4" d="M323.3,395.3V386h1.6v2.5l-0.2-0.6c0.3-0.6,0.7-1.1,1.3-1.5c0.6-0.3,1.4-0.5,2.2-0.5v1.6c-0.1,0-0.1,0-0.2,0
				s-0.1,0-0.2,0c-0.9,0-1.6,0.3-2.1,0.8s-0.8,1.3-0.8,2.3v4.6h-1.6V395.3z"/>
		</g>
		<g class="st1">
			<path class="st4" d="M329.4,387.4V386h5.9v1.4H329.4z M333.9,395.4c-0.9,0-1.7-0.2-2.2-0.8c-0.5-0.5-0.8-1.2-0.8-2.1V384h1.7v8.4
				c0,0.5,0.1,0.9,0.4,1.2c0.2,0.3,0.6,0.4,1.1,0.4s1-0.1,1.3-0.4l0.5,1.2c-0.3,0.2-0.6,0.4-0.9,0.5
				C334.7,395.3,334.3,395.4,333.9,395.4z"/>
			<path class="st4" d="M342.9,395.3v-12.2h1.4l8.1,10h-0.8v-10h1.7v12.2H352l-8.1-10h0.8v10H342.9z"/>
			<path class="st4" d="M360.8,395.4c-0.8,0-1.5-0.1-2.1-0.4s-1.1-0.7-1.4-1.3c-0.3-0.6-0.5-1.4-0.5-2.3V386h1.7v5.1
				c0,0.9,0.2,1.6,0.7,2c0.4,0.5,1.1,0.7,1.8,0.7c0.6,0,1.1-0.1,1.5-0.4c0.4-0.2,0.8-0.6,1-1c0.2-0.5,0.3-1,0.3-1.7V386h1.7v9.3
				h-1.6v-2.5l0.3,0.7c-0.3,0.6-0.8,1.1-1.4,1.4C362.2,395.2,361.5,395.4,360.8,395.4z"/>
			<path class="st4" d="M380.3,385.9c0.7,0,1.4,0.1,2,0.4s1,0.7,1.3,1.3c0.3,0.6,0.5,1.3,0.5,2.3v5.3h-1.7v-5.1c0-0.9-0.2-1.6-0.6-2
				c-0.4-0.5-1-0.7-1.8-0.7c-0.6,0-1,0.1-1.5,0.3c-0.4,0.2-0.7,0.6-1,1c-0.2,0.5-0.3,1-0.3,1.7v4.8h-1.7v-5.1c0-0.9-0.2-1.6-0.6-2
				c-0.4-0.5-1-0.7-1.8-0.7c-0.5,0-1,0.1-1.4,0.3c-0.4,0.2-0.7,0.6-1,1c-0.2,0.5-0.3,1-0.3,1.7v4.8h-1.7V386h1.6v2.5l-0.3-0.6
				c0.3-0.6,0.7-1.1,1.3-1.4c0.6-0.3,1.3-0.5,2.1-0.5c0.9,0,1.6,0.2,2.3,0.7c0.6,0.4,1.1,1.1,1.3,2l-0.7-0.3
				c0.3-0.7,0.8-1.3,1.5-1.7C378.5,386.2,379.3,385.9,380.3,385.9z"/>
			<path class="st4" d="M387.2,395.3v-13h1.7v6.2l-0.2,2.1l0.1,2.1v2.5L387.2,395.3L387.2,395.3z M392.1,395.4
				c-0.8,0-1.5-0.2-2.1-0.5c-0.6-0.4-1.1-0.9-1.5-1.6s-0.5-1.6-0.5-2.6s0.2-1.9,0.6-2.6s0.9-1.2,1.5-1.6c0.6-0.3,1.3-0.5,2.1-0.5
				c0.9,0,1.7,0.2,2.4,0.6c0.7,0.4,1.3,0.9,1.7,1.7c0.4,0.7,0.6,1.5,0.6,2.5c0,0.9-0.2,1.8-0.6,2.5s-1,1.3-1.7,1.7
				C393.8,395.2,393,395.4,392.1,395.4z M391.9,393.9c0.6,0,1.1-0.1,1.6-0.4s0.8-0.6,1.1-1.1c0.3-0.5,0.4-1.1,0.4-1.7
				c0-0.7-0.1-1.2-0.4-1.7s-0.6-0.9-1.1-1.1c-0.5-0.3-1-0.4-1.6-0.4s-1.1,0.1-1.6,0.4s-0.8,0.6-1.1,1.1c-0.3,0.5-0.4,1.1-0.4,1.7
				c0,0.7,0.1,1.2,0.4,1.7s0.6,0.9,1.1,1.1C390.8,393.8,391.4,393.9,391.9,393.9z"/>
			<path class="st4" d="M403.2,395.4c-1,0-1.9-0.2-2.6-0.6c-0.8-0.4-1.3-1-1.7-1.7c-0.4-0.7-0.6-1.5-0.6-2.4s0.2-1.7,0.6-2.4
				c0.4-0.7,1-1.3,1.7-1.7c0.7-0.4,1.5-0.6,2.4-0.6s1.7,0.2,2.4,0.6s1.2,1,1.6,1.7s0.6,1.6,0.6,2.5c0,0.1,0,0.2,0,0.2
				c0,0.1,0,0.2,0,0.3h-7.9V390h7l-0.7,0.4c0-0.6-0.1-1.1-0.4-1.6s-0.6-0.8-1.1-1.1c-0.4-0.3-1-0.4-1.6-0.4s-1.1,0.1-1.6,0.4
				s-0.8,0.6-1.1,1.1c-0.3,0.5-0.4,1-0.4,1.6v0.3c0,0.6,0.1,1.2,0.4,1.7s0.7,0.9,1.2,1.1c0.5,0.3,1.1,0.4,1.8,0.4
				c0.5,0,1-0.1,1.5-0.3c0.4-0.2,0.8-0.5,1.2-0.8l0.9,1.1c-0.4,0.5-0.9,0.9-1.6,1.1C404.7,395.3,404,395.4,403.2,395.4z"/>
			<path class="st4" d="M409.8,395.3V386h1.6v2.5l-0.2-0.6c0.3-0.6,0.7-1.1,1.3-1.5c0.6-0.3,1.4-0.5,2.2-0.5v1.6c-0.1,0-0.1,0-0.2,0
				s-0.1,0-0.2,0c-0.9,0-1.6,0.3-2.1,0.8s-0.8,1.3-0.8,2.3v4.6h-1.6V395.3z"/>
		</g>
		<g>
			<rect x="103.3" y="452.8" class="st3" width="341.1" height="47.4"/>
			<g>
				<rect x="407.4" y="464.6" class="st5" width="22.2" height="23.7"/>
				<g>
					<polyline class="st3" points="414,473.2 418.5,468.8 422.9,473.2 					"/>
					<polyline class="st3" points="422.9,479.7 418.5,484.3 414,479.7 					"/>
				</g>
			</g>
			<g class="st1">
				<path class="st2" d="M108.6,441.7c-0.9,0-1.8-0.2-2.6-0.5s-1.5-0.8-2.1-1.3s-1-1.2-1.4-2c-0.3-0.8-0.5-1.6-0.5-2.5
					s0.2-1.7,0.5-2.5s0.8-1.4,1.4-2s1.3-1,2.1-1.3c0.8-0.3,1.7-0.5,2.6-0.5s1.8,0.2,2.6,0.5c0.8,0.3,1.5,0.7,2.1,1.3
					c0.6,0.6,1,1.2,1.4,2c0.3,0.8,0.5,1.6,0.5,2.5s-0.2,1.7-0.5,2.5s-0.8,1.4-1.4,2s-1.3,1-2.1,1.3S109.6,441.7,108.6,441.7z
					 M108.6,440.1c0.7,0,1.3-0.1,1.9-0.3c0.6-0.2,1.1-0.6,1.5-1s0.8-0.9,1-1.5s0.4-1.2,0.4-1.9c0-0.7-0.1-1.3-0.4-1.9
					c-0.2-0.6-0.6-1.1-1-1.5s-0.9-0.8-1.5-1s-1.2-0.3-1.9-0.3c-0.7,0-1.3,0.1-1.9,0.3c-0.6,0.2-1.1,0.6-1.5,1s-0.8,0.9-1,1.5
					s-0.4,1.2-0.4,1.9c0,0.7,0.1,1.3,0.4,1.9c0.2,0.6,0.6,1.1,1,1.5s0.9,0.8,1.5,1C107.3,440,107.9,440.1,108.6,440.1z"/>
				<path class="st2" d="M121.4,441.6c-0.9,0-1.7-0.2-2.4-0.6c-0.7-0.4-1.3-0.9-1.7-1.7s-0.6-1.5-0.6-2.5c0-0.9,0.2-1.8,0.6-2.5
					s1-1.3,1.7-1.7c0.7-0.4,1.5-0.6,2.4-0.6c0.8,0,1.5,0.2,2.1,0.5s1.1,0.9,1.5,1.6s0.6,1.6,0.6,2.6s-0.2,1.9-0.6,2.6
					s-0.9,1.2-1.5,1.6C122.9,441.5,122.2,441.6,121.4,441.6z M121.5,440.2c0.6,0,1.1-0.1,1.6-0.4s0.8-0.6,1.1-1.1
					c0.3-0.5,0.4-1.1,0.4-1.7c0-0.7-0.1-1.2-0.4-1.7s-0.6-0.9-1.1-1.1c-0.5-0.3-1-0.4-1.6-0.4s-1.1,0.1-1.6,0.4s-0.8,0.6-1.1,1.1
					c-0.3,0.5-0.4,1.1-0.4,1.7c0,0.7,0.1,1.2,0.4,1.7s0.7,0.9,1.1,1.1C120.4,440,120.9,440.2,121.5,440.2z M124.7,441.5V439l0.1-2.1
					l-0.2-2.1v-6.2h1.7v13L124.7,441.5L124.7,441.5z"/>
				<path class="st2" d="M132.2,441.6c-0.7,0-1.3-0.1-1.8-0.3c-0.5-0.2-0.9-0.6-1.2-1s-0.4-0.9-0.4-1.4s0.1-1,0.4-1.4
					c0.2-0.4,0.6-0.7,1.2-1c0.5-0.2,1.3-0.4,2.2-0.4h2.9v1.2h-2.9c-0.8,0-1.4,0.1-1.7,0.4s-0.4,0.6-0.4,1c0,0.5,0.2,0.8,0.5,1.1
					c0.4,0.3,0.9,0.4,1.5,0.4s1.2-0.1,1.7-0.4s0.8-0.7,1-1.2l0.3,1.2c-0.2,0.5-0.6,1-1.2,1.3S133,441.6,132.2,441.6z M135.2,441.5
					v-2l-0.1-0.4v-3.3c0-0.7-0.2-1.3-0.6-1.7c-0.4-0.4-1-0.6-1.9-0.6c-0.5,0-1.1,0.1-1.6,0.3c-0.5,0.2-1,0.4-1.3,0.7l-0.7-1.3
					c0.5-0.4,1.1-0.7,1.7-0.9c0.7-0.2,1.4-0.3,2.1-0.3c1.3,0,2.2,0.3,2.9,0.9s1,1.6,1,2.8v5.6h-1.5V441.5z"/>
				<path class="st2" d="M144.8,441.5v-12.2h1.4l8.1,10h-0.8v-10h1.7v12.2h-1.4l-8.1-10h0.8v10H144.8z"/>
				<path class="st2" d="M162.7,441.6c-0.9,0-1.8-0.2-2.5-0.6s-1.3-1-1.7-1.7s-0.6-1.5-0.6-2.4s0.2-1.7,0.6-2.4
					c0.4-0.7,1-1.3,1.7-1.7c0.7-0.4,1.5-0.6,2.5-0.6c0.9,0,1.7,0.2,2.5,0.6c0.7,0.4,1.3,1,1.7,1.7s0.6,1.5,0.6,2.5
					c0,0.9-0.2,1.7-0.6,2.4c-0.4,0.7-1,1.3-1.7,1.7C164.5,441.4,163.7,441.6,162.7,441.6z M162.7,440.2c0.6,0,1.1-0.1,1.6-0.4
					s0.8-0.6,1.1-1.1s0.4-1.1,0.4-1.7c0-0.7-0.1-1.2-0.4-1.7c-0.3-0.5-0.6-0.9-1.1-1.1c-0.5-0.3-1-0.4-1.6-0.4s-1.1,0.1-1.6,0.4
					s-0.8,0.6-1.1,1.1s-0.4,1.1-0.4,1.7c0,0.7,0.1,1.2,0.4,1.7c0.3,0.5,0.7,0.9,1.1,1.1C161.6,440,162.1,440.2,162.7,440.2z"/>
			</g>
			<g class="st1">
				<path class="st4" d="M242.4,483c-0.9,0-1.8-0.2-2.6-0.5s-1.5-0.8-2.1-1.3c-0.6-0.6-1-1.2-1.4-2c-0.3-0.8-0.5-1.6-0.5-2.5
					s0.2-1.7,0.5-2.5s0.8-1.4,1.4-2c0.6-0.6,1.3-1,2.1-1.3s1.7-0.5,2.6-0.5c0.9,0,1.8,0.2,2.6,0.5s1.5,0.7,2.1,1.3
					c0.6,0.6,1,1.2,1.4,2c0.3,0.8,0.5,1.6,0.5,2.5s-0.2,1.7-0.5,2.5s-0.8,1.4-1.4,2c-0.6,0.6-1.3,1-2.1,1.3S243.4,483,242.4,483z
					 M242.4,481.5c0.7,0,1.3-0.1,1.9-0.3c0.6-0.2,1.1-0.6,1.5-1s0.8-0.9,1-1.5s0.4-1.2,0.4-1.9c0-0.7-0.1-1.3-0.4-1.9
					c-0.2-0.6-0.6-1.1-1-1.5s-0.9-0.8-1.5-1s-1.2-0.3-1.9-0.3s-1.3,0.1-1.9,0.3c-0.6,0.2-1.1,0.6-1.5,1s-0.8,0.9-1,1.5
					s-0.4,1.2-0.4,1.9c0,0.7,0.1,1.3,0.4,1.9c0.2,0.6,0.6,1.1,1,1.5s0.9,0.8,1.5,1C241.1,481.3,241.7,481.5,242.4,481.5z"/>
				<path class="st4" d="M255.2,483c-0.9,0-1.7-0.2-2.4-0.6s-1.3-0.9-1.7-1.7s-0.6-1.5-0.6-2.5c0-0.9,0.2-1.8,0.6-2.5
					c0.4-0.7,1-1.3,1.7-1.7c0.7-0.4,1.5-0.6,2.4-0.6c0.8,0,1.5,0.2,2.1,0.5c0.6,0.3,1.1,0.9,1.5,1.6s0.6,1.6,0.6,2.6
					s-0.2,1.9-0.6,2.6s-0.9,1.2-1.5,1.6C256.7,482.8,256,483,255.2,483z M255.3,481.5c0.6,0,1.1-0.1,1.6-0.4s0.8-0.6,1.1-1.1
					c0.3-0.5,0.4-1.1,0.4-1.7c0-0.7-0.1-1.2-0.4-1.7s-0.6-0.9-1.1-1.1c-0.5-0.3-1-0.4-1.6-0.4s-1.1,0.1-1.6,0.4s-0.8,0.6-1.1,1.1
					s-0.4,1.1-0.4,1.7c0,0.7,0.1,1.2,0.4,1.7c0.3,0.5,0.7,0.9,1.1,1.1C254.2,481.4,254.7,481.5,255.3,481.5z M258.5,482.9v-2.5
					l0.1-2.1l-0.2-2.1V470h1.7v13L258.5,482.9L258.5,482.9z"/>
				<path class="st4" d="M266,483c-0.7,0-1.3-0.1-1.8-0.3c-0.5-0.2-0.9-0.6-1.2-1c-0.3-0.4-0.4-0.9-0.4-1.4s0.1-1,0.4-1.4
					c0.2-0.4,0.6-0.7,1.2-1c0.5-0.2,1.3-0.4,2.2-0.4h2.9v1.2h-2.9c-0.8,0-1.4,0.1-1.7,0.4c-0.3,0.3-0.4,0.6-0.4,1
					c0,0.5,0.2,0.8,0.5,1.1c0.4,0.3,0.9,0.4,1.5,0.4s1.2-0.1,1.7-0.4s0.8-0.7,1-1.2l0.3,1.2c-0.2,0.5-0.6,1-1.2,1.3
					C267.5,482.8,266.8,483,266,483z M269,482.9v-2l-0.1-0.4v-3.3c0-0.7-0.2-1.3-0.6-1.7c-0.4-0.4-1-0.6-1.9-0.6
					c-0.5,0-1.1,0.1-1.6,0.3s-1,0.4-1.3,0.7l-0.7-1.3c0.5-0.4,1.1-0.7,1.7-0.9c0.7-0.2,1.4-0.3,2.1-0.3c1.3,0,2.2,0.3,2.9,0.9
					c0.7,0.6,1,1.6,1,2.8v5.6H269V482.9z"/>
				<path class="st4" d="M278.6,482.9v-12.2h1.4l8.1,10h-0.8v-10h1.7v12.2h-1.4l-8.1-10h0.8v10H278.6z"/>
				<path class="st4" d="M296.6,483c-0.9,0-1.8-0.2-2.5-0.6s-1.3-1-1.7-1.7s-0.6-1.5-0.6-2.4s0.2-1.7,0.6-2.4s1-1.3,1.7-1.7
					c0.7-0.4,1.5-0.6,2.5-0.6c0.9,0,1.7,0.2,2.5,0.6c0.7,0.4,1.3,1,1.7,1.7c0.4,0.7,0.6,1.5,0.6,2.5c0,0.9-0.2,1.7-0.6,2.4
					c-0.4,0.7-1,1.3-1.7,1.7S297.5,483,296.6,483z M296.6,481.5c0.6,0,1.1-0.1,1.6-0.4s0.8-0.6,1.1-1.1c0.3-0.5,0.4-1.1,0.4-1.7
					c0-0.7-0.1-1.2-0.4-1.7s-0.6-0.9-1.1-1.1c-0.5-0.3-1-0.4-1.6-0.4s-1.1,0.1-1.6,0.4s-0.8,0.6-1.1,1.1c-0.3,0.5-0.4,1.1-0.4,1.7
					c0,0.7,0.1,1.2,0.4,1.7s0.7,0.9,1.1,1.1C295.4,481.4,296,481.5,296.6,481.5z"/>
			</g>
		</g>
		<rect x="103.3" y="533.5" class="st6" width="341.1" height="47.4"/>
	</g>
	<g class="st1">
		<path class="st7" d="M243.5,561.8c-0.9,0-1.8-0.1-2.6-0.4c-0.8-0.3-1.5-0.7-2-1.2c-0.6-0.5-1-1.1-1.3-1.8s-0.5-1.4-0.5-2.2
			s0.2-1.5,0.5-2.2s0.8-1.3,1.3-1.8c0.6-0.5,1.3-0.9,2-1.2c0.8-0.3,1.6-0.4,2.6-0.4c0.9,0,1.8,0.1,2.6,0.4c0.8,0.3,1.5,0.7,2,1.3
			l-1.1,1c-0.5-0.4-1-0.7-1.6-0.9s-1.2-0.3-1.9-0.3s-1.3,0.1-1.9,0.3c-0.6,0.2-1.1,0.5-1.5,0.9s-0.8,0.8-1,1.3s-0.4,1.1-0.4,1.7
			c0,0.6,0.1,1.1,0.4,1.6c0.2,0.5,0.6,1,1,1.3s0.9,0.7,1.5,0.9s1.2,0.3,1.9,0.3c0.6,0,1.3-0.1,1.8-0.3c0.6-0.2,1.1-0.5,1.6-0.9
			l1,1.2c-0.6,0.5-1.3,0.8-2.1,1C245.1,561.6,244.3,561.8,243.5,561.8z M246.4,560.2v-4h1.6v4.2L246.4,560.2z"/>
		<path class="st7" d="M251.9,552c-0.3,0-0.5-0.1-0.7-0.3s-0.3-0.4-0.3-0.6c0-0.3,0.1-0.5,0.3-0.6s0.4-0.3,0.7-0.3s0.5,0.1,0.7,0.3
			s0.3,0.4,0.3,0.6c0,0.3-0.1,0.5-0.3,0.6C252.4,551.9,252.2,552,251.9,552z M251,561.6v-8.2h1.6v8.2H251z"/>
	</g>
	<g class="st1">
		<path class="st7" d="M255.8,561.6v-8.2h1.6v2.2l-0.2-0.6c0.3-0.6,0.7-1,1.3-1.3c0.6-0.3,1.3-0.4,2.2-0.4v1.4c-0.1,0-0.1,0-0.2,0
			s-0.1,0-0.2,0c-0.9,0-1.6,0.2-2.1,0.7s-0.8,1.2-0.8,2.1v4.1H255.8z"/>
	</g>
	<g class="st1">
		<path class="st7" d="M263.6,552c-0.3,0-0.5-0.1-0.7-0.3s-0.3-0.4-0.3-0.6c0-0.3,0.1-0.5,0.3-0.6c0.2-0.2,0.4-0.3,0.7-0.3
			c0.3,0,0.5,0.1,0.7,0.3s0.3,0.4,0.3,0.6c0,0.3-0.1,0.5-0.3,0.6C264.1,551.9,263.8,552,263.6,552z M262.7,561.6v-8.2h1.6v8.2H262.7
			z"/>
		<path class="st7" d="M270.1,561.7c-0.8,0-1.5-0.1-2.1-0.3c-0.7-0.2-1.2-0.4-1.6-0.7l0.7-1.2c0.4,0.2,0.9,0.4,1.4,0.6
			c0.6,0.2,1.2,0.2,1.7,0.2c0.8,0,1.3-0.1,1.7-0.3c0.3-0.2,0.5-0.5,0.5-0.8s-0.1-0.5-0.3-0.6c-0.2-0.1-0.5-0.3-0.8-0.3
			c-0.3-0.1-0.7-0.1-1.1-0.2c-0.4-0.1-0.8-0.1-1.2-0.2c-0.4-0.1-0.8-0.2-1.1-0.4c-0.3-0.2-0.6-0.4-0.8-0.7c-0.2-0.3-0.3-0.7-0.3-1.1
			c0-0.5,0.2-0.9,0.5-1.3s0.7-0.7,1.3-0.9c0.6-0.2,1.2-0.3,2-0.3c0.6,0,1.2,0.1,1.8,0.2c0.6,0.1,1.1,0.3,1.5,0.5l-0.7,1.2
			c-0.4-0.2-0.8-0.4-1.3-0.5c-0.4-0.1-0.9-0.1-1.3-0.1c-0.7,0-1.3,0.1-1.6,0.3c-0.4,0.2-0.5,0.5-0.5,0.8s0.1,0.5,0.3,0.6
			c0.2,0.1,0.5,0.3,0.8,0.3c0.3,0.1,0.7,0.2,1.1,0.2c0.4,0.1,0.8,0.1,1.2,0.2c0.4,0.1,0.8,0.2,1.1,0.4c0.3,0.2,0.6,0.4,0.8,0.6
			c0.2,0.3,0.3,0.6,0.3,1.1s-0.2,0.9-0.5,1.3c-0.3,0.4-0.8,0.6-1.4,0.8C271.6,561.6,270.9,561.7,270.1,561.7z M269.8,565.1
			c-0.3,0-0.6,0-0.8-0.1c-0.3-0.1-0.5-0.1-0.7-0.3l0.4-0.8c0.2,0.1,0.4,0.2,0.6,0.2s0.4,0.1,0.6,0.1c0.3,0,0.6-0.1,0.7-0.2
			c0.2-0.1,0.2-0.3,0.2-0.5s-0.1-0.3-0.2-0.4c-0.2-0.1-0.4-0.2-0.7-0.2h-0.5l0.4-1.5h0.9l-0.3,0.9c0.5,0,0.9,0.2,1.1,0.4
			c0.3,0.2,0.4,0.5,0.4,0.9s-0.2,0.8-0.6,1C270.9,565,270.4,565.1,269.8,565.1z"/>
	</g>
	<g class="st1">
		<path class="st7" d="M283.8,561.6v-4.1l0.4,1l-5.2-7.6h1.8l4.3,6.4h-1l4.4-6.4h1.7l-5.1,7.6l0.4-1v4.1H283.8z"/>
	</g>
	<g class="st1">
		<path class="st7" d="M293.3,561.7c-0.7,0-1.3-0.1-1.8-0.3s-0.9-0.5-1.2-0.9c-0.3-0.4-0.4-0.8-0.4-1.2s0.1-0.8,0.4-1.2
			c0.2-0.4,0.6-0.6,1.1-0.9c0.5-0.2,1.2-0.3,2.2-0.3h2.9v1.1h-2.8c-0.8,0-1.4,0.1-1.7,0.4c-0.3,0.2-0.4,0.5-0.4,0.9s0.2,0.7,0.5,1
			c0.4,0.2,0.8,0.4,1.5,0.4c0.6,0,1.2-0.1,1.6-0.4c0.5-0.2,0.8-0.6,1-1.1l0.3,1c-0.2,0.5-0.6,0.9-1.1,1.1
			C294.9,561.6,294.2,561.7,293.3,561.7z M296.3,561.6v-1.7l-0.1-0.3v-2.9c0-0.6-0.2-1.1-0.6-1.5s-1-0.5-1.8-0.5
			c-0.5,0-1.1,0.1-1.6,0.2c-0.5,0.2-0.9,0.4-1.3,0.6l-0.7-1.1c0.5-0.3,1-0.6,1.7-0.8s1.3-0.3,2.1-0.3c1.2,0,2.2,0.3,2.9,0.8
			c0.7,0.5,1,1.4,1,2.5v4.9L296.3,561.6L296.3,561.6z"/>
		<path class="st7" d="M300.9,564.6v-11.2h1.6v2.2l-0.1,1.9l0.2,1.9v5.2L300.9,564.6L300.9,564.6z M305.7,561.7
			c-0.8,0-1.4-0.2-2.1-0.5c-0.6-0.3-1.1-0.8-1.5-1.4c-0.4-0.6-0.6-1.4-0.6-2.3c0-0.9,0.2-1.7,0.5-2.3c0.4-0.6,0.9-1.1,1.5-1.4
			c0.6-0.3,1.3-0.5,2.1-0.5c0.9,0,1.7,0.2,2.4,0.5c0.7,0.3,1.2,0.8,1.6,1.5c0.4,0.6,0.6,1.4,0.6,2.2s-0.2,1.6-0.6,2.2
			c-0.4,0.6-0.9,1.1-1.6,1.5C307.4,561.5,306.6,561.7,305.7,561.7z M305.6,560.4c0.6,0,1.1-0.1,1.6-0.4c0.5-0.2,0.8-0.6,1.1-1
			c0.3-0.4,0.4-0.9,0.4-1.5s-0.1-1.1-0.4-1.5s-0.6-0.8-1.1-1s-1-0.4-1.6-0.4s-1.1,0.1-1.5,0.4c-0.5,0.2-0.8,0.6-1.1,1
			c-0.3,0.4-0.4,0.9-0.4,1.5s0.1,1.1,0.4,1.5s0.6,0.8,1.1,1C304.5,560.3,305,560.4,305.6,560.4z"/>
	</g>
	<path class="st7" d="M218.1,622.3h110.4c16.8,0,30.5,13.6,30.5,30.5v27c0,16.8-13.6,30.5-30.5,30.5H218.1
		c-16.8,0-30.5-13.6-30.5-30.5v-27C187.6,636.1,201.3,622.3,218.1,622.3z"/>
	<circle class="st8" cx="273.3" cy="666.3" r="25.8"/>
	<path class="st9" d="M282.9,664.7h-11.2v-3.3c0-2.2-2.6-3.3-4.2-1.7l-5.3,5.3c-1,1-1,2.6,0,3.5l5.3,5.3c1.6,1.6,4.2,0.5,4.2-1.7
		v-3.3h11.2c1.1,0,2.1-0.9,2.1-2.1S284.1,664.7,282.9,664.7L282.9,664.7z"/>
</g>
<path class="st7" d="M321.3,84.1H224c-21.5-0.4-21.5-32.4,0-32.8h97.3c9,0,16.4,7.3,16.4,16.4C337.7,76.8,330.4,84.1,321.3,84.1
	L321.3,84.1z"/>
<path class="st7" d="M512.1,73.4v37.1c-0.1-25.7-0.3-41.9-0.7-44.4C511.9,68.5,512.1,70.9,512.1,73.4z"/>
<path class="st7" d="M511.4,65.9c0,0.1,0,0.1,0,0.2c-0.1-0.4-0.1-0.8-0.2-1.2C511.2,65.2,511.3,65.6,511.4,65.9z"/>
<path d="M337.7,67.7c0,9-7.3,16.4-16.4,16.4l0,0H224c-21.5-0.4-21.5-32.4,0-32.8h97.3C330.4,51.3,337.7,58.7,337.7,67.7z"/>
<path class="st10" d="M446.7,0H103.7C67.6,0,38.3,29.3,38.3,65.4v709.9h24V62.5c0-21.3,17.2-38.5,38.5-38.5h348.8
	c21.3,0,38.5,17.2,38.5,38.5v712.8h24V65.4C512.1,29.3,482.8,0,446.7,0z M473.7,33.4h0.1c0.1,0,0.2,0,0.4,0
	C474,33.4,473.9,33.4,473.7,33.4z"/>
</svg>
