<?xml version="1.0" encoding="utf-8"?>
<!-- Generator: Adobe Illustrator 27.8.1, SVG Export Plug-In . SVG Version: 6.00 Build 0)  -->
<svg version="1.1" id="mac-filtering" xmlns="http://www.w3.org/2000/svg" xmlns:xlink="http://www.w3.org/1999/xlink" x="0px"
	 y="0px" viewBox="0 0 873.2 333.1" style="enable-background:new 0 0 873.2 333.1;" xml:space="preserve">
<style type="text/css">
	.st0{fill:#666666;}
	.st1{fill:#808080;}
	.st2{fill:#333333;}
	.st3{fill:#FFFFFF;}
	.st4{fill:#010101;}
	.st5{clip-path:url(#SVGID_00000182515908418565999450000017953500017868766347_);}
	.st6{fill:#C69C6D;}
	.st7{clip-path:url(#SVGID_00000116215282140197279940000018280859145066994573_);}
	.st8{clip-path:url(#SVGID_00000100383071284686273870000016273263721352348054_);}
	.st9{clip-path:url(#SVGID_00000167398662003040935020000018016407482430693762_);}
	.st10{clip-path:url(#SVGID_00000149363541046085239890000012378535773878109064_);}
	.st11{clip-path:url(#SVGID_00000013186350659693830680000005979657836048351127_);}
	.st12{clip-path:url(#SVGID_00000065055144936938436890000010527182221650131611_);}
	.st13{clip-path:url(#SVGID_00000113337793243322878700000016201122436485842105_);}
	.st14{clip-path:url(#SVGID_00000065076622849268174630000005351157959374802861_);}
	.st15{clip-path:url(#SVGID_00000092453992762855121770000000118787583123879058_);}
	.st16{clip-path:url(#SVGID_00000181787699607554807190000015769135091273496722_);}
	.st17{clip-path:url(#SVGID_00000180351847770030015500000011755015722719194549_);}
	.st18{clip-path:url(#SVGID_00000147184936396044006890000000361385784141053099_);}
	.st19{clip-path:url(#SVGID_00000087401931919783991810000011958772442369294508_);}
	.st20{clip-path:url(#SVGID_00000132063914162293395120000000716984432225719713_);}
	.st21{clip-path:url(#SVGID_00000022542043056686943240000014228411658224077983_);}
	.st22{fill:#1A1A1A;}
	.st23{fill:#CCCCCC;}
	.st24{fill:#B3B3B3;}
	.st25{fill:#9D9D9C;}
</style>
<g>
	<polygon class="st0" points="0,204.3 395.6,186 871.3,177.9 551.3,199.6 	"/>
	<g>
		<g>
			<path class="st1" d="M9.7,309.2V215l530.2-3.8v101.7L9.7,309.2 M551.3,199.6L0,204.3v115.6l551.3,4.7V199.6"/>
			<path class="st2" d="M26,285.9c-0.5,0-0.9-0.1-1.3-0.3s-0.7-0.4-1-0.8s-0.5-0.7-0.7-1.1s-0.2-0.9-0.2-1.4s0.1-1,0.2-1.4
				s0.4-0.8,0.7-1.1s0.6-0.6,1-0.8s0.8-0.3,1.3-0.3s0.9,0.1,1.3,0.3s0.7,0.4,1,0.8s0.5,0.7,0.7,1.1s0.2,0.9,0.2,1.4s-0.1,1-0.2,1.4
				s-0.4,0.8-0.7,1.1s-0.6,0.6-1,0.8S26.5,285.9,26,285.9 M35.9,285.9c-0.5,0-0.9-0.1-1.3-0.3s-0.7-0.4-1-0.8s-0.5-0.7-0.7-1.1
				s-0.3-0.9-0.3-1.4s0.1-1,0.3-1.4s0.4-0.8,0.7-1.1s0.6-0.6,1-0.8s0.8-0.3,1.3-0.3s0.9,0.1,1.3,0.3s0.7,0.4,1,0.8s0.5,0.7,0.7,1.1
				s0.2,0.9,0.2,1.4s-0.1,1-0.2,1.4s-0.4,0.8-0.7,1.1s-0.6,0.6-1,0.8S36.3,285.9,35.9,285.9 M45.8,285.9c-0.5,0-0.9-0.1-1.3-0.3
				s-0.7-0.4-1-0.8s-0.5-0.7-0.7-1.1s-0.2-0.9-0.2-1.4s0.1-1,0.2-1.4s0.4-0.8,0.7-1.1s0.6-0.6,1-0.8s0.8-0.3,1.3-0.3
				s0.9,0.1,1.3,0.3s0.7,0.4,1,0.8s0.5,0.7,0.7,1.1s0.2,0.9,0.2,1.4s-0.1,1-0.2,1.4s-0.4,0.8-0.7,1.1s-0.6,0.6-1,0.8
				S46.2,285.9,45.8,285.9 M55.7,285.9c-0.5,0-0.9-0.1-1.3-0.3s-0.7-0.4-1-0.8s-0.5-0.7-0.7-1.1s-0.3-0.9-0.3-1.4s0.1-1,0.3-1.4
				s0.4-0.8,0.7-1.1s0.6-0.6,1-0.8s0.8-0.3,1.3-0.3s0.9,0.1,1.3,0.3s0.7,0.4,1,0.8s0.5,0.7,0.7,1.1s0.3,0.9,0.3,1.4s-0.1,1-0.3,1.4
				s-0.4,0.8-0.7,1.1s-0.7,0.6-1,0.8S56.2,285.9,55.7,285.9 M65.6,286c-0.4,0-0.9-0.1-1.3-0.3s-0.7-0.4-1-0.8s-0.5-0.7-0.7-1.1
				s-0.3-0.9-0.3-1.4s0.1-1,0.3-1.4s0.4-0.8,0.7-1.1s0.7-0.6,1-0.8c0.3-0.2,0.8-0.3,1.3-0.3s0.9,0.1,1.3,0.3s0.7,0.4,1,0.8
				s0.5,0.7,0.7,1.1s0.3,0.9,0.3,1.4s-0.1,1-0.3,1.4s-0.4,0.8-0.7,1.1s-0.7,0.6-1,0.8S66.1,286,65.6,286 M75.6,286
				c-0.4,0-0.9-0.1-1.3-0.3s-0.7-0.4-1-0.8s-0.5-0.7-0.7-1.1s-0.3-0.9-0.3-1.4s0.1-1,0.3-1.4s0.4-0.8,0.7-1.1s0.7-0.6,1-0.8
				s0.8-0.3,1.3-0.3s0.9,0.1,1.3,0.3s0.7,0.4,1,0.8s0.5,0.7,0.7,1.1s0.3,0.9,0.3,1.4s-0.1,1-0.3,1.4s-0.4,0.8-0.7,1.1
				s-0.7,0.6-1,0.8S76,286,75.6,286 M26,273.6c-0.5,0-0.9-0.1-1.3-0.3s-0.7-0.4-1-0.8s-0.5-0.7-0.7-1.1s-0.2-0.9-0.2-1.4
				s0.1-1,0.2-1.4s0.4-0.8,0.7-1.1s0.6-0.6,1-0.8s0.8-0.3,1.3-0.3s0.9,0.1,1.3,0.3s0.7,0.4,1,0.8s0.5,0.7,0.7,1.1s0.2,0.9,0.2,1.4
				s-0.1,1-0.2,1.4s-0.4,0.8-0.7,1.1s-0.6,0.6-1,0.8S26.5,273.6,26,273.6 M35.9,273.6c-0.5,0-0.9-0.1-1.3-0.3s-0.7-0.4-1-0.8
				s-0.5-0.7-0.7-1.1s-0.3-0.9-0.3-1.4s0.1-1,0.3-1.4s0.4-0.8,0.7-1.1s0.6-0.6,1-0.8s0.8-0.3,1.3-0.3s0.9,0.1,1.3,0.3s0.7,0.4,1,0.8
				s0.5,0.7,0.7,1.1s0.2,0.9,0.2,1.4s-0.1,1-0.2,1.4s-0.4,0.8-0.7,1.1s-0.6,0.6-1,0.8S36.3,273.7,35.9,273.6 M45.8,273.7
				c-0.5,0-0.9-0.1-1.3-0.3s-0.7-0.4-1-0.8s-0.5-0.7-0.7-1.1s-0.2-0.9-0.2-1.4s0.1-1,0.2-1.4s0.4-0.8,0.7-1.1s0.6-0.6,1-0.8
				s0.8-0.3,1.3-0.3s0.9,0.1,1.3,0.3s0.7,0.4,1,0.8s0.5,0.7,0.7,1.1s0.2,0.9,0.2,1.4s-0.1,1-0.2,1.4s-0.4,0.8-0.7,1.1
				s-0.6,0.6-1,0.8S46.2,273.7,45.8,273.7 M55.7,273.7c-0.5,0-0.9-0.1-1.3-0.3s-0.7-0.4-1-0.8s-0.5-0.7-0.7-1.1s-0.3-0.9-0.3-1.4
				s0.1-1,0.3-1.4s0.4-0.8,0.7-1.1s0.6-0.6,1-0.8s0.8-0.3,1.3-0.3s0.9,0.1,1.3,0.3s0.7,0.4,1,0.8s0.5,0.7,0.7,1.1s0.3,0.9,0.3,1.4
				s-0.1,1-0.3,1.4s-0.4,0.8-0.7,1.1s-0.7,0.6-1,0.8S56.1,273.7,55.7,273.7 M65.6,273.7c-0.4,0-0.9-0.1-1.3-0.3s-0.7-0.4-1-0.8
				s-0.5-0.7-0.7-1.1s-0.3-0.9-0.3-1.4s0.1-1,0.3-1.4s0.4-0.8,0.7-1.1s0.7-0.6,1-0.8c0.3-0.2,0.8-0.3,1.3-0.3s0.9,0.1,1.3,0.3
				s0.7,0.4,1,0.8s0.5,0.7,0.7,1.1s0.3,0.9,0.3,1.4s-0.1,1-0.3,1.4s-0.4,0.8-0.7,1.1s-0.7,0.6-1,0.8S66.1,273.7,65.6,273.7
				 M75.6,273.7c-0.4,0-0.9-0.1-1.3-0.3s-0.7-0.4-1-0.8s-0.5-0.7-0.7-1.1s-0.3-0.9-0.3-1.4s0.1-1,0.3-1.4s0.4-0.8,0.7-1.1
				s0.7-0.6,1-0.8s0.8-0.3,1.3-0.3s0.9,0.1,1.3,0.3s0.7,0.4,1,0.8s0.5,0.7,0.7,1.1s0.3,0.9,0.3,1.4s-0.1,1-0.3,1.4s-0.4,0.8-0.7,1.1
				s-0.7,0.6-1,0.8S76,273.7,75.6,273.7 M26,256.6c-0.5,0-0.9-0.1-1.3-0.3s-0.7-0.4-1-0.8s-0.5-0.7-0.7-1.1s-0.2-0.9-0.2-1.4
				s0.1-1,0.2-1.4s0.4-0.8,0.7-1.1s0.6-0.6,1-0.8s0.8-0.3,1.3-0.3s0.9,0.1,1.3,0.3s0.7,0.4,1,0.8s0.5,0.7,0.7,1.1s0.2,0.9,0.2,1.4
				s-0.1,1-0.2,1.4s-0.4,0.8-0.7,1.1s-0.6,0.6-1,0.8S26.4,256.5,26,256.6 M35.9,256.5c-0.5,0-0.9-0.1-1.3-0.3s-0.7-0.4-1-0.8
				s-0.5-0.7-0.7-1.1s-0.3-0.9-0.3-1.4s0.1-1,0.3-1.4s0.4-0.8,0.7-1.1s0.6-0.6,1-0.8s0.8-0.3,1.3-0.3s0.9,0.1,1.3,0.3s0.7,0.4,1,0.8
				s0.5,0.7,0.7,1.1s0.2,0.9,0.2,1.4s-0.1,1-0.2,1.4s-0.4,0.8-0.7,1.1s-0.6,0.6-1,0.8S36.3,256.5,35.9,256.5 M45.8,256.5
				c-0.5,0-0.9-0.1-1.3-0.3s-0.7-0.4-1-0.8s-0.5-0.7-0.7-1.1s-0.2-0.9-0.2-1.4s0.1-1,0.2-1.4s0.4-0.8,0.7-1.1s0.6-0.6,1-0.8
				s0.8-0.3,1.3-0.3s0.9,0.1,1.3,0.3s0.7,0.4,1,0.8s0.5,0.7,0.7,1.1s0.2,0.9,0.2,1.4s-0.1,1-0.2,1.4s-0.4,0.8-0.7,1.1
				s-0.6,0.6-1,0.8S46.2,256.6,45.8,256.5 M55.7,256.6c-0.5,0-0.9-0.1-1.3-0.3s-0.7-0.4-1-0.8s-0.5-0.7-0.7-1.1s-0.3-0.9-0.3-1.4
				s0.1-1,0.3-1.4s0.4-0.8,0.7-1.1s0.6-0.6,1-0.8s0.8-0.3,1.3-0.3s0.9,0.1,1.3,0.3s0.7,0.4,1,0.8s0.5,0.7,0.7,1.1s0.3,0.9,0.3,1.4
				s-0.1,1-0.3,1.4s-0.4,0.8-0.7,1.1s-0.7,0.6-1,0.8S56.1,256.6,55.7,256.6 M65.6,256.6c-0.4,0-0.9-0.1-1.3-0.3s-0.7-0.4-1-0.8
				s-0.5-0.7-0.7-1.1s-0.3-0.9-0.3-1.4s0.1-1,0.3-1.4s0.4-0.8,0.7-1.1s0.7-0.6,1-0.8c0.3-0.2,0.8-0.3,1.3-0.3s0.9,0.1,1.3,0.3
				s0.7,0.4,1,0.8s0.5,0.7,0.7,1.1s0.3,0.9,0.3,1.4s-0.1,1-0.3,1.4s-0.4,0.8-0.7,1.1s-0.7,0.6-1,0.8S66.1,256.6,65.6,256.6
				 M75.6,256.6c-0.4,0-0.9-0.1-1.3-0.3s-0.7-0.4-1-0.8s-0.5-0.7-0.7-1.1s-0.3-0.9-0.3-1.4s0.1-1,0.3-1.4s0.4-0.8,0.7-1.1
				s0.7-0.6,1-0.8s0.8-0.3,1.3-0.3s0.9,0.1,1.3,0.3s0.7,0.4,1,0.8s0.5,0.7,0.7,1.1s0.3,0.9,0.3,1.4s-0.1,1-0.3,1.4s-0.4,0.8-0.7,1.1
				s-0.7,0.6-1,0.8S76,256.6,75.6,256.6 M26,244.4c-0.5,0-0.9-0.1-1.3-0.3s-0.7-0.4-1-0.8s-0.5-0.7-0.7-1.1s-0.2-0.9-0.2-1.4
				s0.1-1,0.2-1.4s0.4-0.8,0.7-1.1s0.6-0.6,1-0.8s0.8-0.3,1.3-0.3s0.9,0.1,1.3,0.3s0.7,0.4,1,0.8s0.5,0.7,0.7,1.1s0.2,0.9,0.2,1.4
				s-0.1,1-0.2,1.4s-0.4,0.8-0.7,1.1s-0.6,0.6-1,0.8S26.4,244.4,26,244.4 M35.9,244.4c-0.5,0-0.9-0.1-1.3-0.3s-0.7-0.4-1-0.8
				s-0.5-0.7-0.7-1.1s-0.3-0.9-0.3-1.4s0.1-1,0.3-1.4s0.4-0.8,0.7-1.1s0.6-0.6,1-0.8s0.8-0.3,1.3-0.3s0.9,0.1,1.3,0.3s0.7,0.4,1,0.8
				s0.5,0.7,0.7,1.1s0.2,0.9,0.2,1.4s-0.1,1-0.2,1.4s-0.4,0.8-0.7,1.1s-0.6,0.6-1,0.8S36.3,244.3,35.9,244.4 M45.8,244.3
				c-0.5,0-0.9-0.1-1.3-0.3s-0.7-0.4-1-0.8s-0.5-0.7-0.7-1.1s-0.2-0.9-0.2-1.4s0.1-1,0.2-1.4s0.4-0.8,0.7-1.1s0.6-0.6,1-0.8
				s0.8-0.3,1.3-0.3s0.9,0.1,1.3,0.3s0.7,0.4,1,0.8s0.5,0.7,0.7,1.1s0.2,0.9,0.2,1.4s-0.1,1-0.2,1.4s-0.4,0.8-0.7,1.1
				s-0.6,0.6-1,0.8S46.2,244.3,45.8,244.3 M55.7,244.3c-0.5,0-0.9-0.1-1.3-0.3s-0.7-0.4-1-0.8s-0.5-0.7-0.7-1.1s-0.3-0.9-0.3-1.4
				s0.1-1,0.3-1.4s0.4-0.8,0.7-1.1s0.6-0.6,1-0.8s0.8-0.3,1.3-0.3s0.9,0.1,1.3,0.3s0.7,0.4,1,0.8s0.5,0.7,0.7,1.1s0.3,0.9,0.3,1.4
				s-0.1,1-0.3,1.4s-0.4,0.8-0.7,1.1s-0.7,0.6-1,0.8S56.1,244.3,55.7,244.3 M65.6,244.3c-0.4,0-0.9-0.1-1.3-0.3s-0.7-0.4-1-0.8
				s-0.5-0.7-0.7-1.1s-0.3-0.9-0.3-1.4s0.1-1,0.3-1.4s0.4-0.8,0.7-1.1s0.7-0.6,1-0.8c0.3-0.2,0.8-0.3,1.3-0.3s0.9,0.1,1.3,0.3
				s0.7,0.4,1,0.8s0.5,0.7,0.7,1.1s0.3,0.9,0.3,1.4s-0.1,1-0.3,1.4s-0.4,0.8-0.7,1.1s-0.7,0.6-1,0.8S66.1,244.2,65.6,244.3
				 M75.6,244.2c-0.4,0-0.9-0.1-1.3-0.3s-0.7-0.4-1-0.8s-0.5-0.7-0.7-1.1s-0.3-0.9-0.3-1.4s0.1-1,0.3-1.4s0.4-0.8,0.7-1.1
				s0.7-0.6,1-0.8s0.8-0.3,1.3-0.3s0.9,0.1,1.3,0.3s0.7,0.4,1,0.8s0.5,0.7,0.7,1.1s0.3,0.9,0.3,1.4s-0.1,1-0.3,1.4s-0.4,0.8-0.7,1.1
				s-0.7,0.6-1,0.8S76,244.2,75.6,244.2 M158.6,299.5c-0.9,0-1.7-0.2-2.4-0.5c-0.8-0.3-1.4-0.8-2-1.4s-1-1.3-1.3-2.1
				s-0.5-1.7-0.5-2.6v-61.5c0-0.9,0.2-1.8,0.5-2.6s0.8-1.5,1.3-2.1s1.2-1.1,2-1.4s1.6-0.5,2.4-0.5l167.7-0.6c0.9,0,1.7,0.2,2.5,0.5
				s1.5,0.8,2.1,1.4s1.1,1.3,1.4,2.1s0.5,1.7,0.5,2.6v62.6c0,0.9-0.2,1.8-0.5,2.6s-0.8,1.5-1.4,2.1s-1.3,1.1-2.1,1.4
				s-1.6,0.5-2.5,0.5L158.6,299.5 M340.4,300.2c-0.9,0-1.8-0.2-2.5-0.5s-1.5-0.8-2.1-1.5s-1.1-1.3-1.4-2.1s-0.5-1.7-0.5-2.6v-62.6
				c0-0.9,0.2-1.8,0.5-2.6s0.8-1.5,1.4-2.2s1.3-1.1,2.1-1.5s1.6-0.5,2.5-0.5l173.9-0.6c0.9,0,1.8,0.2,2.6,0.5s1.5,0.9,2.1,1.5
				s1.1,1.4,1.4,2.2s0.5,1.7,0.5,2.7v63.8c0,1-0.2,1.9-0.5,2.7s-0.8,1.6-1.4,2.2s-1.3,1.1-2.1,1.5s-1.7,0.5-2.6,0.5L340.4,300.2
				 M539.9,211.2L9.7,215v94.2l530.2,3.8V211.2"/>
			<path class="st3" d="M367.3,266.8h1.5h3.2c0.2,0,0.3,0,0.5,0.1s0.3,0.2,0.4,0.3s0.2,0.3,0.3,0.4s0.1,0.3,0.1,0.5v15.2
				c0,0.2,0,0.4-0.1,0.5s-0.2,0.3-0.3,0.4s-0.2,0.2-0.4,0.3s-0.3,0.1-0.5,0.1h-1.9v0.7c0,0.2,0,0.4-0.1,0.5s-0.2,0.3-0.3,0.4
				s-0.2,0.2-0.4,0.3s-0.3,0.1-0.5,0.1H368v1c0,0.2,0,0.4-0.1,0.5s-0.2,0.3-0.3,0.4s-0.2,0.2-0.4,0.3s-0.3,0.1-0.5,0.1H359
				c-0.2,0-0.3,0-0.5-0.1s-0.3-0.2-0.4-0.3s-0.2-0.3-0.3-0.4s-0.1-0.3-0.1-0.5v-1H357c-0.2,0-0.4,0-0.5-0.1s-0.3-0.2-0.4-0.3
				s-0.2-0.3-0.3-0.4s-0.1-0.3-0.1-0.5v-0.7h-1.9c-0.2,0-0.3,0-0.5-0.1s-0.3-0.2-0.4-0.3s-0.2-0.3-0.3-0.4s-0.1-0.3-0.1-0.5v-15.2
				c0-0.2,0-0.4,0.1-0.5s0.2-0.3,0.3-0.4s0.2-0.2,0.4-0.3s0.3-0.1,0.5-0.1h3.1h0.7h0.8h3.6h0.8h3.6H367.3 M409.7,266.9h1.5h3.2
				c0.2,0,0.4,0,0.5,0.1s0.3,0.2,0.4,0.3s0.2,0.3,0.3,0.4s0.1,0.3,0.1,0.5v15.3c0,0.2,0,0.4-0.1,0.5s-0.2,0.3-0.3,0.4
				s-0.3,0.2-0.4,0.3s-0.3,0.1-0.5,0.1h-1.9v0.7c0,0.2,0,0.4-0.1,0.5s-0.2,0.3-0.3,0.4s-0.3,0.2-0.4,0.3s-0.3,0.1-0.5,0.1h-0.7v1
				c0,0.2,0,0.4-0.1,0.5s-0.2,0.3-0.3,0.4s-0.3,0.2-0.4,0.3s-0.3,0.1-0.5,0.1h-7.8c-0.2,0-0.4,0-0.5-0.1s-0.3-0.2-0.4-0.3
				s-0.2-0.3-0.3-0.4s-0.1-0.3-0.1-0.5v-1h-0.7c-0.2,0-0.4,0-0.5-0.1s-0.3-0.2-0.4-0.3s-0.2-0.3-0.3-0.4s-0.1-0.3-0.1-0.5v-0.7h-1.9
				c-0.2,0-0.3,0-0.5-0.1s-0.3-0.2-0.4-0.3s-0.2-0.3-0.3-0.4s-0.1-0.3-0.1-0.5v-15.2c0-0.2,0-0.4,0.1-0.5s0.2-0.3,0.3-0.4
				s0.2-0.2,0.4-0.3s0.3-0.1,0.5-0.1h3.2h0.7h0.8h3.6h0.8h3.6L409.7,266.9 M452.6,266.9h1.5h3.2c0.2,0,0.4,0,0.5,0.1
				s0.3,0.2,0.4,0.3s0.2,0.3,0.3,0.4s0.1,0.3,0.1,0.5v15.3c0,0.2,0,0.4-0.1,0.5s-0.2,0.3-0.3,0.4s-0.3,0.2-0.4,0.3s-0.3,0.1-0.5,0.1
				h-1.9v0.7c0,0.2,0,0.4-0.1,0.5s-0.2,0.3-0.3,0.4s-0.3,0.2-0.4,0.3s-0.3,0.1-0.5,0.1h-0.8v1c0,0.2,0,0.4-0.1,0.5s-0.2,0.3-0.3,0.4
				s-0.3,0.2-0.4,0.3s-0.3,0.1-0.5,0.1h-7.9c-0.2,0-0.4,0-0.5-0.1s-0.3-0.2-0.4-0.3s-0.2-0.3-0.3-0.4s-0.1-0.3-0.1-0.5v-1H442
				c-0.2,0-0.4,0-0.5-0.1s-0.3-0.2-0.4-0.3s-0.2-0.3-0.3-0.4s-0.1-0.3-0.1-0.5v-0.7h-1.9c-0.2,0-0.4,0-0.5-0.1s-0.3-0.2-0.4-0.3
				s-0.2-0.3-0.3-0.4s-0.1-0.3-0.1-0.5v-15.3c0-0.2,0-0.4,0.1-0.5s0.2-0.3,0.3-0.4s0.3-0.2,0.4-0.3s0.3-0.1,0.5-0.1h3.2h0.7h0.8h3.7
				h0.8h3.7H452.6 M495.8,266.8h1.5h3.2c0.2,0,0.4,0,0.5,0.1s0.3,0.2,0.4,0.3s0.2,0.3,0.3,0.4s0.1,0.3,0.1,0.5v15.4
				c0,0.2,0,0.4-0.1,0.5s-0.2,0.3-0.3,0.4s-0.3,0.2-0.4,0.3s-0.3,0.1-0.5,0.1h-1.9v0.7c0,0.2,0,0.4-0.1,0.5s-0.2,0.3-0.3,0.4
				s-0.3,0.2-0.4,0.3s-0.3,0.1-0.5,0.1h-0.8v1.1c0,0.2,0,0.4-0.1,0.5s-0.2,0.3-0.3,0.4s-0.3,0.2-0.4,0.3s-0.3,0.1-0.5,0.1h-7.9
				c-0.2,0-0.4,0-0.5-0.1s-0.3-0.2-0.4-0.3s-0.2-0.3-0.3-0.4s-0.1-0.3-0.1-0.5v-1.1h-0.8c-0.2,0-0.4,0-0.5-0.1s-0.3-0.2-0.4-0.3
				s-0.2-0.3-0.3-0.4s-0.1-0.3-0.1-0.5v-0.6H482c-0.2,0-0.4,0-0.5-0.1s-0.3-0.2-0.4-0.3s-0.2-0.3-0.3-0.4s-0.1-0.3-0.1-0.5v-15.4
				c0-0.2,0-0.4,0.1-0.5s0.2-0.3,0.3-0.4s0.3-0.2,0.4-0.3s0.3-0.1,0.5-0.1h3.2h0.7h0.8h3.7h0.8h3.7L495.8,266.8 M353.8,257.4
				c-0.2,0-0.3,0-0.5-0.1s-0.3-0.2-0.4-0.3s-0.2-0.3-0.3-0.4s-0.1-0.3-0.1-0.5v-15.2c0-0.2,0-0.4,0.1-0.5s0.2-0.3,0.3-0.4
				s0.2-0.2,0.4-0.3s0.3-0.1,0.5-0.1h1.9v-0.7c0-0.2,0-0.4,0.1-0.5s0.2-0.3,0.3-0.4s0.2-0.2,0.4-0.3s0.3-0.1,0.5-0.1h0.7v-1
				c0-0.2,0-0.4,0.1-0.5s0.2-0.3,0.3-0.4s0.2-0.2,0.4-0.3s0.3-0.1,0.5-0.1h7.7c0.2,0,0.4,0,0.5,0.1s0.3,0.2,0.4,0.3s0.2,0.3,0.3,0.4
				s0.1,0.3,0.1,0.5v1h0.7c0.2,0,0.4,0,0.5,0.1s0.3,0.2,0.4,0.3s0.2,0.3,0.3,0.4s0.1,0.3,0.1,0.5v0.7h1.9c0.2,0,0.3,0,0.5,0.1
				s0.3,0.2,0.4,0.3s0.2,0.3,0.3,0.4s0.1,0.3,0.1,0.5v15.2c0,0.2,0,0.4-0.1,0.5s-0.2,0.3-0.3,0.4s-0.2,0.2-0.4,0.3s-0.3,0.1-0.5,0.1
				h-3.2H357H353.8 M396.2,257.4c-0.2,0-0.3,0-0.5-0.1s-0.3-0.2-0.4-0.3s-0.2-0.3-0.3-0.4s-0.1-0.3-0.1-0.5v-15.2
				c0-0.2,0-0.4,0.1-0.5s0.2-0.3,0.3-0.4s0.2-0.2,0.4-0.3s0.3-0.1,0.5-0.1h1.9v-0.7c0-0.2,0-0.4,0.1-0.5s0.2-0.3,0.3-0.4
				s0.3-0.2,0.4-0.3s0.3-0.1,0.5-0.1h0.7v-1c0-0.2,0-0.4,0.1-0.5s0.2-0.3,0.3-0.4s0.3-0.2,0.4-0.3s0.3-0.1,0.5-0.1h7.8
				c0.2,0,0.4,0,0.5,0.1s0.3,0.2,0.4,0.3s0.2,0.3,0.3,0.4s0.1,0.3,0.1,0.5v1h0.7c0.2,0,0.4,0,0.5,0.1s0.3,0.2,0.4,0.3
				s0.2,0.3,0.3,0.4s0.1,0.3,0.1,0.5v0.7h1.9c0.2,0,0.4,0,0.5,0.1s0.3,0.2,0.4,0.3s0.2,0.3,0.3,0.4s0.1,0.3,0.1,0.5v15.3
				c0,0.2,0,0.4-0.1,0.5s-0.2,0.3-0.3,0.4s-0.3,0.2-0.4,0.3s-0.3,0.1-0.5,0.1h-3.2h-11.9L396.2,257.4 M438.9,257.3
				c-0.2,0-0.4,0-0.5-0.1s-0.3-0.2-0.4-0.3s-0.2-0.3-0.3-0.4s-0.1-0.3-0.1-0.5v-15.3c0-0.2,0-0.4,0.1-0.5s0.2-0.3,0.3-0.4
				s0.3-0.2,0.4-0.3s0.3-0.1,0.5-0.1h1.9v-0.8c0-0.2,0-0.4,0.1-0.5s0.2-0.3,0.3-0.4s0.3-0.2,0.4-0.3s0.3-0.1,0.5-0.1h0.8v-1
				c0-0.2,0-0.4,0.1-0.5s0.2-0.3,0.3-0.4s0.3-0.2,0.4-0.3s0.3-0.1,0.5-0.1h7.9c0.2,0,0.4,0,0.5,0.1s0.3,0.2,0.4,0.3s0.2,0.3,0.3,0.4
				s0.1,0.3,0.1,0.5v1h0.8c0.2,0,0.4,0,0.5,0.1s0.3,0.2,0.4,0.3s0.2,0.3,0.3,0.4s0.1,0.3,0.1,0.5v0.7h1.9c0.2,0,0.4,0,0.5,0.1
				s0.3,0.2,0.4,0.3s0.2,0.3,0.3,0.4s0.1,0.3,0.1,0.5v15.3c0,0.2,0,0.4-0.1,0.5s-0.2,0.3-0.3,0.4s-0.3,0.2-0.4,0.3s-0.3,0.1-0.5,0.1
				h-3.2h-12L438.9,257.3 M482,257.3c-0.2,0-0.4,0-0.5-0.1s-0.3-0.2-0.4-0.3s-0.2-0.3-0.3-0.4s-0.1-0.3-0.1-0.5v-15.4
				c0-0.2,0-0.4,0.1-0.5s0.2-0.3,0.3-0.4s0.3-0.2,0.4-0.3s0.3-0.1,0.5-0.1h1.9v-0.8c0-0.2,0-0.4,0.1-0.5s0.2-0.3,0.3-0.4
				s0.3-0.2,0.4-0.3s0.3-0.1,0.5-0.1h0.8v-1.1c0-0.2,0-0.4,0.1-0.5s0.2-0.3,0.3-0.4s0.3-0.2,0.4-0.3s0.3-0.1,0.5-0.1h7.9
				c0.2,0,0.4,0,0.5,0.1s0.3,0.2,0.4,0.3s0.2,0.3,0.3,0.4s0.1,0.3,0.1,0.5v1.1h0.8c0.2,0,0.4,0,0.5,0.1s0.3,0.2,0.4,0.3
				s0.2,0.3,0.3,0.4s0.1,0.3,0.1,0.5v0.8h1.9c0.2,0,0.4,0,0.5,0.1s0.3,0.2,0.4,0.3s0.2,0.3,0.3,0.4s0.1,0.3,0.1,0.5v15.3
				c0,0.2,0,0.4-0.1,0.5s-0.2,0.3-0.3,0.4s-0.3,0.2-0.4,0.3s-0.3,0.1-0.5,0.1h-3.2h-12.1L482,257.3 M514.3,223.3l-173.8,0.6
				c-0.9,0-1.8,0.2-2.5,0.5s-1.5,0.8-2.1,1.5s-1.1,1.3-1.4,2.2s-0.5,1.7-0.5,2.6v62.6c0,0.9,0.2,1.8,0.5,2.6s0.8,1.5,1.4,2.1
				s1.3,1.1,2.1,1.5s1.6,0.5,2.5,0.5l173.9,0.6c0.9,0,1.8-0.2,2.6-0.5s1.5-0.9,2.1-1.5s1.1-1.4,1.4-2.2s0.5-1.7,0.5-2.7v-63.8
				c0-1-0.2-1.9-0.5-2.7s-0.8-1.6-1.4-2.2s-1.3-1.1-2.1-1.5S515.2,223.3,514.3,223.3"/>
			<path class="st4" d="M486,257.4v-5.9c0-0.1,0-0.1,0-0.2s0-0.1,0.1-0.1s0.1-0.1,0.1-0.1h0.1c0,0,0.1,0,0.2,0s0.1,0,0.1,0.1
				s0.1,0.1,0.1,0.1s0,0.1,0,0.2v5.9H486 M490.5,257.4v-5.9c0-0.1,0-0.1,0-0.2s0-0.1,0.1-0.1s0.1-0.1,0.1-0.1s0.1,0,0.2,0
				s0.1,0,0.2,0s0.1,0,0.1,0.1s0.1,0.1,0.1,0.1s0,0.1,0,0.2v5.9H490.5 M495,257.4v-5.9c0-0.1,0-0.1,0-0.2s0-0.1,0.1-0.1
				s0.1-0.1,0.1-0.1s0.1,0,0.2,0s0.1,0,0.1,0s0.1,0,0.1,0.1s0.1,0.1,0.1,0.1s0,0.1,0,0.2v5.9H495 M495.3,234.8h-7.9
				c-0.2,0-0.4,0-0.5,0.1s-0.3,0.2-0.4,0.3s-0.2,0.3-0.3,0.4s-0.1,0.3-0.1,0.5v1.1h-0.8c-0.2,0-0.4,0-0.5,0.1s-0.3,0.2-0.4,0.3
				s-0.2,0.3-0.3,0.4s-0.1,0.3-0.1,0.5v0.8h-1.9c-0.2,0-0.4,0-0.5,0.1s-0.3,0.2-0.4,0.3s-0.2,0.3-0.3,0.4s-0.1,0.3-0.1,0.5V256
				c0,0.2,0,0.4,0.1,0.5s0.2,0.3,0.3,0.4s0.3,0.2,0.4,0.3s0.3,0.1,0.5,0.1h3.2h12.1h3.2c0.2,0,0.4,0,0.5-0.1s0.3-0.2,0.4-0.3
				s0.2-0.3,0.3-0.4s0.1-0.3,0.1-0.5v-15.4c0-0.2,0-0.4-0.1-0.5s-0.2-0.3-0.3-0.4s-0.3-0.2-0.4-0.3s-0.3-0.1-0.5-0.1h-1.9v-0.7
				c0-0.2,0-0.4-0.1-0.5s-0.2-0.3-0.3-0.4s-0.3-0.2-0.4-0.3s-0.3-0.1-0.5-0.1h-0.8v-1.1c0-0.2,0-0.4-0.1-0.5s-0.2-0.3-0.3-0.4
				s-0.3-0.2-0.4-0.3S495.5,234.8,495.3,234.8"/>
			<g>
				<g>
					<g>
						<defs>
							<path id="SVGID_1_" d="M500.5,257.4h-3.2h-12.1H482c-0.2,0-0.4,0-0.5-0.1s-0.3-0.2-0.4-0.3s-0.2-0.3-0.3-0.4
								s-0.1-0.3-0.1-0.5v-15.4c0-0.2,0-0.4,0.1-0.5s0.2-0.3,0.3-0.4s0.3-0.2,0.4-0.3s0.3-0.1,0.5-0.1h1.9v-0.8c0-0.2,0-0.4,0.1-0.5
								s0.2-0.3,0.3-0.4s0.3-0.2,0.4-0.3s0.3-0.1,0.5-0.1h0.8v-1.1c0-0.2,0-0.4,0.1-0.5s0.2-0.3,0.3-0.4s0.3-0.2,0.4-0.3
								s0.3-0.1,0.5-0.1h7.9c0.2,0,0.4,0,0.5,0.1s0.3,0.2,0.4,0.3s0.2,0.3,0.3,0.4s0.1,0.3,0.1,0.5v1.1h0.8c0.2,0,0.4,0,0.5,0.1
								s0.3,0.2,0.4,0.3s0.2,0.3,0.3,0.4s0.1,0.3,0.1,0.5v0.8h1.9c0.2,0,0.4,0,0.5,0.1s0.3,0.2,0.4,0.3s0.2,0.3,0.3,0.4
								s0.1,0.3,0.1,0.5v15.4c0,0.2,0,0.4-0.1,0.5s-0.2,0.3-0.3,0.4s-0.3,0.2-0.4,0.3S500.7,257.4,500.5,257.4"/>
						</defs>
						<clipPath id="SVGID_00000123407991261912756610000007732619766038886305_">
							<use xlink:href="#SVGID_1_"  style="overflow:visible;"/>
						</clipPath>
						<g style="clip-path:url(#SVGID_00000123407991261912756610000007732619766038886305_);">
							<path class="st6" d="M486.4,251.1h-0.1c0,0-0.1,0-0.1,0.1s-0.1,0.1-0.1,0.1s0,0.1,0,0.2v5.9h0.8v-5.9c0-0.1,0-0.1,0-0.2
								s0-0.1-0.1-0.1s-0.1-0.1-0.1-0.1H486.4"/>
							<path class="st6" d="M490.9,251.1c-0.1,0-0.1,0-0.2,0s-0.1,0-0.1,0.1s-0.1,0.1-0.1,0.1s0,0.1,0,0.2v5.9h0.8v-5.9
								c0-0.1,0-0.1,0-0.2s0-0.1-0.1-0.1s-0.1-0.1-0.1-0.1H490.9"/>
							<path class="st6" d="M495.4,251.1c-0.1,0-0.1,0-0.2,0s-0.1,0-0.1,0.1s-0.1,0.1-0.1,0.1s0,0.1,0,0.2v5.9h0.8v-5.9
								c0-0.1,0-0.1,0-0.2s0-0.1-0.1-0.1s-0.1-0.1-0.1-0.1H495.4"/>
						</g>
					</g>
				</g>
			</g>
			<path class="st4" d="M442.9,257.4v-5.8c0-0.1,0-0.1,0-0.2s0-0.1,0.1-0.1s0.1-0.1,0.1-0.1h0.1c0,0,0.1,0,0.2,0s0.1,0,0.1,0.1
				s0.1,0.1,0.1,0.1s0,0.1,0,0.2v5.8H442.9 M447.3,257.4v-5.8c0-0.1,0-0.1,0-0.2s0-0.1,0.1-0.1s0.1-0.1,0.1-0.1s0.1,0,0.2,0
				s0.1,0,0.1,0s0.1,0,0.1,0.1s0.1,0.1,0.1,0.1s0,0.1,0,0.2v5.8H447.3 M451.8,257.4v-5.8c0-0.1,0-0.1,0-0.2s0-0.1,0.1-0.1
				s0.1-0.1,0.1-0.1s0.1,0,0.2,0s0.1,0,0.1,0s0.1,0,0.1,0.1s0.1,0.1,0.1,0.1s0,0.1,0,0.2v5.8H451.8 M452.1,234.9h-7.9
				c-0.2,0-0.4,0-0.5,0.1s-0.3,0.2-0.4,0.3s-0.2,0.3-0.3,0.4s-0.1,0.3-0.1,0.5v1h-0.8c-0.2,0-0.4,0-0.5,0.1s-0.3,0.2-0.4,0.3
				s-0.2,0.3-0.3,0.4s-0.1,0.3-0.1,0.5v0.7h-1.9c-0.2,0-0.4,0-0.5,0.1s-0.3,0.2-0.4,0.3s-0.2,0.3-0.3,0.4s-0.1,0.3-0.1,0.5v15.3
				c0,0.2,0,0.4,0.1,0.5s0.2,0.3,0.3,0.4s0.3,0.2,0.4,0.3s0.3,0.1,0.5,0.1h3.2h12h3.2c0.2,0,0.4,0,0.5-0.1s0.3-0.2,0.4-0.3
				s0.2-0.3,0.3-0.4s0.1-0.3,0.1-0.5v-15.3c0-0.2,0-0.4-0.1-0.5s-0.2-0.3-0.3-0.4s-0.3-0.2-0.4-0.3s-0.3-0.1-0.5-0.1h-1.9v-0.7
				c0-0.2,0-0.4-0.1-0.5s-0.2-0.3-0.3-0.4s-0.3-0.2-0.4-0.3s-0.3-0.1-0.5-0.1h-0.8v-1c0-0.2,0-0.4-0.1-0.5s-0.2-0.3-0.3-0.4
				s-0.3-0.2-0.4-0.3S452.2,234.9,452.1,234.9"/>
			<g>
				<g>
					<g>
						<defs>
							<path id="SVGID_00000099654025498600834500000014678150497908015037_" d="M457.3,257.4h-3.2h-12H439c-0.2,0-0.4,0-0.5-0.1
								s-0.3-0.2-0.4-0.3s-0.2-0.3-0.3-0.4s-0.1-0.3-0.1-0.5v-15.3c0-0.2,0-0.4,0.1-0.5s0.2-0.3,0.3-0.4s0.3-0.2,0.4-0.3
								s0.3-0.1,0.5-0.1h1.9v-0.8c0-0.2,0-0.4,0.1-0.5s0.2-0.3,0.3-0.4s0.3-0.2,0.4-0.3s0.3-0.1,0.5-0.1h0.8v-1c0-0.2,0-0.4,0.1-0.5
								s0.2-0.3,0.3-0.4s0.3-0.2,0.4-0.3s0.3-0.1,0.5-0.1h7.9c0.2,0,0.4,0,0.5,0.1s0.3,0.2,0.4,0.3s0.2,0.3,0.3,0.4s0.1,0.3,0.1,0.5
								v1h0.8c0.2,0,0.4,0,0.5,0.1s0.3,0.2,0.4,0.3s0.2,0.3,0.3,0.4s0.1,0.3,0.1,0.5v0.7h1.9c0.2,0,0.4,0,0.5,0.1s0.3,0.2,0.4,0.3
								s0.2,0.3,0.3,0.4s0.1,0.3,0.1,0.5V256c0,0.2,0,0.4-0.1,0.5s-0.2,0.3-0.3,0.4s-0.3,0.2-0.4,0.3S457.5,257.4,457.3,257.4"/>
						</defs>
						<clipPath id="SVGID_00000124865091300877396610000018421005897650344367_">
							<use xlink:href="#SVGID_00000099654025498600834500000014678150497908015037_"  style="overflow:visible;"/>
						</clipPath>
						<g style="clip-path:url(#SVGID_00000124865091300877396610000018421005897650344367_);">
							<path class="st6" d="M443.3,251.2h-0.1c0,0-0.1,0-0.1,0.1s-0.1,0.1-0.1,0.1s0,0.1,0,0.2v5.8h0.8v-5.8c0-0.1,0-0.1,0-0.2
								s0-0.1-0.1-0.1s-0.1-0.1-0.1-0.1H443.3"/>
							<path class="st6" d="M447.7,251.2c-0.1,0-0.1,0-0.2,0s-0.1,0-0.1,0.1s-0.1,0.1-0.1,0.1s0,0.1,0,0.2v5.8h0.8v-5.8
								c0-0.1,0-0.1,0-0.2s0-0.1-0.1-0.1s-0.1-0.1-0.1-0.1S447.8,251.2,447.7,251.2"/>
							<path class="st6" d="M452.2,251.2c-0.1,0-0.1,0-0.2,0s-0.1,0-0.1,0.1s-0.1,0.1-0.1,0.1s0,0.1,0,0.2v5.8h0.8v-5.8
								c0-0.1,0-0.1,0-0.2s0-0.1-0.1-0.1s-0.1-0.1-0.1-0.1H452.2"/>
						</g>
					</g>
				</g>
			</g>
			<path class="st4" d="M400.1,257.4v-5.8c0-0.1,0-0.1,0-0.2s0-0.1,0.1-0.1s0.1-0.1,0.1-0.1h0.1h0.1c0,0,0.1,0,0.1,0.1
				s0.1,0.1,0.1,0.1s0,0.1,0,0.2v5.8H400.1 M404.5,257.4v-5.8c0-0.1,0-0.1,0-0.2s0-0.1,0.1-0.1s0.1-0.1,0.1-0.1h0.1h0.1
				c0,0,0.1,0,0.1,0.1s0.1,0.1,0.1,0.1s0,0.1,0,0.2v5.8H404.5 M408.9,257.4v-5.8c0-0.1,0-0.1,0-0.2s0-0.1,0.1-0.1s0.1-0.1,0.1-0.1
				h0.1h0.1c0,0,0.1,0,0.1,0.1s0.1,0.1,0.1,0.1s0,0.1,0,0.2v5.8H408.9 M409.2,235h-7.8c-0.2,0-0.4,0-0.5,0.1s-0.3,0.2-0.4,0.3
				s-0.2,0.3-0.3,0.4s-0.1,0.3-0.1,0.5v1h-0.7c-0.2,0-0.4,0-0.5,0.1s-0.3,0.2-0.4,0.3s-0.2,0.3-0.3,0.4s-0.1,0.3-0.1,0.5v0.7h-1.9
				c-0.2,0-0.3,0-0.5,0.1s-0.3,0.2-0.4,0.3s-0.2,0.3-0.3,0.4s-0.1,0.3-0.1,0.5v15.2c0,0.2,0,0.4,0.1,0.5s0.2,0.3,0.3,0.4
				s0.2,0.2,0.4,0.3s0.3,0.1,0.5,0.1h3.2h11.9h3.2c0.2,0,0.4,0,0.5-0.1s0.3-0.2,0.4-0.3s0.2-0.3,0.3-0.4s0.1-0.3,0.1-0.5v-15.3
				c0-0.2,0-0.4-0.1-0.5s-0.2-0.3-0.3-0.4s-0.3-0.2-0.4-0.3s-0.3-0.1-0.5-0.1h-1.9v-0.7c0-0.2,0-0.4-0.1-0.5s-0.2-0.3-0.3-0.4
				s-0.3-0.2-0.4-0.3s-0.3-0.1-0.5-0.1h-0.7v-1c0-0.2,0-0.4-0.1-0.5s-0.2-0.3-0.3-0.4s-0.3-0.2-0.4-0.3S409.4,235,409.2,235"/>
			<g>
				<g>
					<g>
						<defs>
							<path id="SVGID_00000152955867535252602820000006156499664141254808_" d="M414.5,257.4h-3.2h-11.9h-3.2c-0.2,0-0.3,0-0.5-0.1
								s-0.3-0.2-0.4-0.3s-0.2-0.3-0.3-0.4s-0.1-0.3-0.1-0.5v-15.2c0-0.2,0-0.4,0.1-0.5s0.2-0.3,0.3-0.4s0.2-0.2,0.4-0.3
								s0.3-0.1,0.5-0.1h1.9v-0.7c0-0.2,0-0.4,0.1-0.5s0.2-0.3,0.3-0.4s0.3-0.2,0.4-0.3s0.3-0.1,0.5-0.1h0.7v-1c0-0.2,0-0.4,0.1-0.5
								s0.2-0.3,0.3-0.4s0.3-0.2,0.4-0.3s0.3-0.1,0.5-0.1h7.8c0.2,0,0.4,0,0.5,0.1s0.3,0.2,0.4,0.3s0.2,0.3,0.3,0.4s0.1,0.3,0.1,0.5
								v1h0.7c0.2,0,0.4,0,0.5,0.1s0.3,0.2,0.4,0.3s0.2,0.3,0.3,0.4s0.1,0.3,0.1,0.5v0.7h1.9c0.2,0,0.4,0,0.5,0.1s0.3,0.2,0.4,0.3
								s0.2,0.3,0.3,0.4s0.1,0.3,0.1,0.5v15.3c0,0.2,0,0.4-0.1,0.5s-0.2,0.3-0.3,0.4s-0.3,0.2-0.4,0.3S414.6,257.4,414.5,257.4"/>
						</defs>
						<clipPath id="SVGID_00000007422427850257867750000015785930473684456632_">
							<use xlink:href="#SVGID_00000152955867535252602820000006156499664141254808_"  style="overflow:visible;"/>
						</clipPath>
						<g style="clip-path:url(#SVGID_00000007422427850257867750000015785930473684456632_);">
							<path class="st6" d="M400.5,251.2h-0.1c0,0-0.1,0-0.1,0.1s-0.1,0.1-0.1,0.1s0,0.1,0,0.2v5.8h0.8v-5.8c0-0.1,0-0.1,0-0.2
								s0-0.1-0.1-0.1s-0.1-0.1-0.1-0.1S400.6,251.2,400.5,251.2"/>
							<path class="st6" d="M404.9,251.2h-0.1c0,0-0.1,0-0.1,0.1s-0.1,0.1-0.1,0.1s0,0.1,0,0.2v5.8h0.8v-5.8c0-0.1,0-0.1,0-0.2
								s0-0.1-0.1-0.1s-0.1-0.1-0.1-0.1S405,251.2,404.9,251.2"/>
							<path class="st6" d="M409.4,251.2h-0.1c0,0-0.1,0-0.1,0.1s-0.1,0.1-0.1,0.1s0,0.1,0,0.2v5.8h0.8v-5.8c0-0.1,0-0.1,0-0.2
								s0-0.1-0.1-0.1s-0.1-0.1-0.1-0.1H409.4"/>
						</g>
					</g>
				</g>
			</g>
			<path class="st4" d="M357.7,257.4v-5.8c0-0.1,0-0.1,0-0.2s0-0.1,0.1-0.1s0.1-0.1,0.1-0.1h0.1h0.1c0,0,0.1,0,0.1,0.1
				s0.1,0.1,0.1,0.1s0,0.1,0,0.2v5.8H357.7 M362.1,257.4v-5.8c0-0.1,0-0.1,0-0.2s0-0.1,0.1-0.1s0.1-0.1,0.1-0.1h0.1h0.1
				c0,0,0.1,0,0.1,0.1s0.1,0.1,0.1,0.1s0,0.1,0,0.2v5.8H362.1 M366.4,257.4v-5.8c0-0.1,0-0.1,0-0.2s0-0.1,0.1-0.1s0.1-0.1,0.1-0.1
				h0.1h0.1c0,0,0.1,0,0.1,0.1s0.1,0.1,0.1,0.1s0,0.1,0,0.2v5.8H366.4 M366.7,235.1H359c-0.2,0-0.3,0-0.5,0.1s-0.3,0.2-0.4,0.3
				s-0.2,0.3-0.3,0.4s-0.1,0.3-0.1,0.5v1H357c-0.2,0-0.4,0-0.5,0.1s-0.3,0.2-0.4,0.3s-0.2,0.3-0.3,0.4s-0.1,0.3-0.1,0.5v0.7h-1.9
				c-0.2,0-0.3,0-0.5,0.1s-0.3,0.2-0.4,0.3s-0.2,0.3-0.3,0.4s-0.1,0.3-0.1,0.5v15.2c0,0.2,0,0.4,0.1,0.5s0.2,0.3,0.3,0.4
				s0.2,0.2,0.4,0.3s0.3,0.1,0.5,0.1h3.1h11.8h3.2c0.2,0,0.3,0,0.5-0.1s0.3-0.2,0.4-0.3s0.2-0.3,0.3-0.4s0.1-0.3,0.1-0.5v-15
				c0-0.2,0-0.4-0.1-0.5s-0.2-0.3-0.3-0.4s-0.2-0.2-0.4-0.3s-0.3-0.1-0.5-0.1H370v-0.7c0-0.2,0-0.4-0.1-0.5s-0.2-0.3-0.3-0.4
				s-0.2-0.2-0.4-0.3s-0.3-0.1-0.5-0.1H368v-1c0-0.2,0-0.4-0.1-0.5s-0.2-0.3-0.3-0.4s-0.2-0.2-0.4-0.3S366.9,235.1,366.7,235.1"/>
			<g>
				<g>
					<g>
						<defs>
							<path id="SVGID_00000124152980240995008570000002122215410254894988_" d="M371.9,257.4h-3.2H357h-3.1c-0.2,0-0.3,0-0.5-0.1
								s-0.3-0.2-0.4-0.3s-0.2-0.3-0.3-0.4s-0.1-0.3-0.1-0.5v-15.2c0-0.2,0-0.4,0.1-0.5s0.2-0.3,0.3-0.4s0.2-0.2,0.4-0.3
								s0.3-0.1,0.5-0.1h1.9v-0.7c0-0.2,0-0.4,0.1-0.5s0.2-0.3,0.3-0.4s0.2-0.2,0.4-0.3s0.3-0.1,0.5-0.1h0.7v-1c0-0.2,0-0.4,0.1-0.5
								s0.2-0.3,0.3-0.4s0.2-0.2,0.4-0.3s0.3-0.1,0.5-0.1h7.7c0.2,0,0.4,0,0.5,0.1s0.3,0.2,0.4,0.3s0.2,0.3,0.3,0.4s0.1,0.3,0.1,0.5
								v1h0.7c0.2,0,0.4,0,0.5,0.1s0.3,0.2,0.4,0.3s0.2,0.3,0.3,0.4s0.1,0.3,0.1,0.5v0.7h1.9c0.2,0,0.3,0,0.5,0.1s0.3,0.2,0.4,0.3
								s0.2,0.3,0.3,0.4s0.1,0.3,0.1,0.5v15.2c0,0.2,0,0.4-0.1,0.5s-0.2,0.3-0.3,0.4s-0.2,0.2-0.4,0.3S372.1,257.4,371.9,257.4"/>
						</defs>
						<clipPath id="SVGID_00000160877460912208519500000001412160732296173992_">
							<use xlink:href="#SVGID_00000124152980240995008570000002122215410254894988_"  style="overflow:visible;"/>
						</clipPath>
						<g style="clip-path:url(#SVGID_00000160877460912208519500000001412160732296173992_);">
							<path class="st6" d="M358.1,251.3H358c0,0-0.1,0-0.1,0.1s-0.1,0.1-0.1,0.1s0,0.1,0,0.2v5.8h0.8v-5.8c0-0.1,0-0.1,0-0.2
								s0-0.1-0.1-0.1s-0.1-0.1-0.1-0.1S358.2,251.3,358.1,251.3"/>
							<path class="st6" d="M362.5,251.3h-0.1c0,0-0.1,0-0.1,0.1s-0.1,0.1-0.1,0.1s0,0.1,0,0.2v5.8h0.8v-5.8c0-0.1,0-0.1,0-0.2
								s0-0.1-0.1-0.1s-0.1-0.1-0.1-0.1S362.6,251.3,362.5,251.3"/>
							<path class="st6" d="M366.9,251.3h-0.1c0,0-0.1,0-0.1,0.1s-0.1,0.1-0.1,0.1s0,0.1,0,0.2v5.8h0.8v-5.8c0-0.1,0-0.1,0-0.2
								s0-0.1-0.1-0.1s-0.1-0.1-0.1-0.1H366.9"/>
						</g>
					</g>
				</g>
			</g>
			<path class="st4" d="M500.5,266.9h-3.2h-1.5v5.9c0,0.1,0,0.1,0,0.2s0,0.1-0.1,0.1s-0.1,0.1-0.1,0.1h-0.1c0,0-0.1,0-0.2,0
				s-0.1,0-0.1-0.1s-0.1-0.1-0.1-0.1s0-0.1,0-0.2v-5.9h-3.7v5.9c0,0.1,0,0.1,0,0.2s0,0.1-0.1,0.1s-0.1,0.1-0.1,0.1s-0.1,0-0.2,0
				s-0.1,0-0.2,0s-0.1,0-0.1-0.1s-0.1-0.1-0.1-0.1s0-0.1,0-0.2v-5.9h-3.7v5.9c0,0.1,0,0.1,0,0.2s0,0.1-0.1,0.1s-0.1,0.1-0.1,0.1
				s-0.1,0-0.2,0s-0.1,0-0.1,0s-0.1,0-0.1-0.1s-0.1-0.1-0.1-0.1s0-0.1,0-0.2v-5.9h-0.7H482c-0.2,0-0.4,0-0.5,0.1s-0.3,0.2-0.4,0.3
				s-0.2,0.3-0.3,0.4s-0.1,0.3-0.1,0.5v15.4c0,0.2,0,0.4,0.1,0.5s0.2,0.3,0.3,0.4s0.3,0.2,0.4,0.3s0.3,0.1,0.5,0.1h1.9v0.8
				c0,0.2,0,0.4,0.1,0.5s0.2,0.3,0.3,0.4s0.3,0.2,0.4,0.3s0.3,0.1,0.5,0.1h0.8v1.1c0,0.2,0,0.4,0.1,0.5s0.2,0.3,0.3,0.4
				s0.3,0.2,0.4,0.3s0.3,0.1,0.5,0.1h7.9c0.2,0,0.4,0,0.5-0.1s0.3-0.2,0.4-0.3s0.2-0.3,0.3-0.4s0.1-0.3,0.1-0.5V287h0.8
				c0.2,0,0.4,0,0.5-0.1s0.3-0.2,0.4-0.3s0.2-0.3,0.3-0.4s0.1-0.3,0.1-0.5v-0.8h1.9c0.2,0,0.4,0,0.5-0.1s0.3-0.2,0.4-0.3
				s0.2-0.3,0.3-0.4s0.1-0.3,0.1-0.5v-15.4c0-0.2,0-0.4-0.1-0.5s-0.2-0.3-0.3-0.4s-0.3-0.2-0.4-0.3S500.7,266.9,500.5,266.9"/>
			<g>
				<g>
					<g>
						<defs>
							<path id="SVGID_00000049193223500113998760000015097117104303313290_" d="M500.5,266.9h-3.2h-12.1H482c-0.2,0-0.4,0-0.5,0.1
								s-0.3,0.2-0.4,0.3s-0.2,0.3-0.3,0.4s-0.1,0.3-0.1,0.5v15.4c0,0.2,0,0.4,0.1,0.5s0.2,0.3,0.3,0.4s0.3,0.2,0.4,0.3
								s0.3,0.1,0.5,0.1h1.9v0.8c0,0.2,0,0.4,0.1,0.5s0.2,0.3,0.3,0.4s0.3,0.2,0.4,0.3s0.3,0.1,0.5,0.1h0.8v1.1c0,0.2,0,0.4,0.1,0.5
								s0.2,0.3,0.3,0.4s0.3,0.2,0.4,0.3s0.3,0.1,0.5,0.1h7.9c0.2,0,0.4,0,0.5-0.1s0.3-0.2,0.4-0.3s0.2-0.3,0.3-0.4s0.1-0.3,0.1-0.5
								V287h0.8c0.2,0,0.4,0,0.5-0.1s0.3-0.2,0.4-0.3s0.2-0.3,0.3-0.4s0.1-0.3,0.1-0.5v-0.8h1.9c0.2,0,0.4,0,0.5-0.1
								s0.3-0.2,0.4-0.3s0.2-0.3,0.3-0.4s0.1-0.3,0.1-0.5v-15.4c0-0.2,0-0.4-0.1-0.5s-0.2-0.3-0.3-0.4s-0.3-0.2-0.4-0.3
								S500.7,266.9,500.5,266.9"/>
						</defs>
						<clipPath id="SVGID_00000013180138905037762050000010726389182058493065_">
							<use xlink:href="#SVGID_00000049193223500113998760000015097117104303313290_"  style="overflow:visible;"/>
						</clipPath>
						<g style="clip-path:url(#SVGID_00000013180138905037762050000010726389182058493065_);">
							<path class="st6" d="M486.8,266.9H486v5.9c0,0.1,0,0.1,0,0.2s0,0.1,0.1,0.1s0.1,0.1,0.1,0.1h0.1c0,0,0.1,0,0.2,0
								s0.1,0,0.1-0.1s0.1-0.1,0.1-0.1s0-0.1,0-0.2L486.8,266.9"/>
							<path class="st6" d="M491.3,266.9h-0.8v5.9c0,0.1,0,0.1,0,0.2s0,0.1,0.1,0.1s0.1,0.1,0.1,0.1s0.1,0,0.2,0s0.1,0,0.2,0
								s0.1,0,0.1-0.1s0.1-0.1,0.1-0.1s0-0.1,0-0.2L491.3,266.9"/>
							<path class="st6" d="M495.8,266.9H495v5.9c0,0.1,0,0.1,0,0.2s0,0.1,0.1,0.1s0.1,0.1,0.1,0.1s0.1,0,0.2,0s0.1,0,0.1,0
								s0.1,0,0.1-0.1s0.1-0.1,0.1-0.1s0-0.1,0-0.2L495.8,266.9"/>
						</g>
					</g>
				</g>
			</g>
			<path class="st4" d="M457.3,266.9h-3.2h-1.5v5.8c0,0.1,0,0.1,0,0.2s0,0.1-0.1,0.1s-0.1,0.1-0.1,0.1h-0.1c0,0-0.1,0-0.2,0
				s-0.1,0-0.1-0.1s-0.1-0.1-0.1-0.1s0-0.1,0-0.2v-5.8h-3.7v5.8c0,0.1,0,0.1,0,0.2s0,0.1-0.1,0.1s-0.1,0.1-0.1,0.1h-0.1
				c0,0-0.1,0-0.2,0s-0.1,0-0.1-0.1s-0.1-0.1-0.1-0.1s0-0.1,0-0.2v-5.8h-3.7v5.8c0,0.1,0,0.1,0,0.2s0,0.1-0.1,0.1s-0.1,0.1-0.1,0.1
				s-0.1,0-0.2,0s-0.1,0-0.1,0s-0.1,0-0.1-0.1s-0.1-0.1-0.1-0.1s0-0.1,0-0.2v-5.8h-0.7H439c-0.2,0-0.4,0-0.5,0.1s-0.3,0.2-0.4,0.3
				s-0.2,0.3-0.3,0.4s-0.1,0.3-0.1,0.5v15.3c0,0.2,0,0.4,0.1,0.5s0.2,0.3,0.3,0.4s0.3,0.2,0.4,0.3s0.3,0.1,0.5,0.1h1.9v0.8
				c0,0.2,0,0.4,0.1,0.5s0.2,0.3,0.3,0.4s0.3,0.2,0.4,0.3s0.3,0.1,0.5,0.1h0.8v1c0,0.2,0,0.4,0.1,0.5s0.2,0.3,0.3,0.4
				s0.3,0.2,0.4,0.3s0.3,0.1,0.5,0.1h7.9c0.2,0,0.4,0,0.5-0.1s0.3-0.2,0.4-0.3s0.2-0.3,0.3-0.4s0.1-0.3,0.1-0.5v-1h0.8
				c0.2,0,0.4,0,0.5-0.1s0.3-0.2,0.4-0.3s0.2-0.3,0.3-0.4s0.1-0.3,0.1-0.5v-0.7h1.9c0.2,0,0.4,0,0.5-0.1s0.3-0.2,0.4-0.3
				s0.2-0.3,0.3-0.4s0.1-0.3,0.1-0.5v-15.3c0-0.2,0-0.4-0.1-0.5s-0.2-0.3-0.3-0.4s-0.3-0.2-0.4-0.3S457.5,266.9,457.3,266.9"/>
			<g>
				<g>
					<g>
						<defs>
							<path id="SVGID_00000035506546650934453930000015223128744544286130_" d="M457.3,266.9h-3.2h-12H439c-0.2,0-0.4,0-0.5,0.1
								s-0.3,0.2-0.4,0.3s-0.2,0.3-0.3,0.4s-0.1,0.3-0.1,0.5v15.3c0,0.2,0,0.4,0.1,0.5s0.2,0.3,0.3,0.4s0.3,0.2,0.4,0.3
								s0.3,0.1,0.5,0.1h1.9v0.8c0,0.2,0,0.4,0.1,0.5s0.2,0.3,0.3,0.4s0.3,0.2,0.4,0.3s0.3,0.1,0.5,0.1h0.8v1c0,0.2,0,0.4,0.1,0.5
								s0.2,0.3,0.3,0.4s0.3,0.2,0.4,0.3s0.3,0.1,0.5,0.1h7.9c0.2,0,0.4,0,0.5-0.1s0.3-0.2,0.4-0.3s0.2-0.3,0.3-0.4s0.1-0.3,0.1-0.5
								v-1h0.8c0.2,0,0.4,0,0.5-0.1s0.3-0.2,0.4-0.3s0.2-0.3,0.3-0.4s0.1-0.3,0.1-0.5v-0.7h1.9c0.2,0,0.4,0,0.5-0.1s0.3-0.2,0.4-0.3
								s0.2-0.3,0.3-0.4s0.1-0.3,0.1-0.5v-15.3c0-0.2,0-0.4-0.1-0.5s-0.2-0.3-0.3-0.4s-0.3-0.2-0.4-0.3S457.5,266.9,457.3,266.9"/>
						</defs>
						<clipPath id="SVGID_00000131341505352535209660000008540629098378903211_">
							<use xlink:href="#SVGID_00000035506546650934453930000015223128744544286130_"  style="overflow:visible;"/>
						</clipPath>
						<g style="clip-path:url(#SVGID_00000131341505352535209660000008540629098378903211_);">
							<path class="st6" d="M443.7,266.9h-0.8v5.8c0,0.1,0,0.1,0,0.2s0,0.1,0.1,0.1s0.1,0.1,0.1,0.1h0.1c0,0,0.1,0,0.2,0
								s0.1,0,0.1-0.1s0.1-0.1,0.1-0.1s0-0.1,0-0.2L443.7,266.9"/>
							<path class="st6" d="M448.1,266.9h-0.8v5.8c0,0.1,0,0.1,0,0.2s0,0.1,0.1,0.1s0.1,0.1,0.1,0.1s0.1,0,0.2,0s0.1,0,0.1,0
								s0.1,0,0.1-0.1s0.1-0.1,0.1-0.1s0-0.1,0-0.2L448.1,266.9"/>
							<path class="st6" d="M452.6,266.9h-0.8v5.8c0,0.1,0,0.1,0,0.2s0,0.1,0.1,0.1s0.1,0.1,0.1,0.1s0.1,0,0.2,0s0.1,0,0.1,0
								s0.1,0,0.1-0.1s0.1-0.1,0.1-0.1s0-0.1,0-0.2L452.6,266.9"/>
						</g>
					</g>
				</g>
			</g>
			<path class="st4" d="M414.5,266.9h-3.2h-1.5v5.8c0,0.1,0,0.1,0,0.2s0,0.1-0.1,0.1s-0.1,0.1-0.1,0.1h-0.1h-0.1c0,0-0.1,0-0.1-0.1
				s-0.1-0.1-0.1-0.1s0-0.1,0-0.2v-5.8h-3.6v5.8c0,0.1,0,0.1,0,0.2s0,0.1-0.1,0.1s-0.1,0.1-0.1,0.1h-0.1h-0.1c0,0-0.1,0-0.1-0.1
				s-0.1-0.1-0.1-0.1s0-0.1,0-0.2v-5.8h-3.6v5.8c0,0.1,0,0.1,0,0.2s0,0.1-0.1,0.1s-0.1,0.1-0.1,0.1h-0.1H401c0,0-0.1,0-0.1-0.1
				s-0.1-0.1-0.1-0.1s0-0.1,0-0.2v-5.8h-0.7h-3.2c-0.2,0-0.3,0-0.5,0.1s-0.3,0.2-0.4,0.3s-0.2,0.3-0.3,0.4s-0.1,0.3-0.1,0.5v15.2
				c0,0.2,0,0.4,0.1,0.5s0.2,0.3,0.3,0.4s0.2,0.2,0.4,0.3s0.3,0.1,0.5,0.1h1.9v0.7c0,0.2,0,0.4,0.1,0.5s0.2,0.3,0.3,0.4
				s0.3,0.2,0.4,0.3s0.3,0.1,0.5,0.1h0.7v1c0,0.2,0,0.4,0.1,0.5s0.2,0.3,0.3,0.4s0.3,0.2,0.4,0.3s0.3,0.1,0.5,0.1h7.8
				c0.2,0,0.4,0,0.5-0.1s0.3-0.2,0.4-0.3s0.2-0.3,0.3-0.4s0.1-0.3,0.1-0.5v-1h0.7c0.2,0,0.4,0,0.5-0.1s0.3-0.2,0.4-0.3
				s0.2-0.3,0.3-0.4s0.1-0.3,0.1-0.5v-0.7h1.9c0.2,0,0.4,0,0.5-0.1s0.3-0.2,0.4-0.3s0.2-0.3,0.3-0.4s0.1-0.3,0.1-0.5v-15.3
				c0-0.2,0-0.4-0.1-0.5s-0.2-0.3-0.3-0.4s-0.3-0.2-0.4-0.3S414.7,266.9,414.5,266.9"/>
			<g>
				<g>
					<g>
						<defs>
							<path id="SVGID_00000018917727037437579830000016148583786831084682_" d="M414.5,266.9h-3.2h-11.9h-3.2c-0.2,0-0.3,0-0.5,0.1
								s-0.3,0.2-0.4,0.3s-0.2,0.3-0.3,0.4s-0.1,0.3-0.1,0.5v15.2c0,0.2,0,0.4,0.1,0.5s0.2,0.3,0.3,0.4s0.2,0.2,0.4,0.3
								s0.3,0.1,0.5,0.1h1.9v0.7c0,0.2,0,0.4,0.1,0.5s0.2,0.3,0.3,0.4s0.3,0.2,0.4,0.3s0.3,0.1,0.5,0.1h0.7v1c0,0.2,0,0.4,0.1,0.5
								s0.2,0.3,0.3,0.4s0.3,0.2,0.4,0.3s0.3,0.1,0.5,0.1h7.8c0.2,0,0.4,0,0.5-0.1s0.3-0.2,0.4-0.3s0.2-0.3,0.3-0.4s0.1-0.3,0.1-0.5
								v-1h0.7c0.2,0,0.4,0,0.5-0.1s0.3-0.2,0.4-0.3s0.2-0.3,0.3-0.4s0.1-0.3,0.1-0.5v-0.7h1.9c0.2,0,0.4,0,0.5-0.1s0.3-0.2,0.4-0.3
								s0.2-0.3,0.3-0.4s0.1-0.3,0.1-0.5v-15.3c0-0.2,0-0.4-0.1-0.5s-0.2-0.3-0.3-0.4s-0.3-0.2-0.4-0.3S414.6,266.9,414.5,266.9"/>
						</defs>
						<clipPath id="SVGID_00000059302156023339816120000001296482183361737402_">
							<use xlink:href="#SVGID_00000018917727037437579830000016148583786831084682_"  style="overflow:visible;"/>
						</clipPath>
						<g style="clip-path:url(#SVGID_00000059302156023339816120000001296482183361737402_);">
							<path class="st6" d="M400.9,266.9h-0.8v5.8c0,0.1,0,0.1,0,0.2s0,0.1,0.1,0.1s0.1,0.1,0.1,0.1h0.1h0.1c0,0,0.1,0,0.1-0.1
								s0.1-0.1,0.1-0.1s0-0.1,0-0.2L400.9,266.9"/>
							<path class="st6" d="M405.3,266.9h-0.8v5.8c0,0.1,0,0.1,0,0.2s0,0.1,0.1,0.1s0.1,0.1,0.1,0.1h0.1h0.1c0,0,0.1,0,0.1-0.1
								s0.1-0.1,0.1-0.1s0-0.1,0-0.2L405.3,266.9"/>
							<path class="st6" d="M409.7,266.9h-0.8v5.8c0,0.1,0,0.1,0,0.2s0,0.1,0.1,0.1s0.1,0.1,0.1,0.1h0.1h0.1c0,0,0.1,0,0.1-0.1
								s0.1-0.1,0.1-0.1s0-0.1,0-0.2L409.7,266.9"/>
						</g>
					</g>
				</g>
			</g>
			<path class="st4" d="M371.9,266.8h-3.2h-1.5v5.8c0,0.1,0,0.1,0,0.2s0,0.1-0.1,0.1S367,273,367,273h-0.1h-0.1c0,0-0.1,0-0.1-0.1
				s-0.1-0.1-0.1-0.1s0-0.1,0-0.2v-5.8H363v5.8c0,0.1,0,0.1,0,0.2s0,0.1-0.1,0.1s-0.1,0.1-0.1,0.1h-0.1h-0.1c0,0-0.1,0-0.1-0.1
				s-0.1-0.1-0.1-0.1s0-0.1,0-0.2v-5.8h-3.6v5.8c0,0.1,0,0.1,0,0.2s0,0.1-0.1,0.1s-0.1,0.1-0.1,0.1h-0.1h-0.1c0,0-0.1,0-0.1-0.1
				s-0.1-0.1-0.1-0.1s0-0.1,0-0.2v-5.8h-0.7h-3.1c-0.2,0-0.3,0-0.5,0.1s-0.3,0.2-0.4,0.3s-0.2,0.3-0.3,0.4s-0.1,0.3-0.1,0.5v15.2
				c0,0.2,0,0.4,0.1,0.5s0.2,0.3,0.3,0.4s0.2,0.2,0.4,0.3s0.3,0.1,0.5,0.1h1.9v0.7c0,0.2,0,0.4,0.1,0.5s0.2,0.3,0.3,0.4
				s0.2,0.2,0.4,0.3s0.3,0.1,0.5,0.1h0.7v1c0,0.2,0,0.4,0.1,0.5s0.2,0.3,0.3,0.4s0.2,0.2,0.4,0.3s0.3,0.1,0.5,0.1h7.7
				c0.2,0,0.4,0,0.5-0.1s0.3-0.2,0.4-0.3s0.2-0.3,0.3-0.4s0.1-0.3,0.1-0.5v-1h0.7c0.2,0,0.4,0,0.5-0.1s0.3-0.2,0.4-0.3
				s0.2-0.3,0.3-0.4s0.1-0.3,0.1-0.5v-0.7h1.9c0.2,0,0.3,0,0.5-0.1s0.3-0.2,0.4-0.3s0.2-0.3,0.3-0.4s0.1-0.3,0.1-0.5v-15.2
				c0-0.2,0-0.4-0.1-0.5s-0.2-0.3-0.3-0.4s-0.2-0.2-0.4-0.3S372.2,266.8,371.9,266.8"/>
			<g>
				<g>
					<g>
						<defs>
							<path id="SVGID_00000061429541246359733910000002330061542709115801_" d="M371.9,266.8h-3.2H357h-3.1c-0.2,0-0.3,0-0.5,0.1
								s-0.3,0.2-0.4,0.3s-0.2,0.3-0.3,0.4s-0.1,0.3-0.1,0.5v15.2c0,0.2,0,0.4,0.1,0.5s0.2,0.3,0.3,0.4s0.2,0.2,0.4,0.3
								s0.3,0.1,0.5,0.1h1.9v0.7c0,0.2,0,0.4,0.1,0.5s0.2,0.3,0.3,0.4s0.2,0.2,0.4,0.3s0.3,0.1,0.5,0.1h0.7v1c0,0.2,0,0.4,0.1,0.5
								s0.2,0.3,0.3,0.4s0.2,0.2,0.4,0.3s0.3,0.1,0.5,0.1h7.7c0.2,0,0.4,0,0.5-0.1s0.3-0.2,0.4-0.3s0.2-0.3,0.3-0.4s0.1-0.3,0.1-0.5
								v-1h0.7c0.2,0,0.4,0,0.5-0.1s0.3-0.2,0.4-0.3s0.2-0.3,0.3-0.4s0.1-0.3,0.1-0.5v-0.7h1.9c0.2,0,0.3,0,0.5-0.1s0.3-0.2,0.4-0.3
								s0.2-0.3,0.3-0.4s0.1-0.3,0.1-0.5v-15.2c0-0.2,0-0.4-0.1-0.5s-0.2-0.3-0.3-0.4s-0.2-0.2-0.4-0.3S372.1,266.8,371.9,266.8"/>
						</defs>
						<clipPath id="SVGID_00000116927439955433953030000002822614055474375076_">
							<use xlink:href="#SVGID_00000061429541246359733910000002330061542709115801_"  style="overflow:visible;"/>
						</clipPath>
						<g style="clip-path:url(#SVGID_00000116927439955433953030000002822614055474375076_);">
							<path class="st6" d="M358.5,266.8h-0.8v5.8c0,0.1,0,0.1,0,0.2s0,0.1,0.1,0.1s0.1,0.1,0.1,0.1h0.1h0.1c0,0,0.1,0,0.1-0.1
								s0.1-0.1,0.1-0.1s0-0.1,0-0.2L358.5,266.8"/>
							<path class="st6" d="M362.9,266.8h-0.8v5.8c0,0.1,0,0.1,0,0.2s0,0.1,0.1,0.1s0.1,0.1,0.1,0.1h0.1h0.1c0,0,0.1,0,0.1-0.1
								s0.1-0.1,0.1-0.1s0-0.1,0-0.2L362.9,266.8"/>
							<path class="st6" d="M367.3,266.8h-0.8v5.8c0,0.1,0,0.1,0,0.2s0,0.1,0.1,0.1s0.1,0.1,0.1,0.1h0.1h0.1c0,0,0.1,0,0.1-0.1
								s0.1-0.1,0.1-0.1s0-0.1,0-0.2L367.3,266.8"/>
						</g>
					</g>
				</g>
			</g>
			<path class="st3" d="M184.5,266.8h1.5h3.1c0.2,0,0.3,0,0.5,0.1s0.3,0.2,0.4,0.3s0.2,0.3,0.3,0.4s0.1,0.3,0.1,0.5V283
				c0,0.2,0,0.4-0.1,0.5s-0.1,0.3-0.3,0.4s-0.2,0.2-0.4,0.3s-0.3,0.1-0.5,0.1h-1.8v0.7c0,0.2,0,0.4-0.1,0.5s-0.1,0.3-0.3,0.4
				s-0.2,0.2-0.4,0.3s-0.3,0.1-0.5,0.1h-0.7v1c0,0.2,0,0.4-0.1,0.5s-0.1,0.3-0.3,0.4s-0.2,0.2-0.4,0.3s-0.3,0.1-0.5,0.1h-7.5
				c-0.2,0-0.3,0-0.5-0.1s-0.3-0.2-0.4-0.3s-0.2-0.3-0.3-0.4s-0.1-0.3-0.1-0.5v-1h-0.7c-0.2,0-0.3,0-0.5-0.1s-0.3-0.2-0.4-0.3
				s-0.2-0.3-0.3-0.4s-0.1-0.3-0.1-0.5v-0.7h-1.8c-0.2,0-0.3,0-0.5-0.1s-0.3-0.2-0.4-0.3s-0.2-0.3-0.3-0.4s-0.1-0.3-0.1-0.5v-14.9
				c0-0.2,0-0.4,0.1-0.5s0.1-0.3,0.3-0.4s0.2-0.2,0.4-0.3s0.3-0.1,0.5-0.1h3h0.7h0.8h3.5h0.8h3.5H184.5 M225.4,266.8h1.5h3.1
				c0.2,0,0.3,0,0.5,0.1s0.3,0.2,0.4,0.3s0.2,0.3,0.3,0.4s0.1,0.3,0.1,0.5v15c0,0.2,0,0.4-0.1,0.5s-0.1,0.3-0.3,0.4
				s-0.2,0.2-0.4,0.3s-0.3,0.1-0.5,0.1h-1.8v0.7c0,0.2,0,0.4-0.1,0.5s-0.1,0.3-0.3,0.4s-0.2,0.2-0.4,0.3s-0.3,0.1-0.5,0.1h-0.7v1
				c0,0.2,0,0.4-0.1,0.5s-0.1,0.3-0.3,0.4s-0.2,0.2-0.4,0.3s-0.3,0.1-0.5,0.1h-7.5c-0.2,0-0.3,0-0.5-0.1s-0.3-0.2-0.4-0.3
				s-0.2-0.3-0.3-0.4s-0.1-0.3-0.1-0.5v-1h-0.7c-0.2,0-0.3,0-0.5-0.1s-0.3-0.2-0.4-0.3s-0.2-0.3-0.3-0.4s-0.1-0.3-0.1-0.5v-0.7h-1.8
				c-0.2,0-0.3,0-0.5-0.1s-0.3-0.2-0.4-0.3s-0.2-0.3-0.3-0.4s-0.1-0.3-0.1-0.5v-15c0-0.2,0-0.4,0.1-0.5s0.1-0.3,0.3-0.4
				s0.2-0.2,0.4-0.3s0.3-0.1,0.5-0.1h3.1h0.7h0.8h3.5h0.8h3.5H225.4 M266.7,266.8h1.5h3.1c0.2,0,0.3,0,0.5,0.1s0.3,0.2,0.4,0.3
				s0.2,0.3,0.3,0.4s0.1,0.3,0.1,0.5v15.1c0,0.2,0,0.4-0.1,0.5s-0.1,0.3-0.3,0.4s-0.2,0.2-0.4,0.3s-0.3,0.1-0.5,0.1h-1.8v0.7
				c0,0.2,0,0.4-0.1,0.5s-0.2,0.3-0.3,0.4s-0.2,0.2-0.4,0.3s-0.3,0.1-0.5,0.1h-0.7v1c0,0.2,0,0.4-0.1,0.5s-0.1,0.3-0.3,0.4
				s-0.2,0.2-0.4,0.3s-0.3,0.1-0.5,0.1h-7.6c-0.2,0-0.3,0-0.5-0.1s-0.3-0.2-0.4-0.3s-0.2-0.3-0.3-0.4s-0.1-0.3-0.1-0.5v-1h-0.7
				c-0.2,0-0.3,0-0.5-0.1s-0.3-0.2-0.4-0.3s-0.2-0.3-0.3-0.4s-0.1-0.3-0.1-0.5v-0.7h-1.8c-0.2,0-0.3,0-0.5-0.1s-0.3-0.2-0.4-0.3
				s-0.2-0.3-0.3-0.4s-0.1-0.3-0.1-0.5v-15c0-0.2,0-0.4,0.1-0.5s0.2-0.3,0.3-0.4s0.2-0.2,0.4-0.3s0.3-0.1,0.5-0.1h3.1h0.7h0.8h3.5
				h0.8h3.5L266.7,266.8 M308.3,266.8h1.5h3.1c0.2,0,0.3,0,0.5,0.1s0.3,0.2,0.4,0.3s0.2,0.3,0.3,0.4s0.1,0.3,0.1,0.5v15.1
				c0,0.2,0,0.4-0.1,0.5s-0.2,0.3-0.3,0.4s-0.2,0.2-0.4,0.3s-0.3,0.1-0.5,0.1H311v0.7c0,0.2,0,0.4-0.1,0.5s-0.2,0.3-0.3,0.4
				s-0.2,0.2-0.4,0.3s-0.3,0.1-0.5,0.1H309v1c0,0.2,0,0.4-0.1,0.5s-0.2,0.3-0.3,0.4s-0.2,0.2-0.4,0.3s-0.3,0.1-0.5,0.1h-7.6
				c-0.2,0-0.3,0-0.5-0.1s-0.3-0.2-0.4-0.3s-0.2-0.3-0.3-0.4s-0.1-0.3-0.1-0.5v-1h-0.7c-0.2,0-0.3,0-0.5-0.1s-0.3-0.2-0.4-0.3
				s-0.2-0.3-0.3-0.4s-0.1-0.3-0.1-0.5v-0.7H295c-0.2,0-0.3,0-0.5-0.1s-0.3-0.2-0.4-0.3s-0.2-0.3-0.3-0.4s-0.1-0.3-0.1-0.5v-15.1
				c0-0.2,0-0.4,0.1-0.5s0.2-0.3,0.3-0.4s0.2-0.2,0.4-0.3s0.3-0.1,0.5-0.1h3.1h0.7h0.8h3.6h0.8h3.6H308.3 M171.5,257.5
				c-0.2,0-0.3,0-0.5-0.1s-0.3-0.2-0.4-0.3s-0.2-0.3-0.3-0.4s-0.1-0.3-0.1-0.5v-14.9c0-0.2,0-0.4,0.1-0.5s0.1-0.3,0.3-0.4
				s0.2-0.2,0.4-0.3s0.3-0.1,0.5-0.1h1.8v-0.7c0-0.2,0-0.4,0.1-0.5s0.1-0.3,0.3-0.4s0.2-0.2,0.4-0.3s0.3-0.1,0.5-0.1h0.7v-1
				c0-0.2,0-0.4,0.1-0.5s0.1-0.3,0.3-0.4s0.2-0.2,0.4-0.3s0.3-0.1,0.5-0.1h7.5c0.2,0,0.3,0,0.5,0.1s0.3,0.2,0.4,0.3s0.2,0.3,0.3,0.4
				s0.1,0.3,0.1,0.5v1h0.7c0.2,0,0.3,0,0.5,0.1s0.3,0.2,0.4,0.3s0.2,0.3,0.3,0.4s0.1,0.3,0.1,0.5v0.7h1.8c0.2,0,0.3,0,0.5,0.1
				s0.3,0.2,0.4,0.3s0.2,0.3,0.3,0.4s0.1,0.3,0.1,0.5v14.9c0,0.2,0,0.4-0.1,0.5s-0.1,0.3-0.3,0.4s-0.2,0.2-0.4,0.3s-0.3,0.1-0.5,0.1
				h-3.1h-11.4H171.5 M212.4,257.5c-0.2,0-0.3,0-0.5-0.1s-0.3-0.2-0.4-0.3s-0.2-0.3-0.3-0.4s-0.1-0.3-0.1-0.5v-15
				c0-0.2,0-0.4,0.1-0.5s0.1-0.3,0.3-0.4s0.2-0.2,0.4-0.3s0.3-0.1,0.5-0.1h1.8v-0.7c0-0.2,0-0.4,0.1-0.5s0.1-0.3,0.3-0.4
				s0.2-0.2,0.4-0.3s0.3-0.1,0.5-0.1h0.7v-1c0-0.2,0-0.4,0.1-0.5s0.1-0.3,0.3-0.4s0.2-0.2,0.4-0.3s0.3-0.1,0.5-0.1h7.5
				c0.2,0,0.3,0,0.5,0.1s0.3,0.2,0.4,0.3s0.2,0.3,0.3,0.4s0.1,0.3,0.1,0.5v1h0.7c0.2,0,0.3,0,0.5,0.1s0.3,0.2,0.4,0.3
				s0.2,0.3,0.3,0.4s0.1,0.3,0.1,0.5v0.7h1.8c0.2,0,0.3,0,0.5,0.1s0.3,0.2,0.4,0.3s0.2,0.3,0.3,0.4s0.1,0.3,0.1,0.5v15
				c0,0.2,0,0.4-0.1,0.5s-0.1,0.3-0.3,0.4s-0.2,0.2-0.4,0.3s-0.3,0.1-0.5,0.1H227h-11.4H212.4 M253.6,257.5c-0.2,0-0.3,0-0.5-0.1
				s-0.3-0.2-0.4-0.3s-0.2-0.3-0.3-0.4s-0.1-0.3-0.1-0.5v-15c0-0.2,0-0.4,0.1-0.5s0.2-0.3,0.3-0.4s0.2-0.2,0.4-0.3s0.3-0.1,0.5-0.1
				h1.8v-0.7c0-0.2,0-0.4,0.1-0.5s0.2-0.3,0.3-0.4s0.3-0.2,0.4-0.3s0.3-0.1,0.5-0.1h0.7v-1c0-0.2,0-0.4,0.1-0.5s0.2-0.3,0.3-0.4
				s0.2-0.2,0.4-0.3s0.3-0.1,0.5-0.1h7.6c0.2,0,0.3,0,0.5,0.1s0.3,0.2,0.4,0.3s0.2,0.3,0.3,0.4s0.1,0.3,0.1,0.5v1h0.7
				c0.2,0,0.3,0,0.5,0.1s0.3,0.2,0.4,0.3s0.2,0.3,0.3,0.4s0.1,0.3,0.1,0.5v0.7h1.8c0.2,0,0.3,0,0.5,0.1s0.3,0.2,0.4,0.3
				s0.2,0.3,0.3,0.4s0.1,0.3,0.1,0.5v15c0,0.2,0,0.4-0.1,0.5s-0.1,0.3-0.3,0.4s-0.2,0.2-0.4,0.3s-0.3,0.1-0.5,0.1h-3.1h-11.5H253.6
				 M295.2,257.5c-0.2,0-0.3,0-0.5-0.1s-0.3-0.2-0.4-0.3s-0.2-0.3-0.3-0.4s-0.1-0.3-0.1-0.5v-15.1c0-0.2,0-0.4,0.1-0.5
				s0.2-0.3,0.3-0.4s0.2-0.2,0.4-0.3s0.3-0.1,0.5-0.1h1.8v-0.7c0-0.2,0-0.4,0.1-0.5s0.2-0.3,0.3-0.4s0.2-0.2,0.4-0.3
				s0.3-0.1,0.5-0.1h0.7v-1c0-0.2,0-0.4,0.1-0.5s0.2-0.3,0.3-0.4s0.2-0.2,0.4-0.3s0.3-0.1,0.5-0.1h7.6c0.2,0,0.3,0,0.5,0.1
				s0.3,0.2,0.4,0.3s0.2,0.3,0.3,0.4s0.1,0.3,0.1,0.5v1h0.7c0.2,0,0.3,0,0.5,0.1s0.3,0.2,0.4,0.3s0.2,0.3,0.3,0.4s0.1,0.3,0.1,0.5
				v0.7h1.9c0.2,0,0.3,0,0.5,0.1s0.3,0.2,0.4,0.3s0.2,0.3,0.3,0.4s0.1,0.3,0.1,0.5v15.1c0,0.2,0,0.4-0.1,0.5s-0.2,0.3-0.3,0.4
				s-0.2,0.2-0.4,0.3s-0.3,0.1-0.5,0.1H310h-11.6H295.2 M326.3,224.1l-167.7,0.6c-0.9,0-1.7,0.2-2.4,0.5s-1.4,0.8-2,1.4
				s-1,1.3-1.3,2.1s-0.5,1.7-0.5,2.6v61.6c0,0.9,0.2,1.8,0.5,2.6s0.8,1.5,1.3,2.1s1.2,1.1,2,1.4s1.6,0.5,2.4,0.5l167.7,0.6
				c0.9,0,1.7-0.2,2.5-0.5s1.5-0.8,2.1-1.4s1.1-1.3,1.4-2.1s0.5-1.7,0.5-2.6v-62.6c0-0.9-0.2-1.8-0.5-2.6s-0.8-1.5-1.4-2.1
				s-1.3-1.1-2.1-1.4S327.2,224.1,326.3,224.1"/>
			<path class="st4" d="M299,257.5v-5.7c0-0.1,0-0.1,0-0.2s0-0.1,0.1-0.1s0.1-0.1,0.1-0.1h0.1h0.1c0,0,0.1,0,0.1,0.1
				s0.1,0.1,0.1,0.1s0,0.1,0,0.2v5.7H299 M303.3,257.5v-5.7c0-0.1,0-0.1,0-0.2s0-0.1,0.1-0.1s0.1-0.1,0.1-0.1h0.1h0.1
				c0,0,0.1,0,0.1,0.1s0.1,0.1,0.1,0.1s0,0.1,0,0.2v5.8L303.3,257.5 M307.6,257.5v-5.8c0-0.1,0-0.1,0-0.2s0-0.1,0.1-0.1
				s0.1-0.1,0.1-0.1h0.1h0.1c0,0,0.1,0,0.1,0.1s0.1,0.1,0.1,0.1s0,0.1,0,0.2v5.8H307.6 M307.9,235.3h-7.6c-0.2,0-0.3,0-0.5,0.1
				s-0.3,0.2-0.4,0.3s-0.2,0.3-0.3,0.4s-0.1,0.3-0.1,0.5v1h-0.7c-0.2,0-0.3,0-0.5,0.1s-0.3,0.2-0.4,0.3s-0.2,0.3-0.3,0.4
				s-0.1,0.3-0.1,0.5v0.7h-1.8c-0.2,0-0.3,0-0.5,0.1s-0.3,0.2-0.4,0.3s-0.2,0.3-0.3,0.4s-0.1,0.3-0.1,0.5V256c0,0.2,0,0.4,0.1,0.5
				s0.2,0.3,0.3,0.4s0.2,0.2,0.4,0.3s0.3,0.1,0.5,0.1h3.1h11.6h3.1c0.2,0,0.3,0,0.5-0.1s0.3-0.2,0.4-0.3s0.2-0.3,0.3-0.4
				s0.1-0.3,0.1-0.5v-15.1c0-0.2,0-0.4-0.1-0.5s-0.2-0.3-0.3-0.4s-0.2-0.2-0.4-0.3s-0.3-0.1-0.5-0.1h-1.9v-0.7c0-0.2,0-0.4-0.1-0.5
				s-0.2-0.3-0.3-0.4s-0.2-0.2-0.4-0.3s-0.3-0.1-0.5-0.1h-0.7v-1c0-0.2,0-0.4-0.1-0.5s-0.2-0.3-0.3-0.4s-0.2-0.2-0.4-0.3
				S308.1,235.3,307.9,235.3"/>
			<g>
				<g>
					<g>
						<defs>
							<path id="SVGID_00000168096253715906799280000010277831445382321822_" d="M313,257.5h-3.1h-11.6h-3.1c-0.2,0-0.3,0-0.5-0.1
								s-0.3-0.2-0.4-0.3s-0.2-0.3-0.3-0.4s-0.1-0.3-0.1-0.5v-15.1c0-0.2,0-0.4,0.1-0.5s0.2-0.3,0.3-0.4s0.2-0.2,0.4-0.3
								s0.3-0.1,0.5-0.1h1.8v-0.7c0-0.2,0-0.4,0.1-0.5s0.2-0.3,0.3-0.4s0.2-0.2,0.4-0.3s0.3-0.1,0.5-0.1h0.7v-1c0-0.2,0-0.4,0.1-0.5
								s0.2-0.3,0.3-0.4s0.2-0.2,0.4-0.3s0.3-0.1,0.5-0.1h7.6c0.2,0,0.3,0,0.5,0.1s0.3,0.2,0.4,0.3s0.2,0.3,0.3,0.4s0.1,0.3,0.1,0.5
								v1h0.7c0.2,0,0.3,0,0.5,0.1s0.3,0.2,0.4,0.3s0.2,0.3,0.3,0.4s0.1,0.3,0.1,0.5v0.7h1.9c0.2,0,0.3,0,0.5,0.1s0.3,0.2,0.4,0.3
								s0.2,0.3,0.3,0.4s0.1,0.3,0.1,0.5v15.1c0,0.2,0,0.4-0.1,0.5s-0.2,0.3-0.3,0.4s-0.2,0.2-0.4,0.3S313.2,257.4,313,257.5"/>
						</defs>
						<clipPath id="SVGID_00000014631627720653870170000008869037040874807682_">
							<use xlink:href="#SVGID_00000168096253715906799280000010277831445382321822_"  style="overflow:visible;"/>
						</clipPath>
						<g style="clip-path:url(#SVGID_00000014631627720653870170000008869037040874807682_);">
							<path class="st6" d="M299.4,251.3h-0.1c0,0-0.1,0-0.1,0.1s-0.1,0.1-0.1,0.1s0,0.1,0,0.2v5.7h0.8v-5.7c0-0.1,0-0.1,0-0.2
								s0-0.1-0.1-0.1s-0.1-0.1-0.1-0.1H299.4"/>
							<path class="st6" d="M303.7,251.3h-0.1c0,0-0.1,0-0.1,0.1s-0.1,0.1-0.1,0.1s0,0.1,0,0.2v5.7h0.8v-5.8c0-0.1,0-0.1,0-0.2
								s0-0.1-0.1-0.1s-0.1-0.1-0.1-0.1S303.8,251.3,303.7,251.3"/>
							<path class="st6" d="M308,251.3h-0.1c0,0-0.1,0-0.1,0.1s-0.1,0.1-0.1,0.1s0,0.1,0,0.2v5.8h0.8v-5.8c0-0.1,0-0.1,0-0.2
								s0-0.1-0.1-0.1s-0.1-0.1-0.1-0.1S308.1,251.3,308,251.3"/>
						</g>
					</g>
				</g>
			</g>
			<path class="st4" d="M257.4,257.5v-5.7c0-0.1,0-0.1,0-0.2s0-0.1,0.1-0.1s0.1-0.1,0.1-0.1h0.1h0.1c0,0,0.1,0,0.1,0.1
				s0.1,0.1,0.1,0.1s0,0.1,0,0.2v5.7H257.4 M261.7,257.5v-5.7c0-0.1,0-0.1,0-0.2s0-0.1,0.1-0.1s0.1-0.1,0.1-0.1h0.1h0.1
				c0,0,0.1,0,0.1,0.1s0.1,0.1,0.1,0.1s0,0.1,0,0.2v5.7H261.7 M266,257.5v-5.7c0-0.1,0-0.1,0-0.2s0-0.1,0.1-0.1s0.1-0.1,0.1-0.1h0.1
				h0.1c0,0,0.1,0,0.1,0.1s0.1,0.1,0.1,0.1s0,0.1,0,0.2v5.7H266 M266.3,235.4h-7.6c-0.2,0-0.3,0-0.5,0.1s-0.3,0.2-0.4,0.3
				s-0.2,0.3-0.3,0.4s-0.1,0.3-0.1,0.5v1h-0.7c-0.2,0-0.3,0-0.5,0.1s-0.3,0.2-0.4,0.3s-0.2,0.3-0.3,0.4s-0.1,0.3-0.1,0.5v0.7h-1.8
				c-0.2,0-0.3,0-0.5,0.1s-0.3,0.2-0.4,0.3s-0.2,0.3-0.3,0.4s-0.1,0.3-0.1,0.5v15c0,0.2,0,0.4,0.1,0.5s0.2,0.3,0.3,0.4
				s0.2,0.2,0.4,0.3s0.3,0.1,0.5,0.1h3.1h11.5h3.1c0.2,0,0.3,0,0.5-0.1s0.3-0.2,0.4-0.3s0.2-0.3,0.3-0.4s0.1-0.3,0.1-0.5v-15
				c0-0.2,0-0.4-0.1-0.5s-0.1-0.3-0.3-0.4s-0.2-0.2-0.4-0.3s-0.3-0.1-0.5-0.1h-1.8V239c0-0.2,0-0.4-0.1-0.5s-0.2-0.3-0.3-0.4
				s-0.2-0.2-0.4-0.3s-0.3-0.1-0.5-0.1h-0.7v-1c0-0.2,0-0.4-0.1-0.5s-0.1-0.3-0.3-0.4s-0.2-0.2-0.4-0.3S266.4,235.4,266.3,235.4"/>
			<g>
				<g>
					<g>
						<defs>
							<path id="SVGID_00000046306948989611941530000016525545214711059099_" d="M271.3,257.5h-3.1h-11.5h-3.1c-0.2,0-0.3,0-0.5-0.1
								s-0.3-0.2-0.4-0.3s-0.2-0.3-0.3-0.4s-0.1-0.3-0.1-0.5v-15c0-0.2,0-0.4,0.1-0.5s0.2-0.3,0.3-0.4s0.2-0.2,0.4-0.3
								s0.3-0.1,0.5-0.1h1.8v-0.7c0-0.2,0-0.4,0.1-0.5s0.2-0.3,0.3-0.4s0.3-0.2,0.4-0.3s0.3-0.1,0.5-0.1h0.7v-1c0-0.2,0-0.4,0.1-0.5
								s0.2-0.3,0.3-0.4s0.2-0.2,0.4-0.3s0.3-0.1,0.5-0.1h7.6c0.2,0,0.3,0,0.5,0.1s0.3,0.2,0.4,0.3s0.2,0.3,0.3,0.4s0.1,0.3,0.1,0.5
								v1h0.7c0.2,0,0.3,0,0.5,0.1s0.3,0.2,0.4,0.3s0.2,0.3,0.3,0.4s0.1,0.3,0.1,0.5v0.7h1.8c0.2,0,0.3,0,0.5,0.1s0.3,0.2,0.4,0.3
								s0.2,0.3,0.3,0.4s0.1,0.3,0.1,0.5v15c0,0.2,0,0.4-0.1,0.5s-0.1,0.3-0.3,0.4s-0.2,0.2-0.4,0.3S271.5,257.5,271.3,257.5"/>
						</defs>
						<clipPath id="SVGID_00000013887011038761442490000001275873913322792855_">
							<use xlink:href="#SVGID_00000046306948989611941530000016525545214711059099_"  style="overflow:visible;"/>
						</clipPath>
						<g style="clip-path:url(#SVGID_00000013887011038761442490000001275873913322792855_);">
							<path class="st6" d="M257.8,251.4h-0.1c0,0-0.1,0-0.1,0.1s-0.1,0.1-0.1,0.1s0,0.1,0,0.2v5.7h0.8v-5.7c0-0.1,0-0.1,0-0.2
								s0-0.1-0.1-0.1s-0.1-0.1-0.1-0.1H257.8"/>
							<path class="st6" d="M262.1,251.4H262c0,0-0.1,0-0.1,0.1s-0.1,0.1-0.1,0.1s0,0.1,0,0.2v5.7h0.8v-5.7c0-0.1,0-0.1,0-0.2
								s0-0.1-0.1-0.1s-0.1-0.1-0.1-0.1H262.1"/>
							<path class="st6" d="M266.4,251.4h-0.1c0,0-0.1,0-0.1,0.1s-0.1,0.1-0.1,0.1s0,0.1,0,0.2v5.7h0.8v-5.7c0-0.1,0-0.1,0-0.2
								s0-0.1-0.1-0.1s-0.1-0.1-0.1-0.1H266.4"/>
						</g>
					</g>
				</g>
			</g>
			<path class="st4" d="M216.2,257.5v-5.7c0-0.1,0-0.1,0-0.2s0.1-0.1,0.1-0.1l0.1-0.1h0.1h0.1c0,0,0.1,0,0.1,0.1s0.1,0.1,0.1,0.1
				s0,0.1,0,0.2v5.7H216.2 M220.4,257.5v-5.7c0-0.1,0-0.1,0-0.2s0.1-0.1,0.1-0.1l0.1-0.1h0.1h0.1c0,0,0.1,0,0.1,0.1s0.1,0.1,0.1,0.1
				s0,0.1,0,0.2v5.7H220.4 M224.7,257.5v-5.7c0-0.1,0-0.1,0-0.2s0.1-0.1,0.1-0.1l0.1-0.1h0.1h0.1c0,0,0.1,0,0.1,0.1s0.1,0.1,0.1,0.1
				s0,0.1,0,0.2v5.7H224.7 M224.9,235.5h-7.5c-0.2,0-0.3,0-0.5,0.1s-0.3,0.2-0.4,0.3s-0.2,0.3-0.3,0.4s-0.1,0.3-0.1,0.5v1h-0.7
				c-0.2,0-0.3,0-0.5,0.1s-0.3,0.2-0.4,0.3s-0.2,0.3-0.3,0.4s-0.1,0.3-0.1,0.5v0.7h-1.8c-0.2,0-0.3,0-0.5,0.1s-0.3,0.2-0.4,0.3
				s-0.2,0.3-0.3,0.4s-0.1,0.3-0.1,0.5v15c0,0.2,0,0.4,0.1,0.5s0.1,0.3,0.3,0.4s0.2,0.2,0.4,0.3s0.3,0.1,0.5,0.1h3.1h11.4h3.1
				c0.2,0,0.3,0,0.5-0.1s0.3-0.2,0.4-0.3s0.2-0.3,0.3-0.4s0.1-0.3,0.1-0.5v-15c0-0.2,0-0.4-0.1-0.5s-0.1-0.3-0.3-0.4
				s-0.2-0.2-0.4-0.3s-0.3-0.1-0.5-0.1h-1.8v-0.7c0-0.2,0-0.4-0.1-0.5s-0.1-0.3-0.3-0.4s-0.2-0.2-0.4-0.3s-0.3-0.1-0.5-0.1h-0.7v-1
				c0-0.2,0-0.4-0.1-0.5s-0.1-0.3-0.3-0.4s-0.2-0.2-0.4-0.3S225.1,235.5,224.9,235.5"/>
			<g>
				<g>
					<g>
						<defs>
							<path id="SVGID_00000092427663758020001700000010819862626002503049_" d="M230,257.5h-3.1h-11.4h-3.1c-0.2,0-0.3,0-0.5-0.1
								s-0.3-0.2-0.4-0.3s-0.2-0.3-0.3-0.4s-0.1-0.3-0.1-0.5v-15c0-0.2,0-0.4,0.1-0.5s0.1-0.3,0.3-0.4s0.2-0.2,0.4-0.3
								s0.3-0.1,0.5-0.1h1.8v-0.7c0-0.2,0-0.4,0.1-0.5s0.1-0.3,0.3-0.4s0.2-0.2,0.4-0.3s0.3-0.1,0.5-0.1h0.7v-1c0-0.2,0-0.4,0.1-0.5
								s0.1-0.3,0.3-0.4s0.2-0.2,0.4-0.3s0.3-0.1,0.5-0.1h7.5c0.2,0,0.3,0,0.5,0.1s0.3,0.2,0.4,0.3s0.2,0.3,0.3,0.4s0.1,0.3,0.1,0.5
								v1h0.7c0.2,0,0.3,0,0.5,0.1s0.3,0.2,0.4,0.3s0.2,0.3,0.3,0.4s0.1,0.3,0.1,0.5v0.7h1.8c0.2,0,0.3,0,0.5,0.1s0.3,0.2,0.4,0.3
								s0.2,0.3,0.3,0.4s0.1,0.3,0.1,0.5v15c0,0.2,0,0.4-0.1,0.5s-0.1,0.3-0.3,0.4s-0.2,0.2-0.4,0.3S230.2,257.5,230,257.5"/>
						</defs>
						<clipPath id="SVGID_00000042715274570086797270000010187424293428935591_">
							<use xlink:href="#SVGID_00000092427663758020001700000010819862626002503049_"  style="overflow:visible;"/>
						</clipPath>
						<g style="clip-path:url(#SVGID_00000042715274570086797270000010187424293428935591_);">
							<path class="st6" d="M216.5,251.4c-0.1,0-0.1,0-0.1,0s-0.1,0-0.1,0.1s-0.1,0.1-0.1,0.1s0,0.1,0,0.2v5.7h0.8v-5.7
								c0-0.1,0-0.1,0-0.2s-0.1-0.1-0.1-0.1l-0.1-0.1C216.8,251.4,216.6,251.4,216.5,251.4"/>
							<path class="st6" d="M220.8,251.4c-0.1,0-0.1,0-0.1,0s-0.1,0-0.1,0.1s-0.1,0.1-0.1,0.1s0,0.1,0,0.2v5.7h0.8v-5.7
								c0-0.1,0-0.1,0-0.2s-0.1-0.1-0.1-0.1l-0.1-0.1C221.1,251.4,220.9,251.4,220.8,251.4"/>
							<path class="st6" d="M225.1,251.4c-0.1,0-0.1,0-0.1,0s-0.1,0-0.1,0.1s-0.1,0.1-0.1,0.1s0,0.1,0,0.2v5.7h0.8v-5.7
								c0-0.1,0-0.1,0-0.2s-0.1-0.1-0.1-0.1l-0.1-0.1H225.1"/>
						</g>
					</g>
				</g>
			</g>
			<path class="st4" d="M175.3,257.5v-5.7c0-0.1,0-0.1,0-0.2s0.1-0.1,0.1-0.1l0.1-0.1h0.1h0.1c0,0,0.1,0,0.1,0.1s0.1,0.1,0.1,0.1
				s0,0.1,0,0.2v5.7H175.3 M179.5,257.5v-5.7c0-0.1,0-0.1,0-0.2s0.1-0.1,0.1-0.1l0.1-0.1h0.1h0.1c0,0,0.1,0,0.1,0.1s0.1,0.1,0.1,0.1
				s0,0.1,0,0.2v5.7H179.5 M183.7,257.5v-5.7c0-0.1,0-0.1,0-0.2s0.1-0.1,0.1-0.1l0.1-0.1h0.1h0.1c0,0,0.1,0,0.1,0.1s0.1,0.1,0.1,0.1
				s0,0.1,0,0.2v5.7H183.7 M184,235.6h-7.5c-0.2,0-0.3,0-0.5,0.1s-0.3,0.2-0.4,0.3s-0.2,0.3-0.3,0.4s-0.1,0.3-0.1,0.5v1h-0.7
				c-0.2,0-0.3,0-0.5,0.1s-0.3,0.2-0.4,0.3s-0.2,0.3-0.3,0.4s-0.1,0.3-0.1,0.5v0.7h-1.8c-0.2,0-0.3,0-0.5,0.1s-0.3,0.2-0.4,0.3
				s-0.2,0.3-0.3,0.4s-0.1,0.3-0.1,0.5v14.9c0,0.2,0,0.4,0.1,0.5s0.1,0.3,0.3,0.4s0.2,0.2,0.4,0.3s0.3,0.1,0.5,0.1h3h11.4h3.1
				c0.2,0,0.3,0,0.5-0.1s0.3-0.2,0.4-0.3s0.2-0.3,0.3-0.4s0.1-0.3,0.1-0.5v-14.9c0-0.2,0-0.4-0.1-0.5s-0.1-0.3-0.3-0.4
				s-0.2-0.2-0.4-0.3s-0.3-0.1-0.5-0.1h-1.8v-0.7c0-0.2,0-0.4-0.1-0.5s-0.1-0.3-0.3-0.4s-0.2-0.2-0.4-0.3s-0.3-0.1-0.5-0.1h-0.7v-1
				c0-0.2,0-0.4-0.1-0.5s-0.1-0.3-0.3-0.4s-0.2-0.2-0.4-0.3S184.2,235.6,184,235.6"/>
			<g>
				<g>
					<g>
						<defs>
							<path id="SVGID_00000039850047869335209460000013825630816113154187_" d="M189,257.5h-3.1h-11.4h-3c-0.2,0-0.3,0-0.5-0.1
								s-0.3-0.2-0.4-0.3s-0.2-0.3-0.3-0.4s-0.1-0.3-0.1-0.5v-14.9c0-0.2,0-0.4,0.1-0.5s0.1-0.3,0.3-0.4s0.2-0.2,0.4-0.3
								s0.3-0.1,0.5-0.1h1.8v-0.7c0-0.2,0-0.4,0.1-0.5s0.1-0.3,0.3-0.4s0.2-0.2,0.4-0.3s0.3-0.1,0.5-0.1h0.7v-1c0-0.2,0-0.4,0.1-0.5
								s0.1-0.3,0.3-0.4s0.2-0.2,0.4-0.3s0.3-0.1,0.5-0.1h7.5c0.2,0,0.3,0,0.5,0.1s0.3,0.2,0.4,0.3s0.2,0.3,0.3,0.4s0.1,0.3,0.1,0.5
								v1h0.7c0.2,0,0.3,0,0.5,0.1s0.3,0.2,0.4,0.3s0.2,0.3,0.3,0.4s0.1,0.3,0.1,0.5v0.7h1.8c0.2,0,0.3,0,0.5,0.1s0.3,0.2,0.4,0.3
								s0.2,0.3,0.3,0.4s0.1,0.3,0.1,0.5v14.9c0,0.2,0,0.4-0.1,0.5s-0.1,0.3-0.3,0.4s-0.2,0.2-0.4,0.3S189.1,257.5,189,257.5"/>
						</defs>
						<clipPath id="SVGID_00000058558861691424748300000014766848013058014889_">
							<use xlink:href="#SVGID_00000039850047869335209460000013825630816113154187_"  style="overflow:visible;"/>
						</clipPath>
						<g style="clip-path:url(#SVGID_00000058558861691424748300000014766848013058014889_);">
							<path class="st6" d="M175.6,251.5c-0.1,0-0.1,0-0.1,0s-0.1,0-0.1,0.1s-0.1,0.1-0.1,0.1s0,0.1,0,0.2v5.7h0.8v-5.7
								c0-0.1,0-0.1,0-0.2s-0.1-0.1-0.1-0.1l-0.1-0.1C175.9,251.5,175.7,251.5,175.6,251.5"/>
							<path class="st6" d="M179.9,251.4c-0.1,0-0.1,0-0.1,0s-0.1,0-0.1,0.1s-0.1,0.1-0.1,0.1s0,0.1,0,0.2v5.7h0.8v-5.7
								c0-0.1,0-0.1,0-0.2s-0.1-0.1-0.1-0.1l-0.1-0.1C180.2,251.4,179.9,251.5,179.9,251.4"/>
							<path class="st6" d="M184.1,251.4c-0.1,0-0.1,0-0.1,0s-0.1,0-0.1,0.1s-0.1,0.1-0.1,0.1s0,0.1,0,0.2v5.7h0.8v-5.7
								c0-0.1,0-0.1,0-0.2s-0.1-0.1-0.1-0.1l-0.1-0.1H184.1"/>
						</g>
					</g>
				</g>
			</g>
			<path class="st4" d="M313,266.8h-3.1h-1.5v5.8c0,0.1,0,0.1,0,0.2s0,0.1-0.1,0.1s-0.1,0.1-0.1,0.1h-0.1H308c0,0-0.1,0-0.1-0.1
				s-0.1-0.1-0.1-0.1s0-0.1,0-0.2v-5.8h-3.6v5.8c0,0.1,0,0.1,0,0.2s0,0.1-0.1,0.1S304,273,304,273h-0.1h-0.1c0,0-0.1,0-0.1-0.1
				s-0.1-0.1-0.1-0.1s0-0.1,0-0.2v-5.7H300v5.7c0,0.1,0,0.1,0,0.2s0,0.1-0.1,0.1s-0.1,0.1-0.1,0.1h-0.1h-0.1c0,0-0.1,0-0.1-0.1
				s-0.1-0.1-0.1-0.1s0-0.1,0-0.2v-5.7h-0.7h-3.1c-0.2,0-0.3,0-0.5,0.1s-0.3,0.2-0.4,0.3s-0.2,0.3-0.3,0.4s-0.1,0.3-0.1,0.5v15.1
				c0,0.2,0,0.4,0.1,0.5s0.2,0.3,0.3,0.4s0.2,0.2,0.4,0.3s0.3,0.1,0.5,0.1h1.8v0.7c0,0.2,0,0.4,0.1,0.5s0.2,0.3,0.3,0.4
				s0.2,0.2,0.4,0.3s0.3,0.1,0.5,0.1h0.7v1c0,0.2,0,0.4,0.1,0.5s0.2,0.3,0.3,0.4s0.2,0.2,0.4,0.3s0.3,0.1,0.5,0.1h7.6
				c0.2,0,0.3,0,0.5-0.1s0.3-0.2,0.4-0.3s0.2-0.3,0.3-0.4s0.1-0.3,0.1-0.5v-1h0.7c0.2,0,0.3,0,0.5-0.1s0.3-0.2,0.4-0.3
				s0.2-0.3,0.3-0.4s0.1-0.3,0.1-0.5v-0.7h1.9c0.2,0,0.3,0,0.5-0.1s0.3-0.2,0.4-0.3s0.2-0.3,0.3-0.4s0.1-0.3,0.1-0.5v-15.1
				c0-0.2,0-0.4-0.1-0.5s-0.2-0.3-0.3-0.4s-0.2-0.2-0.4-0.3S313.2,266.8,313,266.8"/>
			<g>
				<g>
					<g>
						<defs>
							<path id="SVGID_00000101095782242485570560000002771865916058761345_" d="M313,266.8h-3.1h-11.6h-3.1c-0.2,0-0.3,0-0.5,0.1
								s-0.3,0.2-0.4,0.3s-0.2,0.3-0.3,0.4s-0.1,0.3-0.1,0.5v15.1c0,0.2,0,0.4,0.1,0.5s0.2,0.3,0.3,0.4s0.2,0.2,0.4,0.3
								s0.3,0.1,0.5,0.1h1.8v0.7c0,0.2,0,0.4,0.1,0.5s0.2,0.3,0.3,0.4s0.2,0.2,0.4,0.3s0.3,0.1,0.5,0.1h0.7v1c0,0.2,0,0.4,0.1,0.5
								s0.2,0.3,0.3,0.4s0.2,0.2,0.4,0.3s0.3,0.1,0.5,0.1h7.6c0.2,0,0.3,0,0.5-0.1s0.3-0.2,0.4-0.3s0.2-0.3,0.3-0.4s0.1-0.3,0.1-0.5
								v-1h0.7c0.2,0,0.3,0,0.5-0.1s0.3-0.2,0.4-0.3s0.2-0.3,0.3-0.4s0.1-0.3,0.1-0.5v-0.7h1.9c0.2,0,0.3,0,0.5-0.1s0.3-0.2,0.4-0.3
								s0.2-0.3,0.3-0.4s0.1-0.3,0.1-0.5v-15.1c0-0.2,0-0.4-0.1-0.5s-0.2-0.3-0.3-0.4s-0.2-0.2-0.4-0.3S313.2,266.8,313,266.8"/>
						</defs>
						<clipPath id="SVGID_00000021084456196349637720000003967254322065693334_">
							<use xlink:href="#SVGID_00000101095782242485570560000002771865916058761345_"  style="overflow:visible;"/>
						</clipPath>
						<g style="clip-path:url(#SVGID_00000021084456196349637720000003967254322065693334_);">
							<path class="st6" d="M299.7,266.8H299v5.7c0,0.1,0,0.1,0,0.2s0,0.1,0.1,0.1s0.1,0.1,0.1,0.1h0.1h0.1c0,0,0.1,0,0.1-0.1
								s0.1-0.1,0.1-0.1s0-0.1,0-0.2L299.7,266.8"/>
							<path class="st6" d="M304.1,266.8h-0.8v5.7c0,0.1,0,0.1,0,0.2s0,0.1,0.1,0.1s0.1,0.1,0.1,0.1h0.1h0.1c0,0,0.1,0,0.1-0.1
								s0.1-0.1,0.1-0.1s0-0.1,0-0.2L304.1,266.8"/>
							<path class="st6" d="M308.4,266.8h-0.8v5.8c0,0.1,0,0.1,0,0.2s0,0.1,0.1,0.1s0.1,0.1,0.1,0.1h0.1h0.1c0,0,0.1,0,0.1-0.1
								s0.1-0.1,0.1-0.1s0-0.1,0-0.2L308.4,266.8"/>
						</g>
					</g>
				</g>
			</g>
			<path class="st4" d="M271.3,266.8h-3.1h-1.5v5.7c0,0.1,0,0.1,0,0.2s0,0.1-0.1,0.1s-0.1,0.1-0.1,0.1h-0.1h-0.1c0,0-0.1,0-0.1-0.1
				s-0.1-0.1-0.1-0.1s0-0.1,0-0.2v-5.7h-3.5v5.7c0,0.1,0,0.1,0,0.2s0,0.1-0.1,0.1s-0.1,0.1-0.1,0.1h-0.1h-0.1c0,0-0.1,0-0.1-0.1
				s-0.1-0.1-0.1-0.1s0-0.1,0-0.2v-5.7h-3.5v5.7c0,0.1,0,0.1,0,0.2s0,0.1-0.1,0.1s-0.1,0.1-0.1,0.1h-0.1h-0.1c0,0-0.1,0-0.1-0.1
				s-0.1-0.1-0.1-0.1s0-0.1,0-0.2v-5.7h-0.7h-3.1c-0.2,0-0.3,0-0.5,0.1s-0.3,0.2-0.4,0.3s-0.2,0.3-0.3,0.4s-0.1,0.3-0.1,0.5v15
				c0,0.2,0,0.4,0.1,0.5s0.2,0.3,0.3,0.4s0.2,0.2,0.4,0.3s0.3,0.1,0.5,0.1h1.8v0.7c0,0.2,0,0.4,0.1,0.5c0.1,0.1,0.2,0.3,0.3,0.4
				s0.2,0.2,0.4,0.3s0.3,0.1,0.5,0.1h0.7v1c0,0.2,0,0.4,0.1,0.5s0.2,0.3,0.3,0.4s0.2,0.2,0.4,0.3s0.3,0.1,0.5,0.1h7.6
				c0.2,0,0.3,0,0.5-0.1s0.3-0.2,0.4-0.3s0.2-0.3,0.3-0.4s0.1-0.3,0.1-0.5v-1h0.7c0.2,0,0.3,0,0.5-0.1s0.3-0.2,0.4-0.3
				s0.2-0.3,0.3-0.4s0.1-0.3,0.1-0.5v-0.7h1.8c0.2,0,0.3,0,0.5-0.1s0.3-0.2,0.4-0.3s0.2-0.3,0.3-0.4s0.1-0.3,0.1-0.5V268
				c0-0.2,0-0.4-0.1-0.5s-0.1-0.3-0.3-0.4s-0.2-0.2-0.4-0.3S271.6,266.8,271.3,266.8"/>
			<g>
				<g>
					<g>
						<defs>
							<path id="SVGID_00000062873793701711639770000008313163229707081121_" d="M271.3,266.8h-3.1h-11.5h-3.1c-0.2,0-0.3,0-0.5,0.1
								s-0.3,0.2-0.4,0.3s-0.2,0.3-0.3,0.4s-0.1,0.3-0.1,0.5v15c0,0.2,0,0.4,0.1,0.5s0.2,0.3,0.3,0.4s0.2,0.2,0.4,0.3
								s0.3,0.1,0.5,0.1h1.8v0.7c0,0.2,0,0.4,0.1,0.5s0.2,0.3,0.3,0.4s0.3,0.2,0.4,0.3s0.3,0.1,0.5,0.1h0.7v1c0,0.2,0,0.4,0.1,0.5
								s0.2,0.3,0.3,0.4s0.2,0.2,0.4,0.3s0.3,0.1,0.5,0.1h7.6c0.2,0,0.3,0,0.5-0.1s0.3-0.2,0.4-0.3s0.2-0.3,0.3-0.4s0.1-0.3,0.1-0.5
								v-1h0.7c0.2,0,0.3,0,0.5-0.1s0.3-0.2,0.4-0.3s0.2-0.3,0.3-0.4s0.1-0.3,0.1-0.5v-0.7h1.8c0.2,0,0.3,0,0.5-0.1s0.3-0.2,0.4-0.3
								s0.2-0.3,0.3-0.4s0.1-0.3,0.1-0.5V268c0-0.2,0-0.4-0.1-0.5s-0.1-0.3-0.3-0.4s-0.2-0.2-0.4-0.3S271.5,266.8,271.3,266.8"/>
						</defs>
						<clipPath id="SVGID_00000111175607627109384970000000327431908260148870_">
							<use xlink:href="#SVGID_00000062873793701711639770000008313163229707081121_"  style="overflow:visible;"/>
						</clipPath>
						<g style="clip-path:url(#SVGID_00000111175607627109384970000000327431908260148870_);">
							<path class="st6" d="M258.2,266.8h-0.8v5.7c0,0.1,0,0.1,0,0.2s0,0.1,0.1,0.1s0.1,0.1,0.1,0.1h0.1h0.1c0,0,0.1,0,0.1-0.1
								s0.1-0.1,0.1-0.1s0-0.1,0-0.2L258.2,266.8"/>
							<path class="st6" d="M262.5,266.8h-0.8v5.7c0,0.1,0,0.1,0,0.2s0,0.1,0.1,0.1s0.1,0.1,0.1,0.1h0.1h0.1c0,0,0.1,0,0.1-0.1
								s0.1-0.1,0.1-0.1s0-0.1,0-0.2L262.5,266.8"/>
							<path class="st6" d="M266.8,266.8H266v5.7c0,0.1,0,0.1,0,0.2s0,0.1,0.1,0.1s0.1,0.1,0.1,0.1h0.1h0.1c0,0,0.1,0,0.1-0.1
								s0.1-0.1,0.1-0.1s0-0.1,0-0.2L266.8,266.8"/>
						</g>
					</g>
				</g>
			</g>
			<path class="st4" d="M230,266.8h-3.1h-1.5v5.7c0,0.1,0,0.1,0,0.2s-0.1,0.1-0.1,0.1l-0.1,0.1h-0.1H225c0,0-0.1,0-0.1-0.1
				s-0.1-0.1-0.1-0.1s0-0.1,0-0.2v-5.7h-3.5v5.7c0,0.1,0,0.1,0,0.2s-0.1,0.1-0.1,0.1l-0.1,0.1H221h-0.1c0,0-0.1,0-0.1-0.1
				s-0.1-0.1-0.1-0.1s0-0.1,0-0.2v-5.7h-3.5v5.7c0,0.1,0,0.1,0,0.2s-0.1,0.1-0.1,0.1l-0.1,0.1h-0.1h-0.1c0,0-0.1,0-0.1-0.1
				s-0.1-0.1-0.1-0.1s0-0.1,0-0.2v-5.7h-0.7h-3.1c-0.2,0-0.3,0-0.5,0.1s-0.3,0.2-0.4,0.3s-0.2,0.3-0.3,0.4s-0.1,0.3-0.1,0.5v15
				c0,0.2,0,0.4,0.1,0.5s0.1,0.3,0.3,0.4s0.2,0.2,0.4,0.3s0.3,0.1,0.5,0.1h1.8v0.7c0,0.2,0,0.4,0.1,0.5s0.1,0.3,0.3,0.4
				s0.2,0.2,0.4,0.3s0.3,0.1,0.5,0.1h0.7v1c0,0.2,0,0.4,0.1,0.5s0.1,0.3,0.3,0.4s0.2,0.2,0.4,0.3s0.3,0.1,0.5,0.1h7.5
				c0.2,0,0.3,0,0.5-0.1s0.3-0.2,0.4-0.3s0.2-0.3,0.3-0.4s0.1-0.3,0.1-0.5v-1h0.7c0.2,0,0.3,0,0.5-0.1s0.3-0.2,0.4-0.3
				s0.2-0.3,0.3-0.4s0.1-0.3,0.1-0.5v-0.7h1.8c0.2,0,0.3,0,0.5-0.1s0.3-0.2,0.4-0.3s0.2-0.3,0.3-0.4s0.1-0.3,0.1-0.5v-15
				c0-0.2,0-0.4-0.1-0.5s-0.1-0.3-0.3-0.4s-0.2-0.2-0.4-0.3S230.2,266.8,230,266.8"/>
			<g>
				<g>
					<g>
						<defs>
							<path id="SVGID_00000016036939722587175980000017196787688707098243_" d="M230,266.8h-3.1h-11.4h-3.1c-0.2,0-0.3,0-0.5,0.1
								s-0.3,0.2-0.4,0.3s-0.2,0.3-0.3,0.4s-0.1,0.3-0.1,0.5v15c0,0.2,0,0.4,0.1,0.5s0.1,0.3,0.3,0.4s0.2,0.2,0.4,0.3
								s0.3,0.1,0.5,0.1h1.8v0.7c0,0.2,0,0.4,0.1,0.5s0.1,0.3,0.3,0.4s0.2,0.2,0.4,0.3s0.3,0.1,0.5,0.1h0.7v1c0,0.2,0,0.4,0.1,0.5
								s0.1,0.3,0.3,0.4s0.2,0.2,0.4,0.3s0.3,0.1,0.5,0.1h7.5c0.2,0,0.3,0,0.5-0.1s0.3-0.2,0.4-0.3s0.2-0.3,0.3-0.4s0.1-0.3,0.1-0.5
								v-1h0.7c0.2,0,0.3,0,0.5-0.1s0.3-0.2,0.4-0.3s0.2-0.3,0.3-0.4s0.1-0.3,0.1-0.5v-0.7h1.8c0.2,0,0.3,0,0.5-0.1s0.3-0.2,0.4-0.3
								s0.2-0.3,0.3-0.4s0.1-0.3,0.1-0.5v-15c0-0.2,0-0.4-0.1-0.5s-0.1-0.3-0.3-0.4s-0.2-0.2-0.4-0.3S230.2,266.8,230,266.8"/>
						</defs>
						<clipPath id="SVGID_00000113343765331910352420000013243090559521517231_">
							<use xlink:href="#SVGID_00000016036939722587175980000017196787688707098243_"  style="overflow:visible;"/>
						</clipPath>
						<g style="clip-path:url(#SVGID_00000113343765331910352420000013243090559521517231_);">
							<path class="st6" d="M216.9,266.8h-0.8v5.7c0,0.1,0,0.1,0,0.2s0.1,0.1,0.1,0.1l0.1,0.1h0.1h0.1c0,0,0.1,0,0.1-0.1
								s0.1-0.1,0.1-0.1s0-0.1,0-0.2L216.9,266.8"/>
							<path class="st6" d="M221.2,266.8h-0.8v5.7c0,0.1,0,0.1,0,0.2s0.1,0.1,0.1,0.1l0.1,0.1h0.1h0.1c0,0,0.1,0,0.1-0.1
								s0.1-0.1,0.1-0.1s0-0.1,0-0.2L221.2,266.8"/>
							<path class="st6" d="M225.4,266.8h-0.8v5.7c0,0.1,0,0.1,0,0.2s0.1,0.1,0.1,0.1l0.1,0.1h0.1h0.1c0,0,0.1,0,0.1-0.1
								s0.1-0.1,0.1-0.1s0-0.1,0-0.2L225.4,266.8"/>
						</g>
					</g>
				</g>
			</g>
			<path class="st4" d="M189,266.8h-3.1h-1.5v5.7c0,0.1,0,0.1,0,0.2s-0.1,0.1-0.1,0.1l-0.1,0.1h-0.1H184c0,0-0.1,0-0.1-0.1
				s-0.1-0.1-0.1-0.1s0-0.1,0-0.2v-5.7h-3.5v5.7c0,0.1,0,0.1,0,0.2s-0.1,0.1-0.1,0.1l-0.1,0.1H180h-0.1c0,0-0.1,0-0.1-0.1
				s-0.1-0.1-0.1-0.1s0-0.1,0-0.2v-5.7H176v5.7c0,0.1,0,0.1,0,0.2s-0.1,0.1-0.1,0.1l-0.1,0.1h-0.1h-0.1c0,0-0.1,0-0.1-0.1
				s-0.1-0.1-0.1-0.1s0-0.1,0-0.2v-5.7h-0.7h-3c-0.2,0-0.3,0-0.5,0.1s-0.3,0.2-0.4,0.3s-0.2,0.3-0.3,0.4s-0.1,0.3-0.1,0.5v14.8
				c0,0.2,0,0.4,0.1,0.5s0.1,0.3,0.3,0.4s0.2,0.2,0.4,0.3s0.3,0.1,0.5,0.1h1.8v0.7c0,0.2,0,0.4,0.1,0.5s0.1,0.3,0.3,0.4
				s0.2,0.2,0.4,0.3s0.3,0.1,0.5,0.1h0.7v1c0,0.2,0,0.4,0.1,0.5s0.1,0.3,0.3,0.4s0.2,0.2,0.4,0.3s0.3,0.1,0.5,0.1h7.5
				c0.2,0,0.3,0,0.5-0.1s0.3-0.2,0.4-0.3s0.2-0.3,0.3-0.4s0.1-0.3,0.1-0.5v-1h0.7c0.2,0,0.3,0,0.5-0.1s0.3-0.2,0.4-0.3
				s0.2-0.3,0.3-0.4s0.1-0.3,0.1-0.5v-0.7h1.8c0.2,0,0.3,0,0.5-0.1s0.3-0.2,0.4-0.3s0.2-0.3,0.3-0.4s0.1-0.3,0.1-0.5V268
				c0-0.2,0-0.4-0.1-0.5s-0.1-0.3-0.3-0.4s-0.2-0.2-0.4-0.3S189.1,266.7,189,266.8"/>
			<g>
				<g>
					<g>
						<defs>
							<path id="SVGID_00000100351257968674126580000015198474093183508393_" d="M189,266.8h-3.1h-11.4h-3c-0.2,0-0.3,0-0.5,0.1
								s-0.3,0.2-0.4,0.3s-0.2,0.3-0.3,0.4s-0.1,0.3-0.1,0.5V283c0,0.2,0,0.4,0.1,0.5s0.1,0.3,0.3,0.4s0.2,0.2,0.4,0.3
								s0.3,0.1,0.5,0.1h1.8v0.7c0,0.2,0,0.4,0.1,0.5s0.1,0.3,0.3,0.4s0.2,0.2,0.4,0.3s0.3,0.1,0.5,0.1h0.7v1c0,0.2,0,0.4,0.1,0.5
								s0.1,0.3,0.3,0.4s0.2,0.2,0.4,0.3s0.3,0.1,0.5,0.1h7.5c0.2,0,0.3,0,0.5-0.1s0.3-0.2,0.4-0.3s0.2-0.3,0.3-0.4s0.1-0.3,0.1-0.5
								v-1h0.7c0.2,0,0.3,0,0.5-0.1s0.3-0.2,0.4-0.3s0.2-0.3,0.3-0.4s0.1-0.3,0.1-0.5v-0.7h1.8c0.2,0,0.3,0,0.5-0.1s0.3-0.2,0.4-0.3
								s0.2-0.3,0.3-0.4s0.1-0.3,0.1-0.5v-14.9c0-0.2,0-0.4-0.1-0.5s-0.1-0.3-0.3-0.4s-0.2-0.2-0.4-0.3S189.1,266.8,189,266.8"/>
						</defs>
						<clipPath id="SVGID_00000078035889276948867640000010619310531451365560_">
							<use xlink:href="#SVGID_00000100351257968674126580000015198474093183508393_"  style="overflow:visible;"/>
						</clipPath>
						<g style="clip-path:url(#SVGID_00000078035889276948867640000010619310531451365560_);">
							<path class="st6" d="M176,266.8h-0.8v5.7c0,0.1,0,0.1,0,0.2s0.1,0.1,0.1,0.1l0.1,0.1h0.1h0.1c0,0,0.1,0,0.1-0.1
								s0.1-0.1,0.1-0.1s0-0.1,0-0.2L176,266.8"/>
							<path class="st6" d="M180.2,266.8h-0.8v5.7c0,0.1,0,0.1,0,0.2s0.1,0.1,0.1,0.1l0.1,0.1h0.1h0.1c0,0,0.1,0,0.1-0.1
								s0.1-0.1,0.1-0.1s0-0.1,0-0.2L180.2,266.8"/>
							<path class="st6" d="M184.5,266.8h-0.8v5.7c0,0.1,0,0.1,0,0.2s0.1,0.1,0.1,0.1l0.1,0.1h0.1h0.1c0,0,0.1,0,0.1-0.1
								s0.1-0.1,0.1-0.1s0-0.1,0-0.2L184.5,266.8"/>
						</g>
					</g>
				</g>
			</g>
			<path class="st3" d="M75.6,266.7c-0.4,0-0.9,0.1-1.3,0.3s-0.7,0.4-1,0.8s-0.5,0.7-0.7,1.1s-0.3,0.9-0.3,1.4s0.1,1,0.3,1.4
				s0.4,0.8,0.7,1.1s0.7,0.6,1,0.8s0.8,0.3,1.3,0.3s0.9-0.1,1.3-0.3s0.7-0.4,1-0.8s0.5-0.7,0.7-1.1s0.3-0.9,0.3-1.4s-0.1-1-0.3-1.4
				s-0.4-0.8-0.7-1.1s-0.7-0.6-1-0.8S76.1,266.7,75.6,266.7"/>
			<path class="st3" d="M75.6,278.9c-0.4,0-0.9,0.1-1.3,0.3s-0.7,0.4-1,0.8s-0.5,0.7-0.7,1.1s-0.3,0.9-0.3,1.4s0.1,1,0.3,1.4
				s0.4,0.8,0.7,1.1s0.7,0.6,1,0.8s0.8,0.3,1.3,0.3s0.9-0.1,1.3-0.3s0.7-0.4,1-0.8s0.5-0.7,0.7-1.1s0.3-0.9,0.3-1.4s-0.1-1-0.3-1.4
				s-0.4-0.8-0.7-1.1s-0.7-0.6-1-0.8S76.1,278.9,75.6,278.9"/>
			<path class="st3" d="M65.7,266.6c-0.4,0-0.9,0.1-1.3,0.3s-0.7,0.4-1,0.8s-0.5,0.7-0.7,1.1s-0.3,0.9-0.3,1.4s0.1,1,0.3,1.4
				s0.4,0.8,0.7,1.1s0.7,0.6,1,0.8s0.8,0.3,1.3,0.3s0.9-0.1,1.3-0.3s0.7-0.4,1-0.8s0.5-0.7,0.7-1.1s0.3-0.9,0.3-1.4s-0.1-1-0.3-1.4
				s-0.4-0.8-0.7-1.1s-0.7-0.6-1-0.8S66.1,266.6,65.7,266.6"/>
			<path class="st3" d="M65.7,278.9c-0.4,0-0.9,0.1-1.3,0.3s-0.7,0.4-1,0.8s-0.5,0.7-0.7,1.1s-0.3,0.9-0.3,1.4s0.1,1,0.3,1.4
				s0.4,0.8,0.7,1.1s0.7,0.6,1,0.8s0.8,0.3,1.3,0.3s0.9-0.1,1.3-0.3s0.7-0.4,1-0.8s0.5-0.7,0.7-1.1s0.3-0.9,0.3-1.4s-0.1-1-0.3-1.4
				s-0.4-0.8-0.7-1.1s-0.7-0.6-1-0.8S66.1,278.9,65.7,278.9"/>
			<path class="st3" d="M55.7,266.6c-0.5,0-0.9,0.1-1.3,0.3s-0.7,0.4-1,0.8s-0.5,0.7-0.7,1.1s-0.3,0.9-0.3,1.4s0.1,1,0.3,1.4
				s0.4,0.8,0.7,1.1s0.6,0.6,1,0.8s0.8,0.3,1.3,0.3s0.9-0.1,1.3-0.3s0.7-0.4,1-0.8s0.5-0.7,0.7-1.1s0.3-0.9,0.3-1.4s-0.1-1-0.3-1.4
				s-0.4-0.8-0.7-1.1s-0.7-0.6-1-0.8S56.2,266.6,55.7,266.6"/>
			<path class="st3" d="M55.7,278.9c-0.5,0-0.9,0.1-1.3,0.3s-0.7,0.4-1,0.8s-0.5,0.7-0.7,1.1s-0.3,0.9-0.3,1.4s0.1,1,0.3,1.4
				s0.4,0.8,0.7,1.1s0.6,0.6,1,0.8s0.8,0.3,1.3,0.3s0.9-0.1,1.3-0.3s0.7-0.4,1-0.8s0.5-0.7,0.7-1.1s0.3-0.9,0.3-1.4s-0.1-1-0.3-1.4
				s-0.4-0.8-0.7-1.1s-0.7-0.6-1-0.8S56.2,278.9,55.7,278.9"/>
			<path class="st3" d="M45.8,266.6c-0.5,0-0.9,0.1-1.3,0.3s-0.7,0.4-1,0.8s-0.5,0.7-0.7,1.1s-0.2,0.9-0.2,1.4s0.1,1,0.2,1.4
				s0.4,0.8,0.7,1.1s0.6,0.6,1,0.8s0.8,0.3,1.3,0.3s0.9-0.1,1.3-0.3s0.7-0.4,1-0.8s0.5-0.7,0.7-1.1s0.2-0.9,0.2-1.4s-0.1-1-0.2-1.4
				s-0.4-0.8-0.7-1.1s-0.6-0.6-1-0.8S46.2,266.6,45.8,266.6"/>
			<path class="st3" d="M45.8,278.9c-0.5,0-0.9,0.1-1.3,0.3s-0.7,0.4-1,0.8s-0.5,0.7-0.7,1.1s-0.2,0.9-0.2,1.4s0.1,1,0.2,1.4
				s0.4,0.8,0.7,1.1s0.6,0.6,1,0.8s0.8,0.3,1.3,0.3s0.9-0.1,1.3-0.3s0.7-0.4,1-0.8s0.5-0.7,0.7-1.1s0.2-0.9,0.2-1.4s-0.1-1-0.2-1.4
				s-0.4-0.8-0.7-1.1s-0.6-0.6-1-0.8S46.2,278.9,45.8,278.9"/>
			<path class="st3" d="M35.9,266.6c-0.5,0-0.9,0.1-1.3,0.3s-0.7,0.4-1,0.8s-0.5,0.7-0.7,1.1s-0.3,0.9-0.3,1.4s0.1,1,0.3,1.4
				s0.4,0.8,0.7,1.1s0.6,0.6,1,0.8s0.8,0.3,1.3,0.3s0.9-0.1,1.3-0.3s0.7-0.4,1-0.8s0.5-0.7,0.7-1.1s0.2-0.9,0.2-1.4s-0.1-1-0.2-1.4
				s-0.4-0.8-0.7-1.1s-0.6-0.6-1-0.8S36.3,266.6,35.9,266.6"/>
			<path class="st3" d="M35.9,278.8c-0.5,0-0.9,0.1-1.3,0.3s-0.7,0.4-1,0.8s-0.5,0.7-0.7,1.1s-0.3,0.9-0.3,1.4s0.1,1,0.3,1.4
				s0.4,0.8,0.7,1.1s0.6,0.6,1,0.8s0.8,0.3,1.3,0.3s0.9-0.1,1.3-0.3s0.7-0.4,1-0.8s0.5-0.7,0.7-1.1s0.2-0.9,0.2-1.4s-0.1-1-0.2-1.4
				s-0.4-0.8-0.7-1.1s-0.6-0.6-1-0.8S36.3,278.8,35.9,278.8"/>
			<path class="st3" d="M26,266.6c-0.5,0-0.9,0.1-1.3,0.3s-0.7,0.4-1,0.8s-0.5,0.7-0.7,1.1s-0.2,0.9-0.2,1.4s0.1,1,0.2,1.4
				s0.4,0.8,0.7,1.1s0.6,0.6,1,0.8s0.8,0.3,1.3,0.3s0.9-0.1,1.3-0.3s0.7-0.4,1-0.8s0.5-0.7,0.7-1.1s0.2-0.9,0.2-1.4s-0.1-1-0.2-1.4
				s-0.4-0.8-0.7-1.1s-0.6-0.6-1-0.8S26.5,266.6,26,266.6"/>
			<path class="st3" d="M26,278.8c-0.5,0-0.9,0.1-1.3,0.3s-0.7,0.4-1,0.8s-0.5,0.7-0.7,1.1s-0.2,0.9-0.2,1.4s0.1,1,0.2,1.4
				s0.4,0.8,0.7,1.1s0.6,0.6,1,0.8s0.8,0.3,1.3,0.3s0.9-0.1,1.3-0.3s0.7-0.4,1-0.8s0.5-0.7,0.7-1.1s0.2-0.9,0.2-1.4s-0.1-1-0.2-1.4
				s-0.4-0.8-0.7-1.1s-0.6-0.6-1-0.8S26.5,278.8,26,278.8"/>
			<path class="st3" d="M75.6,237.2c-0.4,0-0.9,0.1-1.3,0.3s-0.7,0.4-1,0.8s-0.5,0.7-0.7,1.1s-0.3,0.9-0.3,1.4s0.1,1,0.3,1.4
				s0.4,0.8,0.7,1.1s0.7,0.6,1,0.8s0.8,0.3,1.3,0.3s0.9-0.1,1.3-0.3s0.7-0.4,1-0.8s0.5-0.7,0.7-1.1s0.3-0.9,0.3-1.4s-0.1-1-0.3-1.4
				s-0.4-0.8-0.7-1.1s-0.7-0.6-1-0.8S76.1,237.2,75.6,237.2"/>
			<path class="st3" d="M75.6,249.5c-0.4,0-0.9,0.1-1.3,0.3s-0.7,0.4-1,0.8s-0.5,0.7-0.7,1.1s-0.3,0.9-0.3,1.4s0.1,1,0.3,1.4
				s0.4,0.8,0.7,1.1s0.7,0.6,1,0.8s0.8,0.3,1.3,0.3s0.9-0.1,1.3-0.3s0.7-0.4,1-0.8c0.3-0.4,0.5-0.7,0.7-1.1s0.3-0.9,0.3-1.4
				s-0.1-1-0.3-1.4s-0.4-0.8-0.7-1.1s-0.7-0.6-1-0.8S76.1,249.5,75.6,249.5"/>
			<path class="st3" d="M65.7,237.2c-0.4,0-0.9,0.1-1.3,0.3s-0.7,0.4-1,0.8s-0.5,0.7-0.7,1.1s-0.3,0.9-0.3,1.4s0.1,1,0.3,1.4
				s0.4,0.8,0.7,1.1s0.7,0.6,1,0.8s0.8,0.3,1.3,0.3s0.9-0.1,1.3-0.3s0.7-0.4,1-0.8s0.5-0.7,0.7-1.1s0.3-0.9,0.3-1.4s-0.1-1-0.3-1.4
				s-0.4-0.8-0.7-1.1s-0.7-0.6-1-0.8S66.1,237.2,65.7,237.2"/>
			<path class="st3" d="M65.7,249.5c-0.4,0-0.9,0.1-1.3,0.3s-0.7,0.4-1,0.8s-0.5,0.7-0.7,1.1s-0.3,0.9-0.3,1.4s0.1,1,0.3,1.4
				s0.4,0.8,0.7,1.1s0.7,0.6,1,0.8s0.8,0.3,1.3,0.3s0.9-0.1,1.3-0.3s0.7-0.4,1-0.8c0.3-0.4,0.5-0.7,0.7-1.1s0.3-0.9,0.3-1.4
				s-0.1-1-0.3-1.4s-0.4-0.8-0.7-1.1s-0.7-0.6-1-0.8S66.1,249.5,65.7,249.5"/>
			<path class="st3" d="M55.7,237.3c-0.5,0-0.9,0.1-1.3,0.3s-0.7,0.4-1,0.8s-0.5,0.7-0.7,1.1s-0.3,0.9-0.3,1.4s0.1,1,0.3,1.4
				s0.4,0.8,0.7,1.1s0.6,0.6,1,0.8s0.8,0.3,1.3,0.3s0.9-0.1,1.3-0.3s0.7-0.4,1-0.8s0.5-0.7,0.7-1.1s0.3-0.9,0.3-1.4s-0.1-1-0.3-1.4
				s-0.4-0.8-0.7-1.1s-0.7-0.6-1-0.8S56.2,237.2,55.7,237.3"/>
			<path class="st3" d="M55.7,249.5c-0.5,0-0.9,0.1-1.3,0.3s-0.7,0.4-1,0.8s-0.5,0.7-0.7,1.1s-0.3,0.9-0.3,1.4s0.1,1,0.3,1.4
				s0.4,0.8,0.7,1.1s0.6,0.6,1,0.8s0.8,0.3,1.3,0.3s0.9-0.1,1.3-0.3s0.7-0.4,1-0.8c0.3-0.4,0.5-0.7,0.7-1.1s0.3-0.9,0.3-1.4
				s-0.1-1-0.3-1.4s-0.4-0.8-0.7-1.1s-0.7-0.6-1-0.8S56.2,249.5,55.7,249.5"/>
			<path class="st3" d="M45.8,237.3c-0.5,0-0.9,0.1-1.3,0.3s-0.7,0.4-1,0.8s-0.5,0.7-0.7,1.1s-0.2,0.9-0.2,1.4s0.1,1,0.2,1.4
				s0.4,0.8,0.7,1.1s0.6,0.6,1,0.8s0.8,0.3,1.3,0.3s0.9-0.1,1.3-0.3s0.7-0.4,1-0.8s0.5-0.7,0.7-1.1s0.2-0.9,0.2-1.4s-0.1-1-0.2-1.4
				s-0.4-0.8-0.7-1.1s-0.6-0.6-1-0.8S46.2,237.3,45.8,237.3"/>
			<path class="st3" d="M45.8,249.5c-0.5,0-0.9,0.1-1.3,0.3s-0.7,0.4-1,0.8s-0.5,0.7-0.7,1.1s-0.2,0.9-0.2,1.4s0.1,1,0.2,1.4
				s0.4,0.8,0.7,1.1s0.6,0.6,1,0.8s0.8,0.3,1.3,0.3s0.9-0.1,1.3-0.3s0.7-0.4,1-0.8c0.3-0.4,0.5-0.7,0.7-1.1s0.2-0.9,0.2-1.4
				s-0.1-1-0.2-1.4s-0.4-0.8-0.7-1.1s-0.6-0.6-1-0.8S46.2,249.5,45.8,249.5"/>
			<path class="st3" d="M35.9,237.3c-0.5,0-0.9,0.1-1.3,0.3s-0.7,0.4-1,0.8s-0.5,0.7-0.7,1.1s-0.3,0.9-0.3,1.4s0.1,1,0.3,1.4
				s0.4,0.8,0.7,1.1s0.6,0.6,1,0.8s0.8,0.3,1.3,0.3s0.9-0.1,1.3-0.3s0.7-0.4,1-0.8s0.5-0.7,0.7-1.1s0.2-0.9,0.2-1.4s-0.1-1-0.2-1.4
				s-0.4-0.8-0.7-1.1s-0.6-0.6-1-0.8S36.3,237.3,35.9,237.3"/>
			<path class="st3" d="M35.9,249.5c-0.5,0-0.9,0.1-1.3,0.3s-0.7,0.4-1,0.8s-0.5,0.7-0.7,1.1s-0.3,0.9-0.3,1.4s0.1,1,0.3,1.4
				s0.4,0.8,0.7,1.1s0.6,0.6,1,0.8s0.8,0.3,1.3,0.3s0.9-0.1,1.3-0.3s0.7-0.4,1-0.8c0.3-0.4,0.5-0.7,0.7-1.1s0.2-0.9,0.2-1.4
				s-0.1-1-0.2-1.4s-0.4-0.8-0.7-1.1s-0.6-0.6-1-0.8S36.3,249.5,35.9,249.5"/>
			<path class="st3" d="M26,237.3c-0.5,0-0.9,0.1-1.3,0.3s-0.7,0.4-1,0.8s-0.5,0.7-0.7,1.1s-0.2,0.9-0.2,1.4s0.1,1,0.2,1.4
				s0.4,0.8,0.7,1.1s0.6,0.6,1,0.8s0.8,0.3,1.3,0.3s0.9-0.1,1.3-0.3s0.7-0.4,1-0.8s0.5-0.7,0.7-1.1s0.2-0.9,0.2-1.4s-0.1-1-0.2-1.4
				s-0.4-0.8-0.7-1.1s-0.6-0.6-1-0.8S26.5,237.3,26,237.3"/>
			<path class="st3" d="M26,249.5c-0.5,0-0.9,0.1-1.3,0.3s-0.7,0.4-1,0.8s-0.5,0.7-0.7,1.1s-0.2,0.9-0.2,1.4s0.1,1,0.2,1.4
				s0.4,0.8,0.7,1.1s0.6,0.6,1,0.8s0.8,0.3,1.3,0.3s0.9-0.1,1.3-0.3s0.7-0.4,1-0.8c0.3-0.4,0.5-0.7,0.7-1.1s0.2-0.9,0.2-1.4
				s-0.1-1-0.2-1.4s-0.4-0.8-0.7-1.1s-0.6-0.6-1-0.8S26.5,249.5,26,249.5"/>
		</g>
	</g>
	<g>
		<polygon class="st2" points="873.2,279.5 551.3,324.7 551.3,199.6 871.3,177.9 		"/>
		<g>
			<path class="st22" d="M605.2,224c0,4.3-3.1,8-6.9,8.4s-6.9-2.9-6.9-7.2s3.1-8.1,6.9-8.4S605.2,219.7,605.2,224z"/>
			<path class="st22" d="M627.9,222.1c0,4.2-3.1,7.9-6.9,8.3s-6.9-2.8-6.9-7.1s3.1-8,6.9-8.3S627.8,217.9,627.9,222.1z"/>
			<path class="st22" d="M650.5,220.2c0,4.2-3,7.8-6.8,8.2s-6.9-2.8-6.9-7s3-7.9,6.8-8.2S650.5,216,650.5,220.2z"/>
			<path class="st22" d="M673.1,218.3c0,4.1-3,7.7-6.8,8.1s-6.9-2.8-6.9-6.9s3-7.8,6.8-8.1S673.1,214.1,673.1,218.3z"/>
			<path class="st22" d="M695.8,216.4c0,4-3,7.6-6.8,8s-6.9-2.7-6.9-6.8s3-7.6,6.8-8S695.7,212.3,695.8,216.4z"/>
			<path class="st22" d="M718.4,214.4c0,4-3,7.5-6.8,7.9s-6.9-2.6-7-6.7s3-7.5,6.8-7.9S718.4,210.4,718.4,214.4z"/>
			<path class="st22" d="M741,212.5c0,3.9-3,7.4-6.8,7.7s-6.9-2.6-7-6.6s3-7.4,6.8-7.7S741,208.6,741,212.5z"/>
			<path class="st22" d="M763.7,210.6c0,3.9-3,7.3-6.8,7.6s-6.9-2.6-7-6.5s3-7.3,6.8-7.6S763.6,206.7,763.7,210.6z"/>
			<path class="st22" d="M786.3,208.7c0,3.8-3,7.2-6.8,7.5s-6.9-2.5-7-6.4s3-7.2,6.8-7.5S786.2,204.9,786.3,208.7z"/>
			<path class="st22" d="M808.9,206.8c0,3.8-3,7.1-6.8,7.4s-6.9-2.5-7-6.3s3-7.1,6.8-7.4S808.8,203,808.9,206.8z"/>
			<path class="st22" d="M831.5,204.8c0.1,3.7-3,7-6.8,7.3s-6.9-2.4-7-6.1s3-7,6.8-7.3S831.5,201.1,831.5,204.8z"/>
			<path class="st22" d="M616.6,245.4c0,4.3-3.1,8-6.9,8.4s-6.9-2.8-6.9-7.1s3.1-8.1,6.9-8.4S616.6,241.1,616.6,245.4z"/>
			<path class="st22" d="M639.3,243.1c0,4.2-3.1,7.9-6.9,8.3s-6.9-2.7-6.9-7s3.1-8,6.9-8.3S639.3,238.9,639.3,243.1z"/>
			<path class="st22" d="M661.9,240.9c0,4.1-3,7.8-6.9,8.2s-6.9-2.7-6.9-6.9s3-7.9,6.9-8.2S661.9,236.8,661.9,240.9z"/>
			<path class="st22" d="M684.6,238.7c0,4.1-3,7.7-6.8,8.1s-6.9-2.6-7-6.8s3-7.8,6.8-8.1S684.6,234.6,684.6,238.7z"/>
			<path class="st22" d="M707.2,236.4c0,4-3,7.6-6.8,8s-6.9-2.6-7-6.6s3-7.6,6.8-8S707.2,232.4,707.2,236.4z"/>
			<path class="st22" d="M729.9,234.2c0,4-3,7.5-6.8,7.9s-6.9-2.5-7-6.5s3-7.5,6.8-7.9S729.9,230.3,729.9,234.2z"/>
			<path class="st22" d="M752.6,232c0,3.9-3,7.4-6.8,7.8s-6.9-2.5-7-6.4s3-7.4,6.8-7.8S752.5,228.1,752.6,232z"/>
			<path class="st22" d="M775.2,229.8c0,3.9-3,7.3-6.8,7.7s-6.9-2.4-7-6.3s3-7.3,6.8-7.7S775.2,225.9,775.2,229.8z"/>
			<path class="st22" d="M797.9,227.5c0,3.8-3,7.2-6.8,7.6s-6.9-2.4-7-6.2s3-7.2,6.8-7.6S797.8,223.8,797.9,227.5z"/>
			<path class="st22" d="M820.5,225.3c0.1,3.7-3,7.1-6.8,7.5s-6.9-2.3-7-6.1s3-7.1,6.8-7.5S820.5,221.6,820.5,225.3z"/>
			<path class="st22" d="M605.3,268.9c0,4.3-3.1,8.1-6.9,8.6s-6.9-2.7-6.9-7s3.1-8.2,6.9-8.6S605.3,264.6,605.3,268.9z"/>
			<path class="st22" d="M628,266.4c0,4.2-3.1,8-6.9,8.5s-6.9-2.7-6.9-6.9s3.1-8.1,6.9-8.5S628,262.1,628,266.4z"/>
			<path class="st22" d="M650.7,263.8c0,4.2-3,7.9-6.9,8.4s-6.9-2.6-6.9-6.8s3.1-8,6.9-8.4S650.7,259.7,650.7,263.8z"/>
			<path class="st22" d="M673.4,261.3c0,4.1-3,7.8-6.9,8.2s-6.9-2.6-7-6.7s3-7.8,6.9-8.2S673.4,257.2,673.4,261.3z"/>
			<path class="st22" d="M696.1,258.8c0,4-3,7.7-6.8,8.1s-6.9-2.5-7-6.6s3-7.7,6.8-8.1S696,254.7,696.1,258.8z"/>
			<path class="st22" d="M718.8,256.3c0,4-3,7.6-6.8,8s-6.9-2.5-7-6.5c-0.1-4,3-7.6,6.8-8S718.7,252.3,718.8,256.3z"/>
			<path class="st22" d="M741.4,253.7c0,3.9-3,7.5-6.8,7.9s-6.9-2.4-7-6.4c-0.1-4,3-7.5,6.8-7.9S741.4,249.8,741.4,253.7z"/>
			<path class="st22" d="M764.1,251.2c0,3.9-3,7.4-6.8,7.8s-6.9-2.4-7-6.3c-0.1-3.9,3-7.4,6.8-7.8S764.1,247.3,764.1,251.2z"/>
			<path class="st22" d="M786.8,248.7c0,3.8-3,7.3-6.8,7.7s-7-2.3-7-6.2s3-7.3,6.8-7.7S786.8,244.8,786.8,248.7z"/>
			<path class="st22" d="M809.5,246.1c0,3.8-3,7.2-6.8,7.6s-7-2.3-7-6.1s3-7.2,6.8-7.6S809.4,242.4,809.5,246.1z"/>
			<path class="st22" d="M832.2,243.6c0.1,3.7-3,7.1-6.8,7.5s-7-2.2-7-6s3-7.1,6.8-7.5S832.1,239.9,832.2,243.6z"/>
			<path class="st22" d="M616.8,289.9c0,4.3-3.1,8.1-6.9,8.6s-6.9-2.6-6.9-6.9s3.1-8.1,6.9-8.6S616.8,285.7,616.8,289.9z"/>
			<path class="st22" d="M639.5,287.1c0,4.2-3.1,8-6.9,8.5s-6.9-2.5-6.9-6.8s3.1-8,6.9-8.5S639.4,282.9,639.5,287.1z"/>
			<path class="st22" d="M662.2,284.3c0,4.1-3,7.9-6.9,8.4s-6.9-2.5-7-6.7s3.1-7.9,6.9-8.4C659,277.1,662.2,280.1,662.2,284.3z"/>
			<path class="st22" d="M684.9,281.4c0,4.1-3,7.8-6.9,8.3s-6.9-2.4-7-6.6s3-7.8,6.9-8.3S684.9,277.3,684.9,281.4z"/>
			<path class="st22" d="M707.6,278.6c0,4-3,7.7-6.8,8.2s-6.9-2.4-7-6.5s3-7.7,6.8-8.2S707.6,274.5,707.6,278.6z"/>
			<path class="st22" d="M730.3,275.7c0,4-3,7.6-6.8,8.1s-6.9-2.4-7-6.4s3-7.6,6.8-8.1S730.3,271.8,730.3,275.7z"/>
			<path class="st22" d="M753,272.9c0,3.9-3,7.5-6.8,8s-7-2.3-7-6.2s3-7.5,6.8-8S753,269,753,272.9z"/>
			<path class="st22" d="M775.7,270c0,3.9-3,7.4-6.8,7.9s-7-2.2-7-6.1s3-7.4,6.8-7.9S775.7,266.2,775.7,270z"/>
			<path class="st22" d="M798.4,267.2c0,3.8-3,7.3-6.8,7.8s-7-2.2-7-6s3-7.3,6.8-7.8S798.4,263.4,798.4,267.2z"/>
			<path class="st22" d="M821.1,264.4c0.1,3.7-3,7.2-6.8,7.6s-7-2.2-7-5.9s3-7.2,6.8-7.6S821.1,260.6,821.1,264.4z"/>
		</g>
	</g>
</g>
<g>
	<g>
		<path class="st23" d="M309,259.3h-10.9c-2.6,0-4.6-2.1-4.6-4.6v-11.1c0-2.5,1.9-4.5,4.4-4.6l10.9-0.7c2.7-0.2,4.9,2,4.9,4.6v11.8
			C313.6,257.2,311.6,259.3,309,259.3z"/>
		<path class="st24" d="M308,259.2h-10c-2.5,0-4.6-2-4.6-4.6v-10.2c0-2.4,1.9-4.4,4.3-4.6l10-0.6c2.6-0.2,4.9,1.9,4.9,4.6v10.9
			C312.6,257.1,310.6,259.2,308,259.2z"/>
	</g>
	<g>
		<path class="st23" d="M307.1,259.6h-10.4c-2.4,0-4.4-2-4.4-4.4v-10.6c0-2.3,1.8-4.3,4.1-4.4l10.4-0.6c2.5-0.2,4.7,1.9,4.7,4.4
			v11.3C311.5,257.6,309.5,259.6,307.1,259.6L307.1,259.6z"/>
		<path class="st24" d="M306.2,259.6h-9.5c-2.4,0-4.4-2-4.4-4.4v-9.8c0-2.3,1.8-4.2,4.1-4.4l9.5-0.6c2.5-0.2,4.6,1.8,4.6,4.4v10.4
			C310.5,257.6,308.6,259.6,306.2,259.6L306.2,259.6z"/>
	</g>
	<g>
		<path class="st23" d="M305.2,260h-9.9c-2.3,0-4.2-1.9-4.2-4.2v-10.2c0-2.2,1.7-4,3.9-4.2l9.9-0.6c2.4-0.1,4.4,1.8,4.4,4.2v10.8
			C309.4,258.1,307.5,260,305.2,260L305.2,260z"/>
		<path class="st24" d="M304.4,259.9h-9.1c-2.3,0-4.1-1.9-4.1-4.1v-9.4c0-2.2,1.7-4,3.9-4.1l9.1-0.6c2.4-0.1,4.4,1.7,4.4,4.1v9.9
			C308.5,258.1,306.6,259.9,304.4,259.9L304.4,259.9z"/>
	</g>
	<g>
		<path class="st23" d="M303.3,260.4h-9.4c-2.2,0-4-1.8-4-4v-9.7c0-2.1,1.6-3.8,3.7-3.9l9.4-0.6c2.3-0.1,4.2,1.7,4.2,3.9v10.3
			C307.3,258.6,305.5,260.4,303.3,260.4L303.3,260.4z"/>
		<path class="st24" d="M302.5,260.3h-8.7c-2.1,0-3.9-1.7-3.9-3.9v-8.9c0-2,1.6-3.8,3.6-3.9l8.7-0.5c2.2-0.1,4.1,1.6,4.1,3.9v9.5
			C306.4,258.6,304.6,260.3,302.5,260.3L302.5,260.3z"/>
	</g>
	<g>
		<path class="st23" d="M301.4,260.7h-9c-2,0-3.7-1.7-3.7-3.7v-9.2c0-2,1.5-3.6,3.5-3.7l9-0.6c2.1-0.1,3.9,1.6,3.9,3.7v9.8
			C305.1,259.1,303.5,260.7,301.4,260.7L301.4,260.7z"/>
		<path class="st24" d="M300.7,260.7h-8.2c-2,0-3.7-1.6-3.7-3.7v-8.5c0-1.9,1.5-3.5,3.4-3.6l8.2-0.5c2.1-0.1,3.9,1.5,3.9,3.6v9
			C304.3,259,302.7,260.7,300.7,260.7L300.7,260.7z"/>
	</g>
</g>
<path class="st23" d="M303.2,240.5c0,0,0.9-5.5,3.9-5.7H302c0,0-2.1,2.7-2,5.4S303.2,240.5,303.2,240.5L303.2,240.5z"/>
<path class="st24" d="M299,253.9c-0.1,7.5-0.4,26-0.5,33.2c-0.1,3.7,0,7.3-0.4,11.2c-1.3,11.5-8,22.2-17.8,28.4
	c-3.2,2.1-6.8,3.5-10.5,4.6c-6.4,2-15.7,1.2-22.3,1.2c-14.2-0.2-51.8-0.7-66.4-0.9c21.9-0.4,58.7-0.6,80.2-1.2
	c6.2-0.4,12.4-2.5,17.5-6c8.9-5.9,14.7-15.8,15.6-26.4c0.3-6.1-0.1-15.6-0.1-22l-0.3-22.1H299L299,253.9z"/>
<g>
	<g>
		<path class="st23" d="M411.1,259.3h-10.9c-2.6,0-4.6-2.1-4.6-4.6v-11.1c0-2.5,1.9-4.5,4.4-4.6l10.9-0.7c2.7-0.2,4.9,2,4.9,4.6
			v11.8C415.8,257.2,413.7,259.3,411.1,259.3z"/>
		<path class="st24" d="M410.2,259.2h-10c-2.5,0-4.6-2-4.6-4.6v-10.2c0-2.4,1.9-4.4,4.3-4.6l10-0.6c2.6-0.2,4.9,1.9,4.9,4.6v10.9
			C414.8,257.1,412.7,259.2,410.2,259.2z"/>
	</g>
	<g>
		<path class="st23" d="M409.3,259.6h-10.4c-2.4,0-4.4-2-4.4-4.4v-10.6c0-2.3,1.8-4.3,4.1-4.4l10.4-0.6c2.5-0.2,4.7,1.9,4.7,4.4
			v11.3C413.7,257.6,411.7,259.6,409.3,259.6L409.3,259.6z"/>
		<path class="st24" d="M408.4,259.6h-9.5c-2.4,0-4.4-2-4.4-4.4v-9.8c0-2.3,1.8-4.2,4.1-4.4l9.5-0.6c2.5-0.2,4.6,1.8,4.6,4.4v10.4
			C412.7,257.6,410.8,259.6,408.4,259.6L408.4,259.6z"/>
	</g>
	<g>
		<path class="st23" d="M407.4,260h-9.9c-2.3,0-4.2-1.9-4.2-4.2v-10.2c0-2.2,1.7-4,3.9-4.2l9.9-0.6c2.4-0.1,4.4,1.8,4.4,4.2v10.8
			C411.6,258.1,409.7,260,407.4,260L407.4,260z"/>
		<path class="st24" d="M406.5,259.9h-9.1c-2.3,0-4.1-1.9-4.1-4.1v-9.4c0-2.2,1.7-4,3.9-4.1l9.1-0.6c2.4-0.1,4.4,1.7,4.4,4.1v9.9
			C410.6,258.1,408.8,259.9,406.5,259.9L406.5,259.9z"/>
	</g>
	<g>
		<path class="st23" d="M405.5,260.4H396c-2.2,0-4-1.8-4-4v-9.7c0-2.1,1.6-3.8,3.7-3.9l9.4-0.6c2.3-0.1,4.2,1.7,4.2,3.9v10.3
			C409.4,258.6,407.7,260.4,405.5,260.4L405.5,260.4z"/>
		<path class="st24" d="M404.7,260.3H396c-2.1,0-3.9-1.7-3.9-3.9v-8.9c0-2,1.6-3.8,3.6-3.9l8.7-0.5c2.2-0.1,4.1,1.6,4.1,3.9v9.5
			C408.5,258.6,406.8,260.3,404.7,260.3L404.7,260.3z"/>
	</g>
	<g>
		<path class="st23" d="M403.6,260.7h-9c-2,0-3.7-1.7-3.7-3.7v-9.2c0-2,1.5-3.6,3.5-3.7l9-0.6c2.1-0.1,3.9,1.6,3.9,3.7v9.8
			C407.3,259.1,405.6,260.7,403.6,260.7L403.6,260.7z"/>
		<path class="st24" d="M402.8,260.7h-8.2c-2,0-3.7-1.6-3.7-3.7v-8.5c0-1.9,1.5-3.5,3.4-3.6l8.2-0.5c2.1-0.1,3.9,1.5,3.9,3.6v9
			C406.5,259,404.8,260.7,402.8,260.7L402.8,260.7z"/>
	</g>
</g>
<path class="st23" d="M405.4,240.5c0,0,0.9-5.5,3.9-5.7h-5.1c0,0-2.1,2.7-2,5.4S405.4,240.5,405.4,240.5L405.4,240.5z"/>
<path class="st24" d="M401.2,253.9l-0.3,34.9c0,4.3,0,9.1-0.9,13.5c-1.6,7.5-5.5,14.5-10.9,19.9c-6,5.8-13.9,9.8-22.2,10.8
	c-31.8,0.8-151.9-1.3-185.6-1.2c32.9-0.4,152.6-1.1,183.1-1.8c2.7-0.2,5.5-0.8,8.1-1.7c13.2-4.4,23.1-16.9,24-30.8
	c0.3-5.8-0.3-37.1-0.2-43.5L401.2,253.9L401.2,253.9L401.2,253.9z"/>
<path class="st24" d="M330.6,134.9c0-35.7-28.9-64.6-64.6-64.6s-64.6,28.9-64.6,64.6s28.9,64.6,64.6,64.6c1.9,0,3.8-0.1,5.7-0.3
	c10.8,11.3,32.9,34.4,32.9,32.6c0-1.6-6.2-24.7-10.1-39.1C315.9,182.3,330.6,160.3,330.6,134.9L330.6,134.9z"/>
<path class="st24" d="M366.5,92.3c0-51,41.3-92.3,92.3-92.3s92.3,41.3,92.3,92.3s-41.3,92.2-92.3,92.2c-2.7,0-5.4-0.1-8.1-0.4
	c-15.4,16.2-47.1,49.2-47.1,46.6c0-2.3,8.9-35.4,14.4-55.8C387.5,160,366.5,128.6,366.5,92.3L366.5,92.3z"/>
<circle class="st3" cx="458.8" cy="92.2" r="76.4"/>
<circle class="st3" cx="266.1" cy="134.9" r="53.4"/>
<path class="st25" d="M477.6,44.7l-24.8,75.8l-13.6-42h-16.1l21.5,61.9h16.5l31.4-95.7L477.6,44.7L477.6,44.7z"/>
<path class="st25" d="M241.5,155.9l19.4-25.5l-0.3,6.9L242,112.5h14.1l11.8,16.2l-5.3,0.1l12.2-16.4h13.4l-18.7,24.6v-6.8l19.4,25.5
	h-14.3l-12.4-17.2l5.2,0.7l-12.2,16.5H241.5L241.5,155.9z"/>
</svg>
