<?xml version="1.0" encoding="UTF-8"?>
<svg id="katman_1" data-name="katman 1" xmlns="http://www.w3.org/2000/svg" xmlns:xlink="http://www.w3.org/1999/xlink" viewBox="0 0 577.98 321.55">
  <defs>
    <style>
      .cls-1 {
        clip-path: url(#clippath);
      }

      .cls-2, .cls-3, .cls-4, .cls-5, .cls-6 {
        fill: none;
      }

      .cls-2, .cls-7, .cls-8, .cls-9, .cls-10, .cls-11, .cls-12, .cls-13, .cls-14, .cls-15 {
        stroke-width: 0px;
      }

      .cls-3 {
        stroke: url(#Adsız_degrade_7);
      }

      .cls-3, .cls-4 {
        stroke-width: 5px;
      }

      .cls-3, .cls-4, .cls-6 {
        stroke-miterlimit: 10;
      }

      .cls-4 {
        stroke: #b2b2b2;
      }

      .cls-16 {
        clip-path: url(#clippath-1);
      }

      .cls-17 {
        clip-path: url(#clippath-4);
      }

      .cls-18 {
        clip-path: url(#clippath-3);
      }

      .cls-19 {
        clip-path: url(#clippath-2);
      }

      .cls-20 {
        clip-path: url(#clippath-7);
      }

      .cls-21 {
        clip-path: url(#clippath-8);
      }

      .cls-22 {
        clip-path: url(#clippath-6);
      }

      .cls-23 {
        clip-path: url(#clippath-5);
      }

      .cls-24 {
        clip-path: url(#clippath-9);
      }

      .cls-25 {
        clip-path: url(#clippath-14);
      }

      .cls-26 {
        clip-path: url(#clippath-13);
      }

      .cls-27 {
        clip-path: url(#clippath-12);
      }

      .cls-28 {
        clip-path: url(#clippath-10);
      }

      .cls-29 {
        clip-path: url(#clippath-15);
      }

      .cls-30 {
        clip-path: url(#clippath-11);
      }

      .cls-5 {
        stroke-linecap: round;
        stroke-linejoin: round;
      }

      .cls-5, .cls-6 {
        stroke: #df2229;
        stroke-width: 2px;
      }

      .cls-31 {
        isolation: isolate;
      }

      .cls-8 {
        fill: gray;
      }

      .cls-9 {
        fill: #131313;
      }

      .cls-10 {
        fill: #d39b6b;
      }

      .cls-11 {
        fill: #cbcbcb;
      }

      .cls-12 {
        fill: #b2b2b2;
      }

      .cls-13 {
        fill: #666;
      }

      .cls-14 {
        fill: #303030;
      }

      .cls-15 {
        fill: #fff;
      }
    </style>
    <clipPath id="clippath">
      <path class="cls-2" d="m206.98,224.22h2.39s8.94,0,8.94,0h2.39c.13,0,.26-.03.38-.08s.22-.12.31-.21.16-.2.21-.32.08-.25.08-.39v-11.38c0-.14-.03-.27-.08-.39s-.12-.23-.21-.32-.19-.16-.31-.22-.24-.08-.38-.08h-1.41v-.56c0-.14-.03-.27-.08-.39s-.12-.23-.21-.32-.19-.16-.31-.21-.24-.08-.38-.08h-.56v-.78c0-.14-.03-.27-.08-.39s-.12-.23-.21-.32-.19-.16-.31-.22-.24-.08-.38-.08l-5.87-.02c-.13,0-.26.03-.38.08s-.22.12-.31.21-.16.2-.21.32-.08.25-.08.39v.78s-.57,0-.57,0c-.13,0-.26.03-.38.08s-.22.12-.31.21-.16.2-.21.32-.08.25-.08.39v.55s-1.42,0-1.42,0c-.13,0-.26.03-.38.08s-.22.12-.31.21-.16.2-.21.32-.08.25-.08.39v11.41c0,.14.03.27.08.39s.12.23.21.32.19.16.31.22.24.08.38.08"/>
    </clipPath>
    <clipPath id="clippath-1">
      <path class="cls-2" d="m239.03,224.23h2.38s8.86,0,8.86,0h2.37c.13,0,.26-.03.37-.08s.22-.12.31-.21.16-.2.21-.32.08-.25.08-.39v-11.34c0-.14-.03-.27-.08-.39s-.12-.23-.21-.32-.19-.16-.31-.21-.24-.08-.37-.08h-1.41v-.55c0-.14-.03-.27-.08-.38s-.12-.23-.21-.32-.19-.16-.31-.21-.24-.08-.38-.08h-.55v-.78c0-.14-.03-.27-.08-.39s-.12-.23-.21-.32-.19-.16-.31-.21-.24-.08-.38-.08l-5.83-.02c-.13,0-.26.03-.37.08s-.22.12-.31.21-.16.2-.21.32-.08.25-.08.39v.78s-.56,0-.56,0c-.13,0-.26.03-.38.08s-.22.12-.31.21-.16.2-.21.32-.08.25-.08.39v.55s-1.41,0-1.41,0c-.13,0-.26.03-.38.08s-.22.12-.31.21-.16.2-.21.32-.08.25-.08.39v11.36c0,.14.03.27.08.39s.12.23.21.32.19.16.31.21.24.08.38.08"/>
    </clipPath>
    <clipPath id="clippath-2">
      <path class="cls-2" d="m270.8,224.25h2.36s8.79,0,8.79,0h2.35c.13,0,.26-.03.37-.08s.22-.12.3-.21.16-.2.2-.32.08-.25.08-.39v-11.29c0-.14-.03-.27-.08-.39s-.12-.23-.2-.32-.19-.16-.3-.21-.24-.08-.37-.08h-1.4v-.55c0-.14-.03-.27-.08-.38s-.12-.22-.21-.31-.19-.16-.3-.21-.24-.08-.37-.08h-.55v-.78c0-.14-.03-.27-.08-.39s-.12-.23-.2-.32-.19-.16-.3-.21-.24-.08-.37-.08l-5.78-.02c-.13,0-.26.03-.37.08s-.22.12-.3.21-.16.2-.21.32-.08.25-.08.39v.78s-.55,0-.55,0c-.13,0-.26.03-.37.08s-.22.12-.31.21-.16.2-.21.31-.08.25-.08.38v.55s-1.4,0-1.4,0c-.13,0-.26.03-.37.08s-.22.12-.3.21-.16.2-.21.32-.08.25-.08.39v11.31c0,.14.03.27.08.39s.12.23.21.32.19.16.3.21.24.08.37.08"/>
    </clipPath>
    <clipPath id="clippath-3">
      <path class="cls-2" d="m302.32,224.26h2.34s8.72,0,8.72,0h2.33c.13,0,.26-.03.37-.08s.21-.12.3-.21.15-.2.2-.31.07-.25.07-.38v-11.24c0-.14-.03-.27-.07-.38s-.12-.23-.2-.31-.19-.16-.3-.21-.24-.08-.37-.08h-1.38v-.55c0-.14-.03-.26-.07-.38s-.12-.22-.2-.31-.19-.16-.3-.21-.24-.08-.37-.08h-.54v-.77c0-.14-.03-.27-.07-.39s-.12-.23-.2-.31-.19-.16-.3-.21-.24-.08-.37-.08l-5.73-.02c-.13,0-.26.03-.37.08s-.22.12-.3.21-.16.2-.2.31-.07.25-.07.39v.77s-.55,0-.55,0c-.13,0-.26.03-.37.08s-.22.12-.3.21-.16.2-.2.31-.07.25-.07.38v.55s-1.39,0-1.39,0c-.13,0-.25.03-.37.08s-.22.12-.3.21-.16.2-.2.31-.07.25-.07.39v11.26c0,.14.03.27.07.39s.12.23.2.31.19.16.3.21.24.08.37.08"/>
    </clipPath>
    <clipPath id="clippath-4">
      <path class="cls-2" d="m206.98,231.27h2.39s8.94,0,8.94,0h2.39c.13,0,.26.03.38.08s.22.12.31.21.16.2.21.32.08.25.08.39v11.39c0,.14-.03.27-.08.39s-.12.23-.21.32-.19.16-.31.21-.24.08-.38.08h-1.41v.56c0,.14-.03.27-.08.39s-.12.23-.21.32-.19.16-.31.22-.24.08-.38.08h-.56v.78c0,.14-.03.27-.08.39s-.12.23-.21.32-.19.16-.31.21-.24.08-.38.08l-5.87.02c-.13,0-.26-.03-.38-.08s-.22-.12-.31-.21-.16-.2-.21-.32-.08-.25-.08-.39v-.78h-.57c-.13,0-.26-.03-.38-.08s-.22-.12-.31-.21-.16-.2-.21-.32-.08-.25-.08-.39v-.55h-1.42c-.13,0-.26-.02-.38-.07s-.22-.12-.31-.21-.16-.2-.21-.32-.08-.25-.08-.39v-11.41c0-.14.03-.27.08-.39s.12-.23.21-.32.19-.16.31-.21.24-.08.38-.08"/>
    </clipPath>
    <clipPath id="clippath-5">
      <path class="cls-2" d="m239.03,231.26h2.38s8.86,0,8.86,0h2.37c.13,0,.26.03.37.08s.22.12.31.21.16.2.21.32.08.25.08.38v11.34c0,.14-.03.27-.08.39s-.12.23-.21.32-.19.16-.31.21-.24.08-.37.08h-1.41v.55c0,.14-.03.27-.08.39s-.12.23-.21.32-.19.16-.31.21-.24.08-.38.08h-.55v.78c0,.14-.03.27-.08.39s-.12.23-.21.32-.19.16-.31.21-.24.08-.38.08l-5.83.02c-.13,0-.26-.03-.37-.08s-.22-.12-.31-.21-.16-.2-.21-.31-.08-.25-.08-.39v-.78h-.56c-.13,0-.26-.03-.38-.08s-.22-.12-.31-.21-.16-.2-.21-.32-.08-.25-.08-.39v-.55h-1.41c-.13,0-.26-.02-.38-.07s-.22-.12-.31-.21-.16-.2-.21-.32-.08-.25-.08-.39v-11.36c0-.14.03-.27.08-.39s.12-.23.21-.32.19-.16.31-.21.24-.08.38-.08"/>
    </clipPath>
    <clipPath id="clippath-6">
      <path class="cls-2" d="m270.8,231.25h2.36s8.79,0,8.79,0h2.35c.13,0,.26.03.37.08s.22.12.3.21.16.2.2.31.08.25.08.38v11.29c0,.14-.03.27-.08.39s-.12.22-.2.31-.19.16-.3.21-.24.08-.37.08h-1.4v.55c0,.14-.03.27-.08.39s-.12.23-.21.32-.19.16-.3.21-.24.08-.37.08h-.55v.78c0,.14-.03.27-.08.39s-.12.22-.2.31-.19.16-.3.21-.24.08-.37.08l-5.78.02c-.13,0-.26-.03-.37-.08s-.22-.12-.3-.21-.16-.2-.21-.31-.08-.25-.08-.39v-.78h-.55c-.13,0-.26-.03-.37-.08s-.22-.12-.31-.21-.16-.2-.21-.32-.08-.25-.08-.39v-.55h-1.4c-.13,0-.26-.02-.37-.07s-.22-.12-.3-.21-.16-.2-.21-.31-.08-.25-.08-.39v-11.32c0-.14.03-.27.08-.38s.12-.22.21-.31.19-.16.3-.21.24-.08.37-.08"/>
    </clipPath>
    <clipPath id="clippath-7">
      <path class="cls-2" d="m302.32,231.23h2.34s8.72,0,8.72,0h2.33c.13,0,.26.03.37.08s.21.12.3.21.15.2.2.31.07.25.07.38v11.25c0,.14-.03.27-.07.38s-.12.22-.2.31-.19.16-.3.21-.24.08-.37.08h-1.38v.55c0,.14-.03.27-.07.38s-.12.23-.2.31-.19.16-.3.21-.24.08-.37.08h-.54v.77c0,.14-.03.27-.07.38s-.12.22-.2.31-.19.16-.3.21-.24.08-.37.08l-5.73.02c-.13,0-.26-.03-.37-.08s-.22-.12-.3-.21-.16-.19-.2-.31-.07-.25-.07-.38v-.77h-.55c-.13,0-.26-.03-.37-.08s-.22-.12-.3-.21-.16-.2-.2-.31-.07-.25-.07-.39v-.55h-1.39c-.13,0-.25-.02-.37-.07s-.22-.12-.3-.21-.16-.19-.2-.31-.07-.25-.07-.38v-11.27c0-.14.03-.26.07-.38s.12-.22.2-.31.19-.16.3-.21.24-.08.37-.08"/>
    </clipPath>
    <clipPath id="clippath-8">
      <path class="cls-2" d="m345.97,224.28h2.31s8.62,0,8.62,0h2.3c.13,0,.25-.03.36-.08s.21-.12.3-.21.15-.19.2-.31.07-.25.07-.38v-11.18c0-.14-.03-.26-.07-.38s-.12-.22-.2-.31-.19-.16-.3-.21-.24-.08-.36-.08h-1.36v-.55c0-.13-.03-.26-.07-.38s-.12-.22-.2-.31-.19-.16-.3-.21-.24-.08-.37-.08h-.54v-.77c0-.14-.03-.27-.07-.38s-.12-.22-.2-.31-.19-.16-.3-.21-.24-.08-.37-.08h-5.66c-.13-.02-.25.01-.37.06s-.21.12-.3.21-.15.19-.2.31-.07.25-.07.38v.77s-.54,0-.54,0c-.13,0-.25.03-.36.08s-.21.12-.3.21-.15.19-.2.31-.07.25-.07.38v.54s-1.37,0-1.37,0c-.13,0-.25.03-.37.08s-.21.12-.3.21-.15.19-.2.31-.07.25-.07.38v11.2c0,.14.03.27.07.38s.12.22.2.31.19.16.3.21.24.08.37.08"/>
    </clipPath>
    <clipPath id="clippath-9">
      <path class="cls-2" d="m376.87,224.29h2.29s8.55,0,8.55,0h2.28c.13,0,.25-.03.36-.08s.21-.12.3-.21.15-.19.2-.31.07-.25.07-.38v-11.13c0-.14-.03-.26-.07-.38s-.12-.22-.2-.31-.18-.16-.3-.21-.23-.08-.36-.08h-1.35v-.54c0-.13-.03-.26-.07-.38s-.12-.22-.2-.31-.18-.16-.3-.21-.23-.08-.36-.08h-.53v-.77c0-.14-.03-.26-.07-.38s-.12-.22-.2-.31-.18-.16-.3-.21-.23-.08-.36-.08h-5.62c-.13-.02-.25.01-.36.06s-.21.12-.29.21-.15.19-.2.31-.07.25-.07.38v.77s-.54,0-.54,0c-.13,0-.25.03-.36.08s-.21.12-.3.21-.15.19-.2.31-.07.24-.07.38v.54s-1.36,0-1.36,0c-.13,0-.25.03-.36.08s-.21.12-.3.21-.15.19-.2.31-.07.25-.07.38v11.15c0,.14.03.26.07.38s.11.22.2.31.18.16.3.21.23.08.36.08"/>
    </clipPath>
    <clipPath id="clippath-10">
      <path class="cls-2" d="m407.52,224.31h2.28s8.48,0,8.48,0h2.27c.13,0,.25-.03.36-.08s.21-.12.29-.21.15-.19.2-.31.07-.24.07-.38v-11.09c0-.13-.03-.26-.07-.38s-.11-.22-.2-.31-.18-.16-.29-.21-.23-.08-.36-.08h-1.35v-.54c0-.13-.03-.26-.07-.38s-.11-.22-.2-.31-.18-.16-.29-.21-.23-.08-.36-.08h-.53v-.76c0-.13-.03-.26-.07-.38s-.11-.22-.2-.31-.18-.16-.29-.21-.23-.08-.36-.08h-5.57c-.13-.01-.25.01-.36.06s-.21.12-.29.21-.15.19-.2.31-.07.25-.07.38v.76s-.53,0-.53,0c-.13,0-.25.03-.36.08s-.21.12-.29.21-.15.19-.2.31-.07.24-.07.38v.54s-1.35,0-1.35,0c-.13,0-.25.03-.36.08s-.21.12-.29.21-.15.19-.2.31-.07.25-.07.38v11.11c0,.13.03.26.07.38s.11.22.2.31.18.16.29.21.23.08.36.08"/>
    </clipPath>
    <clipPath id="clippath-11">
      <path class="cls-2" d="m437.92,224.32h2.26s8.41,0,8.41,0h2.25c.13,0,.24-.03.35-.08s.21-.12.29-.21.15-.19.2-.31.07-.24.07-.38v-11.04c0-.13-.03-.26-.07-.38s-.11-.22-.2-.31-.18-.16-.29-.21-.23-.08-.35-.08h-1.34v-.54c0-.13-.03-.26-.07-.38s-.11-.22-.2-.31-.18-.16-.29-.21-.23-.08-.36-.08h-.53v-.76c0-.13-.03-.26-.07-.38s-.11-.22-.2-.31-.18-.16-.29-.21-.23-.08-.35-.08h-5.53c-.13-.01-.25.01-.35.06s-.21.12-.29.21-.15.19-.2.31-.07.24-.07.38v.76s-.53,0-.53,0c-.13,0-.25.03-.36.08s-.21.12-.29.21-.15.19-.2.31-.07.24-.07.38v.54s-1.34,0-1.34,0c-.13,0-.25.03-.35.08s-.21.12-.29.21-.15.19-.2.31-.07.24-.07.38v11.06c0,.13.03.26.07.38s.11.22.2.31.18.16.29.21.23.08.35.08"/>
    </clipPath>
    <clipPath id="clippath-12">
      <path class="cls-2" d="m345.97,231.21h2.31s8.62,0,8.62,0h2.3c.13,0,.25.03.36.08s.21.12.3.21.15.19.2.31.07.25.07.38v11.18c0,.14-.03.26-.07.38s-.12.22-.2.31-.19.16-.3.21-.24.08-.36.08h-1.36v.55c0,.14-.03.27-.07.38s-.12.22-.2.31-.19.16-.3.21-.24.08-.37.08h-.54v.77c0,.14-.03.26-.07.38s-.12.22-.2.31-.19.16-.3.21-.24.08-.37.08h-5.66c-.13.02-.25-.01-.37-.06s-.21-.12-.3-.21-.15-.19-.2-.31-.07-.25-.07-.38v-.77h-.54c-.13,0-.25-.03-.36-.08s-.21-.12-.3-.21-.15-.19-.2-.31-.07-.25-.07-.38v-.54h-1.37c-.13,0-.25-.02-.37-.07s-.21-.12-.3-.21-.15-.19-.2-.31-.07-.25-.07-.38v-11.21c0-.13.03-.26.07-.38s.12-.22.2-.31.19-.16.3-.21.24-.08.37-.08"/>
    </clipPath>
    <clipPath id="clippath-13">
      <path class="cls-2" d="m376.87,231.2h2.29s8.55,0,8.55,0h2.28c.13,0,.25.03.36.08s.21.12.3.21.15.19.2.31.07.24.07.38v11.14c0,.14-.03.26-.07.38s-.12.22-.2.31-.18.16-.3.21-.23.08-.36.08h-1.35v.54c0,.14-.03.26-.07.38s-.12.22-.2.31-.18.16-.3.21-.23.08-.36.08h-.53v.77c0,.14-.03.26-.07.38s-.12.22-.2.31-.18.16-.3.21-.23.08-.36.08h-5.62c-.13.02-.25-.01-.36-.06s-.21-.12-.29-.21-.15-.19-.2-.31-.07-.25-.07-.38v-.77h-.54c-.13,0-.25-.03-.36-.07s-.21-.12-.3-.21-.15-.19-.2-.31-.07-.25-.07-.38v-.54h-1.36c-.13,0-.25-.02-.36-.07s-.21-.12-.3-.21-.15-.19-.2-.31-.07-.25-.07-.38v-11.16c0-.13.03-.26.07-.38s.11-.22.2-.31.18-.16.3-.21.23-.08.36-.08"/>
    </clipPath>
    <clipPath id="clippath-14">
      <path class="cls-2" d="m407.52,231.18h2.28s8.48,0,8.48,0h2.27c.13,0,.25.03.36.08s.21.12.29.21.15.19.2.31.07.24.07.38v11.09c0,.13-.03.26-.07.38s-.11.22-.2.31-.18.16-.29.21-.23.08-.36.08h-1.35v.54c0,.13-.03.26-.07.38s-.11.22-.2.31-.18.16-.29.21-.23.08-.36.08h-.53v.76c0,.13-.03.26-.07.38s-.11.22-.2.31-.18.16-.29.21-.23.08-.36.08h-5.57c-.13.01-.25-.01-.36-.06s-.21-.12-.29-.21-.15-.19-.2-.31-.07-.24-.07-.38v-.76h-.53c-.13,0-.25-.03-.36-.07s-.21-.12-.29-.21-.15-.19-.2-.31-.07-.25-.07-.38v-.54h-1.35c-.13,0-.25-.02-.36-.07s-.21-.12-.29-.21-.15-.19-.2-.31-.07-.24-.07-.38v-11.11c0-.13.03-.26.07-.38s.11-.22.2-.31.18-.16.29-.21.23-.08.36-.08"/>
    </clipPath>
    <clipPath id="clippath-15">
      <path class="cls-2" d="m437.92,231.17h2.26s8.41,0,8.41,0h2.25c.13,0,.24.03.35.08s.21.12.29.21.15.19.2.31.07.24.07.37v11.05c0,.13-.03.26-.07.38s-.11.22-.2.31-.18.16-.29.21-.23.08-.35.08h-1.34v.54c0,.13-.03.26-.07.38s-.11.22-.2.31-.18.16-.29.21-.23.08-.36.08h-.53v.76c0,.13-.03.26-.07.38s-.11.22-.2.31-.18.16-.29.21-.23.08-.35.08h-5.53c-.13.01-.25-.01-.35-.06s-.21-.12-.29-.21-.15-.19-.2-.31-.07-.24-.07-.38v-.76h-.53c-.13,0-.25-.03-.36-.07s-.21-.12-.29-.21-.15-.19-.2-.31-.07-.24-.07-.38v-.54h-1.34c-.13,0-.25-.02-.35-.07s-.21-.12-.29-.21-.15-.19-.2-.31-.07-.24-.07-.38v-11.07c0-.13.03-.26.07-.38s.11-.22.2-.31.18-.16.29-.21.23-.08.35-.08"/>
    </clipPath>
    <linearGradient id="Adsız_degrade_7" data-name="Adsız degrade 7" x1="1.01" y1="271.14" x2="391.35" y2="271.14" gradientUnits="userSpaceOnUse">
      <stop offset="0" stop-color="#fff" stop-opacity="0"/>
      <stop offset=".07" stop-color="#fcfcfc" stop-opacity=".03"/>
      <stop offset=".15" stop-color="#f6f6f6" stop-opacity=".11"/>
      <stop offset=".23" stop-color="#ececec" stop-opacity=".24"/>
      <stop offset=".32" stop-color="#dedede" stop-opacity=".42"/>
      <stop offset=".41" stop-color="#ccc" stop-opacity=".65"/>
      <stop offset=".5" stop-color="#b6b6b6" stop-opacity=".94"/>
      <stop offset=".52" stop-color="#b2b2b2"/>
    </linearGradient>
  </defs>
  <g>
    <polygon class="cls-13" points="577.98 184.91 362.4 174.91 1.01 165.31 169.38 181.39 577.98 184.91"/>
    <g class="cls-31">
      <g>
        <path class="cls-8" d="m570.78,262.66v-69.82s-392.98-2.79-392.98-2.79v75.4s392.98-2.79,392.98-2.79m-401.4-81.26l408.61,3.52v85.67s-408.61,3.52-408.61,3.52v-92.7"/>
        <path class="cls-14" d="m558.7,245.34c.33,0,.65-.07.93-.21s.54-.32.76-.56.39-.52.51-.83.19-.66.19-1.02-.07-.71-.19-1.02-.3-.59-.51-.83-.47-.43-.76-.56-.6-.2-.93-.2-.65.07-.93.21-.55.32-.76.56-.39.52-.51.83-.19.66-.19,1.02.07.7.19,1.02.3.59.51.83.48.43.76.56.6.2.93.2m-7.32.02c.33,0,.65-.07.93-.21s.55-.32.76-.56.39-.52.52-.83.19-.66.19-1.02-.07-.71-.19-1.02-.3-.59-.52-.83-.48-.43-.76-.56-.6-.2-.93-.2-.65.07-.93.21-.55.32-.76.56-.39.52-.51.83-.19.66-.19,1.02.07.7.19,1.02.3.59.51.83.48.43.76.56.6.2.93.2m-7.33.02c.33,0,.65-.07.94-.21s.55-.32.76-.56.39-.52.51-.83.19-.66.19-1.02-.07-.71-.19-1.02-.3-.59-.51-.83-.48-.43-.76-.56-.6-.2-.94-.2-.65.07-.94.21-.55.32-.76.56-.39.52-.52.83-.19.66-.19,1.02.07.7.19,1.02.3.59.52.83.48.43.76.56.6.2.94.2m-7.35.02c.33,0,.65-.07.94-.21s.55-.33.76-.56.39-.52.52-.83.19-.66.19-1.02-.07-.71-.19-1.02-.3-.6-.52-.83-.48-.43-.76-.56-.6-.2-.94-.2-.65.07-.94.21-.55.33-.77.56-.4.52-.52.83-.19.66-.19,1.02.07.71.19,1.02.3.59.52.83.48.43.77.56.61.2.94.2m-7.37.02c.33,0,.65-.07.94-.21s.55-.33.77-.56.4-.52.52-.83.19-.66.19-1.02-.07-.71-.19-1.02-.3-.6-.52-.83-.48-.43-.77-.56-.61-.2-.94-.2-.65.07-.94.21-.55.33-.77.56-.4.52-.52.84-.19.66-.19,1.02.07.71.19,1.02.3.59.52.83.48.43.77.56.61.2.94.2m-7.38.02c.33,0,.65-.07.94-.21s.55-.33.77-.56.4-.52.52-.83.19-.66.19-1.02-.07-.71-.19-1.02-.3-.6-.52-.83-.48-.43-.77-.56-.61-.2-.94-.2-.65.07-.94.21-.55.33-.77.56-.4.52-.52.84-.19.66-.19,1.02.07.71.19,1.02.3.6.52.83.48.43.77.56.61.2.94.2m36.75-9.13c.33,0,.65-.07.93-.21s.54-.32.76-.56.39-.52.51-.83.19-.66.19-1.02-.07-.7-.19-1.01-.3-.59-.51-.83-.47-.43-.76-.56-.6-.2-.93-.2-.65.07-.93.21-.55.32-.76.56-.39.52-.51.83-.19.66-.19,1.02.07.7.19,1.02.3.59.51.83.48.43.76.56.6.21.93.2m-7.32,0c.33,0,.65-.07.93-.21s.55-.32.76-.56.39-.52.52-.83.19-.66.19-1.02-.07-.7-.19-1.02-.3-.59-.52-.83-.48-.43-.76-.56-.6-.2-.93-.2-.65.07-.93.21-.55.32-.76.56-.39.52-.51.83-.19.66-.19,1.02.07.7.19,1.02.3.59.51.83.48.43.76.56.6.21.93.2m-7.33,0c.33,0,.65-.07.94-.21s.55-.33.76-.56.39-.52.51-.83.19-.66.19-1.02-.07-.7-.19-1.02-.3-.59-.51-.83-.48-.43-.76-.56-.6-.21-.94-.2-.65.07-.94.21-.55.32-.76.56-.39.52-.52.83-.19.66-.19,1.02.07.71.19,1.02.3.6.52.83.48.43.76.56.6.21.94.21m-7.35,0c.33,0,.65-.07.94-.21s.55-.33.76-.56.39-.52.52-.83.19-.66.19-1.02-.07-.71-.19-1.02-.3-.59-.52-.83-.48-.43-.76-.56-.6-.21-.94-.21-.65.07-.94.21-.55.32-.77.56-.4.52-.52.83-.19.66-.19,1.02.07.71.19,1.02.3.6.52.83.48.43.77.56.61.21.94.21m-7.37,0c.33,0,.65-.07.94-.21s.55-.33.77-.56.4-.52.52-.83.19-.66.19-1.02-.07-.71-.19-1.02-.3-.6-.52-.83-.48-.43-.77-.56-.61-.21-.94-.21-.65.07-.94.21-.55.32-.77.56-.4.52-.52.83-.19.66-.19,1.02.07.71.19,1.02.3.6.52.83.48.43.77.56.61.21.94.21m-7.38,0c.33,0,.65-.07.94-.21s.55-.33.77-.56.4-.52.52-.84.19-.66.19-1.02-.07-.71-.19-1.02-.3-.6-.52-.83-.48-.43-.77-.56-.61-.21-.94-.21-.65.07-.94.21-.55.32-.77.56-.4.52-.52.83-.19.66-.19,1.02.07.71.19,1.02.3.6.52.83.48.43.77.56.61.21.94.21m36.75-12.71c.33,0,.65-.07.93-.2s.54-.32.76-.56.39-.52.51-.83.19-.65.19-1.01-.07-.71-.19-1.02-.3-.59-.51-.83-.47-.43-.76-.56-.6-.21-.93-.21-.65.07-.93.2-.55.32-.76.56-.39.52-.51.83-.19.66-.19,1.02.07.7.19,1.02.3.59.51.83.48.43.76.56.6.21.93.21m-7.32,0c.33,0,.65-.07.93-.2s.55-.32.76-.56.39-.52.52-.83.19-.66.19-1.02-.07-.71-.19-1.02-.3-.6-.52-.83-.48-.43-.76-.56-.6-.21-.93-.21-.65.07-.93.2-.55.32-.76.56-.39.52-.51.83-.19.66-.19,1.02.07.7.19,1.02.3.59.51.83.48.43.76.56.6.21.93.21m-7.33,0c.33,0,.65-.07.94-.2s.55-.32.76-.56.39-.52.51-.83.19-.66.19-1.02-.07-.71-.19-1.02-.3-.6-.51-.83-.48-.43-.76-.56-.6-.21-.94-.21-.65.07-.94.2-.55.32-.76.56-.39.52-.52.83-.19.66-.19,1.02.07.71.19,1.02.3.59.52.83.48.43.76.56.6.21.94.21m-7.35,0c.33,0,.65-.07.94-.2s.55-.32.76-.56.39-.52.52-.83.19-.66.19-1.02-.07-.71-.19-1.02-.3-.6-.52-.83-.48-.43-.76-.56-.6-.21-.94-.21-.65.07-.94.2-.55.32-.77.56-.4.52-.52.83-.19.66-.19,1.02.07.71.19,1.02.3.6.52.83.48.43.77.56.61.21.94.21m-7.37,0c.33,0,.65-.07.94-.21s.55-.32.77-.56.4-.52.52-.83.19-.66.19-1.02-.07-.71-.19-1.02-.3-.6-.52-.83-.48-.43-.77-.56-.61-.21-.94-.21-.65.07-.94.2-.55.32-.77.56-.4.52-.52.83-.19.66-.19,1.02.07.71.19,1.02.3.6.52.83.48.43.77.56.61.21.94.21m-7.38,0c.33,0,.65-.07.94-.21s.55-.32.77-.56.4-.52.52-.83.19-.66.19-1.02-.07-.71-.19-1.02-.3-.6-.52-.84-.48-.43-.77-.56-.61-.21-.94-.21-.65.07-.94.2-.55.32-.77.56-.4.52-.52.83-.19.66-.19,1.02.07.71.19,1.02.3.6.52.83.48.43.77.56.61.21.94.21m36.75-9.02c.33,0,.65-.07.93-.2s.54-.32.76-.56.39-.52.51-.83.19-.66.19-1.02-.07-.7-.19-1.02-.3-.59-.51-.83-.47-.43-.76-.56-.6-.21-.93-.21-.65.07-.93.2-.55.32-.76.56-.39.52-.51.83-.19.65-.19,1.02.07.7.19,1.02.3.59.51.83.48.43.76.56.6.21.93.21m-7.32-.01c.33,0,.65-.07.93-.2s.55-.32.76-.56.39-.52.52-.83.19-.66.19-1.02-.07-.7-.19-1.02-.3-.59-.52-.83-.48-.43-.76-.56-.6-.21-.93-.21-.65.07-.93.2-.55.32-.76.56-.39.52-.51.83-.19.66-.19,1.02.07.7.19,1.02.3.6.51.83.48.43.76.56.6.21.93.21m-7.33-.01c.33,0,.65-.07.94-.2s.55-.32.76-.56.39-.52.51-.83.19-.66.19-1.02-.07-.7-.19-1.02-.3-.59-.51-.83-.48-.43-.76-.56-.6-.21-.94-.21-.65.07-.94.2-.55.32-.76.56-.39.52-.52.83-.19.66-.19,1.02.07.71.19,1.02.3.6.52.83.48.43.76.56.6.21.94.21m-7.35-.01c.33,0,.65-.07.94-.2s.55-.32.76-.56.39-.52.52-.83.19-.66.19-1.02-.07-.71-.19-1.02-.3-.6-.52-.83-.48-.43-.76-.56-.6-.21-.94-.21-.65.07-.94.2-.55.32-.77.56-.4.52-.52.83-.19.66-.19,1.02.07.71.19,1.02.3.6.52.83.48.43.77.56.61.21.94.21m-7.37-.01c.33,0,.65-.07.94-.2s.55-.32.77-.56.4-.52.52-.83.19-.66.19-1.02-.07-.71-.19-1.02-.3-.6-.52-.83-.48-.43-.77-.56-.61-.21-.94-.21-.65.07-.94.2-.55.32-.77.56-.4.52-.52.83-.19.66-.19,1.02.07.71.19,1.02.3.6.52.84.48.43.77.56.61.21.94.21m-7.38-.01c.33,0,.65-.07.94-.21s.55-.32.77-.56.4-.52.52-.83.19-.66.19-1.02-.07-.71-.19-1.02-.3-.6-.52-.83-.48-.43-.77-.56-.61-.21-.94-.21-.65.07-.94.2-.55.32-.77.56-.4.52-.52.83-.19.66-.19,1.02.07.71.19,1.02.3.6.52.84.48.43.77.57.61.21.94.21m-61.54,40.97c.64,0,1.25-.14,1.8-.39s1.05-.61,1.47-1.06.76-.98.99-1.57.36-1.24.36-1.92v-45.61c0-.68-.13-1.33-.36-1.92s-.57-1.12-.99-1.57-.92-.81-1.47-1.06-1.16-.39-1.8-.39l-124.29-.46c-.66,0-1.29.14-1.87.39s-1.09.62-1.52,1.07-.79.99-1.03,1.59-.38,1.26-.38,1.95v46.42c0,.69.13,1.35.38,1.95s.59,1.14,1.03,1.59.95.82,1.52,1.07,1.2.39,1.87.39l124.29-.46m-134.78.5c.66,0,1.3-.15,1.87-.4s1.09-.62,1.53-1.08.79-1,1.03-1.6.38-1.26.38-1.95v-46.43c0-.69-.13-1.35-.38-1.95s-.59-1.14-1.03-1.6-.95-.82-1.53-1.08-1.21-.4-1.87-.4l-128.85-.48c-.69,0-1.34.14-1.94.39s-1.13.63-1.58,1.09-.81,1.01-1.07,1.62-.39,1.28-.39,1.99v47.28c0,.7.14,1.37.39,1.98s.62,1.16,1.07,1.62.99.83,1.58,1.09,1.25.4,1.94.39l128.85-.48m-147.82-65.94l392.98,2.79v69.82s-392.98,2.79-392.98,2.79v-75.4"/>
        <path class="cls-15" d="m305.78,231.23h-1.12s-2.34,0-2.34,0c-.13,0-.25.03-.37.08s-.22.12-.3.21-.16.2-.2.31-.07.25-.07.38v11.27c0,.14.03.27.07.38s.12.22.2.31.19.16.3.21.24.08.37.08h1.39s0,.54,0,.54c0,.14.03.27.07.39s.12.22.2.31.19.16.3.21.24.08.37.08h.55s0,.77,0,.77c0,.14.03.27.07.38s.12.22.2.31.19.16.3.21.24.08.37.08l5.73-.02c.13,0,.25-.03.37-.08s.21-.12.3-.21.16-.2.2-.31.07-.25.07-.38v-.77s.54,0,.54,0c.13,0,.26-.03.37-.08s.22-.12.3-.21.16-.2.2-.31.07-.25.07-.38v-.55s1.38,0,1.38,0c.13,0,.26-.03.37-.08s.21-.12.3-.21.15-.19.2-.31.07-.25.07-.38v-11.25c0-.14-.03-.26-.07-.38s-.12-.22-.2-.31-.19-.16-.3-.21-.24-.08-.37-.08h-2.33s-.52,0-.52,0h-.58s-2.67,0-2.67,0h-.58s-2.68,0-2.68,0h-.58m-31.49.01h-1.13s-2.36,0-2.36,0c-.13,0-.26.03-.37.08s-.22.12-.3.21-.16.2-.21.31-.08.25-.08.38v11.32c0,.14.03.27.08.39s.12.22.21.31.19.16.3.21.24.08.37.08h1.4s0,.55,0,.55c0,.14.03.27.08.39s.12.23.21.32.19.16.31.21.24.08.37.08h.55s0,.78,0,.78c0,.14.03.27.08.39s.12.22.21.31.19.16.3.21.24.08.37.08l5.78-.02c.13,0,.26-.03.37-.08s.22-.12.3-.21.16-.2.2-.31.08-.25.08-.39v-.78s.55,0,.55,0c.13,0,.26-.03.37-.08s.22-.12.3-.21.16-.2.21-.32.08-.25.08-.39v-.55s1.4,0,1.4,0c.13,0,.26-.03.37-.08s.22-.12.3-.21.16-.2.2-.31.08-.25.08-.39v-11.29c0-.14-.03-.27-.08-.38s-.12-.22-.2-.31-.19-.16-.3-.21-.24-.08-.37-.08h-2.35s-.53,0-.53,0h-.58s-2.69,0-2.69,0h-.58s-2.7,0-2.7,0h-.58m-31.75.01h-1.14s-2.38,0-2.38,0c-.13,0-.26.03-.38.08s-.22.12-.31.21-.16.2-.21.32-.08.25-.08.39v11.36c0,.14.03.27.08.39s.12.23.21.32.19.16.31.21.24.08.38.08h1.41s0,.55,0,.55c0,.14.03.27.08.39s.12.23.21.32.19.16.31.21.24.08.38.08h.56s0,.78,0,.78c0,.14.03.27.08.39s.12.23.21.31.19.16.31.21.24.08.37.08l5.83-.02c.13,0,.26-.03.38-.08s.22-.12.31-.21.16-.2.21-.32.08-.25.08-.39v-.78s.55,0,.55,0c.13,0,.26-.03.38-.08s.22-.12.31-.21.16-.2.21-.32.08-.25.08-.39v-.55s1.41,0,1.41,0c.13,0,.26-.03.37-.08s.22-.12.31-.21.16-.2.21-.32.08-.25.08-.39v-11.34c0-.14-.03-.27-.08-.38s-.12-.23-.21-.32-.19-.16-.31-.21-.24-.08-.37-.08h-2.37s-.53,0-.53,0h-.59s-2.71,0-2.71,0h-.59s-2.72,0-2.72,0h-.59m-32.01.01h-1.15s-2.39,0-2.39,0c-.13,0-.26.03-.38.08s-.22.12-.31.21-.16.2-.21.32-.08.25-.08.39v11.41c0,.14.03.27.08.39s.12.23.21.32.19.16.31.21.24.08.38.08h1.42s0,.55,0,.55c0,.14.03.27.08.39s.12.23.21.32.19.16.31.21.24.08.38.08h.57s0,.78,0,.78c0,.14.03.27.08.39s.12.23.21.32.19.16.31.21.24.08.38.08l5.87-.02c.13,0,.26-.03.38-.08s.22-.12.31-.21.16-.2.21-.32.08-.25.08-.39v-.78s.56,0,.56,0c.13,0,.26-.03.38-.08s.22-.12.31-.22.16-.2.21-.32.08-.25.08-.39v-.55s1.41,0,1.41,0c.13,0,.26-.03.38-.08s.22-.12.31-.21.16-.2.21-.32.08-.25.08-.39v-11.39c0-.14-.03-.27-.08-.39s-.12-.23-.21-.32-.19-.16-.31-.21-.24-.08-.38-.08h-2.39s-.54,0-.54,0h-.59s-2.74,0-2.74,0h-.59s-2.74,0-2.74,0h-.59m105.18-7.01c.13,0,.26-.03.37-.08s.21-.12.3-.21.15-.2.2-.31.07-.25.07-.38v-11.24c0-.14-.03-.27-.07-.38s-.12-.23-.2-.31-.19-.16-.3-.21-.24-.08-.37-.08h-1.38v-.55c0-.14-.03-.26-.07-.38s-.12-.22-.2-.31-.19-.16-.3-.21-.24-.08-.37-.08h-.54v-.77c0-.14-.03-.27-.07-.39s-.12-.23-.2-.31-.19-.16-.3-.21-.24-.08-.37-.08l-5.73-.02c-.13,0-.26.03-.37.08s-.22.12-.3.21-.16.2-.2.31-.07.25-.07.39v.77s-.55,0-.55,0c-.13,0-.26.03-.37.08s-.22.12-.3.21-.16.2-.2.31-.07.25-.07.38v.55s-1.39,0-1.39,0c-.13,0-.25.03-.37.08s-.22.12-.3.21-.16.2-.2.31-.07.25-.07.39v11.26c0,.14.03.27.07.39s.12.23.2.31.19.16.3.21.24.08.37.08h2.34s8.72,0,8.72,0h2.33m-31.4-.01c.13,0,.26-.03.37-.08s.22-.12.3-.21.16-.2.2-.32.08-.25.08-.39v-11.29c0-.14-.03-.27-.08-.39s-.12-.23-.2-.32-.19-.16-.3-.21-.24-.08-.37-.08h-1.4v-.55c0-.14-.03-.27-.08-.38s-.12-.22-.21-.31-.19-.16-.3-.21-.24-.08-.37-.08h-.55v-.78c0-.14-.03-.27-.08-.39s-.12-.23-.2-.32-.19-.16-.3-.21-.24-.08-.37-.08l-5.78-.02c-.13,0-.26.03-.37.08s-.22.12-.3.21-.16.2-.21.32-.08.25-.08.39v.78s-.55,0-.55,0c-.13,0-.26.03-.37.08s-.22.12-.31.21-.16.2-.21.31-.08.25-.08.38v.55s-1.4,0-1.4,0c-.13,0-.26.03-.37.08s-.22.12-.3.21-.16.2-.21.32-.08.25-.08.39v11.31c0,.14.03.27.08.39s.12.23.21.32.19.16.3.21.24.08.37.08h2.36s8.79,0,8.79,0h2.35m-31.66-.01c.13,0,.26-.03.37-.08s.22-.12.31-.21.16-.2.21-.32.08-.25.08-.39v-11.34c0-.14-.03-.27-.08-.39s-.12-.23-.21-.32-.19-.16-.31-.21-.24-.08-.37-.08h-1.41v-.55c0-.14-.03-.27-.08-.38s-.12-.23-.21-.32-.19-.16-.31-.21-.24-.08-.38-.08h-.55v-.78c0-.14-.03-.27-.08-.39s-.12-.23-.21-.32-.19-.16-.31-.21-.24-.08-.38-.08l-5.83-.02c-.13,0-.26.03-.37.08s-.22.12-.31.21-.16.2-.21.32-.08.25-.08.39v.78s-.56,0-.56,0c-.13,0-.26.03-.38.08s-.22.12-.31.21-.16.2-.21.32-.08.25-.08.39v.55s-1.41,0-1.41,0c-.13,0-.26.03-.38.08s-.22.12-.31.21-.16.2-.21.32-.08.25-.08.39v11.36c0,.14.03.27.08.39s.12.23.21.32.19.16.31.21.24.08.38.08h2.38s8.86,0,8.86,0h2.37m-31.93-.01c.13,0,.26-.03.38-.08s.22-.12.31-.21.16-.2.21-.32.08-.25.08-.39v-11.38c0-.14-.03-.27-.08-.39s-.12-.23-.21-.32-.19-.16-.31-.22-.24-.08-.38-.08h-1.41v-.56c0-.14-.03-.27-.08-.39s-.12-.23-.21-.32-.19-.16-.31-.21-.24-.08-.38-.08h-.56v-.78c0-.14-.03-.27-.08-.39s-.12-.23-.21-.32-.19-.16-.31-.22-.24-.08-.38-.08l-5.87-.02c-.13,0-.26.03-.38.08s-.22.12-.31.21-.16.2-.21.32-.08.25-.08.39v.78s-.57,0-.57,0c-.13,0-.26.03-.38.08s-.22.12-.31.21-.16.2-.21.32-.08.25-.08.39v.55s-1.42,0-1.42,0c-.13,0-.26.03-.38.08s-.22.12-.31.21-.16.2-.21.32-.08.25-.08.39v11.41c0,.14.03.27.08.39s.12.23.21.32.19.16.31.22.24.08.38.08h2.39s8.94,0,8.94,0h2.39m-23.94-25.2l128.85.48c.66,0,1.3.15,1.87.4s1.09.62,1.53,1.08.79,1,1.03,1.6.38,1.26.38,1.95v46.43c0,.69-.13,1.35-.38,1.95s-.59,1.14-1.03,1.6-.95.82-1.53,1.08-1.21.4-1.87.4l-128.85.48c-.69,0-1.34-.14-1.94-.39s-1.13-.63-1.58-1.09-.81-1.01-1.07-1.62-.39-1.28-.39-1.98v-47.28c0-.71.14-1.38.39-1.99s.62-1.16,1.07-1.62.99-.83,1.58-1.09,1.25-.4,1.94-.39"/>
        <path class="cls-7" d="m217.78,224.22v-4.33s0-.08-.02-.12-.04-.07-.06-.1-.06-.05-.09-.06-.07-.02-.11-.02-.08,0-.12.02-.07.04-.09.06-.05.06-.06.1-.02.08-.02.12v4.33h.59m-3.33,0v-4.34s0-.08-.02-.12-.04-.07-.06-.1-.06-.05-.09-.06-.07-.02-.12-.02-.08,0-.12.02-.07.04-.09.06-.05.06-.06.1-.02.08-.02.12v4.34h.59m-3.33,0v-4.34s0-.08-.02-.12-.04-.07-.06-.1-.06-.05-.09-.06-.08-.02-.12-.02-.08,0-.11.02-.07.04-.09.06-.05.06-.06.1-.02.08-.02.12v4.34h.59m-.21-16.74l5.87.02c.13,0,.26.03.38.08s.22.12.31.22.16.2.21.32.08.25.08.39v.78h.56c.13,0,.26.03.38.08s.22.12.31.21.16.2.21.32.08.25.08.39v.55h1.41c.13,0,.26.03.38.08s.22.12.31.22.16.2.21.32.08.25.08.39v11.38c0,.14-.03.27-.08.39s-.12.23-.21.32-.19.16-.31.21-.24.08-.38.08h-2.39s-8.94,0-8.94,0h-2.39c-.13,0-.26-.03-.38-.08s-.22-.12-.31-.22-.16-.2-.21-.32-.08-.25-.08-.39v-11.41c0-.14.03-.27.08-.39s.12-.23.21-.32.19-.16.31-.21.24-.08.38-.08h1.42s0-.55,0-.55c0-.14.03-.27.08-.39s.12-.23.21-.32.19-.16.31-.21.24-.08.38-.08h.57s0-.78,0-.78c0-.14.03-.27.08-.39s.12-.23.21-.32.19-.16.31-.21.24-.08.38-.08"/>
        <g class="cls-1">
          <path class="cls-10" d="m217.49,219.59s.08,0,.11.02.07.04.09.06.05.06.06.1.02.08.02.12v4.33s-.59,0-.59,0v-4.33s0-.08.02-.12.04-.07.06-.1.06-.05.09-.06.07-.02.12-.02"/>
          <path class="cls-10" d="m214.16,219.58s.08,0,.12.02.07.04.09.06.05.06.06.1.02.08.02.12v4.34s-.59,0-.59,0v-4.34s0-.08.02-.12.04-.07.06-.1.06-.05.09-.06.07-.02.12-.02"/>
          <path class="cls-10" d="m210.82,219.58s.08,0,.12.02.07.04.09.06.05.06.06.1.02.08.02.12v4.34s-.59,0-.59,0v-4.34s0-.08.02-.12.04-.07.06-.1.06-.05.09-.06.07-.02.11-.02"/>
        </g>
        <path class="cls-7" d="m249.74,224.24v-4.32s0-.08-.02-.12-.04-.07-.06-.1-.06-.05-.09-.06-.07-.02-.11-.02-.08,0-.12.02-.07.04-.09.06-.05.06-.06.1-.02.08-.02.12v4.32h.59m-3.3,0v-4.32s0-.08-.02-.12-.04-.07-.06-.1-.06-.05-.09-.06-.07-.02-.12-.02-.08,0-.11.02-.07.04-.09.06-.05.06-.06.1-.02.08-.02.12v4.32h.59m-3.31,0v-4.32s0-.08-.02-.12-.04-.07-.06-.1-.06-.05-.09-.06-.07-.02-.12-.02-.08,0-.11.02-.07.04-.09.06-.05.06-.06.1-.02.08-.02.12v4.32h.59m-.21-16.67l5.83.02c.13,0,.26.03.38.08s.22.12.31.21.16.2.21.32.08.25.08.39v.78h.55c.13,0,.26.03.38.08s.22.12.31.21.16.2.21.32.08.25.08.38v.55h1.41c.13,0,.26.03.37.08s.22.12.31.21.16.2.21.32.08.25.08.39v11.34c0,.14-.03.27-.08.39s-.12.23-.21.32-.19.16-.31.21-.24.08-.37.08h-2.37s-8.86,0-8.86,0h-2.38c-.13,0-.26-.03-.38-.08s-.22-.12-.31-.21-.16-.2-.21-.32-.08-.25-.08-.39v-11.36c0-.14.03-.27.08-.39s.12-.23.21-.32.19-.16.31-.21.24-.08.38-.08h1.41s0-.55,0-.55c0-.14.03-.27.08-.39s.12-.23.21-.32.19-.16.31-.21.24-.08.38-.08h.56s0-.78,0-.78c0-.14.03-.27.08-.39s.12-.23.21-.32.19-.16.31-.21.24-.08.37-.08"/>
        <g class="cls-16">
          <path class="cls-10" d="m249.45,219.62s.08,0,.11.02.07.04.09.06.05.06.06.1.02.08.02.12v4.32s-.59,0-.59,0v-4.32s0-.08.02-.12.04-.07.06-.1.06-.05.09-.06.07-.02.12-.02"/>
          <path class="cls-10" d="m246.14,219.62s.08,0,.12.02.07.04.09.06.05.06.06.1.02.08.02.12v4.32s-.59,0-.59,0v-4.32s0-.08.02-.12.04-.07.06-.1.06-.05.09-.06.07-.02.11-.02"/>
          <path class="cls-10" d="m242.83,219.61s.08,0,.12.02.07.04.09.06.05.06.06.1.02.08.02.12v4.32s-.59,0-.59,0v-4.32s0-.08.02-.12.04-.07.06-.1.06-.05.09-.06.07-.02.11-.02"/>
        </g>
        <path class="cls-7" d="m281.42,224.25v-4.3s0-.08-.02-.12-.04-.07-.06-.09-.06-.05-.09-.06-.07-.02-.11-.02-.08,0-.11.02-.07.04-.09.06-.05.06-.06.09-.02.08-.02.12v4.3h.58m-3.27,0v-4.3s0-.08-.02-.12-.04-.07-.06-.09-.06-.05-.09-.06-.07-.02-.11-.02-.08,0-.11.02-.07.04-.09.06-.05.06-.06.09-.02.08-.02.12v4.3h.58m-3.28,0v-4.3s0-.08-.02-.12-.04-.07-.06-.09-.06-.05-.09-.06-.07-.02-.11-.02-.08,0-.11.02-.07.04-.09.06-.05.06-.06.09-.02.08-.02.12v4.3h.58m-.2-16.6l5.78.02c.13,0,.26.03.37.08s.22.12.3.21.16.2.2.32.08.25.08.39v.78h.55c.13,0,.26.03.37.08s.22.12.3.21.16.2.21.31.08.25.08.38v.55h1.4c.13,0,.26.03.37.08s.22.12.3.21.16.2.2.32.08.25.08.39v11.29c0,.14-.03.27-.08.39s-.12.23-.2.32-.19.16-.3.21-.24.08-.37.08h-2.35s-8.79,0-8.79,0h-2.36c-.13,0-.26-.03-.37-.08s-.22-.12-.3-.21-.16-.2-.21-.32-.08-.25-.08-.39v-11.31c0-.14.03-.27.08-.39s.12-.23.21-.32.19-.16.3-.21.24-.08.37-.08h1.4s0-.55,0-.55c0-.14.03-.27.08-.38s.12-.22.21-.31.19-.16.31-.21.24-.08.37-.08h.55s0-.78,0-.78c0-.14.03-.27.08-.39s.12-.23.21-.32.19-.16.3-.21.24-.08.37-.08"/>
        <g class="cls-19">
          <path class="cls-10" d="m281.14,219.65s.08,0,.11.02.07.04.09.06.05.06.06.09.02.08.02.12v4.3s-.58,0-.58,0v-4.3s0-.08.02-.12.04-.07.06-.09.06-.05.09-.06.07-.02.11-.02"/>
          <path class="cls-10" d="m277.86,219.65s.08,0,.11.02.07.04.09.06.05.06.06.09.02.08.02.12v4.3s-.58,0-.58,0v-4.3s0-.08.02-.12.04-.07.06-.09.06-.05.09-.06.07-.02.11-.02"/>
          <path class="cls-10" d="m274.58,219.65s.08,0,.11.02.07.04.09.06.05.06.06.09.02.08.02.12v4.3s-.58,0-.58,0v-4.3s0-.08.02-.12.04-.07.06-.09.06-.05.09-.06.07-.02.11-.02"/>
        </g>
        <path class="cls-7" d="m312.86,224.26v-4.28s0-.08-.02-.12-.04-.07-.06-.09-.06-.05-.09-.06-.07-.02-.11-.02-.08,0-.11.02-.06.04-.09.06-.05.06-.06.09-.02.08-.02.12v4.28h.58m-3.25,0v-4.28s0-.08-.02-.12-.04-.07-.06-.09-.06-.05-.09-.06-.07-.02-.11-.02-.08,0-.11.02-.06.04-.09.06-.05.06-.06.09-.02.08-.02.12v4.28h.58m-3.25,0v-4.28s0-.08-.02-.12-.04-.07-.06-.09-.06-.05-.09-.06-.07-.02-.11-.02-.08,0-.11.02-.06.04-.09.06-.05.06-.06.09-.02.08-.02.12v4.28h.58m-.2-16.53l5.73.02c.13,0,.25.03.37.08s.21.12.3.21.16.2.2.31.07.25.07.39v.77h.54c.13,0,.26.03.37.08s.22.12.3.21.16.2.2.31.07.25.07.38v.55h1.38c.13,0,.26.03.37.08s.21.12.3.21.15.2.2.31.07.25.07.38v11.24c0,.14-.03.27-.07.38s-.12.22-.2.31-.19.16-.3.21-.24.08-.37.08h-2.33s-8.72,0-8.72,0h-2.34c-.13,0-.25-.03-.37-.08s-.22-.12-.3-.21-.16-.2-.2-.31-.07-.25-.07-.39v-11.26c0-.14.03-.27.07-.39s.12-.22.2-.31.19-.16.3-.21.24-.08.37-.08h1.39s0-.54,0-.54c0-.14.03-.26.07-.38s.12-.22.2-.31.19-.16.3-.21.24-.08.37-.08h.55s0-.77,0-.77c0-.14.03-.27.07-.39s.12-.22.2-.31.19-.16.3-.21.24-.08.37-.08"/>
        <g class="cls-18">
          <path class="cls-10" d="m312.57,219.69s.08,0,.11.02.07.04.09.06.05.06.06.09.02.08.02.12v4.28s-.58,0-.58,0v-4.28s0-.08.02-.12.03-.07.06-.09.06-.05.09-.06.07-.02.11-.02"/>
          <path class="cls-10" d="m309.32,219.68s.08,0,.11.02.07.04.09.06.05.06.06.09.02.08.02.12v4.28s-.58,0-.58,0v-4.28s0-.08.02-.12.04-.07.06-.09.06-.05.09-.06.07-.02.11-.02"/>
          <path class="cls-10" d="m306.06,219.68s.08,0,.11.02.07.04.09.06.05.06.06.09.02.08.02.12v4.28s-.58,0-.58,0v-4.28s0-.08.02-.12.04-.07.06-.09.06-.05.09-.06.07-.02.11-.02"/>
        </g>
        <path class="cls-7" d="m206.98,231.27h2.39s1.15,0,1.15,0v4.34s0,.08.02.12.04.07.06.1.06.05.09.06.07.02.11.02.08,0,.12-.02.07-.04.09-.06.05-.06.06-.1.02-.08.02-.12v-4.34s2.74,0,2.74,0v4.34s0,.08.02.12.04.07.06.1.06.05.09.06.07.02.12.02.08,0,.12-.02.07-.04.09-.06.05-.06.06-.1.02-.08.02-.12v-4.34s2.74,0,2.74,0v4.33s0,.08.02.12.04.07.06.1.06.05.09.06.07.02.12.02.08,0,.11-.02.07-.04.09-.06.05-.06.06-.1.02-.08.02-.12v-4.33s.54,0,.54,0h2.39c.13,0,.26.03.38.08s.22.12.31.21.16.2.21.32.08.25.08.39v11.39c0,.14-.03.27-.08.39s-.12.23-.21.32-.19.16-.31.21-.24.08-.38.08h-1.41v.56c0,.14-.03.27-.08.39s-.12.23-.21.32-.19.16-.31.22-.24.08-.38.08h-.56v.78c0,.14-.03.27-.08.39s-.12.23-.21.32-.19.16-.31.21-.24.08-.38.08l-5.87.02c-.13,0-.26-.03-.38-.08s-.22-.12-.31-.21-.16-.2-.21-.32-.08-.25-.08-.39v-.78h-.57c-.13,0-.26-.03-.38-.08s-.22-.12-.31-.21-.16-.2-.21-.32-.08-.25-.08-.39v-.55h-1.42c-.13,0-.26-.02-.38-.07s-.22-.12-.31-.21-.16-.2-.21-.32-.08-.25-.08-.39v-11.41c0-.14.03-.27.08-.39s.12-.23.21-.32.19-.16.31-.21.24-.08.38-.08"/>
        <g class="cls-17">
          <path class="cls-10" d="m217.19,231.27h.59s0,4.33,0,4.33c0,.04,0,.08-.02.12s-.04.07-.06.1-.06.05-.09.06-.07.02-.11.02-.08,0-.12-.02-.07-.04-.09-.06-.05-.06-.06-.1-.02-.08-.02-.12v-4.33"/>
          <path class="cls-10" d="m213.87,231.27h.59s0,4.34,0,4.34c0,.04,0,.08-.02.12s-.04.07-.06.1-.06.05-.09.06-.07.02-.12.02-.08,0-.12-.02-.07-.04-.09-.06-.05-.06-.06-.1-.02-.08-.02-.12v-4.34"/>
          <path class="cls-10" d="m210.53,231.27h.59s0,4.34,0,4.34c0,.04,0,.08-.02.12s-.04.07-.06.1-.06.05-.09.06-.08.02-.12.02-.08,0-.11-.02-.07-.04-.09-.06-.05-.06-.06-.1-.02-.08-.02-.12v-4.34"/>
        </g>
        <path class="cls-7" d="m239.03,231.26h2.38s1.14,0,1.14,0v4.32s0,.08.02.12.04.07.06.1.06.05.09.06.07.02.11.02.08,0,.12-.02.07-.04.09-.06.05-.06.06-.1.02-.08.02-.12v-4.32s2.72,0,2.72,0v4.32s0,.08.02.12.04.07.06.1.06.05.09.06.07.02.11.02.08,0,.12-.02.07-.04.09-.06.05-.06.06-.1.02-.08.02-.12v-4.32s2.71,0,2.71,0v4.32s0,.08.02.12.04.07.06.1.06.05.09.06.07.02.12.02.08,0,.11-.02.07-.04.09-.06.05-.06.06-.1.02-.08.02-.12v-4.32s.53,0,.53,0h2.37c.13,0,.26.03.37.08s.22.12.31.21.16.2.21.32.08.25.08.38v11.34c0,.14-.03.27-.08.39s-.12.23-.21.32-.19.16-.31.21-.24.08-.37.08h-1.41v.55c0,.14-.03.27-.08.39s-.12.23-.21.32-.19.16-.31.21-.24.08-.38.08h-.55v.78c0,.14-.03.27-.08.39s-.12.23-.21.32-.19.16-.31.21-.24.08-.38.08l-5.83.02c-.13,0-.26-.03-.37-.08s-.22-.12-.31-.21-.16-.2-.21-.31-.08-.25-.08-.39v-.78h-.56c-.13,0-.26-.03-.38-.08s-.22-.12-.31-.21-.16-.2-.21-.32-.08-.25-.08-.39v-.55h-1.41c-.13,0-.26-.02-.38-.07s-.22-.12-.31-.21-.16-.2-.21-.32-.08-.25-.08-.39v-11.36c0-.14.03-.27.08-.39s.12-.23.21-.32.19-.16.31-.21.24-.08.38-.08"/>
        <g class="cls-23">
          <path class="cls-10" d="m249.15,231.26h.59s0,4.32,0,4.32c0,.04,0,.08-.02.12s-.04.07-.06.1-.06.05-.09.06-.07.02-.11.02-.08,0-.12-.02-.07-.04-.09-.06-.05-.06-.06-.1-.02-.08-.02-.12v-4.32"/>
          <path class="cls-10" d="m245.85,231.26h.59s0,4.32,0,4.32c0,.04,0,.08-.02.12s-.04.07-.06.1-.06.05-.09.06-.07.02-.12.02-.08,0-.11-.02-.07-.04-.09-.06-.05-.06-.06-.1-.02-.08-.02-.12v-4.32"/>
          <path class="cls-10" d="m242.54,231.26h.59s0,4.32,0,4.32c0,.04,0,.08-.02.12s-.04.07-.06.1-.06.05-.09.06-.07.02-.12.02-.08,0-.11-.02-.07-.04-.09-.06-.05-.06-.06-.1-.02-.08-.02-.12v-4.32"/>
        </g>
        <path class="cls-7" d="m270.8,231.25h2.36s1.13,0,1.13,0v4.3s0,.08.02.12.04.07.06.09.06.05.09.06.07.02.11.02.08,0,.11-.02.07-.04.09-.06.05-.06.06-.09.02-.08.02-.12v-4.3s2.7,0,2.7,0v4.3s0,.08.02.12.04.07.06.09.06.05.09.06.07.02.11.02.08,0,.11-.02.07-.04.09-.06.05-.06.06-.09.02-.08.02-.12v-4.3s2.69,0,2.69,0v4.3s0,.08.02.12.04.07.06.09.06.05.09.06.07.02.11.02.08,0,.11-.02.07-.04.09-.06.05-.06.06-.09.02-.08.02-.12v-4.3s.53,0,.53,0h2.35c.13,0,.26.03.37.08s.22.12.3.21.16.2.2.31.08.25.08.38v11.29c0,.14-.03.27-.08.39s-.12.22-.2.31-.19.16-.3.21-.24.08-.37.08h-1.4v.55c0,.14-.03.27-.08.39s-.12.23-.21.32-.19.16-.3.21-.24.08-.37.08h-.55v.78c0,.14-.03.27-.08.39s-.12.22-.2.31-.19.16-.3.21-.24.08-.37.08l-5.78.02c-.13,0-.26-.03-.37-.08s-.22-.12-.3-.21-.16-.2-.21-.31-.08-.25-.08-.39v-.78h-.55c-.13,0-.26-.03-.37-.08s-.22-.12-.31-.21-.16-.2-.21-.32-.08-.25-.08-.39v-.55h-1.4c-.13,0-.26-.02-.37-.07s-.22-.12-.3-.21-.16-.2-.21-.31-.08-.25-.08-.39v-11.32c0-.14.03-.27.08-.38s.12-.22.21-.31.19-.16.3-.21.24-.08.37-.08"/>
        <g class="cls-22">
          <path class="cls-10" d="m280.84,231.24h.58s0,4.3,0,4.3c0,.04,0,.08-.02.12s-.04.07-.06.09-.06.05-.09.06-.07.02-.11.02-.08,0-.11-.02-.07-.04-.09-.06-.05-.06-.06-.09-.02-.08-.02-.12v-4.3"/>
          <path class="cls-10" d="m277.57,231.24h.58s0,4.3,0,4.3c0,.04,0,.08-.02.12s-.04.07-.06.09-.06.05-.09.06-.07.02-.11.02-.08,0-.11-.02-.07-.04-.09-.06-.05-.06-.06-.09-.02-.08-.02-.12v-4.3"/>
          <path class="cls-10" d="m274.29,231.24h.58s0,4.3,0,4.3c0,.04,0,.08-.02.12s-.04.07-.06.09-.06.05-.09.06-.07.02-.11.02-.08,0-.11-.02-.07-.04-.09-.06-.05-.06-.06-.09-.02-.08-.02-.12v-4.3"/>
        </g>
        <path class="cls-7" d="m302.32,231.23h2.34s1.12,0,1.12,0v4.28s0,.08.02.12.04.07.06.09.06.05.09.06.07.02.11.02.08,0,.11-.02.07-.04.09-.06.05-.06.06-.09.02-.08.02-.12v-4.28s2.68,0,2.68,0v4.28s0,.08.02.12.04.07.06.09.06.05.09.06.07.02.11.02.08,0,.11-.02.07-.04.09-.06.05-.06.06-.09.02-.08.02-.12v-4.28s2.67,0,2.67,0v4.28s0,.08.02.12.03.07.06.09.06.05.09.06.07.02.11.02.08,0,.11-.02.07-.04.09-.06.05-.06.06-.09.02-.08.02-.12v-4.28s.52,0,.52,0h2.33c.13,0,.26.03.37.08s.21.12.3.21.15.2.2.31.07.25.07.38v11.25c0,.14-.03.27-.07.38s-.12.22-.2.31-.19.16-.3.21-.24.08-.37.08h-1.38v.55c0,.14-.03.27-.07.38s-.12.23-.2.31-.19.16-.3.21-.24.08-.37.08h-.54v.77c0,.14-.03.27-.07.38s-.12.22-.2.31-.19.16-.3.21-.24.08-.37.08l-5.73.02c-.13,0-.26-.03-.37-.08s-.22-.12-.3-.21-.16-.19-.2-.31-.07-.25-.07-.38v-.77h-.55c-.13,0-.26-.03-.37-.08s-.22-.12-.3-.21-.16-.2-.2-.31-.07-.25-.07-.39v-.55h-1.39c-.13,0-.25-.02-.37-.07s-.22-.12-.3-.21-.16-.19-.2-.31-.07-.25-.07-.38v-11.27c0-.14.03-.26.07-.38s.12-.22.2-.31.19-.16.3-.21.24-.08.37-.08"/>
        <g class="cls-20">
          <path class="cls-10" d="m312.28,231.23h.58s0,4.28,0,4.28c0,.04,0,.08-.02.12s-.04.07-.06.09-.06.05-.09.06-.07.02-.11.02-.08,0-.11-.02-.06-.04-.09-.06-.05-.06-.06-.09-.02-.08-.02-.12v-4.28"/>
          <path class="cls-10" d="m309.03,231.23h.58s0,4.28,0,4.28c0,.04,0,.08-.02.12s-.04.07-.06.09-.06.05-.09.06-.07.02-.11.02-.08,0-.11-.02-.06-.04-.09-.06-.05-.06-.06-.09-.02-.08-.02-.12v-4.28"/>
          <path class="cls-10" d="m305.78,231.23h.58s0,4.28,0,4.28c0,.04,0,.08-.02.12s-.04.07-.06.09-.06.05-.09.06-.07.02-.11.02-.08,0-.11-.02-.06-.04-.09-.06-.05-.06-.06-.09-.02-.08-.02-.12v-4.28"/>
        </g>
        <path class="cls-15" d="m441.26,231.17h-1.08s-2.26,0-2.26,0c-.13,0-.25.03-.35.08s-.21.12-.29.21-.15.19-.2.31-.07.24-.07.38v11.07c0,.13.03.26.07.38s.11.22.2.31.18.16.29.21.23.08.35.07h1.34s0,.53,0,.53c0,.13.03.26.07.38s.11.22.2.31.18.16.29.21.23.08.36.08h.53s0,.76,0,.76c0,.13.03.26.07.38s.11.22.2.31.18.16.29.21.23.08.35.07h5.53c.13-.01.24-.04.35-.09s.21-.12.29-.21.15-.19.2-.31.07-.24.07-.38v-.76s.53,0,.53,0c.13,0,.25-.03.36-.08s.21-.12.29-.21.15-.19.2-.31.07-.24.07-.38v-.54s1.34,0,1.34,0c.13,0,.24-.03.35-.08s.21-.12.29-.21.15-.19.2-.31.07-.24.07-.38v-11.05c0-.13-.03-.26-.07-.37s-.11-.22-.2-.31-.18-.16-.29-.21-.23-.08-.35-.08h-2.25s-.51,0-.51,0h-.56s-2.57,0-2.57,0h-.56s-2.58,0-2.58,0h-.56m-30.37.01h-1.09s-2.28,0-2.28,0c-.13,0-.25.03-.36.08s-.21.12-.29.21-.15.19-.2.31-.07.24-.07.38v11.11c0,.13.03.26.07.38s.11.22.2.31.18.16.29.21.23.08.36.08h1.35s0,.54,0,.54c0,.13.03.26.07.38s.11.22.2.31.18.16.29.21.23.08.36.08h.53s0,.76,0,.76c0,.13.03.26.07.38s.11.22.2.31.18.16.29.21.23.08.36.08h5.57c.13-.01.25-.04.36-.09s.21-.12.29-.21.15-.19.2-.31.07-.24.07-.38v-.76s.53,0,.53,0c.13,0,.25-.03.36-.08s.21-.12.29-.21.15-.19.2-.31.07-.25.07-.38v-.54s1.35,0,1.35,0c.13,0,.25-.03.36-.08s.21-.12.29-.21.15-.19.2-.31.07-.24.07-.38v-11.09c0-.13-.03-.26-.07-.38s-.11-.22-.2-.31-.18-.16-.29-.21-.23-.08-.36-.08h-2.27s-.51,0-.51,0h-.56s-2.6,0-2.6,0h-.56s-2.6,0-2.6,0h-.56m-30.62.01h-1.1s-2.29,0-2.29,0c-.13,0-.25.03-.36.08s-.21.12-.3.21-.15.19-.2.31-.07.24-.07.38v11.16c0,.14.03.26.07.38s.11.22.2.31.18.16.3.21.23.08.36.08h1.36s0,.54,0,.54c0,.14.03.26.07.38s.12.22.2.31.18.16.3.21.23.08.36.08h.54s0,.76,0,.76c0,.14.03.26.07.38s.11.22.2.31.18.16.29.21.23.08.36.08h5.62c.13-.02.25-.04.36-.09s.21-.12.3-.21.15-.19.2-.31.07-.25.07-.38v-.77s.53,0,.53,0c.13,0,.25-.03.36-.08s.21-.12.3-.21.15-.19.2-.31.07-.25.07-.38v-.54s1.35,0,1.35,0c.13,0,.25-.03.36-.08s.21-.12.3-.21.15-.19.2-.31.07-.25.07-.38v-11.14c0-.13-.03-.26-.07-.38s-.12-.22-.2-.31-.18-.16-.3-.21-.23-.08-.36-.08h-2.28s-.51,0-.51,0h-.56s-2.62,0-2.62,0h-.57s-2.62,0-2.62,0h-.57m-30.87.01h-1.11s-2.31,0-2.31,0c-.13,0-.25.03-.37.08s-.21.12-.3.21-.15.19-.2.31-.07.25-.07.38v11.21c0,.14.03.27.07.38s.12.22.2.31.19.16.3.21.24.08.37.08h1.37s0,.54,0,.54c0,.14.03.27.07.38s.12.22.2.31.19.16.3.21.23.08.36.08h.54s0,.77,0,.77c0,.14.03.26.07.38s.12.22.2.31.19.16.3.21.24.08.37.08h5.66c.13-.02.25-.04.37-.09s.21-.12.3-.21.15-.19.2-.31.07-.25.07-.38v-.77s.54,0,.54,0c.13,0,.25-.03.37-.08s.21-.12.3-.21.15-.2.2-.31.07-.25.07-.38v-.54s1.36,0,1.36,0c.13,0,.25-.03.36-.08s.21-.12.3-.21.15-.19.2-.31.07-.25.07-.38v-11.18c0-.13-.03-.26-.07-.38s-.12-.22-.2-.31-.19-.16-.3-.21-.24-.08-.36-.08h-2.3s-.52,0-.52,0h-.57s-2.64,0-2.64,0h-.57s-2.64,0-2.64,0h-.57m101.45-6.88c.13,0,.24-.03.35-.08s.21-.12.29-.21.15-.19.2-.31.07-.24.07-.38v-11.04c0-.13-.03-.26-.07-.38s-.11-.22-.2-.31-.18-.16-.29-.21-.23-.08-.35-.08h-1.34v-.54c0-.13-.03-.26-.07-.38s-.11-.22-.2-.31-.18-.16-.29-.21-.23-.08-.36-.08h-.53v-.76c0-.13-.03-.26-.07-.38s-.11-.22-.2-.31-.18-.16-.29-.21-.23-.08-.35-.08h-5.53c-.13-.01-.25.01-.35.06s-.21.12-.29.21-.15.19-.2.31-.07.24-.07.38v.76s-.53,0-.53,0c-.13,0-.25.03-.36.08s-.21.12-.29.21-.15.19-.2.31-.07.24-.07.38v.54s-1.34,0-1.34,0c-.13,0-.25.03-.35.08s-.21.12-.29.21-.15.19-.2.31-.07.24-.07.38v11.06c0,.13.03.26.07.38s.11.22.2.31.18.16.29.21.23.08.35.08h2.26s8.41,0,8.41,0h2.25m-30.3-.01c.13,0,.25-.03.36-.08s.21-.12.29-.21.15-.19.2-.31.07-.24.07-.38v-11.09c0-.13-.03-.26-.07-.38s-.11-.22-.2-.31-.18-.16-.29-.21-.23-.08-.36-.08h-1.35v-.54c0-.13-.03-.26-.07-.38s-.11-.22-.2-.31-.18-.16-.29-.21-.23-.08-.36-.08h-.53v-.76c0-.13-.03-.26-.07-.38s-.11-.22-.2-.31-.18-.16-.29-.21-.23-.08-.36-.08h-5.57c-.13-.01-.25.01-.36.06s-.21.12-.29.21-.15.19-.2.31-.07.25-.07.38v.76s-.53,0-.53,0c-.13,0-.25.03-.36.08s-.21.12-.29.21-.15.19-.2.31-.07.24-.07.38v.54s-1.35,0-1.35,0c-.13,0-.25.03-.36.08s-.21.12-.29.21-.15.19-.2.31-.07.25-.07.38v11.11c0,.13.03.26.07.38s.11.22.2.31.18.16.29.21.23.08.36.08h2.28s8.48,0,8.48,0h2.27m-30.55-.01c.13,0,.25-.03.36-.08s.21-.12.3-.21.15-.19.2-.31.07-.25.07-.38v-11.13c0-.14-.03-.26-.07-.38s-.12-.22-.2-.31-.18-.16-.3-.21-.23-.08-.36-.08h-1.35v-.54c0-.13-.03-.26-.07-.38s-.12-.22-.2-.31-.18-.16-.3-.21-.23-.08-.36-.08h-.53v-.77c0-.14-.03-.26-.07-.38s-.12-.22-.2-.31-.18-.16-.3-.21-.23-.08-.36-.08h-5.62c-.13-.02-.25.01-.36.06s-.21.12-.29.21-.15.19-.2.31-.07.25-.07.38v.77s-.54,0-.54,0c-.13,0-.25.03-.36.08s-.21.12-.3.21-.15.19-.2.31-.07.24-.07.38v.54s-1.36,0-1.36,0c-.13,0-.25.03-.36.08s-.21.12-.3.21-.15.19-.2.31-.07.25-.07.38v11.15c0,.14.03.26.07.38s.11.22.2.31.18.16.3.21.23.08.36.08h2.29s8.55,0,8.55,0h2.28m-30.79-.01c.13,0,.25-.03.36-.08s.21-.12.3-.21.15-.19.2-.31.07-.25.07-.38v-11.18c0-.14-.03-.26-.07-.38s-.12-.22-.2-.31-.19-.16-.3-.21-.24-.08-.36-.08h-1.36v-.55c0-.13-.03-.26-.07-.38s-.12-.22-.2-.31-.19-.16-.3-.21-.24-.08-.37-.08h-.54v-.77c0-.14-.03-.27-.07-.38s-.12-.22-.2-.31-.19-.16-.3-.21-.24-.08-.37-.08h-5.66c-.13-.02-.25.01-.37.06s-.21.12-.3.21-.15.19-.2.31-.07.25-.07.38v.77s-.54,0-.54,0c-.13,0-.25.03-.36.08s-.21.12-.3.21-.15.19-.2.31-.07.25-.07.38v.54s-1.37,0-1.37,0c-.13,0-.25.03-.37.08s-.21.12-.3.21-.15.19-.2.31-.07.25-.07.38v11.2c0,.14.03.27.07.38s.12.22.2.31.19.16.3.21.24.08.37.08h2.31s8.62,0,8.62,0h2.3m-23.09-24.75l124.29.46c.64,0,1.25.14,1.8.39s1.05.61,1.47,1.06.76.98.99,1.57.36,1.24.36,1.92v45.61c0,.68-.13,1.33-.36,1.92s-.57,1.12-.99,1.57-.92.81-1.47,1.06-1.16.39-1.8.39l-124.29.46c-.66,0-1.29-.14-1.87-.39s-1.09-.62-1.52-1.07-.79-.99-1.03-1.59-.38-1.26-.38-1.95v-46.42c0-.69.13-1.35.38-1.95s.59-1.14,1.03-1.59.95-.82,1.52-1.07,1.2-.39,1.87-.39"/>
        <path class="cls-7" d="m356.39,224.28v-4.26s0-.08-.02-.12-.04-.07-.06-.09-.06-.05-.09-.06-.07-.02-.11-.02-.08,0-.11.02-.07.04-.09.06-.05.06-.06.09-.02.07-.02.12v4.26h.57m-3.21,0v-4.26s0-.08-.02-.12-.04-.07-.06-.09-.06-.05-.09-.06-.07-.02-.11-.02-.08,0-.11.02-.07.04-.09.06-.05.06-.06.09-.02.07-.02.12v4.26h.57m-3.21,0v-4.26s0-.08-.02-.12-.04-.07-.06-.09-.06-.05-.09-.06-.07-.02-.11-.02-.08,0-.11.02-.06.04-.09.06-.05.06-.06.09-.02.07-.02.12v4.26h.57m-.2-16.44h5.66c.13.02.25.04.37.09s.21.12.3.21.15.2.2.31.07.25.07.38v.77h.54c.13,0,.25.03.37.08s.21.12.3.21.15.19.2.31.07.25.07.38v.54h1.36c.13,0,.25.03.36.08s.21.12.3.21.15.2.2.31.07.25.07.38v11.18c0,.14-.03.26-.07.38s-.12.22-.2.31-.19.16-.3.21-.24.08-.36.08h-2.3s-8.62,0-8.62,0h-2.31c-.13,0-.25-.03-.37-.08s-.21-.12-.3-.21-.15-.2-.2-.31-.07-.25-.07-.38v-11.2c0-.14.03-.27.07-.38s.12-.22.2-.31.19-.16.3-.21.24-.08.37-.08h1.37s0-.54,0-.54c0-.13.03-.26.07-.38s.12-.22.2-.31.19-.16.3-.21.23-.08.36-.08h.54s0-.77,0-.77c0-.14.03-.27.07-.38s.12-.22.2-.31.19-.16.3-.21.24-.08.37-.08"/>
        <g class="cls-21">
          <path class="cls-10" d="m356.1,219.73s.08,0,.11.02.06.04.09.06.05.06.06.09.02.07.02.12v4.26s-.57,0-.57,0v-4.26s0-.08.02-.12.04-.07.06-.09.06-.05.09-.06.07-.02.11-.02"/>
          <path class="cls-10" d="m352.89,219.73s.08,0,.11.02.06.04.09.06.05.06.06.09.02.07.02.12v4.26s-.57,0-.57,0v-4.26s0-.08.02-.12.04-.07.06-.09.06-.05.09-.06.07-.02.11-.02"/>
          <path class="cls-10" d="m349.68,219.73s.08,0,.11.02.07.04.09.06.05.06.06.09.02.07.02.12v4.26s-.57,0-.57,0v-4.26s0-.08.02-.12.03-.07.06-.09.06-.05.09-.06.07-.02.11-.02"/>
        </g>
        <path class="cls-7" d="m387.2,224.3v-4.24s0-.08-.02-.12-.03-.07-.06-.09-.06-.05-.09-.06-.07-.02-.11-.02-.08,0-.11.02-.06.04-.09.06-.05.06-.06.09-.02.07-.02.12v4.24h.56m-3.19,0v-4.24s0-.08-.02-.12-.03-.07-.06-.09-.06-.05-.09-.06-.07-.02-.11-.02-.08,0-.11.02-.06.04-.09.06-.05.06-.06.09-.02.07-.02.12v4.24h.57m-3.18,0v-4.24s0-.08-.02-.12-.04-.07-.06-.09-.06-.05-.09-.06-.07-.02-.11-.02-.07,0-.11.02-.06.04-.09.06-.05.06-.06.09-.02.07-.02.12v4.24h.57m-.2-16.37h5.62c.13.02.25.04.36.09s.21.12.3.21.15.19.2.31.07.25.07.38v.77h.53c.13,0,.25.03.36.08s.21.12.3.21.15.19.2.31.07.24.07.38v.54h1.35c.13,0,.25.03.36.08s.21.12.3.21.15.19.2.31.07.25.07.38v11.13c0,.14-.03.26-.07.38s-.12.22-.2.31-.18.16-.3.21-.23.08-.36.08h-2.28s-8.55,0-8.55,0h-2.29c-.13,0-.25-.03-.36-.08s-.21-.12-.3-.21-.15-.19-.2-.31-.07-.25-.07-.38v-11.15c0-.14.03-.26.07-.38s.11-.22.2-.31.18-.16.3-.21.23-.08.36-.08h1.36s0-.54,0-.54c0-.13.03-.26.07-.38s.12-.22.2-.31.18-.16.3-.21.23-.08.36-.08h.54s0-.76,0-.76c0-.14.03-.26.07-.38s.11-.22.2-.31.18-.16.29-.21.23-.08.36-.08"/>
        <g class="cls-24">
          <path class="cls-10" d="m386.92,219.77s.07,0,.11.02.06.04.09.06.05.06.06.09.02.07.02.12v4.24s-.56,0-.56,0v-4.24s0-.08.02-.12.04-.07.06-.09.06-.05.09-.06.07-.02.11-.02"/>
          <path class="cls-10" d="m383.73,219.76s.08,0,.11.02.06.04.09.06.05.06.06.09.02.07.02.12v4.24s-.57,0-.57,0v-4.24s0-.08.02-.12.04-.07.06-.09.06-.05.09-.06.07-.02.11-.02"/>
          <path class="cls-10" d="m380.55,219.76s.08,0,.11.02.06.04.09.06.05.06.06.09.02.07.02.12v4.24s-.57,0-.57,0v-4.24s0-.08.02-.12.04-.07.06-.09.06-.05.09-.06.07-.02.11-.02"/>
        </g>
        <path class="cls-7" d="m417.77,224.31v-4.22s0-.08-.02-.12-.03-.07-.06-.09-.06-.05-.09-.06-.07-.02-.11-.02-.08,0-.11.02-.06.04-.09.06-.05.06-.06.09-.02.07-.02.12v4.22h.56m-3.16,0v-4.22s0-.08-.02-.12-.03-.07-.06-.09-.06-.05-.09-.06-.07-.02-.11-.02-.08,0-.11.02-.06.04-.09.06-.04.06-.06.09-.02.07-.02.12v4.22h.56m-3.16,0v-4.23s0-.08-.02-.12-.04-.07-.06-.09-.06-.05-.09-.06-.07-.02-.11-.02-.07,0-.11.02-.06.04-.09.06-.05.06-.06.09-.02.07-.02.12v4.23h.56m-.2-16.3h5.57c.13.01.25.04.36.09s.21.12.29.21.15.19.2.31.07.25.07.38v.76h.53c.13,0,.25.03.36.08s.21.12.29.21.15.19.2.31.07.24.07.38v.54h1.35c.13,0,.25.03.36.08s.21.12.29.21.15.19.2.31.07.24.07.38v11.09c0,.13-.03.26-.07.38s-.11.22-.2.31-.18.16-.29.21-.23.08-.36.08h-2.27s-8.48,0-8.48,0h-2.28c-.13,0-.25-.03-.36-.08s-.21-.12-.29-.21-.15-.19-.2-.31-.07-.25-.07-.38v-11.11c0-.13.03-.26.07-.38s.11-.22.2-.31.18-.16.29-.21.23-.08.36-.08h1.35s0-.54,0-.54c0-.13.03-.26.07-.38s.11-.22.2-.31.18-.16.29-.21.23-.08.36-.08h.53s0-.76,0-.76c0-.13.03-.26.07-.38s.11-.22.2-.31.18-.16.29-.21.23-.08.36-.08"/>
        <g class="cls-28">
          <path class="cls-10" d="m417.49,219.8s.07,0,.11.02.06.04.09.06.05.06.06.09.02.07.02.12v4.22s-.56,0-.56,0v-4.22s0-.08.02-.12.03-.07.06-.09.06-.05.09-.06.07-.02.11-.02"/>
          <path class="cls-10" d="m414.33,219.79s.08,0,.11.02.06.04.09.06.05.06.06.09.02.07.02.12v4.22s-.56,0-.56,0v-4.22s0-.08.02-.12.03-.07.06-.09.05-.05.09-.06.07-.02.11-.02"/>
          <path class="cls-10" d="m411.16,219.79s.08,0,.11.02.06.04.09.06.05.06.06.09.02.07.02.12v4.23s-.56,0-.56,0v-4.23s0-.08.02-.12.03-.07.06-.09.06-.05.09-.06.07-.02.11-.02"/>
        </g>
        <path class="cls-7" d="m448.09,224.33v-4.2s0-.08-.02-.12-.03-.07-.06-.09-.05-.05-.09-.06-.07-.02-.11-.02-.08,0-.11.02-.06.04-.09.06-.05.06-.06.09-.02.07-.02.12v4.2h.56m-3.13,0v-4.21s0-.08-.02-.12-.03-.07-.06-.09-.06-.05-.09-.06-.07-.02-.11-.02-.07,0-.11.02-.06.04-.09.06-.05.06-.06.09-.02.07-.02.12v4.21h.56m-3.14,0v-4.21s0-.08-.02-.12-.03-.07-.06-.09-.06-.05-.09-.06-.07-.02-.11-.02-.07,0-.11.02-.06.04-.09.06-.05.06-.06.09-.02.07-.02.12v4.21h.56m-.2-16.24h5.53c.13.01.24.04.35.09s.21.12.29.21.15.19.2.31.07.24.07.38v.76h.53c.13,0,.25.03.36.08s.21.12.29.21.15.19.2.31.07.24.07.38v.54h1.34c.13,0,.24.03.35.08s.21.12.29.21.15.19.2.31.07.24.07.38v11.04c0,.13-.03.26-.07.38s-.11.22-.2.31-.18.16-.29.21-.23.08-.35.08h-2.25s-8.41,0-8.41,0h-2.26c-.13,0-.25-.03-.35-.08s-.21-.12-.29-.21-.15-.19-.2-.31-.07-.24-.07-.38v-11.06c0-.13.03-.26.07-.38s.11-.22.2-.31.18-.16.29-.21.23-.08.35-.08h1.34s0-.53,0-.53c0-.13.03-.26.07-.38s.11-.22.2-.31.18-.16.29-.21.23-.08.36-.08h.53s0-.76,0-.76c0-.13.03-.26.07-.38s.11-.22.2-.31.18-.16.29-.21.23-.08.35-.08"/>
        <g class="cls-30">
          <path class="cls-10" d="m447.81,219.83s.08,0,.11.02.06.04.09.06.04.06.06.09.02.07.02.12v4.2s-.56,0-.56,0v-4.2s0-.08.02-.12.03-.07.06-.09.06-.05.09-.06.07-.02.11-.02"/>
          <path class="cls-10" d="m444.67,219.83s.08,0,.11.02.06.04.09.06.05.06.06.09.02.07.02.12v4.21s-.56,0-.56,0v-4.21s0-.08.02-.12.03-.07.06-.09.05-.05.09-.06.07-.02.11-.02"/>
          <path class="cls-10" d="m441.54,219.82s.08,0,.11.02.06.04.09.06.05.06.06.09.02.07.02.12v4.21s-.56,0-.56,0v-4.21s0-.08.02-.12.03-.07.06-.09.05-.05.09-.06.07-.02.11-.02"/>
        </g>
        <path class="cls-7" d="m345.97,231.21h2.31s1.11,0,1.11,0v4.26s0,.08.02.12.03.07.06.09.06.05.09.06.07.02.11.02.08,0,.11-.02.07-.04.09-.06.05-.06.06-.09.02-.07.02-.12v-4.26s2.64,0,2.64,0v4.26s0,.08.02.12.04.07.06.09.06.05.09.06.07.02.11.02.08,0,.11-.02.06-.04.09-.06.05-.06.06-.09.02-.07.02-.12v-4.26s2.64,0,2.64,0v4.26s0,.08.02.12.04.07.06.09.06.05.09.06.07.02.11.02.08,0,.11-.02.06-.04.09-.06.05-.06.06-.09.02-.07.02-.12v-4.26s.52,0,.52,0h2.3c.13,0,.25.03.36.08s.21.12.3.21.15.19.2.31.07.25.07.38v11.18c0,.14-.03.26-.07.38s-.12.22-.2.31-.19.16-.3.21-.24.08-.36.08h-1.36v.55c0,.14-.03.27-.07.38s-.12.22-.2.31-.19.16-.3.21-.24.08-.37.08h-.54v.77c0,.14-.03.26-.07.38s-.12.22-.2.31-.19.16-.3.21-.24.08-.37.08h-5.66c-.13.02-.25-.01-.37-.06s-.21-.12-.3-.21-.15-.19-.2-.31-.07-.25-.07-.38v-.77h-.54c-.13,0-.25-.03-.36-.08s-.21-.12-.3-.21-.15-.19-.2-.31-.07-.25-.07-.38v-.54h-1.37c-.13,0-.25-.02-.37-.07s-.21-.12-.3-.21-.15-.19-.2-.31-.07-.25-.07-.38v-11.21c0-.13.03-.26.07-.38s.12-.22.2-.31.19-.16.3-.21.24-.08.37-.08"/>
        <g class="cls-27">
          <path class="cls-10" d="m355.82,231.21h.57s0,4.26,0,4.26c0,.04,0,.08-.02.12s-.04.07-.06.09-.06.05-.09.06-.07.02-.11.02-.08,0-.11-.02-.07-.04-.09-.06-.05-.06-.06-.09-.02-.07-.02-.12v-4.26"/>
          <path class="cls-10" d="m352.6,231.21h.57s0,4.26,0,4.26c0,.04,0,.08-.02.12s-.04.07-.06.09-.06.05-.09.06-.07.02-.11.02-.08,0-.11-.02-.07-.04-.09-.06-.05-.06-.06-.09-.02-.07-.02-.12v-4.26"/>
          <path class="cls-10" d="m349.39,231.21h.57s0,4.26,0,4.26c0,.04,0,.08-.02.12s-.04.07-.06.09-.06.05-.09.06-.07.02-.11.02-.08,0-.11-.02-.06-.04-.09-.06-.05-.06-.06-.09-.02-.07-.02-.12v-4.26"/>
        </g>
        <path class="cls-7" d="m376.87,231.2h2.29s1.1,0,1.1,0v4.24s0,.08.02.12.04.07.06.09.06.05.09.06.07.02.11.02.08,0,.11-.02.06-.04.09-.06.05-.06.06-.09.02-.07.02-.12v-4.24s2.62,0,2.62,0v4.24s0,.08.02.12.04.07.06.09.06.05.09.06.07.02.11.02.08,0,.11-.02.06-.04.09-.06.05-.06.06-.09.02-.07.02-.12v-4.24s2.62,0,2.62,0v4.24s0,.08.02.12.04.07.06.09.06.05.09.06.07.02.11.02.07,0,.11-.02.06-.04.09-.06.05-.06.06-.09.02-.07.02-.12v-4.24s.51,0,.51,0h2.28c.13,0,.25.03.36.08s.21.12.3.21.15.19.2.31.07.24.07.38v11.14c0,.14-.03.26-.07.38s-.12.22-.2.31-.18.16-.3.21-.23.08-.36.08h-1.35v.54c0,.14-.03.26-.07.38s-.12.22-.2.31-.18.16-.3.21-.23.08-.36.08h-.53v.77c0,.14-.03.26-.07.38s-.12.22-.2.31-.18.16-.3.21-.23.08-.36.08h-5.62c-.13.02-.25-.01-.36-.06s-.21-.12-.29-.21-.15-.19-.2-.31-.07-.25-.07-.38v-.77h-.54c-.13,0-.25-.03-.36-.07s-.21-.12-.3-.21-.15-.19-.2-.31-.07-.25-.07-.38v-.54h-1.36c-.13,0-.25-.02-.36-.07s-.21-.12-.3-.21-.15-.19-.2-.31-.07-.25-.07-.38v-11.16c0-.13.03-.26.07-.38s.11-.22.2-.31.18-.16.3-.21.23-.08.36-.08"/>
        <g class="cls-26">
          <path class="cls-10" d="m386.64,231.19h.56s0,4.24,0,4.24c0,.04,0,.08-.02.12s-.03.07-.06.09-.06.05-.09.06-.07.02-.11.02-.08,0-.11-.02-.06-.04-.09-.06-.05-.06-.06-.09-.02-.07-.02-.12v-4.24"/>
          <path class="cls-10" d="m383.45,231.19h.57s0,4.24,0,4.24c0,.04,0,.08-.02.12s-.03.07-.06.09-.06.05-.09.06-.07.02-.11.02-.08,0-.11-.02-.06-.04-.09-.06-.05-.06-.06-.09-.02-.07-.02-.12v-4.24"/>
          <path class="cls-10" d="m380.26,231.2h.57s0,4.24,0,4.24c0,.04,0,.08-.02.12s-.04.07-.06.09-.06.05-.09.06-.07.02-.11.02-.07,0-.11-.02-.06-.04-.09-.06-.05-.06-.06-.09-.02-.07-.02-.12v-4.24"/>
        </g>
        <path class="cls-7" d="m407.52,231.18h2.28s1.09,0,1.09,0v4.23s0,.08.02.12.03.07.06.09.06.05.09.06.07.02.11.02.08,0,.11-.02.06-.04.09-.06.05-.06.06-.09.02-.07.02-.12v-4.23s2.6,0,2.6,0v4.22s0,.08.02.12.03.07.06.09.05.05.09.06.07.02.11.02.08,0,.11-.02.06-.04.09-.06.05-.06.06-.09.02-.07.02-.12v-4.22s2.6,0,2.6,0v4.22s0,.08.02.12.03.07.06.09.06.05.09.06.07.02.11.02.07,0,.11-.02.06-.04.09-.06.05-.06.06-.09.02-.07.02-.12v-4.22s.51,0,.51,0h2.27c.13,0,.25.03.36.08s.21.12.29.21.15.19.2.31.07.24.07.38v11.09c0,.13-.03.26-.07.38s-.11.22-.2.31-.18.16-.29.21-.23.08-.36.08h-1.35v.54c0,.13-.03.26-.07.38s-.11.22-.2.31-.18.16-.29.21-.23.08-.36.08h-.53v.76c0,.13-.03.26-.07.38s-.11.22-.2.31-.18.16-.29.21-.23.08-.36.08h-5.57c-.13.01-.25-.01-.36-.06s-.21-.12-.29-.21-.15-.19-.2-.31-.07-.24-.07-.38v-.76h-.53c-.13,0-.25-.03-.36-.07s-.21-.12-.29-.21-.15-.19-.2-.31-.07-.25-.07-.38v-.54h-1.35c-.13,0-.25-.02-.36-.07s-.21-.12-.29-.21-.15-.19-.2-.31-.07-.24-.07-.38v-11.11c0-.13.03-.26.07-.38s.11-.22.2-.31.18-.16.29-.21.23-.08.36-.08"/>
        <g class="cls-25">
          <path class="cls-10" d="m417.21,231.18h.56s0,4.22,0,4.22c0,.04,0,.08-.02.12s-.03.07-.06.09-.06.05-.09.06-.07.02-.11.02-.08,0-.11-.02-.06-.04-.09-.06-.05-.06-.06-.09-.02-.07-.02-.12v-4.22"/>
          <path class="cls-10" d="m414.05,231.18h.56s0,4.22,0,4.22c0,.04,0,.08-.02.12s-.03.07-.06.09-.06.05-.09.06-.07.02-.11.02-.08,0-.11-.02-.06-.04-.09-.06-.04-.06-.06-.09-.02-.07-.02-.12v-4.22"/>
          <path class="cls-10" d="m410.89,231.18h.56s0,4.23,0,4.23c0,.04,0,.08-.02.12s-.04.07-.06.09-.06.05-.09.06-.07.02-.11.02-.07,0-.11-.02-.06-.04-.09-.06-.05-.06-.06-.09-.02-.07-.02-.12v-4.23"/>
        </g>
        <path class="cls-7" d="m437.92,231.17h2.26s1.08,0,1.08,0v4.21s0,.08.02.12.03.07.06.09.05.05.09.06.07.02.11.02.08,0,.11-.02.06-.04.09-.06.05-.06.06-.09.02-.07.02-.12v-4.21s2.58,0,2.58,0v4.21s0,.08.02.12.03.07.06.09.05.05.09.06.07.02.11.02.08,0,.11-.02.06-.04.09-.06.05-.06.06-.09.02-.07.02-.12v-4.21s2.57,0,2.57,0v4.2s0,.08.02.12.03.07.06.09.06.05.09.06.07.02.11.02.08,0,.11-.02.06-.04.09-.06.04-.06.06-.09.02-.07.02-.12v-4.2s.51,0,.51,0h2.25c.13,0,.24.03.35.08s.21.12.29.21.15.19.2.31.07.24.07.37v11.05c0,.13-.03.26-.07.38s-.11.22-.2.31-.18.16-.29.21-.23.08-.35.08h-1.34v.54c0,.13-.03.26-.07.38s-.11.22-.2.31-.18.16-.29.21-.23.08-.36.08h-.53v.76c0,.13-.03.26-.07.38s-.11.22-.2.31-.18.16-.29.21-.23.08-.35.08h-5.53c-.13.01-.25-.01-.35-.06s-.21-.12-.29-.21-.15-.19-.2-.31-.07-.24-.07-.38v-.76h-.53c-.13,0-.25-.03-.36-.07s-.21-.12-.29-.21-.15-.19-.2-.31-.07-.24-.07-.38v-.54h-1.34c-.13,0-.25-.02-.35-.07s-.21-.12-.29-.21-.15-.19-.2-.31-.07-.24-.07-.38v-11.07c0-.13.03-.26.07-.38s.11-.22.2-.31.18-.16.29-.21.23-.08.35-.08"/>
        <g class="cls-29">
          <path class="cls-10" d="m447.53,231.16h.56s0,4.2,0,4.2c0,.04,0,.08-.02.12s-.03.07-.06.09-.05.05-.09.06-.07.02-.11.02-.08,0-.11-.02-.06-.04-.09-.06-.05-.06-.06-.09-.02-.07-.02-.12v-4.2"/>
          <path class="cls-10" d="m444.4,231.17h.56s0,4.21,0,4.21c0,.04,0,.08-.02.12s-.03.07-.06.09-.06.05-.09.06-.07.02-.11.02-.07,0-.11-.02-.06-.04-.09-.06-.05-.06-.06-.09-.02-.07-.02-.12v-4.21"/>
          <path class="cls-10" d="m441.26,231.17h.56s0,4.21,0,4.21c0,.04,0,.08-.02.12s-.03.07-.06.09-.06.05-.09.06-.07.02-.11.02-.07,0-.11-.02-.06-.04-.09-.06-.05-.06-.06-.09-.02-.07-.02-.12v-4.21"/>
        </g>
        <path class="cls-15" d="m521.94,231.09c.33,0,.65.07.94.21s.55.32.77.56.4.52.52.83.19.66.19,1.02-.07.71-.19,1.02-.3.6-.52.84-.48.43-.77.56-.61.21-.94.21-.65-.07-.94-.21-.55-.33-.77-.56-.4-.52-.52-.83-.19-.66-.19-1.02.07-.71.19-1.02.3-.6.52-.83.48-.43.77-.56.61-.21.94-.21"/>
        <path class="cls-15" d="m521.94,240.18c.33,0,.65.07.94.2s.55.32.77.56.4.52.52.83.19.66.19,1.02-.07.71-.19,1.02-.3.6-.52.83-.48.43-.77.56-.61.21-.94.21-.65-.07-.94-.2-.55-.32-.77-.56-.4-.52-.52-.83-.19-.66-.19-1.02.07-.71.19-1.02.3-.6.52-.84.48-.43.77-.56.61-.21.94-.21"/>
        <path class="cls-15" d="m529.32,231.09c.33,0,.65.07.94.21s.55.32.77.56.4.52.52.83.19.66.19,1.02-.07.71-.19,1.02-.3.6-.52.83-.48.43-.77.56-.61.21-.94.21-.65-.07-.94-.21-.55-.32-.77-.56-.4-.52-.52-.83-.19-.66-.19-1.02.07-.71.19-1.02.3-.6.52-.83.48-.43.77-.56.61-.21.94-.21"/>
        <path class="cls-15" d="m529.32,240.17c.33,0,.65.07.94.2s.55.32.77.56.4.52.52.83.19.66.19,1.02-.07.71-.19,1.02-.3.6-.52.83-.48.43-.77.56-.61.21-.94.21-.65-.07-.94-.2-.55-.32-.77-.56-.4-.52-.52-.83-.19-.66-.19-1.02.07-.71.19-1.02.3-.6.52-.84.48-.43.77-.56.61-.21.94-.21"/>
        <path class="cls-15" d="m536.69,231.08c.33,0,.65.07.94.21s.55.32.76.56.39.52.52.83.19.66.19,1.02-.07.71-.19,1.02-.3.6-.52.83-.48.43-.76.56-.6.21-.94.21-.65-.07-.94-.21-.55-.32-.77-.56-.4-.52-.52-.83-.19-.66-.19-1.02.07-.71.19-1.02.3-.6.52-.83.48-.43.77-.56.61-.21.94-.21"/>
        <path class="cls-15" d="m536.69,240.15c.33,0,.65.07.94.2s.55.32.76.56.39.52.52.83.19.66.19,1.02-.07.71-.19,1.02-.3.6-.52.83-.48.43-.76.56-.6.21-.94.21-.65-.07-.94-.2-.55-.32-.77-.56-.4-.52-.52-.83-.19-.66-.19-1.02.07-.71.19-1.02.3-.6.52-.83.48-.43.77-.56.61-.21.94-.21"/>
        <path class="cls-15" d="m544.04,231.08c.33,0,.65.07.94.2s.55.32.76.56.39.52.51.83.19.66.19,1.02-.07.7-.19,1.02-.3.6-.51.83-.48.43-.76.56-.6.21-.94.21-.65-.07-.94-.21-.55-.32-.76-.56-.39-.52-.52-.83-.19-.66-.19-1.02.07-.71.19-1.02.3-.59.52-.83.48-.43.76-.56.6-.21.94-.21"/>
        <path class="cls-15" d="m544.04,240.14c.33,0,.65.07.94.2s.55.32.76.56.39.52.51.83.19.66.19,1.02-.07.7-.19,1.02-.3.59-.51.83-.48.43-.76.56-.6.21-.94.21-.65-.07-.94-.2-.55-.32-.76-.56-.39-.52-.52-.83-.19-.66-.19-1.02.07-.71.19-1.02.3-.6.52-.83.48-.43.76-.56.6-.21.94-.21"/>
        <path class="cls-15" d="m551.37,231.08c.33,0,.65.07.93.2s.55.32.76.56.39.52.52.83.19.66.19,1.02-.07.7-.19,1.02-.3.59-.52.83-.48.43-.76.56-.6.21-.93.21-.65-.07-.93-.2-.55-.32-.76-.56-.39-.52-.51-.83-.19-.66-.19-1.02.07-.7.19-1.02.3-.59.51-.83.48-.43.76-.56.6-.21.93-.21"/>
        <path class="cls-15" d="m551.37,240.13c.33,0,.65.07.93.2s.55.32.76.56.39.52.52.83.19.66.19,1.02-.07.7-.19,1.02-.3.59-.52.83-.48.43-.76.56-.6.21-.93.21-.65-.07-.93-.2-.55-.32-.76-.56-.39-.52-.51-.83-.19-.66-.19-1.02.07-.71.19-1.02.3-.6.51-.83.48-.43.76-.56.6-.21.93-.21"/>
        <path class="cls-15" d="m558.7,231.07c.33,0,.65.07.93.2s.54.32.76.56.39.52.51.83.19.65.19,1.01-.07.7-.19,1.02-.3.59-.51.83-.47.43-.76.56-.6.21-.93.21-.65-.07-.93-.2-.55-.32-.76-.56-.39-.52-.51-.83-.19-.66-.19-1.02.07-.7.19-1.02.3-.59.51-.83.48-.43.76-.56.6-.21.93-.21"/>
        <path class="cls-15" d="m558.7,240.12c.33,0,.65.07.93.2s.54.32.76.56.39.52.51.83.19.66.19,1.02-.07.7-.19,1.02-.3.59-.51.83-.47.43-.76.56-.6.21-.93.21-.65-.07-.93-.2-.55-.32-.76-.56-.39-.52-.51-.83-.19-.66-.19-1.02.07-.71.19-1.02.3-.59.51-.83.48-.43.76-.56.6-.21.93-.21"/>
        <path class="cls-15" d="m521.94,209.27c.33,0,.65.07.94.21s.55.33.77.56.4.52.52.83.19.66.19,1.02-.07.71-.19,1.02-.3.6-.52.83-.48.43-.77.56-.61.21-.94.21-.65-.07-.94-.21-.55-.33-.77-.57-.4-.52-.52-.84-.19-.66-.19-1.02.07-.71.19-1.02.3-.6.52-.83.48-.43.77-.56.61-.2.94-.2"/>
        <path class="cls-15" d="m521.94,218.36c.33,0,.65.07.94.21s.55.33.77.56.4.52.52.84.19.66.19,1.02-.07.71-.19,1.02-.3.6-.52.83-.48.43-.77.56-.61.21-.94.21-.65-.07-.94-.21-.55-.32-.77-.56-.4-.52-.52-.83-.19-.66-.19-1.02.07-.71.19-1.02.3-.6.52-.83.48-.43.77-.56.61-.21.94-.2"/>
        <path class="cls-15" d="m529.32,209.28c.33,0,.65.07.94.21s.55.33.77.56.4.52.52.83.19.66.19,1.02-.07.71-.19,1.02-.3.6-.52.83-.48.43-.77.56-.61.21-.94.2-.65-.07-.94-.21-.55-.33-.77-.56-.4-.52-.52-.84-.19-.66-.19-1.02.07-.71.19-1.02.3-.59.52-.83.48-.43.77-.56.61-.2.94-.2"/>
        <path class="cls-15" d="m529.32,218.36c.33,0,.65.07.94.21s.55.33.77.56.4.52.52.83.19.66.19,1.02-.07.71-.19,1.02-.3.6-.52.83-.48.43-.77.56-.61.21-.94.21-.65-.07-.94-.21-.55-.32-.77-.56-.4-.52-.52-.83-.19-.66-.19-1.02.07-.71.19-1.02.3-.6.52-.83.48-.43.77-.56.61-.21.94-.2"/>
        <path class="cls-15" d="m536.69,209.3c.33,0,.65.07.94.21s.55.33.76.56.39.52.52.83.19.66.19,1.02-.07.71-.19,1.02-.3.6-.52.83-.48.43-.76.56-.6.21-.94.2-.65-.07-.94-.21-.55-.33-.77-.56-.4-.52-.52-.83-.19-.66-.19-1.02.07-.71.19-1.02.3-.59.52-.83.48-.43.77-.56.61-.2.94-.2"/>
        <path class="cls-15" d="m536.69,218.37c.33,0,.65.07.94.21s.55.32.76.56.39.52.52.83.19.66.19,1.02-.07.71-.19,1.02-.3.59-.52.83-.48.43-.76.56-.6.21-.94.2-.65-.07-.94-.21-.55-.32-.77-.56-.4-.52-.52-.83-.19-.66-.19-1.02.07-.71.19-1.02.3-.6.52-.83.48-.43.77-.56.61-.2.94-.2"/>
        <path class="cls-15" d="m544.04,209.32c.33,0,.65.07.94.21s.55.32.76.56.39.52.51.83.19.66.19,1.02-.07.7-.19,1.02-.3.59-.51.83-.48.43-.76.56-.6.21-.94.2-.65-.07-.94-.21-.55-.33-.76-.56-.39-.52-.52-.83-.19-.66-.19-1.02.07-.7.19-1.02.3-.59.52-.83.48-.43.76-.56.6-.2.94-.2"/>
        <path class="cls-15" d="m544.04,218.38c.33,0,.65.07.94.21s.55.32.76.56.39.52.51.83.19.66.19,1.02-.07.7-.19,1.02-.3.59-.51.83-.48.43-.76.56-.6.2-.94.2-.65-.07-.94-.21-.55-.32-.76-.56-.39-.52-.52-.83-.19-.66-.19-1.02.07-.71.19-1.02.3-.6.52-.83.48-.43.76-.56.6-.2.94-.2"/>
        <path class="cls-15" d="m551.37,209.34c.33,0,.65.07.93.21s.55.32.76.56.39.52.52.83.19.66.19,1.02-.07.7-.19,1.02-.3.59-.52.83-.48.43-.76.56-.6.2-.93.2-.65-.07-.93-.21-.55-.33-.76-.56-.39-.52-.51-.83-.19-.66-.19-1.02.07-.7.19-1.02.3-.59.51-.83.48-.43.76-.56.6-.2.93-.2"/>
        <path class="cls-15" d="m551.37,218.39c.33,0,.65.07.93.21s.55.32.76.56.39.52.52.83.19.66.19,1.02-.07.7-.19,1.02-.3.59-.52.83-.48.43-.76.56-.6.2-.93.2-.65-.07-.93-.21-.55-.32-.76-.56-.39-.52-.51-.83-.19-.66-.19-1.02.07-.71.19-1.02.3-.59.51-.83.48-.43.76-.56.6-.2.93-.2"/>
        <path class="cls-15" d="m558.7,209.36c.33,0,.65.07.93.21s.54.32.76.56.39.52.51.83.19.66.19,1.02-.07.7-.19,1.02-.3.59-.51.83-.47.43-.76.56-.6.2-.93.2-.65-.07-.93-.21-.55-.33-.76-.56-.39-.52-.51-.83-.19-.66-.19-1.02.07-.7.19-1.02.3-.59.51-.83.48-.43.76-.56.6-.2.93-.2"/>
        <path class="cls-15" d="m558.7,218.4c.33,0,.65.07.93.21s.54.32.76.56.39.52.51.83.19.66.19,1.02-.07.7-.19,1.01-.3.59-.51.83-.47.43-.76.56-.6.2-.93.2-.65-.07-.93-.21-.55-.32-.76-.56-.39-.52-.51-.83-.19-.66-.19-1.02.07-.71.19-1.02.3-.59.51-.83.48-.43.76-.56.6-.2.93-.2"/>
      </g>
    </g>
    <g>
      <polygon class="cls-14" points="0 240.61 169.38 274.12 169.38 181.39 1.01 165.31 0 240.61"/>
      <g>
        <path class="cls-9" d="m140.99,199.49c0,3.18,1.61,5.96,3.62,6.21s3.63-2.14,3.63-5.35-1.61-5.99-3.62-6.21-3.63,2.17-3.63,5.35Z"/>
        <path class="cls-9" d="m129.08,198.07c0,3.14,1.61,5.88,3.61,6.13s3.63-2.11,3.64-5.27-1.61-5.91-3.61-6.13-3.63,2.13-3.64,5.27Z"/>
        <path class="cls-9" d="m117.18,196.65c-.01,3.09,1.6,5.8,3.61,6.06s3.63-2.07,3.64-5.19-1.6-5.83-3.61-6.06-3.63,2.1-3.64,5.19Z"/>
        <path class="cls-9" d="m105.27,195.23c-.01,3.05,1.6,5.72,3.6,5.98s3.64-2.04,3.65-5.11-1.6-5.75-3.6-5.98-3.63,2.06-3.65,5.11Z"/>
        <path class="cls-9" d="m93.36,193.81c-.02,3.01,1.59,5.65,3.6,5.9s3.64-2,3.65-5.03-1.6-5.67-3.6-5.9-3.64,2.03-3.65,5.03Z"/>
        <path class="cls-9" d="m81.45,192.39c-.02,2.96,1.59,5.57,3.59,5.82s3.64-1.97,3.66-4.95-1.59-5.59-3.59-5.82-3.64,1.99-3.66,4.95Z"/>
        <path class="cls-9" d="m69.54,190.97c-.02,2.92,1.59,5.49,3.59,5.74s3.64-1.93,3.66-4.88-1.59-5.51-3.59-5.74-3.64,1.96-3.66,4.88Z"/>
        <path class="cls-9" d="m57.64,189.55c-.02,2.87,1.58,5.41,3.58,5.66s3.64-1.9,3.67-4.8-1.58-5.44-3.58-5.66-3.64,1.92-3.67,4.8Z"/>
        <path class="cls-9" d="m45.73,188.12c-.03,2.83,1.58,5.33,3.58,5.58s3.65-1.86,3.67-4.72-1.58-5.36-3.58-5.58-3.64,1.89-3.67,4.72Z"/>
        <path class="cls-9" d="m33.82,186.7c-.03,2.79,1.57,5.25,3.57,5.5s3.65-1.82,3.68-4.64-1.57-5.28-3.57-5.5-3.65,1.85-3.68,4.64Z"/>
        <path class="cls-9" d="m21.91,185.28c-.03,2.74,1.57,5.17,3.57,5.42s3.65-1.79,3.68-4.56c.03-2.77-1.57-5.2-3.57-5.42s-3.65,1.82-3.68,4.56Z"/>
        <path class="cls-9" d="m135,215.31c0,3.16,1.61,5.95,3.62,6.24s3.63-2.06,3.64-5.24-1.61-5.98-3.62-6.24-3.63,2.08-3.64,5.24Z"/>
        <path class="cls-9" d="m123.08,213.66c0,3.11,1.61,5.87,3.61,6.16s3.64-2.02,3.65-5.16-1.61-5.9-3.61-6.16-3.64,2.05-3.65,5.16Z"/>
        <path class="cls-9" d="m111.16,212.01c-.01,3.07,1.6,5.8,3.61,6.09s3.64-1.98,3.65-5.08-1.6-5.82-3.61-6.09-3.64,2.01-3.65,5.08Z"/>
        <path class="cls-9" d="m99.24,210.36c-.01,3.03,1.6,5.72,3.6,6.01s3.64-1.95,3.65-5-1.6-5.74-3.6-6.01-3.64,1.98-3.65,5Z"/>
        <path class="cls-9" d="m87.32,208.71c-.02,2.98,1.59,5.64,3.6,5.93s3.64-1.91,3.66-4.92-1.6-5.66-3.6-5.93-3.64,1.94-3.66,4.92Z"/>
        <path class="cls-9" d="m75.39,207.06c-.02,2.94,1.59,5.56,3.59,5.85s3.65-1.88,3.66-4.85-1.59-5.59-3.59-5.85-3.64,1.91-3.66,4.85Z"/>
        <path class="cls-9" d="m63.47,205.41c-.02,2.9,1.58,5.48,3.59,5.77s3.65-1.84,3.67-4.77-1.59-5.51-3.59-5.77-3.65,1.87-3.67,4.77Z"/>
        <path class="cls-9" d="m51.55,203.76c-.03,2.85,1.58,5.4,3.58,5.69s3.65-1.81,3.67-4.69-1.58-5.43-3.58-5.69-3.65,1.83-3.67,4.69Z"/>
        <path class="cls-9" d="m39.63,202.11c-.03,2.81,1.58,5.32,3.58,5.61s3.65-1.77,3.68-4.61-1.58-5.35-3.58-5.61-3.65,1.8-3.68,4.61Z"/>
        <path class="cls-9" d="m27.71,200.46c-.03,2.77,1.57,5.24,3.58,5.53s3.65-1.74,3.68-4.53-1.57-5.27-3.58-5.53-3.65,1.76-3.68,4.53Z"/>
        <path class="cls-9" d="m140.93,232.77c0,3.18,1.62,6.02,3.62,6.35s3.64-2,3.64-5.21-1.62-6.05-3.62-6.35-3.64,2.03-3.64,5.21Z"/>
        <path class="cls-9" d="m129,230.89c0,3.14,1.61,5.94,3.62,6.27s3.64-1.97,3.65-5.13-1.61-5.97-3.62-6.27-3.64,1.99-3.65,5.13Z"/>
        <path class="cls-9" d="m117.06,229.01c-.01,3.09,1.61,5.87,3.61,6.19s3.64-1.93,3.65-5.05c0-3.12-1.61-5.89-3.61-6.19s-3.64,1.96-3.65,5.05Z"/>
        <path class="cls-9" d="m105.13,227.14c-.01,3.05,1.6,5.79,3.61,6.12s3.64-1.9,3.66-4.97-1.6-5.81-3.61-6.12-3.64,1.92-3.66,4.97Z"/>
        <path class="cls-9" d="m93.19,225.26c-.02,3.01,1.6,5.71,3.61,6.04s3.65-1.86,3.66-4.89-1.6-5.73-3.61-6.04c-2.01-.3-3.64,1.89-3.66,4.89Z"/>
        <path class="cls-9" d="m81.26,223.38c-.02,2.96,1.59,5.63,3.6,5.96s3.65-1.83,3.67-4.82-1.59-5.66-3.6-5.96-3.65,1.85-3.67,4.82Z"/>
        <path class="cls-9" d="m69.32,221.5c-.02,2.92,1.59,5.55,3.6,5.88s3.65-1.79,3.67-4.74-1.59-5.58-3.6-5.88-3.65,1.82-3.67,4.74Z"/>
        <path class="cls-9" d="m57.39,219.63c-.02,2.87,1.58,5.47,3.59,5.8s3.65-1.76,3.67-4.66-1.59-5.5-3.59-5.8-3.65,1.78-3.67,4.66Z"/>
        <path class="cls-9" d="m45.45,217.75c-.03,2.83,1.58,5.39,3.59,5.72s3.65-1.72,3.68-4.58-1.58-5.42-3.59-5.72-3.65,1.75-3.68,4.58Z"/>
        <path class="cls-9" d="m33.52,215.87c-.03,2.79,1.57,5.31,3.58,5.64s3.66-1.69,3.68-4.5-1.58-5.34-3.58-5.64-3.65,1.71-3.68,4.5Z"/>
        <path class="cls-9" d="m21.58,213.99c-.03,2.74,1.57,5.23,3.58,5.56s3.66-1.65,3.69-4.42-1.57-5.26-3.58-5.56-3.66,1.68-3.69,4.42Z"/>
        <path class="cls-9" d="m134.92,248.35c0,3.16,1.62,6.02,3.63,6.38s3.64-1.92,3.65-5.1-1.62-6.04-3.63-6.38-3.64,1.94-3.65,5.1Z"/>
        <path class="cls-9" d="m122.98,246.25c0,3.11,1.61,5.94,3.62,6.3s3.65-1.88,3.65-5.02-1.61-5.96-3.62-6.3-3.64,1.91-3.65,5.02Z"/>
        <path class="cls-9" d="m111.03,244.14c-.01,3.07,1.61,5.86,3.62,6.22s3.65-1.85,3.66-4.94-1.61-5.88-3.62-6.22-3.65,1.87-3.66,4.94Z"/>
        <path class="cls-9" d="m99.08,242.04c-.01,3.03,1.6,5.78,3.61,6.15s3.65-1.81,3.66-4.86-1.6-5.81-3.61-6.15-3.65,1.84-3.66,4.86Z"/>
        <path class="cls-9" d="m87.13,239.93c-.02,2.98,1.6,5.7,3.61,6.07s3.65-1.78,3.67-4.79-1.6-5.73-3.61-6.07-3.65,1.8-3.67,4.79Z"/>
        <path class="cls-9" d="m75.18,237.82c-.02,2.94,1.59,5.62,3.6,5.99s3.65-1.74,3.67-4.71-1.59-5.65-3.6-5.99-3.65,1.77-3.67,4.71Z"/>
        <path class="cls-9" d="m63.24,235.72c-.02,2.9,1.59,5.54,3.6,5.91s3.66-1.7,3.68-4.63-1.59-5.57-3.6-5.91-3.65,1.73-3.68,4.63Z"/>
        <path class="cls-9" d="m51.29,233.61c-.03,2.85,1.58,5.46,3.59,5.83s3.66-1.67,3.68-4.55-1.59-5.49-3.59-5.83-3.66,1.7-3.68,4.55Z"/>
        <path class="cls-9" d="m39.34,231.51c-.03,2.81,1.58,5.38,3.59,5.75s3.66-1.63,3.69-4.47-1.58-5.41-3.59-5.75-3.66,1.66-3.69,4.47Z"/>
        <path class="cls-9" d="m27.39,229.4c-.03,2.77,1.57,5.31,3.58,5.67s3.66-1.6,3.69-4.39-1.58-5.33-3.58-5.67-3.66,1.63-3.69,4.39Z"/>
      </g>
    </g>
  </g>
  <path class="cls-11" d="m353.39,211.79s-.69-4.1-2.88-4.22h3.76s1.57,2,1.49,4.01-2.37.21-2.37.21Z"/>
  <g>
    <g>
      <g>
        <path class="cls-11" d="m273.4,225.7h8.05c1.9,0,3.45-1.54,3.45-3.45v-8.26c0-1.82-1.42-3.33-3.23-3.44l-8.05-.5c-1.99-.12-3.66,1.45-3.66,3.44v8.76c0,1.9,1.54,3.45,3.45,3.45Z"/>
        <path class="cls-12" d="m274.1,225.66h7.39c1.88,0,3.4-1.52,3.4-3.4v-7.6c0-1.8-1.4-3.28-3.19-3.39l-7.39-.46c-1.96-.12-3.61,1.43-3.61,3.39v8.06c0,1.88,1.52,3.4,3.4,3.4Z"/>
      </g>
      <g>
        <path class="cls-11" d="m274.8,225.98h7.7c1.81,0,3.27-1.47,3.27-3.27v-7.9c0-1.73-1.34-3.16-3.07-3.27l-7.7-.48c-1.88-.12-3.48,1.38-3.48,3.27v8.38c0,1.81,1.47,3.27,3.27,3.27Z"/>
        <path class="cls-12" d="m275.47,225.94h7.07c1.78,0,3.23-1.45,3.23-3.23v-7.27c0-1.71-1.33-3.12-3.03-3.22l-7.07-.44c-1.86-.12-3.43,1.36-3.43,3.22v7.71c0,1.78,1.45,3.23,3.23,3.23Z"/>
      </g>
      <g>
        <path class="cls-11" d="m276.2,226.25h7.35c1.71,0,3.1-1.39,3.1-3.1v-7.53c0-1.64-1.27-2.99-2.91-3.09l-7.35-.46c-1.78-.11-3.29,1.31-3.29,3.09v7.99c0,1.71,1.39,3.1,3.1,3.1Z"/>
        <path class="cls-12" d="m276.84,226.21h6.75c1.69,0,3.06-1.37,3.06-3.06v-6.93c0-1.61-1.25-2.95-2.87-3.05l-6.75-.42c-1.76-.11-3.25,1.29-3.25,3.05v7.36c0,1.69,1.37,3.06,3.06,3.06Z"/>
      </g>
      <g>
        <path class="cls-11" d="m277.6,226.53h7c1.61,0,2.92-1.31,2.92-2.92v-7.17c0-1.54-1.2-2.82-2.74-2.92l-7-.44c-1.68-.11-3.11,1.23-3.11,2.92v7.61c0,1.61,1.31,2.92,2.92,2.92Z"/>
        <path class="cls-12" d="m278.2,226.49h6.43c1.59,0,2.88-1.29,2.88-2.88v-6.6c0-1.52-1.18-2.78-2.7-2.88l-6.43-.4c-1.66-.1-3.06,1.21-3.06,2.88v7.01c0,1.59,1.29,2.88,2.88,2.88Z"/>
      </g>
      <g>
        <path class="cls-11" d="m279,226.81h6.65c1.52,0,2.75-1.23,2.75-2.75v-6.81c0-1.45-1.13-2.65-2.58-2.74l-6.65-.42c-1.58-.1-2.92,1.16-2.92,2.74v7.23c0,1.52,1.23,2.75,2.75,2.75Z"/>
        <path class="cls-12" d="m279.57,226.77h6.11c1.5,0,2.71-1.21,2.71-2.71v-6.27c0-1.43-1.11-2.62-2.54-2.71l-6.11-.38c-1.56-.1-2.88,1.14-2.88,2.71v6.66c0,1.5,1.21,2.71,2.71,2.71Z"/>
      </g>
    </g>
    <path class="cls-11" d="m277.67,211.79s-.69-4.1-2.88-4.22h3.76s1.57,2,1.49,4.01-2.37.21-2.37.21Z"/>
  </g>
  <line class="cls-4" x1="282.63" y1="220.73" x2="282.63" y2="319.05"/>
  <g>
    <g>
      <g>
        <path class="cls-11" d="m304.97,225.7h8.05c1.9,0,3.45-1.54,3.45-3.45v-8.26c0-1.82-1.42-3.33-3.23-3.44l-8.05-.5c-1.99-.12-3.66,1.45-3.66,3.44v8.76c0,1.9,1.54,3.45,3.45,3.45Z"/>
        <path class="cls-12" d="m305.68,225.66h7.39c1.88,0,3.4-1.52,3.4-3.4v-7.6c0-1.8-1.4-3.28-3.19-3.39l-7.39-.46c-1.96-.12-3.61,1.43-3.61,3.39v8.06c0,1.88,1.52,3.4,3.4,3.4Z"/>
      </g>
      <g>
        <path class="cls-11" d="m306.37,225.98h7.7c1.81,0,3.27-1.47,3.27-3.27v-7.9c0-1.73-1.34-3.16-3.07-3.27l-7.7-.48c-1.88-.12-3.48,1.38-3.48,3.27v8.38c0,1.81,1.47,3.27,3.27,3.27Z"/>
        <path class="cls-12" d="m307.04,225.94h7.07c1.78,0,3.23-1.45,3.23-3.23v-7.27c0-1.71-1.33-3.12-3.03-3.22l-7.07-.44c-1.86-.12-3.43,1.36-3.43,3.22v7.71c0,1.78,1.45,3.23,3.23,3.23Z"/>
      </g>
      <g>
        <path class="cls-11" d="m307.77,226.25h7.35c1.71,0,3.1-1.39,3.1-3.1v-7.53c0-1.64-1.27-2.99-2.91-3.09l-7.35-.46c-1.78-.11-3.29,1.31-3.29,3.09v7.99c0,1.71,1.39,3.1,3.1,3.1Z"/>
        <path class="cls-12" d="m308.41,226.21h6.75c1.69,0,3.06-1.37,3.06-3.06v-6.93c0-1.61-1.25-2.95-2.87-3.05l-6.75-.42c-1.76-.11-3.25,1.29-3.25,3.05v7.36c0,1.69,1.37,3.06,3.06,3.06Z"/>
      </g>
      <g>
        <path class="cls-11" d="m309.17,226.53h7c1.61,0,2.92-1.31,2.92-2.92v-7.17c0-1.54-1.2-2.82-2.74-2.92l-7-.44c-1.68-.11-3.11,1.23-3.11,2.92v7.61c0,1.61,1.31,2.92,2.92,2.92Z"/>
        <path class="cls-12" d="m309.78,226.49h6.43c1.59,0,2.88-1.29,2.88-2.88v-6.6c0-1.52-1.18-2.78-2.7-2.88l-6.43-.4c-1.66-.1-3.06,1.21-3.06,2.88v7.01c0,1.59,1.29,2.88,2.88,2.88Z"/>
      </g>
      <g>
        <path class="cls-11" d="m310.57,226.81h6.65c1.52,0,2.75-1.23,2.75-2.75v-6.81c0-1.45-1.13-2.65-2.58-2.74l-6.65-.42c-1.58-.1-2.92,1.16-2.92,2.74v7.23c0,1.52,1.23,2.75,2.75,2.75Z"/>
        <path class="cls-12" d="m311.15,226.77h6.11c1.5,0,2.71-1.21,2.71-2.71v-6.27c0-1.43-1.11-2.62-2.54-2.71l-6.11-.38c-1.56-.1-2.88,1.14-2.88,2.71v6.66c0,1.5,1.21,2.71,2.71,2.71Z"/>
      </g>
    </g>
    <path class="cls-11" d="m309.25,211.79s-.69-4.1-2.88-4.22h3.76s1.57,2,1.49,4.01-2.37.21-2.37.21Z"/>
  </g>
  <line class="cls-4" x1="314.2" y1="220.73" x2="314.2" y2="319.05"/>
  <g>
    <g>
      <g>
        <path class="cls-11" d="m379.62,225.7h8.05c1.9,0,3.45-1.54,3.45-3.45v-8.26c0-1.82-1.42-3.33-3.23-3.44l-8.05-.5c-1.99-.12-3.66,1.45-3.66,3.44v8.76c0,1.9,1.54,3.45,3.45,3.45Z"/>
        <path class="cls-12" d="m380.33,225.66h7.39c1.88,0,3.4-1.52,3.4-3.4v-7.6c0-1.8-1.4-3.28-3.19-3.39l-7.39-.46c-1.96-.12-3.61,1.43-3.61,3.39v8.06c0,1.88,1.52,3.4,3.4,3.4Z"/>
      </g>
      <g>
        <path class="cls-11" d="m381.02,225.98h7.7c1.81,0,3.27-1.47,3.27-3.27v-7.9c0-1.73-1.34-3.16-3.07-3.27l-7.7-.48c-1.88-.12-3.48,1.38-3.48,3.27v8.38c0,1.81,1.47,3.27,3.27,3.27Z"/>
        <path class="cls-12" d="m381.7,225.94h7.07c1.78,0,3.23-1.45,3.23-3.23v-7.27c0-1.71-1.33-3.12-3.03-3.22l-7.07-.44c-1.86-.12-3.43,1.36-3.43,3.22v7.71c0,1.78,1.45,3.23,3.23,3.23Z"/>
      </g>
      <g>
        <path class="cls-11" d="m382.42,226.25h7.35c1.71,0,3.1-1.39,3.1-3.1v-7.53c0-1.64-1.27-2.99-2.91-3.09l-7.35-.46c-1.78-.11-3.29,1.31-3.29,3.09v7.99c0,1.71,1.39,3.1,3.1,3.1Z"/>
        <path class="cls-12" d="m383.06,226.21h6.75c1.69,0,3.06-1.37,3.06-3.06v-6.93c0-1.61-1.25-2.95-2.87-3.05l-6.75-.42c-1.76-.11-3.25,1.29-3.25,3.05v7.36c0,1.69,1.37,3.06,3.06,3.06Z"/>
      </g>
      <g>
        <path class="cls-11" d="m383.82,226.53h7c1.61,0,2.92-1.31,2.92-2.92v-7.17c0-1.54-1.2-2.82-2.74-2.92l-7-.44c-1.68-.11-3.11,1.23-3.11,2.92v7.61c0,1.61,1.31,2.92,2.92,2.92Z"/>
        <path class="cls-12" d="m384.43,226.49h6.43c1.59,0,2.88-1.29,2.88-2.88v-6.6c0-1.52-1.18-2.78-2.7-2.88l-6.43-.4c-1.66-.1-3.06,1.21-3.06,2.88v7.01c0,1.59,1.29,2.88,2.88,2.88Z"/>
      </g>
      <g>
        <path class="cls-11" d="m385.23,226.81h6.65c1.52,0,2.75-1.23,2.75-2.75v-6.81c0-1.45-1.13-2.65-2.58-2.74l-6.65-.42c-1.58-.1-2.92,1.16-2.92,2.74v7.23c0,1.52,1.23,2.75,2.75,2.75Z"/>
        <path class="cls-12" d="m385.8,226.77h6.11c1.5,0,2.71-1.21,2.71-2.71v-6.27c0-1.43-1.11-2.62-2.54-2.71l-6.11-.38c-1.56-.1-2.88,1.14-2.88,2.71v6.66c0,1.5,1.21,2.71,2.71,2.71Z"/>
      </g>
    </g>
    <path class="cls-11" d="m383.9,211.79s-.69-4.1-2.88-4.22h3.76s1.57,2,1.49,4.01-2.37.21-2.37.21Z"/>
  </g>
  <g>
    <g>
      <g>
        <path class="cls-11" d="m347.4,225.7h8.05c1.9,0,3.45-1.54,3.45-3.45v-8.26c0-1.82-1.42-3.33-3.23-3.44l-8.05-.5c-1.99-.12-3.66,1.45-3.66,3.44v8.76c0,1.9,1.54,3.45,3.45,3.45Z"/>
        <path class="cls-12" d="m348.11,225.66h7.39c1.88,0,3.4-1.52,3.4-3.4v-7.6c0-1.8-1.4-3.28-3.19-3.39l-7.39-.46c-1.96-.12-3.61,1.43-3.61,3.39v8.06c0,1.88,1.52,3.4,3.4,3.4Z"/>
      </g>
      <g>
        <path class="cls-11" d="m348.8,225.98h7.7c1.81,0,3.27-1.47,3.27-3.27v-7.9c0-1.73-1.34-3.16-3.07-3.27l-7.7-.48c-1.88-.12-3.48,1.38-3.48,3.27v8.38c0,1.81,1.47,3.27,3.27,3.27Z"/>
        <path class="cls-12" d="m349.47,225.94h7.07c1.78,0,3.23-1.45,3.23-3.23v-7.27c0-1.71-1.33-3.12-3.03-3.22l-7.07-.44c-1.86-.12-3.43,1.36-3.43,3.22v7.71c0,1.78,1.45,3.23,3.23,3.23Z"/>
      </g>
      <g>
        <path class="cls-11" d="m350.2,226.25h7.35c1.71,0,3.1-1.39,3.1-3.1v-7.53c0-1.64-1.27-2.99-2.91-3.09l-7.35-.46c-1.78-.11-3.29,1.31-3.29,3.09v7.99c0,1.71,1.39,3.1,3.1,3.1Z"/>
        <path class="cls-12" d="m350.84,226.21h6.75c1.69,0,3.06-1.37,3.06-3.06v-6.93c0-1.61-1.25-2.95-2.87-3.05l-6.75-.42c-1.76-.11-3.25,1.29-3.25,3.05v7.36c0,1.69,1.37,3.06,3.06,3.06Z"/>
      </g>
      <g>
        <path class="cls-11" d="m351.6,226.53h7c1.61,0,2.92-1.31,2.92-2.92v-7.17c0-1.54-1.2-2.82-2.74-2.92l-7-.44c-1.68-.11-3.11,1.23-3.11,2.92v7.61c0,1.61,1.31,2.92,2.92,2.92Z"/>
        <path class="cls-12" d="m352.21,226.49h6.43c1.59,0,2.88-1.29,2.88-2.88v-6.6c0-1.52-1.18-2.78-2.7-2.88l-6.43-.4c-1.66-.1-3.06,1.21-3.06,2.88v7.01c0,1.59,1.29,2.88,2.88,2.88Z"/>
      </g>
      <g>
        <path class="cls-11" d="m353,226.81h6.65c1.52,0,2.75-1.23,2.75-2.75v-6.81c0-1.45-1.13-2.65-2.58-2.74l-6.65-.42c-1.58-.1-2.92,1.16-2.92,2.74v7.23c0,1.52,1.23,2.75,2.75,2.75Z"/>
        <path class="cls-12" d="m353.57,226.77h6.11c1.5,0,2.71-1.21,2.71-2.71v-6.27c0-1.43-1.11-2.62-2.54-2.71l-6.11-.38c-1.56-.1-2.88,1.14-2.88,2.71v6.66c0,1.5,1.21,2.71,2.71,2.71Z"/>
      </g>
    </g>
    <path class="cls-11" d="m351.68,211.79s-.69-4.1-2.88-4.22h3.76s1.57,2,1.49,4.01-2.37.21-2.37.21Z"/>
  </g>
  <polyline class="cls-3" points="388.85 220.73 388.85 319.05 1.01 319.05"/>
  <line class="cls-4" x1="358.35" y1="220.73" x2="358.35" y2="319.05"/>
  <g>
    <g>
      <g>
        <path class="cls-11" d="m242.34,225.7h8.05c1.9,0,3.45-1.54,3.45-3.45v-8.26c0-1.82-1.42-3.33-3.23-3.44l-8.05-.5c-1.99-.12-3.66,1.45-3.66,3.44v8.76c0,1.9,1.54,3.45,3.45,3.45Z"/>
        <path class="cls-12" d="m243.04,225.66h7.39c1.88,0,3.4-1.52,3.4-3.4v-7.6c0-1.8-1.4-3.28-3.19-3.39l-7.39-.46c-1.96-.12-3.61,1.43-3.61,3.39v8.06c0,1.88,1.52,3.4,3.4,3.4Z"/>
      </g>
      <g>
        <path class="cls-11" d="m243.74,225.98h7.7c1.81,0,3.27-1.47,3.27-3.27v-7.9c0-1.73-1.34-3.16-3.07-3.27l-7.7-.48c-1.88-.12-3.48,1.38-3.48,3.27v8.38c0,1.81,1.47,3.27,3.27,3.27Z"/>
        <path class="cls-12" d="m244.41,225.94h7.07c1.78,0,3.23-1.45,3.23-3.23v-7.27c0-1.71-1.33-3.12-3.03-3.22l-7.07-.44c-1.86-.12-3.43,1.36-3.43,3.22v7.71c0,1.78,1.45,3.23,3.23,3.23Z"/>
      </g>
      <g>
        <path class="cls-11" d="m245.14,226.25h7.35c1.71,0,3.1-1.39,3.1-3.1v-7.53c0-1.64-1.27-2.99-2.91-3.09l-7.35-.46c-1.78-.11-3.29,1.31-3.29,3.09v7.99c0,1.71,1.39,3.1,3.1,3.1Z"/>
        <path class="cls-12" d="m245.78,226.21h6.75c1.69,0,3.06-1.37,3.06-3.06v-6.93c0-1.61-1.25-2.95-2.87-3.05l-6.75-.42c-1.76-.11-3.25,1.29-3.25,3.05v7.36c0,1.69,1.37,3.06,3.06,3.06Z"/>
      </g>
      <g>
        <path class="cls-11" d="m246.54,226.53h7c1.61,0,2.92-1.31,2.92-2.92v-7.17c0-1.54-1.2-2.82-2.74-2.92l-7-.44c-1.68-.11-3.11,1.23-3.11,2.92v7.61c0,1.61,1.31,2.92,2.92,2.92Z"/>
        <path class="cls-12" d="m247.15,226.49h6.43c1.59,0,2.88-1.29,2.88-2.88v-6.6c0-1.52-1.18-2.78-2.7-2.88l-6.43-.4c-1.66-.1-3.06,1.21-3.06,2.88v7.01c0,1.59,1.29,2.88,2.88,2.88Z"/>
      </g>
      <g>
        <path class="cls-11" d="m247.94,226.81h6.65c1.52,0,2.75-1.23,2.75-2.75v-6.81c0-1.45-1.13-2.65-2.58-2.74l-6.65-.42c-1.58-.1-2.92,1.16-2.92,2.74v7.23c0,1.52,1.23,2.75,2.75,2.75Z"/>
        <path class="cls-12" d="m248.51,226.77h6.11c1.5,0,2.71-1.21,2.71-2.71v-6.27c0-1.43-1.11-2.62-2.54-2.71l-6.11-.38c-1.56-.1-2.88,1.14-2.88,2.71v6.66c0,1.5,1.21,2.71,2.71,2.71Z"/>
      </g>
    </g>
    <path class="cls-11" d="m246.62,211.79s-.69-4.1-2.88-4.22h3.76s1.57,2,1.49,4.01-2.37.21-2.37.21Z"/>
  </g>
  <line class="cls-4" x1="251.57" y1="220.73" x2="251.57" y2="319.05"/>
  <g>
    <g>
      <g>
        <path class="cls-11" d="m209.9,225.7h8.05c1.9,0,3.45-1.54,3.45-3.45v-8.26c0-1.82-1.42-3.33-3.23-3.44l-8.05-.5c-1.99-.12-3.66,1.45-3.66,3.44v8.76c0,1.9,1.54,3.45,3.45,3.45Z"/>
        <path class="cls-12" d="m210.61,225.66h7.39c1.88,0,3.4-1.52,3.4-3.4v-7.6c0-1.8-1.4-3.28-3.19-3.39l-7.39-.46c-1.96-.12-3.61,1.43-3.61,3.39v8.06c0,1.88,1.52,3.4,3.4,3.4Z"/>
      </g>
      <g>
        <path class="cls-11" d="m211.31,225.98h7.7c1.81,0,3.27-1.47,3.27-3.27v-7.9c0-1.73-1.34-3.16-3.07-3.27l-7.7-.48c-1.88-.12-3.48,1.38-3.48,3.27v8.38c0,1.81,1.47,3.27,3.27,3.27Z"/>
        <path class="cls-12" d="m211.98,225.94h7.07c1.78,0,3.23-1.45,3.23-3.23v-7.27c0-1.71-1.33-3.12-3.03-3.22l-7.07-.44c-1.86-.12-3.43,1.36-3.43,3.22v7.71c0,1.78,1.45,3.23,3.23,3.23Z"/>
      </g>
      <g>
        <path class="cls-11" d="m212.71,226.25h7.35c1.71,0,3.1-1.39,3.1-3.1v-7.53c0-1.64-1.27-2.99-2.91-3.09l-7.35-.46c-1.78-.11-3.29,1.31-3.29,3.09v7.99c0,1.71,1.39,3.1,3.1,3.1Z"/>
        <path class="cls-12" d="m213.35,226.21h6.75c1.69,0,3.06-1.37,3.06-3.06v-6.93c0-1.61-1.25-2.95-2.87-3.05l-6.75-.42c-1.76-.11-3.25,1.29-3.25,3.05v7.36c0,1.69,1.37,3.06,3.06,3.06Z"/>
      </g>
      <g>
        <path class="cls-11" d="m214.11,226.53h7c1.61,0,2.92-1.31,2.92-2.92v-7.17c0-1.54-1.2-2.82-2.74-2.92l-7-.44c-1.68-.11-3.11,1.23-3.11,2.92v7.61c0,1.61,1.31,2.92,2.92,2.92Z"/>
        <path class="cls-12" d="m214.71,226.49h6.43c1.59,0,2.88-1.29,2.88-2.88v-6.6c0-1.52-1.18-2.78-2.7-2.88l-6.43-.4c-1.66-.1-3.06,1.21-3.06,2.88v7.01c0,1.59,1.29,2.88,2.88,2.88Z"/>
      </g>
      <g>
        <path class="cls-11" d="m215.51,226.81h6.65c1.52,0,2.75-1.23,2.75-2.75v-6.81c0-1.45-1.13-2.65-2.58-2.74l-6.65-.42c-1.58-.1-2.92,1.16-2.92,2.74v7.23c0,1.52,1.23,2.75,2.75,2.75Z"/>
        <path class="cls-12" d="m216.08,226.77h6.11c1.5,0,2.71-1.21,2.71-2.71v-6.27c0-1.43-1.11-2.62-2.54-2.71l-6.11-.38c-1.56-.1-2.88,1.14-2.88,2.71v6.66c0,1.5,1.21,2.71,2.71,2.71Z"/>
      </g>
    </g>
    <path class="cls-11" d="m214.18,211.79s-.69-4.1-2.88-4.22h3.76s1.57,2,1.49,4.01-2.37.21-2.37.21Z"/>
  </g>
  <line class="cls-4" x1="219.14" y1="220.73" x2="219.14" y2="319.05"/>
  <g>
    <line class="cls-5" x1="214.45" y1="105.91" x2="214.45" y2="204.23"/>
    <g>
      <circle class="cls-6" cx="214.45" cy="53.45" r="52.45"/>
      <path class="cls-8" d="m214.49,79.84c-2.02,0-3.67-.65-4.97-1.94-1.29-1.3-1.94-2.83-1.94-4.61s.65-3.35,1.94-4.57c1.3-1.22,2.95-1.84,4.97-1.84s3.73.61,5,1.84,1.91,2.75,1.91,4.57-.64,3.31-1.91,4.61c-1.27,1.3-2.94,1.94-5,1.94Zm-4.46-18.07l-2.23-32.89h13.39l-2.23,32.89h-8.93Z"/>
    </g>
  </g>
  <g>
    <line class="cls-5" x1="382.48" y1="105.91" x2="382.48" y2="204.23"/>
    <g>
      <circle class="cls-6" cx="382.48" cy="53.45" r="52.45"/>
      <path class="cls-8" d="m382.51,79.84c-2.02,0-3.67-.65-4.97-1.94-1.29-1.3-1.94-2.83-1.94-4.61s.65-3.35,1.94-4.57c1.3-1.22,2.95-1.84,4.97-1.84s3.73.61,5,1.84,1.91,2.75,1.91,4.57-.64,3.31-1.91,4.61c-1.27,1.3-2.94,1.94-5,1.94Zm-4.46-18.07l-2.23-32.89h13.39l-2.23,32.89h-8.93Z"/>
    </g>
  </g>
</svg>