<?xml version="1.0" encoding="UTF-8"?>
<svg id="Layer_1" data-name="Layer 1" xmlns="http://www.w3.org/2000/svg" xmlns:xlink="http://www.w3.org/1999/xlink" viewBox="0 0 1048.47 218.46">
  <defs>
    <style>
      .cls-1 {
        clip-path: url(#clippath);
      }

      .cls-2 {
        fill: none;
      }

      .cls-2, .cls-3, .cls-4, .cls-5, .cls-6, .cls-7, .cls-8, .cls-9, .cls-10, .cls-11, .cls-12, .cls-13, .cls-14, .cls-15 {
        stroke-width: 0px;
      }

      .cls-16 {
        clip-path: url(#clippath-1);
      }

      .cls-17 {
        clip-path: url(#clippath-4);
      }

      .cls-18 {
        clip-path: url(#clippath-3);
      }

      .cls-19 {
        clip-path: url(#clippath-2);
      }

      .cls-20 {
        clip-path: url(#clippath-5);
      }

      .cls-21 {
        opacity: .21;
      }

      .cls-22 {
        isolation: isolate;
      }

      .cls-3 {
        fill: #4e4d4d;
      }

      .cls-4 {
        fill: #575756;
      }

      .cls-5 {
        fill: #2f314c;
      }

      .cls-6 {
        fill: #37363f;
      }

      .cls-7 {
        fill: #ddeaf1;
      }

      .cls-8 {
        fill: #e10a1a;
      }

      .cls-9 {
        fill: #bebebe;
      }

      .cls-10 {
        fill: #bde5ef;
      }

      .cls-11 {
        fill: #a5c7d3;
      }

      .cls-12 {
        fill: #8c6239;
      }

      .cls-13 {
        fill: #fffefe;
      }

      .cls-14 {
        fill: #fff8f5;
      }

      .cls-15 {
        fill: #fbfdff;
      }
    </style>
    <clipPath id="clippath">
      <polygon class="cls-2" points="233.67 174.47 233.5 110.62 636.55 110.62 636.72 174.47 233.67 174.47"/>
    </clipPath>
    <clipPath id="clippath-1">
      <path class="cls-2" d="M247.02,117.85h10.4s38.85,0,38.85,0h10.4c2.33,0,4.23,1.92,4.23,4.27l.09,33.43c0,2.36-1.88,4.27-4.21,4.27h-6.18s0,2.37,0,2.37c0,2.36-1.87,4.27-4.21,4.27h-2.44s0,3.35,0,3.35c0,2.37-1.88,4.27-4.21,4.27h-25.53c-2.33,0-4.23-1.91-4.23-4.27v-3.35s-2.44,0-2.44,0c-2.33,0-4.23-1.92-4.23-4.27v-2.37s-6.18,0-6.18,0c-2.33,0-4.23-1.92-4.23-4.27l-.09-33.43c0-2.36,1.88-4.27,4.21-4.27"/>
    </clipPath>
    <clipPath id="clippath-2">
      <path class="cls-2" d="M326.06,117.85h10.39s38.85,0,38.85,0h10.39c2.34,0,4.23,1.92,4.23,4.27l.09,33.43c0,2.36-1.87,4.27-4.21,4.27h-6.17s0,2.37,0,2.37c0,2.36-1.88,4.27-4.21,4.27h-2.44s0,3.35,0,3.35c0,2.37-1.87,4.27-4.21,4.27h-25.52c-2.34,0-4.23-1.91-4.23-4.27v-3.35s-2.45,0-2.45,0c-2.33,0-4.23-1.92-4.23-4.27v-2.37s-6.18,0-6.18,0c-2.34,0-4.23-1.92-4.23-4.27l-.09-33.43c0-2.36,1.87-4.27,4.21-4.27"/>
    </clipPath>
    <clipPath id="clippath-3">
      <path class="cls-2" d="M405.09,117.85h10.4s38.85,0,38.85,0h10.39c2.34,0,4.23,1.92,4.23,4.27l.09,33.43c0,2.36-1.87,4.27-4.21,4.27h-6.17s0,2.37,0,2.37c0,2.36-1.88,4.27-4.21,4.27h-2.44s0,3.35,0,3.35c0,2.37-1.88,4.27-4.22,4.27h-25.52c-2.33,0-4.23-1.91-4.23-4.27v-3.35s-2.44,0-2.44,0c-2.34,0-4.23-1.92-4.23-4.27v-2.37s-6.18,0-6.18,0c-2.33,0-4.23-1.92-4.23-4.27l-.09-33.43c0-2.36,1.88-4.27,4.21-4.27"/>
    </clipPath>
    <clipPath id="clippath-4">
      <path class="cls-2" d="M484.13,117.85h10.4s38.85,0,38.85,0h10.4c2.33,0,4.23,1.92,4.23,4.27l.09,33.43c0,2.36-1.88,4.27-4.21,4.27h-6.18s0,2.37,0,2.37c0,2.36-1.88,4.27-4.21,4.27h-2.44s0,3.35,0,3.35c0,2.37-1.88,4.27-4.21,4.27h-25.53c-2.33,0-4.23-1.91-4.23-4.27v-3.35s-2.44,0-2.44,0c-2.33,0-4.23-1.92-4.23-4.27v-2.37s-6.18,0-6.18,0c-2.33,0-4.23-1.92-4.23-4.27l-.09-33.43c0-2.36,1.88-4.27,4.21-4.27"/>
    </clipPath>
    <clipPath id="clippath-5">
      <path class="cls-2" d="M563.16,117.85h10.4s38.85,0,38.85,0h10.4c2.33,0,4.23,1.92,4.23,4.27l.09,33.43c0,2.36-1.88,4.27-4.21,4.27h-6.18s0,2.37,0,2.37c0,2.36-1.87,4.27-4.21,4.27h-2.44s0,3.35,0,3.35c0,2.37-1.88,4.27-4.21,4.27h-25.53c-2.33,0-4.23-1.91-4.23-4.27v-3.35s-2.44,0-2.44,0c-2.33,0-4.23-1.92-4.23-4.27v-2.37s-6.18,0-6.18,0c-2.33,0-4.23-1.92-4.23-4.27l-.09-33.43c0-2.36,1.88-4.27,4.21-4.27"/>
    </clipPath>
  </defs>
  <path class="cls-15" d="M15.04,65.03C77.75,47.89,250.88,22.18,322,11.96c20.44-2.97,40.95-4.53,61.64-4.86C496.2,5.45,893.06-1.15,1016.34.17l-321.79,60.98L15.04,65.03Z"/>
  <g>
    <path class="cls-8" d="M417.75,31.73c-.99,0-7.17.33-6.02.99-.33.41-2.39.58-3.21.91-1.15.99,6.1-.49,6.84-.91,2.14-.16,7.5-.91,2.39-.99"/>
    <path class="cls-8" d="M434.64,27.28c-7.17.08-12.03,1.24-17.96,2.88l15-.25c2.88-.91,13.1-2.72,2.97-2.64"/>
    <path class="cls-8" d="M389.82,35.36c-4.04.08-5.44-.41-3.13-.99,6.67-1.57,10.71-3.38,18.13-3.87,3.79,0,7.17-.82,10.71-1.9,2.55-1.73,50.84-5.11,23.65,1.15,11.62-.16-5.03,2.88-7.58,3.79-6.84,1.98-33.95,1.4-41.78,1.81M457.8,21.19c-23.24,2.06-46.48,2.55-68.81,4.86-4.94,1.73-37.99,7.99-23.32,11.87,22.99,4.29,28.84,1.4,61.23-1.07,22.58-2.14,48.78-6.35,70.13-12.69,1.32-.33.99-.66-.99-.66-14.83-.33-27.11-1.48-38.24-2.31"/>
    <path class="cls-4" d="M503.29,32.06c-3.13-.33-14.34,1.57-17.55,2.06l1.32-1.81-4.61.08-.25.08c5.11-.33-4.78,1.65-5.11,1.9-1.4.41-2.47.25-3.87.49l5.6-.08.25-.08c-.66,0-2.8.16-.99-.33l6.18-1.65-1.48,1.9h.41l14.01-2.14c-2.55.66-7.42,2.14-10.05,2.06l6.84-.16.25-.08c-5.44.41,4.7-1.65,5.11-1.9,1.48-.33,2.55-.16,3.96-.33"/>
    <path class="cls-4" d="M511.36,31.9l-6.92.16-.25.08c.66,0,2.72-.08.91.33-2.55.66-7.25,2.06-9.89,2.06l6.92-.16.25-.08c-5.27.33,4.53-1.57,5.03-1.9,1.4-.49,2.55-.33,3.96-.49M510.29,31.32c-.58.08-2.06,0-2.22.33.49.25,4.29-.25,2.22-.33"/>
    <path class="cls-4" d="M529.24,31.57l-5.6.08-.25.08c5.11-.33-3.87,1.4-4.37,1.73l-2.97-1.65-4.37.08-.25.08c.99,0,1.48-.08,2.22.16-2.64.66-7.66,2.22-10.3,2.14l5.6-.08.25-.08c-5.27.33,4.29-1.48,4.7-1.81.25.08,3.46,2.06,3.71,1.73,2.64-.66,8.9-2.55,11.62-2.47"/>
    <path class="cls-4" d="M537.16,31.4l-6.92.16-.25.08c5.19-.33-4.53,1.57-5.03,1.9-1.4.41-2.47.25-3.96.49l6.92-.16.25-.08c-5.27.33,4.53-1.57,5.03-1.9,1.4-.41,2.47-.25,3.96-.49M536.08,30.91c-.58.08-2.06,0-2.22.33.49.16,4.29-.33,2.22-.33"/>
    <path class="cls-4" d="M557.51,31.07c-1.73.08-14.26-.08-15.57.82,2.31-.33,4.7-.58,7.17-.49-2.64.66-8.24,2.39-10.96,2.31l6.84-.16.25-.08c-.66,0-2.8.16-.91-.33l7-1.81c.49.08,5.36-.33,3.63.33.41.08,2.22-.49,2.55-.58"/>
    <path class="cls-4" d="M575.64,30.75l-5.69.08-.25.08c6.84-.25-12.36,3.38-13.76,2.14,2.64-1.15,6.59-1.98,9.48-2.14l-7,.16-.25.08c4.29-.25-1.81.99-2.64,1.24-6.51,1.73,8.57.82,9.72.41,3.13-.49,6.92-2.14,10.14-1.98h-.08l.33-.08M567.97,30.33c-.58.08-2.06,0-2.14.33.41.25,4.2-.25,2.14-.33M572.18,30.25c-.49.08-2.06,0-2.14.33.41.25,4.12-.25,2.14-.33"/>
    <path class="cls-4" d="M593.27,30.5l-5.6.08-.25.08c5.11-.33-3.87,1.4-4.37,1.73l-2.97-1.65-4.37.08-.25.08c.91,0,1.57-.08,2.22.16-2.64.66-7.66,2.22-10.3,2.14l5.6-.08.25-.08c-5.27.33,4.29-1.48,4.7-1.81.25.08,3.46,2.06,3.71,1.73,2.64-.66,8.82-2.64,11.62-2.47"/>
    <path class="cls-4" d="M606.54,30.25c-.25.08-12.53.08-12.69.25,5.52-.41-4.61,1.57-5.03,1.9-1.4.41-2.55.25-3.96.49,2.8-.08,13.68,0,16.15-.82-3.54.41-7.17.74-10.71.58.25-.16,3.3-.91,3.71-.99.41.08,6.84-.41,4.7.25.16.16,3.38-.82,3.63-.82-2.22.41-5.44.49-7.91.49l3.63-.99c.49.08,7.83-.49,6.1.25.41.08,2.06-.49,2.39-.58"/>
    <path class="cls-4" d="M616.35,30.09l-7.33.16-.25.08c5.36-.33-4.53,1.57-5.03,1.9-1.4.41-2.55.25-3.96.49,2.88-.08,13.76,0,16.4-.91-3.46.41-7.33.82-10.71.58,3.05-.99,7.58-2.31,10.88-2.31"/>
    <path class="cls-8" d="M575.31,24.48c-.49.08-10.3.08-10.38.33,0,.16,1.48-.08,1.73.08-2.39.58-8.32,2.47-10.71,2.47-6.84.49,14.75-.08,14.09,0,.25,0,.58,0,.74-.08-.08-.08,6.67-1.24,3.79-1.07-3.54.58-7.75,1.15-11.37.91,1.32-.41,7.5-1.98,8.82-2.31.49-.08,4.2-.08,3.3-.33M583.88,26.87c-6.84-.16,9.64-3.3,11.29-2.47.49,1.32-9.48,2.55-11.29,2.47M594.01,24.07c-4.61.41-13.84.25-16.89,2.72,2.8,2.06,35.85-2.55,16.89-2.72M624.09,23.58c-7.83.49-18.38-.25-25.46,2.55,2.47,1.57,14.67.49,18.13-.49.41-.08,3.63-.16,2.72-.33-.58.08-9.31,0-9.56.33-.16.16,2.64-.08.91.33-1.73.82-11.12,1.07-4.86-.49,2.72-.66,12.2-2.55,13.18-.66.91.16,4.12-.91,5.03-1.07.25-.16.16-.16-.08-.16"/>
    <path class="cls-8" d="M570.36,22.92c-10.63.58-46.31,6.02-57.02,6.84l12.53-.25s1.57-.25-1.4-.33h-.33l18.54-2.39,1.81,2.06c-4.29.25-4.45.41-4.45.41-.25-.16,15.57,0,12.69-.49-2.22.25-2.88-1.65-4.12-2.72l23.98-3.05c-.08,0-.66-.16-2.22-.08M543.66,23.33c-1.81,0-3.87.25-3.87.25l2.22,2.47,5.85-.74c-1.24-1.4-1.73-2.22-4.2-1.98"/>
    <path class="cls-4" d="M566.57,27.78c-.66.08-4.04,0-4.94.16.74,0,.82,0,.16.16-1.4.25-3.63.82-5.11.91.16,0,2.97,0,3.13-.08-1.98.08.82-.33,1.15-.41.16,0,2.64-.16,1.57.08.16.08,1.73-.33,1.98-.33-.99.08-2.14.16-3.21.16.49-.08,1.98-.49,2.39-.41.16,0,2.47-.16,1.4.16.49-.08,1.07-.33,1.48-.41"/>
    <path class="cls-4" d="M568.96,28.03c-.66.08-1.32,0-1.98.16,1.32,0-2.72.66-3.13.66.08,0,2.55,0,2.47-.08-1.4,0,2.22-.58,2.64-.74M570.12,27.7c-.16,0-1.65.16-.82.16.25.08,1.65-.08.82-.16"/>
    <path class="cls-4" d="M573.58,27.94c-.74.08-1.32,0-1.98.16,1.32,0-2.72.66-3.13.66.16,0,2.55,0,2.64-.08q-.74,0-.25-.08c1.4-.41,3.05-.41,4.29-.49,0-.25-1.65.08-2.39.16.16-.16.58-.25.82-.33"/>
    <path class="cls-4" d="M577.2,28.19c.82-.16,1.57-.25,2.06-.25.58,0,.58.08.16.16-.74.08-1.57,0-2.22.08M579.76,27.86c-.49-.08-7,.66-3.87.74.33,0,1.24-.08,2.47-.16h0c-.66.08-3.54.25-1.65-.16,1.65-.08,2.55,0,3.38-.16.66-.16.58-.25-.33-.25"/>
    <path class="cls-4" d="M590.64,27.7c-.16,0-2.06,0-2.14.08,1.48,0-2.14.41-2.47.49.41-.16.82-.33,1.32-.49-1.4.08-2.72.41-4.04.58.82-.33,1.24-.41,2.31-.49-.08,0-2.39,0-2.39.08,1.07,0-1.07.49-1.4.66,1.4-.08,2.88-.41,4.04-.58-.41.16-.82.33-1.24.49,2.47-.25,4.12-.66,6.02-.82"/>
    <path class="cls-4" d="M591.38,28.27c-.99-.16,1.9-.33,2.39-.33-.74.16-1.73.33-2.39.33M594.84,27.61c-.58.08-3.05.16-2.55.25.41,0,3.13-.41,1.98,0-.82.16-3.05.16-3.96.33-1.07.33,1.4.08,2.06.08-.08,0-.16.08-.08.08.25.08,1.48,0,1.73-.08-2.31.08,3.3-.66.82-.66"/>
    <path class="cls-4" d="M602.75,27.04c-.49.08-1.4,0-1.98.16,1.65-.08-4.94,1.15-5.27,1.07h2.31l.25-.08q-.66,0-.08-.08c.82-.25,4.04-.91,4.78-1.07"/>
    <path class="cls-4" d="M607.28,26.95c-.49.08-1.4,0-1.98.16,1.65-.08-4.94,1.15-5.27,1.07h2.31l.25-.08q-.66,0-.16-.08c.82-.25,4.04-.91,4.86-1.07"/>
  </g>
  <path class="cls-7" d="M1011.31,136.55l-322.04,78.94,5.27-154.26L1011.31,1.24c17.96-4.2,33.46,5.77,35.1,36.67,1.48,27.52,12.11,81.25-35.1,98.64Z"/>
  <path class="cls-7" d="M.04,88.76l4.12,98.97c.25,11.87,9.72,23.49,22,23.57,13.18-1.98,652.48,11.54,665.08,5.69,15.24-6.26,16.48-21.51,15.24-36.09.25,10.3-6.02,19.86-15.41,23.81-3.05,1.32-6.43,1.98-9.97,1.98-10.3-1.98-654.37-2.88-663.77-8.32-8.08-3.87-13.27-12.53-13.68-21.51L.04,88.76"/>
  <path class="cls-13" d="M202.18,177.26c-11.54.08-12.69-19.28-.66-19.45,11.54-.08,12.69,19.36.66,19.45M168.97,177.26c-11.54.08-12.77-19.45-.74-19.61,11.62-.16,12.86,19.45.74,19.61M135.85,174.21c-11.29.08-12.44-19.04-.74-19.28,11.37-.08,12.61,19.12.74,19.28M78.25,176.68c-5.69,0-10.05-5.27-10.22-10.79.08-1.9-2.31-42.52-.91-42.77,1.32-3.79,4.7-6.67,8.82-6.67,2.39.25,32.88-.91,34.12.74,3.87,1.73,6.35,5.77,6.51,10.05-.08,1.9,2.22,42.85.82,43.02-1.32,3.79-4.78,6.67-8.9,6.59l-30.24-.16M678.31,57.28L20.23,64.94C7.96,64.94-.7,76.97.04,88.76c2.55,13.1-1.65,96.08,10.38,104.49,3.96,4.29,9.39,7,15.24,7,13.02-2.14,652.81,10.47,665.25,4.45,9.48-3.87,15.74-13.51,15.49-23.81l-1.65-97.73c0-14.09-12.36-26.12-26.45-25.87"/>
  <path class="cls-3" d="M201.52,157.81c-11.95.16-10.88,19.53.66,19.45,12.03-.08,10.88-19.53-.66-19.45"/>
  <path class="cls-3" d="M168.31,157.57c-12.03.16-10.88,19.69.74,19.61,12.03-.08,10.88-19.69-.74-19.61"/>
  <path class="cls-3" d="M135.19,154.93c-11.78.16-10.55,19.28.74,19.28,11.78-.16,10.55-19.36-.74-19.28"/>
  <path class="cls-3" d="M93,168.2c-25.3-.25-28.02-42.52-1.65-43.34,25.46.08,28.18,42.69,1.65,43.34M106.18,116.36l-30.32.08c-4.04,0-7.5,2.88-8.82,6.67-1.4.08.99,40.95.91,42.77.16,4.2,2.64,8.24,6.43,9.97,1.07,1.57,31.81.74,34.03,1.07,4.12.08,7.58-2.8,8.9-6.59,1.4,0-.99-41.28-.82-43.02-.08-5.69-4.53-10.96-10.3-10.96"/>
  <path class="cls-14" d="M92.42,152.87c-7.42,0-8.16-12.53-.49-12.69,7.42,0,8.16,12.61.49,12.69M91.35,124.85c-26.37.91-23.65,43.1,1.65,43.34,26.53-.66,23.81-43.18-1.65-43.34"/>
  <path class="cls-3" d="M91.92,140.18c-7.66.16-6.92,12.69.49,12.69,7.66-.08,6.92-12.69-.49-12.69"/>
  <g>
    <g>
      <path class="cls-11" d="M840.81,72.11c-1.07,1.9,2.55,84.38-2.14,83.06-5.93,4.04-1.24-80.92-2.64-81.66-.41-4.04,4.61-7,4.78-1.4h0Z"/>
      <path class="cls-11" d="M853.09,69.64c-.82.74,2.14,85.54-2.22,82.32-5.93,3.3-1.24-79.77-2.64-80.92-.33-3.96,4.7-7,4.86-1.4h0Z"/>
      <path class="cls-11" d="M865.37,67.25c-.91.99,2.31,84.3-2.22,81.5-6.02,2.97-1.15-78.78-2.64-80.1-.33-3.96,4.7-6.92,4.86-1.4h0Z"/>
      <path class="cls-11" d="M877.65,64.86c-.91,1.24,2.39,82.98-2.22,80.59-5.85,4.29-1.24-78.53-2.64-79.19-.33-3.96,4.7-6.92,4.86-1.4h0Z"/>
      <path class="cls-11" d="M889.93,62.55c-.99,1.4,2.39,81.5-2.22,79.52-5.85,3.79-1.32-77.21-2.64-78.12-.33-3.96,4.7-6.84,4.86-1.4h0Z"/>
      <path class="cls-11" d="M902.21,60.25c-.99,1.65,2.47,80.01-2.22,78.37-5.85,3.79-1.24-76.06-2.64-76.97-.33-3.87,4.7-6.76,4.86-1.4h0Z"/>
      <path class="cls-11" d="M914.48,57.94v73.26c0,2.39-1.81,5.11-3.87,3.54-1.81-.99-1.65-77.79,0-78.53h0c1.57-2.39,4.12-.74,3.87,1.73h0Z"/>
      <path class="cls-11" d="M926.76,55.71c-.99,1.24,2.39,78.12-2.14,75.89-5.93,3.46-1.24-73.42-2.64-74.49-.33-3.71,4.61-6.51,4.78-1.4Z"/>
    </g>
    <g class="cls-21">
      <path class="cls-5" d="M837.93,73.02v81.33c0,1.32-.41,2.55-.99,3.38-1.73-.91-1.57-87.02,0-87.6.74.74.99,1.65.99,2.88h0Z"/>
      <path class="cls-5" d="M850.21,70.63v80.18c0,1.24-.41,2.47-.99,3.3-1.73-.82-1.57-85.87,0-86.36.74.74.99,1.65.99,2.88h0Z"/>
      <path class="cls-5" d="M862.49,68.24v78.94c0,1.24-.33,2.47-.99,3.3-1.81-.66-1.57-84.63,0-85.04.66.74.99,1.57.99,2.8h0Z"/>
      <path class="cls-5" d="M874.77,65.93v77.62c0,1.24-.33,2.39-.99,3.21-1.81-.74-1.57-83.23,0-83.64.66.74.99,1.57.99,2.8h0Z"/>
      <path class="cls-5" d="M887.04,63.62v76.31c0,1.24-.33,2.39-.99,3.13-1.81-.49-1.57-81.99,0-82.16.66.66.91,1.57.99,2.72Z"/>
      <path class="cls-5" d="M899.32,61.32v74.91c0,1.15-.33,2.31-.99,3.13-1.81-.82-1.57-80.1,0-80.67.66.66.99,1.48.99,2.64Z"/>
      <path class="cls-5" d="M911.6,59.09v73.34c0,1.15-.33,2.31-.99,3.13-1.81-.82-1.65-78.53,0-79.03h0c.74.58.99,1.4.99,2.55h0Z"/>
      <path class="cls-5" d="M923.88,56.95v71.86c0,1.15-.41,2.22-.99,2.97-1.73-.49-1.57-77.13,0-77.38.74.58.99,1.4.99,2.55Z"/>
    </g>
  </g>
  <g>
    <path class="cls-11" d="M780.58,172.07l-4.7,12.61-.58.16.49-5.11c-2.72-.08-18.05,4.04-20.93,4.7.66-2.97.91-5.69.91-5.69l24.8-6.67h0Z"/>
    <path class="cls-10" d="M775.8,179.73l-.49,5.11c-5.52,1.48-17.47,4.7-22.83,6.1,1.15-1.48,1.98-4.37,2.47-6.51,2.88-.66,18.05-4.78,20.85-4.7h0Z"/>
  </g>
  <path class="cls-11" d="M1003.89,118.67l-4.37,12.77-.58.16.41-5.11c-2.72,0-17.88,4.53-20.77,5.27.58-2.97.74-5.69.74-5.69l24.56-7.42h0Z"/>
  <path class="cls-10" d="M999.28,126.5l-.41,5.11c-5.44,1.65-17.3,5.11-22.66,6.76,1.15-1.48,1.9-4.45,2.31-6.51,2.97-.91,18.05-5.36,20.77-5.36h0Z"/>
  <path class="cls-7" d="M799.86,180.39l-10.55-.08c-.08,1.32-.16,2.64-.16,3.87l10.71.08c.08-1.24.08-2.64,0-3.87h0Z"/>
  <g class="cls-22">
    <g class="cls-1">
      <g>
        <path class="cls-9" d="M288.07,117.85h8.19s10.4,0,10.4,0c2.33,0,4.23,1.92,4.23,4.27l.09,33.43c0,2.36-1.88,4.27-4.21,4.27h-6.18s0,2.37,0,2.37c0,2.36-1.87,4.27-4.21,4.27h-2.44s0,3.35,0,3.35c0,2.37-1.88,4.27-4.21,4.27h-25.53c-2.33,0-4.23-1.91-4.23-4.27v-3.35s-2.44,0-2.44,0c-2.33,0-4.23-1.92-4.23-4.27v-2.37s-6.18,0-6.18,0c-2.33,0-4.23-1.92-4.23-4.27l-.09-33.43c0-2.36,1.88-4.27,4.21-4.27h9.03s1.37,0,1.37,0h1.69s11.41,0,11.41,0h3.07s11.41,0,11.41,0h3.07M367.1,117.85h8.2s10.39,0,10.39,0c2.34,0,4.23,1.92,4.23,4.27l.09,33.43c0,2.36-1.87,4.27-4.21,4.27h-6.17s0,2.37,0,2.37c0,2.36-1.88,4.27-4.21,4.27h-2.44s0,3.35,0,3.35c0,2.37-1.87,4.27-4.21,4.27h-25.52c-2.34,0-4.23-1.91-4.23-4.27v-3.35s-2.45,0-2.45,0c-2.33,0-4.23-1.92-4.23-4.27v-2.37s-6.18,0-6.18,0c-2.34,0-4.23-1.92-4.23-4.27l-.09-33.43c0-2.36,1.87-4.27,4.21-4.27h9.02s1.37,0,1.37,0h1.69s11.41,0,11.41,0h3.07s11.41,0,11.41,0h3.07M446.14,117.85h8.2s10.39,0,10.39,0c2.34,0,4.23,1.92,4.23,4.27l.09,33.43c0,2.36-1.87,4.27-4.21,4.27h-6.17s0,2.37,0,2.37c0,2.36-1.88,4.27-4.21,4.27h-2.44s0,3.35,0,3.35c0,2.37-1.88,4.27-4.22,4.27h-25.52c-2.33,0-4.23-1.91-4.23-4.27v-3.35s-2.44,0-2.44,0c-2.34,0-4.23-1.92-4.23-4.27v-2.37s-6.18,0-6.18,0c-2.33,0-4.23-1.92-4.23-4.27l-.09-33.43c0-2.36,1.88-4.27,4.21-4.27h9.02s1.38,0,1.38,0h1.68s11.41,0,11.41,0h3.07s11.42,0,11.42,0h3.06M525.18,117.85h8.19s10.4,0,10.4,0c2.33,0,4.23,1.92,4.23,4.27l.09,33.43c0,2.36-1.88,4.27-4.21,4.27h-6.18s0,2.37,0,2.37c0,2.36-1.88,4.27-4.21,4.27h-2.44s0,3.35,0,3.35c0,2.37-1.88,4.27-4.21,4.27h-25.53c-2.33,0-4.23-1.91-4.23-4.27v-3.35s-2.44,0-2.44,0c-2.33,0-4.23-1.92-4.23-4.27v-2.37s-6.18,0-6.18,0c-2.33,0-4.23-1.92-4.23-4.27l-.09-33.43c0-2.36,1.88-4.27,4.21-4.27h9.03s1.37,0,1.37,0h1.69s11.41,0,11.41,0h3.06s11.42,0,11.42,0h3.07M604.22,117.85h8.19s10.4,0,10.4,0c2.33,0,4.23,1.92,4.23,4.27l.09,33.43c0,2.36-1.88,4.27-4.21,4.27h-6.18s0,2.37,0,2.37c0,2.36-1.87,4.27-4.21,4.27h-2.44s0,3.35,0,3.35c0,2.37-1.88,4.27-4.21,4.27h-25.53c-2.33,0-4.23-1.91-4.23-4.27v-3.35s-2.44,0-2.44,0c-2.33,0-4.23-1.92-4.23-4.27v-2.37s-6.18,0-6.18,0c-2.33,0-4.23-1.92-4.23-4.27l-.09-33.43c0-2.36,1.88-4.27,4.21-4.27h9.03s1.37,0,1.37,0h1.69s11.41,0,11.41,0h3.07s11.41,0,11.41,0h3.07M633.56,110.62H236.48c-1.64,0-2.98,1.35-2.98,3.02l.16,57.8c0,1.66,1.35,3.02,3,3.02h397.08c1.65,0,2.98-1.36,2.98-3.02l-.16-57.8c0-1.67-1.34-3.02-3-3.02"/>
        <path class="cls-6" d="M306.66,117.85h-10.4s-8.19,0-8.19,0l8.01,8.05c0,.85-.68,1.56-1.52,1.56s-1.54-.7-1.54-1.56l-8.01-8.05h-11.41s8.01,8.05,8.01,8.05c0,.85-.68,1.56-1.52,1.56s-1.54-.7-1.54-1.56l-8.01-8.05h-11.41s8.01,8.05,8.01,8.05c0,.85-.68,1.56-1.52,1.56s-1.54-.7-1.54-1.56l-8.01-8.05h-9.03c-2.33,0-4.22,1.92-4.21,4.27l.09,33.43c0,2.36,1.91,4.27,4.23,4.27h6.18s0,2.37,0,2.37c0,2.36,1.91,4.27,4.23,4.27h2.44s0,3.35,0,3.35c0,2.37,1.91,4.27,4.23,4.27h25.53c2.33,0,4.22-1.91,4.21-4.27v-3.35s2.43,0,2.43,0c2.34,0,4.22-1.92,4.21-4.27v-2.37s6.17,0,6.17,0c2.33,0,4.22-1.92,4.21-4.27l-.09-33.43c0-2.36-1.91-4.27-4.23-4.27"/>
        <g class="cls-16">
          <path class="cls-12" d="M288.07,117.85h-3.07s8.01,8.05,8.01,8.05c0,.85.69,1.56,1.54,1.56s1.53-.7,1.52-1.56l-8.01-8.05"/>
          <path class="cls-12" d="M273.59,117.85h-3.07s8.01,8.05,8.01,8.05c0,.85.69,1.56,1.54,1.56s1.53-.7,1.52-1.56l-8.01-8.05"/>
          <path class="cls-12" d="M259.11,117.85h-1.69s-1.37,0-1.37,0l8.01,8.05c0,.85.69,1.56,1.54,1.56s1.53-.7,1.52-1.56l-8.01-8.05"/>
        </g>
        <path class="cls-6" d="M385.7,117.85h-10.39s-8.2,0-8.2,0l8.01,8.05c0,.85-.68,1.56-1.52,1.56s-1.53-.7-1.53-1.56l-8.02-8.05h-11.41s8.01,8.05,8.01,8.05c0,.85-.68,1.56-1.52,1.56s-1.53-.7-1.53-1.56l-8.02-8.05h-11.41s8.01,8.05,8.01,8.05c0,.85-.68,1.56-1.52,1.56s-1.53-.7-1.53-1.56l-8.02-8.05h-9.02c-2.34,0-4.22,1.92-4.21,4.27l.09,33.43c0,2.36,1.9,4.27,4.23,4.27h6.17s0,2.37,0,2.37c0,2.36,1.91,4.27,4.23,4.27h2.44s0,3.35,0,3.35c0,2.37,1.9,4.27,4.23,4.27h25.52c2.34,0,4.22-1.91,4.21-4.27v-3.35s2.44,0,2.44,0c2.33,0,4.22-1.92,4.21-4.27v-2.37s6.16,0,6.16,0c2.34,0,4.22-1.92,4.21-4.27l-.09-33.43c0-2.36-1.9-4.27-4.23-4.27"/>
        <g class="cls-19">
          <path class="cls-12" d="M367.1,117.85h-3.07s8.02,8.05,8.02,8.05c0,.85.69,1.56,1.53,1.56s1.53-.7,1.52-1.56l-8.01-8.05"/>
          <path class="cls-12" d="M352.62,117.85h-3.07s8.02,8.05,8.02,8.05c0,.85.69,1.56,1.53,1.56s1.53-.7,1.52-1.56l-8.01-8.05"/>
          <path class="cls-12" d="M338.14,117.85h-1.69s-1.37,0-1.37,0l8.02,8.05c0,.85.69,1.56,1.53,1.56s1.53-.7,1.52-1.56l-8.01-8.05"/>
        </g>
        <path class="cls-6" d="M464.73,117.85h-10.39s-8.2,0-8.2,0l8.02,8.05c0,.85-.68,1.56-1.53,1.56s-1.53-.7-1.53-1.56l-8.01-8.05h-11.42s8.02,8.05,8.02,8.05c0,.85-.69,1.56-1.53,1.56s-1.53-.7-1.53-1.56l-8.02-8.05h-11.41s8.02,8.05,8.02,8.05c0,.85-.68,1.56-1.53,1.56s-1.53-.7-1.53-1.56l-8.02-8.05h-9.02c-2.33,0-4.22,1.92-4.21,4.27l.09,33.43c0,2.36,1.91,4.27,4.23,4.27h6.18s0,2.37,0,2.37c0,2.36,1.9,4.27,4.23,4.27h2.44s0,3.35,0,3.35c0,2.37,1.91,4.27,4.23,4.27h25.52c2.34,0,4.23-1.91,4.22-4.27v-3.35s2.43,0,2.43,0c2.33,0,4.22-1.92,4.21-4.27v-2.37s6.16,0,6.16,0c2.34,0,4.22-1.92,4.21-4.27l-.09-33.43c0-2.36-1.9-4.27-4.23-4.27"/>
        <g class="cls-18">
          <path class="cls-12" d="M446.14,117.85h-3.06s8.01,8.05,8.01,8.05c0,.85.69,1.56,1.53,1.56s1.54-.7,1.53-1.56l-8.02-8.05"/>
          <path class="cls-12" d="M431.66,117.85h-3.07s8.02,8.05,8.02,8.05c0,.85.69,1.56,1.53,1.56s1.54-.7,1.53-1.56l-8.02-8.05"/>
          <path class="cls-12" d="M417.18,117.85h-1.68s-1.38,0-1.38,0l8.02,8.05c0,.85.69,1.56,1.53,1.56s1.54-.7,1.53-1.56l-8.02-8.05"/>
        </g>
        <path class="cls-6" d="M543.77,117.85h-10.4s-8.19,0-8.19,0l8.01,8.05c0,.85-.68,1.56-1.52,1.56s-1.54-.7-1.54-1.56l-8.01-8.05h-11.42s8.02,8.05,8.02,8.05c0,.85-.68,1.56-1.53,1.56s-1.53-.7-1.53-1.56l-8.01-8.05h-11.41s8.01,8.05,8.01,8.05c0,.85-.68,1.56-1.53,1.56s-1.53-.7-1.53-1.56l-8.01-8.05h-9.03c-2.33,0-4.22,1.92-4.21,4.27l.09,33.43c0,2.36,1.91,4.27,4.23,4.27h6.18s0,2.37,0,2.37c0,2.36,1.91,4.27,4.23,4.27h2.44s0,3.35,0,3.35c0,2.37,1.91,4.27,4.23,4.27h25.53c2.33,0,4.22-1.91,4.21-4.27v-3.35s2.43,0,2.43,0c2.33,0,4.22-1.92,4.21-4.27v-2.37s6.17,0,6.17,0c2.33,0,4.22-1.92,4.21-4.27l-.09-33.43c0-2.36-1.91-4.27-4.23-4.27"/>
        <g class="cls-17">
          <path class="cls-12" d="M525.18,117.85h-3.07s8.01,8.05,8.01,8.05c0,.85.69,1.56,1.54,1.56s1.53-.7,1.52-1.56l-8.01-8.05"/>
          <path class="cls-12" d="M510.69,117.85h-3.06s8.01,8.05,8.01,8.05c0,.85.69,1.56,1.53,1.56s1.54-.7,1.53-1.56l-8.02-8.05"/>
          <path class="cls-12" d="M496.22,117.85h-1.69s-1.37,0-1.37,0l8.01,8.05c0,.85.69,1.56,1.53,1.56s1.54-.7,1.53-1.56l-8.01-8.05"/>
        </g>
        <path class="cls-6" d="M622.81,117.85h-10.4s-8.19,0-8.19,0l8.01,8.05c0,.85-.68,1.56-1.52,1.56s-1.54-.7-1.54-1.56l-8.01-8.05h-11.41s8.01,8.05,8.01,8.05c0,.85-.68,1.56-1.52,1.56s-1.54-.7-1.54-1.56l-8.01-8.05h-11.41s8.01,8.05,8.01,8.05c0,.85-.68,1.56-1.52,1.56s-1.54-.7-1.54-1.56l-8.01-8.05h-9.03c-2.33,0-4.22,1.92-4.21,4.27l.09,33.43c0,2.36,1.91,4.27,4.23,4.27h6.18s0,2.37,0,2.37c0,2.36,1.91,4.27,4.23,4.27h2.44s0,3.35,0,3.35c0,2.37,1.91,4.27,4.23,4.27h25.53c2.33,0,4.22-1.91,4.21-4.27v-3.35s2.43,0,2.43,0c2.34,0,4.22-1.92,4.21-4.27v-2.37s6.17,0,6.17,0c2.33,0,4.22-1.92,4.21-4.27l-.09-33.43c0-2.36-1.91-4.27-4.23-4.27"/>
        <g class="cls-20">
          <path class="cls-12" d="M604.22,117.85h-3.07s8.01,8.05,8.01,8.05c0,.85.7,1.56,1.54,1.56s1.53-.7,1.52-1.56l-8.01-8.05"/>
          <path class="cls-12" d="M589.73,117.85h-3.07s8.01,8.05,8.01,8.05c0,.85.69,1.56,1.54,1.56s1.53-.7,1.52-1.56l-8.01-8.05"/>
          <path class="cls-12" d="M575.25,117.85h-1.69s-1.37,0-1.37,0l8.01,8.05c0,.85.69,1.56,1.54,1.56s1.53-.7,1.52-1.56l-8.01-8.05"/>
        </g>
      </g>
    </g>
  </g>
</svg>