<?xml version="1.0" encoding="utf-8"?>
<!-- Generator: Adobe Illustrator 27.9.0, SVG Export Plug-In . SVG Version: 6.00 Build 0)  -->
<svg version="1.1" id="katman_1" xmlns="http://www.w3.org/2000/svg" xmlns:xlink="http://www.w3.org/1999/xlink" x="0px" y="0px"
	 viewBox="0 0 1273.5 265.7" style="enable-background:new 0 0 1273.5 265.7;" xml:space="preserve">
<style type="text/css">
	.st0{fill:#FBFDFF;}
	.st1{fill:#E10A1A;}
	.st2{fill:#575756;}
	.st3{fill:#DDEAF1;}
	.st4{clip-path:url(#SVGID_00000161614745588350284110000016891695979894855082_);}
	.st5{fill:#FFFEFE;}
	.st6{fill:#4E4D4D;}
	.st7{fill:#989898;}
	.st8{fill:#010101;}
	.st9{clip-path:url(#SVGID_00000114069724971340934570000003515453761655755658_);}
	.st10{fill:#C59B6C;}
	.st11{clip-path:url(#SVGID_00000114061738010861481730000013078548530370867629_);}
	.st12{clip-path:url(#SVGID_00000131348704922742326320000015552864302026844350_);}
	.st13{clip-path:url(#SVGID_00000049197894506454483600000009690515424814031769_);}
	.st14{clip-path:url(#SVGID_00000170257397620558253410000018243418471607294387_);}
	.st15{fill:#FFF8F5;}
	.st16{fill:#A5C7D3;}
	.st17{opacity:0.21;}
	.st18{fill:#2F314C;}
	.st19{fill:#BDE5EF;}
</style>
<g>
	<path class="st0" d="M19.4,78.6c76.1-20.8,286.2-52,372.5-64.4c24.8-3.6,49.7-5.5,74.8-5.9c136.6-2,618.2-10,767.8-8.4l-390.5,74
		L19.4,78.6z"/>
	<g>
		<g>
			<g>
				<g>
					<path class="st1" d="M508.1,38.2c-1.2,0-8.7,0.4-7.3,1.2c-0.4,0.5-2.9,0.7-3.9,1.1c-1.4,1.2,7.4-0.6,8.3-1.1
						C507.8,39.2,514.3,38.3,508.1,38.2"/>
					<path class="st1" d="M528.6,32.8c-8.7,0.1-14.6,1.5-21.8,3.5L525,36C528.5,34.9,540.9,32.7,528.6,32.8"/>
					<path class="st1" d="M474.2,42.6c-4.9,0.1-6.6-0.5-3.8-1.2c8.1-1.9,13-4.1,22-4.7c4.6,0,8.7-1,13-2.3
						c3.1-2.1,61.7-6.2,28.7,1.4c14.1-0.2-6.1,3.5-9.2,4.6C516.6,42.8,483.7,42.1,474.2,42.6 M556.7,25.4
						c-28.2,2.5-56.4,3.1-83.5,5.9c-6,2.1-46.1,9.7-28.3,14.4c27.9,5.2,35,1.7,74.3-1.3c27.4-2.6,59.2-7.7,85.1-15.4
						c1.6-0.4,1.2-0.8-1.2-0.8C585.1,27.8,570.2,26.4,556.7,25.4"/>
					<path class="st2" d="M611.9,38.6c-3.8-0.4-17.4,1.9-21.3,2.5l1.6-2.2l-5.6,0.1l-0.3,0.1c6.2-0.4-5.8,2-6.2,2.3
						c-1.7,0.5-3,0.3-4.7,0.6l6.8-0.1l0.3-0.1c-0.8,0-3.4,0.2-1.2-0.4l7.5-2l-1.8,2.3h0.5l17-2.6c-3.1,0.8-9,2.6-12.2,2.5l8.3-0.2
						l0.3-0.1c-6.6,0.5,5.7-2,6.2-2.3C608.9,38.6,610.2,38.8,611.9,38.6"/>
					<path class="st2" d="M621.7,38.4l-8.4,0.2l-0.3,0.1c0.8,0,3.3-0.1,1.1,0.4c-3.1,0.8-8.8,2.5-12,2.5l8.4-0.2l0.3-0.1
						c-6.4,0.4,5.5-1.9,6.1-2.3C618.6,38.4,620,38.6,621.7,38.4 M620.4,37.7c-0.7,0.1-2.5,0-2.7,0.4
						C618.3,38.4,622.9,37.8,620.4,37.7"/>
					<path class="st2" d="M643.4,38l-6.8,0.1l-0.3,0.1c6.2-0.4-4.7,1.7-5.3,2.1l-3.6-2l-5.3,0.1l-0.3,0.1c1.2,0,1.8-0.1,2.7,0.2
						c-3.2,0.8-9.3,2.7-12.5,2.6l6.8-0.1l0.3-0.1c-6.4,0.4,5.2-1.8,5.7-2.2c0.3,0.1,4.2,2.5,4.5,2.1C632.5,40.2,640.1,37.9,643.4,38
						"/>
					<path class="st2" d="M653,37.8l-8.4,0.2l-0.3,0.1c6.3-0.4-5.5,1.9-6.1,2.3c-1.7,0.5-3,0.3-4.8,0.6l8.4-0.2l0.3-0.1
						c-6.4,0.4,5.5-1.9,6.1-2.3C649.9,37.9,651.2,38.1,653,37.8 M651.7,37.2c-0.7,0.1-2.5,0-2.7,0.4
						C649.6,37.8,654.2,37.2,651.7,37.2"/>
					<path class="st2" d="M677.7,37.4c-2.1,0.1-17.3-0.1-18.9,1c2.8-0.4,5.7-0.7,8.7-0.6c-3.2,0.8-10,2.9-13.3,2.8l8.3-0.2l0.3-0.1
						c-0.8,0-3.4,0.2-1.1-0.4l8.5-2.2c0.6,0.1,6.5-0.4,4.4,0.4C675.1,38.2,677.3,37.5,677.7,37.4"/>
					<path class="st2" d="M699.7,37l-6.9,0.1l-0.3,0.1c8.3-0.3-15,4.1-16.7,2.6c3.2-1.4,8-2.4,11.5-2.6l-8.5,0.2l-0.3,0.1
						c5.2-0.3-2.2,1.2-3.2,1.5c-7.9,2.1,10.4,1,11.8,0.5c3.8-0.6,8.4-2.6,12.3-2.4h-0.1L699.7,37 M690.4,36.5
						c-0.7,0.1-2.5,0-2.6,0.4C688.3,37.2,692.9,36.6,690.4,36.5 M695.5,36.4c-0.6,0.1-2.5,0-2.6,0.4
						C693.4,37.1,697.9,36.5,695.5,36.4"/>
					<path class="st2" d="M721.1,36.7l-6.8,0.1l-0.3,0.1c6.2-0.4-4.7,1.7-5.3,2.1l-3.6-2l-5.3,0.1l-0.3,0.1c1.1,0,1.9-0.1,2.7,0.2
						c-3.2,0.8-9.3,2.7-12.5,2.6l6.8-0.1l0.3-0.1c-6.4,0.4,5.2-1.8,5.7-2.2c0.3,0.1,4.2,2.5,4.5,2.1
						C710.2,38.9,717.7,36.5,721.1,36.7"/>
					<path class="st2" d="M737.2,36.4c-0.3,0.1-15.2,0.1-15.4,0.3c6.7-0.5-5.6,1.9-6.1,2.3c-1.7,0.5-3.1,0.3-4.8,0.6
						c3.4-0.1,16.6,0,19.6-1c-4.3,0.5-8.7,0.9-13,0.7c0.3-0.2,4-1.1,4.5-1.2c0.5,0.1,8.3-0.5,5.7,0.3c0.2,0.2,4.1-1,4.4-1
						c-2.7,0.5-6.6,0.6-9.6,0.6l4.4-1.2c0.6,0.1,9.5-0.6,7.4,0.3C734.8,37.2,736.8,36.5,737.2,36.4"/>
					<path class="st2" d="M749.1,36.2l-8.9,0.2l-0.3,0.1c6.5-0.4-5.5,1.9-6.1,2.3c-1.7,0.5-3.1,0.3-4.8,0.6c3.5-0.1,16.7,0,19.9-1.1
						c-4.2,0.5-8.9,1-13,0.7C739.6,37.8,745.1,36.2,749.1,36.2"/>
					<path class="st1" d="M699.3,29.4c-0.6,0.1-12.5,0.1-12.6,0.4c0,0.2,1.8-0.1,2.1,0.1c-2.9,0.7-10.1,3-13,3
						c-8.3,0.6,17.9-0.1,17.1,0c0.3,0,0.7,0,0.9-0.1c-0.1-0.1,8.1-1.5,4.6-1.3c-4.3,0.7-9.4,1.4-13.8,1.1c1.6-0.5,9.1-2.4,10.7-2.8
						C695.9,29.7,700.4,29.7,699.3,29.4 M709.7,32.3c-8.3-0.2,11.7-4,13.7-3C724,30.9,711.9,32.4,709.7,32.3 M722,28.9
						c-5.6,0.5-16.8,0.3-20.5,3.3C704.9,34.7,745,29.1,722,28.9 M758.5,28.3c-9.5,0.6-22.3-0.3-30.9,3.1c3,1.9,17.8,0.6,22-0.6
						c0.5-0.1,4.4-0.2,3.3-0.4c-0.7,0.1-11.3,0-11.6,0.4c-0.2,0.2,3.2-0.1,1.1,0.4c-2.1,1-13.5,1.3-5.9-0.6c3.3-0.8,14.8-3.1,16-0.8
						c1.1,0.2,5-1.1,6.1-1.3C758.9,28.3,758.8,28.3,758.5,28.3"/>
					<path class="st1" d="M693.3,27.5c-12.9,0.7-56.2,7.3-69.2,8.3l15.2-0.3c0,0,1.9-0.3-1.7-0.4c-0.2,0-0.3,0-0.4,0l22.5-2.9
						l2.2,2.5c-5.2,0.3-5.4,0.5-5.4,0.5c-0.3-0.2,18.9,0,15.4-0.6c-2.7,0.3-3.5-2-5-3.3l29.1-3.7C695.9,27.6,695.2,27.4,693.3,27.5
						 M660.9,28c-2.2,0-4.7,0.3-4.7,0.3l2.7,3l7.1-0.9C664.5,28.7,663.9,27.7,660.9,28"/>
					<path class="st2" d="M688.7,33.4c-0.8,0.1-4.9,0-6,0.2c0.9,0,1,0,0.2,0.2c-1.7,0.3-4.4,1-6.2,1.1c0.2,0,3.6,0,3.8-0.1
						c-2.4,0.1,1-0.4,1.4-0.5c0.2,0,3.2-0.2,1.9,0.1c0.2,0.1,2.1-0.4,2.4-0.4c-1.2,0.1-2.6,0.2-3.9,0.2c0.6-0.1,2.4-0.6,2.9-0.5
						c0.2,0,3-0.2,1.7,0.2C687.5,33.8,688.2,33.5,688.7,33.4"/>
					<path class="st2" d="M691.6,33.7c-0.8,0.1-1.6,0-2.4,0.2c1.6,0-3.3,0.8-3.8,0.8c0.1,0,3.1,0,3-0.1
						C686.7,34.6,691.1,33.9,691.6,33.7 M693,33.3c-0.2,0-2,0.2-1,0.2C692.3,33.6,694,33.4,693,33.3"/>
					<path class="st2" d="M697.2,33.6c-0.9,0.1-1.6,0-2.4,0.2c1.6,0-3.3,0.8-3.8,0.8c0.2,0,3.1,0,3.2-0.1c-0.9,0-0.9,0-0.3-0.1
						c1.7-0.5,3.7-0.5,5.2-0.6c0-0.3-2,0.1-2.9,0.2C696.4,33.8,696.9,33.7,697.2,33.6"/>
					<path class="st2" d="M701.6,33.9c1-0.2,1.9-0.3,2.5-0.3c0.7,0,0.7,0.1,0.2,0.2C703.4,33.9,702.4,33.8,701.6,33.9 M704.7,33.5
						c-0.6-0.1-8.5,0.8-4.7,0.9c0.4,0,1.5-0.1,3-0.2l0,0c-0.8,0.1-4.3,0.3-2-0.2c2-0.1,3.1,0,4.1-0.2
						C705.9,33.6,705.8,33.5,704.7,33.5"/>
					<path class="st2" d="M717.9,33.3c-0.2,0-2.5,0-2.6,0.1c1.8,0-2.6,0.5-3,0.6c0.5-0.2,1-0.4,1.6-0.6c-1.7,0.1-3.3,0.5-4.9,0.7
						c1-0.4,1.5-0.5,2.8-0.6c-0.1,0-2.9,0-2.9,0.1c1.3,0-1.3,0.6-1.7,0.8c1.7-0.1,3.5-0.5,4.9-0.7c-0.5,0.2-1,0.4-1.5,0.6
						C713.6,34,715.6,33.5,717.9,33.3"/>
					<path class="st2" d="M718.8,34c-1.2-0.2,2.3-0.4,2.9-0.4C720.8,33.8,719.6,34,718.8,34 M723,33.2c-0.7,0.1-3.7,0.2-3.1,0.3
						c0.5,0,3.8-0.5,2.4,0c-1,0.2-3.7,0.2-4.8,0.4c-1.3,0.4,1.7,0.1,2.5,0.1c-0.1,0-0.2,0.1-0.1,0.1c0.3,0.1,1.8,0,2.1-0.1
						C719.2,34.1,726,33.2,723,33.2"/>
					<path class="st2" d="M732.6,32.5c-0.6,0.1-1.7,0-2.4,0.2c2-0.1-6,1.4-6.4,1.3l2.8,0l0.3-0.1c-0.8,0-0.8,0-0.1-0.1
						C727.8,33.5,731.7,32.7,732.6,32.5"/>
					<path class="st2" d="M738.1,32.4c-0.6,0.1-1.7,0-2.4,0.2c2-0.1-6,1.4-6.4,1.3l2.8,0l0.3-0.1c-0.8,0-0.8,0-0.2-0.1
						C733.2,33.4,737.1,32.6,738.1,32.4"/>
				</g>
			</g>
		</g>
	</g>
	<path class="st3" d="M1228.4,165.4l-390.8,95.8l6.4-187.2l384.4-72.8c21.8-5.1,40.6,7,42.6,44.5
		C1272.8,79.1,1285.7,144.3,1228.4,165.4z"/>
	<g>
		<g>
			<defs>
				<polygon id="SVGID_1_" points="7.3,255.9 0,78.8 855.9,68.8 859.3,265.7 				"/>
			</defs>
			<clipPath id="SVGID_00000111177336605466502270000013560943670923814582_">
				<use xlink:href="#SVGID_1_"  style="overflow:visible;"/>
			</clipPath>
			<g style="clip-path:url(#SVGID_00000111177336605466502270000013560943670923814582_);">
				<g>
					<path class="st3" d="M1.2,107.4l5,120.1C6.5,241.9,18,256,32.9,256.1c16-2.4,791.8,14,807.1,6.9c18.5-7.6,20-26.1,18.5-43.8
						c0.3,12.5-7.3,24.1-18.7,28.9c-3.7,1.6-7.8,2.4-12.1,2.4c-12.5-2.4-794.1-3.5-805.5-10.1c-9.8-4.7-16.1-15.2-16.6-26.1
						L1.2,107.4"/>
					<path class="st5" d="M246.5,214.8c-14,0.1-15.4-23.4-0.8-23.6C259.7,191.1,261.1,214.7,246.5,214.8 M206.2,214.8
						c-14,0.1-15.5-23.6-0.9-23.8C219.4,190.8,220.9,214.6,206.2,214.8 M166,211.1c-13.7,0.1-15.1-23.1-0.9-23.4
						C178.9,187.6,180.4,210.9,166,211.1 M316.1,210.5c-2.8,0-5-2.6-5.1-5.3l-1.8-54.8c-0.1-2.7,2-5.3,4.7-5.3
						c1.8,0.9,68.4-2.2,67.9,1.4c3.1-0.7,2.5,57.5,3.2,59.1c0.2,2.8-2,5.3-4.8,5.3L316.1,210.5 M410.4,211c-2.8,0-5.1-2.6-5.2-5.3
						l-1.7-55.5c-0.1-2.8,2.1-5.4,4.9-5.3c3,1.2,68.4-2.6,69.5,1.4c3,0.7,3,59.7,2.8,61.9C481.7,215.1,413.2,209.5,410.4,211
						 M506.9,211.5c-2.9,0-5.2-2.6-5.3-5.4l-1.5-56.1c-0.1-2.8,2.1-5.4,5-5.4c2.3,1.2,71.3-2.7,71.2,1.4c3,0.7,2.9,60.4,2.7,62.6
						C580,215.7,509.8,210,506.9,211.5 M605.8,212.1c-2.9,0-5.4-2.6-5.4-5.5l-1.4-56.8c-0.1-2.9,2.2-5.5,5.2-5.5
						c2.7,1.2,72.3-2.6,73,1.4c3.1,0.7,2.7,61.2,2.5,63.4C680.6,216.3,608.7,210.6,605.8,212.1 M707,212.7c-3,0-5.5-2.6-5.5-5.5
						l-1.2-57.5c-0.1-2.9,2.3-5.6,5.3-5.5c3.1,1.3,73.8-2.8,74.8,1.5c3.2,0.7,2.6,61.9,2.4,64.2C783.8,216.9,710,211.1,707,212.7
						 M96.1,214.1c-6.9,0-12.2-6.4-12.4-13.1c0.1-2.3-2.8-51.6-1.1-51.9c1.6-4.6,5.7-8.1,10.7-8.1c2.9,0.3,39.9-1.1,41.4,0.9
						c4.7,2.1,7.7,7,7.9,12.2c-0.1,2.3,2.7,52,1,52.2c-1.6,4.6-5.8,8.1-10.8,8L96.1,214.1 M824.3,69.2L25.7,78.5
						C10.8,78.5,0.3,93.1,1.2,107.4c3.1,15.9-2,116.6,12.6,126.8c4.8,5.2,11.4,8.5,18.5,8.5c15.8-2.6,792.2,12.7,807.3,5.4
						c11.5-4.7,19.1-16.4,18.8-28.9l-2-118.6C856.4,83.5,841.4,68.9,824.3,69.2"/>
					<path class="st6" d="M245.7,191.2c-14.5,0.2-13.2,23.7,0.8,23.6C261.1,214.7,259.7,191.1,245.7,191.2"/>
					<path class="st6" d="M205.4,190.9c-14.6,0.2-13.2,23.9,0.9,23.8C220.9,214.6,219.5,190.8,205.4,190.9"/>
					<path class="st6" d="M165.2,187.7c-14.3,0.2-12.8,23.4,0.9,23.4C180.4,210.9,178.9,187.6,165.2,187.7"/>
					<path class="st6" d="M114,203.8c-30.7-0.3-34-51.6-2-52.6C142.9,151.3,146.2,203,114,203.8 M130,140.9L93.2,141
						c-4.9,0-9.1,3.5-10.7,8.1c-1.7,0.1,1.2,49.7,1.1,51.9c0.2,5.1,3.2,10,7.8,12.1c1.3,1.9,38.6,0.9,41.3,1.3c5,0.1,9.2-3.4,10.8-8
						c1.7,0-1.2-50.1-1-52.2C142.4,147.3,137,140.9,130,140.9"/>
					<path class="st7" d="M358.8,153.7c2.6,0.5,10.5-1.7,10.4,3l1.1,34.6c0.2,3.7-4.5,3-6.9,3c0.5,3.1-1.1,5.1-4.3,4.6
						c0.2,2.1,0.2,5.4-2.6,5.4l-17.2-0.1c-2.8-0.1-3.1-3.3-3-5.4c-3.2,0.5-4.9-1.5-4.6-4.6c-2.4,0-7,0.6-7-3l-1.1-34.4
						c-0.1-1.5,1.2-3,2.7-3C336.7,153.7,348.4,153.7,358.8,153.7 M378.3,145c-3,1.5-69.5-3.4-68.7,3.4c-0.3,2.2,0.2,59.8,3,60.6
						c-1.2,3.7,66.4,0.9,67.7,1.9c2.8,0.1,5-2.5,4.8-5.3l-1.7-55.3C383.4,147.5,381.2,144.9,378.3,145"/>
					<path class="st8" d="M366.3,153.7h-7.5l0.4,13.2c0,1-0.7,1.9-1.7,1.9c-1,0-1.8-0.9-1.8-1.9l-0.4-13.2H349l0.4,13.2
						c0,1-0.7,1.9-1.7,1.9c-1,0-1.8-0.9-1.8-1.9l-0.4-13.2h-6.2l0.4,13.2c0,1-0.7,1.9-1.7,1.9c-1,0-1.8-0.9-1.8-1.9l-0.4-13.2
						c-2.5,0.7-12.5-2-12.1,3l1.1,34.4c0,3.6,4.6,3,7,3c-0.3,3.1,1.4,5.1,4.6,4.6c-0.1,2.1,0.2,5.4,3,5.4l17.2,0.1
						c2.8,0,2.9-3.4,2.6-5.4c3.2,0.5,4.9-1.4,4.3-4.6c2.3,0,7,0.7,6.9-3l-1.1-34.6C369.1,155.1,367.8,153.7,366.3,153.7"/>
					<g>
						<defs>
							<path id="SVGID_00000128470614274586530670000016569276034323703483_" d="M326.3,153.7l40-0.1c1.6,0,2.9,1.5,2.9,3l1.1,34.6
								c0.2,3.7-4.5,3-6.9,3c0.5,3.1-1.1,5.1-4.3,4.6c0.2,2.1,0.2,5.4-2.6,5.4l-17.2-0.1c-2.8-0.1-3.1-3.3-3-5.4
								c-3.2,0.5-4.9-1.5-4.6-4.6c-2.4,0-7,0.6-7-3l-1.1-34.4C323.5,155.2,324.7,153.8,326.3,153.7"/>
						</defs>
						<clipPath id="SVGID_00000132082052560012292390000004170032671303172246_">
							<use xlink:href="#SVGID_00000128470614274586530670000016569276034323703483_"  style="overflow:visible;"/>
						</clipPath>
						<g style="clip-path:url(#SVGID_00000132082052560012292390000004170032671303172246_);">
							<path class="st10" d="M358.8,153.7h-3.5l0.4,13.2c0,1,0.8,1.9,1.8,1.9c1,0,1.8-0.9,1.7-1.9L358.8,153.7"/>
							<path class="st10" d="M349,153.7h-3.5l0.4,13.2c0,1,0.8,1.9,1.8,1.9c1,0,1.8-0.9,1.7-1.9L349,153.7"/>
							<path class="st10" d="M339.2,153.7h-3.5l0.4,13.2c0,1,0.8,1.9,1.8,1.9c1,0,1.8-0.9,1.7-1.9L339.2,153.7"/>
						</g>
					</g>
					<path class="st7" d="M454.2,153.5c2.7,0.5,10.7-1.7,10.7,3l1,35c0.2,3.7-4.7,3-7,3c0.5,3.2-1.2,5.1-4.5,4.6
						c0.2,2.1,0.2,5.5-2.7,5.5l-17.6-0.1c-2.9,0-3.2-3.3-3-5.5c-3.2,0.5-5-1.5-4.7-4.6c-2.4-0.1-7.1,0.7-7.1-3l-1-34.8
						c-0.1-1.5,1.2-3,2.8-3C431.6,153.6,443.6,153.5,454.2,153.5 M474.2,144.7c-3,1.5-71.2-3.4-70.4,3.4c-0.3,2.2,0,60.5,2.9,61.3
						c1,1,2.2,1.6,3.6,1.6l65.7,0.4c2.9,0.1,5.1-2.5,5-5.3l-1.6-56C479.4,147.3,477.1,144.7,474.2,144.7"/>
					<path class="st8" d="M461.9,153.5h-7.7l0.4,13.4c0,1-0.8,1.9-1.8,1.9c-1,0-1.9-0.9-1.9-1.9l-0.4-13.4h-6.4l0.4,13.4
						c0,1-0.7,1.9-1.8,1.9c-1,0-1.9-0.9-1.9-1.9l-0.4-13.4h-6.4l0.4,13.4c0,1-0.7,1.9-1.8,1.9c-1,0-1.8-0.9-1.9-1.9l-0.4-13.4
						c-2.6,0.7-12.8-2-12.4,3l1,34.8c0,3.7,4.7,3,7.1,3c-0.3,3.2,1.5,5.1,4.7,4.6c-0.1,2.2,0.2,5.5,3,5.5l17.6,0.1
						c2.9,0,3-3.4,2.7-5.5c3.3,0.5,5-1.4,4.5-4.6c2.4,0,7.2,0.8,7-3l-1-35C464.8,155,463.5,153.5,461.9,153.5"/>
					<g>
						<defs>
							<path id="SVGID_00000065062202954051667330000002679677545968212611_" d="M420.9,153.6l41-0.1c1.6,0,2.9,1.5,3,3l1,35
								c0.2,3.7-4.7,3-7,3c0.5,3.2-1.2,5.1-4.5,4.6c0.2,2.1,0.2,5.5-2.7,5.5l-17.6-0.1c-2.9,0-3.2-3.3-3-5.5c-3.2,0.5-5-1.5-4.7-4.6
								c-2.4,0-7.1,0.7-7.1-3l-1-34.8C418.1,155.1,419.4,153.6,420.9,153.6"/>
						</defs>
						<clipPath id="SVGID_00000135657210602348629610000018176968123342576034_">
							<use xlink:href="#SVGID_00000065062202954051667330000002679677545968212611_"  style="overflow:visible;"/>
						</clipPath>
						<g style="clip-path:url(#SVGID_00000135657210602348629610000018176968123342576034_);">
							<path class="st10" d="M454.2,153.5h-3.6l0.4,13.4c0,1,0.9,1.9,1.9,1.9c1,0,1.8-0.9,1.8-1.9L454.2,153.5"/>
							<path class="st10" d="M444.2,153.5h-3.6l0.4,13.4c0,1,0.9,1.9,1.9,1.9c1,0,1.8-0.9,1.8-1.9L444.2,153.5"/>
							<path class="st10" d="M434.2,153.6h-3.6l0.4,13.4c0,1,0.8,1.9,1.9,1.9c1,0,1.8-0.9,1.8-1.9L434.2,153.6"/>
						</g>
					</g>
					<path class="st7" d="M551.9,153.4c2.7,0.5,11-1.8,10.9,3.1l0.9,35.4c0.2,3.8-4.8,3-7.2,3c0.5,3.3-1.3,5.2-4.6,4.7
						c0.2,2.2,0.2,5.6-2.8,5.6l-18-0.1c-2.9,0-3.2-3.4-3.1-5.6c-3.3,0.5-5.2-1.4-4.8-4.7c-2.5-0.1-7.3,0.7-7.3-3.1l-1-35.2
						c0-1.6,1.3-3.1,2.8-3.1C528.8,153.4,541,153.4,551.9,153.4 M572.5,144.4c-3.1,1.5-72.9-3.5-72.1,3.5c-0.3,2.2-0.1,61.2,2.8,62
						c0.2,4.2,68.5,0.7,71,2c2.9,0.1,5.2-2.5,5.1-5.4l-1.4-56.7C577.8,147,575.4,144.4,572.5,144.4"/>
					<path class="st8" d="M559.8,153.3h-7.9l0.3,13.6c0,1-0.8,1.9-1.8,1.9c-1,0-1.9-0.9-1.9-1.9l-0.3-13.5h-6.5l0.3,13.5
						c0,1-0.8,1.9-1.8,1.9c-1,0-1.9-0.9-1.9-1.9l-0.4-13.5h-6.5l0.4,13.5c0,1-0.8,1.9-1.8,1.9c-1,0-1.9-0.9-1.9-1.9l-0.4-13.5
						c-2.7,0.6-13-2-12.7,3.1l1,35.2c0,3.7,4.9,3.1,7.3,3.1c-0.4,3.3,1.5,5.2,4.8,4.7c-0.1,2.2,0.2,5.6,3.1,5.6l18,0.1
						c2.9,0,3.1-3.4,2.8-5.6c3.3,0.5,5.1-1.4,4.6-4.7c2.4-0.1,7.4,0.8,7.2-3l-0.9-35.4C562.8,154.8,561.4,153.3,559.8,153.3"/>
					<g>
						<defs>
							<path id="SVGID_00000111897886685810571130000006213937891763895485_" d="M517.9,153.4l42-0.1c1.6,0,3,1.5,3,3.1l0.9,35.4
								c0.2,3.8-4.8,3-7.2,3c0.5,3.3-1.3,5.2-4.6,4.7c0.2,2.2,0.2,5.6-2.8,5.6l-18-0.1c-2.9,0-3.2-3.4-3.1-5.6
								c-3.3,0.5-5.2-1.4-4.8-4.7c-2.5-0.1-7.3,0.7-7.3-3.1l-1-35.2C515,154.9,516.3,153.4,517.9,153.4"/>
						</defs>
						<clipPath id="SVGID_00000085208479535762141700000002266944748760253591_">
							<use xlink:href="#SVGID_00000111897886685810571130000006213937891763895485_"  style="overflow:visible;"/>
						</clipPath>
						<g style="clip-path:url(#SVGID_00000085208479535762141700000002266944748760253591_);">
							<path class="st10" d="M551.9,153.4h-3.7l0.3,13.6c0,1,0.9,1.9,1.9,1.9c1,0,1.8-0.9,1.8-1.9L551.9,153.4"/>
							<path class="st10" d="M541.7,153.4H538l0.4,13.5c0,1,0.9,1.9,1.9,1.9c1,0,1.8-0.9,1.8-1.9L541.7,153.4"/>
							<path class="st10" d="M531.5,153.4h-3.7l0.4,13.5c0,1,0.9,1.9,1.9,1.9c1,0,1.8-0.9,1.8-1.9L531.5,153.4"/>
						</g>
					</g>
					<path class="st7" d="M652.1,153.2c2.7,0.5,11.2-1.8,11.2,3.1l0.8,35.9c0.1,3.9-5,3.1-7.4,3.1c0.5,3.4-1.4,5.2-4.7,4.7
						c0.2,2.2,0.1,5.6-2.9,5.6l-18.5-0.1c-3,0-3.3-3.4-3.1-5.6c-3.3,0.5-5.3-1.4-4.9-4.8c-2.5-0.1-7.5,0.7-7.5-3.1l-0.9-35.7
						c0-1.6,1.3-3.1,2.9-3.1C628.4,153.2,640.9,153.2,652.1,153.2 M673.2,144.1c-3.1,1.6-74.7-3.5-73.9,3.5
						c-0.3,2.3-0.3,62,2.6,62.8c0.8,4,70.1,0.9,72.8,2c3,0.1,5.4-2.5,5.2-5.5l-1.3-57.4C678.6,146.7,676.1,144.1,673.2,144.1"/>
					<path class="st8" d="M660.2,153.2h-8.1l0.3,13.7c0,1-0.8,2-1.9,2c-1,0-1.9-0.9-2-2l-0.3-13.7h-6.7l0.3,13.7c0,1-0.8,2-1.9,2
						c-1,0-1.9-0.9-1.9-2l-0.3-13.7h-6.7l0.3,13.7c0,1-0.8,2-1.8,1.9c-1,0-1.9-0.9-1.9-1.9l-0.3-13.7c-2.7,0.6-13.3-2-13.1,3.1
						l0.9,35.7c0,3.8,5,3.1,7.5,3.1c-0.4,3.3,1.6,5.2,4.9,4.8c-0.2,2.3,0.2,5.6,3.1,5.6l18.5,0.1c3,0,3.2-3.4,2.9-5.6
						c3.3,0.5,5.2-1.4,4.7-4.7c2.5-0.1,7.5,0.8,7.4-3.1l-0.8-35.9C663.2,154.7,661.8,153.2,660.2,153.2"/>
					<g>
						<defs>
							<path id="SVGID_00000120550069793481300940000009126295508079586200_" d="M617.2,153.2l43-0.1c1.6,0,3.1,1.5,3.1,3.1
								l0.8,35.9c0.1,3.9-5,3.1-7.4,3.1c0.5,3.4-1.4,5.2-4.7,4.7c0.2,2.2,0.1,5.6-2.9,5.6l-18.5-0.1c-3,0-3.3-3.4-3.1-5.6
								c-3.3,0.5-5.3-1.4-4.9-4.8c-2.5-0.1-7.4,0.7-7.5-3.1l-0.9-35.7C614.2,154.7,615.6,153.2,617.2,153.2"/>
						</defs>
						<clipPath id="SVGID_00000123408960604247642280000005002917601531881632_">
							<use xlink:href="#SVGID_00000120550069793481300940000009126295508079586200_"  style="overflow:visible;"/>
						</clipPath>
						<g style="clip-path:url(#SVGID_00000123408960604247642280000005002917601531881632_);">
							<path class="st10" d="M652.1,153.2h-3.8l0.3,13.7c0,1,0.9,2,2,2c1,0,1.9-0.9,1.9-2L652.1,153.2"/>
							<path class="st10" d="M641.6,153.2h-3.8l0.3,13.7c0,1,0.9,2,1.9,2c1,0,1.9-0.9,1.9-2L641.6,153.2"/>
							<path class="st10" d="M631.1,153.2h-3.8l0.3,13.7c0,1,0.9,2,1.9,1.9c1,0,1.9-0.9,1.8-1.9L631.1,153.2"/>
						</g>
					</g>
					<path class="st7" d="M754.7,153c2.8,0.5,11.5-1.8,11.5,3.1l0.7,36.3c0.1,3.9-5.1,3.1-7.6,3.1c0.6,3.4-1.4,5.3-4.8,4.8
						c0.3,2.3,0.1,5.7-3,5.7l-18.9-0.1c-3,0-3.4-3.4-3.2-5.7c-3.4,0.5-5.4-1.4-5-4.8c-2.5-0.1-7.6,0.8-7.7-3.1l-0.8-36.1
						c0-1.6,1.4-3.1,3-3.1C730.4,153.1,743.3,153,754.7,153 M776.4,143.9c-3.2,1.6-76.6-3.5-75.7,3.6c-0.3,2.3-0.5,62.7,2.5,63.6
						c3.6,4.5,69.9,0.6,74.6,2.1c3,0.1,5.5-2.5,5.4-5.5l-1.1-58.1C781.9,146.5,779.4,143.8,776.4,143.9"/>
					<path class="st8" d="M763,153h-8.3l0.3,13.9c0,1.1-0.8,2-1.9,2c-1.1,0-2-0.9-2-2l-0.3-13.9h-6.8l0.3,13.9c0,1.1-0.8,2-1.9,2
						c-1.1,0-2-0.9-2-2L740,153h-6.8l0.3,13.9c0,1.1-0.8,2-1.9,2c-1.1,0-2-0.9-2-2l-0.3-13.8c-2.8,0.6-13.6-2.1-13.4,3.1l0.8,36.1
						c0,3.9,5.1,3.1,7.7,3.1c-0.4,3.4,1.6,5.3,5,4.8c-0.2,2.3,0.2,5.7,3.2,5.7l18.9,0.1c3,0,3.2-3.4,3-5.7c3.4,0.5,5.4-1.4,4.8-4.8
						c2.5-0.1,7.7,0.9,7.6-3.1l-0.7-36.3C766.1,154.5,764.6,153,763,153"/>
					<g>
						<defs>
							<path id="SVGID_00000129915494593564904910000013603448291905866680_" d="M718.9,153.1l44-0.1c1.7,0,3.1,1.5,3.2,3.1
								l0.7,36.3c0.1,3.9-5.1,3.1-7.6,3.1c0.6,3.4-1.4,5.3-4.8,4.8c0.3,2.3,0.1,5.7-3,5.7l-18.9-0.1c-3,0-3.4-3.4-3.2-5.7
								c-3.4,0.5-5.4-1.4-5-4.8c-2.5-0.1-7.6,0.8-7.7-3.1l-0.8-36.1C715.9,154.6,717.3,153.1,718.9,153.1"/>
						</defs>
						<clipPath id="SVGID_00000176730473267453455490000006695779757974103710_">
							<use xlink:href="#SVGID_00000129915494593564904910000013603448291905866680_"  style="overflow:visible;"/>
						</clipPath>
						<g style="clip-path:url(#SVGID_00000176730473267453455490000006695779757974103710_);">
							<path class="st10" d="M754.7,153h-3.9l0.3,13.9c0,1.1,0.9,2,2,2c1.1,0,2-0.9,1.9-2L754.7,153"/>
							<path class="st10" d="M743.9,153H740l0.3,13.9c0,1.1,0.9,2,2,2c1.1,0,2-0.9,1.9-2L743.9,153"/>
							<path class="st10" d="M733.2,153h-3.9l0.3,13.9c0,1.1,0.9,2,2,2c1.1,0,2-0.9,1.9-2L733.2,153"/>
						</g>
					</g>
					<path class="st15" d="M113.3,185.2c-9,0-9.9-15.2-0.6-15.4C121.7,169.8,122.6,185.1,113.3,185.2 M112,151.2
						c-32,1.1-28.7,52.3,2,52.6C146.2,203,142.9,151.4,112,151.2"/>
					<path class="st6" d="M112.7,169.8c-9.3,0.2-8.4,15.4,0.6,15.4C122.6,185.1,121.7,169.8,112.7,169.8"/>
				</g>
			</g>
		</g>
	</g>
	<g>
		<g>
			<path class="st16" d="M1021.5,87.2c-1.3,2.3,3.1,102.4-2.6,100.8c-7.2,4.9-1.5-98.2-3.2-99.1C1015.2,84,1021.3,80.4,1021.5,87.2
				L1021.5,87.2z"/>
			<path class="st16" d="M1036.4,84.2c-1,0.9,2.6,103.8-2.7,99.9c-7.2,4-1.5-96.8-3.2-98.2C1030.1,81.1,1036.2,77.4,1036.4,84.2
				L1036.4,84.2z"/>
			<path class="st16" d="M1051.3,81.3c-1.1,1.2,2.8,102.3-2.7,98.9c-7.3,3.6-1.4-95.6-3.2-97.2C1045,78.2,1051.1,74.6,1051.3,81.3
				L1051.3,81.3z"/>
			<path class="st16" d="M1066.2,78.4c-1.1,1.5,2.9,100.7-2.7,97.8c-7.1,5.2-1.5-95.3-3.2-96.1C1059.9,75.3,1066,71.7,1066.2,78.4
				L1066.2,78.4z"/>
			<path class="st16" d="M1081.1,75.6c-1.2,1.7,2.9,98.9-2.7,96.5c-7.1,4.6-1.6-93.7-3.2-94.8C1074.8,72.5,1080.9,69,1081.1,75.6
				L1081.1,75.6z"/>
			<path class="st16" d="M1096,72.8c-1.2,2,3,97.1-2.7,95.1c-7.1,4.6-1.5-92.3-3.2-93.4C1089.7,69.8,1095.8,66.3,1096,72.8
				L1096,72.8z"/>
			<path class="st16" d="M1110.9,70v88.9c0,2.9-2.2,6.2-4.7,4.3c-2.2-1.2-2-94.4,0-95.3h0C1108.1,65,1111.2,67,1110.9,70L1110.9,70z
				"/>
			<path class="st16" d="M1125.8,67.3c-1.2,1.5,2.9,94.8-2.6,92.1c-7.2,4.2-1.5-89.1-3.2-90.4C1119.6,64.5,1125.6,61.1,1125.8,67.3z
				"/>
		</g>
		<g class="st17">
			<path class="st18" d="M1018,88.3V187c0,1.6-0.5,3.1-1.2,4.1c-2.1-1.1-1.9-105.6,0-106.3C1017.7,85.7,1018,86.8,1018,88.3
				L1018,88.3z"/>
			<path class="st18" d="M1032.9,85.4v97.3c0,1.5-0.5,3-1.2,4c-2.1-1-1.9-104.2,0-104.8C1032.6,82.8,1032.9,83.9,1032.9,85.4
				L1032.9,85.4z"/>
			<path class="st18" d="M1047.8,82.5v95.8c0,1.5-0.4,3-1.2,4c-2.2-0.8-1.9-102.7,0-103.2C1047.4,80,1047.8,81,1047.8,82.5
				L1047.8,82.5z"/>
			<path class="st18" d="M1062.7,79.7v94.2c0,1.5-0.4,2.9-1.2,3.9c-2.2-0.9-1.9-101,0-101.5C1062.3,77.2,1062.7,78.2,1062.7,79.7
				L1062.7,79.7z"/>
			<path class="st18" d="M1077.6,76.9v92.6c0,1.5-0.4,2.9-1.2,3.8c-2.2-0.6-1.9-99.5,0-99.7C1077.2,74.4,1077.5,75.5,1077.6,76.9z"
				/>
			<path class="st18" d="M1092.5,74.1V165c0,1.4-0.4,2.8-1.2,3.8c-2.2-1-1.9-97.2,0-97.9C1092.1,71.7,1092.5,72.7,1092.5,74.1z"/>
			<path class="st18" d="M1107.4,71.4v89c0,1.4-0.4,2.8-1.2,3.8c-2.2-1-2-95.3,0-95.9h0C1107.1,69,1107.4,70,1107.4,71.4
				L1107.4,71.4z"/>
			<path class="st18" d="M1122.3,68.8v87.2c0,1.4-0.5,2.7-1.2,3.6c-2.1-0.6-1.9-93.6,0-93.9C1122,66.4,1122.3,67.4,1122.3,68.8z"/>
		</g>
	</g>
	<g>
		<path class="st16" d="M948.4,208.5l-5.7,15.3L942,224l0.6-6.2c-3.3-0.1-21.9,4.9-25.4,5.7c0.8-3.6,1.1-6.9,1.1-6.9L948.4,208.5
			L948.4,208.5z"/>
		<path class="st19" d="M942.6,217.8L942,224c-6.7,1.8-21.2,5.7-27.7,7.4c1.4-1.8,2.4-5.3,3-7.9
			C920.8,222.7,939.2,217.7,942.6,217.8L942.6,217.8z"/>
	</g>
	<path class="st16" d="M1219.4,143.7l-5.3,15.5l-0.7,0.2l0.5-6.2c-3.3,0-21.7,5.5-25.2,6.4c0.7-3.6,0.9-6.9,0.9-6.9L1219.4,143.7
		L1219.4,143.7z"/>
	<path class="st19" d="M1213.8,153.2l-0.5,6.2c-6.6,2-21,6.2-27.5,8.2c1.4-1.8,2.3-5.4,2.8-7.9
		C1192.2,158.6,1210.5,153.2,1213.8,153.2L1213.8,153.2z"/>
</g>
<path class="st3" d="M971.8,218.6l-12.8-0.1c-0.1,1.6-0.2,3.2-0.2,4.7l13,0.1C971.9,221.8,971.9,220.1,971.8,218.6L971.8,218.6z"/>
</svg>
