<?xml version="1.0" encoding="UTF-8"?>
<svg id="Layer_1" data-name="Layer 1" xmlns="http://www.w3.org/2000/svg" viewBox="0 0 443.85 454.77">
  <defs>
    <style>
      .cls-1, .cls-2 {
        stroke-width: 0px;
      }

      .cls-2 {
        fill: #fff;
      }
    </style>
  </defs>
  <g>
    <path class="cls-1" d="M216.66,208.8c-24.96,0-47.07-12.41-60.48-31.39H58.66c-32.4,0-58.66,26.26-58.66,58.65v87.68c0,32.39,26.26,58.66,58.66,58.66h36.59v52.58c0,17.49,21.05,26.35,33.56,14.12l59.37-58.07c2.32-2.27,3.63-5.38,3.63-8.63h54.85c32.4,0,58.66-26.27,58.66-58.66v-64.98l-51.08-49.96h-37.58ZM150.08,346.88c-2.31,2.31-5.11,3.47-8.41,3.47s-6.27-1.15-8.58-3.47c-2.31-2.31-3.47-5.17-3.47-8.58s1.15-6.27,3.47-8.58c2.31-2.31,5.17-3.47,8.58-3.47s6.1,1.16,8.41,3.47c2.31,2.31,3.47,5.17,3.47,8.58s-1.16,6.27-3.47,8.58ZM178.79,292.43c-6.08,4.84-13.88,7.59-23.39,8.26-2.66.19-4.77,2.33-4.9,4.99l-.16,3.2c-.14,2.81-2.46,5.01-5.27,5.01h-6.21c-2.85,0-5.18-2.26-5.27-5.11l-.49-15.36c-.09-2.98,2.29-5.44,5.27-5.44,10.67,0,18.84-1.43,24.5-4.29,5.66-2.86,8.5-8.3,8.5-16.34,0-5.83-1.68-10.4-5.03-13.69-3.36-3.3-8-4.95-13.94-4.95s-10.62,1.6-14.03,4.79c-2.48,2.32-4.06,5.31-4.73,8.96-.47,2.53-2.62,4.41-5.2,4.41h-7.17c-3.2,0-5.71-2.84-5.23-6.01.64-4.22,1.98-8.1,4.02-11.65,2.97-5.17,7.23-9.18,12.79-12.05,5.55-2.86,12.02-4.29,19.39-4.29,11.22,0,20.21,3.08,26.98,9.24,6.77,6.16,10.15,14.58,10.15,25.24s-3.52,19.47-10.56,25.08Z"/>
    <path class="cls-1" d="M389.83,0h-173.17c-29.84,0-54.03,24.19-54.03,54.03v80.76c0,29.84,24.19,54.03,54.03,54.03h50.52c0,2.99,1.21,5.86,3.35,7.95l54.69,53.49c11.52,11.26,30.91,3.1,30.91-13v-48.44h33.7c29.84,0,54.03-24.19,54.03-54.03V54.03c0-29.84-24.19-54.03-54.03-54.03Z"/>
  </g>
  <path class="cls-2" d="M281.27,124.3c3.2-3.46,6.35-7.09,9.73-10.49,20.28-20.36,40.62-40.66,60.94-60.97,1.17-1.17,2.3-2.44,3.65-3.37,3.46-2.37,7.01-2.18,10.01.7,3.17,3.05,3.44,6.7.95,10.37-.83,1.22-1.96,2.25-3.02,3.3-25.01,25.02-50.03,50.04-75.05,75.05-6.52,6.51-9.71,6.51-16.22,0-9.52-9.51-19.08-18.98-28.52-28.56-5.18-5.26-3.85-12.95,2.67-13.99,2.72-.44,6.58,1.11,8.72,3.07,8.43,7.75,16.38,16.02,24.51,24.09.11.11.29.15,1.62.8Z"/>
</svg>