<?xml version="1.0" encoding="utf-8"?>
<!-- Generator: Adobe Illustrator 27.8.1, SVG Export Plug-In . SVG Version: 6.00 Build 0)  -->
<svg version="1.1" id="katman_1" xmlns="http://www.w3.org/2000/svg" xmlns:xlink="http://www.w3.org/1999/xlink" x="0px" y="0px"
	 viewBox="0 0 481.6 453.2" style="enable-background:new 0 0 481.6 453.2;" xml:space="preserve">
<style type="text/css">
	.st0{fill:#515151;}
</style>
<path class="st0" d="M249.4,452.2c-22.4-4.7-40.3-19.8-44-43.4c-26.5,0-53.1,0-80,0c0-4.9,0-9.5,0-14.5c26.5,0,53,0,79.9,0
	c8.6-54.7,87.5-60,100.7-1.5c43.5-12.8,85.9-52.3,101-100.7c-55.5-15.5-58.3-85-0.3-100.7c-10.4-39-48.6-84.8-100.7-101.2
	c-10.3,55.1-88.9,57.4-100.7-0.8c-4.7,0-9.5,0-14.6,0c0,9.4,0,18.7,0,28.5c3.9,0,7.9,0,12.2,0c4.1,13,8.1,25.7,12.2,38.6
	c45.6-22.4,103.6-2.4,125.3,43.4c49,94.4-84.4,188.7-157.1,102.3c-25.3,9-51.1,27.1-78.5,15.4C76.3,306.8,47,294.8,25.9,272
	C-0.8,241.7,38.6,155.1,47.2,118c4,0,8,0,12.5,0c0-17.1-0.1-33.7,0-50.8c1.7-90.1,137.7-82.9,130.7,7c5.1,0,9.9,0,14.9,0
	c7-53,87.4-58.2,99.3-5.2c1.1,4.4,3,6.2,7.2,7.7c59.5,18.4,88.6,64.3,114.5,115.3c21.5,5.5,34.7,19.2,39.2,41.1
	c3.7,29.3-12.7,51.7-40.4,58.4c-1.4,0.3-2.9,1.9-3.4,3.3c-18.3,60.5-63.9,91.4-116.3,117C300.2,437.7,275.3,454.6,249.4,452.2z
	 M125.3,106.6c-19.2,15.2-40.3,24.7-65.1,26c-1.2,0.1-2.8,1.6-3.2,2.8c-7.1,35.5-48.6,118.3-7.3,138.8
	c24.7,14.2,59.2,38.7,88.2,30.4c25.9-12.7,82.5-26.2,81.4-61.5c-4.1-36.7-15.2-72.1-25.9-107.3c-0.8-2.5-1.9-3.2-4.4-3.4
	C165.3,131.1,143.4,121.9,125.3,106.6z M75,115.8c4.3-2.3,14.3-1,13.8-8.2c-0.2-13.8-0.3-27.5,0-41.3c1-46.4,71.7-46.3,72.5,0.2
	c0.2,15,0,29.9,0,45.3c4.8,1.4,9.5,2.8,14.5,4.3c1.1-42.3,5.7-97.4-51-99.7C68.9,17.6,72.9,74.8,75,115.8z M255.6,118.1
	c47.3-0.1,47.8-71.8,0.6-72.6C208.5,45.3,208.1,117.5,255.6,118.1z M219.5,401.1c0.1,47.4,71.8,47.8,72.6,0.6
	C292.2,354,220,353.6,219.5,401.1z M415.2,277.8c47.4,0.1,48-71.7,0.9-72.6C368.3,205,367.8,277.2,415.2,277.8z M145.6,104.1
	c3.2-11.4,0.6-26.4,1.1-38.9c-0.5-11.3-10.7-19.9-22.1-19.7c-29.1,1.8-21.1,39.1-20.4,59c7.3-6.2,14.2-12,20.9-17.7
	C131.9,92.5,138.7,98.3,145.6,104.1z M234,249c-0.5,11.8-7,20.3-14.7,28.6c21.1,0,41.5,0,62.4,0c1.1-9.6,2.1-18.9,3.2-28.6
	C267.6,249,251.1,249,234,249z M233.1,233.9c17.4,0,34.4,0,51.9,0c-1.2-9.8-2.3-19.2-3.4-28.4c-18.5,0-36,0-53.7,0
	C229.7,215.2,231.4,224.5,233.1,233.9z M335.1,234.1c-5-35.3-7.2-28.4-38.5-28.8c1,9.8,1.9,19.2,2.9,28.8
	C311.3,234.1,323.1,234.1,335.1,234.1z M296.6,277.8c31.3-0.4,33.5,6.4,38.5-28.8c-12.1,0-23.8,0-35.6,0
	C298.5,258.6,297.6,267.8,296.6,277.8z M277.6,190.6c-11.3-37.8-32.4-37.5-43.6,0C248.7,190.6,262.7,190.6,277.6,190.6z
	 M234.1,292.6c11,37.6,32.4,37.4,43.4,0C262.8,292.6,248.6,292.6,234.1,292.6z M284,167.2c10.4,26.3,3.4,24,32.7,23.5
	C310.5,181.4,295.5,170.7,284,167.2z M284.1,315.6c9.8-1.8,29.3-15.8,32-23.2C288.1,291.5,293.8,290.8,284.1,315.6z M228.4,316.4
	c-10.3-19.7-5.3-30.5-32.4-22.1C205.3,304.5,215.5,311.5,228.4,316.4z M228.1,167.1c-10.1,3.5-10.5,4.4-6,12.8
	C224.1,175.8,226,171.7,228.1,167.1z"/>
<path class="st0" d="M81.3,408.4c-4.8,0-9.2,0-14,0c0-4.7,0-9.3,0-14.1c4.6,0,9.2,0,14,0C81.3,399,81.3,403.4,81.3,408.4z"/>
<path class="st0" d="M96.3,394.3c4.6,0,9.1,0,13.9,0c0,4.5,0,9.1,0,14c-4.5,0-9.1,0-13.9,0C96.3,403.7,96.3,399.1,96.3,394.3z"/>
<path class="st0" d="M146.8,263.2c-14.7,0-28.9,0-43.3,0c-2.6-17.4,5.3-36.4-7.3-51.3c-28.6-35.3,26.4-79.4,55.9-45.3
	c13,14.7,12.2,36.7-2.2,50.2c-2.3,2.2-3.2,4.2-3.2,7.4C147,237,146.8,249.8,146.8,263.2z M117.8,248.5c5.1,0,9.7,0,14.5,0
	c1.9-10.8-4.6-33.9,4.5-39.8c29.5-20.5-11.6-58.7-30.5-29c-11.7,24.7,11.5,24.9,11.6,37.6C117.6,227.6,117.8,237.9,117.8,248.5z"/>
<path class="st0" d="M193.6,188.4c-4.9,1.3-9.2,2.4-13.9,3.6c-1.3-4.7-2.5-9-3.8-13.7c4.5-1.3,9-2.6,14-4
	C191.1,179,192.3,183.5,193.6,188.4z"/>
<path class="st0" d="M200.5,216.9c-4.8,1-9.3,2-14.1,3.1c-1.1-4.7-2.1-9.1-3.2-13.9c4.7-1.2,9.2-2.3,14-3.5
	C198.3,207.5,199.4,212,200.5,216.9z"/>
<path class="st0" d="M189.1,233.9c4.8-0.8,9.1-1.5,14.1-2.3c0.6,5.1,1.2,9.9,1.9,15.2c-5,0-9.6,0-14.6,0
	C190.1,242.7,189.6,238.5,189.1,233.9z"/>
<path class="st0" d="M271.9,61.8c4,4,7.2,7.1,10.1,10.1c-11.3,11.3-22.5,22.4-33.4,33.3c-5.9-5.9-12.3-12.4-18.8-19
	c2.7-2.7,5.9-5.9,9.9-9.9c2.6,3.4,5.1,6.8,7.8,10.2C256.2,77.7,263.9,69.9,271.9,61.8z"/>
<path class="st0" d="M271.7,381.9c4,3.8,7.3,6.8,10.5,9.8c-11.4,11.3-22.7,22.5-33.6,33.3c-6-6-12.4-12.4-18.9-18.9
	c2.9-2.8,6.2-5.9,10.4-9.9c2.5,3,5.1,6.3,8,9.9C256.5,397.4,264.2,389.6,271.7,381.9z"/>
<path class="st0" d="M408.1,265c-6-6-12.3-12.3-18.8-18.8c2.9-2.9,6.1-6,10.1-9.9c2.5,3.3,5,6.6,7.7,10.1
	c8.7-8.9,16.3-16.8,24.2-24.9c3.8,4.3,6.8,7.7,9.7,10.9C430.5,242.9,419.2,254,408.1,265z"/>
</svg>
