<?xml version="1.0" encoding="UTF-8"?>
<svg id="Layer_1" data-name="Layer 1" xmlns="http://www.w3.org/2000/svg" xmlns:xlink="http://www.w3.org/1999/xlink" viewBox="0 0 668.22 90.86">
  <defs>
    <style>
      .cls-1 {
        fill: url(#linear-gradient);
      }

      .cls-1, .cls-2, .cls-3, .cls-4, .cls-5, .cls-6, .cls-7, .cls-8, .cls-9, .cls-10, .cls-11, .cls-12, .cls-13, .cls-14, .cls-15, .cls-16, .cls-17, .cls-18, .cls-19, .cls-20, .cls-21, .cls-22, .cls-23, .cls-24, .cls-25, .cls-26, .cls-27, .cls-28, .cls-29, .cls-30, .cls-31, .cls-32, .cls-33, .cls-34, .cls-35, .cls-36, .cls-37, .cls-38, .cls-39, .cls-40, .cls-41, .cls-42, .cls-43, .cls-44, .cls-45, .cls-46, .cls-47, .cls-48, .cls-49, .cls-50, .cls-51, .cls-52, .cls-53, .cls-54, .cls-55, .cls-56, .cls-57, .cls-58, .cls-59, .cls-60, .cls-61, .cls-62, .cls-63, .cls-64, .cls-65, .cls-66, .cls-67, .cls-68, .cls-69, .cls-70, .cls-71, .cls-72, .cls-73, .cls-74, .cls-75, .cls-76, .cls-77, .cls-78, .cls-79, .cls-80, .cls-81, .cls-82, .cls-83, .cls-84, .cls-85, .cls-86, .cls-87, .cls-88, .cls-89, .cls-90, .cls-91, .cls-92, .cls-93, .cls-94, .cls-95, .cls-96, .cls-97, .cls-98, .cls-99, .cls-100, .cls-101, .cls-102, .cls-103, .cls-104, .cls-105, .cls-106, .cls-107 {
        stroke-width: 0px;
      }

      .cls-2 {
        fill: url(#linear-gradient-38);
      }

      .cls-3 {
        fill: url(#linear-gradient-33);
      }

      .cls-4 {
        fill: url(#linear-gradient-29);
      }

      .cls-5 {
        fill: url(#linear-gradient-32);
      }

      .cls-6 {
        fill: url(#linear-gradient-30);
      }

      .cls-7 {
        fill: url(#linear-gradient-31);
      }

      .cls-8 {
        fill: url(#linear-gradient-36);
      }

      .cls-9 {
        fill: url(#linear-gradient-39);
      }

      .cls-10 {
        fill: url(#linear-gradient-34);
      }

      .cls-11 {
        fill: url(#linear-gradient-37);
      }

      .cls-12 {
        fill: url(#linear-gradient-35);
      }

      .cls-13 {
        fill: url(#linear-gradient-28);
      }

      .cls-14 {
        fill: url(#linear-gradient-25);
      }

      .cls-15 {
        fill: url(#linear-gradient-11);
      }

      .cls-16 {
        fill: url(#linear-gradient-12);
      }

      .cls-17 {
        fill: url(#linear-gradient-13);
      }

      .cls-18 {
        fill: url(#linear-gradient-10);
      }

      .cls-19 {
        fill: url(#linear-gradient-17);
      }

      .cls-20 {
        fill: url(#linear-gradient-16);
      }

      .cls-21 {
        fill: url(#linear-gradient-19);
      }

      .cls-22 {
        fill: url(#linear-gradient-15);
      }

      .cls-23 {
        fill: url(#linear-gradient-23);
      }

      .cls-24 {
        fill: url(#linear-gradient-21);
      }

      .cls-25 {
        fill: url(#linear-gradient-18);
      }

      .cls-26 {
        fill: url(#linear-gradient-14);
      }

      .cls-27 {
        fill: url(#linear-gradient-22);
      }

      .cls-28 {
        fill: url(#linear-gradient-20);
      }

      .cls-29 {
        fill: url(#linear-gradient-27);
      }

      .cls-30 {
        fill: url(#linear-gradient-24);
      }

      .cls-31 {
        fill: url(#linear-gradient-26);
      }

      .cls-32 {
        fill: url(#linear-gradient-45);
      }

      .cls-33 {
        fill: url(#linear-gradient-46);
      }

      .cls-34 {
        fill: url(#linear-gradient-44);
      }

      .cls-35 {
        fill: url(#linear-gradient-48);
      }

      .cls-36 {
        fill: url(#linear-gradient-49);
      }

      .cls-37 {
        fill: url(#linear-gradient-47);
      }

      .cls-38 {
        fill: url(#linear-gradient-42);
      }

      .cls-39 {
        fill: url(#linear-gradient-43);
      }

      .cls-40 {
        fill: url(#linear-gradient-40);
      }

      .cls-41 {
        fill: url(#linear-gradient-41);
      }

      .cls-42 {
        fill: url(#linear-gradient-59);
      }

      .cls-43 {
        fill: url(#linear-gradient-57);
      }

      .cls-44 {
        fill: url(#linear-gradient-58);
      }

      .cls-45 {
        fill: url(#linear-gradient-55);
      }

      .cls-46 {
        fill: url(#linear-gradient-56);
      }

      .cls-47 {
        fill: url(#linear-gradient-53);
      }

      .cls-48 {
        fill: url(#linear-gradient-51);
      }

      .cls-49 {
        fill: url(#linear-gradient-52);
      }

      .cls-50 {
        fill: url(#linear-gradient-50);
      }

      .cls-51 {
        fill: url(#linear-gradient-54);
      }

      .cls-52 {
        fill: url(#linear-gradient-60);
      }

      .cls-53 {
        fill: url(#linear-gradient-61);
      }

      .cls-54 {
        fill: url(#linear-gradient-62);
      }

      .cls-55 {
        fill: url(#linear-gradient-65);
      }

      .cls-56 {
        fill: url(#linear-gradient-67);
      }

      .cls-57 {
        fill: url(#linear-gradient-68);
      }

      .cls-58 {
        fill: url(#linear-gradient-66);
      }

      .cls-59 {
        fill: url(#linear-gradient-63);
      }

      .cls-60 {
        fill: url(#linear-gradient-64);
      }

      .cls-108 {
        fill: none;
        stroke: #e01f26;
        stroke-linecap: round;
        stroke-miterlimit: 10;
      }

      .cls-61 {
        fill: #d62127;
      }

      .cls-61, .cls-62, .cls-72 {
        fill-rule: evenodd;
      }

      .cls-62, .cls-92 {
        fill: #e01f26;
      }

      .cls-63 {
        fill: url(#linear-gradient-4);
      }

      .cls-64 {
        fill: url(#linear-gradient-2);
      }

      .cls-65 {
        fill: url(#linear-gradient-3);
      }

      .cls-66 {
        fill: url(#linear-gradient-8);
      }

      .cls-67 {
        fill: url(#linear-gradient-9);
      }

      .cls-68 {
        fill: url(#linear-gradient-7);
      }

      .cls-69 {
        fill: url(#linear-gradient-5);
      }

      .cls-70 {
        fill: url(#linear-gradient-6);
      }

      .cls-72 {
        fill: #868686;
        isolation: isolate;
        opacity: .6;
      }

      .cls-73 {
        fill: #f8af3c;
      }

      .cls-74 {
        fill: #f7f8fc;
      }

      .cls-75 {
        fill: #f2f2f2;
      }

      .cls-76 {
        fill: #797978;
      }

      .cls-77 {
        fill: #4f4e4e;
      }

      .cls-78 {
        fill: #50504f;
      }

      .cls-79 {
        fill: #2a2a28;
      }

      .cls-80 {
        fill: #2c2c2d;
      }

      .cls-81 {
        fill: #2b5f2f;
      }

      .cls-82 {
        fill: #464545;
      }

      .cls-83 {
        fill: #a2a1a0;
      }

      .cls-84 {
        fill: #383837;
      }

      .cls-85 {
        fill: #3d3c3b;
      }

      .cls-86 {
        fill: #3c3c3b;
      }

      .cls-87 {
        fill: #59100f;
      }

      .cls-88 {
        fill: #1a1a1a;
      }

      .cls-89 {
        fill: #21211f;
      }

      .cls-90 {
        fill: #1e1418;
      }

      .cls-91 {
        fill: #cbcac9;
      }

      .cls-93 {
        fill: #e1111a;
      }

      .cls-94 {
        fill: #cccbcb;
      }

      .cls-95 {
        fill: #d4dbe7;
      }

      .cls-96 {
        fill: #c0272d;
      }

      .cls-97 {
        fill: #b7b6b5;
      }

      .cls-98 {
        fill: #666463;
      }

      .cls-99 {
        fill: #333;
      }

      .cls-100 {
        fill: #333332;
      }

      .cls-101 {
        fill: #8e8d8c;
      }

      .cls-102 {
        fill: #656564;
      }

      .cls-103 {
        fill: #f3dadc;
      }

      .cls-104 {
        fill: #fff;
      }

      .cls-105 {
        fill: #fafafd;
      }

      .cls-106 {
        fill: #676767;
      }

      .cls-107 {
        fill: #009145;
      }
    </style>
    <linearGradient id="linear-gradient" x1="211.29" y1="38.77" x2="211.29" y2="9.82" gradientTransform="translate(0 95.74) scale(1 -1)" gradientUnits="userSpaceOnUse">
      <stop offset="0" stop-color="#dbd3e0"/>
      <stop offset="1" stop-color="#333"/>
    </linearGradient>
    <linearGradient id="linear-gradient-2" x1="240.77" y1="45" x2="240.77" y2="9.53" gradientTransform="translate(0 95.74) scale(1 -1)" gradientUnits="userSpaceOnUse">
      <stop offset="0" stop-color="#dbd3e0"/>
      <stop offset="1" stop-color="#333"/>
    </linearGradient>
    <linearGradient id="linear-gradient-3" x1="282.16" y1="-850.31" x2="282.16" y2="-877.75" gradientTransform="translate(0 -793.62) scale(1 -1)" gradientUnits="userSpaceOnUse">
      <stop offset="0" stop-color="#dbd3e1"/>
      <stop offset="1" stop-color="#333"/>
    </linearGradient>
    <linearGradient id="linear-gradient-4" x1="292.07" y1="-860.38" x2="292.07" y2="-868.59" gradientTransform="translate(0 -793.62) scale(1 -1)" gradientUnits="userSpaceOnUse">
      <stop offset="0" stop-color="#d7cdc1"/>
      <stop offset="1" stop-color="#2b2b2b"/>
    </linearGradient>
    <linearGradient id="linear-gradient-5" x1="272.31" x2="272.31" xlink:href="#linear-gradient-4"/>
    <linearGradient id="linear-gradient-6" x1="278.85" y1="-870.92" x2="278.85" y2="-866.71" gradientTransform="translate(0 -793.62) scale(1 -1)" gradientUnits="userSpaceOnUse">
      <stop offset="0" stop-color="#fff2e4"/>
      <stop offset="1" stop-color="#000"/>
    </linearGradient>
    <linearGradient id="linear-gradient-7" x1="280.15" x2="280.15" xlink:href="#linear-gradient-6"/>
    <linearGradient id="linear-gradient-8" x1="281.27" x2="281.27" xlink:href="#linear-gradient-6"/>
    <linearGradient id="linear-gradient-9" x1="-3297.97" y1="-870.92" x2="-3297.97" y2="-866.71" gradientTransform="translate(-3011.32 -793.62) rotate(-180)" xlink:href="#linear-gradient-6"/>
    <linearGradient id="linear-gradient-10" x1="-3296.95" y1="-870.92" x2="-3296.95" y2="-866.71" gradientTransform="translate(-3011.32 -793.62) rotate(-180)" xlink:href="#linear-gradient-6"/>
    <linearGradient id="linear-gradient-11" x1="-3295.93" y1="-870.92" x2="-3295.93" y2="-866.71" gradientTransform="translate(-3011.32 -793.62) rotate(-180)" xlink:href="#linear-gradient-6"/>
    <linearGradient id="linear-gradient-12" x1="-3294.99" y1="-870.92" x2="-3294.99" y2="-866.71" gradientTransform="translate(-3011.32 -793.62) rotate(-180)" xlink:href="#linear-gradient-6"/>
    <linearGradient id="linear-gradient-13" x1="297.51" x2="297.51" gradientTransform="translate(-15.04 -793.62) scale(1 -1)" xlink:href="#linear-gradient-6"/>
    <linearGradient id="linear-gradient-14" x1="316.67" x2="316.67" xlink:href="#linear-gradient-3"/>
    <linearGradient id="linear-gradient-15" x1="326.58" x2="326.58" xlink:href="#linear-gradient-4"/>
    <linearGradient id="linear-gradient-16" x1="306.83" x2="306.83" xlink:href="#linear-gradient-4"/>
    <linearGradient id="linear-gradient-17" x1="313.33" x2="313.33" xlink:href="#linear-gradient-6"/>
    <linearGradient id="linear-gradient-18" x1="314.66" x2="314.66" xlink:href="#linear-gradient-6"/>
    <linearGradient id="linear-gradient-19" x1="315.79" x2="315.79" xlink:href="#linear-gradient-6"/>
    <linearGradient id="linear-gradient-20" x1="-3332.49" y1="-870.92" x2="-3332.49" y2="-866.71" gradientTransform="translate(-3011.32 -793.62) rotate(-180)" xlink:href="#linear-gradient-6"/>
    <linearGradient id="linear-gradient-21" x1="-3331.47" y1="-870.92" x2="-3331.47" y2="-866.71" gradientTransform="translate(-3011.32 -793.62) rotate(-180)" xlink:href="#linear-gradient-6"/>
    <linearGradient id="linear-gradient-22" x1="-3330.45" y1="-870.92" x2="-3330.45" y2="-866.71" gradientTransform="translate(-3011.32 -793.62) rotate(-180)" xlink:href="#linear-gradient-6"/>
    <linearGradient id="linear-gradient-23" x1="-3329.46" y1="-870.92" x2="-3329.46" y2="-866.71" gradientTransform="translate(-3011.32 -793.62) rotate(-180)" xlink:href="#linear-gradient-6"/>
    <linearGradient id="linear-gradient-24" x1="331.99" x2="331.99" gradientTransform="translate(-15.04 -793.62) scale(1 -1)" xlink:href="#linear-gradient-6"/>
    <linearGradient id="linear-gradient-25" x1="351.18" x2="351.18" xlink:href="#linear-gradient-3"/>
    <linearGradient id="linear-gradient-26" x1="361.09" x2="361.09" xlink:href="#linear-gradient-4"/>
    <linearGradient id="linear-gradient-27" x1="341.35" x2="341.35" xlink:href="#linear-gradient-4"/>
    <linearGradient id="linear-gradient-28" x1="347.85" x2="347.85" xlink:href="#linear-gradient-6"/>
    <linearGradient id="linear-gradient-29" x1="349.18" x2="349.18" xlink:href="#linear-gradient-6"/>
    <linearGradient id="linear-gradient-30" x1="350.3" x2="350.3" xlink:href="#linear-gradient-6"/>
    <linearGradient id="linear-gradient-31" x1="-3367" y1="-870.92" x2="-3367" y2="-866.71" gradientTransform="translate(-3011.32 -793.62) rotate(-180)" xlink:href="#linear-gradient-6"/>
    <linearGradient id="linear-gradient-32" x1="-3365.91" y1="-870.92" x2="-3365.91" y2="-866.71" gradientTransform="translate(-3011.32 -793.62) rotate(-180)" xlink:href="#linear-gradient-6"/>
    <linearGradient id="linear-gradient-33" x1="-3364.93" y1="-870.92" x2="-3364.93" y2="-866.71" gradientTransform="translate(-3011.32 -793.62) rotate(-180)" xlink:href="#linear-gradient-6"/>
    <linearGradient id="linear-gradient-34" x1="-3363.95" y1="-870.92" x2="-3363.95" y2="-866.71" gradientTransform="translate(-3011.32 -793.62) rotate(-180)" xlink:href="#linear-gradient-6"/>
    <linearGradient id="linear-gradient-35" x1="366.51" x2="366.51" gradientTransform="translate(-15.04 -793.62) scale(1 -1)" xlink:href="#linear-gradient-6"/>
    <linearGradient id="linear-gradient-36" x1="385.63" x2="385.63" xlink:href="#linear-gradient-3"/>
    <linearGradient id="linear-gradient-37" x1="395.61" x2="395.61" xlink:href="#linear-gradient-4"/>
    <linearGradient id="linear-gradient-38" x1="375.84" x2="375.84" xlink:href="#linear-gradient-4"/>
    <linearGradient id="linear-gradient-39" x1="382.36" x2="382.36" xlink:href="#linear-gradient-6"/>
    <linearGradient id="linear-gradient-40" x1="383.69" x2="383.69" xlink:href="#linear-gradient-6"/>
    <linearGradient id="linear-gradient-41" x1="384.82" x2="384.82" xlink:href="#linear-gradient-6"/>
    <linearGradient id="linear-gradient-42" x1="-3401.48" y1="-870.92" x2="-3401.48" y2="-866.71" gradientTransform="translate(-3011.32 -793.62) rotate(-180)" xlink:href="#linear-gradient-6"/>
    <linearGradient id="linear-gradient-43" x1="-3400.43" y1="-870.92" x2="-3400.43" y2="-866.71" gradientTransform="translate(-3011.32 -793.62) rotate(-180)" xlink:href="#linear-gradient-6"/>
    <linearGradient id="linear-gradient-44" x1="-3399.41" y1="-870.92" x2="-3399.41" y2="-866.71" gradientTransform="translate(-3011.32 -793.62) rotate(-180)" xlink:href="#linear-gradient-6"/>
    <linearGradient id="linear-gradient-45" x1="-3398.46" y1="-870.92" x2="-3398.46" y2="-866.71" gradientTransform="translate(-3011.32 -793.62) rotate(-180)" xlink:href="#linear-gradient-6"/>
    <linearGradient id="linear-gradient-46" x1="400.98" x2="400.98" gradientTransform="translate(-15.04 -793.62) scale(1 -1)" xlink:href="#linear-gradient-6"/>
    <linearGradient id="linear-gradient-47" x1="420.14" x2="420.14" xlink:href="#linear-gradient-3"/>
    <linearGradient id="linear-gradient-48" x1="430.12" x2="430.12" xlink:href="#linear-gradient-4"/>
    <linearGradient id="linear-gradient-49" x1="410.3" x2="410.3" xlink:href="#linear-gradient-4"/>
    <linearGradient id="linear-gradient-50" x1="416.84" x2="416.84" xlink:href="#linear-gradient-6"/>
    <linearGradient id="linear-gradient-51" x1="418.14" x2="418.14" xlink:href="#linear-gradient-6"/>
    <linearGradient id="linear-gradient-52" x1="419.27" x2="419.27" xlink:href="#linear-gradient-6"/>
    <linearGradient id="linear-gradient-53" x1="-3435.96" y1="-870.92" x2="-3435.96" y2="-866.71" gradientTransform="translate(-3011.32 -793.62) rotate(-180)" xlink:href="#linear-gradient-6"/>
    <linearGradient id="linear-gradient-54" x1="-3434.94" y1="-870.92" x2="-3434.94" y2="-866.71" gradientTransform="translate(-3011.32 -793.62) rotate(-180)" xlink:href="#linear-gradient-6"/>
    <linearGradient id="linear-gradient-55" x1="-3433.92" y1="-870.92" x2="-3433.92" y2="-866.71" gradientTransform="translate(-3011.32 -793.62) rotate(-180)" xlink:href="#linear-gradient-6"/>
    <linearGradient id="linear-gradient-56" x1="-3432.97" y1="-870.92" x2="-3432.97" y2="-866.71" gradientTransform="translate(-3011.32 -793.62) rotate(-180)" xlink:href="#linear-gradient-6"/>
    <linearGradient id="linear-gradient-57" x1="435.5" x2="435.5" gradientTransform="translate(-15.04 -793.62) scale(1 -1)" xlink:href="#linear-gradient-6"/>
    <linearGradient id="linear-gradient-58" x1="454.65" x2="454.65" xlink:href="#linear-gradient-3"/>
    <linearGradient id="linear-gradient-59" x1="464.57" x2="464.57" xlink:href="#linear-gradient-4"/>
    <linearGradient id="linear-gradient-60" x1="444.82" x2="444.82" xlink:href="#linear-gradient-4"/>
    <linearGradient id="linear-gradient-61" x1="451.32" x2="451.32" xlink:href="#linear-gradient-6"/>
    <linearGradient id="linear-gradient-62" x1="452.66" x2="452.66" xlink:href="#linear-gradient-6"/>
    <linearGradient id="linear-gradient-63" x1="453.78" x2="453.78" xlink:href="#linear-gradient-6"/>
    <linearGradient id="linear-gradient-64" x1="-3470.48" y1="-870.92" x2="-3470.48" y2="-866.71" gradientTransform="translate(-3011.32 -793.62) rotate(-180)" xlink:href="#linear-gradient-6"/>
    <linearGradient id="linear-gradient-65" x1="-3469.46" y1="-870.92" x2="-3469.46" y2="-866.71" gradientTransform="translate(-3011.32 -793.62) rotate(-180)" xlink:href="#linear-gradient-6"/>
    <linearGradient id="linear-gradient-66" x1="-3468.44" y1="-870.92" x2="-3468.44" y2="-866.71" gradientTransform="translate(-3011.32 -793.62) rotate(-180)" xlink:href="#linear-gradient-6"/>
    <linearGradient id="linear-gradient-67" x1="-3467.45" y1="-870.92" x2="-3467.45" y2="-866.71" gradientTransform="translate(-3011.32 -793.62) rotate(-180)" xlink:href="#linear-gradient-6"/>
    <linearGradient id="linear-gradient-68" x1="469.98" x2="469.98" gradientTransform="translate(-15.04 -793.62) scale(1 -1)" xlink:href="#linear-gradient-6"/>
  </defs>
  <polygon class="cls-74" points="602.92 0 65.43 0 .13 20.4 668.22 20.4 602.92 0"/>
  <path class="cls-95" d="M4.31,21.72h659.46c2.34,0,4.31,1.97,4.31,4.31v60.52c0,2.34-1.97,4.31-4.31,4.31H4.31c-2.34,0-4.31-1.97-4.31-4.31V26.04c0-2.34,1.97-4.31,4.31-4.31h0Z"/>
  <path class="cls-105" d="M4.31,20.49h659.46c2.34,0,4.31,1.97,4.31,4.31v60.52c0,2.34-1.97,5.06-4.31,5.06H4.31c-2.34,0-4.31-2.72-4.31-5.06V24.8c0-2.34,1.97-4.31,4.31-4.31Z"/>
  <rect class="cls-96" x="87.66" y="89.64" width="459.24" height="1.07"/>
  <path class="cls-92" d="M541.66,39.83c1.23,0,3.2.25,5.05,2.34v-19.35H87.6v67.01h459.24v-14.87h-13.43l.62-4.19c.25-2.1,1.73-3.82,3.57-4.19l6.53-9.49-9.24-13.31,2.22-2.22c.37-.12,2.1-1.73,4.56-1.73h-.01Z"/>
  <path class="cls-72" d="M587.44,90.86c0-2.22-.74-6.66-2.22-8.26-1.48-1.6-3.33-2.34-5.55-2.22-2.1-.12-3.94.74-5.3,2.22-1.48,1.6-2.22,6.04-2.22,8.26M576.59,90.86c0-1.48.12-5.79.74-7.15.49-.99,1.23-1.85,2.47-1.85.62,0,1.11.12,1.6.62.62.49.99,1.23,1.11,1.85.49,1.23.49,5.3.49,6.53"/>
  <path class="cls-72" d="M572.65,25.05c0,2.22.62,6.04,2.1,7.64s3.33,2.34,5.55,2.22c2.1.12,3.94-.74,5.3-2.22,1.48-1.6,2.22-5.42,2.22-7.64M583.51,25.05c0,1.48-.12,5.05-.74,6.41-.49.99-1.23,1.85-2.47,1.85-.62,0-1.11-.12-1.6-.62-.62-.49-.99-1.23-1.11-1.85-.49-1.23-.49-4.56-.49-5.92"/>
  <path class="cls-61" d="M51.91,43.59l-8.63,12.45,8.5,12.2s.86.74,1.73.99c.74.25.86.86.99,1.23h-8.63s-.37-.99,1.97-1.73l-6.78-9.74-6.53,9.74c.12,0,.25.12.25.12,2.22.74,1.85,1.73,1.85,1.73h-8.26c.12-.37.25-1.11.86-1.23.62-.25,1.48-.74,1.85-1.23l15.04-21.94c.86-1.23,1.73-2.71,3.33-2.96,1.48-.37,2.47.37,2.47.37M30.47,43.59l8.13,11.71,2.1-3.08-5.42-7.76c-2.22-3.2-4.81-.86-4.81-.86h0Z"/>
  <path class="cls-62" d="M596.93,63.13v-2.34c0-.25,0-.74-.12-.86,0-.12-.25-.25-.25-.25-.25-.12-.37-.12-.62-.12h-.25c-.25,0-.25-.12-.25-.25v-.25c0-.25.12-.25.25-.25h5.67c.25,0,.25.12.25.25v.12c0,.25-.12.25-.25.25s-.62.12-.74.25-.25.25-.25.37c-.12.12-.12.62-.12.74v2.71c0,.12-.12.25-.25.25-.74.37-1.6.74-2.34.86-.86.25-1.73.25-2.59.25-.99,0-1.97-.12-2.83-.49-.74-.25-1.48-.74-2.1-1.36s-1.11-1.23-1.36-1.85c-.49-.99-.62-1.97-.62-3.08,0-1.97.62-3.7,1.97-5.05,1.23-1.36,2.96-2.1,4.93-2.1.62,0,1.11,0,1.73.25.37.12.86.25,1.23.49.25.12.74.25.86.25s.25,0,.25-.12c.12-.12.25-.37.25-.62,0-.12.25-.25.25-.25h.25c.25,0,.25.12.25.25v4.44c0,.25-.12.25-.25.25h-.25c-.12,0-.25-.12-.25-.25-.25-.99-.74-1.97-1.6-2.71-.74-.62-1.48-.86-2.22-.86s-1.36.25-1.97.74c-.62.62-.99,1.23-1.23,2.1-.25.99-.37,1.85-.37,2.83,0,1.11.12,2.1.37,3.2.25.74.62,1.36,1.23,1.85.62.37,1.23.62,1.85.62.25,0,.49,0,.74-.12.37,0,.62,0,.74-.12h0v-.02Z"/>
  <path class="cls-62" d="M585.22,52.78c-1.23-1.36-2.83-1.97-4.81-1.85-1.85-.12-3.33.62-4.56,1.85-1.23,1.36-1.85,3.08-1.85,4.93,0,1.73.37,3.2,1.36,4.56,1.23,1.73,3.08,2.47,5.18,2.47s3.82-.74,5.18-2.59c.99-1.23,1.36-2.83,1.36-4.44,0-1.85-.62-3.57-1.85-4.93h-.01ZM582.75,61.28c-.25.74-.62,1.36-1.11,1.73-.37.25-.74.37-1.23.37-.74,0-1.36-.37-1.73-.99-.74-1.23-.99-3.2-.99-4.68,0-1.23.12-2.83.74-4.07.49-.86,1.11-1.6,2.22-1.6.49,0,.86.12,1.23.49.49.25.74.99.99,1.6.37,1.11.37,2.59.37,3.7-.12,1.11-.12,2.47-.49,3.45Z"/>
  <path class="cls-62" d="M566.61,63.01c.25.12.74.12.86.12h.99c.49,0,.99-.12,1.36-.25s.74-.62.99-.99c.37-.62.62-1.48.74-2.22,0-.12.25-.25.25-.25h.37c.12,0,.25,0,.25.12.12.12.12.25.12.25l-.37,4.44c0,.25-.25.25-.25.25h-10.35c-.25,0-.25-.12-.25-.25v-.25c0-.25.12-.25.25-.25h.37c.25,0,.49,0,.74-.25l.25-.25c.12-.25.12-.86.12-1.11v-8.38c0-.25,0-.86-.12-1.11,0-.12-.25-.25-.25-.25-.25-.12-.37-.12-.62-.12h-.37c-.25,0-.25-.12-.25-.25v-.25c0-.25.12-.25.25-.25h6.16c.25,0,.25.12.25.25v.25c0,.25-.12.25-.25.25h-.49c-.25,0-.49,0-.74.25l-.25.25c-.12.25-.12.86-.12,1.11v8.13c0,.25,0,.86.12,1.11.12-.25.12-.12.25-.12h0v.02Z"/>
  <path class="cls-62" d="M561.81,43.91l-8.75,12.69,8.75,12.45s.86.74,1.73.99c.74.25.86.86.99,1.23h-8.63s-.49-.99,1.97-1.73l-6.78-9.86-6.78,9.74c.12,0,.25.12.25.12,2.34.74,1.85,1.73,1.85,1.73h-8.38c.12-.37.25-1.11.86-1.23.62-.25,1.48-.74,1.85-1.23l15.28-22.31c.86-1.23,1.73-2.71,3.33-2.96,1.36-.62,2.47.25,2.47.37M540,43.79l8.26,11.96,2.22-3.2-5.55-7.89c-2.47-3.33-4.93-.86-4.93-.86h0Z"/>
  <line class="cls-108" x1="551.21" y1="32.57" x2="551.21" y2="46.37"/>
  <line class="cls-108" x1="551.21" y1="67.33" x2="551.21" y2="85.81"/>
  <path class="cls-92" d="M41.81,45.81c.25,0,.25-.12.25-.24v-27.76c0-.12-.12-.24-.25-.24s-.25.12-.25.24v27.76c0,.12.12.24.25.24Z"/>
  <path class="cls-92" d="M41.81,86.89c.25,0,.25-.12.25-.25v-19.88c0-.12-.12-.25-.25-.25s-.25.12-.25.25v20s.12.12.25.12h0Z"/>
  <rect class="cls-92" x="79.89" y="64.51" width="2.34" height="2.34"/>
  <rect class="cls-92" x="83.1" y="64.51" width="2.34" height="2.34"/>
  <rect class="cls-92" x="86.18" y="64.51" width="2.34" height="2.34"/>
  <rect class="cls-104" x="89.38" y="64.51" width="2.34" height="2.34"/>
  <rect class="cls-104" x="92.46" y="64.51" width="2.34" height="2.34"/>
  <rect class="cls-104" x="95.67" y="64.51" width="2.34" height="2.34"/>
  <rect class="cls-104" x="101.95" y="64.51" width="2.34" height="2.34"/>
  <rect class="cls-104" x="105.16" y="64.51" width="2.34" height="2.34"/>
  <rect class="cls-104" x="108.12" y="64.51" width="2.34" height="2.34"/>
  <rect class="cls-104" x="111.32" y="64.51" width="2.34" height="2.34"/>
  <rect class="cls-104" x="114.53" y="64.51" width="2.34" height="2.34"/>
  <rect class="cls-104" x="120.81" y="64.51" width="2.34" height="2.34"/>
  <rect class="cls-104" x="127.1" y="64.51" width="2.34" height="2.34"/>
  <rect class="cls-104" x="130.18" y="64.51" width="2.34" height="2.34"/>
  <rect class="cls-104" x="133.38" y="64.51" width="2.34" height="2.34"/>
  <rect class="cls-92" x="79.89" y="67.59" width="2.34" height="2.34"/>
  <rect class="cls-92" x="86.18" y="67.59" width="2.34" height="2.34"/>
  <rect class="cls-104" x="87.6" y="46.27" width="2.34" height="2.34"/>
  <rect class="cls-92" x="87.41" y="32.22" width="2.34" height="2.34"/>
  <rect class="cls-92" x="83.1" y="43.43" width="2.34" height="2.34"/>
  <rect class="cls-92" x="87.04" y="83" width="2.34" height="2.34"/>
  <rect class="cls-92" x="84.21" y="74.98" width="2.34" height="2.34"/>
  <rect class="cls-104" x="90.61" y="42.2" width="2.34" height="2.34"/>
  <rect class="cls-104" x="88.64" y="38.13" width="2.34" height="2.34"/>
  <rect class="cls-104" x="88.15" y="77.82" width="2.34" height="2.34"/>
  <rect class="cls-104" x="90.61" y="73.75" width="2.34" height="2.34"/>
  <rect class="cls-104" x="93.57" y="77.33" width="2.34" height="2.34"/>
  <rect class="cls-104" x="89.38" y="67.59" width="2.34" height="2.34"/>
  <rect class="cls-104" x="92.46" y="67.59" width="2.34" height="2.34"/>
  <rect class="cls-104" x="95.67" y="67.59" width="2.34" height="2.34"/>
  <rect class="cls-104" x="98.75" y="67.59" width="2.34" height="2.34"/>
  <rect class="cls-104" x="101.95" y="67.59" width="2.34" height="2.34"/>
  <rect class="cls-104" x="105.16" y="67.59" width="2.34" height="2.34"/>
  <rect class="cls-104" x="114.53" y="67.59" width="2.34" height="2.34"/>
  <rect class="cls-104" x="117.61" y="67.59" width="2.34" height="2.34"/>
  <rect class="cls-104" x="123.89" y="67.59" width="2.34" height="2.34"/>
  <rect class="cls-104" x="127.1" y="67.59" width="2.34" height="2.34"/>
  <rect class="cls-104" x="133.38" y="67.59" width="2.34" height="2.34"/>
  <rect class="cls-104" x="136.59" y="67.59" width="2.34" height="2.34"/>
  <path class="cls-92" d="M62.02,54.65v3.45h-3.45v-3.45h3.45M62.27,54.28h-3.94v4.07h3.94v-4.07h0Z"/>
  <path class="cls-92" d="M67.2,54.65v3.45h-3.45v-3.45h3.45M67.45,54.28h-3.94v4.07h3.94v-4.07h0Z"/>
  <path class="cls-92" d="M72.5,54.65v3.45h-3.45v-3.45h3.45M72.75,54.28h-3.94v4.07h3.94v-4.07h0Z"/>
  <path class="cls-92" d="M77.67,54.65v3.45h-3.45v-3.45h3.45M77.92,54.28h-3.94v4.07h3.94v-4.07h0Z"/>
  <path class="cls-92" d="M82.97,54.65v3.45h-3.45v-3.45h3.45M83.22,54.28h-3.94v4.07h3.94v-4.07h0Z"/>
  <path class="cls-92" d="M88.15,54.65v3.45h-3.45v-3.45h3.45M88.4,54.28h-3.94v4.07h3.94v-4.07h0Z"/>
  <path class="cls-104" d="M98.63,54.65v3.45h-3.45v-3.45h3.45M98.88,54.28h-3.94v4.07h3.94v-4.07h0Z"/>
  <path class="cls-104" d="M103.93,54.65v3.45h-3.45v-3.45h3.45M104.18,54.28h-3.94v4.07h3.94v-4.07h0Z"/>
  <path class="cls-104" d="M114.4,54.65v3.45h-3.45v-3.45h3.45M114.65,54.28h-3.94v4.07h3.94v-4.07h0Z"/>
  <path class="cls-104" d="M119.58,54.65v3.45h-3.45v-3.45h3.45M119.83,54.28h-3.94v4.07h3.94v-4.07h0Z"/>
  <path class="cls-104" d="M124.88,54.65v3.45h-3.45v-3.45h3.45M125.13,54.28h-3.94v4.07h3.94v-4.07h0Z"/>
  <path class="cls-104" d="M130.05,54.65v3.45h-3.45v-3.45h3.45M130.3,54.28h-3.94v4.07h3.94v-4.07h0Z"/>
  <path class="cls-104" d="M140.53,54.65v3.45h-3.45v-3.45h3.45M140.78,54.28h-3.94v4.07h3.94v-4.07h0Z"/>
  <path class="cls-104" d="M145.83,54.65v3.45h-3.45v-3.45h3.45M146.08,54.28h-3.94v4.07h3.94v-4.07h0Z"/>
  <path class="cls-104" d="M151.13,54.65v3.45h-3.45v-3.45h3.45M151.25,54.28h-3.94v4.07h3.94v-4.07h0Z"/>
  <path class="cls-92" d="M62.02,59.7v3.45h-3.45v-3.45h3.45M62.27,59.33h-3.94v3.94h3.94v-3.94h0Z"/>
  <path class="cls-92" d="M72.5,59.7v3.45h-3.45v-3.45h3.45M72.75,59.33h-3.94v3.94h3.94v-3.94h0Z"/>
  <path class="cls-92" d="M77.67,59.7v3.45h-3.45v-3.45h3.45M77.92,59.33h-3.94v3.94h3.94v-3.94h0Z"/>
  <path class="cls-92" d="M82.97,59.7v3.45h-3.45v-3.45h3.45M83.22,59.33h-3.94v3.94h3.94v-3.94h0Z"/>
  <path class="cls-92" d="M88.15,59.7v3.45h-3.45v-3.45h3.45M88.4,59.33h-3.94v3.94h3.94v-3.94h0Z"/>
  <path class="cls-104" d="M93.45,59.7v3.45h-3.45v-3.45h3.45M93.7,59.33h-3.94v3.94h3.94v-3.94h0Z"/>
  <path class="cls-104" d="M98.63,59.7v3.45h-3.45v-3.45h3.45M98.88,59.33h-3.94v3.94h3.94v-3.94h0Z"/>
  <path class="cls-104" d="M103.93,59.7v3.45h-3.45v-3.45h3.45M104.18,59.33h-3.94v3.94h3.94v-3.94h0Z"/>
  <path class="cls-104" d="M109.1,59.7v3.45h-3.45v-3.45h3.45M109.35,59.33h-3.94v3.94h3.94v-3.94h0Z"/>
  <path class="cls-104" d="M114.4,59.7v3.45h-3.45v-3.45h3.45M114.65,59.33h-3.94v3.94h3.94v-3.94h0Z"/>
  <path class="cls-104" d="M124.88,59.7v3.45h-3.45v-3.45h3.45M125.13,59.33h-3.94v3.94h3.94v-3.94h0Z"/>
  <path class="cls-104" d="M130.05,59.7v3.45h-3.45v-3.45h3.45M130.3,59.33h-3.94v3.94h3.94v-3.94h0Z"/>
  <path class="cls-104" d="M135.35,59.7v3.45h-3.45v-3.45h3.45M135.6,59.33h-3.94v3.94h3.94v-3.94h0Z"/>
  <path class="cls-104" d="M140.53,59.7v3.45h-3.45v-3.45h3.45M140.78,59.33h-3.94v3.94h3.94v-3.94h0Z"/>
  <path class="cls-104" d="M151.13,59.7v3.45h-3.45v-3.45h3.45M151.25,59.33h-3.94v3.94h3.94v-3.94h0Z"/>
  <path class="cls-104" d="M156.31,59.7v3.45h-3.45v-3.45h3.45M156.56,59.33h-3.94v3.94h3.94v-3.94h0Z"/>
  <circle class="cls-103" cx="189.22" cy="73.8" r="4.44"/>
  <circle class="cls-90" cx="189.22" cy="73.8" r="3.7"/>
  <circle class="cls-71" cx="189.71" cy="73.19" r="2.96"/>
  <circle class="cls-75" cx="259.84" cy="67.89" r="2.83"/>
  <path class="cls-75" d="M259.84,72.82c3.84-.06,3.84,5.97,0,5.92-3.84.06-3.84-5.97,0-5.92Z"/>
  <circle class="cls-81" cx="259.84" cy="67.89" r="2.34"/>
  <path class="cls-87" d="M259.84,73.43c3.04-.04,3.04,4.73,0,4.68-3.04.04-3.04-4.73,0-4.68Z"/>
  <ellipse class="cls-75" cx="259.47" cy="67.27" rx=".49" ry=".25"/>
  <ellipse class="cls-75" cx="260.95" cy="67.64" rx=".25" ry=".49"/>
  <path class="cls-75" d="M259.72,74.79c.64,0,.64.5,0,.49-.64,0-.64-.5,0-.49Z"/>
  <path class="cls-75" d="M261.19,74.91c.32-.01.32,1,0,.99-.32.01-.32-1,0-.99Z"/>
  <g>
    <path class="cls-104" d="M168.97,75.01c-.21,0-.4-.04-.57-.1-.18-.07-.33-.17-.46-.29s-.23-.27-.3-.44c-.07-.17-.11-.35-.11-.55s.04-.38.11-.55c.07-.17.17-.31.3-.44.13-.12.28-.22.46-.29.17-.07.37-.1.58-.1s.4.03.57.1c.17.07.33.16.46.29.13.12.23.27.3.44.07.17.11.35.11.55s-.04.38-.11.55c-.07.17-.17.31-.3.44-.13.12-.28.22-.46.29s-.36.1-.57.1h0ZM168.97,74.67c.15,0,.29-.03.42-.08s.24-.12.33-.22.17-.2.22-.33.08-.26.08-.41-.03-.29-.08-.41-.13-.24-.22-.33-.21-.17-.33-.22c-.13-.05-.27-.08-.42-.08s-.29.03-.42.08-.24.12-.33.22c-.09.09-.17.2-.22.33s-.08.26-.08.41.03.29.08.41.13.24.22.33c.1.09.21.17.33.22.13.05.27.08.42.08Z"/>
    <path class="cls-104" d="M170.99,74.98v-2.7h.32l1.79,2.22h-.17v-2.22h.39v2.7h-.32l-1.79-2.22h.17v2.22h-.39Z"/>
  </g>
  <path class="cls-104" d="M173.61,75.37l1.27-3.64h.34l-1.27,3.64h-.34Z"/>
  <g>
    <path class="cls-104" d="M176.62,75.01c-.21,0-.4-.04-.57-.1-.18-.07-.33-.17-.46-.29s-.23-.27-.3-.44c-.07-.17-.11-.35-.11-.55s.04-.38.11-.55c.07-.17.17-.31.3-.44.13-.12.28-.22.46-.29.17-.07.37-.1.58-.1s.4.03.57.1c.17.07.33.16.46.29.13.12.23.27.3.44.07.17.11.35.11.55s-.04.38-.11.55c-.07.17-.17.31-.3.44-.13.12-.28.22-.46.29s-.36.1-.57.1h0ZM176.62,74.67c.15,0,.29-.03.42-.08s.24-.12.33-.22.17-.2.22-.33.08-.26.08-.41-.03-.29-.08-.41-.13-.24-.22-.33-.21-.17-.33-.22c-.13-.05-.27-.08-.42-.08s-.29.03-.42.08-.24.12-.33.22c-.09.09-.17.2-.22.33s-.08.26-.08.41.03.29.08.41.13.24.22.33c.1.09.21.17.33.22.13.05.27.08.42.08Z"/>
    <path class="cls-104" d="M179.03,74.98h-.39v-2.7h1.91v.34h-1.52v2.37h0ZM178.99,73.56h1.39v.33h-1.39v-.33Z"/>
    <path class="cls-104" d="M181.48,74.98h-.39v-2.7h1.91v.34h-1.52v2.37h0ZM181.44,73.56h1.39v.33h-1.39v-.33Z"/>
  </g>
  <path class="cls-104" d="M203.16,56.34c-.21,0-.4-.03-.57-.1s-.32-.16-.45-.29c-.13-.12-.23-.27-.3-.44s-.11-.35-.11-.55.04-.38.11-.55.17-.31.3-.44c.13-.12.28-.22.45-.29s.36-.1.57-.1.4.04.58.11c.18.07.33.18.45.32l-.25.24c-.1-.11-.22-.19-.35-.24s-.27-.08-.41-.08-.29.03-.42.08c-.13.05-.24.12-.34.22-.09.09-.17.2-.22.33s-.08.27-.08.42.03.29.08.42c.05.13.13.24.22.33.1.09.21.16.34.22s.27.08.42.08.28-.03.41-.08.24-.13.35-.25l.25.24c-.12.14-.27.24-.45.32-.18.07-.37.11-.58.11v-.03Z"/>
  <g>
    <path class="cls-104" d="M205.91,56.34c-.21,0-.4-.04-.57-.1-.18-.07-.33-.17-.46-.29-.13-.12-.23-.27-.3-.44s-.11-.35-.11-.55.04-.38.11-.55.17-.31.3-.44c.13-.12.28-.22.46-.29.17-.07.37-.1.58-.1s.4.03.57.1c.17.07.33.16.46.29.13.12.23.27.3.44s.11.35.11.55-.04.38-.11.55-.17.31-.3.44c-.13.12-.28.22-.46.29s-.36.1-.57.1h0ZM205.91,56c.15,0,.29-.03.42-.08s.24-.12.33-.22.17-.2.22-.33.08-.26.08-.41-.03-.29-.08-.41-.13-.24-.22-.33-.21-.17-.33-.22c-.13-.05-.27-.08-.42-.08s-.29.03-.42.08c-.13.05-.24.12-.33.22-.09.09-.17.2-.22.33s-.08.26-.08.41.03.29.08.41.13.24.22.33c.1.09.21.17.33.22.13.05.27.08.42.08Z"/>
    <path class="cls-104" d="M207.93,56.31v-2.7h.32l1.79,2.22h-.17v-2.22h.39v2.7h-.32l-1.79-2.22h.17v2.22h-.39Z"/>
    <path class="cls-104" d="M211.85,56.34c-.21,0-.4-.03-.59-.09s-.34-.14-.44-.25l.14-.3c.1.09.23.16.39.22s.33.09.5.09c.16,0,.29-.02.38-.05.1-.04.17-.09.22-.15s.07-.13.07-.21c0-.09-.03-.17-.09-.22s-.14-.1-.24-.14c-.1-.03-.2-.06-.32-.09-.12-.03-.23-.06-.35-.09-.12-.04-.22-.08-.32-.13s-.17-.13-.23-.22-.09-.21-.09-.35.04-.27.11-.38.19-.21.34-.28.35-.11.58-.11c.16,0,.31.02.47.06s.29.1.4.18l-.13.31c-.12-.08-.24-.13-.37-.17-.13-.03-.25-.05-.37-.05-.15,0-.28.02-.38.06s-.17.09-.21.15-.07.14-.07.22c0,.1.03.17.09.23s.14.1.24.13c.1.03.2.06.32.09.12.03.23.06.35.09s.22.08.32.13.17.13.23.22.09.21.09.35-.04.26-.11.38c-.08.12-.19.21-.35.28s-.35.11-.59.11v-.02Z"/>
    <path class="cls-104" d="M214.68,56.34c-.21,0-.4-.04-.57-.1-.18-.07-.33-.17-.46-.29-.13-.12-.23-.27-.3-.44s-.11-.35-.11-.55.04-.38.11-.55.17-.31.3-.44c.13-.12.28-.22.46-.29.17-.07.37-.1.58-.1s.4.03.57.1c.17.07.33.16.46.29.13.12.23.27.3.44s.11.35.11.55-.04.38-.11.55-.17.31-.3.44c-.13.12-.28.22-.46.29s-.36.1-.57.1h0ZM214.68,56c.15,0,.29-.03.42-.08s.24-.12.33-.22.17-.2.22-.33.08-.26.08-.41-.03-.29-.08-.41-.13-.24-.22-.33-.21-.17-.33-.22c-.13-.05-.27-.08-.42-.08s-.29.03-.42.08c-.13.05-.24.12-.33.22-.09.09-.17.2-.22.33s-.08.26-.08.41.03.29.08.41.13.24.22.33c.1.09.21.17.33.22.13.05.27.08.42.08Z"/>
    <path class="cls-104" d="M216.7,56.31v-2.7h.39v2.37h1.46v.34h-1.85Z"/>
    <path class="cls-104" d="M219.38,55.97h1.58v.34h-1.96v-2.7h1.91v.34h-1.52v2.03h0ZM219.35,54.77h1.39v.33h-1.39v-.33Z"/>
  </g>
  <g>
    <path class="cls-104" d="M237,50.04c-.51,0-.91-.15-1.2-.44-.29-.29-.44-.72-.44-1.28v-2.2h.55v2.18c0,.43.1.75.29.95.19.2.46.3.81.3s.62-.1.81-.3.29-.52.29-.95v-2.18h.54v2.2c0,.56-.14.99-.43,1.28-.29.29-.69.44-1.2.44h-.02Z"/>
    <path class="cls-104" d="M240.9,50.04c-.29,0-.58-.05-.85-.14s-.48-.21-.64-.35l.21-.43c.15.13.34.24.57.32.23.08.47.13.71.13s.41-.03.55-.08c.14-.05.24-.12.31-.21s.1-.19.1-.31c0-.13-.04-.24-.13-.32-.09-.08-.2-.15-.34-.2s-.29-.09-.46-.13-.33-.08-.5-.13-.32-.11-.46-.19c-.14-.08-.25-.18-.33-.31s-.13-.3-.13-.51.05-.38.16-.55.27-.3.49-.4.5-.15.84-.15c.23,0,.45.03.67.09s.41.14.58.25l-.18.44c-.17-.11-.34-.19-.53-.24s-.36-.07-.54-.07c-.22,0-.4.03-.54.08-.14.06-.24.13-.31.22-.06.09-.1.2-.1.31,0,.14.04.25.13.33s.2.15.34.19c.14.05.29.09.46.13.17.04.33.08.5.13s.32.11.46.19c.14.08.25.18.33.31s.13.29.13.5-.05.38-.16.55-.27.3-.5.4c-.22.1-.5.15-.84.15h0Z"/>
    <path class="cls-104" d="M243.21,50v-3.88h1.74c.45,0,.79.09,1.03.27s.36.42.36.73c0,.21-.05.39-.14.53s-.22.25-.38.33-.33.12-.51.12l.1-.17c.22,0,.42.04.59.12s.3.19.4.34.15.33.15.56c0,.33-.12.59-.37.77s-.62.27-1.11.27h-1.86ZM243.76,49.55h1.27c.31,0,.54-.05.7-.16.16-.1.24-.27.24-.49s-.08-.39-.24-.49c-.16-.1-.4-.16-.7-.16h-1.32v-.45h1.19c.28,0,.5-.05.65-.16s.23-.26.23-.46-.08-.36-.23-.47-.37-.16-.65-.16h-1.14v3Z"/>
  </g>
  <g>
    <path class="cls-104" d="M277.9,54.84l-.9-2.7h.4l.83,2.49h-.2l.86-2.49h.36l.84,2.49h-.19l.84-2.49h.37l-.9,2.7h-.41l-.79-2.31h.1l-.79,2.31h-.42Z"/>
    <g>
      <path class="cls-104" d="M281.08,54.84l1.22-2.7h.38l1.23,2.7h-.41l-1.09-2.49h.15l-1.09,2.49h-.4,0ZM281.6,54.17l.1-.31h1.52l.11.31h-1.74.01Z"/>
      <path class="cls-104" d="M284.31,54.84v-2.7h.32l1.79,2.22h-.17v-2.22h.39v2.7h-.32l-1.79-2.22h.17v2.22h-.39Z"/>
    </g>
  </g>
  <g>
    <path class="cls-104" d="M311.63,54.84v-2.7h.39v2.37h1.46v.34h-1.85Z"/>
    <path class="cls-104" d="M313.51,54.84l1.22-2.7h.38l1.23,2.7h-.41l-1.09-2.49h.15l-1.09,2.49h-.4,0ZM314.03,54.17l.1-.31h1.52l.11.31h-1.74.01Z"/>
    <path class="cls-104" d="M316.74,54.84v-2.7h.32l1.79,2.22h-.17v-2.22h.39v2.7h-.32l-1.79-2.22h.17v2.22h-.39Z"/>
    <path class="cls-104" d="M320.11,54.84v-2.55l.17.18h-.78v-.34h.99v2.7h-.38Z"/>
  </g>
  <g>
    <path class="cls-104" d="M345.49,54.84v-2.7h.39v2.37h1.46v.34h-1.85Z"/>
    <path class="cls-104" d="M347.37,54.84l1.22-2.7h.38l1.23,2.7h-.41l-1.09-2.49h.15l-1.09,2.49h-.4,0ZM347.89,54.17l.1-.31h1.52l.11.31h-1.74.01Z"/>
    <path class="cls-104" d="M350.61,54.84v-2.7h.32l1.79,2.22h-.17v-2.22h.39v2.7h-.32l-1.79-2.22h.17v2.22h-.39Z"/>
    <path class="cls-104" d="M353.48,54.84v-.26l1.1-1.06c.1-.09.17-.17.22-.25.05-.07.08-.14.1-.2s.03-.12.03-.18c0-.14-.05-.25-.15-.33s-.24-.12-.43-.12c-.14,0-.27.02-.39.07-.12.05-.22.12-.3.22l-.26-.23c.1-.13.24-.23.42-.3.17-.07.37-.11.57-.11s.35.03.49.09c.14.06.25.15.32.26.08.11.11.25.11.4,0,.09-.01.17-.04.26-.02.08-.07.18-.13.27-.06.1-.16.2-.28.32l-.98.95-.09-.15h1.63v.34h-1.94Z"/>
  </g>
  <g>
    <path class="cls-104" d="M380.14,54.84v-2.7h.39v2.37h1.46v.34h-1.85Z"/>
    <path class="cls-104" d="M382.02,54.84l1.22-2.7h.38l1.23,2.7h-.41l-1.09-2.49h.15l-1.09,2.49h-.4,0ZM382.54,54.17l.1-.31h1.52l.11.31h-1.74.01Z"/>
    <path class="cls-104" d="M385.25,54.84v-2.7h.32l1.79,2.22h-.17v-2.22h.39v2.7h-.32l-1.79-2.22h.17v2.22h-.39Z"/>
    <path class="cls-104" d="M389,54.87c-.19,0-.38-.03-.55-.09-.18-.06-.32-.14-.44-.24l.18-.3c.09.08.21.15.35.21.14.05.3.08.46.08.2,0,.36-.04.47-.13.11-.09.17-.2.17-.35s-.05-.26-.16-.34c-.11-.09-.28-.13-.51-.13h-.22v-.27l.8-.99.05.15h-1.48v-.34h1.78v.26l-.8.98-.2-.12h.13c.33,0,.57.07.74.22s.25.33.25.56c0,.15-.04.29-.11.42-.07.13-.19.23-.34.3s-.34.11-.57.11h0Z"/>
  </g>
  <g>
    <path class="cls-104" d="M414.78,54.84v-2.7h.39v2.37h1.46v.34h-1.85Z"/>
    <path class="cls-104" d="M416.66,54.84l1.22-2.7h.38l1.23,2.7h-.41l-1.09-2.49h.15l-1.09,2.49h-.4,0ZM417.18,54.17l.1-.31h1.52l.11.31h-1.74.01Z"/>
    <path class="cls-104" d="M419.9,54.84v-2.7h.32l1.79,2.22h-.17v-2.22h.39v2.7h-.32l-1.79-2.22h.17v2.22h-.39Z"/>
    <path class="cls-104" d="M422.77,54.18v-.27l1.38-1.77h.42l-1.37,1.77-.2-.06h2.16v.33h-2.39ZM424.27,54.84v-1.59h.37v1.58h-.37Z"/>
  </g>
  <g>
    <path class="cls-104" d="M449.79,54.84v-2.7h.39v2.37h1.46v.34h-1.85Z"/>
    <path class="cls-104" d="M451.68,54.84l1.22-2.7h.38l1.23,2.7h-.41l-1.09-2.49h.15l-1.09,2.49h-.4,0ZM452.2,54.17l.1-.31h1.52l.11.31h-1.74.01Z"/>
    <path class="cls-104" d="M454.91,54.84v-2.7h.32l1.79,2.22h-.17v-2.22h.39v2.7h-.32l-1.79-2.22h.17v2.22h-.39Z"/>
    <path class="cls-104" d="M458.7,54.87c-.19,0-.38-.03-.55-.09s-.33-.14-.44-.24l.18-.3c.09.08.21.15.35.21.14.05.3.08.46.08.21,0,.36-.04.47-.13.11-.09.17-.21.17-.35,0-.1-.02-.19-.07-.26-.05-.07-.13-.13-.25-.17-.12-.04-.28-.06-.49-.06h-.61l.14-1.41h1.52v.34h-1.38l.2-.19-.11,1.12-.2-.19h.52c.27,0,.49.04.65.1.17.07.28.17.36.29.07.12.11.26.11.42s-.04.3-.11.42c-.08.13-.19.23-.34.3-.15.08-.34.11-.57.11h-.01Z"/>
  </g>
  <g>
    <path class="cls-91" d="M221.62,69.48v3.03c0,.25.21.46.46.46.07.01.35-.05.33.11-.06,4.95.93,4.77-4.37,4.64-.22-.04-.07,1.16-.11,1.25,0,1.43-1.97.62-2.6,1.02,0,.61.13,1.71-.78,1.69h-6.49c-.91,0-.8-1.08-.78-1.69-.62-.41-2.61.42-2.6-1.01,0-.12.09-1.29-.11-1.27-.77-.24-4.48.69-4.37-.9v-3.74c0-.16.23-.1.33-.11.25,0,.46-.21.46-.46v-3.01c0-.36-.36-.52-.67-.47-.06,0-.11-.05-.11-.11v-3.84c0-.49.4-.9.9-.9h20.44c1.58-.12.67,3.94.9,4.73,0,.16-.23.1-.33.11-.25,0-.46.21-.46.46h-.04Z"/>
    <path class="cls-97" d="M201.42,64.45c4.11-.24,10-.02,14.19-.09h2.53c.72.17,3.65-.53,3.68.77.07.75.24,3.01,0,3.74-1.02-.27-.43,2.91-.57,3.38,0,.22.18.47.39.47.07.02.3-.02.28.13-.28.78.71,4.56-.86,4.47h-3.32c-.06,0-.11.05-.11.11.21,2.16-.58,2-2.38,1.96-.21-.02-.08.7-.11.8.05.46-.26.92-.75.92-.08.05-6.1-.04-6.19,0-.87,0-.78-1-.77-1.61,0-.08-.08-.12-.15-.11-1.77.05-2.55.19-2.34-1.96.13-.24-3.37-.06-3.43-.11-.59,0-.92-.61-.86-1.16v-3.19c0-.05.04-.1.1-.1,1.02.27.43-2.84.57-3.3,0-.22-.18-.47-.4-.47-.07,0-.29.01-.27-.12.26-.72-.65-4.52.77-4.52h0Z"/>
    <path class="cls-83" d="M201.78,64.72c.7-.35,4.34-.13,5.19-.19h10.71c.68.14,3.42-.45,3.57.64.24.65.29,2.85.11,3.53-.88-.1-.34,2.86-.48,3.28,0,.18.15.48.33.48.06.03.25.02.23.14-.27.75.68,4.38-.83,4.29h-3.16c-.06,0-.11.05-.11.11.2,2.05-.56,1.9-2.26,1.86-.21-.02-.08.66-.11.77.04.44-.25.87-.72.88-.08.05-5.8-.04-5.88,0-.52,0-.8-.48-.75-.95-.02-.12.08-.68-.1-.7h-1.45c-.97,0-.84-1.2-.83-1.86.09-.24-3.19-.06-3.27-.11-1.46-.04-.61-3.23-.83-4.07,0-.12.16-.1.23-.12.18,0,.33-.26.33-.44v-2.66c0-.19-.15-.46-.34-.46-.06,0-.24-.01-.22-.12.22-.68-.55-4.18.64-4.3h0Z"/>
    <path class="cls-101" d="M202.13,64.98c.57-.52,4.11-.19,4.88-.28h12.71c.28,0,.93.23.93.51.48.52.21,2.53.28,3.21,0,.1-.11.12-.19.16-.14,0-.26.32-.26.46.12.45-.33,3.14.38,3.2.04,0,.06.07.06.1v3.33c0,.44-.36.79-.79.79h-2.99c-.06,0-.11.05-.11.11.19,1.94-.53,1.81-2.15,1.76-.21-.02-.08.63-.11.73.04.42-.25.82-.7.83-.08.05-5.49-.03-5.58,0-.49,0-.77-.45-.73-.89,0-.12.07-.64-.09-.67-1.6.01-2.37.21-2.17-1.77,0-.07-.07-.11-.13-.11-.77-.2-4.03.66-3.77-.99v-2.79c0-.1.12-.1.19-.12.14,0,.26-.29.26-.44v-2.49c0-.15-.12-.45-.27-.45-.05-.01-.19-.03-.18-.12.19-.65-.45-3.84.51-4.09l.02.02Z"/>
    <path class="cls-76" d="M202.49,65.25c0-.21.8-.38,1.01-.38h13.24c.63.09,2.97-.28,3.35.38.58.43.38,2.47.33,3.1l-.09.07c-.38.16-.12,2.68-.2,3.01,0,.11.09.49.2.49l.09.07c.14.05,0,3.19.05,3.29,0,.42-.34.76-.76.76-.09.06-3.04-.13-2.95.11.2,1.8-.54,1.73-2.03,1.67-.2-.02-.08.6-.11.7.03.43-.3.82-.75.79h-5.19c-.75,0-.74-.83-.71-1.38-.5-.39-2.08.35-2.14-.84-.04-.13.09-1-.08-1.05-.66-.2-3.5.51-3.6-.65,0-.13-.1-2.79.03-2.93.54-.11.19-2.42.29-2.79,0-.11-.09-.45-.2-.45-.04-.02-.15-.06-.13-.13.14-.62-.34-3.52.38-3.87l-.03.03Z"/>
    <path class="cls-102" d="M202.85,65.52c0-.26.63-.47.89-.47h12.54c.62.06,2.77-.19,3.23.26.75.29.43,2.28.44,2.89l-.06.09c-.07,0-.13.39-.13.47.05.37-.12,2.68.13,2.93l.06.08c.1.08,0,3.05.03,3.15,0,.4-.32.73-.73.73-.09.07-2.85-.16-2.78.11.19,1.69-.52,1.63-1.92,1.57-.06,0-.11.05-.11.11.04.53,0,1.33-.72,1.3h-4.89c-.71,0-.73-.78-.69-1.3.03-.23-1.2-.07-1.31-.11-1.01-.02-.57-1.15-.8-1.68-3.58-.06-3.61.63-3.4-3.29l.06-.05c.26-.19.08-2.26.13-2.56,0-.07-.06-.44-.13-.44l-.06-.05c0-.65-.22-3.23.22-3.73h0Z"/>
    <path class="cls-78" d="M203.21,65.79c0-.31.46-.56.77-.56h5.11c2.84.1,7.08-.2,9.84.13.91.14.48,2.08.55,2.68l-.03.1c-.11.61-.11,2.67,0,3.29l.03.1c-.12.64.51,3.8-.68,3.7-.07.06-2.73-.13-2.62.11,0,.54.1,1.49-.69,1.48-.12.04-1.25-.11-1.23.11.05.5,0,1.24-.69,1.22h-4.59c-.67,0-.72-.72-.67-1.22.03-.23-1.13-.07-1.23-.11-.94,0-.56-1.08-.76-1.58-3.23-.09-3.42.68-3.23-2.99l.03-.07c.11-.52.11-2.29,0-2.82l-.03-.06c0-.67-.11-2.92.11-3.51h0Z"/>
    <path class="cls-86" d="M218.35,65.4h-11.12c-.57.22-3.76-.56-3.66.66v8.09c0,.36.29.66.66.66h2.35c.21-.02.08.74.11.84-.02.86,1.15.63,1.69.66.2-.01.08.5.11.6-.21,1.22,4.39.46,4.94.66.62,0,.71-.66.66-1.14.4-.37,1.8.29,1.8-.77.02-.11-.09-.85.11-.84.57-.16,3.08.48,3.01-.66v-8.09c0-.36-.29-.66-.66-.66h0Z"/>
  </g>
  <path class="cls-104" d="M224.8,59.77h-27.04c-.42,0-.78.35-.78.78v20.69c0,.49.4.9.9.9h26.71c.55,0,1-.45,1-1v-20.58c0-.44-.36-.78-.78-.78h0ZM224.91,80.81c-.71-.03-.65.55-.92.89h-25.43c-.25-.33-.22-.91-.89-.89-.07,0-.14-.04-.14-.11.06-.23-.07-19.37.03-19.6.59.09.7-.27.98-.6h25.49c.27.33.39.69.97.6-.04.29.23,19.54-.09,19.71h0Z"/>
  <path class="cls-1" d="M225,61.1c-.6.09-.69-.27-.97-.6h-25.49c-.26.32-.42.7-.98.6-.12.18.03,19.41-.03,19.6,0,.07.07.12.14.11.43,0,.78.35.78.78-.03.34,25.43,0,25.55.11.25-.34.23-.92.92-.89.32-.18.04-19.42.09-19.71h0ZM222.29,69.03c-.32-.04-.67.09-.67.46v3.03c0,.25.21.46.46.46.07.01.35-.05.33.11-.06,4.95.93,4.77-4.37,4.64-.22-.04-.07,1.16-.11,1.25,0,1.43-1.97.62-2.6,1.02,0,.61.13,1.71-.78,1.69h-6.49c-.91,0-.8-1.08-.78-1.69.06-.22-1.62-.07-1.71-.11-1.08.02-.9-1.34-.9-2.05-.68-.57-4.56.72-4.49-1.01v-3.74c0-.16.23-.1.33-.11.25,0,.46-.21.46-.46v-3.01c0-.36-.36-.52-.67-.47-.06,0-.11-.05-.11-.11v-3.84c0-.49.4-.9.9-.9h20.44c.49,0,.9.4.9.9v3.84c0,.06-.05.11-.11.11h-.03Z"/>
  <path class="cls-99" d="M250.92,71.32v6.57c0,.57-.45,1.02-1.02,1.02h-18.26c-.57,0-1.02-.45-1.02-1.02v-6.57c0-.57.47-1.03,1.03-1.03h18.24c.57,0,1.03.47,1.03,1.03Z"/>
  <path class="cls-104" d="M231.84,81.17h-3.38v-3.38h1.96c-.38.91.47,1.89,1.42,1.63v1.75ZM228.62,81.01h3.07v-1.41c-.92.13-1.7-.75-1.47-1.66h-1.6v3.07Z"/>
  <path class="cls-104" d="M230.42,58.35h-1.96v-3.37h3.38v1.74l-.09-.02c-.07,0-.14-.02-.22-.02-.66,0-1.2.54-1.2,1.2,0,.12.02.24.06.37l.03.1ZM228.62,58.19h1.6c-.02-.11-.04-.21-.04-.31,0-.75.61-1.35,1.35-1.35.06,0,.11,0,.15,0v-1.4h-3.07v3.05h0Z"/>
  <path class="cls-104" d="M253.08,58.35h-1.95l.03-.1c.04-.13.06-.25.06-.37,0-.66-.54-1.2-1.2-1.2-.08,0-.16,0-.23.02l-.09.02v-1.74h3.38v3.37h0ZM251.34,58.19h1.58v-3.05h-3.07v1.4c.05,0,.11,0,.17,0,.75,0,1.35.61,1.35,1.35,0,.1,0,.21-.04.31h0Z"/>
  <path class="cls-104" d="M253.08,81.17h-3.38v-1.75c.95.27,1.81-.72,1.43-1.63h1.95v3.38h0ZM249.86,81.01h3.07v-3.07h-1.58c.23.9-.57,1.79-1.48,1.66v1.41h-.01Z"/>
  <path class="cls-104" d="M231.84,81.17h-3.38v-3.38h1.96c-.38.91.47,1.89,1.42,1.63v1.75ZM228.62,81.01h3.07v-1.41c-.92.13-1.7-.75-1.47-1.66h-1.6v3.07Z"/>
  <path class="cls-104" d="M230.42,58.35h-1.96v-3.37h3.38v1.74l-.09-.02c-.07,0-.14-.02-.22-.02-.66,0-1.2.54-1.2,1.2,0,.12.02.24.06.37l.03.1ZM228.62,58.19h1.6c-.02-.11-.04-.21-.04-.31,0-.75.61-1.35,1.35-1.35.06,0,.11,0,.15,0v-1.4h-3.07v3.05h0Z"/>
  <g>
    <path class="cls-99" d="M250.01,70.29h-18.24c-.56,0-1.03.47-1.03,1.03v6.57c0,.56.45,1.02,1.02,1.02h18.27c.56,0,1.02-.45,1.02-1.02v-6.57c0-.56-.47-1.03-1.03-1.03h-.01Z"/>
    <path class="cls-84" d="M249.66,70.4h-15.94c-.49,0-.9.41-.9.9v5.74c0,.49.4.89.89.89h15.97c.49,0,.89-.4.89-.89v-5.74c0-.49-.41-.9-.9-.9h-.01Z"/>
    <path class="cls-86" d="M249.32,70.51h-13.65c-.42,0-.77.35-.77.77v4.92c0,.42.34.76.76.76h13.67c.42,0,.76-.34.76-.76v-4.92c0-.42-.35-.77-.77-.77h0Z"/>
  </g>
  <path class="cls-104" d="M253.08,58.35h-1.95l.03-.1c.04-.13.06-.25.06-.37,0-.66-.54-1.2-1.2-1.2-.08,0-.16,0-.23.02l-.09.02v-1.74h3.38v3.37h0ZM251.34,58.19h1.58v-3.05h-3.07v1.4c.05,0,.11,0,.17,0,.75,0,1.35.61,1.35,1.35,0,.1,0,.21-.04.31h0Z"/>
  <path class="cls-104" d="M253.08,81.17h-3.38v-1.75c.95.27,1.81-.72,1.43-1.63h1.95v3.38h0ZM249.86,81.01h3.07v-3.07h-1.58c.23.9-.57,1.79-1.48,1.66v1.41h-.01Z"/>
  <path class="cls-77" d="M249,72.08c-.08.38.24,1.48-.44,1.46h-16.27c-.23,0-.43-.2-.43-.44.08-.37-.24-1.46.43-1.45h16.27c.25,0,.44.2.44.43Z"/>
  <g>
    <path class="cls-77" d="M250.01,65.32h-18.24c-.56,0-1.03-.47-1.35-1.03v-6.57c.32-.56.78-1.02,1.34-1.02h18.27c.56,0,1.02.45,1.02,1.02v6.57c0,.56-.47,1.03-1.03,1.03h0Z"/>
    <path class="cls-82" d="M249.66,65.21h-15.94c-.49,0-.9-.41-.9-.9v-5.74c0-.49.4-.89.89-.89h15.97c.49,0,.89.4.89.89v5.74c0,.49-.41.9-.9.9h-.01Z"/>
    <path class="cls-86" d="M249.32,65.1h-13.65c-.42,0-.77-.35-.77-.77v-4.92c0-.42.34-.76.76-.76h13.67c.42,0,.76.34.76.76v4.92c0,.42-.35.77-.77.77h0Z"/>
  </g>
  <path class="cls-77" d="M249.48,60.07v-1.02c0-.25-.2-.44-.44-.44h-16.27c-.23,0-.43.2-.43.44v1.02c0,.23.2.43.43.43h16.27c.25,0,.44-.2.44-.43Z"/>
  <path class="cls-88" d="M231.76,55.06v1.57c-.07,0-.15-.02-.23-.02-.71,0-1.28.58-1.28,1.28,0,.13.02.27.06.39h-1.78v-3.21h3.23Z"/>
  <path class="cls-88" d="M253.01,55.06v3.21h-1.77c.04-.12.06-.26.06-.39,0-.7-.58-1.28-1.28-1.28-.09,0-.17,0-.25.02v-1.57h3.24Z"/>
  <path class="cls-88" d="M231.76,79.51v1.58h-3.22v-3.22h1.78c-.31.89.52,1.85,1.45,1.64h0Z"/>
  <path class="cls-104" d="M227.24,53.68v28.8h27.08v-28.8h-27.08ZM253.01,81.09h-24.47v-26.03h24.47v26.03Z"/>
  <path class="cls-64" d="M253.01,58.28h-1.77c.31-.89-.54-1.84-1.46-1.64v-1.57h-18.02v1.57c-.93-.2-1.75.75-1.45,1.64h-1.77v19.59h1.77c-.3.9.52,1.84,1.45,1.64v1.58h18.02v-1.58c.92.2,1.77-.74,1.46-1.64h1.77v-19.59ZM250.93,77.89c0,.57-.45,1.02-1.02,1.02h-18.26c-.57,0-1.02-.45-1.02-1.02v-6.57c0-.57.47-1.03,1.03-1.03h18.24c.57,0,1.03.47,1.03,1.03v6.57ZM250.93,64.26c0,.47-.37.83-.83.83h-18.63c-.47,0-.84-.37-.84-.83v-6.01c0-.57.45-1.02,1.02-1.02h18.26c.57,0,1.02.45,1.02,1.02v6.01Z"/>
  <path class="cls-88" d="M253.01,77.87v3.22h-3.22v-1.58c.92.21,1.77-.74,1.46-1.64h1.77-.01Z"/>
  <g>
    <path class="cls-94" d="M330.39,8.11h-11.53c-.07,0-.14.01-.2.02s-.1.02-.14.03-.06.03-.06.04l-.04.11s0,.03.03.04.07.02.12.03.11.02.18.02h1.5c.1,0,.19,0,.28.01s.17.01.24.02c.05,0,.09.01.14.02s.09.01.13.02.08.02.11.02.05.02.07.03c.03.02.05.04.06.08s.01.07,0,.11-.01.08-.02.11-.02.06-.02.08l-.9,3.1s-.01.05-.03.09-.03.08-.05.13-.05.09-.08.12-.07.07-.11.09c-.02.01-.05.02-.08.04s-.07.02-.1.03-.08.02-.13.03-.1.02-.15.02c-.1.01-.2.02-.31.03s-.22.01-.33.02-.23,0-.34,0h-1.1c-.09,0-.18,0-.26.01s-.15.02-.22.03-.12.03-.16.04-.06.03-.07.05l-.05.13s0,.04.03.05.07.03.13.04.12.02.2.03.16.01.25.01h21.16c.08,0,.14-.01.2-.02s.1-.02.14-.04.06-.03.07-.05l.68-1.76v-.03s-.02-.02-.03-.02-.03-.02-.05-.02-.05-.01-.08-.02c-.03,0-.07-.01-.1-.02s-.07,0-.11-.01-.08,0-.12,0h-1.05c-.07,0-.12.01-.18.02s-.1.02-.13.03-.06.02-.08.04c-.09.07-.19.14-.29.21s-.22.15-.35.22-.27.15-.42.22-.32.14-.5.2c-.11.04-.24.08-.37.12s-.28.07-.43.11-.32.07-.5.1-.37.06-.57.08c-.21.02-.42.04-.64.06s-.45.03-.69.04-.47.02-.71.02h-4.09c-.16,0-.29,0-.38-.01-.05,0-.1,0-.14-.02s-.09-.01-.12-.02-.07-.01-.1-.02-.05-.02-.07-.03c-.04-.02-.07-.06-.08-.09s-.03-.08-.03-.13v-.13s0-.07.01-.1l.44-2.99s0-.04.01-.08.02-.07.03-.11.03-.08.05-.11.05-.06.09-.07c.02,0,.05-.02.08-.03s.06-.02.1-.03.07-.02.11-.03.09-.01.13-.02c.09-.01.19-.02.29-.03s.2-.01.3-.02.21,0,.31,0h1.47c.07,0,.13-.01.19-.02s.1-.02.13-.03.05-.03.05-.04v-.11s0-.03-.04-.04-.07-.02-.12-.03-.11-.02-.18-.02h-.22M355.5,12.62c-.39,0-.75,0-1.1-.02s-.67-.04-.98-.07-.6-.07-.87-.12-.53-.1-.76-.17c-.46-.12-.84-.26-1.16-.41s-.56-.3-.75-.46-.34-.31-.44-.47-.17-.3-.21-.43c-.04-.12-.07-.24-.07-.37s0-.26.06-.38.13-.25.25-.37.29-.23.51-.33c.17-.08.37-.15.6-.22s.5-.12.8-.17.65-.09,1.04-.11.83-.04,1.32-.04h.67c.22,0,.43.02.65.03s.42.03.62.05.4.04.6.07c.24.03.46.07.67.11s.4.09.58.14.34.1.48.15.28.1.39.15c.22.09.41.2.58.3s.3.22.42.34.22.23.3.35.15.23.21.33.1.2.14.31.06.21.06.32-.02.22-.07.32-.12.21-.23.31c-.07.06-.15.13-.25.19s-.22.13-.36.19-.31.12-.5.17-.41.1-.66.15c-.17.03-.36.05-.55.07s-.4.04-.61.05-.43.02-.65.03-.45,0-.69,0M352.86,8.05c-.76,0-1.5.01-2.2.04s-1.37.07-2.01.12-1.25.12-1.82.2-1.12.17-1.63.28c-.57.12-1.06.24-1.46.37s-.74.27-1,.42-.44.3-.55.46-.15.33-.12.5c.03.15.1.31.24.46s.33.3.58.44.57.29.95.43.84.28,1.36.41c.67.17,1.4.32,2.19.44s1.64.23,2.53.31,1.85.14,2.83.18,2.02.06,3.09.06,2.11-.02,3.07-.06,1.85-.11,2.67-.19,1.56-.2,2.23-.33,1.25-.28,1.75-.46c.38-.13.69-.26.93-.4s.42-.28.54-.42.18-.29.18-.43-.05-.29-.16-.44c-.12-.17-.31-.34-.56-.5s-.56-.31-.94-.46-.83-.28-1.35-.42-1.1-.26-1.77-.37c-.62-.11-1.27-.21-1.94-.29s-1.36-.14-2.07-.2-1.44-.09-2.2-.11-1.52-.04-2.31-.04h-1.08M389.05,8.01h-.73c-.06,0-.1,0-.14.02s-.07.01-.1.02-.04.02-.05.03c0,.01-.02.03-.03.05s-.03.04-.05.06-.05.04-.08.05-.07.03-.12.04c-.02,0-.05,0-.08.01s-.06,0-.09.01-.06,0-.1,0h-.11c-.08,0-.21,0-.36-.02s-.32-.02-.49-.03-.35-.02-.5-.03-.29-.02-.38-.03c-.19-.01-.4-.03-.61-.04s-.42-.03-.64-.04-.43-.03-.64-.04-.42-.02-.61-.03c-.25,0-.51-.02-.76-.02s-.51-.01-.76-.02-.5,0-.75,0h-.75c-.87,0-1.7.01-2.48.04s-1.52.07-2.21.13-1.34.13-1.94.22-1.15.19-1.66.31c-.51.12-.94.25-1.28.38s-.61.28-.79.43-.28.31-.3.47.04.34.17.51c.07.1.17.19.29.29s.27.19.44.29.38.19.61.29.49.19.79.28c.22.07.46.14.71.2s.52.13.8.19.57.12.88.18.63.12.96.17c.34.06.7.11,1.06.16s.74.1,1.12.15.77.09,1.17.13.8.08,1.21.11c.49.04.99.08,1.5.1s1.02.05,1.53.07,1.02.03,1.53.04,1.01.01,1.5.01h1.31c.43,0,.86-.01,1.29-.02s.85-.02,1.26-.04.83-.03,1.23-.05c.4-.02.79-.04,1.17-.07s.76-.05,1.13-.08.73-.06,1.08-.09.7-.07,1.04-.11c.05,0,.09-.01.13-.02s.06-.02.08-.03.03-.02.03-.03,0-.02-.02-.04l-1.32-1.04s-.05-.04-.08-.06-.07-.06-.1-.09-.06-.06-.08-.08-.02-.05-.02-.06.02-.03.04-.04.04-.02.07-.04.06-.02.1-.03.08-.02.13-.02c.07,0,.17-.02.29-.02s.25-.01.39-.02.27,0,.4-.01.24,0,.34,0c.08,0,.15,0,.21-.01s.11-.02.15-.03.06-.02.07-.04,0-.03-.01-.05l-.16-.12s-.06-.03-.11-.05-.11-.03-.18-.04-.15-.02-.23-.03-.17,0-.25,0h-11.16c-.07,0-.12.01-.17.03s-.08.02-.09.04-.02.03,0,.05l.13.12s.05.03.1.05.11.03.17.04.14.02.23.03.17,0,.25,0h1.15c.09,0,.19,0,.28.02s.18.01.28.02c.05,0,.1.01.16.02s.12.01.17.02.11.02.16.03.09.02.12.03c.05.02.1.04.15.07s.1.06.15.09.09.07.13.1.07.06.09.07l1.07.95c-.1,0-.2.01-.3.02s-.2.01-.3.02-.21.01-.31.02-.21.01-.31.02c-.12,0-.25.01-.37.02s-.25,0-.38.01-.26,0-.39,0h-.4c-.35,0-.69,0-1.03-.01s-.68-.02-1.02-.04-.67-.04-1-.07-.65-.07-.97-.11c-.35-.04-.67-.1-.96-.15s-.56-.12-.81-.18-.47-.13-.67-.2-.38-.14-.55-.2c-.23-.1-.44-.2-.63-.29s-.36-.2-.51-.3-.28-.2-.4-.3-.22-.2-.31-.29c-.08-.09-.15-.18-.2-.27s-.09-.17-.12-.26-.04-.17-.03-.26.02-.17.06-.25c.03-.07.08-.14.14-.2s.16-.13.27-.19.25-.12.42-.17.36-.11.59-.15c.21-.04.44-.08.69-.11s.51-.06.8-.08.58-.03.89-.04.64-.01.98-.01c.4,0,.8,0,1.19.02s.78.03,1.16.06.76.06,1.13.09.74.08,1.11.13c.44.06.86.12,1.25.19s.76.14,1.1.22.66.16.96.24.57.17.83.26c.04.01.08.02.13.03s.1.02.16.03.12.01.19.02.13,0,.2,0h.79c.06,0,.12-.01.16-.02s.07-.02.08-.04.01-.03,0-.04l-1.95-1.54s-.05-.03-.1-.04-.1-.02-.17-.03-.14-.02-.21-.02h-.24"/>
    <path class="cls-94" d="M317.22,5.66h-1c-.71.02-1.35.07-1.93.13s-1.12.13-1.61.22-.96.18-1.41.27-.88.2-1.31.29l-36.82,8.24c-.27.06-.6.12-.98.18s-.79.11-1.21.17-.86.1-1.28.13-.82.07-1.18.08c-.39.02-.74.06-1.04.1s-.57.1-.79.16-.41.12-.56.17-.27.11-.35.15h17.91s.09-.03.15-.08.09-.12-.03-.2-.38-.17-.91-.25-1.3-.18-2.46-.26h-.55l17.45-4.01,11.23,4.05c-1.32.08-2.28.17-2.96.26s-1.1.18-1.35.25-.33.15-.35.2.02.08.02.08h18.58s-.05-.09-.12-.15-.16-.12-.3-.17-.33-.11-.57-.16-.54-.08-.92-.1c-.42-.02-.85-.06-1.26-.11s-.79-.1-1.11-.14-.6-.09-.8-.13-.31-.06-.31-.06l-14.79-4.97,17.99-4.14s-.08-.01-.22-.03-.35-.04-.62-.06-.59-.05-.97-.06-.8-.03-1.26-.03M286.56,5.61c-.52,0-1.02.02-1.48.04s-.88.05-1.24.09-.65.06-.86.09-.32.04-.32.04l10.8,3.9,4.89-1.08-7.53-2.53c-.31-.1-.64-.19-.99-.26s-.7-.12-1.07-.16-.73-.07-1.1-.09-.74-.03-1.1-.03"/>
  </g>
  <g>
    <path class="cls-98" d="M609.33,55.45l-.8-2.81c-.23-.75-.34-1.09-1.03-1.09-.63,0-.8.29-1.03,1.09l-.75,2.81c-.06.23,0,.29.23.29h.11c.23,0,.29-.06.34-.29l.23-.86h1.78l.23.86c.06.23.11.29.34.29h.11c.29,0,.29-.06.23-.29h.01ZM606.81,53.96l.4-1.38c.11-.34.17-.46.34-.46.23,0,.23.11.34.46l.34,1.38h-1.43,0Z"/>
    <path class="cls-98" d="M611.46,55.22c-.63,0-.75-.06-.75-.17,0-.17.11-.17.75-.17.97,0,1.38-.4,1.38-1.15v-.06c0-.29-.06-.46-.23-.63l.29-.29c.11-.11.11-.23,0-.34l-.06-.06c-.11-.11-.23-.11-.34,0l-.34.29c-.23-.06-.4-.11-.57-.11-.86,0-1.38.4-1.38,1.15v.06c0,.46.17.75.52.92-.29.06-.52.23-.52.52,0,.23.06.34.23.46-.17.11-.34.29-.34.63,0,.57.29.86,1.49.86,1.09,0,1.43-.29,1.43-.97-.06-.69-.4-.92-1.55-.92v-.02ZM610.77,53.61c0-.34.17-.57.75-.57s.69.23.69.57v.06c0,.34-.11.57-.69.57-.63,0-.75-.17-.75-.63h0ZM611.46,56.53c-.57,0-.8-.06-.8-.4,0-.11.06-.29.23-.4.17,0,.34.06.57.06.52,0,.8,0,.8.34,0,.4-.23.4-.8.4Z"/>
    <path class="cls-98" d="M618.57,54.87v-1.15c0-.23-.06-.29-.29-.29h-.06c-.23,0-.29.06-.29.29v1.15c0,.17-.06.29-.23.29h-.34c-.97,0-1.2-.4-1.2-.92v-1.03c0-.75.29-1.03,1.15-1.03.34,0,.75.11.92.17.23.06.23,0,.23-.23v-.11c0-.23-.06-.23-.23-.34-.11-.06-.4-.17-.92-.17-1.32,0-1.84.63-1.84,1.61v1.03c0,1.15.57,1.61,1.89,1.61.23,0,.4,0,.52-.06.52,0,.69-.29.69-.8v-.02Z"/>
    <path class="cls-98" d="M620.29,52.12c.23,0,.34-.17.34-.34s-.17-.34-.34-.34-.34.17-.34.34c-.06.17.11.34.34.34Z"/>
    <path class="cls-98" d="M622.18,54.53v-1.66c0-.23-.06-.29-.29-.29h-.06c-.23,0-.29.06-.29.29v1.66c0,.4-.11.63-.75.63-.57,0-.75-.23-.75-.63v-1.66c0-.23-.06-.29-.29-.29h-.06c-.23,0-.29.06-.29.29v1.66c0,.8.46,1.26,1.38,1.26,1.03,0,1.38-.46,1.38-1.26h.02Z"/>
    <path class="cls-98" d="M621.38,52.12c.17,0,.34-.17.34-.34s-.17-.34-.34-.34-.34.17-.34.34.17.34.34.34Z"/>
    <path class="cls-98" d="M623.5,54.93c.11.57.29.86.97.86s.8-.29.97-.86l.52-2.06c.06-.23,0-.29-.23-.29h-.11c-.23,0-.29.06-.34.29l-.52,2.06c-.06.29-.17.29-.34.29s-.23-.06-.34-.29l-.52-2.06c-.06-.23-.11-.29-.34-.29h-.11c-.23,0-.29.06-.23.29l.63,2.06h0Z"/>
    <path class="cls-98" d="M627.92,52.52c-1.03,0-1.38.57-1.38,1.38v.57c0,.97.52,1.38,1.55,1.38.34,0,.63-.06.8-.11.23-.06.29-.11.29-.29v-.17c0-.23-.06-.29-.29-.23-.17.06-.46.11-.8.11-.63,0-.92-.17-.92-.63v-.11h1.78c.23,0,.29-.06.34-.29v-.29c0-.86-.46-1.32-1.38-1.32h0ZM628.67,53.84h-1.49v-.17c0-.46.29-.63.75-.63s.75.17.75.63v.17h-.01Z"/>
    <path class="cls-98" d="M632.28,55.45c0,.23.06.29.29.29h.06c.23,0,.29-.06.29-.29v-1.72c0-.8-.4-1.2-1.38-1.2s-1.38.46-1.38,1.2v1.72c0,.23.06.29.29.29h.06c.23,0,.29-.06.29-.29v-1.72c0-.4.11-.63.75-.63.57,0,.75.23.75.63v1.72h-.02Z"/>
    <path class="cls-98" d="M634.8,55.16c-.17,0-.29-.11-.29-.46v-3.15c0-.23-.06-.29-.29-.29h-.06c-.23,0-.29.06-.29.29v3.27c0,.69.4.92.86.92h.11c.23-.06.29-.06.29-.29v-.06c-.11-.17-.11-.23-.34-.23h.01Z"/>
    <path class="cls-98" d="M636.12,52.01c.23,0,.4-.17.4-.4s-.17-.4-.4-.4-.4.17-.4.4.17.4.4.4Z"/>
    <path class="cls-98" d="M636.06,55.73h.06c.23,0,.29-.06.29-.29v-2.58c0-.23-.06-.29-.29-.29h-.06c-.23,0-.29.06-.29.29v2.58c0,.23.06.29.29.29Z"/>
    <path class="cls-98" d="M637.78,55.73h.06c.23,0,.29-.06.29-.29v-3.84c0-.23-.06-.29-.29-.29h-.06c-.23,0-.29.06-.29.29v3.84c0,.23.06.29.29.29Z"/>
    <path class="cls-98" d="M639.1,54.3c-.06-.06-.11-.17-.11-.23s.06-.17.11-.23l.86-.97c.17-.23.17-.29-.11-.29h-.11c-.29,0-.4.06-.57.29l-.57.63c-.23.23-.23.34-.23.52s.06.34.23.57l.69.8c.17.23.29.29.57.29h.11c.29,0,.29-.06.11-.29l-.97-1.09h-.01Z"/>
    <path class="cls-98" d="M645.12,54.93l.52-2.06c.06-.23,0-.29-.23-.29h-.11c-.23,0-.29.06-.34.29l-.52,2.06c-.06.29-.17.29-.34.29s-.23-.06-.34-.29l-.52-2.06c-.06-.23-.11-.29-.34-.29h-.11c-.23,0-.29.06-.23.29l.52,2.06c.11.57.29.86.97.86.8,0,.92-.29,1.09-.86h-.02Z"/>
    <path class="cls-98" d="M647.59,52.52c-1.03,0-1.38.57-1.38,1.38v.57c0,.97.52,1.38,1.55,1.38.34,0,.63-.06.8-.11.23-.06.29-.11.29-.29v-.17c0-.23-.06-.29-.29-.23-.17.06-.46.11-.8.11-.63,0-.92-.17-.92-.63v-.11h1.78c.23,0,.29-.06.34-.29v-.29c0-.86-.46-1.32-1.38-1.32h0ZM648.34,53.84h-1.49v-.17c0-.46.29-.63.75-.63s.75.17.75.63v.17h-.01Z"/>
    <path class="cls-98" d="M608.3,62.56h-1.38c-.17,0-.23-.06-.23-.23v-2.98c0-.23-.06-.29-.29-.29h-.06c-.23,0-.29.06-.29.29v3.1c0,.52.23.75.75.75h1.55c.23,0,.29-.06.29-.29v-.06c-.06-.23-.11-.29-.34-.29Z"/>
    <path class="cls-98" d="M610.65,59.98c-.97,0-1.43.52-1.43,1.38v.52c0,.86.4,1.38,1.43,1.38.97,0,1.43-.52,1.43-1.38v-.52c0-.86-.46-1.38-1.43-1.38ZM611.4,61.93c0,.52-.11.75-.8.75-.63,0-.8-.23-.8-.75v-.52c0-.52.17-.75.8-.75s.8.29.8.75v.52Z"/>
    <path class="cls-98" d="M614.27,62.67c-.57,0-.75-.06-.75-.17,0-.17.11-.23.75-.23.97,0,1.38-.4,1.38-1.15v-.06c0-.29-.06-.46-.23-.63l.23-.29c.11-.11.11-.23,0-.34l-.06-.06c-.11-.11-.23-.11-.34,0l-.34.29c-.17-.06-.4-.11-.57-.11-.86,0-1.38.4-1.38,1.15v.06c0,.46.17.75.52.92-.29.06-.52.23-.52.52,0,.23.06.34.23.46-.17.11-.34.29-.34.63,0,.57.29.86,1.43.86s1.43-.23,1.43-.97c0-.63-.34-.86-1.43-.86v-.02ZM613.52,61.12c0-.34.17-.57.75-.57s.69.23.69.57v.06c0,.34-.11.57-.69.57s-.75-.23-.75-.63h0ZM614.27,64.04c-.57,0-.8-.06-.8-.4,0-.11.06-.29.23-.4.17,0,.34.06.57.06.52,0,.8,0,.8.34s-.29.4-.8.4Z"/>
    <path class="cls-98" d="M617.42,62.62c-.17,0-.29-.11-.29-.46v-3.15c0-.23-.06-.29-.29-.29h-.06c-.23,0-.29.06-.29.29v3.27c0,.69.4.92.86.92h.11c.23-.06.29-.06.29-.29v-.06c-.11-.17-.11-.23-.34-.23h.01Z"/>
    <path class="cls-98" d="M619.37,59.98c-.34,0-.46.06-.63.06-.17.06-.23.06-.23.29v.11c0,.17.06.23.23.17.11,0,.34-.06.69-.06.46,0,.75.11.75.46v.29h-.69c-.8,0-1.26.23-1.26.97,0,.69.46.97,1.26.97.92,0,1.38-.34,1.38-1.03v-1.2c-.06-.75-.63-1.03-1.49-1.03h-.01ZM620.17,62.22c0,.46-.29.52-.69.52-.34,0-.63-.06-.63-.46,0-.34.23-.46.63-.46h.69s0,.4,0,.4Z"/>
    <path class="cls-98" d="M624.88,59.98c-.46,0-.8.17-.97.46-.17-.29-.46-.46-.97-.46-.86,0-1.26.46-1.26,1.2v1.72c0,.23.06.29.29.29h.06c.23,0,.29-.06.29-.29v-1.72c0-.4.11-.63.63-.63s.63.23.63.63v1.72c0,.23.06.29.29.29h.06c.23,0,.29-.06.29-.29v-1.72c0-.4.11-.63.63-.63s.63.23.63.63v1.72c0,.23.06.29.29.29h.06c.23,0,.29-.06.29-.29v-1.72c.06-.75-.29-1.2-1.2-1.2h-.04Z"/>
    <path class="cls-98" d="M628.15,59.98c-.34,0-.46.06-.63.06-.17.06-.23.06-.23.29v.11c0,.17.06.23.23.17.11,0,.34-.06.69-.06.46,0,.75.11.75.46v.29h-.69c-.8,0-1.26.23-1.26.97,0,.69.46.97,1.26.97.92,0,1.32-.34,1.32-1.03v-1.2c-.06-.75-.63-1.03-1.43-1.03h-.01ZM628.9,62.22c0,.46-.29.52-.69.52-.34,0-.63-.06-.63-.46,0-.34.23-.46.63-.46h.69s0,.4,0,.4Z"/>
    <path class="cls-98" d="M634.23,61.07l-.92-.57c-.29-.17-.4-.29-.4-.52,0-.29.23-.4.69-.4s.69.06.92.11c.23.06.23,0,.23-.23v-.11c0-.23-.06-.23-.29-.34-.17-.06-.4-.11-.86-.11-.97,0-1.38.34-1.38.97,0,.52.23.8.63,1.03l.86.52c.4.23.57.34.57.63,0,.34-.23.46-.8.46-.52,0-.8-.11-1.03-.17-.23-.06-.29,0-.29.23v.11c0,.23.06.23.23.34.17.06.46.17,1.03.17,1.03,0,1.49-.34,1.49-1.09.06-.46-.29-.75-.69-1.03h.01Z"/>
    <path class="cls-98" d="M636.23,58.72c-.23,0-.4.17-.4.4s.17.4.4.4.4-.17.4-.4-.23-.4-.4-.4Z"/>
    <path class="cls-98" d="M636.23,60.03h-.06c-.23,0-.29.06-.29.29v2.58c0,.23.06.29.29.29h.06c.23,0,.29-.06.29-.29v-2.58c0-.23-.06-.29-.29-.29Z"/>
    <path class="cls-98" d="M639.16,61.47l-.75-.34c-.23-.11-.29-.17-.29-.34s.11-.29.57-.29c.4,0,.57.06.75.11.23.06.29,0,.29-.23v-.06c0-.23-.06-.23-.29-.34-.17-.06-.4-.11-.75-.11-.86,0-1.2.29-1.2.86,0,.52.23.69.63.86l.69.29c.29.11.4.23.4.4,0,.23-.17.29-.57.29-.46,0-.75-.06-.92-.11-.23-.06-.23,0-.23.23v.06c0,.23.06.23.23.29s.46.11.86.11c.92,0,1.26-.29,1.26-.86,0-.4-.23-.63-.69-.8v-.02Z"/>
    <path class="cls-98" d="M642.66,62.62c-.06,0-.29.06-.52.06-.29,0-.52-.11-.52-.57v-1.43h.86c.23,0,.29-.06.29-.29v-.06c0-.23-.06-.29-.29-.29h-.86v-.57c0-.17-.06-.23-.23-.23h-.06c-.17,0-.23.06-.29.23l-.06.57-.34.06c-.17.06-.23.06-.23.29v.06c0,.17.06.23.23.23h.34v1.43c0,.86.46,1.15,1.15,1.15.23,0,.4-.06.52-.06.23-.06.29-.11.29-.34v-.06c0-.17-.06-.23-.29-.17h0Z"/>
    <path class="cls-98" d="M645.01,59.98c-1.03,0-1.38.57-1.38,1.38v.57c0,.97.52,1.38,1.55,1.38.34,0,.63-.06.8-.11.23-.06.29-.11.29-.29v-.06c0-.23-.06-.29-.29-.23-.17.06-.46.11-.8.11-.63,0-.92-.17-.92-.63v-.11h1.78c.23,0,.29-.06.34-.29v-.29c-.06-.97-.52-1.43-1.38-1.43h0ZM645.7,61.36h-1.49v-.17c0-.46.29-.63.75-.63s.75.17.75.63v.17h-.01Z"/>
    <path class="cls-98" d="M650.4,59.98c-.46,0-.8.17-.97.46-.17-.29-.46-.46-.97-.46-.86,0-1.26.46-1.26,1.2v1.72c0,.23.06.29.29.29h.06c.23,0,.29-.06.29-.29v-1.72c0-.4.11-.63.63-.63s.63.23.63.63v1.72c0,.23.06.29.29.29h.06c.23,0,.29-.06.29-.29v-1.72c0-.4.11-.63.63-.63s.63.23.63.63v1.72c0,.23.06.29.29.29h.06c.23,0,.29-.06.29-.29v-1.72c.06-.75-.29-1.2-1.2-1.2h-.04Z"/>
    <path class="cls-98" d="M652.98,59.52c.23,0,.4-.17.4-.4s-.17-.4-.4-.4-.4.17-.4.4c0,.17.23.4.4.4Z"/>
    <path class="cls-98" d="M653.04,60.03h-.06c-.23,0-.29.06-.29.29v2.58c0,.23.06.29.29.29h.06c.23,0,.29-.06.29-.29v-2.58c0-.23-.06-.29-.29-.29Z"/>
    <path class="cls-98" d="M611,52.12c.06.06.11.11.17.17s.17.06.29.06.17,0,.29-.06c.06-.06.17-.06.17-.17.06-.06.11-.11.11-.23,0-.06.06-.17.06-.23v-.06h-.29v.06c0,.11,0,.17-.06.23s-.11.06-.23.06-.17,0-.23-.06-.06-.11-.06-.23v-.06h-.29v.06c0,.06,0,.17.06.23-.11.11-.06.17,0,.23h.01Z"/>
  </g>
  <g>
    <path class="cls-104" d="M481.16,63.67c-.21,0-.4-.03-.59-.09s-.34-.14-.44-.25l.14-.3c.1.09.23.16.39.22s.33.09.5.09c.16,0,.29-.02.38-.05.1-.04.17-.09.22-.15s.07-.13.07-.21c0-.09-.03-.17-.09-.22s-.14-.1-.24-.14c-.1-.03-.2-.06-.32-.09s-.23-.06-.35-.09c-.12-.04-.22-.08-.32-.13s-.17-.13-.23-.22-.09-.21-.09-.35.04-.27.11-.38.19-.21.34-.28.35-.11.58-.11c.16,0,.31.02.47.06s.29.1.4.18l-.13.31c-.12-.08-.24-.13-.37-.17-.13-.03-.25-.05-.37-.05-.15,0-.28.02-.38.06s-.17.09-.21.15-.07.14-.07.22c0,.1.03.17.09.23s.14.1.24.13c.1.03.2.06.32.09s.23.06.35.09.22.08.32.13.17.13.23.22.09.21.09.35-.04.26-.11.38c-.08.12-.19.21-.35.28s-.35.11-.59.11v-.02h0Z"/>
    <path class="cls-104" d="M483.16,63.63h-.39v-2.7h1.91v.34h-1.52v2.37h0ZM483.12,62.21h1.39v.33h-1.39v-.33Z"/>
    <path class="cls-104" d="M485.22,63.63v-2.7h1.05c.24,0,.44.04.61.11.17.07.3.18.39.32s.13.31.13.51-.04.36-.13.5-.22.25-.39.32c-.17.08-.37.11-.61.11h-.84l.17-.18v1h-.39.01ZM485.61,62.67l-.17-.19h.83c.25,0,.43-.05.56-.16s.19-.25.19-.45-.06-.34-.19-.45-.31-.16-.56-.16h-.83l.17-.19v1.6Z"/>
    <path class="cls-104" d="M488.24,63.63v-2.55l.17.18h-.78v-.34h.99v2.7h-.38Z"/>
  </g>
  <g>
    <path class="cls-104" d="M503.96,63.67c-.21,0-.4-.03-.59-.09s-.34-.14-.44-.25l.14-.3c.1.09.23.16.39.22s.33.09.5.09c.16,0,.29-.02.38-.05.1-.04.17-.09.22-.15s.07-.13.07-.21c0-.09-.03-.17-.09-.22s-.14-.1-.24-.14c-.1-.03-.2-.06-.32-.09s-.23-.06-.35-.09c-.12-.04-.22-.08-.32-.13s-.17-.13-.23-.22-.09-.21-.09-.35.04-.27.11-.38.19-.21.34-.28.35-.11.58-.11c.16,0,.31.02.47.06s.29.1.4.18l-.13.31c-.12-.08-.24-.13-.37-.17-.13-.03-.25-.05-.37-.05-.15,0-.28.02-.38.06s-.17.09-.21.15-.07.14-.07.22c0,.1.03.17.09.23s.14.1.24.13c.1.03.2.06.32.09s.23.06.35.09.22.08.32.13.17.13.23.22.09.21.09.35-.04.26-.11.38c-.08.12-.19.21-.35.28s-.35.11-.59.11v-.02h0Z"/>
    <path class="cls-104" d="M505.96,63.63h-.39v-2.7h1.91v.34h-1.52v2.37h0ZM505.92,62.21h1.39v.33h-1.39v-.33Z"/>
    <path class="cls-104" d="M508.02,63.63v-2.7h1.05c.24,0,.44.04.61.11.17.07.3.18.39.32s.13.31.13.51-.04.36-.13.5-.22.25-.39.32c-.17.08-.37.11-.61.11h-.84l.17-.18v1h-.39.01ZM508.41,62.67l-.17-.19h.83c.25,0,.43-.05.56-.16s.19-.25.19-.45-.06-.34-.19-.45-.31-.16-.56-.16h-.83l.17-.19v1.6Z"/>
    <path class="cls-104" d="M510.53,63.63v-.26l1.1-1.06c.1-.09.17-.17.22-.25.05-.07.08-.14.1-.2s.03-.12.03-.18c0-.14-.05-.25-.15-.33s-.24-.12-.43-.12c-.14,0-.27.02-.39.07-.12.05-.22.12-.3.22l-.26-.23c.1-.13.24-.23.42-.3.17-.07.37-.11.57-.11s.35.03.49.09c.14.06.25.15.32.26.08.11.11.25.11.4,0,.09-.01.17-.04.26-.02.08-.07.18-.13.27-.06.1-.16.2-.28.32l-.98.95-.09-.15h1.63v.34h-1.94Z"/>
  </g>
  <rect class="cls-104" x="474" y="66.63" width="21.36" height="14.16" rx="1.29" ry="1.29"/>
  <rect class="cls-104" x="497.09" y="66.63" width="21.36" height="14.16" rx="1.29" ry="1.29"/>
  <g>
    <path class="cls-77" d="M515.49,79.51h-16.14c-.52,0-.94-.42-.94-.94v-9.76c0-.52.42-.94.94-.94h16.14c.52,0,.94.42.94.94v9.76c0,.52-.42.94-.94.94Z"/>
    <path class="cls-82" d="M499.11,68.04c.29-.35,14.63-.11,15.42-.18.41,0,.99.34.99.75.12.51.02,8.06.05,8.83.05.7.01,1.65-.85,1.74.15.16-15.07.04-15.56.08-.46,0-.81-.34-.81-.94v-9.3c0-.41.34-.97.75-.97h.01Z"/>
    <path class="cls-85" d="M498.86,68.22c.2-.72,13.98-.21,14.71-.35.31,0,1.04.25,1.04.56.25.42.05,7.95.11,8.67.21,1.47-.59,1.96-1.93,1.9h-13.82c-.41,0-.67-.25-.67-.94v-8.84c0-.31.25-1.01.56-1.01h0Z"/>
    <path class="cls-100" d="M498.61,68.39c0-.29.91-.53,1.2-.53.44.15,14.09-.39,13.88.38.39.31.06,7.86.16,8.51.22,1.27-.55,2.07-1.78,2h-13.3c-.36,0-.54-.17-.54-.93.17-.89-.42-8.9.38-9.42h0Z"/>
    <path class="cls-79" d="M498.37,68.57c0-.39.65-.7,1.04-.7.96.12,12.88-.25,13.38.19.53.14.07,7.77.22,8.35.01.75.05,1.39-.58,1.79.55.54-13.65.23-13.83.3-.36.12-.44-.51-.4-1.17.06-.66-.18-8.43.19-8.76h-.02,0Z"/>
    <path class="cls-89" d="M510.66,78.24h-12.26c-.18,0-.27-.39-.27-1.16v-8.34c0-.48.39-.88.88-.88h12.87c.27,0,.27.02.27,1.02.02.33,0,7.85-.01,7.9h0c0,.8-.66,1.45-1.48,1.45h0Z"/>
  </g>
  <g>
    <g id="_Grid_Repeat_" data-name=" Grid Repeat ">
      <g>
        <path class="cls-93" d="M286.23,61.89h-8.08v-1.89h8.08v1.89ZM278.28,61.75h7.8v-1.62h-7.8v1.62Z"/>
        <path class="cls-93" d="M286.23,61.89h-8.08v-1.89h8.08v1.89ZM278.28,61.75h7.8v-1.62h-7.8v1.62Z"/>
        <path class="cls-93" d="M286.23,61.89h-8.08v-1.89h8.08v1.89ZM278.28,61.75h7.8v-1.62h-7.8v1.62Z"/>
        <path class="cls-93" d="M286.23,61.89h-8.08v-1.89h8.08v1.89ZM278.28,61.75h7.8v-1.62h-7.8v1.62Z"/>
        <path class="cls-104" d="M295.16,58.16h-25.94c-.63,0-1.13.49-1.13,1.13v20.81c0,.63.49,1.13,1.13,1.13h25.94c.63,0,1.13-.49,1.13-1.13v-20.81c0-.56-.49-1.13-1.13-1.13Z"/>
        <rect class="cls-80" x="270.77" y="60.84" width="22.83" height="17.7"/>
        <path class="cls-104" d="M294.17,59h-23.9c-.63,0-1.13.49-1.13,1.13v19.47c0,.63.49,1.13,1.13,1.13h23.9c.63,0,1.13-.49,1.13-1.13v-19.47c-.07-.56-.56-1.13-1.13-1.13ZM294.88,79.18c0,.42-.21.71-.56.91h-24.32c-.35-.21-.56-.56-.56-.91v-18.07c0-.63.49-1.13,1.13-1.13h23.2c.63,0,1.13.49,1.13,1.13v18.07h0Z"/>
        <rect class="cls-99" x="278.22" y="60.06" width="7.95" height="1.76"/>
        <g>
          <path class="cls-86" d="M275.62,61.75c-.07,0-.14-.07-.21-.07h-3.93c-.14,0-.21.07-.28.14l-.07.07-.07.07v3.09c0,.07,0,.14.07.21,0,0,0,.07.07.07.07.07.14.14.28.14h4.08c.14-.07.28-.21.28-.42v-2.95c0-.14-.14-.28-.21-.35h0v-.02ZM275.4,64.77c0,.14-.07.21-.14.28s-.21.14-.28.14h-3.16c-.21,0-.42-.21-.42-.42v-2.32c0-.21.21-.42.42-.42h3.16c.14,0,.21.07.28.14s.14.14.14.28v2.32h0Z"/>
          <path class="cls-86" d="M292.9,61.75h-3.93c-.07,0-.14,0-.21.07-.14.07-.21.21-.21.35v2.95c0,.21.21.42.42.42h3.93c.21,0,.42-.21.42-.42v-2.95c0-.28-.14-.42-.42-.42h0ZM292.98,64.77c0,.21-.21.42-.42.42h-3.16c-.07,0-.21-.07-.28-.14s-.14-.21-.14-.28v-2.32c0-.14.07-.21.14-.28s.21-.14.28-.14h3.16c.21,0,.42.21.42.42v2.32h0Z"/>
          <path class="cls-107" d="M292.98,62.45v2.32c0,.21-.21.42-.42.42h-3.16c-.07,0-.21-.07-.28-.14s-.14-.21-.14-.28v-2.32c0-.14.07-.21.14-.28s.21-.14.28-.14h3.16c.21,0,.42.21.42.42h0Z"/>
        </g>
        <path class="cls-65" d="M294.88,61.11v18.07c0,.42-.21.71-.56.91h-24.32c-.35-.21-.56-.56-.56-.91v-18.07c0-.63.49-1.13,1.13-1.13h7.59v1.76h-2.67c-.07,0-.14-.07-.21-.07h-3.93c-.14,0-.21.07-.28.14l-.07.07-.07.07v3.09c0,.07,0,.14.07.21,0,0,0,.07.07.07.07.07.14.14.28.14h.98v4.15h-.28v3.8h.28v4.08h19.47v-4.08h.28v-3.8h-.28v-4.15h.98c.21,0,.42-.21.42-.42v-2.95c0-.21-.21-.42-.42-.42h-3.93c-.07,0-.14,0-.21.07h-2.67v-1.76h7.59c.84,0,1.33.49,1.33,1.13h0l.02-.02Z"/>
        <path class="cls-89" d="M290.45,65.55v8.57h-15.12v-8.57h.21c.14-.07.28-.21.28-.42v-2.95c0-.14-.07-.28-.28-.35h13.21c-.14.07-.21.21-.21.35v2.95c0,.21.21.42.42.42h1.48Z"/>
        <g>
          <path class="cls-63" d="M291.71,69.55h.71v3.8h-.71v-3.8h0Z"/>
          <path class="cls-69" d="M271.96,69.55h.71v3.8h-.71v-3.8h0Z"/>
        </g>
        <g>
          <path class="cls-86" d="M291.15,72.29h-.49v2.32h-2.11v.49l.14,2.39h3.24v-3.51l-.78-1.69h0Z"/>
          <path class="cls-86" d="M276.25,74.61v-2.32h-.49l-3.24,1.69v3.51h3.31l2.6-2.39v-.49h-2.18Z"/>
        </g>
        <g>
          <polygon class="cls-106" points="275.69 76.86 275.69 77.43 272.45 77.43 272.45 73.98 273.02 73.98 273.02 76.86 275.69 76.86"/>
          <polygon class="cls-106" points="291.92 73.98 291.92 77.43 288.62 77.43 288.62 76.86 291.29 76.86 291.29 73.98 291.92 73.98"/>
        </g>
        <path class="cls-73" d="M275.4,62.45v2.32c0,.14-.07.21-.14.28s-.21.14-.28.14h-3.16c-.21,0-.42-.21-.42-.42v-2.32c0-.21.21-.42.42-.42h3.16c.14,0,.21.07.28.14.14.07.14.21.14.28h0Z"/>
      </g>
      <g>
        <polygon class="cls-70" points="280.11 72.71 278 74.33 277.44 77.43 277.65 77.43 278.22 74.33 280.26 72.71 280.11 72.71"/>
        <polygon class="cls-68" points="281.02 72.71 279.27 74.33 279.13 77.43 279.42 77.43 279.55 74.33 281.17 72.71 281.02 72.71"/>
        <polygon class="cls-66" points="281.8 72.71 280.75 74.33 280.6 77.43 280.82 77.43 281.02 74.33 281.94 72.71 281.8 72.71"/>
        <polygon class="cls-67" points="286.09 72.71 287.08 74.33 287.35 77.43 287.15 77.43 286.79 74.33 285.95 72.71 286.09 72.71"/>
        <polygon class="cls-18" points="285.31 72.71 285.95 74.33 286.09 77.43 285.88 77.43 285.73 74.33 285.17 72.71 285.31 72.71"/>
        <polygon class="cls-15" points="284.4 72.71 284.82 74.33 284.97 77.43 284.68 77.43 284.55 74.33 284.26 72.71 284.4 72.71"/>
        <polygon class="cls-16" points="283.56 72.71 283.77 74.33 283.91 77.43 283.63 77.43 283.49 74.33 283.42 72.71 283.56 72.71"/>
        <polygon class="cls-17" points="282.57 72.71 282.22 74.33 282.29 77.43 282.51 77.43 282.44 74.33 282.71 72.71 282.57 72.71"/>
      </g>
    </g>
    <g id="_Grid_Repeat_-2" data-name=" Grid Repeat -2">
      <g>
        <path class="cls-93" d="M320.75,61.89h-8.08v-1.89h8.08v1.89ZM312.8,61.75h7.8v-1.62h-7.8v1.62Z"/>
        <path class="cls-93" d="M320.75,61.89h-8.08v-1.89h8.08v1.89ZM312.8,61.75h7.8v-1.62h-7.8v1.62Z"/>
        <path class="cls-93" d="M320.75,61.89h-8.08v-1.89h8.08v1.89ZM312.8,61.75h7.8v-1.62h-7.8v1.62Z"/>
        <path class="cls-93" d="M320.75,61.89h-8.08v-1.89h8.08v1.89ZM312.8,61.75h7.8v-1.62h-7.8v1.62Z"/>
        <path class="cls-104" d="M329.67,58.16h-25.94c-.63,0-1.13.49-1.13,1.13v20.81c0,.63.49,1.13,1.13,1.13h25.94c.63,0,1.13-.49,1.13-1.13v-20.81c0-.56-.49-1.13-1.13-1.13Z"/>
        <rect class="cls-80" x="305.28" y="60.84" width="22.83" height="17.7"/>
        <path class="cls-104" d="M328.61,59h-23.9c-.63,0-1.13.49-1.13,1.13v19.47c0,.63.49,1.13,1.13,1.13h23.9c.63,0,1.13-.49,1.13-1.13v-19.47c0-.56-.49-1.13-1.13-1.13ZM329.39,79.18c0,.42-.21.71-.56.91h-24.32c-.35-.21-.56-.56-.56-.91v-18.07c0-.63.49-1.13,1.13-1.13h23.2c.63,0,1.13.49,1.13,1.13v18.07h0Z"/>
        <rect class="cls-99" x="312.73" y="60.06" width="7.95" height="1.76"/>
        <g>
          <path class="cls-86" d="M310.06,61.75c-.07,0-.14-.07-.21-.07h-3.93c-.14,0-.21.07-.28.14l-.07.07-.07.07v3.09c0,.07,0,.14.07.21,0,0,0,.07.07.07.07.07.14.14.28.14h4.08c.14-.07.28-.21.28-.42v-2.95c0-.14-.07-.28-.21-.35h0v-.02ZM309.91,64.77c0,.14-.07.21-.14.28s-.21.14-.28.14h-3.16c-.21,0-.42-.21-.42-.42v-2.32c0-.21.21-.42.42-.42h3.16c.14,0,.21.07.28.14s.14.14.14.28v2.32h0Z"/>
          <path class="cls-86" d="M327.42,61.75h-3.93c-.07,0-.14,0-.21.07-.14.07-.21.21-.21.35v2.95c0,.21.21.42.42.42h3.93c.21,0,.42-.21.42-.42v-2.95c0-.28-.21-.42-.42-.42h0ZM327.5,64.77c0,.21-.21.42-.42.42h-3.16c-.07,0-.21-.07-.28-.14s-.14-.21-.14-.28v-2.32c0-.14.07-.21.14-.28s.21-.14.28-.14h3.16c.21,0,.42.21.42.42v2.32h0Z"/>
          <path class="cls-107" d="M327.5,62.45v2.32c0,.21-.21.42-.42.42h-3.16c-.07,0-.21-.07-.28-.14s-.14-.21-.14-.28v-2.32c0-.14.07-.21.14-.28s.21-.14.28-.14h3.16c.21,0,.42.21.42.42h0Z"/>
        </g>
        <path class="cls-26" d="M329.39,61.11v18.07c0,.42-.21.71-.56.91h-24.32c-.35-.21-.56-.56-.56-.91v-18.07c0-.63.49-1.13,1.13-1.13h7.59v1.76h-2.67c-.07,0-.14-.07-.21-.07h-3.93c-.14,0-.21.07-.28.14l-.07.07-.07.07v3.09c0,.07,0,.14.07.21,0,0,0,.07.07.07.07.07.14.14.28.14h.98v4.15h-.28v3.8h.28v4.08h19.47v-4.08h.28v-3.8h-.28v-4.15h.98c.21,0,.42-.21.42-.42v-2.95c0-.21-.21-.42-.42-.42h-3.93c-.07,0-.14,0-.21.07h-2.67v-1.76h7.59c.84,0,1.33.49,1.33,1.13h0l.02-.02Z"/>
        <path class="cls-89" d="M324.97,65.55v8.57h-15.12v-8.57h.21c.14-.07.28-.21.28-.42v-2.95c0-.14-.07-.28-.28-.35h13.21c-.14.07-.21.21-.21.35v2.95c0,.21.21.42.42.42h1.48Z"/>
        <g>
          <path class="cls-22" d="M326.23,69.55h.71v3.8h-.71v-3.8h0Z"/>
          <path class="cls-20" d="M306.47,69.55h.71v3.8h-.71v-3.8h0Z"/>
        </g>
        <g>
          <path class="cls-86" d="M325.59,72.29h-.49v2.32h-2.11v.49l.14,2.39h3.24v-3.51l-.78-1.69h0Z"/>
          <path class="cls-86" d="M310.69,74.61v-2.32h-.49l-3.24,1.69v3.51h3.31l2.6-2.39v-.49h-2.18Z"/>
        </g>
        <g>
          <polygon class="cls-106" points="310.2 76.86 310.2 77.43 306.89 77.43 306.89 73.98 307.53 73.98 307.53 76.86 310.2 76.86"/>
          <polygon class="cls-106" points="326.44 73.98 326.44 77.43 323.13 77.43 323.13 76.86 325.81 76.86 325.81 73.98 326.44 73.98"/>
        </g>
        <path class="cls-73" d="M309.92,62.45v2.32c0,.14-.07.21-.14.28s-.21.14-.28.14h-3.16c-.21,0-.42-.21-.42-.42v-2.32c0-.21.21-.42.42-.42h3.16c.14,0,.21.07.28.14.14.07.14.21.14.28h0Z"/>
      </g>
      <g>
        <polygon class="cls-19" points="314.63 72.71 312.52 74.33 311.89 77.43 312.17 77.43 312.73 74.33 314.77 72.71 314.63 72.71"/>
        <polygon class="cls-25" points="315.55 72.71 313.78 74.33 313.64 77.43 313.86 77.43 314.07 74.33 315.68 72.71 315.55 72.71"/>
        <polygon class="cls-21" points="316.31 72.71 315.26 74.33 315.13 77.43 315.33 77.43 315.55 74.33 316.46 72.71 316.31 72.71"/>
        <polygon class="cls-28" points="320.6 72.71 321.52 74.33 321.87 77.43 321.59 77.43 321.31 74.33 320.46 72.71 320.6 72.71"/>
        <polygon class="cls-24" points="319.83 72.71 320.46 74.33 320.6 77.43 320.33 77.43 320.18 74.33 319.69 72.71 319.83 72.71"/>
        <polygon class="cls-27" points="318.92 72.71 319.34 74.33 319.48 77.43 319.2 77.43 319.06 74.33 318.77 72.71 318.92 72.71"/>
        <polygon class="cls-23" points="318.08 72.71 318.28 74.33 318.35 77.43 318.15 77.43 318 74.33 317.93 72.71 318.08 72.71"/>
        <polygon class="cls-30" points="317.09 72.71 316.67 74.33 316.81 77.43 317.02 77.43 316.95 74.33 317.23 72.71 317.09 72.71"/>
      </g>
    </g>
    <g id="_Grid_Repeat_-3" data-name=" Grid Repeat -3">
      <g>
        <path class="cls-93" d="M355.26,61.89h-8.08v-1.89h8.08v1.89ZM347.31,61.75h7.8v-1.62h-7.8v1.62Z"/>
        <path class="cls-93" d="M355.26,61.89h-8.08v-1.89h8.08v1.89ZM347.31,61.75h7.8v-1.62h-7.8v1.62Z"/>
        <path class="cls-93" d="M355.26,61.89h-8.08v-1.89h8.08v1.89ZM347.31,61.75h7.8v-1.62h-7.8v1.62Z"/>
        <path class="cls-93" d="M355.26,61.89h-8.08v-1.89h8.08v1.89ZM347.31,61.75h7.8v-1.62h-7.8v1.62Z"/>
        <path class="cls-104" d="M364.19,58.16h-25.94c-.63,0-1.13.49-1.13,1.13v20.81c0,.63.49,1.13,1.13,1.13h25.94c.63,0,1.13-.49,1.13-1.13v-20.81c0-.56-.49-1.13-1.13-1.13Z"/>
        <rect class="cls-80" x="339.8" y="60.84" width="22.83" height="17.7"/>
        <path class="cls-104" d="M363.13,59h-23.9c-.63,0-1.13.49-1.13,1.13v19.47c0,.63.49,1.13,1.13,1.13h23.9c.63,0,1.13-.49,1.13-1.13v-19.47c0-.56-.49-1.13-1.13-1.13ZM363.91,79.18c0,.42-.21.71-.56.91h-24.32c-.35-.21-.56-.56-.56-.91v-18.07c0-.63.49-1.13,1.13-1.13h23.2c.63,0,1.13.49,1.13,1.13v18.07h0Z"/>
        <rect class="cls-99" x="347.24" y="60.06" width="7.95" height="1.76"/>
        <g>
          <path class="cls-86" d="M344.58,61.75c-.07,0-.14-.07-.21-.07h-3.93c-.14,0-.21.07-.28.14l-.07.07-.07.07v3.09c0,.07,0,.14.07.21,0,0,0,.07.07.07.07.07.14.14.28.14h4.08c.14-.07.28-.21.28-.42v-2.95c0-.14-.07-.28-.21-.35h0v-.02ZM344.44,64.77c0,.14-.07.21-.14.28s-.21.14-.28.14h-3.16c-.21,0-.42-.21-.42-.42v-2.32c0-.21.21-.42.42-.42h3.16c.14,0,.21.07.28.14s.14.14.14.28v2.32h0Z"/>
          <path class="cls-86" d="M361.94,61.75h-3.93c-.07,0-.14,0-.21.07-.14.07-.21.21-.21.35v2.95c0,.21.21.42.42.42h3.93c.21,0,.42-.21.42-.42v-2.95c0-.28-.21-.42-.42-.42h0ZM361.94,64.77c0,.21-.21.42-.42.42h-3.16c-.07,0-.21-.07-.28-.14s-.14-.21-.14-.28v-2.32c0-.14.07-.21.14-.28s.21-.14.28-.14h3.16c.21,0,.42.21.42.42v2.32h0Z"/>
          <path class="cls-107" d="M361.94,62.45v2.32c0,.21-.21.42-.42.42h-3.16c-.07,0-.21-.07-.28-.14s-.14-.21-.14-.28v-2.32c0-.14.07-.21.14-.28s.21-.14.28-.14h3.16c.28,0,.42.21.42.42h0Z"/>
        </g>
        <path class="cls-14" d="M363.9,61.11v18.07c0,.42-.21.71-.56.91h-24.32c-.35-.21-.56-.56-.56-.91v-18.07c0-.63.49-1.13,1.13-1.13h7.59v1.76h-2.67c-.07,0-.14-.07-.21-.07h-3.93c-.14,0-.21.07-.28.14l-.07.07-.07.07v3.09c0,.07,0,.14.07.21,0,0,0,.07.07.07.07.07.14.14.28.14h.98v4.15h-.28v3.8h.28v4.08h19.61v-4.08h.28v-3.8h-.28v-4.15h.98c.21,0,.42-.21.42-.42v-2.95c0-.21-.21-.42-.42-.42h-3.93c-.07,0-.14,0-.21.07h-2.67v-1.76h7.59c.71,0,1.2.49,1.2,1.13h0v-.02Z"/>
        <path class="cls-89" d="M359.41,65.55v8.57h-15.12v-8.57h.21c.14-.07.28-.21.28-.42v-2.95c0-.14-.07-.28-.28-.35h13.21c-.14.07-.21.21-.21.35v2.95c0,.21.21.42.42.42h1.48Z"/>
        <g>
          <path class="cls-31" d="M360.74,69.55h.71v3.8h-.71v-3.8h0Z"/>
          <path class="cls-29" d="M340.99,69.55h.71v3.8h-.71v-3.8h0Z"/>
        </g>
        <g>
          <path class="cls-86" d="M360.11,72.29h-.49v2.32h-2.11v.49l.14,2.39h3.24v-3.51l-.78-1.69h0Z"/>
          <path class="cls-86" d="M345.2,74.61v-2.32h-.49l-3.24,1.69v3.51h3.31l2.6-2.39v-.49h-2.18Z"/>
        </g>
        <g>
          <polygon class="cls-106" points="344.71 76.86 344.71 77.43 341.41 77.43 341.41 73.98 342.05 73.98 342.05 76.86 344.71 76.86"/>
          <polygon class="cls-106" points="360.88 73.98 360.88 77.43 357.65 77.43 357.65 76.86 360.32 76.86 360.32 73.98 360.88 73.98"/>
        </g>
        <path class="cls-73" d="M344.44,62.45v2.32c0,.14-.07.21-.14.28s-.21.14-.28.14h-3.16c-.21,0-.42-.21-.42-.42v-2.32c0-.21.21-.42.42-.42h3.16c.14,0,.21.07.28.14s.14.21.14.28h0Z"/>
      </g>
      <g>
        <polygon class="cls-13" points="349.15 72.71 346.96 74.33 346.4 77.43 346.62 77.43 347.24 74.33 349.29 72.71 349.15 72.71"/>
        <polygon class="cls-4" points="350.06 72.71 348.3 74.33 348.16 77.43 348.37 77.43 348.58 74.33 350.2 72.71 350.06 72.71"/>
        <polygon class="cls-6" points="350.84 72.71 349.78 74.33 349.64 77.43 349.84 77.43 349.99 74.33 350.97 72.71 350.84 72.71"/>
        <polygon class="cls-7" points="355.12 72.71 356.03 74.33 356.39 77.43 356.1 77.43 355.82 74.33 354.98 72.71 355.12 72.71"/>
        <polygon class="cls-5" points="354.35 72.71 354.98 74.33 355.05 77.43 354.84 77.43 354.7 74.33 354.13 72.71 354.35 72.71"/>
        <polygon class="cls-3" points="353.44 72.71 353.86 74.33 353.93 77.43 353.71 77.43 353.57 74.33 353.29 72.71 353.44 72.71"/>
        <polygon class="cls-10" points="352.59 72.71 352.73 74.33 352.87 77.43 352.66 77.43 352.52 74.33 352.38 72.71 352.59 72.71"/>
        <polygon class="cls-12" points="351.53 72.71 351.18 74.33 351.26 77.43 351.53 77.43 351.46 74.33 351.75 72.71 351.53 72.71"/>
      </g>
    </g>
    <g id="_Grid_Repeat_-4" data-name=" Grid Repeat -4">
      <g>
        <path class="cls-93" d="M389.77,61.89h-8.08v-1.89h8.08v1.89ZM381.83,61.75h7.8v-1.62h-7.8v1.62Z"/>
        <path class="cls-93" d="M389.77,61.89h-8.08v-1.89h8.08v1.89ZM381.83,61.75h7.8v-1.62h-7.8v1.62Z"/>
        <path class="cls-93" d="M389.77,61.89h-8.08v-1.89h8.08v1.89ZM381.83,61.75h7.8v-1.62h-7.8v1.62Z"/>
        <path class="cls-93" d="M389.77,61.89h-8.08v-1.89h8.08v1.89ZM381.83,61.75h7.8v-1.62h-7.8v1.62Z"/>
        <path class="cls-104" d="M398.7,58.16h-25.94c-.63,0-1.13.49-1.13,1.13v20.81c0,.63.49,1.13,1.13,1.13h25.94c.63,0,1.13-.49,1.13-1.13v-20.81c-.07-.56-.56-1.13-1.13-1.13Z"/>
        <rect class="cls-80" x="374.32" y="60.84" width="22.83" height="17.7"/>
        <path class="cls-104" d="M397.65,59h-23.9c-.63,0-1.13.49-1.13,1.13v19.47c0,.63.49,1.13,1.13,1.13h23.9c.63,0,1.13-.49,1.13-1.13v-19.47c0-.56-.49-1.13-1.13-1.13ZM398.35,79.18c0,.42-.21.71-.56.91h-24.32c-.35-.21-.56-.56-.56-.91v-18.07c0-.63.49-1.13,1.13-1.13h23.2c.63,0,1.13.49,1.13,1.13v18.07h0Z"/>
        <rect class="cls-99" x="381.76" y="60.06" width="7.95" height="1.76"/>
        <g>
          <path class="cls-86" d="M379.09,61.75c-.07,0-.14-.07-.21-.07h-3.93c-.14,0-.21.07-.28.14l-.07.07-.07.07v3.09c0,.07,0,.14.07.21,0,0,0,.07.07.07.07.07.14.14.28.14h4.08c.14-.07.28-.21.28-.42v-2.95c0-.14-.07-.28-.21-.35h0v-.02ZM378.95,64.77c0,.14-.07.21-.14.28s-.21.14-.28.14h-3.16c-.21,0-.42-.21-.42-.42v-2.32c0-.21.21-.42.42-.42h3.16c.14,0,.21.07.28.14s.14.14.14.28v2.32h0Z"/>
          <path class="cls-86" d="M396.45,61.75h-3.93c-.07,0-.14,0-.21.07-.14.07-.21.21-.21.35v2.95c0,.21.21.42.42.42h3.93c.21,0,.42-.21.42-.42v-2.95c0-.28-.21-.42-.42-.42h0ZM396.45,64.77c0,.21-.21.42-.42.42h-3.16c-.07,0-.21-.07-.28-.14s-.14-.21-.14-.28v-2.32c0-.14.07-.21.14-.28s.21-.14.28-.14h3.16c.21,0,.42.21.42.42v2.32h0Z"/>
          <path class="cls-107" d="M396.45,62.45v2.32c0,.21-.21.42-.42.42h-3.16c-.07,0-.21-.07-.28-.14s-.14-.21-.14-.28v-2.32c0-.14.07-.21.14-.28s.21-.14.28-.14h3.16c.21,0,.42.21.42.42h0Z"/>
        </g>
        <path class="cls-8" d="M398.35,61.11v18.07c0,.42-.21.71-.56.91h-24.32c-.35-.21-.56-.56-.56-.91v-18.07c0-.63.49-1.13,1.13-1.13h7.59v1.76h-2.67c-.07,0-.14-.07-.21-.07h-3.93c-.14,0-.21.07-.28.14l-.07.07-.07.07v3.09c0,.07,0,.14.07.21,0,0,0,.07.07.07.07.07.14.14.28.14h.98v4.15h-.28v3.8h.28v4.08h19.47v-4.08h.28v-3.8h-.28v-4.15h.98c.21,0,.42-.21.42-.42v-2.95c0-.21-.21-.42-.42-.42h-3.93c-.07,0-.14,0-.21.07h-2.67v-1.76h7.59c.91,0,1.4.49,1.33,1.13h0l.02-.02Z"/>
        <path class="cls-89" d="M393.92,65.55v8.57h-15.12v-8.57h.21c.14-.07.28-.21.28-.42v-2.95c0-.14-.07-.28-.28-.35h13.21c-.14.07-.21.21-.21.35v2.95c0,.21.21.42.42.42h1.48Z"/>
        <g>
          <path class="cls-11" d="M395.26,69.55h.71v3.8h-.71v-3.8h0Z"/>
          <path class="cls-2" d="M375.51,69.55h.71v3.8h-.71v-3.8c-.07,0,0,0,0,0Z"/>
        </g>
        <g>
          <path class="cls-86" d="M394.63,72.29h-.49v2.32h-2.11v.49l.14,2.39h3.24v-3.51l-.78-1.69h0Z"/>
          <path class="cls-86" d="M379.73,74.61v-2.32h-.49l-3.24,1.69v3.51h3.31l2.6-2.39v-.49h-2.18Z"/>
        </g>
        <g>
          <polygon class="cls-106" points="379.23 76.86 379.23 77.43 375.93 77.43 375.93 73.98 376.56 73.98 376.56 76.86 379.23 76.86"/>
          <polygon class="cls-106" points="395.39 73.98 395.39 77.43 392.17 77.43 392.17 76.86 394.77 76.86 394.77 73.98 395.39 73.98"/>
        </g>
        <path class="cls-73" d="M378.95,62.45v2.32c0,.14-.07.21-.14.28s-.21.14-.28.14h-3.16c-.21,0-.42-.21-.42-.42v-2.32c0-.21.21-.42.42-.42h3.16c.14,0,.21.07.28.14s.14.21.14.28h0Z"/>
      </g>
      <g>
        <polygon class="cls-9" points="383.66 72.71 381.48 74.33 380.91 77.43 381.13 77.43 381.69 74.33 383.8 72.71 383.66 72.71"/>
        <polygon class="cls-40" points="384.5 72.71 382.75 74.33 382.67 77.43 382.89 77.43 383.02 74.33 384.71 72.71 384.5 72.71"/>
        <polygon class="cls-41" points="385.28 72.71 384.22 74.33 384.15 77.43 384.36 77.43 384.5 74.33 385.49 72.71 385.28 72.71"/>
        <polygon class="cls-38" points="389.64 72.71 390.55 74.33 390.83 77.43 390.62 77.43 390.34 74.33 389.5 72.71 389.64 72.71"/>
        <polygon class="cls-39" points="388.79 72.71 389.5 74.33 389.57 77.43 389.35 77.43 389.21 74.33 388.65 72.71 388.79 72.71"/>
        <polygon class="cls-34" points="387.95 72.71 388.3 74.33 388.44 77.43 388.23 77.43 388.09 74.33 387.73 72.71 387.95 72.71"/>
        <polygon class="cls-32" points="387.04 72.71 387.24 74.33 387.39 77.43 387.17 77.43 386.97 74.33 386.89 72.71 387.04 72.71"/>
        <polygon class="cls-33" points="386.04 72.71 385.7 74.33 385.77 77.43 386.04 77.43 385.98 74.33 386.19 72.71 386.04 72.71"/>
      </g>
    </g>
    <g id="_Grid_Repeat_-5" data-name=" Grid Repeat -5">
      <g>
        <path class="cls-93" d="M424.22,61.89h-8.08v-1.89h8.08v1.89ZM416.35,61.75h7.8v-1.62h-7.8v1.62Z"/>
        <path class="cls-93" d="M424.22,61.89h-8.08v-1.89h8.08v1.89ZM416.35,61.75h7.8v-1.62h-7.8v1.62Z"/>
        <path class="cls-93" d="M424.22,61.89h-8.08v-1.89h8.08v1.89ZM416.35,61.75h7.8v-1.62h-7.8v1.62Z"/>
        <path class="cls-93" d="M424.22,61.89h-8.08v-1.89h8.08v1.89ZM416.35,61.75h7.8v-1.62h-7.8v1.62Z"/>
        <path class="cls-104" d="M433.21,58.16h-25.94c-.63,0-1.13.49-1.13,1.13v20.81c0,.63.49,1.13,1.13,1.13h25.94c.63,0,1.13-.49,1.13-1.13v-20.81c-.07-.56-.56-1.13-1.13-1.13Z"/>
        <rect class="cls-80" x="408.83" y="60.84" width="22.83" height="17.7"/>
        <path class="cls-104" d="M432.16,59h-23.9c-.63,0-1.13.49-1.13,1.13v19.47c0,.63.49,1.13,1.13,1.13h23.9c.63,0,1.13-.49,1.13-1.13v-19.47c0-.56-.56-1.13-1.13-1.13ZM432.87,79.18c0,.42-.21.71-.56.91h-24.32c-.35-.21-.56-.56-.56-.91v-18.07c0-.63.49-1.13,1.13-1.13h23.2c.63,0,1.13.49,1.13,1.13v18.07h0Z"/>
        <rect class="cls-99" x="416.2" y="60.06" width="7.95" height="1.76"/>
        <g>
          <path class="cls-86" d="M413.6,61.75c-.07,0-.14-.07-.21-.07h-3.93c-.14,0-.21.07-.28.14l-.07.07-.07.07v3.09c0,.07,0,.14.07.21,0,0,0,.07.07.07.07.07.14.14.28.14h4.08c.14-.07.28-.21.28-.42v-2.95c0-.14-.07-.28-.21-.35h0v-.02ZM413.39,64.77c0,.14-.07.21-.14.28-.07.07-.21.14-.28.14h-3.16c-.21,0-.42-.21-.42-.42v-2.32c0-.21.21-.42.42-.42h3.16c.14,0,.21.07.28.14.07.07.14.14.14.28v2.32h0Z"/>
          <path class="cls-86" d="M430.9,61.75h-3.87c-.07,0-.14,0-.21.07-.14.07-.21.21-.21.35v2.95c0,.21.21.42.42.42h3.93c.21,0,.42-.21.42-.42v-2.95c-.07-.28-.21-.42-.49-.42h.02ZM430.97,64.77c0,.21-.21.42-.42.42h-3.16c-.14,0-.21-.07-.28-.14-.07-.07-.14-.21-.14-.28v-2.32c0-.14.07-.21.14-.28.07-.07.21-.14.28-.14h3.16c.21,0,.42.21.42.42v2.32h0Z"/>
          <path class="cls-107" d="M430.97,62.45v2.32c0,.21-.21.42-.42.42h-3.16c-.14,0-.21-.07-.28-.14-.07-.07-.14-.21-.14-.28v-2.32c0-.14.07-.21.14-.28.07-.07.21-.14.28-.14h3.16c.21,0,.42.21.42.42h0Z"/>
        </g>
        <path class="cls-37" d="M432.87,61.11v18.07c0,.42-.21.71-.56.91h-24.32c-.35-.21-.56-.56-.56-.91v-18.07c0-.63.49-1.13,1.13-1.13h7.59v1.76h-2.67c-.07,0-.14-.07-.21-.07h-3.8c-.14,0-.21.07-.28.14l-.07.07-.07.07v3.09c0,.07,0,.14.07.21,0,0,0,.07.07.07.07.07.14.14.28.14h.98v4.15h-.28v3.8h.28v4.08h19.47v-4.08h.28v-3.8h-.28v-4.15h.98c.21,0,.42-.21.42-.42v-2.95c0-.21-.21-.42-.42-.42h-3.87c-.07,0-.14,0-.21.07h-2.67v-1.76h7.59c.63,0,1.13.49,1.13,1.13h0l.03-.02Z"/>
        <path class="cls-89" d="M428.44,65.55v8.57h-15.12v-8.57h.21c.14-.07.28-.21.28-.42v-2.95c0-.14-.14-.28-.21-.35h13.21c-.14.07-.21.21-.21.35v2.95c0,.21.21.42.42.42h1.42Z"/>
        <g>
          <path class="cls-35" d="M429.77,69.55h.71v3.8h-.71v-3.8s-.04,0,0,0Z"/>
          <path class="cls-36" d="M409.95,69.55h.71v3.8h-.71v-3.8h0Z"/>
        </g>
        <g>
          <path class="cls-86" d="M429.14,72.29h-.49v2.32h-2.11v.49l.14,2.39h3.31v-3.51l-.84-1.69h0Z"/>
          <path class="cls-86" d="M414.24,74.61v-2.32h-.56l-3.24,1.69v3.51h3.31l2.6-2.39v-.49h-2.11Z"/>
        </g>
        <g>
          <polygon class="cls-106" points="413.67 76.86 413.67 77.43 410.44 77.43 410.44 73.98 411 73.98 411 76.86 413.67 76.86"/>
          <polygon class="cls-106" points="429.92 73.98 429.92 77.43 426.68 77.43 426.68 76.86 429.28 76.86 429.28 73.98 429.92 73.98"/>
        </g>
        <path class="cls-73" d="M413.4,62.45v2.32c0,.14-.07.21-.14.28s-.21.14-.28.14h-3.16c-.21,0-.42-.21-.42-.42v-2.32c0-.21.21-.42.42-.42h3.16c.14,0,.21.07.28.14.14.07.14.21.14.28h0Z"/>
      </g>
      <g>
        <polygon class="cls-50" points="418.11 72.71 416 74.33 415.44 77.43 415.64 77.43 416.2 74.33 418.24 72.71 418.11 72.71"/>
        <polygon class="cls-48" points="419.02 72.71 417.26 74.33 417.12 77.43 417.4 77.43 417.54 74.33 419.16 72.71 419.02 72.71"/>
        <polygon class="cls-49" points="419.79 72.71 418.73 74.33 418.6 77.43 418.88 77.43 419.02 74.33 419.93 72.71 419.79 72.71"/>
        <polygon class="cls-47" points="424.08 72.71 425.06 74.33 425.35 77.43 425.13 77.43 424.78 74.33 423.94 72.71 424.08 72.71"/>
        <polygon class="cls-51" points="423.3 72.71 423.94 74.33 424.08 77.43 423.86 77.43 423.73 74.33 423.17 72.71 423.3 72.71"/>
        <polygon class="cls-45" points="422.46 72.71 422.81 74.33 422.95 77.43 422.75 77.43 422.53 74.33 422.26 72.71 422.46 72.71"/>
        <polygon class="cls-46" points="421.55 72.71 421.75 74.33 421.9 77.43 421.62 77.43 421.48 74.33 421.41 72.71 421.55 72.71"/>
        <polygon class="cls-43" points="420.57 72.71 420.21 74.33 420.28 77.43 420.49 77.43 420.49 74.33 420.71 72.71 420.57 72.71"/>
      </g>
    </g>
    <g id="_Grid_Repeat_-6" data-name=" Grid Repeat -6">
      <g>
        <path class="cls-93" d="M458.73,61.89h-8.08v-1.89h8.08v1.89ZM450.79,61.75h7.8v-1.62h-7.8v1.62Z"/>
        <path class="cls-93" d="M458.73,61.89h-8.08v-1.89h8.08v1.89ZM450.79,61.75h7.8v-1.62h-7.8v1.62Z"/>
        <path class="cls-93" d="M458.73,61.89h-8.08v-1.89h8.08v1.89ZM450.79,61.75h7.8v-1.62h-7.8v1.62Z"/>
        <path class="cls-93" d="M458.73,61.89h-8.08v-1.89h8.08v1.89ZM450.79,61.75h7.8v-1.62h-7.8v1.62Z"/>
        <path class="cls-104" d="M467.66,58.16h-25.94c-.63,0-1.13.49-1.13,1.13v20.81c0,.63.49,1.13,1.13,1.13h25.94c.63,0,1.13-.49,1.13-1.13v-20.81c0-.56-.49-1.13-1.13-1.13Z"/>
        <rect class="cls-80" x="443.28" y="60.84" width="22.83" height="17.7"/>
        <path class="cls-104" d="M466.61,59h-23.9c-.63,0-1.13.49-1.13,1.13v19.47c0,.63.49,1.13,1.13,1.13h23.9c.63,0,1.13-.49,1.13-1.13v-19.47c0-.56-.49-1.13-1.13-1.13ZM467.39,79.18c0,.42-.21.71-.56.91h-24.32c-.35-.21-.56-.56-.56-.91v-18.07c0-.63.49-1.13,1.13-1.13h23.2c.63,0,1.13.49,1.13,1.13v18.07h0Z"/>
        <rect class="cls-99" x="450.64" y="60.06" width="8.03" height="1.76"/>
        <g>
          <path class="cls-86" d="M448.12,61.75c-.07,0-.14-.07-.21-.07h-3.93c-.14,0-.21.07-.28.14l-.07.07-.07.07v3.09c0,.07,0,.14.07.21,0,0,0,.07.07.07.07.07.14.14.28.14h4.08c.14-.07.28-.21.28-.42v-2.95c0-.14-.14-.28-.21-.35h0v-.02ZM447.91,64.77c0,.14-.07.21-.14.28-.07.07-.21.14-.28.14h-3.16c-.21,0-.42-.21-.42-.42v-2.32c0-.21.21-.42.42-.42h3.16c.14,0,.21.07.28.14.07.07.14.14.14.28v2.32h0Z"/>
          <path class="cls-86" d="M465.41,61.75h-3.93c-.07,0-.14,0-.21.07-.14.07-.21.21-.21.35v2.95c0,.21.21.42.42.42h3.93c.21,0,.42-.21.42-.42v-2.95c0-.28-.14-.42-.42-.42h0ZM465.48,64.77c0,.21-.21.42-.42.42h-3.16c-.14,0-.21-.07-.28-.14-.07-.07-.14-.21-.14-.28v-2.32c0-.14.07-.21.14-.28.07-.07.21-.14.28-.14h3.16c.21,0,.42.21.42.42v2.32h0Z"/>
          <path class="cls-107" d="M465.48,62.45v2.32c0,.21-.21.42-.42.42h-3.16c-.14,0-.21-.07-.28-.14-.07-.07-.14-.21-.14-.28v-2.32c0-.14.07-.21.14-.28.07-.07.21-.14.28-.14h3.16c.21,0,.42.21.42.42h0Z"/>
        </g>
        <path class="cls-44" d="M467.38,61.11v18.07c0,.42-.21.71-.56.91h-24.32c-.35-.21-.56-.56-.56-.91v-18.07c0-.63.49-1.13,1.13-1.13h7.59v1.76h-2.53c-.07,0-.14-.07-.21-.07h-3.93c-.14,0-.21.07-.28.14l-.07.07-.07.07v3.09c0,.07,0,.14.07.21,0,0,0,.07.07.07.07.07.14.14.28.14h.98v4.15h-.28v3.8h.28v4.08h19.47v-4.08h.28v-3.8h-.28v-4.15h.98c.21,0,.42-.21.42-.42v-2.95c0-.21-.21-.42-.42-.42h-3.93c-.07,0-.14,0-.21.07h-2.6v-1.76h7.59c.63,0,1.13.49,1.13,1.13h0v-.02Z"/>
        <path class="cls-89" d="M462.95,65.55v8.57h-15.12v-8.57h.21c.14-.07.28-.21.28-.42v-2.95c0-.14-.14-.28-.21-.35h13.21c-.14.07-.21.21-.21.35v2.95c0,.21.21.42.42.42h1.42Z"/>
        <g>
          <path class="cls-42" d="M464.21,69.55h.71v3.8h-.71v-3.8h0Z"/>
          <path class="cls-52" d="M444.47,69.55h.71v3.8h-.71v-3.8h0Z"/>
        </g>
        <g>
          <path class="cls-86" d="M463.59,72.29h-.49v2.32h-2.11v.49l.14,2.39h3.31v-3.51l-.84-1.69h0Z"/>
          <path class="cls-86" d="M448.68,74.61v-2.32h-.49l-3.24,1.69v3.51h3.31l2.6-2.39v-.49h-2.18Z"/>
        </g>
        <g>
          <polygon class="cls-106" points="448.19 76.86 448.19 77.43 444.96 77.43 444.96 73.98 445.52 73.98 445.52 76.86 448.19 76.86"/>
          <polygon class="cls-106" points="464.43 73.98 464.43 77.43 461.12 77.43 461.12 76.86 463.79 76.86 463.79 73.98 464.43 73.98"/>
        </g>
        <path class="cls-73" d="M447.91,62.45v2.32c0,.14-.07.21-.14.28s-.21.14-.28.14h-3.16c-.21,0-.42-.21-.42-.42v-2.32c0-.21.21-.42.42-.42h3.16c.14,0,.21.07.28.14.14.07.14.21.14.28h0Z"/>
      </g>
      <g>
        <polygon class="cls-53" points="452.62 72.71 450.51 74.33 449.88 77.43 450.16 77.43 450.72 74.33 452.76 72.71 452.62 72.71"/>
        <polygon class="cls-54" points="453.53 72.71 451.77 74.33 451.64 77.43 451.84 77.43 452.06 74.33 453.67 72.71 453.53 72.71"/>
        <polygon class="cls-59" points="454.31 72.71 453.25 74.33 453.11 77.43 453.32 77.43 453.53 74.33 454.44 72.71 454.31 72.71"/>
        <polygon class="cls-60" points="458.59 72.71 459.51 74.33 459.86 77.43 459.65 77.43 459.3 74.33 458.46 72.71 458.59 72.71"/>
        <polygon class="cls-55" points="457.82 72.71 458.46 74.33 458.59 77.43 458.31 77.43 458.17 74.33 457.68 72.71 457.82 72.71"/>
        <polygon class="cls-58" points="456.91 72.71 457.33 74.33 457.46 77.43 457.19 77.43 457.04 74.33 456.77 72.71 456.91 72.71"/>
        <polygon class="cls-56" points="456.06 72.71 456.28 74.33 456.35 77.43 456.13 77.43 455.99 74.33 455.92 72.71 456.06 72.71"/>
        <polygon class="cls-57" points="455.08 72.71 454.66 74.33 454.8 77.43 455.01 77.43 454.94 74.33 455.22 72.71 455.08 72.71"/>
      </g>
    </g>
  </g>
  <g>
    <path class="cls-77" d="M493.02,79.51h-16.14c-.52,0-.94-.42-.94-.94v-9.76c0-.52.42-.94.94-.94h16.14c.52,0,.94.42.94.94v9.76c0,.52-.42.94-.94.94h0Z"/>
    <path class="cls-82" d="M476.63,68.04c.29-.35,14.63-.11,15.42-.18.41,0,.99.34.99.75.12.51.02,8.06.05,8.83.05.7.01,1.65-.85,1.74.15.16-15.07.04-15.56.08-.46,0-.81-.34-.81-.94v-9.3c0-.41.34-.97.75-.97h.01Z"/>
    <path class="cls-85" d="M476.39,68.22c.2-.72,13.98-.21,14.71-.35.31,0,1.04.25,1.04.56.25.42.05,7.95.11,8.67.21,1.47-.59,1.96-1.93,1.9h-13.82c-.41,0-.67-.25-.67-.94v-8.84c0-.31.25-1.01.56-1.01h0Z"/>
    <path class="cls-100" d="M476.14,68.39c0-.29.91-.53,1.2-.53.44.15,14.09-.39,13.88.38.39.31.06,7.86.16,8.51.22,1.27-.55,2.07-1.78,2h-13.3c-.36,0-.54-.17-.54-.93.17-.89-.42-8.9.38-9.42h0Z"/>
    <path class="cls-79" d="M475.9,68.57c0-.39.65-.7,1.04-.7.96.12,12.88-.25,13.38.19.53.14.07,7.77.22,8.35.01.75.05,1.39-.58,1.79.55.54-13.65.23-13.83.3-.36.12-.44-.51-.4-1.17.06-.66-.18-8.43.19-8.76h-.02Z"/>
    <path class="cls-89" d="M488.18,78.24h-12.26c-.18,0-.27-.39-.27-1.16v-8.34c0-.48.39-.88.88-.88h12.87c.27,0,.27.02.27,1.02.02.33,0,7.85-.01,7.9h0c0,.8-.66,1.45-1.48,1.45h0Z"/>
  </g>
</svg>