<?xml version="1.0" encoding="UTF-8"?>
<svg id="katman_1" data-name="katman 1" xmlns="http://www.w3.org/2000/svg" viewBox="0 0 504.85 504.88">
  <defs>
    <style>
      .cls-1 {
        fill: #4d4d4d;
        stroke-width: 0px;
      }
    </style>
  </defs>
  <g id="Lv6V9s.tif">
    <g>
      <path class="cls-1" d="m260.35,0c9.51,2.33,19.39,3.7,28.47,7.16,26.43,10.08,45.24,28.52,56.47,54.56.51,1.19,1.1,2.35,1.6,3.41,7.44-1.81,14.6-4.1,21.95-5.25,36.84-5.79,74.13,19.27,82.82,55.71,1.13,4.74,3.32,7.03,7.64,8.88,31.46,13.41,48.7,45.27,45.06,76.94-4.1,35.63-30.17,62.22-64.18,66.87-4.86.66-9.81.92-14.72.93-52.76.06-105.51.04-158.27.04h-6.03v42.19c29.46,0,58.78,0,88.11,0s58.45,0,88.3,0v50.26h66.92v66.97h-150.81v-66.78h66.81v-33.22h-159.24v32.89h66.63v67.13h-150.86v-66.85h66.74v-33.24H76.28v33.05h74.97v67.3H0v-67.05h59.25v-50.65h184.32v-41.99c-2.39,0-4.34,0-6.29,0-53.07,0-106.13.28-159.2-.1-34.19-.25-58.85-16.03-72.42-47.81C3.07,215.25,1.86,208.56,0,202.15c0-5.59,0-11.18,0-16.76.3-.9.73-1.79.89-2.72,4.77-27.67,19.82-47.44,45.6-58.67,3.89-1.7,5.76-3.77,6.72-7.89,8.65-37.28,46.67-62.58,84.32-56.09,6.86,1.18,13.54,3.38,20.5,5.16.38-.79.83-1.65,1.22-2.53C174.17,28.64,200.06,8.43,236.41,1.41,239.12.88,241.85.47,244.57,0c5.26,0,10.52,0,15.78,0Zm-8.79,252.45c14.79,0,29.58,0,44.37,0,43.88,0,87.76.09,131.63-.03,30.66-.09,55.35-20.7,59.75-49.54,4.5-29.55-12.51-56.8-41.24-65.61-5.34-1.64-8.38-4.36-9.18-10.05-5.9-42.05-49.92-64.02-87.13-43.58-9.5,5.22-13.52,3.74-16.8-6.56-3.83-12.07-9.81-22.81-18.24-32.31-32.97-37.18-93.18-36.73-125.53.98-8.26,9.63-14.08,20.48-17.69,32.63-2.49,8.38-7.19,10.15-14.96,6.02-2.46-1.3-4.88-2.74-7.45-3.77-37.05-14.9-75.19,7.19-81.11,46.98-.7,4.72-2.94,7.87-7.59,9.23-1.73.5-3.42,1.14-5.12,1.74-26.88,9.51-43.31,39.4-36.98,67.27,6.31,27.81,29.47,46.49,58.26,46.55,58.34.12,116.68.03,175.02.04ZM16.99,411.9h117.38v-32.83H16.99v32.83Zm176.8.05h117.31v-32.92h-117.31v32.92Zm176.68-.09h117.36v-32.94h-117.36v32.94Z"/>
      <path class="cls-1" d="m0,437.83c2.79-.08,5.57-.21,8.36-.22,45.63-.01,91.27,0,136.9,0,1.93,0,3.85,0,6.07,0v67.28H0C0,482.53,0,460.18,0,437.83Zm16.99,49.89h117.37v-32.85H16.99v32.85Z"/>
      <path class="cls-1" d="m504.56,504.57h-150.94v-66.55h150.94v66.55Zm-134.01-16.96h117.2v-32.94h-117.2v32.94Z"/>
      <path class="cls-1" d="m177.09,437.82h150.77v66.64h-150.77v-66.64Zm134.11,16.94h-117.26v32.95h117.26v-32.95Z"/>
      <path class="cls-1" d="m244.39,227.48h16.14v16.13h-16.14v-16.13Z"/>
      <path class="cls-1" d="m109.71,227.43h16.19v16.33h-16.19v-16.33Z"/>
      <path class="cls-1" d="m395.26,227.79v15.99h-16.37v-15.99h16.37Z"/>
      <path class="cls-1" d="m428.73,243.78h-16.22v-16.2h16.22v16.2Z"/>
      <path class="cls-1" d="m345.27,243.65v-16.14h16.35v16.14h-16.35Z"/>
      <path class="cls-1" d="m76.19,227.49h16.26v16.21h-16.26v-16.21Z"/>
      <path class="cls-1" d="m328.04,227.53v16.21h-16.38v-16.21h16.38Z"/>
      <path class="cls-1" d="m294.17,243.72h-15.97v-16.2h15.97v16.2Z"/>
      <path class="cls-1" d="m210.62,243.71v-16.14h16.29v16.14h-16.29Z"/>
      <path class="cls-1" d="m176.85,243.67v-16.09h16.37v16.09h-16.37Z"/>
      <path class="cls-1" d="m159.62,243.82h-16.2v-16.31h16.2v16.31Z"/>
      <path class="cls-1" d="m25.72,403.51v-16.07h16.22v16.07h-16.22Z"/>
      <path class="cls-1" d="m218.48,403.66h-16.11v-16.36h16.11v16.36Z"/>
      <path class="cls-1" d="m395.23,387.61v15.99h-16.35v-15.99h16.35Z"/>
      <path class="cls-1" d="m25.71,462.94h16.23v16.16h-16.23v-16.16Z"/>
      <path class="cls-1" d="m378.98,462.95h16.09v16.2h-16.09v-16.2Z"/>
      <path class="cls-1" d="m202.35,479.14v-16.2h16.13v16.2h-16.13Z"/>
    </g>
  </g>
</svg>