<?xml version="1.0" encoding="utf-8"?>
<!-- Generator: Adobe Illustrator 27.8.1, SVG Export Plug-In . SVG Version: 6.00 Build 0)  -->
<svg version="1.1" id="katman_1" xmlns="http://www.w3.org/2000/svg" xmlns:xlink="http://www.w3.org/1999/xlink" x="0px" y="0px"
	 viewBox="0 0 1080 814.2" style="enable-background:new 0 0 1080 814.2;" xml:space="preserve">
<style type="text/css">
	.st0{opacity:0.6;fill:url(#SVGID_1_);}
	.st1{opacity:0.2;fill:url(#SVGID_00000041260310155327237630000001679799958931257509_);}
	.st2{opacity:0.6;fill:url(#SVGID_00000099643949467941516870000015405102713124905880_);}
	.st3{fill:#262A2E;}
	.st4{fill:url(#SVGID_00000147898284726706404400000012454643105879499935_);}
	.st5{fill:#FFFFFF;}
	.st6{fill:url(#SVGID_00000006705500051707173420000017710216142724424605_);}
	.st7{fill:#CBD9E6;}
	.st8{fill:#A3B9CC;}
	.st9{fill:#454F5C;}
	.st10{fill:url(#SVGID_00000059287050429222970640000004485038077079293338_);}
	.st11{fill:#8599BA;}
	.st12{opacity:0.3;fill:#FFFFFF;}
	.st13{fill:url(#SVGID_00000042003014587565675900000001430601432785667761_);}
	.st14{fill:#2A2A2A;}
	.st15{fill:#333333;}
	.st16{fill:url(#SVGID_00000044872003214332297930000016586264642825772214_);}
	.st17{fill:#17253B;}
	.st18{fill:none;}
</style>
<g>
	<g>
		
			<radialGradient id="SVGID_1_" cx="8448.5488" cy="-7112.0107" r="193.4706" gradientTransform="matrix(-1.7734 0 0 0.1496 15417.9092 1849.6982)" gradientUnits="userSpaceOnUse">
			<stop  offset="0" style="stop-color:#C9D0DB"/>
			<stop  offset="9.398391e-02" style="stop-color:#D1D7E1"/>
			<stop  offset="0.4348" style="stop-color:#EAEDF1"/>
			<stop  offset="0.7449" style="stop-color:#FAFAFB"/>
			<stop  offset="0.9946" style="stop-color:#FFFFFF"/>
		</radialGradient>
		<path class="st0" d="M92.2,785.7c0,16,153.6,28.9,343.1,28.9c189.5,0,343.1-13,343.1-28.9c0-16-153.6-28.9-343.1-28.9
			C245.8,756.8,92.2,769.8,92.2,785.7z"/>
		
			<radialGradient id="SVGID_00000132054645489906428320000015211368940114366367_" cx="11170.7266" cy="-9879.5127" r="193.4405" gradientTransform="matrix(-1.0624 0 0 0.1154 12742.25 1925.8381)" gradientUnits="userSpaceOnUse">
			<stop  offset="0" style="stop-color:#C9D0DB"/>
			<stop  offset="9.398391e-02" style="stop-color:#D1D7E1"/>
			<stop  offset="0.4348" style="stop-color:#EAEDF1"/>
			<stop  offset="0.7449" style="stop-color:#FAFAFB"/>
			<stop  offset="0.9946" style="stop-color:#FFFFFF"/>
		</radialGradient>
		<path style="opacity:0.2;fill:url(#SVGID_00000132054645489906428320000015211368940114366367_);" d="M668.9,785.7
			c0,12.3,92,22.3,205.5,22.3c113.5,0,205.5-10,205.5-22.3c0-12.3-92-22.3-205.5-22.3C761,763.4,668.9,773.4,668.9,785.7z"/>
		
			<radialGradient id="SVGID_00000136386500732152269070000015748569460526751625_" cx="15361.2783" cy="-13714.1172" r="193.4648" gradientTransform="matrix(-0.7222 0 0 8.760000e-02 11233.6289 1987.0981)" gradientUnits="userSpaceOnUse">
			<stop  offset="0" style="stop-color:#C9D0DB"/>
			<stop  offset="9.398391e-02" style="stop-color:#D1D7E1"/>
			<stop  offset="0.4348" style="stop-color:#EAEDF1"/>
			<stop  offset="0.7449" style="stop-color:#FAFAFB"/>
			<stop  offset="0.9946" style="stop-color:#FFFFFF"/>
		</radialGradient>
		<path style="opacity:0.6;fill:url(#SVGID_00000136386500732152269070000015748569460526751625_);" d="M0,785.7
			c0,9.4,62.6,16.9,139.7,16.9c77.2,0,139.7-7.6,139.7-16.9c0-9.4-62.6-17-139.7-17C62.6,768.8,0,776.4,0,785.7z"/>
		<g>
			<g>
				<g>
					<path class="st3" d="M111.8,223c0.4-2.2,1.2-4.4,2.2-6.5c1-2,2.3-3.9,3.8-5.6c1.5-1.6,3.1-3,4.9-3.9L509,0.5
						c0.6-0.3,1.3-0.6,1.9-0.8c0.6-0.2,1.2-0.3,1.8-0.4c0.6-0.1,1.2-0.1,1.7,0c0.5,0.1,1.1,0.2,1.6,0.4c2.7,1,5.3,2,8,3.1
						c-0.5-0.2-1-0.3-1.6-0.4c-0.5-0.1-1.1-0.1-1.7,0c-0.6,0.1-1.2,0.2-1.8,0.4c-0.6,0.2-1.2,0.5-1.9,0.8L130.7,210.5
						c-1.8,1-3.5,2.3-4.9,3.9c-1.5,1.6-2.7,3.5-3.8,5.6c-1,2-1.8,4.2-2.2,6.5c-0.4,2.2-0.6,4.5-0.3,6.6l35.7,314.2l-0.5-0.2
						c-2.3-1.1-7.6-6.9-8.3-12.4c0,0,0,0,0,0l-34.9-305.1C111.2,227.4,111.3,225.2,111.8,223z"/>
					
						<linearGradient id="SVGID_00000098911898319369287940000016302037892292741509_" gradientUnits="userSpaceOnUse" x1="12222.4385" y1="179.859" x2="11883.8857" y2="384.1098" gradientTransform="matrix(-1 0 0 1 12404.2627 0)">
						<stop  offset="0" style="stop-color:#293445"/>
						<stop  offset="1" style="stop-color:#454F61"/>
					</linearGradient>
					<path style="fill:url(#SVGID_00000098911898319369287940000016302037892292741509_);" d="M130.7,210.5c-1.8,1-3.5,2.3-4.9,3.9
						c-1.5,1.6-2.7,3.5-3.8,5.6c-1,2-1.8,4.2-2.2,6.5c-0.4,2.2-0.6,4.5-0.3,6.6l35.7,314.2l395.4-232.4l-21-302.5
						c-0.1-2.1-0.6-3.9-1.3-5.4c-0.7-1.5-1.7-2.6-2.8-3.4c-1.1-0.8-2.5-1.2-3.9-1.3c-1.4,0-3,0.4-4.6,1.2L130.7,210.5z"/>
					<path class="st5" d="M135.6,231.3c0-0.2-0.1-0.7,0.1-1.6c0.2-0.8,0.5-1.6,0.9-2.4c0.5-0.9,0.9-1.5,1.3-1.9
						c0.3-0.4,0.6-0.5,0.6-0.5L514.1,23.7L537,314L171.9,528.6L135.6,231.3z"/>
				</g>
				
					<linearGradient id="SVGID_00000077289930093974909910000012052464062576263048_" gradientUnits="userSpaceOnUse" x1="12202.7568" y1="553.1301" x2="11612.3848" y2="521.4191" gradientTransform="matrix(-1 0 0 1 12404.2627 0)">
					<stop  offset="5.376340e-03" style="stop-color:#DCE5ED"/>
					<stop  offset="0.1567" style="stop-color:#E1EAF1"/>
					<stop  offset="0.3442" style="stop-color:#F1F8FE"/>
					<stop  offset="0.3583" style="stop-color:#F2F9FF"/>
					<stop  offset="0.7273" style="stop-color:#F2F9FF"/>
					<stop  offset="0.8442" style="stop-color:#EDF4FB"/>
					<stop  offset="0.9891" style="stop-color:#DDE6EE"/>
					<stop  offset="1" style="stop-color:#DCE5ED"/>
				</linearGradient>
				<path style="fill:url(#SVGID_00000077289930093974909910000012052464062576263048_);" d="M436.5,758.4l367.4-237.9
					c1.5-1,2.6-2.2,3.3-3.5c0.7-1.3,1-2.8,0.8-4.3c-0.1-1.5-0.7-3-1.6-4.5c-0.9-1.5-2.3-2.9-4-4.2L550.8,314.2L155.1,547.3
					l256.3,208.8c1.7,1.4,3.8,2.6,5.9,3.4c2.1,0.8,4.4,1.3,6.7,1.5c2.3,0.2,4.6,0.1,6.7-0.4C432.8,760.3,434.8,759.5,436.5,758.4z"
					/>
				<g>
					<path class="st7" d="M598,518.1c-4.6,2.9-9.2,5.8-13.8,8.6c-4.6,2.9-9.2,5.8-13.9,8.7c-4.6,2.9-9.3,5.8-13.9,8.7
						c-4.7,2.9-9.3,5.8-14,8.8c-4.6,2.9-9.3,5.8-13.9,8.7c-4.7,2.9-9.3,5.8-14,8.8c-4.7,2.9-9.4,5.9-14,8.8
						c-4.7,2.9-9.4,5.9-14.1,8.8c-1.2,0.8-2.1,1.4-2.7,2.1c-0.6,0.7-0.9,1.3-0.9,1.9c0,0.7,0.3,1.3,1,2.1c0.6,0.8,1.6,1.6,2.8,2.6
						c1,0.8,5.3,4.2,11.4,9c6,4.8,13.7,10.8,21.4,16.9c7.7,6.1,15.5,12.2,21.5,17c6.1,4.8,10.5,8.3,11.5,9.1c1,0.8,1.9,1.3,2.8,1.8
						c0.9,0.4,1.8,0.7,2.6,0.8c0.9,0.1,1.7,0,2.6-0.2c0.9-0.2,1.7-0.7,2.6-1.2c5.6-3.6,11.2-7.2,16.7-10.7
						c5.5-3.6,11.1-7.1,16.6-10.7c5.5-3.6,11-7.1,16.5-10.6c5.5-3.5,11-7.1,16.4-10.6c3.9-2.5,7.7-5,11.6-7.4
						c3.8-2.5,7.7-5,11.5-7.4c3.8-2.5,7.7-4.9,11.5-7.4c3.8-2.5,7.6-4.9,11.4-7.4c0.9-0.6,1.5-1.1,1.9-1.7c0.4-0.6,0.6-1.2,0.6-1.8
						c0-0.6-0.3-1.2-0.8-1.9c-0.5-0.7-1.2-1.4-2.1-2.1c-1-0.8-5.5-4.2-11.5-8.9c-6.1-4.7-13.8-10.7-21.5-16.6
						c-7.7-5.9-15.4-11.9-21.4-16.5c-6-4.6-10.4-8-11.4-8.8c-1.1-0.8-2-1.4-3-1.9c-0.9-0.4-1.8-0.7-2.7-0.8c-0.9-0.1-1.8,0-2.6,0.3
						C599.9,517,599,517.5,598,518.1L598,518.1z"/>
					<path class="st8" d="M677.3,572.9c-0.5-0.7-1.2-1.4-2.1-2.1c-1-0.8-5.5-4.2-11.5-8.9c-6.1-4.7-13.8-10.7-21.5-16.6
						c-7.7-5.9-15.4-11.9-21.4-16.5c-6-4.6-10.4-8-11.4-8.8c-1.1-0.8-2-1.4-3-1.9c-0.9-0.4-1.8-0.7-2.7-0.8c-0.9-0.1-1.8,0-2.6,0.3
						c-0.9,0.3-1.8,0.7-2.8,1.3c-4.6,2.9-9.2,5.7-13.8,8.6c-4.6,2.9-9.2,5.8-13.9,8.7c-4.6,2.9-9.3,5.8-13.9,8.7
						c-4.7,2.9-9.3,5.8-14,8.8c-4.6,2.9-9.3,5.8-13.9,8.7c-4.7,2.9-9.3,5.8-14,8.8c-4.7,2.9-9.4,5.9-14,8.8
						c-4.7,2.9-9.4,5.9-14.1,8.8c-1.2,0.8-2.1,1.4-2.7,2.1c-0.5,0.6-0.8,1.1-0.8,1.7c-0.1-0.2-0.1-0.4-0.1-0.5
						c0-0.7,0.3-1.3,0.9-1.9c0.6-0.7,1.5-1.3,2.7-2.1c4.7-2.9,9.4-5.9,14.1-8.8c4.7-2.9,9.4-5.9,14-8.8c4.7-2.9,9.3-5.8,14-8.8
						c4.6-2.9,9.3-5.8,13.9-8.7c4.7-2.9,9.3-5.8,14-8.8c4.6-2.9,9.3-5.8,13.9-8.7c4.6-2.9,9.2-5.8,13.9-8.7
						c4.6-2.9,9.2-5.8,13.8-8.6c1-0.6,1.9-1.1,2.8-1.3c0.9-0.3,1.8-0.4,2.6-0.3c0.9,0.1,1.8,0.3,2.7,0.8c0.9,0.4,1.9,1.1,3,1.9
						c1.1,0.8,5.4,4.2,11.4,8.8c6,4.6,13.7,10.6,21.4,16.5c7.7,6,15.4,11.9,21.5,16.6c6.1,4.7,10.5,8.1,11.5,8.9
						c0.9,0.7,1.7,1.4,2.1,2.1c0.5,0.7,0.8,1.3,0.8,1.9c0,0.1,0,0.2,0,0.4C677.9,573.9,677.7,573.4,677.3,572.9z"/>
				</g>
				<g>
					<g>
						<path class="st9" d="M536.1,340.2L186.6,548.1c-3.1,4.5,10.9,12.6,14.1,10.6c3.6-1.3,344.6-204.4,348.1-206
							c4.8-2.1,4.8-5-0.1-7.7C544.9,342.4,541.1,339,536.1,340.2z"/>
						<path class="st9" d="M581,372.9c-3.7,3.3-18.4,6.8-16,12.2c6.5,4.6,13.3,10.9,21.1,13.2c6.7-0.6,12.1-5.8,18.1-8.5
							c3.5-1.5,4.7-3.9,1.7-6.6C597.8,380.3,590.4,368.4,581,372.9z"/>
						<path class="st9" d="M543.9,511c-5.7-3-11.2-10.2-18.2-8.4c-10.9,5.3-21.3,12-31.9,17.8c-28.3,16.2-56.5,32.6-84.8,49.2
							c-7.8,4.1,2.8,8.6,6.2,11.4c4.8,3.2,10.5,8.9,16.6,4.9c19-11.1,38.1-22.1,57.1-33.1c19.4-11.1,38.7-22.1,58.2-33.1
							C553,516.9,547.3,513,543.9,511z"/>
						<path class="st9" d="M635.4,408.8c-15.9,8.6-31.8,17.3-47.6,26.1c-7.3,4.9,7.6,9.5,10.8,13c7.8,7.5,14.9,2.8,22.6-1.8
							c11.8-6.5,23.6-12.9,35.4-19.3c7.8-3.2,6-6.2-0.5-9.8C649.8,413.8,643.2,405,635.4,408.8z"/>
						<path class="st9" d="M608.1,390.9c-11.8,6.7-24.4,12.8-35.8,20.1c-2.2,4.3,6.4,6.6,9,9.3c4.6,2.5,9.1,8,14.8,6.5
							c9.5-4.3,18.4-10,27.6-14.8c3.4-2.6,15.9-5.6,8.8-10.5C625,397.9,617.2,386.7,608.1,390.9z"/>
						<path class="st9" d="M277.5,612.7c10.1-7.4,24.1-12.2,32.1-21.1c-3.2-5-14.3-12.5-20.2-14.6c-12.4,3.8-23,13.6-34.5,19.7
							c-6.2,4,4.1,7.9,6.8,10.7C266.4,610.3,271.6,616.8,277.5,612.7z"/>
						<path class="st9" d="M252.9,594.9c3.8-3.8,28.8-14.1,25-18.8c-6-4.5-12.2-10.8-19.5-13.1c-7,1-12.7,7.1-19,10.2
							c-2.9,2.9-12.4,4.8-10.3,9.8C235.7,587.2,244.3,599.3,252.9,594.9z"/>
						<path class="st9" d="M554.6,354.7c-8.9,6-21.5,9.6-28.4,17.3c3.1,4.8,15.8,13,21.6,14.7c8.1-1.3,14.6-7.5,21.9-10.8
							c3-2.7,12.6-4.1,10.7-9C573.5,362.7,563.3,350.6,554.6,354.7z"/>
						<path class="st9" d="M572.9,490.7c-5.8-4.1-12.6-9.7-19.4-3.9c-6.1,4.3-15.6,6.7-19.8,12.6c1.1,3.7,6.5,5.3,9.4,7.9
							c5,2.9,10.6,9.3,16.8,5.4c7.2-4.3,15.2-7.9,21.9-12.6C584.3,495.7,575.5,493.4,572.9,490.7z"/>
						<path class="st9" d="M301.6,630.8c3.8-3.6,23.4-10.7,20.7-15.8c-14.2-10.1-16.7-19-33.4-6.2l0,0c-3.1,2.9-15.7,6.1-9.5,11.2
							C286.3,623.6,293.1,634.5,301.6,630.8z"/>
						<path class="st9" d="M412.7,582.2c-9.8-8.3-13.8-7.8-24.2-0.5c-3.2,3.1-14.8,5.6-12.5,10.8c7.1,4.3,15.4,15.9,24.6,11.6
							c6.8-4.3,14.4-7.9,20.8-12.6C423.6,587.1,415.3,584.9,412.7,582.2z"/>
						<path class="st9" d="M375.8,490.5c-3.5,3.3-17.2,6.9-15,12.2c11.5,7.9,17.7,19.2,31.3,8.1l0,0c2.6-2.3,10.9-4,8.5-8.4
							C393.6,498.2,384.6,486.1,375.8,490.5z"/>
						<path class="st9" d="M385.7,602.4c-13.1-10.2-15.4-11.8-29.8-1.6c-3.4,1.7-7.9,4.9-3,7.8c6,3.6,11.3,9.7,18.3,11.3
							c6-0.5,10.8-5.5,16.1-8C394.4,608.9,390.4,605.1,385.7,602.4z"/>
						<path class="st9" d="M493.5,484.8c3.5-3.3,22.2-8.3,14.6-13.9c-6.4-3.7-11.9-9.9-19.2-11.8c-7.4,1.2-14.3,6.7-20.4,10.6
							c-2,4.4,6,6.5,8.6,9.2l0,0C481.9,481.8,487.3,488.2,493.5,484.8z"/>
						<path class="st9" d="M574.6,439.2c18.2-9.6,18.2-8.7,0.7-20c-5.8-5.6-12.5-4.4-18.4,0c-3.5,2.6-9.7,3.8-11.4,7.9
							c2.3,4.8,9.3,7.1,13.4,10.6C563.5,441.7,569.5,443.2,574.6,439.2z"/>
						<path class="st9" d="M451.6,446.1c-3.4,3.3-21.2,8.1-14.6,13.6c15,10.4,17.4,17.3,34.4,4.9c7.7-3.4,6.8-6.5-0.1-10.4
							C465.3,451,459.1,442.3,451.6,446.1z"/>
						<path class="st9" d="M417.6,528.7c22.8-12.1,18.1-10.6-0.4-23.7c-4.9-3.9-10.1,0-14.5,2.6c-2.9,2.7-12,4.3-9.9,9.1
							C399.7,521.1,408.8,532.9,417.6,528.7z"/>
						<path class="st9" d="M296.3,577.5c8.5,5.6,17.3,16.8,27.4,7.2c3.2-2.6,9-3.9,10.4-7.8c-3.8-6.1-12.3-10-18.2-14.2
							c-4.9-1.9-9,2.6-13.1,4.7l0,0C299.4,569.8,289.7,573.1,296.3,577.5z"/>
						<path class="st9" d="M353,556.6c-5.9-3.1-11.8-12-19.1-7.9c-3.6,3.4-16.9,6.9-15.2,12.3c6.6,4.5,13.6,13.3,22.1,13
							c6-2.9,12.1-6.5,17.4-10.4C360.1,560.3,355,558.3,353,556.6z"/>
						<path class="st9" d="M302.2,534.7c-3.3,3.2-17.4,7.3-14.8,12.4c6,4.6,12.3,10.8,19.6,13.1c6-0.5,10.8-5.6,16-8.2
							c3.2-1.4,5.6-4.6,1.7-6.9C317.8,541.6,310.8,530.5,302.2,534.7z"/>
						<path class="st9" d="M351.4,505.1c-3.5,3.3-17.7,7.2-15.1,12.5c6.1,4.6,12.4,10.8,19.8,13.1c5.6-0.2,10-4.9,14.9-7.3
							c2.9-1.6,8.1-4.4,3.5-7.4C367.3,512.3,360.1,501.1,351.4,505.1z"/>
						<path class="st9" d="M552.7,412.7c-8.4-4.7-17.6-16.8-27.4-8.6c-3.3,3.1-14.4,5.1-12.6,10.3c6.8,4.3,16.6,16,25.3,12.3
							C541.5,423.4,560.8,418.4,552.7,412.7z"/>
						<path class="st9" d="M278.1,549.4c-3.4,3.3-17.1,7.1-14.7,12.4c5.9,4.6,12.2,10.8,19.4,13.1c5.4-0.2,9.6-4.9,14.3-7.2
							c3.2-1.7,8.3-4.8,3.4-7.8C293.6,556.3,286.6,545.3,278.1,549.4z"/>
						<path class="st9" d="M392.2,543.6c3.7-3.4,17.4-6.9,15.7-12.3c-7.3-4.6-17.3-17.8-26.5-11.1c-3.2,3-16,6.4-13.5,11.3
							C374.6,535.7,383.8,547.3,392.2,543.6z"/>
						<path class="st9" d="M468,499.4c3.4-3.3,21.7-8.2,14.4-13.7c-6.3-3.8-11.9-10-19.2-11.8c-5.7,0.3-10.2,4.9-15.2,7.3
							c-3.1,1.6-8.3,4.5-3.4,7.6C451.9,492.3,459.1,503.3,468,499.4z"/>
						<path class="st9" d="M340,478.9c-22.5,12.3-18.1,10.7,0.5,24.1c4.8,3.8,9.9-0.4,14.1-3c2.8-2.7,11.5-4.2,9.7-8.9
							C357.5,486.7,348.6,475,340,478.9z"/>
						<path class="st9" d="M336.5,632c-5.8-2.9-11.5-11.7-18.7-8.1c-3.5,3.3-17.3,7.2-15.4,12.4c6.6,4.4,13.4,13,21.9,12.9
							c6-2.9,12.1-6.5,17.4-10.5C343.4,635.5,338.5,633.7,336.5,632z"/>
						<path class="st9" d="M267,523.1c-22.2,12.3-17.4,10.9,0.5,24.1c4.8,3.8,9.8-0.6,14-3.1c2.7-2.6,11.1-4.2,9.3-8.8
							C284.2,531,275.5,519.2,267,523.1z"/>
						<path class="st9" d="M414.8,434.5c-3.4,3.4-21.6,8.3-14.4,13.9c6.3,3.8,11.7,10.1,18.9,11.8c5.4-0.3,9.6-4.7,14.3-6.9
							c2.9-1.7,9.4-4.5,4.4-7.9C430.9,441.8,423.6,430.9,414.8,434.5z"/>
						<path class="st9" d="M481.4,524.5c26.1-13.3,17-11.5-2.5-25c-5.9-1.9-10.7,3.6-15.7,5.8c-2.9,1.9-10.9,4.7-5.6,8.5
							C465,517.4,472.4,528.4,481.4,524.5z"/>
						<path class="st9" d="M476.8,431.6c-3.6,3.3-17.7,6.8-15.5,12.2c6.3,4.7,13,11,20.7,13.3c5.7-0.3,10.1-4.8,15-7.1
							c3.2-1.6,8.9-4.7,3.7-7.8C493.3,438.6,485.7,427.2,476.8,431.6z"/>
						<path class="st9" d="M545.3,455.4c3.4-3.3,22.3-8.2,15.1-13.6c-6.6-3.8-12.3-10.1-19.8-12c-5.9,0.4-10.6,5.1-15.8,7.5
							c-3.3,1.5-8.1,4.5-3.2,7.5C529.1,448.3,536.4,459.1,545.3,455.4z"/>
						<path class="st9" d="M326.9,519.8c-10.1,7.3-24.7,8.7-6.7,18.9l0,0c4.6,2.8,9.6,9.2,15.4,5.8c4.9-3.7,13-5.7,15.9-11
							c-1.2-3.8-6.3-5.4-9.1-8C337.8,522.6,332.7,516.3,326.9,519.8z"/>
						<path class="st9" d="M491.5,390.3c-16.4,10.1-25.4,8.7-3.7,21.9c5.8,5.8,12.5,3.9,18.3-0.5c3-2.7,11.7-4,10.4-8.8
							C509.8,398.6,500.1,387,491.5,390.3z"/>
						<path class="st9" d="M442.4,514.2c3.5-3.3,21.9-8.3,14.4-13.9c-7.2-3.5-14.3-14.3-23.1-10.9c-3.5,3.2-18.1,7.3-16,12.5
							C424.5,506.1,433.9,517.9,442.4,514.2z"/>
						<path class="st9" d="M426.1,461c-3.6,3.3-17.6,6.9-15.4,12.3c6.2,4.7,12.8,10.9,20.3,13.2c6.2-0.5,11.2-5.5,16.6-8.1
							c3.2-1.4,6-4.4,1.9-6.8C442.2,468,434.9,456.8,426.1,461z"/>
						<path class="st9" d="M559.1,480.4c3.5-3.1,19.1-7.4,16.3-12.4c-7.2-4.3-16.6-16-25.7-11.9c-3.7,3.2-18,7-16.2,12.2
							C540.5,472.6,550.3,484.4,559.1,480.4z"/>
						<path class="st9" d="M361,617.3c-5.9-3-11.8-11.9-19.1-8c-3.4,3.1-17.6,7.4-15.2,12.4c6.6,4.4,13.4,13,21.9,12.8
							c6-2.8,12.2-6.5,17.5-10.5C368,620.8,363,619,361,617.3z"/>
						<path class="st9" d="M524.9,426.3c-7.9-4.6-16.4-15.4-25.6-7.5c-3.9,3-10.9,4.4-12.9,8.9c1.4,3.6,19.3,16.3,23.4,14.5
							c6-2.3,11.4-6.1,17-9.2C530.9,431,527.7,427.8,524.9,426.3z"/>
						<path class="st9" d="M405.7,568.5c3.5-3.2,17.6-7.1,15.4-12.3c-6.2-4.6-12.7-10.9-20.3-13.1c-5.5,0.3-9.9,4.9-14.7,7.2
							c-3,1.6-8.5,4.5-3.7,7.6C389.6,561.6,396.8,572.7,405.7,568.5z"/>
						<path class="st9" d="M564,412.2c3.4-3.1,22.9-8.6,15.4-13.8c-6.6-3.8-12.3-10.1-19.8-12c-6.5,0.5-11.7,5.6-17.4,8.2
							c-3.4,1.3-5.7,4.4-1.6,6.7C547.9,404.8,555.1,415.5,564,412.2z"/>
						<path class="st9" d="M367.5,558.3c3.5-3.3,17.6-7.1,15.3-12.4c-6.2-4.6-12.6-10.8-20-13.1c-7.1,1.2-13.7,6.8-19.6,10.7
							c-1.6,4.5,6.2,6.6,8.8,9.3l0,0C356.5,555.6,361.7,561.8,367.5,558.3z"/>
						<path class="st9" d="M401.5,475.4c-19.8,11.4-21.9,9.5-1.6,23c4.1,4,9.4,3.1,13.6-0.2c3.2-3.1,14.3-5.3,12.3-10.4
							C419.1,483.7,409.9,472.1,401.5,475.4z"/>
						<path class="st9" d="M519.3,470.1c3.5-3.3,21.9-8.1,15.1-13.6c-6.5-3.8-12.2-10-19.6-12c-6,0.3-10.7,5.1-16,7.5
							c-3,1.5-7.9,4.2-3.2,7.2C503,462.7,510.3,473.7,519.3,470.1z"/>
						<path class="st9" d="M455.8,539.2c3.5-3.1,18.1-7.4,16.1-12.3c-6.3-4.7-13-10.9-20.7-13.2c-5.8,0.5-10.4,5.1-15.4,7.5
							c-3,1.5-7.8,4.4-3.2,7.3C439.8,532.1,446.9,543,455.8,539.2z"/>
						<path class="st9" d="M380.4,583.5c3.5-3.2,17.6-7.4,15.8-12.3c-7.1-4.5-17-17.6-26-11.3c-3.5,3.3-15.6,6.1-14,11.4
							C362.8,575.5,371.9,587,380.4,583.5z"/>
						<path class="st9" d="M364.7,464.1c-23,12.5-17.8,10.7,0.7,24.2c4.8,3.7,9.7-0.7,13.9-3.1c2.8-2.6,11.9-4.3,9.7-9
							C382.1,472.1,373.3,460.3,364.7,464.1z"/>
						<path class="st9" d="M533,495.1c3.4-3,18.7-7.4,16.2-12.2c-6.5-4.6-13.2-10.8-21-13.2c-5.8,0.4-10.4,5-15.5,7.3
							c-3.3,1.6-8.5,4.6-3.3,7.7C516.8,488.1,524.1,499,533,495.1z"/>
						<path class="st9" d="M439.9,419.9c-5.8,4.8-25.1,9-10.7,16.4c15.8,12.4,16.2,10.9,32.5,0.8c6.9-2.8,2.2-6.4-2.1-9
							C453.6,424.9,447.4,416,439.9,419.9z"/>
						<path class="st9" d="M227.7,577.3c16-10.4,22.6-8.9,3.2-21.7c-5.7-6.3-12.2-3.5-17.9,1c-2.5,2.4-10.1,3.9-8.3,8.3
							C210.9,569,219.6,580.8,227.7,577.3z"/>
						<path class="st9" d="M596.6,449.5c-6.2-3-12.4-11.8-20-8.3c-3.5,3.1-19.2,7.5-16.8,12.4c7.1,4.5,14.5,13,23.4,13.1
							c6.1-2.4,11.7-6.2,17.5-9.3C605.6,454.6,599.3,451.3,596.6,449.5z"/>
						<path class="st9" d="M533.5,381.5c-7.4-5.7-13.2-9.6-21.5-2.9c-3.2,2.9-12.7,4.3-11.3,9.4c7,4.6,14.4,13.5,23.3,13.3
							c6.3-3,12.9-6.5,18.5-10.4C544.4,386.4,536.1,384.3,533.5,381.5z"/>
						<path class="st9" d="M243.3,537.8c-3.5,3.4-16.9,7.1-15,12.5c5.9,4.7,12.2,10.9,19.4,13.2c5.4-0.4,9.6-5,14.3-7.3
							c3-1.6,7.9-4.5,3.3-7.5C258.4,545.1,251.7,534.2,243.3,537.8z"/>
						<path class="st9" d="M315.5,493.6c-22.4,12.3-17.9,10.6,0.4,24.1c4.6,3.7,9.5-0.1,13.5-2.6c2.9-2.8,12.1-4.4,10-9.3
							C333,501.6,323.7,489.7,315.5,493.6z"/>
						<path class="st9" d="M389.8,449.2c-3.4,3.4-21.6,8.4-14.2,13.9c6.2,3.8,11.6,10,18.7,11.8c5.6-0.3,9.9-5,14.8-7.2
							c2.9-1.5,8.6-4.3,3.9-7.4C405.7,456.8,398.5,445.7,389.8,449.2z"/>
						<path class="st9" d="M430.6,553.9c3.4-3.2,18.2-7.3,15.7-12.3c-6.2-4.6-12.8-10.8-20.4-13.1c-6.2,0.6-11.1,5.6-16.5,8.2
							c-3.2,1.3-5.8,4.4-1.8,6.6C414.7,546.8,421.9,557.9,430.6,553.9z"/>
						<path class="st9" d="M506.9,509.9c3.3-3.1,22.2-8.5,15.1-13.6c-6.5-3.8-12.2-10.1-19.6-12c-5.8,0.4-10.4,5-15.5,7.4
							c-3,1.6-8.3,4.3-3.6,7.3C490.7,502.5,498,513.5,506.9,509.9z"/>
						<path class="st9" d="M291.3,508.3c-22.6,12.5-17.7,10.7,0.5,24.2c4.7,3.8,9.7-0.6,13.8-3.1c2.8-2.6,11.1-4.1,9.5-8.8
							C308.9,516.5,299.2,504.5,291.3,508.3z"/>
						<path class="st9" d="M319,590.6c-11.6,7.1-17.5,7.8-2.9,16.7c10.8,9.4,14,7,25.2-0.3c11.5-5.1,3.1-8.5-3.1-13
							C332.4,589.2,325.8,584.2,319,590.6z"/>
						<path class="st9" d="M465.3,405.2c-3.3,3.1-18.4,7.5-15.7,12.3c6.3,4.6,12.9,10.9,20.5,13.2c5.8-0.4,10.4-5,15.5-7.4
							c3.2-1.6,8.4-4.5,3.4-7.5C481.6,412.4,474.1,401.2,465.3,405.2z"/>
						<path class="st9" d="M355.8,598.1c3.3-3.2,18.1-7.5,15.3-12.4c-6.1-4.5-12.5-10.6-19.8-13c-5.6,0.3-10.1,5.1-15,7.4
							c-3,1.6-7.7,4.5-3.1,7.3C340.2,590.9,347.2,601.9,355.8,598.1z"/>
						<path class="st9" d="M604.7,479.7c-19.3-14.3-19.1-11.8-38.5,0.4c-3.7,3,18.1,15.6,21.3,15.9c6.5-0.7,11.7-5.7,17.5-8.3
							C610.5,485.5,609.6,482.1,604.7,479.7z"/>
						<path class="st9" d="M641.2,452.5c10.6-4.5,11.5-8.5-0.3-12.2c-7.8,0.8-15.1,6.7-21.6,10.5c-2.1,2.9,3.2,5.3,5.4,6.5
							c5.6,2.9,10.7-1.9,15.4-4.2l0,0C640.4,452.9,640.8,452.7,641.2,452.5z"/>
						<path class="st9" d="M658.8,450.7c-4.9-3.9-10.3-1.1-14.8,1.6c-3.9,2.6-9.4,4-12.3,7.6c-0.7,2.9,4,4.8,6,5.9
							c5.4,2.6,10.4-2.3,15.1-4.4l0,0C657.3,458.7,668.2,455.5,658.8,450.7z"/>
						<path class="st9" d="M675.9,435.1c-6.6,4.7-28.1,9.8-10.8,16.6c8.2,1.5,17.1-6.8,24.1-10.3
							C690.5,436.5,680.1,432.5,675.9,435.1z"/>
						<path class="st9" d="M632.2,465.6c-7.3-6-15,2.1-21.7,5.1c-8.3,3.5-6.4,6.6,0.6,9.9c6.6,2.6,12.5-4.1,18.2-6.4
							C634,472.1,639,469.1,632.2,465.6z"/>
					</g>
				</g>
				
					<linearGradient id="SVGID_00000179633486020391165310000005328162211252455845_" gradientUnits="userSpaceOnUse" x1="11572.8555" y1="635.0756" x2="12280.7422" y2="661.19" gradientTransform="matrix(-1 0 0 1 12404.2627 0)">
					<stop  offset="5.376340e-03" style="stop-color:#B6C4D1"/>
					<stop  offset="0.118" style="stop-color:#BBC9D5"/>
					<stop  offset="0.2574" style="stop-color:#CBD6E0"/>
					<stop  offset="0.369" style="stop-color:#DCE5ED"/>
					<stop  offset="0.6578" style="stop-color:#DCE5ED"/>
					<stop  offset="1" style="stop-color:#B6C4D1"/>
				</linearGradient>
				<path style="fill:url(#SVGID_00000179633486020391165310000005328162211252455845_);" d="M154.9,549.2l0.3-1.9l256.3,208.8
					c1.7,1.4,3.8,2.6,5.9,3.4c2.1,0.8,4.4,1.3,6.7,1.5c2.3,0.2,4.6,0.1,6.7-0.4c2.1-0.4,4.1-1.2,5.8-2.3l367.4-237.9
					c0.5-0.3,1-0.7,1.4-1.1c0.4-0.4,0.8-0.8,1.1-1.2c0.3-0.4,0.6-0.9,0.8-1.4c0.2-0.5,0.4-1,0.5-1.4c-1.5,5.7-1,3.6-2.5,9.2
					c-0.1,0.5-0.3,1-0.5,1.4c-0.2,0.5-0.5,0.9-0.8,1.4c-0.3,0.4-0.7,0.9-1.1,1.2c-0.4,0.4-0.9,0.8-1.4,1.1L434.9,767.9
					c-1.7,1.1-3.7,1.9-5.8,2.3c-2.1,0.4-4.4,0.6-6.7,0.4c-2.3-0.2-4.5-0.7-6.7-1.5c-2.1-0.8-4.1-2-5.9-3.4L165,574.5
					C155.7,567.2,153.9,555.6,154.9,549.2z"/>
				<path class="st11" d="M792.2,528.1c0,0-38.9,25.1-77.8,50.1c-38.8,25.2-77.5,50.5-77.5,50.5s38.9-25.1,77.7-50.1
					C753.4,553.3,792.2,528.1,792.2,528.1z"/>
				<path class="st12" d="M176.9,185.8l-49.5,117.6l9.7,85.6L236,154.1L176.9,185.8z M451.3,373.3l-111.6,65.6L523.3,2.6
					c0.8,0.2,1.5,0.5,2.2,1c1.1,0.8,2.1,2,2.8,3.4c0.7,1.5,1.2,3.3,1.3,5.4L540,162.5L451.3,373.3z"/>
			</g>
			<g>
				
					<linearGradient id="SVGID_00000066499470017381877690000013566476609277186695_" gradientUnits="userSpaceOnUse" x1="11410.0596" y1="340.6999" x2="11818.3926" y2="340.6999" gradientTransform="matrix(-1 0 0 1 12404.2627 0)">
					<stop  offset="0" style="stop-color:#293445"/>
					<stop  offset="1" style="stop-color:#454F61"/>
				</linearGradient>
				<path style="fill:url(#SVGID_00000066499470017381877690000013566476609277186695_);" d="M605,196c-2.7-0.6-5.3-0.8-7.6-0.5
					c-2.3,0.2-4.4,0.8-6.1,1.8c-1.7,0.9-3.1,2.2-4.1,3.7c-0.9,1.5-1.4,3.3-1.3,5.3l7.5,184.7c0.1,2.1,0.7,4.3,1.9,6.4
					c1.1,2.1,2.7,4.1,4.6,5.9c1.9,1.8,4.2,3.4,6.7,4.7c2.5,1.3,5.2,2.3,8,2.9l361.6,74.7c2.7,0.6,5.2,0.7,7.5,0.3
					c2.3-0.3,4.3-1,5.9-2.1c1.6-1,2.9-2.4,3.7-4.1c0.8-1.6,1.1-3.6,0.9-5.7L974,290.6c-0.2-2-1-4-2.1-6c-1.2-1.9-2.7-3.8-4.6-5.5
					c-1.9-1.7-4-3.2-6.4-4.4c-2.3-1.2-4.9-2.2-7.5-2.7L605,196z"/>
				<g>
					<path class="st5" d="M601.2,208.2c0.2-0.4,0.6-0.7,1-0.9c0.4-0.2,0.9-0.4,1.5-0.4c0.6-0.1,1.2,0,1.8,0.1l117.1,25.5L828,443.3
						l-214-44.4c-0.7-0.1-1.3-0.4-1.9-0.7c-0.6-0.3-1.2-0.7-1.6-1.1c-0.5-0.4-0.9-0.9-1.1-1.4c-0.3-0.5-0.4-1-0.5-1.5l-8-184.6
						C600.8,209,601,208.6,601.2,208.2z"/>
				</g>
				<path class="st3" d="M581.2,215.2c0-0.4,0.1-0.8,0.1-1.1c0.1-0.4,0.2-0.7,0.3-1.1c0.1-0.3,0.2-0.7,0.4-1
					c1.6-3.4,3.1-6.7,4.7-10.1c-0.1,0.3-0.3,0.7-0.4,1c-0.1,0.3-0.2,0.7-0.3,1.1c-0.1,0.4-0.1,0.7-0.1,1.1c0,0.4,0,0.8,0,1.2
					l7.5,184.7c0.1,2.1,0.7,4.3,1.9,6.4c1.1,2.1,2.7,4.1,4.6,5.9c1.9,1.8,4.2,3.4,6.7,4.7c2.5,1.3,5.2,2.3,8,2.9l361.6,74.7
					c2,0.4,3.8,0.6,5.6,0.5c1.7-0.1,3.4-0.3,4.8-0.8c1.4-0.5,2.7-1.1,3.8-2c1.1-0.8,2-1.8,2.6-3c-1.8,3.2-3.6,6.5-5.5,9.7
					c-0.6,1.2-1.5,2.2-2.6,3c-1.1,0.8-2.4,1.5-3.8,2c-1.4,0.5-3.1,0.7-4.8,0.8c-1.7,0.1-3.6-0.1-5.6-0.5l-361.1-74.4
					c-2.8-0.6-5.5-1.6-8-2.9c-2.5-1.3-4.7-2.9-6.6-4.7c-1.9-1.8-3.5-3.8-4.6-5.9c-1.1-2.1-1.8-4.3-1.9-6.4l-7.4-184.7
					C581.2,216,581.2,215.6,581.2,215.2z"/>
				<g>
					<path class="st5" d="M975,477.1l-363.6-74.2c-4.2-0.8-7.8-4.8-8-8.8l-9.1-182.6c-0.2-4,3.1-6.7,7.2-5.9l353.2,77.1
						c4.2,0.9,7.8,4.7,8,8.6l19.5,180.3C982.4,475.5,979.2,478,975,477.1z"/>
				</g>
				<path class="st12" d="M745.9,226.7l-156.5,65.9l2,49.2l232.8-98L745.9,226.7z M985.6,396.7l-144.6,60.9l-127.6-26.4l263.8-111.1
					L985.6,396.7z"/>
			</g>
		</g>
	</g>
	<g>
		<path class="st14" d="M815.6,298.3c0,0.2,0.1,0.5,0,0.7c-0.2,0.9-0.5,1.9-0.7,2.8c-0.4,1.6-0.8,3.2-1.1,4.8
			c-0.3,1-0.6,2.2-0.9,3.2c-0.4,1.5-0.8,3.1-1.1,4.6c-0.2,0.8-0.4,1.5-0.6,2.2c-0.3,1.1-0.7,2.2-0.9,3.3c-0.4,1.6-0.8,3.2-1.1,4.8
			c-0.4,1.6-0.9,3.3-1.2,4.9c-0.5,1.9-0.9,3.8-1.4,5.8c-0.5,2-0.9,3.9-1.4,5.9c-0.5,2-0.9,3.9-1.4,5.9c-0.3,1.3-0.7,2.7-0.9,4
			c-0.5,1.9-0.9,3.9-1.4,5.8c-0.3,1.3-0.7,2.7-0.9,4c-0.3,1.3-0.7,2.6-0.9,3.8s0,2.4,0.7,3.5c0.4,0.7,0.7,1.3,0.9,2
			c0.6,1.5,0.9,3.1,0.8,4.7c-0.1,1.7-0.5,3.4-1.4,4.8c-1.5,2.4-3.6,3.6-6.3,4.1c-2.4,0.4-4.5,0-6.7-0.9c-1.6-0.7-3.1-1.5-4.5-2.7
			c-1.8-1.4-3.3-3.1-4.3-5.3c-0.6-1.2-1.1-2.5-1.5-3.7c-0.7-2.1-0.7-4.3,0.1-6.3c0.3-0.9,0.9-1.8,1.4-2.7c0.8-1.2,1.8-2.2,3-2.7
			c0.9-0.5,2-0.8,3-0.9c1.6-0.3,3.1,0,4.7,0.3c0.6,0.1,1,0,1.2-0.6c0.5-1.1,0.9-2.3,1.4-3.3c0.3-0.7,0.6-1.3,0.9-2
			c0.7-1.5,1.2-2.9,1.9-4.5c0.8-1.7,1.4-3.5,2.2-5.2c0.5-1.1,0.9-2.3,1.4-3.4c0.8-1.7,1.4-3.4,2.1-5.2c0.7-1.7,1.4-3.4,2.1-5.1
			c0.8-1.7,1.4-3.5,2.2-5.2c0.8-1.7,1.4-3.5,2.1-5.2c0.8-2,1.6-3.9,2.4-5.9c0.3-0.9,0.8-1.6,1-2.5c0.6-1.5,1.2-3,1.8-4.5
			c0.3-0.8,0.7-1.4,0.9-2.2c0.5-1.1,0.9-2.4,1.5-3.6c0.4-0.9,0.8-1.9,1.1-2.7C815.5,298.2,815.6,298.2,815.6,298.3L815.6,298.3z
			 M783.7,370.1c0.1,0.7,0.1,1.4,0.4,2c0.9,2.3,2.6,4,5,4.7c2,0.6,4.3,0,5.1-2.5c0.6-1.6,0.3-3.1-0.6-4.5c-1.1-1.9-2.7-3.1-4.8-3.6
			c-1-0.2-2.2-0.2-3.1,0.4C784.3,367.5,783.8,368.7,783.7,370.1L783.7,370.1z"/>
		<path class="st14" d="M771.8,287.4c2.6,0.2,5.9,0.4,9.3,0.7c3.8,0.3,7.4,1.2,10.9,2.3c4.5,1.4,9,2.9,13.3,5
			c1.8,0.9,3.7,1.8,5.5,2.7c0.3,0.2,0.4,0.3,0.3,0.7c-0.8,1.7-1.4,3.5-2.2,5.2c0,0.1-0.1,0.1-0.1,0.2c-0.3,0.9-0.3,0.8-1.1,0.4
			c-2.1-0.9-4.3-1.9-6.4-2.8c-2-0.9-4.1-1.6-6.2-2.3c-2.5-0.8-4.9-1.5-7.4-2.1c-2.4-0.6-4.7-0.9-7.2-1.1c-3.3-0.4-6.5-0.6-9.8-0.4
			c-1.8,0.1-3.5,0.2-5.3,0.3c-3.2,0.3-6.3,0.8-9.5,1.6c-2.3,0.7-4.5,1.2-6.7,2c-2.4,0.9-4.7,1.9-6.9,2.9s-4.3,2.4-6.3,3.6
			c-0.7,0.4-1.3,0.9-2,1.3c-0.7,0.5-1.4,0.6-2.1-0.4c-1.1-1.6-2.4-3.1-3.5-4.7c-0.8-1-0.7-1.4,0.5-2.3c1.7-1.1,3.3-2.3,5.1-3.2
			c1.9-1,4-2.1,6-2.9c2.4-1,4.9-2,7.4-2.8c3.1-1.1,6.4-1.9,9.7-2.4c2.7-0.4,5.3-0.8,8-0.9C767,287.4,769,287.4,771.8,287.4
			L771.8,287.4z"/>
		<path class="st14" d="M798.5,329.1c-2.3-0.8-4.5-1.6-6.6-2.3c-2.5-0.9-4.9-1.4-7.5-1.6c-2.9-0.3-5.9-0.4-8.7-0.2
			c-3,0.1-6,0.6-8.8,1.3c-2.6,0.7-5.1,1.6-7.6,2.6c-1.6,0.7-3.1,1.5-4.6,2.4c-1.1,0.7-2.3,1.5-3.3,2.4c-0.7,0.5-1.2,0.5-1.8-0.3
			c-1-1.4-2.1-2.9-3.1-4.4c-0.3-0.4-0.7-0.8-0.9-1.1c-0.5-0.6-0.4-0.9,0.2-1.3c0.9-0.7,1.8-1.3,2.7-1.9c2-1.1,4.1-2.3,6.2-3.3
			c2.7-1.2,5.5-2.2,8.4-2.9c2.9-0.8,5.9-1.1,8.9-1.4c3.7-0.3,7.4-0.2,11.1,0c3.8,0.2,7.4,1.2,11,2.6c2.3,0.9,4.5,1.8,6.8,2.7
			c0.4,0.1,0.5,0.3,0.3,0.7c-0.4,1-0.9,2-1.2,3c-0.4,0.9-0.7,1.7-1,2.6C798.7,328.6,798.5,328.9,798.5,329.1L798.5,329.1z"/>
		<path class="st14" d="M818.8,302.2c1,0.7,2.1,1.2,3,1.9c1.3,0.9,2.7,1.7,4,2.7c1.6,1.1,3.3,2.4,4.9,3.6c1.4,1.1,2.9,2.3,4.3,3.4
			c1.4,1.2,2.9,2.5,4.4,3.8c1.5,1.3,2.9,2.7,4.5,4.2c0.8,0.8,1.5,1.5,2.3,2.4c0.5,0.6,0.4,1.1-0.2,1.7c-0.9,0.9-1.6,1.8-2.5,2.7
			c-0.2,0.3-0.5,0.5-0.8,0.8c-0.4,0.4-0.9,0.3-1.1,0c-1-0.9-2.1-2-3.1-2.9c-1.2-1.1-2.4-2.3-3.6-3.4c-1.4-1.3-2.8-2.6-4.4-3.8
			c-1.3-1.1-2.7-2.2-4.1-3.2c-1.1-0.9-2.3-1.8-3.5-2.6c-1.6-1.1-3.2-2.1-4.8-3.2c-0.2-0.2-0.6-0.3-0.8-0.5c-0.1-0.2-0.2-0.5-0.1-0.7
			c0.3-1,0.6-2,0.8-3c0.2-0.9,0.4-1.9,0.7-2.8C818.5,302.8,818.7,302.5,818.8,302.2L818.8,302.2z"/>
		<path class="st14" d="M770.6,355.9c-0.7-0.9-1.2-1.7-1.9-2.6c-0.8-0.9-1.4-1.9-2.2-2.9c-0.3-0.4-0.6-0.8-0.9-1.1
			c-0.5-0.7-0.4-0.9,0.2-1.3c1.9-1.8,4.1-3.2,6.4-4.4c2.3-1,4.7-1.8,7.2-2.1c1.8-0.2,3.6-0.6,5.4-0.5c1.7,0,3.5,0.5,5.2,0.8
			c0.1,0,0.3,0.4,0.2,0.5c-0.3,0.9-0.7,1.6-0.9,2.4c-0.4,0.9-0.7,1.7-1,2.6c-0.2,0.5-0.5,1-0.7,1.5c-0.1,0.1-0.4,0.3-0.6,0.3
			c-2,0-4,0.1-5.9,0.6c-1.8,0.5-3.7,1.1-5.3,2.1c-1.6,0.9-2.9,2.1-4.4,3.2C771.1,355.3,770.9,355.5,770.6,355.9L770.6,355.9z"/>
		<path class="st14" d="M810.5,335.6c0.6-2.4,1.1-4.7,1.7-7.3c0.8,0.5,1.5,0.9,2.2,1.4c1.9,1.3,3.8,2.7,5.7,4.2
			c1.7,1.3,3.4,2.8,5,4.3c1.2,1,2.4,2.2,3.5,3.3c0.8,0.8,1.5,1.5,2.2,2.4c0.4,0.5,0.3,1-0.2,1.5c-1.1,1.1-2.2,2.4-3.3,3.6
			c-0.4,0.4-0.7,0.5-1,0.1c-0.8-0.8-1.5-1.4-2.3-2.2c-0.9-0.9-1.9-1.9-2.8-2.8c-1.1-1-2.4-2.2-3.6-3.1c-1.3-1-2.7-2.1-4-3
			C812.6,337.1,811.5,336.3,810.5,335.6L810.5,335.6z"/>
		<path class="st14" d="M808.4,363.4c-1.6-1.7-3-3.3-4.5-4.9c-0.6-0.6-0.5-1.1-0.3-1.9c0.3-0.9,0.6-2,0.8-2.9
			c0.2-0.9,0.4-1.8,0.6-2.7c0-0.2,0.2-0.4,0.3-0.6c0.2,0.1,0.4,0.2,0.5,0.3c1.2,1.1,2.5,2.2,3.6,3.3c1.1,1.1,2.1,2.3,3.1,3.5
			c0.5,0.6,0.3,1-0.2,1.5c-1.1,1.2-2.3,2.5-3.4,3.7C808.7,363,808.5,363.2,808.4,363.4L808.4,363.4z"/>
	</g>
	<g>
		<g>
			<path class="st15" d="M236.5,455l-1.8,1c-0.6,0.3-1,0.6-1.2,0.9c-0.2,0.2-0.2,0.5-0.2,0.9c0,0.3,0.2,0.5,0.4,0.5
				c0.2,0,0.6,0,1.1-0.2s0.9-0.5,1.1-0.9c0.3-0.4,0.5-0.8,0.6-1.3V455 M514.2,313.5l-1.8,1c-0.6,0.3-1,0.6-1.2,0.9
				c-0.2,0.2-0.2,0.5-0.2,0.9s0.2,0.5,0.4,0.5s0.6,0,1.1-0.2s0.8-0.5,1.1-0.9c0.3-0.4,0.5-0.8,0.6-1.3L514.2,313.5 M190.9,475.2
				c-0.4,0.2-0.8,0.5-1.1,0.9c-0.3,0.3-0.5,0.8-0.8,1.2c-0.2,0.4-0.2,1-0.2,1.4c0,0.4,0.2,0.9,0.4,1.1c0.2,0.2,0.5,0.4,0.9,0.4
				c0.3,0,0.8-0.1,1.2-0.3c0.4-0.2,0.8-0.5,1.1-0.9c0.3-0.3,0.5-0.8,0.8-1.2c0.1-0.4,0.2-1,0.1-1.4c-0.1-0.4-0.2-0.9-0.4-1.1
				c-0.2-0.2-0.5-0.4-0.9-0.4C191.8,474.8,191.3,474.9,190.9,475.2 M226.2,457.2c-0.4,0.2-0.8,0.5-1.1,0.9c-0.3,0.3-0.5,0.8-0.8,1.2
				c-0.1,0.4-0.2,1-0.1,1.4c0.1,0.4,0.2,0.9,0.4,1.1c0.2,0.2,0.5,0.4,0.9,0.4s0.8-0.1,1.2-0.3s0.8-0.5,1.1-0.9
				c0.3-0.3,0.5-0.8,0.8-1.2c0.1-0.4,0.2-1,0.1-1.4c-0.1-0.4-0.2-0.9-0.4-1.1c-0.2-0.2-0.5-0.4-0.9-0.4
				C227,456.9,226.7,457,226.2,457.2 M243.6,448.3c-0.4,0.2-0.8,0.5-1.1,0.9c-0.3,0.3-0.5,0.8-0.8,1.2c-0.2,0.4-0.2,1-0.2,1.4
				c0,0.4,0.2,0.9,0.4,1.1c0.2,0.2,0.5,0.4,0.9,0.4s0.8-0.1,1.2-0.3c0.4-0.2,0.8-0.5,1.1-0.9c0.3-0.3,0.5-0.8,0.8-1.2
				c0.1-0.4,0.2-1,0.2-1.4c0-0.4-0.2-0.9-0.4-1.1c-0.2-0.2-0.5-0.4-0.9-0.4C244.5,448,244.1,448.2,243.6,448.3 M490.9,322.4
				c-0.4,0.2-0.8,0.5-1.1,0.9c-0.3,0.3-0.5,0.8-0.8,1.2c-0.1,0.4-0.2,1-0.1,1.4c0.1,0.4,0.2,0.9,0.4,1.1c0.2,0.2,0.5,0.4,0.9,0.4
				s0.8-0.1,1.2-0.3c0.4-0.2,0.8-0.5,1.1-0.9c0.3-0.3,0.5-0.8,0.8-1.2c0.2-0.4,0.2-1,0.2-1.4c0-0.4-0.2-0.9-0.4-1.1
				c-0.2-0.2-0.5-0.4-0.9-0.4C491.6,322,491.3,322.2,490.9,322.4 M504,315.8c-0.4,0.2-0.8,0.5-1.1,0.9c-0.3,0.3-0.5,0.8-0.8,1.2
				c-0.1,0.4-0.2,1-0.2,1.4c0,0.4,0.2,0.9,0.4,1.1c0.2,0.2,0.5,0.4,0.9,0.4c0.3,0,0.8-0.1,1.2-0.3c0.4-0.2,0.8-0.5,1.1-0.9
				c0.3-0.3,0.5-0.8,0.8-1.2c0.1-0.4,0.2-1,0.2-1.4c0-0.4-0.2-0.9-0.4-1.1c-0.2-0.2-0.5-0.4-0.9-0.4
				C504.7,315.5,504.4,315.6,504,315.8 M521.4,306.8c-0.4,0.2-0.8,0.5-1.1,0.9c-0.3,0.3-0.5,0.8-0.8,1.2c-0.2,0.4-0.2,1-0.2,1.4
				c0,0.4,0.2,0.9,0.4,1.1c0.2,0.2,0.5,0.4,0.9,0.4s0.8-0.1,1.2-0.3c0.4-0.2,0.8-0.5,1.1-0.9s0.5-0.8,0.8-1.2c0.2-0.4,0.2-1,0.2-1.4
				c0-0.4-0.2-0.9-0.4-1.1s-0.5-0.4-0.9-0.4C522.1,306.5,521.8,306.6,521.4,306.8 M180.2,478.4l-2.4,1.2l0.6,6.8l2.4-1.2
				c0.8-0.4,1.4-0.9,1.8-1.4c0.5-0.5,0.9-1.2,1.2-1.8c0.2-0.6,0.3-1.3,0.2-2.1c-0.1-0.8-0.2-1.2-0.6-1.6c-0.3-0.3-0.8-0.5-1.4-0.5
				C181.6,477.8,181,478,180.2,478.4 M201.1,454.1l-2.9,1.5l0.2,2.9l2.9-1.5c0.6-0.3,1.2-0.8,1.5-1.2c0.3-0.4,0.5-0.9,0.4-1.4
				c-0.1-0.5-0.2-0.8-0.6-0.8S201.7,453.8,201.1,454.1 M500.9,301.3l-2.9,1.5l0.2,2.9l2.9-1.5c0.6-0.3,1.2-0.8,1.5-1.2
				c0.3-0.4,0.5-0.9,0.4-1.4c-0.1-0.5-0.2-0.8-0.6-0.9C502.1,300.9,501.6,301,500.9,301.3 M200.3,450.1l-2.6,1.3l0.2,2.7l2.6-1.3
				c0.6-0.3,1.1-0.6,1.4-1.1c0.3-0.4,0.4-0.9,0.4-1.3c0-0.4-0.2-0.8-0.6-0.8S200.8,449.9,200.3,450.1 M500.2,297.4l-2.6,1.3l0.2,2.7
				l2.6-1.3c0.6-0.3,1.1-0.6,1.4-1.1c0.3-0.4,0.4-0.9,0.4-1.3c0-0.4-0.2-0.8-0.6-0.8C501.3,296.9,500.7,297.1,500.2,297.4
				 M207.9,465.1l-2.1,9l-1.7,0.9l-2.4-4.2l-1.5,6.3l-1.7,0.9l-3.5-6.2l1.6-0.9l2.5,4.5l1.5-6.6l1.5-0.8l2.6,4.5l1.5-6.6
				L207.9,465.1 M191.6,481.4c-0.8,0.4-1.5,0.5-2.1,0.5c-0.6,0-1.2-0.2-1.5-0.6c-0.4-0.4-0.6-1-0.6-1.7s0-1.5,0.3-2.3
				c0.3-0.8,0.8-1.5,1.3-2.1c0.5-0.6,1.2-1.2,1.9-1.5c0.8-0.3,1.5-0.5,2.2-0.5c0.6,0,1.2,0.2,1.5,0.6c0.4,0.4,0.6,1,0.6,1.7
				s0,1.5-0.3,2.3c-0.3,0.8-0.8,1.5-1.3,2.2C193.1,480.7,192.3,481.1,191.6,481.4 M210.8,464.6c0.2-0.4,0.4-0.8,0.8-1.1
				c0.4-0.5,1.1-1,1.7-1.3c0.6-0.3,1.2-0.4,1.6-0.4c0.5,0,0.9,0.2,1.2,0.5c0.3,0.3,0.5,0.9,0.6,1.6l0.4,4.3l-1.7,0.9L215,465
				c-0.1-0.6-0.2-1.1-0.6-1.3c-0.3-0.2-0.8-0.1-1.3,0.1c-0.4,0.2-0.8,0.4-1.1,0.9c-0.3,0.3-0.5,0.8-0.6,1.1
				c-0.1,0.4-0.2,0.9-0.1,1.4l0.3,3.8l-1.7,0.9l-0.8-7.6l1.6-0.9L210.8,464.6 M226.8,463.5c-0.8,0.4-1.5,0.5-2.1,0.5
				c-0.5,0-1.2-0.2-1.5-0.6c-0.4-0.4-0.6-1-0.6-1.7s0-1.5,0.3-2.3c0.3-0.8,0.8-1.5,1.3-2.1c0.5-0.6,1.2-1.2,2.1-1.5
				c0.9-0.3,1.5-0.5,2.2-0.5c0.6,0,1.2,0.2,1.5,0.6c0.4,0.4,0.6,1,0.6,1.7s0,1.5-0.3,2.3c-0.2,0.8-0.8,1.5-1.3,2.1
				C228.2,462.6,227.5,463.1,226.8,463.5 M232.2,455l-0.9-1c0.3-0.5,0.9-1,1.4-1.4c0.5-0.4,1.1-0.9,1.7-1.1c1.1-0.5,1.9-0.8,2.6-0.5
				c0.6,0.2,1,0.9,1.1,1.9l0.4,4.4l-1.6,0.9l-0.1-1c-0.1,0.3-0.3,0.6-0.6,1c-0.4,0.4-1,0.9-1.6,1.2c-0.5,0.3-1.1,0.4-1.5,0.4
				s-0.8-0.1-1.1-0.3c-0.2-0.2-0.4-0.5-0.4-1c0-0.4,0-0.9,0.2-1.3c0.2-0.4,0.4-0.9,1-1.3c0.5-0.4,1.1-0.9,1.7-1.2l1.9-1v-0.1
				c-0.1-0.5-0.2-0.9-0.6-1c-0.3-0.1-0.9,0-1.4,0.3c-0.4,0.2-0.9,0.5-1.2,0.9C232.7,454.2,232.4,454.5,232.2,455 M488.5,323.1
				c0.2-0.4,0.4-0.8,0.8-1.1c0.4-0.5,1.1-1,1.6-1.3c0.8-0.4,1.4-0.5,2.1-0.5s1.1,0.2,1.5,0.6c0.4,0.4,0.6,1,0.6,1.7s0,1.5-0.3,2.3
				s-0.6,1.4-1.2,2.1c-0.5,0.5-1.2,1.1-1.9,1.5c-0.6,0.3-1.2,0.4-1.7,0.4c-0.3,0-0.5-0.1-0.8-0.2l0.3,3.7l-1.7,0.9l-1-10.4l1.6-0.9
				L488.5,323.1 M504.5,321.9c-0.8,0.4-1.5,0.5-2.1,0.5c-0.6,0-1.1-0.2-1.5-0.6c-0.4-0.4-0.6-1-0.6-1.7s0-1.5,0.3-2.3
				c0.3-0.8,0.8-1.5,1.3-2.1c0.5-0.6,1.2-1.2,2.1-1.5s1.5-0.5,2.2-0.5s1.2,0.2,1.5,0.6c0.3,0.4,0.6,1,0.6,1.7s0,1.5-0.3,2.3
				s-0.8,1.5-1.3,2.2C505.9,321.1,505.3,321.6,504.5,321.9 M509.9,313.4l-0.9-1c0.3-0.5,0.9-1,1.4-1.4c0.5-0.4,1.1-0.9,1.7-1.1
				c1.1-0.5,1.9-0.8,2.6-0.5s1,0.9,1.1,1.9l0.4,4.4l-1.6,0.9l-0.1-1c-0.1,0.3-0.3,0.6-0.6,1c-0.4,0.4-1,0.9-1.6,1.2
				c-0.5,0.3-1.1,0.4-1.5,0.4c-0.4,0-0.8-0.1-1.1-0.3c-0.2-0.2-0.4-0.5-0.4-1c0-0.4,0-0.9,0.2-1.3c0.2-0.4,0.4-0.9,0.9-1.3
				c0.4-0.4,1.1-0.9,1.8-1.2l1.9-1v-0.1c-0.1-0.5-0.2-0.9-0.5-1c-0.3-0.1-0.9,0-1.4,0.3c-0.4,0.2-0.9,0.5-1.2,0.9
				C510.4,312.8,510.1,313.1,509.9,313.4 M176.8,488.9l-1-9.9l4.2-2.2c1.1-0.5,2.1-0.9,2.8-0.8c0.9,0,1.5,0.2,2.1,0.8s0.9,1.3,1,2.3
				c0.1,1,0,1.9-0.4,2.9c-0.4,1-1,1.8-1.7,2.7c-0.8,0.9-1.7,1.5-2.7,2.1L176.8,488.9 M480.7,332.5c0.8-0.4,1.4-1,1.7-1.6
				c0.4-0.6,0.5-1.5,0.4-2.6l-0.5-5.5l1.8-1l0.5,5.6c0.1,1.4-0.1,2.7-0.9,3.9c-0.6,1.2-1.7,2.1-3,2.7s-2.4,0.9-3.2,0.4
				c-0.9-0.4-1.3-1.3-1.5-2.7l-0.5-5.6l1.8-1l0.5,5.5c0.1,1.1,0.4,1.6,0.9,1.9C479.2,333,479.9,332.9,480.7,332.5 M219.3,467.2
				l-1-10.6l1.7-0.9l1,10.6L219.3,467.2 M245.8,446.7l-0.3-3.9l1.7-0.9l1,10.6l-1.6,0.9l-0.1-1c-0.2,0.4-0.4,0.8-0.8,1.1
				c-0.4,0.5-1,1-1.6,1.3c-0.8,0.3-1.4,0.5-1.9,0.5c-0.6,0-1.1-0.2-1.5-0.6c-0.4-0.4-0.6-1-0.6-1.8s0-1.5,0.3-2.3
				c0.2-0.8,0.6-1.4,1.2-2.1s1.2-1.1,1.9-1.5c0.6-0.3,1.2-0.4,1.7-0.4C245.3,446.5,245.5,446.6,245.8,446.7 M497,325.6l-1-10.6
				l1.7-0.9l1,10.6L497,325.6 M523.4,305.2l-0.3-3.9l1.7-0.9l1,10.6l-1.6,0.9l-0.1-1c-0.2,0.4-0.4,0.8-0.6,1.1
				c-0.4,0.5-1.1,1-1.6,1.3c-0.6,0.3-1.4,0.5-1.9,0.5s-1.1-0.2-1.5-0.6c-0.4-0.4-0.6-1-0.6-1.8s0-1.5,0.3-2.3
				c0.2-0.8,0.6-1.4,1.2-2.1s1.2-1.1,1.8-1.5c0.6-0.3,1.2-0.4,1.7-0.4C523,305.1,523.2,305.1,523.4,305.2 M174.3,467.5v-5.6l5.7-2.9
				l0.1,1.5l-4.2,2.2v2.4l1-0.5c1-0.5,1.7-0.8,2.4-0.8c0.6,0,1.1,0.1,1.4,0.4c0.3,0.3,0.5,0.8,0.5,1.4s0,1.2-0.2,1.8
				c-0.2,0.6-0.6,1.2-1.2,1.8c-0.5,0.5-1.3,1.1-2.2,1.5c-0.6,0.3-1.4,0.5-2.1,0.8c-0.6,0.1-1.3,0.1-1.7,0l0.6-1.8
				c0.4,0.1,0.9,0.1,1.4,0s1.1-0.2,1.6-0.5c0.6-0.3,1.2-0.8,1.5-1.2c0.3-0.4,0.4-1,0.4-1.4c0-0.3-0.1-0.5-0.3-0.8
				c-0.2-0.1-0.4-0.2-0.9-0.1c-0.4,0.1-1,0.3-1.6,0.6L174.3,467.5 M188.3,461.5l3.1-8.5l1.5-0.8l1,9.9l-1.7,0.9l-0.6-6.6l-2.7,7.1
				L188,464l-3.7-3.8l0.6,6.5l-1.7,0.9l-1-9.9l1.5-0.8L188.3,461.5 M196.6,460.9l-1-9.9l4.5-2.4c1.2-0.5,2.1-0.9,2.8-0.6
				c0.6,0.1,1,0.6,1.1,1.4c0.1,0.5,0,1.1-0.2,1.5c-0.2,0.4-0.4,0.9-0.9,1.3c0.1,0,0.2,0,0.3,0c0.4,0,0.9,0.1,1.1,0.3
				c0.3,0.2,0.4,0.6,0.5,1.2c0.1,0.9-0.2,1.7-0.8,2.5c-0.6,0.9-1.5,1.5-2.8,2.2L196.6,460.9 M207.2,455.4l-1-9.9l1.8-1l1,9.9
				L207.2,455.4 M209.6,445.4l-0.1-1.5l8.3-4.2l0.1,1.5l-3.2,1.6l0.8,8.4l-1.8,1l-0.8-8.4L209.6,445.4 M474.1,314.7v-5.6l5.7-2.9
				l0.1,1.5l-4.2,2.2v2.4l1-0.4c1-0.5,1.7-0.8,2.4-0.8s1.1,0.1,1.4,0.4c0.3,0.3,0.5,0.8,0.5,1.3c0,0.5,0,1.2-0.2,1.8
				s-0.6,1.2-1.2,1.8c-0.5,0.5-1.3,1.1-2.2,1.5c-0.6,0.3-1.4,0.5-2.1,0.8c-0.6,0.1-1.3,0.1-1.7,0l0.6-1.8c0.4,0.1,0.9,0.1,1.4,0
				c0.5-0.1,1.1-0.2,1.6-0.5c0.6-0.3,1.2-0.8,1.5-1.2c0.3-0.4,0.5-1,0.4-1.4c0-0.3-0.1-0.5-0.3-0.8c-0.2-0.1-0.4-0.2-0.9-0.1
				c-0.4,0.1-1,0.3-1.6,0.6L474.1,314.7 M488.2,308.8l3.2-8.5l1.5-0.8l1,9.9l-1.7,0.9l-0.6-6.6l-2.7,7.1l-0.9,0.4l-3.8-3.8l0.6,6.5
				l-1.7,0.9l-1-9.9l1.5-0.8L488.2,308.8 M496.4,308.1l-1-9.9l4.5-2.4c1.2-0.5,2.1-0.9,2.7-0.6c0.6,0.1,1.1,0.6,1.1,1.4
				c0,0.5,0,1.1-0.2,1.5c-0.2,0.4-0.4,0.9-0.9,1.3c0.1,0,0.2,0,0.3,0c0.4,0,0.9,0.1,1.1,0.3c0.3,0.2,0.4,0.6,0.5,1.2
				c0.1,0.9-0.2,1.7-0.8,2.5c-0.5,0.8-1.5,1.5-2.8,2.2L496.4,308.1 M507.1,302.6l-1-9.9l1.8-1l1,9.9L507.1,302.6 M509.5,292.7
				l-0.1-1.5l8.3-4.2l0.1,1.5l-3.2,1.6l0.8,8.4l-1.8,1l-0.8-8.4L509.5,292.7"/>
			<g>
				<path class="st15" d="M379.5,178.3c-1.7,10.6-3.5,21.2-5.1,31.7c-1.9,12.2-3.8,24.4-5.7,36.6c-1.9,12.2-3.8,24.4-5.7,36.6
					c-0.8,5.1-1.8,9.7,1.1,14.9c3.9,7,0.8,14-3.2,20.3c-4.1,6.4-9.3,11.3-17.3,12.3c-6.7,0.9-12.8-3.8-12.9-10.7
					c-0.2-10.8,4.5-19.5,13.6-25.2c3.5-2.2,5.2-4.8,6.2-8.4c9.2-35.1,18.4-70.3,27.7-105.5c0.2-1,0.6-1.9,1-2.8L379.5,178.3
					L379.5,178.3z M350.1,302.7c-4.5,0.1-10.6,7.7-9.5,12.6c0.8,3.5,3.2,5,6.8,4.1c4.5-1.2,9-7.1,8.5-11.8
					C355.6,304.8,354,302.8,350.1,302.7L350.1,302.7z"/>
				<path class="st15" d="M265.9,273.6c-2.7-1.8-4.9-3.2-7.7-5.2c4.9-6.7,9.5-13.5,14.5-20c17.8-22.8,38.8-42.1,64.2-56.1
					c9.1-5,19.6-7.3,29.4-10.7c2.1-0.8,4.3-1,7.1-1.5c-1.1,4-1.8,7.7-3,11.1c-0.2,0.6-1.3,1.3-2.2,1.5
					c-22.4,4.6-41.5,15.7-58.7,30.4c-16,13.6-29.4,29.4-41.1,46.8C267.8,271.3,266.9,272.3,265.9,273.6L265.9,273.6z"/>
				<path class="st15" d="M360.7,226c0.2,1.5,0.3,1.6,0.2,1.7c-0.6,7.9-4.5,12-12.5,14.7c-14.6,4.9-25.9,15.2-36.2,26.4
					c-7.3,8-13.8,16.9-21,25.6c0.5,0,0.4,0.1,0.3,0c-8.9-6.2-8.5-3.2-2.5-11.9c13.6-19.9,30.5-36.5,51.5-48.3
					C346.7,230.8,353.8,228.8,360.7,226L360.7,226z"/>
				<path class="st15" d="M423.9,184.6c-1.5,3.1-2.9,6.6-4.8,9.7c-0.4,0.8-2.4,1.5-3.2,1.2c-10.7-3.3-21.6-4.8-33.5-4.2
					c0.6-3.9,1.2-7.7,1.9-11.2c0.1-0.4,1-1.2,1.5-1.2c12.8-0.5,25.3,0.2,37.3,5.1C423.3,183.9,423.5,184.2,423.9,184.6z"/>
				<path class="st15" d="M321.6,306.6c-2.8-1.8-5.2-3.5-7.9-5.3c8.2-14.6,18.4-26.7,34-35.1c-2.2,6.7-1.9,12.9-8,17.2
					C331.7,289.1,326.3,297.4,321.6,306.6L321.6,306.6z"/>
				<path class="st15" d="M375.4,236c0.4-2.7,0.9-5.7,1.2-8.8c0.2-2.4,1.1-3.9,3.8-3.5c7,1.1,13.9,2.1,21,3.2
					c2.9,0.4,3.2,2.2,1.8,4.6c-1.5,2.6-2.2,6.5-4.3,7.7c-1.9,1.1-5.5-0.9-8.3-1.3C385.3,237.3,380.3,236.7,375.4,236L375.4,236z"/>
				<path class="st15" d="M368.9,263.7c7.8,1.7,10,5.9,6.7,12.6c-0.5,1.1-1.2,2.2-1.7,3.3c-2.4-1.1-4.5-2.1-7-3.1
					C367.5,272.2,368.2,267.9,368.9,263.7z"/>
			</g>
			<path class="st15" d="M180,458.8l-5.7,2.9v5.6l2.4-1.2c0.6-0.3,1.2-0.5,1.6-0.6s0.6,0,0.9,0.1c0.2,0.1,0.3,0.4,0.3,0.8
				c0,0.4-0.1,1-0.4,1.4c-0.3,0.4-0.9,0.9-1.5,1.2c-0.5,0.3-1.1,0.4-1.6,0.5s-1,0.1-1.4,0l-0.6,1.8c0.4,0.1,1.1,0.1,1.7,0
				c0.6-0.1,1.3-0.3,2.1-0.8c0.9-0.4,1.6-1,2.2-1.5c0.5-0.5,1-1.2,1.2-1.8s0.3-1.2,0.2-1.8c-0.1-0.6-0.2-1.1-0.5-1.4
				c-0.3-0.3-0.8-0.4-1.4-0.4c-0.6,0-1.4,0.3-2.4,0.8l-1,0.5v-2.4l4.2-2.2L180,458.8"/>
			<path class="st15" d="M193.1,452.3l-1.5,0.8l-3.1,8.5l-4.5-4.6l-1.5,0.8l1,9.9l1.7-0.9l-0.6-6.5l3.7,3.8l0.9-0.4l2.7-7.1l0.6,6.6
				l1.7-0.9L193.1,452.3"/>
			<path class="st15" d="M198,455.6l2.9-1.5c0.6-0.3,1.2-0.5,1.6-0.4c0.4,0.1,0.6,0.3,0.6,0.8c0,0.4-0.1,1-0.4,1.4
				c-0.3,0.4-0.9,0.8-1.5,1.2l-2.9,1.5L198,455.6 M197.9,454.2l-0.2-2.7l2.6-1.3c0.6-0.3,1.1-0.4,1.5-0.4c0.4,0,0.5,0.3,0.6,0.8
				c0.1,0.4-0.1,0.9-0.4,1.3c-0.3,0.4-0.8,0.8-1.4,1.1L197.9,454.2 M200.3,448.6l-4.5,2.4l1,9.9l4.9-2.5c1.3-0.6,2.2-1.4,2.8-2.2
				s0.9-1.6,0.8-2.5c-0.1-0.5-0.2-1-0.5-1.2c-0.3-0.2-0.6-0.4-1.1-0.3c-0.1,0-0.2,0-0.3,0c0.3-0.4,0.6-0.9,0.9-1.3
				c0.2-0.5,0.3-1,0.2-1.5c-0.1-0.8-0.4-1.3-1.1-1.4C202.4,447.7,201.5,447.9,200.3,448.6"/>
			<polyline class="st15" points="208.2,444.6 206.4,445.4 207.3,455.4 209.2,454.5 208.2,444.6 			"/>
			<polyline class="st15" points="217.8,439.6 209.6,443.8 209.7,445.4 213,443.7 213.7,452.1 215.5,451.2 214.8,442.9 218,441.2 
				217.8,439.6 			"/>
			<path class="st15" d="M178.5,486.3l-0.6-6.8l2.4-1.2c0.8-0.4,1.4-0.5,1.9-0.5c0.5,0,1,0.2,1.4,0.5c0.3,0.3,0.5,0.9,0.6,1.6
				c0.1,0.8,0,1.3-0.2,2.1c-0.2,0.6-0.6,1.3-1.2,1.8c-0.5,0.5-1.1,1-1.8,1.4L178.5,486.3 M180.1,476.8l-4.2,2.2l1,9.9l4.2-2.2
				c1.1-0.5,1.9-1.2,2.7-2.1c0.8-0.9,1.3-1.7,1.7-2.7c0.4-1,0.5-1.9,0.4-2.9c-0.1-1-0.4-1.7-1-2.3c-0.5-0.5-1.2-0.8-2.1-0.8
				C182.2,475.9,181.2,476.1,180.1,476.8"/>
			<path class="st15" d="M191.3,479.9c-0.4,0.2-0.8,0.3-1.2,0.3c-0.3,0-0.6-0.1-0.9-0.4c-0.2-0.2-0.3-0.6-0.4-1.1
				c-0.1-0.4,0-1,0.2-1.4c0.1-0.4,0.4-0.9,0.8-1.2c0.3-0.3,0.6-0.6,1.1-0.9s0.8-0.3,1.2-0.3c0.3,0,0.6,0.1,0.9,0.4
				c0.2,0.2,0.3,0.6,0.4,1.1c0.1,0.4,0,1-0.1,1.4c-0.1,0.4-0.4,0.9-0.8,1.2S191.8,479.7,191.3,479.9 M190.8,473.7
				c-0.8,0.4-1.4,0.9-1.9,1.5c-0.5,0.6-1,1.3-1.3,2.1c-0.3,0.8-0.4,1.5-0.3,2.3c0.1,0.8,0.3,1.3,0.6,1.7c0.4,0.4,0.9,0.6,1.5,0.6
				c0.6,0,1.3-0.1,2.1-0.5c0.8-0.4,1.4-0.9,2.1-1.5c0.6-0.6,1-1.3,1.3-2.2c0.2-0.8,0.4-1.5,0.3-2.3c-0.1-0.8-0.3-1.3-0.6-1.7
				c-0.4-0.4-0.9-0.6-1.5-0.6C192.3,473.1,191.6,473.2,190.8,473.7"/>
			<polyline class="st15" points="207.9,465 206.4,465.9 204.8,472.5 202.3,467.9 200.8,468.7 199.3,475.3 196.9,470.7 195.1,471.5 
				198.6,477.8 200.3,476.9 201.7,470.6 204.2,474.8 205.8,474.1 207.9,465 			"/>
			<path class="st15" d="M213.3,462.2c-0.6,0.3-1.2,0.8-1.7,1.3c-0.3,0.3-0.5,0.8-0.8,1.1l-0.1-1l-1.6,0.9l0.8,7.6l1.7-0.9l-0.3-3.8
				c-0.1-0.5,0-1,0.1-1.4c0.1-0.4,0.3-0.9,0.6-1.1c0.3-0.3,0.6-0.6,1.1-0.9c0.5-0.3,1-0.3,1.3-0.1c0.3,0.1,0.5,0.5,0.6,1.3l0.4,4.1
				l1.7-0.9l-0.4-4.3c-0.1-0.8-0.2-1.3-0.6-1.6c-0.3-0.3-0.8-0.5-1.2-0.5C214.5,461.8,213.9,461.9,213.3,462.2"/>
			<polyline class="st15" points="220.2,455.7 218.4,456.6 219.4,467.2 221.2,466.2 220.2,455.7 			"/>
			<path class="st15" d="M226.7,462c-0.4,0.2-0.9,0.3-1.2,0.3s-0.6-0.1-0.9-0.4c-0.2-0.2-0.3-0.6-0.4-1.1s0-1,0.1-1.4
				c0.1-0.4,0.4-0.9,0.8-1.2c0.3-0.3,0.6-0.6,1.1-0.9c0.4-0.2,0.9-0.3,1.2-0.3s0.6,0.1,0.9,0.4c0.2,0.2,0.3,0.6,0.4,1.1
				c0.1,0.4,0,1-0.1,1.4c-0.1,0.4-0.4,0.9-0.8,1.2S227.1,461.8,226.7,462 M226,455.7c-0.8,0.4-1.4,0.9-2.1,1.5
				c-0.5,0.6-1,1.3-1.3,2.1c-0.3,0.8-0.4,1.5-0.3,2.3s0.3,1.3,0.6,1.7c0.4,0.4,1,0.6,1.5,0.6c0.6,0,1.3-0.1,2.1-0.5
				c0.8-0.4,1.4-0.9,2.1-1.5c0.5-0.6,1-1.3,1.3-2.1c0.3-0.8,0.4-1.5,0.3-2.3c-0.1-0.8-0.3-1.3-0.6-1.7c-0.3-0.4-0.9-0.6-1.5-0.6
				C227.5,455.1,226.9,455.3,226,455.7"/>
			<path class="st15" d="M234.9,458c-0.4,0.2-0.8,0.3-1.1,0.2c-0.3-0.1-0.4-0.2-0.4-0.5c0-0.3,0-0.5,0.2-0.9
				c0.2-0.3,0.5-0.6,1.2-0.9l1.8-1l0.1,0.9c-0.1,0.4-0.3,0.9-0.6,1.3C235.6,457.4,235.3,457.8,234.9,458 M234.5,451.4
				c-0.6,0.3-1.2,0.6-1.7,1.1c-0.5,0.4-1,1-1.4,1.4l0.9,1c0.2-0.4,0.5-0.8,1-1.1c0.4-0.3,0.8-0.6,1.2-0.9c0.6-0.3,1.1-0.4,1.4-0.3
				s0.5,0.4,0.5,1v0.1l-1.9,1c-0.8,0.4-1.3,0.8-1.7,1.2c-0.4,0.4-0.8,0.9-1,1.3c-0.1,0.4-0.2,0.9-0.2,1.3c0,0.4,0.2,0.8,0.4,1
				c0.2,0.2,0.6,0.3,1.1,0.3s1-0.2,1.5-0.4c0.6-0.3,1.2-0.8,1.6-1.2c0.2-0.3,0.4-0.6,0.6-1l0.1,1l1.6-0.9l-0.4-4.4
				c-0.1-1.1-0.4-1.7-1.1-1.9C236.4,450.7,235.5,450.9,234.5,451.4"/>
			<path class="st15" d="M244.1,453c-0.4,0.2-0.8,0.3-1.2,0.3c-0.3,0-0.6-0.1-0.9-0.4c-0.2-0.2-0.4-0.6-0.4-1.1c0-0.4,0-1,0.2-1.4
				c0.1-0.4,0.4-0.9,0.8-1.2c0.3-0.3,0.6-0.6,1.1-0.9c0.4-0.2,0.9-0.3,1.2-0.3s0.6,0.1,0.9,0.4c0.2,0.2,0.3,0.6,0.4,1.1
				c0.1,0.4,0,1-0.2,1.4c-0.2,0.4-0.4,0.9-0.8,1.2C244.9,452.6,244.5,452.8,244.1,453 M247.2,441.9l-1.7,0.9l0.3,3.9
				c-0.2-0.1-0.4-0.2-0.8-0.2c-0.5,0-1.1,0.1-1.7,0.4c-0.8,0.3-1.3,0.9-1.9,1.5c-0.5,0.6-1,1.3-1.2,2.1c-0.3,0.8-0.3,1.5-0.3,2.3
				s0.3,1.4,0.6,1.8c0.4,0.4,0.9,0.6,1.5,0.6s1.3-0.1,1.9-0.5c0.6-0.3,1.2-0.8,1.6-1.3c0.3-0.3,0.5-0.6,0.8-1.1l0.1,1l1.6-0.9
				L247.2,441.9"/>
			<path class="st15" d="M479.9,306.2l-5.7,2.9v5.6l2.4-1.2c0.6-0.3,1.2-0.5,1.6-0.6c0.4-0.1,0.6,0,0.9,0.1c0.2,0.1,0.3,0.4,0.3,0.8
				c0,0.4-0.1,1-0.4,1.4c-0.3,0.4-0.9,0.9-1.5,1.2c-0.5,0.3-1.1,0.4-1.6,0.5c-0.5,0.1-1,0.1-1.4,0l-0.6,1.8c0.4,0.1,1.1,0.1,1.7,0
				c0.6-0.1,1.4-0.3,2.1-0.8c0.9-0.4,1.6-1,2.2-1.5c0.5-0.5,1-1.2,1.2-1.8c0.2-0.6,0.3-1.2,0.2-1.8c-0.1-0.6-0.2-1.1-0.5-1.3
				c-0.3-0.3-0.8-0.4-1.4-0.4s-1.4,0.3-2.4,0.8l-1,0.4v-2.4l4.2-2.2L479.9,306.2"/>
			<path class="st15" d="M492.9,299.5l-1.5,0.8l-3.2,8.5l-4.5-4.6l-1.5,0.8l1,9.9l1.7-0.9l-0.6-6.5l3.8,3.8l0.9-0.4l2.7-7.1l0.6,6.6
				l1.7-0.9L492.9,299.5"/>
			<path class="st15" d="M497.9,302.8l2.9-1.5c0.6-0.3,1.2-0.5,1.6-0.4c0.4,0,0.5,0.3,0.6,0.9c0.1,0.5-0.1,1-0.4,1.4
				c-0.3,0.4-0.9,0.8-1.5,1.2l-2.9,1.5L497.9,302.8 M497.8,301.4l-0.2-2.7l2.6-1.3c0.6-0.3,1.1-0.4,1.5-0.4c0.3,0.1,0.5,0.3,0.6,0.8
				c0.1,0.4-0.1,0.9-0.4,1.3c-0.3,0.4-0.8,0.8-1.4,1.1L497.8,301.4 M500.2,295.8l-4.5,2.4l1,9.9l4.9-2.5c1.3-0.6,2.2-1.4,2.8-2.2
				c0.6-0.8,0.9-1.6,0.8-2.5c0-0.5-0.2-1-0.5-1.2c-0.3-0.2-0.6-0.4-1.1-0.3c-0.1,0-0.2,0-0.3,0c0.3-0.4,0.6-0.9,0.9-1.3
				c0.2-0.5,0.3-1,0.2-1.5c-0.1-0.8-0.4-1.3-1.1-1.4C502.2,294.9,501.4,295.1,500.2,295.8"/>
			<polyline class="st15" points="508.1,291.8 506.2,292.7 507.2,302.6 509,301.7 508.1,291.8 			"/>
			<polyline class="st15" points="517.8,286.8 509.5,291 509.6,292.7 512.8,290.9 513.7,299.4 515.4,298.4 514.7,290.1 517.9,288.3 
				517.8,286.8 			"/>
			<path class="st15" d="M484.2,321.8l-1.8,1l0.5,5.5c0.1,1.1,0,1.8-0.4,2.6c-0.4,0.6-1,1.2-1.7,1.6c-0.8,0.4-1.4,0.5-1.9,0.2
				c-0.5-0.3-0.8-0.9-0.9-1.9l-0.5-5.5l-1.8,1l0.5,5.6c0.1,1.4,0.6,2.4,1.5,2.7c0.9,0.4,1.9,0.2,3.2-0.4s2.4-1.6,3-2.7
				c0.6-1.2,1-2.5,0.9-3.9L484.2,321.8"/>
			<path class="st15" d="M491.3,327.1c-0.4,0.2-0.8,0.3-1.2,0.3c-0.3,0-0.6-0.1-0.9-0.4c-0.2-0.2-0.3-0.6-0.4-1.1
				c-0.1-0.4,0-1,0.1-1.4c0.2-0.4,0.4-0.9,0.8-1.2c0.3-0.3,0.6-0.6,1.1-0.9c0.4-0.2,0.9-0.3,1.2-0.3c0.3,0,0.6,0.1,0.9,0.4
				c0.2,0.2,0.3,0.6,0.4,1.1c0.1,0.4,0,1-0.2,1.4c-0.1,0.4-0.4,0.9-0.8,1.2C492.1,326.6,491.7,326.8,491.3,327.1 M490.9,320.7
				c-0.6,0.3-1.2,0.8-1.6,1.3c-0.3,0.3-0.5,0.6-0.8,1.1l-0.1-1l-1.6,0.9l1,10.4l1.7-0.9l-0.3-3.7c0.2,0.1,0.5,0.2,0.8,0.2
				c0.5,0,1.1-0.1,1.7-0.4c0.8-0.4,1.4-0.9,1.9-1.5c0.5-0.6,1-1.3,1.2-2.1c0.2-0.8,0.3-1.5,0.3-2.3s-0.3-1.4-0.6-1.7
				c-0.4-0.4-0.9-0.6-1.5-0.6C492.3,320.2,491.6,320.3,490.9,320.7"/>
			<polyline class="st15" points="497.8,314.3 496.1,315.1 497,325.6 498.9,324.7 497.8,314.3 			"/>
			<path class="st15" d="M504.4,320.4c-0.4,0.2-0.9,0.3-1.2,0.3c-0.3,0-0.6-0.1-0.9-0.4c-0.2-0.2-0.3-0.6-0.4-1.1
				c-0.1-0.4,0-1,0.2-1.4c0.1-0.4,0.4-0.9,0.8-1.2c0.3-0.3,0.6-0.6,1.1-0.9c0.4-0.2,0.9-0.3,1.2-0.3c0.3,0,0.6,0.1,0.9,0.4
				c0.2,0.2,0.3,0.6,0.4,1.1c0.1,0.4,0,1-0.2,1.4c-0.1,0.4-0.4,0.9-0.8,1.2C505.1,319.9,504.8,320.2,504.4,320.4 M503.7,314.2
				c-0.8,0.4-1.4,0.9-2.1,1.5c-0.5,0.6-1,1.3-1.3,2.1c-0.3,0.8-0.4,1.5-0.3,2.3c0.1,0.8,0.3,1.3,0.6,1.7c0.4,0.4,1,0.6,1.5,0.6
				c0.5,0,1.3-0.1,2.1-0.5c0.8-0.4,1.4-0.9,2.1-1.5c0.5-0.6,1-1.3,1.3-2.2c0.3-0.8,0.4-1.5,0.3-2.3c-0.1-0.8-0.3-1.3-0.6-1.7
				c-0.3-0.4-0.9-0.6-1.5-0.6C505.3,313.6,504.5,313.8,503.7,314.2"/>
			<path class="st15" d="M512.6,316.5c-0.4,0.2-0.9,0.3-1.1,0.2c-0.2-0.1-0.4-0.2-0.4-0.5s0-0.5,0.2-0.9c0.2-0.3,0.5-0.5,1.2-0.9
				l1.8-1l0.1,0.9c-0.1,0.4-0.3,0.9-0.6,1.3C513.4,316,512.9,316.3,512.6,316.5 M512.2,309.9c-0.5,0.3-1.2,0.6-1.7,1.1
				c-0.5,0.4-1,1-1.4,1.4l0.9,1c0.2-0.4,0.5-0.8,1-1.1c0.4-0.3,0.8-0.6,1.2-0.9c0.6-0.3,1.1-0.4,1.4-0.3c0.3,0.1,0.5,0.4,0.5,1v0.1
				l-1.9,1c-0.8,0.4-1.4,0.8-1.8,1.2c-0.4,0.4-0.8,0.9-0.9,1.3c-0.1,0.4-0.2,0.9-0.2,1.3c0,0.4,0.2,0.8,0.4,1
				c0.2,0.2,0.6,0.3,1.1,0.3c0.4,0,1-0.2,1.5-0.4c0.6-0.3,1.2-0.8,1.6-1.2c0.3-0.3,0.5-0.6,0.6-1l0.1,1l1.6-0.9l-0.4-4.4
				c-0.1-1.1-0.4-1.7-1.1-1.9C514.1,309.2,513.3,309.4,512.2,309.9"/>
			<path class="st15" d="M521.8,311.6c-0.4,0.2-0.9,0.3-1.2,0.3c-0.3,0-0.6-0.1-0.9-0.4c-0.2-0.2-0.4-0.6-0.4-1.1c0-0.4,0-1,0.2-1.4
				c0.1-0.4,0.4-0.9,0.8-1.2c0.3-0.3,0.6-0.6,1.1-0.9c0.4-0.2,0.8-0.3,1.2-0.3c0.3,0,0.6,0.1,0.9,0.4c0.2,0.2,0.3,0.6,0.4,1.1
				c0.1,0.4,0,1-0.2,1.4c-0.2,0.4-0.4,0.9-0.8,1.2C522.5,311,522.2,311.3,521.8,311.6 M524.8,300.4l-1.7,0.9l0.3,3.9
				c-0.2-0.1-0.5-0.2-0.8-0.2c-0.5,0-1.1,0.1-1.7,0.4c-0.6,0.3-1.3,0.9-1.8,1.5c-0.5,0.6-1,1.3-1.2,2.1c-0.3,0.8-0.3,1.5-0.3,2.3
				c0,0.8,0.3,1.4,0.6,1.8c0.4,0.4,0.9,0.6,1.5,0.6s1.3-0.1,1.9-0.5c0.6-0.3,1.2-0.8,1.6-1.3c0.2-0.3,0.5-0.6,0.8-1.1l0.1,1l1.6-0.9
				L524.8,300.4"/>
		</g>
	</g>
	<g>
		<path class="st3" d="M28.4,643.3l66.8-235.3c0.1-0.3,0.2-0.6,0.3-1c0.1-0.3,0.2-0.6,0.4-0.9c0.1-0.3,0.3-0.6,0.5-0.8
			c0.2-0.3,0.4-0.5,0.5-0.8c2.5-3.3,5-6.6,7.5-9.8c-0.2,0.3-0.4,0.5-0.5,0.8c-0.2,0.3-0.3,0.6-0.5,0.8c-0.1,0.3-0.3,0.6-0.4,0.9
			c-0.1,0.3-0.2,0.6-0.3,1L36,633.8c-0.6,2-0.6,4.2-0.3,6.3c0.4,2.2,1.2,4.3,2.4,6.4c1.2,2.1,2.7,4,4.6,5.7c1.8,1.7,4,3.1,6.4,4.2
			l124.1,57.1c1.8,0.8,3.6,1.4,5.4,1.7c1.8,0.3,3.5,0.3,5.1,0.1c1.6-0.2,3.1-0.7,4.4-1.4c1.3-0.7,2.5-1.6,3.5-2.7
			c-2.7,3.1-5.3,6.2-8,9.3c-1,1.1-2.1,2-3.5,2.7c-1.3,0.7-2.8,1.2-4.4,1.4c-1.6,0.2-3.3,0.2-5.1-0.1c-1.8-0.3-3.6-0.8-5.4-1.7
			L41.4,665.9c-2.4-1.1-4.5-2.5-6.3-4.2c-1.8-1.7-3.4-3.6-4.6-5.7c-1.2-2-2-4.2-2.4-6.4C27.7,647.5,27.8,645.4,28.4,643.3z"/>
		
			<linearGradient id="SVGID_00000155840933542653263190000008662005740930242986_" gradientUnits="userSpaceOnUse" x1="12149.376" y1="552.8854" x2="12368.7539" y2="552.8854" gradientTransform="matrix(-1 0 0 1 12404.2627 0)">
			<stop  offset="0" style="stop-color:#293445"/>
			<stop  offset="1" style="stop-color:#454F61"/>
		</linearGradient>
		<path style="fill:url(#SVGID_00000155840933542653263190000008662005740930242986_);" d="M123,392.4c-2.3-1.1-4.5-1.7-6.7-2
			c-2.2-0.2-4.2-0.1-6.1,0.4c-1.8,0.5-3.5,1.4-4.8,2.7c-1.3,1.2-2.3,2.8-2.8,4.7L36,633.8c-0.6,2-0.6,4.2-0.3,6.3
			c0.4,2.2,1.2,4.3,2.4,6.4c1.2,2.1,2.7,4,4.6,5.7c1.8,1.7,4,3.1,6.4,4.2l124.1,57.1c2.3,1.1,4.7,1.7,6.9,1.9
			c2.2,0.2,4.3-0.1,6.2-0.7c1.9-0.6,3.5-1.6,4.9-3c1.3-1.4,2.3-3.1,2.8-5.1L254.5,470c0.5-1.9,0.5-3.9,0.1-5.9c-0.4-2-1.2-4.1-2.4-6
			c-1.2-1.9-2.7-3.8-4.4-5.4c-1.8-1.6-3.8-3-6-4.1L123,392.4z"/>
		<g>
			<g>
				<path class="st5" d="M249.4,467.6l-37.2,144.7l-13,50.6l-10.6,41.3c-0.4,1.4-1,2.6-1.9,3.5c-0.9,0.9-2,1.6-3.3,2.1
					c-1.3,0.4-2.8,0.6-4.3,0.5c-1.5-0.1-3.1-0.5-4.7-1.3l-37.2-17.1L87.8,669l-37.5-17.2c-1.6-0.8-3.1-1.8-4.4-2.9
					c-1.3-1.2-2.3-2.5-3.2-3.9c-0.8-1.4-1.4-2.9-1.6-4.4c-0.3-1.5-0.2-3,0.2-4.3L53,595.1l14.3-50.6l14-49.6l26.6-94.2
					c0.4-1.3,1-2.4,1.9-3.2c0.9-0.8,2-1.5,3.3-1.8c1.3-0.4,2.7-0.5,4.2-0.3c1.5,0.2,3,0.6,4.6,1.3l118.9,56.2
					c1.5,0.7,2.9,1.7,4.2,2.8c1.2,1.1,2.2,2.4,3,3.7c0.8,1.3,1.3,2.7,1.6,4.1C249.7,464.9,249.7,466.3,249.4,467.6z"/>
			</g>
			<path class="st17" d="M226.4,460l13.6,6.4c0.1,0,0.1,0.1,0.1,0.1c0,0,0.1,0.1,0.1,0.1c0,0,0,0.1,0.1,0.1c0,0,0,0.1,0,0.1
				c0,0,0,0.1-0.1,0.1c0,0-0.1,0.1-0.1,0.1c0,0-0.1,0-0.1,0c-0.1,0-0.1,0-0.2,0l-13.6-6.4c-0.1,0-0.1-0.1-0.1-0.1
				c0,0-0.1-0.1-0.1-0.1c0,0,0-0.1-0.1-0.1c0,0,0-0.1,0-0.1c0,0,0-0.1,0.1-0.1c0,0,0.1-0.1,0.1-0.1c0,0,0.1,0,0.1,0
				C226.3,460,226.4,460,226.4,460L226.4,460z"/>
			<path class="st17" d="M225.6,463.1l13.6,6.4c0.1,0,0.1,0.1,0.1,0.1c0,0,0.1,0.1,0.1,0.1c0,0,0,0.1,0.1,0.1c0,0,0,0.1,0,0.1
				c0,0,0,0.1-0.1,0.1c0,0-0.1,0.1-0.1,0.1c0,0-0.1,0-0.1,0c-0.1,0-0.1,0-0.2,0l-13.6-6.4c-0.1,0-0.1-0.1-0.1-0.1
				c0,0-0.1-0.1-0.1-0.1c0,0,0-0.1-0.1-0.1c0,0,0-0.1,0-0.1c0,0,0-0.1,0.1-0.1c0,0,0.1-0.1,0.1-0.1c0,0,0.1,0,0.1,0
				C225.5,463.1,225.5,463.1,225.6,463.1L225.6,463.1z"/>
			<path class="st17" d="M224.8,466.3l13.6,6.4c0.1,0,0.1,0.1,0.1,0.1c0,0,0.1,0.1,0.1,0.1c0,0,0,0.1,0.1,0.1c0,0,0,0.1,0,0.1
				c0,0,0,0.1-0.1,0.1c0,0-0.1,0.1-0.1,0.1c0,0-0.1,0-0.1,0c-0.1,0-0.1,0-0.2,0l-13.6-6.4c-0.1,0-0.1-0.1-0.1-0.1
				c0,0-0.1-0.1-0.1-0.1c0,0,0-0.1-0.1-0.1c0,0,0-0.1,0-0.1c0,0,0-0.1,0.1-0.1c0,0,0.1-0.1,0.1-0.1c0,0,0.1,0,0.1,0
				C224.7,466.3,224.7,466.3,224.8,466.3L224.8,466.3z"/>
			<path class="st17" d="M118.3,410.4c0.3,0.2,0.6,0.4,0.9,0.6c0.3,0.2,0.5,0.5,0.6,0.8c0.2,0.3,0.3,0.6,0.3,0.9
				c0.1,0.3,0,0.6,0,0.9c-0.1,0.3-0.2,0.5-0.4,0.7c-0.2,0.2-0.4,0.3-0.7,0.4c-0.3,0.1-0.6,0.1-0.9,0.1c-0.3,0-0.6-0.1-1-0.3
				c-0.1-0.1-0.3-0.1-0.4-0.2c-0.1-0.1-0.2-0.2-0.3-0.2c-0.1-0.1-0.2-0.2-0.3-0.3c-0.1-0.1-0.2-0.2-0.3-0.3l0.3-0.1
				c0,0,0.1,0,0.1-0.1c0,0,0.1-0.1,0.1-0.1c0,0,0-0.1,0-0.1c0,0,0-0.1-0.1-0.1c0,0,0,0,0-0.1c0,0,0,0-0.1-0.1c0,0,0,0-0.1-0.1
				c0,0,0,0-0.1,0c0,0,0,0-0.1,0c0,0-0.1,0-0.1,0c0,0,0,0-0.1,0c0,0-0.1,0-0.1,0l-0.3,0.1c0-0.1-0.1-0.2-0.1-0.3
				c0-0.1-0.1-0.2-0.1-0.3c0-0.1,0-0.2,0-0.3c0-0.1,0-0.2,0.1-0.3l0.4,0.2l0.4,0.2c-0.1,0.2-0.1,0.4,0,0.6c0,0.2,0.1,0.4,0.2,0.6
				c0.1,0.2,0.3,0.4,0.4,0.5c0.2,0.2,0.4,0.3,0.6,0.4c0.2,0.1,0.4,0.2,0.7,0.2c0.2,0,0.4,0,0.6,0c0.2-0.1,0.3-0.1,0.5-0.3
				c0.1-0.1,0.2-0.3,0.3-0.5c0-0.2,0.1-0.4,0-0.6c0-0.2-0.1-0.4-0.2-0.6c-0.1-0.2-0.3-0.4-0.4-0.5c-0.2-0.2-0.4-0.3-0.6-0.4
				c-0.2-0.1-0.4-0.2-0.7-0.2c-0.2,0-0.4,0-0.6,0c-0.2,0.1-0.3,0.1-0.5,0.3c-0.1,0.1-0.2,0.3-0.3,0.5l-0.4-0.2l-0.4-0.2
				c0.1-0.3,0.2-0.5,0.4-0.7c0.2-0.2,0.4-0.3,0.7-0.4c0.3-0.1,0.6-0.1,0.9-0.1C117.7,410.2,118,410.3,118.3,410.4L118.3,410.4z"/>
			<path class="st18" d="M116.1,412.6C116.1,412.6,116.1,412.6,116.1,412.6c0.1,0.1,0.1,0.1,0.1,0.1c0,0,0,0,0.1,0.1c0,0,0,0,0,0.1
				c0,0,0.1,0.1,0.1,0.1c0,0,0,0.1,0,0.1c0,0,0,0.1-0.1,0.1c0,0-0.1,0.1-0.1,0.1l-0.3,0.1l-1.5,0.4c0,0,0,0-0.1,0c0,0-0.1,0-0.1,0
				c0,0-0.1,0-0.1,0c0,0-0.1,0-0.1,0c0,0,0,0-0.1,0c0,0,0,0-0.1-0.1c0,0,0,0-0.1-0.1c0,0,0,0,0-0.1c0,0-0.1-0.1-0.1-0.1
				c0,0,0-0.1,0-0.1c0,0,0-0.1,0.1-0.1c0,0,0.1-0.1,0.1-0.1l1.5-0.4l0.3-0.1c0,0,0,0,0.1,0c0,0,0.1,0,0.1,0
				C115.9,412.6,116,412.6,116.1,412.6C116,412.6,116,412.6,116.1,412.6"/>
		</g>
		<path class="st12" d="M222.2,596.2L36.5,632l-0.5,1.7c-0.6,2-0.6,4.2-0.3,6.3c0.4,2.2,1.2,4.3,2.4,6.4c1.2,2.1,2.7,4,4.6,5.7
			c1.8,1.7,4,3.1,6.4,4.2l24.3,11.2l137.3-26.5L222.2,596.2z M189.1,423.7l52.6,24.9c2.2,1.1,4.3,2.5,6,4.1c1.8,1.6,3.3,3.4,4.4,5.4
			c0.5,0.8,0.9,1.6,1.2,2.4L75.3,494.8l14.7-52L189.1,423.7z"/>
	</g>
	<g>
		<path class="st15" d="M169.3,525.7c0,0.2,0.1,0.3,0,0.4c-0.2,0.7-0.3,1.3-0.5,1.9c-0.3,1.1-0.5,2.2-0.8,3.3
			c-0.2,0.8-0.4,1.4-0.6,2.2c-0.3,1-0.5,2.1-0.8,3.2c-0.1,0.5-0.3,1-0.4,1.5c-0.2,0.8-0.4,1.5-0.6,2.3c-0.3,1.1-0.5,2.2-0.8,3.3
			c-0.3,1.1-0.6,2.2-0.8,3.4c-0.3,1.3-0.7,2.6-0.9,3.9c-0.3,1.3-0.7,2.7-0.9,3.9c-0.3,1.3-0.7,2.7-1,4c-0.3,0.9-0.4,1.8-0.7,2.7
			c-0.3,1.3-0.7,2.6-1,3.9c-0.3,0.9-0.4,1.8-0.7,2.7c-0.3,0.8-0.5,1.7-0.7,2.6c-0.2,0.8,0,1.7,0.4,2.4c0.3,0.4,0.4,0.9,0.6,1.3
			c0.3,1,0.6,2.1,0.5,3.2c-0.1,1.2-0.3,2.3-1,3.3c-1,1.6-2.4,2.4-4.3,2.8c-1.6,0.3-3,0-4.5-0.6c-1.1-0.4-2.1-1-3-1.8
			c-1.2-1-2.2-2.1-2.9-3.6c-0.3-0.8-0.8-1.7-1-2.5c-0.4-1.4-0.4-2.9,0.1-4.3c0.3-0.7,0.6-1.3,0.9-1.8c0.5-0.8,1.2-1.4,2-1.8
			c0.7-0.3,1.3-0.5,2-0.6c1.1-0.2,2.2,0,3.2,0.2c0.4,0.1,0.7,0,0.8-0.4c0.3-0.8,0.7-1.5,0.9-2.3c0.2-0.4,0.3-0.9,0.6-1.3
			c0.4-1,0.8-2,1.3-3c0.5-1.2,1-2.4,1.5-3.5c0.3-0.8,0.7-1.6,0.9-2.4c0.5-1.2,0.9-2.4,1.4-3.5c0.5-1.2,0.9-2.4,1.4-3.4
			c0.5-1.2,1-2.4,1.4-3.5c0.5-1.2,0.9-2.4,1.4-3.5c0.5-1.3,1.1-2.7,1.6-4c0.3-0.6,0.5-1.1,0.8-1.7c0.4-1,0.8-2,1.3-3
			c0.2-0.5,0.4-1,0.7-1.4c0.3-0.8,0.7-1.6,1-2.4c0.3-0.7,0.5-1.3,0.8-1.8C169.3,525.8,169.3,525.8,169.3,525.7L169.3,525.7z
			 M147.6,574.6c0.1,0.4,0.1,0.9,0.3,1.3c0.7,1.6,1.8,2.7,3.4,3.2c1.3,0.4,2.9,0,3.5-1.7c0.4-1.1,0.2-2.1-0.3-3.1
			c-0.8-1.3-1.8-2.1-3.3-2.4c-0.8-0.2-1.5-0.1-2.2,0.3C148.1,572.8,147.7,573.5,147.6,574.6L147.6,574.6z"/>
		<path class="st15" d="M139.7,518.3c1.8,0.1,4,0.3,6.3,0.4c2.5,0.2,5,0.8,7.5,1.6c3.1,0.9,6.1,2,9.1,3.4c1.3,0.6,2.5,1.2,3.7,1.8
			c0.3,0.1,0.3,0.3,0.2,0.4c-0.5,1.2-1,2.4-1.5,3.5l-0.1,0.1c-0.3,0.6-0.2,0.5-0.8,0.3c-1.4-0.7-2.9-1.3-4.4-1.9
			c-1.3-0.6-2.8-1.1-4.2-1.5c-1.7-0.5-3.4-1-5-1.4c-1.6-0.3-3.3-0.7-4.9-0.8c-2.2-0.3-4.5-0.3-6.7-0.3c-1.2,0.1-2.4,0.1-3.6,0.3
			c-2.2,0.2-4.3,0.5-6.4,1.1c-1.5,0.4-3.1,0.8-4.6,1.3c-1.6,0.6-3.2,1.3-4.7,2c-1.5,0.8-2.9,1.6-4.3,2.4c-0.5,0.3-0.9,0.6-1.3,0.9
			c-0.5,0.3-1,0.4-1.4-0.3c-0.8-1.1-1.6-2.2-2.4-3.2c-0.5-0.7-0.5-1,0.3-1.5c1.2-0.8,2.3-1.5,3.4-2.2c1.3-0.8,2.7-1.4,4-2
			c1.6-0.7,3.3-1.3,5-1.9c2.2-0.8,4.4-1.3,6.6-1.6c1.8-0.3,3.6-0.5,5.4-0.7C136.4,518.4,137.7,518.4,139.7,518.3L139.7,518.3z"/>
		<path class="st15" d="M157.7,546.6c-1.5-0.5-3-1.1-4.5-1.6c-1.7-0.6-3.4-0.9-5-1.1c-2-0.2-3.9-0.3-6-0.2c-2,0.1-4,0.4-6,0.9
			c-1.8,0.5-3.4,1.1-5.1,1.8c-1.1,0.4-2.2,1-3.2,1.6c-0.8,0.4-1.5,1-2.3,1.6c-0.5,0.3-0.8,0.3-1.2-0.2c-0.8-1-1.4-2-2.2-2.9
			c-0.2-0.3-0.4-0.5-0.7-0.8c-0.3-0.4-0.3-0.6,0.2-0.8c0.6-0.4,1.3-0.9,1.8-1.3c1.3-0.8,2.8-1.6,4.2-2.3c1.8-0.8,3.8-1.5,5.7-1.9
			c2-0.5,4-0.8,6-1c2.5-0.2,5-0.2,7.5,0c2.6,0.2,5,0.8,7.5,1.8c1.5,0.6,3,1.2,4.6,1.8c0.3,0.1,0.3,0.2,0.2,0.4
			c-0.3,0.7-0.6,1.3-0.8,2c-0.3,0.6-0.4,1.2-0.7,1.8C157.9,546.4,157.8,546.6,157.7,546.6L157.7,546.6z"/>
		<path class="st15" d="M171.5,528.4c0.8,0.4,1.4,0.8,2,1.3c0.9,0.6,1.8,1.2,2.7,1.8c1.1,0.8,2.2,1.6,3.3,2.4c1,0.8,2,1.5,2.9,2.4
			c1,0.8,2,1.7,2.9,2.6c1,0.9,2,1.8,3,2.9c0.5,0.5,1,1.1,1.5,1.6c0.3,0.4,0.3,0.8-0.1,1.2c-0.6,0.6-1.1,1.2-1.7,1.8
			c-0.2,0.2-0.3,0.3-0.5,0.5c-0.3,0.3-0.6,0.2-0.8,0c-0.8-0.7-1.4-1.3-2.2-2c-0.8-0.8-1.6-1.6-2.4-2.4c-0.9-0.8-1.9-1.8-2.9-2.5
			c-0.9-0.8-1.8-1.4-2.8-2.2c-0.8-0.6-1.5-1.2-2.4-1.8c-1.1-0.8-2.2-1.4-3.3-2.2c-0.2-0.1-0.3-0.2-0.5-0.3c-0.1-0.1-0.1-0.3-0.1-0.5
			c0.2-0.7,0.3-1.3,0.5-2.1c0.2-0.7,0.3-1.3,0.4-1.9C171.3,528.8,171.4,528.7,171.5,528.4L171.5,528.4z"/>
		<path class="st15" d="M138.7,564.9c-0.4-0.6-0.8-1.2-1.3-1.7c-0.5-0.7-1-1.3-1.5-2c-0.2-0.3-0.4-0.5-0.6-0.8
			c-0.3-0.4-0.3-0.6,0.1-0.9c1.3-1.3,2.8-2.2,4.4-2.9c1.5-0.8,3.2-1.2,4.9-1.4c1.2-0.2,2.4-0.3,3.6-0.3c1.2,0,2.4,0.3,3.5,0.5
			c0.1,0,0.2,0.3,0.2,0.3c-0.2,0.6-0.4,1.1-0.7,1.6c-0.3,0.6-0.5,1.2-0.7,1.8c-0.2,0.3-0.3,0.7-0.5,1c-0.1,0.1-0.3,0.2-0.3,0.2
			c-1.3,0-2.7,0.1-3.9,0.4c-1.3,0.3-2.5,0.8-3.6,1.4c-1.1,0.6-2,1.4-3,2.2C139.2,564.4,139,564.7,138.7,564.9L138.7,564.9z"/>
		<path class="st15" d="M165.9,551.1c0.4-1.6,0.8-3.2,1.2-5c0.5,0.3,1,0.6,1.5,0.9c1.3,0.9,2.6,1.8,3.9,2.9c1.2,0.9,2.4,1.9,3.4,2.9
			c0.8,0.8,1.6,1.5,2.4,2.3c0.5,0.5,1,1,1.5,1.6c0.3,0.3,0.2,0.7-0.1,1c-0.8,0.8-1.5,1.6-2.3,2.4c-0.3,0.3-0.5,0.3-0.8,0.1
			c-0.5-0.5-1-1-1.5-1.5c-0.7-0.7-1.3-1.3-1.9-1.9c-0.8-0.8-1.6-1.4-2.4-2.1c-0.9-0.8-1.8-1.4-2.7-2.1
			C167.3,552.1,166.6,551.6,165.9,551.1L165.9,551.1z"/>
		<path class="st15" d="M164.4,570c-1.1-1.2-2-2.3-3-3.4c-0.4-0.4-0.3-0.8-0.3-1.3c0.2-0.7,0.3-1.3,0.5-2c0.2-0.6,0.3-1.3,0.4-1.8
			c0-0.2,0.2-0.3,0.2-0.4c0.1,0.1,0.3,0.1,0.3,0.2c0.8,0.8,1.7,1.5,2.4,2.3c0.8,0.8,1.4,1.6,2.1,2.4c0.3,0.3,0.2,0.7-0.1,1.1
			c-0.8,0.8-1.5,1.7-2.3,2.5C164.6,569.7,164.5,569.9,164.4,570L164.4,570z"/>
	</g>
</g>
</svg>
