<?xml version="1.0" encoding="UTF-8"?>
<svg id="katman_1" data-name="katman 1" xmlns="http://www.w3.org/2000/svg" viewBox="0 0 372.23 384.62">
  <defs>
    <style>
      .cls-1 {
        fill: #666;
        stroke-width: 0px;
      }
    </style>
  </defs>
  <path class="cls-1" d="m371.45,68.62c-.8-4.75-3.27-8.42-7.16-10.62-1.84-1.04-2.49-2.25-2.46-4.62.1-11.12.06-22.3.04-33.26.27-22.62-22.53-17.44-38.09-17.96-49.25-.41-48.53-3.34-47.68,46.86-.27,2.7.96,7.15-1.69,8.63-5.44,3.29-8.06,8.4-8.01,15.62.12,17.1.06,34.26.03,51.14-.42,4.26,1.73,10.48,3.36,14.62,5.91,15,3.54,37.95,22.07,44.14,3.21,1.09,4.09,2.4,4.08,6.1-.13,42.08-.34,84.84.07,127.46.27,13.75-9.4,24.5-23.34,24.28-9.46-.19-16.27-.31-28.51-.3-20.87.04-41.73.17-62.6.16-12.88,0-28.7.05-39.96-.08-11.94-.11-20.91-8.59-21.32-20.18-.26-7.42-.05-14.76-.08-22.13,0-1.73.33-2.4,1.42-2.86,8.36-3.5,12.19-10.14,12.05-20.9-.12-9.16.1-18.08-.08-27.26h5.47c26.34-11.26,61.4-18.67,52.55-56.1-11.75-41.26-52.32-71.64-95.39-70.64-43.31,0-81.13,27.74-94.11,69.02-5.78,18.37.4,38.39,18.68,44.62.3,0,38.46,13.29,38.77,13.1-.09,7.65-.08,15.38-.05,22.89-.44,9.7.02,20.01,9.93,24.36,2.61,1.27,3.08,2.77,3.11,5.43-3.54,46.03,15.37,83.44,65.83,84.31,18.38.02,36.75.03,55.13.03,31.25-.46,65.18.9,96.33-.6,31.49-5.53,52.68-33.83,52.72-65.95.05-41.98.04-85.44-.04-129.16-.06-9.37,9.84-.9,15.87-21.37,3.79-10.7,8.01-22.11,11.77-32.9,2.02-9.4,2.79-48.45,1.31-65.9Zm-79.55-46.96c-.07-3.21,1.05-3.53,4.27-3.62,2.85-.06,3.71.67,3.54,3.68.2,7.59-2.79,21.4,7.71,21.81,14.62-.56,2.61-26.97,10.42-25.44,2.26.17,5.39-.67,4.98,2.61.26,8.1-2.65,22.41,8.02,22.78,10.35-.23,7.76-14.98,7.89-22.45-.04-2.6.65-2.9,3.43-2.96,2.74.02,3.9.3,3.84,3.1-.14,9.8-.14,19.85,0,30.72.03,2.76-.89,3.42-3.61,3.39-11.69-.15-24.86.02-36.78-.08-3.79,0-6.87.03-9.72.1-1.35.05-2.85-.17-3.29-.74-.51-.53-.75-1.51-.71-3.02.23-9.98.23-20.03,0-29.88ZM61.89,230.45s-31.96-12.25-31.96-12.25c-10.12-2.45-15.76-13.51-12.57-23.66,10.93-34.84,43.08-58.15,79.62-57.81,36.37,0,68.96,24.33,79.25,59.17,2.86,9.69-2.46,20.14-12.11,23.8,0,0-28.01,10.75-28.01,10.75H61.89Zm17.18,50.54c-2.92,0-4.11-1.17-4.12-4.04-.03-9.83,0-19.66-.04-29.49h42.8c0,9.78-.12,19.36.02,29.13.09,3.29-1,4.41-4.22,4.39-10.78-.1-23.9-.14-34.43,0Zm247.54-22.06c0,19.9,0,40.47-.05,60.7.07,26.77-21.88,50.85-49.08,49.41-46.57.08-90.47.1-135.95.03-23.65-.04-46.36-16.73-51.65-37.88-2.48-11.12-1.56-22.64-1.08-33.78,3.16-1.26,11.15-.5,14.63-.15.88.25.98.8.85,2.56.13,8.04-.32,15.89.51,23.97,2.18,18.98,17.54,32.82,36.53,32.9,22.56.11,44.79.01,67.37.02,20.09.03,43.28-.61,62.53.18,23.1,1.05,41.38-17.38,40.63-40.85-.22-29.96-.17-60.43-.12-89.89.4-13.13-.68-27.49.45-40.35,2.36-1.15,11.35-.49,13.72.12,2.16,23.73-.01,49.27.72,73Zm28.76-130.05c-4.02,11.58-8.25,23.25-11.9,33.28-1.77,4.85-2.13,7.21-7.29,7.21-10.05-.07-23.79.03-33.84-.04-5.76-.04-8.77-2.13-10.71-7.44-3.35-9.14-3.84-18.91-8.32-31.68-2.1-11.09-.36-22.55-.93-33.82,0-7.47-.01-14.95-.04-22.42.04-2.25.49-2.85,2.69-2.89,23.35.64,47.36-1.06,70.43.61,1.24,2.35.17,6.11.51,8.85-.57,18.92,1.2,38.16-.6,48.33Z"/>
  <path class="cls-1" d="m96.75,118.31c78.01-2.05,77.99-116.28,0-118.31-78.01,2.05-77.99,116.28,0,118.31Zm0-102.3c56.89,1.49,56.88,84.8,0,86.29-56.89-1.49-56.88-84.8,0-86.29Z"/>
</svg>