<?xml version="1.0" encoding="UTF-8"?>
<svg id="katman_1" data-name="katman 1" xmlns="http://www.w3.org/2000/svg" viewBox="0 0 347.94 347.7">
  <defs>
    <style>
      .cls-1 {
        fill: #666;
        stroke-width: 0px;
      }
    </style>
  </defs>
  <path class="cls-1" d="m103.98,0h155.54c8.76,2.43,15.62,7.64,21.93,14.06,17.88,18.18,35.94,36.18,54.08,54.1,6.06,5.98,10.51,12.72,12.42,21.05,0,76.85,0,153.69,0,230.54-5.01,17.3-17.69,28.15-35.89,27.93-67.08.01-134.17.03-201.25-.02-19.28-.01-34.71-15.32-34.64-34.52.02-4.35-1.33-6.14-5.52-7.36C25.63,292.73-3.92,249.13.42,202.53c3.73-40.11,31.62-73.91,70.56-85.25,3.83-1.11,5.18-2.78,5.16-6.82-.18-25.39-.06-50.77-.11-76.16-.18-16.58,12.24-30.48,27.95-34.3Zm108.17,328.14c32.76,0,65.52.02,98.29,0,12.06,0,18.24-6.21,18.24-18.31.02-65.66.01-131.31,0-196.97,0-5.04-.12-5.16-5.05-5.17-30.68-.93-82.53,9.66-83.36-35.3-.05-16.18-.08-32.37.04-48.55.03-3.37-1.01-4.74-4.52-4.64-40.91.21-81.84-.06-122.76.08-10.51.01-17.3,6.21-17.37,16.33-.17,24.6-.04,49.21-.1,73.81,0,2.85,1,4.15,3.92,3.99,65.6-.44,113.18,66.26,92.53,128.48-12.79,39.87-49.75,67.21-91.81,67.9-4.5.07-5.08.79-4.2,5.15,1.76,8.66,7.66,13.18,17.46,13.19,32.89.03,65.79.01,98.68.01ZM19.84,211.64c1.26,103.5,157.7,102.21,157.04-.54-.78-103.48-156.93-100.97-157.04.54Zm279.24-123.52c7.62,0,15.25.02,22.87-.02,1.12,0,2.7.6,3.27-.61-18-21.92-41.8-41.88-61.75-63.1-1.95-2.81-4.45-2.26-3.63,1.41-.04,14.98-.08,29.97,0,44.95-.51,21.96,24.34,16.96,39.24,17.38Z"/>
  <path class="cls-1" d="m256.78,138.66c9.99,0,19.97-.03,29.96.01,14.46-.85,14.45,20.25.13,19.52-20.37.04-40.74.04-61.11,0-14.11.81-14.22-20.19-.13-19.52,10.38-.05,20.76-.01,31.14-.02Z"/>
  <path class="cls-1" d="m256.09,259.26c-10.12,0-20.24.04-30.35-.01-14.08.74-14.19-20.24-.06-19.52,20.5-.04,41-.04,61.5,0,13.87-.7,13.84,20.1.06,19.51-10.38.06-20.76.02-31.14.02Z"/>
  <path class="cls-1" d="m262.69,208.73c-8.15,0-16.29.04-24.44-.01-14.06.65-13.99-20.32.14-19.52,16.16-.04,32.32-.04,48.48,0,14.37-.75,14.26,20.32-.14,19.52-8.01.04-16.03.01-24.04,0Z"/>
  <path class="cls-1" d="m180.16,107.67c-6.04,0-12.08.07-18.12-.02-13.29.5-13.41-19.92-.18-19.49,12.48-.09,24.95-.09,37.43,0,13.23-.38,13.09,19.89-.21,19.5-6.3.02-12.61,0-18.91,0Z"/>
  <path class="cls-1" d="m108.89,192.63c-.99,8.97,3.02,20.15-4.27,27.12-8.35,5.36-21.02,27.73-31.27,17.81-11.92-14.09,15.05-21.06,15.48-33.7-.14-9.19-.03-18.39-.04-27.59.08-7.88,3.78-12.38,10.14-12.33,13.43-.03,9.4,19.24,9.96,28.68Z"/>
</svg>