<?xml version="1.0" encoding="UTF-8"?>
<svg id="katman_1" data-name="katman 1" xmlns="http://www.w3.org/2000/svg" viewBox="0 0 300 218.78">
  <defs>
    <style>
      .cls-1 {
        fill: #666;
        stroke-width: 0px;
      }
    </style>
  </defs>
  <path class="cls-1" d="m299.52,22.61c-2.2-6.03-9.08-4.75-14.19-4.81-.73.02-.98-.21-.98-.94-.85-5.27,3.01-16.19-4.91-16.62.29-.08.53-.17.79-.25H19.77c.26.19.59.15.89.29-7.88.39-4.02,11.1-4.89,16.29-.18,3.97-14.52-3.47-15.66,8.52-.34,1.71.2,182.29-.02,184.04-.56,4.71,2.44,9.61,7.59,9.48,42.78.51,238.68-.35,284.83,0,3.86,0,6.56-2.56,7.49-6.19V23.41c-.31-.17-.36-.51-.48-.79h0ZM24.77,10.52c0-1.39,0-1.38,1.42-1.38h42.96c7.21,0,13.76,0,18.17,0h57.24c1.05,0,1.07.02,1.07,1.06v20.63c0,1.01-.02,1.03-1.02,1.03-3.76.08-10.45-1.15-10.68,4.21,0,5.77,6.81,4.63,10.77,4.66.7,0,.95.21.95.92-.02,9.94-.02,19.89,0,29.84-.37,1.96-5.31.42-7.03.9-5.66-.34-6.25,8.42-.77,8.85,1.64.55,8.24-1.12,7.79,1.09v29.33c.26,3.48-10.52-1.69-11.56,4.71-1.17,9,10.21,3.51,11.57,6.36-.02,9.99-.02,20,0,29.99-.49,2.01-5.33.29-7.08.84-7.1.75-7.18,10.81,6.11,8.88.91,0,.96.05.96.95,0,9.29,0,18.58.02,27.87-38.44,2.12-81.85,1.05-120.87.36-.04-60.38,0-120.75,0-181.12h0Zm266.38,17.59v180.25c-44.1,4.08-94.85,0-141.12,1.4-1.05-1-141.71,1.98-141.03-1.04,1.04-60.09-2.04-123.59,1.05-182.03,1.58.02,3.16.03,4.75.08.94.03.97.07.97,1.05v41.25c0,42.28,0,84.56,0,126.84-.21,2.62,1.65,5.22,4.43,5.17,3.89-.04,159.18.04,162.72,0,5.73-.13,5.62-8.87-.05-8.87-9.15-.59-20,1.17-28.35-.63-.08-.13.06-27.52,0-27.73-.43-3.89,11.4,2.11,11.7-5.78-.16-5.67-6.85-4.4-10.76-4.47-.68.02-.95-.17-.95-.9.02-9.91.02-19.8.02-29.7.14-3.32,11.51,2.25,11.71-5.57-.15-5.66-6.77-4.35-10.64-4.47-1.03-.03-1.06-.04-1.06-1.09,0-9.82,0-19.66,0-29.48,0-3.2,13.21,2.7,11.5-6.85-1.41-4.38-6.99-2.93-10.55-3.13-.74,0-.97-.25-.97-.98.02-9.9,0-19.8,0-29.69.49-3.25,11.27,2.42,11.7-5.43-.22-5.64-6.88-4.39-10.8-4.43-.71,0-.92-.25-.92-.94.02-6.91.02-13.8.02-20.71-.71-3.11,117.65-.04,118.7-1.09,5.53,55.69,1.4,124.61,1.43,183.06-24.55,1.1-50.42-2.18-74.35,1.21-2.97,2.6-.75,7.74,3.16,7.65,25.06.06,50.11,0,75.17.02,2.84.4,5.83-1.43,5.72-4.54.02-3.32,0-164.56,0-168.17,0-1.85-.1-1.68,1.71-1.69,1.68.33,5.42-1.12,5.08,1.42h0Z"/>
  <path class="cls-1" d="m82.18,124.68c-29.66.57-29.29,44.62.07,44.86,29.33-.44,29.58-44.3-.07-44.86Zm-.22,39.99c-22.87-.75-22.65-34.79.23-35.04,23.11.21,23.06,34.83-.23,35.04Z"/>
  <path class="cls-1" d="m82.3,109.45c53.61-1.35,53.79-80.07-.12-81.52-53.8,1.47-53.73,80.31.12,81.52Zm-23.49-19.27c.33.35.65.69.98,1.02-.05-.05-.1-.09-.14-.13-.12-.13-.25-.25-.36-.37-.17-.17-.32-.35-.48-.52h0Zm4.68,4.06c10.6-9.39,26.93-9.37,37.5.08.04.03.07.07.11.1-11.36,8.57-26.75,7.49-37.61-.18Zm18.74-38.8c15.44.28,14.53,22.88.25,22.91-14.67.6-16.09-22.59-.25-22.91Zm25.11,32.7c-3.17-2.92-6.81-5.24-10.84-6.91,13.67-13.1,2.13-36.71-16.55-34.54-16.49,1.57-24.22,23.14-12.06,34.54-4.03,1.67-7.66,3.98-10.82,6.9.4.52.83,1.03,1.27,1.52-.06-.07-.13-.14-.2-.22-.36-.43-.73-.86-1.07-1.3l-.05.05c-4.23-5.25-6.83-11.99-6.72-19.85,5.62-56.61,88.05-27.82,57.03,19.81Z"/>
  <path class="cls-1" d="m205.34,166.11c11.97,9.19,30.82,2.83,35.03-11.61,1.01-3.07-3.71-4.56-4.7-1.52-5.87,19.2-35.22,14.69-34.89-5.39-.48-11.53,11.81-20.77,22.74-17.16,12.54,2.74,10.82,16.63,15.98,14.02,1.06-.63,1.5-1.69,1.11-2.97-3.09-11.45-15.06-18.83-26.67-16.26-18.97,3.32-24.8,30.29-8.6,40.9h0Z"/>
  <path class="cls-1" d="m211.07,153.14c-.03,2.35,3.09,3.13,4.5,1.32,1.4-.81,3.48-5.14,4.81-2.95,1.81,1.52,4.07,5.62,6.67,3.33,1.04-1,1.08-2.38.1-3.52-.87-1.46-4.11-3.05-3.82-4.59,1.71-1.99,6.7-4.95,3.43-7.63-2.93-1.72-4.86,2.63-6.91,4.11-1.08.79-3.51-3.31-4.77-3.95-1.37-1.21-3.47-.52-3.95,1.25-.47,2.77,2.99,4.26,4.44,6.23.13,2.34-4.64,3.56-4.52,6.41h.02Z"/>
  <path class="cls-1" d="m89.5,141.06c-2.92,2.3-5.59,6.84-8.69,8.02-2.14-1.99-6.84-8.57-8.67-3.07.43,3.01,4.08,4.75,5.87,7.08,1.2,1.29,2.83,3.14,4.62,1.67,2.28-3.2,12.45-9.7,10.84-13.32-.77-1.48-2.91-1.61-3.97-.37h0Z"/>
  <path class="cls-1" d="m221.64,27.93c-53.8,1.47-53.73,80.31.12,81.52,53.61-1.35,53.79-80.07-.12-81.52Zm-18.8,66.23c10.52-9.09,27.38-9.02,37.83.17-11.4,8.68-26.93,7.59-37.83-.17h0Zm7.34-27.24c-.1-15.01,23.04-15.06,22.95,0-.36,15.13-22.59,15.13-22.95,0Zm36.61,21.22c-3.16-2.9-6.81-5.24-10.84-6.91,13.67-13.1,2.13-36.71-16.55-34.54-16.49,1.57-24.22,23.14-12.06,34.54-4.03,1.67-7.7,4.03-10.87,6.94-4.23-5.25-6.83-11.99-6.72-19.84,5.61-56.62,88.06-27.81,57.03,19.81h0Z"/>
</svg>