<?xml version="1.0" encoding="utf-8"?>
<!-- Generator: Adobe Illustrator 27.8.1, SVG Export Plug-In . SVG Version: 6.00 Build 0)  -->
<svg version="1.1" id="katman_1" xmlns="http://www.w3.org/2000/svg" xmlns:xlink="http://www.w3.org/1999/xlink" x="0px" y="0px"
	 viewBox="0 0 195.2 357.6" style="enable-background:new 0 0 195.2 357.6;" xml:space="preserve">
<style type="text/css">
	.st0{opacity:0.15;fill:#1F3260;}
</style>
<path class="st0" d="M110.3,154.3l10.1-9.4v-41.8c0-24.1-0.4-41.8-1-41.8S114,66.2,108.6,72l-9.8,10.6v40.5
	c0,22.3,0.3,40.5,0.7,40.5S104.7,159.4,110.3,154.3L110.3,154.3z"/>
<path class="st0" d="M45.6,318.9c3,4.6,6,8.4,6.5,8.4c2.2,0,2.5-18,2.2-147.4L54,46.6L43.8,36.4c-5.6-5.6-10.6-10.2-11.1-10.2
	c-1.4,0-1.1,252.7,0.3,261.1C34.7,297.5,39.3,309.3,45.6,318.9L45.6,318.9z"/>
<path class="st0" d="M21.3,219.3c1.1,0,1.4-20.5,1.4-98.7V21.9L12.4,10.9C6.7,4.9,1.6,0,1,0C0.4,0,0,41.3,0,100v100l9.9,9.6
	C15.4,214.9,20.5,219.3,21.3,219.3L21.3,219.3z"/>
<path class="st0" d="M67.3,61.4c-1.1,0-1.4,28.4-1.1,140l0.3,140.1l8.5,4.9c4.7,2.7,9.3,4.7,10.2,4.5c1.5-0.3,1.7-16.3,2-134.8
	l0.3-134.4l-9.4-10.1C73,66,68.1,61.4,67.3,61.4L67.3,61.4z"/>
<path class="st0" d="M143,354.2c19.5-6.9,35.2-20.7,43.8-38.5c14.4-29.9,10-62.8-11.7-86.4c-6.5-7.1-17.8-15.7-20.5-15.7l0,0
	c-0.7,0,1,3,3.7,6.7c12.4,16.9,10.9,39.5-3.8,54.5c-13.2,13.5-35.8,16-50.3,5.6c-1.7-1.2-3.6-1.9-4.3-1.5c-0.7,0.5-1.2,14.2-1.2,38
	c0,39.2-0.1,38.8,5.1,40.2c1.2,0.3,8.7,0.5,16.5,0.3C132.4,357.2,136,356.7,143,354.2L143,354.2z"/>
<polygon class="st0" points="135.8,227 138.9,203.7 161,195.6 139.7,185.5 138.9,162 122.7,179.1 100.1,172.6 111.3,193.3 
	98.2,212.8 121.3,208.5 "/>
</svg>
