<svg xmlns:xlink="http://www.w3.org/1999/xlink" _ngcontent-c2="" class="logo" viewBox="0 0 359 200" xmlns="http://www.w3.org/2000/svg" width="359"  height="200" ><path _ngcontent-c2="" d="m 67.009766,184.93555 c -0.330667,0 -0.603073,0.10698 -0.816407,0.32031 -0.213333,0.21333 -0.318359,0.48379 -0.318359,0.81445 0,0.33067 0.105026,0.60308 0.318359,0.81641 0.213334,0.21333 0.48574,0.32031 0.816407,0.32031 0.330666,0 0.603073,-0.10698 0.816406,-0.32031 0.213333,-0.21333 0.320312,-0.48574 0.320312,-0.81641 0,-0.33066 -0.106979,-0.60112 -0.320312,-0.81445 -0.213333,-0.21333 -0.48574,-0.32031 -0.816406,-0.32031 z m 252.656254,0 c -0.33067,0 -0.60308,0.10698 -0.81641,0.32031 -0.21333,0.21333 -0.31836,0.48379 -0.31836,0.81445 0,0.33067 0.10503,0.60308 0.31836,0.81641 0.21333,0.21333 0.48574,0.32031 0.81641,0.32031 0.33066,0 0.60307,-0.10698 0.8164,-0.32031 0.21334,-0.21333 0.32031,-0.48574 0.32031,-0.81641 0,-0.33066 -0.10697,-0.60112 -0.32031,-0.81445 -0.21333,-0.21333 -0.48574,-0.32031 -0.8164,-0.32031 z m -126.47852,0.35156 c -0.27733,0 -0.50617,0.0901 -0.6875,0.27148 -0.18133,0.18134 -0.27148,0.41708 -0.27148,0.70508 0,0.27734 0.0901,0.50617 0.27148,0.6875 0.18133,0.18134 0.41017,0.27149 0.6875,0.27149 0.27733,0 0.50617,-0.0901 0.6875,-0.27149 0.18133,-0.18133 0.27344,-0.41016 0.27344,-0.6875 0,-0.288 -0.0921,-0.52374 -0.27344,-0.70508 -0.18133,-0.18133 -0.41017,-0.27148 -0.6875,-0.27148 z m 3.10352,0 c -0.27734,0 -0.50617,0.0901 -0.6875,0.27148 -0.18134,0.18134 -0.27149,0.41708 -0.27149,0.70508 0,0.27734 0.0901,0.50617 0.27149,0.6875 0.18133,0.18134 0.41016,0.27149 0.6875,0.27149 0.27733,0 0.50812,-0.0901 0.68945,-0.27149 0.18133,-0.18133 0.27148,-0.41016 0.27148,-0.6875 0,-0.288 -0.0901,-0.52374 -0.27148,-0.70508 -0.18133,-0.18133 -0.41212,-0.27148 -0.68945,-0.27148 z m -162.607426,2.86328 c -0.981334,0 -1.813427,0.15055 -2.496094,0.44922 -0.672,0.29867 -1.178198,0.70284 -1.519531,1.21484 -0.330667,0.50134 -0.496094,1.06102 -0.496094,1.67969 0,0.736 0.187214,1.32439 0.560547,1.76172 0.384,0.42667 0.836708,0.74069 1.359375,0.94336 0.533333,0.20267 1.226745,0.40475 2.080078,0.60742 0.608,0.14933 1.089406,0.28306 1.441406,0.40039 0.352,0.11733 0.639282,0.28276 0.863281,0.49609 0.234667,0.20267 0.351563,0.46321 0.351563,0.78321 0,0.43733 -0.207047,0.78997 -0.623047,1.05664 -0.405333,0.26667 -1.025422,0.40039 -1.857422,0.40039 -0.672,0 -1.343625,-0.11194 -2.015625,-0.33594 -0.661333,-0.23466 -1.221021,-0.53382 -1.679687,-0.89648 l -0.720703,1.61523 c 0.469333,0.40534 1.104297,0.73123 1.904297,0.97656 0.810666,0.24534 1.647718,0.36719 2.511718,0.36719 0.981334,0 1.813427,-0.1486 2.496094,-0.44726 0.33225,-0.14536 0.622222,-0.31445 0.871094,-0.50782 l -0.359375,0.79688 h 2.142578 l 1.105469,-2.59375 h 5.599609 l 1.119141,2.59375 h 2.175781 7.345703 V 197.75 h -5.855469 v -9.43945 h -2.080078 v 9.89453 l -4.464844,-9.89453 h -2.048828 l -3.53125,7.84765 c -0.03133,-0.63594 -0.21292,-1.15454 -0.5625,-1.54297 -0.373333,-0.42666 -0.827995,-0.74264 -1.361328,-0.94531 -0.533333,-0.21333 -1.214875,-0.41542 -2.046875,-0.60742 -0.608,-0.14933 -1.087453,-0.28306 -1.439453,-0.40039 -0.352,-0.11733 -0.646193,-0.27585 -0.880859,-0.47852 -0.224,-0.20266 -0.335938,-0.46515 -0.335938,-0.78515 0,-0.45867 0.19713,-0.82618 0.591797,-1.10352 0.405333,-0.27733 1.01851,-0.41601 1.839844,-0.41601 0.501333,0 1.019401,0.0753 1.552734,0.22461 0.533333,0.14933 1.04449,0.36825 1.535156,0.65625 l 0.65625,-1.61719 c -0.48,-0.32 -1.049604,-0.56566 -1.710937,-0.73633 -0.661333,-0.17067 -1.334912,-0.25586 -2.017578,-0.25586 z m 28.03125,0 c -0.981334,0 -1.813427,0.15055 -2.496094,0.44922 -0.672,0.29867 -1.178198,0.70284 -1.519531,1.21484 -0.330667,0.50134 -0.496094,1.06102 -0.496094,1.67969 0,0.736 0.187214,1.32439 0.560547,1.76172 0.384,0.42667 0.836708,0.74069 1.359375,0.94336 0.533333,0.20267 1.226745,0.40475 2.080078,0.60742 0.608,0.14933 1.089406,0.28306 1.441406,0.40039 0.352,0.11733 0.639282,0.28276 0.863281,0.49609 0.234667,0.20267 0.351563,0.46321 0.351563,0.78321 0,0.43733 -0.207047,0.78997 -0.623047,1.05664 -0.405333,0.26667 -1.025422,0.40039 -1.857422,0.40039 -0.672,0 -1.343625,-0.11194 -2.015625,-0.33594 -0.661333,-0.23466 -1.221021,-0.53382 -1.679687,-0.89648 l -0.720703,1.61523 c 0.469333,0.40534 1.104297,0.73123 1.904297,0.97656 0.810666,0.24534 1.647718,0.36719 2.511718,0.36719 0.981334,0 1.813427,-0.1486 2.496094,-0.44726 0.682667,-0.29867 1.190818,-0.69789 1.521484,-1.19922 0.341334,-0.50134 0.511719,-1.06102 0.511719,-1.67969 0,-0.72533 -0.192172,-1.30185 -0.576172,-1.72852 -0.373333,-0.42666 -0.827995,-0.74264 -1.361328,-0.94531 -0.533333,-0.21333 -1.214875,-0.41542 -2.046875,-0.60742 -0.608,-0.14933 -1.087453,-0.28306 -1.439453,-0.40039 -0.352,-0.11733 -0.646193,-0.27585 -0.880859,-0.47852 -0.224,-0.20266 -0.335938,-0.46515 -0.335938,-0.78515 0,-0.45867 0.19713,-0.82618 0.591797,-1.10352 0.405333,-0.27733 1.01851,-0.41601 1.839844,-0.41601 0.501333,0 1.019401,0.0753 1.552734,0.22461 0.533333,0.14933 1.04449,0.36825 1.535156,0.65625 l 0.65625,-1.61719 c -0.48,-0.32 -1.049604,-0.56566 -1.710937,-0.73633 -0.661333,-0.17067 -1.334912,-0.25586 -2.017578,-0.25586 z m 43.580076,0 c -1.14133,0 -2.17056,0.25062 -3.08789,0.75195 -0.91733,0.49067 -1.63554,1.17912 -2.1582,2.06446 -0.522669,0.87466 -0.785158,1.85536 -0.785158,2.94336 0,1.088 0.262489,2.0756 0.785158,2.96093 0.52266,0.87467 1.24087,1.56312 2.1582,2.06446 0.91733,0.49066 1.94656,0.73437 3.08789,0.73437 1.14134,0 2.17251,-0.24371 3.08985,-0.73437 0.91733,-0.50134 1.63553,-1.18979 2.1582,-2.06446 0.52267,-0.87466 0.78515,-1.86227 0.78515,-2.96093 1e-5,-1.09867 -0.26248,-2.08432 -0.78515,-2.95899 -0.52267,-0.87466 -1.24087,-1.55816 -2.1582,-2.04883 -0.91734,-0.50133 -1.94851,-0.75195 -3.08985,-0.75195 z M 1.09375,188.31055 v 6.32031 c 0,1.62133 0.4309219,2.86947 1.2949219,3.74414 0.864,0.864 2.0705208,1.29492 3.6171875,1.29492 1.5466666,0 2.746276,-0.43092 3.5996094,-1.29492 0.8640002,-0.87467 1.2949222,-2.12281 1.2949222,-3.74414 v -6.32031 H 8.8535156 v 6.24023 c 0,2.19733 -0.9440312,3.29688 -2.8320312,3.29688 -1.8986667,0 -2.8476563,-1.09955 -2.8476563,-3.29688 v -6.24023 z m 10.720703,0 v 11.20117 H 19.75 V 197.75 h -5.855469 v -9.43945 z m 7.341797,0 v 6.32031 c 0,1.62133 0.430922,2.86947 1.294922,3.74414 0.864,0.864 2.070521,1.29492 3.617187,1.29492 1.546667,0 2.746276,-0.43092 3.59961,-1.29492 0.864,-0.87467 1.294922,-2.12281 1.294922,-3.74414 v -6.32031 h -2.046875 v 6.24023 c 0,2.19733 -0.944032,3.29688 -2.832032,3.29688 -1.898666,0 -2.847656,-1.09955 -2.847656,-3.29688 v -6.24023 z m 46.814453,0 v 11.20117 h 2.080078 v -11.20117 z m 3.09375,0 v 11.20117 h 5.568359 c 1.429334,0 2.517006,-0.26249 3.263672,-0.78516 0.746667,-0.53333 1.119141,-1.28519 1.119141,-2.25586 0,-0.704 -0.180302,-1.29043 -0.542969,-1.75976 -0.362666,-0.48 -0.853989,-0.82077 -1.472656,-1.02344 0.448,-0.23467 0.800641,-0.56552 1.056641,-0.99219 0.256,-0.42666 0.382812,-0.91799 0.382812,-1.47265 0,-0.90667 -0.357599,-1.61496 -1.072265,-2.12696 -0.714667,-0.52266 -1.732021,-0.78515 -3.054688,-0.78515 z m 10.1875,0 v 11.20117 h 8.400391 v -1.74414 h -6.320313 v -3.08789 h 5.408203 v -1.71289 h -5.408203 v -2.91211 h 6.095703 v -1.74414 z m 8.71875,0 v 11.20117 h 2.080078 v -3.26563 h 2.527344 c 0.192,0 0.335641,-0.005 0.431641,-0.0156 l 2.289062,3.28125 h 2.240234 l -2.576171,-3.68164 c 0.768,-0.29867 1.354432,-0.75138 1.759765,-1.35938 0.416,-0.608 0.623047,-1.33311 0.623047,-2.17578 0,-0.82133 -0.192172,-1.53157 -0.576172,-2.1289 -0.384,-0.59734 -0.938729,-1.055 -1.664062,-1.375 -0.714667,-0.32 -1.556677,-0.48047 -2.527344,-0.48047 z m 23.562497,0 v 11.20117 h 7.93555 0.31055 l 1.10547,-2.59375 h 5.59961 l 1.11914,2.59375 h 2.17578 l -5.05469,-11.20117 h -2.04883 l -4.24609,9.43945 h -4.81641 v -9.43945 z m 15.32032,0 4.40039,7.28125 v 3.91992 h 2.08007 v -3.95313 l 3.57422,-5.91015 v 9.86328 h 7.93555 0.31055 l 1.10547,-2.59375 h 5.59961 l 1.11914,2.59375 h 2.17578 1.49023 v -3.26563 h 2.52735 c 0.19199,0 0.33564,-0.005 0.43164,-0.0156 l 2.28906,3.28125 h 2.24023 0.67774 l 1.10547,-2.59375 h 5.5996 l 1.11915,2.59375 h 2.17578 l -5.05469,-11.20117 h -2.04883 l -4.4668,9.92773 -1.68359,-2.4082 c 0.768,-0.29867 1.35443,-0.75138 1.75977,-1.35938 0.416,-0.608 0.62304,-1.33311 0.62304,-2.17578 0,-0.82133 -0.19217,-1.53157 -0.57617,-2.1289 -0.384,-0.59734 -0.93873,-1.055 -1.66406,-1.375 -0.71467,-0.32 -1.55668,-0.48047 -2.52734,-0.48047 h -4.60743 v 9.89453 l -4.46484,-9.89453 h -2.04883 l -4.24609,9.43945 h -4.81641 v -9.43945 h -1.27148 -2.04688 l -3.3125,5.45703 -3.2793,-5.45703 z m 49.77343,0 v 11.20117 h 1.98438 v -7.32813 l 3.67969,6.04688 h 0.92773 l 3.67969,-6.14453 0.0156,7.42578 h 1.96875 l -0.0156,-11.20117 h -1.71289 l -4.36719,7.42383 -4.44922,-7.42383 z m 13.18555,0 v 6.32031 c 0,1.62133 0.43092,2.86947 1.29492,3.74414 0.864,0.864 2.07052,1.29492 3.61719,1.29492 1.54667,0 2.74628,-0.43092 3.59961,-1.29492 0.864,-0.87467 1.29492,-2.12281 1.29492,-3.74414 v -6.32031 h -2.04687 v 6.24023 c 0,2.19733 -0.94404,3.29688 -2.83204,3.29688 -1.89866,0 -2.84765,-1.09955 -2.84765,-3.29688 v -6.24023 z m 10.7207,0 v 11.20117 h 4.89453 c 1.19467,0 2.25755,-0.23079 3.18555,-0.68945 0.928,-0.46934 1.64816,-1.12413 2.16016,-1.9668 0.512,-0.85333 0.76758,-1.83598 0.76758,-2.94531 0,-1.10934 -0.25558,-2.08507 -0.76758,-2.92774 -0.512,-0.85333 -1.23216,-1.50813 -2.16016,-1.9668 -0.928,-0.46933 -1.99088,-0.70507 -3.18555,-0.70507 z m 14.51758,0 -5.03906,11.20117 h 2.14258 l 1.10547,-2.59375 h 5.59961 l 1.11914,2.59375 h 2.17578 1.49023 v -4.80078 h 5.79102 v 4.80078 h 2.08007 v -11.20117 h -2.08007 v 4.625 h -5.79102 v -4.625 h -2.08008 v 9.89453 l -4.46484,-9.89453 z m 26.20117,11.20071 c -160.834633,-133.007507 -80.41732,-66.50375 0,0 z m 0,-11.20071 v 11.20117 h 7.93555 8.05859 v -1.74414 h -6.32031 v -3.08789 h 5.4082 v -1.71289 h -5.4082 v -2.91211 h 6.0957 v -1.74414 H 248.8457 V 197.75 h -5.51367 v -9.43945 z m 18.71875,0 v 11.20117 h 1.98438 v -7.32813 l 3.67969,6.04688 h 0.92773 l 3.67969,-6.14453 0.0156,7.42578 h 1.96875 l -0.0156,-11.20117 h -1.71289 l -4.36719,7.42383 -4.44922,-7.42383 z m 13.28125,0 v 11.20117 h 8.40039 v -1.74414 h -6.32031 v -3.08789 h 5.4082 v -1.71289 h -5.4082 v -2.91211 h 6.0957 v -1.74414 z m 8.71875,0 v 11.20117 h 2.08008 v -3.26563 h 2.52734 c 0.192,0 0.33565,-0.005 0.43165,-0.0156 l 2.28906,3.28125 h 2.24023 l -2.57617,-3.68164 c 0.768,-0.29867 1.35443,-0.75138 1.75977,-1.35938 0.416,-0.608 0.62304,-1.33311 0.62304,-2.17578 0,-0.82133 -0.19217,-1.53157 -0.57617,-2.1289 -0.384,-0.59734 -0.93873,-1.055 -1.66406,-1.375 -0.71467,-0.32 -1.55668,-0.48047 -2.52735,-0.48047 z m 9.6875,0 v 11.20117 h 2.08008 v -2.86524 l 1.77539,-1.82421 3.95117,4.68945 h 2.4336 7.8164 8.91211 0.10938 1.9707 v -11.20117 h -2.08008 V 197.75 h -6.68945 l 6.5918,-8.04688 v -1.39257 h -9.03907 -7.88085 -2.33594 l -5.53516,5.74414 v -5.74414 z m 9.65625,0.31445 v 10.16211 l -4.4082,-5.46875 z m -230.169919,1.31836 h 2.94336 c 0.725333,0 1.280062,0.13372 1.664062,0.40039 0.394667,0.256 0.591797,0.63839 0.591797,1.15039 0,0.50133 -0.19713,0.88568 -0.591797,1.15234 -0.384,0.256 -0.938729,0.38477 -1.664062,0.38477 h -2.94336 z m 34.150389,0.0312 c 0.74667,0 1.42025,0.17038 2.01758,0.51172 0.59733,0.33066 1.06687,0.8002 1.4082,1.4082 0.34134,0.59733 0.51172,1.26896 0.51172,2.01563 0,0.74666 -0.17038,1.4252 -0.51172,2.0332 -0.34133,0.59733 -0.81087,1.06687 -1.4082,1.4082 -0.59733,0.33067 -1.27091,0.4961 -2.01758,0.4961 -0.74666,0 -1.41829,-0.16543 -2.01562,-0.4961 -0.59734,-0.34133 -1.06687,-0.81087 -1.40821,-1.4082 -0.34133,-0.608 -0.51171,-1.28654 -0.51171,-2.0332 -1e-5,-0.74667 0.17038,-1.4183 0.51171,-2.01563 0.34134,-0.608 0.81087,-1.07754 1.40821,-1.4082 0.59733,-0.34134 1.26896,-0.51172 2.01562,-0.51172 z m 198.09961,0.0801 h 5.90235 v 0.0156 h 6.48046 l -6.30468,7.69727 h -6.07813 v -3.08789 h 5.4082 v -1.71289 h -5.4082 z m -213.343749,0.0156 h 2.431641 c 0.906667,0 1.59512,0.19217 2.064453,0.57617 0.469333,0.384 0.703125,0.93378 0.703125,1.64844 0,0.71467 -0.233792,1.2694 -0.703125,1.66406 -0.469333,0.384 -1.157786,0.57618 -2.064453,0.57618 h -2.431641 z m 66.593749,0 h 2.43164 c 0.90667,0 1.59512,0.19217 2.06445,0.57617 0.46934,0.384 0.70313,0.93378 0.70313,1.64844 0,0.71467 -0.23379,1.2694 -0.70313,1.66406 -0.46933,0.384 -1.15778,0.57618 -2.06445,0.57618 h -2.43164 z m 45.96875,0 h 2.71875 c 0.82133,0 1.54149,0.16047 2.16016,0.48047 0.62933,0.30933 1.11074,0.75708 1.4414,1.34375 0.34134,0.576 0.51172,1.24763 0.51172,2.01563 0,0.768 -0.17038,1.44653 -0.51172,2.0332 -0.33066,0.576 -0.81207,1.02375 -1.4414,1.34375 -0.61867,0.30933 -1.33883,0.46289 -2.16016,0.46289 h -2.71875 z m 81.4375,0 h 2.43164 c 0.90667,0 1.59512,0.19217 2.06446,0.57617 0.46933,0.384 0.70312,0.93378 0.70312,1.64844 0,0.71467 -0.23379,1.2694 -0.70312,1.66406 -0.46934,0.384 -1.15779,0.57618 -2.06446,0.57618 h -2.43164 z m -241.648436,0.32031 2.113281,4.89649 h -4.208984 z m 81.281246,0 2.11329,4.89649 h -4.20899 z m 25.375,0 2.11329,4.89649 h -4.20899 z m 19.65625,0 2.11328,4.89649 h -4.20898 z m 47.34375,0 2.11329,4.89649 h -4.20899 z m -144.914059,4.25586 h 3.359375 c 1.610667,0 2.416016,0.53986 2.416016,1.61719 0,1.07734 -0.805349,1.61524 -2.416016,1.61524 H 71.144531 Z M 132.36777,0 c -0.30472,0 -0.51939,20.93391 -0.51939,50.66187 v 50.66075 l 5.03651,4.86787 c 2.77008,2.67738 5.36028,4.87582 5.75601,4.88474 0.57021,0.0129 0.7195,-10.36166 0.7195,-49.99633 V 11.06683 L 138.12378,5.53342 C 135.24358,2.49009 132.65338,0 132.36777,0 Z m 16.0415,13.23882 c -0.68583,0 -0.54223,127.99091 0.1484,132.24655 0.84764,5.22316 3.22235,11.17766 6.39456,16.037 1.52648,2.33833 3.01868,4.25067 3.31646,4.25067 1.13311,0 1.2666,-9.10269 1.09611,-74.67184 l -0.17538,-67.47683 -5.16804,-5.19277 c -2.84262,-2.85579 -5.36807,-5.19278 -5.61211,-5.19278 z m 43.93341,17.84363 c -0.2858,0 -2.7465,2.42672 -5.46821,5.39176 l -4.94881,5.39063 v 20.51141 c 0,11.28108 0.14901,20.51028 0.33052,20.51028 0.1815,0 2.6422,-2.13238 5.46821,-4.7386 l 5.13768,-4.73858 V 52.2459 c 0,-12.20571 -0.2197,-21.16345 -0.51939,-21.16345 z m -26.3922,0.009 c -0.57554,-0.007 -0.69215,14.36325 -0.5756,70.93382 l 0.14615,70.9428 4.31701,2.45642 c 2.37435,1.35065 4.70553,2.38319 5.18041,2.29454 0.76071,-0.14202 0.88067,-8.26042 1.00954,-68.26042 l 0.14615,-68.09965 -4.75095,-5.12982 c -2.61309,-2.82127 -5.07573,-5.13308 -5.47271,-5.13769 z m 36.20102,50.64389 c -0.27294,0 -2.01319,1.93756 -3.86731,4.30464 -1.85413,2.36707 -3.63871,4.40455 -3.96513,4.52836 -0.32643,0.1238 -2.79526,-0.63122 -5.48619,-1.67734 -7.55439,-2.93681 -7.61072,-2.87613 -3.45361,3.6717 1.5829,2.49322 2.87801,4.85843 2.87801,5.25686 0,0.39843 -1.55413,2.6562 -3.45361,5.0174 -3.06243,3.80683 -3.99866,5.37602 -3.2074,5.37602 0.13544,0 2.66089,-0.6461 5.6121,-1.43675 2.95122,-0.79065 5.66311,-1.43843 6.02583,-1.43901 0.36272,-5.7e-4 1.51646,1.35761 2.56434,3.01966 1.04789,1.66205 2.53009,3.86372 3.29397,4.89261 0.76388,1.02888 1.61756,1.8707 1.89656,1.8707 0.27901,0 0.53813,-2.00741 0.5756,-4.46091 0.0375,-2.4535 0.23237,-5.23797 0.43395,-6.18771 0.38882,-1.83184 0.39246,-1.8326 8.30687,-4.05394 1.83756,-0.51574 3.24772,-1.21686 3.13432,-1.55704 -0.11339,-0.34019 -2.26344,-1.41822 -4.77906,-2.39684 -2.51562,-0.97862 -4.89823,-1.98864 -5.29395,-2.24395 -0.50002,-0.32259 -0.7195,-2.29781 -0.7195,-6.47438 0,-3.30541 -0.22284,-6.01008 -0.49579,-6.01008 z M 0.76316,87.49135 c -0.93054,0 -1.05207,68.45743 -0.13154,74.12996 1.73355,10.68262 7.08815,16.76055 16.89816,19.18145 3.57269,0.88164 6.78974,0.99673 25.38827,0.905 l 21.29723,-0.10568 0.14952,-28.73057 0.14952,-28.7317 -8.471,-8.53845 c -4.65886,-4.69633 -8.80313,-8.53958 -9.20961,-8.53958 -0.5899,0 -0.76903,5.83771 -0.88814,28.92394 l -0.14952,28.92394 H 35.43524 c -11.31793,0 -12.65441,-0.29943 -14.91391,-3.35018 -1.17079,-1.58078 -1.21062,-2.36306 -1.49072,-29.20612 L 18.74281,104.77287 10.11666,96.1321 C 5.37192,91.37982 1.16284,87.49135 0.76316,87.49135 Z m 122.16341,18.35402 -16.40463,0.21472 c -14.1029,0.18489 -16.80843,0.36317 -19.28262,1.26813 -6.57413,2.40453 -10.43526,6.45622 -12.43838,13.05107 -1.05398,3.46998 -1.18493,5.00627 -0.93985,11.04209 0.46835,11.53413 2.95137,15.81223 10.61039,18.27983 3.47318,1.11899 5.65345,1.30364 19.17246,1.62225 16.82438,0.39651 18.15428,0.67071 19.54682,4.03257 1.58668,3.83058 0.55001,7.56419 -2.69139,9.68966 -1.39344,0.91372 -3.63909,1.03417 -22.44056,1.19842 -11.57142,0.10108 -20.89251,0.4097 -20.89251,0.6914 0,0.27972 3.55943,3.75838 7.91002,7.73126 l 7.91001,7.22311 h 33.82105 c 18.6015,0 33.82104,-0.0991 33.82104,-0.22034 0,-0.12123 -1.71277,-1.68192 -3.80661,-3.46935 -7.69356,-6.56772 -11.80741,-13.4068 -14.38215,-23.90879 -1.8676,-7.61769 -2.85713,-9.51875 -6.84875,-13.16687 -5.15599,-4.71228 -7.84695,-5.32982 -25.1713,-5.77737 l -14.23375,-0.36874 -1.51432,-1.51433 c -3.39875,-3.4006 -1.98847,-9.5843 2.46766,-10.82174 1.32951,-0.36919 9.57343,-0.60985 21.00493,-0.61158 13.15625,-0.002 18.9359,-0.19551 19.21181,-0.64193 0.228,-0.36891 -2.73503,-3.78501 -7.01739,-8.09102 z m 127.94752,0.17538 c -16.46095,-0.001 -28.08077,0.11332 -28.08077,0.30579 0,0.25661 1.59256,2.01673 3.53904,3.91116 14.69844,14.30536 17.88291,37.52061 7.65707,55.82316 -2.69977,4.83213 -6.62503,9.6198 -10.18319,12.42039 -1.66508,1.31056 -3.11483,2.61791 -3.22202,2.90498 -0.11453,0.30674 6.53074,0.45976 16.11683,0.36987 l 16.31131,-0.15402 0.2878,-29.35564 0.2878,-29.35564 h 10.64862 10.64861 l 0.2878,29.35564 0.2878,29.35564 h 9.20962 9.20961 l 0.2878,-29.35564 0.2878,-29.35564 7.79647,0.0225 c 8.83894,0.0247 10.76201,0.66824 12.90492,4.31588 1.12367,1.9127 1.17904,3.04622 1.34345,27.74801 l 0.17088,25.75588 8.75093,8.05842 c 4.81272,4.4325 9.08996,8.06006 9.50529,8.06178 0.61723,0.002 0.71687,-6.48904 0.54749,-35.54111 -0.18905,-32.42631 -0.2985,-35.82097 -1.25013,-38.70915 -2.87652,-8.7301 -7.41731,-13.00924 -16.40912,-15.46252 -2.72139,-0.74249 -10.24334,-0.90689 -49.11832,-1.07813 -6.31182,-0.0278 -12.33641,-0.0411 -17.82339,-0.0416 z m -40.69678,2.19223 c -0.34142,0 0.51105,1.53747 1.89431,3.41651 6.2914,8.54626 5.49985,19.9948 -1.9078,27.57937 -6.66614,6.82535 -18.11302,8.1099 -25.49956,2.86226 -0.86844,-0.61696 -1.83976,-0.96034 -2.15851,-0.76334 -0.36992,0.22863 -0.58009,7.19085 -0.58009,19.24889 0,19.83813 -0.0229,19.65859 2.5902,20.37425 0.63316,0.17342 4.38896,0.24613 8.34621,0.16189 6.03317,-0.12843 7.87639,-0.395 11.41646,-1.65148 9.89291,-3.51129 17.82505,-10.48591 22.18199,-19.50522 7.3184,-15.14982 5.07197,-31.79105 -5.90665,-43.75128 -3.3034,-3.59877 -8.99548,-7.97185 -10.37656,-7.97185 z" fill="#203260"></path><path _ngcontent-c2="" d="m 231.16312,199.50584 h 1.85042 l 0.95473,-2.59375 h 4.83606 l 0.96653,2.59375 h 1.8791 l -4.36544,-11.20117 h -1.76946 m 0.87039,2.08002 1.82512,4.89649 h -3.63506 z" fill="#203260"></path></svg>