<?xml version="1.0" encoding="UTF-8"?>
<svg id="katman_1" data-name="katman 1" xmlns="http://www.w3.org/2000/svg" viewBox="0 0 494.44 240.8">
  <defs>
    <style>
      .cls-1 {
        fill: #4d4d4d;
        stroke-width: 0px;
      }
    </style>
  </defs>
  <rect class="cls-1" x="23.8" y="211.32" width="11.72" height="11.72"/>
  <rect class="cls-1" x="202.34" y="211.32" width="11.72" height="11.72"/>
  <path class="cls-1" d="m484.44,193.55h-46.9v-29.68h-185.32v-10.36c40.05-2.59,71.84-35.97,71.84-76.66S289.59,0,247.22,0s-76.84,34.47-76.84,76.84,31.8,74.08,71.84,76.66v10.36H63.68v29.68H0v47.26h137.35v-47.26h-63.68v-19.68h168.54v19.68h-63.68v47.26h137.35v-47.26h-63.68v-19.68h175.32v19.68h-70.45v47.26h137.35v-47.26h-10ZM247.22,10c14.12,0,25.68,27.26,26.71,61.84h-53.41c1.03-34.58,12.59-61.84,26.71-61.84Zm26.71,71.84c-1.03,34.58-12.59,61.84-26.7,61.84h0c-14.12,0-25.68-27.27-26.7-61.84h53.41Zm-4.85,58.17c9.17-13.61,14.2-35.67,14.85-58.17h29.93c-2,27.06-20.11,49.63-44.78,58.17Zm44.98-63.16h0s0,0,0,0,0,0,0,0Zm-.21-5h-29.93c-.65-22.5-5.67-44.55-14.85-58.17,24.67,8.54,42.77,31.1,44.78,58.17ZM225.36,13.68c-9.17,13.61-14.2,35.67-14.85,58.17h-29.93c2-27.06,20.11-49.63,44.78-58.17Zm-44.98,63.16h0s0,0,0,0,0,0,0,0Zm.21,5h29.93c.65,22.5,5.67,44.55,14.85,58.17-24.67-8.54-42.77-31.1-44.78-58.17Zm-53.23,121.7v27.26H10v-27.26h53.68s10,0,10,0h0s53.68,0,53.68,0Zm178.54,0v27.26h-117.35v-27.26h53.68s10,0,10,0h0s53.68,0,53.68,0Zm178.54,27.26h-117.35v-27.26h60.45s10,0,10,0h0s46.9,0,46.9,0v27.26Z"/>
  <rect class="cls-1" x="380.89" y="211.32" width="11.72" height="11.72"/>
</svg>