<?xml version="1.0" encoding="utf-8"?>
<!-- Generator: Adobe Illustrator 27.8.1, SVG Export Plug-In . SVG Version: 6.00 Build 0)  -->
<svg version="1.1" id="katman_1" xmlns="http://www.w3.org/2000/svg" xmlns:xlink="http://www.w3.org/1999/xlink" x="0px" y="0px"
	 viewBox="0 0 513.1 457.2" style="enable-background:new 0 0 513.1 457.2;" xml:space="preserve">
<style type="text/css">
	.st0{fill:#D4E1F1;}
	.st1{opacity:0.59;fill:#CED2E6;enable-background:new    ;}
	.st2{fill:#FFFFFF;}
	.st3{fill:#575756;}
	.st4{fill:#ECF0F9;}
	.st5{clip-path:url(#SVGID_00000033327264638797844390000011392881292342574260_);}
	.st6{fill:#D1D8E9;}
	.st7{fill:#CED2E6;}
	.st8{fill:#3C3C3A;}
	.st9{fill:#848484;}
	.st10{clip-path:url(#SVGID_00000181774604070666333980000016458265116186413722_);}
	.st11{clip-path:url(#SVGID_00000030456337354397908570000015026112583178564030_);}
	.st12{fill:#BB1822;}
	.st13{clip-path:url(#SVGID_00000060006978967116670360000001628396106510250160_);}
	.st14{fill:#D6DCEC;}
</style>
<path class="st0" d="M354.6,234.4l-121.1-65.8c-8.1-4.6-21.1-4.6-29.1,0L33.7,263.5c-2,5.8-6.5,6.2-2.8,13.4
	c2.1,4.1,5.4,7.5,9.4,9.8l116.1,67c8.1,4.6,21.1,4.6,29.1,0l169.2-98.4C362.7,250.8,362.7,239.1,354.6,234.4z"/>
<path class="st1" d="M452.9,382.2c-0.1-1.9,0.5-3.9-1.5-5.1l-12.7-6.5v1.4c-12-7.3-29-16.1-43-23.7c-32-18.8-69.3-40.8-92.6-52.8
	l40.8-23.7c8-4.6,8-12.1-0.1-16.8l-121-70c-8.1-4.6-21.1-4.6-29.1,0L24.5,283.3c-8,4.6-8,12.2,0.1,16.9l121.1,69.9
	c8.1,4.6,21.1,4.6,29.1,0l36.4-21.2c0,0.6,0,1.2,0,1.4l150.9,87.1c3,1.8,6.6,0.1,9.2-1.7l80.4-46.7v-0.8
	C453.6,387.6,452.7,383.6,452.9,382.2z M367.9,432.6l0.1-0.1h0.1C368,432.5,367.9,432.6,367.9,432.6z M425.3,399.1
	c0.2-0.1,0.5-0.3,0.7-0.4l16.5-9.6L425.3,399.1z M451.2,380.6c-0.9-0.8-2-1.6-3.2-2.5c2.1,1.1,3.8,2,3.7,2.1
	C451.7,380.2,451.5,380.4,451.2,380.6z"/>
<path class="st2" d="M468.6,366.1c-2.9,6.3-68.3,42.1-75.1,46.5v-2.2c-0.1-0.1-0.3-0.2-0.4-0.3c-13.4,8.7-11.9,6.1-24.7-1.1
	l-2.2,1.3l-136-78.5c-1.9-1-1.6-2.8,0-3.7c25.7-13.8,60.7-37.5,86.7-49.1c22.9,11.6,62.3,34.9,95.8,54.5
	C433.2,344.6,460.2,358.5,468.6,366.1z"/>
<g>
	<path class="st0" d="M6.4,114.1c-0.8,0.6,2.1,2.9,1.1,2.9c0.1,0.4-3.7-1.3-3.6-0.9c-1.4,2.1,19.4,115.8,20.5,144.7
		c0.8-0.2,1.9-0.4,2.2-0.4c0.6,0,11.5,3.1,6.9,6.3s-10.1,0.7-10.1,0.7c-2.5-1-2.7-2.9-3.1-5.9L0,117.1c-0.3-2.2,1.1-4.2,3.4-7
		C14.2,97.1,184.3,1.2,184.3,1.2c2.9-1.7,7.5-1.7,10.4,0C202.1,6.7,6.5,110.8,6.4,114.1z"/>
</g>
<path class="st2" d="M354.6,234.4l-121.1-69.9c-8.1-4.6-21.1-4.6-29.1,0L35.2,262.8c-8,4.6-8,12.2,0.1,16.9l121.1,69.9
	c8.1,4.6,21.1,4.6,29.1,0l169.2-98.4C362.7,246.6,362.7,239.1,354.6,234.4"/>
<g>
	<path class="st3" d="M152.1,216.5c-5.8-4.6-22.9-0.3-12.6,7.3C145.3,228.4,162.4,224.1,152.1,216.5L152.1,216.5z"/>
</g>
<g>
	<path class="st3" d="M273.3,276.9c-5.7-3.1-14.4-10.2-21.1-5.8l-29.3,17c-8.1,5,7.3,9.8,10.1,12.2c3.1,1.8,8.1,1.8,11.1,0l29.3-17
		C276.4,281.5,276.4,278.6,273.3,276.9L273.3,276.9L273.3,276.9z"/>
</g>
<g>
	<path class="st3" d="M247.9,192.3c-3.4-2.2-7.6-4-10.6-6.4l11.4,6.6C248.8,192.5,248.2,192.4,247.9,192.3z"/>
	<path class="st3" d="M237.3,186.1c-3.2,1.7-6.3,4-9.6,5.4l9.6-5.6V186.1z"/>
	<path class="st3" d="M239.2,198.7c2.9-1.7,5.9-3.4,8.8-5.1C247.8,193.7,239.3,198.6,239.2,198.7L239.2,198.7z"/>
	<polygon class="st3" points="239.2,198.1 239.2,198.9 227.7,192.3 227.7,191.5 	"/>
	<path class="st3" d="M228.6,192.5c3.5,2,7.1,4.1,10.6,6.1l0,0C239,198.6,228.7,192.7,228.6,192.5z"/>
	<path class="st3" d="M239.2,197.2c0,0.4,0,0.9,0,0.9l-11.4-6.6c0,0,0.8-0.1,1-0.4L239.2,197.2L239.2,197.2z"/>
	<path class="st3" d="M247.8,192.2c-2.7,1.6-5.9,3.4-8.6,5c-3.3-1.9-7.1-4.1-10.5-6c2.7-1.6,5.9-3.4,8.6-5
		C240.7,188,244.5,190.2,247.8,192.2z"/>
	<path class="st3" d="M247.8,192.2c0.2,0.2,0.9,0.4,1,0.4l-9.6,5.6c0,0,0-0.6,0-0.9L247.8,192.2L247.8,192.2z"/>
	<polygon class="st3" points="248.8,192.5 248.8,193.3 239.2,198.9 239.2,198.1 	"/>
</g>
<g>
	<path class="st3" d="M233.6,200.6c-3.4-2.2-7.6-4-10.6-6.4l11.4,6.6C234.4,200.9,233.9,200.8,233.6,200.6z"/>
	<path class="st3" d="M223,194.5c-3.2,1.7-6.3,4-9.6,5.4l9.6-5.6V194.5z"/>
	<path class="st3" d="M224.8,207c2.9-1.7,5.9-3.4,8.8-5.1C233.5,202.1,225,206.9,224.8,207L224.8,207z"/>
	<polygon class="st3" points="224.8,206.4 224.8,207.2 213.4,200.6 213.4,199.8 	"/>
	<path class="st3" d="M214.2,200.9c3.5,2,7.1,4.1,10.6,6.1l0,0C224.7,206.9,214.3,201,214.2,200.9z"/>
	<path class="st3" d="M233.4,200.5c-2.7,1.6-5.9,3.4-8.6,5c-3.3-1.9-7.1-4.1-10.5-6c2.7-1.6,5.9-3.4,8.6-5
		C226.3,196.4,230.1,198.6,233.4,200.5z"/>
	<path class="st3" d="M233.4,200.5c0.2,0.2,0.9,0.4,1,0.4l-9.6,5.6c0,0,0-0.6,0-0.9L233.4,200.5L233.4,200.5z"/>
	<polygon class="st3" points="234.4,200.9 234.4,201.6 224.8,207.2 224.8,206.4 	"/>
	<path class="st3" d="M224.8,205.5c0,0.4,0,0.9,0,0.9l-11.4-6.6c0,0,0.8-0.1,1-0.4L224.8,205.5L224.8,205.5z"/>
</g>
<g>
	<path class="st3" d="M219.3,208.9c-3.4-2.2-7.6-4-10.6-6.4l11.4,6.6C220.1,209.2,219.6,209.1,219.3,208.9L219.3,208.9z"/>
	<path class="st3" d="M208.6,202.8c-3.2,1.7-6.3,4-9.6,5.4l9.6-5.6V202.8z"/>
	<path class="st3" d="M210.5,215.3c2.9-1.7,5.9-3.4,8.8-5.1C219.1,210.4,210.6,215.2,210.5,215.3L210.5,215.3z"/>
	<polygon class="st3" points="210.5,214.8 210.5,215.6 199.1,208.9 199.1,208.2 	"/>
	<path class="st3" d="M199.9,209.2c3.5,2.1,7.1,4.1,10.6,6.1l0,0C210.3,215.2,200,209.4,199.9,209.2z"/>
	<path class="st3" d="M210.5,213.8c0,0.4,0,0.9,0,0.9l-11.4-6.6c0,0,0.8-0.1,1-0.4L210.5,213.8L210.5,213.8z"/>
	<path class="st3" d="M219.1,208.8c-2.7,1.6-5.9,3.4-8.6,5c-3.3-1.9-7.1-4.1-10.5-6c2.7-1.6,5.9-3.4,8.6-5
		C212,204.7,215.8,206.9,219.1,208.8z"/>
	<path class="st3" d="M219.1,208.8c0.2,0.2,0.9,0.4,1,0.4l-9.6,5.6c0,0,0-0.6,0-0.9L219.1,208.8L219.1,208.8z"/>
	<polygon class="st3" points="220.1,209.2 220.1,210 210.5,215.6 210.5,214.8 	"/>
</g>
<g>
	<path class="st3" d="M204.9,217.3c-3.4-2.2-7.6-4-10.6-6.4l11.4,6.6C205.7,217.5,205.2,217.4,204.9,217.3L204.9,217.3z"/>
	<path class="st3" d="M194.3,211.1c-3.2,1.7-6.3,4-9.6,5.4l9.6-5.6V211.1L194.3,211.1z"/>
	<path class="st3" d="M196.1,223.7c2.9-1.7,5.9-3.4,8.8-5.1C204.8,218.7,196.3,223.6,196.1,223.7L196.1,223.7z"/>
	<polygon class="st3" points="196.1,223.1 196.1,223.9 184.7,217.3 184.7,216.5 	"/>
	<path class="st3" d="M185.5,217.5c3.5,2.1,7.1,4.1,10.6,6.1l0,0C196,223.6,185.6,217.7,185.5,217.5z"/>
	<path class="st3" d="M196.1,222.2c0,0.4,0,0.9,0,0.9l-11.4-6.6c0,0,0.8-0.1,1-0.4L196.1,222.2L196.1,222.2z"/>
	<path class="st3" d="M204.8,217.2c-2.7,1.6-5.9,3.4-8.6,5c-3.3-1.9-7.1-4.1-10.5-6c2.7-1.6,5.9-3.4,8.6-5
		C197.6,213,201.4,215.2,204.8,217.2z"/>
	<path class="st3" d="M204.8,217.2c0.2,0.2,0.9,0.4,1,0.4l-9.6,5.6c0,0,0-0.6,0-0.9L204.8,217.2L204.8,217.2z"/>
	<polygon class="st3" points="205.7,217.5 205.7,218.3 196.1,223.9 196.1,223.1 	"/>
</g>
<g>
	<path class="st3" d="M190.6,225.6c-3.4-2.2-7.6-4-10.6-6.4l11.4,6.6C191.4,225.9,190.9,225.8,190.6,225.6L190.6,225.6z"/>
	<path class="st3" d="M180,219.5c-3.2,1.7-6.3,4.1-9.6,5.4l9.6-5.6V219.5z"/>
	<path class="st3" d="M181.8,232c2.9-1.7,5.9-3.4,8.8-5.1C190.5,227.1,182,231.9,181.8,232L181.8,232L181.8,232z"/>
	<polygon class="st3" points="181.8,231.4 181.8,232.2 170.4,225.6 170.4,224.8 	"/>
	<path class="st3" d="M171.2,225.9c3.5,2,7.1,4.1,10.6,6.1l0,0C181.6,231.9,171.3,226,171.2,225.9z"/>
	<path class="st3" d="M181.8,230.5c0,0.4,0,0.9,0,0.9l-11.4-6.6c0,0,0.8-0.1,1-0.4L181.8,230.5L181.8,230.5z"/>
	<path class="st3" d="M190.4,225.5c-2.7,1.6-5.9,3.4-8.6,5c-3.3-1.9-7.1-4.1-10.5-6c2.7-1.6,5.9-3.4,8.6-5
		C183.3,221.4,187.1,223.6,190.4,225.5z"/>
	<path class="st3" d="M190.4,225.5c0.2,0.2,0.9,0.4,1,0.4l-9.6,5.6c0,0,0-0.6,0-0.9L190.4,225.5L190.4,225.5z"/>
	<polygon class="st3" points="191.4,225.9 191.4,226.6 181.8,232.2 181.8,231.4 	"/>
</g>
<g>
	<path class="st3" d="M176.2,233.9c-3.4-2.2-7.6-4-10.6-6.4l11.4,6.6C177.1,234.2,176.5,234.1,176.2,233.9L176.2,233.9z"/>
	<path class="st3" d="M165.6,227.8c-3.2,1.7-6.3,4-9.6,5.4l9.6-5.6V227.8z"/>
	<path class="st3" d="M167.5,240.3c2.9-1.7,5.9-3.4,8.8-5.1C176.1,235.4,167.6,240.2,167.5,240.3L167.5,240.3z"/>
	<polygon class="st3" points="167.5,239.8 167.5,240.6 156,234 156,233.2 	"/>
	<path class="st3" d="M156.8,234.2c3.5,2,7.1,4.1,10.6,6.1l0,0C167.3,240.2,156.9,234.4,156.8,234.2z"/>
	<path class="st3" d="M167.5,238.8c0,0.4,0,0.9,0,0.9l-11.4-6.6c0,0,0.8-0.1,1-0.4L167.5,238.8L167.5,238.8z"/>
	<path class="st3" d="M176.1,233.8c-2.7,1.6-5.9,3.4-8.6,5c-3.3-1.9-7.1-4.1-10.5-6c2.7-1.6,5.9-3.4,8.6-5
		C169,229.7,172.8,231.9,176.1,233.8z"/>
	<path class="st3" d="M176.1,233.8c0.2,0.2,0.9,0.4,1,0.4l-9.6,5.6c0,0,0-0.6,0-0.9L176.1,233.8L176.1,233.8z"/>
	<polygon class="st3" points="177.1,234.2 177.1,235 167.5,240.6 167.5,239.8 	"/>
</g>
<g>
	<path class="st3" d="M161.9,242.3c-3.4-2.2-7.6-4-10.6-6.4l11.4,6.6C162.7,242.5,162.2,242.5,161.9,242.3L161.9,242.3z"/>
	<path class="st3" d="M151.3,236.2c-3.2,1.7-6.3,4-9.6,5.4l9.6-5.6V236.2L151.3,236.2z"/>
	<path class="st3" d="M153.1,248.7c2.9-1.7,5.9-3.4,8.8-5.1C161.8,243.7,153.3,248.6,153.1,248.7L153.1,248.7z"/>
	<polygon class="st3" points="153.1,248.1 153.1,248.9 141.7,242.3 141.7,241.5 	"/>
	<path class="st3" d="M142.5,242.5c3.5,2,7.1,4.1,10.6,6.1l0,0C153,248.6,142.6,242.7,142.5,242.5z"/>
	<path class="st3" d="M153.1,247.2c0,0.4,0,0.9,0,0.9l-11.4-6.6c0,0,0.8-0.1,1-0.4L153.1,247.2L153.1,247.2z"/>
	<path class="st3" d="M161.7,242.2c-2.7,1.6-5.9,3.4-8.6,5c-3.3-1.9-7.1-4.1-10.5-6c2.7-1.6,5.9-3.4,8.6-5
		C154.6,238,158.4,240.2,161.7,242.2z"/>
	<path class="st3" d="M161.7,242.2c0.2,0.2,0.9,0.4,1,0.4l-9.6,5.6c0,0,0-0.6,0-0.9L161.7,242.2L161.7,242.2z"/>
	<polygon class="st3" points="162.7,242.5 162.7,243.3 153.1,248.9 153.1,248.1 	"/>
</g>
<g>
	<path class="st3" d="M147.6,250.6c-3.4-2.2-7.6-4-10.6-6.4l11.4,6.6C148.4,250.9,147.8,250.8,147.6,250.6L147.6,250.6z"/>
	<path class="st3" d="M136.9,244.5c-3.2,1.7-6.3,4-9.6,5.4l9.6-5.6V244.5z"/>
	<path class="st3" d="M138.8,257c2.9-1.7,5.9-3.4,8.8-5.1C147.4,252.1,138.9,256.9,138.8,257L138.8,257L138.8,257z"/>
	<polygon class="st3" points="138.8,256.4 138.8,257.2 127.3,250.6 127.3,249.8 	"/>
	<path class="st3" d="M128.1,250.9c3.5,2.1,7.1,4.1,10.6,6.1l0,0C138.6,256.9,128.3,251,128.1,250.9z"/>
	<path class="st3" d="M138.8,255.5c0,0.4,0,0.9,0,0.9l-11.4-6.6c0,0,0.8-0.1,1-0.4L138.8,255.5z"/>
	<path class="st3" d="M147.4,250.5c-2.7,1.6-5.9,3.4-8.6,5c-3.3-1.9-7.1-4.1-10.5-6c2.7-1.6,5.9-3.4,8.6-5
		C140.3,246.4,144.1,248.6,147.4,250.5z"/>
	<path class="st3" d="M147.4,250.5c0.2,0.2,0.9,0.4,1,0.4l-9.6,5.6c0,0,0-0.6,0-0.9L147.4,250.5L147.4,250.5z"/>
	<polygon class="st3" points="148.4,250.9 148.4,251.6 138.8,257.2 138.8,256.4 	"/>
</g>
<g>
	<path class="st3" d="M133.2,259c-3.4-2.2-7.6-4-10.6-6.4l11.4,6.6C134,259.2,133.5,259.1,133.2,259z"/>
	<path class="st3" d="M122.6,252.8c-3.2,1.7-6.3,4-9.6,5.4l9.6-5.6V252.8z"/>
	<path class="st3" d="M124.4,265.3c2.9-1.7,5.8-3.4,8.8-5.1C133.1,260.4,124.6,265.2,124.4,265.3
		C124.4,265.4,124.4,265.3,124.4,265.3z"/>
	<polygon class="st3" points="124.4,264.8 124.4,265.6 113,259 113,258.2 	"/>
	<path class="st3" d="M113.8,259.2c3.5,2,7.1,4.1,10.6,6.1l0,0C124.3,265.2,113.9,259.4,113.8,259.2z"/>
	<path class="st3" d="M124.4,263.8c0,0.4,0,0.9,0,0.9l-11.4-6.6c0,0,0.8-0.1,1-0.4L124.4,263.8z"/>
	<path class="st3" d="M133.1,258.8c-2.7,1.6-5.9,3.4-8.6,5c-3.3-1.9-7.1-4.1-10.5-6c2.7-1.6,5.9-3.4,8.6-5
		C125.9,254.7,129.7,256.9,133.1,258.8z"/>
	<path class="st3" d="M133.1,258.8c0.2,0.2,0.9,0.4,1,0.4l-9.6,5.6c0,0,0-0.6,0-0.9L133.1,258.8L133.1,258.8z"/>
	<polygon class="st3" points="134,259.2 134,260 124.4,265.6 124.4,264.8 	"/>
</g>
<g>
	<path class="st3" d="M118.9,267.3c-3.4-2.2-7.6-4-10.6-6.4l11.4,6.6C119.7,267.5,119.2,267.5,118.9,267.3z"/>
	<path class="st3" d="M108.2,261.2c-3.2,1.7-6.3,4-9.6,5.4l9.6-5.6V261.2L108.2,261.2z"/>
	<path class="st3" d="M110.1,273.7c2.9-1.7,5.8-3.4,8.8-5.1C118.7,268.7,110.3,273.6,110.1,273.7L110.1,273.7z"/>
	<polygon class="st3" points="110.1,273.1 110.1,273.9 98.7,267.3 98.7,266.5 	"/>
	<path class="st3" d="M99.5,267.5c3.5,2,7.1,4.1,10.6,6.1l0,0C109.9,273.6,99.6,267.7,99.5,267.5z"/>
	<path class="st3" d="M110.1,272.2c0,0.4,0,0.9,0,0.9l-11.4-6.6c0,0,0.8-0.1,1-0.4L110.1,272.2z"/>
	<path class="st3" d="M118.7,267.2c-2.7,1.6-5.9,3.4-8.6,5c-3.3-1.9-7.1-4.1-10.5-6c2.7-1.6,5.9-3.4,8.6-5
		C111.6,263.1,115.4,265.2,118.7,267.2z"/>
	<path class="st3" d="M118.7,267.2c0.2,0.2,0.9,0.4,1,0.4l-9.6,5.6c0,0,0-0.6,0-0.9L118.7,267.2z"/>
	<polygon class="st3" points="119.7,267.5 119.7,268.3 110.1,273.9 110.1,273.1 	"/>
</g>
<g>
	<path class="st3" d="M104.5,275.6c-3.4-2.2-7.6-4-10.6-6.4l11.4,6.6C105.3,275.9,104.8,275.8,104.5,275.6z"/>
	<path class="st3" d="M93.9,269.5c-3.2,1.7-6.3,4-9.6,5.4l9.6-5.6V269.5z"/>
	<path class="st3" d="M95.8,282c2.9-1.7,5.8-3.4,8.8-5.1C104.4,277.1,95.9,281.9,95.8,282L95.8,282z"/>
	<polygon class="st3" points="95.8,281.4 95.8,282.2 84.3,275.6 84.3,274.8 	"/>
	<path class="st3" d="M85.1,275.9c3.5,2,7.1,4.1,10.6,6.1l0,0C95.6,281.9,85.2,276,85.1,275.9z"/>
	<path class="st3" d="M95.8,280.5c0,0.4,0,0.9,0,0.9l-11.4-6.6c0,0,0.8-0.1,1-0.4L95.8,280.5z"/>
	<path class="st3" d="M104.4,275.5c-2.7,1.6-5.9,3.4-8.6,5c-3.3-1.9-7.1-4.1-10.5-6c2.7-1.6,5.9-3.4,8.6-5
		C97.2,271.4,101.1,273.6,104.4,275.5z"/>
	<path class="st3" d="M104.4,275.5c0.2,0.2,0.9,0.4,1,0.4l-9.6,5.6c0,0,0-0.6,0-0.9L104.4,275.5z"/>
	<polygon class="st3" points="105.3,275.9 105.3,276.7 95.8,282.2 95.8,281.4 	"/>
</g>
<g>
	<path class="st3" d="M266.4,202.9c-3.4-2.2-7.6-4-10.6-6.4l11.4,6.6C267.2,203.2,266.7,203.1,266.4,202.9z"/>
	<path class="st3" d="M255.8,196.8c-3.2,1.7-6.3,4-9.6,5.4l9.6-5.6V196.8z"/>
	<path class="st3" d="M257.6,209.3c2.9-1.7,5.9-3.4,8.8-5.1C266.2,204.4,257.8,209.2,257.6,209.3L257.6,209.3z"/>
	<polygon class="st3" points="257.6,208.7 257.6,209.5 246.2,202.9 246.2,202.1 	"/>
	<path class="st3" d="M247,203.2c3.5,2,7.1,4.1,10.6,6.1l0,0C257.5,209.2,247.1,203.3,247,203.2z"/>
	<path class="st3" d="M257.6,207.8c0,0.4,0,0.9,0,0.9l-11.4-6.6c0,0,0.8-0.1,1-0.4L257.6,207.8L257.6,207.8z"/>
	<path class="st3" d="M266.2,202.8c-2.7,1.6-5.9,3.4-8.6,5c-3.3-1.9-7.1-4.1-10.5-6c2.7-1.6,5.9-3.4,8.6-5
		C259.1,198.7,262.9,200.9,266.2,202.8z"/>
	<path class="st3" d="M266.2,202.8c0.2,0.2,0.9,0.4,1,0.4l-9.6,5.6c0,0,0-0.6,0-0.9L266.2,202.8L266.2,202.8z"/>
	<polygon class="st3" points="267.2,203.2 267.2,204 257.6,209.5 257.6,208.7 	"/>
</g>
<g>
	<path class="st3" d="M252,211.3c-3.4-2.2-7.6-4-10.6-6.4l11.4,6.6C252.9,211.5,252.3,211.4,252,211.3L252,211.3z"/>
	<path class="st3" d="M241.4,205.1c-3.2,1.7-6.3,4-9.6,5.4l9.6-5.6V205.1z"/>
	<path class="st3" d="M243.3,217.6c2.9-1.7,5.9-3.4,8.8-5.1C251.9,212.7,243.4,217.5,243.3,217.6L243.3,217.6z"/>
	<polygon class="st3" points="243.3,217.1 243.3,217.9 231.8,211.3 231.8,210.5 	"/>
	<path class="st3" d="M232.6,211.5c3.5,2,7.1,4.1,10.6,6.1l0,0C243.1,217.6,232.7,211.7,232.6,211.5z"/>
	<path class="st3" d="M243.3,216.1c0,0.4,0,0.9,0,0.9l-11.4-6.6c0,0,0.8-0.1,1-0.4L243.3,216.1L243.3,216.1z"/>
	<path class="st3" d="M251.9,211.1c-2.7,1.6-5.9,3.4-8.6,5c-3.3-1.9-7.1-4.1-10.5-6c2.7-1.6,5.9-3.4,8.6-5
		C244.8,207,248.6,209.2,251.9,211.1z"/>
	<path class="st3" d="M251.9,211.1c0.2,0.2,0.9,0.4,1,0.4l-9.6,5.6c0,0,0-0.6,0-0.9L251.9,211.1L251.9,211.1z"/>
	<polygon class="st3" points="252.9,211.5 252.9,212.3 243.3,217.9 243.3,217.1 	"/>
</g>
<g>
	<path class="st3" d="M237.7,219.6c-3.4-2.2-7.6-4-10.6-6.4l11.4,6.6C238.5,219.8,238,219.8,237.7,219.6L237.7,219.6z"/>
	<path class="st3" d="M227.1,213.5c-3.2,1.7-6.3,4-9.6,5.4l9.6-5.6V213.5z"/>
	<path class="st3" d="M228.9,226c2.9-1.7,5.9-3.4,8.8-5.1C237.6,221,229.1,225.9,228.9,226L228.9,226z"/>
	<polygon class="st3" points="228.9,225.4 228.9,226.2 217.5,219.6 217.5,218.8 	"/>
	<path class="st3" d="M218.3,219.9c3.5,2,7.1,4.1,10.6,6.1l0,0C228.8,225.9,218.4,220,218.3,219.9z"/>
	<path class="st3" d="M237.6,219.5c-2.7,1.6-5.9,3.4-8.6,5c-3.3-1.9-7.1-4.1-10.5-6c2.7-1.6,5.9-3.4,8.6-5
		C230.4,215.4,234.2,217.6,237.6,219.5z"/>
	<path class="st3" d="M237.6,219.5c0.2,0.2,0.9,0.4,1,0.4l-9.6,5.6c0,0,0-0.6,0-0.9L237.6,219.5L237.6,219.5z"/>
	<polygon class="st3" points="238.5,219.8 238.5,220.6 228.9,226.2 228.9,225.4 	"/>
	<path class="st3" d="M228.9,224.5c0,0.4,0,0.9,0,0.9l-11.4-6.6c0,0,0.8-0.1,1-0.4L228.9,224.5L228.9,224.5z"/>
</g>
<g>
	<path class="st3" d="M223.4,227.9c-3.4-2.2-7.6-4-10.6-6.4l11.4,6.6C224.2,228.2,223.6,228.1,223.4,227.9z"/>
	<path class="st3" d="M212.7,221.8c-3.2,1.7-6.3,4-9.6,5.4l9.6-5.6V221.8L212.7,221.8z"/>
	<path class="st3" d="M214.6,234.3c2.9-1.7,5.9-3.4,8.8-5.1C223.2,229.4,214.8,234.2,214.6,234.3L214.6,234.3z"/>
	<polygon class="st3" points="214.6,233.7 214.6,234.5 203.1,227.9 203.1,227.1 	"/>
	<path class="st3" d="M204,228.2c3.5,2.1,7.1,4.1,10.6,6.1l0,0C214.4,234.2,204.1,228.3,204,228.2z"/>
	<path class="st3" d="M214.6,232.8c0,0.4,0,0.9,0,0.9l-11.4-6.6c0,0,0.8-0.1,1-0.4L214.6,232.8L214.6,232.8z"/>
	<path class="st3" d="M223.2,227.8c-2.7,1.6-5.9,3.4-8.6,5c-3.3-1.9-7.1-4.1-10.5-6c2.7-1.6,5.9-3.4,8.6-5
		C216.1,223.7,219.9,225.9,223.2,227.8z"/>
	<path class="st3" d="M223.2,227.8c0.2,0.2,0.9,0.4,1,0.4l-9.6,5.6c0,0,0-0.6,0-0.9L223.2,227.8L223.2,227.8z"/>
	<polygon class="st3" points="224.2,228.2 224.2,229 214.6,234.5 214.6,233.7 	"/>
</g>
<g>
	<path class="st3" d="M209,236.3c-3.4-2.2-7.6-4-10.6-6.4l11.4,6.6C209.8,236.5,209.3,236.4,209,236.3L209,236.3z"/>
	<path class="st3" d="M198.4,230.1c-3.2,1.7-6.3,4-9.6,5.4l9.6-5.6V230.1z"/>
	<path class="st3" d="M200.2,242.6c2.9-1.7,5.9-3.4,8.8-5.1C208.9,237.7,200.4,242.5,200.2,242.6
		C200.2,242.7,200.2,242.6,200.2,242.6L200.2,242.6z"/>
	<polygon class="st3" points="200.2,242.1 200.2,242.9 188.8,236.3 188.8,235.5 	"/>
	<path class="st3" d="M189.6,236.5c3.5,2,7.1,4.1,10.6,6.1l0,0C200.1,242.6,189.7,236.7,189.6,236.5z"/>
	<path class="st3" d="M208.9,236.1c-2.7,1.6-5.9,3.4-8.6,5c-3.3-1.9-7.1-4.1-10.5-6c2.7-1.6,5.9-3.4,8.6-5
		C201.7,232,205.5,234.2,208.9,236.1z"/>
	<path class="st3" d="M208.9,236.1c0.2,0.2,0.9,0.4,1,0.4l-9.6,5.6c0,0,0-0.6,0-0.9L208.9,236.1L208.9,236.1z"/>
	<polygon class="st3" points="209.8,236.5 209.8,237.3 200.2,242.9 200.2,242.1 	"/>
	<path class="st3" d="M200.2,241.1c0,0.4,0,0.9,0,0.9l-11.4-6.6c0,0,0.8-0.1,1-0.4L200.2,241.1L200.2,241.1z"/>
</g>
<g>
	<path class="st3" d="M194.7,244.6c-3.4-2.2-7.6-4-10.6-6.4l11.4,6.6C195.5,244.8,195,244.8,194.7,244.6z"/>
	<path class="st3" d="M184.1,238.5c-3.2,1.7-6.3,4.1-9.6,5.4l9.6-5.6V238.5z"/>
	<path class="st3" d="M185.9,251c2.9-1.7,5.9-3.4,8.8-5.1C194.6,246,186.1,250.9,185.9,251L185.9,251z"/>
	<polygon class="st3" points="185.9,250.4 185.9,251.2 174.5,244.6 174.5,243.8 	"/>
	<path class="st3" d="M175.3,244.9c3.5,2,7.1,4.1,10.6,6.1l0,0C185.7,250.9,175.4,245,175.3,244.9z"/>
	<path class="st3" d="M194.5,244.5c-2.7,1.6-5.9,3.4-8.6,5c-3.3-1.9-7.1-4.1-10.5-6c2.7-1.6,5.9-3.4,8.6-5
		C187.4,240.4,191.2,242.6,194.5,244.5z"/>
	<path class="st3" d="M194.5,244.5c0.2,0.2,0.9,0.4,1,0.4l-9.6,5.6c0,0,0-0.6,0-0.9L194.5,244.5L194.5,244.5z"/>
	<polygon class="st3" points="195.5,244.8 195.5,245.6 185.9,251.2 185.9,250.4 	"/>
	<path class="st3" d="M185.9,249.5c0,0.4,0,0.9,0,0.9l-11.4-6.6c0,0,0.8-0.1,1-0.4L185.9,249.5L185.9,249.5z"/>
</g>
<g>
	<path class="st3" d="M180.3,252.9c-3.4-2.2-7.6-4-10.6-6.4l11.4,6.6C181.1,253.2,180.6,253.1,180.3,252.9L180.3,252.9z"/>
	<path class="st3" d="M169.7,246.8c-3.2,1.7-6.3,4-9.6,5.4l9.6-5.6V246.8L169.7,246.8z"/>
	<path class="st3" d="M171.6,259.3c2.9-1.7,5.9-3.4,8.8-5.1C180.2,254.4,171.7,259.2,171.6,259.3L171.6,259.3z"/>
	<polygon class="st3" points="171.6,258.8 171.6,259.5 160.1,252.9 160.1,252.1 	"/>
	<path class="st3" d="M160.9,253.2c3.5,2.1,7.1,4.1,10.6,6.1l0,0C171.4,259.2,161,253.3,160.9,253.2z"/>
	<path class="st3" d="M180.2,252.8c-2.7,1.6-5.9,3.4-8.6,5c-3.3-1.9-7.1-4.1-10.5-6c2.7-1.6,5.9-3.4,8.6-5
		C173,248.7,176.8,250.9,180.2,252.8L180.2,252.8z"/>
	<path class="st3" d="M180.2,252.8c0.2,0.2,0.9,0.4,1,0.4l-9.6,5.6c0,0,0-0.6,0-0.9L180.2,252.8L180.2,252.8z"/>
	<polygon class="st3" points="181.1,253.2 181.1,254 171.6,259.5 171.6,258.8 	"/>
	<path class="st3" d="M171.6,257.8c0,0.4,0,0.9,0,0.9l-11.4-6.6c0,0,0.8-0.1,1-0.4L171.6,257.8L171.6,257.8z"/>
</g>
<g>
	<path class="st3" d="M166,261.3c-3.4-2.2-7.6-4-10.6-6.4l11.4,6.6C166.8,261.5,166.3,261.4,166,261.3L166,261.3z"/>
	<path class="st3" d="M155.4,255.1c-3.2,1.7-6.3,4-9.6,5.3l9.6-5.6V255.1L155.4,255.1z"/>
	<path class="st3" d="M157.2,267.6c2.9-1.7,5.9-3.4,8.8-5.1C165.9,262.7,157.4,267.5,157.2,267.6
		C157.2,267.7,157.2,267.6,157.2,267.6L157.2,267.6z"/>
	<polygon class="st3" points="157.2,267.1 157.2,267.9 145.8,261.3 145.8,260.5 	"/>
	<path class="st3" d="M146.6,261.5c3.5,2,7.1,4.1,10.6,6.1l0,0C157.1,267.6,146.7,261.7,146.6,261.5z"/>
	<path class="st3" d="M157.2,266.1c0,0.4,0,0.9,0,0.9l-11.4-6.6c0,0,0.8-0.1,1-0.4L157.2,266.1z"/>
	<path class="st3" d="M165.8,261.1c-2.7,1.6-5.9,3.4-8.6,5c-3.3-1.9-7.1-4.1-10.5-6c2.7-1.6,5.9-3.4,8.6-5
		C158.7,257,162.5,259.2,165.8,261.1z"/>
	<path class="st3" d="M165.8,261.1c0.2,0.2,0.9,0.4,1,0.4l-9.6,5.6c0,0,0-0.6,0-0.9L165.8,261.1L165.8,261.1z"/>
	<polygon class="st3" points="166.8,261.5 166.8,262.3 157.2,267.9 157.2,267.1 	"/>
</g>
<g>
	<path class="st3" d="M151.6,269.6c-3.4-2.2-7.6-4-10.6-6.4l11.4,6.6C152.5,269.9,151.9,269.8,151.6,269.6z"/>
	<path class="st3" d="M141,263.5c-3.2,1.7-6.3,4-9.6,5.4l9.6-5.6V263.5z"/>
	<path class="st3" d="M142.9,276c2.9-1.7,5.9-3.4,8.8-5.1C151.5,271.1,143,275.9,142.9,276L142.9,276z"/>
	<polygon class="st3" points="142.9,275.4 142.9,276.2 131.4,269.6 131.4,268.8 	"/>
	<path class="st3" d="M132.3,269.9c3.5,2,7.1,4.1,10.6,6.1l0,0C142.7,275.9,132.4,270,132.3,269.9z"/>
	<path class="st3" d="M142.9,274.5c0,0.4,0,0.9,0,0.9l-11.4-6.6c0,0,0.8-0.1,1-0.4L142.9,274.5L142.9,274.5z"/>
	<path class="st3" d="M151.5,269.5c-2.7,1.6-5.9,3.4-8.6,5c-3.3-1.9-7.1-4.1-10.5-6c2.7-1.6,5.9-3.4,8.6-5
		C144.4,265.4,148.2,267.5,151.5,269.5z"/>
	<path class="st3" d="M151.5,269.5c0.2,0.2,0.9,0.4,1,0.4l-9.6,5.6c0,0,0-0.6,0-0.9L151.5,269.5L151.5,269.5z"/>
	<polygon class="st3" points="152.5,269.9 152.5,270.6 142.9,276.2 142.9,275.4 	"/>
</g>
<g>
	<path class="st3" d="M137.3,277.9c-3.4-2.2-7.6-4-10.6-6.4l11.4,6.6C138.1,278.2,137.6,278.1,137.3,277.9z"/>
	<path class="st3" d="M126.7,271.8c-3.2,1.7-6.3,4-9.6,5.4l9.6-5.6V271.8L126.7,271.8z"/>
	<path class="st3" d="M128.5,284.3c2.9-1.7,5.9-3.4,8.8-5.1C137.2,279.4,128.7,284.2,128.5,284.3L128.5,284.3z"/>
	<polygon class="st3" points="128.5,283.8 128.5,284.5 117.1,277.9 117.1,277.1 	"/>
	<path class="st3" d="M117.9,278.2c3.5,2,7.1,4.1,10.6,6.1l0,0C128.4,284.2,118,278.4,117.9,278.2z"/>
	<path class="st3" d="M128.5,282.8c0,0.4,0,0.9,0,0.9l-11.4-6.6c0,0,0.8-0.1,1-0.4L128.5,282.8z"/>
	<path class="st3" d="M137.1,277.8c-2.7,1.6-5.9,3.4-8.6,5c-3.3-1.9-7.1-4.1-10.5-6c2.7-1.6,5.9-3.4,8.6-5
		C130,273.7,133.8,275.9,137.1,277.8L137.1,277.8z"/>
	<path class="st3" d="M137.1,277.8c0.2,0.2,0.9,0.4,1,0.4l-9.6,5.6c0,0,0-0.6,0-0.9L137.1,277.8z"/>
	<polygon class="st3" points="138.1,278.2 138.1,279 128.5,284.5 128.5,283.8 	"/>
</g>
<g>
	<path class="st3" d="M123,286.3c-3.4-2.2-7.6-4-10.6-6.4l11.4,6.6C123.8,286.5,123.3,286.4,123,286.3z"/>
	<path class="st3" d="M112.4,280.1c-3.2,1.7-6.3,4-9.6,5.4l9.6-5.6V280.1z"/>
	<path class="st3" d="M114.2,292.6c2.9-1.7,5.8-3.4,8.8-5.1C122.8,287.7,114.4,292.5,114.2,292.6
		C114.2,292.7,114.2,292.6,114.2,292.6z"/>
	<polygon class="st3" points="114.2,292.1 114.2,292.9 102.8,286.3 102.8,285.5 	"/>
	<path class="st3" d="M103.6,286.5c3.5,2,7.1,4.1,10.6,6.1l0,0C114,292.6,103.7,286.7,103.6,286.5z"/>
	<path class="st3" d="M114.2,291.1c0,0.4,0,0.9,0,0.9l-11.4-6.6c0,0,0.8-0.1,1-0.4L114.2,291.1z"/>
	<path class="st3" d="M122.8,286.1c-2.7,1.6-5.9,3.4-8.6,5c-3.3-1.9-7.1-4.1-10.5-6c2.7-1.6,5.9-3.4,8.6-5
		C115.7,282,119.5,284.2,122.8,286.1z"/>
	<path class="st3" d="M122.8,286.1c0.2,0.2,0.9,0.4,1,0.4l-9.6,5.6c0,0,0-0.6,0-0.9L122.8,286.1z"/>
	<polygon class="st3" points="123.8,286.5 123.8,287.3 114.2,292.9 114.2,292.1 	"/>
</g>
<g>
	<path class="st3" d="M284.8,213.6c-3.4-2.2-7.6-4-10.6-6.4l11.4,6.6C285.6,213.8,285.1,213.8,284.8,213.6z"/>
	<path class="st3" d="M274.2,207.4c-6.4,3.5-12.6,7.7-19.1,10.9l19.1-11.1V207.4L274.2,207.4z"/>
	<path class="st3" d="M266.5,225.5c6.1-3.6,12.2-7.1,18.3-10.6C284.6,215.1,266.7,225.4,266.5,225.5L266.5,225.5L266.5,225.5z"/>
	<polygon class="st3" points="266.5,224.9 266.5,225.7 255,219.1 255.1,218.4 	"/>
	<path class="st3" d="M255.9,219.4c3.5,2.1,7.1,4.1,10.6,6.1l0,0C266.3,225.4,256,219.5,255.9,219.4z"/>
	<path class="st3" d="M266.5,224c0,0.4,0,0.9,0,0.9l-11.4-6.6c0,0,0.8-0.1,1-0.4L266.5,224L266.5,224z"/>
	<path class="st3" d="M284.6,213.5c-5.9,3.4-12.3,7.1-18.2,10.6c-3.3-1.9-7.1-4.1-10.5-6c5.9-3.4,12.3-7.1,18.2-10.6
		C277.5,209.3,281.3,211.5,284.6,213.5z"/>
	<path class="st3" d="M284.6,213.5c0.2,0.2,0.9,0.4,1,0.4L266.5,225c0,0,0-0.6,0-0.9L284.6,213.5z"/>
	<polygon class="st3" points="285.6,213.8 285.6,214.6 266.5,225.7 266.5,224.9 	"/>
</g>
<g>
	<path class="st3" d="M262.5,226.6c-3.4-2.2-7.6-4-10.6-6.4l11.4,6.6C263.3,226.8,262.8,226.7,262.5,226.6z"/>
	<path class="st3" d="M251.9,220.4c-3.2,1.7-6.3,4-9.6,5.4l9.6-5.6V220.4z"/>
	<path class="st3" d="M253.7,232.9c2.9-1.7,5.9-3.4,8.8-5.1C262.4,228,253.9,232.8,253.7,232.9L253.7,232.9z"/>
	<polygon class="st3" points="253.7,232.4 253.7,233.2 242.3,226.6 242.3,225.8 	"/>
	<path class="st3" d="M243.1,226.8c3.5,2.1,7.1,4.1,10.6,6.1l0,0C253.6,232.9,243.2,227,243.1,226.8z"/>
	<path class="st3" d="M253.7,231.4c0,0.4,0,0.9,0,0.9l-11.4-6.6c0,0,0.8-0.1,1-0.4L253.7,231.4L253.7,231.4z"/>
	<path class="st3" d="M262.3,226.4c-2.7,1.6-5.9,3.4-8.6,5c-3.3-1.9-7.1-4.1-10.5-6c2.7-1.6,5.9-3.4,8.6-5
		C255.2,222.3,259,224.5,262.3,226.4z"/>
	<path class="st3" d="M262.3,226.4c0.2,0.2,0.9,0.4,1,0.4l-9.6,5.6c0,0,0-0.6,0-0.9L262.3,226.4L262.3,226.4z"/>
	<polygon class="st3" points="263.3,226.8 263.3,227.6 253.7,233.2 253.7,232.4 	"/>
</g>
<g>
	<path class="st3" d="M248.4,234.8c-3.4-2.2-7.6-4-10.6-6.4l11.4,6.6C249.2,235,248.7,234.9,248.4,234.8z"/>
	<path class="st3" d="M237.8,228.6c-3.2,1.7-6.3,4-9.6,5.4l9.6-5.6V228.6z"/>
	<path class="st3" d="M239.6,241.1c2.9-1.7,5.9-3.4,8.8-5.1C248.2,236.2,239.8,241,239.6,241.1L239.6,241.1z"/>
	<polygon class="st3" points="239.6,240.6 239.6,241.4 228.2,234.8 228.2,234 	"/>
	<path class="st3" d="M229,235c3.5,2,7.1,4.1,10.6,6.1l0,0C239.4,241.1,229.1,235.2,229,235z"/>
	<path class="st3" d="M239.6,239.6c0,0.4,0,0.9,0,0.9l-11.4-6.6c0,0,0.8-0.1,1-0.4L239.6,239.6L239.6,239.6z"/>
	<path class="st3" d="M248.2,234.6c-2.7,1.6-5.9,3.4-8.6,5c-3.3-1.9-7.1-4.1-10.5-6c2.7-1.6,5.9-3.4,8.6-5
		C241.1,230.5,244.9,232.7,248.2,234.6z"/>
	<path class="st3" d="M248.2,234.6c0.2,0.2,0.9,0.4,1,0.4l-9.6,5.6c0,0,0-0.6,0-0.9L248.2,234.6L248.2,234.6z"/>
	<polygon class="st3" points="249.2,235 249.2,235.8 239.6,241.4 239.6,240.6 	"/>
</g>
<g>
	<path class="st3" d="M234.2,243c-3.4-2.2-7.6-4-10.6-6.4l11.4,6.6C235.1,243.2,234.5,243.1,234.2,243z"/>
	<path class="st3" d="M223.6,236.8c-3.2,1.7-6.3,4-9.6,5.4l9.6-5.6V236.8z"/>
	<path class="st3" d="M225.5,249.3c2.9-1.7,5.9-3.4,8.8-5.1C234.1,244.4,225.6,249.2,225.5,249.3L225.5,249.3z"/>
	<polygon class="st3" points="225.5,248.8 225.5,249.6 214,243 214,242.2 	"/>
	<path class="st3" d="M214.9,243.2c3.5,2.1,7.1,4.1,10.6,6.1l0,0C225.3,249.3,215,243.4,214.9,243.2z"/>
	<path class="st3" d="M225.5,247.9c0,0.4,0,0.9,0,0.9l-11.4-6.6c0,0,0.8-0.1,1-0.4L225.5,247.9L225.5,247.9z"/>
	<path class="st3" d="M234.1,242.8c-2.7,1.6-5.9,3.4-8.6,5c-3.3-1.9-7.1-4.1-10.5-6c2.7-1.6,5.9-3.4,8.6-5
		C227,238.7,230.8,240.9,234.1,242.8z"/>
	<path class="st3" d="M234.1,242.8c0.2,0.2,0.9,0.4,1,0.4l-9.6,5.6c0,0,0-0.6,0-0.9L234.1,242.8L234.1,242.8z"/>
	<polygon class="st3" points="235.1,243.2 235.1,244 225.5,249.6 225.5,248.8 	"/>
</g>
<g>
	<path class="st3" d="M220.1,251.2c-3.4-2.2-7.6-4-10.6-6.4l11.4,6.6C221,251.4,220.4,251.3,220.1,251.2L220.1,251.2z"/>
	<path class="st3" d="M209.5,245c-3.2,1.7-6.3,4-9.6,5.4l9.6-5.6V245z"/>
	<path class="st3" d="M211.4,257.5c2.9-1.7,5.9-3.4,8.8-5.1C220,252.6,211.5,257.4,211.4,257.5C211.4,257.6,211.4,257.5,211.4,257.5
		z"/>
	<polygon class="st3" points="211.4,257 211.4,257.8 199.9,251.2 199.9,250.4 	"/>
	<path class="st3" d="M200.7,251.4c3.5,2,7.1,4.1,10.6,6.1l0,0C211.2,257.5,200.9,251.6,200.7,251.4z"/>
	<path class="st3" d="M211.4,256c0,0.4,0,0.9,0,0.9l-11.4-6.6c0,0,0.8-0.1,1-0.4L211.4,256z"/>
	<path class="st3" d="M220,251c-2.7,1.6-5.9,3.4-8.6,5c-3.3-1.9-7.1-4.1-10.5-6c2.7-1.6,5.9-3.4,8.6-5
		C212.9,246.9,216.7,249.1,220,251z"/>
	<path class="st3" d="M220,251c0.2,0.2,0.9,0.4,1,0.4l-9.6,5.6c0,0,0-0.6,0-0.9L220,251L220,251z"/>
	<polygon class="st3" points="220.9,251.4 220.9,252.2 211.4,257.8 211.4,257 	"/>
</g>
<g>
	<path class="st3" d="M206,259.4c-3.4-2.2-7.6-4-10.6-6.4l11.4,6.6C206.8,259.6,206.3,259.5,206,259.4z"/>
	<path class="st3" d="M195.4,253.2c-3.2,1.7-6.3,4-9.6,5.3l9.6-5.6V253.2L195.4,253.2z"/>
	<path class="st3" d="M197.2,265.7c2.9-1.7,5.9-3.4,8.8-5.1C205.9,260.8,197.4,265.6,197.2,265.7
		C197.2,265.8,197.2,265.7,197.2,265.7z"/>
	<polygon class="st3" points="197.2,265.2 197.2,266 185.8,259.4 185.8,258.6 	"/>
	<path class="st3" d="M186.6,259.6c3.5,2,7.1,4.1,10.6,6.1l0,0C197.1,265.6,186.7,259.8,186.6,259.6z"/>
	<path class="st3" d="M205.9,259.2c-2.7,1.6-5.9,3.4-8.6,5c-3.3-1.9-7.1-4.1-10.5-6c2.7-1.6,5.9-3.4,8.6-5
		C198.7,255.1,202.5,257.3,205.9,259.2z"/>
	<path class="st3" d="M205.9,259.2c0.2,0.2,0.9,0.4,1,0.4l-9.6,5.6c0,0,0-0.6,0-0.9L205.9,259.2L205.9,259.2z"/>
	<polygon class="st3" points="206.8,259.6 206.8,260.4 197.2,266 197.2,265.2 	"/>
	<path class="st3" d="M197.2,264.2c0,0.4,0,0.9,0,0.9l-11.4-6.6c0,0,0.8-0.1,1-0.4L197.2,264.2L197.2,264.2z"/>
</g>
<g>
	<path class="st3" d="M191.9,267.6c-3.4-2.2-7.6-4-10.6-6.4l11.4,6.6C192.7,267.8,192.2,267.7,191.9,267.6z"/>
	<path class="st3" d="M181.3,261.4c-3.2,1.7-6.3,4-9.6,5.4l9.6-5.6V261.4z"/>
	<path class="st3" d="M183.1,274c2.9-1.7,5.9-3.4,8.8-5.1C191.8,269,183.3,273.9,183.1,274L183.1,274z"/>
	<polygon class="st3" points="183.1,273.4 183.1,274.2 171.7,267.6 171.7,266.8 	"/>
	<path class="st3" d="M172.5,267.8c3.5,2,7.1,4.1,10.6,6.1l0,0C183,273.9,172.6,268,172.5,267.8z"/>
	<path class="st3" d="M183.1,272.5c0,0.4,0,0.9,0,0.9l-11.4-6.6c0,0,0.8-0.1,1-0.4L183.1,272.5z"/>
	<path class="st3" d="M191.8,267.4c-2.7,1.6-5.9,3.4-8.6,5c-3.3-1.9-7.1-4.1-10.5-6c2.7-1.6,5.9-3.4,8.6-5
		C184.6,263.3,188.4,265.5,191.8,267.4z"/>
	<path class="st3" d="M191.8,267.4c0.2,0.2,0.9,0.4,1,0.4l-9.6,5.6c0,0,0-0.6,0-0.9L191.8,267.4L191.8,267.4z"/>
	<polygon class="st3" points="192.7,267.8 192.7,268.6 183.1,274.2 183.1,273.4 	"/>
</g>
<g>
	<path class="st3" d="M177.8,275.8c-3.4-2.2-7.6-4-10.6-6.4l11.4,6.6C178.6,276,178.1,275.9,177.8,275.8L177.8,275.8z"/>
	<path class="st3" d="M167.2,269.6c-3.2,1.7-6.3,4-9.6,5.4l9.6-5.6V269.6L167.2,269.6z"/>
	<path class="st3" d="M169,282.1c2.9-1.7,5.9-3.4,8.8-5.1C177.7,277.2,169.2,282,169,282.1C169,282.2,169,282.1,169,282.1z"/>
	<polygon class="st3" points="169,281.6 169,282.4 157.6,275.8 157.6,275 	"/>
	<path class="st3" d="M158.4,276c3.5,2,7.1,4.1,10.6,6.1l0,0C168.9,282.1,158.5,276.2,158.4,276z"/>
	<path class="st3" d="M169,280.6c0,0.4,0,0.9,0,0.9l-11.4-6.6c0,0,0.8-0.1,1-0.4L169,280.6L169,280.6z"/>
	<path class="st3" d="M177.6,275.6c-2.7,1.6-5.9,3.4-8.6,5c-3.3-1.9-7.1-4.1-10.5-6c2.7-1.6,5.9-3.4,8.6-5
		C170.5,271.5,174.3,273.7,177.6,275.6z"/>
	<path class="st3" d="M177.6,275.6c0.2,0.2,0.9,0.4,1,0.4l-9.6,5.6c0,0,0-0.6,0-0.9L177.6,275.6z"/>
	<polygon class="st3" points="178.6,276 178.6,276.8 169,282.4 169,281.6 	"/>
</g>
<g>
	<path class="st3" d="M163.7,284c-3.4-2.2-7.6-4-10.6-6.4l11.4,6.6C164.5,284.2,164,284.1,163.7,284z"/>
	<path class="st3" d="M153.1,277.8c-3.2,1.7-6.3,4-9.6,5.4l9.6-5.6V277.8L153.1,277.8z"/>
	<path class="st3" d="M154.9,290.4c2.9-1.7,5.9-3.4,8.8-5.1C163.6,285.4,155.1,290.2,154.9,290.4L154.9,290.4z"/>
	<polygon class="st3" points="154.9,289.8 154.9,290.6 143.5,284 143.5,283.2 	"/>
	<path class="st3" d="M144.3,284.2c3.5,2,7.1,4.1,10.6,6.1l0,0C154.8,290.3,144.4,284.4,144.3,284.2z"/>
	<path class="st3" d="M154.9,288.9c0,0.4,0,0.9,0,0.9l-11.4-6.6c0,0,0.8-0.1,1-0.4L154.9,288.9L154.9,288.9z"/>
	<path class="st3" d="M163.5,283.8c-2.7,1.6-5.9,3.4-8.6,5c-3.3-1.9-7.1-4.1-10.5-6c2.7-1.6,5.9-3.4,8.6-5
		C156.4,279.7,160.2,281.9,163.5,283.8z"/>
	<path class="st3" d="M163.5,283.8c0.2,0.2,0.9,0.4,1,0.4l-9.6,5.6c0,0,0-0.6,0-0.9L163.5,283.8z"/>
	<polygon class="st3" points="164.5,284.2 164.5,285 154.9,290.6 154.9,289.8 	"/>
</g>
<g>
	<path class="st3" d="M151,291.4c-3.4-2.2-7.6-4-10.6-6.4l11.4,6.6C151.8,291.6,151.3,291.5,151,291.4L151,291.4z"/>
	<path class="st3" d="M140.3,285.2c-6.4,3.5-12.6,7.7-19.1,10.9l19.1-11.1V285.2L140.3,285.2z"/>
	<path class="st3" d="M132.6,303.3c6.1-3.5,12.2-7.1,18.3-10.6C150.8,292.8,132.8,303.2,132.6,303.3L132.6,303.3z"/>
	<polygon class="st3" points="132.6,302.7 132.6,303.5 121.2,296.9 121.2,296.1 	"/>
	<path class="st3" d="M122,297.2c3.5,2,7.1,4.1,10.6,6.1l0,0C132.5,303.2,122.1,297.3,122,297.2z"/>
	<path class="st3" d="M132.6,301.8c0,0.4,0,0.9,0,0.9l-11.4-6.6c0,0,0.8-0.1,1-0.4L132.6,301.8z"/>
	<path class="st3" d="M150.8,291.2c-5.9,3.4-12.3,7.1-18.2,10.6c-3.3-1.9-7.1-4.1-10.5-6c5.9-3.4,12.3-7.1,18.2-10.6
		C143.7,287.1,147.5,289.3,150.8,291.2L150.8,291.2z"/>
	<path class="st3" d="M150.8,291.2c0.2,0.2,0.9,0.4,1,0.4l-19.1,11.1c0,0,0-0.6,0-0.9L150.8,291.2z"/>
	<polygon class="st3" points="151.8,291.6 151.8,292.4 132.6,303.5 132.6,302.7 	"/>
</g>
<g>
	<path class="st3" d="M303.3,224.2c-3.4-2.2-7.6-4-10.6-6.4l11.4,6.6C304.1,224.5,303.6,224.4,303.3,224.2z"/>
	<path class="st3" d="M292.6,218.1c-3.2,1.7-6.3,4-9.6,5.4l9.6-5.6V218.1z"/>
	<path class="st3" d="M294.5,230.6c2.9-1.7,5.9-3.4,8.8-5.1C303.1,225.7,294.6,230.5,294.5,230.6L294.5,230.6z"/>
	<polygon class="st3" points="294.5,230 294.5,230.8 283,224.2 283,223.4 	"/>
	<path class="st3" d="M283.9,224.5c3.5,2,7.1,4.1,10.6,6.1l0,0C294.3,230.5,284,224.6,283.9,224.5L283.9,224.5z"/>
	<path class="st3" d="M294.5,229.1c0,0.4,0,0.9,0,0.9l-11.4-6.6c0,0,0.8-0.1,1-0.4L294.5,229.1L294.5,229.1z"/>
	<path class="st3" d="M303.1,224.1c-2.7,1.6-5.9,3.4-8.6,5c-3.3-1.9-7.1-4.1-10.5-6c2.7-1.6,5.9-3.4,8.6-5
		C296,220,299.8,222.2,303.1,224.1z"/>
	<path class="st3" d="M303.1,224.1c0.2,0.2,0.9,0.4,1,0.4l-9.6,5.6c0,0,0-0.6,0-0.9L303.1,224.1L303.1,224.1z"/>
	<polygon class="st3" points="304.1,224.5 304.1,225.2 294.5,230.8 294.5,230 	"/>
</g>
<g>
	<path class="st3" d="M288.9,232.6c-3.4-2.2-7.6-4-10.6-6.4l11.4,6.6C289.7,232.8,289.2,232.7,288.9,232.6z"/>
	<path class="st3" d="M278.3,226.4c-3.2,1.7-6.3,4-9.6,5.4l9.6-5.6V226.4z"/>
	<path class="st3" d="M280.1,238.9c2.9-1.7,5.9-3.4,8.8-5.1C288.8,234,280.3,238.8,280.1,238.9L280.1,238.9z"/>
	<polygon class="st3" points="280.1,238.4 280.1,239.2 268.7,232.6 268.7,231.8 	"/>
	<path class="st3" d="M269.5,232.8c3.5,2,7.1,4.1,10.6,6.1l0,0C280,238.8,269.6,233,269.5,232.8L269.5,232.8z"/>
	<path class="st3" d="M280.1,237.4c0,0.4,0,0.9,0,0.9l-11.4-6.6c0,0,0.8-0.1,1-0.4L280.1,237.4L280.1,237.4z"/>
	<path class="st3" d="M288.8,232.4c-2.7,1.6-5.9,3.4-8.6,5c-3.3-1.9-7.1-4.1-10.5-6c2.7-1.6,5.9-3.4,8.6-5
		C281.6,228.3,285.4,230.5,288.8,232.4z"/>
	<path class="st3" d="M288.8,232.4c0.2,0.2,0.9,0.4,1,0.4l-9.6,5.6c0,0,0-0.6,0-0.9L288.8,232.4L288.8,232.4z"/>
	<polygon class="st3" points="289.7,232.8 289.7,233.6 280.1,239.2 280.1,238.4 	"/>
</g>
<g>
	<path class="st3" d="M274.6,240.9c-3.4-2.2-7.6-4-10.6-6.4l11.4,6.6C275.4,241.1,274.9,241.1,274.6,240.9z"/>
	<path class="st3" d="M264,234.8c-3.2,1.7-6.3,4-9.6,5.4l9.6-5.6V234.8z"/>
	<path class="st3" d="M265.8,247.3c2.9-1.7,5.9-3.4,8.8-5.1C274.5,242.3,266,247.2,265.8,247.3L265.8,247.3z"/>
	<polygon class="st3" points="265.8,246.7 265.8,247.5 254.4,240.9 254.4,240.1 	"/>
	<path class="st3" d="M255.2,241.1c3.5,2,7.1,4.1,10.6,6.1l0,0C265.6,247.2,255.3,241.3,255.2,241.1L255.2,241.1z"/>
	<path class="st3" d="M274.4,240.8c-2.7,1.6-5.9,3.4-8.6,5c-3.3-1.9-7.1-4.1-10.5-6c2.7-1.6,5.9-3.4,8.6-5
		C267.3,236.6,271.1,238.8,274.4,240.8z"/>
	<path class="st3" d="M274.4,240.8c0.2,0.2,0.9,0.4,1,0.4l-9.6,5.6c0,0,0-0.6,0-0.9L274.4,240.8L274.4,240.8z"/>
	<polygon class="st3" points="275.4,241.1 275.4,241.9 265.8,247.5 265.8,246.7 	"/>
	<path class="st3" d="M265.8,245.8c0,0.4,0,0.9,0,0.9l-11.4-6.6c0,0,0.8-0.1,1-0.4L265.8,245.8L265.8,245.8z"/>
</g>
<g>
	<path class="st3" d="M260.2,249.2c-3.4-2.2-7.6-4-10.6-6.4l11.4,6.6C261,249.5,260.5,249.4,260.2,249.2z"/>
	<path class="st3" d="M249.6,243.1c-4.8,2.6-9.5,5.9-14.3,8.1l14.3-8.3V243.1z"/>
	<path class="st3" d="M246.3,258.6c4.6-2.7,9.3-5.4,13.9-8.1C260.1,250.7,246.4,258.5,246.3,258.6
		C246.2,258.6,246.3,258.6,246.3,258.6L246.3,258.6z"/>
	<path class="st3" d="M235.7,251.2c-3.3,1.7-6.6,4.2-10,5.6l9.6-5.6C235.3,251.2,235.5,251.3,235.7,251.2L235.7,251.2z"/>
	<polygon class="st3" points="261,249.5 261,250.3 246.7,258.6 246.7,257.8 	"/>
	<path class="st3" d="M260.1,249.1c0.2,0.2,0.9,0.4,1,0.4l-14.3,8.3c0,0-0.4-0.3-0.5-0.6L260.1,249.1L260.1,249.1z"/>
	<path class="st3" d="M226.1,256.8c-1.7,0.8-3.4,2.3-5.2,2.8l4.8-2.8C225.7,256.8,225.9,256.9,226.1,256.8L226.1,256.8z"/>
	<path class="st3" d="M236.7,264.2c3.2-1.9,6.4-3.7,9.6-5.6c0,0-0.1,0-0.1,0.1L236.7,264.2C236.6,264.3,236.7,264.2,236.7,264.2z"/>
	<polygon class="st3" points="246.7,257.8 246.7,258.6 237.1,264.2 237.1,263.4 	"/>
	<path class="st3" d="M246.2,257.1c0.1,0.3,0.5,0.6,0.5,0.6l-9.6,5.6c0,0-0.4-0.3-0.5-0.6L246.2,257.1z"/>
	<path class="st3" d="M232,266.9c1.6-0.9,3.2-1.8,4.8-2.8c0,0-0.1,0-0.1,0.1L232,266.9C231.9,267,231.9,267,232,266.9z"/>
	<path class="st3" d="M221.3,259.5c-3.3,1.7-6.6,4.2-10,5.6l9.6-5.6C220.9,259.5,221.2,259.6,221.3,259.5L221.3,259.5z"/>
	<path class="st3" d="M236.6,262.7c0.1,0.3,0.5,0.6,0.5,0.6l-4.8,2.8c0,0-0.4-0.3-0.5-0.6L236.6,262.7z"/>
	<polygon class="st3" points="237.1,263.4 237.1,264.2 232.4,266.9 232.4,266.1 	"/>
	<path class="st3" d="M222.4,272.5c3.2-1.9,6.4-3.7,9.6-5.6c0,0-0.1,0-0.1,0.1L222.4,272.5C222.3,272.6,222.3,272.5,222.4,272.5z"/>
	<polygon class="st3" points="232.4,266.1 232.4,266.9 222.8,272.5 222.8,271.7 	"/>
	<path class="st3" d="M231.9,265.5c0.1,0.3,0.5,0.6,0.5,0.6l-9.6,5.6c0,0-0.4-0.3-0.5-0.6L231.9,265.5z"/>
	<path class="st3" d="M211.8,265.1c-10,5.6-19.9,11.9-30,17.2l29.6-17.2C211.4,265.1,211.6,265.2,211.8,265.1L211.8,265.1z"/>
	<path class="st3" d="M193.2,289.5c9.7-5.6,19.5-11.3,29.2-17c0,0-0.1,0-0.1,0.1L193.2,289.5L193.2,289.5L193.2,289.5z"/>
	<polygon class="st3" points="193.2,288.9 193.2,289.7 181.8,283.1 181.8,282.3 	"/>
	<path class="st3" d="M182.6,283.3c3.5,2,7.1,4.1,10.6,6.1l0,0C193,289.4,182.7,283.5,182.6,283.3L182.6,283.3z"/>
	<path class="st3" d="M260.1,249.1c-21.9,12.7-45.2,26.2-66.9,38.9c-3.3-1.9-7.1-4.1-10.5-6c21.7-12.6,45.1-26.2,66.9-38.9
		C252.9,245,256.8,247.2,260.1,249.1L260.1,249.1z"/>
	<path class="st3" d="M193.2,288c0,0.4,0,0.9,0,0.9l-11.4-6.6c0,0,0.8-0.1,1-0.4L193.2,288L193.2,288z"/>
	<path class="st3" d="M222.3,271.1c0.1,0.3,0.5,0.6,0.5,0.6l-29.6,17.2c0,0,0-0.6,0-0.9L222.3,271.1L222.3,271.1z"/>
	<polygon class="st3" points="222.8,271.7 222.8,272.5 193.2,289.7 193.2,288.9 	"/>
</g>
<g>
	<path class="st3" d="M188.5,290.9c-3.4-2.2-7.6-4-10.6-6.4l11.4,6.6C189.3,291.1,188.8,291.1,188.5,290.9z"/>
	<path class="st3" d="M177.9,284.8c-3.2,1.7-6.3,4-9.6,5.4l9.6-5.6V284.8z"/>
	<path class="st3" d="M179.8,297.3c2.9-1.7,5.9-3.4,8.8-5.1C188.4,292.3,179.9,297.2,179.8,297.3L179.8,297.3z"/>
	<polygon class="st3" points="179.8,296.7 179.8,297.5 168.3,290.9 168.3,290.1 	"/>
	<path class="st3" d="M169.1,291.1c3.6,2,7.1,4.1,10.6,6.1l0,0C179.6,297.2,169.2,291.3,169.1,291.1L169.1,291.1z"/>
	<path class="st3" d="M179.8,295.8c0,0.4,0,0.9,0,0.9l-11.4-6.6c0,0,0.8-0.1,1-0.4L179.8,295.8L179.8,295.8z"/>
	<path class="st3" d="M188.4,290.8c-2.7,1.6-5.9,3.4-8.6,5c-3.3-1.9-7.1-4.1-10.5-6c2.7-1.6,5.9-3.4,8.6-5
		C181.2,286.6,185.1,288.8,188.4,290.8z"/>
	<path class="st3" d="M188.4,290.8c0.2,0.2,0.9,0.4,1,0.4l-9.6,5.6c0,0,0-0.6,0-0.9L188.4,290.8L188.4,290.8z"/>
	<polygon class="st3" points="189.3,291.1 189.3,291.9 179.8,297.5 179.8,296.7 	"/>
</g>
<g>
	<path class="st3" d="M174.2,299.2c-3.4-2.2-7.6-4-10.6-6.4l11.4,6.6C175,299.5,174.5,299.4,174.2,299.2z"/>
	<path class="st3" d="M163.6,293.1c-3.2,1.7-6.3,4-9.6,5.4l9.6-5.6V293.1L163.6,293.1z"/>
	<path class="st3" d="M165.4,305.6c2.9-1.7,5.9-3.4,8.8-5.1C174.1,300.7,165.6,305.5,165.4,305.6L165.4,305.6z"/>
	<polygon class="st3" points="165.4,305 165.4,305.8 154,299.2 154,298.4 	"/>
	<path class="st3" d="M154.8,299.5c3.5,2,7.1,4.1,10.6,6.1l0,0C165.3,305.5,154.9,299.6,154.8,299.5L154.8,299.5z"/>
	<path class="st3" d="M165.4,304.1c0,0.4,0,0.9,0,0.9l-11.4-6.6c0,0,0.8-0.1,1-0.4L165.4,304.1L165.4,304.1z"/>
	<path class="st3" d="M174,299.1c-2.7,1.6-5.9,3.4-8.6,5c-3.3-1.9-7.1-4.1-10.5-6c2.7-1.6,5.9-3.4,8.6-5
		C166.9,295,170.7,297.2,174,299.1z"/>
	<path class="st3" d="M174,299.1c0.2,0.2,0.9,0.4,1,0.4l-9.6,5.6c0,0,0-0.6,0-0.9L174,299.1z"/>
	<polygon class="st3" points="175,299.5 175,300.3 165.4,305.8 165.4,305 	"/>
</g>
<g>
	<path class="st3" d="M159.9,307.6c-3.4-2.2-7.6-4-10.6-6.4l11.4,6.6C160.7,307.8,160.1,307.7,159.9,307.6z"/>
	<path class="st3" d="M149.2,301.4c-3.2,1.7-6.3,4-9.6,5.4l9.6-5.6V301.4z"/>
	<path class="st3" d="M151.1,313.9c2.9-1.7,5.9-3.4,8.8-5.1C159.7,309,151.2,313.8,151.1,313.9C151.1,314,151.1,313.9,151.1,313.9z"
		/>
	<polygon class="st3" points="151.1,313.4 151.1,314.2 139.6,307.6 139.6,306.8 	"/>
	<path class="st3" d="M140.4,307.8c3.5,2,7.1,4.1,10.6,6.1l0,0C150.9,313.9,140.6,308,140.4,307.8L140.4,307.8z"/>
	<path class="st3" d="M151.1,312.5c0,0.4,0,0.9,0,0.9l-11.4-6.6c0,0,0.8-0.1,1-0.4L151.1,312.5L151.1,312.5z"/>
	<path class="st3" d="M159.7,307.4c-2.7,1.6-5.9,3.4-8.6,5c-3.3-1.9-7.1-4.1-10.5-6c2.7-1.6,5.9-3.4,8.6-5
		C152.6,303.3,156.4,305.5,159.7,307.4z"/>
	<path class="st3" d="M159.7,307.4c0.2,0.2,0.9,0.4,1,0.4l-9.6,5.6c0,0,0-0.6,0-0.9L159.7,307.4L159.7,307.4z"/>
	<polygon class="st3" points="160.7,307.8 160.7,308.6 151.1,314.2 151.1,313.4 	"/>
</g>
<g>
	<path class="st4" d="M191,2C188.2,7.4-7.2,107.1,3.6,118l20.8,145.5c0.6,4,3.7,5.8,7,3.9c2.7-5.5,198.2-105.1,187.4-116.1
		L197.9,5.8C197.4,1.8,194.2,0.1,191,2"/>
</g>
<g>
	<path class="st2" d="M187,11.2C185.2,16.2,6.8,107,9.4,118.7l18.9,135.6c0.6,4,3.7,5.8,7,3.9c1.8-4.9,190.2-100.6,177.6-110.4
		L194,15.1C193.4,11.1,190.3,9.4,187,11.2"/>
</g>
<g>
	<g>
		<g>
			<g>
				<g>
					<defs>
						<polygon id="SVGID_1_" points="104.3,176.6 104.3,166.3 138.1,146.7 138.1,157.1 						"/>
					</defs>
					<clipPath id="SVGID_00000121961904846176843790000011053596218840720802_">
						<use xlink:href="#SVGID_1_"  style="overflow:visible;"/>
					</clipPath>
					<g style="clip-path:url(#SVGID_00000121961904846176843790000011053596218840720802_);">
						<g>
							<path class="st3" d="M108.8,163.7c-4.2,1.6-7.3,13.4,0,10.3C113,172.4,116.1,160.6,108.8,163.7"/>
							<path class="st3" d="M121.2,156.5c-2.5,1.4-4.5,4.9-4.5,7.8c1,7.9,9.8-0.8,9-5.2C125.7,156.2,123.7,155.1,121.2,156.5"/>
							<path class="st3" d="M133.6,149.3c-2.5,1.4-4.5,4.9-4.5,7.8c1,7.9,9.8-0.8,9-5.2C138.1,149,136.1,147.9,133.6,149.3"/>
						</g>
					</g>
				</g>
			</g>
		</g>
	</g>
</g>
<path class="st6" d="M385.1,417.6L385.1,417.6c-0.1,0.1-0.2,0.2-0.2,0.2v-0.1C385,417.7,385.1,417.6,385.1,417.6L385.1,417.6z"/>
<path class="st7" d="M319.8,277.3c-5-4.5-29.3,14.3-33.9,15.8l0.3,0.2l-0.3,0.2l0.3,0.2l-0.3,0.2l0.4,0.2l-0.4,0.2l0.4,0.2l-0.4,0.2
	l0.4,0.2l-0.4,0.2c1.8,0.5,29.5-18,30.9-16.2c35.6,18.4,104,60,138.9,79.4v-2.7L319.8,277.3z M318.2,277.1c-1.1-0.3-2.4-0.3-3.6,0
	C315.7,276.8,317,276.8,318.2,277.1z M318.1,277.5c-1.1-0.2-2.4-0.2-3.5,0C315.7,277.2,317,277.2,318.1,277.5z M313.3,279.4
	c1.7-1,4.5-1,6.1,0C317.7,278.5,315.1,278.5,313.3,279.4z M313.3,278.9c1.7-1,4.5-1,6.1,0C317.7,278,315.1,278,313.3,278.9z
	 M313.3,278.4c1.7-1,4.5-1,6.1,0C317.7,277.5,315.1,277.5,313.3,278.4z"/>
<path class="st7" d="M468.4,362.3l-12.7-6.5v2.7c0.3,0.2,13.3,6.6,13,6.9c0,0.3-9.1,5.4-9.5,5.7l0.4,3.1l-66,38.4v-0.7
	c-0.1,0.1-8.3,4.8-8.4,4.9l0,0l8.4-4.9v-1.5l-0.2-0.1c-13.5,8.8-12,5.9-24.9-1.2l0,0l-2.2,1.3l-136-78.5c-1.4-0.8-1.7-2.1-0.8-3
	l-1.3-0.8c0,1.1,0,6.3,0,7.5l150.9,87.1l0,0c3,1.8,6.6,0.1,9.2-1.7l80.4-46.7v-0.8c1.9-0.7,1-4.7,1.2-6.1
	C469.8,365.5,470.4,363.5,468.4,362.3L468.4,362.3z M385.1,417.7c-0.1,0-0.2,0.1-0.2,0.1v-0.1C385,417.7,385.1,417.6,385.1,417.7
	L385.1,417.7L385.1,417.7z"/>
<path class="st7" d="M257,310.4l0.3-0.2l-0.4-0.2c-0.1,1.7-36.6,17.3-26.9,19.3c-0.2-0.1-0.4-0.3-0.5-0.5c0.2-0.2,0.4-0.4,0.7-0.6
	l27.1-15.8l-0.4-0.2l0.4-0.2l-0.4-0.2l0.4-0.2l-0.4-0.2l0.4-0.2L257,311l0.3-0.2L257,310.4L257,310.4z M228,329.4V328
	C228,328.4,228,329.1,228,329.4z"/>
<g>
	<path class="st8" d="M498,409.4c-11.7-6.7-27.2-8.2-40.4-6c-23.1,2.5-42.3,24.8-17.1,39.3C466.2,461.5,538.6,439.5,498,409.4
		L498,409.4z"/>
</g>
<g>
	<path class="st9" d="M493.1,412.2c-11.7-6.7-27.3-8.2-40.4-6c-23.1,2.5-42.3,24.8-17.1,39.3C461.2,464.3,533.7,442.2,493.1,412.2
		L493.1,412.2L493.1,412.2z"/>
</g>
<g>
	<path class="st3" d="M496.3,407.1c-11.7-6.7-27.3-8.2-40.4-6c-23.1,2.5-42.3,24.8-17.1,39.3C464.4,459.2,536.9,437.2,496.3,407.1
		L496.3,407.1L496.3,407.1z"/>
</g>
<g>
	<path class="st3" d="M354.9,350.2c11.7-6.7,27.3-8.2,40.4-6c23.1,2.5,42.3,24.8,17.1,39.3C386.8,402.3,314.4,380.3,354.9,350.2"/>
</g>
<g>
	<g>
		<g>
			<g>
				<g>
					<defs>
						<polygon id="SVGID_00000171714403325687454800000004121499892788650144_" points="416.7,364.3 383.2,344.8 349.6,364.2 
							383.1,383.7 						"/>
					</defs>
					<clipPath id="SVGID_00000174589378705997559540000013821916840000049050_">
						<use xlink:href="#SVGID_00000171714403325687454800000004121499892788650144_"  style="overflow:visible;"/>
					</clipPath>
					<g style="clip-path:url(#SVGID_00000174589378705997559540000013821916840000049050_);">
						<g>
							<path class="st2" d="M361.7,357.2h2c0.2,0.5,1.9,3.6,2,4.1l0,0c0.1-0.5,1.8-3.6,2.1-4.1h1.8c0.3,0.5,2.2,3.6,2.3,4.1h0.1
								c0.1-0.5,1.5-3.6,1.7-4.1h1.8l-2.7,5.5h-1.7c-0.4-0.6-2.2-3.6-2.4-4.2h-0.1c-0.2,0.6-1.9,3.6-2.2,4.2h-1.7L361.7,357.2"/>
							<path class="st2" d="M375.9,357.1h2c0.2,0.5,1.9,3.6,2,4.1h0.1c0-0.5,1.8-3.6,2.1-4.1h1.8c0.3,0.5,2.2,3.6,2.3,4.1l0,0
								c0.1-0.5,1.5-3.6,1.7-4.1h1.8l-2.7,5.5h-1.7c-0.4-0.6-2.2-3.6-2.4-4.2l0,0c-0.2,0.6-1.9,3.6-2.2,4.2H379L375.9,357.1"/>
							<path class="st2" d="M390.1,356.9h2c0.2,0.5,1.9,3.6,2,4.1l0,0c0-0.5,1.8-3.6,2.1-4.1h1.8c0.3,0.5,2.2,3.6,2.3,4.1h0.1
								c0.1-0.5,1.5-3.6,1.8-4.1h1.8l-2.7,5.5h-1.7c-0.4-0.6-2.2-3.6-2.4-4.2l0,0c-0.2,0.6-1.9,3.6-2.2,4.2h-1.7L390.1,356.9"/>
							<path class="st2" d="M364,371.6c1.1-0.7,3.2,0.3,2,1C364.9,373.3,362.8,372.3,364,371.6"/>
							<path class="st2" d="M369.4,367.9c2.3-1.3,7-1.2,7.3,1.1h-1.9c-0.2-1.8-5-1.2-4.5,0.8c-0.8,1.8,4,3.1,4.5,1h1.9
								C375.2,375.3,364.3,371.5,369.4,367.9"/>
							<path class="st2" d="M384.4,371.3c2.6-2.1-1.3-4.5-3.6-2.9C378.2,370.4,382.1,372.8,384.4,371.3 M379.2,367.7
								c2.6-1.5,8.4-0.8,8,2.1C386.7,375.2,373.7,372,379.2,367.7"/>
							<path class="st2" d="M389.1,367h1.9l0.1,0.7l0,0c1.4-1.1,4.5-1.1,5.5,0.1l0,0c1.2-1.1,3.9-1.2,5.3-0.5c1.5,0.7,0.7,4,1,5.1
								h-2c-0.5-0.9,1.2-4.8-1.8-4.6c-3-0.5-1.9,3.5-2,4.6h-2c-0.5-0.9,1.2-4.8-1.8-4.6c-3-0.5-1.9,3.5-2,4.6h-2L389.1,367"/>
						</g>
					</g>
				</g>
			</g>
		</g>
	</g>
</g>
<g>
	<g>
		<path class="st8" d="M433,407.4c11.7-6.7,27.3-8.2,40.4-6c23.1,2.5,42.3,24.8,17.1,39.3C464.9,459.5,392.5,437.5,433,407.4z"/>
	</g>
	<g>
		<g>
			<path class="st2" d="M438.5,425.2l1.4-0.8c0.8,0.3,5.7,1.9,6.3,2.1l0,0c-0.5-0.4-3-3.3-3.5-3.8l1.3-0.7c0.8,0.3,6,1.7,6.6,2l0,0
				c-0.5-0.4-3.2-3.2-3.7-3.7l1.3-0.7l4.6,5l-1.2,0.7c-1-0.3-5.9-1.7-6.7-2l0,0c0.6,0.5,3,3.3,3.5,3.9l-1.2,0.7L438.5,425.2"/>
			<path class="st2" d="M448.5,419.4l1.4-0.8c0.8,0.3,5.7,1.8,6.3,2.1l0,0c-0.5-0.4-3-3.3-3.5-3.8l1.3-0.7c0.8,0.3,6,1.7,6.6,2l0,0
				c-0.5-0.4-3.2-3.2-3.7-3.7l1.3-0.7l4.6,5l-1.2,0.7c-1-0.3-5.9-1.7-6.7-2l0,0c0.6,0.5,3,3.3,3.5,3.9l-1.2,0.7L448.5,419.4"/>
			<path class="st2" d="M458.6,413.6l1.4-0.8c0.8,0.3,5.7,1.9,6.3,2.1l0,0c-0.5-0.4-3-3.3-3.5-3.8l1.3-0.7c0.8,0.3,6,1.7,6.6,2l0,0
				c-0.5-0.4-3.2-3.2-3.7-3.7l1.3-0.7l4.6,5l-1.2,0.7c-1-0.3-5.9-1.7-6.7-2l0,0c0.6,0.5,3,3.3,3.5,3.9l-1.2,0.7L458.6,413.6"/>
			<path class="st2" d="M457.7,434.1c0.9-0.6,3.2,0,1.9,1C458.8,435.7,456.5,435,457.7,434.1"/>
			<path class="st2" d="M458.3,427.8c1.3-0.8,3.3-1.1,5.1-0.1l-1.4,0.8c-1.9-1.2-5.1,1-2.2,2.4c1,1.3,6.5,1.1,4.4-1.1l1.4-0.8
				c1.5,1,1.1,2.2-0.2,2.9C462.8,434.2,453.2,431.3,458.3,427.8"/>
			<path class="st2" d="M470.9,427.2c2.9-1.8-3.3-4.1-4.6-2.8C463.4,426.3,469.7,428.6,470.9,427.2 M465.2,423.9
				c1.8-1,4.7-1.3,6.8,0.2c2.4,1.2,1.8,2.8,0.1,3.8C469.8,430.2,460.2,427.2,465.2,423.9"/>
			<path class="st2" d="M473.2,419.2c0.8-0.5,1.9-0.7,3-0.4l0,0c0.5-5.2,7.8-0.7,10,0.8l-1.4,0.8c-1.4-0.5-4.7-3.8-6.7-2.6
				c-2.9,1.2,3.1,3.4,4,4.2l-1.4,0.8c-1.4-0.5-4.7-3.8-6.7-2.6c-2.9,1.2,3.1,3.4,4,4.2l-1.4,0.8l-6.6-4l1.3-0.8l0.9,0.5l0,0
				C472,420.3,472.5,419.6,473.2,419.2"/>
		</g>
	</g>
</g>
<g>
	<path class="st3" d="M289.3,310.4c11.7-6.7,27.3-8.2,40.4-6c23.1,2.5,42.3,24.8,17.1,39.3C321.2,362.5,248.8,340.5,289.3,310.4"/>
</g>
<g>
	<g>
		<path class="st2" d="M294.7,328.2l1.4-0.8c0.8,0.3,5.7,1.8,6.4,2.1l0,0c-0.5-0.4-3-3.3-3.5-3.8l1.3-0.7c0.8,0.3,6,1.7,6.6,2l0,0
			c-0.5-0.4-3.2-3.2-3.7-3.7l1.3-0.7l4.6,5l-1.2,0.7c-1-0.3-5.9-1.7-6.7-2l0,0c0.6,0.5,3,3.3,3.5,3.9l-1.2,0.7L294.7,328.2"/>
		<path class="st2" d="M304.8,322.4l1.4-0.8c0.8,0.3,5.7,1.9,6.3,2.1l0,0c-0.5-0.4-3-3.3-3.5-3.8l1.3-0.7c0.8,0.3,6,1.7,6.6,2l0,0
			c-0.5-0.4-3.2-3.2-3.7-3.7l1.3-0.7l4.6,5l-1.2,0.7c-1-0.3-5.9-1.7-6.7-2l0,0c0.6,0.5,3,3.3,3.5,3.9l-1.2,0.7L304.8,322.4"/>
		<path class="st2" d="M314.9,316.6l1.4-0.8c0.8,0.3,5.7,1.8,6.4,2.1l0,0c-0.5-0.4-3-3.3-3.5-3.8l1.3-0.7c0.8,0.3,6,1.7,6.6,2l0,0
			c-0.5-0.4-3.2-3.2-3.7-3.7l1.3-0.7l4.6,5l-1.2,0.7c-1-0.3-5.9-1.7-6.7-2l0,0c0.6,0.5,3,3.3,3.5,3.9l-1.2,0.7L314.9,316.6"/>
		<path class="st2" d="M314,337.1c0.7-0.4,2.2-0.3,2.3,0.5C316.1,338.9,312.5,338.3,314,337.1"/>
		<path class="st2" d="M314.6,330.8c1.3-0.8,3.3-1.1,5.1-0.1l-1.4,0.8c-1.9-1.2-5.1,1-2.2,2.4c1,1.3,6.5,1.1,4.4-1.1l1.4-0.8
			c1.5,1,1.1,2.2-0.2,2.9C319,337.2,309.5,334.3,314.6,330.8"/>
		<path class="st2" d="M327.2,330.3c2.9-1.8-3.3-4.1-4.6-2.8C319.7,329.3,326,331.6,327.2,330.3 M321.5,326.9c1.8-1,4.7-1.3,6.8,0.2
			c2.4,1.2,1.8,2.8,0.1,3.8C326.1,333.2,316.5,330.3,321.5,326.9"/>
		<path class="st2" d="M329.5,322.2c0.8-0.5,1.9-0.7,3-0.4l0,0c0.5-5.2,7.8-0.8,10,0.8l-1.4,0.8c-1.4-0.5-4.7-3.8-6.7-2.6
			c-2.9,1.2,3.1,3.4,4,4.2l-1.4,0.8c-1.4-0.5-4.7-3.8-6.7-2.6c-2.9,1.2,3.1,3.4,4,4.2l-1.4,0.8l-6.6-3.9l1.3-0.8l0.9,0.5l0,0
			C328.3,323.3,328.8,322.7,329.5,322.2"/>
	</g>
</g>
<g>
	<g>
		<g>
			<g>
				<g>
					<defs>
						<polygon id="SVGID_00000164487243928672897430000014977715047999802288_" points="318,380.3 407.8,328.1 409.8,329.2 
							320,381.4 						"/>
					</defs>
					<clipPath id="SVGID_00000018206101194882338850000012756371499161586835_">
						<use xlink:href="#SVGID_00000164487243928672897430000014977715047999802288_"  style="overflow:visible;"/>
					</clipPath>
					<g style="clip-path:url(#SVGID_00000018206101194882338850000012756371499161586835_);">
						<polyline class="st12" points="409.8,329.2 407.8,328.1 318,380.3 320,381.4 409.8,329.2 						"/>
					</g>
				</g>
			</g>
		</g>
	</g>
</g>
<g>
	<g>
		<g>
			<g>
				<g>
					<defs>
						<polygon id="SVGID_00000018229773417584284290000010891136947263822989_" points="61.8,183.6 56.4,146 160.6,85.8 166,123.4 
													"/>
					</defs>
					<clipPath id="SVGID_00000000186319616207209440000013633277367422648454_">
						<use xlink:href="#SVGID_00000018229773417584284290000010891136947263822989_"  style="overflow:visible;"/>
					</clipPath>
					<g style="clip-path:url(#SVGID_00000000186319616207209440000013633277367422648454_);">
						<g>
							<path class="st3" d="M64,141.6c-4,2.3-5,6.1-4,10.6l-2.5,1.4l0.2,1.5l2.5-1.4l2.7,18.6l1.4-0.8l-2.7-18.6l4.2-2.4l-0.2-1.5
								l-4.2,2.4c-0.8-3.7-0.2-6.8,3.3-8.6l-0.2-1.5C64.3,141.5,64.2,141.5,64,141.6"/>
							<path class="st3" d="M70.4,146.2L69,147l2.9,20.1l1.3-0.8L70.4,146.2 M68.7,139.2c-0.9,0.5-1.5,2.5-0.5,3
								C70.1,142.9,70.9,138.3,68.7,139.2"/>
							<polyline class="st3" points="75.6,135.3 74.3,136.1 78.2,163.4 79.5,162.6 75.6,135.3 							"/>
							<path class="st3" d="M82.9,133.4l-1.3,0.8l0.7,5.1l-2.5,1.4l0.2,1.4l2.5-1.4l1.9,13.3c0.4,5.4,4.1,3.7,6.9,1.8l-0.2-1.5
								c-2.2,1.4-5.1,3.3-5.4-1.1L83.8,140l4.8-2.8l-0.2-1.4l-4.8,2.8L82.9,133.4"/>
							<path class="st3" d="M93.9,142.7c-2.5-8.3,11.1-19.7,12.8-7.4L93.9,142.7 M98.8,129.5c-9.8,5.1-7.9,26.5,3.8,20.3
								c2.9-1.6,5.4-5.3,5.9-11l-1.4,0.8c0.4,7.8-11.5,15-13,4.5l14.1-8.1C108.4,128.7,103.2,126.9,98.8,129.5"/>
							<path class="st3" d="M118.2,118.2c-3.1,1.8-5,4.5-5.4,8l-0.6-4.1l-1.3,0.8l2.9,20.1l1.3-0.8c-0.6-6.4-5-18.6,3.4-22.2
								L118.2,118.2"/>
							<path class="st3" d="M122.7,116l-1.3,0.8l2.9,20.1l1.3-0.8L122.7,116 M121,109c-0.9,0.5-1.5,2.5-0.5,3
								C122.4,112.7,123.2,108.1,121,109"/>
							<path class="st3" d="M135,108.4c-2.6,1.5-5,4.6-5.4,8.2l-0.6-4.2l-1.3,0.8l2.9,20.1l1.4-0.8c-0.5-6.2-4.7-17.9,2.8-22.2
								c7.9-5.5,7.3,10,8.5,15.7l1.3-0.8C143,119.3,144.2,103.2,135,108.4"/>
							<path class="st3" d="M155.9,117.3c-14.3,5-6.4-26.7,4.2-17.2C164.3,105.2,160.7,114.6,155.9,117.3 M153.4,97.8
								c-5.8,3.3-9.1,14.7-4.7,19.9c5,5.9,13.2-2.2,13.7-8.6c0.3,2.7,1.5,7.6,0.6,10.5c-0.9,5.4-8.8,11.3-11.9,5.1l-1.4,0.8
								c3.4,8,13.3,0.8,14.5-5.8c1.5-4.1-2.5-22.2-2.7-26.2l-1.4,0.8l0.7,5.2C159.6,96.5,155.9,96.2,153.4,97.8"/>
						</g>
					</g>
				</g>
			</g>
		</g>
	</g>
</g>
<path class="st7" d="M231,334.2v0.3C231,334.4,231,334.4,231,334.2z"/>
<path class="st7" d="M305,372.5c-1-0.5-74.8-43.2-75.8-43.7c-0.9,1-0.6,2.2,0.8,3l137.9,79.6l1.8-1.5l-1.5-0.9L305,372.5z
	 M368.4,409.1L368.4,409.1l10.4,6L368.4,409.1z M385.1,416.8L385.1,416.8c0.1,0,8.3-4.8,8.4-4.9L385.1,416.8z M393.5,412.6
	l66.1-38.4l-65.9,37.6v-1.3l-0.4-0.3l0,0l0.2,0.2L393.5,412.6L393.5,412.6z"/>
<path class="st7" d="M385.1,417.6L385.1,417.6c-0.1,0.1-0.2,0.2-0.2,0.2v-0.1C385,417.7,385.1,417.6,385.1,417.6L385.1,417.6z"/>
<path class="st7" d="M385.1,417.6L385.1,417.6c-0.1,0.1-0.2,0.2-0.2,0.2v-0.1C385,417.7,385.1,417.6,385.1,417.6L385.1,417.6z"/>
<path class="st14" d="M393.5,412c-0.1,0.1-8.3,4.8-8.4,4.9l0,0L393.5,412z"/>
<polygon class="st14" points="393.7,411.8 393.7,411.8 393.5,412 393.5,411.9 "/>
</svg>
