<?xml version="1.0" encoding="UTF-8"?>
<svg id="Layer_1" data-name="Layer 1" xmlns="http://www.w3.org/2000/svg" xmlns:xlink="http://www.w3.org/1999/xlink" viewBox="0 0 397.79 204.65">
  <defs>
    <style>
      .cls-1 {
        clip-path: url(#clippath);
      }

      .cls-2 {
        fill: none;
      }

      .cls-2, .cls-3, .cls-4, .cls-5, .cls-6, .cls-7, .cls-8, .cls-9, .cls-10, .cls-11, .cls-12, .cls-13, .cls-14, .cls-15, .cls-16 {
        stroke-width: 0px;
      }

      .cls-17 {
        opacity: .12;
      }

      .cls-18 {
        clip-path: url(#clippath-1);
      }

      .cls-19 {
        clip-path: url(#clippath-4);
      }

      .cls-20 {
        clip-path: url(#clippath-3);
      }

      .cls-21 {
        clip-path: url(#clippath-2);
      }

      .cls-22 {
        clip-path: url(#clippath-6);
      }

      .cls-23 {
        clip-path: url(#clippath-5);
      }

      .cls-24 {
        opacity: .21;
      }

      .cls-25 {
        opacity: .33;
      }

      .cls-3 {
        fill: #4f4e4e;
      }

      .cls-4 {
        fill: #58595b;
      }

      .cls-5 {
        fill: #dae7ee;
      }

      .cls-6 {
        fill: #d4dbdf;
      }

      .cls-7 {
        fill: #c1986c;
      }

      .cls-8 {
        fill: #a4c5d1;
      }

      .cls-9 {
        fill: #bce4ee;
      }

      .cls-10 {
        fill: #30314c;
      }

      .cls-11 {
        fill: #969595;
      }

      .cls-12 {
        fill: #fff;
      }

      .cls-13 {
        fill: #ed1c24;
      }

      .cls-14 {
        fill: #fff6f3;
      }

      .cls-15 {
        fill: #ea1f28;
      }

      .cls-16 {
        fill: #010101;
      }
    </style>
    <clipPath id="clippath">
      <polygon class="cls-2" points="3.65 196.69 0 149.55 238.77 149.41 238.87 204.97 3.65 196.69"/>
    </clipPath>
    <clipPath id="clippath-1">
      <path class="cls-2" d="m88.02,171.05l10.97.16c.1,0,.2.03.3.07s.18.11.25.18.14.17.18.26.07.2.08.31l.44,9.43c0,.11-.01.21-.05.31s-.09.18-.16.26-.15.13-.24.17-.19.06-.29.06l-1.14-.03.02.43c0,.11-.01.21-.05.31s-.09.18-.16.25-.15.13-.24.17-.19.06-.29.06h-.46l.03.66c0,.11-.01.21-.05.31s-.09.18-.16.26-.15.13-.24.17-.19.06-.29.06l-4.69-.12c-.1,0-.2-.03-.29-.07s-.18-.11-.25-.18-.14-.17-.18-.26-.07-.2-.08-.31l-.03-.67h-.45c-.1,0-.2-.04-.29-.08s-.18-.11-.25-.18-.14-.16-.18-.26-.07-.2-.08-.31l-.02-.43-1.12-.03c-.1,0-.2-.03-.29-.07s-.18-.11-.25-.18-.14-.16-.18-.26-.07-.2-.08-.31l-.47-9.35c0-.11.01-.21.05-.31s.09-.18.15-.26.15-.13.23-.17.19-.06.29-.06"/>
    </clipPath>
    <clipPath id="clippath-2">
      <path class="cls-2" d="m114.07,171.44l11.38.17c.11,0,.21.03.31.07s.19.11.26.19.14.17.19.27.07.21.08.32l.36,9.61c0,.11-.02.22-.05.31s-.1.19-.17.26-.16.13-.25.18-.2.06-.3.06l-1.18-.03.02.44c0,.11-.02.21-.05.31s-.1.19-.17.26-.16.13-.25.18-.2.06-.3.06h-.47l.03.67c0,.11-.01.22-.05.31s-.09.19-.16.26-.15.13-.25.18-.19.06-.3.06l-4.88-.12c-.1,0-.21-.03-.3-.07s-.18-.11-.26-.19-.14-.17-.18-.27-.07-.21-.08-.32l-.03-.68h-.47c-.1,0-.21-.04-.3-.09s-.18-.11-.26-.19-.14-.17-.19-.27-.07-.2-.08-.31l-.02-.44-1.16-.03c-.1,0-.21-.03-.3-.07s-.18-.11-.26-.19-.14-.17-.19-.27-.07-.2-.08-.31l-.4-9.52c0-.11.01-.21.05-.31s.09-.19.16-.26.15-.14.25-.18.19-.06.3-.06"/>
    </clipPath>
    <clipPath id="clippath-3">
      <path class="cls-2" d="m141.12,171.84l11.82.17c.11,0,.22.03.32.07s.19.11.27.19.14.17.19.27.07.21.08.32l.28,9.79c0,.11-.02.22-.06.32s-.1.19-.18.26-.16.14-.26.18-.21.06-.32.06l-1.22-.03v.45c.02.11,0,.22-.05.32s-.1.19-.17.26-.16.14-.26.18-.2.06-.32.06h-.48l.02.68c0,.11-.02.22-.06.32s-.1.19-.18.27-.16.14-.26.18-.2.06-.31.06l-5.06-.12c-.11,0-.22-.03-.32-.08s-.19-.11-.27-.19-.14-.17-.19-.27-.07-.21-.08-.32l-.02-.69h-.49c-.11,0-.21-.04-.31-.09s-.19-.11-.27-.19-.14-.17-.19-.27-.07-.21-.08-.32v-.45l-1.23-.03c-.11,0-.21-.03-.31-.08s-.19-.11-.27-.19-.14-.17-.19-.27-.07-.21-.08-.32l-.32-9.7c0-.11.02-.22.06-.32s.1-.19.17-.27.16-.14.25-.18.2-.07.31-.06"/>
    </clipPath>
    <clipPath id="clippath-4">
      <path class="cls-2" d="m169.21,172.26l12.28.18c.11,0,.23.03.33.08s.2.11.28.19.15.18.2.28.08.21.08.33l.2,9.98c0,.11-.02.22-.06.32s-.11.19-.18.27-.17.14-.27.18-.21.07-.33.06l-1.28-.03v.46c0,.11,0,.22-.05.32s-.11.19-.18.27-.17.14-.27.18-.21.07-.32.06h-.51v.7c0,.11,0,.23-.05.33s-.11.19-.18.27-.17.14-.27.18-.21.06-.33.06l-5.25-.13c-.11,0-.22-.03-.33-.08s-.2-.11-.28-.19-.15-.18-.2-.28-.08-.21-.08-.33l-.02-.7h-.5c-.11,0-.22-.04-.33-.09s-.2-.11-.28-.19-.15-.17-.19-.28-.07-.21-.08-.32v-.46l-1.26-.03c-.11,0-.22-.03-.33-.08s-.2-.11-.28-.19-.15-.17-.19-.28-.07-.21-.08-.32l-.24-9.89c0-.11.02-.22.06-.32s.1-.19.18-.27.17-.14.27-.18.21-.07.32-.07"/>
    </clipPath>
    <clipPath id="clippath-5">
      <path class="cls-2" d="m198.41,172.69l12.77.19c.12,0,.24.03.34.08s.21.12.29.2.15.18.2.28.08.22.08.34l.11,10.17c0,.12-.02.23-.07.33s-.11.2-.2.27-.18.14-.29.19-.22.07-.34.06l-1.32-.03v.47c0,.12-.02.23-.07.33s-.11.2-.2.27-.18.14-.29.19-.22.07-.34.06h-.53v.71c0,.12-.02.23-.07.33s-.11.2-.19.28-.18.14-.28.19-.22.07-.34.06l-5.46-.13c-.12,0-.23-.03-.34-.08s-.2-.12-.29-.2-.15-.18-.2-.28-.08-.22-.08-.33v-.72h-.53c-.12,0-.23-.04-.34-.09s-.2-.12-.29-.2-.15-.18-.2-.28-.08-.22-.08-.33v-.47l-1.31-.03c-.12,0-.23-.03-.34-.08s-.2-.12-.29-.2-.15-.18-.2-.28-.08-.22-.08-.33l-.15-10.08c0-.12.02-.23.07-.33s.11-.2.19-.28.18-.14.28-.19.22-.07.34-.07"/>
    </clipPath>
    <clipPath id="clippath-6">
      <polygon class="cls-2" points="126.48 140.1 151.87 133.46 253.92 133.46 228.53 140.1 126.48 140.1"/>
    </clipPath>
  </defs>
  <polygon class="cls-12" points="6.07 149.59 164.63 126.97 340.09 124.23 231.09 149.33 6.07 149.59"/>
  <g>
    <path class="cls-5" d="m340.09,169.49l-109,35.09v-55.24l109.02-25.26c6.59-1.08,11.78,3.25,11.78,9.83v20.82c0,6.58-5.2,13.08-11.79,14.75h-.01,0Z"/>
    <g>
      <path class="cls-8" d="m280.81,149.17v28.02c0,.71-.37,1.39-.86,1.58-.25.1-.48.05-.66-.1-.23-.19-.38-.55-.38-1v-27.85c0-.45.15-.9.38-1.22.18-.26.41-.45.66-.5s.46.03.62.23c.15.19.25.49.25.84h-.01Z"/>
      <path class="cls-8" d="m285.68,147.9v27.66c0,.7-.38,1.38-.87,1.57-.25.1-.48.05-.66-.1-.23-.19-.38-.54-.38-.98v-27.49c0-.44.15-.88.38-1.21.18-.25.41-.44.66-.5.25-.05.46.04.62.22.16.19.25.48.25.82h0Z"/>
      <path class="cls-8" d="m290.55,146.64v27.28c0,.69-.38,1.36-.87,1.55-.25.09-.48.05-.66-.1-.23-.18-.39-.53-.39-.96v-27.11c0-.44.15-.88.39-1.19.18-.26.41-.43.66-.49.25-.05.46.03.62.22.16.18.25.46.25.81h0Z"/>
      <path class="cls-8" d="m295.41,145.39v26.86c0,.68-.38,1.34-.87,1.53-.25.09-.48.05-.66-.09-.23-.18-.39-.52-.39-.95v-26.7c0-.43.15-.86.39-1.18.18-.25.41-.42.66-.48s.46.03.62.21.25.46.25.8h0Z"/>
      <path class="cls-8" d="m300.28,144.16v26.42c0,.67-.38,1.32-.87,1.5-.25.09-.48.06-.66-.09-.23-.17-.38-.5-.38-.92v-26.26c0-.42.15-.84.38-1.16.18-.25.42-.43.67-.49.25-.05.46.03.62.21s.25.45.25.78h-.01Z"/>
      <path class="cls-8" d="m305.15,142.94v25.95c0,.66-.37,1.3-.87,1.49-.25.09-.48.06-.66-.08-.23-.17-.39-.49-.39-.91v-25.8c0-.42.15-.83.39-1.14.18-.24.41-.42.66-.47.25-.06.47.02.62.2.16.18.25.45.25.77h0Z"/>
      <path class="cls-8" d="m310.02,141.73v25.46c0,.64-.38,1.28-.87,1.46-.25.09-.48.06-.66-.07-.23-.17-.39-.49-.39-.9v-25.32c0-.41.15-.82.39-1.12h0c.18-.24.41-.41.66-.47.25-.05.46.02.62.19.16.18.25.44.25.76h0Z"/>
      <path class="cls-8" d="m314.88,140.53v24.95c0,.63-.37,1.25-.86,1.44-.25.09-.49.06-.67-.07-.23-.16-.38-.48-.38-.87v-24.81c0-.39.15-.8.38-1.1.18-.23.42-.41.67-.47.25-.05.46.02.61.18.16.17.25.43.25.74h0Z"/>
    </g>
    <g class="cls-24">
      <path class="cls-10" d="m279.67,149.58v27.91c0,.44-.15.88-.38,1.19-.23-.19-.38-.55-.38-1v-27.85c0-.45.15-.89.38-1.22.05.04.09.08.13.13.16.19.25.49.25.84Z"/>
      <path class="cls-10" d="m284.53,148.34v27.5c0,.44-.15.87-.39,1.17-.23-.19-.38-.54-.38-.98v-27.44c0-.44.15-.88.38-1.2.05.03.09.08.14.12.16.19.25.47.25.82h0Z"/>
      <path class="cls-10" d="m289.4,147.13v27.07c0,.43-.14.85-.38,1.15-.23-.18-.39-.52-.39-.96v-27.01c0-.43.15-.87.39-1.18.05.03.09.07.13.12.16.18.25.46.25.81Z"/>
      <path class="cls-10" d="m294.27,145.92v26.61c0,.42-.15.84-.38,1.14-.23-.18-.39-.52-.39-.94v-26.56c0-.43.15-.85.39-1.17.05.04.09.08.13.12.16.18.25.46.25.79h0Z"/>
      <path class="cls-10" d="m299.13,144.73v26.13c0,.41-.15.83-.38,1.11-.23-.17-.38-.5-.38-.91v-26.07c0-.42.15-.84.38-1.15.05.03.09.07.14.12.16.17.25.44.25.78h-.01Z"/>
      <path class="cls-10" d="m304,143.54v25.62c0,.41-.15.81-.38,1.1-.23-.17-.39-.49-.39-.91v-25.57c0-.42.15-.83.39-1.13.05.03.09.07.13.11.16.18.25.44.25.77h0Z"/>
      <path class="cls-10" d="m308.87,142.36v25.1c0,.4-.15.8-.38,1.09-.23-.17-.39-.48-.39-.89v-25.05c0-.41.15-.81.39-1.11h0s.09.07.13.11c.16.17.25.43.25.75Z"/>
      <path class="cls-10" d="m313.73,141.2v24.56c0,.39-.15.78-.39,1.06-.23-.16-.38-.47-.38-.86v-24.51c0-.39.15-.79.38-1.08.05.03.09.07.14.1.16.17.25.42.25.73Z"/>
    </g>
    <path class="cls-8" d="m272.37,185.15l-2.11,4.45-.21.07.39-1.75-1.39.29-5.78,1.89c.34-1.03.55-1.96.55-1.96l8.54-2.99h0Z"/>
    <path class="cls-9" d="m270.44,187.91l-.39,1.75-4.71,1.63-3.15,1.09c.3-.36.58-.92.81-1.51.11-.26.2-.52.28-.78l5.78-1.89,1.39-.29h-.01Z"/>
    <path class="cls-8" d="m334.94,164.36l-2.11,4.45-.21.07.39-1.75-1.39.29-5.78,1.89c.34-1.03.55-1.96.55-1.96l8.54-2.99h0Z"/>
    <path class="cls-9" d="m333.01,167.12l-.39,1.75-4.71,1.63-3.15,1.09c.3-.36.58-.92.81-1.51.11-.26.2-.52.28-.78l5.78-1.89,1.39-.29h-.01Z"/>
  </g>
  <g class="cls-1">
    <g>
      <path class="cls-6" d="m.59,157.23l2.48,31.98c.08,1.03.34,2.02.75,2.93s.96,1.73,1.61,2.43,1.42,1.27,2.24,1.68c.82.41,1.72.65,2.65.68l219.37,7.72c1.26.04,2.45-.16,3.55-.56s2.08-1.02,2.91-1.78,1.51-1.69,1.97-2.73c.47-1.04.73-2.19.72-3.4v-4.18c0,1.22-.26,2.37-.73,3.41s-1.14,1.97-1.98,2.74-1.82,1.38-2.92,1.79-2.29.62-3.55.58l-219.62-7.14h-.08c-.91-.03-1.8-.27-2.62-.67s-1.57-.97-2.22-1.67-1.19-1.51-1.6-2.41-.66-1.89-.74-2.91l-2.21-28.47"/>
      <path class="cls-12" d="m66.69,187.18c-.41,0-.8-.11-1.16-.28s-.69-.41-.97-.7-.52-.64-.69-1.02-.28-.8-.3-1.24.03-.85.16-1.23.32-.71.57-1,.55-.51.9-.66.73-.23,1.13-.22.8.11,1.17.28.69.41.98.7.52.64.69,1.03.28.81.3,1.25-.03.86-.16,1.23-.33.71-.58.99-.56.5-.9.66-.73.23-1.14.22m-10.83-.24c-.41,0-.8-.11-1.16-.28s-.69-.41-.97-.71-.52-.64-.69-1.03-.28-.81-.31-1.25.03-.86.15-1.24.32-.72.57-1,.55-.51.89-.67.72-.24,1.13-.23.8.11,1.16.28.7.41.98.71.52.65.69,1.03.28.81.31,1.25-.03.86-.16,1.24-.32.72-.57,1-.55.51-.9.66-.72.23-1.13.22m-10.77-1.21c-.39,0-.77-.11-1.13-.27s-.67-.4-.95-.69-.51-.63-.68-1.01-.27-.79-.3-1.22.03-.84.15-1.21.31-.7.55-.98.53-.5.86-.65.7-.23,1.1-.22.78.1,1.13.27.68.4.96.69.51.63.68,1.01.28.79.3,1.22-.03.84-.15,1.22-.31.7-.55.98-.54.5-.87.65-.7.23-1.1.22m40.44.68c-.19,0-.37-.05-.53-.13s-.31-.19-.44-.32-.23-.29-.3-.46-.12-.35-.13-.54l-.76-14.88c-.01-.2.02-.39.08-.56s.15-.32.27-.45.26-.23.41-.3.33-.11.51-.1l17.64.23c.19,0,.38.05.55.13s.32.19.45.32.24.29.31.47.12.36.13.55l.68,15.09c0,.2-.02.39-.08.56s-.15.32-.27.45-.26.23-.42.29-.34.1-.54.1l-17.55-.45m25.82.67c-.2,0-.38-.05-.55-.13s-.32-.19-.45-.33-.24-.29-.31-.47-.12-.36-.13-.55l-.65-15.15c0-.21.02-.4.09-.57s.16-.33.29-.46.27-.23.43-.3.34-.11.52-.1l18.31.24c.2,0,.4.05.57.13s.33.19.47.33.24.3.32.48.12.37.13.56l.56,15.37c0,.21-.02.4-.09.58s-.16.33-.28.46-.27.23-.44.3-.36.1-.56.1l-18.21-.47m26.8.69c-.2,0-.4-.05-.57-.13s-.33-.2-.47-.33-.24-.3-.32-.48-.12-.37-.13-.56l-.53-15.43c0-.21.03-.41.1-.58s.17-.34.3-.47.28-.24.45-.31.36-.11.55-.11l19,.25c.21,0,.41.05.59.13s.34.2.48.34.25.3.33.48.12.38.13.58l.43,15.67c0,.21-.03.41-.1.59s-.17.33-.3.46-.28.23-.46.3-.37.1-.58.1l-18.9-.49m27.82.72c-.21,0-.41-.05-.59-.14s-.34-.2-.48-.34-.25-.31-.33-.49-.12-.37-.13-.57l-.4-15.73c0-.21.03-.41.11-.6s.18-.34.32-.48.29-.24.47-.31.37-.11.57-.11l19.75.26c.22,0,.42.05.61.13s.36.2.5.34.26.31.34.49.13.38.13.59l.29,15.97c0,.21-.03.42-.11.6s-.18.34-.32.47-.3.24-.48.31-.39.11-.6.1l-19.64-.51m28.9.75c-.22,0-.43-.06-.62-.14s-.36-.2-.5-.35-.26-.31-.34-.49-.12-.38-.13-.58l-.26-16.03c0-.22.04-.42.12-.61s.19-.35.33-.48.31-.25.49-.32.38-.11.59-.11l20.54.27c.23,0,.44.05.64.14s.37.2.51.35.26.32.34.5.13.39.13.6l.14,16.28c0,.22-.04.42-.12.61s-.19.35-.33.48-.31.24-.5.31-.4.11-.63.1l-20.42-.53m-168.32-3.07c-.43,0-.85-.12-1.23-.3s-.74-.45-1.05-.77-.57-.7-.76-1.12-.31-.88-.35-1.37l-.89-12.5c-.03-.48.02-.94.15-1.35s.34-.79.6-1.11.59-.57.95-.75.77-.27,1.2-.27l9.76.12c.44,0,.86.11,1.26.29s.76.45,1.07.77.58.71.77,1.14.32.9.35,1.4l.83,12.65c.03.48-.03.94-.16,1.36s-.34.79-.61,1.1-.59.56-.97.73-.79.26-1.24.25l-9.71-.26m202.88-36.74l-222.67.13c-.93,0-1.81.22-2.59.61s-1.46.96-2.02,1.66-.99,1.52-1.26,2.44-.38,1.92-.3,2.97l2.21,28.47c.08,1.03.34,2.01.74,2.91s.95,1.72,1.6,2.41,1.4,1.26,2.22,1.67c.82.41,1.71.64,2.62.67h.08l219.62,7.14c1.26.04,2.46-.17,3.55-.58s2.09-1.02,2.92-1.79,1.51-1.7,1.98-2.74.73-2.19.72-3.41l-.06-33.51c0-1.24-.27-2.43-.75-3.51s-1.17-2.05-2.02-2.87-1.86-1.48-2.98-1.95-2.34-.72-3.61-.74"/>
      <path class="cls-3" d="m66.33,180.82c-.41,0-.79.07-1.13.22s-.65.38-.9.66-.45.62-.57,1-.19.79-.16,1.23.13.86.3,1.24.41.73.69,1.02.61.53.97.7.75.27,1.16.28.79-.07,1.14-.22.65-.38.9-.66.45-.62.58-.99.19-.79.16-1.23-.13-.86-.3-1.25-.41-.73-.69-1.03-.62-.54-.98-.7-.76-.27-1.17-.28"/>
      <path class="cls-3" d="m55.47,180.54c-.41,0-.79.07-1.13.23s-.64.38-.89.67-.44.62-.57,1-.18.8-.15,1.24.13.86.31,1.25.41.73.69,1.03.61.54.97.71.75.27,1.16.28.79-.07,1.13-.22.65-.38.9-.66.45-.62.57-1,.18-.8.16-1.24-.13-.87-.31-1.25-.41-.74-.69-1.03-.62-.54-.98-.71-.76-.27-1.16-.28"/>
      <path class="cls-3" d="m44.69,179.48c-.39,0-.76.07-1.1.22s-.62.37-.86.65-.43.61-.55.98-.17.78-.15,1.21.13.84.3,1.22.4.72.68,1.01.6.53.95.69.73.26,1.13.27.77-.07,1.1-.22.63-.37.87-.65.43-.61.55-.98.18-.78.15-1.22-.13-.85-.3-1.22-.4-.72-.68-1.01-.6-.53-.96-.69-.74-.26-1.13-.27"/>
      <path class="cls-3" d="m31.2,183.51c-.87-.02-1.72-.24-2.5-.61s-1.5-.9-2.11-1.55-1.13-1.41-1.51-2.25-.62-1.77-.69-2.74.04-1.89.3-2.72.67-1.59,1.2-2.21,1.17-1.14,1.91-1.48,1.56-.53,2.43-.52,1.73.22,2.52.59,1.51.9,2.14,1.55,1.14,1.42,1.52,2.28.62,1.79.69,2.77-.05,1.9-.32,2.74-.68,1.59-1.22,2.21-1.19,1.12-1.93,1.46-1.56.51-2.44.49m3.75-16.79l-9.76-.12c-.43,0-.84.09-1.2.27s-.69.43-.95.75-.47.69-.6,1.11-.19.88-.15,1.35l.89,12.5c.03.49.16.95.35,1.37s.45.8.76,1.12.66.58,1.05.77.81.29,1.23.3l9.71.26c.45,0,.86-.08,1.24-.25s.7-.42.97-.73.48-.69.61-1.1.19-.88.16-1.36l-.83-12.65c-.03-.5-.16-.97-.35-1.4s-.46-.82-.77-1.14-.68-.59-1.07-.77-.82-.29-1.26-.29"/>
      <path class="cls-11" d="m96.92,171.19l2.07.03c.1,0,.2.03.3.07s.18.11.25.18.14.17.18.26.07.2.08.31l.44,9.43c0,.11-.01.21-.05.31s-.09.18-.16.26-.15.13-.24.17-.19.06-.29.06l-1.14-.03.02.43c0,.11-.01.21-.05.31s-.09.18-.16.25-.15.13-.24.17-.19.06-.29.06h-.46l.03.66c0,.11-.01.21-.05.31s-.09.18-.16.26-.15.13-.24.17-.19.06-.29.06l-4.69-.12c-.1,0-.2-.03-.29-.07s-.18-.11-.25-.18-.14-.17-.18-.26-.07-.2-.08-.31l-.03-.67h-.45c-.1,0-.2-.04-.29-.08s-.18-.11-.25-.18-.14-.16-.18-.26-.07-.2-.08-.31l-.02-.43-1.12-.03c-.1,0-.2-.03-.29-.07s-.18-.11-.25-.18-.14-.16-.18-.26-.07-.2-.08-.31l-.47-9.35c0-.11.01-.21.05-.31s.09-.18.15-.26.15-.13.23-.17.19-.06.29-.06l2.58.04h.96l1.7.04h.97l1.71.04h.98m5.35-2.28l-17.64-.23c-.18,0-.35.03-.51.1s-.3.17-.41.3-.21.28-.27.45-.09.36-.08.56l.76,14.88c0,.19.06.37.13.54s.18.33.3.46.28.24.44.32.35.12.53.13l17.55.45c.19,0,.37-.03.54-.1s.3-.17.42-.29.21-.28.27-.45.09-.36.08-.56l-.68-15.09c0-.19-.05-.38-.13-.55s-.18-.33-.31-.47-.28-.25-.45-.32-.35-.12-.55-.13"/>
      <path class="cls-16" d="m98.98,171.22l-2.07-.03.17,3.61c0,.07,0,.14-.03.2s-.05.12-.1.16-.09.08-.15.11-.12.04-.19.04-.13-.02-.19-.04-.11-.07-.16-.11-.08-.1-.11-.16-.04-.13-.05-.2l-.17-3.61-1.71-.03.17,3.6c0,.07,0,.14-.03.2s-.05.12-.1.16-.09.08-.15.11-.12.04-.19.04-.13-.02-.19-.04-.11-.07-.16-.11-.08-.1-.11-.16-.04-.13-.05-.2l-.17-3.6-1.7-.03.18,3.6c0,.07,0,.14-.03.2s-.05.12-.1.16-.09.08-.15.11-.12.04-.19.04-.13-.02-.19-.04-.11-.07-.16-.11-.08-.1-.11-.16-.04-.13-.05-.2l-.18-3.59-2.58-.04c-.1,0-.2.02-.29.06s-.17.1-.23.17-.12.16-.15.26-.05.2-.05.31l.47,9.35c0,.11.03.21.08.31s.11.19.18.26.16.14.25.18.19.07.29.07l1.12.03.02.43c0,.11.03.21.08.31s.11.19.18.26.16.14.25.18.19.07.29.07h.45l.03.68c0,.11.03.21.08.31s.11.19.18.26.16.14.25.18.19.07.29.07l4.69.12c.1,0,.2-.02.29-.06s.17-.1.24-.17.12-.16.16-.26.05-.2.05-.31l-.03-.67h.46c.1,0,.2,0,.29-.05s.17-.1.24-.17.12-.16.16-.25.05-.2.05-.31l-.02-.43,1.14.03c.1,0,.2-.02.29-.06s.17-.1.24-.17.12-.16.16-.26.05-.2.05-.31l-.44-9.43c0-.11-.03-.21-.08-.31s-.11-.19-.18-.26-.16-.14-.25-.18-.19-.07-.3-.07"/>
      <g class="cls-18">
        <g>
          <path class="cls-7" d="m96.92,171.19h-.98l.17,3.59c0,.07.02.14.05.2s.07.12.11.16.1.09.16.11.12.04.19.04.13,0,.19-.04.11-.06.15-.11.08-.1.1-.16.03-.13.03-.2l-.17-3.61"/>
          <path class="cls-7" d="m94.23,171.15h-.97l.17,3.59c0,.07.02.14.05.2s.07.12.11.16.1.09.16.11.12.04.19.04.13,0,.19-.04.11-.06.15-.11.07-.1.1-.16.03-.13.03-.2l-.17-3.6"/>
          <path class="cls-7" d="m91.56,171.11h-.96l.18,3.58c0,.07.02.14.05.2s.07.12.11.16.1.09.16.11.12.04.19.04.13,0,.19-.04.11-.06.15-.11.07-.1.1-.16.03-.13.03-.2l-.18-3.6"/>
        </g>
      </g>
      <path class="cls-11" d="m123.31,171.58l2.14.03c.11,0,.21.03.31.07s.19.11.26.19.14.17.19.27.07.21.08.32l.36,9.61c0,.11-.02.22-.05.31s-.1.19-.17.26-.16.13-.25.18-.2.06-.3.06l-1.18-.03.02.44c0,.11-.02.21-.05.31s-.1.19-.17.26-.16.13-.25.18-.2.06-.3.06h-.47l.03.67c0,.11-.01.22-.05.31s-.09.19-.16.26-.15.13-.25.18-.19.06-.3.06l-4.88-.12c-.1,0-.21-.03-.3-.07s-.18-.11-.26-.19-.14-.17-.18-.27-.07-.21-.08-.32l-.03-.68h-.47c-.1,0-.21-.04-.3-.09s-.18-.11-.26-.19-.14-.17-.19-.27-.07-.2-.08-.31l-.02-.44-1.16-.03c-.1,0-.21-.03-.3-.07s-.18-.11-.26-.19-.14-.17-.19-.27-.07-.2-.08-.31l-.4-9.52c0-.11.01-.21.05-.31s.09-.19.16-.26.15-.14.25-.18.19-.06.3-.06l2.68.04h1l1.77.04h1l1.77.04h1.01m5.57-2.32l-18.31-.24c-.18,0-.36.03-.52.1s-.31.17-.43.3-.22.28-.29.46-.1.37-.09.57l.65,15.15c0,.19.05.38.13.55s.18.33.31.47.28.25.45.33.36.13.55.13l18.21.47c.2,0,.39-.03.56-.1s.32-.17.44-.3.22-.28.28-.46.1-.37.09-.58l-.56-15.37c0-.2-.05-.39-.13-.56s-.19-.34-.32-.48-.29-.25-.47-.33-.37-.13-.57-.13"/>
      <path class="cls-16" d="m125.45,171.61l-2.14-.03.14,3.68c0,.07,0,.14-.03.2s-.06.12-.1.16-.1.08-.16.11-.12.04-.19.04-.14-.02-.2-.04-.12-.07-.17-.11-.09-.11-.11-.17-.04-.13-.05-.2l-.14-3.67-1.77-.03.15,3.67c0,.07,0,.14-.03.2s-.06.12-.1.16-.1.08-.15.11-.12.04-.19.04-.14-.02-.2-.04-.12-.07-.16-.11-.09-.1-.11-.17-.04-.13-.05-.2l-.15-3.67-1.77-.03.15,3.66c0,.07,0,.14-.03.2s-.06.12-.1.16-.1.08-.16.11-.13.04-.2.04-.13-.02-.2-.04-.12-.07-.16-.11-.09-.1-.11-.17-.04-.13-.05-.2l-.15-3.66-2.68-.04c-.1,0-.2.02-.3.06s-.18.1-.25.18-.13.16-.16.26-.06.2-.05.31l.4,9.52c0,.11.03.21.08.31s.11.19.19.27.16.14.26.19.2.07.3.07l1.16.03.02.44c0,.11.03.21.08.31s.11.19.19.27.16.14.26.19.2.07.3.07h.47l.03.69c0,.11.03.22.08.32s.11.19.18.27.16.14.26.19.2.07.3.07l4.88.12c.11,0,.21-.02.3-.06s.18-.1.25-.18.13-.16.16-.26.06-.2.05-.31l-.03-.68h.47c.11,0,.21,0,.3-.05s.18-.1.25-.18.13-.16.17-.26.06-.2.05-.31l-.02-.44,1.18.03c.11,0,.21-.02.3-.06s.18-.1.25-.18.13-.16.17-.26.06-.2.05-.31l-.36-9.61c0-.11-.03-.22-.08-.32s-.11-.19-.19-.27-.17-.14-.26-.19-.2-.07-.31-.07"/>
      <g class="cls-21">
        <g>
          <path class="cls-7" d="m123.31,171.58h-1.01l.14,3.66c0,.07.02.14.05.2s.07.12.11.17.1.09.17.11.13.04.2.04.13,0,.19-.04.11-.06.16-.11.08-.1.1-.16.03-.13.03-.2l-.14-3.68"/>
          <path class="cls-7" d="m120.53,171.54h-1l.15,3.65c0,.07.02.14.05.2s.07.12.11.17.1.09.16.11.13.04.2.04.13,0,.19-.04.11-.06.15-.11.08-.1.1-.16.03-.13.03-.2l-.15-3.67"/>
          <path class="cls-7" d="m117.76,171.49h-1l.15,3.65c0,.07.02.14.05.2s.07.12.11.17.1.09.16.11.13.04.2.04.14,0,.2-.04.11-.06.16-.11.08-.1.1-.16.03-.13.03-.2l-.15-3.66"/>
        </g>
      </g>
      <path class="cls-11" d="m150.71,171.98l2.23.03c.11,0,.22.03.32.07s.19.11.27.19.14.17.19.27.07.21.08.32l.28,9.79c0,.11-.02.22-.06.32s-.1.19-.18.26-.16.14-.26.18-.21.06-.32.06l-1.22-.03v.45c.02.11,0,.22-.05.32s-.1.19-.17.26-.16.14-.26.18-.2.06-.32.06h-.48l.02.68c0,.11-.02.22-.06.32s-.1.19-.18.27-.16.14-.26.18-.2.06-.31.06l-5.06-.12c-.11,0-.22-.03-.32-.08s-.19-.11-.27-.19-.14-.17-.19-.27-.07-.21-.08-.32l-.02-.69h-.49c-.11,0-.21-.04-.31-.09s-.19-.11-.27-.19-.14-.17-.19-.27-.07-.21-.08-.32v-.45l-1.23-.03c-.11,0-.21-.03-.31-.08s-.19-.11-.27-.19-.14-.17-.19-.27-.07-.21-.08-.32l-.32-9.7c0-.11.02-.22.06-.32s.1-.19.17-.27.16-.14.25-.18.2-.07.31-.06l2.78.04,1.04.02,1.83.03,1.05.02,1.84.03,1.05.02m5.81-2.37l-19-.25c-.19,0-.38.04-.55.11s-.32.18-.45.31-.23.29-.3.47-.1.37-.1.58l.53,15.43c0,.2.05.39.13.56s.19.34.32.48.29.25.47.33.37.13.57.13l18.9.49c.21,0,.41-.03.58-.1s.33-.17.46-.3.23-.29.3-.46.1-.38.1-.59l-.43-15.67c0-.2-.05-.4-.13-.58s-.19-.34-.33-.48-.3-.26-.48-.34-.38-.13-.59-.13"/>
      <path class="cls-16" d="m152.94,172.01l-2.23-.03.11,3.75c0,.07,0,.14-.03.21s-.06.12-.11.17-.1.09-.16.11-.13.04-.2.04-.14-.02-.2-.05-.12-.07-.17-.12-.09-.11-.12-.17-.05-.13-.05-.21l-.11-3.74-1.84-.03.12,3.74c0,.07,0,.14-.03.21s-.06.12-.11.17-.1.09-.16.11-.13.04-.2.04-.14-.02-.2-.05-.12-.07-.17-.12-.09-.11-.12-.17-.05-.13-.05-.21l-.12-3.74-1.83-.03.12,3.73c0,.07,0,.14-.03.21s-.06.12-.11.17-.1.09-.16.11-.13.04-.2.04-.14-.02-.21-.05-.12-.07-.17-.12-.09-.11-.12-.17-.05-.13-.05-.21l-.12-3.73-2.78-.04c-.11,0-.21.02-.31.06s-.18.1-.25.18-.13.17-.17.27-.06.21-.06.32l.32,9.7c0,.11.03.22.08.32s.11.19.19.27.17.14.27.19.2.07.31.08l1.21.03v.45c.02.11.05.22.09.32s.11.19.19.27.17.14.27.19.2.07.31.08h.49l.02.7c0,.11.03.22.08.32s.11.19.19.27.17.14.27.19.21.07.32.08l5.06.12c.11,0,.21-.02.31-.06s.19-.1.26-.18.13-.17.18-.27.06-.21.06-.32l-.02-.69h.48c.11,0,.22,0,.32-.05s.19-.1.26-.18.13-.17.17-.26.06-.21.06-.32v-.45l1.21.03c.11,0,.22-.02.32-.06s.19-.1.26-.18.13-.17.18-.26.06-.21.06-.32l-.28-9.79c0-.11-.03-.22-.08-.32s-.11-.19-.19-.27-.17-.14-.27-.19-.21-.07-.32-.07"/>
      <g class="cls-20">
        <g>
          <path class="cls-7" d="m150.71,171.98l-1.05-.02.11,3.74c0,.07.02.14.05.21s.07.12.12.17.11.09.17.12.13.04.2.05.14,0,.2-.04.12-.06.16-.11.08-.1.11-.17.04-.13.03-.21l-.11-3.75"/>
          <path class="cls-7" d="m147.82,171.94l-1.05-.02.12,3.74c0,.07.02.14.05.21s.07.12.12.17.11.09.17.12.13.04.2.05.14,0,.2-.04.12-.06.16-.11.08-.1.11-.17.04-.13.03-.21l-.12-3.74"/>
          <path class="cls-7" d="m144.94,171.9l-1.04-.02.12,3.73c0,.07.02.14.05.21s.07.12.12.17.11.09.17.12.13.04.21.05.14,0,.2-.04.12-.06.16-.11.08-.1.11-.17.04-.13.03-.21l-.12-3.73"/>
        </g>
      </g>
      <path class="cls-11" d="m179.18,172.4l2.32.03c.11,0,.23.03.33.08s.2.11.28.19.15.18.2.28.08.21.08.33l.2,9.98c0,.11-.02.22-.06.32s-.11.19-.18.27-.17.14-.27.18-.21.07-.33.06l-1.28-.03v.46c0,.11,0,.22-.05.32s-.11.19-.18.27-.17.14-.27.18-.21.07-.32.06h-.51v.7c0,.11,0,.23-.05.33s-.11.19-.18.27-.17.14-.27.18-.21.06-.33.06l-5.25-.13c-.11,0-.22-.03-.33-.08s-.2-.11-.28-.19-.15-.18-.2-.28-.08-.21-.08-.33l-.02-.7h-.5c-.11,0-.22-.04-.33-.09s-.2-.11-.28-.19-.15-.17-.19-.28-.07-.21-.08-.32v-.46l-1.26-.03c-.11,0-.22-.03-.33-.08s-.2-.11-.28-.19-.15-.17-.19-.28-.07-.21-.08-.32l-.24-9.89c0-.11.02-.22.06-.32s.1-.19.18-.27.17-.14.27-.18.21-.07.32-.07l2.89.04,1.08.02,1.91.03,1.09.02,1.91.03,1.09.02m6.06-2.42l-19.75-.26c-.2,0-.39.04-.57.11s-.34.18-.47.31-.24.29-.32.48-.11.38-.11.6l.4,15.73c0,.2.05.39.13.57s.19.34.33.49.3.26.48.34.38.13.59.14l19.64.51c.22,0,.42-.03.6-.1s.35-.18.48-.31.24-.29.32-.47.11-.38.11-.6l-.29-15.97c0-.2-.05-.4-.13-.59s-.2-.35-.34-.49-.31-.26-.5-.34-.39-.13-.61-.13"/>
      <path class="cls-16" d="m181.49,172.44l-2.32-.03.08,3.82c0,.07,0,.15-.04.21s-.06.12-.11.17-.11.09-.17.11-.14.04-.21.04-.15-.02-.21-.05-.12-.07-.17-.12-.09-.11-.12-.17-.05-.14-.05-.21l-.08-3.82-1.91-.03.08,3.81c0,.07,0,.15-.04.21s-.06.12-.11.17-.11.09-.17.11-.13.04-.21.04-.15-.02-.21-.05-.13-.07-.18-.12-.09-.11-.12-.17-.05-.14-.05-.21l-.08-3.81-1.91-.03.09,3.8c0,.07,0,.15-.04.21s-.06.12-.11.17-.1.09-.17.11-.13.04-.21.04-.15-.02-.21-.05-.12-.07-.17-.12-.09-.11-.12-.17-.05-.14-.05-.21l-.09-3.8-2.89-.04c-.11,0-.22.02-.32.07s-.19.11-.27.18-.14.17-.18.27-.06.21-.06.32l.24,9.89c0,.11.03.22.08.32s.11.2.19.28.17.15.28.19.21.07.33.08l1.25.03v.46c0,.11.04.22.09.32s.11.2.19.28.17.15.28.19.21.07.33.08h.5l.02.72c0,.11.03.23.08.33s.11.2.2.28.18.15.28.19.21.08.33.08l5.25.13c.11,0,.23-.02.33-.06s.19-.1.27-.18.14-.17.18-.27.07-.21.06-.33v-.71h.5c.11,0,.22,0,.32-.05s.19-.1.27-.18.14-.17.18-.27.07-.21.06-.32v-.46l1.27.03c.11,0,.22-.02.33-.06s.19-.11.27-.18.14-.17.18-.27.07-.21.06-.32l-.2-9.98c0-.11-.03-.23-.08-.33s-.11-.2-.2-.28-.18-.15-.28-.19-.22-.07-.33-.08"/>
      <g class="cls-19">
        <g>
          <path class="cls-7" d="m179.18,172.4l-1.09-.02.08,3.82c0,.07.02.15.05.21s.07.12.12.17.11.09.17.12.14.05.21.05.15,0,.21-.04.12-.07.17-.11.09-.11.11-.17.04-.14.04-.21l-.08-3.82"/>
          <path class="cls-7" d="m176.17,172.36l-1.09-.02.08,3.81c0,.07.02.15.05.21s.07.12.12.17.11.09.18.12.14.05.21.05.15,0,.21-.04.12-.06.17-.11.09-.11.11-.17.04-.14.04-.21l-.08-3.81"/>
          <path class="cls-7" d="m173.18,172.31l-1.08-.02.09,3.8c0,.07.02.15.05.21s.07.12.12.17.11.09.17.12.14.04.21.05.14,0,.21-.04.12-.06.17-.11.09-.11.11-.17.04-.14.04-.21l-.09-3.8"/>
        </g>
      </g>
      <path class="cls-11" d="m208.77,172.84l2.41.04c.12,0,.24.03.34.08s.21.12.29.2.15.18.2.28.08.22.08.34l.11,10.17c0,.12-.02.23-.07.33s-.11.2-.2.27-.18.14-.29.19-.22.07-.34.06l-1.32-.03v.47c0,.12-.02.23-.07.33s-.11.2-.2.27-.18.14-.29.19-.22.07-.34.06h-.53v.71c0,.12-.02.23-.07.33s-.11.2-.19.28-.18.14-.28.19-.22.07-.34.06l-5.46-.13c-.12,0-.23-.03-.34-.08s-.2-.12-.29-.2-.15-.18-.2-.28-.08-.22-.08-.33v-.72h-.53c-.12,0-.23-.04-.34-.09s-.2-.12-.29-.2-.15-.18-.2-.28-.08-.22-.08-.33v-.47l-1.31-.03c-.12,0-.23-.03-.34-.08s-.2-.12-.29-.2-.15-.18-.2-.28-.08-.22-.08-.33l-.15-10.08c0-.12.02-.23.07-.33s.11-.2.19-.28.18-.14.28-.19.22-.07.34-.07l3.01.04,1.13.02,1.98.03,1.12.02,1.99.03,1.14.02m6.33-2.46l-20.54-.27c-.21,0-.41.04-.59.11s-.35.18-.49.32-.26.3-.33.48-.12.39-.12.61l.26,16.03c0,.2.05.4.13.58s.19.35.34.49.31.26.5.35.4.13.62.14l20.42.53c.23,0,.44-.03.63-.1s.36-.18.5-.31.26-.3.33-.48.12-.39.12-.61l-.14-16.28c0-.21-.05-.41-.13-.6s-.2-.36-.34-.5-.32-.27-.51-.35-.41-.13-.64-.14"/>
      <path class="cls-16" d="m211.18,172.88l-2.41-.04.04,3.89c0,.08,0,.15-.04.21s-.07.12-.12.17-.11.09-.18.12-.14.04-.22.04-.15-.02-.22-.05-.13-.07-.18-.12-.09-.11-.12-.18-.05-.14-.05-.22l-.05-3.89-1.99-.03.05,3.89c0,.08,0,.15-.04.21s-.07.12-.12.17-.11.09-.18.12-.14.04-.22.04-.15-.02-.22-.05-.13-.07-.18-.12-.09-.11-.12-.18-.05-.14-.05-.22l-.05-3.88-1.98-.03.05,3.88c0,.08,0,.15-.04.21s-.07.12-.12.17-.11.09-.18.12-.14.04-.22.04-.15-.02-.22-.05-.13-.07-.18-.12-.09-.11-.12-.18-.05-.14-.05-.22l-.05-3.88-3.01-.04c-.12,0-.23.02-.34.07s-.2.11-.28.19-.15.17-.19.28-.07.21-.07.33l.15,10.08c0,.11.03.23.08.33s.12.2.2.28.18.15.29.2.22.08.34.08l1.3.03v.47c0,.11.04.23.08.33s.12.2.2.28.18.15.29.2.22.08.34.08h.52v.73c0,.12.03.23.08.33s.12.2.2.28.18.15.29.2.22.08.34.08l5.46.13c.12,0,.23-.02.34-.06s.2-.11.28-.19.15-.17.19-.28.07-.22.07-.33v-.72h.52c.12,0,.23,0,.34-.05s.2-.11.29-.19.15-.17.2-.27.07-.21.07-.33v-.47l1.32.03c.12,0,.23-.02.34-.06s.2-.11.29-.19.15-.17.2-.27.07-.21.07-.33l-.11-10.17c0-.12-.03-.23-.08-.34s-.12-.2-.2-.28-.18-.15-.29-.2-.22-.08-.34-.08"/>
      <g class="cls-23">
        <g>
          <path class="cls-7" d="m208.77,172.84l-1.14-.02.05,3.89c0,.08.02.15.05.22s.07.13.12.18.11.09.18.12.14.05.22.05.15,0,.22-.04.13-.07.18-.12.09-.11.12-.17.04-.14.04-.21l-.04-3.89"/>
          <path class="cls-7" d="m205.65,172.79l-1.12-.02.05,3.88c0,.08.02.15.05.22s.07.13.12.18.11.09.18.12.14.05.22.05.15,0,.22-.04.13-.07.18-.12.09-.11.12-.17.04-.14.04-.21l-.05-3.89"/>
          <path class="cls-7" d="m202.54,172.75l-1.13-.02.05,3.88c0,.08.02.15.05.22s.07.13.12.18.11.09.18.12.14.05.22.05.15,0,.22-.04.13-.07.18-.12.09-.11.12-.17.04-.14.04-.21l-.05-3.88"/>
        </g>
      </g>
      <path class="cls-14" d="m30.86,178.54c-.26,0-.5-.07-.73-.18s-.44-.26-.62-.45-.33-.41-.44-.66-.18-.52-.2-.8.01-.55.09-.8.2-.46.35-.65.34-.33.56-.43.46-.15.71-.15.51.07.74.17.44.26.62.45.33.41.44.66.18.52.2.81,0,.55-.09.8-.2.46-.36.65-.35.33-.56.43-.46.15-.71.15m-.62-9.12c-.88,0-1.7.17-2.43.52s-1.38.85-1.91,1.48-.94,1.38-1.2,2.21-.37,1.76-.3,2.72.31,1.89.69,2.74.89,1.61,1.51,2.25,1.33,1.17,2.11,1.55,1.63.59,2.5.61c.87.02,1.7-.15,2.44-.49s1.39-.84,1.93-1.46.95-1.37,1.22-2.21c.27-.84.39-1.76.32-2.74s-.31-1.91-.69-2.77-.9-1.63-1.52-2.28-1.35-1.18-2.14-1.55-1.64-.58-2.52-.59"/>
      <path class="cls-3" d="m30.57,174.42c-.26,0-.5.05-.71.15s-.4.25-.56.43-.27.4-.35.65-.11.51-.09.8.09.55.2.8.26.47.44.66.39.34.62.45.48.17.73.18.5-.05.71-.15.41-.25.56-.43.28-.4.36-.65.11-.51.09-.8-.09-.56-.2-.81-.26-.47-.44-.66-.39-.34-.62-.45-.48-.17-.74-.17"/>
    </g>
  </g>
  <g class="cls-22">
    <g>
      <path class="cls-15" d="m158.33,137.18c-.61,0-1.36.05-1.85.13-.5.08-.64.16-.35.21.07,0,.07.02,0,.04-.38.1-.75.19-1.12.29-.18.05-.15.09.09.1h.23c.38,0,.86-.04,1.1-.1.39-.1.76-.2,1.13-.29.06-.02.15-.03.31-.04.71-.05,1.21-.14,1.32-.22.1-.08-.24-.13-.85-.13m6.01-1.58h-.05c-1.47,0-3.4.18-4.22.38-.78.2-1.52.4-2.29.59h-.02,5.71c.8-.21,1.62-.41,2.35-.62.75-.21.06-.37-1.49-.37m-16.34,2.77c-1.54,0-2.14-.18-1.33-.39,1.26-.33,2.53-.66,3.81-1,.57-.15,1.51-.26,2.74-.34.57-.04,1.12-.05,1.65-.05l.1-.03c.72-.19,1.45-.38,2.16-.56,1.34-.36,4.25-.67,7.1-.77.36,0,.72-.02,1.06-.03h1.37c2.63.05,3.49.39,1.99.78l-2.16.56-.13.03h.09c1.55,0,2.07.18,1.24.4l-3.8.99c-.81.21-2.77.39-4.31.39h-11.58m24.55-4.91c-.36,0-.76,0-1.18.04-7.61.47-14.88.82-22.23,1.06-1,.03-2.04.14-2.52.27l-5.22,1.36c-5.57,1.46-4.38,2.42-2.41,2.97,2.28.64,6.21.93,8.15.93s8.15-.3,15.3-.93c6.2-.55,14.76-1.52,20.33-2.97l5.22-1.36c.48-.13.29-.24-.45-.27-5.27-.23-10.28-.61-14.1-1.06-.22-.03-.53-.04-.88-.04"/>
      <path class="cls-12" d="m155.33,137.97h-.23c-.24,0-.27-.05-.09-.1.37-.1.74-.19,1.12-.29.08-.02.07-.03,0-.04-.3-.05-.16-.13.35-.21.5-.08,1.24-.13,1.85-.13s.95.05.85.13-.61.16-1.32.22c-.17,0-.25.03-.31.04-.37.1-.74.2-1.13.29-.24.06-.72.1-1.1.1m2.44-1.39h.02c.77-.21,1.51-.41,2.29-.61.81-.21,2.75-.38,4.22-.38h.05c1.55,0,2.24.16,1.49.37-.74.21-1.56.41-2.35.62h-5.71m8.78-1.39h-1.26c-.35,0-.71.02-1.06.03-2.85.1-5.75.41-7.1.77-.71.19-1.43.38-2.16.56l-.1.03c-.54,0-1.08.02-1.65.05-1.22.08-2.16.19-2.74.34-1.28.33-2.55.66-3.81,1-.81.21-.21.39,1.33.39h11.58c1.54,0,3.5-.18,4.31-.39l3.8-.99c.83-.22.31-.39-1.24-.4h-.09s.09-.03.13-.04l2.16-.56c1.5-.39.64-.73-1.99-.78h-.11"/>
      <path class="cls-4" d="m191.31,137.86h-1.76l-4.77.67.31-.67h-1.75l-.09.02h.5c.08,0,.12.02.11.03,0,.02-.07.04-.21.08l-2.14.56c-.18.05-.33.08-.46.09-.2.02-.42.03-.68.03h-.21l-.09.02h2.15l.09-.02h-.22c-.24,0-.39,0-.43-.03-.03,0,.04-.04.25-.1l2.18-.57-.35.72h.15l5.14-.72-2.18.57c-.18.05-.33.08-.46.09-.19.02-.41.03-.68.03h-.21l-.09.02h2.63l.09-.02h-.21c-.25,0-.39,0-.43-.03-.04,0,.04-.04.24-.1l2.14-.56c.18-.05.34-.08.45-.09.2-.02.43-.03.69-.03h.21l.09-.02"/>
      <path class="cls-4" d="m194.4,137.86h-2.65l-.09.02h.21c.15,0,.28,0,.36.02.07,0,.1.02.09.03s-.11.04-.27.09l-2.11.55c-.2.05-.35.08-.47.1-.2.02-.42.03-.68.03h-.21l-.09.02h2.65l.09-.02h-.59c-.07,0-.09-.02-.09-.03,0,0,.11-.04.27-.09l2.11-.55c.19-.05.35-.08.48-.1.2-.02.42-.03.67-.03h.22l.09-.02m-.48-.22c-.14,0-.29,0-.43.02-.15,0-.26.03-.33.05s-.09.04-.05.05c.05,0,.14.02.28.02s.27,0,.43-.02c.15,0,.26-.03.33-.05s.09-.04.04-.05c-.05,0-.14-.02-.27-.02"/>
      <path class="cls-4" d="m201.25,137.86h-2.16l-.09.02h.21c.25,0,.4,0,.44.03.03,0-.05.05-.25.1l-1.89.49-1.34-.64h-1.68l-.09.02h.38c.15,0,.25.02.31.03.06,0,.12.03.18.06l-2.27.59c-.18.05-.33.08-.45.09-.2.02-.42.03-.69.03h-.21l-.09.02h2.15l.09-.02h-.21c-.25,0-.39,0-.44-.03-.03,0,.05-.04.25-.1l2.01-.53,1.46.69h.16l2.76-.72c.18-.05.34-.08.45-.09.2-.02.42-.03.68-.03h.22l.09-.02"/>
      <path class="cls-4" d="m204.27,137.86h-2.65l-.09.02h.21c.15,0,.27,0,.36.02.07,0,.1.02.09.03s-.11.04-.27.09l-2.11.55c-.2.05-.35.08-.48.1-.19.02-.42.03-.67.03h-.21l-.09.02h2.65l.09-.02h-.59c-.07,0-.09-.02-.09-.03,0,0,.11-.04.27-.09l2.11-.55c.19-.05.35-.08.48-.1.19-.02.42-.03.67-.03h.23l.09-.02m-.49-.22c-.14,0-.28,0-.43.02-.15,0-.26.03-.33.05s-.09.04-.05.05c.05,0,.14.02.27.02.14,0,.28,0,.43-.02.15,0,.26-.03.33-.05s.09-.04.04-.05c-.05,0-.14-.02-.28-.02"/>
      <path class="cls-4" d="m212.07,137.86h-5.05l-.84.2h.17c.16-.04.35-.07.55-.09.2-.02.39-.04.58-.05h1.39l-2.5.65c-.18.05-.33.08-.45.09-.2.02-.42.03-.68.03h-.22l-.09.02h2.63l.09-.02h-.22c-.24,0-.38,0-.43-.03-.03,0,.05-.04.25-.1l2.5-.65h.87c.25,0,.44,0,.54.02.11,0,.17.03.18.05,0,.02-.05.04-.15.08h.17l.7-.2"/>
      <path class="cls-4" d="m219,137.86h-2.16l-.09.02h.23c.23,0,.38,0,.43.03.03,0-.05.05-.25.1l-1.33.35c-.35.09-.65.15-.91.19-.27.04-.61.07-1.02.09-.41.03-.83.04-1.23.04-.32,0-.55,0-.7-.02-.16-.02-.26-.04-.27-.06-.03-.02.02-.06.14-.1.12-.04.25-.08.37-.11l1.43-.37c.18-.05.34-.08.47-.09.2-.02.42-.03.67-.03h.24l.09-.02h-2.67l-.09.02h.23c.23,0,.38,0,.42.02s-.03.05-.24.1l-1.28.33c-.39.1-.61.17-.66.21-.07.05.02.1.25.13s.67.05,1.36.05c.62,0,1.17-.02,1.66-.05s.89-.07,1.19-.12c.31-.05.62-.11.95-.2l1.33-.35c.18-.05.33-.08.44-.09.24-.03.49-.04.72-.04h.21l.09-.02m-3.01-.22c-.14,0-.28,0-.43.02-.15,0-.26.03-.33.05s-.09.04-.04.05c.05,0,.14.02.28.02.13,0,.27,0,.42-.02.15,0,.26-.03.34-.05s.09-.04.05-.05c-.05,0-.14-.02-.28-.02m1.61,0c-.14,0-.28,0-.43.02-.16,0-.27.03-.34.05s-.09.04-.03.05c.05,0,.14.02.27.02s.28,0,.43-.02c.15,0,.26-.03.33-.05s.09-.04.05-.05c-.05,0-.14-.02-.27-.02"/>
      <path class="cls-4" d="m225.75,137.86h-2.15l-.09.02h.21c.25,0,.39,0,.43.03.04,0-.05.05-.25.1l-1.89.49-1.33-.64h-1.68l-.09.02h.38c.15,0,.26.02.31.03.06,0,.12.03.19.06l-2.27.59c-.18.05-.33.08-.46.09-.19.02-.42.03-.68.03h-.21l-.09.02h2.15l.09-.02h-.22c-.24,0-.38,0-.43-.03-.03,0,.05-.04.25-.1l2.01-.53,1.45.69h.17l2.76-.72c.18-.05.33-.08.45-.09.19-.02.42-.03.68-.03h.21l.09-.02"/>
      <path class="cls-4" d="m230.85,137.86h-4.78l-.09.02h.22c.25,0,.41,0,.45.03.03,0-.06.05-.26.1l-2.12.55c-.16.04-.29.07-.37.08-.08,0-.19.02-.31.03h-.69l-.09.02h4.78l1.35-.21h-.18c-.4.05-.74.09-1.03.12-.22.02-.43.03-.61.04h-2.17l-.05-.02s.08-.03.22-.07l1.08-.28h1.89c.09,0,.14.02.14.03s-.07.04-.18.08h.17l1.14-.3h-.17c-.21.05-.43.08-.66.1-.17,0-.43.02-.79.02h-1.36l1.29-.34h2.31c.12,0,.18.02.19.04.02.02-.03.05-.14.09h.17l.65-.19"/>
      <path class="cls-4" d="m234.58,137.86h-2.8l-.09.02h.23c.23,0,.37,0,.42.03.04,0-.05.05-.25.1l-2.11.55c-.19.05-.33.08-.45.09-.2.02-.43.04-.69.04h-.23l-.09.02h4.79l1.41-.23h-.13c-.36.05-.67.09-.92.11-.26.03-.49.04-.72.05h-2.2l-.09-.02s.07-.04.21-.07l2.05-.54c.19-.05.34-.08.44-.1.1,0,.24-.03.4-.03h.74l.09-.02"/>
      <path class="cls-15" d="m218.17,135.47h-3.58c-.1,0-.23,0-.28.03l-.1.03c-.05,0-.02.03.08.03h.53l.06.02s-.23.07-.3.09l-2.55.67c-.06.02-.26.07-.37.09l-.21.02h-.64c-.1,0-.22,0-.28.03l-.1.03c-.05,0-.02.03.09.03h5.95c.1,0,.21,0,.27-.02l1.61-.35.03-.02h-.32c-.09,0-.19,0-.25.02-.33.06-.73.12-1.14.17-.26.03-.55.06-.85.08-.31.02-.62.03-.89.03h-1.07l-.06-.02s.22-.07.3-.09l2.47-.65c.06-.02.27-.07.36-.08l.22-.02h.71c.1,0,.24,0,.29-.03l.1-.03c.05,0,0-.03-.09-.03m3.55.98c-.45,0-.69-.02-.74-.08-.11-.1.39-.25.84-.37.39-.1.93-.23,1.61-.32.53-.07,1.11-.13,1.73-.13.29,0,.49,0,.63.04.16.03.14.08.08.13-.12.08-.54.2-.88.29s-.75.18-1.25.27c-.32.05-.71.11-1.15.14-.3.02-.6.03-.86.03m3.91-.99h-.32c-.97,0-2,.05-3.06.15-1.16.11-2,.24-2.57.39-.51.13-.73.26-.57.36.2.14.99.2,2.2.2s2.49-.06,3.74-.2c.94-.11,1.64-.22,2.13-.35.57-.15.76-.28.45-.39-.29-.1-1-.15-2.01-.15m11.2,0h-.17c-.08,0-.18,0-.25.02-.08,0-.24.04-.35.05h-.16c-.09,0-.32,0-.4-.02-.18,0-.39-.03-.6-.04h-.9c-1.1,0-2.26.05-3.45.17-1.19.11-2.07.25-2.66.4-.32.08-.53.17-.56.24-.03.06.05.11.21.15.17.04.43.08.76.11.39.03.95.04,1.5.04.5,0,1.02,0,1.57-.02.54-.02,1.08-.04,1.63-.07l.19-.02.8-.21s.19-.05.26-.06c.07,0,.15-.02.25-.03h.49c.1,0,.21,0,.26-.03l.1-.03c.05,0,.02-.03-.09-.03h-3.26c-.1,0-.23,0-.29.03l-.1.03c-.05,0,0,.03.09.03h.45l.06.02s-.16.05-.21.07l-.73.19c-.15,0-.3,0-.44.02h-.48c-.4,0-.72,0-.92-.05-.21-.04-.2-.09-.09-.15.14-.08.41-.17.73-.25.29-.08.65-.15,1.08-.23.35-.06.78-.12,1.28-.17.47-.04.92-.06,1.35-.06.5,0,.85.03,1.07.07.26.05.26.13.14.21,0,0,.03.02.11.02h.17c.1,0,.23,0,.28-.03l1.36-.36c.05,0,0-.03-.08-.03"/>
      <path class="cls-15" d="m216.08,134.84h-.36c-1.04.03-1.95.14-2.84.24l-15.58,1.77c-.39.04-1.05.09-1.47.1-.45,0-.79.07-.92.1h4.8s.56-.08-.56-.14h-.14l6.86-.78.94.78c-1.61.06-1.66.14-1.66.14h4.99c.08-.03.19-.09-.17-.1-.41-.02-.68-.08-.69-.08l-1.22-.99,8.88-1s-.24-.05-.86-.05m-10.24-.02c-.7,0-1.46.07-1.46.07l1.13.95,2.18-.25-.78-.63c-.13-.11-.59-.14-1.07-.14"/>
      <path class="cls-4" d="m215.19,136.67h-1.81l-.08.02c.29,0,.32,0,.07.06l-1.13.23c-.24.05-.3.05-.64.06l-.07.02h1.09l.08-.02c-.33,0-.36,0-.12-.06l.51-.1h.49c.28,0,.26,0,.12.05h.12l.6-.12h-.12c-.25.04-.31.05-.59.05h-.49l.66-.13c.08-.02.1-.02.21-.02h.42c.22,0,.26,0,.23.02,0,0-.05.03-.09.04h.14c.12-.03.31-.07.4-.09"/>
      <path class="cls-4" d="m216.13,136.79c-.22,0-.44.02-.68.02h-.06c.13,0,.14.03.02.06l-.58.12c-.2.04-.24.04-.51.05l-.07.02h.87l.08-.02c-.24,0-.25,0-.05-.05l.63-.13c.12-.02.24-.05.36-.07m.42-.12c-.11,0-.27,0-.36.03s-.05.03.05.03c.12,0,.28,0,.36-.03.09-.02.06-.03-.05-.03"/>
      <path class="cls-4" d="m217.89,136.79c-.24,0-.45.02-.67.02h-.08c.21.02.22.02.03.06l-.6.12c-.19.04-.22.04-.49.04l-.07.02h.91l.07-.02c-.28,0-.29,0-.1-.04l.54-.11c.23-.03.46-.05.55-.05h.1l.1.02c.09,0,.22-.02.29-.03.07,0,.06-.03-.09-.03-.2,0-.53.03-.82.06.1-.02.22-.04.32-.06"/>
      <path class="cls-4" d="m219.3,136.88c.29-.05.59-.07.77-.07.21,0,.22.03.06.06h-.83m.97-.09c-.21,0-.5.02-.8.04-.29.03-.57.06-.76.1-.33.07-.33.12.15.12.13,0,.45,0,.93-.05h0c-.24,0-.43.02-.6.02-.28,0-.45-.03-.05-.11h1.1c.07,0,.11,0,.17-.02.23-.05.19-.09-.15-.09"/>
      <path class="cls-4" d="m224.44,136.79h-.73l-.07.02c.23,0,.25,0,.05.04-.29.04-.69.1-.95.13.15-.06.29-.12.45-.18h-.1c-.47.06-.93.12-1.38.18.12-.04.25-.09.38-.13.08-.03.1-.03.37-.04l.07-.02h-.82l-.07.02c.17,0,.19,0,.11.04-.18.07-.37.14-.57.2h.12c.47-.06.97-.13,1.38-.18-.14.06-.28.12-.43.18h.13c.54-.08,1.13-.15,1.47-.2.24-.03.31-.04.53-.04l.07-.02"/>
      <path class="cls-4" d="m224.78,137.02c-.13,0-.21,0-.06-.04.11-.02.25-.03.46-.04.12,0,.36-.02.48-.02-.14.03-.31.06-.45.09-.14,0-.33.02-.43.02m1.25-.23c-.26,0-.6.03-.78.04-.12,0-.2,0-.24.02-.07,0-.03.03.05.03h.19c.12-.03.2-.04.29-.05h.24c.21,0,.23.02.03.06h-.06c-.14.02-.51.04-.81.05-.27,0-.47.03-.61.06-.18.04-.15.07.13.07.13,0,.42-.02.65-.04l-.03.03h.13l.47-.02.04-.02h-.17c-.07,0-.1,0,.03-.03l.55-.11c.15-.03.19-.05.14-.07-.04,0-.14-.02-.25-.02"/>
      <path class="cls-4" d="m229.02,136.63c-.16,0-.44.02-.68.02l-.07.02c.15,0,.17,0,.06.04l-1.37.27c-.19.04-.23.04-.51.04l-.08.02h.87l.08-.02c-.24,0-.25,0-.06-.04l1.35-.27c.13-.03.28-.05.41-.08"/>
      <path class="cls-4" d="m230.76,136.63c-.16,0-.45.02-.69.02l-.07.02c.15,0,.17,0,.06.04l-1.37.27c-.19.04-.23.04-.51.04l-.08.02h.88l.07-.02c-.16,0-.18,0-.06-.04l1.36-.27c.13-.03.27-.05.41-.08"/>
    </g>
  </g>
  <g id="LkVIwE" class="cls-25">
    <g>
      <path class="cls-15" d="m307.49,50.97c5.7-2.76,11.64-4.8,17.88-5.94,8.48-1.54,16.95-1.49,25.41.22,10.53,2.13,20.03,6.5,28.46,13.13,7.85,6.18,13.99,13.77,18.49,22.68.04.08.05.17.05.16-4.63,2.3-9.23,4.59-13.88,6.9-6.49-12.5-16.38-21.37-29.9-25.91-13.49-4.53-26.7-3.43-39.59,2.68-.17-.31-.33-.6-.48-.9-1.99-4-3.98-8.01-5.97-12.01-.15-.29-.36-.56-.54-.83l.06-.18h.01Z"/>
      <path class="cls-15" d="m376.01,92.11c-4.64,2.31-9.23,4.59-13.81,6.88-6.81-13.97-24.4-18.81-36.85-12.4-2.29-4.61-4.57-9.22-6.86-13.83,20.38-10.62,47.21-2.08,57.51,19.35h0Z"/>
      <path class="cls-15" d="m353.22,103.53c-5.24,2.6-10.44,5.19-15.53,7.72-2.57-5.19-5.16-10.41-7.75-15.64,6.85-4.08,18.72-1.58,23.28,7.92Z"/>
    </g>
    <g>
      <path class="cls-13" d="m307.49,50.97c5.7-2.76,11.64-4.8,17.88-5.94,8.48-1.54,16.95-1.49,25.41.22,10.53,2.13,20.03,6.5,28.46,13.13,7.85,6.18,13.99,13.77,18.49,22.68.04.08.05.17.05.16-4.63,2.3-9.23,4.59-13.88,6.9-6.49-12.5-16.38-21.37-29.9-25.91-13.49-4.53-26.7-3.43-39.59,2.68-.17-.31-.33-.6-.48-.9-1.99-4-3.98-8.01-5.97-12.01-.15-.29-.36-.56-.54-.83l.06-.18h.01Z"/>
      <path class="cls-13" d="m376.01,92.11c-4.64,2.31-9.23,4.59-13.81,6.88-6.81-13.97-24.4-18.81-36.85-12.4-2.29-4.61-4.57-9.22-6.86-13.83,20.38-10.62,47.21-2.08,57.51,19.35h0Z"/>
      <path class="cls-13" d="m353.22,103.53c-5.24,2.6-10.44,5.19-15.53,7.72-2.57-5.19-5.16-10.41-7.75-15.64,6.85-4.08,18.72-1.58,23.28,7.92Z"/>
    </g>
  </g>
  <g id="LkVIwE-2">
    <g>
      <path class="cls-15" d="m176.96,24.89c6.94-6.06,14.5-11.22,22.81-15.2,11.32-5.43,23.23-8.6,35.76-9.46,15.6-1.05,30.6,1.42,44.99,7.5,13.39,5.65,24.92,13.96,34.67,24.73.08.09.14.22.13.2-5.61,5.01-11.19,9.98-16.83,15.01-13.91-15.04-31.21-23.7-51.92-24.88-20.67-1.17-38.8,5.44-54.53,18.96-.35-.38-.7-.72-1.03-1.08-4.33-4.85-8.65-9.72-13-14.56-.32-.35-.72-.64-1.08-.96l.02-.27h0Z"/>
      <path class="cls-15" d="m288.94,56.31c-5.63,5.03-11.18,9.99-16.74,14.96-14.93-17-41.48-17.03-56.49-3.24-4.98-5.59-9.95-11.18-14.94-16.78,24.52-22.74,65.46-21.06,88.16,5.06h0Z"/>
      <path class="cls-15" d="m261.33,81.09c-6.35,5.67-12.66,11.29-18.83,16.8-5.6-6.3-11.24-12.62-16.89-18.97,8.04-8.36,25.67-9.41,35.72,2.17h0Z"/>
    </g>
    <g>
      <path class="cls-13" d="m176.96,24.89c6.94-6.06,14.5-11.22,22.81-15.2,11.32-5.43,23.23-8.6,35.76-9.46,15.6-1.05,30.6,1.42,44.99,7.5,13.39,5.65,24.92,13.96,34.67,24.73.08.09.14.22.13.2-5.61,5.01-11.19,9.98-16.83,15.01-13.91-15.04-31.21-23.7-51.92-24.88-20.67-1.17-38.8,5.44-54.53,18.96-.35-.38-.7-.72-1.03-1.08-4.33-4.85-8.65-9.72-13-14.56-.32-.35-.72-.64-1.08-.96l.02-.27h0Z"/>
      <path class="cls-13" d="m288.94,56.31c-5.63,5.03-11.18,9.99-16.74,14.96-14.93-17-41.48-17.03-56.49-3.24-4.98-5.59-9.95-11.18-14.94-16.78,24.52-22.74,65.46-21.06,88.16,5.06h0Z"/>
      <path class="cls-13" d="m261.33,81.09c-6.35,5.67-12.66,11.29-18.83,16.8-5.6-6.3-11.24-12.62-16.89-18.97,8.04-8.36,25.67-9.41,35.72,2.17h0Z"/>
    </g>
  </g>
  <g id="LkVIwE-3" class="cls-17">
    <g>
      <path class="cls-15" d="m190.29,62.58c-3.76-1.82-7.67-3.16-11.78-3.91-5.59-1.02-11.17-.98-16.74.14-6.94,1.4-13.19,4.28-18.75,8.65-5.17,4.07-9.21,9.07-12.18,14.94-.03.05-.04.11-.03.11,3.05,1.51,6.08,3.02,9.14,4.54,4.28-8.23,10.79-14.08,19.7-17.07,8.89-2.98,17.59-2.26,26.08,1.76.11-.21.22-.4.32-.59,1.31-2.64,2.62-5.28,3.93-7.91.1-.19.24-.37.35-.55l-.04-.12h0Z"/>
      <path class="cls-15" d="m145.15,89.68c3.06,1.52,6.08,3.03,9.1,4.53,4.49-9.2,16.07-12.39,24.28-8.17,1.51-3.04,3.01-6.07,4.52-9.11-13.43-7-31.1-1.37-37.89,12.75h-.01Z"/>
      <path class="cls-15" d="m160.16,97.2c3.45,1.72,6.88,3.42,10.23,5.08,1.7-3.42,3.4-6.86,5.11-10.3-4.51-2.69-12.33-1.04-15.34,5.22Z"/>
    </g>
    <g>
      <path class="cls-13" d="m190.29,62.58c-3.76-1.82-7.67-3.16-11.78-3.91-5.59-1.02-11.17-.98-16.74.14-6.94,1.4-13.19,4.28-18.75,8.65-5.17,4.07-9.21,9.07-12.18,14.94-.03.05-.04.11-.03.11,3.05,1.51,6.08,3.02,9.14,4.54,4.28-8.23,10.79-14.08,19.7-17.07,8.89-2.98,17.59-2.26,26.08,1.76.11-.21.22-.4.32-.59,1.31-2.64,2.62-5.28,3.93-7.91.1-.19.24-.37.35-.55l-.04-.12h0Z"/>
      <path class="cls-13" d="m145.15,89.68c3.06,1.52,6.08,3.03,9.1,4.53,4.49-9.2,16.07-12.39,24.28-8.17,1.51-3.04,3.01-6.07,4.52-9.11-13.43-7-31.1-1.37-37.89,12.75h-.01Z"/>
      <path class="cls-13" d="m160.16,97.2c3.45,1.72,6.88,3.42,10.23,5.08,1.7-3.42,3.4-6.86,5.11-10.3-4.51-2.69-12.33-1.04-15.34,5.22Z"/>
    </g>
  </g>
</svg>