<?xml version="1.0" encoding="utf-8"?>
<!-- Generator: Adobe Illustrator 27.9.0, SVG Export Plug-In . SVG Version: 6.00 Build 0)  -->
<svg version="1.1" id="Layer_1" xmlns="http://www.w3.org/2000/svg" xmlns:xlink="http://www.w3.org/1999/xlink" x="0px" y="0px"
	 viewBox="0 0 1111.5 900.2" style="enable-background:new 0 0 1111.5 900.2;" xml:space="preserve">
<g>
	<g>
		<path d="M1111.5,230.4c-59.5,73.6-31.3,57.6-107,3.8c-49.2-37.2-101.7-69-158.2-94c-5.1-2.2-5.8-4.6-4.3-9.8
			c6.5-21.9,11.8-43.6,18.3-65.6c91.1,40.8,184.1,89.9,251.2,164.5L1111.5,230.4L1111.5,230.4z"/>
		<path d="M833,33.8C774,255.1,710.9,475.7,649.3,696.4c-3.4,12.1-2.5,23.2,3.1,34.7C721,867.9,513.9,972.4,444.1,837.2
			c-44.3-89.3,25.6-174.3,106.6-171.1c9.5,0,14.6-3.8,18.2-12.4c86.8-207,174-413.9,262.2-620.2C831.8,33.6,832.4,33.7,833,33.8
			L833,33.8z M598.2,781.5c-2.4-65.4-102.7-62.6-100.5,3.5C502,850.9,599,847.3,598.2,781.5z"/>
		<path d="M0,227.5C204,34.3,515.2-56.7,785.4,37.3c5.1,1.6,6.5,3.4,4.2,8.6c-8.3,18.8-16.2,37.8-24,56.8c-1.8,4.4-4.1,5.2-8.6,3.8
			c-242.2-81.6-510.5,2.1-697.8,166.9c-12.6,10.1-16.7,9.6-26.4-3.1C21.8,255.5,9.8,243.4,0,227.5L0,227.5z"/>
		<path d="M153,443.1c104.8-105.5,252-163.2,399.7-171.5c42.2,0.1,84,9.1,125.2,17.4c7.6,1.5,7.6,1.8,4.5,9.1
			c-8,19.1-16.2,38.2-24,57.4c-1.6,4-3.5,4.8-7.6,3.8c-50.7-12.9-103-15.4-154.5-6.4c-108,15.6-208.9,67-289.4,140.1
			c-7,6.4-10,5.9-16-1.5C178.4,475.2,163.9,460.8,153,443.1L153,443.1z"/>
		<path d="M378.4,666.9c-13-16.1-27.9-34.7-41.7-51.5c-12.8-21.6,107.5-96.1,130.8-98.5c33-11.4,66.2-21.7,101.6-18.4
			c5.5,0,3.5,3.5,2.4,6.2c-6.3,15.2-12.7,30.3-19.1,45.5c-4.1,7.6-5,19.9-14.2,23.1C473,583.7,424.4,622,378.4,666.9L378.4,666.9z"
			/>
		<path d="M767,399.1c6.3-22.8,12.5-45.3,18.5-67.8c1.3-4.9,4-4.1,7.1-2.6c55.9,25.8,107.5,59.7,154,100.1c6.5,5.9,16.8,13.1,8.1,22
			c-11.2,13.8-22.3,27.6-33.5,41.3c-5.5,6.8-8.7,7.3-15.2,1.4C864.4,455,817.5,424.7,767,399.1L767,399.1z"/>
		<path d="M710.4,548.9c23.6,16,42.8,34.4,63,54c5.7,5.5,5.7,8.1,1.1,14c-14.2,17-27,35.3-42.1,51.5c-13-14.4-27.2-27-41-40.6
			c-1.4-1.4-2.6-4.3-2.1-6C696.4,597.4,701.6,572.8,710.4,548.9L710.4,548.9z"/>
	</g>
</g>
</svg>
