<?xml version="1.0" encoding="utf-8"?>
<!-- Generator: Adobe Illustrator 27.8.1, SVG Export Plug-In . SVG Version: 6.00 Build 0)  -->
<svg version="1.1" id="katman_1" xmlns="http://www.w3.org/2000/svg" xmlns:xlink="http://www.w3.org/1999/xlink" x="0px" y="0px"
	 viewBox="0 0 276.7 243.8" style="enable-background:new 0 0 276.7 243.8;" xml:space="preserve">
<style type="text/css">
	.st0{fill:#666666;}
</style>
<path class="st0" d="M195.5,241.8c-82.5,0-172-0.2-176.5-0.8c-8.9-2.4-14.5-8.2-17-17.6v-57.3c2.6-9.5,8.2-15.2,17.2-17.6
	c2.3-0.6,4.7-0.7,7-0.7c0.7,0,1.3,0,2,0c0.7,0,1.4,0,2.1,0c0,0,2.4,0,3.4,0l4.8,0c1,0,2,0,3,0c1.7,0,3.3,0,4.2-1.3
	c0.9-1.3,0.2-2.7-0.4-4.3c-4.3-10.1-21.5-50.3-25.8-60.3l-5.9-13.7c-3.4-8-6.9-16-10.3-24c-0.9-2.1-1-4.2-0.3-5.9
	c0.6-1.5,1.7-2.6,3.3-3.3c0.9-0.4,1.8-0.6,2.6-0.6c2.6,0,4.8,1.7,6.1,4.7c14.6,34.1,29.3,68.3,43.9,102.4c0.1,0.2,0.2,0.5,0.3,0.7
	c0.2,0.4,0.3,0.7,0.4,1c1,4,4.2,4.5,6.5,4.5c30.7,0,60.8-0.1,88.8-0.1l49.2,0c0.7,0,1.4,0,2.2,0c0.7,0,1.4,0,2.1,0
	c1,0,1.8,0,2.6,0.1c0.2,0,0.3,0,0.5,0c3.3,0,4.6-2.1,5.3-3.7c7.1-16.8,14.4-33.8,21.5-50.2l7.1-16.5c2-4.7,4-9.4,6-14.1
	c3.4-8,6.9-16.1,10.3-24.1c1.3-3,3.5-4.7,6.1-4.7c0.9,0,1.8,0.2,2.6,0.6c1.6,0.7,2.7,1.8,3.3,3.3c0.7,1.7,0.6,3.8-0.3,5.9
	c-13.9,32.5-27.8,65-41.7,97.5c-0.9,2-1.4,3.4-0.6,4.7c0.8,1.3,2.3,1.3,4.5,1.4c0.8,0,1.6,0,2.3,0c1.6,0,3.2,0,4.8-0.1
	c1.6,0,3.2-0.1,4.7-0.1c3.3,0,5.9,0.2,8.3,0.5c11,1.7,18.9,10.9,19,22c0.1,16.2,0.1,32.6,0,48.8c0,12.4-9.5,22.1-22,22.6
	C251.8,241.7,229.1,241.8,195.5,241.8z M25.1,160.7c-1.6,0-3.5,0.1-5.4,1.1c-3.6,2-5.3,5.3-5.3,10.2v44.5c0,8.7,3.5,12.2,12.2,12.2
	h116.5l0,0h107.8c6.9,0,11.1-4,11.1-10.6c0.1-15.6,0.1-31.4,0-47c0-6.4-4.1-10.4-10.7-10.4c-3,0-6,0-9,0c-3,0-15,0-18,0L25.1,160.7z
	"/>
<path class="st0" d="M218.7,48c-1.9,0-3.8-0.8-5.3-2.3C197,29.8,177.9,20,156.5,16.5c-6.5-1-12.9-1.6-19.1-1.6
	c-24.7,0-47.5,8.4-67.7,24.9c-1.6,1.3-3.1,2.7-4.6,4.1c-0.8,0.7-1.5,1.4-2.3,2.1c-1.4,1.3-3.2,2-5,2c-1.7,0-3.3-0.7-4.4-1.8
	c-2.6-2.7-2.4-6.6,0.4-9.3C73.7,17.6,97.2,6.2,124,3c5.2-0.6,9.9-0.9,15.2-1c31.9,0.5,59.9,12.1,83.1,34.5c3.1,3,3.4,6.8,0.7,9.7
	C221.9,47.4,220.3,48,218.7,48z"/>
<path class="st0" d="M81.1,71c-0.3,0-0.6,0-0.9-0.1c-2.8-0.4-4.6-1.8-5.3-4.3c-0.8-2.7-0.2-5,1.8-6.9c8.3-8.1,17.7-14.4,27.9-18.6
	c10.4-4.3,21.4-6.5,33.7-6.8l0.2,0c23.7,0.6,44.1,9,60.9,25.2c2.1,2.1,2.8,4.3,1.9,7.1c-0.7,2.3-2.3,3.7-5.1,4.2
	c-0.4,0.1-0.7,0.1-1.1,0.1c-1.7,0-3.4-0.9-5.4-2.8c-9.4-9.1-20.1-15.3-32-18.2c-7.1-1.8-14.1-2.7-20.8-2.7c-18.6,0-35.6,7-50.5,20.7
	C84.8,69.8,83.1,71,81.1,71z"/>
<path class="st0" d="M172.5,93.9c-1.8,0-3.5-0.8-5.5-2.7c-5.7-5.5-12.4-9-19.8-10.5c-3.2-0.6-6.4-1-9.5-1c-10.4,0-19.8,3.7-28,11.1
	c-1.7,1.6-3.2,2.8-5.1,3c-0.3,0-0.5,0-0.8,0c-2.4,0-4.5-1.3-5.6-3.5c-1.4-2.8-0.9-5.3,1.4-7.5c8-7.9,17.6-12.9,28.6-15
	c3.5-0.7,6.8-1,10.2-1c14.9,0.4,27.8,5.7,38.2,15.7c2.1,2.1,2.8,4.1,2.2,6.6c-0.7,2.5-2.3,4.1-4.8,4.7
	C173.5,93.8,173,93.9,172.5,93.9z"/>
<path class="st0" d="M149.6,116.8c-1.2,0-2.4-0.4-3.6-1.1c-0.3-0.2-0.6-0.4-0.9-0.7c-0.2-0.2-0.5-0.4-0.8-0.6
	c-2-1.5-4.2-2.3-6.3-2.3c-2.2,0-4.3,0.8-6.3,2.4c-2,1.6-3.4,2.3-5,2.3c-0.2,0-0.4,0-0.6,0c-2.7-0.3-4.5-1.6-5.3-3.9
	c-0.9-2.6-0.5-4.8,1.3-6.8c3.7-4.2,9.6-6.6,16-6.6c6.5,0,12.3,2.4,16,6.7c1.2,1.4,1.7,2.8,1.7,3.4c0,3.4-1,5.3-3.2,6.5
	C151.7,116.5,150.6,116.8,149.6,116.8z"/>
<path class="st0" d="M47.9,209.3c-3.5,0-6.2-2.7-6.2-6.3c-0.1-5.2-0.1-10.5,0-16.4c0.1-3.6,2.7-6.3,6.2-6.4l0.1,0
	c3.5,0,6.1,2.8,6.2,6.4c0,2,0,4,0,5.9c0,0.8,0,2.8,0,2.8l0,0c0,0.7,0,1.4,0,2.1c0,1.8,0,3.6,0,5.4C54.1,206.6,51.4,209.3,47.9,209.3
	L47.9,209.3z"/>
<path class="st0" d="M68.1,209.3c-2,0-3.4-1.5-3.4-3.5c0-1.9,1.5-3.4,3.4-3.4h0c2,0,3.4,1.5,3.5,3.6l0,0
	C71.3,207.9,69.9,209.3,68.1,209.3L68.1,209.3z"/>
<path class="st0" d="M83.5,209.3c-2,0-3.4-1.5-3.4-3.5c0-1.9,1.5-3.4,3.4-3.4h0c2,0,3.4,1.5,3.5,3.6l0,0
	C86.7,207.9,85.3,209.3,83.5,209.3L83.5,209.3z"/>
<path class="st0" d="M98.8,209.3c-2,0-3.4-1.5-3.4-3.5c0-1.9,1.5-3.4,3.4-3.4h0c2,0,3.4,1.5,3.5,3.6l0,0
	C102.1,207.9,100.7,209.3,98.8,209.3L98.8,209.3z"/>
<path class="st0" d="M235.4,209.3c-3.5,0-6.2-2.7-6.2-6.3c-0.1-5.4-0.1-10.9,0-16.4c0.1-3.6,2.7-6.3,6.2-6.4h0
	c3.6,0,6.2,2.8,6.3,6.5c0,2,0,4.1,0,6.1l0,3l0,0c0,0.5,0,1.1,0,1.6c0,1.8,0,3.7,0,5.5C241.6,206.6,238.9,209.3,235.4,209.3
	L235.4,209.3z"/>
<path class="st0" d="M209.1,209.3c-3.5,0-6.2-2.7-6.2-6.3c-0.1-5.4-0.1-10.9,0-16.4c0.1-3.6,2.7-6.3,6.2-6.4c0,0,0,0,0,0
	c3.6,0,6.2,2.8,6.3,6.5c0,2,0,4.1,0,6l0,3.1l0,0c0,0.5,0,1.1,0,1.6c0,1.8,0,3.7,0,5.5C215.3,206.6,212.6,209.3,209.1,209.3
	L209.1,209.3z"/>
<path class="st0" d="M182.9,209.3c-3.5,0-6.2-2.7-6.2-6.3c-0.1-5.4-0.1-10.9,0-16.4c0.1-3.6,2.7-6.3,6.2-6.4h0
	c3.6,0,6.2,2.8,6.3,6.5c0,2,0,4.1,0,6l0,3l0,0c0,0.6,0,1.1,0,1.7c0,1.8,0,3.7,0,5.5C189,206.6,186.4,209.3,182.9,209.3L182.9,209.3z
	"/>
<path class="st0" d="M156.6,209.3c-3.5,0-6.2-2.7-6.2-6.3c-0.1-5.4-0.1-10.9,0-16.4c0.1-3.6,2.7-6.3,6.2-6.4h0
	c3.6,0,6.2,2.8,6.3,6.5c0,2,0,4.1,0,6l0,3l0,0c0,0.6,0,1.1,0,1.7c0,1.8,0,3.7,0,5.5C162.8,206.6,160.1,209.3,156.6,209.3
	L156.6,209.3z"/>
<path class="st0" d="M130.4,209.3c-3.5,0-6.2-2.7-6.2-6.3c-0.1-5.4-0.1-10.9,0-16.4c0.1-3.6,2.7-6.3,6.2-6.4c0,0,0,0,0,0
	c3.6,0,6.2,2.8,6.3,6.5c0,2,0,4.1,0,6l0,3.1l0,0c0,0.6,0,1.1,0,1.7c0,1.8,0,3.7,0,5.5C136.5,206.6,133.8,209.3,130.4,209.3
	L130.4,209.3z"/>
</svg>
