<?xml version="1.0" encoding="utf-8"?>
<!-- Generator: Adobe Illustrator 27.9.0, SVG Export Plug-In . SVG Version: 6.00 Build 0)  -->
<svg version="1.1" id="katman_1" xmlns="http://www.w3.org/2000/svg" xmlns:xlink="http://www.w3.org/1999/xlink" x="0px" y="0px"
	 viewBox="0 0 1689.2 210.3" style="enable-background:new 0 0 1689.2 210.3;" xml:space="preserve">
<style type="text/css">
	.st0{opacity:0.18;fill:#1B1464;enable-background:new    ;}
	.st1{fill:#FBFCFE;}
	.st2{fill:#DDEAF1;}
	.st3{opacity:0.66;}
	.st4{fill:#A5C7D3;}
	.st5{fill:#F9FBFE;}
	.st6{opacity:0.14;fill:#0071BC;enable-background:new    ;}
	.st7{opacity:0.69;}
	.st8{fill:#B3B3B3;}
	.st9{fill:#FFFFFF;}
	.st10{fill:#EDF5F9;}
	.st11{fill:#D71E16;}
	.st12{fill:#E20E17;}
	.st13{fill:#C1272D;}
	.st14{fill:#333132;}
	.st15{fill:#010101;}
	.st16{fill:#0C8236;}
	.st17{fill:#F1E519;}
	.st18{clip-path:url(#SVGID_00000139294835657236509630000005751260075895176836_);}
	.st19{fill:#C69C6D;}
	.st20{clip-path:url(#SVGID_00000023985303317788822010000008223660565659701433_);}
	.st21{clip-path:url(#SVGID_00000118380278274942598780000014298120037306412441_);}
	.st22{clip-path:url(#SVGID_00000106864804382085667400000006922775249624410765_);}
	.st23{clip-path:url(#SVGID_00000137812014508756060750000015302704948938250123_);}
	.st24{clip-path:url(#SVGID_00000047038786803295498890000006059155522595991203_);}
	.st25{clip-path:url(#SVGID_00000062157376869203027530000002293769788512174245_);}
	.st26{fill:#A9AFB1;}
	.st27{fill:#B7B7B7;}
	.st28{fill:#878787;}
	.st29{fill:none;}
</style>
<g>
	<g>
		<path class="st0" d="M1689.2,113.5c-76.7,17.7-381.5,96.1-403.9,96.7C1484.7,115.5,1464.8,109.5,1689.2,113.5z"/>
		<g>
			<path class="st1" d="M1617.3,2c-7,1.5-298.5,63.6-305.3,65.1l-28.4,0.3L0,80.3C364.9,2.8,1238.4-5,1617.3,2z"/>
			<g>
				<path class="st2" d="M1299.3,189c0-3.8,4.5-3.8,4.4,0C1303.8,192.8,1299.2,192.8,1299.3,189z"/>
				<path class="st2" d="M1301.5,86.1c0-3.8,4.5-3.8,4.5,0S1301.5,89.9,1301.5,86.1z"/>
				<path class="st2" d="M1305,130.7c2.9-0.1,2.9,5.9,0,5.9S1302.1,130.7,1305,130.7z"/>
				<path class="st2" d="M1623.4,13.6c-5.6,126.7,29.6,98.4-85.1,129.8c-75,18.9-179,49.4-254.8,66.9V65.6
					c5.9,0.8,314.7-61.5,328.9-63.6C1618.7,1.8,1623.5,6.7,1623.4,13.6z"/>
				<g class="st3">
					<path class="st4" d="M1390.5,120.3c0.7-2.1,5.5-2.4,4.3,0.5c-1.5,0.8-22.6,52.8-25.9,49.2c-1.1-0.1-1.6-1-1.1-2.1L1390.5,120.3
						L1390.5,120.3z"/>
					<path class="st4" d="M1393.7,113.4c-1,0.8-2.7,1-3.2,0.1l-22.7-36c-1.2-2,3.1-4.5,4.3-2.5l22.7,35.8
						C1395.3,111.6,1394.8,112.7,1393.7,113.4L1393.7,113.4L1393.7,113.4z"/>
					<path class="st4" d="M1413.9,118.2c0.7-2,5.4-2.5,4.3,0.4c-1.6,1.3-17.2,38.8-20.5,36.9c-1.2,0.1-2-0.8-1.4-2.1L1413.9,118.2
						L1413.9,118.2z"/>
					<path class="st4" d="M1397.3,74.8c1.1-0.7,2.7-0.8,3.2,0.1l17.6,26.1c1.2,1.8-3.2,4.4-4.3,2.6l-17.6-26.3
						C1395.8,76.6,1396.3,75.4,1397.3,74.8L1397.3,74.8z"/>
					<path class="st4" d="M1418.7,112.1c-7.8,0.7,1.5-8.9,3-3.2C1421.8,110.2,1420.4,111.6,1418.7,112.1z"/>
					<path class="st4" d="M1438.6,107.7c0.7-1.9,5.4-2.4,4.3,0.4c-1.4,1-22.7,48.5-25.6,46C1410.7,156.8,1439.7,107.9,1438.6,107.7
						L1438.6,107.7L1438.6,107.7z"/>
					<path class="st4" d="M1441.8,101.3c-1,0.8-2.7,1-3.2,0.1l-22.7-32.9c-1.2-2,3.2-4.2,4.3-2.4l22.7,32.7
						C1443.4,99.6,1442.9,100.7,1441.8,101.3L1441.8,101.3L1441.8,101.3z"/>
					<path class="st4" d="M1461.9,105.3c0.6-1.8,5.4-2.4,4.3,0.3c-1.3,0.9-17.9,37-20.5,34.4c-1.2,0.1-2-0.7-1.4-1.9L1461.9,105.3
						C1461.9,105.3,1461.9,105.3,1461.9,105.3z"/>
					<path class="st4" d="M1445.4,65.7c1.1-0.7,2.7-0.8,3.2,0.1l17.6,23.7c1.2,1.8-3.3,4.1-4.3,2.5l-17.5-24
						C1443.9,67.3,1444.3,66.2,1445.4,65.7L1445.4,65.7z"/>
					<path class="st4" d="M1554.7,76.8c1-0.7,2.7-0.9,3.2-0.3l22.7,22c0.7,0.5-0.4,1.7-1.4,2.2c-1.1,0.7-2.4,0.8-2.9,0.3l-22.7-22.2
						C1553.2,78.3,1553.6,77.4,1554.7,76.8L1554.7,76.8L1554.7,76.8z"/>
					<path class="st4" d="M1576.3,37.6c0.5-1.3,5.4-1.9,4.3,0.3c-1.3,0.8-23.2,37.4-25.6,34.9c-1.1,0.1-2.1-0.5-1.4-1.5
						C1553.7,71.4,1576.3,37.6,1576.3,37.6z"/>
					<path class="st4" d="M1531.3,86.1c1-0.7,2.7-1,3.2-0.3l17.6,18.1c0.7,0.6-0.3,1.8-1.4,2.3c-1.1,0.7-2.4,0.8-2.9,0.3l-17.6-18.3
						C1529.8,87.7,1530.3,86.7,1531.3,86.1L1531.3,86.1z"/>
					<path class="st4" d="M1534.6,74.2c-0.6,1.5-5.4,2.3-4.3-0.2c1.4-0.9,17.8-30.9,20.5-28.5c1.1,0,2.1,0.7,1.4,1.6L1534.6,74.2
						L1534.6,74.2z"/>
					<path class="st4" d="M1532.8,80.5c0.3,2.1-5.8,4.3-6.1,1.6C1526.4,79.9,1532.5,77.7,1532.8,80.5z"/>
					<path class="st4" d="M1506.6,89.3c1-0.7,2.7-1,3.2-0.2l22.7,25.1c0.5,0.5,0,1.5-1.1,2.2c-1,0.8-2.7,1.1-3.2,0.5l-22.7-25.3
						C1505.1,90.9,1505.5,89.9,1506.6,89.3z"/>
					<path class="st4" d="M1528.2,46.4c0.6-1.5,5.4-1.9,4.3,0.5c-1.2,0.7-23.2,40.8-25.6,38.1c-1.1,0.1-2.1-0.7-1.4-1.7
						C1505.6,83.3,1528.2,46.4,1528.2,46.4z"/>
					<path class="st4" d="M1483.3,98.9c1-0.7,2.7-1,3.2-0.2l17.6,20.5c1.2,1.6-3.3,4.1-4.3,2.7l-17.6-20.6
						C1481.7,100.6,1482.2,99.6,1483.3,98.9L1483.3,98.9L1483.3,98.9z"/>
					<path class="st4" d="M1499.8,55.9c0.6-1.6,5.4-2,4.3,0.5l-17.6,29.5c-0.5,0.9-1.8,1.5-2.9,1.4c-1.1,0-2-0.8-1.4-1.8
						L1499.8,55.9z"/>
					<path class="st4" d="M1474.2,93.3c4.4-0.9,3.4,3.6,0,4.3C1469.8,98.6,1470.8,94,1474.2,93.3z"/>
				</g>
				<path class="st5" d="M1309.7,198.9c-7.1,1.6-19.3,3.4-25.8,6.9v4.4c2.3-0.6,10.4-2.7,12.8-3.3l24.3-10.3c0.1-0.9,0.2-2,0.3-3.1
					L1309.7,198.9L1309.7,198.9L1309.7,198.9z M1315.7,66.3c-2.7-2.3-5.4-3.7-7.3-4.6l-24.9,4v1.8
					C1285.9,67.2,1314.6,67.6,1315.7,66.3L1315.7,66.3z M1305,136.6c2.9,0.1,2.9-5.9,0-5.9C1302.1,130.6,1302.1,136.6,1305,136.6z
					 M1306,86.1c0-3.8-4.5-3.8-4.5,0S1306,89.9,1306,86.1z M1299.3,189c0,3.8,4.5,3.8,4.4,0C1303.8,185.2,1299.2,185.2,1299.3,189z"
					/>
				<path class="st6" d="M1316.1,202.8l292.3-77.9c6.9-1.3,10-4.7,12.1-7.9l-299.7,80.1C1319.6,200,1319.2,201.6,1316.1,202.8
					L1316.1,202.8L1316.1,202.8z"/>
				<g>
					<path class="st4" d="M1307.2,133.6c0,3.8-4.5,3.8-4.5,0S1307.3,129.8,1307.2,133.6z"/>
					<path class="st4" d="M1303.7,189c0.1,3.8-4.5,3.8-4.4,0C1299.2,185.2,1303.8,185.2,1303.7,189z"/>
					<path class="st4" d="M1306,86.1c0,3.8-4.5,3.8-4.5,0S1306,82.3,1306,86.1z"/>
				</g>
			</g>
			<g class="st7">
				<g>
					<path class="st8" d="M1049.5,24.6c-120.2,5.7-37.4,21.6,25.8,5.9c-2.9,0-39-0.1-41.2,1.1c2,0.7,5.6-0.3,8,0.4
						c-6.3,4.4-25.8,5.4-32.6,2c7.1-7,50.2-12.1,57.1-5.6c1.9,0.1,4.1,0.2,5.9-0.2c-0.2-0.1,10.7-4,9.2-4
						C1071,25.3,1060.3,24.4,1049.5,24.6"/>
					<path class="st8" d="M928.5,36.9c-29.8-0.7,35.7-15.5,38.5-8.2C955.4,34.9,941.5,36.4,928.5,36.9 M958.8,26
						c-4.4-0.7-72.9,4.5-56.2,11C921.9,43.5,1043.5,26.4,958.8,26"/>
					<path class="st8" d="M847.1,28.3c-1.2,0-2.6,0.1-3.7,0.7c2.4,0.3,5.2-0.3,7.6,0.2v0.1c-11.8,4.2-31.9,10.1-44.1,10.4
						c2,0.5,64-0.9,66.4-0.9c0.5,0.1,15.9-4.1,16.7-4.4v-0.1l-0.1-0.1h0.1c-15.8,1.5-31.6,4.7-47.6,3.7c11.4-4.2,30.5-10,42.5-10.1
						c0.3-0.3-0.9-0.1-1.1-0.2L847.1,28.3"/>
					<path class="st8" d="M861,21.9C819.9,24.1,684.5,44.6,643.2,48c3.6-0.2,74.7-0.2,43.9-2.3l73.4-9.5l9,8.3
						c-6.1,0.5-12.3,0.3-18.1,1.9c14.7-0.5,39.4,0,53.9-1.1c-0.6-1.6-7-0.5-9-1.5c-0.3,0-0.6-0.1-0.8-0.2l-13.2-10.4L869.5,22
						C866.6,21.8,863.8,21.9,861,21.9 M760.9,23.5c-4.7,0.1-9.4,0.4-14,0.9l9.9,8.9l22.3-2.9C773,25.2,769.3,22.6,760.9,23.5"/>
				</g>
			</g>
			<g>
				<path class="st9" d="M1283.8,192.6c0-6-0.2-103.6-0.2-125.2c-14.1,0-281.8,6.2-288.2,3.7l-0.1,32.2c-9.4-10.2-22.1-4.7-29.8,4.2
					l22.8,31.4l-16.2,22.5c-8.8,1.7-9.3,12.7-10.3,19.8l33.3,0.2l-0.1,19.4v0.6l7.3,0.1c0.8-0.6-1.7-41.1,1.6-39
					c0.4,0.2,0.7,0.5,0.6,0.9l-0.1,38.1l60.5,0.7c0.5-8,6.1-15.5,14.7-14.5c8.7-0.8,14.1,6.9,14.5,14.9
					c18.5-0.7,176.1,3.9,189.8,0.4L1283.8,192.6L1283.8,192.6L1283.8,192.6z M1002.7,81.1c0-1.3,2.1-1.4,2.1,0l-0.1,32.7
					c0,0.4-0.3,0.8-0.7,0.9C1000.8,117.2,1003.4,81.3,1002.7,81.1z M976,108.1c3.6-3.6,9.5-2.2,12.2,2l13.7,18.7l-5.4,7.5L976,108.1
					L976,108.1z M1033.7,172.9c-4.6,0-14.2-0.1-18.8-0.1c-0.4-2.5,2.5-3.3,4.9-4.2l-16.9-23.4l-16.9,23c2.4,0.8,6,1.7,5.3,4.4
					c-5.9-0.1-14.8-0.1-20.7-0.1c0.2-3.3,3.9-3.1,5.9-5c1.2-0.9,38.1-52.7,39.1-53.8c2.8-5,9.1-9.8,14.6-6l-22.1,30.1
					c0.5,0.4,21.3,29.6,22,29.9c1.9,1.9,5.9,1.9,6.3,5.1h-2.7L1033.7,172.9L1033.7,172.9z M1056.2,156.5c0,0.4-0.4,0.7-0.8,0.7
					l-26.1-0.1c-0.3,0-0.6-0.1-0.7-0.4c-0.7-3.3,3.1-0.4,3.9-2.9c0.5-3.6,0.6-21.5,0.1-25.1c-0.6-1.8-3.8-0.1-3.9-1.6
					c0-0.6-0.1-1.5,0.8-1.4c0.4,0.4,17.2-0.9,16.4,0.7c0.5,2.7-3.2,0.4-4.1,2.3c-0.9,3.8-0.7,20.9-0.3,24.8l0.1-0.1
					c0,0,0.1-0.1,0.1,0c0-0.1,0.1,0,0.1,0c15.7,3.1,10.1-10.6,15.3-8.1C1057.7,145,1056.2,156.3,1056.2,156.5L1056.2,156.5
					L1056.2,156.5z M1093.9,143.6c-5.5,26.4-44.2,11.4-30.3-12C1073,116.9,1097.5,126,1093.9,143.6z M1095.4,74
					c-0.7,12.2-9.6,19.1-21.3,15.1c-7.2-2.7-8.3-11.8-8.6-18.5c5.6-0.1,24.4-0.3,30.2-0.4C1095.6,71.3,1095.6,72.6,1095.4,74
					L1095.4,74z M1131.6,144.3c-0.2,1.3-2.3,0.4-3,1.4c-1.7,1.6-0.5,7.3-1,9.3c-16.2,10.2-39.6-3.3-28.1-22.6c4.8-7.1,15-9.8,22.8-6
					c0.8,0.3,1.9,0.9,2.8,0.6v-0.2c0.4-0.4,0.5-1,0.8-1.4c0.3-0.7,2.4-0.8,2.3,0.2c-0.4,0.5,0.7,12.1-0.9,11.5
					c-3.2,0.4-2.4-10-12.9-9c-12.6,2.2-10,34.2,5,25.6l0.1-5.7c0.2-1.5-0.3-3.2-2.1-3.1c-0.7-0.1-2,0.3-1.9-0.7
					c0-0.6-0.1-1.5,0.8-1.4h14.6C1131.7,142.8,1131.6,143.7,1131.6,144.3L1131.6,144.3L1131.6,144.3z M1074.1,77.3
					c-0.6,5.9,4.6,13.8,10.3,8.1c3.1-4,2.3-10.3,2.6-15.1l-13.1,0.2C1073.9,72.4,1073.9,75.2,1074.1,77.3L1074.1,77.3z
					 M1085.5,198.1c0.2-4.8-4.4-10-9.1-6.8c-3.2,2.5-3,7.2-3.4,10.9l12.8,0.1C1085.7,201,1085.7,199.5,1085.5,198.1L1085.5,198.1z
					 M1084.1,136.8c0.3-7.5-7.5-13.7-12.2-5.6c-2.9,6.7-4.1,24.3,6.8,23C1085.2,151.5,1084.1,142.6,1084.1,136.8L1084.1,136.8
					L1084.1,136.8z M1073.8,70.6c0.4,5.4-1.2,16.3,6.5,16.8c7.8-0.6,6.2-11.4,6.6-16.9L1073.8,70.6L1073.8,70.6z M1084.2,139.1
					c-1.1-21.3-18-10.8-13.6,7.6c0.4,4.9,4.8,10.1,9.8,6.8C1084.4,150.1,1084.1,144,1084.2,139.1L1084.2,139.1L1084.2,139.1z
					 M198,192.3c0,0-5-111.5-5-111.6c0,0.1-193-0.6-193-0.4s1.1,16.1,1.1,16.3c2.4,10.3,1.3,82.3,10.7,88.7
					c-1.4,11,180.6,5.2,186.3,7.4L198,192.3 M84.2,124.5c-1-0.1-1.7-32.9-2.1-33.4c0-0.3,0.1-0.5,0.4-0.6c0.3,0,0.5,0.3,0.5,0.5
					l1.7,32.9C84.9,124.3,84.5,124.6,84.2,124.5L84.2,124.5z M190.2,122.4c3.6-0.2,2.4-5.7,2.1-8.1c-0.9-2.5-5.1-1.8-7.1-1.5
					c-2.3,0.9-1.2,4.8-1.3,6.7C183.9,122.9,187.9,122.5,190.2,122.4L190.2,122.4z M70.4,119.3c3.3,0.8,10.6,14.6,12.7,17l-3,5.5
					l-13.9-21.2C67.1,119.6,68.8,118.8,70.4,119.3C70.4,119.3,70.4,119.3,70.4,119.3z M67.3,169.1c2.9,0,8.3,0.1,11.2,0.1
					c0.2-1.8-1.9-2.7-3.6-3.2l9.6-17.2l11.6,17.5c-1.6,0.6-3.3,1.4-3,3c3.7,0,10,0,13.7,0.1c-0.3-2.4-3.1-2.6-4.5-4.1l-14.7-22.1
					l12.6-22.6c-3.8-2.9-7.4,1.1-8.8,4.5c-0.6,0.8-21.6,39.7-22.3,40.3c-1.3,1.4-3.7,1.5-3.6,3.8L67.3,169.1L67.3,169.1z
					 M190.9,136.5c4.4-0.2,3.3-6.4,2.7-9.2c-1.1-3-5.6-2.6-8.1-2c-2.7,1.2-1.7,5.2-1.7,7.5C183.8,136.6,188,136.7,190.9,136.5
					L190.9,136.5z M156.5,136.8c3.6-0.2,2.3-5.7,2-8c-0.9-2.5-5-1.9-7-1.5c-2.3,0.9-1.2,4.8-1.3,6.6
					C150.3,137.2,154.2,136.8,156.5,136.8L156.5,136.8z M179.5,148.7c3.6-0.2,2.4-5.7,2-8c-0.9-2.5-5-1.9-7.1-1.6
					c-2.3,1-1.2,4.8-1.3,6.6C173.2,149.1,177.2,148.7,179.5,148.7L179.5,148.7L179.5,148.7z M191.4,148.8c3.7-0.2,2.4-5.7,2.1-8
					c-0.9-2.5-5.1-1.9-7.1-1.6c-2.3,1-1.2,4.8-1.3,6.7C185.1,149.2,189.1,148.8,191.4,148.8L191.4,148.8L191.4,148.8z M191.5,162
					c3.6-0.1,2.4-5.7,2.1-8c-0.9-2.5-5-1.9-7.1-1.6c-2.3,1-1.2,4.8-1.3,6.6C185.2,162.4,189.2,162,191.5,162L191.5,162z M87.5,188.7
					c-0.9,0.1-1.4-25.9-1.7-26.2c0-0.2,0.2-0.4,0.4-0.4c1.2-0.2,1.4,25.9,1.8,26.3C88.1,188.7,87.8,188.8,87.5,188.7L87.5,188.7
					L87.5,188.7z M180.8,174.8c3.6-0.2,2.4-5.7,2-8c-0.9-2.5-5-1.9-7-1.6c-2.3,0.9-1.2,4.8-1.3,6.6
					C174.5,175.2,178.5,174.8,180.8,174.8L180.8,174.8z M168.8,175.2c3.6-0.2,2.4-5.6,2-7.9c-0.9-2.5-5-1.9-7-1.6
					c-2.3,0.9-1.2,4.8-1.3,6.6C162.5,175.6,166.5,175.2,168.8,175.2L168.8,175.2z M1086.9,70.4c-0.4,5.5,1.2,16.3-6.6,16.9
					c-7.7-0.5-6.1-11.4-6.5-16.8L1086.9,70.4 M186.9,126.7c-2.8,0.2-1.5,5.1-1.4,6.9c0.7,2,4.5,1.2,6,1.1c1.8-0.7,0.7-4.5,0.9-5.9
					C192.4,125.9,188.6,126.8,186.9,126.7C186.9,126.7,186.9,126.7,186.9,126.7z M1075.7,127.8c-9.3,3.5-7.2,34.1,5.6,24.9
					C1085.7,147.1,1087,125.2,1075.7,127.8z M1085.7,202.4c1.2-15.9-13.4-16-12.8-0.1L1085.7,202.4"/>
				<path class="st2" d="M1085.7,202.3l-12.8-0.1c-0.1,1.6-0.2,3.2-0.2,4.7l13,0.1C1085.8,205.5,1085.8,203.8,1085.7,202.3
					L1085.7,202.3z M1284.1,201.4c-2.3,0.5-190,1-190,1c0.2,1.6,0.4,3.1,0.4,4.7c-8.7-0.1-21.3-0.2-30-0.4c0-1.5,0.2-3.1,0.4-4.7
					l-60.5-0.7c-0.2,0.8,0.6,6.3-0.6,6.5l279.8,2.3L1284.1,201.4L1284.1,201.4L1284.1,201.4z M0,80.2c0.4,13.9,4.6,81.9,5.3,97.2
					c0.3,4.9,2.2,9.6,5.5,13.2c7.6,15.7,980.4,11.9,992.1,17.3c-1.2-0.2-0.4-5.8-0.6-6.5l-7.2-0.1v6.5l-796.7-9.5l-0.1-3
					c-99.2,1.8-145.5-2-168.8-6.1C1.5,184.2,6.6,164,0,80.2z"/>
				<path class="st10" d="M1308.4,61.7L1308.4,61.7l-24.9,5.7c-0.1,14.6,0.6,131.5,0,142.9c45.5-14,43,10.8,43.3-76.2
					c0-22.2-1.4-52.2-2.9-61.5C1322.6,64.5,1319.1,59.5,1308.4,61.7C1308.4,61.7,1308.4,61.7,1308.4,61.7z M1303.7,83.2
					c2.9-0.1,2.9,5.9,0,5.8C1300.8,89.1,1300.8,83.1,1303.7,83.2z M1301.5,191.9c-2.9,0.1-2.9-5.9,0-5.9S1304.4,192,1301.5,191.9z
					 M1305,136.6c-2.9,0.1-2.9-5.9,0-5.9S1307.9,136.6,1305,136.6z"/>
				<path class="st11" d="M97.4,119.5c-3.2,0-4.6,3.1-5.9,5.5c-0.5,0.8-21.6,39.7-22.3,40.2c-1.2,1.4-3.7,1.5-3.6,3.8
					c3.7,0,9.3,0.1,12.9,0.1c0.2-1.8-1.9-2.6-3.6-3.2l9.6-17.2l11.6,17.5c-1.6,0.6-3.3,1.4-3,3c3.7,0,10,0.1,13.7,0.1
					c-0.2-2.4-3.1-2.6-4.5-4.1l-14.7-22.1l12.6-22.6C99.5,119.9,98.5,119.5,97.4,119.5L97.4,119.5L97.4,119.5z M69.4,119.1
					c-1.2,0-2.5,0.7-3.2,1.5l13.9,21.2l3-5.5C80.4,133.5,73.9,119.1,69.4,119.1C69.4,119.1,69.4,119.1,69.4,119.1z"/>
				<path class="st12" d="M82.6,90.5c-0.3,0-0.5,0.2-0.4,0.5c0.5,0.6,0.8,33.4,2.2,33.4c1.3,0-1.7-32.9-1.2-33.5
					C83.1,90.8,82.9,90.5,82.6,90.5L82.6,90.5z"/>
				<path class="st12" d="M86.3,162.1c-1.3-0.2,1.3,25.9,0.9,26.3c0,0.2,0.3,0.4,0.5,0.4c1.3,0.2-1.3-25.9-0.9-26.3
					C86.8,162.2,86.5,162.1,86.3,162.1L86.3,162.1z"/>
				<path class="st13" d="M198.1,192.2c0,0,0.3,5.9,0.3,6.1l796.7,9.5v-7.1L198.1,192.2L198.1,192.2L198.1,192.2z"/>
				<path class="st12" d="M224.7,153.1c-1.6,0.1-5.7-0.8-5.4,2c0.3,1.4-0.5,5.2,1.4,5.9c1.5,0.1,5.4,0.9,6-1.1
					C226.7,158.1,227.5,153.3,224.7,153.1L224.7,153.1L224.7,153.1z M248.5,139.9c-1.6,0.1-5.7-0.8-5.5,2.1c0.3,1.5-0.5,5.3,1.4,5.9
					c1.5,0.1,5.5,0.9,6.1-1.1C250.5,144.9,251.4,140,248.5,139.9L248.5,139.9z M223.5,126.1c-1.6,0.2-5.7-0.8-5.4,2.1
					c0.3,1.4-0.5,5.2,1.4,5.9c1.5,0.1,5.4,0.9,6.1-1.1C225.5,131.1,226.4,126.2,223.5,126.1C223.5,126.1,223.5,126.1,223.5,126.1z
					 M222,175.6c-3.6-0.2-2.9-5.6-2.8-8.1c0.8-2.6,5.1-1.8,7-1.5c2.4,0.9,1.7,4.8,1.9,6.7C228.4,176.1,224.2,175.6,222,175.6
					L222,175.6L222,175.6z M446.4,177c-6.5,0.1-6.9-10.8-0.1-10.5C452.5,166.7,452.9,177,446.4,177L446.4,177z M234.2,175.1
					c-3.6-0.2-3-5.6-2.8-8.1c0.8-2.6,5.1-1.8,7.1-1.5c2.4,0.9,1.7,4.8,1.9,6.7C240.7,175.7,236.5,175.2,234.2,175.1L234.2,175.1
					L234.2,175.1z M312.4,180.8c-11.7,0.1-13-19.8-0.8-19.9C323.4,160.8,324.7,180.7,312.4,180.8L312.4,180.8z M233.7,162.1
					c-3.6-0.2-3-5.6-2.8-8.1c0.8-2.6,5.1-1.9,7.1-1.5c2.4,0.9,1.7,4.8,1.9,6.7C240.1,162.7,235.9,162.2,233.7,162.1L233.7,162.1
					L233.7,162.1z M445.9,162.9c-6.5,0-6.8-10.8-0.1-10.5C452.1,152.5,452.4,162.9,445.9,162.9L445.9,162.9z M221.4,162.9
					c-4.3-0.2-3.9-6.2-3.6-9.2c0.9-3.1,5.6-2.5,8-2c2.8,1.1,2.3,5.1,2.4,7.5C228.7,163.2,224.2,163.2,221.4,162.9L221.4,162.9
					L221.4,162.9z M332.3,182.9c-2.8,0-5.1-2.6-5.1-5.4l-1.1-30.6c-0.2-2.7,1.9-5.4,4.8-5.3c2.1,0.5,40-1.5,40.1,1.6
					c3,1,2,32.2,2.7,34.7c0.2,2.8-2,5.4-4.8,5.3L332.3,182.9L332.3,182.9z M472.2,184.1c-2.9,0-5.3-2.6-5.4-5.5l-0.9-31.5
					c-0.1-2.9,2.1-5.5,5.1-5.5c2.1,0.5,42.3-1.5,42.4,1.6c3.1,1,1.8,33.1,2.5,35.7c0.1,2.9-2.2,5.5-5.2,5.5L472.2,184.1L472.2,184.1
					L472.2,184.1z M534.4,184.6c-3,0-5.4-2.6-5.5-5.6l-0.8-31.8c-0.1-2.9,2.2-5.6,5.2-5.6c2.2,0.6,43.3-1.5,43.4,1.6
					c3.2,1,1.7,33.5,2.4,36.1c0.1,2.9-2.3,5.6-5.3,5.5L534.4,184.6L534.4,184.6L534.4,184.6z M598,185.1c-3,0-5.6-2.6-5.6-5.6
					l-0.7-32.2c-0.1-3,2.4-5.7,5.4-5.6c2.2,0.6,44.4-1.6,44.5,1.7c3.3,1,1.6,33.9,2.3,36.6c0.1,3-2.5,5.7-5.5,5.6L598,185.1
					L598,185.1z M663.2,185.7c-3.1,0-5.7-2.6-5.7-5.7l-0.6-32.6c-0.1-3.1,2.5-5.7,5.5-5.7c2.2,0.6,45.5-1.6,45.5,1.7
					c3.4,1,1.5,34.3,2.2,37c0.1,3.1-2.5,5.8-5.6,5.7L663.2,185.7L663.2,185.7L663.2,185.7z M730,186.3c-3.1,0-5.8-2.7-5.8-5.8
					l-0.4-33c-0.1-3.1,2.6-5.8,5.7-5.8c2.2,0.6,46.7-1.6,46.7,1.7c3.4,1.1,1.4,34.7,2.1,37.5c0.1,3.1-2.7,5.8-5.8,5.7L730,186.3
					L730,186.3L730,186.3z M798.6,186.9c-3.2,0-6-2.7-6-5.9l-0.3-33.4c-0.1-3.2,2.7-5.9,5.9-5.8c2.3,0.6,47.9-1.6,47.9,1.7
					c3.5,1.1,1.3,35.2,2,37.9c0.1,3.2-2.8,5.9-6,5.8L798.6,186.9L798.6,186.9L798.6,186.9z M220.8,148.6c-3.6-0.2-2.9-5.6-2.8-8.1
					c0.8-2.6,5.1-1.9,7-1.6c2.4,0.9,1.7,4.8,1.9,6.7C227.3,149.2,223,148.7,220.8,148.6L220.8,148.6L220.8,148.6z M245.3,149.8
					c-4.4-0.1-4-6.2-3.6-9.3c1-3.2,5.7-2.5,8.1-2c2.8,1.1,2.3,5.2,2.4,7.5C252.6,150,248.1,150,245.3,149.8L245.3,149.8z
					 M382.6,183.3c-2.9,0-5.2-2.6-5.2-5.4l-1.5-44c-0.1-2.8,2-5.4,4.9-5.4c2.3,0.7,46.3-1.8,46.8,1.5c3.1,0.3,2.3,46.2,3,48.3
					c0.1,2.8-2.1,5.4-5,5.4L382.6,183.3L382.6,183.3L382.6,183.3z M220.3,136c-4.4-0.1-3.9-6.2-3.6-9.3c0.9-3.2,5.6-2.5,8.1-2
					c2.8,1.1,2.3,5.2,2.4,7.5C227.5,136.1,223.1,136.2,220.3,136L220.3,136z M207.4,121.6c-3.6-0.2-2.9-5.6-2.8-8.1
					c0.8-2.6,5-1.9,7-1.6c2.4,0.9,1.7,4.8,1.9,6.7C213.9,122.1,209.7,121.7,207.4,121.6L207.4,121.6L207.4,121.6z M219.1,108
					c-3.6-0.2-2.9-5.6-2.8-8.1c0.8-2.6,5.1-1.9,7.1-1.6c2.4,0.9,1.7,4.8,1.9,6.7C225.5,108.5,221.3,108,219.1,108L219.1,108z
					 M995.4,71l-802.3,9.7l5,111.5l796.9,8.6l0.1-19.5l-33.3-0.2c1-7.1,1.4-18.1,10.3-19.8l16.3-22.5l-22.8-31.4
					c7.7-8.9,20.4-14.4,29.8-4.2V71L995.4,71z"/>
				<path class="st12" d="M1114.6,124.7c-32.5,3.5-17.2,47,13,30.1c0-1.2,0-6.9,0.2-8c0.4-1.7,2.3-1.5,3.6-1.9
					c0.4-0.5,0.4-2.1-0.6-2h-14.6c-0.8-0.1-0.8,0.8-0.8,1.4c0.3,1.5,2.7,0.1,3.5,1.3c1.1,1.4,0.2,6.5,0.5,8.2
					c-15.5,8.6-18-25.7-3.6-25.8c9.2,0,8.2,9.9,11.8,9c0.9,0.4,0.3-11.1,0.6-11.4c0.1-0.9-1.2-0.7-1.8-0.7c-0.8,0.2-0.8,1.4-1.3,1.9
					c-0.3,0.6-1.2,0.1-1.7,0C1120.6,125.7,1117.7,124.5,1114.6,124.7L1114.6,124.7L1114.6,124.7z"/>
				<path class="st12" d="M1077.1,154.4c-10.3-0.5-9.6-29.8,2.2-26.8C1086.7,130.6,1086.5,154.5,1077.1,154.4L1077.1,154.4z
					 M1078.3,124.3c-22.2-1.8-23.5,33.7-1,33.2C1098.4,158.8,1099.7,123.9,1078.3,124.3C1078.3,124.3,1078.3,124.3,1078.3,124.3z"/>
				<path class="st12" d="M1045.2,125.6h-15.7c-0.8-0.1-0.8,0.8-0.8,1.4c0.2,1.6,3.3-0.1,3.9,1.6c0.6,2.5,0,21.1,0.1,23.9
					c0.1,4.4-4.6,0.7-4.2,3.9c0,0.4,0.3,0.7,0.7,0.7c0.3-0.1,26.1,0.2,26.3,0c0.3-0.1,0.5-0.3,0.5-0.7c-0.1-0.3,1.5-11.5,0.8-11.3
					c-5.3-2.3,0.8,10.9-15.5,8.2c-0.5-0.9,0-20.4-0.1-21.9c-0.1-1.7,0.2-4.1,2.5-3.8c0.5-0.1,1.8,0.2,2-0.4
					C1046,126.8,1046.1,125.6,1045.2,125.6L1045.2,125.6L1045.2,125.6z"/>
				<path class="st12" d="M1026,106.4c-4.8,0-7.9,3.7-10.3,7.4c-0.9,1-38,53.1-39.1,53.8c-1.9,1.9-5.7,1.7-5.9,5
					c5.9,0,14.8,0.1,20.7,0.1c0.6-2.7-2.9-3.7-5.3-4.4l16.9-23l16.9,23.4c-2.4,0.9-5.3,1.7-4.9,4.2c5.8,0,15.7,0.1,21.5,0.1
					c-0.4-3.3-4.3-3.2-6.3-5.1c-0.6-0.2-21.5-29.5-22-29.9l22.1-30.1C1029.2,106.9,1027.5,106.3,1026,106.4L1026,106.4L1026,106.4z
					 M981.2,106c-1.9,0-3.9,0.9-5.2,2.1l20.5,28.2l5.4-7.5C997.7,124.7,988.2,105.5,981.2,106C981.2,106,981.2,106,981.2,106z"/>
				<path class="st12" d="M1003.7,80.1c-0.5,0-1,0.5-1,1l-0.1,32.7c0,0.7,0.8,1.2,1.5,0.9c0.4-0.2,0.7-0.5,0.7-0.9l0.1-32.7
					C1004.8,80.5,1004.3,80.1,1003.7,80.1C1003.7,80.1,1003.7,80.1,1003.7,80.1z"/>
				<path class="st12" d="M1003.4,162.4c-0.5,0-1,0.4-1,1l-0.1,38.1c0.4,0.9-1.1,7.3,1.3,6.6c1.4-0.1,0.5-5.8,0.8-6.6l0.1-38.1
					C1004.5,162.8,1004,162.4,1003.4,162.4L1003.4,162.4L1003.4,162.4z"/>
				<path class="st9" d="M237.5,165.3c-2.2,0-6.5-0.6-6.2,2.9c0.2,1.9-0.5,5.8,1.9,6.7c2,0.3,6.3,1.1,7.1-1.5
					C240.4,170.9,241.1,165.5,237.5,165.3L237.5,165.3L237.5,165.3z"/>
				<path class="st9" d="M236.9,152.3c-2.2,0-6.5-0.6-6.2,2.9c0.2,1.9-0.5,5.8,1.9,6.7c2,0.3,6.3,1.1,7.1-1.5
					C239.9,157.9,240.6,152.5,236.9,152.3L236.9,152.3L236.9,152.3z"/>
				<path class="st9" d="M245.2,148c-2.9-0.1-2-5-2-6.9c0.6-2,4.6-1.2,6.1-1.1c1.9,0.7,1.1,4.5,1.4,5.9
					C250.9,148.8,246.8,147.9,245.2,148L245.2,148z M248.4,138.1c-2.8-0.2-7.3-0.2-7,3.8c0.2,2.4-0.4,6.4,2.4,7.5
					c2.5,0.5,7.2,1.2,8.1-2C252.4,144.4,252.9,138.3,248.4,138.1L248.4,138.1z"/>
				<path class="st9" d="M224.1,138.8c-2.2,0-6.4-0.5-6.1,2.9c0.2,1.9-0.5,5.8,1.9,6.7c2,0.3,6.3,1.1,7-1.5
					C227,144.4,227.7,138.9,224.1,138.8L224.1,138.8L224.1,138.8z"/>
				<path class="st9" d="M220.2,134.2c-2.9-0.1-2-5-2-6.9c0.6-2,4.5-1.2,6-1.1c1.9,0.7,1.1,4.5,1.4,5.9
					C225.9,135,221.9,134.1,220.2,134.2L220.2,134.2z M223.4,124.4c-2.8-0.2-7.2-0.2-6.9,3.8c0.2,2.4-0.4,6.4,2.4,7.5
					c2.4,0.5,7.1,1.1,8.1-2C227.4,130.6,227.8,124.5,223.4,124.4L223.4,124.4z"/>
				<path class="st9" d="M210.6,111.8c-2.2,0-6.4-0.5-6.1,3c0.2,1.9-0.4,5.8,1.9,6.7c2,0.3,6.2,1,7-1.6
					C213.6,117.4,214.3,111.9,210.6,111.8L210.6,111.8L210.6,111.8z"/>
				<path class="st9" d="M222.3,98.1c-2.2,0-6.5-0.5-6.2,3c0.2,1.9-0.5,5.8,1.9,6.7c2,0.3,6.3,1,7.1-1.6
					C225.2,103.8,225.9,98.2,222.3,98.1L222.3,98.1z"/>
				<path class="st9" d="M221.4,161.2c-2.8-0.2-2-5-2-6.9c0.6-2,4.5-1.2,6-1.1c1.9,0.7,1.1,4.5,1.4,5.9
					C227.1,162.1,223,161.1,221.4,161.2L221.4,161.2z M224.6,151.4c-2.8-0.2-7.2-0.2-6.9,3.8c0.2,2.4-0.4,6.4,2.4,7.5
					c2.4,0.5,7.1,1.2,8.1-2C228.6,157.6,229,151.6,224.6,151.4L224.6,151.4z"/>
				<path class="st9" d="M225.2,165.8c-2.2,0-6.4-0.6-6.1,2.9c0.2,1.9-0.4,5.8,1.9,6.7c2,0.3,6.2,1.1,7-1.5
					C228.2,171.4,228.9,165.9,225.2,165.8L225.2,165.8L225.2,165.8z"/>
				<path class="st12" d="M180.4,165c-2.2,0-6.3-0.6-6,2.9c0.2,1.9-0.4,5.7,1.9,6.6c1.9,0.3,6.1,1.1,6.9-1.5
					C183.3,170.6,184,165.2,180.4,165L180.4,165L180.4,165z"/>
				<path class="st12" d="M191.1,152.2c-2.2,0-6.4-0.5-6.1,2.9c0.2,1.9-0.4,5.8,1.9,6.6c2,0.3,6.2,1.1,6.9-1.5
					C194,157.8,194.7,152.3,191.1,152.2L191.1,152.2L191.1,152.2z"/>
				<path class="st12" d="M191,139c-2.2,0-6.4-0.5-6.1,2.9c0.2,1.9-0.4,5.8,1.9,6.7c2,0.3,6.2,1.1,6.9-1.5
					C193.9,144.6,194.6,139.2,191,139L191,139L191,139z"/>
				<path class="st12" d="M187.2,134.7c-2.8-0.2-2-5-2-6.8c0.6-2,4.5-1.2,5.9-1.1c1.8,0.7,1.1,4.5,1.4,5.9
					C192.8,135.5,188.8,134.6,187.2,134.7L187.2,134.7L187.2,134.7z M190.4,124.9c-2.8-0.2-7.1-0.1-6.8,3.8c0.2,2.3-0.4,6.4,2.4,7.4
					c2.9,0.7,8.5,0.9,8.1-3.5C194,129.9,194.3,125,190.4,124.9L190.4,124.9z"/>
				<path class="st12" d="M189.8,112.6c-2.2,0-6.4-0.5-6.1,2.9c0.2,1.9-0.4,5.8,1.9,6.7c2,0.3,6.2,1,7-1.6
					C192.8,118.1,193.5,112.7,189.8,112.6L189.8,112.6L189.8,112.6z"/>
				<path class="st12" d="M156.1,127c-2.2,0-6.3-0.5-6,2.9c0.2,1.9-0.4,5.7,1.9,6.6c1.9,0.3,6.1,1,6.9-1.5
					C159,132.6,159.7,127.2,156.1,127L156.1,127L156.1,127z"/>
				<path class="st12" d="M179,138.9c-2.2,0-6.3-0.5-6,2.9c0.2,1.9-0.4,5.7,1.9,6.6c2,0.3,6.1,1.1,6.9-1.5
					C182,144.5,182.6,139.1,179,138.9L179,138.9L179,138.9z"/>
				<path class="st12" d="M168.4,165.5c-2.2,0-6.3-0.6-6,2.8c0.2,1.9-0.4,5.7,1.9,6.6c1.9,0.3,6.1,1.1,6.9-1.5
					C171.3,171,172,165.6,168.4,165.5L168.4,165.5L168.4,165.5z"/>
				<path class="st14" d="M311.6,160.9c-12.3,0.1-11,19.9,0.8,19.9C324.7,180.8,323.4,160.9,311.6,160.9L311.6,160.9z"/>
				<path class="st14" d="M446,166.5c-6.6,0-6,10.6,0.3,10.5C453,177,452.4,166.4,446,166.5L446,166.5z"/>
				<path class="st14" d="M445.6,152.4c-6.6,0-6.1,10.6,0.3,10.5C452.5,162.9,452,152.3,445.6,152.4L445.6,152.4z"/>
				<path class="st9" d="M355.4,145.6c2.1,0.4,7.9-1.4,8,1.9l0.8,21.8c0.2,2.4-2.8,1.9-4.3,1.9c0.4,1.9-0.7,3.3-2.7,2.9
					c0.1,1.3,0.2,3.4-1.6,3.4l-10.7-0.1c-1.8,0-2-2.1-1.9-3.4c-2,0.3-3.1-1-2.9-3c-1.5,0-4.4,0.4-4.4-1.9c0.4-0.9-2-23.9,0.2-23.4
					C342.1,145.4,349.2,145.8,355.4,145.6L355.4,145.6L355.4,145.6z M367.2,141.6h-36.5c-2.8,0-4.9,2.6-4.8,5.3
					c0.6,2.6-0.2,33.3,2.7,34.4c-0.1,3.1,38.1,1.3,40,1.9c2.8,0.1,5-2.6,4.8-5.3l-1.1-30.9C372.4,144.2,370.1,141.6,367.2,141.6
					L367.2,141.6L367.2,141.6z"/>
				<path class="st9" d="M385.9,174.4c-4.4,0.1-2.3-10.4-3-12.8c-0.1-1.4,1-2.8,2.5-2.7c1.5,0.3,35.1-0.3,36.7,0.4
					c3,0.8,1.4,10.6,2,12.7c0.1,1.4-1.1,2.8-2.5,2.8L385.9,174.4L385.9,174.4z M385.2,152c-4.4,0.1-2.3-10.4-3-12.8
					c-0.1-1.4,1-2.8,2.5-2.8c1.6,0.3,35.1-0.5,36.7,0.2c3,0.8,1.4,10.6,2,12.7c0.1,1.4-1.1,2.8-2.5,2.8L385.2,152L385.2,152
					L385.2,152z M423.9,128.4l-43.1,0.1c-2.9,0-5,2.6-4.9,5.4c0.7,2.3,0.1,47.4,3.1,47.8c0.2,3.2,44.6,1.3,46.6,2
					c2.9,0.1,5.1-2.6,5-5.4l-1.4-44.5C429.1,131,426.8,128.3,423.9,128.4L423.9,128.4L423.9,128.4z"/>
				<path class="st9" d="M478.1,178.5c-1,0-1.9-0.9-1.9-1.9l-0.6-22.2c-0.1-2.4,3-1.9,4.5-1.9c-0.4-2,0.8-3.4,2.9-3
					c-0.2-1.4-0.1-3.5,1.8-3.5h11.3c1.9,0,2,2.1,2,3.5c2.1-0.4,3.3,1,3,3.1c1.6,0,4.7-0.5,4.7,2l0.6,22.4c0.2,3-4.8,1.6-6.5,1.9
					C496.5,178.6,481.1,178.5,478.1,178.5L478.1,178.5L478.1,178.5z M471.5,151c-4.6,0-4.9-7.6-0.1-7.5
					C475.9,143.6,476.1,151,471.5,151L471.5,151z M509.7,151.1c-4.7,0.1-4.9-7.7-0.1-7.5C514.2,143.7,514.4,151.1,509.7,151.1
					L509.7,151.1z M509.6,141.6H471c-2.9-0.1-5.2,2.6-5.1,5.5c0.6,2.7-0.5,34.2,2.5,35.3c-0.2,3.1,40.3,1.4,42.2,2
					c2.9,0.1,5.3-2.6,5.2-5.5l-0.8-31.8C515,144.2,512.6,141.6,509.6,141.6L509.6,141.6z"/>
				<path class="st15" d="M421.1,159l-35.7-0.1c-1.5,0-2.6,1.3-2.5,2.7c0.6,2.1-1,11.7,2,12.6c1,0.6,35.6,0.2,36.6,0.5
					c4.5,0.2,1.7-10.5,2.2-12.9C423.8,160.3,422.6,159,421.1,159L421.1,159z"/>
				<path class="st15" d="M420.4,136.4h-35.7c-1.5,0-2.6,1.3-2.5,2.8c0.6,2.1-1,11.8,2,12.6c1,0.6,35.6,0.1,36.7,0.3
					c4.5,0.2,1.7-10.6,2.2-12.9C423.1,137.8,421.9,136.4,420.4,136.4L420.4,136.4L420.4,136.4z"/>
				<path class="st16" d="M509.5,143.6c-4.8,0-4.4,7.6,0.2,7.6C514.5,151.1,514.2,143.5,509.5,143.6L509.5,143.6z"/>
				<path class="st17" d="M471.3,143.5c-4.7,0-4.4,7.5,0.2,7.5S475.9,143.5,471.3,143.5L471.3,143.5z"/>
				<path class="st9" d="M540.4,178.9c-1.1,0-1.9-0.9-2-2l-0.5-22.5c-0.1-2.5,3.1-1.9,4.7-2c-0.4-2.1,0.8-3.4,3-3.1
					c-0.2-1.4-0.1-3.6,1.8-3.5H559c1.9,0,2.1,2.1,2,3.5c2.1-0.4,3.4,1,3.1,3.1c1.6,0.1,4.8-0.5,4.8,2l0.5,22.6c0.2,3-5,1.7-6.6,1.9
					C559.3,179.1,543.5,179,540.4,178.9L540.4,178.9L540.4,178.9z M533.7,151.2c-4.8,0.1-4.9-7.8,0-7.6
					C538.3,143.7,538.4,151.2,533.7,151.2L533.7,151.2z M572.9,151.3c-4.8,0.1-5-7.8,0-7.6C577.5,143.7,577.7,151.3,572.9,151.3
					L572.9,151.3z M572.8,141.7h-39.5c-3,0-5.3,2.6-5.2,5.6c0.6,2.7-0.7,34.6,2.5,35.8c-0.2,3.2,41.3,1.4,43.2,2
					c3,0.1,5.4-2.6,5.3-5.5l-0.7-32.1C578.4,144.3,575.8,141.7,572.8,141.7L572.8,141.7L572.8,141.7z"/>
				<path class="st16" d="M572.7,143.6c-4.9,0-4.6,7.7,0.2,7.6C577.8,151.3,577.5,143.5,572.7,143.6L572.7,143.6z"/>
				<path class="st17" d="M533.5,143.6c-4.8,0-4.5,7.6,0.2,7.6C538.5,151.2,538.2,143.5,533.5,143.6L533.5,143.6z"/>
				<path class="st9" d="M604.2,179.4c-1.1,0-2-0.9-2-2l-0.5-22.8c-0.1-2.5,3.2-2,4.8-2c-0.4-2.1,0.9-3.5,3-3.1
					c-0.2-1.4,0-3.6,1.9-3.6h11.9c1.9,0,2.2,2.1,2,3.6c2.2-0.4,3.5,1,3.2,3.1c1.6,0.1,4.9-0.5,4.9,2l0.4,22.9
					c0.2,3.1-5.1,1.7-6.8,1.9C623.6,179.6,607.4,179.4,604.2,179.4L604.2,179.4L604.2,179.4z M597.5,151.3c-4.9,0.1-5-7.9,0-7.7
					C602.2,143.7,602.3,151.3,597.5,151.3L597.5,151.3z M637.6,151.4c-5,0.1-5.1-7.9,0-7.7C642.4,143.7,642.5,151.4,637.6,151.4
					L637.6,151.4z M637.6,141.7h-40.5c-3-0.1-5.5,2.6-5.4,5.6c0.6,2.8-0.8,35,2.4,36.2c-0.2,3.2,42.3,1.4,44.3,2
					c3,0.1,5.6-2.6,5.5-5.6l-0.6-32.5C643.3,144.3,640.6,141.6,637.6,141.7L637.6,141.7z"/>
				<path class="st16" d="M637.4,143.7c-5,0-4.7,7.8,0.1,7.7C642.6,151.4,642.3,143.6,637.4,143.7L637.4,143.7z"/>
				<path class="st17" d="M597.3,143.6c-4.9,0-4.6,7.8,0.2,7.7C602.4,151.3,602.1,143.5,597.3,143.6L597.3,143.6z"/>
				<path class="st9" d="M669.5,179.9c-1.1,0-2-0.9-2-2l-0.4-23.1c-0.1-2.6,3.3-2,4.9-2c-0.4-2.2,0.9-3.5,3.1-3.1
					c-0.2-1.5,0-3.6,2-3.6h12.2c2,0,2.2,2.1,2.1,3.6c2.2-0.4,3.6,1,3.2,3.2c1.7,0.1,5-0.5,5,2.1l0.3,23.2c0.2,3.1-5.2,1.7-7,2
					C689.4,180,672.8,179.9,669.5,179.9L669.5,179.9L669.5,179.9z M662.8,151.4c-5,0.1-5.1-8,0-7.8
					C667.7,143.8,667.8,151.5,662.8,151.4L662.8,151.4z M703.9,151.5c-5.1,0.1-5.1-8.1,0-7.8C708.9,143.8,708.9,151.6,703.9,151.5
					L703.9,151.5z M704,141.7h-41.5c-3.1-0.1-5.6,2.6-5.5,5.7c0.6,2.8-1,35.5,2.3,36.6c-0.2,3.2,43.4,1.4,45.4,2.1
					c3.1,0.1,5.7-2.6,5.6-5.7l-0.5-32.9C709.8,144.4,707.1,141.7,704,141.7L704,141.7L704,141.7z"/>
				<path class="st16" d="M703.8,143.7c-5.1,0-4.9,7.9,0.1,7.8C709,151.6,708.8,143.6,703.8,143.7L703.8,143.7z"/>
				<path class="st17" d="M662.7,143.7c-5,0-4.8,7.8,0.1,7.8S667.6,143.6,662.7,143.7L662.7,143.7z"/>
				<path class="st9" d="M736.6,180.4c-1.1,0-2.1-0.9-2.1-2.1l-0.3-23.4c-0.1-2.6,3.4-2,5-2.1c-0.4-2.2,1-3.6,3.2-3.2
					c-0.2-1.5,0-3.7,2-3.7h12.5c2,0,2.3,2.1,2.1,3.7c2.2-0.4,3.6,1,3.3,3.2c1.7,0.1,5.2-0.6,5.2,2.1l0.2,23.5c0.1,3.2-5.4,1.7-7.2,2
					C756.9,180.5,739.9,180.4,736.6,180.4L736.6,180.4z M729.8,151.6c-5,0.1-5.2-7.9-0.1-7.9C734.8,143.6,734.9,151.7,729.8,151.6
					L729.8,151.6z M771.9,151.7c-5.2,0.1-5.2-8.2,0.1-7.9C777.1,143.8,777,151.8,771.9,151.7L771.9,151.7z M772,141.7h-42.5
					c-3.1-0.1-5.8,2.6-5.7,5.8c0.7,2.9-1.2,35.9,2.2,37.1c-0.3,3.3,44.5,1.5,46.5,2.1c3.1,0.1,5.9-2.6,5.8-5.7l-0.3-33.3
					C777.9,144.4,775.2,141.7,772,141.7L772,141.7z"/>
				<path class="st16" d="M771.8,143.8c-5.2-0.1-5,8,0.1,7.9C777.1,151.8,777,143.6,771.8,143.8L771.8,143.8z"/>
				<path class="st17" d="M729.7,143.7c-5.1-0.1-4.9,7.9,0.1,7.9C734.9,151.7,734.7,143.6,729.7,143.7L729.7,143.7z"/>
				<path class="st9" d="M805.3,180.9c-1.1,0-2.1-0.9-2.1-2.1l-0.2-23.7c-0.1-2.6,3.5-2,5.2-2.1c-0.4-2.3,1.1-3.6,3.3-3.2
					c-0.2-1.5,0.1-3.8,2.1-3.7h12.8c2-0.1,2.3,2.2,2.2,3.7c2.2-0.4,3.8,0.9,3.4,3.3c1.7,0.1,5.3-0.6,5.2,2.1l0.2,23.8
					c0.1,3.2-5.6,1.7-7.3,2C826.2,181.1,808.7,180.9,805.3,180.9L805.3,180.9L805.3,180.9z M798.4,151.8c-5.3,0.1-5.2-8.2,0.1-8
					C803.6,143.9,803.6,151.8,798.4,151.8L798.4,151.8z M841.7,151.8c-5.4,0.1-5.3-8.3,0.1-8C847,143.9,846.9,152,841.7,151.8
					L841.7,151.8z M841.8,141.8h-43.6c-3.2-0.1-6,2.6-5.9,5.8c0.7,2.9-1.4,36.4,2.1,37.6c-0.3,3.3,45.7,1.5,47.7,2.1
					c3.2,0.1,6-2.6,6-5.8l-0.2-33.8C847.9,144.4,845,141.7,841.8,141.8L841.8,141.8L841.8,141.8z"/>
				<path class="st15" d="M811.3,181c0.4-0.8-1.1-10.3,0.9-9.9c1.9-0.4,0.7,9.2,1,10L811.3,181L811.3,181z M818.5,181
					c0.4-0.8-1.1-10.4,0.9-10c1.9-0.4,0.7,9.2,1,10H818.5z M825.8,181.1c0.4-0.8-1.1-10.4,0.9-10c1.9-0.4,0.7,9.2,1,10H825.8z
					 M826.3,146.2h-12.8c-2-0.1-2.3,2.1-2.1,3.7c-2.2-0.4-3.7,0.9-3.3,3.2c-1.7,0.1-5.2-0.6-5.2,2.1l0.2,23.7
					c-0.1,3.2,5.5,1.8,7.3,2.1l19.5,0.1c1.8-0.3,7.5,1.2,7.3-2l-0.2-23.8c0-2.7-3.5-2.1-5.2-2.1c0.4-2.3-1.1-3.6-3.4-3.3
					C828.6,148.3,828.4,146.1,826.3,146.2L826.3,146.2z"/>
				<g>
					<defs>
						<path id="SVGID_1_" d="M835.2,181.1c-3.3,0-21-0.1-24.7-0.2c-1.8-0.4-7.4,1.1-7.3-2.1l-0.2-23.7c-0.1-2.6,3.5-2,5.2-2.1
							c-0.4-2.3,1.1-3.6,3.3-3.2c-0.2-1.5,0.1-3.8,2.1-3.7h12.8c2-0.1,2.3,2.2,2.2,3.7c2.2-0.4,3.8,0.9,3.4,3.3
							c1.7,0.1,5.3-0.6,5.2,2.1l0.2,23.8C837.3,180.2,836.3,181.2,835.2,181.1"/>
					</defs>
					<clipPath id="SVGID_00000101800002773594417030000018072728441834644658_">
						<use xlink:href="#SVGID_1_"  style="overflow:visible;"/>
					</clipPath>
					<g style="clip-path:url(#SVGID_00000101800002773594417030000018072728441834644658_);">
						<g>
							<path class="st19" d="M812.2,171c-2-0.4-0.5,9.2-0.9,9.9h2C812.9,180.1,814.1,170.7,812.2,171"/>
							<path class="st19" d="M819.5,171.1c-2-0.4-0.5,9.2-0.9,10h2C820.1,180.2,821.4,170.7,819.5,171.1"/>
							<path class="st19" d="M826.7,171.1c-2-0.4-0.6,9.2-0.9,10h2C827.4,180.2,828.7,170.7,826.7,171.1"/>
						</g>
					</g>
				</g>
				<path class="st15" d="M742.4,180.4c0.3-0.8-1.1-10.2,0.8-9.8c1.9-0.4,0.7,9.1,1.1,9.8H742.4L742.4,180.4z M749.5,180.5
					c0.3-0.8-1.1-10.2,0.8-9.8c1.9-0.4,0.7,9.1,1.1,9.9L749.5,180.5L749.5,180.5L749.5,180.5z M756.6,180.6
					c0.4-0.8-1.1-10.2,0.8-9.9c1.9-0.4,0.7,9.1,1.1,9.9H756.6L756.6,180.6z M757,146.1h-12.5c-2-0.1-2.2,2.1-2,3.6
					c-2.2-0.4-3.6,0.9-3.2,3.2c-1.6,0.1-5.1-0.6-5,2.1l0.3,23.4c-0.1,3.1,5.4,1.8,7.1,2.1l19,0.1c1.7-0.3,7.3,1.2,7.2-2l-0.2-23.5
					c0-2.6-3.5-2-5.2-2.1c0.3-2.2-1.1-3.6-3.3-3.2C759.2,148.3,758.9,146.1,757,146.1L757,146.1L757,146.1z"/>
				<g>
					<defs>
						<path id="SVGID_00000136408167149519351550000017637506632802293378_" d="M765.7,180.6c-3.2,0-20.5-0.1-24.1-0.2
							c-1.8-0.3-7.2,1.1-7.1-2.1l-0.3-23.4c-0.1-2.6,3.4-2,5-2.1c-0.4-2.2,1-3.6,3.2-3.2c-0.2-1.5,0-3.7,2-3.7h12.5
							c2,0,2.3,2.1,2.1,3.7c2.2-0.4,3.6,1,3.3,3.2c1.7,0.1,5.2-0.6,5.2,2.1l0.2,23.5C767.8,179.7,766.8,180.6,765.7,180.6"/>
					</defs>
					<clipPath id="SVGID_00000087393158803503537150000010698298180827142825_">
						<use xlink:href="#SVGID_00000136408167149519351550000017637506632802293378_"  style="overflow:visible;"/>
					</clipPath>
					<g style="clip-path:url(#SVGID_00000087393158803503537150000010698298180827142825_);">
						<g>
							<path class="st19" d="M743.3,170.6c-1.9-0.4-0.5,9.1-0.8,9.8h1.9C744,179.6,745.2,170.3,743.3,170.6"/>
							<path class="st19" d="M750.3,170.7c-1.9-0.4-0.5,9.1-0.8,9.8h1.9C751,179.7,752.3,170.3,750.3,170.7"/>
							<path class="st19" d="M757.4,170.7c-1.9-0.4-0.5,9.1-0.8,9.9h1.9C758.1,179.7,759.3,170.3,757.4,170.7"/>
						</g>
					</g>
				</g>
				<path class="st15" d="M675.3,179.9c0.3-0.8-1.1-10.1,0.8-9.7c1.8-0.4,0.7,9,1.1,9.7H675.3L675.3,179.9z M682.2,180
					c0.3-0.8-1.1-10.1,0.8-9.7c1.8-0.4,0.7,9,1.1,9.7H682.2L682.2,180z M689.1,180.1c0.3-0.8-1.1-10.1,0.8-9.7
					c1.8-0.4,0.7,9,1.1,9.8L689.1,180.1L689.1,180.1L689.1,180.1z M689.3,146h-12.2c-2,0-2.1,2.1-2,3.6c-2.2-0.4-3.5,1-3.1,3.1
					c-1.6,0.1-5-0.6-4.9,2l0.4,23.1c-0.1,3.1,5.2,1.8,7,2.1L693,180c1.7-0.3,7.1,1.2,7-2l-0.3-23.2c0-2.6-3.3-2-5-2.1
					c0.3-2.2-1.1-3.5-3.2-3.2C691.5,148.2,691.2,146,689.3,146L689.3,146L689.3,146z"/>
				<g>
					<defs>
						<path id="SVGID_00000083810919610800178740000011669330501500830116_" d="M698,180.1c-3.2,0-20-0.1-23.5-0.2
							c-1.8-0.3-7,1.1-7-2.1l-0.4-23.1c-0.1-2.6,3.3-2,4.9-2c-0.4-2.2,0.9-3.5,3.1-3.1c-0.2-1.5,0-3.6,2-3.6h12.2
							c2,0,2.2,2.1,2.1,3.6c2.2-0.4,3.6,1,3.2,3.2c1.7,0.1,5-0.5,5,2.1l0.3,23.2C700,179.2,699.1,180.1,698,180.1"/>
					</defs>
					<clipPath id="SVGID_00000060722922891124773080000002860182066545220227_">
						<use xlink:href="#SVGID_00000083810919610800178740000011669330501500830116_"  style="overflow:visible;"/>
					</clipPath>
					<g style="clip-path:url(#SVGID_00000060722922891124773080000002860182066545220227_);">
						<g>
							<path class="st19" d="M676,170.2c-1.9-0.4-0.4,9-0.8,9.7h1.9C676.8,179.2,677.9,169.9,676,170.2"/>
							<path class="st19" d="M683,170.3c-1.9-0.4-0.4,9-0.8,9.7h1.9C683.7,179.2,684.8,169.9,683,170.3"/>
							<path class="st19" d="M689.9,170.3c-1.9-0.4-0.4,9-0.8,9.7h1.9C690.6,179.2,691.7,170,689.9,170.3"/>
						</g>
					</g>
				</g>
				<path class="st15" d="M609.8,179.5c0.3-0.8-1.1-9.9,0.7-9.6c1.8-0.3,0.7,8.9,1.1,9.6H609.8z M616.5,179.5
					c0.3-0.8-1.1-9.9,0.7-9.6c1.8-0.3,0.7,8.9,1.1,9.6H616.5z M623.2,179.6c0.3-0.8-1.1-10,0.7-9.6c1.8-0.3,0.7,8.9,1.1,9.6H623.2z
					 M623.3,146h-11.9c-1.9,0-2.1,2.1-1.9,3.6c-2.2-0.4-3.4,1-3,3.1c-1.6,0.1-4.9-0.5-4.8,2l0.5,22.8c-0.1,3,5.1,1.8,6.8,2l18.1,0.1
					c1.7-0.3,7,1.2,6.8-1.9l-0.4-22.9c0-2.5-3.3-2-4.9-2c0.3-2.1-1-3.5-3.2-3.1C625.4,148.1,625.2,145.9,623.3,146L623.3,146
					L623.3,146z"/>
				<g>
					<defs>
						<path id="SVGID_00000080186469270552583720000014135913564853189311_" d="M631.9,179.6c-3.1,0-19.5-0.1-22.9-0.2
							c-1.7-0.3-6.9,1-6.8-2l-0.5-22.8c-0.1-2.5,3.2-2,4.8-2c-0.4-2.1,0.9-3.5,3-3.1c-0.2-1.4,0-3.6,1.9-3.6h11.9
							c1.9,0,2.2,2.1,2,3.6c2.2-0.4,3.5,1,3.2,3.1c1.6,0.1,4.9-0.5,4.9,2l0.4,22.9C633.9,178.7,633,179.6,631.9,179.6"/>
					</defs>
					<clipPath id="SVGID_00000105405171724057981560000011715972054092613793_">
						<use xlink:href="#SVGID_00000080186469270552583720000014135913564853189311_"  style="overflow:visible;"/>
					</clipPath>
					<g style="clip-path:url(#SVGID_00000105405171724057981560000011715972054092613793_);">
						<g>
							<path class="st19" d="M610.5,169.9c-1.8-0.4-0.4,8.9-0.7,9.6h1.8C611.2,178.7,612.3,169.6,610.5,169.9"/>
							<path class="st19" d="M617.2,169.9c-1.8-0.4-0.4,8.9-0.7,9.6h1.8C617.9,178.7,619,169.6,617.2,169.9"/>
							<path class="st19" d="M624,169.9c-1.8-0.4-0.4,8.9-0.7,9.6h1.8C624.7,178.8,625.8,169.6,624,169.9"/>
						</g>
					</g>
				</g>
				<path class="st15" d="M545.8,179c0.3-0.8-1.1-9.8,0.7-9.5c1.8-0.4,0.8,8.8,1.1,9.5H545.8z M552.4,179c0.3-0.8-1.1-9.8,0.7-9.5
					c1.8-0.4,0.8,8.8,1.1,9.5H552.4z M559,179.1c0.3-0.8-1.1-9.8,0.7-9.5c1.8-0.4,0.8,8.8,1.1,9.5H559z M558.9,145.9h-11.6
					c-1.9,0-2,2.1-1.8,3.5c-2.1-0.4-3.3,1-3,3.1c-1.5,0.1-4.8-0.5-4.7,2l0.5,22.5c-0.1,3,5,1.7,6.7,2l17.6,0.1
					c1.6-0.3,6.8,1.1,6.6-1.9l-0.5-22.6c0-2.5-3.2-2-4.8-2c0.3-2.1-1-3.4-3.1-3.1C561,148,560.8,145.9,558.9,145.9L558.9,145.9z"/>
				<g>
					<defs>
						<path id="SVGID_00000116220743467531291300000002726179434637611428_" d="M567.4,179.1c-3,0-19-0.1-22.4-0.2
							c-1.7-0.3-6.7,1-6.7-2l-0.5-22.5c-0.1-2.5,3.1-1.9,4.7-2c-0.4-2.1,0.8-3.4,3-3.1c-0.2-1.4-0.1-3.6,1.8-3.5h11.6
							c1.9,0,2.1,2.1,2,3.5c2.1-0.4,3.4,1,3.1,3.1c1.6,0,4.8-0.5,4.8,2l0.5,22.6C569.4,178.2,568.5,179.2,567.4,179.1"/>
					</defs>
					<clipPath id="SVGID_00000073711939020064901030000006108395338773945484_">
						<use xlink:href="#SVGID_00000116220743467531291300000002726179434637611428_"  style="overflow:visible;"/>
					</clipPath>
					<g style="clip-path:url(#SVGID_00000073711939020064901030000006108395338773945484_);">
						<g>
							<path class="st19" d="M546.5,169.5c-1.8-0.3-0.3,8.8-0.7,9.5h1.8C547.2,178.2,548.3,169.2,546.5,169.5"/>
							<path class="st19" d="M553,169.5c-1.8-0.3-0.3,8.8-0.7,9.5h1.8C553.8,178.2,554.8,169.2,553,169.5"/>
							<path class="st19" d="M559.6,169.6c-1.8-0.3-0.3,8.8-0.7,9.5h1.8C560.4,178.3,561.4,169.3,559.6,169.6"/>
						</g>
					</g>
				</g>
				<path class="st15" d="M483.4,178.5c0.3-0.7-1.1-9.7,0.6-9.4c1.7-0.3,0.8,8.6,1.1,9.4H483.4z M489.8,178.6
					c0.3-0.8-1.1-9.7,0.6-9.4c1.7-0.3,0.8,8.7,1.1,9.4H489.8z M496.2,178.6c0.3-0.7-1.1-9.7,0.6-9.4c1.7-0.3,0.8,8.7,1.1,9.4H496.2z
					 M496.1,145.8h-11.3c-1.9,0-1.9,2.1-1.8,3.5c-2.1-0.4-3.2,1-2.9,3c-1.5,0-4.7-0.5-4.5,1.9l0.6,22.2c-0.1,2.9,4.8,1.7,6.5,2
					l17.2,0.1c1.6-0.3,6.7,1.1,6.5-1.9l-0.6-22.4c0-2.4-3.1-2-4.7-2c0.3-2.1-1-3.4-3-3.1C498.1,147.9,497.9,145.8,496.1,145.8
					L496.1,145.8L496.1,145.8z"/>
				<g>
					<defs>
						<path id="SVGID_00000004533950450652196510000007605939499240889532_" d="M504.5,178.7c-3,0-18.6-0.1-21.9-0.2
							c-1.7-0.3-6.6,1-6.5-2l-0.6-22.2c-0.1-2.4,3-1.9,4.5-1.9c-0.4-2,0.8-3.4,2.9-3c-0.2-1.4-0.1-3.5,1.8-3.5H496
							c1.9,0,2,2.1,2,3.5c2.1-0.4,3.3,1,3,3.1c1.6,0,4.7-0.5,4.7,2l0.6,22.4C506.4,177.7,505.6,178.7,504.5,178.7"/>
					</defs>
					<clipPath id="SVGID_00000065046917042262317430000014101016597497911181_">
						<use xlink:href="#SVGID_00000004533950450652196510000007605939499240889532_"  style="overflow:visible;"/>
					</clipPath>
					<g style="clip-path:url(#SVGID_00000065046917042262317430000014101016597497911181_);">
						<g>
							<path class="st19" d="M484,169.1c-1.8-0.4-0.3,8.7-0.6,9.4h1.7C484.8,177.8,485.7,168.9,484,169.1"/>
							<path class="st19" d="M490.4,169.2c-1.8-0.4-0.3,8.7-0.6,9.4h1.7C491.2,177.8,492.1,168.9,490.4,169.2"/>
							<path class="st19" d="M496.9,169.2c-1.7-0.3-0.3,8.7-0.6,9.4h1.7C497.6,177.9,498.6,168.9,496.9,169.2"/>
						</g>
					</g>
				</g>
				<path class="st15" d="M361.6,145.6h-6.2c-0.3,0.7,1.2,9.4-0.5,9.2c-1.6,0.3-0.8-8.5-1.2-9.2h-4.4c-0.3,0.7,1.2,9.4-0.5,9.2
					c-1.6,0.3-0.8-8.5-1.2-9.2h-4.4c-0.3,0.7,1.2,9.4-0.5,9.1c-1.6,0.3-0.8-8.4-1.2-9.2c-1.8,0.4-6.8-1.2-6.7,1.9l0.8,21.7
					c0,2.3,2.9,1.9,4.4,1.9c-0.2,1.9,0.9,3.3,2.9,3c-0.1,1.4,0.1,3.4,1.9,3.4l10.7,0.1c1.8,0,1.8-2.1,1.6-3.4c2,0.4,3.1-1,2.7-2.9
					c1.5,0,4.5,0.5,4.3-1.9l-0.8-21.8C363.5,146.6,362.7,145.6,361.6,145.6L361.6,145.6L361.6,145.6z"/>
				<g>
					<defs>
						<path id="SVGID_00000171691862915086973410000017432566110194989455_" d="M361.6,145.6h-20.7c-1.6,0.3-6.3-1-6,1.9l0.8,21.7
							c0,2.3,2.9,1.9,4.4,1.9c-0.2,1.9,0.9,3.3,2.9,3c-0.1,1.4,0.1,3.4,1.9,3.4l10.7,0.1c1.8,0,1.8-2.1,1.6-3.4c2,0.4,3.1-1,2.7-2.9
							c1.5,0,4.5,0.5,4.3-1.9l-0.8-21.8C363.5,146.6,362.7,145.6,361.6,145.6"/>
					</defs>
					<clipPath id="SVGID_00000168822683634895322290000009520596790730750381_">
						<use xlink:href="#SVGID_00000171691862915086973410000017432566110194989455_"  style="overflow:visible;"/>
					</clipPath>
					<g style="clip-path:url(#SVGID_00000168822683634895322290000009520596790730750381_);">
						<g>
							<path class="st19" d="M343.3,145.6h-1.6c0.4,0.8-0.5,9.4,1.2,9.2C344.4,155.1,343,146.3,343.3,145.6"/>
							<path class="st19" d="M349.3,145.6h-1.6c0.4,0.8-0.5,9.4,1.2,9.2C350.5,155.1,349,146.3,349.3,145.6"/>
							<path class="st19" d="M355.4,145.6h-1.6c0.4,0.8-0.5,9.4,1.2,9.2C356.6,155.1,355.1,146.3,355.4,145.6"/>
						</g>
					</g>
				</g>
				<path class="st16" d="M841.6,143.8c-5.3-0.1-5.2,8.1,0.1,8C847,151.9,846.9,143.7,841.6,143.8L841.6,143.8z"/>
				<path class="st17" d="M798.3,143.8c-5.2-0.1-5.1,8.1,0.1,8C803.7,151.8,803.6,143.7,798.3,143.8L798.3,143.8z"/>
				<path class="st26" d="M1073,202.2l-8.1-0.1c-0.2,1.6-0.4,3.1-0.4,4.7l8.4,0.1C1072.8,205.4,1072.9,203.8,1073,202.2L1073,202.2z
					 M1094.1,202.5l-8.3-0.1v4.7l8.7,0.1C1094.4,205.6,1094.3,204,1094.1,202.5L1094.1,202.5L1094.1,202.5z"/>
				<path class="st27" d="M1080.2,187.6c-8.9-1.2-14.9,6.2-15.4,14.6l8.1,0.1c-0.6-15.9,13.9-15.7,12.8,0.1l8.3,0.1
					C1093.6,194.8,1088.7,187.2,1080.2,187.6L1080.2,187.6L1080.2,187.6z"/>
				<path class="st27" d="M1086.9,70.4c-0.4,5.5,1.2,16.3-6.6,16.9c-7.7-0.5-6.1-11.4-6.5-16.8C1073.8,70.5,1086.9,70.4,1086.9,70.4
					z M1095.7,70.3l-30.2,0.4c-0.3,9.2,4.1,20.8,15.2,19.5C1091.5,91,1095.8,79.4,1095.7,70.3L1095.7,70.3z"/>
			</g>
		</g>
	</g>
	<g>
		<polygon class="st28" points="1212.7,127.7 1214.3,127.6 1214.2,137 1212.6,137 		"/>
		<polygon class="st28" points="1188.2,130.1 1190.2,135.8 1192.5,130.1 1194.1,130.1 1191.1,137 1189.3,137 1186.5,130.1 		"/>
		<path class="st28" d="M1182.3,128.5c0-1,1.7-1,1.6,0C1184,129.4,1182.3,129.5,1182.3,128.5z"/>
		<path class="st28" d="M1180,128.5c0-1,1.6-1,1.6,0C1181.7,129.4,1180,129.5,1180,128.5z"/>
		<path class="st28" d="M1156.9,127.5h0.9c-0.1,1.3,2.4,1.2,2.3,0h0.9C1161.3,130.2,1156.5,130.2,1156.9,127.5L1156.9,127.5
			L1156.9,127.5z"/>
		<path class="st28" d="M1150.5,128.3h-1.8l-3.4,8.7h1.6l0.7-1.8h3.9l0.6,1.8h1.6L1150.5,128.3L1150.5,128.3L1150.5,128.3z
			 M1148,134.1l1.6-4.1l1.5,4.1H1148z"/>
		<polygon class="st28" points="1150.3,152.1 1145.6,152.1 1145.7,143.4 1147.3,143.4 1147.2,150.9 1150.4,150.9 		"/>
		<path class="st28" d="M1160.9,130.1v1c-2-2.4-6.3-0.7-6.1,2.4c-0.2,3.2,4.1,4.9,6.1,2.4c0.7,2.8-2.8,4.6-4.2,2h-1.5
			c0.4,3,5.5,3.3,6.8,0.9c0.9-1,0.4-7.4,0.6-8.7L1160.9,130.1L1160.9,130.1z M1160.8,133.9c-0.4,3.2-5.4,2.1-4.4-1
			C1157.1,130.2,1161.4,131.2,1160.8,133.9z"/>
		<polygon class="st28" points="1171,152.1 1169.4,152.1 1169.6,142.8 1171.1,142.8 		"/>
		<path class="st28" d="M1171.6,137.1c-9.9-2.4,0.3-14.3,5.2-6.3h-1.9c-1.7-2.7-6.4-0.9-5.8,2.3c0.2,3.4,5.8,3.7,6.2,0.3h-3.6v-1.1
			h5.2C1177.3,135.2,1174.4,137.5,1171.6,137.1L1171.6,137.1L1171.6,137.1z"/>
		<path class="st28" d="M1178.7,145.2v1c-2.2-2.6-6.7-0.4-6.2,2.9c0.2,2.9,4.2,4.2,6.1,2v1.1h1.6l0.1-7H1178.7z M1178.7,149
			c-0.3,3.1-5.1,2.3-4.5-0.7C1174.5,145.3,1179.2,146,1178.7,149z"/>
		<path class="st28" d="M1181.8,137.1c-4.1,0.5-3.4-4.5-3.3-7h1.6c0.2,1.6-1,6,1.8,5.8c2.8,0.2,1.7-4.2,2-5.8h1.6l-0.1,6.9h-1.6
			v-0.8C1183.3,136.8,1182.5,137,1181.8,137.1L1181.8,137.1L1181.8,137.1z"/>
		<path class="st28" d="M1194.5,152.2h-1.6c-0.2-1.6,1-6-1.8-5.8c-2.8-0.2-1.7,4.2-2,5.8h-1.5c-0.2-1.6,1-6-1.8-5.8
			c-2.8-0.3-1.7,4.2-2,5.8h-1.6l0.1-7h1.6v0.8c1.3-1.4,4-1.2,4.9,0.5c1.1-1.8,4.2-1.9,5.3,0C1194.8,147.5,1194.4,151,1194.5,152.2
			L1194.5,152.2z"/>
		<path class="st28" d="M1202.2,132.9c-0.4-4-7.1-3.8-7.4,0.1c-0.9,4.2,5.7,5.7,7.2,1.9h-1.7c-0.9,1.7-3.9,1.1-3.9-0.9h5.8V132.9
			L1202.2,132.9z M1196.4,132.9c0.2-2.3,4.2-2.4,4.2,0H1196.4z"/>
		<path class="st28" d="M1202.2,145.2v1c-2-2.4-6.4-0.7-6.2,2.4c-0.3,3.2,4.1,4.9,6.1,2.5v1h1.6l0.1-7h-1.6V145.2z M1202.1,148.7
			c0.1,3.1-4.8,3.1-4.6,0C1197.5,145.7,1202.4,145.7,1202.1,148.7z"/>
		<path class="st28" d="M1209.1,132.7c-0.1-1.7-2.7-2-3.5-0.7c-0.6,0.7-0.3,4.2-0.4,5.1h-1.6l0.1-7h1.6v0.8c5.2-3.3,5.8,2.3,5.3,6.2
			h-1.6C1209,136.8,1209.1,132.8,1209.1,132.7L1209.1,132.7L1209.1,132.7z"/>
		<path class="st28" d="M1215.8,150.1c-0.6,3.1-6.6,3-6.7-0.3h1.7c0.2,2.5,5.2,0.9,2.8-0.9c-1.2-0.7-3.1-0.5-4-1.7
			c-2.3-4,5.9-5.5,6.2-1.4h-1.7c-0.2-1.9-4-1.4-3.1,0.6C1212.4,147.7,1216.3,147.1,1215.8,150.1L1215.8,150.1z"/>
		<path class="st28" d="M1216.2,128.2c0-1.2,2-1.2,2,0S1216.2,129.4,1216.2,128.2z"/>
		<polygon class="st28" points="1216.4,130 1217.9,130 1217.8,137 1216.2,137 		"/>
		<polygon class="st28" points="1219.2,152.2 1217.6,152.2 1217.8,145.2 1219.3,145.2 		"/>
		<path class="st28" d="M1219.6,143.6c-0.2,1.1-2.2,0.8-2-0.4S1219.9,142.4,1219.6,143.6z"/>
		<polygon class="st28" points="1220,127.6 1221.6,127.6 1221.5,133.1 1224.3,130 1226.5,130 1222.9,133.5 1226.4,137 1224.3,137 
			1221.5,134 1221.5,137 1219.9,137 		"/>
		<path class="st28" d="M1227,150.6c-0.7,2.6-5.9,2.3-6.1-0.5h1.6c0.1,2,4.5,0.8,2.3-0.5c-1-0.4-2.3-0.4-3.2-1.2
			c-2.7-3.4,5.3-4.8,5.3-1.1h-1.6c0.1-1.5-3.5-1.3-2.5,0.2C1224.2,148.6,1227.3,148.2,1227,150.6L1227,150.6L1227,150.6z"/>
		<path class="st28" d="M1232.5,146.4h-1.8c0.2,1.5-1.1,5.4,1.8,4.6v1.2c-4.4,0.7-3.3-3-3.3-5.9h-0.9v-1.2h0.9v-1.7h1.6v1.7h1.8
			L1232.5,146.4L1232.5,146.4L1232.5,146.4z"/>
		<polygon class="st28" points="1230.4,130 1232.1,130 1234.1,135.7 1236.4,130 1238.1,130 1235,137 1233.2,137 		"/>
		<path class="st28" d="M1240.9,148.1c-0.3-3.8-6.5-3.9-7.4-0.4c-1.4,4.4,5.6,6.6,7.2,2.4h-1.7c-0.9,1.7-4,1.1-4-0.9h5.8
			C1240.9,148.9,1240.9,148.5,1240.9,148.1L1240.9,148.1z M1235,148.1c0.2-2.3,4.2-2.4,4.2,0H1235z"/>
		<path class="st28" d="M1246.2,132.8c-0.4-4.1-7.1-3.8-7.5,0.1c-0.9,4.3,5.8,5.8,7.3,1.9h-1.7c-0.8,1.7-4,1.1-4-0.9h5.9
			C1246.3,133.6,1246.3,133.2,1246.2,132.8L1246.2,132.8L1246.2,132.8z M1240.4,132.9c0.2-2.3,4.2-2.4,4.2,0H1240.4z"/>
		<path class="st28" d="M1254.9,152.3h-1.6c-0.2-1.6,1.1-6.1-1.8-5.9c-2.9-0.2-1.8,4.2-2.1,5.9h-1.6c-0.1-1.8,1.1-6.5-2.2-5.8
			c-2.4,0.1-1.4,4.3-1.6,5.8h-1.6l0.1-7h1.6v0.8c1.3-1.4,4-1.2,5,0.5c1.1-1.8,4.3-1.9,5.4,0C1255.3,147.6,1254.8,151.1,1254.9,152.3
			L1254.9,152.3L1254.9,152.3z"/>
		<path class="st28" d="M1256.9,143.4c0-1.2,2-1.2,2,0S1256.8,144.7,1256.9,143.4z"/>
		<polygon class="st28" points="1256.9,152.3 1257,145.3 1258.6,145.3 1258.5,152.3 		"/>
		<path class="st29" d="M1217.2,129.1c1.3,0,1.3-1.9,0-1.9S1215.9,129.2,1217.2,129.1"/>
		<path class="st28" d="M1158.6,128.4c-0.5,0-0.9-0.4-0.8-0.9h-0.9c-0.3,2.7,4.4,2.7,4.1,0h-0.9
			C1160.1,128.3,1159.2,128.5,1158.6,128.4L1158.6,128.4L1158.6,128.4z"/>
		<polygon class="st28" points="1221.5,137 1221.5,134 1224.3,137 1226.4,137 1222.9,133.5 1226.5,130 1224.3,130 1221.5,133.1 
			1221.6,127.6 1220,127.6 1219.9,137 		"/>
		<polygon class="st28" points="1214.2,137 1214.3,127.6 1212.7,127.7 1212.6,137 		"/>
		<path class="st29" d="M1183.2,129.2c1.2,0,1-1.8-0.2-1.5C1182.1,127.9,1182.2,129.3,1183.2,129.2"/>
		<path class="st29" d="M1180.8,129.2c0.9,0.1,1.1-1.4,0.2-1.5C1179.9,127.5,1179.6,129.3,1180.8,129.2"/>
		<path class="st28" d="M1172.8,137.1c2.4-0.2,4.4-2.4,4.2-4.9h-5.2v1.1h3.6c-0.4,3.4-6,3.1-6.2-0.3c-0.6-3.2,4.1-5.1,5.8-2.3h1.9
			C1170.9,122,1161.4,136.7,1172.8,137.1L1172.8,137.1L1172.8,137.1z"/>
		<path class="st28" d="M1150.5,128.3h-1.8l-3.4,8.7h1.6l0.7-1.8h3.9l0.6,1.8h1.6L1150.5,128.3L1150.5,128.3L1150.5,128.3z
			 M1148,134.1l1.6-4.1l1.5,4.1H1148z"/>
		<path class="st28" d="M1246.2,132.8c-0.4-4.1-7.1-3.8-7.5,0.1c-0.9,4.3,5.8,5.8,7.3,1.9h-1.7c-0.8,1.7-4,1.1-4-0.9h5.9
			C1246.3,133.6,1246.3,133.2,1246.2,132.8L1246.2,132.8L1246.2,132.8z M1240.4,132.9c0.2-2.3,4.2-2.4,4.2,0H1240.4z"/>
		<path class="st28" d="M1205.3,130.1h-1.6l-0.1,7h1.6c0.2-1.6-0.8-6.1,2-5.8c2.8-0.2,1.6,4.2,1.8,5.8h1.6c0.5-3.9-0.1-9.5-5.3-6.2
			V130.1L1205.3,130.1z"/>
		<path class="st28" d="M1202.2,132.9c-0.4-4-7.1-3.8-7.4,0.1c-0.9,4.2,5.7,5.7,7.2,1.9h-1.7c-0.9,1.7-3.9,1.1-3.9-0.9h5.8V132.9
			L1202.2,132.9z M1196.4,132.9c0.2-2.3,4.2-2.4,4.2,0H1196.4z"/>
		<path class="st28" d="M1160.9,130.1v1c-2-2.4-6.3-0.7-6.1,2.4c-0.2,3.2,4.1,4.9,6.1,2.4c0.7,2.8-2.8,4.6-4.2,2h-1.5
			c0.4,3,5.5,3.3,6.8,0.9c0.9-1,0.4-7.4,0.6-8.7L1160.9,130.1L1160.9,130.1z M1160.8,133.9c-0.4,3.2-5.4,2.1-4.4-1
			C1157.1,130.2,1161.4,131.2,1160.8,133.9z"/>
		<polygon class="st28" points="1236.4,130 1234.1,135.7 1232.1,130 1230.4,130 1233.2,137 1235,137 1238.1,130 		"/>
		<polygon class="st28" points="1216.2,137 1217.8,137 1217.9,130 1216.4,130 		"/>
		<polygon class="st28" points="1192.5,130.1 1190.2,135.8 1188.2,130.1 1186.5,130.1 1189.3,137 1191.1,137 1194.1,130.1 		"/>
		<path class="st28" d="M1181.8,135.9c-2.8,0.2-1.6-4.2-1.8-5.8h-1.6c-0.5,3.8,0.2,9.4,5.2,6.1v0.8h1.6l0.1-6.9h-1.6
			C1183.5,131.7,1184.6,136.1,1181.8,135.9L1181.8,135.9L1181.8,135.9z"/>
		<path class="st29" d="M1257.9,144.4c1.3,0,1.3-1.9,0-1.9C1256.6,142.4,1256.6,144.4,1257.9,144.4"/>
		<path class="st29" d="M1218.6,144.3c1.3,0,1.3-1.9,0-1.9S1217.3,144.4,1218.6,144.3"/>
		<polygon class="st28" points="1171,152.1 1171.1,142.8 1169.6,142.8 1169.4,152.1 		"/>
		<path class="st28" d="M1212.1,143.3c-2.2-0.1-4,2.7-2,4.2c1.2,1,3.8,0.4,4.2,2.2c-0.1,1.8-3.3,1.7-3.4,0h-1.7
			c0.1,4.5,9.2,2.4,6.1-1.6c-1-0.9-2.6-0.9-3.8-1.5c-2.2-1.7,2.4-3.2,2.7-0.9h1.7C1215.7,143.9,1213.7,143.1,1212.1,143.3
			L1212.1,143.3z"/>
		<polygon class="st28" points="1150.3,152.1 1150.4,150.9 1147.2,150.9 1147.3,143.4 1145.7,143.4 1145.6,152.1 		"/>
		<path class="st28" d="M1229,146.4c0,2.9-1.1,6.5,3.3,5.9v-1.2c-2.9,0.7-1.5-3.1-1.8-4.6h1.8v-1.2h-1.8v-1.7h-1.6v1.7h-0.9v1.2
			L1229,146.4L1229,146.4L1229,146.4z"/>
		<path class="st28" d="M1248.9,146.2c-1.1-1.4-3.6-1.4-4.8-0.2v-0.8h-1.6l-0.1,7h1.6c0.3-1.5-0.8-5.7,1.6-5.8
			c3.3-0.7,2.1,4.1,2.2,5.8h1.6c0.3-1.6-0.8-6.1,2.1-5.9c2.9-0.2,1.6,4.3,1.8,5.9h1.6c-0.1-1.2,0.4-4.7-0.3-5.8
			c-1.1-1.9-4.3-1.8-5.4,0C1249.1,146.4,1249,146.3,1248.9,146.2L1248.9,146.2L1248.9,146.2z"/>
		<path class="st28" d="M1240.9,148.1c-0.3-3.8-6.5-3.9-7.4-0.4c-1.4,4.4,5.6,6.6,7.2,2.4h-1.7c-0.9,1.7-4,1.1-4-0.9h5.8
			C1240.9,148.9,1240.9,148.5,1240.9,148.1L1240.9,148.1z M1235,148.1c0.2-2.3,4.2-2.4,4.2,0H1235z"/>
		<path class="st28" d="M1224.7,145.2c1.2,0.1,2.3,1,2.3,2.2h-1.6c0-1.7-3.9-1.1-2.2,0.4c1.1,0.5,2.4,0.5,3.3,1.2
			c2.8,3.5-5.4,4.8-5.5,1.1h1.6c0,1.8,4.2,1.1,2.5-0.4c-1.1-0.5-2.5-0.5-3.4-1.3C1219.8,146.6,1222.8,144.7,1224.7,145.2
			L1224.7,145.2L1224.7,145.2z"/>
		<path class="st28" d="M1202.2,145.2v1c-2-2.4-6.4-0.7-6.2,2.4c-0.3,3.2,4.1,4.9,6.1,2.5v1h1.6l0.1-7h-1.6V145.2z M1202.1,148.7
			c0.1,3.1-4.8,3.1-4.6,0C1197.5,145.7,1202.4,145.7,1202.1,148.7z"/>
		<path class="st28" d="M1188.6,146.2c-1.1-1.4-3.5-1.4-4.7-0.1v-0.8h-1.6l-0.1,7h1.6c0.3-1.6-0.9-6,2-5.8c2.8-0.2,1.6,4.2,1.8,5.8
			h1.5c0.2-1.8-0.8-6.5,2.4-5.8c2.4,0.2,1.2,4.3,1.4,5.8h1.6c-0.1-1.2,0.4-4.7-0.3-5.7c-1.1-1.8-4.2-1.8-5.3,0
			C1188.8,146.4,1188.7,146.3,1188.6,146.2L1188.6,146.2z"/>
		<path class="st28" d="M1178.7,145.2v1c-2.2-2.6-6.7-0.4-6.2,2.9c0.2,2.9,4.2,4.2,6.1,2v1.1h1.6l0.1-7H1178.7z M1178.7,149
			c-0.3,3.1-5.1,2.3-4.5-0.7C1174.5,145.3,1179.2,146,1178.7,149z"/>
		<polygon class="st28" points="1256.9,152.3 1258.5,152.3 1258.6,145.3 1257,145.3 		"/>
		<polygon class="st28" points="1217.6,152.2 1219.2,152.2 1219.3,145.2 1217.8,145.2 		"/>
		<path class="st29" d="M1160.8,132.9c-0.7-2.9-5.3-1.5-4.4,1.3C1157.1,137.2,1161.7,135.8,1160.8,132.9z"/>
		<path class="st29" d="M1202,147.8c-1.2-2.8-5.4-0.9-4.3,1.9C1198.9,152.5,1203.2,150.5,1202,147.8z"/>
		<path class="st29" d="M1178.6,148c-0.7-2.9-5.3-1.6-4.4,1.3C1175,152.3,1179.5,150.9,1178.6,148z"/>
		<path class="st28" d="M1150.5,128.3h-1.8l-3.4,8.7h1.6l0.7-1.8h3.9l0.6,1.8h1.6L1150.5,128.3L1150.5,128.3L1150.5,128.3z
			 M1148,134.1l1.6-4.1l1.5,4.1H1148z"/>
		<path class="st29" d="M1160.1,127.5c0.1,1.2-2.4,1.3-2.3,0h-0.9c-0.3,2.7,4.4,2.7,4.1,0H1160.1L1160.1,127.5z M1160.9,130.1v1
			c-2-2.4-6.3-0.7-6.1,2.4c-0.2,3.2,4.1,4.9,6.1,2.4c0.7,2.8-2.8,4.6-4.2,2h-1.5c0.4,3,5.5,3.3,6.8,0.9c0.9-1,0.4-7.4,0.6-8.7
			L1160.9,130.1L1160.9,130.1z M1160.8,133.9c-0.4,3.2-5.4,2.1-4.4-1C1157.1,130.2,1161.4,131.2,1160.8,133.9z"/>
		<path class="st28" d="M1172.4,128.2c-4.3-0.3-6.8,5.6-3.1,8c3,2.2,8.2,0,7.7-4h-5.2v1.2h3.5c-0.3,3-5,3.3-6,0.6
			c-1.5-3.4,3.6-6.3,5.6-3.1h1.9C1176,129.1,1174.2,128.2,1172.4,128.2L1172.4,128.2z"/>
		<path class="st29" d="M1183.9,128.2c-0.4-0.9-1.9-0.3-1.5,0.6C1182.8,129.7,1184.3,129.1,1183.9,128.2z M1181.6,128.3
			c-0.2-1-1.8-0.7-1.6,0.3C1180.2,129.6,1181.8,129.3,1181.6,128.3z M1183.8,130.1c-0.3,1.6,0.8,6-2,5.8c-2.8,0.2-1.6-4.2-1.8-5.8
			h-1.6c-0.5,3.8,0.2,9.4,5.2,6.1v0.8h1.6l0.1-6.9L1183.8,130.1L1183.8,130.1z"/>
		<polygon class="st28" points="1194.1,130.1 1192.5,130.1 1190.2,135.8 1188.2,130.1 1186.5,130.1 1189.3,137 1191.2,137 		"/>
		<path class="st28" d="M1202.2,132.9c-0.4-4-7.1-3.8-7.4,0.1c-0.9,4.2,5.7,5.7,7.2,1.9h-1.7c-0.9,1.7-3.9,1.1-3.9-0.9h5.8V132.9
			L1202.2,132.9z M1196.4,132.9c0.2-2.3,4.2-2.4,4.2,0H1196.4z"/>
		<path class="st28" d="M1207.6,129.9c-0.8,0-1.7,0.3-2.3,0.9V130h-1.6l-0.1,7h1.6c0.2-1.6-0.8-6,2-5.8c2.8-0.2,1.6,4.2,1.8,5.8h1.6
			C1210.6,134.6,1211.5,129.7,1207.6,129.9L1207.6,129.9L1207.6,129.9z"/>
		<polygon class="st28" points="1214.3,127.7 1212.7,127.7 1212.6,137 1214.2,137 		"/>
		<path class="st29" d="M1218.1,127.8c-0.5-1.2-2.6-0.3-1.8,0.9C1216.9,129.6,1218.5,128.9,1218.1,127.8z M1216.4,130l-0.1,7h1.6
			l0.1-7H1216.4z"/>
		<polygon class="st28" points="1221.6,127.6 1220.1,127.6 1219.9,137 1221.5,137 1221.5,134 1224.3,137 1226.4,137 1222.9,133.5 
			1226.5,130 1224.3,130 1221.5,133.1 		"/>
		<polygon class="st28" points="1238.1,130 1236.4,130 1234.1,135.7 1232.1,130 1230.4,130 1233.2,137 1235,137 		"/>
		<path class="st28" d="M1246.2,132.8c-0.4-4.1-7.1-3.8-7.5,0.1c-0.9,4.3,5.8,5.8,7.3,1.9h-1.7c-0.8,1.7-4,1.1-4-0.9h5.9
			C1246.3,133.6,1246.3,133.2,1246.2,132.8L1246.2,132.8L1246.2,132.8z M1240.4,132.9c0.2-2.3,4.2-2.4,4.2,0H1240.4z"/>
		<polygon class="st28" points="1147.3,143.4 1145.7,143.4 1145.6,152.1 1150.3,152.1 1150.4,150.9 1147.2,150.9 		"/>
		<path class="st28" d="M1158.7,148.1c-0.7-5.2-9.4-3.1-7.3,1.9C1152.9,153.8,1159.4,152.3,1158.7,148.1z M1157.2,149
			c-0.6,3.4-5.7,1.8-4.3-1.4C1153.9,145.2,1157.7,146.4,1157.2,149z"/>
		<path class="st28" d="M1165.9,145.2v1c-2.2-2.6-6.7-0.4-6.1,2.9c0.2,2.9,4.2,4.2,6.1,1.9c0.7,2.8-2.8,4.6-4.2,2h-1.5
			c0.4,3,5.4,3.2,6.8,0.9c0.8-1.1,0.4-7.4,0.5-8.7L1165.9,145.2L1165.9,145.2z M1165.9,149c-0.4,3-5.1,2.3-4.5-0.7
			C1161.7,145.3,1166.4,146,1165.9,149z"/>
		<polygon class="st28" points="1171.1,142.8 1169.6,142.8 1169.4,152.1 1171,152.1 		"/>
		<path class="st29" d="M1178.7,145.2v1c-2.2-2.6-6.7-0.4-6.2,2.9c0.2,2.9,4.2,4.2,6.1,2v1.1h1.6l0.1-7H1178.7z M1178.7,149
			c-0.3,3.1-5.1,2.3-4.5-0.7C1174.5,145.3,1179.2,146,1178.7,149z"/>
		<path class="st28" d="M1191.4,145.1c-1,0-2.1,0.5-2.7,1.4c-0.9-1.7-3.6-1.8-4.9-0.5v-0.8h-1.5l-0.1,6.9h1.6c0.2-1.6-0.8-6,2-5.8
			c2.8-0.2,1.6,4.2,1.8,5.8h1.5c0.2-1.6-0.8-6,2-5.8c2.8-0.2,1.6,4.2,1.8,5.8h1.5C1194.4,149.7,1195.3,144.8,1191.4,145.1
			L1191.4,145.1L1191.4,145.1z"/>
		<path class="st29" d="M1202.2,145.2v1c-2-2.4-6.4-0.7-6.2,2.4c-0.3,3.2,4.1,4.9,6.1,2.5v1h1.6l0.1-7h-1.6V145.2z M1202.1,148.7
			c0.1,3.1-4.8,3.1-4.6,0C1197.5,145.7,1202.4,145.7,1202.1,148.7z"/>
		<path class="st28" d="M1212.6,143.3c-2.2-0.3-4.5,2.2-2.7,4c1.1,1,2.8,0.8,4,1.6c1.9,2-2.9,3.2-3,0.8h-1.7
			c0.1,4.2,8.7,2.7,6.3-1.4c-0.9-1.1-2.6-1.1-3.9-1.6c-2.6-1.6,2.1-3.5,2.5-1.1h1.7C1215.7,144.1,1214,143.2,1212.6,143.3
			L1212.6,143.3L1212.6,143.3z"/>
		<path class="st29" d="M1219.6,143.2c-0.2-1.2-2.2-0.8-2,0.4S1219.8,144.4,1219.6,143.2z M1217.8,145.2l-0.1,7h1.6l0.1-7H1217.8z"
			/>
		<path class="st28" d="M1224.1,145.1c-5.4,0.7-2.5,4.2,1.2,4.7c1.1,1.6-2.7,1.8-2.7,0.3h-1.6c0.2,4.2,9.1,1.8,5.1-1.4
			c-6.3-1.2-1.6-3.9-0.6-1.3h1.6C1227,145.9,1225.4,145.1,1224.1,145.1L1224.1,145.1z"/>
		<path class="st28" d="M1230.7,143.5h-1.6v1.7h-0.9v1.2h0.9c0,2.8-1.1,6.6,3.3,5.8V151c-3,0.7-1.5-3-1.8-4.6h1.8v-1.2h-1.8
			L1230.7,143.5L1230.7,143.5z"/>
		<path class="st28" d="M1240.9,148.1c-0.3-3.8-6.5-3.9-7.4-0.4c-1.4,4.4,5.6,6.6,7.2,2.4h-1.7c-0.9,1.7-4,1.1-4-0.9h5.8
			C1240.9,148.9,1240.9,148.5,1240.9,148.1L1240.9,148.1z M1235,148.1c0.2-2.3,4.2-2.4,4.2,0H1235z"/>
		<path class="st28" d="M1251.8,145.2c-1,0-2.2,0.5-2.7,1.4c-1-1.7-3.7-1.8-5-0.5v-0.8h-1.6l-0.1,7h1.6c0.2-1.6-0.8-6.1,2.1-5.9
			c2.9-0.2,1.6,4.3,1.8,5.9h1.6c0.2-1.6-0.8-6.1,2.1-5.9c2.9-0.2,1.6,4.3,1.8,5.9h1.6C1254.9,149.8,1255.8,144.9,1251.8,145.2
			L1251.8,145.2L1251.8,145.2z"/>
		<path class="st29" d="M1258.9,143.2c-0.2-1.2-2.2-0.9-2,0.4C1257.1,144.8,1259.1,144.4,1258.9,143.2z M1257,145.3l-0.1,7h1.6
			l0.1-7H1257z"/>
	</g>
</g>
<g>
	<path class="st4" d="M1609,107.3c0.1,5.8-6,5.8-5.9,0C1603,101.5,1609,101.5,1609,107.3z"/>
	<path class="st4" d="M1352,181.3c0,4.1-4.2,4.1-4.2,0S1352.1,177.2,1352,181.3z"/>
	<path class="st4" d="M1349.9,67.6c0,4.1-4.2,4.1-4.2,0C1345.7,63.6,1350,63.6,1349.9,67.6z"/>
</g>
</svg>
