<?xml version="1.0" encoding="UTF-8"?>
<svg id="katman_1" data-name="katman 1" xmlns="http://www.w3.org/2000/svg" xmlns:xlink="http://www.w3.org/1999/xlink" viewBox="0 0 1689.2 210.32" >
  <defs>
    <style>
      .cls-1 {
        clip-path: url(#clippath);
      }
      svg{
        height: fit-content;
      }

      .cls-2 {
        fill: none;
      }

      .cls-2, .cls-3, .cls-4, .cls-5, .cls-6, .cls-7, .cls-8, .cls-9, .cls-10, .cls-11, .cls-12, .cls-13, .cls-14, .cls-15, .cls-16, .cls-17, .cls-18, .cls-19, .cls-20, .cls-21, .cls-22, .cls-23 {
        stroke-width: 0px;
      }

      .cls-3 {
        fill: #1b1464;
        opacity: .18;
      }

      .cls-3, .cls-4 {
        isolation: isolate;
      }

      .cls-24 {
        clip-path: url(#clippath-1);
      }

      .cls-25 {
        clip-path: url(#clippath-4);
      }

      .cls-26 {
        clip-path: url(#clippath-3);
      }

      .cls-27 {
        clip-path: url(#clippath-2);
      }

      .cls-28 {
        clip-path: url(#clippath-7);
      }

      .cls-29 {
        clip-path: url(#clippath-6);
      }

      .cls-30 {
        clip-path: url(#clippath-5);
      }

      .cls-4 {
        fill: #0071bc;
        opacity: .14;
      }

      .cls-31 {
        opacity: .66;
      }

      .cls-32 {
        opacity: .69;
      }

      .cls-6 {
        fill: #f9fbfe;
      }

      .cls-7 {
        fill: #878787;
      }

      .cls-8 {
        fill: #0c8236;
      }

      .cls-9 {
        fill: #ddeaf1;
      }

      .cls-10 {
        fill: #c69c6d;
      }

      .cls-11 {
        fill: #d71e16;
      }

      .cls-12 {
        fill: #e20e17;
      }

      .cls-13 {
        fill: #a9afb1;
      }

      .cls-14 {
        fill: #c1272d;
      }

      .cls-15 {
        fill: #a5c7d3;
      }

      .cls-16 {
        fill: #b7b7b7;
      }

      .cls-17 {
        fill: #b3b3b3;
      }

      .cls-18 {
        fill: #333132;
      }

      .cls-19 {
        fill: #f1e519;
      }

      .cls-20 {
        fill: #fff;
      }

      .cls-21 {
        fill: #edf5f9;
      }

      .cls-22 {
        fill: #fbfcfe;
      }

      .cls-23 {
        fill: #010101;
      }
    </style>
    <clipPath id="clippath">
      <path class="cls-2" d="m835.2,181.12c-3.3,0-21-.1-24.7-.2-1.8-.4-7.4,1.1-7.3-2.1l-.2-23.7c-.1-2.6,3.5-2,5.2-2.1-.4-2.3,1.1-3.6,3.3-3.2-.2-1.5.1-3.8,2.1-3.7h12.8c2-.1,2.3,2.2,2.2,3.7,2.2-.4,3.8.9,3.4,3.3,1.7.1,5.3-.6,5.2,2.1l.2,23.8c-.1,1.2-1.1,2.2-2.2,2.1"/>
    </clipPath>
    <clipPath id="clippath-1">
      <path class="cls-2" d="m765.7,180.62c-3.2,0-20.5-.1-24.1-.2-1.8-.3-7.2,1.1-7.1-2.1l-.3-23.4c-.1-2.6,3.4-2,5-2.1-.4-2.2,1-3.6,3.2-3.2-.2-1.5,0-3.7,2-3.7h12.5c2,0,2.3,2.1,2.1,3.7,2.2-.4,3.6,1,3.3,3.2,1.7.1,5.2-.6,5.2,2.1l.2,23.5c.1,1.3-.9,2.2-2,2.2"/>
    </clipPath>
    <clipPath id="clippath-2">
      <path class="cls-2" d="m698,180.12c-3.2,0-20-.1-23.5-.2-1.8-.3-7,1.1-7-2.1l-.4-23.1c-.1-2.6,3.3-2,4.9-2-.4-2.2.9-3.5,3.1-3.1-.2-1.5,0-3.6,2-3.6h12.2c2,0,2.2,2.1,2.1,3.6,2.2-.4,3.6,1,3.2,3.2,1.7.1,5-.5,5,2.1l.3,23.2c.1,1.1-.8,2-1.9,2"/>
    </clipPath>
    <clipPath id="clippath-3">
      <path class="cls-2" d="m631.9,179.62c-3.1,0-19.5-.1-22.9-.2-1.7-.3-6.9,1-6.8-2l-.5-22.8c-.1-2.5,3.2-2,4.8-2-.4-2.1.9-3.5,3-3.1-.2-1.4,0-3.6,1.9-3.6h11.9c1.9,0,2.2,2.1,2,3.6,2.2-.4,3.5,1,3.2,3.1,1.6.1,4.9-.5,4.9,2l.4,22.9c.1,1.2-.8,2.1-1.9,2.1"/>
    </clipPath>
    <clipPath id="clippath-4">
      <path class="cls-2" d="m567.4,179.12c-3,0-19-.1-22.4-.2-1.7-.3-6.7,1-6.7-2l-.5-22.5c-.1-2.5,3.1-1.9,4.7-2-.4-2.1.8-3.4,3-3.1-.2-1.4-.1-3.6,1.8-3.5h11.6c1.9,0,2.1,2.1,2,3.5,2.1-.4,3.4,1,3.1,3.1,1.6,0,4.8-.5,4.8,2l.5,22.6c.1,1.2-.8,2.2-1.9,2.1"/>
    </clipPath>
    <clipPath id="clippath-5">
      <path class="cls-2" d="m504.5,178.72c-3,0-18.6-.1-21.9-.2-1.7-.3-6.6,1-6.5-2l-.6-22.2c-.1-2.4,3-1.9,4.5-1.9-.4-2,.8-3.4,2.9-3-.2-1.4-.1-3.5,1.8-3.5h11.3c1.9,0,2,2.1,2,3.5,2.1-.4,3.3,1,3,3.1,1.6,0,4.7-.5,4.7,2l.6,22.4c.1.8-.7,1.8-1.8,1.8"/>
    </clipPath>
    <clipPath id="clippath-6">
      <path class="cls-2" d="m361.6,145.62h-20.7c-1.6.3-6.3-1-6,1.9l.8,21.7c0,2.3,2.9,1.9,4.4,1.9-.2,1.9.9,3.3,2.9,3-.1,1.4.1,3.4,1.9,3.4l10.7.1c1.8,0,1.8-2.1,1.6-3.4,2,.4,3.1-1,2.7-2.9,1.5,0,4.5.5,4.3-1.9l-.8-21.8c.1-1-.7-2-1.8-2"/>
    </clipPath>
    <clipPath id="clippath-7">
      <rect class="cls-2" x="857.76" y="157.87" width="85.75" height="30.47"/>
    </clipPath>
  </defs>
  <g>
    <g>
      <path class="cls-3" d="m1689.2,113.52c-76.7,17.7-381.5,96.1-403.9,96.7,199.4-94.7,179.5-100.7,403.9-96.7Z"/>
      <g>
        <path class="cls-22" d="m1617.3,2.02c-7,1.5-298.5,63.6-305.3,65.1l-28.4.3L0,80.32C364.9,2.82,1238.4-4.98,1617.3,2.02Z"/>
        <g>
          <path class="cls-9" d="m1299.3,189.02c0-3.8,4.5-3.8,4.4,0,.1,3.8-4.5,3.8-4.4,0Z"/>
          <path class="cls-9" d="m1301.5,86.12c0-3.8,4.5-3.8,4.5,0s-4.5,3.8-4.5,0Z"/>
          <path class="cls-9" d="m1305,130.72c2.9-.1,2.9,5.9,0,5.9s-2.9-5.9,0-5.9Z"/>
          <path class="cls-9" d="m1623.4,13.62c-5.6,126.7,29.6,98.4-85.1,129.8-75,18.9-179,49.4-254.8,66.9V65.62c5.9.8,314.7-61.5,328.9-63.6,6.3-.2,11.1,4.7,11,11.6Z"/>
          <g class="cls-31">
            <path class="cls-15" d="m1390.5,120.32c.7-2.1,5.5-2.4,4.3.5-1.5.8-22.6,52.8-25.9,49.2-1.1-.1-1.6-1-1.1-2.1l22.7-47.6h0Z"/>
            <path class="cls-15" d="m1393.7,113.42c-1,.8-2.7,1-3.2.1l-22.7-36c-1.2-2,3.1-4.5,4.3-2.5l22.7,35.8c.5.8,0,1.9-1.1,2.6h0Z"/>
            <path class="cls-15" d="m1413.9,118.22c.7-2,5.4-2.5,4.3.4-1.6,1.3-17.2,38.8-20.5,36.9-1.2.1-2-.8-1.4-2.1l17.6-35.2h0Z"/>
            <path class="cls-15" d="m1397.3,74.82c1.1-.7,2.7-.8,3.2.1l17.6,26.1c1.2,1.8-3.2,4.4-4.3,2.6l-17.6-26.3c-.4-.7.1-1.9,1.1-2.5h0Z"/>
            <path class="cls-15" d="m1418.7,112.12c-7.8.7,1.5-8.9,3-3.2.1,1.3-1.3,2.7-3,3.2Z"/>
            <path class="cls-15" d="m1438.6,107.72c.7-1.9,5.4-2.4,4.3.4-1.4,1-22.7,48.5-25.6,46-6.6,2.7,22.4-46.2,21.3-46.4h0Z"/>
            <path class="cls-15" d="m1441.8,101.32c-1,.8-2.7,1-3.2.1l-22.7-32.9c-1.2-2,3.2-4.2,4.3-2.4l22.7,32.7c.5.8,0,1.9-1.1,2.5h0Z"/>
            <path class="cls-15" d="m1461.9,105.32c.6-1.8,5.4-2.4,4.3.3-1.3.9-17.9,37-20.5,34.4-1.2.1-2-.7-1.4-1.9l17.6-32.8h0Z"/>
            <path class="cls-15" d="m1445.4,65.72c1.1-.7,2.7-.8,3.2.1l17.6,23.7c1.2,1.8-3.3,4.1-4.3,2.5l-17.5-24c-.5-.7-.1-1.8,1-2.3h0Z"/>
            <path class="cls-15" d="m1554.7,76.82c1-.7,2.7-.9,3.2-.3l22.7,22c.7.5-.4,1.7-1.4,2.2-1.1.7-2.4.8-2.9.3l-22.7-22.2c-.4-.5,0-1.4,1.1-2h0Z"/>
            <path class="cls-15" d="m1576.3,37.62c.5-1.3,5.4-1.9,4.3.3-1.3.8-23.2,37.4-25.6,34.9-1.1.1-2.1-.5-1.4-1.5.1.1,22.7-33.7,22.7-33.7Z"/>
            <path class="cls-15" d="m1531.3,86.12c1-.7,2.7-1,3.2-.3l17.6,18.1c.7.6-.3,1.8-1.4,2.3-1.1.7-2.4.8-2.9.3l-17.6-18.3c-.4-.5.1-1.5,1.1-2.1h0Z"/>
            <path class="cls-15" d="m1534.6,74.22c-.6,1.5-5.4,2.3-4.3-.2,1.4-.9,17.8-30.9,20.5-28.5,1.1,0,2.1.7,1.4,1.6l-17.6,27.1h0Z"/>
            <path class="cls-15" d="m1532.8,80.52c.3,2.1-5.8,4.3-6.1,1.6-.3-2.2,5.8-4.4,6.1-1.6Z"/>
            <path class="cls-15" d="m1506.6,89.32c1-.7,2.7-1,3.2-.2l22.7,25.1c.5.5,0,1.5-1.1,2.2-1,.8-2.7,1.1-3.2.5l-22.7-25.3c-.4-.7,0-1.7,1.1-2.3Z"/>
            <path class="cls-15" d="m1528.2,46.42c.6-1.5,5.4-1.9,4.3.5-1.2.7-23.2,40.8-25.6,38.1-1.1.1-2.1-.7-1.4-1.7.1,0,22.7-36.9,22.7-36.9Z"/>
            <path class="cls-15" d="m1483.3,98.92c1-.7,2.7-1,3.2-.2l17.6,20.5c1.2,1.6-3.3,4.1-4.3,2.7l-17.6-20.6c-.5-.7,0-1.7,1.1-2.4h0Z"/>
            <path class="cls-15" d="m1499.8,55.92c.6-1.6,5.4-2,4.3.5l-17.6,29.5c-.5.9-1.8,1.5-2.9,1.4-1.1,0-2-.8-1.4-1.8l17.6-29.6Z"/>
            <path class="cls-15" d="m1474.2,93.32c4.4-.9,3.4,3.6,0,4.3-4.4,1-3.4-3.6,0-4.3Z"/>
          </g>
          <path class="cls-6" d="m1309.7,198.92c-7.1,1.6-19.3,3.4-25.8,6.9v4.4c2.3-.6,10.4-2.7,12.8-3.3l24.3-10.3c.1-.9.2-2,.3-3.1l-11.6,5.4h0Zm6-132.6c-2.7-2.3-5.4-3.7-7.3-4.6l-24.9,4v1.8c2.4-.3,31.1.1,32.2-1.2h0Zm-10.7,70.3c2.9.1,2.9-5.9,0-5.9-2.9-.1-2.9,5.9,0,5.9Zm1-50.5c0-3.8-4.5-3.8-4.5,0s4.5,3.8,4.5,0Zm-6.7,102.9c0,3.8,4.5,3.8,4.4,0,.1-3.8-4.5-3.8-4.4,0Z"/>
          <path class="cls-4" d="m1316.1,202.82l292.3-77.9c6.9-1.3,10-4.7,12.1-7.9l-299.7,80.1c-1.2,2.9-1.6,4.5-4.7,5.7h0Z"/>
          <g>
            <path class="cls-15" d="m1307.2,133.62c0,3.8-4.5,3.8-4.5,0s4.6-3.8,4.5,0Z"/>
            <path class="cls-15" d="m1303.7,189.02c.1,3.8-4.5,3.8-4.4,0-.1-3.8,4.5-3.8,4.4,0Z"/>
            <path class="cls-15" d="m1306,86.12c0,3.8-4.5,3.8-4.5,0s4.5-3.8,4.5,0Z"/>
          </g>
        </g>
        <g class="cls-32">
          <g>
            <path class="cls-17" d="m1049.5,24.62c-120.2,5.7-37.4,21.6,25.8,5.9-2.9,0-39-.1-41.2,1.1,2,.7,5.6-.3,8,.4-6.3,4.4-25.8,5.4-32.6,2,7.1-7,50.2-12.1,57.1-5.6,1.9.1,4.1.2,5.9-.2-.2-.1,10.7-4,9.2-4-10.7,1.1-21.4.2-32.2.4"/>
            <path class="cls-17" d="m928.5,36.92c-29.8-.7,35.7-15.5,38.5-8.2-11.6,6.2-25.5,7.7-38.5,8.2m30.3-10.9c-4.4-.7-72.9,4.5-56.2,11,19.3,6.5,140.9-10.6,56.2-11"/>
            <path class="cls-17" d="m847.1,28.32c-1.2,0-2.6.1-3.7.7,2.4.3,5.2-.3,7.6.2v.1c-11.8,4.2-31.9,10.1-44.1,10.4,2,.5,64-.9,66.4-.9.5.1,15.9-4.1,16.7-4.4v-.1l-.1-.1h.1c-15.8,1.5-31.6,4.7-47.6,3.7,11.4-4.2,30.5-10,42.5-10.1.3-.3-.9-.1-1.1-.2l-36.7.7"/>
            <path class="cls-17" d="m861,21.92c-41.1,2.2-176.5,22.7-217.8,26.1,3.6-.2,74.7-.2,43.9-2.3l73.4-9.5,9,8.3c-6.1.5-12.3.3-18.1,1.9,14.7-.5,39.4,0,53.9-1.1-.6-1.6-7-.5-9-1.5-.3,0-.6-.1-.8-.2l-13.2-10.4,87.2-11.2c-2.9-.2-5.7-.1-8.5-.1m-100.1,1.6c-4.7.1-9.4.4-14,.9l9.9,8.9,22.3-2.9c-6.1-5.2-9.8-7.8-18.2-6.9"/>
          </g>
        </g>
        <g>
          <path class="cls-20" d="m1283.8,192.62c0-6-.2-103.6-.2-125.2-14.1,0-281.8,6.2-288.2,3.7l-.1,32.2c-9.4-10.2-22.1-4.7-29.8,4.2l22.8,31.4-16.2,22.5c-8.8,1.7-9.3,12.7-10.3,19.8l33.3.2-.1,19.4v.6l7.3.1c.8-.6-1.7-41.1,1.6-39,.4.2.7.5.6.9l-.1,38.1,60.5.7c.5-8,6.1-15.5,14.7-14.5,8.7-.8,14.1,6.9,14.5,14.9,18.5-.7,176.1,3.9,189.8.4l-.1-10.4h0Zm-281.1-111.5c0-1.3,2.1-1.4,2.1,0l-.1,32.7c0,.4-.3.8-.7.9-3.2,2.5-.6-33.4-1.3-33.6Zm-26.7,27c3.6-3.6,9.5-2.2,12.2,2l13.7,18.7-5.4,7.5-20.5-28.2h0Zm57.7,64.8c-4.6,0-14.2-.1-18.8-.1-.4-2.5,2.5-3.3,4.9-4.2l-16.9-23.4-16.9,23c2.4.8,6,1.7,5.3,4.4-5.9-.1-14.8-.1-20.7-.1.2-3.3,3.9-3.1,5.9-5,1.2-.9,38.1-52.7,39.1-53.8,2.8-5,9.1-9.8,14.6-6l-22.1,30.1c.5.4,21.3,29.6,22,29.9,1.9,1.9,5.9,1.9,6.3,5.1h-2.7v.1h0Zm22.5-16.4c0,.4-.4.7-.8.7l-26.1-.1c-.3,0-.6-.1-.7-.4-.7-3.3,3.1-.4,3.9-2.9.5-3.6.6-21.5.1-25.1-.6-1.8-3.8-.1-3.9-1.6,0-.6-.1-1.5.8-1.4.4.4,17.2-.9,16.4.7.5,2.7-3.2.4-4.1,2.3-.9,3.8-.7,20.9-.3,24.8l.1-.1s.1-.1.1,0c0-.1.1,0,.1,0,15.7,3.1,10.1-10.6,15.3-8.1.6-.3-.9,11-.9,11.2h0Zm37.7-12.9c-5.5,26.4-44.2,11.4-30.3-12,9.4-14.7,33.9-5.6,30.3,12Zm1.5-69.6c-.7,12.2-9.6,19.1-21.3,15.1-7.2-2.7-8.3-11.8-8.6-18.5,5.6-.1,24.4-.3,30.2-.4-.1,1.1-.1,2.4-.3,3.8h0Zm36.2,70.3c-.2,1.3-2.3.4-3,1.4-1.7,1.6-.5,7.3-1,9.3-16.2,10.2-39.6-3.3-28.1-22.6,4.8-7.1,15-9.8,22.8-6,.8.3,1.9.9,2.8.6v-.2c.4-.4.5-1,.8-1.4.3-.7,2.4-.8,2.3.2-.4.5.7,12.1-.9,11.5-3.2.4-2.4-10-12.9-9-12.6,2.2-10,34.2,5,25.6l.1-5.7c.2-1.5-.3-3.2-2.1-3.1-.7-.1-2,.3-1.9-.7,0-.6-.1-1.5.8-1.4h14.6c.8,0,.7.9.7,1.5h0Zm-57.5-67c-.6,5.9,4.6,13.8,10.3,8.1,3.1-4,2.3-10.3,2.6-15.1l-13.1.2c0,1.9,0,4.7.2,6.8h0Zm11.4,120.8c.2-4.8-4.4-10-9.1-6.8-3.2,2.5-3,7.2-3.4,10.9l12.8.1c-.1-1.3-.1-2.8-.3-4.2h0Zm-1.4-61.3c.3-7.5-7.5-13.7-12.2-5.6-2.9,6.7-4.1,24.3,6.8,23,6.5-2.7,5.4-11.6,5.4-17.4h0Zm-10.3-66.2c.4,5.4-1.2,16.3,6.5,16.8,7.8-.6,6.2-11.4,6.6-16.9l-13.1.1h0Zm10.4,68.5c-1.1-21.3-18-10.8-13.6,7.6.4,4.9,4.8,10.1,9.8,6.8,4-3.4,3.7-9.5,3.8-14.4h0Zm-886.2,53.2s-5-111.5-5-111.6C193,80.82,0,80.12,0,80.32s1.1,16.1,1.1,16.3c2.4,10.3,1.3,82.3,10.7,88.7-1.4,11,180.6,5.2,186.3,7.4l-.1-.4m-113.8-67.8c-1-.1-1.7-32.9-2.1-33.4,0-.3.1-.5.4-.6.3,0,.5.3.5.5l1.7,32.9c.2.4-.2.7-.5.6h0Zm106-2.1c3.6-.2,2.4-5.7,2.1-8.1-.9-2.5-5.1-1.8-7.1-1.5-2.3.9-1.2,4.8-1.3,6.7,0,3.4,4,3,6.3,2.9h0Zm-119.8-3.1c3.3.8,10.6,14.6,12.7,17l-3,5.5-13.9-21.2c.9-1,2.6-1.8,4.2-1.3h0Zm-3.1,49.8c2.9,0,8.3.1,11.2.1.2-1.8-1.9-2.7-3.6-3.2l9.6-17.2,11.6,17.5c-1.6.6-3.3,1.4-3,3,3.7,0,10,0,13.7.1-.3-2.4-3.1-2.6-4.5-4.1l-14.7-22.1,12.6-22.6c-3.8-2.9-7.4,1.1-8.8,4.5-.6.8-21.6,39.7-22.3,40.3-1.3,1.4-3.7,1.5-3.6,3.8l1.8-.1h0Zm123.6-32.6c4.4-.2,3.3-6.4,2.7-9.2-1.1-3-5.6-2.6-8.1-2-2.7,1.2-1.7,5.2-1.7,7.5,0,3.8,4.2,3.9,7.1,3.7h0Zm-34.4.3c3.6-.2,2.3-5.7,2-8-.9-2.5-5-1.9-7-1.5-2.3.9-1.2,4.8-1.3,6.6.1,3.3,4,2.9,6.3,2.9h0Zm23,11.9c3.6-.2,2.4-5.7,2-8-.9-2.5-5-1.9-7.1-1.6-2.3,1-1.2,4.8-1.3,6.6.1,3.4,4.1,3,6.4,3h0Zm11.9.1c3.7-.2,2.4-5.7,2.1-8-.9-2.5-5.1-1.9-7.1-1.6-2.3,1-1.2,4.8-1.3,6.7,0,3.3,4,2.9,6.3,2.9h0Zm.1,13.2c3.6-.1,2.4-5.7,2.1-8-.9-2.5-5-1.9-7.1-1.6-2.3,1-1.2,4.8-1.3,6.6,0,3.4,4,3,6.3,3h0Zm-104,26.7c-.9.1-1.4-25.9-1.7-26.2,0-.2.2-.4.4-.4,1.2-.2,1.4,25.9,1.8,26.3.1.3-.2.4-.5.3h0Zm93.3-13.9c3.6-.2,2.4-5.7,2-8-.9-2.5-5-1.9-7-1.6-2.3.9-1.2,4.8-1.3,6.6,0,3.4,4,3,6.3,3h0Zm-12,.4c3.6-.2,2.4-5.6,2-7.9-.9-2.5-5-1.9-7-1.6-2.3.9-1.2,4.8-1.3,6.6,0,3.3,4,2.9,6.3,2.9h0Zm918.1-104.8c-.4,5.5,1.2,16.3-6.6,16.9-7.7-.5-6.1-11.4-6.5-16.8l13.1-.1M186.9,126.72c-2.8.2-1.5,5.1-1.4,6.9.7,2,4.5,1.2,6,1.1,1.8-.7.7-4.5.9-5.9,0-2.9-3.8-2-5.5-2.1h0Zm888.8,1.1c-9.3,3.5-7.2,34.1,5.6,24.9,4.4-5.6,5.7-27.5-5.6-24.9Zm10,74.6c1.2-15.9-13.4-16-12.8-.1l12.8.1"/>
          <path class="cls-9" d="m1085.7,202.32l-12.8-.1c-.1,1.6-.2,3.2-.2,4.7l13,.1c.1-1.5.1-3.2,0-4.7h0Zm198.4-.9c-2.3.5-190,1-190,1,.2,1.6.4,3.1.4,4.7-8.7-.1-21.3-.2-30-.4,0-1.5.2-3.1.4-4.7l-60.5-.7c-.2.8.6,6.3-.6,6.5l279.8,2.3.5-8.7h0ZM0,80.22c.4,13.9,4.6,81.9,5.3,97.2.3,4.9,2.2,9.6,5.5,13.2,7.6,15.7,980.4,11.9,992.1,17.3-1.2-.2-.4-5.8-.6-6.5l-7.2-.1v6.5l-796.7-9.5-.1-3c-99.2,1.8-145.5-2-168.8-6.1C1.5,184.22,6.6,164.02,0,80.22Z"/>
          <path class="cls-21" d="m1308.4,61.72h0l-24.9,5.7c-.1,14.6.6,131.5,0,142.9,45.5-14,43,10.8,43.3-76.2,0-22.2-1.4-52.2-2.9-61.5-1.3-8.1-4.8-13.1-15.5-10.9h0Zm-4.7,21.5c2.9-.1,2.9,5.9,0,5.8-2.9.1-2.9-5.9,0-5.8Zm-2.2,108.7c-2.9.1-2.9-5.9,0-5.9s2.9,6,0,5.9Zm3.5-55.3c-2.9.1-2.9-5.9,0-5.9s2.9,5.9,0,5.9Z"/>
          <path class="cls-11" d="m97.4,119.52c-3.2,0-4.6,3.1-5.9,5.5-.5.8-21.6,39.7-22.3,40.2-1.2,1.4-3.7,1.5-3.6,3.8,3.7,0,9.3.1,12.9.1.2-1.8-1.9-2.6-3.6-3.2l9.6-17.2,11.6,17.5c-1.6.6-3.3,1.4-3,3,3.7,0,10,.1,13.7.1-.2-2.4-3.1-2.6-4.5-4.1l-14.7-22.1,12.6-22.6c-.7-.6-1.7-1-2.8-1h0Zm-28-.4c-1.2,0-2.5.7-3.2,1.5l13.9,21.2,3-5.5c-2.7-2.8-9.2-17.2-13.7-17.2h0Z"/>
          <path class="cls-12" d="m82.6,90.52c-.3,0-.5.2-.4.5.5.6.8,33.4,2.2,33.4,1.3,0-1.7-32.9-1.2-33.5-.1-.1-.3-.4-.6-.4h0Z"/>
          <path class="cls-12" d="m86.3,162.12c-1.3-.2,1.3,25.9.9,26.3,0,.2.3.4.5.4,1.3.2-1.3-25.9-.9-26.3,0-.3-.3-.4-.5-.4h0Z"/>
          <path class="cls-14" d="m198.1,192.22s.3,5.9.3,6.1l796.7,9.5v-7.1l-797-8.5h0Z"/>
          <path class="cls-12" d="m224.7,153.12c-1.6.1-5.7-.8-5.4,2,.3,1.4-.5,5.2,1.4,5.9,1.5.1,5.4.9,6-1.1,0-1.8.8-6.6-2-6.8h0Zm23.8-13.2c-1.6.1-5.7-.8-5.5,2.1.3,1.5-.5,5.3,1.4,5.9,1.5.1,5.5.9,6.1-1.1,0-1.9.9-6.8-2-6.9h0Zm-25-13.8c-1.6.2-5.7-.8-5.4,2.1.3,1.4-.5,5.2,1.4,5.9,1.5.1,5.4.9,6.1-1.1-.1-1.9.8-6.8-2.1-6.9h0Zm-1.5,49.5c-3.6-.2-2.9-5.6-2.8-8.1.8-2.6,5.1-1.8,7-1.5,2.4.9,1.7,4.8,1.9,6.7.3,3.4-3.9,2.9-6.1,2.9h0Zm12.2-.5c-3.6-.2-3-5.6-2.8-8.1.8-2.6,5.1-1.8,7.1-1.5,2.4.9,1.7,4.8,1.9,6.7.3,3.5-3.9,3-6.2,2.9h0Zm-.5-13c-3.6-.2-3-5.6-2.8-8.1.8-2.6,5.1-1.9,7.1-1.5,2.4.9,1.7,4.8,1.9,6.7.2,3.5-4,3-6.2,2.9h0Zm-12.3.8c-4.3-.2-3.9-6.2-3.6-9.2.9-3.1,5.6-2.5,8-2,2.8,1.1,2.3,5.1,2.4,7.5.5,4-4,4-6.8,3.7h0Zm-.6-14.3c-3.6-.2-2.9-5.6-2.8-8.1.8-2.6,5.1-1.9,7-1.6,2.4.9,1.7,4.8,1.9,6.7.4,3.6-3.9,3.1-6.1,3h0Zm24.5,1.2c-4.4-.1-4-6.2-3.6-9.3,1-3.2,5.7-2.5,8.1-2,2.8,1.1,2.3,5.2,2.4,7.5.4,4-4.1,4-6.9,3.8h0Zm-25-13.8c-4.4-.1-3.9-6.2-3.6-9.3.9-3.2,5.6-2.5,8.1-2,2.8,1.1,2.3,5.2,2.4,7.5.3,3.9-4.1,4-6.9,3.8h0Zm-12.9-14.4c-3.6-.2-2.9-5.6-2.8-8.1.8-2.6,5-1.9,7-1.6,2.4.9,1.7,4.8,1.9,6.7.4,3.5-3.8,3.1-6.1,3h0Zm11.7-13.6c-3.6-.2-2.9-5.6-2.8-8.1.8-2.6,5.1-1.9,7.1-1.6,2.4.9,1.7,4.8,1.9,6.7.2,3.5-4,3-6.2,3h0Zm776.3-37l-802.3,9.7,5,111.5,796.9,8.6.1-19.5-33.3-.2c1-7.1,1.4-18.1,10.3-19.8l16.3-22.5-22.8-31.4c7.7-8.9,20.4-14.4,29.8-4.2v-32.2h0Z"/>
          <path class="cls-12" d="m1114.6,124.72c-32.5,3.5-17.2,47,13,30.1,0-1.2,0-6.9.2-8,.4-1.7,2.3-1.5,3.6-1.9.4-.5.4-2.1-.6-2h-14.6c-.8-.1-.8.8-.8,1.4.3,1.5,2.7.1,3.5,1.3,1.1,1.4.2,6.5.5,8.2-15.5,8.6-18-25.7-3.6-25.8,9.2,0,8.2,9.9,11.8,9,.9.4.3-11.1.6-11.4.1-.9-1.2-.7-1.8-.7-.8.2-.8,1.4-1.3,1.9-.3.6-1.2.1-1.7,0-2.8-1.1-5.7-2.3-8.8-2.1h0Z"/>
          <path class="cls-12" d="m1077.1,154.42c-10.3-.5-9.6-29.8,2.2-26.8,7.4,3,7.2,26.9-2.2,26.8h0Zm1.2-30.1c-22.2-1.8-23.5,33.7-1,33.2,21.1,1.3,22.4-33.6,1-33.2h0Z"/>
          <path class="cls-12" d="m1045.2,125.62h-15.7c-.8-.1-.8.8-.8,1.4.2,1.6,3.3-.1,3.9,1.6.6,2.5,0,21.1.1,23.9.1,4.4-4.6.7-4.2,3.9,0,.4.3.7.7.7.3-.1,26.1.2,26.3,0,.3-.1.5-.3.5-.7-.1-.3,1.5-11.5.8-11.3-5.3-2.3.8,10.9-15.5,8.2-.5-.9,0-20.4-.1-21.9-.1-1.7.2-4.1,2.5-3.8.5-.1,1.8.2,2-.4.3-.4.4-1.6-.5-1.6h0Z"/>
          <path class="cls-12" d="m1026,106.42c-4.8,0-7.9,3.7-10.3,7.4-.9,1-38,53.1-39.1,53.8-1.9,1.9-5.7,1.7-5.9,5,5.9,0,14.8.1,20.7.1.6-2.7-2.9-3.7-5.3-4.4l16.9-23,16.9,23.4c-2.4.9-5.3,1.7-4.9,4.2,5.8,0,15.7.1,21.5.1-.4-3.3-4.3-3.2-6.3-5.1-.6-.2-21.5-29.5-22-29.9l22.1-30.1c-1.1-1-2.8-1.6-4.3-1.5h0Zm-44.8-.4c-1.9,0-3.9.9-5.2,2.1l20.5,28.2,5.4-7.5c-4.2-4.1-13.7-23.3-20.7-22.8h0Z"/>
          <path class="cls-12" d="m1003.7,80.12c-.5,0-1,.5-1,1l-.1,32.7c0,.7.8,1.2,1.5.9.4-.2.7-.5.7-.9l.1-32.7c-.1-.6-.6-1-1.2-1h0Z"/>
          <path class="cls-12" d="m1003.4,162.42c-.5,0-1,.4-1,1l-.1,38.1c.4.9-1.1,7.3,1.3,6.6,1.4-.1.5-5.8.8-6.6l.1-38.1c0-.6-.5-1-1.1-1h0Z"/>
          <path class="cls-20" d="m237.5,165.32c-2.2,0-6.5-.6-6.2,2.9.2,1.9-.5,5.8,1.9,6.7,2,.3,6.3,1.1,7.1-1.5.1-2.5.8-7.9-2.8-8.1h0Z"/>
          <path class="cls-20" d="m236.9,152.32c-2.2,0-6.5-.6-6.2,2.9.2,1.9-.5,5.8,1.9,6.7,2,.3,6.3,1.1,7.1-1.5.2-2.5.9-7.9-2.8-8.1h0Z"/>
          <path class="cls-20" d="m245.2,148.02c-2.9-.1-2-5-2-6.9.6-2,4.6-1.2,6.1-1.1,1.9.7,1.1,4.5,1.4,5.9.2,2.9-3.9,2-5.5,2.1h0Zm3.2-9.9c-2.8-.2-7.3-.2-7,3.8.2,2.4-.4,6.4,2.4,7.5,2.5.5,7.2,1.2,8.1-2,.5-3,1-9.1-3.5-9.3h0Z"/>
          <path class="cls-20" d="m224.1,138.82c-2.2,0-6.4-.5-6.1,2.9.2,1.9-.5,5.8,1.9,6.7,2,.3,6.3,1.1,7-1.5.1-2.5.8-8-2.8-8.1h0Z"/>
          <path class="cls-20" d="m220.2,134.22c-2.9-.1-2-5-2-6.9.6-2,4.5-1.2,6-1.1,1.9.7,1.1,4.5,1.4,5.9.3,2.9-3.7,2-5.4,2.1h0Zm3.2-9.8c-2.8-.2-7.2-.2-6.9,3.8.2,2.4-.4,6.4,2.4,7.5,2.4.5,7.1,1.1,8.1-2,.4-3.1.8-9.2-3.6-9.3h0Z"/>
          <path class="cls-20" d="m210.6,111.82c-2.2,0-6.4-.5-6.1,3,.2,1.9-.4,5.8,1.9,6.7,2,.3,6.2,1,7-1.6.2-2.5.9-8-2.8-8.1h0Z"/>
          <path class="cls-20" d="m222.3,98.12c-2.2,0-6.5-.5-6.2,3,.2,1.9-.5,5.8,1.9,6.7,2,.3,6.3,1,7.1-1.6.1-2.4.8-8-2.8-8.1h0Z"/>
          <path class="cls-20" d="m221.4,161.22c-2.8-.2-2-5-2-6.9.6-2,4.5-1.2,6-1.1,1.9.7,1.1,4.5,1.4,5.9.3,3-3.8,2-5.4,2.1h0Zm3.2-9.8c-2.8-.2-7.2-.2-6.9,3.8.2,2.4-.4,6.4,2.4,7.5,2.4.5,7.1,1.2,8.1-2,.4-3.1.8-9.1-3.6-9.3h0Z"/>
          <path class="cls-20" d="m225.2,165.82c-2.2,0-6.4-.6-6.1,2.9.2,1.9-.4,5.8,1.9,6.7,2,.3,6.2,1.1,7-1.5.2-2.5.9-8-2.8-8.1h0Z"/>
          <path class="cls-12" d="m180.4,165.02c-2.2,0-6.3-.6-6,2.9.2,1.9-.4,5.7,1.9,6.6,1.9.3,6.1,1.1,6.9-1.5.1-2.4.8-7.8-2.8-8h0Z"/>
          <path class="cls-12" d="m191.1,152.22c-2.2,0-6.4-.5-6.1,2.9.2,1.9-.4,5.8,1.9,6.6,2,.3,6.2,1.1,6.9-1.5.2-2.4.9-7.9-2.7-8h0Z"/>
          <path class="cls-12" d="m191,139.02c-2.2,0-6.4-.5-6.1,2.9.2,1.9-.4,5.8,1.9,6.7,2,.3,6.2,1.1,6.9-1.5.2-2.5.9-7.9-2.7-8.1h0Z"/>
          <path class="cls-12" d="m187.2,134.72c-2.8-.2-2-5-2-6.8.6-2,4.5-1.2,5.9-1.1,1.8.7,1.1,4.5,1.4,5.9.3,2.8-3.7,1.9-5.3,2h0Zm3.2-9.8c-2.8-.2-7.1-.1-6.8,3.8.2,2.3-.4,6.4,2.4,7.4,2.9.7,8.5.9,8.1-3.5-.1-2.7.2-7.6-3.7-7.7h0Z"/>
          <path class="cls-12" d="m189.8,112.62c-2.2,0-6.4-.5-6.1,2.9.2,1.9-.4,5.8,1.9,6.7,2,.3,6.2,1,7-1.6.2-2.5.9-7.9-2.8-8h0Z"/>
          <path class="cls-12" d="m156.1,127.02c-2.2,0-6.3-.5-6,2.9.2,1.9-.4,5.7,1.9,6.6,1.9.3,6.1,1,6.9-1.5.1-2.4.8-7.8-2.8-8h0Z"/>
          <path class="cls-12" d="m179,138.92c-2.2,0-6.3-.5-6,2.9.2,1.9-.4,5.7,1.9,6.6,2,.3,6.1,1.1,6.9-1.5.2-2.4.8-7.8-2.8-8h0Z"/>
          <path class="cls-12" d="m168.4,165.52c-2.2,0-6.3-.6-6,2.8.2,1.9-.4,5.7,1.9,6.6,1.9.3,6.1,1.1,6.9-1.5.1-2.4.8-7.8-2.8-7.9h0Z"/>
          <path class="cls-18" d="m311.6,160.92c-12.3.1-11,19.9.8,19.9s11-19.9-.8-19.9h0Z"/>
          <path class="cls-18" d="m446,166.52c-6.6,0-6,10.6.3,10.5,6.7,0,6.1-10.6-.3-10.5h0Z"/>
          <path class="cls-18" d="m445.6,152.42c-6.6,0-6.1,10.6.3,10.5,6.6,0,6.1-10.6-.3-10.5h0Z"/>
          <path class="cls-20" d="m355.4,145.62c2.1.4,7.9-1.4,8,1.9l.8,21.8c.2,2.4-2.8,1.9-4.3,1.9.4,1.9-.7,3.3-2.7,2.9.1,1.3.2,3.4-1.6,3.4l-10.7-.1c-1.8,0-2-2.1-1.9-3.4-2,.3-3.1-1-2.9-3-1.5,0-4.4.4-4.4-1.9.4-.9-2-23.9.2-23.4,6.2-.3,13.3.1,19.5-.1h0Zm11.8-4h-36.5c-2.8,0-4.9,2.6-4.8,5.3.6,2.6-.2,33.3,2.7,34.4-.1,3.1,38.1,1.3,40,1.9,2.8.1,5-2.6,4.8-5.3l-1.1-30.9c.1-2.8-2.2-5.4-5.1-5.4h0Z"/>
          <path class="cls-20" d="m385.9,174.42c-4.4.1-2.3-10.4-3-12.8-.1-1.4,1-2.8,2.5-2.7,1.5.3,35.1-.3,36.7.4,3,.8,1.4,10.6,2,12.7.1,1.4-1.1,2.8-2.5,2.8l-35.7-.4h0Zm-.7-22.4c-4.4.1-2.3-10.4-3-12.8-.1-1.4,1-2.8,2.5-2.8,1.6.3,35.1-.5,36.7.2,3,.8,1.4,10.6,2,12.7.1,1.4-1.1,2.8-2.5,2.8l-35.7-.1h0Zm38.7-23.6l-43.1.1c-2.9,0-5,2.6-4.9,5.4.7,2.3.1,47.4,3.1,47.8.2,3.2,44.6,1.3,46.6,2,2.9.1,5.1-2.6,5-5.4l-1.4-44.5c-.1-2.8-2.4-5.5-5.3-5.4h0Z"/>
          <path class="cls-20" d="m478.1,178.52c-1,0-1.9-.9-1.9-1.9l-.6-22.2c-.1-2.4,3-1.9,4.5-1.9-.4-2,.8-3.4,2.9-3-.2-1.4-.1-3.5,1.8-3.5h11.3c1.9,0,2,2.1,2,3.5,2.1-.4,3.3,1,3,3.1,1.6,0,4.7-.5,4.7,2l.6,22.4c.2,3-4.8,1.6-6.5,1.9-3.4-.3-18.8-.4-21.8-.4h0Zm-6.6-27.5c-4.6,0-4.9-7.6-.1-7.5,4.5.1,4.7,7.5.1,7.5h0Zm38.2.1c-4.7.1-4.9-7.7-.1-7.5,4.6.1,4.8,7.5.1,7.5h0Zm-.1-9.5h-38.6c-2.9-.1-5.2,2.6-5.1,5.5.6,2.7-.5,34.2,2.5,35.3-.2,3.1,40.3,1.4,42.2,2,2.9.1,5.3-2.6,5.2-5.5l-.8-31.8c0-2.9-2.4-5.5-5.4-5.5h0Z"/>
          <path class="cls-23" d="m421.1,159.02l-35.7-.1c-1.5,0-2.6,1.3-2.5,2.7.6,2.1-1,11.7,2,12.6,1,.6,35.6.2,36.6.5,4.5.2,1.7-10.5,2.2-12.9.1-1.5-1.1-2.8-2.6-2.8h0Z"/>
          <path class="cls-23" d="m420.4,136.42h-35.7c-1.5,0-2.6,1.3-2.5,2.8.6,2.1-1,11.8,2,12.6,1,.6,35.6.1,36.7.3,4.5.2,1.7-10.6,2.2-12.9,0-1.4-1.2-2.8-2.7-2.8h0Z"/>
          <path class="cls-8" d="m509.5,143.62c-4.8,0-4.4,7.6.2,7.6,4.8-.1,4.5-7.7-.2-7.6h0Z"/>
          <path class="cls-19" d="m471.3,143.52c-4.7,0-4.4,7.5.2,7.5s4.4-7.5-.2-7.5h0Z"/>
          <path class="cls-20" d="m540.4,178.92c-1.1,0-1.9-.9-2-2l-.5-22.5c-.1-2.5,3.1-1.9,4.7-2-.4-2.1.8-3.4,3-3.1-.2-1.4-.1-3.6,1.8-3.5h11.6c1.9,0,2.1,2.1,2,3.5,2.1-.4,3.4,1,3.1,3.1,1.6.1,4.8-.5,4.8,2l.5,22.6c.2,3-5,1.7-6.6,1.9-3.5.2-19.3.1-22.4,0h0Zm-6.7-27.7c-4.8.1-4.9-7.8,0-7.6,4.6.1,4.7,7.6,0,7.6h0Zm39.2.1c-4.8.1-5-7.8,0-7.6,4.6,0,4.8,7.6,0,7.6h0Zm-.1-9.6h-39.5c-3,0-5.3,2.6-5.2,5.6.6,2.7-.7,34.6,2.5,35.8-.2,3.2,41.3,1.4,43.2,2,3,.1,5.4-2.6,5.3-5.5l-.7-32.1c0-3.2-2.6-5.8-5.6-5.8h0Z"/>
          <path class="cls-8" d="m572.7,143.62c-4.9,0-4.6,7.7.2,7.6,4.9.1,4.6-7.7-.2-7.6h0Z"/>
          <path class="cls-19" d="m533.5,143.62c-4.8,0-4.5,7.6.2,7.6s4.5-7.7-.2-7.6h0Z"/>
          <path class="cls-20" d="m604.2,179.42c-1.1,0-2-.9-2-2l-.5-22.8c-.1-2.5,3.2-2,4.8-2-.4-2.1.9-3.5,3-3.1-.2-1.4,0-3.6,1.9-3.6h11.9c1.9,0,2.2,2.1,2,3.6,2.2-.4,3.5,1,3.2,3.1,1.6.1,4.9-.5,4.9,2l.4,22.9c.2,3.1-5.1,1.7-6.8,1.9-3.4.2-19.6,0-22.8,0h0Zm-6.7-28.1c-4.9.1-5-7.9,0-7.7,4.7.1,4.8,7.7,0,7.7h0Zm40.1.1c-5,.1-5.1-7.9,0-7.7,4.8,0,4.9,7.7,0,7.7h0Zm0-9.7h-40.5c-3-.1-5.5,2.6-5.4,5.6.6,2.8-.8,35,2.4,36.2-.2,3.2,42.3,1.4,44.3,2,3,.1,5.6-2.6,5.5-5.6l-.6-32.5c0-3.1-2.7-5.8-5.7-5.7h0Z"/>
          <path class="cls-8" d="m637.4,143.72c-5,0-4.7,7.8.1,7.7,5.1,0,4.8-7.8-.1-7.7h0Z"/>
          <path class="cls-19" d="m597.3,143.62c-4.9,0-4.6,7.8.2,7.7,4.9,0,4.6-7.8-.2-7.7h0Z"/>
          <path class="cls-20" d="m669.5,179.92c-1.1,0-2-.9-2-2l-.4-23.1c-.1-2.6,3.3-2,4.9-2-.4-2.2.9-3.5,3.1-3.1-.2-1.5,0-3.6,2-3.6h12.2c2,0,2.2,2.1,2.1,3.6,2.2-.4,3.6,1,3.2,3.2,1.7.1,5-.5,5,2.1l.3,23.2c.2,3.1-5.2,1.7-7,2-3.5-.2-20.1-.3-23.4-.3h0Zm-6.7-28.5c-5,.1-5.1-8,0-7.8,4.9.2,5,7.9,0,7.8h0Zm41.1.1c-5.1.1-5.1-8.1,0-7.8,5,.1,5,7.9,0,7.8h0Zm.1-9.8h-41.5c-3.1-.1-5.6,2.6-5.5,5.7.6,2.8-1,35.5,2.3,36.6-.2,3.2,43.4,1.4,45.4,2.1,3.1.1,5.7-2.6,5.6-5.7l-.5-32.9c0-3.1-2.7-5.8-5.8-5.8h0Z"/>
          <path class="cls-8" d="m703.8,143.72c-5.1,0-4.9,7.9.1,7.8,5.1.1,4.9-7.9-.1-7.8h0Z"/>
          <path class="cls-19" d="m662.7,143.72c-5,0-4.8,7.8.1,7.8s4.8-7.9-.1-7.8h0Z"/>
          <path class="cls-20" d="m736.6,180.42c-1.1,0-2.1-.9-2.1-2.1l-.3-23.4c-.1-2.6,3.4-2,5-2.1-.4-2.2,1-3.6,3.2-3.2-.2-1.5,0-3.7,2-3.7h12.5c2,0,2.3,2.1,2.1,3.7,2.2-.4,3.6,1,3.3,3.2,1.7.1,5.2-.6,5.2,2.1l.2,23.5c.1,3.2-5.4,1.7-7.2,2-3.6.1-20.6,0-23.9,0h0Zm-6.8-28.8c-5,.1-5.2-7.9-.1-7.9,5.1-.1,5.2,8,.1,7.9h0Zm42.1.1c-5.2.1-5.2-8.2.1-7.9,5.1,0,5,8-.1,7.9h0Zm.1-10h-42.5c-3.1-.1-5.8,2.6-5.7,5.8.7,2.9-1.2,35.9,2.2,37.1-.3,3.3,44.5,1.5,46.5,2.1,3.1.1,5.9-2.6,5.8-5.7l-.3-33.3c-.1-3.3-2.8-6-6-6h0Z"/>
          <path class="cls-8" d="m771.8,143.82c-5.2-.1-5,8,.1,7.9,5.2.1,5.1-8.1-.1-7.9h0Z"/>
          <path class="cls-19" d="m729.7,143.72c-5.1-.1-4.9,7.9.1,7.9,5.1.1,4.9-8-.1-7.9h0Z"/>
          <path class="cls-20" d="m805.3,180.92c-1.1,0-2.1-.9-2.1-2.1l-.2-23.7c-.1-2.6,3.5-2,5.2-2.1-.4-2.3,1.1-3.6,3.3-3.2-.2-1.5.1-3.8,2.1-3.7h12.8c2-.1,2.3,2.2,2.2,3.7,2.2-.4,3.8.9,3.4,3.3,1.7.1,5.3-.6,5.2,2.1l.2,23.8c.1,3.2-5.6,1.7-7.3,2-3.9.1-21.4-.1-24.8-.1h0Zm-6.9-29.1c-5.3.1-5.2-8.2.1-8,5.1.1,5.1,8-.1,8h0Zm43.3,0c-5.4.1-5.3-8.3.1-8,5.2.1,5.1,8.2-.1,8h0Zm.1-10h-43.6c-3.2-.1-6,2.6-5.9,5.8.7,2.9-1.4,36.4,2.1,37.6-.3,3.3,45.7,1.5,47.7,2.1,3.2.1,6-2.6,6-5.8l-.2-33.8c0-3.3-2.9-6-6.1-5.9h0Z"/>
          <path class="cls-23" d="m811.3,181.02c.4-.8-1.1-10.3.9-9.9,1.9-.4.7,9.2,1,10l-1.9-.1h0Zm7.2,0c.4-.8-1.1-10.4.9-10,1.9-.4.7,9.2,1,10h-1.9Zm7.3.1c.4-.8-1.1-10.4.9-10,1.9-.4.7,9.2,1,10h-1.9Zm.5-34.9h-12.8c-2-.1-2.3,2.1-2.1,3.7-2.2-.4-3.7.9-3.3,3.2-1.7.1-5.2-.6-5.2,2.1l.2,23.7c-.1,3.2,5.5,1.8,7.3,2.1l19.5.1c1.8-.3,7.5,1.2,7.3-2l-.2-23.8c0-2.7-3.5-2.1-5.2-2.1.4-2.3-1.1-3.6-3.4-3.3.2-1.6,0-3.8-2.1-3.7h0Z"/>
          <g class="cls-1">
            <g>
              <path class="cls-10" d="m812.2,171.02c-2-.4-.5,9.2-.9,9.9h2c-.4-.8.8-10.2-1.1-9.9"/>
              <path class="cls-10" d="m819.5,171.12c-2-.4-.5,9.2-.9,10h2c-.5-.9.8-10.4-1.1-10"/>
              <path class="cls-10" d="m826.7,171.12c-2-.4-.6,9.2-.9,10h2c-.4-.9.9-10.4-1.1-10"/>
            </g>
          </g>
          <path class="cls-23" d="m742.4,180.42c.3-.8-1.1-10.2.8-9.8,1.9-.4.7,9.1,1.1,9.8h-1.9,0Zm7.1.1c.3-.8-1.1-10.2.8-9.8,1.9-.4.7,9.1,1.1,9.9l-1.9-.1h0Zm7.1.1c.4-.8-1.1-10.2.8-9.9,1.9-.4.7,9.1,1.1,9.9h-1.9,0Zm.4-34.5h-12.5c-2-.1-2.2,2.1-2,3.6-2.2-.4-3.6.9-3.2,3.2-1.6.1-5.1-.6-5,2.1l.3,23.4c-.1,3.1,5.4,1.8,7.1,2.1l19,.1c1.7-.3,7.3,1.2,7.2-2l-.2-23.5c0-2.6-3.5-2-5.2-2.1.3-2.2-1.1-3.6-3.3-3.2,0-1.5-.3-3.7-2.2-3.7h0Z"/>
          <g class="cls-24">
            <g>
              <path class="cls-10" d="m743.3,170.62c-1.9-.4-.5,9.1-.8,9.8h1.9c-.4-.8.8-10.1-1.1-9.8"/>
              <path class="cls-10" d="m750.3,170.72c-1.9-.4-.5,9.1-.8,9.8h1.9c-.4-.8.9-10.2-1.1-9.8"/>
              <path class="cls-10" d="m757.4,170.72c-1.9-.4-.5,9.1-.8,9.9h1.9c-.4-.9.8-10.3-1.1-9.9"/>
            </g>
          </g>
          <path class="cls-23" d="m675.3,179.92c.3-.8-1.1-10.1.8-9.7,1.8-.4.7,9,1.1,9.7h-1.9,0Zm6.9.1c.3-.8-1.1-10.1.8-9.7,1.8-.4.7,9,1.1,9.7h-1.9,0Zm6.9.1c.3-.8-1.1-10.1.8-9.7,1.8-.4.7,9,1.1,9.8l-1.9-.1h0Zm.2-34.1h-12.2c-2,0-2.1,2.1-2,3.6-2.2-.4-3.5,1-3.1,3.1-1.6.1-5-.6-4.9,2l.4,23.1c-.1,3.1,5.2,1.8,7,2.1l18.5.1c1.7-.3,7.1,1.2,7-2l-.3-23.2c0-2.6-3.3-2-5-2.1.3-2.2-1.1-3.5-3.2-3.2,0-1.3-.3-3.5-2.2-3.5h0Z"/>
          <g class="cls-27">
            <g>
              <path class="cls-10" d="m676,170.22c-1.9-.4-.4,9-.8,9.7h1.9c-.3-.7.8-10-1.1-9.7"/>
              <path class="cls-10" d="m683,170.32c-1.9-.4-.4,9-.8,9.7h1.9c-.4-.8.7-10.1-1.1-9.7"/>
              <path class="cls-10" d="m689.9,170.32c-1.9-.4-.4,9-.8,9.7h1.9c-.4-.8.7-10-1.1-9.7"/>
            </g>
          </g>
          <path class="cls-23" d="m609.8,179.52c.3-.8-1.1-9.9.7-9.6,1.8-.3.7,8.9,1.1,9.6h-1.8Zm6.7,0c.3-.8-1.1-9.9.7-9.6,1.8-.3.7,8.9,1.1,9.6h-1.8Zm6.7.1c.3-.8-1.1-10,.7-9.6,1.8-.3.7,8.9,1.1,9.6h-1.8Zm.1-33.6h-11.9c-1.9,0-2.1,2.1-1.9,3.6-2.2-.4-3.4,1-3,3.1-1.6.1-4.9-.5-4.8,2l.5,22.8c-.1,3,5.1,1.8,6.8,2l18.1.1c1.7-.3,7,1.2,6.8-1.9l-.4-22.9c0-2.5-3.3-2-4.9-2,.3-2.1-1-3.5-3.2-3.1,0-1.6-.2-3.8-2.1-3.7h0Z"/>
          <g class="cls-26">
            <g>
              <path class="cls-10" d="m610.5,169.92c-1.8-.4-.4,8.9-.7,9.6h1.8c-.4-.8.7-9.9-1.1-9.6"/>
              <path class="cls-10" d="m617.2,169.92c-1.8-.4-.4,8.9-.7,9.6h1.8c-.4-.8.7-9.9-1.1-9.6"/>
              <path class="cls-10" d="m624,169.92c-1.8-.4-.4,8.9-.7,9.6h1.8c-.4-.7.7-9.9-1.1-9.6"/>
            </g>
          </g>
          <path class="cls-23" d="m545.8,179.02c.3-.8-1.1-9.8.7-9.5,1.8-.4.8,8.8,1.1,9.5h-1.8Zm6.6,0c.3-.8-1.1-9.8.7-9.5,1.8-.4.8,8.8,1.1,9.5h-1.8Zm6.6.1c.3-.8-1.1-9.8.7-9.5,1.8-.4.8,8.8,1.1,9.5h-1.8Zm-.1-33.2h-11.6c-1.9,0-2,2.1-1.8,3.5-2.1-.4-3.3,1-3,3.1-1.5.1-4.8-.5-4.7,2l.5,22.5c-.1,3,5,1.7,6.7,2l17.6.1c1.6-.3,6.8,1.1,6.6-1.9l-.5-22.6c0-2.5-3.2-2-4.8-2,.3-2.1-1-3.4-3.1-3.1.2-1.5,0-3.6-1.9-3.6h0Z"/>
          <g class="cls-25">
            <g>
              <path class="cls-10" d="m546.5,169.52c-1.8-.3-.3,8.8-.7,9.5h1.8c-.4-.8.7-9.8-1.1-9.5"/>
              <path class="cls-10" d="m553,169.52c-1.8-.3-.3,8.8-.7,9.5h1.8c-.3-.8.7-9.8-1.1-9.5"/>
              <path class="cls-10" d="m559.6,169.62c-1.8-.3-.3,8.8-.7,9.5h1.8c-.3-.8.7-9.8-1.1-9.5"/>
            </g>
          </g>
          <path class="cls-23" d="m483.4,178.52c.3-.7-1.1-9.7.6-9.4,1.7-.3.8,8.6,1.1,9.4h-1.7Zm6.4.1c.3-.8-1.1-9.7.6-9.4,1.7-.3.8,8.7,1.1,9.4h-1.7Zm6.4,0c.3-.7-1.1-9.7.6-9.4,1.7-.3.8,8.7,1.1,9.4h-1.7Zm-.1-32.8h-11.3c-1.9,0-1.9,2.1-1.8,3.5-2.1-.4-3.2,1-2.9,3-1.5,0-4.7-.5-4.5,1.9l.6,22.2c-.1,2.9,4.8,1.7,6.5,2l17.2.1c1.6-.3,6.7,1.1,6.5-1.9l-.6-22.4c0-2.4-3.1-2-4.7-2,.3-2.1-1-3.4-3-3.1,0-1.2-.2-3.3-2-3.3h0Z"/>
          <g class="cls-30">
            <g>
              <path class="cls-10" d="m484,169.12c-1.8-.4-.3,8.7-.6,9.4h1.7c-.3-.7.6-9.6-1.1-9.4"/>
              <path class="cls-10" d="m490.4,169.22c-1.8-.4-.3,8.7-.6,9.4h1.7c-.3-.8.6-9.7-1.1-9.4"/>
              <path class="cls-10" d="m496.9,169.22c-1.7-.3-.3,8.7-.6,9.4h1.7c-.4-.7.6-9.7-1.1-9.4"/>
            </g>
          </g>
          <path class="cls-23" d="m361.6,145.62h-6.2c-.3.7,1.2,9.4-.5,9.2-1.6.3-.8-8.5-1.2-9.2h-4.4c-.3.7,1.2,9.4-.5,9.2-1.6.3-.8-8.5-1.2-9.2h-4.4c-.3.7,1.2,9.4-.5,9.1-1.6.3-.8-8.4-1.2-9.2-1.8.4-6.8-1.2-6.7,1.9l.8,21.7c0,2.3,2.9,1.9,4.4,1.9-.2,1.9.9,3.3,2.9,3-.1,1.4.1,3.4,1.9,3.4l10.7.1c1.8,0,1.8-2.1,1.6-3.4,2,.4,3.1-1,2.7-2.9,1.5,0,4.5.5,4.3-1.9l-.8-21.8c.2-.9-.6-1.9-1.7-1.9h0Z"/>
          <g class="cls-29">
            <g>
              <path class="cls-10" d="m343.3,145.62h-1.6c.4.8-.5,9.4,1.2,9.2,1.5.3.1-8.5.4-9.2"/>
              <path class="cls-10" d="m349.3,145.62h-1.6c.4.8-.5,9.4,1.2,9.2,1.6.3.1-8.5.4-9.2"/>
              <path class="cls-10" d="m355.4,145.62h-1.6c.4.8-.5,9.4,1.2,9.2,1.6.3.1-8.5.4-9.2"/>
            </g>
          </g>
          <path class="cls-8" d="m841.6,143.82c-5.3-.1-5.2,8.1.1,8,5.3.1,5.2-8.1-.1-8h0Z"/>
          <path class="cls-19" d="m798.3,143.82c-5.2-.1-5.1,8.1.1,8,5.3,0,5.2-8.1-.1-8h0Z"/>
          <path class="cls-13" d="m1073,202.22l-8.1-.1c-.2,1.6-.4,3.1-.4,4.7l8.4.1c-.1-1.5,0-3.1.1-4.7h0Zm21.1.3l-8.3-.1v4.7l8.7.1c-.1-1.6-.2-3.2-.4-4.7h0Z"/>
          <path class="cls-16" d="m1080.2,187.62c-8.9-1.2-14.9,6.2-15.4,14.6l8.1.1c-.6-15.9,13.9-15.7,12.8.1l8.3.1c-.4-7.7-5.3-15.3-13.8-14.9h0Z"/>
          <path class="cls-16" d="m1086.9,70.42c-.4,5.5,1.2,16.3-6.6,16.9-7.7-.5-6.1-11.4-6.5-16.8,0,0,13.1-.1,13.1-.1Zm8.8-.1l-30.2.4c-.3,9.2,4.1,20.8,15.2,19.5,10.8.8,15.1-10.8,15-19.9h0Z"/>
        </g>
      </g>
    </g>
    <g>
      <polygon class="cls-7" points="1212.7 127.72 1214.3 127.62 1214.2 137.02 1212.6 137.02 1212.7 127.72"/>
      <polygon class="cls-7" points="1188.2 130.12 1190.2 135.82 1192.5 130.12 1194.1 130.12 1191.1 137.02 1189.3 137.02 1186.5 130.12 1188.2 130.12"/>
      <path class="cls-7" d="m1182.3,128.52c0-1,1.7-1,1.6,0,.1.9-1.6,1-1.6,0Z"/>
      <path class="cls-7" d="m1180,128.52c0-1,1.6-1,1.6,0,.1.9-1.6,1-1.6,0Z"/>
      <path class="cls-7" d="m1156.9,127.52h.9c-.1,1.3,2.4,1.2,2.3,0h.9c.3,2.7-4.5,2.7-4.1,0h0Z"/>
      <path class="cls-7" d="m1150.5,128.32h-1.8l-3.4,8.7h1.6l.7-1.8h3.9l.6,1.8h1.6l-3.2-8.7h0Zm-2.5,5.8l1.6-4.1,1.5,4.1h-3.1Z"/>
      <polygon class="cls-7" points="1150.3 152.12 1145.6 152.12 1145.7 143.42 1147.3 143.42 1147.2 150.92 1150.4 150.92 1150.3 152.12"/>
      <path class="cls-7" d="m1160.9,130.12v1c-2-2.4-6.3-.7-6.1,2.4-.2,3.2,4.1,4.9,6.1,2.4.7,2.8-2.8,4.6-4.2,2h-1.5c.4,3,5.5,3.3,6.8.9.9-1,.4-7.4.6-8.7h-1.7Zm-.1,3.8c-.4,3.2-5.4,2.1-4.4-1,.7-2.7,5-1.7,4.4,1Z"/>
      <polygon class="cls-7" points="1171 152.12 1169.4 152.12 1169.6 142.82 1171.1 142.82 1171 152.12"/>
      <path class="cls-7" d="m1171.6,137.12c-9.9-2.4.3-14.3,5.2-6.3h-1.9c-1.7-2.7-6.4-.9-5.8,2.3.2,3.4,5.8,3.7,6.2.3h-3.6v-1.1h5.2c.4,2.9-2.5,5.2-5.3,4.8h0Z"/>
      <path class="cls-7" d="m1178.7,145.22v1c-2.2-2.6-6.7-.4-6.2,2.9.2,2.9,4.2,4.2,6.1,2v1.1h1.6l.1-7h-1.6Zm0,3.8c-.3,3.1-5.1,2.3-4.5-.7.3-3,5-2.3,4.5.7Z"/>
      <path class="cls-7" d="m1181.8,137.12c-4.1.5-3.4-4.5-3.3-7h1.6c.2,1.6-1,6,1.8,5.8,2.8.2,1.7-4.2,2-5.8h1.6l-.1,6.9h-1.6v-.8c-.5.6-1.3.8-2,.9h0Z"/>
      <path class="cls-7" d="m1194.5,152.22h-1.6c-.2-1.6,1-6-1.8-5.8-2.8-.2-1.7,4.2-2,5.8h-1.5c-.2-1.6,1-6-1.8-5.8-2.8-.3-1.7,4.2-2,5.8h-1.6l.1-7h1.6v.8c1.3-1.4,4-1.2,4.9.5,1.1-1.8,4.2-1.9,5.3,0,.7,1,.3,4.5.4,5.7h0Z"/>
      <path class="cls-7" d="m1202.2,132.92c-.4-4-7.1-3.8-7.4.1-.9,4.2,5.7,5.7,7.2,1.9h-1.7c-.9,1.7-3.9,1.1-3.9-.9h5.8v-1.1h0Zm-5.8,0c.2-2.3,4.2-2.4,4.2,0h-4.2Z"/>
      <path class="cls-7" d="m1202.2,145.22v1c-2-2.4-6.4-.7-6.2,2.4-.3,3.2,4.1,4.9,6.1,2.5v1h1.6l.1-7h-1.6v.1Zm-.1,3.5c.1,3.1-4.8,3.1-4.6,0,0-3,4.9-3,4.6,0Z"/>
      <path class="cls-7" d="m1209.1,132.72c-.1-1.7-2.7-2-3.5-.7-.6.7-.3,4.2-.4,5.1h-1.6l.1-7h1.6v.8c5.2-3.3,5.8,2.3,5.3,6.2h-1.6c0-.3.1-4.3.1-4.4h0Z"/>
      <path class="cls-7" d="m1215.8,150.12c-.6,3.1-6.6,3-6.7-.3h1.7c.2,2.5,5.2.9,2.8-.9-1.2-.7-3.1-.5-4-1.7-2.3-4,5.9-5.5,6.2-1.4h-1.7c-.2-1.9-4-1.4-3.1.6,1.4,1.3,5.3.7,4.8,3.7h0Z"/>
      <path class="cls-7" d="m1216.2,128.22c0-1.2,2-1.2,2,0s-2,1.2-2,0Z"/>
      <polygon class="cls-7" points="1216.4 130.02 1217.9 130.02 1217.8 137.02 1216.2 137.02 1216.4 130.02"/>
      <polygon class="cls-7" points="1219.2 152.22 1217.6 152.22 1217.8 145.22 1219.3 145.22 1219.2 152.22"/>
      <path class="cls-7" d="m1219.6,143.62c-.2,1.1-2.2.8-2-.4s2.3-.8,2,.4Z"/>
      <polygon class="cls-7" points="1220 127.62 1221.6 127.62 1221.5 133.12 1224.3 130.02 1226.5 130.02 1222.9 133.52 1226.4 137.02 1224.3 137.02 1221.5 134.02 1221.5 137.02 1219.9 137.02 1220 127.62"/>
      <path class="cls-7" d="m1227,150.62c-.7,2.6-5.9,2.3-6.1-.5h1.6c.1,2,4.5.8,2.3-.5-1-.4-2.3-.4-3.2-1.2-2.7-3.4,5.3-4.8,5.3-1.1h-1.6c.1-1.5-3.5-1.3-2.5.2,1.4,1.1,4.5.7,4.2,3.1h0Z"/>
      <path class="cls-7" d="m1232.5,146.42h-1.8c.2,1.5-1.1,5.4,1.8,4.6v1.2c-4.4.7-3.3-3-3.3-5.9h-.9v-1.2h.9v-1.7h1.6v1.7h1.8l-.1,1.3h0Z"/>
      <polygon class="cls-7" points="1230.4 130.02 1232.1 130.02 1234.1 135.72 1236.4 130.02 1238.1 130.02 1235 137.02 1233.2 137.02 1230.4 130.02"/>
      <path class="cls-7" d="m1240.9,148.12c-.3-3.8-6.5-3.9-7.4-.4-1.4,4.4,5.6,6.6,7.2,2.4h-1.7c-.9,1.7-4,1.1-4-.9h5.8c.1-.3.1-.7.1-1.1h0Zm-5.9,0c.2-2.3,4.2-2.4,4.2,0h-4.2Z"/>
      <path class="cls-7" d="m1246.2,132.82c-.4-4.1-7.1-3.8-7.5.1-.9,4.3,5.8,5.8,7.3,1.9h-1.7c-.8,1.7-4,1.1-4-.9h5.9c.1-.3.1-.7,0-1.1h0Zm-5.8.1c.2-2.3,4.2-2.4,4.2,0h-4.2Z"/>
      <path class="cls-7" d="m1254.9,152.32h-1.6c-.2-1.6,1.1-6.1-1.8-5.9-2.9-.2-1.8,4.2-2.1,5.9h-1.6c-.1-1.8,1.1-6.5-2.2-5.8-2.4.1-1.4,4.3-1.6,5.8h-1.6l.1-7h1.6v.8c1.3-1.4,4-1.2,5,.5,1.1-1.8,4.3-1.9,5.4,0,.8,1,.3,4.5.4,5.7h0Z"/>
      <path class="cls-7" d="m1256.9,143.42c0-1.2,2-1.2,2,0s-2.1,1.3-2,0Z"/>
      <polygon class="cls-7" points="1256.9 152.32 1257 145.32 1258.6 145.32 1258.5 152.32 1256.9 152.32"/>
      <path class="cls-2" d="m1217.2,129.12c1.3,0,1.3-1.9,0-1.9s-1.3,2,0,1.9"/>
      <path class="cls-7" d="m1158.6,128.42c-.5,0-.9-.4-.8-.9h-.9c-.3,2.7,4.4,2.7,4.1,0h-.9c0,.8-.9,1-1.5.9h0Z"/>
      <polygon class="cls-7" points="1221.5 137.02 1221.5 134.02 1224.3 137.02 1226.4 137.02 1222.9 133.52 1226.5 130.02 1224.3 130.02 1221.5 133.12 1221.6 127.62 1220 127.62 1219.9 137.02 1221.5 137.02"/>
      <polygon class="cls-7" points="1214.2 137.02 1214.3 127.62 1212.7 127.72 1212.6 137.02 1214.2 137.02"/>
      <path class="cls-2" d="m1183.2,129.22c1.2,0,1-1.8-.2-1.5-.9.2-.8,1.6.2,1.5"/>
      <path class="cls-2" d="m1180.8,129.22c.9.1,1.1-1.4.2-1.5-1.1-.2-1.4,1.6-.2,1.5"/>
      <path class="cls-7" d="m1172.8,137.12c2.4-.2,4.4-2.4,4.2-4.9h-5.2v1.1h3.6c-.4,3.4-6,3.1-6.2-.3-.6-3.2,4.1-5.1,5.8-2.3h1.9c-6-8.7-15.5,6-4.1,6.4h0Z"/>
      <path class="cls-7" d="m1150.5,128.32h-1.8l-3.4,8.7h1.6l.7-1.8h3.9l.6,1.8h1.6l-3.2-8.7h0Zm-2.5,5.8l1.6-4.1,1.5,4.1h-3.1Z"/>
      <path class="cls-7" d="m1246.2,132.82c-.4-4.1-7.1-3.8-7.5.1-.9,4.3,5.8,5.8,7.3,1.9h-1.7c-.8,1.7-4,1.1-4-.9h5.9c.1-.3.1-.7,0-1.1h0Zm-5.8.1c.2-2.3,4.2-2.4,4.2,0h-4.2Z"/>
      <path class="cls-7" d="m1205.3,130.12h-1.6l-.1,7h1.6c.2-1.6-.8-6.1,2-5.8,2.8-.2,1.6,4.2,1.8,5.8h1.6c.5-3.9-.1-9.5-5.3-6.2v-.8h0Z"/>
      <path class="cls-7" d="m1202.2,132.92c-.4-4-7.1-3.8-7.4.1-.9,4.2,5.7,5.7,7.2,1.9h-1.7c-.9,1.7-3.9,1.1-3.9-.9h5.8v-1.1h0Zm-5.8,0c.2-2.3,4.2-2.4,4.2,0h-4.2Z"/>
      <path class="cls-7" d="m1160.9,130.12v1c-2-2.4-6.3-.7-6.1,2.4-.2,3.2,4.1,4.9,6.1,2.4.7,2.8-2.8,4.6-4.2,2h-1.5c.4,3,5.5,3.3,6.8.9.9-1,.4-7.4.6-8.7h-1.7Zm-.1,3.8c-.4,3.2-5.4,2.1-4.4-1,.7-2.7,5-1.7,4.4,1Z"/>
      <polygon class="cls-7" points="1236.4 130.02 1234.1 135.72 1232.1 130.02 1230.4 130.02 1233.2 137.02 1235 137.02 1238.1 130.02 1236.4 130.02"/>
      <polygon class="cls-7" points="1216.2 137.02 1217.8 137.02 1217.9 130.02 1216.4 130.02 1216.2 137.02"/>
      <polygon class="cls-7" points="1192.5 130.12 1190.2 135.82 1188.2 130.12 1186.5 130.12 1189.3 137.02 1191.1 137.02 1194.1 130.12 1192.5 130.12"/>
      <path class="cls-7" d="m1181.8,135.92c-2.8.2-1.6-4.2-1.8-5.8h-1.6c-.5,3.8.2,9.4,5.2,6.1v.8h1.6l.1-6.9h-1.6c-.2,1.6.9,6-1.9,5.8h0Z"/>
      <path class="cls-2" d="m1257.9,144.42c1.3,0,1.3-1.9,0-1.9-1.3-.1-1.3,1.9,0,1.9"/>
      <path class="cls-2" d="m1218.6,144.32c1.3,0,1.3-1.9,0-1.9s-1.3,2,0,1.9"/>
      <polygon class="cls-7" points="1171 152.12 1171.1 142.82 1169.6 142.82 1169.4 152.12 1171 152.12"/>
      <path class="cls-7" d="m1212.1,143.32c-2.2-.1-4,2.7-2,4.2,1.2,1,3.8.4,4.2,2.2-.1,1.8-3.3,1.7-3.4,0h-1.7c.1,4.5,9.2,2.4,6.1-1.6-1-.9-2.6-.9-3.8-1.5-2.2-1.7,2.4-3.2,2.7-.9h1.7c-.2-1.8-2.2-2.6-3.8-2.4h0Z"/>
      <polygon class="cls-7" points="1150.3 152.12 1150.4 150.92 1147.2 150.92 1147.3 143.42 1145.7 143.42 1145.6 152.12 1150.3 152.12"/>
      <path class="cls-7" d="m1229,146.42c0,2.9-1.1,6.5,3.3,5.9v-1.2c-2.9.7-1.5-3.1-1.8-4.6h1.8v-1.2h-1.8v-1.7h-1.6v1.7h-.9v1.2l1-.1h0Z"/>
      <path class="cls-7" d="m1248.9,146.22c-1.1-1.4-3.6-1.4-4.8-.2v-.8h-1.6l-.1,7h1.6c.3-1.5-.8-5.7,1.6-5.8,3.3-.7,2.1,4.1,2.2,5.8h1.6c.3-1.6-.8-6.1,2.1-5.9,2.9-.2,1.6,4.3,1.8,5.9h1.6c-.1-1.2.4-4.7-.3-5.8-1.1-1.9-4.3-1.8-5.4,0-.1,0-.2-.1-.3-.2h0Z"/>
      <path class="cls-7" d="m1240.9,148.12c-.3-3.8-6.5-3.9-7.4-.4-1.4,4.4,5.6,6.6,7.2,2.4h-1.7c-.9,1.7-4,1.1-4-.9h5.8c.1-.3.1-.7.1-1.1h0Zm-5.9,0c.2-2.3,4.2-2.4,4.2,0h-4.2Z"/>
      <path class="cls-7" d="m1224.7,145.22c1.2.1,2.3,1,2.3,2.2h-1.6c0-1.7-3.9-1.1-2.2.4,1.1.5,2.4.5,3.3,1.2,2.8,3.5-5.4,4.8-5.5,1.1h1.6c0,1.8,4.2,1.1,2.5-.4-1.1-.5-2.5-.5-3.4-1.3-1.9-1.8,1.1-3.7,3-3.2h0Z"/>
      <path class="cls-7" d="m1202.2,145.22v1c-2-2.4-6.4-.7-6.2,2.4-.3,3.2,4.1,4.9,6.1,2.5v1h1.6l.1-7h-1.6v.1Zm-.1,3.5c.1,3.1-4.8,3.1-4.6,0,0-3,4.9-3,4.6,0Z"/>
      <path class="cls-7" d="m1188.6,146.22c-1.1-1.4-3.5-1.4-4.7-.1v-.8h-1.6l-.1,7h1.6c.3-1.6-.9-6,2-5.8,2.8-.2,1.6,4.2,1.8,5.8h1.5c.2-1.8-.8-6.5,2.4-5.8,2.4.2,1.2,4.3,1.4,5.8h1.6c-.1-1.2.4-4.7-.3-5.7-1.1-1.8-4.2-1.8-5.3,0-.1-.2-.2-.3-.3-.4h0Z"/>
      <path class="cls-7" d="m1178.7,145.22v1c-2.2-2.6-6.7-.4-6.2,2.9.2,2.9,4.2,4.2,6.1,2v1.1h1.6l.1-7h-1.6Zm0,3.8c-.3,3.1-5.1,2.3-4.5-.7.3-3,5-2.3,4.5.7Z"/>
      <polygon class="cls-7" points="1256.9 152.32 1258.5 152.32 1258.6 145.32 1257 145.32 1256.9 152.32"/>
      <polygon class="cls-7" points="1217.6 152.22 1219.2 152.22 1219.3 145.22 1217.8 145.22 1217.6 152.22"/>
      <path class="cls-2" d="m1160.8,132.92c-.7-2.9-5.3-1.5-4.4,1.3.7,3,5.3,1.6,4.4-1.3Z"/>
      <path class="cls-2" d="m1202,147.82c-1.2-2.8-5.4-.9-4.3,1.9,1.2,2.8,5.5.8,4.3-1.9Z"/>
      <path class="cls-2" d="m1178.6,148.02c-.7-2.9-5.3-1.6-4.4,1.3.8,3,5.3,1.6,4.4-1.3Z"/>
      <path class="cls-7" d="m1150.5,128.32h-1.8l-3.4,8.7h1.6l.7-1.8h3.9l.6,1.8h1.6l-3.2-8.7h0Zm-2.5,5.8l1.6-4.1,1.5,4.1h-3.1Z"/>
      <path class="cls-2" d="m1160.1,127.52c.1,1.2-2.4,1.3-2.3,0h-.9c-.3,2.7,4.4,2.7,4.1,0h-.9,0Zm.8,2.6v1c-2-2.4-6.3-.7-6.1,2.4-.2,3.2,4.1,4.9,6.1,2.4.7,2.8-2.8,4.6-4.2,2h-1.5c.4,3,5.5,3.3,6.8.9.9-1,.4-7.4.6-8.7h-1.7Zm-.1,3.8c-.4,3.2-5.4,2.1-4.4-1,.7-2.7,5-1.7,4.4,1Z"/>
      <path class="cls-7" d="m1172.4,128.22c-4.3-.3-6.8,5.6-3.1,8,3,2.2,8.2,0,7.7-4h-5.2v1.2h3.5c-.3,3-5,3.3-6,.6-1.5-3.4,3.6-6.3,5.6-3.1h1.9c-.8-1.8-2.6-2.7-4.4-2.7h0Z"/>
      <path class="cls-2" d="m1183.9,128.22c-.4-.9-1.9-.3-1.5.6.4.9,1.9.3,1.5-.6Zm-2.3.1c-.2-1-1.8-.7-1.6.3.2,1,1.8.7,1.6-.3Zm2.2,1.8c-.3,1.6.8,6-2,5.8-2.8.2-1.6-4.2-1.8-5.8h-1.6c-.5,3.8.2,9.4,5.2,6.1v.8h1.6l.1-6.9h-1.5,0Z"/>
      <polygon class="cls-7" points="1194.1 130.12 1192.5 130.12 1190.2 135.82 1188.2 130.12 1186.5 130.12 1189.3 137.02 1191.2 137.02 1194.1 130.12"/>
      <path class="cls-7" d="m1202.2,132.92c-.4-4-7.1-3.8-7.4.1-.9,4.2,5.7,5.7,7.2,1.9h-1.7c-.9,1.7-3.9,1.1-3.9-.9h5.8v-1.1h0Zm-5.8,0c.2-2.3,4.2-2.4,4.2,0h-4.2Z"/>
      <path class="cls-7" d="m1207.6,129.92c-.8,0-1.7.3-2.3.9v-.8h-1.6l-.1,7h1.6c.2-1.6-.8-6,2-5.8,2.8-.2,1.6,4.2,1.8,5.8h1.6c0-2.4.9-7.3-3-7.1h0Z"/>
      <polygon class="cls-7" points="1214.3 127.72 1212.7 127.72 1212.6 137.02 1214.2 137.02 1214.3 127.72"/>
      <path class="cls-2" d="m1218.1,127.82c-.5-1.2-2.6-.3-1.8.9.6.9,2.2.2,1.8-.9Zm-1.7,2.2l-.1,7h1.6l.1-7h-1.6Z"/>
      <polygon class="cls-7" points="1221.6 127.62 1220.1 127.62 1219.9 137.02 1221.5 137.02 1221.5 134.02 1224.3 137.02 1226.4 137.02 1222.9 133.52 1226.5 130.02 1224.3 130.02 1221.5 133.12 1221.6 127.62"/>
      <polygon class="cls-7" points="1238.1 130.02 1236.4 130.02 1234.1 135.72 1232.1 130.02 1230.4 130.02 1233.2 137.02 1235 137.02 1238.1 130.02"/>
      <path class="cls-7" d="m1246.2,132.82c-.4-4.1-7.1-3.8-7.5.1-.9,4.3,5.8,5.8,7.3,1.9h-1.7c-.8,1.7-4,1.1-4-.9h5.9c.1-.3.1-.7,0-1.1h0Zm-5.8.1c.2-2.3,4.2-2.4,4.2,0h-4.2Z"/>
      <polygon class="cls-7" points="1147.3 143.42 1145.7 143.42 1145.6 152.12 1150.3 152.12 1150.4 150.92 1147.2 150.92 1147.3 143.42"/>
      <path class="cls-7" d="m1158.7,148.12c-.7-5.2-9.4-3.1-7.3,1.9,1.5,3.8,8,2.3,7.3-1.9Zm-1.5.9c-.6,3.4-5.7,1.8-4.3-1.4,1-2.4,4.8-1.2,4.3,1.4Z"/>
      <path class="cls-7" d="m1165.9,145.22v1c-2.2-2.6-6.7-.4-6.1,2.9.2,2.9,4.2,4.2,6.1,1.9.7,2.8-2.8,4.6-4.2,2h-1.5c.4,3,5.4,3.2,6.8.9.8-1.1.4-7.4.5-8.7h-1.6Zm0,3.8c-.4,3-5.1,2.3-4.5-.7.3-3,5-2.3,4.5.7Z"/>
      <polygon class="cls-7" points="1171.1 142.82 1169.6 142.82 1169.4 152.12 1171 152.12 1171.1 142.82"/>
      <path class="cls-2" d="m1178.7,145.22v1c-2.2-2.6-6.7-.4-6.2,2.9.2,2.9,4.2,4.2,6.1,2v1.1h1.6l.1-7h-1.6Zm0,3.8c-.3,3.1-5.1,2.3-4.5-.7.3-3,5-2.3,4.5.7Z"/>
      <path class="cls-7" d="m1191.4,145.12c-1,0-2.1.5-2.7,1.4-.9-1.7-3.6-1.8-4.9-.5v-.8h-1.5l-.1,6.9h1.6c.2-1.6-.8-6,2-5.8,2.8-.2,1.6,4.2,1.8,5.8h1.5c.2-1.6-.8-6,2-5.8,2.8-.2,1.6,4.2,1.8,5.8h1.5c0-2.4.9-7.3-3-7h0Z"/>
      <path class="cls-2" d="m1202.2,145.22v1c-2-2.4-6.4-.7-6.2,2.4-.3,3.2,4.1,4.9,6.1,2.5v1h1.6l.1-7h-1.6v.1Zm-.1,3.5c.1,3.1-4.8,3.1-4.6,0,0-3,4.9-3,4.6,0Z"/>
      <path class="cls-7" d="m1212.6,143.32c-2.2-.3-4.5,2.2-2.7,4,1.1,1,2.8.8,4,1.6,1.9,2-2.9,3.2-3,.8h-1.7c.1,4.2,8.7,2.7,6.3-1.4-.9-1.1-2.6-1.1-3.9-1.6-2.6-1.6,2.1-3.5,2.5-1.1h1.7c-.1-1.5-1.8-2.4-3.2-2.3h0Z"/>
      <path class="cls-2" d="m1219.6,143.22c-.2-1.2-2.2-.8-2,.4s2.2.8,2-.4Zm-1.8,2l-.1,7h1.6l.1-7h-1.6Z"/>
      <path class="cls-7" d="m1224.1,145.12c-5.4.7-2.5,4.2,1.2,4.7,1.1,1.6-2.7,1.8-2.7.3h-1.6c.2,4.2,9.1,1.8,5.1-1.4-6.3-1.2-1.6-3.9-.6-1.3h1.6c-.1-1.5-1.7-2.3-3-2.3h0Z"/>
      <path class="cls-7" d="m1230.7,143.52h-1.6v1.7h-.9v1.2h.9c0,2.8-1.1,6.6,3.3,5.8v-1.2c-3,.7-1.5-3-1.8-4.6h1.8v-1.2h-1.8l.1-1.7h0Z"/>
      <path class="cls-7" d="m1240.9,148.12c-.3-3.8-6.5-3.9-7.4-.4-1.4,4.4,5.6,6.6,7.2,2.4h-1.7c-.9,1.7-4,1.1-4-.9h5.8c.1-.3.1-.7.1-1.1h0Zm-5.9,0c.2-2.3,4.2-2.4,4.2,0h-4.2Z"/>
      <path class="cls-7" d="m1251.8,145.22c-1,0-2.2.5-2.7,1.4-1-1.7-3.7-1.8-5-.5v-.8h-1.6l-.1,7h1.6c.2-1.6-.8-6.1,2.1-5.9,2.9-.2,1.6,4.3,1.8,5.9h1.6c.2-1.6-.8-6.1,2.1-5.9,2.9-.2,1.6,4.3,1.8,5.9h1.6c-.1-2.5.8-7.4-3.2-7.1h0Z"/>
      <path class="cls-2" d="m1258.9,143.22c-.2-1.2-2.2-.9-2,.4.2,1.2,2.2.8,2-.4Zm-1.9,2.1l-.1,7h1.6l.1-7h-1.6Z"/>
    </g>
  </g>
  <g>
    <path class="cls-15" d="m1609,107.32c.1,5.8-6,5.8-5.9,0-.1-5.8,5.9-5.8,5.9,0Z"/>
    <path class="cls-15" d="m1352,181.32c0,4.1-4.2,4.1-4.2,0s4.3-4.1,4.2,0Z"/>
    <path class="cls-15" d="m1349.9,67.62c0,4.1-4.2,4.1-4.2,0s4.3-4,4.2,0Z"/>
  </g>
  <g class="cls-28">
    <g>
      <path class="cls-5" d="m888.66,161.87h-22.21c-2.83,0-5.12,2.58-5.12,5.75v10.96c0,3.18,2.29,5.75,5.12,5.75h22.21c2.83,0,5.12-2.57,5.12-5.75v-10.96c0-3.17-2.29-5.75-5.12-5.75"/>
      <path class="cls-20" d="m866.45,184.33c-2.83,0-5.12-2.57-5.12-5.75v-10.96c0-3.17,2.29-5.75,5.12-5.75h22.21c2.83,0,5.12,2.58,5.12,5.75v10.96c0,3.18-2.29,5.75-5.12,5.75h-22.21m22.21-26.46h-22.21c-4.79,0-8.69,4.37-8.69,9.75v10.96c0,5.38,3.9,9.76,8.69,9.76h22.21c4.79,0,8.69-4.37,8.69-9.76v-10.96c0-5.37-3.9-9.75-8.69-9.75"/>
      <path class="cls-5" d="m934.82,161.87h-22.22c-2.82,0-5.12,2.58-5.12,5.75v10.96c0,3.18,2.3,5.75,5.12,5.75h22.22c2.82,0,5.12-2.57,5.12-5.75v-10.96c0-3.17-2.3-5.75-5.12-5.75"/>
      <path class="cls-20" d="m912.6,184.33c-2.82,0-5.12-2.57-5.12-5.75v-10.96c0-3.17,2.3-5.75,5.12-5.75h22.22c2.82,0,5.12,2.58,5.12,5.75v10.96c0,3.18-2.3,5.75-5.12,5.75h-22.22m22.22-26.46h-22.22c-4.79,0-8.68,4.37-8.68,9.75v10.96c0,5.38,3.9,9.76,8.68,9.76h22.22c4.79,0,8.68-4.37,8.68-9.76v-10.96c0-5.37-3.9-9.75-8.68-9.75"/>
    </g>
  </g>
</svg>