<?xml version="1.0" encoding="UTF-8"?>
<svg id="katman_1" data-name="katman 1" xmlns="http://www.w3.org/2000/svg" xmlns:xlink="http://www.w3.org/1999/xlink" viewBox="0 0 1159.14 164.36">
  <defs>
    <style>
      .cls-1 {
        clip-path: url(#clippath);
      }

      .cls-2, .cls-3 {
        fill: #010101;
      }

      .cls-4 {
        clip-path: url(#clippath-1);
      }

      .cls-5 {
        clip-path: url(#clippath-4);
      }

      .cls-6 {
        clip-path: url(#clippath-3);
      }

      .cls-7 {
        clip-path: url(#clippath-2);
      }

      .cls-8 {
        clip-path: url(#clippath-6);
      }

      .cls-9 {
        clip-path: url(#clippath-5);
      }

      .cls-10 {
        stroke: #c69c6d;
      }

      .cls-10, .cls-11 {
        stroke-linecap: round;
      }

      .cls-10, .cls-11, .cls-12, .cls-13 {
        fill: none;
        stroke-miterlimit: 10;
        stroke-width: 1px;
      }

      .cls-11, .cls-12 {
        stroke: #e20e17;
      }

      .cls-14 {
        opacity: .19;
      }

      .cls-15, .cls-16, .cls-17 {
        fill-rule: evenodd;
      }

      .cls-15, .cls-16, .cls-17, .cls-18, .cls-19, .cls-20, .cls-21, .cls-22, .cls-23, .cls-24, .cls-25, .cls-26, .cls-27, .cls-28, .cls-3 {
        stroke-width: 0px;
      }

      .cls-15, .cls-22 {
        fill: #e20e17;
      }

      .cls-16 {
        fill: #d71e16;
      }

      .cls-29, .cls-17 {
        isolation: isolate;
      }

      .cls-17 {
        opacity: .6;
      }

      .cls-17, .cls-19 {
        fill: #878787;
      }

      .cls-18 {
        fill: #4d4d4d;
      }

      .cls-20 {
        fill: #0c8236;
      }

      .cls-21 {
        fill: #ddeaf1;
      }

      .cls-23 {
        fill: #c1272d;
      }

      .cls-24 {
        fill: #333132;
      }

      .cls-25 {
        fill: #f1e519;
      }

      .cls-26 {
        fill: #fff;
      }

      .cls-27 {
        fill: #fbfdff;
      }

      .cls-28 {
        fill: #f4f8fd;
      }

      .cls-13 {
        stroke: #fff;
      }
    </style>
    <clipPath id="clippath">
      <path class="cls-3" d="m804.91,143.16c-2.79,0-17.58,0-20.7,0-1.53-.28-6.24.98-6.15-1.78,0,0,0-20.25,0-20.25-.04-2.25,2.93-1.74,4.37-1.78-.31-1.94.89-3.06,2.8-2.76-.12-1.31.05-3.19,1.78-3.17,0,0,10.73,0,10.73,0,1.72-.03,1.9,1.86,1.77,3.17,1.92-.31,3.11.82,2.8,2.76,1.44.05,4.41-.49,4.37,1.78,0,0,0,20.25,0,20.25,0,.98-.79,1.78-1.78,1.78Z"/>
    </clipPath>
    <clipPath id="clippath-1">
      <path class="cls-3" d="m746.24,143.16c-2.79,0-17.58,0-20.7,0-1.53-.28-6.24.98-6.15-1.78,0,0,0-20.25,0-20.25-.04-2.25,2.93-1.74,4.37-1.78-.31-1.94.89-3.06,2.8-2.76-.12-1.31.05-3.19,1.78-3.17,0,0,10.73,0,10.73,0,1.72-.03,1.9,1.86,1.77,3.17,1.92-.31,3.11.82,2.8,2.76,1.44.05,4.41-.49,4.37,1.78,0,0,0,20.25,0,20.25,0,.98-.79,1.78-1.78,1.78Z"/>
    </clipPath>
    <clipPath id="clippath-2">
      <path class="cls-3" d="m687.58,143.16c-2.79,0-17.58,0-20.7,0-1.53-.28-6.24.98-6.15-1.78,0,0,0-20.25,0-20.25-.04-2.25,2.93-1.74,4.37-1.78-.31-1.94.89-3.06,2.8-2.76-.12-1.31.05-3.19,1.78-3.17,0,0,10.73,0,10.73,0,1.72-.03,1.9,1.86,1.77,3.17,1.92-.31,3.11.82,2.8,2.76,1.44.05,4.41-.49,4.37,1.78,0,0,0,20.25,0,20.25,0,.98-.79,1.78-1.78,1.78Z"/>
    </clipPath>
    <clipPath id="clippath-3">
      <path class="cls-3" d="m628.91,143.16c-2.79,0-17.58,0-20.7,0-1.53-.28-6.24.98-6.15-1.78,0,0,0-20.25,0-20.25-.04-2.25,2.93-1.74,4.37-1.78-.31-1.94.89-3.06,2.8-2.76-.12-1.31.05-3.19,1.78-3.17,0,0,10.73,0,10.73,0,1.72-.03,1.9,1.86,1.77,3.17,1.92-.31,3.11.82,2.8,2.76,1.44.05,4.41-.49,4.37,1.78,0,0,0,20.25,0,20.25,0,.98-.79,1.78-1.78,1.78Z"/>
    </clipPath>
    <clipPath id="clippath-4">
      <path class="cls-3" d="m570.25,143.16c-2.79,0-17.58,0-20.7,0-1.53-.28-6.24.98-6.15-1.78,0,0,0-20.25,0-20.25-.04-2.25,2.93-1.74,4.37-1.78-.31-1.94.89-3.06,2.8-2.76-.12-1.31.05-3.19,1.78-3.17,0,0,10.73,0,10.73,0,1.72-.03,1.9,1.86,1.77,3.17,1.92-.31,3.11.82,2.8,2.76,1.44.05,4.41-.49,4.37,1.78,0,0,0,20.25,0,20.25,0,.98-.79,1.78-1.78,1.78Z"/>
    </clipPath>
    <clipPath id="clippath-5">
      <path class="cls-3" d="m511.59,143.16c-2.79,0-17.58,0-20.7,0-1.53-.28-6.24.98-6.15-1.78,0,0,0-20.25,0-20.25-.04-2.25,2.93-1.74,4.37-1.78-.31-1.94.89-3.06,2.8-2.76-.12-1.31.05-3.19,1.78-3.17,0,0,10.73,0,10.73,0,1.72-.03,1.9,1.86,1.77,3.17,1.92-.31,3.11.82,2.8,2.76,1.44.05,4.41-.49,4.37,1.78,0,0,0,20.25,0,20.25,0,.98-.79,1.78-1.78,1.78Z"/>
    </clipPath>
    <clipPath id="clippath-6">
      <path class="cls-3" d="m374.08,113.44c-2.79,0-17.58,0-20.7,0-1.53.28-6.24-.98-6.15,1.78,0,0,0,20.25,0,20.25-.04,2.25,2.93,1.74,4.37,1.78-.31,1.94.89,3.06,2.8,2.76-.12,1.31.05,3.19,1.78,3.17,0,0,10.73,0,10.73,0,1.72.03,1.9-1.86,1.77-3.17,1.92.31,3.11-.82,2.8-2.76,1.44-.05,4.41.49,4.37-1.78,0,0,0-20.25,0-20.25,0-.98-.79-1.78-1.78-1.78Z"/>
    </clipPath>
  </defs>
  <path class="cls-28" d="m905.31.74c-43.34,1.97-720.01-5.35-739.19,5.6,0,0-149.37,45.24-149.37,45.24h1129.81c-55.21-14.18-183.28-57.78-241.25-50.84Z"/>
  <g>
    <path class="cls-21" d="m1159,148.1c-1.15,9.17-8.96,16.26-18.45,16.26H18.95c-10.27,0-18.59-8.32-18.59-18.59-.59-3.24-.72-83.75,1.71-83.4-.1.78-.16,1.58-.16,2.4v75.6c0,10.27,8.32,18.59,18.59,18.59h1121.61c7.5,0,13.96-4.46,16.88-10.86Z"/>
    <path class="cls-27" d="m1159.14,70.17v75.6c-.51,7.85-9.3,13.11-17.02,13.19,0,0-1121.61,0-1121.61,0-10.27,0-18.59-8.32-18.59-18.59v-75.6c.49-7.87,9.32-13.11,17.04-13.19,0,0,1121.59,0,1121.59,0,10.27,0,18.59,8.32,18.59,18.59Z"/>
    <g>
      <path class="cls-16" d="m111.07,89.17l-15.21,22.03,15.04,21.68s1.57,1.4,2.97,1.75c1.22.35,1.57,1.57,1.75,2.27h-15.21s-.7-1.75,3.5-2.97l-11.89-17.14-11.72,16.96c.17,0,.35.17.52.17,4.02,1.22,3.32,2.97,3.32,2.97h-14.51c0-2.55,3.7-2.52,4.9-4.55,0,0,26.58-38.82,26.58-38.82,1.77-3.82,6.9-7.13,9.97-4.37m-37.95,0l14.34,20.81,3.67-5.42-9.62-13.81c-3.85-5.77-8.39-1.57-8.39-1.57Z"/>
      <path class="cls-22" d="m93.23,93.02c1.49.16.03-32.18.53-32.7,0-.17-.18-.52-.53-.52-1.49-.16-.03,32.18-.53,32.7,0,.35.35.52.53.52Z"/>
      <path class="cls-22" d="m93.23,156.15c.35,0,.52-.17.52-.35-.48-.37.94-26.22-.52-25.88-1.46-.34-.05,25.51-.53,25.88,0,.17.35.35.53.35Z"/>
    </g>
    <rect class="cls-23" x="213.57" y="158.44" width="730.95" height="5.92"/>
    <path class="cls-22" d="m925.51,77l-4.45,4.26,18.03,25.99-12.8,18.62c-7.02,1.38-7.39,10.76-8.14,16.49h26.38v16.13H213.57V51.58h730.95v26.37c-5.88-7.29-15.57-4.44-19.02-.96Z"/>
    <g>
      <path class="cls-15" d="m1040.17,119.34c-.28-1.6.73-5.9-.77-6.93-.68-.52-2.21.34-2.31-.77,0-.46-.1-1.21.58-1.15,0,0,10.97,0,10.97,0,.68-.05.58.7.58,1.15-.25,1.17-2.34.23-2.69,1.73-.39.93-.12,5.64-.19,6.74-2.47,2.4-6.7,2.7-10.01,2.89-23.34-1.68-14-35.18,7.89-25.4.37-.31.4-1.52,1.15-1.54.45,0,1.21-.11,1.15.58-.26.4.64,9.72-.58,9.24-2.43.05-1.91-7.24-8.66-7.31-10.77,0-8.87,27.8,2.89,20.78Z"/>
      <path class="cls-15" d="m1017.27,99.13c-12.25-11.89-28.59,5.76-19.05,18.48,12.15,14.42,31.05-5.61,19.05-18.48Zm-4.62,16.55c-.66,2.25-2.16,4.36-4.62,4.23-7.27-1.59-5.9-13.44-4.04-18.86,1.13-2.57,4.39-4.31,6.74-2.12,3.95,4.11,2.85,11.64,1.92,16.74Z"/>
      <path class="cls-15" d="m981.09,119.15c11.84,2.23,7.55-8.57,11.55-6.74.58-.27-.71,9.06-.58,9.24,0,.38-.39.58-.58.58h-20.21c-.68.05-.58-.69-.58-1.15.16-1.29,2.76.13,3.08-1.54.34-2.98.34-17.61,0-20.59-.47-1.39-2.96-.09-3.08-1.35,0-.45-.11-1.22.58-1.15,0,0,12.12,0,12.12,0,.68-.05.58.69.58,1.15-.19,1.34-2.93-.2-3.27,1.54-.34,2.99-.34,17.03,0,20.02.19-.19.19,0,.38,0Z"/>
      <path class="cls-15" d="m971.85,81.81l-17.13,24.63,16.94,24.25s1.73,1.54,3.27,1.92c1.35.38,1.73,1.73,1.92,2.5h-16.74s-.96-1.92,3.85-3.46l-13.28-19.25-13.28,19.05c4.13.93,4.66,3.33,4.23,3.66h-16.36c0-2.81,4.07-2.78,5.39-5,0,0,29.83-43.5,29.83-43.5,1.88-4.2,7.98-7.98,11.35-4.81m-42.53,0l16.17,23.29,4.23-6.16c-4.66-4.87-12.62-24.76-20.4-17.13Z"/>
      <line class="cls-11" x1="951.06" y1="59.87" x2="951.06" y2="86.62"/>
      <line class="cls-11" x1="951.06" y1="127.43" x2="951.06" y2="163.61"/>
    </g>
    <g>
      <path class="cls-26" d="m258,141.71c-1.13-.43-8.35,1.13-8.15-1.25.43-1.13-1.13-8.35,1.25-8.15,1.13.43,8.35-1.13,8.15,1.25-.43,1.13,1.13,8.35-1.25,8.15Z"/>
      <path class="cls-26" d="m258,129.3c-1.13-.43-8.35,1.13-8.15-1.25.43-1.13-1.13-8.35,1.25-8.15,1.13.43,8.35-1.13,8.15,1.25-.43,1.13,1.13,8.35-1.25,8.15Z"/>
      <path class="cls-13" d="m270.67,116.64c-1.13-.43-8.35,1.13-8.15-1.25.43-1.13-1.13-8.35,1.25-8.15,1.13.43,8.35-1.13,8.15,1.25-.43,1.13,1.13,8.35-1.25,8.15Z"/>
      <path class="cls-26" d="m245.12,116.42c-1.13-.43-8.35,1.13-8.15-1.25.43-1.13-1.13-8.35,1.25-8.15,1.13.43,8.35-1.13,8.15,1.25-.43,1.13,1.13,8.35-1.25,8.15Z"/>
      <path class="cls-13" d="m245.12,103.53c-1.13-.43-8.35,1.13-8.15-1.25.43-1.13-1.13-8.35,1.25-8.15,1.13.43,8.35-1.13,8.15,1.25-.43,1.13,1.13,8.35-1.25,8.15Z"/>
      <path class="cls-26" d="m232.23,90.64c-1.13-.43-8.35,1.13-8.15-1.25.43-1.13-1.13-8.35,1.25-8.15,1.13.43,8.35-1.13,8.15,1.25-.43,1.13,1.13,8.35-1.25,8.15Z"/>
      <path class="cls-26" d="m245.12,77.76c-1.13-.43-8.35,1.13-8.15-1.25.43-1.13-1.13-8.35,1.25-8.15,1.13.43,8.35-1.13,8.15,1.25-.43,1.13,1.13,8.35-1.25,8.15Z"/>
      <path class="cls-13" d="m245.12,129.3c-1.13-.43-8.35,1.13-8.15-1.25.43-1.13-1.13-8.35,1.25-8.15,1.13.43,8.35-1.13,8.15,1.25-.43,1.13,1.13,8.35-1.25,8.15Z"/>
      <path class="cls-26" d="m245.12,142.19c-1.13-.43-8.35,1.13-8.15-1.25.43-1.13-1.13-8.35,1.25-8.15,1.13.43,8.35-1.13,8.15,1.25-.43,1.13,1.13,8.35-1.25,8.15Z"/>
      <path class="cls-22" d="m197.46,141.71c-1.13-.43-8.35,1.13-8.15-1.25.43-1.13-1.13-8.35,1.25-8.15,1.13.43,8.35-1.13,8.15,1.25-.43,1.13,1.13,8.35-1.25,8.15Z"/>
      <path class="cls-22" d="m209.59,129.3c-1.13-.43-8.35,1.13-8.15-1.25.43-1.13-1.13-8.35,1.25-8.15,1.13.43,8.35-1.13,8.15,1.25-.43,1.13,1.13,8.35-1.25,8.15Z"/>
      <path class="cls-22" d="m210.13,116.64c-1.13-.43-8.35,1.13-8.15-1.25.43-1.13-1.13-8.35,1.25-8.15,1.13.43,8.35-1.13,8.15,1.25-.43,1.13,1.13,8.35-1.25,8.15Z"/>
      <path class="cls-12" d="m210.13,103.97c-1.13-.43-8.35,1.13-8.15-1.25.43-1.13-1.13-8.35,1.25-8.15,1.13.43,8.35-1.13,8.15,1.25-.43,1.13,1.13,8.35-1.25,8.15Z"/>
      <path class="cls-22" d="m210.13,91.31c-1.13-.43-8.35,1.13-8.15-1.25.43-1.13-1.13-8.35,1.25-8.15,1.13.43,8.35-1.13,8.15,1.25-.43,1.13,1.13,8.35-1.25,8.15Z"/>
      <path class="cls-22" d="m173.24,105.08c-1.13-.43-8.35,1.13-8.15-1.25.43-1.13-1.13-8.35,1.25-8.15,1.13.43,8.35-1.13,8.15,1.25-.43,1.13,1.13,8.35-1.25,8.15Z"/>
      <path class="cls-22" d="m197.35,116.53c-1.13-.43-8.35,1.13-8.15-1.25.43-1.13-1.13-8.35,1.25-8.15,1.13.43,8.35-1.13,8.15,1.25-.43,1.13,1.13,8.35-1.25,8.15Z"/>
      <path class="cls-22" d="m184.58,142.19c-1.13-.43-8.35,1.13-8.15-1.25.43-1.13-1.13-8.35,1.25-8.15,1.13.43,8.35-1.13,8.15,1.25-.43,1.13,1.13,8.35-1.25,8.15Z"/>
    </g>
    <path class="cls-24" d="m332.58,137.19c.18,12.14-18.89,12.14-18.71,0-.18-12.14,18.89-12.14,18.71,0Z"/>
    <path class="cls-24" d="m460.88,137.94c-.88,6.18-10.57,4.67-9.51-1.49.88-6.18,10.57-4.67,9.51,1.49Z"/>
    <path class="cls-24" d="m460.88,125.05c-.88,6.18-10.57,4.67-9.51-1.49.88-6.18,10.57-4.67,9.51,1.49Z"/>
    <rect class="cls-26" x="338.3" y="109.66" width="46.48" height="38.64" rx="3.03" ry="3.03"/>
    <rect class="cls-26" x="388.6" y="97.54" width="52.18" height="50.76" rx="3.03" ry="3.03"/>
    <rect class="cls-26" x="475.81" y="109.66" width="46.48" height="38.64" rx="3.03" ry="3.03"/>
    <path class="cls-3" d="m433.17,139.98c-.93-.81-39.85,1.86-38.51-1.55,0,0,0-11.31,0-11.31,0-.85.69-1.55,1.55-1.55h36.96c.85,0,1.55.69,1.55,1.55v11.31c0,.85-.69,1.55-1.55,1.55Z"/>
    <path class="cls-3" d="m433.17,119.32c-.93-.81-39.85,1.86-38.51-1.55,0,0,0-11.31,0-11.31,0-.85.69-1.55,1.55-1.55h36.96c.85,0,1.55.69,1.55,1.55v11.31c0,.85-.69,1.55-1.55,1.55Z"/>
    <path class="cls-20" d="m520.51,115.33c-.62,4.37-7.47,3.3-6.73-1.05.62-4.37,7.47-3.3,6.73,1.05Z"/>
    <path class="cls-25" d="m484.32,115.33c-.62,4.37-7.47,3.3-6.73-1.05.62-4.37,7.47-3.3,6.73,1.05Z"/>
    <rect class="cls-26" x="534.48" y="109.66" width="46.48" height="38.64" rx="3.03" ry="3.03"/>
    <path class="cls-20" d="m579.17,115.33c-.62,4.37-7.47,3.3-6.73-1.05.62-4.37,7.47-3.3,6.73,1.05Z"/>
    <path class="cls-25" d="m542.98,115.33c-.62,4.37-7.47,3.3-6.73-1.05.62-4.37,7.47-3.3,6.73,1.05Z"/>
    <rect class="cls-26" x="593.14" y="109.66" width="46.48" height="38.64" rx="3.03" ry="3.03"/>
    <path class="cls-20" d="m637.84,115.33c-.62,4.37-7.47,3.3-6.73-1.05.62-4.37,7.47-3.3,6.73,1.05Z"/>
    <path class="cls-25" d="m601.65,115.33c-.62,4.37-7.47,3.3-6.73-1.05.62-4.37,7.47-3.3,6.73,1.05Z"/>
    <rect class="cls-26" x="651.81" y="109.66" width="46.48" height="38.64" rx="3.03" ry="3.03"/>
    <path class="cls-20" d="m696.5,115.33c-.62,4.37-7.47,3.3-6.73-1.05.62-4.37,7.47-3.3,6.73,1.05Z"/>
    <path class="cls-25" d="m660.31,115.33c-.62,4.37-7.47,3.3-6.73-1.05.62-4.37,7.47-3.3,6.73,1.05Z"/>
    <rect class="cls-26" x="710.47" y="109.66" width="46.48" height="38.64" rx="3.03" ry="3.03"/>
    <path class="cls-20" d="m755.17,115.33c-.62,4.37-7.47,3.3-6.73-1.05.62-4.37,7.47-3.3,6.73,1.05Z"/>
    <path class="cls-25" d="m718.98,115.33c-.62,4.37-7.47,3.3-6.73-1.05.62-4.37,7.47-3.3,6.73,1.05Z"/>
    <rect class="cls-26" x="769.14" y="109.66" width="46.48" height="38.64" rx="3.03" ry="3.03"/>
    <g>
      <path class="cls-2" d="m804.91,143.16c-2.79,0-17.58,0-20.7,0-1.53-.28-6.24.98-6.15-1.78,0,0,0-20.25,0-20.25-.04-2.25,2.93-1.74,4.37-1.78-.31-1.94.89-3.06,2.8-2.76-.12-1.31.05-3.19,1.78-3.17,0,0,10.73,0,10.73,0,1.72-.03,1.9,1.86,1.77,3.17,1.92-.31,3.11.82,2.8,2.76,1.44.05,4.41-.49,4.37,1.78,0,0,0,20.25,0,20.25,0,.98-.79,1.78-1.78,1.78Z"/>
      <g class="cls-1">
        <g>
          <line class="cls-10" x1="785.73" y1="144.22" x2="785.73" y2="135.45"/>
          <line class="cls-10" x1="791.82" y1="144.22" x2="791.82" y2="135.45"/>
          <line class="cls-10" x1="797.91" y1="144.22" x2="797.91" y2="135.45"/>
        </g>
      </g>
    </g>
    <g>
      <path class="cls-2" d="m746.24,143.16c-2.79,0-17.58,0-20.7,0-1.53-.28-6.24.98-6.15-1.78,0,0,0-20.25,0-20.25-.04-2.25,2.93-1.74,4.37-1.78-.31-1.94.89-3.06,2.8-2.76-.12-1.31.05-3.19,1.78-3.17,0,0,10.73,0,10.73,0,1.72-.03,1.9,1.86,1.77,3.17,1.92-.31,3.11.82,2.8,2.76,1.44.05,4.41-.49,4.37,1.78,0,0,0,20.25,0,20.25,0,.98-.79,1.78-1.78,1.78Z"/>
      <g class="cls-4">
        <g>
          <line class="cls-10" x1="727.07" y1="144.22" x2="727.07" y2="135.45"/>
          <line class="cls-10" x1="733.15" y1="144.22" x2="733.15" y2="135.45"/>
          <line class="cls-10" x1="739.24" y1="144.22" x2="739.24" y2="135.45"/>
        </g>
      </g>
    </g>
    <g>
      <path class="cls-2" d="m687.58,143.16c-2.79,0-17.58,0-20.7,0-1.53-.28-6.24.98-6.15-1.78,0,0,0-20.25,0-20.25-.04-2.25,2.93-1.74,4.37-1.78-.31-1.94.89-3.06,2.8-2.76-.12-1.31.05-3.19,1.78-3.17,0,0,10.73,0,10.73,0,1.72-.03,1.9,1.86,1.77,3.17,1.92-.31,3.11.82,2.8,2.76,1.44.05,4.41-.49,4.37,1.78,0,0,0,20.25,0,20.25,0,.98-.79,1.78-1.78,1.78Z"/>
      <g class="cls-7">
        <g>
          <line class="cls-10" x1="668.4" y1="144.22" x2="668.4" y2="135.45"/>
          <line class="cls-10" x1="674.49" y1="144.22" x2="674.49" y2="135.45"/>
          <line class="cls-10" x1="680.58" y1="144.22" x2="680.58" y2="135.45"/>
        </g>
      </g>
    </g>
    <g>
      <path class="cls-2" d="m628.91,143.16c-2.79,0-17.58,0-20.7,0-1.53-.28-6.24.98-6.15-1.78,0,0,0-20.25,0-20.25-.04-2.25,2.93-1.74,4.37-1.78-.31-1.94.89-3.06,2.8-2.76-.12-1.31.05-3.19,1.78-3.17,0,0,10.73,0,10.73,0,1.72-.03,1.9,1.86,1.77,3.17,1.92-.31,3.11.82,2.8,2.76,1.44.05,4.41-.49,4.37,1.78,0,0,0,20.25,0,20.25,0,.98-.79,1.78-1.78,1.78Z"/>
      <g class="cls-6">
        <g>
          <line class="cls-10" x1="609.74" y1="144.22" x2="609.74" y2="135.45"/>
          <line class="cls-10" x1="615.82" y1="144.22" x2="615.82" y2="135.45"/>
          <line class="cls-10" x1="621.91" y1="144.22" x2="621.91" y2="135.45"/>
        </g>
      </g>
    </g>
    <g>
      <path class="cls-2" d="m570.25,143.16c-2.79,0-17.58,0-20.7,0-1.53-.28-6.24.98-6.15-1.78,0,0,0-20.25,0-20.25-.04-2.25,2.93-1.74,4.37-1.78-.31-1.94.89-3.06,2.8-2.76-.12-1.31.05-3.19,1.78-3.17,0,0,10.73,0,10.73,0,1.72-.03,1.9,1.86,1.77,3.17,1.92-.31,3.11.82,2.8,2.76,1.44.05,4.41-.49,4.37,1.78,0,0,0,20.25,0,20.25,0,.98-.79,1.78-1.78,1.78Z"/>
      <g class="cls-5">
        <g>
          <line class="cls-10" x1="551.07" y1="144.22" x2="551.07" y2="135.45"/>
          <line class="cls-10" x1="557.16" y1="144.22" x2="557.16" y2="135.45"/>
          <line class="cls-10" x1="563.25" y1="144.22" x2="563.25" y2="135.45"/>
        </g>
      </g>
    </g>
    <g>
      <path class="cls-2" d="m511.59,143.16c-2.79,0-17.58,0-20.7,0-1.53-.28-6.24.98-6.15-1.78,0,0,0-20.25,0-20.25-.04-2.25,2.93-1.74,4.37-1.78-.31-1.94.89-3.06,2.8-2.76-.12-1.31.05-3.19,1.78-3.17,0,0,10.73,0,10.73,0,1.72-.03,1.9,1.86,1.77,3.17,1.92-.31,3.11.82,2.8,2.76,1.44.05,4.41-.49,4.37,1.78,0,0,0,20.25,0,20.25,0,.98-.79,1.78-1.78,1.78Z"/>
      <g class="cls-9">
        <g>
          <line class="cls-10" x1="492.41" y1="144.22" x2="492.41" y2="135.45"/>
          <line class="cls-10" x1="498.49" y1="144.22" x2="498.49" y2="135.45"/>
          <line class="cls-10" x1="504.58" y1="144.22" x2="504.58" y2="135.45"/>
        </g>
      </g>
    </g>
    <g>
      <path class="cls-2" d="m374.08,113.44c-2.79,0-17.58,0-20.7,0-1.53.28-6.24-.98-6.15,1.78,0,0,0,20.25,0,20.25-.04,2.25,2.93,1.74,4.37,1.78-.31,1.94.89,3.06,2.8,2.76-.12,1.31.05,3.19,1.78,3.17,0,0,10.73,0,10.73,0,1.72.03,1.9-1.86,1.77-3.17,1.92.31,3.11-.82,2.8-2.76,1.44-.05,4.41.49,4.37-1.78,0,0,0-20.25,0-20.25,0-.98-.79-1.78-1.78-1.78Z"/>
      <g class="cls-8">
        <g>
          <line class="cls-10" x1="354.9" y1="112.38" x2="354.9" y2="121.14"/>
          <line class="cls-10" x1="360.99" y1="112.38" x2="360.99" y2="121.14"/>
          <line class="cls-10" x1="367.07" y1="112.38" x2="367.07" y2="121.14"/>
        </g>
      </g>
    </g>
    <path class="cls-20" d="m813.83,115.33c-.62,4.37-7.47,3.3-6.73-1.05.62-4.37,7.47-3.3,6.73,1.05Z"/>
    <path class="cls-25" d="m777.64,115.33c-.62,4.37-7.47,3.3-6.73-1.05.62-4.37,7.47-3.3,6.73,1.05Z"/>
    <path class="cls-17" d="m1021.62,162.79c.98-21.47-23.97-21.44-22.98,0m6.44,0c.36-3.98-.83-13.23,5.05-13.58,5.95.34,4.6,9.63,4.87,13.58"/>
    <path class="cls-17" d="m1021.62,51.94c.98,21.47-23.97,21.44-22.98,0m6.44,0c.36,3.98-.83,13.23,5.05,13.58,5.95-.34,4.6-9.63,4.87-13.58"/>
    <g>
      <path class="cls-19" d="m1064.01,104.38h-2.93l-.5,1.43h-1.2l2.5-7h1.33l2.5,7h-1.21l-.5-1.43Zm-.32-.93l-1.14-3.25-1.15,3.25h2.28Z"/>
      <path class="cls-19" d="m1070.18,100.44c.33.17.59.38.78.64v-.8h1.16c-.11,1.06.3,6.13-.32,6.99-.98,1.97-4.86,1.65-5.1-.68h1.14c1.14,2.09,3.71.59,3.13-1.61-4.64,4.28-6.64-6.6-.78-4.54Zm.54,1.6c-1.24-2.12-4.05.06-2.88,1.98,1.24,2.16,4.05-.06,2.88-1.98Zm-.15-2.61c-.95.86-2.86.22-2.62-1.24h.65c-.11.99,1.82.99,1.71,0h.66c.03.47-.07.95-.41,1.24Z"/>
      <path class="cls-19" d="m1081.29,100.83c-1.69-2.73-5.52.24-3.95,2.8.93,1.88,4.16,1.47,4.32-.74h-2.62v-.91h3.85c.56,3.69-4.78,5.38-6.55,2.16-2.55-4.2,4.45-7.85,6.34-3.31h-1.38Z"/>
      <path class="cls-19" d="m1089.02,100.27v5.54h-1.15v-.65c-3.81,2.74-4.22-2.21-3.92-4.89h1.14c.2,1.23-.75,4.73,1.39,4.62,2.14.11,1.2-3.4,1.4-4.62h1.15Zm-3.79-.87c-.57-.54.31-1.42.85-.85.57.54-.31,1.42-.85.85Zm1.73,0c-.57-.54.31-1.42.85-.85.57.54-.31,1.42-.85.85Z"/>
      <path class="cls-19" d="m1092.67,104.78l1.57-4.51h1.22l-2.11,5.54h-1.37l-2.1-5.54h1.23l1.57,4.51Z"/>
      <path class="cls-19" d="m1101.35,103.46h-4.23c0,1.5,2.27,2.05,2.88.69h1.24c-1.44,3.76-6.94.76-4.96-2.63,1.43-2.65,5.81-1.08,5.07,1.93Zm-1.16-.92c0-1.84-2.98-1.83-3.06,0h3.06Z"/>
      <path class="cls-19" d="m1106.48,100.45c1.69.75.95,3.93,1.1,5.36h-1.14c-.2-1.22.75-4.74-1.39-4.63-2.14-.11-1.2,3.41-1.4,4.63h-1.15v-5.54h1.15v.63c.64-.8,1.96-.92,2.82-.45Z"/>
      <path class="cls-19" d="m1110.18,98.37v7.44h-1.15v-7.44h1.15Z"/>
      <path class="cls-19" d="m1111.75,99.33c-.68-.66.37-1.73,1.04-1.05.68.66-.37,1.73-1.04,1.05Zm1.08.94v5.54h-1.15v-5.54h1.15Z"/>
      <path class="cls-19" d="m1116.53,103.04l2.55,2.76h-1.55l-2.05-2.38v2.38h-1.15v-7.44h1.15v4.32l2.01-2.42h1.59l-2.55,2.77Z"/>
      <path class="cls-19" d="m1124.66,104.78l1.57-4.51h1.22l-2.11,5.54h-1.37l-2.1-5.54h1.23l1.57,4.51Z"/>
      <path class="cls-19" d="m1133.35,103.46h-4.23c0,1.5,2.27,2.05,2.88.69h1.24c-1.44,3.76-6.94.76-4.96-2.63,1.43-2.65,5.81-1.08,5.07,1.93Zm-1.16-.92c0-1.84-2.98-1.83-3.06,0h3.06Z"/>
      <path class="cls-19" d="m1060.95,116.94h2.36v.92h-3.51v-6.98h1.15v6.06Z"/>
      <path class="cls-19" d="m1065.25,117.6c-3.14-1.85-.33-6.88,2.9-5.01,3.2,1.83.32,6.89-2.9,5.01Zm2.25-.85c1.87-1.04.47-4.48-1.62-3.31-1.78,1.07-.46,4.48,1.62,3.31Z"/>
      <path class="cls-19" d="m1074.05,112.49c.33.17.59.38.78.64v-.8h1.16c-.11,1.06.3,6.13-.32,6.99-.98,1.97-4.86,1.65-5.1-.68h1.14c1.14,2.09,3.71.59,3.13-1.61-4.64,4.28-6.64-6.6-.78-4.54Zm.54,1.6c-1.24-2.12-4.05.06-2.88,1.98,1.24,2.16,4.05-.06,2.88-1.98Z"/>
      <path class="cls-19" d="m1078.63,110.43v7.44h-1.15v-7.44h1.15Z"/>
      <path class="cls-19" d="m1080.11,113.59c.75-1.56,3.16-1.84,4.19-.46v-.8h1.16v5.54h-1.16v-.82c-2.18,2.62-5.79-.79-4.19-3.45Zm3.95.5c-1.24-2.12-4.05.06-2.88,1.98,1.24,2.16,4.05-.06,2.88-1.98Z"/>
      <path class="cls-19" d="m1094.83,112.51c1.7.75.96,3.92,1.11,5.36h-1.14c-.2-1.22.75-4.74-1.39-4.63-2.14-.11-1.2,3.41-1.4,4.63h-1.14c-.2-1.22.75-4.74-1.39-4.63-2.14-.11-1.2,3.41-1.4,4.63h-1.15v-5.54h1.15v.63c.91-1.11,2.98-.92,3.63.37.53-1.08,2.1-1.37,3.1-.82Z"/>
      <path class="cls-19" d="m1097.36,113.59c.75-1.56,3.16-1.84,4.19-.46v-.8h1.16v5.54h-1.16v-.82c-2.18,2.62-5.79-.79-4.19-3.45Zm3.95.5c-1.24-2.12-4.05.06-2.88,1.98,1.24,2.16,4.05-.06,2.88-1.98Z"/>
      <path class="cls-19" d="m1107.86,117.69c-.73-.32-1.21-.94-1.21-1.75h1.23c.26,2.28,4.13.28,1.78-.9-.85-.35-2.12-.41-2.69-1.21-1.82-3.07,4.25-4.4,4.48-1.14h-1.27c-.35-2.06-3.87-.2-1.66.9,4.46.32,3.48,5.51-.67,4.1Z"/>
      <path class="cls-19" d="m1112.96,111.38c-.68-.66.37-1.73,1.04-1.05.68.66-.37,1.73-1.04,1.05Zm1.08.94v5.54h-1.15v-5.54h1.15Z"/>
      <path class="cls-19" d="m1116.39,117.72c-.65-.29-1.11-.85-1.14-1.55h1.19c0,1.36,3.06.84,1.82-.3-.73-.38-2.07-.45-2.63-1.15-1.62-2.68,4.02-3.55,3.98-.69h-1.15c-.06-1.6-3.24-.5-1.42.42,3.97.34,2.94,4.58-.66,3.29Z"/>
      <path class="cls-19" d="m1122.25,113.26c.06.33-.15,3.32.14,3.51.19.21.92.12,1.2.13v.96c-3.22.65-2.43-2.59-2.5-4.6h-.65v-.93h.65v-1.38h1.16v1.38h1.35v.93h-1.35Z"/>
      <path class="cls-19" d="m1129.69,115.52h-4.23c0,1.5,2.27,2.05,2.88.69h1.24c-1.44,3.76-6.94.76-4.96-2.63,1.43-2.65,5.81-1.08,5.07,1.93Zm-1.16-.92c0-1.84-2.98-1.83-3.06,0h3.06Z"/>
      <path class="cls-19" d="m1138.73,112.51c1.7.75.96,3.92,1.11,5.36h-1.14c-.2-1.22.75-4.74-1.39-4.63-2.14-.11-1.2,3.41-1.4,4.63h-1.14c-.2-1.22.75-4.74-1.39-4.63-2.14-.11-1.2,3.41-1.4,4.63h-1.15v-5.54h1.15v.63c.91-1.11,2.98-.92,3.63.37.53-1.08,2.1-1.37,3.1-.82Z"/>
      <path class="cls-19" d="m1141.36,111.38c-.68-.66.37-1.73,1.04-1.05.68.66-.37,1.73-1.04,1.05Zm1.08.94v5.54h-1.15v-5.54h1.15Z"/>
    </g>
  </g>
  <g class="cls-14">
    <g class="cls-29">
      <g>
        <path class="cls-18" d="m719.23,17.56c-8.54.68-24.14-1.18-30.4,3.17,4.67,3.28,11.46,2.9,17.12,3.79,15.42,1.52,31.14,1.8,46.63,1.59,6.97-.25,14.78-.03,21.33-1.01-.9-.42-7.31-1.78-7.61-2.33,1.64-.78,5.44.07,6.31-.57-.32-.82-35.22-.18-36.73-.37-.39.03-1.52-.07-1.21.19,2.9.82,6.13.11,9.13.48,2.65-.04,6.66,1.59,9.18,2.32-8.64.48-37.74,1.43-42.19-5.33,14.11-3,29.43-.32,43.67.9.47-.07,3.17.17,2.83-.17-3.38-.9-10.38-3.42-13.78-2.52-.19.13-.29.3-.55.31-7.69.05-15.9-.62-23.74-.47"/>
        <path class="cls-18" d="m649.13,25.04c-2.64.68-28.69-1.86-19.17-6.05,8.15-1.4,17.23-1.13,25.45.28,15.3,4.35.55,6.28-6.28,5.77m-7.26-7.59c-11.95-.94-60.82,2.72-18.03,7.53,11.66.41,53.82,3.59,60.71-2.95-12.85-5.43-28.68-3.84-42.68-4.57"/>
        <path class="cls-18" d="m570.7,17.71h-34.13c-6.24.59,5.49.38,6.5.69.38.06.24.41.07.6-.79.73-4.1,5.9-5.3,5.91-2.67.52-5.73.29-8.46.35-.73.1-2.07-.23-2.27.52,1.45.35,66.79,0,68.41.12.55-.04,1.39.05,1.84-.21l1.53-3.02c-.13-.19-.41-.14-.67-.19-1.55-.11-3.81-.14-5.34.06-9.84,3.64-21.2,1.95-31.54,2.23-.55-.04-1.69.17-1.3-.74.49-.58,1.71-5.69,2.79-5.57.78-.39,13.69-.13,7.86-.74"/>
        <path class="cls-18" d="m532.99,13.8c-35.25,1.23-140.48,15.35-175.49,17.33,17.1-.15,42.8.29,59.85-.16,1.77-1.26-8.62-1.17-11.3-1.43l62.19-7.08,31.2,7.17c-49.09,2.48,36.52,1.24,44.52,1.5-4.65-1.9-11.16-.88-16.07-1.81-.6-.06-.94-.1-.94-.1l-42.53-8.64,57.13-6.51c-2.64-.18-5.63-.26-8.56-.27m-90.03-.12c-3.9,0-8.3.16-11.9.39l26.79,6.11,16.51-1.78c-7.97-1.53-23.36-5.34-31.4-4.72"/>
      </g>
    </g>
  </g>
</svg>