<?xml version="1.0" encoding="UTF-8"?>
<svg id="Layer_1" data-name="Layer 1" xmlns="http://www.w3.org/2000/svg" viewBox="0 0 269.15 106.05">
  <defs>
    <style>
      .cls-1 {
        fill: #fff;
        stroke-width: 0px;
      }
    </style>
  </defs>
  <path class="cls-1" d="M52.59,0l-24.25,20.27v13.8h17.99l13.11-10.98h6.28l24.53,29.35-.61,4.93-4.97-.27-18.64-22.3-5.58,4.67,18.65,22.29-.61,4.93-4.96-.27-18.65-22.29-5.57,4.65,18.64,22.3-.6,4.93-4.92-.29-6.84-3.77-2.13-7.56-7.19-3.59-2.16-7.58-7.16-3.55-2.93-8.5h-14.46l-7.64,6.42L0,34.07v71.97h269.15V0H52.59ZM13.15,60.69l-1.1-3.82,11.07-9.27h5.67l1.03,3.87-13.11,10.98-3.57-1.76ZM22.33,71.66l-1.1-3.83,13.11-10.96,3.63,1.7,1.03,3.88-13.11,10.96-3.57-1.75ZM31.5,82.63l-1.1-3.82,13.11-10.98,3.63,1.71,1.03,3.87-13.11,10.98-3.57-1.76ZM44.24,95.33l-3.58-1.76-1.09-3.82,13.11-10.98,3.63,1.71,1.03,3.87-13.11,10.98ZM261.87,98.77H97.2v-49.36l-28.13-33.63h-12.08s-13.09,10.98-13.09,10.98h-8.09l-.09-2.78L55.65,7.29h206.22v91.48Z"/>
  <polygon class="cls-1" points="117.87 50.9 125.51 50.9 125.51 42.68 134.06 28.24 126.68 28.24 122.01 36.09 117.38 28.24 109.32 28.24 117.87 42.58 117.87 50.9"/>
  <polygon class="cls-1" points="153.88 45.13 142.54 45.13 142.54 42.16 152.13 42.16 152.13 36.66 142.54 36.66 142.54 33.99 153.46 33.99 153.46 28.24 135.03 28.24 135.03 50.9 153.88 50.9 153.88 45.13"/>
  <path class="cls-1" d="M173.79,43.92c1.27-.65,2.27-1.52,3.01-2.62.84-1.26,1.26-2.77,1.26-4.52s-.42-3.26-1.26-4.55c-.85-1.29-2.04-2.27-3.58-2.96-1.55-.69-3.38-1.03-5.49-1.03h-10.91v22.66h7.64v-5.7h2.08l3.84,5.7h8.17l-4.76-6.97ZM169.59,38.73c-.5.48-1.29.72-2.35.72h-2.78v-5.32h2.78c1.06,0,1.84.24,2.35.72.52.48.77,1.13.77,1.94s-.25,1.47-.77,1.95Z"/>
  <polygon class="cls-1" points="198.81 44.97 188.59 44.97 188.59 28.24 180.94 28.24 180.94 50.9 198.81 50.9 198.81 44.97"/>
  <path class="cls-1" d="M204.74,26.71c1.09,0,1.96-.34,2.66-1.03.69-.69,1.03-1.58,1.03-2.66s-.34-1.96-1.03-2.65c-.7-.69-1.58-1.03-2.66-1.03s-1.96.34-2.65,1.03c-.69.69-1.03,1.58-1.03,2.65s.34,1.98,1.03,2.66c.69.69,1.58,1.03,2.65,1.03Z"/>
  <rect class="cls-1" x="200.92" y="28.24" width="7.65" height="22.66"/>
  <polygon class="cls-1" points="117.87 84.13 125.51 84.13 125.51 75.9 134.06 61.46 126.68 61.46 122.01 69.32 117.38 61.46 109.32 61.46 117.87 75.81 117.87 84.13"/>
  <path class="cls-1" d="M141.02,61.46l-9.9,22.67h7.77l1.52-3.95h8.6l1.52,3.95h7.9l-9.9-22.67h-7.52ZM142.52,74.68l2.2-5.7,2.19,5.7h-4.39Z"/>
  <polygon class="cls-1" points="179.16 61.46 159.18 61.46 159.18 67.39 169.21 67.39 158.86 79.44 158.86 84.13 179.68 84.13 179.68 78.21 168.82 78.21 179.16 66.17 179.16 61.46"/>
  <rect class="cls-1" x="181.92" y="61.46" width="7.64" height="22.67"/>
  <polygon class="cls-1" points="193.24 61.46 193.24 84.13 211.11 84.13 211.11 78.21 200.89 78.21 200.89 61.46 193.24 61.46"/>
  <rect class="cls-1" x="213.22" y="61.46" width="7.65" height="22.67"/>
  <polygon class="cls-1" points="231.52 74.16 236.43 82.09 239.8 82.09 244.73 73.79 244.79 84.13 251.75 84.13 251.68 61.46 245.41 61.46 238.22 73.51 230.84 61.46 224.55 61.46 224.55 84.13 231.52 84.13 231.52 74.16"/>
</svg>