<?xml version="1.0" encoding="utf-8"?>
<!-- Generator: Adobe Illustrator 27.8.1, SVG Export Plug-In . SVG Version: 6.00 Build 0)  -->
<svg version="1.1" id="katman_1" xmlns="http://www.w3.org/2000/svg" xmlns:xlink="http://www.w3.org/1999/xlink" x="0px" y="0px"
	 viewBox="0 0 276.6 276.6" style="enable-background:new 0 0 276.6 276.6;" xml:space="preserve">
<style type="text/css">
	.st0{fill:#75B62D;}
</style>
<path class="st0" d="M138.3,0C61.9,0,0,61.9,0,138.3s61.9,138.3,138.3,138.3s138.3-61.9,138.3-138.3S214.7,0,138.3,0z M98.2,203.1
	H67.9v-97.7h30.2V203.1z M82.9,92.6c-9.9,0-17.9-8.1-17.9-18s8-18,17.9-18s17.9,8.1,17.9,18S92.8,92.6,82.9,92.6z M211.5,203.1
	h-30.1v-51.3c0-14.1-5.3-21.9-16.5-21.9c-12.1,0-18.4,8.2-18.4,21.9v51.3h-29v-97.7h29v13.2c0,0,8.7-16.1,29.4-16.1
	s35.6,12.7,35.6,38.8L211.5,203.1L211.5,203.1z"/>
</svg>
