<?xml version="1.0" encoding="UTF-8"?>
<svg id="Layer_1" data-name="Layer 1" xmlns="http://www.w3.org/2000/svg" viewBox="0 0 1577.76 256.75">
  <defs>
    <style>
      .cls-1 {
        fill: #4f5252;
      }

      .cls-1, .cls-2, .cls-3, .cls-4, .cls-5, .cls-6, .cls-7 {
        stroke-width: 0px;
      }

      .cls-2 {
        fill: #ec1e26;
      }

      .cls-3 {
        fill: #4d4d4f;
      }

      .cls-4 {
        fill: #edeced;
      }

      .cls-5 {
        fill: #73b543;
      }

      .cls-6 {
        fill: #fbae42;
      }

      .cls-7 {
        fill: #1d1e1c;
      }
    </style>
  </defs>
  <g>
    <rect class="cls-4" width="500" height="256.75"/>
    <g>
      <path class="cls-7" d="M143.67,155.59c.13.72.38,1.24.72,1.6.36.34.76.61,1.22.79.47.18.95.32,1.46.43.5.11.97.27,1.42.45.43.2.81.5,1.08.88.29.36.45.92.49,1.67,0,.18-.09.27-.27.27h-17.76v-32.06c0-6.65-1.89-12.1-5.68-16.38-3.83-4.17-8.79-6.26-14.85-6.26s-10.93,2.07-14.85,6.2c-3.88,4.24-5.81,9.56-5.81,15.98s2,12.1,6.01,16.36c3.94,4.21,9.01,6.33,15.19,6.33,2.86,0,5.59-.47,8.18-1.44,1.33-.49,2.64-1.1,3.97-1.82,1.31-.72,2.66-1.6,4.03-2.61v12.42c-2.75,1.51-5.52,2.61-8.34,3.31-1.44.36-2.93.61-4.48.79-1.53.18-3.09.27-4.69.27-3.04,0-6.06-.47-9.1-1.4-3-.95-5.72-2.27-8.18-3.94-4.62-3.22-8.18-7.21-10.64-11.96-2.46-4.82-3.69-10.19-3.69-16.02,0-9.6,3.04-17.55,9.1-23.84,6.08-6.24,13.81-9.37,23.19-9.37,6.2,0,11.85,1.53,16.94,4.62,2.57,1.53,4.85,3.42,6.85,5.68,2,2.25,3.63,4.62,4.91,7.12.61,1.24,1.17,2.52,1.64,3.88.5,1.33.86,2.7,1.13,4.12.52,3,.79,7.35.79,13.07v20.91Z"/>
      <path class="cls-7" d="M179.65,98.69c3.36-1.33,6.4-2.03,9.15-2.12,2.75-.09,5.2.2,7.32.83,2.14.63,3.94,1.51,5.43,2.61,1.46,1.1,2.57,2.19,3.31,3.27.77,1.08,1.15,2.01,1.17,2.8.02.79-.36,1.19-1.17,1.19-1.08.05-2.12.07-3.06.07h-4.78c-1.98,0-3.92.09-5.81.27-1.89.16-3.69.48-5.39.88-1.69.43-3.22.99-4.62,1.71-1.37.74-2.55,1.64-3.47,2.75-1.67,1.98-2.95,4.46-3.88,7.46-.92,3-1.4,6.62-1.4,10.88v19.42c.18,1.67.47,2.95.92,3.85.45.9.95,1.58,1.55,2.05.59.45,1.2.79,1.8.99.63.2,1.19.43,1.69.7.52.25.9.63,1.2,1.1.29.5.41,1.24.36,2.25h-26.68c-.09-1.06.04-1.83.36-2.32.34-.47.77-.86,1.29-1.1.54-.27,1.13-.49,1.76-.7.63-.2,1.26-.56,1.85-1.08.59-.54,1.1-1.31,1.51-2.32.43-1.01.7-2.46.83-4.35v-52.44h10.64v9.51c2.03-3.83,4.73-6.56,8.11-8.18Z"/>
      <path class="cls-7" d="M414.49,155.59c.14.72.38,1.24.72,1.6.36.34.77.61,1.22.79.48.18.95.32,1.47.43.49.11.97.27,1.42.45.43.2.81.5,1.08.88.29.36.45.92.49,1.67,0,.18-.09.27-.27.27h-17.75v-32.06c0-6.65-1.89-12.1-5.68-16.38-3.83-4.17-8.79-6.26-14.85-6.26s-10.93,2.07-14.85,6.2c-3.88,4.24-5.81,9.56-5.81,15.98s2.01,12.1,6.02,16.36c3.94,4.21,9.01,6.33,15.19,6.33,2.86,0,5.59-.47,8.18-1.44,1.33-.49,2.64-1.1,3.96-1.82,1.31-.72,2.66-1.6,4.03-2.61v12.42c-2.75,1.51-5.52,2.61-8.34,3.31-1.44.36-2.93.61-4.48.79-1.53.18-3.09.27-4.69.27-3.04,0-6.06-.47-9.1-1.4-3-.95-5.72-2.27-8.18-3.94-4.62-3.22-8.18-7.21-10.64-11.96-2.46-4.82-3.69-10.19-3.69-16.02,0-9.6,3.04-17.55,9.1-23.84,6.08-6.24,13.81-9.37,23.19-9.37,6.2,0,11.85,1.53,16.94,4.62,2.57,1.53,4.85,3.42,6.85,5.68,2,2.25,3.63,4.62,4.91,7.12.61,1.24,1.17,2.52,1.64,3.88.49,1.33.86,2.7,1.13,4.12.52,3,.79,7.35.79,13.07v20.91Z"/>
      <path class="cls-5" d="M221.5,92.43c-1.85-.32-3.52-.83-5.03-1.58-1.26-.63-2.52-1.49-3.76-2.61-.61-.56-1.11-1.22-1.5-1.96-.63-1.19-.86-2.56-.86-3.91v-9.37c1.8-.02,3.45.2,4.96.74,1.26.47,2.5,1.31,3.72,2.5,1.22,1.19,2.03,3,2.48,5.41v10.77h0ZM221.9,127.67v34.59c-.09,3.22-.38,6.29-.86,9.19-.22,1.22-.49,2.5-.83,3.79-.31,1.31-.72,2.55-1.22,3.74-.47,1.17-1.06,2.3-1.71,3.36-.68,1.06-1.42,1.94-2.25,2.64-2.37,1.94-5.12,3.42-8.22,4.44-3.09,1.01-6.92,1.51-11.45,1.51h-16.9c.32-2.59.88-4.62,1.76-6.08.86-1.44,1.96-2.52,3.29-3.27,1.35-.72,2.91-1.19,4.73-1.42,1.8-.2,3.79-.38,5.93-.52,1.8-.13,3.52-.36,5.16-.65,1.35-.27,2.73-.61,4.08-1.04,1.37-.41,2.39-.95,3.04-1.6,1.37-1.33,2.37-2.93,2.98-4.8.61-1.87.92-4.12.92-6.76v-66.88c2.3.05,4.33.81,6.08,2.32.74.65,1.46,1.49,2.16,2.5.72,1.01,1.33,2.28,1.87,3.83.52,1.53.92,3.36,1.17,5.48.27,2.12.36,4.55.27,7.32v8.32Z"/>
      <path class="cls-7" d="M286.08,140.74c2.01-1.85,3.81-3.18,5.36-3.99,1.58-.81,2.88-1.35,3.94-1.62,1.22-.32,2.3-.38,3.22-.2-.38,2.3-.9,4.39-1.51,6.31-.61,1.91-1.35,3.69-2.21,5.34-.86,1.67-1.85,3.2-2.97,4.66-1.13,1.44-2.41,2.84-3.88,4.15-5.84,5.34-12.93,8-21.25,8-2.86,0-5.68-.41-8.45-1.19-2.82-.74-5.43-1.87-7.84-3.36-5.07-3.09-9.06-7.19-11.97-12.35-2.86-5.09-4.28-10.66-4.28-16.7,0-2.23.2-4.42.63-6.53.41-2.12,1.01-4.17,1.8-6.2,1.64-4.01,4.01-7.64,7.14-10.91,3.11-3.15,6.65-5.56,10.55-7.26,4.1-1.67,8.29-2.5,12.55-2.5,6.51,0,12.35,1.71,17.48,5.14,5.16,3.47,9.31,8.47,12.49,14.98l-42.18,23.37c-.45-1.94-.43-3.88.07-5.81.41-1.67,1.26-3.45,2.61-5.34,1.33-1.89,3.51-3.65,6.56-5.27.22-.14.63-.38,1.22-.74.61-.34,1.33-.77,2.19-1.24.86-.5,1.8-1.02,2.82-1.6.99-.56,2-1.13,3.02-1.71,2.44-1.35,5.07-2.86,7.93-4.48-1.89-2.12-4.05-3.72-6.47-4.82-2.34-1.1-4.96-1.64-7.86-1.64-5.77,0-10.64,2.16-14.58,6.47-3.97,4.3-5.95,9.64-5.95,15.98s1.98,11.65,5.95,15.91c3.94,4.35,8.81,6.53,14.58,6.53s10.07-1.8,13.75-5.41c1.22-1.06,2.21-2.1,2.93-3.07.72-.99,1.6-1.96,2.61-2.88Z"/>
      <path class="cls-7" d="M333.15,97.19c1.79.2,3.27.76,4.42,1.71,1.42,1.15,2.5,2.39,3.24,3.76.88,1.58,1.49,3.38,1.85,5.41h-9.51v-10.88h0ZM333.15,161.51v-11.17c1.12.17,2.33.28,3.63.31.7-.18,1.17-.52,1.42-.99.25-.49.43-.99.56-1.49.14-.52.34-.97.63-1.4.27-.41.86-.63,1.74-.68.14.05.2.09.2.18v15.39h-5.2c-.45,0-.9-.02-1.4-.07h-.14c-.49-.03-.97-.06-1.44-.1ZM325.04,97.05h1.37c.83.05,1.65.07,2.46.07h3.09c.41,0,.81.03,1.19.07v10.88h-8.18l.07-11.02h0ZM333.15,150.34v11.17c-6.95-.56-12.29-2.49-16.04-5.78-4.53-3.97-6.81-9.94-6.81-17.96v-47.66c.05-2.46.65-4.44,1.85-5.9,1.19-1.49,2.5-2.61,3.97-3.4,1.67-.92,3.58-1.56,5.74-1.91v56.85c0,5.18,1.26,8.97,3.76,11.36,1.76,1.66,4.27,2.74,7.52,3.25Z"/>
    </g>
  </g>
  <g>
    <rect class="cls-4" x="538.88" width="500" height="256.75"/>
    <g>
      <g>
        <path class="cls-3" d="M659.61,98.26c-3.2-1.87-6.74-3.04-10.62-3.51l-2.7,1.77c-3.29,2.14-6.33,4.61-9.06,7.36,2.4-1.03,5-1.55,7.77-1.55,3.83,0,7.26.92,10.31,2.77,3.04,1.85,5.44,4.33,7.18,7.44,1.75,3.12,2.62,6.65,2.62,10.62,0,3.89-.87,7.42-2.62,10.56-1.74,3.15-4.14,5.63-7.18,7.44-3.05,1.82-6.48,2.72-10.31,2.72-3.76,0-7.16-.91-10.16-2.72-3.01-1.8-5.37-4.29-7.08-7.44-1.72-3.14-2.57-6.67-2.57-10.56,0-.61.02-1.21.07-1.8-1.89,4.11-3.37,8.36-4.49,12.63,1.52,3,3.16,5.47,4.63,7.43,2.26,3.08,5.21,5.56,8.83,7.44,3.62,1.88,7.66,2.82,12.11,2.82,5.2,0,9.85-1.24,13.95-3.74,4.1-2.49,7.33-5.9,9.7-10.21,2.36-4.31,3.54-9.17,3.54-14.57,0-5.47-1.25-10.37-3.74-14.67-2.5-4.32-5.88-7.72-10.16-10.22Z"/>
        <path class="cls-3" d="M729.23,98.21c-4.24-2.46-9.1-3.69-14.57-3.69-5.54,0-10.45,1.23-14.72,3.69-4.28,2.46-7.64,5.85-10.11,10.16-2.46,4.31-3.69,9.23-3.69,14.77,0,5.47,1.23,10.36,3.69,14.67,2.47,4.31,5.83,7.7,10.11,10.16,4.28,2.47,9.18,3.69,14.72,3.69,5.47,0,10.34-1.23,14.62-3.69,4.28-2.46,7.65-5.84,10.11-10.16,2.46-4.31,3.69-9.2,3.69-14.67-.07-5.54-1.33-10.47-3.79-14.77-2.47-4.31-5.82-7.7-10.06-10.16ZM731.99,133.77c-1.72,3.11-4.07,5.57-7.08,7.38-3.01,1.82-6.43,2.72-10.26,2.72s-7.27-.91-10.32-2.72c-3.04-1.8-5.43-4.28-7.18-7.38-1.75-3.12-2.62-6.66-2.62-10.62s.87-7.52,2.62-10.67c1.75-3.15,4.14-5.63,7.18-7.44,3.05-1.82,6.48-2.72,10.32-2.72,3.83,0,7.24.91,10.26,2.72,3,1.82,5.37,4.29,7.08,7.44,1.72,3.15,2.57,6.7,2.57,10.67,0,3.97-.85,7.51-2.57,10.62Z"/>
        <path class="cls-3" d="M792.38,95.95c-1.82-1.03-4.46-1.53-7.95-1.53-3.96,0-7.61.96-10.92,2.87-2.56,1.48-4.73,3.37-6.52,5.68v-3.64c0-1.37-.36-2.43-1.08-3.18-.71-.74-1.77-1.13-3.13-1.13-1.36,0-2.43.38-3.17,1.13-.76.76-1.13,1.82-1.13,3.18v47.52c0,1.37.38,2.43,1.13,3.18.74.74,1.8,1.13,3.17,1.13s2.42-.38,3.13-1.13c.72-.76,1.08-1.82,1.08-3.18v-30.48c0-3.15.91-5.84,2.77-8.1,1.85-2.26,4.33-3.89,7.44-4.88,3.11-.99,6.69-1.24,10.72-.77,1.09.14,2.07.21,2.92.21s1.6-.21,2.26-.61c.64-.41,1.08-1.1,1.28-2.06.47-1.8-.19-3.2-2.01-4.22Z"/>
        <path class="cls-3" d="M840,122.58c-2.98-1.6-7.03-2.85-12.16-3.74-3.76-.68-6.65-1.45-8.66-2.31-2.02-.85-3.42-1.82-4.21-2.92-.79-1.09-1.18-2.39-1.18-3.89,0-2.19,1.09-3.99,3.28-5.39,2.19-1.4,5.06-2.1,8.62-2.1,2.8,0,5.3.43,7.49,1.28,2.19.86,4.14,2.21,5.85,4.06.81.89,1.82,1.43,3.02,1.65,1.2.2,2.24,0,3.13-.62,1.03-.61,1.58-1.45,1.7-2.51.1-1.06-.23-2.07-.98-3.03-2.05-2.59-4.75-4.67-8.1-6.2-3.35-1.53-7.32-2.31-11.91-2.31-3.62,0-6.99.58-10.1,1.75-3.12,1.16-5.63,2.9-7.55,5.23-1.92,2.33-2.87,5.23-2.87,8.72,0,3.83,1.58,7.11,4.77,9.85,3.18,2.74,8.23,4.68,15.14,5.85,5.33.89,9.12,2.12,11.34,3.69,2.22,1.57,3.34,3.52,3.34,5.84-.08,2.39-1.21,4.4-3.44,6-2.22,1.61-5.69,2.41-10.41,2.41-3.22,0-6.16-.53-8.83-1.59-2.67-1.06-4.76-2.48-6.27-4.26-.74-.82-1.69-1.3-2.82-1.43-1.13-.14-2.24.2-3.33,1.03-.96.76-1.5,1.72-1.65,2.87-.13,1.16.21,2.19,1.03,3.08,2.39,2.59,5.59,4.6,9.59,6,4.01,1.4,8.13,2.1,12.37,2.1,4.52,0,8.41-.71,11.69-2.15,3.28-1.45,5.83-3.37,7.65-5.8,1.8-2.43,2.72-5.25,2.72-8.46,0-2.6-.64-4.96-1.9-7.08-1.26-2.13-3.39-3.99-6.36-5.6Z"/>
        <path class="cls-3" d="M908.59,95.03c-1.3,0-2.35.39-3.13,1.18-.79.78-1.18,1.83-1.18,3.12v29.87c0,2.8-.74,5.28-2.26,7.44-1.5,2.15-3.55,3.86-6.15,5.13-2.6,1.27-5.51,1.9-8.72,1.9-3.35,0-6.35-.67-9.03-2-2.67-1.33-4.8-3.32-6.37-5.95-1.57-2.64-2.36-6.03-2.36-10.21v-26.17c0-1.23-.41-2.25-1.23-3.07-.81-.82-1.85-1.23-3.07-1.23s-2.26.41-3.08,1.23c-.82.82-1.23,1.85-1.23,3.07v26.17c0,5.68,1.09,10.46,3.28,14.37,2.18,3.89,5.18,6.86,8.98,8.88,3.79,2.02,8.12,3.02,12.98,3.02,4.44,0,8.48-.99,12.11-2.97,2.38-1.3,4.43-2.9,6.15-4.8v2.75c0,1.37.39,2.44,1.18,3.23.78.78,1.83,1.18,3.13,1.18,1.3,0,2.36-.39,3.17-1.18.82-.79,1.23-1.87,1.23-3.23v-47.42c0-1.3-.41-2.34-1.23-3.12-.81-.79-1.87-1.18-3.17-1.18Z"/>
        <path class="cls-3" d="M973.85,145l-20.9-25.74,19.98-17.97c.89-.82,1.37-1.73,1.43-2.72.07-.99-.31-1.93-1.13-2.82-.82-.89-1.73-1.37-2.72-1.43-.99-.07-1.94.3-2.82,1.13l-27.71,25.03v-45.25c0-1.23-.39-2.23-1.18-3.02-.78-.79-1.83-1.18-3.12-1.18s-2.24.39-3.03,1.18-1.18,1.8-1.18,3.02v71.73c0,1.23.39,2.24,1.18,3.03.79.78,1.8,1.18,3.03,1.18,1.3,0,2.34-.39,3.12-1.18.79-.79,1.18-1.8,1.18-3.03v-16.01s6.87-6.19,6.87-6.19l20.63,25.38c.76.96,1.67,1.48,2.72,1.58,1.06.1,2.07-.25,3.03-1.08,1.03-.82,1.57-1.75,1.64-2.77.07-1.01-.26-1.97-1.02-2.86Z"/>
      </g>
      <path class="cls-6" d="M617.61,188.77s-21.11-27.91-12.78-56.82c5.93-20.58,22.06-32.05,25.86-33.97,3.04-1.54,6.13-2.37,6.13-2.37,3.34-.91,6.22-1.09,8.18-1.1-2.54,1.66-7.28,5.01-11.94,10.33-27.5,31.37-15.43,83.93-15.43,83.93Z"/>
    </g>
  </g>
  <g>
    <rect class="cls-4" x="1077.76" width="500" height="256.75"/>
    <g>
      <path class="cls-1" d="M1445.12,177.58c-.33,2.05-.12,2.25,1.73,2.42l-.14.87h-6.23l.14-.87c1.87-.17,2.18-.37,2.51-2.42l2.34-14.51c.35-2.15.17-2.22-1.68-2.35l.14-.84c1.54-.2,3.28-.74,4.23-1.11l-3.03,18.81ZM1431.78,177.58c-.33,2.05-.12,2.25,1.73,2.42l-.14.87h-6.22l.14-.87c1.87-.17,2.18-.37,2.51-2.42l2.34-14.51c.35-2.15.17-2.22-1.68-2.35l.14-.84c1.53-.2,3.28-.74,4.23-1.11l-3.03,18.81ZM1414.17,174.76c-1.25.54-1.99,1.14-2.18,2.28-.25,1.58.79,2.35,1.71,2.35.8,0,2.07-.67,2.71-1.24l.77-4.77-3.01,1.38ZM1419.19,179.19c.34,0,.79-.17,1.1-.37l.16.91-2.57,1.51c-.34,0-.91-.27-1.13-.57-.33-.44-.44-.87-.45-1.41-1.33.84-2.83,1.98-3.81,1.98-1.93,0-3.05-1.81-2.73-3.83.24-1.48,1.15-2.55,2.86-3.12,1.82-.64,4.05-1.51,4.74-2.02l.07-.44c.37-2.28-.47-3.56-1.94-3.56-.61,0-1.12.27-1.45.64-.44.44-.76,1.07-1.18,1.98-.17.47-.51.67-.91.67-.46,0-1.07-.57-.95-1.31.07-.44.5-.81,1.12-1.24.8-.57,2.8-1.78,4.52-2.15.83,0,1.67.27,2.16.84.77.91.88,2.15.63,3.73l-.95,5.88c-.23,1.41.19,1.88.71,1.88ZM1404.14,168.11c-1.48.23-1.78.6-2.68,2.38-1.26,2.52-3.13,6.48-5.09,10.68h-.83c-.61-3.46-1.25-6.52-1.89-9.81-1.57,3.09-3.25,6.28-4.98,9.81h-.86c-.42-3.66-.86-7.22-1.45-10.98-.26-1.65-.49-1.91-1.84-2.08l.14-.87h5.7l-.14.87c-1.73.27-1.88.47-1.69,1.95.25,2.42.59,4.9.91,7.32h.06c1.56-3.02,3.12-6.25,4.95-9.98h.8c.51,3.29,1.13,6.68,1.78,10.08h.06c.96-2.18,2.19-4.87,3.16-7.25.67-1.71.52-1.88-1.28-2.12l.14-.87h5.18l-.14.87ZM1372.17,168.08c-1.38,0-2.85,1.31-3.77,3.8,1.65.03,3.31,0,5.07-.07.56-.03.77-.24.84-.67.26-1.65-.55-3.06-2.15-3.06ZM1376.5,171.64c-.11.71-.27.94-.79,1.07-.48.1-4.14.4-7.66.5-.65,4.23,1.34,5.98,3.3,5.98,1.2,0,2.32-.54,3.54-1.58l.37.77c-2.21,2.32-4.17,2.85-5.06,2.85-3.4,0-4.96-3.12-4.39-6.65.34-2.12,1.33-4.06,2.72-5.47,1.36-1.41,3.03-2.25,4.47-2.25,2.36,0,3.89,2.28,3.49,4.77ZM1359.57,168.38c-.09.57-.49,1.14-1.09,1.44-.33.13-.57.1-.73-.07-.32-.47-.6-.64-1.06-.64-.8,0-2.01,1.07-2.92,2.92l-.89,5.51c-.34,2.08-.24,2.28,1.97,2.45l-.14.87h-6.41l.14-.87c1.9-.17,2.11-.37,2.44-2.42l1.02-6.31c.34-2.12.23-2.22-1.42-2.42l.13-.81c1.36-.23,2.62-.64,4.01-1.28l-.55,3.39h.06c1.11-1.55,2.58-3.29,4.03-3.29,1.01,0,1.53.81,1.41,1.51ZM1339.15,177.55c-.34,2.08-.15,2.28,1.66,2.45l-.14.87h-6.1l.14-.87c1.87-.17,2.11-.37,2.45-2.45l1.03-6.42c.3-1.85.26-2.02-1.5-2.28l.13-.81c1.48-.27,2.81-.67,4.06-1.24l-1.73,10.75ZM1341.77,162.57c-.13.81-.83,1.55-1.63,1.55-.74,0-1.26-.74-1.13-1.55.15-.91.9-1.58,1.66-1.58s1.24.67,1.1,1.58ZM1329.24,165.36l-.93.07c-.03-1.31-.07-1.85-.33-2.52-.29-.84-.84-1.07-2.92-1.07h-2.42c-.83,0-.94.1-1.08.97l-1.18,7.32h3.04c2.55,0,2.68-.23,3.37-2.25h.92l-.97,6.01h-.92c-.01-2.22-.05-2.52-2.6-2.52h-3.04l-.9,5.58c-.42,2.62-.17,2.79,2.47,2.96l-.16.97h-7.64l.16-.97c2.35-.13,2.6-.34,3.02-2.96l1.98-12.33c.42-2.62.23-2.75-1.98-2.96l.15-.94h12.42c-.17,1.24-.35,3.12-.47,4.64Z"/>
      <g>
        <path class="cls-2" d="M1374.26,98.61c-4.68,0-7.52,2.95-9.42,7-2.4,5.13-2.85,12.25-2.85,17.82,0,6.39.69,14.86,4.37,20.32,1.89,2.8,4.45,4.14,7.82,4.14,2.04,0,4-.46,5.62-1.75,2.37-1.87,3.8-4.93,4.71-7.74,1.45-4.54,1.78-9.9,1.78-14.63s-.21-11.42-1.81-16.1c-.85-2.48-2.21-5.45-4.34-7.1-1.73-1.34-3.69-1.97-5.88-1.97M1446.33,146.65v-10.58c0-.8,0-3.07-.3-3.8-.19-.45-.74-.86-1.14-1.1-.72-.44-1.55-.59-2.39-.59h-1.31c-.78,0-1.42-.63-1.42-1.42v-1.43c0-.78.63-1.42,1.42-1.42h24.82c.78,0,1.41.64,1.41,1.42v1.43c0,.74-.57,1.36-1.31,1.41-.85.06-2.6.23-3.34.66-.54.32-.89.89-1.13,1.52-.23.58-.23,2.68-.23,3.32v11.55c0,.55-.3,1.03-.8,1.27-3.35,1.63-6.85,2.87-10.48,3.7-3.7.85-7.49,1.24-11.29,1.24-4.24,0-8.73-.53-12.63-2.29-3.28-1.48-6.27-3.46-8.87-5.95-2.51-2.41-4.56-5.2-6.03-8.35-1.95-4.18-2.77-8.7-2.77-13.3,0-8.5,2.66-16.02,8.47-22.24,5.77-6.18,12.99-9.14,21.43-9.14,2.39,0,4.81.18,7.15.68,1.83.38,3.9,1.23,5.62,1.95.82.34,3.05,1.32,3.84,1.42.4,0,.72-.2,1-.46.56-.53,1.05-1.88,1.27-2.6.19-.6.72-.99,1.35-.99h1.31c.78,0,1.41.64,1.41,1.42v19.65c0,.78-.64,1.42-1.41,1.42h-1.31c-.63,0-1.16-.39-1.35-.99-1.37-4.36-3.56-8.57-7.13-11.52-2.95-2.44-6.3-3.85-10.15-3.85-3.26,0-6.17.91-8.59,3.14-2.62,2.42-4.13,5.7-4.98,9.11-1.03,4.12-1.54,8.33-1.54,12.57,0,4.56.41,9.28,1.67,13.68.9,3.12,2.4,6.17,5.07,8.13,2.45,1.81,5.27,2.56,8.3,2.56,1.17,0,2.33-.15,3.47-.4.97-.22,1.93-.5,2.86-.84ZM1373.81,93.17c8.13-.31,15.32,2.21,20.88,8.23,5.6,6.07,8.01,13.45,8.01,21.66,0,7.1-1.86,13.68-5.95,19.49-5.43,7.7-13.07,11.3-22.45,11.3s-16.94-3.28-22.47-10.78c-4.35-5.89-6.24-12.67-6.24-19.97,0-8.24,2.48-15.63,8.13-21.68,5.4-5.78,12.19-8.57,20.09-8.25ZM1313.6,146.37c.78.27,3.19.26,4,.26h4.24c2.06,0,4.23-.32,6.03-1.37,1.79-1.03,3.14-2.66,4.16-4.42,1.63-2.8,2.75-6.49,3.58-9.6.17-.63.72-1.05,1.37-1.05h1.62c.41,0,.77.16,1.05.47.28.31.4.68.36,1.09l-1.93,19.56c-.07.73-.68,1.28-1.41,1.28h-45.25c-.78,0-1.41-.64-1.41-1.42v-1.43c0-.78.63-1.42,1.41-1.42h1.68c.93,0,2.01-.13,2.84-.67.45-.27.73-.79.92-1.32.31-.76.31-3.83.31-4.69v-36.85c0-.96.02-4.02-.32-4.89-.2-.51-.67-.91-1.12-1.2-.74-.48-1.78-.59-2.64-.59h-1.68c-.78,0-1.41-.64-1.41-1.42v-1.43c0-.78.63-1.42,1.41-1.42h27.21c.78,0,1.41.64,1.41,1.42v1.43c0,.78-.63,1.42-1.41,1.42h-2.24c-.94,0-2.01.14-2.86.67-.47.28-.77.83-.97,1.32-.31.76-.3,3.83-.3,4.69v35.67c0,1.08-.01,3.98.36,4.97.18.46.54.74.97.94Z"/>
        <path class="cls-2" d="M1292.5,62.22l-38.34,55.33,38.04,54.49s3.93,3.4,7.48,4.26c3.13.76,4,4,4.22,5.56h-37.94s-1.98-4.48,8.64-7.57l-29.88-43.13-29.64,42.77c.4.11.81.23,1.24.36,10.24,3.09,8.33,7.57,8.33,7.57h-36.58c.22-1.56,1.06-4.8,4.07-5.56,2.79-.7,6.55-3.12,8.2-5.53l67.01-97.82c3.78-5.52,7.49-11.71,14.63-13.17,6.11-1.26,10.51,2.44,10.51,2.44M1196.96,62.22l36.3,52.39,9.33-13.63-24.16-34.61c-10.31-14.77-21.47-4.15-21.47-4.15Z"/>
      </g>
    </g>
  </g>
</svg>