<?xml version="1.0" encoding="UTF-8"?>
<svg id="Layer_1" data-name="Layer 1" xmlns="http://www.w3.org/2000/svg" viewBox="0 0 341.79 117.92">
  <defs>
    <style>
      .cls-1 {
        fill: #73b543;
      }

      .cls-1, .cls-2 {
        stroke-width: 0px;
      }

      .cls-2 {
        fill: #1d1e1c;
      }
    </style>
  </defs>
  <path class="cls-2" d="M64.56,82.59c.13.72.38,1.24.72,1.6.36.34.76.61,1.22.79.47.18.95.32,1.46.43.5.11.97.27,1.42.45.43.2.81.5,1.08.88.29.36.45.92.49,1.67,0,.18-.09.27-.27.27h-17.76v-32.06c0-6.65-1.89-12.1-5.68-16.38-3.83-4.17-8.79-6.26-14.85-6.26s-10.93,2.07-14.85,6.2c-3.88,4.24-5.81,9.56-5.81,15.98s2,12.1,6.01,16.36c3.94,4.21,9.01,6.33,15.19,6.33,2.86,0,5.59-.47,8.18-1.44,1.33-.49,2.64-1.1,3.97-1.82,1.31-.72,2.66-1.6,4.03-2.61v12.42c-2.75,1.51-5.52,2.61-8.34,3.31-1.44.36-2.93.61-4.48.79-1.53.18-3.09.27-4.69.27-3.04,0-6.06-.47-9.1-1.4-3-.95-5.72-2.27-8.18-3.94-4.62-3.22-8.18-7.21-10.64-11.96-2.46-4.82-3.69-10.19-3.69-16.02,0-9.6,3.04-17.55,9.1-23.84,6.08-6.24,13.81-9.37,23.19-9.37,6.2,0,11.85,1.53,16.94,4.62,2.57,1.53,4.85,3.42,6.85,5.68,2,2.25,3.63,4.62,4.91,7.12.61,1.24,1.17,2.52,1.64,3.88.5,1.33.86,2.7,1.13,4.12.52,3,.79,7.35.79,13.07v20.91Z"/>
  <path class="cls-2" d="M100.54,25.69c3.36-1.33,6.4-2.03,9.15-2.12,2.75-.09,5.2.2,7.32.83,2.14.63,3.94,1.51,5.43,2.61,1.46,1.1,2.57,2.19,3.31,3.27.77,1.08,1.15,2.01,1.17,2.8.02.79-.36,1.19-1.17,1.19-1.08.05-2.12.07-3.06.07h-4.78c-1.98,0-3.92.09-5.81.27-1.89.16-3.69.48-5.39.88-1.69.43-3.22.99-4.62,1.71-1.37.74-2.55,1.64-3.47,2.75-1.67,1.98-2.95,4.46-3.88,7.46-.92,3-1.4,6.62-1.4,10.88v19.42c.18,1.67.47,2.95.92,3.85.45.9.95,1.58,1.55,2.05.59.45,1.2.79,1.8.99.63.2,1.19.43,1.69.7.52.25.9.63,1.2,1.1.29.5.41,1.24.36,2.25h-26.68c-.09-1.06.04-1.83.36-2.32.34-.47.77-.86,1.29-1.1.54-.27,1.13-.49,1.76-.7.63-.2,1.26-.56,1.85-1.08.59-.54,1.1-1.31,1.51-2.32.43-1.01.7-2.46.83-4.35V24.36h10.64v9.51c2.03-3.83,4.73-6.56,8.11-8.18Z"/>
  <path class="cls-2" d="M335.39,82.59c.14.72.38,1.24.72,1.6.36.34.77.61,1.22.79.48.18.95.32,1.47.43.49.11.97.27,1.42.45.43.2.81.5,1.08.88.29.36.45.92.49,1.67,0,.18-.09.27-.27.27h-17.75v-32.06c0-6.65-1.89-12.1-5.68-16.38-3.83-4.17-8.79-6.26-14.85-6.26s-10.93,2.07-14.85,6.2c-3.88,4.24-5.81,9.56-5.81,15.98s2.01,12.1,6.02,16.36c3.94,4.21,9.01,6.33,15.19,6.33,2.86,0,5.59-.47,8.18-1.44,1.33-.49,2.64-1.1,3.96-1.82,1.31-.72,2.66-1.6,4.03-2.61v12.42c-2.75,1.51-5.52,2.61-8.34,3.31-1.44.36-2.93.61-4.48.79-1.53.18-3.09.27-4.69.27-3.04,0-6.06-.47-9.1-1.4-3-.95-5.72-2.27-8.18-3.94-4.62-3.22-8.18-7.21-10.64-11.96-2.46-4.82-3.69-10.19-3.69-16.02,0-9.6,3.04-17.55,9.1-23.84,6.08-6.24,13.81-9.37,23.19-9.37,6.2,0,11.85,1.53,16.94,4.62,2.57,1.53,4.85,3.42,6.85,5.68,2,2.25,3.63,4.62,4.91,7.12.61,1.24,1.17,2.52,1.64,3.88.49,1.33.86,2.7,1.13,4.12.52,3,.79,7.35.79,13.07v20.91Z"/>
  <path class="cls-1" d="M142.39,19.43c-1.85-.32-3.52-.83-5.03-1.58-1.26-.63-2.52-1.49-3.76-2.61-.61-.56-1.11-1.22-1.5-1.96-.63-1.19-.86-2.56-.86-3.91V0c1.8-.02,3.45.2,4.96.74,1.26.47,2.5,1.31,3.72,2.5,1.22,1.19,2.03,3,2.48,5.41v10.77h0ZM142.79,54.67v34.59c-.09,3.22-.38,6.29-.86,9.19-.22,1.22-.49,2.5-.83,3.79-.31,1.31-.72,2.55-1.22,3.74-.47,1.17-1.06,2.3-1.71,3.36-.68,1.06-1.42,1.94-2.25,2.64-2.37,1.94-5.12,3.42-8.22,4.44-3.09,1.01-6.92,1.51-11.45,1.51h-16.9c.32-2.59.88-4.62,1.76-6.08.86-1.44,1.96-2.52,3.29-3.27,1.35-.72,2.91-1.19,4.73-1.42,1.8-.2,3.79-.38,5.93-.52,1.8-.13,3.52-.36,5.16-.65,1.35-.27,2.73-.61,4.08-1.04,1.37-.41,2.39-.95,3.04-1.6,1.37-1.33,2.37-2.93,2.98-4.8.61-1.87.92-4.12.92-6.76V24.9c2.3.05,4.33.81,6.08,2.32.74.65,1.46,1.49,2.16,2.5.72,1.01,1.33,2.28,1.87,3.83.52,1.53.92,3.36,1.17,5.48.27,2.12.36,4.55.27,7.32v8.32Z"/>
  <path class="cls-2" d="M206.97,67.74c2.01-1.85,3.81-3.18,5.36-3.99,1.58-.81,2.88-1.35,3.94-1.62,1.22-.32,2.3-.38,3.22-.2-.38,2.3-.9,4.39-1.51,6.31-.61,1.91-1.35,3.69-2.21,5.34-.86,1.67-1.85,3.2-2.97,4.66-1.13,1.44-2.41,2.84-3.88,4.15-5.84,5.34-12.93,8-21.25,8-2.86,0-5.68-.41-8.45-1.19-2.82-.74-5.43-1.87-7.84-3.36-5.07-3.09-9.06-7.19-11.97-12.35-2.86-5.09-4.28-10.66-4.28-16.7,0-2.23.2-4.42.63-6.53.41-2.12,1.01-4.17,1.8-6.2,1.64-4.01,4.01-7.64,7.14-10.91,3.11-3.15,6.65-5.56,10.55-7.26,4.1-1.67,8.29-2.5,12.55-2.5,6.51,0,12.35,1.71,17.48,5.14,5.16,3.47,9.31,8.47,12.49,14.98l-42.18,23.37c-.45-1.94-.43-3.88.07-5.81.41-1.67,1.26-3.45,2.61-5.34,1.33-1.89,3.51-3.65,6.56-5.27.22-.14.63-.38,1.22-.74.61-.34,1.33-.77,2.19-1.24.86-.5,1.8-1.02,2.82-1.6.99-.56,2-1.13,3.02-1.71,2.44-1.35,5.07-2.86,7.93-4.48-1.89-2.12-4.05-3.72-6.47-4.82-2.34-1.1-4.96-1.64-7.86-1.64-5.77,0-10.64,2.16-14.58,6.47-3.97,4.3-5.95,9.64-5.95,15.98s1.98,11.65,5.95,15.91c3.94,4.35,8.81,6.53,14.58,6.53s10.07-1.8,13.75-5.41c1.22-1.06,2.21-2.1,2.93-3.07.72-.99,1.6-1.96,2.61-2.88Z"/>
  <path class="cls-2" d="M254.04,24.19c1.79.2,3.27.76,4.42,1.71,1.42,1.15,2.5,2.39,3.24,3.76.88,1.58,1.49,3.38,1.85,5.41h-9.51v-10.88h0ZM254.04,88.51v-11.17c1.12.17,2.33.28,3.63.31.7-.18,1.17-.52,1.42-.99.25-.49.43-.99.56-1.49.14-.52.34-.97.63-1.4.27-.41.86-.63,1.74-.68.14.05.2.09.2.18v15.39h-5.2c-.45,0-.9-.02-1.4-.07h-.14c-.49-.03-.97-.06-1.44-.1ZM245.93,24.04h1.37c.83.05,1.65.07,2.46.07h3.09c.41,0,.81.03,1.19.07v10.88h-8.18l.07-11.02h0ZM254.04,77.34v11.17c-6.95-.56-12.29-2.49-16.04-5.78-4.53-3.97-6.81-9.94-6.81-17.96V17.11c.05-2.46.65-4.44,1.85-5.9,1.19-1.49,2.5-2.61,3.97-3.4,1.67-.92,3.58-1.56,5.74-1.91v56.85c0,5.18,1.26,8.97,3.76,11.36,1.76,1.66,4.27,2.74,7.52,3.25Z"/>
</svg>