<?xml version="1.0" encoding="UTF-8"?>
<svg id="Layer_1" data-name="Layer 1" xmlns="http://www.w3.org/2000/svg" viewBox="0 0 376.4 154.69">
  <defs>
    <style>
      .cls-1 {
        fill: #7fb041;
      }

      .cls-1, .cls-2, .cls-3 {
        stroke-width: 0px;
      }

      .cls-2 {
        fill: #cecac5;
      }

      .cls-3 {
        fill: #262a2e;
      }
    </style>
  </defs>
  <rect class="cls-3" width="376.4" height="154.69"/>
  <g>
    <path class="cls-2" d="M93.08,98.48c.12.65.34,1.11.64,1.43.32.3.68.54,1.09.71.42.16.85.28,1.31.38.44.1.87.24,1.27.4.38.18.73.44.97.79.26.32.4.83.44,1.49,0,.16-.08.24-.24.24h-15.88v-28.68c0-5.95-1.69-10.83-5.08-14.65-3.43-3.73-7.86-5.6-13.28-5.6s-9.78,1.85-13.28,5.54c-3.47,3.79-5.2,8.55-5.2,14.29s1.79,10.83,5.38,14.64c3.53,3.77,8.06,5.66,13.59,5.66,2.56,0,5-.42,7.32-1.29,1.19-.44,2.36-.99,3.55-1.63,1.17-.65,2.38-1.43,3.61-2.34v11.11c-2.46,1.35-4.94,2.34-7.46,2.96-1.29.32-2.62.55-4.01.71-1.37.16-2.76.24-4.19.24-2.72,0-5.42-.42-8.14-1.25-2.68-.85-5.12-2.03-7.32-3.53-4.13-2.88-7.32-6.45-9.51-10.7-2.2-4.31-3.3-9.11-3.3-14.33,0-8.59,2.72-15.7,8.14-21.33,5.44-5.58,12.35-8.39,20.74-8.39,5.54,0,10.6,1.37,15.16,4.13,2.3,1.37,4.33,3.06,6.13,5.08,1.79,2.02,3.24,4.13,4.39,6.37.54,1.11,1.05,2.26,1.47,3.47.44,1.19.77,2.42,1.01,3.69.46,2.68.71,6.57.71,11.69v18.7Z"/>
    <path class="cls-2" d="M125.27,47.59c3-1.19,5.73-1.81,8.18-1.9,2.46-.08,4.66.18,6.55.75,1.92.56,3.53,1.35,4.86,2.34,1.31.99,2.3,1.95,2.96,2.92.69.97,1.03,1.79,1.05,2.5.02.71-.32,1.07-1.05,1.07-.97.04-1.89.06-2.74.06h-4.27c-1.77,0-3.51.08-5.2.24-1.69.14-3.31.43-4.82.79-1.51.38-2.88.89-4.13,1.53-1.23.66-2.28,1.47-3.1,2.46-1.49,1.77-2.64,3.99-3.47,6.67-.83,2.68-1.25,5.92-1.25,9.73v17.38c.16,1.49.42,2.64.83,3.45.4.81.85,1.41,1.39,1.83.52.4,1.07.71,1.61.89.56.18,1.07.38,1.51.63.47.22.81.57,1.07.99.26.44.36,1.11.32,2.01h-23.86c-.08-.95.04-1.63.32-2.08.3-.42.69-.77,1.15-.99.48-.24,1.01-.44,1.57-.63.56-.18,1.13-.5,1.65-.97.52-.48.99-1.17,1.35-2.08.38-.91.62-2.2.74-3.89v-46.9h9.51v8.51c1.81-3.43,4.23-5.87,7.26-7.32Z"/>
    <path class="cls-2" d="M335.34,98.48c.12.65.34,1.11.65,1.43.32.3.69.54,1.09.71.43.16.85.28,1.31.38.44.1.87.24,1.27.4.38.18.73.44.97.79.26.32.4.83.44,1.49,0,.16-.08.24-.24.24h-15.88v-28.68c0-5.95-1.69-10.83-5.08-14.65-3.43-3.73-7.86-5.6-13.28-5.6s-9.78,1.85-13.28,5.54c-3.47,3.79-5.2,8.55-5.2,14.29s1.79,10.83,5.38,14.64c3.53,3.77,8.06,5.66,13.58,5.66,2.56,0,5-.42,7.32-1.29,1.19-.44,2.36-.99,3.55-1.63,1.17-.65,2.38-1.43,3.61-2.34v11.11c-2.46,1.35-4.94,2.34-7.46,2.96-1.29.32-2.62.55-4.01.71-1.37.16-2.76.24-4.19.24-2.72,0-5.42-.42-8.14-1.25-2.68-.85-5.12-2.03-7.32-3.53-4.13-2.88-7.32-6.45-9.52-10.7-2.2-4.31-3.31-9.11-3.31-14.33,0-8.59,2.72-15.7,8.14-21.33,5.44-5.58,12.36-8.39,20.74-8.39,5.54,0,10.6,1.37,15.16,4.13,2.3,1.37,4.33,3.06,6.13,5.08,1.79,2.02,3.24,4.13,4.39,6.37.54,1.11,1.05,2.26,1.47,3.47.44,1.19.77,2.42,1.01,3.69.46,2.68.71,6.57.71,11.69v18.7Z"/>
    <path class="cls-1" d="M162.7,41.98c-1.65-.28-3.15-.75-4.5-1.41-1.13-.57-2.26-1.33-3.37-2.34-.54-.5-.99-1.09-1.35-1.75-.57-1.07-.77-2.29-.77-3.49v-8.38c1.61-.02,3.08.18,4.44.66,1.13.42,2.23,1.17,3.32,2.24,1.09,1.07,1.81,2.68,2.22,4.84v9.63h0ZM163.06,73.51v30.94c-.08,2.88-.34,5.62-.77,8.22-.2,1.09-.44,2.24-.75,3.39-.28,1.17-.65,2.28-1.09,3.35-.42,1.05-.95,2.06-1.53,3-.61.95-1.27,1.73-2.02,2.36-2.12,1.73-4.58,3.06-7.36,3.97-2.76.91-6.19,1.35-10.24,1.35h-15.12c.28-2.32.79-4.13,1.57-5.44.77-1.29,1.75-2.26,2.94-2.92,1.21-.65,2.6-1.07,4.23-1.27,1.61-.18,3.39-.34,5.3-.46,1.61-.12,3.15-.32,4.62-.58,1.21-.24,2.44-.54,3.65-.93,1.23-.36,2.14-.85,2.72-1.43,1.23-1.19,2.12-2.62,2.66-4.29.54-1.67.83-3.69.83-6.05v-59.83c2.06.04,3.87.73,5.44,2.08.66.58,1.31,1.33,1.94,2.24.65.91,1.19,2.04,1.67,3.43.46,1.37.83,3.01,1.05,4.9.24,1.89.32,4.07.24,6.55v7.44Z"/>
    <path class="cls-2" d="M220.47,85.2c1.79-1.65,3.41-2.84,4.8-3.57,1.41-.73,2.58-1.21,3.53-1.45,1.09-.28,2.06-.34,2.88-.18-.34,2.06-.81,3.93-1.35,5.64-.54,1.71-1.21,3.31-1.98,4.78-.77,1.49-1.65,2.86-2.66,4.17-1.01,1.29-2.16,2.54-3.47,3.71-5.22,4.78-11.57,7.16-19.01,7.16-2.56,0-5.08-.36-7.56-1.07-2.52-.66-4.86-1.67-7.01-3-4.53-2.76-8.1-6.43-10.7-11.05-2.56-4.56-3.83-9.54-3.83-14.94,0-1.99.18-3.95.57-5.84.36-1.89.91-3.73,1.61-5.54,1.47-3.59,3.59-6.83,6.39-9.76,2.78-2.82,5.95-4.98,9.43-6.49,3.67-1.49,7.42-2.24,11.23-2.24,5.82,0,11.05,1.53,15.64,4.6,4.62,3.1,8.33,7.58,11.17,13.4l-37.73,20.9c-.4-1.73-.38-3.47.06-5.2.36-1.49,1.13-3.09,2.34-4.78,1.19-1.69,3.14-3.26,5.87-4.72.2-.12.56-.34,1.09-.66.55-.3,1.19-.69,1.95-1.11.77-.44,1.61-.91,2.52-1.43.89-.5,1.79-1.01,2.7-1.53,2.18-1.21,4.54-2.56,7.1-4.01-1.69-1.9-3.63-3.33-5.78-4.31-2.1-.99-4.44-1.47-7.04-1.47-5.16,0-9.51,1.93-13.04,5.79-3.55,3.85-5.32,8.63-5.32,14.29s1.77,10.42,5.32,14.23c3.53,3.89,7.88,5.84,13.04,5.84s9.01-1.61,12.3-4.84c1.09-.95,1.97-1.87,2.62-2.74.65-.89,1.43-1.75,2.34-2.58Z"/>
    <path class="cls-2" d="M262.58,46.24c1.61.17,2.92.68,3.95,1.53,1.27,1.03,2.24,2.14,2.9,3.37.79,1.41,1.33,3.02,1.65,4.84h-8.51v-9.73h0ZM262.58,103.78v-9.99c1,.16,2.08.25,3.25.28.62-.16,1.05-.46,1.27-.89.22-.44.38-.89.5-1.33.12-.46.3-.87.56-1.25.24-.36.77-.56,1.55-.6.12.04.18.08.18.16v13.77h-4.66c-.4,0-.81-.02-1.25-.06h-.12c-.44-.02-.87-.05-1.29-.09ZM255.32,46.11h1.23c.75.04,1.47.06,2.2.06h2.76c.37,0,.72.03,1.07.07v9.73h-7.32l.06-9.86h0ZM262.58,93.79v9.99c-6.22-.5-10.99-2.23-14.35-5.17-4.05-3.55-6.09-8.89-6.09-16.07v-42.63c.04-2.2.58-3.97,1.65-5.28,1.07-1.33,2.24-2.34,3.55-3.04,1.49-.83,3.2-1.39,5.14-1.71v50.85c0,4.64,1.13,8.02,3.37,10.16,1.57,1.48,3.82,2.45,6.73,2.91Z"/>
  </g>
</svg>