<?xml version="1.0" encoding="UTF-8"?>
<svg id="Layer_1" data-name="Layer 1" xmlns="http://www.w3.org/2000/svg" xmlns:xlink="http://www.w3.org/1999/xlink" viewBox="0 0 724.86 318.01">
  <defs>
    <style>
      .cls-1 {
        fill: #d0e2ea;
      }

      .cls-1, .cls-2, .cls-3, .cls-4, .cls-5, .cls-6, .cls-7, .cls-8, .cls-9, .cls-10, .cls-11, .cls-12, .cls-13, .cls-14, .cls-15, .cls-16, .cls-17, .cls-18 {
        stroke-width: 0px;
      }

      .cls-2 {
        fill: #37363f;
      }

      .cls-3 {
        fill: #575756;
      }

      .cls-19 {
        clip-path: url(#clippath);
      }

      .cls-4 {
        fill: none;
      }

      .cls-20 {
        opacity: .12;
      }

      .cls-5 {
        fill: url(#linear-gradient);
      }

      .cls-6 {
        fill: url(#radial-gradient);
      }

      .cls-7 {
        opacity: .77;
      }

      .cls-7, .cls-8, .cls-21, .cls-16 {
        isolation: isolate;
      }

      .cls-7, .cls-11 {
        fill: #d1dbe0;
      }

      .cls-8 {
        opacity: .38;
      }

      .cls-8, .cls-17 {
        fill: #6d7c84;
      }

      .cls-22 {
        clip-path: url(#clippath-1);
      }

      .cls-23 {
        clip-path: url(#clippath-4);
      }

      .cls-24 {
        clip-path: url(#clippath-3);
      }

      .cls-25 {
        clip-path: url(#clippath-2);
      }

      .cls-26 {
        clip-path: url(#clippath-6);
      }

      .cls-27 {
        clip-path: url(#clippath-5);
      }

      .cls-9 {
        fill: #bebebe;
      }

      .cls-10 {
        fill: #8c6239;
      }

      .cls-12 {
        fill: #777;
      }

      .cls-13 {
        fill: #4e4d4d;
      }

      .cls-14 {
        fill: #eff2fa;
      }

      .cls-15 {
        fill: #e20917;
      }

      .cls-28 {
        opacity: .33;
      }

      .cls-16 {
        fill: #474747;
        opacity: .46;
      }

      .cls-18 {
        fill: #fff;
      }
    </style>
    <linearGradient id="linear-gradient" x1="-4522.81" y1="9.77" x2="-4571.23" y2="33.15" gradientTransform="translate(-1722.48 320) rotate(-180) scale(.39 1)" gradientUnits="userSpaceOnUse">
      <stop offset="0" stop-color="#ffd28b"/>
      <stop offset="1" stop-color="#000"/>
    </linearGradient>
    <radialGradient id="radial-gradient" cx="62.61" cy="39.23" fx="62.61" fy="39.23" r="4.87" gradientTransform="translate(0 320) scale(1 -1)" gradientUnits="userSpaceOnUse">
      <stop offset="0" stop-color="#ffd28b"/>
      <stop offset="1" stop-color="#000"/>
    </radialGradient>
    <clipPath id="clippath">
      <polygon class="cls-4" points="374.81 296.9 374.9 262.48 157.63 262.48 157.53 296.9 374.81 296.9"/>
    </clipPath>
    <clipPath id="clippath-1">
      <path class="cls-4" d="M367.61,266.38h-32.16c-1.25,0-2.28,1.04-2.28,2.3l-.05,18.02c0,1.28,1.01,2.3,2.28,2.3h3.33v1.28c0,1.28,1.01,2.3,2.28,2.3h1.32v1.81c0,1.28,1.01,2.3,2.28,2.3h13.76c1.25,0,2.28-1.02,2.28-2.3v-1.81h1.32c1.25,0,2.28-1.04,2.28-2.3v-1.28h3.33c1.25,0,2.28-1.04,2.28-2.3l.05-18.02c0-1.28-1.01-2.3-2.28-2.3"/>
    </clipPath>
    <clipPath id="clippath-2">
      <path class="cls-4" d="M325,266.38h-32.14c-1.26,0-2.28,1.04-2.28,2.3l-.05,18.02c0,1.28,1.01,2.3,2.28,2.3h3.33v1.28c0,1.28,1.01,2.3,2.28,2.3h1.32v1.81c0,1.28,1.01,2.3,2.28,2.3h13.76c1.26,0,2.28-1.02,2.28-2.3v-1.81h1.32c1.25,0,2.28-1.04,2.28-2.3v-1.28h3.33c1.26,0,2.28-1.04,2.28-2.3l.05-18.02c0-1.28-1.01-2.3-2.28-2.3"/>
    </clipPath>
    <clipPath id="clippath-3">
      <path class="cls-4" d="M282.4,266.38h-32.16c-1.26,0-2.28,1.04-2.28,2.3l-.05,18.02c0,1.28,1.01,2.3,2.28,2.3h3.33v1.28c0,1.28,1.01,2.3,2.28,2.3h1.32v1.81c0,1.28,1.01,2.3,2.28,2.3h13.76c1.25,0,2.28-1.02,2.28-2.3v-1.81h1.32c1.26,0,2.28-1.04,2.28-2.3v-1.28h3.33c1.25,0,2.28-1.04,2.28-2.3l.05-18.02c0-1.28-1.01-2.3-2.28-2.3"/>
    </clipPath>
    <clipPath id="clippath-4">
      <path class="cls-4" d="M239.79,266.38h-32.16c-1.25,0-2.28,1.04-2.28,2.3l-.05,18.02c0,1.28,1.01,2.3,2.28,2.3h3.33v1.28c0,1.28,1.01,2.3,2.28,2.3h1.32v1.81c0,1.28,1.01,2.3,2.28,2.3h13.76c1.25,0,2.28-1.02,2.28-2.3v-1.81h1.32c1.25,0,2.28-1.04,2.28-2.3v-1.28h3.33c1.25,0,2.28-1.04,2.28-2.3l.05-18.02c0-1.28-1.01-2.3-2.28-2.3"/>
    </clipPath>
    <clipPath id="clippath-5">
      <path class="cls-4" d="M197.19,266.38h-32.16c-1.25,0-2.28,1.04-2.28,2.3l-.05,18.02c0,1.28,1.01,2.3,2.28,2.3h3.33v1.28c0,1.28,1.01,2.3,2.28,2.3h1.32v1.81c0,1.28,1.01,2.3,2.28,2.3h13.76c1.25,0,2.28-1.02,2.28-2.3v-1.81h1.32c1.25,0,2.28-1.04,2.28-2.3v-1.28h3.33c1.25,0,2.28-1.04,2.28-2.3l.05-18.02c0-1.28-1.01-2.3-2.28-2.3"/>
    </clipPath>
    <clipPath id="clippath-6">
      <polygon class="cls-4" points="137.4 224.86 170.23 197.9 435.88 197.9 403.05 224.86 137.4 224.86"/>
    </clipPath>
  </defs>
  <g>
    <g>
      <g>
        <polygon class="cls-16" points="431.95 316.73 590.54 255.32 597.29 231.87 405.96 279.69 431.95 316.73"/>
        <g>
          <polygon class="cls-11" points="431.95 316.73 571.81 251.72 571.81 181.82 431.95 242.23 431.95 316.73"/>
          <g>
            <g>
              <path class="cls-8" d="M527.03,224.51v30.08c0,.55.4,1.01.97,1.24.21.09.47.13.72.13.93,0,1.68-.61,1.68-1.36v-30.08c0-.74-.74-1.35-1.68-1.35-.25,0-.51.04-.72.13-.57.23-.97.69-.97,1.22h0Z"/>
              <path class="cls-17" d="M527.03,224.51v30.08c0,.55.4,1.01.97,1.24.57-.21.97-.69.97-1.24v-30.08c0-.54-.4-1.01-.97-1.22-.57.23-.97.69-.97,1.22Z"/>
            </g>
            <g>
              <path class="cls-8" d="M521.5,226.91v30.08c0,.55.4,1.01.97,1.24.21.08.47.13.72.13.93,0,1.68-.61,1.68-1.36v-30.08c0-.74-.74-1.35-1.68-1.35-.25,0-.5.04-.72.13-.57.23-.97.69-.97,1.22h0Z"/>
              <path class="cls-17" d="M521.5,226.91v30.08c0,.55.4,1.01.97,1.24.57-.21.97-.69.97-1.24v-30.08c0-.54-.4-1.01-.97-1.22-.57.23-.97.69-.97,1.22h0Z"/>
            </g>
            <g>
              <path class="cls-8" d="M515.96,229.3v30.08c0,.55.4,1.01.97,1.24.21.08.47.13.72.13.93,0,1.68-.61,1.68-1.36v-30.08c0-.74-.74-1.35-1.68-1.35-.25,0-.5.04-.72.13-.57.23-.97.69-.97,1.22h0Z"/>
              <path class="cls-17" d="M515.96,229.3v30.08c0,.55.4,1.01.97,1.24.57-.21.97-.69.97-1.24v-30.08c0-.54-.4-1.01-.97-1.22-.57.23-.97.69-.97,1.22Z"/>
            </g>
            <g>
              <path class="cls-8" d="M510.43,231.7v30.08c0,.55.4,1.01.97,1.24.21.08.47.13.72.13.93,0,1.68-.61,1.68-1.36v-30.08c0-.74-.74-1.35-1.68-1.35-.25,0-.5.04-.72.13-.57.23-.97.69-.97,1.22h0Z"/>
              <path class="cls-17" d="M510.43,231.7v30.08c0,.55.4,1.01.97,1.24.57-.21.97-.69.97-1.24v-30.08c0-.54-.4-1.01-.97-1.22-.57.23-.97.69-.97,1.22Z"/>
            </g>
            <g>
              <path class="cls-8" d="M504.89,234.09v30.08c0,.55.4,1.01.97,1.24.21.08.47.13.72.13.93,0,1.68-.61,1.68-1.36v-30.08c0-.74-.74-1.35-1.68-1.35-.25,0-.5.04-.72.13-.57.23-.97.69-.97,1.22h0Z"/>
              <path class="cls-17" d="M504.89,234.09v30.08c0,.55.4,1.01.97,1.24.57-.21.97-.69.97-1.24v-30.08c0-.54-.4-1.01-.97-1.22-.57.23-.97.69-.97,1.22h0Z"/>
            </g>
            <g>
              <path class="cls-8" d="M499.36,236.49v30.08c0,.55.4,1.01.97,1.24.21.08.47.13.72.13.93,0,1.68-.61,1.68-1.36v-30.08c0-.74-.74-1.35-1.68-1.35-.25,0-.5.04-.72.13-.57.23-.97.69-.97,1.22h0Z"/>
              <path class="cls-17" d="M499.36,236.49v30.08c0,.55.4,1.01.97,1.24.57-.21.97-.69.97-1.24v-30.08c0-.54-.4-1.01-.97-1.22-.57.23-.97.69-.97,1.22Z"/>
            </g>
            <g>
              <path class="cls-8" d="M493.82,238.89v30.08c0,.55.4,1.01.97,1.24.21.08.47.13.72.13.93,0,1.68-.61,1.68-1.36v-30.08c0-.74-.74-1.35-1.68-1.35-.25,0-.5.04-.72.13-.57.23-.97.69-.97,1.22h0Z"/>
              <path class="cls-17" d="M493.82,238.89v30.08c0,.55.4,1.01.97,1.24.57-.21.97-.69.97-1.24v-30.08c0-.54-.4-1.01-.97-1.22-.57.23-.97.69-.97,1.22Z"/>
            </g>
            <g>
              <path class="cls-8" d="M488.29,241.28v30.08c0,.55.4,1.01.97,1.24.21.09.47.13.72.13.93,0,1.68-.61,1.68-1.36v-30.08c0-.74-.74-1.35-1.68-1.35-.25,0-.51.04-.72.13-.57.23-.97.69-.97,1.22h0Z"/>
              <path class="cls-17" d="M488.29,241.28v30.08c0,.55.4,1.01.97,1.24.57-.21.97-.69.97-1.24v-30.08c0-.54-.4-1.01-.97-1.22-.57.23-.97.69-.97,1.22h0Z"/>
            </g>
          </g>
          <g>
            <polygon class="cls-17" points="544.66 261.84 557.72 255.75 557.72 249.15 544.66 255.24 544.66 261.84"/>
            <polygon class="cls-7" points="544.66 261.84 557.72 255.75 556.95 250.02 544.66 255.81 544.66 261.84"/>
          </g>
          <g>
            <polygon class="cls-17" points="457.49 302.43 470.55 296.34 470.55 289.74 457.49 295.83 457.49 302.43"/>
            <polygon class="cls-7" points="457.49 302.43 470.55 296.34 469.79 290.61 457.49 296.41 457.49 302.43"/>
          </g>
        </g>
      </g>
      <g>
        <path class="cls-1" d="M434.16,245.29v66.99c0,3.17-2.57,5.73-5.73,5.73H5.73c-3.17,0-5.73-2.57-5.73-5.73v-67c0-3.17,2.57-5.73,5.73-5.73h422.68c3.17,0,5.74,2.57,5.74,5.74h.01Z"/>
        <path class="cls-14" d="M434.16,246.6v62.94c0,2.41-1.96,4.37-4.37,4.37H4.36c-2.41,0-4.36-1.95-4.36-4.36v-62.96c0-2.41,1.95-4.36,4.36-4.36h425.43c2.41,0,4.37,1.96,4.37,4.37h0Z"/>
        <circle class="cls-13" cx="132.24" cy="293.25" r="5.82"/>
        <circle class="cls-13" cx="110.62" cy="293.25" r="5.89"/>
        <circle class="cls-13" cx="88.99" cy="291.58" r="5.82"/>
        <rect class="cls-13" x="44.08" y="262.48" width="33.27" height="36.59" rx="7.66" ry="7.66"/>
        <circle class="cls-2" cx="60.71" cy="280.77" r="13.14"/>
        <path class="cls-5" d="M71.39,281.11c1.58-.48,2.46-1.04,2.46-2.33s-1.33-2.33-2.96-2.33l-8.71.49c-1.88,0-3.41,1.72-3.41,3.84s1.53,3.84,3.41,3.84c0,0,6.72-2.76,9.2-3.5h.01Z"/>
        <circle class="cls-6" cx="62.61" cy="280.77" r="3.84"/>
        <g class="cls-19">
          <g>
            <path class="cls-9" d="M345.49,266.38h-10.02c-1.25,0-2.28,1.04-2.28,2.3l-.05,18.02c0,1.28,1.01,2.3,2.28,2.3h3.33v1.28c0,1.28,1.01,2.3,2.28,2.3h1.32v1.81c0,1.28,1.01,2.3,2.28,2.3h13.76c1.25,0,2.28-1.02,2.28-2.3v-1.81h1.32c1.25,0,2.28-1.04,2.28-2.3v-1.28h3.33c1.25,0,2.28-1.04,2.28-2.3l.05-18.02c0-1.28-1.01-2.3-2.28-2.3h-22.14M302.88,266.38h-10.02c-1.26,0-2.28,1.04-2.28,2.3l-.05,18.02c0,1.28,1.01,2.3,2.28,2.3h3.33v1.28c0,1.28,1.01,2.3,2.28,2.3h1.32v1.81c0,1.28,1.01,2.3,2.28,2.3h13.76c1.26,0,2.28-1.02,2.28-2.3v-1.81h1.32c1.25,0,2.28-1.04,2.28-2.3v-1.28h3.33c1.26,0,2.28-1.04,2.28-2.3l.05-18.02c0-1.28-1.01-2.3-2.28-2.3h-22.12M260.28,266.38h-10.02c-1.26,0-2.28,1.04-2.28,2.3l-.05,18.02c0,1.28,1.01,2.3,2.28,2.3h3.33v1.28c0,1.28,1.01,2.3,2.28,2.3h1.32v1.81c0,1.28,1.01,2.3,2.28,2.3h13.76c1.25,0,2.28-1.02,2.28-2.3v-1.81h1.32c1.26,0,2.28-1.04,2.28-2.3v-1.28h3.33c1.25,0,2.28-1.04,2.28-2.3l.05-18.02c0-1.28-1.01-2.3-2.28-2.3h-22.12M217.67,266.38h-10.02c-1.25,0-2.28,1.04-2.28,2.3l-.05,18.02c0,1.28,1.01,2.3,2.28,2.3h3.33v1.28c0,1.28,1.01,2.3,2.28,2.3h1.32v1.81c0,1.28,1.01,2.3,2.28,2.3h13.76c1.25,0,2.28-1.02,2.28-2.3v-1.81h1.32c1.25,0,2.28-1.04,2.28-2.3v-1.28h3.33c1.25,0,2.28-1.04,2.28-2.3l.05-18.02c0-1.28-1.01-2.3-2.28-2.3h-22.14M175.05,266.38h-10.02c-1.25,0-2.28,1.04-2.28,2.3l-.05,18.02c0,1.28,1.01,2.3,2.28,2.3h3.33v1.28c0,1.28,1.01,2.3,2.28,2.3h1.32v1.81c0,1.28,1.01,2.3,2.28,2.3h13.76c1.25,0,2.28-1.02,2.28-2.3v-1.81h1.32c1.25,0,2.28-1.04,2.28-2.3v-1.28h3.33c1.25,0,2.28-1.04,2.28-2.3l.05-18.02c0-1.28-1.01-2.3-2.28-2.3h-22.14M159.24,262.48h214.06c.88,0,1.61.73,1.61,1.62l-.08,31.16c0,.89-.73,1.62-1.62,1.62h-214.06c-.89,0-1.61-.73-1.61-1.62l.08-31.16c0-.91.72-1.62,1.62-1.62"/>
            <path class="cls-2" d="M335.47,266.38h32.14c1.25,0,2.28,1.04,2.28,2.3l-.05,18.02c0,1.28-1.02,2.3-2.28,2.3h-3.33v1.28c0,1.28-1.02,2.3-2.28,2.3h-1.32v1.81c0,1.28-1.02,2.3-2.28,2.3h-13.76c-1.25,0-2.28-1.02-2.28-2.3v-1.81h-1.3c-1.26,0-2.28-1.04-2.28-2.3v-1.28h-3.33c-1.25,0-2.28-1.04-2.28-2.3l.05-18.02c0-1.28,1.02-2.3,2.28-2.3"/>
            <g class="cls-22">
              <g>
                <path class="cls-10" d="M339.31,266.38h1.65l7.8,3.18c0,.45-.37.84-.83.84s-.83-.37-.83-.84l-7.8-3.18"/>
                <path class="cls-10" d="M347.11,266.38h1.65l7.8,3.18c0,.45-.37.84-.83.84s-.83-.37-.83-.84l-7.8-3.18"/>
                <path class="cls-10" d="M354.92,266.38h1.65l7.8,3.18c0,.45-.37.84-.83.84s-.83-.37-.83-.84l-7.8-3.18"/>
              </g>
            </g>
            <path class="cls-2" d="M292.86,266.38h32.17c1.26,0,2.28,1.04,2.28,2.3l-.05,18.02c0,1.28-1.02,2.3-2.28,2.3h-3.33v1.28c0,1.28-1.02,2.3-2.28,2.3h-1.32v1.81c0,1.28-1.02,2.3-2.28,2.3h-13.76c-1.26,0-2.28-1.02-2.28-2.3v-1.81h-1.32c-1.25,0-2.28-1.04-2.28-2.3v-1.28h-3.31c-1.26,0-2.28-1.04-2.28-2.3l.05-18.02c0-1.28,1.02-2.3,2.28-2.3"/>
            <g class="cls-25">
              <g>
                <path class="cls-10" d="M296.7,266.38h1.65l7.79,3.18c0,.45-.37.84-.83.84s-.83-.37-.83-.84l-7.8-3.18"/>
                <path class="cls-10" d="M304.5,266.38h1.65l7.79,3.18c0,.45-.37.84-.83.84s-.83-.37-.83-.84l-7.8-3.18"/>
                <path class="cls-10" d="M312.31,266.38h1.65l7.79,3.18c0,.45-.37.84-.83.84s-.83-.37-.83-.84l-7.8-3.18"/>
              </g>
            </g>
            <path class="cls-2" d="M250.25,266.38h32.13c1.25,0,2.28,1.04,2.28,2.3l-.05,18.02c0,1.28-1.02,2.3-2.28,2.3h-3.33v1.28c0,1.28-1.02,2.3-2.28,2.3h-1.32v1.81c0,1.28-1.02,2.3-2.28,2.3h-13.76c-1.26,0-2.28-1.02-2.28-2.3v-1.81h-1.3c-1.25,0-2.28-1.04-2.28-2.3v-1.28h-3.31c-1.26,0-2.28-1.04-2.28-2.3l.05-18.02c0-1.28,1.02-2.3,2.28-2.3"/>
            <g class="cls-24">
              <g>
                <path class="cls-10" d="M254.09,266.38h1.65l7.8,3.18c0,.45-.37.84-.83.84s-.83-.37-.83-.84l-7.79-3.18"/>
                <path class="cls-10" d="M261.89,266.38h1.65l7.79,3.18c0,.45-.37.84-.83.84s-.83-.37-.83-.84l-7.79-3.18"/>
                <path class="cls-10" d="M269.71,266.38h1.65l7.79,3.18c0,.45-.37.84-.83.84s-.83-.37-.83-.84l-7.79-3.18"/>
              </g>
            </g>
            <path class="cls-2" d="M207.65,266.38h32.14c1.25,0,2.28,1.04,2.28,2.3l-.05,18.02c0,1.28-1.02,2.3-2.28,2.3h-3.33v1.28c0,1.28-1.02,2.3-2.28,2.3h-1.32v1.81c0,1.28-1.02,2.3-2.28,2.3h-13.76c-1.25,0-2.28-1.02-2.28-2.3v-1.81h-1.3c-1.25,0-2.28-1.04-2.28-2.3v-1.28h-3.33c-1.25,0-2.28-1.04-2.28-2.3l.05-18.02c0-1.28,1.02-2.3,2.28-2.3"/>
            <g class="cls-23">
              <g>
                <path class="cls-10" d="M211.49,266.38h1.65l7.8,3.18c0,.45-.37.84-.83.84s-.83-.37-.83-.84l-7.8-3.18"/>
                <path class="cls-10" d="M219.29,266.38h1.65l7.8,3.18c0,.45-.37.84-.83.84s-.83-.37-.83-.84l-7.79-3.18"/>
                <path class="cls-10" d="M227.09,266.38h1.65l7.8,3.18c0,.45-.37.84-.83.84s-.83-.37-.83-.84l-7.8-3.18"/>
              </g>
            </g>
            <path class="cls-2" d="M165.03,266.38h32.14c1.25,0,2.28,1.04,2.28,2.3l-.05,18.02c0,1.28-1.02,2.3-2.28,2.3h-3.33v1.28c0,1.28-1.02,2.3-2.28,2.3h-1.32v1.81c0,1.28-1.02,2.3-2.28,2.3h-13.76c-1.25,0-2.28-1.02-2.28-2.3v-1.81h-1.3c-1.26,0-2.28-1.04-2.28-2.3v-1.28h-3.33c-1.25,0-2.28-1.04-2.28-2.3l.05-18.02c0-1.28,1.02-2.3,2.28-2.3"/>
            <g class="cls-27">
              <g>
                <path class="cls-10" d="M168.87,266.38h1.65l7.8,3.18c0,.45-.37.84-.83.84s-.83-.37-.83-.84l-7.8-3.18"/>
                <path class="cls-10" d="M176.68,266.38h1.65l7.8,3.18c0,.45-.37.84-.83.84s-.83-.37-.83-.84l-7.8-3.18"/>
                <path class="cls-10" d="M184.49,266.38h1.65l7.9,3.44c0,.45-.47.58-.93.58s-.72-.11-.72-.58l-7.9-3.44"/>
              </g>
            </g>
          </g>
        </g>
      </g>
      <polygon class="cls-18" points="571.81 181.68 137.65 181.68 0 242.23 434.16 242.23 571.81 181.68"/>
    </g>
    <g class="cls-21">
      <g class="cls-26">
        <g>
          <path class="cls-15" d="M205.68,212.99c-1.58,0-3.27.22-4.16.54-.9.33-.85.66.19.87.24.05.29.1.2.17-.5.39-.98.79-1.45,1.18-.24.21.03.36.72.42.2.02.41.03.63.03.99,0,2.04-.17,2.36-.42.51-.4.98-.8,1.45-1.19.09-.08.23-.13.6-.18,1.59-.21,2.47-.55,2.33-.88-.13-.32-1.29-.54-2.87-.54M213.38,206.56h-.12c-3.82,0-7.98.72-9.06,1.55-1.05.8-1.99,1.61-2.97,2.41v.05h14.87c1.03-.85,2.14-1.68,3.03-2.51.91-.85-1.71-1.5-5.75-1.5M184.76,217.81c-4.02,0-6.48-.72-5.42-1.58,1.63-1.35,3.27-2.7,4.93-4.05.75-.61,2.61-1.07,5.4-1.39,1.31-.15,2.65-.22,4.03-.22l.13-.1c.93-.76,1.87-1.53,2.78-2.29,1.71-1.44,7.69-2.72,14.63-3.11.88-.05,1.75-.08,2.63-.12h3.27c.11,0,.22.02.34.02,7.1.21,11.02,1.58,9.08,3.17l-2.78,2.29-.17.14h.27c4.06.04,6.3.73,5.22,1.62l-4.91,4.03c-1.05.86-5.28,1.58-9.29,1.58h-30.12M224.06,197.9c-.93,0-1.92.05-2.87.16-17.44,1.92-34.62,3.33-52.53,4.32-2.45.13-4.59.58-5.21,1.09l-6.75,5.54c-7.2,5.91.72,9.83,8.62,12.07,9.11,2.58,20.84,3.79,25.9,3.79s19.73-1.21,35.13-3.79c13.37-2.24,30.82-6.16,38.02-12.07l6.75-5.54c.62-.51-.42-.96-2.55-1.09-14.86-.94-29.79-2.48-42.03-4.32-.7-.1-1.56-.16-2.49-.16"/>
          <path class="cls-18" d="M201.8,216.2c-.21,0-.43,0-.63-.03-.69-.06-.96-.21-.72-.42.47-.39.95-.79,1.45-1.18.1-.08.04-.13-.2-.17-1.04-.21-1.09-.55-.19-.87.9-.32,2.58-.54,4.16-.54s2.74.21,2.87.54c.13.33-.74.67-2.33.88-.37.05-.51.1-.6.18-.47.4-.94.8-1.45,1.19-.33.25-1.37.42-2.36.42M201.22,210.57v-.05c.99-.8,1.93-1.61,2.98-2.41,1.08-.83,5.24-1.54,9.06-1.55h.12c4.04,0,6.65.65,5.75,1.5-.89.83-2,1.67-3.03,2.51h-14.87M217.13,204.94h-3.27c-.88.04-1.75.07-2.63.12-6.94.39-12.92,1.67-14.63,3.11-.91.76-1.86,1.53-2.78,2.29l-.13.1c-1.38,0-2.72.07-4.03.22-2.79.32-4.64.78-5.4,1.39-1.66,1.35-3.29,2.7-4.93,4.05-1.05.86,1.41,1.58,5.42,1.58h30.12c4.02,0,8.24-.72,9.29-1.58l4.91-4.03c1.08-.89-1.17-1.58-5.22-1.62h-.27l.17-.14,2.78-2.29c1.94-1.6-1.98-2.97-9.08-3.17-.12,0-.23,0-.34-.02"/>
          <path class="cls-3" d="M294.94,215.76h-4.56l-9.06,2.72-2.54-2.72h-4.56l-.12.1c.66,0,1.12.02,1.37.05s.41.07.46.12c.08.07.02.18-.16.33l-2.76,2.27c-.24.19-.48.32-.72.37-.4.09-.94.13-1.61.13h-.57l-.12.1h5.62l.12-.1h-.57c-.63,0-1.05-.04-1.26-.11-.15-.05-.1-.19.17-.4l2.82-2.32,2.68,2.92h.39l9.77-2.92-2.82,2.32c-.24.19-.48.32-.72.37-.39.09-.93.13-1.61.13h-.57l-.12.1h6.85l.12-.1h-.56c-.63,0-1.06-.04-1.26-.11-.16-.05-.11-.19.15-.4l2.76-2.27c.24-.19.47-.32.71-.37.4-.09.94-.13,1.63-.13h.56l.12-.1"/>
          <path class="cls-3" d="M302.96,215.76h-6.9l-.12.1h.57c.38,0,.72.02,1.02.06.2.03.33.07.35.11.04.06-.05.17-.27.35l-2.73,2.24c-.25.21-.51.34-.77.39-.41.08-.94.13-1.6.13h-.57l-.12.1h6.9l.12-.1h-.58c-.38,0-.71-.02-1.01-.06-.21-.03-.33-.07-.36-.11-.03-.06.06-.17.27-.35l2.73-2.24c.25-.21.52-.34.78-.39.4-.08.94-.13,1.6-.13h.58l.12-.1M300.6,214.86c-.37,0-.7.03-1.02.08-.32.05-.52.12-.61.2s-.05.14.14.2c.19.05.46.08.81.08s.69-.03,1.01-.08c.32-.06.53-.12.62-.2s.04-.14-.14-.2c-.19-.05-.46-.08-.81-.08"/>
          <path class="cls-3" d="M320.79,215.76h-5.62l-.12.1h.57c.63,0,1.05.04,1.26.11.15.05.1.19-.15.4l-2.44,2-6.69-2.6h-4.37l-.12.1c.47,0,.81,0,1.02.02.42.03.74.07.94.1.2.04.45.12.78.23l-2.94,2.41c-.24.19-.48.32-.72.37-.4.09-.94.13-1.62.13h-.56l-.12.1h5.61l.12-.1h-.57c-.63,0-1.04-.04-1.25-.11-.15-.05-.1-.19.17-.4l2.6-2.14,7.22,2.79h.43l3.56-2.92c.24-.19.47-.32.71-.37.4-.09.94-.13,1.62-.13h.57l.12-.1"/>
          <path class="cls-3" d="M328.65,215.76h-6.91l-.12.1h.57c.38,0,.72.02,1.02.06.2.03.33.07.35.11.04.06-.05.17-.27.35l-2.73,2.24c-.25.21-.51.34-.77.39-.41.08-.94.13-1.6.13h-.57l-.12.1h6.91l.12-.1h-.58c-.38,0-.72-.02-1.01-.06-.21-.03-.33-.07-.36-.11-.03-.06.06-.17.27-.35l2.73-2.24c.25-.21.51-.34.78-.39.4-.08.94-.13,1.6-.13h.58l.12-.1M326.29,214.86c-.37,0-.71.03-1.02.08-.32.05-.52.12-.61.2s-.05.14.13.2c.19.05.47.08.82.08s.69-.03,1.01-.08c.32-.06.53-.12.62-.2s.04-.14-.14-.2c-.19-.05-.46-.08-.81-.08"/>
          <path class="cls-3" d="M348.97,215.76h-13.16l-1.18.81h.45c.25-.16.58-.28.98-.37.41-.09.84-.15,1.29-.19.35-.02.9-.04,1.65-.04h1.94l-3.23,2.65c-.24.19-.49.32-.73.37-.39.09-.93.13-1.6.13h-.57l-.12.1h6.83l.12-.1h-.56c-.63,0-1.04-.04-1.26-.11-.15-.05-.1-.19.17-.4l3.23-2.65h2.27c.67,0,1.17.02,1.53.07.34.05.58.12.71.22.08.06.07.16-.02.31h.45l.82-.81"/>
          <path class="cls-3" d="M367.01,215.76h-5.64l-.12.1h.61c.61,0,1.02.04,1.23.11.16.05.11.19-.16.41l-1.71,1.41c-.45.37-.92.63-1.42.78-.49.15-1.21.28-2.17.38-.96.1-1.95.15-3.01.15-.83,0-1.48-.03-1.97-.1-.5-.06-.84-.14-1.01-.24-.19-.1-.23-.23-.13-.41.1-.17.23-.33.39-.46l1.84-1.51c.24-.19.5-.32.76-.38.4-.09.93-.14,1.59-.14h.62l.12-.1h-6.96l-.12.1h.61c.61,0,1.01.03,1.2.1.2.07.16.21-.1.42l-1.65,1.35c-.51.42-.73.7-.66.86.11.22.54.4,1.29.53s2,.2,3.77.2c1.62,0,2.98-.07,4.08-.21,1.11-.14,1.93-.3,2.49-.49s1.05-.46,1.47-.81l1.71-1.41c.23-.19.46-.32.69-.37.48-.11,1.04-.17,1.68-.17h.54l.12-.1M358.07,214.86c-.36,0-.69.03-1,.08-.32.05-.53.12-.62.2s-.04.14.15.19.46.08.81.08.68-.03,1.01-.08c.32-.05.52-.12.61-.19.1-.08.05-.14-.13-.2-.19-.05-.46-.08-.82-.08M362.27,214.86c-.36,0-.69.03-1.02.08-.32.05-.52.12-.62.2s-.05.14.14.19.47.08.82.08.69-.03,1-.08c.32-.05.53-.12.62-.19.1-.08.05-.14-.14-.2-.18-.05-.45-.08-.8-.08"/>
          <path class="cls-3" d="M384.57,215.76h-5.61l-.12.1h.56c.63,0,1.05.04,1.26.11.15.05.1.19-.15.4l-2.44,2-6.68-2.6h-4.38l-.12.1c.47,0,.81,0,1.02.02.43.03.74.07.94.1.2.04.46.12.78.23l-2.94,2.41c-.24.19-.48.32-.72.37-.4.09-.93.13-1.62.13h-.56l-.12.1h5.61l.12-.1h-.57c-.63,0-1.05-.04-1.26-.11-.15-.05-.1-.19.17-.4l2.6-2.14,7.22,2.79h.43l3.56-2.92c.24-.19.47-.32.71-.37.4-.09.94-.13,1.62-.13h.57l.12-.1"/>
          <path class="cls-3" d="M397.84,215.76h-12.42l-.12.1h.57c.66,0,1.1.04,1.3.1.14.05.08.19-.19.41l-2.74,2.25c-.21.17-.39.28-.54.33-.16.05-.39.1-.67.12-.39.04-.77.06-1.15.06h-.57l-.12.1h12.42l2.45-.87h-.48c-.77.21-1.47.37-2.09.48-.48.08-.94.13-1.38.16-.45.03-1.13.04-2.03.04h-2.74c-.44,0-.74,0-.87-.03-.13-.02-.21-.05-.23-.08-.03-.03.06-.13.25-.28l1.39-1.15h3.54c.68,0,1.15.02,1.44.05.28.03.46.08.52.14.06.05.03.16-.06.33h.43l1.47-1.21h-.43c-.29.2-.69.34-1.2.42-.38.06-1.03.09-1.95.09h-3.54l1.67-1.37h4.42c.8,0,1.34,0,1.62.04.36.03.59.09.71.16s.15.19.09.38h.47l.74-.76"/>
          <path class="cls-3" d="M407.58,215.76h-7.3l-.12.1h.61c.61,0,1.02.04,1.23.11.16.05.11.19-.16.41l-2.73,2.24c-.24.2-.48.33-.71.38-.41.1-.96.14-1.63.14h-.61l-.12.1h12.48l2.52-.94-.37-.02c-.67.22-1.27.37-1.81.47-.53.1-1.08.17-1.62.21-.55.04-1.44.06-2.67.06h-1.18c-1.03,0-1.64,0-1.82-.02s-.29-.04-.35-.08c-.07-.05,0-.15.16-.29l2.65-2.18c.25-.21.47-.34.67-.39s.49-.1.87-.13c.37-.04.95-.05,1.75-.05h.13l.12-.1"/>
          <path class="cls-15" d="M352.88,206.05h-9.31c-.27,0-.54.05-.61.1l-.13.11c-.07.06.09.1.36.1h.57c.3,0,.64,0,.85.04.13.02.25.05.28.09.04.06-.25.29-.33.36l-3.3,2.71c-.08.06-.34.29-.53.35-.11.04-.25.08-.43.1-.33.04-.71.05-1.04.05h-.57c-.27,0-.54.05-.61.1l-.13.11c-.07.06.09.1.36.1h15.47c.25,0,.51-.04.6-.1l2.41-1.44s.04-.06-.03-.08-.17-.04-.31-.04h-.56c-.22,0-.45.03-.56.08-.56.23-1.28.5-2.09.71-.51.13-1.12.25-1.82.33-.71.08-1.48.1-2.19.1h-1.6c-.36,0-.98,0-1.19-.02-.13,0-.23-.04-.25-.07-.04-.07.23-.29.32-.36l3.2-2.63c.08-.06.35-.29.52-.34.12-.04.27-.08.45-.1.33-.04.71-.05,1.04-.05h.77c.26,0,.54-.05.61-.1l.13-.11c.07-.06-.09-.1-.35-.1M367.03,210.03c-1.16,0-1.91-.1-2.31-.31-.77-.4-.25-1.03.33-1.5.5-.41,1.29-.94,2.57-1.31,1.02-.3,2.25-.52,3.85-.52.75,0,1.36.05,1.83.15.58.12.78.34.85.52.13.34-.39.82-.83,1.18s-1.02.74-1.92,1.08c-.57.21-1.33.43-2.3.57-.67.1-1.38.13-2.08.13M371.38,206c-2.52,0-4.95.21-7.18.61-2.48.45-3.98.99-4.73,1.6-.65.54-.62,1.03.34,1.47,1.22.55,3.57.79,6.72.79s6.15-.26,8.69-.83c1.92-.43,3.15-.91,3.78-1.44.74-.6.57-1.15-.8-1.59-1.28-.42-3.35-.61-5.95-.61h-.87M401.33,205.95h-.45c-.21,0-.43.03-.55.07-.14.05-.43.15-.67.19-.12.02-.25.03-.38.03-.26,0-.94-.08-1.19-.1-.53-.05-1.16-.11-1.75-.14-.76-.04-1.57-.05-2.39-.05-2.89,0-5.62.22-8.15.67-2.54.46-4.13,1.01-4.89,1.64-.41.34-.54.67-.25.98.22.23.67.44,1.31.61.66.18,1.51.33,2.5.44,1.17.13,2.66.17,4.12.17,1.3,0,2.62-.03,3.97-.09,1.32-.06,2.63-.15,3.91-.27.2-.02.34-.05.39-.09l1.04-.85c.06-.05.25-.2.38-.25.13-.04.31-.09.52-.11.3-.03.91-.04,1.21-.05.26,0,.5-.05.57-.1l.13-.1c.07-.06-.09-.1-.35-.1h-8.49c-.27,0-.54.05-.61.1l-.13.1c-.07.06.09.1.36.1h.44c.29,0,.56,0,.76.04.12.02.27.05.29.08.04.05-.17.22-.24.28l-.95.78c-.35.03-.7.05-1.06.06-.41.02-.82.03-1.22.03-1.04,0-1.93-.05-2.61-.19-.74-.14-.98-.37-1-.6-.04-.32.24-.67.65-1.01.38-.31.93-.62,1.66-.92.59-.25,1.4-.49,2.52-.67,1.02-.16,2.1-.23,3.22-.23,1.31,0,2.33.1,3.12.28.95.22,1.32.53,1.4.85.01.04.16.07.37.07h.45c.27,0,.54-.05.61-.1l1.76-1.45c.07-.06-.09-.1-.36-.1"/>
          <path class="cls-15" d="M344.29,203.52c-.28,0-.58,0-.9.02-2.57.11-4.4.56-6.19.97l-31.68,7.2c-.78.18-2.28.36-3.3.41-1.1.06-1.68.29-1.9.41h12.5s1.06-.33-2.16-.56c-.14,0-.26-.02-.39-.03l13.97-3.15,6.35,3.18c-3.9.23-3.63.56-3.63.56h12.97c.06-.12.06-.35-.94-.41-1.14-.06-2.17-.31-2.18-.31l-8.12-4.01,18.07-4.07s-.85-.2-2.47-.2M317.56,203.45c-1.81,0-3.47.27-3.47.27l7.72,3.86,4.42-1-5.16-2.55c-.9-.45-2.24-.58-3.5-.58"/>
          <path class="cls-3" d="M351.14,210.94h-4.71l-.12.07c.78.02.86.03.47.23l-1.82.92c-.39.2-.51.22-1.38.23l-.13.07h2.85l.13-.07c-.89-.02-.98-.03-.58-.23l.82-.42h1.28c.72,0,.72.04.53.2h.32l.96-.48h-.31c-.48.16-.58.19-1.32.19h-1.28l1.07-.54c.13-.07.18-.07.47-.07h1.1c.57,0,.69.02.73.1.04.05,0,.11-.03.17h.33c.17-.12.45-.28.61-.37"/>
          <path class="cls-3" d="M354.17,211.4c-.52.04-1.06.07-1.64.09l-.1.05c.57.02.58.03.3.18l-.95.48c-.31.16-.41.17-1.08.18l-.12.07h2.26l.13-.07c-.63,0-.69-.03-.38-.18l1.01-.51c.19-.1.38-.19.57-.29M354.67,210.92c-.3,0-.66.05-.81.13-.12.06.02.12.3.12s.65-.06.77-.12c.15-.07.02-.13-.27-.13"/>
          <path class="cls-3" d="M358.74,211.4c-.58.05-1.09.07-1.63.1l-.12.06c.56,0,.59.02.29.18l-.95.48c-.3.15-.39.16-1.06.18l-.13.07h2.36l.13-.07c-.76,0-.79-.03-.49-.18l.86-.44c.47-.12.98-.19,1.2-.19.19,0,.27.02.35.06.03,0,.07,0,.12,0h.14c.24-.02.5-.07.61-.13s0-.11-.38-.11c-.51,0-1.2.13-1.79.25.15-.08.35-.18.5-.25"/>
          <path class="cls-3" d="M362.89,211.78c.51-.19,1.17-.29,1.64-.29.57,0,.72.11.45.23-.06.03-.15.04-.33.04h-1.77M364.96,211.41c-.53,0-1.21.06-1.87.17-.62.1-1.15.25-1.47.41-.53.27-.22.5,1.03.5.32,0,1.13-.04,2.14-.22l-.06-.05c-.53.08-1,.12-1.42.12-.73,0-1.31-.13-.68-.44,1.25,0,2.59-.03,2.82-.04.19,0,.25-.03.35-.08.36-.19.04-.36-.86-.36"/>
          <path class="cls-3" d="M375.83,211.43h-1.91l-.12.06c.65.02.71.03.34.15-.53.17-1.3.4-1.81.54.07-.25.14-.5.24-.74h-.28c-.91.26-1.8.5-2.68.74.1-.17.2-.36.31-.54.07-.11.13-.12.8-.14l.12-.06h-2.13l-.13.06c.48,0,.54.03.48.15-.13.28-.28.55-.45.83h.3c.92-.26,1.89-.51,2.69-.73-.07.24-.13.48-.21.73h.31c1.05-.31,2.17-.63,2.82-.81.47-.13.62-.16,1.18-.17l.12-.06"/>
          <path class="cls-3" d="M377.83,212.34c-.33,0-.63-.06-.38-.18.17-.09.49-.13.96-.17.28-.02.86-.07,1.14-.1l-.72.36c-.3.05-.75.08-1.01.08M379.93,211.41c-.64.03-1.41.11-1.8.16-.28.03-.46.06-.52.09-.11.06.05.1.25.1.15,0,.27,0,.4-.05.22-.07.4-.12.58-.15.16-.03.35-.05.59-.05.53,0,.71.1.39.26l-.09.05c-.31.04-1.2.1-1.92.15-.65.04-1.07.12-1.3.23-.29.15-.03.28.69.28.32,0,.99-.08,1.53-.15-.03.04-.04.07.04.1.05.03.24.04.39.04l1.1-.11.03-.07c-.15,0-.3.02-.42.02-.18,0-.29-.03-.08-.14l.88-.45c.24-.12.24-.2.02-.27-.16-.04-.44-.06-.74-.06"/>
          <path class="cls-3" d="M386.97,210.79c-.38.03-1.09.07-1.67.08l-.12.06c.61.02.64.03.36.17l-2.2,1.11c-.31.15-.41.16-1.1.18l-.13.07h2.28l.13-.07c-.64,0-.68-.03-.37-.18l2.17-1.09c.21-.11.43-.22.64-.33"/>
          <path class="cls-3" d="M391.48,210.79c-.38.03-1.09.07-1.67.08l-.13.06c.62.02.65.03.37.17l-2.21,1.11c-.3.15-.41.16-1.09.18l-.13.07h2.28l.13-.07c-.64,0-.68-.03-.38-.18l2.17-1.09c.22-.11.43-.22.65-.33"/>
        </g>
      </g>
    </g>
  </g>
  <g>
    <g id="LkVIwE" class="cls-28">
      <g>
        <path class="cls-12" d="M579.35,98.48c10.06-3.56,20.38-5.87,31.04-6.61,14.48-1,28.65.66,42.49,5.1,17.23,5.53,32.32,14.61,45.2,27.28,11.99,11.81,20.85,25.65,26.73,41.41.05.14.05.29.05.28-8.18,2.99-16.3,5.97-24.52,8.97-8.54-22.13-23.44-38.82-45.23-48.94-21.74-10.09-44.05-10.71-66.77-2.88-.23-.55-.44-1.07-.64-1.6-2.59-7.07-5.17-14.15-7.76-21.21-.2-.51-.5-1-.75-1.49l.13-.29h.02v-.02Z"/>
        <path class="cls-12" d="M686.39,180.1c-8.2,3-16.3,5.97-24.4,8.95-8.8-24.65-37.34-36.03-59.38-27.62-2.98-8.14-5.93-16.28-8.91-24.43,36.09-13.98,79.41,5.31,92.66,43.1h.03Z"/>
        <path class="cls-12" d="M646.12,194.97c-9.26,3.38-18.44,6.74-27.43,10.03-3.34-9.17-6.7-18.39-10.06-27.62,12.23-5.55,31.63.84,37.49,17.59Z"/>
      </g>
      <g>
        <path class="cls-12" d="M579.35,98.48c10.06-3.56,20.38-5.87,31.04-6.61,14.48-1,28.65.66,42.49,5.1,17.23,5.53,32.32,14.61,45.2,27.28,11.99,11.81,20.85,25.65,26.73,41.41.05.14.05.29.05.28-8.18,2.99-16.3,5.97-24.52,8.97-8.54-22.13-23.44-38.82-45.23-48.94-21.74-10.09-44.05-10.71-66.77-2.88-.23-.55-.44-1.07-.64-1.6-2.59-7.07-5.17-14.15-7.76-21.21-.2-.51-.5-1-.75-1.49l.13-.29h.02v-.02Z"/>
        <path class="cls-12" d="M686.39,180.1c-8.2,3-16.3,5.97-24.4,8.95-8.8-24.65-37.34-36.03-59.38-27.62-2.98-8.14-5.93-16.28-8.91-24.43,36.09-13.98,79.41,5.31,92.66,43.1h.03Z"/>
        <path class="cls-12" d="M646.12,194.97c-9.26,3.38-18.44,6.74-27.43,10.03-3.34-9.17-6.7-18.39-10.06-27.62,12.23-5.55,31.63.84,37.49,17.59Z"/>
      </g>
    </g>
    <g id="LkVIwE-2">
      <g>
        <path class="cls-12" d="M365.71,30.53c12.74-8.85,26.36-16.08,41.01-21.2C426.68,2.35,447.21-.74,468.34.15c26.31,1.15,50.96,8.07,73.91,20.93,21.36,11.95,39.12,28.01,53.43,47.85.12.17.19.39.18.36-10.32,7.34-20.59,14.62-30.97,21.99-20.48-27.76-47.83-45.48-82.28-51.31-34.38-5.81-65.96,1.88-94.81,21.59-.52-.7-1.04-1.34-1.52-2-6.35-8.92-12.67-17.88-19.05-26.79-.47-.65-1.09-1.21-1.63-1.81l.08-.45h0v.02h.03Z"/>
        <path class="cls-12" d="M547.31,103.96c-10.36,7.37-20.57,14.64-30.81,21.93-21.83-31.24-66.26-36.23-93.96-15.94-7.3-10.28-14.57-20.57-21.88-30.87,45.28-33.5,113.49-23.07,146.63,24.88h.02,0Z"/>
        <path class="cls-12" d="M496.48,140.3c-11.68,8.31-23.29,16.54-34.65,24.62-8.2-11.59-16.47-23.22-24.74-34.9,15.01-12.5,44.72-10.97,59.39,10.28h0Z"/>
      </g>
      <g>
        <path class="cls-12" d="M365.71,30.53c12.74-8.85,26.36-16.08,41.01-21.2C426.68,2.35,447.21-.74,468.34.15c26.31,1.15,50.96,8.07,73.91,20.93,21.36,11.95,39.12,28.01,53.43,47.85.12.17.19.39.18.36-10.32,7.34-20.59,14.62-30.97,21.99-20.48-27.76-47.83-45.48-82.28-51.31-34.38-5.81-65.96,1.88-94.81,21.59-.52-.7-1.04-1.34-1.52-2-6.35-8.92-12.67-17.88-19.05-26.79-.47-.65-1.09-1.21-1.63-1.81l.08-.45h0v.02h.03Z"/>
        <path class="cls-12" d="M547.31,103.96c-10.36,7.37-20.57,14.64-30.81,21.93-21.83-31.24-66.26-36.23-93.96-15.94-7.3-10.28-14.57-20.57-21.88-30.87,45.28-33.5,113.49-23.07,146.63,24.88h.02,0Z"/>
        <path class="cls-12" d="M496.48,140.3c-11.68,8.31-23.29,16.54-34.65,24.62-8.2-11.59-16.47-23.22-24.74-34.9,15.01-12.5,44.72-10.97,59.39,10.28h0Z"/>
      </g>
    </g>
    <g id="LkVIwE-3" class="cls-20">
      <g>
        <path class="cls-12" d="M381.01,96.1c-5.96-3.75-12.25-6.72-18.99-8.74-9.17-2.75-18.52-3.72-28.05-2.88-11.88,1.05-22.88,4.71-33,10.99-9.41,5.85-17.1,13.47-23.17,22.74-.06.08-.09.18-.07.18,4.82,3.1,9.62,6.19,14.45,9.3,8.7-12.98,20.68-21.56,36.15-24.91,15.44-3.33,29.86-.51,43.33,7.8.22-.33.44-.63.65-.93,2.68-4.18,5.37-8.35,8.05-12.51.2-.3.47-.57.69-.86l-.04-.21h0v.02h0Z"/>
        <path class="cls-12" d="M300.41,133.06c4.84,3.11,9.61,6.2,14.39,9.28,9.23-14.56,29.21-17.75,42.16-9.16,3.09-4.81,6.17-9.6,9.26-14.41-21.18-14.22-51.8-8.08-65.8,14.29h-.02,0Z"/>
        <path class="cls-12" d="M324.13,148.44c5.45,3.52,10.88,7.01,16.18,10.41,3.48-5.41,6.97-10.85,10.47-16.29-7.05-5.34-20.45-4.04-26.65,5.88Z"/>
      </g>
      <g>
        <path class="cls-12" d="M381.01,96.1c-5.96-3.75-12.25-6.72-18.99-8.74-9.17-2.75-18.52-3.72-28.05-2.88-11.88,1.05-22.88,4.71-33,10.99-9.41,5.85-17.1,13.47-23.17,22.74-.06.08-.09.18-.07.18,4.82,3.1,9.62,6.19,14.45,9.3,8.7-12.98,20.68-21.56,36.15-24.91,15.44-3.33,29.86-.51,43.33,7.8.22-.33.44-.63.65-.93,2.68-4.18,5.37-8.35,8.05-12.51.2-.3.47-.57.69-.86l-.04-.21h0v.02h0Z"/>
        <path class="cls-12" d="M300.41,133.06c4.84,3.11,9.61,6.2,14.39,9.28,9.23-14.56,29.21-17.75,42.16-9.16,3.09-4.81,6.17-9.6,9.26-14.41-21.18-14.22-51.8-8.08-65.8,14.29h-.02,0Z"/>
        <path class="cls-12" d="M324.13,148.44c5.45,3.52,10.88,7.01,16.18,10.41,3.48-5.41,6.97-10.85,10.47-16.29-7.05-5.34-20.45-4.04-26.65,5.88Z"/>
      </g>
    </g>
  </g>
</svg>