<?xml version="1.0" encoding="UTF-8"?>
<svg id="Layer_1" data-name="Layer 1" xmlns="http://www.w3.org/2000/svg" viewBox="0 0 1862.06 592.57">
  <defs>
    <style>
      .cls-1 {
        opacity: .3;
      }

      .cls-2 {
        opacity: .65;
      }

      .cls-3 {
        fill: #fff;
        stroke-width: 0px;
      }
    </style>
  </defs>
  <g class="cls-1">
    <g>
      <g>
        <g class="cls-2">
          <path class="cls-3" d="M222.7,149.18c.71,4.18,1.89,7.95,3.57,11.36,1.43,2.85,3.36,5.7,5.91,8.51,2.55,2.75,5.91,4.54,10.09,5.35h24.35c.05-4.07-.46-7.79-1.68-11.21-1.07-2.85-2.96-5.65-5.66-8.4s-6.77-4.59-12.23-5.61h-24.35ZM143.02,148.26h-78.21c-7.29.2-14.22.87-20.79,1.94-2.75.51-5.65,1.12-8.56,1.89-2.96.71-5.76,1.63-8.46,2.75-2.65,1.07-5.2,2.39-7.59,3.87-2.39,1.53-4.38,3.21-5.96,5.1-4.38,5.35-7.74,11.57-10.04,18.59C1.12,189.38,0,198.04,0,208.29v38.21c5.86-.71,10.44-1.99,13.76-3.98,3.26-1.94,5.7-4.43,7.39-7.44,1.63-3.05,2.7-6.57,3.21-10.7.46-4.08.87-8.56,1.17-13.4.3-4.08.82-7.95,1.48-11.67.61-3.06,1.37-6.16,2.34-9.22.92-3.11,2.14-5.4,3.62-6.88,3.01-3.11,6.63-5.36,10.85-6.73,4.23-1.37,9.32-2.09,15.29-2.09h151.23c-.1-5.2-1.84-9.78-5.25-13.76-1.48-1.68-3.36-3.31-5.65-4.89-2.29-1.63-5.15-3-8.66-4.23-3.47-1.17-7.6-2.09-12.38-2.65-4.79-.61-10.29-.82-16.56-.61h-18.82,0Z"/>
        </g>
        <g class="cls-2">
          <path class="cls-3" d="M43.92,282.57c-.71-4.18-1.89-7.95-3.57-11.36-1.43-2.85-3.36-5.7-5.91-8.51-2.55-2.75-5.91-4.54-10.09-5.35H0c-.05,4.07.46,7.79,1.68,11.21,1.07,2.85,2.96,5.65,5.66,8.4,2.7,2.75,6.77,4.59,12.23,5.61h24.35ZM123.61,283.48h78.21c7.29-.2,14.22-.87,20.79-1.94,2.75-.51,5.65-1.12,8.56-1.89,2.96-.71,5.76-1.63,8.46-2.75,2.65-1.07,5.2-2.39,7.59-3.87,2.39-1.53,4.38-3.21,5.96-5.1,4.38-5.35,7.74-11.57,10.04-18.59,2.29-6.98,3.41-15.64,3.41-25.89v-38.21c-5.86.71-10.44,1.99-13.76,3.98-3.26,1.94-5.7,4.43-7.39,7.44-1.63,3.05-2.7,6.57-3.21,10.7-.46,4.08-.87,8.56-1.17,13.4-.3,4.08-.82,7.95-1.48,11.67-.61,3.06-1.37,6.16-2.34,9.22-.92,3.11-2.14,5.4-3.62,6.88-3.01,3.11-6.63,5.36-10.85,6.73-4.23,1.37-9.32,2.09-15.29,2.09H56.3c.1,5.2,1.84,9.78,5.25,13.76,1.48,1.68,3.36,3.31,5.65,4.89,2.29,1.63,5.15,3,8.66,4.23,3.47,1.17,7.6,2.09,12.38,2.65,4.79.61,10.29.82,16.56.61h18.81Z"/>
        </g>
      </g>
      <g>
        <g class="cls-2">
          <path class="cls-3" d="M222.7,1.01c.71,4.18,1.89,7.95,3.57,11.36,1.43,2.85,3.36,5.7,5.91,8.51,2.55,2.75,5.91,4.54,10.09,5.35h24.35c.05-4.07-.46-7.79-1.68-11.21-1.07-2.85-2.96-5.65-5.66-8.4-2.7-2.75-6.77-4.59-12.23-5.61,0,0-24.35,0-24.35,0ZM143.02.1h-78.21c-7.29.2-14.22.87-20.79,1.94-2.75.51-5.65,1.12-8.56,1.89-2.96.71-5.76,1.63-8.46,2.75-2.65,1.07-5.2,2.39-7.59,3.87-2.39,1.53-4.38,3.21-5.96,5.1-4.39,5.34-7.74,11.56-10.04,18.58C1.12,41.21,0,49.87,0,60.12v38.21c5.86-.71,10.44-1.99,13.76-3.98,3.26-1.94,5.7-4.43,7.39-7.44,1.63-3.05,2.7-6.57,3.21-10.7.46-4.08.87-8.56,1.17-13.4.3-4.08.82-7.95,1.48-11.67.61-3.06,1.37-6.16,2.34-9.22.92-3.11,2.14-5.4,3.62-6.88,3.01-3.11,6.63-5.36,10.85-6.73,4.23-1.37,9.32-2.09,15.29-2.09h151.23c-.1-5.2-1.84-9.78-5.25-13.76-1.48-1.68-3.36-3.31-5.65-4.89-2.29-1.63-5.15-3-8.66-4.23-3.47-1.17-7.6-2.09-12.38-2.65-4.79-.61-10.29-.82-16.56-.61h-18.8l-.02.02h0Z"/>
        </g>
        <g class="cls-2">
          <path class="cls-3" d="M43.92,134.41c-.71-4.18-1.89-7.95-3.57-11.36-1.43-2.85-3.36-5.7-5.91-8.51-2.55-2.75-5.91-4.54-10.09-5.35H0c-.05,4.07.46,7.79,1.68,11.21,1.07,2.85,2.96,5.65,5.66,8.4,2.7,2.75,6.77,4.59,12.23,5.61h24.35ZM123.61,135.32h78.21c7.29-.2,14.22-.87,20.79-1.94,2.75-.51,5.65-1.12,8.56-1.89,2.96-.71,5.76-1.63,8.46-2.75,2.65-1.07,5.2-2.39,7.59-3.87,2.39-1.53,4.38-3.21,5.96-5.1,4.38-5.35,7.74-11.57,10.04-18.59,2.29-6.98,3.41-15.64,3.41-25.89v-38.21c-5.86.71-10.44,1.99-13.76,3.98-3.26,1.94-5.7,4.43-7.39,7.44-1.63,3.05-2.7,6.57-3.21,10.7-.46,4.08-.87,8.56-1.17,13.4-.3,4.08-.82,7.95-1.48,11.67-.61,3.06-1.37,6.16-2.34,9.22-.92,3.11-2.14,5.4-3.62,6.88-3.01,3.11-6.63,5.36-10.85,6.73-4.23,1.37-9.32,2.09-15.29,2.09H56.3c.1,5.2,1.84,9.78,5.25,13.76,1.48,1.68,3.36,3.31,5.65,4.89,2.29,1.63,5.15,3,8.66,4.23,3.47,1.17,7.6,2.09,12.38,2.65,4.79.61,10.29.82,16.56.61h18.81Z"/>
        </g>
      </g>
      <g>
        <g class="cls-2">
          <path class="cls-3" d="M302.62,47.25c4.18-.71,7.95-1.89,11.36-3.57,2.85-1.43,5.7-3.36,8.51-5.91,2.75-2.55,4.54-5.91,5.35-10.09V3.33c-4.07-.05-7.79.46-11.21,1.68-2.85,1.07-5.65,2.96-8.4,5.66-2.75,2.7-4.59,6.77-5.61,12.23v24.35h0ZM301.71,126.94v78.21c.2,7.29.87,14.22,1.94,20.79.51,2.75,1.12,5.65,1.89,8.56.71,2.96,1.63,5.76,2.75,8.46,1.07,2.65,2.39,5.2,3.87,7.59,1.53,2.39,3.21,4.38,5.1,5.96,5.35,4.38,11.57,7.74,18.59,10.04,6.98,2.29,15.64,3.41,25.89,3.41h38.21c-.71-5.86-1.99-10.44-3.98-13.76-1.94-3.26-4.43-5.7-7.44-7.39-3.05-1.63-6.57-2.7-10.7-3.21-4.08-.46-8.56-.87-13.4-1.17-4.08-.3-7.95-.82-11.67-1.48-3.06-.61-6.16-1.37-9.22-2.34-3.11-.92-5.4-2.14-6.88-3.62-3.11-3.01-5.36-6.63-6.73-10.85-1.37-4.23-2.09-9.32-2.09-15.29V59.63c-5.2.1-9.78,1.84-13.76,5.25-1.68,1.48-3.31,3.36-4.89,5.65-1.63,2.29-3,5.15-4.23,8.66-1.17,3.47-2.09,7.6-2.65,12.38-.61,4.79-.82,10.29-.61,16.56v18.8h.01Z"/>
        </g>
        <g class="cls-2">
          <path class="cls-3" d="M436.01,226.04c-4.18.71-7.95,1.89-11.36,3.57-2.85,1.43-5.7,3.36-8.51,5.91-2.75,2.55-4.54,5.91-5.35,10.09v24.35c4.07.05,7.79-.46,11.21-1.68,2.85-1.07,5.65-2.96,8.4-5.66s4.59-6.77,5.61-12.23v-24.35h0ZM436.93,146.35v-78.21c-.2-7.29-.87-14.22-1.94-20.79-.51-2.75-1.12-5.65-1.89-8.56-.71-2.96-1.63-5.76-2.75-8.46-1.07-2.65-2.39-5.2-3.87-7.59-1.53-2.39-3.21-4.38-5.1-5.96-5.35-4.38-11.57-7.74-18.59-10.04-6.98-2.29-15.64-3.41-25.89-3.41h-38.21c.71,5.86,1.99,10.44,3.98,13.76,1.94,3.26,4.43,5.7,7.44,7.39,3.05,1.63,6.57,2.7,10.7,3.21,4.08.46,8.56.87,13.4,1.17,4.08.3,7.95.82,11.67,1.48,3.06.61,6.16,1.37,9.22,2.34,3.11.92,5.4,2.14,6.88,3.62,3.11,3.01,5.36,6.63,6.73,10.85,1.37,4.23,2.09,9.32,2.09,15.29v151.23c5.2-.1,9.78-1.84,13.76-5.25,1.68-1.48,3.31-3.36,4.89-5.65,1.63-2.29,3-5.15,4.23-8.66,1.17-3.47,2.09-7.6,2.65-12.38.61-4.79.82-10.29.61-16.56v-18.82h-.01Z"/>
        </g>
      </g>
    </g>
    <g>
      <g>
        <g class="cls-2">
          <path class="cls-3" d="M697.72,149.18c.71,4.18,1.89,7.95,3.57,11.36,1.43,2.85,3.36,5.7,5.91,8.51,2.55,2.75,5.91,4.54,10.09,5.35h24.35c.05-4.07-.46-7.79-1.68-11.21-1.07-2.85-2.96-5.65-5.66-8.4-2.7-2.75-6.77-4.59-12.23-5.61h-24.35ZM618.03,148.26h-78.21c-7.29.2-14.22.87-20.79,1.94-2.75.51-5.65,1.12-8.56,1.89-2.96.71-5.76,1.63-8.46,2.75-2.65,1.07-5.2,2.39-7.59,3.87-2.39,1.53-4.38,3.21-5.96,5.1-4.38,5.35-7.74,11.57-10.04,18.59-2.29,6.98-3.41,15.64-3.41,25.89v38.21c5.86-.71,10.44-1.99,13.76-3.98,3.26-1.94,5.7-4.43,7.39-7.44,1.63-3.05,2.7-6.57,3.21-10.7.46-4.08.87-8.56,1.17-13.4.3-4.08.82-7.95,1.48-11.67.61-3.06,1.37-6.16,2.34-9.22.92-3.11,2.14-5.4,3.62-6.88,3.01-3.11,6.63-5.36,10.85-6.73,4.23-1.37,9.32-2.09,15.29-2.09h151.23c-.1-5.2-1.84-9.78-5.25-13.76-1.48-1.68-3.36-3.31-5.65-4.89-2.29-1.63-5.15-3-8.66-4.23-3.47-1.17-7.6-2.09-12.38-2.65-4.79-.61-10.29-.82-16.56-.61h-18.82Z"/>
        </g>
        <g class="cls-2">
          <path class="cls-3" d="M518.93,282.57c-.71-4.18-1.89-7.95-3.57-11.36-1.43-2.85-3.36-5.7-5.91-8.51-2.55-2.75-5.91-4.54-10.09-5.35h-24.35c-.05,4.07.46,7.79,1.68,11.21,1.07,2.85,2.96,5.65,5.66,8.4s6.77,4.59,12.23,5.61h24.35ZM598.62,283.48h78.21c7.29-.2,14.22-.87,20.79-1.94,2.75-.51,5.65-1.12,8.56-1.89,2.96-.71,5.76-1.63,8.46-2.75,2.65-1.07,5.2-2.39,7.59-3.87,2.39-1.53,4.38-3.21,5.96-5.1,4.38-5.35,7.74-11.57,10.04-18.59,2.29-6.98,3.41-15.64,3.41-25.89v-38.21c-5.86.71-10.44,1.99-13.76,3.98-3.26,1.94-5.7,4.43-7.39,7.44-1.63,3.05-2.7,6.57-3.21,10.7-.46,4.08-.87,8.56-1.17,13.4-.3,4.08-.82,7.95-1.48,11.67-.61,3.06-1.37,6.16-2.34,9.22-.92,3.11-2.14,5.4-3.62,6.88-3.01,3.11-6.63,5.36-10.85,6.73-4.23,1.37-9.32,2.09-15.29,2.09h-151.23c.1,5.2,1.84,9.78,5.25,13.76,1.48,1.68,3.36,3.31,5.65,4.89,2.29,1.63,5.15,3,8.66,4.23,3.47,1.17,7.6,2.09,12.38,2.65,4.79.61,10.29.82,16.56.61h18.82,0Z"/>
        </g>
      </g>
      <g>
        <g class="cls-2">
          <path class="cls-3" d="M697.72,1.01c.71,4.18,1.89,7.95,3.57,11.36,1.43,2.85,3.36,5.7,5.91,8.51,2.55,2.75,5.91,4.54,10.09,5.35h24.35c.05-4.07-.46-7.79-1.68-11.21-1.07-2.85-2.96-5.65-5.66-8.4-2.7-2.75-6.77-4.59-12.23-5.61h-24.35ZM618.03.1h-78.21c-7.29.2-14.22.87-20.79,1.94-2.75.51-5.65,1.12-8.56,1.89-2.96.71-5.76,1.63-8.46,2.75-2.65,1.07-5.2,2.39-7.59,3.87-2.39,1.53-4.38,3.21-5.96,5.1-4.38,5.35-7.74,11.57-10.04,18.59-2.29,6.98-3.41,15.64-3.41,25.89v38.21c5.86-.71,10.44-1.99,13.76-3.98,3.26-1.94,5.7-4.43,7.39-7.44,1.63-3.05,2.7-6.57,3.21-10.7.46-4.08.87-8.56,1.17-13.4.3-4.08.82-7.95,1.48-11.67.61-3.06,1.37-6.16,2.34-9.22.92-3.11,2.14-5.4,3.62-6.88,3.01-3.11,6.63-5.36,10.85-6.73,4.23-1.37,9.32-2.09,15.29-2.09h151.23c-.1-5.2-1.84-9.78-5.25-13.76-1.48-1.68-3.36-3.31-5.65-4.89-2.29-1.63-5.15-3-8.66-4.23-3.47-1.17-7.6-2.09-12.38-2.65-4.79-.61-10.29-.82-16.56-.61h-18.82Z"/>
        </g>
        <g class="cls-2">
          <path class="cls-3" d="M518.93,134.41c-.71-4.18-1.89-7.95-3.57-11.36-1.43-2.85-3.36-5.7-5.91-8.51-2.55-2.75-5.91-4.54-10.09-5.35h-24.35c-.05,4.07.46,7.79,1.68,11.21,1.07,2.85,2.96,5.65,5.66,8.4s6.77,4.59,12.23,5.61h24.35ZM598.62,135.32h78.21c7.29-.2,14.22-.87,20.79-1.94,2.75-.51,5.65-1.12,8.56-1.89,2.96-.71,5.76-1.63,8.46-2.75,2.65-1.07,5.2-2.39,7.59-3.87,2.39-1.53,4.38-3.21,5.96-5.1,4.38-5.35,7.74-11.57,10.04-18.59,2.29-6.98,3.41-15.64,3.41-25.89v-38.21c-5.86.71-10.44,1.99-13.76,3.98-3.26,1.94-5.7,4.43-7.39,7.44-1.63,3.05-2.7,6.57-3.21,10.7-.46,4.08-.87,8.56-1.17,13.4-.3,4.08-.82,7.95-1.48,11.67-.61,3.06-1.37,6.16-2.34,9.22-.92,3.11-2.14,5.4-3.62,6.88-3.01,3.11-6.63,5.36-10.85,6.73-4.23,1.37-9.32,2.09-15.29,2.09h-151.23c.1,5.2,1.84,9.78,5.25,13.76,1.48,1.68,3.36,3.31,5.65,4.89,2.29,1.63,5.15,3,8.66,4.23,3.47,1.17,7.6,2.09,12.38,2.65,4.79.61,10.29.82,16.56.61h18.82,0Z"/>
        </g>
      </g>
      <g>
        <g class="cls-2">
          <path class="cls-3" d="M777.64,47.25c4.18-.71,7.95-1.89,11.36-3.57,2.85-1.43,5.7-3.36,8.51-5.91,2.75-2.55,4.54-5.91,5.35-10.09V3.33c-4.07-.05-7.79.46-11.21,1.68-2.85,1.07-5.65,2.96-8.4,5.66-2.75,2.7-4.59,6.77-5.61,12.23v24.35h0ZM776.72,126.94v78.21c.2,7.29.87,14.22,1.94,20.79.51,2.75,1.12,5.65,1.89,8.56.71,2.96,1.63,5.76,2.75,8.46,1.07,2.65,2.39,5.2,3.87,7.59,1.53,2.39,3.21,4.38,5.1,5.96,5.35,4.38,11.57,7.74,18.59,10.04,6.98,2.29,15.64,3.41,25.89,3.41h38.21c-.71-5.86-1.99-10.44-3.98-13.76-1.94-3.26-4.43-5.7-7.44-7.39-3.05-1.63-6.57-2.7-10.7-3.21-4.08-.46-8.56-.87-13.4-1.17-4.08-.3-7.95-.82-11.67-1.48-3.06-.61-6.16-1.37-9.22-2.34-3.11-.92-5.4-2.14-6.88-3.62-3.11-3.01-5.36-6.63-6.73-10.85-1.37-4.23-2.09-9.32-2.09-15.29V59.63c-5.2.1-9.78,1.84-13.76,5.25-1.68,1.48-3.31,3.36-4.89,5.65-1.63,2.29-3,5.15-4.23,8.66-1.17,3.47-2.09,7.6-2.65,12.38-.61,4.79-.82,10.29-.61,16.56v18.8h0Z"/>
        </g>
        <g class="cls-2">
          <path class="cls-3" d="M911.03,226.04c-4.18.71-7.95,1.89-11.36,3.57-2.85,1.43-5.7,3.36-8.51,5.91-2.75,2.55-4.54,5.91-5.35,10.09v24.35c4.07.05,7.79-.46,11.21-1.68,2.85-1.07,5.65-2.96,8.4-5.66s4.59-6.77,5.61-12.23v-24.35h0ZM911.94,146.35v-78.21c-.2-7.29-.87-14.22-1.94-20.79-.51-2.75-1.12-5.65-1.89-8.56-.71-2.96-1.63-5.76-2.75-8.46-1.07-2.65-2.39-5.2-3.87-7.59-1.53-2.39-3.21-4.38-5.1-5.96-5.35-4.38-11.57-7.74-18.59-10.04-6.98-2.29-15.64-3.41-25.89-3.41h-38.21c.71,5.86,1.99,10.44,3.98,13.76,1.94,3.26,4.43,5.7,7.44,7.39,3.05,1.63,6.57,2.7,10.7,3.21,4.08.46,8.56.87,13.4,1.17,4.08.3,7.95.82,11.67,1.48,3.06.61,6.16,1.37,9.22,2.34,3.11.92,5.4,2.14,6.88,3.62,3.11,3.01,5.36,6.63,6.73,10.85,1.37,4.23,2.09,9.32,2.09,15.29v151.23c5.2-.1,9.78-1.84,13.76-5.25,1.68-1.48,3.31-3.36,4.89-5.65,1.63-2.29,3-5.15,4.23-8.66,1.17-3.47,2.09-7.6,2.65-12.38.61-4.79.82-10.29.61-16.56v-18.82h0Z"/>
        </g>
      </g>
    </g>
    <g>
      <g>
        <g class="cls-2">
          <path class="cls-3" d="M1172.73,149.18c.71,4.18,1.89,7.95,3.57,11.36,1.43,2.85,3.36,5.7,5.91,8.51,2.55,2.75,5.91,4.54,10.09,5.35h24.35c.05-4.07-.46-7.79-1.68-11.21-1.07-2.85-2.96-5.65-5.66-8.4-2.7-2.75-6.77-4.59-12.23-5.61h-24.35,0ZM1093.04,148.26h-78.21c-7.29.2-14.22.87-20.79,1.94-2.75.51-5.65,1.12-8.56,1.89-2.96.71-5.76,1.63-8.46,2.75-2.65,1.07-5.2,2.39-7.59,3.87-2.39,1.53-4.38,3.21-5.96,5.1-4.38,5.35-7.74,11.57-10.04,18.59-2.29,6.98-3.41,15.64-3.41,25.89v38.21c5.86-.71,10.44-1.99,13.76-3.98,3.26-1.94,5.7-4.43,7.39-7.44,1.63-3.05,2.7-6.57,3.21-10.7.46-4.08.87-8.56,1.17-13.4.3-4.08.82-7.95,1.48-11.67.61-3.06,1.37-6.16,2.34-9.22.92-3.11,2.14-5.4,3.62-6.88,3.01-3.11,6.63-5.36,10.85-6.73,4.23-1.37,9.32-2.09,15.29-2.09h151.23c-.1-5.2-1.84-9.78-5.25-13.76-1.48-1.68-3.36-3.31-5.65-4.89-2.29-1.63-5.15-3-8.66-4.23-3.47-1.17-7.6-2.09-12.38-2.65-4.79-.61-10.29-.82-16.56-.61h-18.82,0Z"/>
        </g>
        <g class="cls-2">
          <path class="cls-3" d="M993.95,282.57c-.71-4.18-1.89-7.95-3.57-11.36-1.43-2.85-3.36-5.7-5.91-8.51-2.55-2.75-5.91-4.54-10.09-5.35h-24.35c-.05,4.07.46,7.79,1.68,11.21,1.07,2.85,2.96,5.65,5.66,8.4,2.7,2.75,6.77,4.59,12.23,5.61h24.35ZM1073.63,283.48h78.21c7.29-.2,14.22-.87,20.79-1.94,2.75-.51,5.65-1.12,8.56-1.89,2.96-.71,5.76-1.63,8.46-2.75,2.65-1.07,5.2-2.39,7.59-3.87,2.39-1.53,4.38-3.21,5.96-5.1,4.38-5.35,7.74-11.57,10.04-18.59,2.29-6.98,3.41-15.64,3.41-25.89v-38.21c-5.86.71-10.44,1.99-13.76,3.98-3.26,1.94-5.7,4.43-7.39,7.44-1.63,3.05-2.7,6.57-3.21,10.7-.46,4.08-.87,8.56-1.17,13.4-.3,4.08-.82,7.95-1.48,11.67-.61,3.06-1.37,6.16-2.34,9.22-.92,3.11-2.14,5.4-3.62,6.88-3.01,3.11-6.63,5.36-10.85,6.73-4.23,1.37-9.32,2.09-15.29,2.09h-151.23c.1,5.2,1.84,9.78,5.25,13.76,1.48,1.68,3.36,3.31,5.65,4.89,2.29,1.63,5.15,3,8.66,4.23,3.47,1.17,7.6,2.09,12.38,2.65,4.79.61,10.29.82,16.56.61h18.82,0Z"/>
        </g>
      </g>
      <g>
        <g class="cls-2">
          <path class="cls-3" d="M1172.73,1.01c.71,4.18,1.89,7.95,3.57,11.36,1.43,2.85,3.36,5.7,5.91,8.51,2.55,2.75,5.91,4.54,10.09,5.35h24.35c.05-4.07-.46-7.79-1.68-11.21-1.07-2.85-2.96-5.65-5.66-8.4-2.7-2.75-6.77-4.59-12.23-5.61h-24.35,0ZM1093.04.1h-78.21c-7.29.2-14.22.87-20.79,1.94-2.75.51-5.65,1.12-8.56,1.89-2.96.71-5.76,1.63-8.46,2.75-2.65,1.07-5.2,2.39-7.59,3.87-2.39,1.53-4.38,3.21-5.96,5.1-4.38,5.35-7.74,11.57-10.04,18.59-2.29,6.98-3.41,15.64-3.41,25.89v38.21c5.86-.71,10.44-1.99,13.76-3.98,3.26-1.94,5.7-4.43,7.39-7.44,1.63-3.05,2.7-6.57,3.21-10.7.46-4.08.87-8.56,1.17-13.4.3-4.08.82-7.95,1.48-11.67.61-3.06,1.37-6.16,2.34-9.22.92-3.11,2.14-5.4,3.62-6.88,3.01-3.11,6.63-5.36,10.85-6.73,4.23-1.37,9.32-2.09,15.29-2.09h151.23c-.1-5.2-1.84-9.78-5.25-13.76-1.48-1.68-3.36-3.31-5.65-4.89-2.29-1.63-5.15-3-8.66-4.23-3.47-1.17-7.6-2.09-12.38-2.65-4.79-.61-10.29-.82-16.56-.61h-18.82,0Z"/>
        </g>
        <g class="cls-2">
          <path class="cls-3" d="M993.95,134.41c-.71-4.18-1.89-7.95-3.57-11.36-1.43-2.85-3.36-5.7-5.91-8.51-2.55-2.75-5.91-4.54-10.09-5.35h-24.35c-.05,4.07.46,7.79,1.68,11.21,1.07,2.85,2.96,5.65,5.66,8.4,2.7,2.75,6.77,4.59,12.23,5.61h24.35ZM1073.63,135.32h78.21c7.29-.2,14.22-.87,20.79-1.94,2.75-.51,5.65-1.12,8.56-1.89,2.96-.71,5.76-1.63,8.46-2.75,2.65-1.07,5.2-2.39,7.59-3.87,2.39-1.53,4.38-3.21,5.96-5.1,4.38-5.35,7.74-11.57,10.04-18.59,2.29-6.98,3.41-15.64,3.41-25.89v-38.21c-5.86.71-10.44,1.99-13.76,3.98-3.26,1.94-5.7,4.43-7.39,7.44-1.63,3.05-2.7,6.57-3.21,10.7-.46,4.08-.87,8.56-1.17,13.4-.3,4.08-.82,7.95-1.48,11.67-.61,3.06-1.37,6.16-2.34,9.22-.92,3.11-2.14,5.4-3.62,6.88-3.01,3.11-6.63,5.36-10.85,6.73-4.23,1.37-9.32,2.09-15.29,2.09h-151.23c.1,5.2,1.84,9.78,5.25,13.76,1.48,1.68,3.36,3.31,5.65,4.89,2.29,1.63,5.15,3,8.66,4.23,3.47,1.17,7.6,2.09,12.38,2.65,4.79.61,10.29.82,16.56.61h18.82,0Z"/>
        </g>
      </g>
      <g>
        <g class="cls-2">
          <path class="cls-3" d="M1252.65,47.25c4.18-.71,7.95-1.89,11.36-3.57,2.85-1.43,5.7-3.36,8.51-5.91,2.75-2.55,4.54-5.91,5.35-10.09V3.33c-4.07-.05-7.79.46-11.21,1.68-2.85,1.07-5.65,2.96-8.4,5.66-2.75,2.7-4.59,6.77-5.61,12.23v24.35h0ZM1251.73,126.94v78.21c.2,7.29.87,14.22,1.94,20.79.51,2.75,1.12,5.65,1.89,8.56.71,2.96,1.63,5.76,2.75,8.46,1.07,2.65,2.39,5.2,3.87,7.59,1.53,2.39,3.21,4.38,5.1,5.96,5.35,4.38,11.57,7.74,18.59,10.04,6.98,2.29,15.64,3.41,25.89,3.41h38.21c-.71-5.86-1.99-10.44-3.98-13.76-1.94-3.26-4.43-5.7-7.44-7.39-3.05-1.63-6.57-2.7-10.7-3.21-4.08-.46-8.56-.87-13.4-1.17-4.08-.3-7.95-.82-11.67-1.48-3.06-.61-6.16-1.37-9.22-2.34-3.11-.92-5.4-2.14-6.88-3.62-3.11-3.01-5.36-6.63-6.73-10.85-1.37-4.23-2.09-9.32-2.09-15.29V59.63c-5.2.1-9.78,1.84-13.76,5.25-1.68,1.48-3.31,3.36-4.89,5.65-1.63,2.29-3,5.15-4.23,8.66-1.17,3.47-2.09,7.6-2.65,12.38-.61,4.79-.82,10.29-.61,16.56v18.8h.01Z"/>
        </g>
        <g class="cls-2">
          <path class="cls-3" d="M1386.04,226.04c-4.18.71-7.95,1.89-11.36,3.57-2.85,1.43-5.7,3.36-8.51,5.91-2.75,2.55-4.54,5.91-5.35,10.09v24.35c4.07.05,7.79-.46,11.21-1.68,2.85-1.07,5.65-2.96,8.4-5.66s4.59-6.77,5.61-12.23v-24.35h0ZM1386.96,146.35v-78.21c-.2-7.29-.87-14.22-1.94-20.79-.51-2.75-1.12-5.65-1.89-8.56-.71-2.96-1.63-5.76-2.75-8.46-1.07-2.65-2.39-5.2-3.87-7.59-1.53-2.39-3.21-4.38-5.1-5.96-5.35-4.38-11.57-7.74-18.59-10.04-6.98-2.29-15.64-3.41-25.89-3.41h-38.21c.71,5.86,1.99,10.44,3.98,13.76,1.94,3.26,4.43,5.7,7.44,7.39,3.05,1.63,6.57,2.7,10.7,3.21,4.08.46,8.56.87,13.4,1.17,4.08.3,7.95.82,11.67,1.48,3.06.61,6.16,1.37,9.22,2.34,3.11.92,5.4,2.14,6.88,3.62,3.11,3.01,5.36,6.63,6.73,10.85,1.37,4.23,2.09,9.32,2.09,15.29v151.23c5.2-.1,9.78-1.84,13.76-5.25,1.68-1.48,3.31-3.36,4.89-5.65,1.63-2.29,3-5.15,4.23-8.66,1.17-3.47,2.09-7.6,2.65-12.38.61-4.79.82-10.29.61-16.56v-18.82h-.01Z"/>
        </g>
      </g>
    </g>
    <g>
      <g>
        <g class="cls-2">
          <path class="cls-3" d="M1647.74,149.18c.71,4.18,1.89,7.95,3.57,11.36,1.43,2.85,3.36,5.7,5.91,8.51,2.55,2.75,5.91,4.54,10.09,5.35h24.35c.05-4.07-.46-7.79-1.68-11.21-1.07-2.85-2.96-5.65-5.66-8.4-2.7-2.75-6.77-4.59-12.23-5.61h-24.35,0ZM1568.06,148.26h-78.21c-7.29.2-14.22.87-20.79,1.94-2.75.51-5.65,1.12-8.56,1.89-2.96.71-5.76,1.63-8.46,2.75-2.65,1.07-5.2,2.39-7.59,3.87-2.39,1.53-4.38,3.21-5.96,5.1-4.38,5.35-7.74,11.57-10.04,18.59-2.29,6.98-3.41,15.64-3.41,25.89v38.21c5.86-.71,10.44-1.99,13.76-3.98,3.26-1.94,5.7-4.43,7.39-7.44,1.63-3.05,2.7-6.57,3.21-10.7.46-4.08.87-8.56,1.17-13.4.3-4.08.82-7.95,1.48-11.67.61-3.06,1.37-6.16,2.34-9.22.92-3.11,2.14-5.4,3.62-6.88,3.01-3.11,6.63-5.36,10.85-6.73,4.23-1.37,9.32-2.09,15.29-2.09h151.23c-.1-5.2-1.84-9.78-5.25-13.76-1.48-1.68-3.36-3.31-5.65-4.89-2.29-1.63-5.15-3-8.66-4.23-3.47-1.17-7.6-2.09-12.38-2.65-4.79-.61-10.29-.82-16.56-.61h-18.82,0Z"/>
        </g>
        <g class="cls-2">
          <path class="cls-3" d="M1468.96,282.57c-.71-4.18-1.89-7.95-3.57-11.36-1.43-2.85-3.36-5.7-5.91-8.51-2.55-2.75-5.91-4.54-10.09-5.35h-24.35c-.05,4.07.46,7.79,1.68,11.21,1.07,2.85,2.96,5.65,5.66,8.4,2.7,2.75,6.77,4.59,12.23,5.61h24.35,0ZM1548.65,283.48h78.21c7.29-.2,14.22-.87,20.79-1.94,2.75-.51,5.65-1.12,8.56-1.89,2.96-.71,5.76-1.63,8.46-2.75,2.65-1.07,5.2-2.39,7.59-3.87,2.39-1.53,4.38-3.21,5.96-5.1,4.38-5.35,7.74-11.57,10.04-18.59,2.29-6.98,3.41-15.64,3.41-25.89v-38.21c-5.86.71-10.44,1.99-13.76,3.98-3.26,1.94-5.7,4.43-7.39,7.44-1.63,3.05-2.7,6.57-3.21,10.7-.46,4.08-.87,8.56-1.17,13.4-.3,4.08-.82,7.95-1.48,11.67-.61,3.06-1.37,6.16-2.34,9.22-.92,3.11-2.14,5.4-3.62,6.88-3.01,3.11-6.63,5.36-10.85,6.73-4.23,1.37-9.32,2.09-15.29,2.09h-151.23c.1,5.2,1.84,9.78,5.25,13.76,1.48,1.68,3.36,3.31,5.65,4.89,2.29,1.63,5.15,3,8.66,4.23,3.47,1.17,7.6,2.09,12.38,2.65,4.79.61,10.29.82,16.56.61h18.82,0Z"/>
        </g>
      </g>
      <g>
        <g class="cls-2">
          <path class="cls-3" d="M1647.74,1.01c.71,4.18,1.89,7.95,3.57,11.36,1.43,2.85,3.36,5.7,5.91,8.51,2.55,2.75,5.91,4.54,10.09,5.35h24.35c.05-4.07-.46-7.79-1.68-11.21-1.07-2.85-2.96-5.65-5.66-8.4-2.7-2.75-6.77-4.59-12.23-5.61h-24.35,0ZM1568.06.1h-78.21c-7.29.2-14.22.87-20.79,1.94-2.75.51-5.65,1.12-8.56,1.89-2.96.71-5.76,1.63-8.46,2.75-2.65,1.07-5.2,2.39-7.59,3.87-2.39,1.53-4.38,3.21-5.96,5.1-4.38,5.35-7.74,11.57-10.04,18.59-2.29,6.98-3.41,15.64-3.41,25.89v38.21c5.86-.71,10.44-1.99,13.76-3.98,3.26-1.94,5.7-4.43,7.39-7.44,1.63-3.05,2.7-6.57,3.21-10.7.46-4.08.87-8.56,1.17-13.4.3-4.08.82-7.95,1.48-11.67.61-3.06,1.37-6.16,2.34-9.22.92-3.11,2.14-5.4,3.62-6.88,3.01-3.11,6.63-5.36,10.85-6.73,4.23-1.37,9.32-2.09,15.29-2.09h151.23c-.1-5.2-1.84-9.78-5.25-13.76-1.48-1.68-3.36-3.31-5.65-4.89-2.29-1.63-5.15-3-8.66-4.23-3.47-1.17-7.6-2.09-12.38-2.65-4.79-.61-10.29-.82-16.56-.61h-18.82,0Z"/>
        </g>
        <g class="cls-2">
          <path class="cls-3" d="M1468.96,134.41c-.71-4.18-1.89-7.95-3.57-11.36-1.43-2.85-3.36-5.7-5.91-8.51-2.55-2.75-5.91-4.54-10.09-5.35h-24.35c-.05,4.07.46,7.79,1.68,11.21,1.07,2.85,2.96,5.65,5.66,8.4,2.7,2.75,6.77,4.59,12.23,5.61h24.35,0ZM1548.65,135.32h78.21c7.29-.2,14.22-.87,20.79-1.94,2.75-.51,5.65-1.12,8.56-1.89,2.96-.71,5.76-1.63,8.46-2.75,2.65-1.07,5.2-2.39,7.59-3.87,2.39-1.53,4.38-3.21,5.96-5.1,4.38-5.35,7.74-11.57,10.04-18.59,2.29-6.98,3.41-15.64,3.41-25.89v-38.21c-5.86.71-10.44,1.99-13.76,3.98-3.26,1.94-5.7,4.43-7.39,7.44-1.63,3.05-2.7,6.57-3.21,10.7-.46,4.08-.87,8.56-1.17,13.4-.3,4.08-.82,7.95-1.48,11.67-.61,3.06-1.37,6.16-2.34,9.22-.92,3.11-2.14,5.4-3.62,6.88-3.01,3.11-6.63,5.36-10.85,6.73-4.23,1.37-9.32,2.09-15.29,2.09h-151.23c.1,5.2,1.84,9.78,5.25,13.76,1.48,1.68,3.36,3.31,5.65,4.89,2.29,1.63,5.15,3,8.66,4.23,3.47,1.17,7.6,2.09,12.38,2.65,4.79.61,10.29.82,16.56.61h18.82,0Z"/>
        </g>
      </g>
      <g>
        <g class="cls-2">
          <path class="cls-3" d="M1727.66,47.25c4.18-.71,7.95-1.89,11.36-3.57,2.85-1.43,5.7-3.36,8.51-5.91,2.75-2.55,4.54-5.91,5.35-10.09V3.33c-4.07-.05-7.79.46-11.21,1.68-2.85,1.07-5.65,2.96-8.4,5.66-2.75,2.7-4.59,6.77-5.61,12.23v24.35h0ZM1726.75,126.94v78.21c.2,7.29.87,14.22,1.94,20.79.51,2.75,1.12,5.65,1.89,8.56.71,2.96,1.63,5.76,2.75,8.46,1.07,2.65,2.39,5.2,3.87,7.59,1.53,2.39,3.21,4.38,5.1,5.96,5.35,4.38,11.57,7.74,18.59,10.04,6.98,2.29,15.64,3.41,25.89,3.41h38.21c-.71-5.86-1.99-10.44-3.98-13.76-1.94-3.26-4.43-5.7-7.44-7.39-3.05-1.63-6.57-2.7-10.7-3.21-4.08-.46-8.56-.87-13.4-1.17-4.08-.3-7.95-.82-11.67-1.48-3.06-.61-6.16-1.37-9.22-2.34-3.11-.92-5.4-2.14-6.88-3.62-3.11-3.01-5.36-6.63-6.73-10.85-1.37-4.23-2.09-9.32-2.09-15.29V59.63c-5.2.1-9.78,1.84-13.76,5.25-1.68,1.48-3.31,3.36-4.89,5.65-1.63,2.29-3,5.15-4.23,8.66-1.17,3.47-2.09,7.6-2.65,12.38-.61,4.79-.82,10.29-.61,16.56v18.8h.01Z"/>
        </g>
        <g class="cls-2">
          <path class="cls-3" d="M1861.06,226.04c-4.18.71-7.95,1.89-11.36,3.57-2.85,1.43-5.7,3.36-8.51,5.91-2.75,2.55-4.54,5.91-5.35,10.09v24.35c4.07.05,7.79-.46,11.21-1.68,2.85-1.07,5.65-2.96,8.4-5.66s4.59-6.77,5.61-12.23v-24.35h0ZM1861.97,146.35v-78.21c-.2-7.29-.87-14.22-1.94-20.79-.51-2.75-1.12-5.65-1.89-8.56-.71-2.96-1.63-5.76-2.75-8.46-1.07-2.65-2.39-5.2-3.87-7.59-1.53-2.39-3.21-4.38-5.1-5.96-5.35-4.38-11.57-7.74-18.59-10.04-6.98-2.29-15.64-3.41-25.89-3.41h-38.21c.71,5.86,1.99,10.44,3.98,13.76,1.94,3.26,4.43,5.7,7.44,7.39,3.05,1.63,6.57,2.7,10.7,3.21,4.08.46,8.56.87,13.4,1.17,4.08.3,7.95.82,11.67,1.48,3.06.61,6.16,1.37,9.22,2.34,3.11.92,5.4,2.14,6.88,3.62,3.11,3.01,5.36,6.63,6.73,10.85,1.37,4.23,2.09,9.32,2.09,15.29v151.23c5.2-.1,9.78-1.84,13.76-5.25,1.68-1.48,3.31-3.36,4.89-5.65,1.63-2.29,3-5.15,4.23-8.66,1.17-3.47,2.09-7.6,2.65-12.38.61-4.79.82-10.29.61-16.56v-18.82h-.01Z"/>
        </g>
      </g>
    </g>
  </g>
  <g class="cls-1">
    <g>
      <g>
        <g class="cls-2">
          <path class="cls-3" d="M222.7,458.18c.71,4.18,1.89,7.95,3.57,11.36,1.43,2.85,3.36,5.7,5.91,8.51,2.55,2.75,5.91,4.54,10.09,5.35h24.35c.05-4.07-.46-7.79-1.68-11.21-1.07-2.85-2.96-5.65-5.66-8.4s-6.77-4.59-12.23-5.61h-24.35ZM143.02,457.26h-78.21c-7.29.2-14.22.87-20.79,1.94-2.75.51-5.65,1.12-8.56,1.89-2.96.71-5.76,1.63-8.46,2.75-2.65,1.07-5.2,2.39-7.59,3.87-2.39,1.53-4.38,3.21-5.96,5.1-4.38,5.35-7.74,11.57-10.04,18.59C1.12,498.38,0,507.04,0,517.29v38.21c5.86-.71,10.44-1.99,13.76-3.98,3.26-1.94,5.7-4.43,7.39-7.44,1.63-3.05,2.7-6.57,3.21-10.7.46-4.08.87-8.56,1.17-13.4.3-4.08.82-7.95,1.48-11.67.61-3.06,1.37-6.16,2.34-9.22.92-3.11,2.14-5.4,3.62-6.88,3.01-3.11,6.63-5.36,10.85-6.73,4.23-1.37,9.32-2.09,15.29-2.09h151.23c-.1-5.2-1.84-9.78-5.25-13.76-1.48-1.68-3.36-3.31-5.65-4.89-2.29-1.63-5.15-3-8.66-4.23-3.47-1.17-7.6-2.09-12.38-2.65-4.79-.61-10.29-.82-16.56-.61h-18.82,0Z"/>
        </g>
        <g class="cls-2">
          <path class="cls-3" d="M43.92,591.57c-.71-4.18-1.89-7.95-3.57-11.36-1.43-2.85-3.36-5.7-5.91-8.51-2.55-2.75-5.91-4.54-10.09-5.35H0c-.05,4.07.46,7.79,1.68,11.21,1.07,2.85,2.96,5.65,5.66,8.4,2.7,2.75,6.77,4.59,12.23,5.61h24.35ZM123.61,592.48h78.21c7.29-.2,14.22-.87,20.79-1.94,2.75-.51,5.65-1.12,8.56-1.89,2.96-.71,5.76-1.63,8.46-2.75,2.65-1.07,5.2-2.39,7.59-3.87,2.39-1.53,4.38-3.21,5.96-5.1,4.38-5.35,7.74-11.57,10.04-18.59,2.29-6.98,3.41-15.64,3.41-25.89v-38.21c-5.86.71-10.44,1.99-13.76,3.98-3.26,1.94-5.7,4.43-7.39,7.44-1.63,3.05-2.7,6.57-3.21,10.7-.46,4.08-.87,8.56-1.17,13.4-.3,4.08-.82,7.95-1.48,11.67-.61,3.06-1.37,6.16-2.34,9.22-.92,3.11-2.14,5.4-3.62,6.88-3.01,3.11-6.63,5.36-10.85,6.73-4.23,1.37-9.32,2.09-15.29,2.09H56.3c.1,5.2,1.84,9.78,5.25,13.76,1.48,1.68,3.36,3.31,5.65,4.89,2.29,1.63,5.15,3,8.66,4.23,3.47,1.17,7.6,2.09,12.38,2.65,4.79.61,10.29.82,16.56.61h18.81Z"/>
        </g>
      </g>
      <g>
        <g class="cls-2">
          <path class="cls-3" d="M222.7,310.01c.71,4.18,1.89,7.95,3.57,11.36,1.43,2.85,3.36,5.7,5.91,8.51,2.55,2.75,5.91,4.54,10.09,5.35h24.35c.05-4.07-.46-7.79-1.68-11.21-1.07-2.85-2.96-5.65-5.66-8.4s-6.77-4.59-12.23-5.61h-24.35ZM143.02,309.1h-78.21c-7.29.2-14.22.87-20.79,1.94-2.75.51-5.65,1.12-8.56,1.89-2.96.71-5.76,1.63-8.46,2.75-2.65,1.07-5.2,2.39-7.59,3.87-2.39,1.53-4.38,3.21-5.96,5.1-4.39,5.34-7.74,11.56-10.04,18.58C1.12,350.21,0,358.87,0,369.12v38.21c5.86-.71,10.44-1.99,13.76-3.98,3.26-1.94,5.7-4.43,7.39-7.44,1.63-3.05,2.7-6.57,3.21-10.7.46-4.08.87-8.56,1.17-13.4.3-4.08.82-7.95,1.48-11.67.61-3.06,1.37-6.16,2.34-9.22.92-3.11,2.14-5.4,3.62-6.88,3.01-3.11,6.63-5.36,10.85-6.73,4.23-1.37,9.32-2.09,15.29-2.09h151.23c-.1-5.2-1.84-9.78-5.25-13.76-1.48-1.68-3.36-3.31-5.65-4.89-2.29-1.63-5.15-3-8.66-4.23-3.47-1.17-7.6-2.09-12.38-2.65-4.79-.61-10.29-.82-16.56-.61h-18.8l-.02.02h0Z"/>
        </g>
        <g class="cls-2">
          <path class="cls-3" d="M43.92,443.41c-.71-4.18-1.89-7.95-3.57-11.36-1.43-2.85-3.36-5.7-5.91-8.51-2.55-2.75-5.91-4.54-10.09-5.35H0c-.05,4.07.46,7.79,1.68,11.21,1.07,2.85,2.96,5.65,5.66,8.4,2.7,2.75,6.77,4.59,12.23,5.61h24.35ZM123.61,444.32h78.21c7.29-.2,14.22-.87,20.79-1.94,2.75-.51,5.65-1.12,8.56-1.89,2.96-.71,5.76-1.63,8.46-2.75,2.65-1.07,5.2-2.39,7.59-3.87,2.39-1.53,4.38-3.21,5.96-5.1,4.38-5.35,7.74-11.57,10.04-18.59,2.29-6.98,3.41-15.64,3.41-25.89v-38.21c-5.86.71-10.44,1.99-13.76,3.98-3.26,1.94-5.7,4.43-7.39,7.44-1.63,3.05-2.7,6.57-3.21,10.7-.46,4.08-.87,8.56-1.17,13.4-.3,4.08-.82,7.95-1.48,11.67-.61,3.06-1.37,6.16-2.34,9.22-.92,3.11-2.14,5.4-3.62,6.88-3.01,3.11-6.63,5.36-10.85,6.73-4.23,1.37-9.32,2.09-15.29,2.09H56.3c.1,5.2,1.84,9.78,5.25,13.76,1.48,1.68,3.36,3.31,5.65,4.89,2.29,1.63,5.15,3,8.66,4.23,3.47,1.17,7.6,2.09,12.38,2.65,4.79.61,10.29.82,16.56.61h18.81Z"/>
        </g>
      </g>
      <g>
        <g class="cls-2">
          <path class="cls-3" d="M302.62,356.25c4.18-.71,7.95-1.89,11.36-3.57,2.85-1.43,5.7-3.36,8.51-5.91,2.75-2.55,4.54-5.91,5.35-10.09v-24.35c-4.07-.05-7.79.46-11.21,1.68-2.85,1.07-5.65,2.96-8.4,5.66s-4.59,6.77-5.61,12.23v24.35h0ZM301.71,435.94v78.21c.2,7.29.87,14.22,1.94,20.79.51,2.75,1.12,5.65,1.89,8.56.71,2.96,1.63,5.76,2.75,8.46,1.07,2.65,2.39,5.2,3.87,7.59,1.53,2.39,3.21,4.38,5.1,5.96,5.35,4.38,11.57,7.74,18.59,10.04,6.98,2.29,15.64,3.41,25.89,3.41h38.21c-.71-5.86-1.99-10.44-3.98-13.76-1.94-3.26-4.43-5.7-7.44-7.39-3.05-1.63-6.57-2.7-10.7-3.21-4.08-.46-8.56-.87-13.4-1.17-4.08-.3-7.95-.82-11.67-1.48-3.06-.61-6.16-1.37-9.22-2.34-3.11-.92-5.4-2.14-6.88-3.62-3.11-3.01-5.36-6.63-6.73-10.85-1.37-4.23-2.09-9.32-2.09-15.29v-151.22c-5.2.1-9.78,1.84-13.76,5.25-1.68,1.48-3.31,3.36-4.89,5.65-1.63,2.29-3,5.15-4.23,8.66-1.17,3.47-2.09,7.6-2.65,12.38-.61,4.79-.82,10.29-.61,16.56v18.8h.01Z"/>
        </g>
        <g class="cls-2">
          <path class="cls-3" d="M436.01,535.04c-4.18.71-7.95,1.89-11.36,3.57-2.85,1.43-5.7,3.36-8.51,5.91-2.75,2.55-4.54,5.91-5.35,10.09v24.35c4.07.05,7.79-.46,11.21-1.68,2.85-1.07,5.65-2.96,8.4-5.66s4.59-6.77,5.61-12.23v-24.35h0ZM436.93,455.35v-78.21c-.2-7.29-.87-14.22-1.94-20.79-.51-2.75-1.12-5.65-1.89-8.56-.71-2.96-1.63-5.76-2.75-8.46-1.07-2.65-2.39-5.2-3.87-7.59-1.53-2.39-3.21-4.38-5.1-5.96-5.35-4.38-11.57-7.74-18.59-10.04-6.98-2.29-15.64-3.41-25.89-3.41h-38.21c.71,5.86,1.99,10.44,3.98,13.76,1.94,3.26,4.43,5.7,7.44,7.39,3.05,1.63,6.57,2.7,10.7,3.21,4.08.46,8.56.87,13.4,1.17,4.08.3,7.95.82,11.67,1.48,3.06.61,6.16,1.37,9.22,2.34,3.11.92,5.4,2.14,6.88,3.62,3.11,3.01,5.36,6.63,6.73,10.85,1.37,4.23,2.09,9.32,2.09,15.29v151.23c5.2-.1,9.78-1.84,13.76-5.25,1.68-1.48,3.31-3.36,4.89-5.65,1.63-2.29,3-5.15,4.23-8.66,1.17-3.47,2.09-7.6,2.65-12.38.61-4.79.82-10.29.61-16.56v-18.82h-.01Z"/>
        </g>
      </g>
    </g>
    <g>
      <g>
        <g class="cls-2">
          <path class="cls-3" d="M697.72,458.18c.71,4.18,1.89,7.95,3.57,11.36,1.43,2.85,3.36,5.7,5.91,8.51,2.55,2.75,5.91,4.54,10.09,5.35h24.35c.05-4.07-.46-7.79-1.68-11.21-1.07-2.85-2.96-5.65-5.66-8.4-2.7-2.75-6.77-4.59-12.23-5.61h-24.35ZM618.03,457.26h-78.21c-7.29.2-14.22.87-20.79,1.94-2.75.51-5.65,1.12-8.56,1.89-2.96.71-5.76,1.63-8.46,2.75-2.65,1.07-5.2,2.39-7.59,3.87-2.39,1.53-4.38,3.21-5.96,5.1-4.38,5.35-7.74,11.57-10.04,18.59-2.29,6.98-3.41,15.64-3.41,25.89v38.21c5.86-.71,10.44-1.99,13.76-3.98,3.26-1.94,5.7-4.43,7.39-7.44,1.63-3.05,2.7-6.57,3.21-10.7.46-4.08.87-8.56,1.17-13.4.3-4.08.82-7.95,1.48-11.67.61-3.06,1.37-6.16,2.34-9.22.92-3.11,2.14-5.4,3.62-6.88,3.01-3.11,6.63-5.36,10.85-6.73,4.23-1.37,9.32-2.09,15.29-2.09h151.23c-.1-5.2-1.84-9.78-5.25-13.76-1.48-1.68-3.36-3.31-5.65-4.89-2.29-1.63-5.15-3-8.66-4.23-3.47-1.17-7.6-2.09-12.38-2.65-4.79-.61-10.29-.82-16.56-.61h-18.82Z"/>
        </g>
        <g class="cls-2">
          <path class="cls-3" d="M518.93,591.57c-.71-4.18-1.89-7.95-3.57-11.36-1.43-2.85-3.36-5.7-5.91-8.51-2.55-2.75-5.91-4.54-10.09-5.35h-24.35c-.05,4.07.46,7.79,1.68,11.21,1.07,2.85,2.96,5.65,5.66,8.4s6.77,4.59,12.23,5.61h24.35ZM598.62,592.48h78.21c7.29-.2,14.22-.87,20.79-1.94,2.75-.51,5.65-1.12,8.56-1.89,2.96-.71,5.76-1.63,8.46-2.75,2.65-1.07,5.2-2.39,7.59-3.87,2.39-1.53,4.38-3.21,5.96-5.1,4.38-5.35,7.74-11.57,10.04-18.59,2.29-6.98,3.41-15.64,3.41-25.89v-38.21c-5.86.71-10.44,1.99-13.76,3.98-3.26,1.94-5.7,4.43-7.39,7.44-1.63,3.05-2.7,6.57-3.21,10.7-.46,4.08-.87,8.56-1.17,13.4-.3,4.08-.82,7.95-1.48,11.67-.61,3.06-1.37,6.16-2.34,9.22-.92,3.11-2.14,5.4-3.62,6.88-3.01,3.11-6.63,5.36-10.85,6.73-4.23,1.37-9.32,2.09-15.29,2.09h-151.23c.1,5.2,1.84,9.78,5.25,13.76,1.48,1.68,3.36,3.31,5.65,4.89,2.29,1.63,5.15,3,8.66,4.23,3.47,1.17,7.6,2.09,12.38,2.65,4.79.61,10.29.82,16.56.61h18.82,0Z"/>
        </g>
      </g>
      <g>
        <g class="cls-2">
          <path class="cls-3" d="M697.72,310.01c.71,4.18,1.89,7.95,3.57,11.36,1.43,2.85,3.36,5.7,5.91,8.51,2.55,2.75,5.91,4.54,10.09,5.35h24.35c.05-4.07-.46-7.79-1.68-11.21-1.07-2.85-2.96-5.65-5.66-8.4-2.7-2.75-6.77-4.59-12.23-5.61h-24.35ZM618.03,309.1h-78.21c-7.29.2-14.22.87-20.79,1.94-2.75.51-5.65,1.12-8.56,1.89-2.96.71-5.76,1.63-8.46,2.75-2.65,1.07-5.2,2.39-7.59,3.87-2.39,1.53-4.38,3.21-5.96,5.1-4.38,5.35-7.74,11.57-10.04,18.59-2.29,6.98-3.41,15.64-3.41,25.89v38.21c5.86-.71,10.44-1.99,13.76-3.98,3.26-1.94,5.7-4.43,7.39-7.44,1.63-3.05,2.7-6.57,3.21-10.7.46-4.08.87-8.56,1.17-13.4.3-4.08.82-7.95,1.48-11.67.61-3.06,1.37-6.16,2.34-9.22.92-3.11,2.14-5.4,3.62-6.88,3.01-3.11,6.63-5.36,10.85-6.73,4.23-1.37,9.32-2.09,15.29-2.09h151.23c-.1-5.2-1.84-9.78-5.25-13.76-1.48-1.68-3.36-3.31-5.65-4.89-2.29-1.63-5.15-3-8.66-4.23-3.47-1.17-7.6-2.09-12.38-2.65-4.79-.61-10.29-.82-16.56-.61h-18.82Z"/>
        </g>
        <g class="cls-2">
          <path class="cls-3" d="M518.93,443.41c-.71-4.18-1.89-7.95-3.57-11.36-1.43-2.85-3.36-5.7-5.91-8.51-2.55-2.75-5.91-4.54-10.09-5.35h-24.35c-.05,4.07.46,7.79,1.68,11.21,1.07,2.85,2.96,5.65,5.66,8.4s6.77,4.59,12.23,5.61h24.35ZM598.62,444.32h78.21c7.29-.2,14.22-.87,20.79-1.94,2.75-.51,5.65-1.12,8.56-1.89,2.96-.71,5.76-1.63,8.46-2.75,2.65-1.07,5.2-2.39,7.59-3.87,2.39-1.53,4.38-3.21,5.96-5.1,4.38-5.35,7.74-11.57,10.04-18.59,2.29-6.98,3.41-15.64,3.41-25.89v-38.21c-5.86.71-10.44,1.99-13.76,3.98-3.26,1.94-5.7,4.43-7.39,7.44-1.63,3.05-2.7,6.57-3.21,10.7-.46,4.08-.87,8.56-1.17,13.4-.3,4.08-.82,7.95-1.48,11.67-.61,3.06-1.37,6.16-2.34,9.22-.92,3.11-2.14,5.4-3.62,6.88-3.01,3.11-6.63,5.36-10.85,6.73-4.23,1.37-9.32,2.09-15.29,2.09h-151.23c.1,5.2,1.84,9.78,5.25,13.76,1.48,1.68,3.36,3.31,5.65,4.89,2.29,1.63,5.15,3,8.66,4.23,3.47,1.17,7.6,2.09,12.38,2.65,4.79.61,10.29.82,16.56.61h18.82,0Z"/>
        </g>
      </g>
      <g>
        <g class="cls-2">
          <path class="cls-3" d="M777.64,356.25c4.18-.71,7.95-1.89,11.36-3.57,2.85-1.43,5.7-3.36,8.51-5.91,2.75-2.55,4.54-5.91,5.35-10.09v-24.35c-4.07-.05-7.79.46-11.21,1.68-2.85,1.07-5.65,2.96-8.4,5.66s-4.59,6.77-5.61,12.23v24.35h0ZM776.72,435.94v78.21c.2,7.29.87,14.22,1.94,20.79.51,2.75,1.12,5.65,1.89,8.56.71,2.96,1.63,5.76,2.75,8.46,1.07,2.65,2.39,5.2,3.87,7.59,1.53,2.39,3.21,4.38,5.1,5.96,5.35,4.38,11.57,7.74,18.59,10.04,6.98,2.29,15.64,3.41,25.89,3.41h38.21c-.71-5.86-1.99-10.44-3.98-13.76-1.94-3.26-4.43-5.7-7.44-7.39-3.05-1.63-6.57-2.7-10.7-3.21-4.08-.46-8.56-.87-13.4-1.17-4.08-.3-7.95-.82-11.67-1.48-3.06-.61-6.16-1.37-9.22-2.34-3.11-.92-5.4-2.14-6.88-3.62-3.11-3.01-5.36-6.63-6.73-10.85-1.37-4.23-2.09-9.32-2.09-15.29v-151.22c-5.2.1-9.78,1.84-13.76,5.25-1.68,1.48-3.31,3.36-4.89,5.65-1.63,2.29-3,5.15-4.23,8.66-1.17,3.47-2.09,7.6-2.65,12.38-.61,4.79-.82,10.29-.61,16.56v18.8h0Z"/>
        </g>
        <g class="cls-2">
          <path class="cls-3" d="M911.03,535.04c-4.18.71-7.95,1.89-11.36,3.57-2.85,1.43-5.7,3.36-8.51,5.91-2.75,2.55-4.54,5.91-5.35,10.09v24.35c4.07.05,7.79-.46,11.21-1.68,2.85-1.07,5.65-2.96,8.4-5.66s4.59-6.77,5.61-12.23v-24.35h0ZM911.94,455.35v-78.21c-.2-7.29-.87-14.22-1.94-20.79-.51-2.75-1.12-5.65-1.89-8.56-.71-2.96-1.63-5.76-2.75-8.46-1.07-2.65-2.39-5.2-3.87-7.59-1.53-2.39-3.21-4.38-5.1-5.96-5.35-4.38-11.57-7.74-18.59-10.04-6.98-2.29-15.64-3.41-25.89-3.41h-38.21c.71,5.86,1.99,10.44,3.98,13.76,1.94,3.26,4.43,5.7,7.44,7.39,3.05,1.63,6.57,2.7,10.7,3.21,4.08.46,8.56.87,13.4,1.17,4.08.3,7.95.82,11.67,1.48,3.06.61,6.16,1.37,9.22,2.34,3.11.92,5.4,2.14,6.88,3.62,3.11,3.01,5.36,6.63,6.73,10.85,1.37,4.23,2.09,9.32,2.09,15.29v151.23c5.2-.1,9.78-1.84,13.76-5.25,1.68-1.48,3.31-3.36,4.89-5.65,1.63-2.29,3-5.15,4.23-8.66,1.17-3.47,2.09-7.6,2.65-12.38.61-4.79.82-10.29.61-16.56v-18.82h0Z"/>
        </g>
      </g>
    </g>
    <g>
      <g>
        <g class="cls-2">
          <path class="cls-3" d="M1172.73,458.18c.71,4.18,1.89,7.95,3.57,11.36,1.43,2.85,3.36,5.7,5.91,8.51,2.55,2.75,5.91,4.54,10.09,5.35h24.35c.05-4.07-.46-7.79-1.68-11.21-1.07-2.85-2.96-5.65-5.66-8.4-2.7-2.75-6.77-4.59-12.23-5.61h-24.35,0ZM1093.04,457.26h-78.21c-7.29.2-14.22.87-20.79,1.94-2.75.51-5.65,1.12-8.56,1.89-2.96.71-5.76,1.63-8.46,2.75-2.65,1.07-5.2,2.39-7.59,3.87-2.39,1.53-4.38,3.21-5.96,5.1-4.38,5.35-7.74,11.57-10.04,18.59-2.29,6.98-3.41,15.64-3.41,25.89v38.21c5.86-.71,10.44-1.99,13.76-3.98,3.26-1.94,5.7-4.43,7.39-7.44,1.63-3.05,2.7-6.57,3.21-10.7.46-4.08.87-8.56,1.17-13.4.3-4.08.82-7.95,1.48-11.67.61-3.06,1.37-6.16,2.34-9.22.92-3.11,2.14-5.4,3.62-6.88,3.01-3.11,6.63-5.36,10.85-6.73,4.23-1.37,9.32-2.09,15.29-2.09h151.23c-.1-5.2-1.84-9.78-5.25-13.76-1.48-1.68-3.36-3.31-5.65-4.89-2.29-1.63-5.15-3-8.66-4.23-3.47-1.17-7.6-2.09-12.38-2.65-4.79-.61-10.29-.82-16.56-.61h-18.82,0Z"/>
        </g>
        <g class="cls-2">
          <path class="cls-3" d="M993.95,591.57c-.71-4.18-1.89-7.95-3.57-11.36-1.43-2.85-3.36-5.7-5.91-8.51-2.55-2.75-5.91-4.54-10.09-5.35h-24.35c-.05,4.07.46,7.79,1.68,11.21,1.07,2.85,2.96,5.65,5.66,8.4,2.7,2.75,6.77,4.59,12.23,5.61h24.35ZM1073.63,592.48h78.21c7.29-.2,14.22-.87,20.79-1.94,2.75-.51,5.65-1.12,8.56-1.89,2.96-.71,5.76-1.63,8.46-2.75,2.65-1.07,5.2-2.39,7.59-3.87,2.39-1.53,4.38-3.21,5.96-5.1,4.38-5.35,7.74-11.57,10.04-18.59,2.29-6.98,3.41-15.64,3.41-25.89v-38.21c-5.86.71-10.44,1.99-13.76,3.98-3.26,1.94-5.7,4.43-7.39,7.44-1.63,3.05-2.7,6.57-3.21,10.7-.46,4.08-.87,8.56-1.17,13.4-.3,4.08-.82,7.95-1.48,11.67-.61,3.06-1.37,6.16-2.34,9.22-.92,3.11-2.14,5.4-3.62,6.88-3.01,3.11-6.63,5.36-10.85,6.73-4.23,1.37-9.32,2.09-15.29,2.09h-151.23c.1,5.2,1.84,9.78,5.25,13.76,1.48,1.68,3.36,3.31,5.65,4.89,2.29,1.63,5.15,3,8.66,4.23,3.47,1.17,7.6,2.09,12.38,2.65,4.79.61,10.29.82,16.56.61h18.82,0Z"/>
        </g>
      </g>
      <g>
        <g class="cls-2">
          <path class="cls-3" d="M1172.73,310.01c.71,4.18,1.89,7.95,3.57,11.36,1.43,2.85,3.36,5.7,5.91,8.51,2.55,2.75,5.91,4.54,10.09,5.35h24.35c.05-4.07-.46-7.79-1.68-11.21-1.07-2.85-2.96-5.65-5.66-8.4-2.7-2.75-6.77-4.59-12.23-5.61h-24.35,0ZM1093.04,309.1h-78.21c-7.29.2-14.22.87-20.79,1.94-2.75.51-5.65,1.12-8.56,1.89-2.96.71-5.76,1.63-8.46,2.75-2.65,1.07-5.2,2.39-7.59,3.87-2.39,1.53-4.38,3.21-5.96,5.1-4.38,5.35-7.74,11.57-10.04,18.59-2.29,6.98-3.41,15.64-3.41,25.89v38.21c5.86-.71,10.44-1.99,13.76-3.98,3.26-1.94,5.7-4.43,7.39-7.44,1.63-3.05,2.7-6.57,3.21-10.7.46-4.08.87-8.56,1.17-13.4.3-4.08.82-7.95,1.48-11.67.61-3.06,1.37-6.16,2.34-9.22.92-3.11,2.14-5.4,3.62-6.88,3.01-3.11,6.63-5.36,10.85-6.73,4.23-1.37,9.32-2.09,15.29-2.09h151.23c-.1-5.2-1.84-9.78-5.25-13.76-1.48-1.68-3.36-3.31-5.65-4.89-2.29-1.63-5.15-3-8.66-4.23-3.47-1.17-7.6-2.09-12.38-2.65-4.79-.61-10.29-.82-16.56-.61h-18.82,0Z"/>
        </g>
        <g class="cls-2">
          <path class="cls-3" d="M993.95,443.41c-.71-4.18-1.89-7.95-3.57-11.36-1.43-2.85-3.36-5.7-5.91-8.51-2.55-2.75-5.91-4.54-10.09-5.35h-24.35c-.05,4.07.46,7.79,1.68,11.21,1.07,2.85,2.96,5.65,5.66,8.4,2.7,2.75,6.77,4.59,12.23,5.61h24.35ZM1073.63,444.32h78.21c7.29-.2,14.22-.87,20.79-1.94,2.75-.51,5.65-1.12,8.56-1.89,2.96-.71,5.76-1.63,8.46-2.75,2.65-1.07,5.2-2.39,7.59-3.87,2.39-1.53,4.38-3.21,5.96-5.1,4.38-5.35,7.74-11.57,10.04-18.59,2.29-6.98,3.41-15.64,3.41-25.89v-38.21c-5.86.71-10.44,1.99-13.76,3.98-3.26,1.94-5.7,4.43-7.39,7.44-1.63,3.05-2.7,6.57-3.21,10.7-.46,4.08-.87,8.56-1.17,13.4-.3,4.08-.82,7.95-1.48,11.67-.61,3.06-1.37,6.16-2.34,9.22-.92,3.11-2.14,5.4-3.62,6.88-3.01,3.11-6.63,5.36-10.85,6.73-4.23,1.37-9.32,2.09-15.29,2.09h-151.23c.1,5.2,1.84,9.78,5.25,13.76,1.48,1.68,3.36,3.31,5.65,4.89,2.29,1.63,5.15,3,8.66,4.23,3.47,1.17,7.6,2.09,12.38,2.65,4.79.61,10.29.82,16.56.61h18.82,0Z"/>
        </g>
      </g>
      <g>
        <g class="cls-2">
          <path class="cls-3" d="M1252.65,356.25c4.18-.71,7.95-1.89,11.36-3.57,2.85-1.43,5.7-3.36,8.51-5.91,2.75-2.55,4.54-5.91,5.35-10.09v-24.35c-4.07-.05-7.79.46-11.21,1.68-2.85,1.07-5.65,2.96-8.4,5.66s-4.59,6.77-5.61,12.23v24.35h0ZM1251.73,435.94v78.21c.2,7.29.87,14.22,1.94,20.79.51,2.75,1.12,5.65,1.89,8.56.71,2.96,1.63,5.76,2.75,8.46,1.07,2.65,2.39,5.2,3.87,7.59,1.53,2.39,3.21,4.38,5.1,5.96,5.35,4.38,11.57,7.74,18.59,10.04,6.98,2.29,15.64,3.41,25.89,3.41h38.21c-.71-5.86-1.99-10.44-3.98-13.76-1.94-3.26-4.43-5.7-7.44-7.39-3.05-1.63-6.57-2.7-10.7-3.21-4.08-.46-8.56-.87-13.4-1.17-4.08-.3-7.95-.82-11.67-1.48-3.06-.61-6.16-1.37-9.22-2.34-3.11-.92-5.4-2.14-6.88-3.62-3.11-3.01-5.36-6.63-6.73-10.85-1.37-4.23-2.09-9.32-2.09-15.29v-151.22c-5.2.1-9.78,1.84-13.76,5.25-1.68,1.48-3.31,3.36-4.89,5.65-1.63,2.29-3,5.15-4.23,8.66-1.17,3.47-2.09,7.6-2.65,12.38-.61,4.79-.82,10.29-.61,16.56v18.8h.01Z"/>
        </g>
        <g class="cls-2">
          <path class="cls-3" d="M1386.04,535.04c-4.18.71-7.95,1.89-11.36,3.57-2.85,1.43-5.7,3.36-8.51,5.91-2.75,2.55-4.54,5.91-5.35,10.09v24.35c4.07.05,7.79-.46,11.21-1.68,2.85-1.07,5.65-2.96,8.4-5.66s4.59-6.77,5.61-12.23v-24.35h0ZM1386.96,455.35v-78.21c-.2-7.29-.87-14.22-1.94-20.79-.51-2.75-1.12-5.65-1.89-8.56-.71-2.96-1.63-5.76-2.75-8.46-1.07-2.65-2.39-5.2-3.87-7.59-1.53-2.39-3.21-4.38-5.1-5.96-5.35-4.38-11.57-7.74-18.59-10.04-6.98-2.29-15.64-3.41-25.89-3.41h-38.21c.71,5.86,1.99,10.44,3.98,13.76,1.94,3.26,4.43,5.7,7.44,7.39,3.05,1.63,6.57,2.7,10.7,3.21,4.08.46,8.56.87,13.4,1.17,4.08.3,7.95.82,11.67,1.48,3.06.61,6.16,1.37,9.22,2.34,3.11.92,5.4,2.14,6.88,3.62,3.11,3.01,5.36,6.63,6.73,10.85,1.37,4.23,2.09,9.32,2.09,15.29v151.23c5.2-.1,9.78-1.84,13.76-5.25,1.68-1.48,3.31-3.36,4.89-5.65,1.63-2.29,3-5.15,4.23-8.66,1.17-3.47,2.09-7.6,2.65-12.38.61-4.79.82-10.29.61-16.56v-18.82h-.01Z"/>
        </g>
      </g>
    </g>
    <g>
      <g>
        <g class="cls-2">
          <path class="cls-3" d="M1647.74,458.18c.71,4.18,1.89,7.95,3.57,11.36,1.43,2.85,3.36,5.7,5.91,8.51,2.55,2.75,5.91,4.54,10.09,5.35h24.35c.05-4.07-.46-7.79-1.68-11.21-1.07-2.85-2.96-5.65-5.66-8.4-2.7-2.75-6.77-4.59-12.23-5.61h-24.35,0ZM1568.06,457.26h-78.21c-7.29.2-14.22.87-20.79,1.94-2.75.51-5.65,1.12-8.56,1.89-2.96.71-5.76,1.63-8.46,2.75-2.65,1.07-5.2,2.39-7.59,3.87-2.39,1.53-4.38,3.21-5.96,5.1-4.38,5.35-7.74,11.57-10.04,18.59-2.29,6.98-3.41,15.64-3.41,25.89v38.21c5.86-.71,10.44-1.99,13.76-3.98,3.26-1.94,5.7-4.43,7.39-7.44,1.63-3.05,2.7-6.57,3.21-10.7.46-4.08.87-8.56,1.17-13.4.3-4.08.82-7.95,1.48-11.67.61-3.06,1.37-6.16,2.34-9.22.92-3.11,2.14-5.4,3.62-6.88,3.01-3.11,6.63-5.36,10.85-6.73,4.23-1.37,9.32-2.09,15.29-2.09h151.23c-.1-5.2-1.84-9.78-5.25-13.76-1.48-1.68-3.36-3.31-5.65-4.89-2.29-1.63-5.15-3-8.66-4.23-3.47-1.17-7.6-2.09-12.38-2.65-4.79-.61-10.29-.82-16.56-.61h-18.82,0Z"/>
        </g>
        <g class="cls-2">
          <path class="cls-3" d="M1468.96,591.57c-.71-4.18-1.89-7.95-3.57-11.36-1.43-2.85-3.36-5.7-5.91-8.51-2.55-2.75-5.91-4.54-10.09-5.35h-24.35c-.05,4.07.46,7.79,1.68,11.21,1.07,2.85,2.96,5.65,5.66,8.4,2.7,2.75,6.77,4.59,12.23,5.61h24.35,0ZM1548.65,592.48h78.21c7.29-.2,14.22-.87,20.79-1.94,2.75-.51,5.65-1.12,8.56-1.89,2.96-.71,5.76-1.63,8.46-2.75,2.65-1.07,5.2-2.39,7.59-3.87,2.39-1.53,4.38-3.21,5.96-5.1,4.38-5.35,7.74-11.57,10.04-18.59,2.29-6.98,3.41-15.64,3.41-25.89v-38.21c-5.86.71-10.44,1.99-13.76,3.98-3.26,1.94-5.7,4.43-7.39,7.44-1.63,3.05-2.7,6.57-3.21,10.7-.46,4.08-.87,8.56-1.17,13.4-.3,4.08-.82,7.95-1.48,11.67-.61,3.06-1.37,6.16-2.34,9.22-.92,3.11-2.14,5.4-3.62,6.88-3.01,3.11-6.63,5.36-10.85,6.73-4.23,1.37-9.32,2.09-15.29,2.09h-151.23c.1,5.2,1.84,9.78,5.25,13.76,1.48,1.68,3.36,3.31,5.65,4.89,2.29,1.63,5.15,3,8.66,4.23,3.47,1.17,7.6,2.09,12.38,2.65,4.79.61,10.29.82,16.56.61h18.82,0Z"/>
        </g>
      </g>
      <g>
        <g class="cls-2">
          <path class="cls-3" d="M1647.74,310.01c.71,4.18,1.89,7.95,3.57,11.36,1.43,2.85,3.36,5.7,5.91,8.51,2.55,2.75,5.91,4.54,10.09,5.35h24.35c.05-4.07-.46-7.79-1.68-11.21-1.07-2.85-2.96-5.65-5.66-8.4-2.7-2.75-6.77-4.59-12.23-5.61h-24.35,0ZM1568.06,309.1h-78.21c-7.29.2-14.22.87-20.79,1.94-2.75.51-5.65,1.12-8.56,1.89-2.96.71-5.76,1.63-8.46,2.75-2.65,1.07-5.2,2.39-7.59,3.87-2.39,1.53-4.38,3.21-5.96,5.1-4.38,5.35-7.74,11.57-10.04,18.59-2.29,6.98-3.41,15.64-3.41,25.89v38.21c5.86-.71,10.44-1.99,13.76-3.98,3.26-1.94,5.7-4.43,7.39-7.44,1.63-3.05,2.7-6.57,3.21-10.7.46-4.08.87-8.56,1.17-13.4.3-4.08.82-7.95,1.48-11.67.61-3.06,1.37-6.16,2.34-9.22.92-3.11,2.14-5.4,3.62-6.88,3.01-3.11,6.63-5.36,10.85-6.73,4.23-1.37,9.32-2.09,15.29-2.09h151.23c-.1-5.2-1.84-9.78-5.25-13.76-1.48-1.68-3.36-3.31-5.65-4.89-2.29-1.63-5.15-3-8.66-4.23-3.47-1.17-7.6-2.09-12.38-2.65-4.79-.61-10.29-.82-16.56-.61h-18.82,0Z"/>
        </g>
        <g class="cls-2">
          <path class="cls-3" d="M1468.96,443.41c-.71-4.18-1.89-7.95-3.57-11.36-1.43-2.85-3.36-5.7-5.91-8.51-2.55-2.75-5.91-4.54-10.09-5.35h-24.35c-.05,4.07.46,7.79,1.68,11.21,1.07,2.85,2.96,5.65,5.66,8.4,2.7,2.75,6.77,4.59,12.23,5.61h24.35,0ZM1548.65,444.32h78.21c7.29-.2,14.22-.87,20.79-1.94,2.75-.51,5.65-1.12,8.56-1.89,2.96-.71,5.76-1.63,8.46-2.75,2.65-1.07,5.2-2.39,7.59-3.87,2.39-1.53,4.38-3.21,5.96-5.1,4.38-5.35,7.74-11.57,10.04-18.59,2.29-6.98,3.41-15.64,3.41-25.89v-38.21c-5.86.71-10.44,1.99-13.76,3.98-3.26,1.94-5.7,4.43-7.39,7.44-1.63,3.05-2.7,6.57-3.21,10.7-.46,4.08-.87,8.56-1.17,13.4-.3,4.08-.82,7.95-1.48,11.67-.61,3.06-1.37,6.16-2.34,9.22-.92,3.11-2.14,5.4-3.62,6.88-3.01,3.11-6.63,5.36-10.85,6.73-4.23,1.37-9.32,2.09-15.29,2.09h-151.23c.1,5.2,1.84,9.78,5.25,13.76,1.48,1.68,3.36,3.31,5.65,4.89,2.29,1.63,5.15,3,8.66,4.23,3.47,1.17,7.6,2.09,12.38,2.65,4.79.61,10.29.82,16.56.61h18.82,0Z"/>
        </g>
      </g>
      <g>
        <g class="cls-2">
          <path class="cls-3" d="M1727.66,356.25c4.18-.71,7.95-1.89,11.36-3.57,2.85-1.43,5.7-3.36,8.51-5.91,2.75-2.55,4.54-5.91,5.35-10.09v-24.35c-4.07-.05-7.79.46-11.21,1.68-2.85,1.07-5.65,2.96-8.4,5.66s-4.59,6.77-5.61,12.23v24.35h0ZM1726.75,435.94v78.21c.2,7.29.87,14.22,1.94,20.79.51,2.75,1.12,5.65,1.89,8.56.71,2.96,1.63,5.76,2.75,8.46,1.07,2.65,2.39,5.2,3.87,7.59,1.53,2.39,3.21,4.38,5.1,5.96,5.35,4.38,11.57,7.74,18.59,10.04,6.98,2.29,15.64,3.41,25.89,3.41h38.21c-.71-5.86-1.99-10.44-3.98-13.76-1.94-3.26-4.43-5.7-7.44-7.39-3.05-1.63-6.57-2.7-10.7-3.21-4.08-.46-8.56-.87-13.4-1.17-4.08-.3-7.95-.82-11.67-1.48-3.06-.61-6.16-1.37-9.22-2.34-3.11-.92-5.4-2.14-6.88-3.62-3.11-3.01-5.36-6.63-6.73-10.85-1.37-4.23-2.09-9.32-2.09-15.29v-151.22c-5.2.1-9.78,1.84-13.76,5.25-1.68,1.48-3.31,3.36-4.89,5.65-1.63,2.29-3,5.15-4.23,8.66-1.17,3.47-2.09,7.6-2.65,12.38-.61,4.79-.82,10.29-.61,16.56v18.8h.01Z"/>
        </g>
        <g class="cls-2">
          <path class="cls-3" d="M1861.06,535.04c-4.18.71-7.95,1.89-11.36,3.57-2.85,1.43-5.7,3.36-8.51,5.91-2.75,2.55-4.54,5.91-5.35,10.09v24.35c4.07.05,7.79-.46,11.21-1.68,2.85-1.07,5.65-2.96,8.4-5.66s4.59-6.77,5.61-12.23v-24.35h0ZM1861.97,455.35v-78.21c-.2-7.29-.87-14.22-1.94-20.79-.51-2.75-1.12-5.65-1.89-8.56-.71-2.96-1.63-5.76-2.75-8.46-1.07-2.65-2.39-5.2-3.87-7.59-1.53-2.39-3.21-4.38-5.1-5.96-5.35-4.38-11.57-7.74-18.59-10.04-6.98-2.29-15.64-3.41-25.89-3.41h-38.21c.71,5.86,1.99,10.44,3.98,13.76,1.94,3.26,4.43,5.7,7.44,7.39,3.05,1.63,6.57,2.7,10.7,3.21,4.08.46,8.56.87,13.4,1.17,4.08.3,7.95.82,11.67,1.48,3.06.61,6.16,1.37,9.22,2.34,3.11.92,5.4,2.14,6.88,3.62,3.11,3.01,5.36,6.63,6.73,10.85,1.37,4.23,2.09,9.32,2.09,15.29v151.23c5.2-.1,9.78-1.84,13.76-5.25,1.68-1.48,3.31-3.36,4.89-5.65,1.63-2.29,3-5.15,4.23-8.66,1.17-3.47,2.09-7.6,2.65-12.38.61-4.79.82-10.29.61-16.56v-18.82h-.01Z"/>
        </g>
      </g>
    </g>
  </g>
</svg>