<?xml version="1.0" encoding="UTF-8"?>
<svg id="Layer_1" data-name="Layer 1" xmlns="http://www.w3.org/2000/svg" viewBox="0 0 372 117.76">
  <defs>
    <style>
      .cls-1 {
        fill: #4d4d4f;
      }

      .cls-1, .cls-2 {
        stroke-width: 0px;
      }

      .cls-2 {
        fill: #fbae42;
      }
    </style>
  </defs>
  <g>
    <path class="cls-1" d="M56.73,27.25c-3.2-1.87-6.74-3.04-10.62-3.51l-2.7,1.77c-3.29,2.14-6.33,4.61-9.06,7.36,2.4-1.03,5-1.55,7.77-1.55,3.83,0,7.26.92,10.31,2.77,3.04,1.85,5.44,4.33,7.18,7.44,1.75,3.12,2.62,6.65,2.62,10.62s-.87,7.42-2.62,10.56c-1.74,3.15-4.14,5.63-7.18,7.44-3.05,1.82-6.48,2.72-10.31,2.72-3.76,0-7.16-.91-10.16-2.72-3.01-1.8-5.37-4.29-7.08-7.44-1.72-3.14-2.57-6.67-2.57-10.56,0-.61.02-1.21.07-1.8-1.89,4.11-3.37,8.36-4.49,12.63,1.52,3,3.16,5.47,4.63,7.43,2.26,3.08,5.21,5.56,8.83,7.44,3.62,1.88,7.66,2.82,12.11,2.82,5.2,0,9.85-1.24,13.95-3.74,4.1-2.49,7.33-5.9,9.7-10.21,2.36-4.31,3.54-9.17,3.54-14.57,0-5.47-1.25-10.37-3.74-14.67-2.5-4.32-5.88-7.72-10.16-10.22Z"/>
    <path class="cls-1" d="M126.35,27.19c-4.24-2.46-9.1-3.69-14.57-3.69-5.54,0-10.45,1.23-14.72,3.69-4.28,2.46-7.64,5.85-10.11,10.16-2.46,4.31-3.69,9.23-3.69,14.77,0,5.47,1.23,10.36,3.69,14.67,2.47,4.31,5.83,7.7,10.11,10.16,4.28,2.47,9.18,3.69,14.72,3.69,5.47,0,10.34-1.23,14.62-3.69,4.28-2.46,7.65-5.84,10.11-10.16,2.46-4.31,3.69-9.2,3.69-14.67-.07-5.54-1.33-10.47-3.79-14.77-2.47-4.31-5.82-7.7-10.06-10.16ZM129.12,62.75c-1.72,3.11-4.07,5.57-7.08,7.38-3.01,1.82-6.43,2.72-10.26,2.72s-7.27-.91-10.32-2.72c-3.04-1.8-5.43-4.28-7.18-7.38-1.75-3.12-2.62-6.66-2.62-10.62,0-3.97.87-7.52,2.62-10.67,1.75-3.15,4.14-5.63,7.18-7.44,3.05-1.82,6.48-2.72,10.32-2.72,3.83,0,7.24.91,10.26,2.72,3,1.82,5.37,4.29,7.08,7.44,1.72,3.15,2.57,6.7,2.57,10.67,0,3.97-.85,7.51-2.57,10.62Z"/>
    <path class="cls-1" d="M189.5,24.94c-1.82-1.03-4.46-1.53-7.95-1.53-3.96,0-7.61.96-10.92,2.87-2.56,1.48-4.73,3.37-6.52,5.68v-3.64c0-1.37-.36-2.43-1.08-3.18-.71-.74-1.77-1.13-3.13-1.13-1.36,0-2.43.38-3.17,1.13-.76.76-1.13,1.82-1.13,3.18v47.52c0,1.37.38,2.43,1.13,3.18.74.74,1.8,1.13,3.17,1.13s2.42-.38,3.13-1.13c.72-.76,1.08-1.82,1.08-3.18v-30.48c0-3.15.91-5.84,2.77-8.1,1.85-2.26,4.33-3.89,7.44-4.88,3.11-.99,6.69-1.24,10.72-.77,1.09.14,2.07.21,2.92.21s1.6-.21,2.26-.61c.64-.41,1.08-1.1,1.28-2.06.47-1.8-.19-3.2-2.01-4.22Z"/>
    <path class="cls-1" d="M237.12,51.57c-2.98-1.6-7.03-2.85-12.16-3.74-3.76-.68-6.65-1.45-8.66-2.31-2.02-.85-3.42-1.82-4.21-2.92-.79-1.09-1.18-2.39-1.18-3.89,0-2.19,1.09-3.99,3.28-5.39,2.19-1.4,5.06-2.1,8.62-2.1,2.8,0,5.3.43,7.49,1.28,2.19.86,4.14,2.21,5.85,4.06.81.89,1.82,1.43,3.02,1.65,1.2.2,2.24,0,3.13-.62,1.03-.61,1.58-1.45,1.7-2.51.1-1.06-.23-2.07-.98-3.03-2.05-2.59-4.75-4.67-8.1-6.2-3.35-1.53-7.32-2.31-11.91-2.31-3.62,0-6.99.58-10.1,1.75-3.12,1.16-5.63,2.9-7.55,5.23-1.92,2.33-2.87,5.23-2.87,8.72,0,3.83,1.58,7.11,4.77,9.85,3.18,2.74,8.23,4.68,15.14,5.85,5.33.89,9.12,2.12,11.34,3.69,2.22,1.57,3.34,3.52,3.34,5.84-.08,2.39-1.21,4.4-3.44,6-2.22,1.61-5.69,2.41-10.41,2.41-3.22,0-6.16-.53-8.83-1.59-2.67-1.06-4.76-2.48-6.27-4.26-.74-.82-1.69-1.3-2.82-1.43-1.13-.14-2.24.2-3.33,1.03-.96.76-1.5,1.72-1.65,2.87-.13,1.16.21,2.19,1.03,3.08,2.39,2.59,5.59,4.6,9.59,6,4.01,1.4,8.13,2.1,12.37,2.1,4.52,0,8.41-.71,11.69-2.15,3.28-1.45,5.83-3.37,7.65-5.8,1.8-2.43,2.72-5.25,2.72-8.46,0-2.6-.64-4.96-1.9-7.08-1.26-2.13-3.39-3.99-6.36-5.6Z"/>
    <path class="cls-1" d="M305.71,24.01c-1.3,0-2.35.39-3.13,1.18-.79.78-1.18,1.83-1.18,3.12v29.87c0,2.8-.74,5.28-2.26,7.44-1.5,2.15-3.55,3.86-6.15,5.13-2.6,1.27-5.51,1.9-8.72,1.9-3.35,0-6.35-.67-9.03-2-2.67-1.33-4.8-3.32-6.37-5.95-1.57-2.64-2.36-6.03-2.36-10.21v-26.17c0-1.23-.41-2.25-1.23-3.07-.81-.82-1.85-1.23-3.07-1.23s-2.26.41-3.08,1.23c-.82.82-1.23,1.85-1.23,3.07v26.17c0,5.68,1.09,10.46,3.28,14.37,2.18,3.89,5.18,6.86,8.98,8.88,3.79,2.02,8.12,3.02,12.98,3.02,4.44,0,8.48-.99,12.11-2.97,2.38-1.3,4.43-2.9,6.15-4.8v2.75c0,1.37.39,2.44,1.18,3.23.78.78,1.83,1.18,3.13,1.18,1.3,0,2.36-.39,3.17-1.18.82-.79,1.23-1.87,1.23-3.23V28.32c0-1.3-.41-2.34-1.23-3.12-.81-.79-1.87-1.18-3.17-1.18Z"/>
    <path class="cls-1" d="M370.97,73.99l-20.9-25.74,19.98-17.97c.89-.82,1.37-1.73,1.43-2.72.07-.99-.31-1.93-1.13-2.82-.82-.89-1.73-1.37-2.72-1.43-.99-.07-1.94.3-2.82,1.13l-27.71,25.03V4.21c0-1.23-.39-2.23-1.18-3.02-.78-.79-1.83-1.18-3.12-1.18s-2.24.39-3.03,1.18-1.18,1.8-1.18,3.02v71.73c0,1.23.39,2.24,1.18,3.03.79.78,1.8,1.18,3.03,1.18,1.3,0,2.34-.39,3.12-1.18.79-.79,1.18-1.8,1.18-3.03v-16.01s6.87-6.19,6.87-6.19l20.63,25.38c.76.96,1.67,1.48,2.72,1.58,1.06.1,2.07-.25,3.03-1.08,1.03-.82,1.57-1.75,1.64-2.77.07-1.01-.26-1.97-1.02-2.86Z"/>
  </g>
  <path class="cls-2" d="M14.73,117.76S-6.38,89.85,1.94,60.94C7.87,40.36,24.01,28.89,27.8,26.97c3.04-1.54,6.13-2.37,6.13-2.37,3.34-.91,6.22-1.09,8.18-1.1-2.54,1.66-7.28,5.01-11.94,10.33C2.66,65.2,14.73,117.76,14.73,117.76Z"/>
</svg>