<?xml version="1.0" encoding="UTF-8"?>
<svg id="Layer_1" data-name="Layer 1" xmlns="http://www.w3.org/2000/svg" xmlns:xlink="http://www.w3.org/1999/xlink" viewBox="0 0 1499.87 168.25">
  <defs>
    <style>
      .cls-1 {
        fill: #e6ebed;
      }

      .cls-1, .cls-2, .cls-3, .cls-4, .cls-5, .cls-6, .cls-7, .cls-8, .cls-9, .cls-10, .cls-11, .cls-12, .cls-13, .cls-14, .cls-15, .cls-16, .cls-17, .cls-18, .cls-19, .cls-20, .cls-21, .cls-22, .cls-23, .cls-24, .cls-25, .cls-26, .cls-27, .cls-28, .cls-29, .cls-30, .cls-31, .cls-32, .cls-33, .cls-34, .cls-35, .cls-36, .cls-37, .cls-38, .cls-39, .cls-40, .cls-41, .cls-42, .cls-43, .cls-44, .cls-45, .cls-46, .cls-47, .cls-48, .cls-49, .cls-50, .cls-51, .cls-52, .cls-53, .cls-54, .cls-55, .cls-56, .cls-57, .cls-58, .cls-59, .cls-60, .cls-61, .cls-62, .cls-63, .cls-64, .cls-65, .cls-66, .cls-67, .cls-68, .cls-69, .cls-70, .cls-71, .cls-72, .cls-73, .cls-74, .cls-75, .cls-76, .cls-77, .cls-78, .cls-79, .cls-80, .cls-81, .cls-82, .cls-83, .cls-84, .cls-85, .cls-86, .cls-87, .cls-88, .cls-89, .cls-90, .cls-91, .cls-92, .cls-93, .cls-94, .cls-95 {
        stroke-width: 0px;
      }

      .cls-2 {
        fill: #f9fbfe;
      }

      .cls-3 {
        fill: #333;
      }

      .cls-4 {
        fill: #edf5f9;
      }

      .cls-5 {
        fill: url(#Adsız_degrade_3);
      }

      .cls-6 {
        fill: url(#Adsız_degrade_2);
      }

      .cls-7 {
        fill: #cccbcb;
      }

      .cls-8 {
        fill: #d5dce7;
      }

      .cls-9 {
        fill: url(#Adsız_degrade_1300);
      }

      .cls-10 {
        fill: url(#Adsız_degrade_1311);
      }

      .cls-96 {
        letter-spacing: -.02em;
      }

      .cls-97 {
        letter-spacing: 0em;
      }

      .cls-11 {
        fill: #4d4d4d;
      }

      .cls-12 {
        fill: #5a0909;
      }

      .cls-13 {
        fill: #2b2f3f;
      }

      .cls-14 {
        fill: #717276;
      }

      .cls-15 {
        fill: url(#linear-gradient);
      }

      .cls-16 {
        fill: url(#Adsız_degrade_2-2);
      }

      .cls-17 {
        fill: url(#Adsız_degrade_3-2);
      }

      .cls-18 {
        fill: url(#Adsız_degrade_3-3);
      }

      .cls-19 {
        fill: url(#Adsız_degrade_3-6);
      }

      .cls-20 {
        fill: url(#Adsız_degrade_3-5);
      }

      .cls-21 {
        fill: url(#Adsız_degrade_3-4);
      }

      .cls-22, .cls-98, .cls-99 {
        fill: #3c3c3b;
      }

      .cls-23 {
        fill: #eaf2f7;
      }

      .cls-24 {
        fill: #60605f;
      }

      .cls-25 {
        fill: #f8af3c;
      }

      .cls-26 {
        fill: #1a1a1a;
      }

      .cls-27 {
        fill: #9e9fa1;
      }

      .cls-28 {
        fill: #151a21;
      }

      .cls-29 {
        fill: #009145;
      }

      .cls-30 {
        fill: #676767;
      }

      .cls-31 {
        fill: #848484;
      }

      .cls-100 {
        letter-spacing: -.04em;
      }

      .cls-32 {
        fill: #43464c;
      }

      .cls-33 {
        fill: #000;
      }

      .cls-34 {
        fill: #e1111a;
      }

      .cls-35 {
        fill: #d1dbe0;
      }

      .cls-36 {
        fill: #a8a8a8;
      }

      .cls-37 {
        fill: url(#Adsız_degrade_1300-4);
      }

      .cls-38 {
        fill: url(#Adsız_degrade_1300-5);
      }

      .cls-39 {
        fill: url(#Adsız_degrade_1300-8);
      }

      .cls-40 {
        fill: url(#Adsız_degrade_1300-3);
      }

      .cls-41 {
        fill: url(#Adsız_degrade_1300-6);
      }

      .cls-42 {
        fill: url(#Adsız_degrade_1300-9);
      }

      .cls-43 {
        fill: url(#Adsız_degrade_1300-2);
      }

      .cls-44 {
        fill: url(#Adsız_degrade_1300-7);
      }

      .cls-45 {
        fill: url(#Adsız_degrade_1311-3);
      }

      .cls-46 {
        fill: url(#Adsız_degrade_1311-6);
      }

      .cls-47 {
        fill: url(#Adsız_degrade_1311-4);
      }

      .cls-48 {
        fill: url(#Adsız_degrade_1311-9);
      }

      .cls-49 {
        fill: url(#Adsız_degrade_1311-8);
      }

      .cls-50 {
        fill: url(#Adsız_degrade_1311-5);
      }

      .cls-51 {
        fill: url(#Adsız_degrade_1311-7);
      }

      .cls-52 {
        fill: url(#Adsız_degrade_1311-2);
      }

      .cls-53 {
        fill: #4e4d4d;
      }

      .cls-54, .cls-61 {
        isolation: isolate;
        opacity: .46;
      }

      .cls-54, .cls-63 {
        fill: #6d7c84;
      }

      .cls-101 {
        letter-spacing: 0em;
      }

      .cls-55 {
        fill: #f2f2f2;
      }

      .cls-56 {
        fill: #1d1317;
      }

      .cls-102 {
        opacity: .66;
      }

      .cls-103 {
        opacity: .54;
      }

      .cls-57 {
        fill: url(#linear-gradient-2);
      }

      .cls-58 {
        fill: #2d273d;
      }

      .cls-59 {
        fill: #434249;
      }

      .cls-104 {
        letter-spacing: -.02em;
      }

      .cls-98 {
        font-size: 9.32px;
      }

      .cls-98, .cls-99 {
        font-family: Montserrat-Medium, Montserrat;
        font-weight: 500;
      }

      .cls-60 {
        fill: #f4dbdd;
      }

      .cls-99 {
        font-size: 6.5px;
      }

      .cls-61 {
        fill: #474747;
      }

      .cls-62 {
        fill: #ccc;
      }

      .cls-64 {
        fill: #fff;
      }

      .cls-65 {
        fill: url(#Adsız_degrade_1311-20);
      }

      .cls-66 {
        fill: url(#Adsız_degrade_1311-10);
      }

      .cls-67 {
        fill: url(#Adsız_degrade_1311-17);
      }

      .cls-68 {
        fill: url(#Adsız_degrade_1311-15);
      }

      .cls-69 {
        fill: url(#Adsız_degrade_1311-12);
      }

      .cls-70 {
        fill: url(#Adsız_degrade_1311-13);
      }

      .cls-71 {
        fill: url(#Adsız_degrade_1311-11);
      }

      .cls-72 {
        fill: url(#Adsız_degrade_1311-16);
      }

      .cls-73 {
        fill: url(#Adsız_degrade_1311-22);
      }

      .cls-74 {
        fill: url(#Adsız_degrade_1311-30);
      }

      .cls-75 {
        fill: url(#Adsız_degrade_1311-26);
      }

      .cls-76 {
        fill: url(#Adsız_degrade_1311-25);
      }

      .cls-77 {
        fill: url(#Adsız_degrade_1311-23);
      }

      .cls-78 {
        fill: url(#Adsız_degrade_1311-36);
      }

      .cls-79 {
        fill: url(#Adsız_degrade_1311-24);
      }

      .cls-80 {
        fill: url(#Adsız_degrade_1311-32);
      }

      .cls-81 {
        fill: url(#Adsız_degrade_1311-35);
      }

      .cls-82 {
        fill: url(#Adsız_degrade_1311-33);
      }

      .cls-83 {
        fill: url(#Adsız_degrade_1311-31);
      }

      .cls-84 {
        fill: url(#Adsız_degrade_1311-34);
      }

      .cls-85 {
        fill: url(#Adsız_degrade_1311-21);
      }

      .cls-86 {
        fill: url(#Adsız_degrade_1311-28);
      }

      .cls-87 {
        fill: url(#Adsız_degrade_1311-27);
      }

      .cls-88 {
        fill: url(#Adsız_degrade_1311-14);
      }

      .cls-89 {
        fill: url(#Adsız_degrade_1311-18);
      }

      .cls-90 {
        fill: url(#Adsız_degrade_1311-19);
      }

      .cls-91 {
        fill: url(#Adsız_degrade_1311-29);
      }

      .cls-92 {
        fill: url(#Adsız_degrade_1300-10);
      }

      .cls-93 {
        fill: url(#Adsız_degrade_1300-12);
      }

      .cls-94 {
        fill: url(#Adsız_degrade_1300-11);
      }

      .cls-105 {
        fill: none;
        stroke: #ede4bc;
        stroke-miterlimit: 10;
      }

      .cls-95 {
        fill: #295e28;
      }
    </style>
    <linearGradient id="Adsız_degrade_2" data-name="Adsız degrade 2" x1="376.86" y1="111.61" x2="376.86" y2="156.78" gradientUnits="userSpaceOnUse">
      <stop offset="0" stop-color="#fff3e5"/>
      <stop offset="1" stop-color="#333"/>
    </linearGradient>
    <linearGradient id="Adsız_degrade_2-2" data-name="Adsız degrade 2" x1="407.14" y1="128.81" x2="448.57" y2="128.81" xlink:href="#Adsız_degrade_2"/>
    <linearGradient id="Adsız_degrade_3" data-name="Adsız degrade 3" x1="495.57" y1="111.77" x2="495.57" y2="159.03" gradientUnits="userSpaceOnUse">
      <stop offset="0" stop-color="#dbd3e1"/>
      <stop offset="1" stop-color="#333"/>
    </linearGradient>
    <linearGradient id="Adsız_degrade_1300" data-name="Adsız degrade 1300" x1="512.58" y1="129.12" x2="512.58" y2="143.24" gradientUnits="userSpaceOnUse">
      <stop offset="0" stop-color="#d7cdc1"/>
      <stop offset="1" stop-color="#2b2b2b"/>
    </linearGradient>
    <linearGradient id="Adsız_degrade_1300-2" data-name="Adsız degrade 1300" x1="478.55" y1="129.12" x2="478.55" y2="143.24" xlink:href="#Adsız_degrade_1300"/>
    <linearGradient id="Adsız_degrade_1311" data-name="Adsız degrade 1311" x1="491.93" y1="147.26" x2="491.93" y2="140.34" gradientUnits="userSpaceOnUse">
      <stop offset="0" stop-color="#fff2e4"/>
      <stop offset="1" stop-color="#000"/>
    </linearGradient>
    <linearGradient id="Adsız_degrade_1311-2" data-name="Adsız degrade 1311" x1="495.06" y1="147.26" x2="495.06" y2="140.34" xlink:href="#Adsız_degrade_1311"/>
    <linearGradient id="Adsız_degrade_1311-3" data-name="Adsız degrade 1311" x1="498.18" y1="147.26" x2="498.18" y2="140.34" xlink:href="#Adsız_degrade_1311"/>
    <linearGradient id="Adsız_degrade_1311-4" data-name="Adsız degrade 1311" x1="501.31" y1="147.26" x2="501.31" y2="140.34" xlink:href="#Adsız_degrade_1311"/>
    <linearGradient id="Adsız_degrade_1311-5" data-name="Adsız degrade 1311" x1="504.44" y1="147.26" x2="504.44" y2="140.34" xlink:href="#Adsız_degrade_1311"/>
    <linearGradient id="Adsız_degrade_1311-6" data-name="Adsız degrade 1311" x1="507.56" x2="507.56" xlink:href="#Adsız_degrade_1311"/>
    <linearGradient id="Adsız_degrade_3-2" data-name="Adsız degrade 3" x1="553.46" x2="553.46" xlink:href="#Adsız_degrade_3"/>
    <linearGradient id="Adsız_degrade_1300-3" data-name="Adsız degrade 1300" x1="570.48" x2="570.48" xlink:href="#Adsız_degrade_1300"/>
    <linearGradient id="Adsız_degrade_1300-4" data-name="Adsız degrade 1300" x1="536.44" y1="129.12" x2="536.44" y2="143.24" xlink:href="#Adsız_degrade_1300"/>
    <linearGradient id="Adsız_degrade_1311-7" data-name="Adsız degrade 1311" x1="549.82" y1="147.26" x2="549.82" y2="140.34" xlink:href="#Adsız_degrade_1311"/>
    <linearGradient id="Adsız_degrade_1311-8" data-name="Adsız degrade 1311" x1="552.95" y1="147.26" x2="552.95" y2="140.34" xlink:href="#Adsız_degrade_1311"/>
    <linearGradient id="Adsız_degrade_1311-9" data-name="Adsız degrade 1311" x1="556.07" y1="147.26" x2="556.07" y2="140.34" xlink:href="#Adsız_degrade_1311"/>
    <linearGradient id="Adsız_degrade_1311-10" data-name="Adsız degrade 1311" x1="559.2" y1="147.26" x2="559.2" y2="140.34" xlink:href="#Adsız_degrade_1311"/>
    <linearGradient id="Adsız_degrade_1311-11" data-name="Adsız degrade 1311" x1="562.33" y1="147.26" x2="562.33" y2="140.34" xlink:href="#Adsız_degrade_1311"/>
    <linearGradient id="Adsız_degrade_1311-12" data-name="Adsız degrade 1311" x1="565.45" x2="565.45" y2="140.34" xlink:href="#Adsız_degrade_1311"/>
    <linearGradient id="Adsız_degrade_3-3" data-name="Adsız degrade 3" x1="613.75" x2="613.75" y2="159.03" xlink:href="#Adsız_degrade_3"/>
    <linearGradient id="Adsız_degrade_1300-5" data-name="Adsız degrade 1300" x1="630.77" x2="630.77" xlink:href="#Adsız_degrade_1300"/>
    <linearGradient id="Adsız_degrade_1300-6" data-name="Adsız degrade 1300" x1="596.74" y1="129.12" x2="596.74" y2="143.24" xlink:href="#Adsız_degrade_1300"/>
    <linearGradient id="Adsız_degrade_1311-13" data-name="Adsız degrade 1311" x1="610.11" y1="147.26" x2="610.11" y2="140.34" xlink:href="#Adsız_degrade_1311"/>
    <linearGradient id="Adsız_degrade_1311-14" data-name="Adsız degrade 1311" x1="613.24" y1="147.26" x2="613.24" y2="140.34" xlink:href="#Adsız_degrade_1311"/>
    <linearGradient id="Adsız_degrade_1311-15" data-name="Adsız degrade 1311" x1="616.37" y1="147.26" x2="616.37" y2="140.34" xlink:href="#Adsız_degrade_1311"/>
    <linearGradient id="Adsız_degrade_1311-16" data-name="Adsız degrade 1311" x1="619.49" y1="147.26" x2="619.49" y2="140.34" xlink:href="#Adsız_degrade_1311"/>
    <linearGradient id="Adsız_degrade_1311-17" data-name="Adsız degrade 1311" x1="622.62" y1="147.26" x2="622.62" y2="140.34" xlink:href="#Adsız_degrade_1311"/>
    <linearGradient id="Adsız_degrade_1311-18" data-name="Adsız degrade 1311" x1="625.75" x2="625.75" y2="140.34" xlink:href="#Adsız_degrade_1311"/>
    <linearGradient id="Adsız_degrade_3-4" data-name="Adsız degrade 3" x1="671.62" x2="671.62" xlink:href="#Adsız_degrade_3"/>
    <linearGradient id="Adsız_degrade_1300-7" data-name="Adsız degrade 1300" x1="688.63" x2="688.63" xlink:href="#Adsız_degrade_1300"/>
    <linearGradient id="Adsız_degrade_1300-8" data-name="Adsız degrade 1300" x1="654.6" y1="129.12" x2="654.6" y2="143.24" xlink:href="#Adsız_degrade_1300"/>
    <linearGradient id="Adsız_degrade_1311-19" data-name="Adsız degrade 1311" x1="667.98" x2="667.98" xlink:href="#Adsız_degrade_1311"/>
    <linearGradient id="Adsız_degrade_1311-20" data-name="Adsız degrade 1311" x1="671.1" y1="147.26" x2="671.1" y2="140.34" xlink:href="#Adsız_degrade_1311"/>
    <linearGradient id="Adsız_degrade_1311-21" data-name="Adsız degrade 1311" x1="674.23" y1="147.26" x2="674.23" y2="140.34" xlink:href="#Adsız_degrade_1311"/>
    <linearGradient id="Adsız_degrade_1311-22" data-name="Adsız degrade 1311" x1="677.36" y1="147.26" x2="677.36" y2="140.34" xlink:href="#Adsız_degrade_1311"/>
    <linearGradient id="Adsız_degrade_1311-23" data-name="Adsız degrade 1311" x1="680.48" y1="147.26" x2="680.48" y2="140.34" xlink:href="#Adsız_degrade_1311"/>
    <linearGradient id="Adsız_degrade_1311-24" data-name="Adsız degrade 1311" x1="683.61" x2="683.61" y2="140.34" xlink:href="#Adsız_degrade_1311"/>
    <linearGradient id="Adsız_degrade_3-5" data-name="Adsız degrade 3" x1="731.64" x2="731.64" xlink:href="#Adsız_degrade_3"/>
    <linearGradient id="Adsız_degrade_1300-9" data-name="Adsız degrade 1300" x1="748.65" x2="748.65" xlink:href="#Adsız_degrade_1300"/>
    <linearGradient id="Adsız_degrade_1300-10" data-name="Adsız degrade 1300" x1="714.62" y1="129.12" x2="714.62" y2="143.24" xlink:href="#Adsız_degrade_1300"/>
    <linearGradient id="Adsız_degrade_1311-25" data-name="Adsız degrade 1311" x1="728" y1="147.26" x2="728" y2="140.34" xlink:href="#Adsız_degrade_1311"/>
    <linearGradient id="Adsız_degrade_1311-26" data-name="Adsız degrade 1311" x1="731.12" y1="147.26" x2="731.12" y2="140.34" xlink:href="#Adsız_degrade_1311"/>
    <linearGradient id="Adsız_degrade_1311-27" data-name="Adsız degrade 1311" x1="734.25" y1="147.26" x2="734.25" y2="140.34" xlink:href="#Adsız_degrade_1311"/>
    <linearGradient id="Adsız_degrade_1311-28" data-name="Adsız degrade 1311" x1="737.38" y1="147.26" x2="737.38" y2="140.34" xlink:href="#Adsız_degrade_1311"/>
    <linearGradient id="Adsız_degrade_1311-29" data-name="Adsız degrade 1311" x1="740.5" y1="147.26" x2="740.5" y2="140.34" xlink:href="#Adsız_degrade_1311"/>
    <linearGradient id="Adsız_degrade_1311-30" data-name="Adsız degrade 1311" x1="743.63" x2="743.63" y2="140.34" xlink:href="#Adsız_degrade_1311"/>
    <linearGradient id="Adsız_degrade_3-6" data-name="Adsız degrade 3" x1="786.61" x2="786.61" xlink:href="#Adsız_degrade_3"/>
    <linearGradient id="Adsız_degrade_1300-11" data-name="Adsız degrade 1300" x1="803.63" x2="803.63" xlink:href="#Adsız_degrade_1300"/>
    <linearGradient id="Adsız_degrade_1300-12" data-name="Adsız degrade 1300" x1="769.6" y1="129.12" x2="769.6" y2="143.24" xlink:href="#Adsız_degrade_1300"/>
    <linearGradient id="Adsız_degrade_1311-31" data-name="Adsız degrade 1311" x1="782.97" y1="147.26" x2="782.97" y2="140.34" xlink:href="#Adsız_degrade_1311"/>
    <linearGradient id="Adsız_degrade_1311-32" data-name="Adsız degrade 1311" x1="786.1" y1="147.26" x2="786.1" y2="140.34" xlink:href="#Adsız_degrade_1311"/>
    <linearGradient id="Adsız_degrade_1311-33" data-name="Adsız degrade 1311" x1="789.23" y1="147.26" x2="789.23" y2="140.34" xlink:href="#Adsız_degrade_1311"/>
    <linearGradient id="Adsız_degrade_1311-34" data-name="Adsız degrade 1311" x1="792.35" x2="792.35" xlink:href="#Adsız_degrade_1311"/>
    <linearGradient id="Adsız_degrade_1311-35" data-name="Adsız degrade 1311" x1="795.48" y1="147.26" x2="795.48" y2="140.34" xlink:href="#Adsız_degrade_1311"/>
    <linearGradient id="Adsız_degrade_1311-36" data-name="Adsız degrade 1311" x1="798.61" x2="798.61" y2="140.34" xlink:href="#Adsız_degrade_1311"/>
    <linearGradient id="linear-gradient" x1="850.14" y1="164.1" x2="840.27" y2="140.28" gradientUnits="userSpaceOnUse">
      <stop offset="0" stop-color="#dbd3e1"/>
      <stop offset="1" stop-color="#000"/>
    </linearGradient>
    <linearGradient id="linear-gradient-2" x1="898.65" y1="164.1" x2="888.77" y2="140.28" xlink:href="#linear-gradient"/>
  </defs>
  <path class="cls-61" d="M1483.03,113.71s-297.64,53.57-315.68,54.05c-78.17-95.15,332.53-95.15,332.53-95.15l-16.84,41.1Z"/>
  <g>
    <g>
      <path class="cls-63" d="M1178.63,150.69c0-3.06,3.63-3.06,3.54,0,.08,3.06-3.63,3.06-3.54,0Z"/>
      <path class="cls-63" d="M1180.4,67.76c0-3.06,3.63-3.06,3.63,0s-3.63,3.06-3.63,0Z"/>
      <path class="cls-63" d="M1183.22,103.71c2.34-.08,2.34,4.75,0,4.75s-2.34-4.75,0-4.75Z"/>
      <path class="cls-35" d="M1439.78,9.35c-4.51,102.09,23.85,79.3-68.57,104.59-60.44,15.23-144.24,39.81-205.31,53.9V51.25c4.75.65,253.59-49.55,265.03-51.24,5.08-.17,8.94,3.78,8.86,9.35Z"/>
      <g class="cls-102">
        <path class="cls-63" d="M1252.12,95.33c.56-1.69,4.43-1.94,3.46.41-1.21.65-18.21,42.55-20.87,39.64-.89-.08-1.29-.8-.89-1.69l18.29-38.36h.02Z"/>
        <path class="cls-63" d="M1254.69,89.77c-.8.65-2.18.8-2.57.08l-18.29-29.01c-.97-1.62,2.5-3.63,3.46-2.01l18.29,28.84c.41.65,0,1.53-.89,2.1h0Z"/>
        <path class="cls-63" d="M1270.98,93.64c.56-1.62,4.36-2.01,3.46.32-1.29,1.04-13.85,31.26-16.52,29.73-.97.08-1.62-.65-1.13-1.69l14.19-28.36h0Z"/>
        <path class="cls-63" d="M1257.59,58.66c.89-.56,2.18-.65,2.57.08l14.19,21.04c.97,1.45-2.57,3.54-3.46,2.1l-14.19-21.19c-.32-.56.08-1.53.89-2.01h0v-.02Z"/>
        <path class="cls-63" d="M1274.83,88.73c-6.29.56,1.21-7.17,2.42-2.57.08,1.04-1.04,2.18-2.42,2.57Z"/>
        <path class="cls-63" d="M1290.88,85.17c.56-1.53,4.36-1.94,3.46.32-1.13.8-18.29,39.08-20.63,37.07-5.32,2.18,18.04-37.22,17.17-37.39h0Z"/>
        <path class="cls-63" d="M1293.45,80.01c-.8.65-2.18.8-2.57.08l-18.29-26.51c-.97-1.62,2.57-3.39,3.46-1.94l18.29,26.35c.41.65,0,1.53-.89,2.01h0v.02Z"/>
        <path class="cls-63" d="M1309.65,83.24c.48-1.45,4.36-1.94,3.46.24-1.04.73-14.43,29.81-16.52,27.72-.97.08-1.62-.56-1.13-1.53l14.19-26.44h0Z"/>
        <path class="cls-63" d="M1296.36,51.34c.89-.56,2.18-.65,2.57.08l14.19,19.1c.97,1.45-2.66,3.3-3.46,2.01l-14.1-19.34c-.41-.56-.08-1.45.8-1.86h0v.02Z"/>
        <path class="cls-63" d="M1384.43,60.28c.8-.56,2.18-.73,2.57-.24l18.29,17.73c.56.41-.32,1.38-1.13,1.77-.89.56-1.94.65-2.34.24l-18.29-17.89c-.32-.41,0-1.13.89-1.62h0l.02.02Z"/>
        <path class="cls-63" d="M1401.83,28.7c.41-1.04,4.36-1.53,3.46.24-1.04.65-18.69,30.14-20.63,28.12-.89.08-1.69-.41-1.13-1.21.08.08,18.29-27.15,18.29-27.15h.02Z"/>
        <path class="cls-63" d="M1365.57,67.76c.8-.56,2.18-.8,2.57-.24l14.19,14.58c.56.48-.24,1.45-1.13,1.86-.89.56-1.94.65-2.34.24l-14.19-14.75c-.32-.41.08-1.21.89-1.69h.02Z"/>
        <path class="cls-63" d="M1368.23,58.17c-.48,1.21-4.36,1.86-3.46-.17,1.13-.73,14.34-24.89,16.52-22.96.89,0,1.69.56,1.13,1.29l-14.19,21.84h0Z"/>
        <path class="cls-63" d="M1366.78,63.26c.24,1.69-4.67,3.46-4.92,1.29-.24-1.77,4.67-3.54,4.92-1.29Z"/>
        <path class="cls-63" d="M1345.66,70.35c.8-.56,2.18-.8,2.57-.17l18.29,20.22c.41.41,0,1.21-.89,1.77-.8.65-2.18.89-2.57.41l-18.29-20.39c-.32-.56,0-1.38.89-1.86v.02Z"/>
        <path class="cls-63" d="M1363.07,35.77c.48-1.21,4.36-1.53,3.46.41-.97.56-18.69,32.88-20.63,30.7-.89.08-1.69-.56-1.13-1.38.08,0,18.29-29.73,18.29-29.73h.02Z"/>
        <path class="cls-63" d="M1326.89,78.08c.8-.56,2.18-.8,2.57-.17l14.19,16.52c.97,1.29-2.66,3.3-3.46,2.18l-14.19-16.61c-.41-.56,0-1.38.89-1.94h0v.02Z"/>
        <path class="cls-63" d="M1340.19,43.43c.48-1.29,4.36-1.62,3.46.41l-14.19,23.78c-.41.73-1.45,1.21-2.34,1.13-.89,0-1.62-.65-1.13-1.45l14.19-23.85.02-.02Z"/>
        <path class="cls-63" d="M1319.56,73.57c3.54-.73,2.74,2.9,0,3.46-3.54.8-2.74-2.9,0-3.46Z"/>
      </g>
      <path class="cls-2" d="M1187.01,158.66c-5.72,1.29-15.55,2.74-20.8,5.57v3.54c1.86-.48,8.38-2.18,10.31-2.66l19.59-8.3c.08-.73.17-1.62.24-2.5l-9.35,4.36h0ZM1183.22,108.46c2.34.08,2.34-4.75,0-4.75-2.34-.08-2.34,4.75,0,4.75ZM1184.03,67.76c0-3.06-3.63-3.06-3.63,0s3.63,3.06,3.63,0ZM1178.63,150.69c0,3.06,3.63,3.06,3.54,0,.08-3.06-3.63-3.06-3.54,0Z"/>
      <path class="cls-54" d="M1192.16,161.81l235.53-62.77c5.57-1.04,8.06-3.78,9.76-6.37l-241.49,64.55c-.97,2.34-1.29,3.63-3.78,4.6h0l-.02-.02Z"/>
      <g>
        <path class="cls-63" d="M1184.99,106.04c0,3.06-3.63,3.06-3.63,0s3.71-3.06,3.63,0Z"/>
        <path class="cls-63" d="M1182.17,150.69c.08,3.06-3.63,3.06-3.54,0-.08-3.06,3.63-3.06,3.54,0Z"/>
        <path class="cls-63" d="M1184.03,67.76c0,3.06-3.63,3.06-3.63,0s3.63-3.06,3.63,0Z"/>
      </g>
    </g>
    <path class="cls-4" d="M1185.96,48.12h0l-20.07,3.13c-.08,11.77.48,107.43,0,116.61,36.66-11.28,34.65,8.7,34.89-61.41,0-17.89-1.13-42.06-2.34-49.56-1.04-6.53-3.87-10.56-12.49-8.79h0l.02.02ZM1182.17,65.43c2.34-.08,2.34,4.75,0,4.67-2.34.08-2.34-4.75,0-4.67ZM1180.4,153.02c-2.34.08-2.34-4.75,0-4.75s2.34,4.84,0,4.75ZM1183.22,108.46c-2.34.08-2.34-4.75,0-4.75s2.34,4.75,0,4.75Z"/>
    <path class="cls-63" d="M1428.18,84.85c.08,4.67-4.84,4.67-4.75,0-.08-4.67,4.75-4.67,4.75,0Z"/>
    <path class="cls-63" d="M1221.1,144.49c0,3.3-3.39,3.3-3.39,0s3.46-3.3,3.39,0Z"/>
    <path class="cls-63" d="M1219.4,52.87c0,3.3-3.39,3.3-3.39,0s3.46-3.22,3.39,0Z"/>
  </g>
  <polygon class="cls-1" points="264.98 0 1430.87 0 1165.89 51.25 0 51.25 264.98 0"/>
  <g>
    <path class="cls-23" d="M1166.03,56.8v105.86c0,1.97,0,5.38-3.56,5.38H3.71c-3.56,0-3.57-3.41-3.57-5.38V53.83c0-2.32,1.88-4.2,4.2-4.2h1154.52c3.95,0,7.16,3.21,7.16,7.16Z"/>
    <path class="cls-23" d="M1166.03,56.61v2.38c0-4.03-3.26-7.28-7.28-7.28H7.43c-4.03,0-7.28,3.26-7.28,7.28v-2.08c0-3.96,3.16-7.19,7.1-7.28.06,0,.12,0,.18,0h1151.61c3.86,0,6.99,3.13,6.99,6.99Z"/>
    <path class="cls-64" d="M302.98,102.79c-1.21.95-2.4,1.93-3.57,2.94.18-.21,1.17-1.3,3.57-2.94Z"/>
    <path class="cls-25" d="M302.98,102.79c-1.21.95-2.4,1.93-3.57,2.94.18-.21,1.17-1.3,3.57-2.94Z"/>
    <path class="cls-25" d="M686.05,49.63c-9.83,25.38-42.73,59.66-150.61,41.45-142.67-24.08-190.96,11.75-193.14,13.44,15.57-15.28,43.22-23.13,70.75-27.02-74.17,5.92-101.38,19.31-110.07,25.29,43.68-34.53,111.41-33.42,111.41-33.42-121.81-6.41-186.25,68.6-187.21,69.73,18.74-46.27,49.03-70.62,78.07-89.46h380.8Z"/>
    <path class="cls-25" d="M192.08,168.2l-169.91-.19c-7.8-7.97-13.31-16.32-15.02-26.01-1.74-9.84-.05-19.96,4.44-28.89,1.54-3.07,3.42-6.41,5.62-9.61,3.86-5.61,8.7-10.79,14.41-13.28-.36.49-20.23,27.47,8.96,48.15-.3-.44-6.31-9.44-2.92-21.6,0,0,1.27,23.3,41.83,36.49-1.79-.65-13.4-5.4-17.46-19.94.36.71,12.97,24.82,130.04,34.88Z"/>
    <path class="cls-25" d="M1159.05,49.63h-166.16c-.2.7-.4,1.39-.6,2.08-17.9,60.25-74.02,83.45-78.38,85.16,24.55-10.8,29.3-45.54,29.3-45.54-30.96,38.85-186.09,76.71-186.09,76.71h324.2c2.14.18,5.63.37,9.96,0,6.44-.54,14.75-2.3,23.29-7.06,17.86-9.96,24.52-26.26,26.2-30.8,0,0-1.79,17.42-5.81,22.34,0,0,27.68-12.21,25.6-52.65,0,0,2.66,5.69,5.46,13.91v-57.16c0-3.86-3.13-6.99-6.99-6.99Z"/>
    <g>
      <path class="cls-53" d="M88.11,94.46c-1.3-.74-2.74-1.21-4.32-1.39l-1.1.7c-1.34.85-2.57,1.83-3.68,2.92.98-.41,2.03-.62,3.16-.62,1.56,0,2.95.37,4.19,1.1,1.23.73,2.21,1.72,2.92,2.95.71,1.24,1.06,2.64,1.06,4.22s-.35,2.95-1.06,4.19c-.71,1.25-1.68,2.24-2.92,2.95-1.24.72-2.63,1.08-4.19,1.08s-2.91-.36-4.13-1.08c-1.22-.72-2.18-1.7-2.88-2.95-.7-1.25-1.04-2.65-1.04-4.19,0-.24,0-.48.03-.72-.77,1.63-1.37,3.32-1.83,5.01.62,1.19,1.28,2.17,1.88,2.95.92,1.22,2.12,2.21,3.59,2.95,1.47.75,3.11,1.12,4.92,1.12,2.11,0,4-.49,5.67-1.49,1.67-.99,2.98-2.34,3.94-4.05.96-1.71,1.44-3.64,1.44-5.78s-.51-4.11-1.52-5.82c-1.01-1.71-2.39-3.06-4.13-4.05Z"/>
      <path class="cls-53" d="M116.4,94.43c-1.72-.98-3.7-1.47-5.92-1.47s-4.25.49-5.98,1.47c-1.74.98-3.1,2.32-4.11,4.03-1,1.71-1.5,3.66-1.5,5.86s.5,4.11,1.5,5.82c1,1.71,2.37,3.06,4.11,4.03,1.74.98,3.73,1.47,5.98,1.47s4.2-.49,5.94-1.47c1.74-.98,3.11-2.32,4.11-4.03,1-1.71,1.5-3.65,1.5-5.82-.03-2.2-.54-4.15-1.54-5.86-1-1.71-2.37-3.06-4.09-4.03ZM117.53,108.54c-.7,1.23-1.65,2.21-2.88,2.93-1.22.72-2.61,1.08-4.17,1.08s-2.95-.36-4.19-1.08c-1.23-.72-2.21-1.7-2.92-2.93-.71-1.24-1.06-2.64-1.06-4.22s.35-2.99,1.06-4.24c.71-1.25,1.68-2.23,2.92-2.95,1.24-.72,2.63-1.08,4.19-1.08s2.94.36,4.17,1.08c1.22.72,2.18,1.7,2.88,2.95.7,1.25,1.04,2.66,1.04,4.24,0,1.57-.35,2.98-1.04,4.22Z"/>
      <path class="cls-53" d="M142.07,93.54c-.74-.41-1.81-.61-3.23-.61-1.61,0-3.09.38-4.44,1.14-1.04.59-1.92,1.34-2.65,2.26v-1.44c0-.54-.15-.96-.44-1.26-.29-.3-.72-.45-1.27-.45s-.99.15-1.29.45c-.31.3-.46.72-.46,1.26v18.85c0,.54.15.96.46,1.26.3.3.73.45,1.29.45s.98-.15,1.27-.45c.29-.3.44-.72.44-1.26v-12.09c0-1.25.37-2.32,1.13-3.21.75-.9,1.76-1.54,3.02-1.93,1.26-.39,2.72-.49,4.36-.31.44.06.84.08,1.19.08s.65-.08.92-.24c.26-.16.44-.44.52-.82.19-.71-.08-1.27-.82-1.67Z"/>
      <path class="cls-53" d="M161.41,104.1c-1.21-.64-2.86-1.13-4.94-1.49-1.53-.27-2.7-.58-3.52-.92-.82-.34-1.39-.72-1.71-1.16-.32-.43-.48-.95-.48-1.55,0-.87.44-1.58,1.33-2.14.89-.56,2.06-.83,3.5-.83,1.14,0,2.15.17,3.04.51.89.34,1.68.88,2.38,1.61.33.35.74.57,1.23.65.49.08.91,0,1.27-.25.42-.24.64-.58.69-1,.04-.42-.09-.82-.4-1.2-.83-1.03-1.93-1.85-3.29-2.46-1.36-.61-2.97-.92-4.84-.92-1.47,0-2.84.23-4.1.69-1.27.46-2.29,1.15-3.07,2.08-.78.92-1.17,2.08-1.17,3.46,0,1.52.64,2.82,1.94,3.91,1.29,1.09,3.34,1.86,6.15,2.32,2.17.35,3.71.84,4.61,1.47.9.62,1.36,1.4,1.36,2.32-.03.95-.49,1.75-1.4,2.38-.9.64-2.31.96-4.23.96-1.31,0-2.5-.21-3.59-.63-1.08-.42-1.93-.98-2.55-1.69-.3-.33-.69-.52-1.15-.57-.46-.06-.91.08-1.35.41-.39.3-.61.68-.67,1.14-.05.46.09.87.42,1.22.97,1.03,2.27,1.83,3.9,2.38,1.63.56,3.3.83,5.03.83,1.84,0,3.42-.28,4.75-.85,1.33-.57,2.37-1.34,3.11-2.3.73-.96,1.11-2.08,1.11-3.36,0-1.03-.26-1.97-.77-2.81-.51-.84-1.38-1.58-2.58-2.22Z"/>
      <path class="cls-53" d="M189.29,93.17c-.53,0-.96.16-1.27.47-.32.31-.48.73-.48,1.24v11.85c0,1.11-.3,2.1-.92,2.95-.61.85-1.44,1.53-2.5,2.03-1.06.5-2.24.75-3.54.75s-2.58-.27-3.67-.79c-1.09-.53-1.95-1.32-2.59-2.36-.64-1.05-.96-2.39-.96-4.05v-10.38c0-.49-.17-.89-.5-1.22-.33-.33-.75-.49-1.25-.49s-.92.16-1.25.49c-.33.33-.5.73-.5,1.22v10.38c0,2.25.44,4.15,1.33,5.7.89,1.55,2.11,2.72,3.65,3.52,1.54.8,3.3,1.2,5.27,1.2,1.8,0,3.45-.39,4.92-1.18.97-.52,1.8-1.15,2.5-1.91v1.09c0,.54.16.97.48,1.28.32.31.74.47,1.27.47s.96-.16,1.29-.47c.33-.31.5-.74.5-1.28v-18.81c0-.51-.17-.93-.5-1.24-.33-.31-.76-.47-1.29-.47Z"/>
      <path class="cls-53" d="M215.8,113l-8.49-10.21,8.12-7.13c.36-.33.56-.69.58-1.08.03-.39-.13-.77-.46-1.12-.33-.35-.7-.54-1.11-.57-.4-.03-.79.12-1.15.45l-11.26,9.93v-17.95c0-.49-.16-.89-.48-1.2-.32-.31-.74-.47-1.27-.47s-.91.16-1.23.47-.48.71-.48,1.2v28.46c0,.49.16.89.48,1.2.32.31.73.47,1.23.47.53,0,.95-.16,1.27-.47.32-.31.48-.71.48-1.2v-6.35l2.79-2.45,8.38,10.07c.31.38.68.59,1.11.63.43.04.84-.1,1.23-.43.42-.33.64-.69.67-1.1.03-.4-.11-.78-.41-1.14Z"/>
    </g>
    <path class="cls-25" d="M71.05,130.37s-8.58-11.07-5.19-22.54c2.41-8.16,8.96-12.72,10.51-13.48,1.23-.61,2.49-.94,2.49-.94,1.36-.36,2.53-.43,3.32-.43-1.03.66-2.96,1.99-4.85,4.1-11.17,12.45-6.27,33.3-6.27,33.3Z"/>
    <circle class="cls-60" cx="339.49" cy="139.29" r="7.39"/>
    <circle class="cls-56" cx="339.49" cy="139.29" r="6.27"/>
    <circle class="cls-22" cx="340.35" cy="138.23" r="4.88"/>
    <g>
      <path class="cls-62" d="M393.02,131v5.06c0,.31.23.54.54.54h.68v6.21c0,.68-.54,1.22-1.22,1.22h-5.79v2.14c0,.69-.54,1.25-1.22,1.25h-2.84v1.6c0,.66-.54,1.22-1.22,1.22h-10.15c-.69,0-1.22-.56-1.22-1.22v-1.6h-2.84c-.69,0-1.22-.56-1.22-1.25v-2.14h-5.79c-.68,0-1.22-.54-1.22-1.22v-6.21h.69c.31,0,.54-.23.54-.54v-5.06c0-.31-.23-.56-.54-.56h-.69v-6.35c0-.68.54-1.22,1.22-1.22h32.32c.69,0,1.22.54,1.22,1.22v6.35h-.68c-.31,0-.54.25-.54.56Z"/>
      <path class="cls-36" d="M360.81,124.48c0-.63.5-1.13,1.13-1.13h28.48c.12,0,1.59.1,1.59.21.51,0,.92.68.92,1.19v5.69l-.51.09c-.23,0-.4.31-.4.54v4.55c0,.23.17.53.4.53l.51.1v5.31s0,.25,0,.27c-.02.61-.51,1.09-1.13,1.09h-5.35v1.98c0,.63-.5,1.15-1.13,1.15h-2.63v1.48c0,.62-.5,1.13-1.13,1.13h-9.38c-.63,0-1.13-.52-1.13-1.13v-1.48h-2.63c-.63,0-1.13-.52-1.13-1.15v-1.98h-5.35c-.63,0-1.13-.5-1.13-1.13v-5.63l.51-.1c.23,0,.4-.3.4-.53v-4.6c0-.23-.17-.55-.4-.55l-.51-.1v-5.78Z"/>
      <path class="cls-31" d="M362.13,124.86c0-.58.46-1.04,1.04-1.04h26.47c.24,0,1.34.19,1.34.43.34,0,.61.82.61,1.16v5.03l-.34.18c-.16,0-.27.37-.27.52v4.03c0,.16.11.51.27.51l.34.19v4.7s0,.21,0,.24c-.04.53-.48.95-1.03.95h-4.91v1.81c0,.58-.46,1.05-1.04,1.05h-2.41v1.35c0,.57-.46,1.04-1.04,1.04h-8.6c-.58,0-1.04-.47-1.04-1.04v-1.35h-2.41c-.58,0-1.04-.47-1.04-1.05v-1.81h-4.91c-.58,0-1.04-.46-1.04-1.04v-5.05l.34-.21c.16,0,.27-.37.27-.52v-4.14c0-.16-.11-.54-.27-.54l-.34-.2v-5.21Z"/>
      <path class="cls-24" d="M363.46,125.24c0-.52.42-.94.94-.94h24.46c.35,0,1.1.29,1.1.64.17,0,.31.96.31,1.13v4.37l-.17.27c-.08,0-.13.42-.13.5v3.51c0,.08.06.5.13.5l.17.29v4.09s0,.17-.01.21c-.06.46-.45.81-.93.81h-4.47v1.65c0,.52-.42.95-.94.95h-2.19v1.23c0,.52-.42.94-.94.94h-7.83c-.52,0-.94-.43-.94-.94v-1.23h-2.19c-.52,0-.94-.43-.94-.95v-1.65h-4.47c-.52,0-.94-.42-.94-.94v-4.47l.17-.31c.08,0,.13-.44.13-.51v-3.67c0-.08-.06-.54-.13-.54l-.17-.31v-4.64Z"/>
      <path class="cls-22" d="M388.09,124.78h-22.45c-.47,0-.85.38-.85.85v13.01c0,.47.38.85.85.85h4.02v1.49c0,.47.38.85.85.85h1.97v1.11c0,.47.38.85.85.85h7.05c.47,0,.85-.38.85-.85v-1.11h1.97c.47,0,.85-.38.85-.85v-1.49h4.02c.47,0,.85-.38.85-.85v-13.01c0-.47-.38-.85-.85-.85Z"/>
    </g>
    <path class="cls-64" d="M399.79,113.71h-45.85c-.66,0-1.22.56-1.22,1.22v37.03c0,.68.56,1.22,1.22,1.22h45.85c.66,0,1.22-.54,1.22-1.22v-37.03c0-.66-.56-1.22-1.22-1.22ZM399.23,149.56c0,.77-.62,1.39-1.39,1.39h-42.11c-.66,0-1.22-.56-1.22-1.22v-32.53c0-.69.56-1.22,1.22-1.22h42.28c.66,0,1.22.54,1.22,1.22v32.36Z"/>
    <path class="cls-22" d="M398,115.98h-42.28c-.66,0-1.22.54-1.22,1.22v32.53c0,.66.56,1.22,1.22,1.22h42.11c.77,0,1.39-.62,1.39-1.39v-32.36c0-.69-.56-1.22-1.22-1.22ZM398.36,148.87h-.39c-.58,0-1.04.46-1.04,1.04v.35h-40.12v-.35c0-.58-.46-1.04-1.04-1.04h-.39v-30.53c0-.1.02-.21.04-.29h.35c.54,0,.98-.42,1.04-.93h40.14c.04.52.48.93,1.02.93h.35c.02.08.04.19.04.29v30.53Z"/>
    <path class="cls-6" d="M398.31,118.05h-.35c-.54,0-.98-.42-1.02-.93h-40.14c-.06.52-.5.93-1.04.93h-.35c-.02.08-.04.19-.04.29v30.53h.39c.58,0,1.04.46,1.04,1.04v.35h40.12v-.35c0-.58.46-1.04,1.04-1.04h.39v-30.53c0-.1-.02-.21-.04-.29ZM394.25,130.44h-.68c-.31,0-.54.25-.54.56v5.06c0,.31.23.54.54.54h.68v6.21c0,.68-.54,1.22-1.22,1.22h-5.79v2.14c0,.69-.54,1.25-1.22,1.25h-2.84v1.6c0,.66-.54,1.22-1.22,1.22h-10.15c-.69,0-1.22-.56-1.22-1.22v-1.6h-2.84c-.69,0-1.22-.56-1.22-1.25v-2.14h-5.79c-.68,0-1.22-.54-1.22-1.22v-6.21h.69c.31,0,.54-.23.54-.54v-5.06c0-.31-.23-.56-.54-.56h-.69v-6.35c0-.68.54-1.22,1.22-1.22h32.32c.69,0,1.22.54,1.22,1.22v6.35Z"/>
    <circle class="cls-55" cx="458.49" cy="129.33" r="4.73"/>
    <circle class="cls-55" cx="458.49" cy="142.51" r="4.99"/>
    <circle class="cls-95" cx="458.49" cy="129.33" r="3.97"/>
    <circle class="cls-12" cx="458.49" cy="142.51" r="3.97"/>
    <ellipse class="cls-55" cx="457.78" cy="128.22" rx=".76" ry=".5"/>
    <ellipse class="cls-55" cx="460.26" cy="128.95" rx=".4" ry=".89"/>
    <ellipse class="cls-55" cx="458.21" cy="141.31" rx=".76" ry=".5"/>
    <ellipse class="cls-55" cx="460.69" cy="142.03" rx=".4" ry=".89"/>
    <text class="cls-99" transform="translate(302.85 141.37)"><tspan x="0" y="0">ON</tspan><tspan class="cls-96" x="10.74" y="0">/</tspan><tspan x="12.9" y="0">OFF</tspan></text>
    <text class="cls-99" transform="translate(360.4 109.93)"><tspan class="cls-104" x="0" y="0">C</tspan><tspan class="cls-101" x="4.6" y="0">ONSOLE</tspan></text>
    <text class="cls-98" transform="translate(416.44 99.33)"><tspan x="0" y="0">USB</tspan></text>
    <text class="cls-99" transform="translate(487.29 107.43)"><tspan class="cls-100" x="0" y="0">W</tspan><tspan x="7.08" y="0">AN</tspan></text>
    <text class="cls-99" transform="translate(546.36 107.43)"><tspan x="0" y="0">LAN1</tspan></text>
    <text class="cls-99" transform="translate(604.14 107.43)"><tspan x="0" y="0">LAN2</tspan></text>
    <text class="cls-99" transform="translate(661.75 107.43)"><tspan x="0" y="0">LAN3 </tspan></text>
    <text class="cls-99" transform="translate(720.08 107.43)"><tspan x="0" y="0">LAN4</tspan></text>
    <text class="cls-99" transform="translate(777.79 107.43)"><tspan x="0" y="0">LAN5</tspan></text>
    <text class="cls-99" transform="translate(833.66 125.15)"><tspan x="0" y="0">SFP1</tspan></text>
    <text class="cls-99" transform="translate(880.69 125.15)"><tspan x="0" y="0">SF</tspan><tspan class="cls-97" x="8.17" y="0">P</tspan><tspan x="12.83" y="0">2</tspan></text>
    <path class="cls-64" d="M412.73,150.98h-5.72v-5.72h3.32l-.05.17c-.06.21-.1.43-.1.63,0,1.14.89,2.03,2.03,2.03.13,0,.25-.02.37-.04l.15-.03v2.97ZM407.27,150.71h5.19v-2.39c-.08.01-.17.02-.26.02-1.29,0-2.29-1.01-2.29-2.29,0-.17.02-.35.06-.53h-2.7v5.19Z"/>
    <path class="cls-64" d="M410.33,112.35h-3.32v-5.7h5.72v2.95l-.15-.03c-.12-.02-.24-.04-.37-.04-1.12,0-2.03.91-2.03,2.02,0,.2.03.41.1.63l.05.17ZM407.27,112.09h2.7c-.04-.18-.06-.36-.06-.53,0-1.26,1.03-2.29,2.29-2.29.09,0,.18,0,.26.02v-2.37h-5.19v5.17Z"/>
    <path class="cls-64" d="M448.7,112.35h-3.3l.05-.17c.07-.22.1-.43.1-.63,0-1.12-.91-2.02-2.03-2.02-.14,0-.28.02-.39.04l-.15.03v-2.95h5.72v5.7ZM445.75,112.09h2.68v-5.17h-5.19v2.37c.09-.01.18-.02.28-.02,1.26,0,2.29,1.03,2.29,2.29,0,.17-.02.35-.06.53Z"/>
    <path class="cls-64" d="M448.7,150.98h-5.72v-2.97l.15.03c.12.02.26.04.39.04,1.12,0,2.03-.91,2.03-2.03,0-.2-.03-.41-.1-.63l-.05-.17h3.3v5.72ZM443.24,150.71h5.19v-5.19h-2.68c.04.18.06.36.06.53,0,1.26-1.03,2.29-2.29,2.29-.1,0-.19,0-.28-.02v2.39Z"/>
    <path class="cls-64" d="M412.73,150.98h-5.72v-5.72h3.32l-.05.17c-.06.21-.1.43-.1.63,0,1.14.89,2.03,2.03,2.03.13,0,.25-.02.37-.04l.15-.03v2.97ZM407.27,150.71h5.19v-2.39c-.08.01-.17.02-.26.02-1.29,0-2.29-1.01-2.29-2.29,0-.17.02-.35.06-.53h-2.7v5.19Z"/>
    <path class="cls-64" d="M410.33,112.35h-3.32v-5.7h5.72v2.95l-.15-.03c-.12-.02-.24-.04-.37-.04-1.12,0-2.03.91-2.03,2.02,0,.2.03.41.1.63l.05.17ZM407.27,112.09h2.7c-.04-.18-.06-.36-.06-.53,0-1.26,1.03-2.29,2.29-2.29.09,0,.18,0,.26.02v-2.37h-5.19v5.17Z"/>
    <path class="cls-3" d="M443.5,132.56h-30.89c-.95,0-1.74.79-1.74,1.74v11.13c0,.95.77,1.72,1.72,1.72h30.93c.95,0,1.72-.77,1.72-1.72v-11.13c0-.95-.79-1.74-1.74-1.74Z"/>
    <path class="cls-64" d="M448.7,112.35h-3.3l.05-.17c.07-.22.1-.43.1-.63,0-1.12-.91-2.02-2.03-2.02-.14,0-.28.02-.39.04l-.15.03v-2.95h5.72v5.7ZM445.75,112.09h2.68v-5.17h-5.19v2.37c.09-.01.18-.02.28-.02,1.26,0,2.29,1.03,2.29,2.29,0,.17-.02.35-.06.53Z"/>
    <path class="cls-64" d="M448.7,150.98h-5.72v-2.97l.15.03c.12.02.26.04.39.04,1.12,0,2.03-.91,2.03-2.03,0-.2-.03-.41-.1-.63l-.05-.17h3.3v5.72ZM443.24,150.71h5.19v-5.19h-2.68c.04.18.06.36.06.53,0,1.26-1.03,2.29-2.29,2.29-.1,0-.19,0-.28-.02v2.39Z"/>
    <path class="cls-11" d="M441.78,135.59v1.72c0,.42-.33.75-.75.75h-27.54c-.39,0-.73-.33-.73-.75v-1.72c0-.39.33-.73.73-.73h27.54c.42,0,.75.33.75.73Z"/>
    <path class="cls-3" d="M443.5,124.15h-30.89c-.95,0-1.74-.79-1.74-1.74v-11.13c0-.95.77-1.72,1.72-1.72h30.93c.95,0,1.72.77,1.72,1.72v11.13c0,.95-.79,1.74-1.74,1.74Z"/>
    <path class="cls-11" d="M441.78,121.12v-1.72c0-.42-.33-.75-.75-.75h-27.54c-.39,0-.73.33-.73.75v1.72c0,.39.33.73.73.73h27.54c.42,0,.75-.33.75-.73Z"/>
    <path class="cls-26" d="M412.6,106.78v2.66c-.12-.02-.25-.04-.39-.04-1.2,0-2.16.98-2.16,2.16,0,.23.04.46.1.66h-3.01v-5.44h5.46Z"/>
    <path class="cls-26" d="M448.57,106.78v5.44h-2.99c.06-.21.1-.44.1-.66,0-1.18-.98-2.16-2.16-2.16-.15,0-.29.02-.42.04v-2.66h5.46Z"/>
    <path class="cls-26" d="M412.6,148.17v2.68h-5.46v-5.46h3.01c-.06.21-.1.44-.1.66,0,1.2.95,2.16,2.16,2.16.14,0,.27-.02.39-.04Z"/>
    <path class="cls-64" d="M404.94,104.43v48.76h45.85v-48.76h-45.85ZM448.57,150.85h-41.43v-44.07h41.43v44.07Z"/>
    <path class="cls-16" d="M448.57,112.22h-2.99c.06-.21.1-.44.1-.66,0-1.18-.98-2.16-2.16-2.16-.15,0-.29.02-.42.04v-2.66h-30.51v2.66c-.12-.02-.25-.04-.39-.04-1.2,0-2.16.98-2.16,2.16,0,.23.04.46.1.66h-3.01v33.17h3.01c-.06.21-.1.44-.1.66,0,1.2.95,2.16,2.16,2.16.14,0,.27-.02.39-.04v2.68h30.51v-2.68c.12.02.27.04.42.04,1.18,0,2.16-.95,2.16-2.16,0-.23-.04-.46-.1-.66h2.99v-33.17ZM445.04,145.43c0,.95-.77,1.72-1.72,1.72h-30.93c-.95,0-1.72-.77-1.72-1.72v-11.13c0-.95.79-1.74,1.74-1.74h30.89c.95,0,1.74.79,1.74,1.74v11.13ZM445.04,122.35c0,.79-.62,1.41-1.41,1.41h-31.55c-.79,0-1.41-.62-1.41-1.41v-10.17c0-.95.77-1.72,1.72-1.72h30.93c.95,0,1.72.77,1.72,1.72v10.17Z"/>
    <path class="cls-26" d="M448.57,145.39v5.46h-5.46v-2.68c.12.02.27.04.42.04,1.18,0,2.16-.95,2.16-2.16,0-.23-.04-.46-.1-.66h2.99Z"/>
    <g class="cls-103">
      <path class="cls-8" d="M1166.03,158.68v6c0,1.86-1.51,3.37-3.37,3.37H2.91c-1.52,0-2.76-1.24-2.76-2.76v-6.6c0,4.03,3.26,7.29,7.29,7.29h1151.32c4.03,0,7.29-3.26,7.29-7.29Z"/>
    </g>
    <g>
      <g>
        <g>
          <g>
            <path class="cls-34" d="M502.53,120.68h-13.91v-3.27h13.91v3.27ZM488.87,120.43h13.4v-2.77h-13.4v2.77Z"/>
            <path class="cls-34" d="M502.53,120.68h-13.91v-3.27h13.91v3.27ZM488.87,120.43h13.4v-2.77h-13.4v2.77Z"/>
            <path class="cls-34" d="M502.53,120.68h-13.91v-3.27h13.91v3.27ZM488.87,120.43h13.4v-2.77h-13.4v2.77Z"/>
            <path class="cls-34" d="M502.53,120.68h-13.91v-3.27h13.91v3.27ZM488.87,120.43h13.4v-2.77h-13.4v2.77Z"/>
            <path class="cls-34" d="M476.4,126.73c-.1-.13-.16-.3-.16-.49v-5.05c0-.11.02-.2.06-.28l.23.1s-.03.11-.03.18v5.05c0,.12.03.23.1.34l-.21.15Z"/>
            <path class="cls-34" d="M478.92,140.64h-.76v-6.72h.76v6.72ZM478.42,140.39h.25v-6.22h-.25v6.22Z"/>
            <path class="cls-34" d="M512.47,147.62h-.25v-.13s-.01-20.65-.01-20.65h.25v.13s.01,6.95.01,6.95h.51v6.72h-.51v6.98ZM512.46,140.39h.26v-6.22h-.26v6.22Z"/>
            <path class="cls-34" d="M502.53,120.68h-13.91v-3.27h13.91v3.27ZM488.87,120.43h13.4v-2.77h-13.4v2.77Z"/>
            <polygon class="cls-34" points="483.84 141.86 483.59 141.86 483.58 141.73 483.58 126.84 483.83 126.84 483.84 126.97 483.84 141.86"/>
            <g>
              <path class="cls-7" d="M512.47,147.62h-33.79v-20.77h5.17s.09,0,.12,0l.13-.03c.26-.08.43-.3.43-.56v-5.05c0-.22-.13-.41-.35-.52l-.48-.24h23.77l-.46.24c-.2.11-.33.3-.33.52v5.05c0,.33.27.6.61.6h5.18v20.77Z"/>
              <path class="cls-27" d="M484.43,120.33h24.56l-.43.23c-.15.08-.37.29-.37.46l-.25,1.17s-.03.22-.03.25v3.21c0,.25.2.65.46.65l1.5.4s.36.05.38.05h2.6l.2.71v18.82h-32.1v-19.38l.59-.14h1.04s.28-.03.28-.05l2.2-.54s.06-.01.09-.02l.1-.04c.19-.06.32-.37.32-.56v-2.83s-.02-.27-.03-.28l-.27-1.43c0-.16-.22-.37-.38-.45l-.45-.22Z"/>
              <path class="cls-14" d="M485.16,120.24h25.35l-.41.21c-.1.05-.41.28-.41.39l-.49.95s-.06.17-.06.23v3.03c0,.16.14.7.3.7l1,.79c0,.06.28.11.33.11h2.46l.39.47v17.81h-30.41v-17.99l.39-.29h.96s.24-.06.24-.11l1.47-1.07s.04-.02.06-.03l.06-.05c.13-.04.22-.43.22-.56v-2.64c0-.05-.05-.24-.07-.25l-.55-1.13c0-.11-.3-.33-.41-.38l-.41-.21Z"/>
              <path class="cls-32" d="M485.89,120.14h26.14l-.39.2c-.05.03-.45.27-.45.32l-.74.73s-.09.13-.09.21v2.85c0,.08.07.75.15.75l.5,1.19c0,.1.2.16.28.16h2.31l.59.24v16.79h-28.72v-16.6l.2-.43.87-.02s.19-.06.19-.14l.73-1.61s.02-.03.03-.04l.03-.05c.06-.02.11-.49.11-.56v-2.44c0-.08-.07-.2-.1-.21l-.82-.84c0-.05-.39-.28-.44-.31l-.38-.19Z"/>
              <path class="cls-28" d="M514.77,142.24h-27.03v-15.78l.79-.03s.14-.08.14-.19v-5.05c0-.1-.1-.16-.14-.18l-1.92-.96h26.93l-1.83.96s-.12.08-.12.19v5.05c0,.13.12.22.23.22h2.95v15.78Z"/>
            </g>
            <path class="cls-22" d="M516.13,115.81h-41.14c-1.04,0-1.9.87-1.9,1.92v33.54c0,1.07.86,1.92,1.9,1.92h41.14c1.05,0,1.91-.86,1.91-1.92v-33.54c0-1.05-.86-1.92-1.91-1.92ZM517.41,150.56c0,.68-.36,1.27-.9,1.61h-.02c-.12.02-.24.04-.35.04h-41.14c-.12,0-.24-.02-.34-.04-.56-.32-.92-.91-.92-1.61v-31.12c0-1.04.85-1.9,1.9-1.9h39.88c1.07,0,1.9.86,1.9,1.9v31.12Z"/>
            <rect class="cls-3" x="488.75" y="117.53" width="13.65" height="3.02"/>
            <g>
              <path class="cls-22" d="M484.19,120.55c-.1-.07-.22-.1-.34-.1h-6.76c-.2,0-.37.08-.51.22-.03.03-.07.07-.09.11-.04.05-.08.12-.09.19-.03.07-.04.14-.04.22v5.05c0,.15.04.3.13.41.02.04.05.08.09.11.13.13.31.21.51.21h6.76s.1,0,.14-.01l.13-.03c.26-.12.44-.37.44-.68v-5.05c0-.29-.15-.52-.37-.64ZM483.9,125.73c0,.2-.08.36-.2.49-.12.14-.32.22-.52.22h-5.44c-.4,0-.73-.32-.73-.71v-4.02c0-.4.33-.71.73-.71h5.44c.22,0,.4.1.52.24.14.11.2.3.2.47v4.02Z"/>
              <path class="cls-22" d="M514.05,120.46h-6.76c-.12,0-.24.03-.34.1-.23.12-.4.35-.4.64v5.05c0,.41.34.73.74.73h6.76c.41,0,.73-.32.73-.73v-5.05c0-.4-.32-.74-.73-.74ZM514.11,125.73c0,.4-.32.71-.72.71h-5.45c-.19,0-.38-.08-.51-.2-.14-.13-.22-.32-.22-.52v-4.02c0-.2.08-.37.22-.49.12-.14.32-.22.51-.22h5.45c.41,0,.72.32.72.71v4.02Z"/>
              <path class="cls-29" d="M514.11,121.71v4.02c0,.4-.32.71-.72.71h-5.45c-.19,0-.38-.08-.51-.2-.14-.13-.22-.32-.22-.52v-4.02c0-.2.08-.37.22-.49.12-.14.32-.22.51-.22h5.45c.41,0,.72.32.72.71Z"/>
            </g>
            <path class="cls-5" d="M517.41,119.43v31.12c0,.68-.36,1.27-.9,1.61h-.02c-.12.02-.24.04-.35.04h-41.14c-.12,0-.24-.02-.34-.04-.56-.32-.92-.91-.92-1.61v-31.12c0-1.04.85-1.9,1.9-1.9h13.12v3.02h-4.56c-.1-.07-.22-.1-.34-.1h-6.76c-.2,0-.37.08-.51.22-.03.03-.07.07-.09.11-.04.05-.08.12-.09.19-.03.07-.04.14-.04.22v5.05c0,.15.04.3.13.41.02.04.05.08.09.11.13.13.31.21.51.21h1.7v7.07h-.51v6.47h.51v6.98h33.55v-6.98h.51v-6.47h-.51v-7.07h1.7c.41,0,.73-.32.73-.73v-5.05c0-.4-.32-.74-.73-.74h-6.76c-.12,0-.24.03-.34.1h-4.55v-3.02h13.11c1.07,0,1.9.86,1.9,1.9Z"/>
            <g>
              <rect class="cls-9" x="511.99" y="133.97" width="1.19" height="6.56" rx=".02" ry=".02"/>
              <rect class="cls-43" x="477.96" y="133.97" width="1.19" height="6.56" rx=".02" ry=".02"/>
            </g>
            <g>
              <polygon class="cls-30" points="484.43 146.52 484.43 147.49 478.79 147.49 478.79 141.49 479.85 141.49 479.85 146.52 484.43 146.52"/>
              <polygon class="cls-30" points="512.34 141.49 512.34 147.49 506.72 147.49 506.72 146.52 511.29 146.52 511.29 141.49 512.34 141.49"/>
            </g>
            <g>
              <polygon class="cls-30" points="484.43 146.52 484.43 147.49 478.79 147.49 478.79 141.49 479.85 141.49 479.85 146.52 484.43 146.52"/>
              <polygon class="cls-30" points="512.34 141.49 512.34 147.49 506.72 147.49 506.72 146.52 511.29 146.52 511.29 141.49 512.34 141.49"/>
            </g>
            <g>
              <polygon class="cls-22" points="485.26 142.59 485.26 138.63 484.37 138.63 484.37 142.59 484.37 143.13 484.37 143.43 488.87 143.43 488.87 142.59 485.26 142.59"/>
              <polygon class="cls-22" points="510.04 142.59 510.04 138.63 510.93 138.63 510.93 142.59 510.93 143.13 510.93 143.43 506.43 143.43 506.43 142.59 510.04 142.59"/>
            </g>
            <g>
              <polygon class="cls-30" points="484.38 146.55 484.38 147.52 478.74 147.52 478.74 141.52 479.8 141.52 479.8 146.55 484.38 146.55"/>
              <polygon class="cls-30" points="512.29 141.52 512.29 147.52 506.67 147.52 506.67 146.55 511.24 146.55 511.24 141.52 512.29 141.52"/>
            </g>
            <path class="cls-25" d="M483.91,121.71v4.02c0,.2-.08.36-.2.5-.12.14-.32.22-.52.22h-5.44c-.4,0-.72-.32-.72-.72v-4.02c0-.4.32-.72.72-.72h5.44c.22,0,.4.1.52.24.14.12.2.3.2.48Z"/>
          </g>
          <g>
            <polygon class="cls-10" points="494.33 139.67 490.65 142.38 489.29 147.43 489.69 147.43 491.05 142.38 494.57 139.67 494.33 139.67"/>
            <polygon class="cls-52" points="497.14 139.67 493.86 142.38 492.74 147.43 493.14 147.43 494.26 142.38 497.37 139.67 497.14 139.67"/>
            <polygon class="cls-45" points="499.94 139.67 497.08 142.38 496.19 147.43 496.59 147.43 497.48 142.38 500.17 139.67 499.94 139.67"/>
            <polygon class="cls-47" points="502.74 139.67 500.29 142.38 499.64 147.43 500.04 147.43 500.69 142.38 502.98 139.67 502.74 139.67"/>
            <polygon class="cls-50" points="505.54 139.67 503.51 142.38 503.09 147.43 503.49 147.43 503.91 142.38 505.78 139.67 505.54 139.67"/>
            <polygon class="cls-46" points="508.35 139.67 506.72 142.38 506.54 147.43 506.94 147.43 507.12 142.38 508.58 139.67 508.35 139.67"/>
          </g>
        </g>
        <polygon class="cls-59" points="484.37 138.63 478.74 141.52 479.8 141.52 485.26 138.63 484.37 138.63"/>
        <polygon class="cls-58" points="488.87 142.59 484.38 146.55 484.38 147.52 488.87 143.43 488.87 142.59"/>
        <polygon class="cls-59" points="479.8 146.55 484.38 146.55 488.87 142.59 485.26 142.59 479.8 146.55"/>
        <polygon class="cls-13" points="485.26 138.63 485.26 142.59 479.8 146.55 479.8 141.52 485.26 138.63"/>
        <polygon class="cls-59" points="509.18 138.63 512.34 141.49 511.29 141.49 508.64 138.63 509.18 138.63"/>
        <polygon class="cls-30" points="506.43 142.59 507 146.55 507 147.52 506.43 143.43 506.43 142.59"/>
        <polygon class="cls-58" points="511.29 146.55 507 146.55 506.43 142.59 508.64 142.59 511.29 146.55"/>
        <polygon class="cls-13" points="508.64 138.63 508.64 142.59 511.29 146.55 511.29 141.52 508.64 138.63"/>
      </g>
      <g>
        <path class="cls-34" d="M560.42,120.68h-13.91v-3.27h13.91v3.27ZM546.76,120.43h13.4v-2.77h-13.4v2.77Z"/>
        <path class="cls-34" d="M560.42,120.68h-13.91v-3.27h13.91v3.27ZM546.76,120.43h13.4v-2.77h-13.4v2.77Z"/>
        <path class="cls-34" d="M560.42,120.68h-13.91v-3.27h13.91v3.27ZM546.76,120.43h13.4v-2.77h-13.4v2.77Z"/>
        <path class="cls-34" d="M560.42,120.68h-13.91v-3.27h13.91v3.27ZM546.76,120.43h13.4v-2.77h-13.4v2.77Z"/>
        <path class="cls-34" d="M534.29,126.73c-.1-.13-.16-.3-.16-.49v-5.05c0-.11.02-.2.06-.28l.23.1s-.03.11-.03.18v5.05c0,.12.03.23.1.34l-.21.15Z"/>
        <path class="cls-34" d="M536.81,140.64h-.76v-6.72h.76v6.72ZM536.31,140.39h.25v-6.22h-.25v6.22Z"/>
        <path class="cls-34" d="M570.36,147.62h-.25v-.13s-.01-20.65-.01-20.65h.25v.13s.01,6.95.01,6.95h.51v6.72h-.51v6.98ZM570.35,140.39h.26v-6.22h-.26v6.22Z"/>
        <path class="cls-34" d="M560.42,120.68h-13.91v-3.27h13.91v3.27ZM546.76,120.43h13.4v-2.77h-13.4v2.77Z"/>
        <polygon class="cls-34" points="541.73 141.86 541.48 141.86 541.47 141.73 541.47 126.84 541.72 126.84 541.73 126.97 541.73 141.86"/>
        <g>
          <path class="cls-7" d="M570.36,147.62h-33.79v-20.77h5.17s.09,0,.12,0l.13-.03c.26-.08.43-.3.43-.56v-5.05c0-.22-.13-.41-.35-.52l-.48-.24h23.77l-.46.24c-.2.11-.33.3-.33.52v5.05c0,.33.27.6.61.6h5.18v20.77Z"/>
          <path class="cls-27" d="M542.32,120.33h24.56l-.43.23c-.15.08-.37.29-.37.46l-.25,1.17s-.03.22-.03.25v3.21c0,.25.2.65.46.65l1.5.4s.36.05.38.05h2.6l.2.71v18.82h-32.1v-19.38l.59-.14h1.04s.28-.03.28-.05l2.2-.54s.06-.01.09-.02l.1-.04c.19-.06.32-.37.32-.56v-2.83s-.02-.27-.03-.28l-.27-1.43c0-.16-.22-.37-.38-.45l-.45-.22Z"/>
          <path class="cls-14" d="M543.05,120.24h25.35l-.41.21c-.1.05-.41.28-.41.39l-.49.95s-.06.17-.06.23v3.03c0,.16.14.7.3.7l1,.79c0,.06.28.11.33.11h2.46l.39.47v17.81h-30.41v-17.99l.39-.29h.96s.24-.06.24-.11l1.47-1.07s.04-.02.06-.03l.06-.05c.13-.04.22-.43.22-.56v-2.64c0-.05-.05-.24-.07-.25l-.55-1.13c0-.11-.3-.33-.41-.38l-.41-.21Z"/>
          <path class="cls-32" d="M543.78,120.14h26.14l-.39.2c-.05.03-.45.27-.45.32l-.74.73s-.09.13-.09.21v2.85c0,.08.07.75.15.75l.5,1.19c0,.1.2.16.28.16h2.31l.59.24v16.79h-28.72v-16.6l.2-.43.87-.02s.19-.06.19-.14l.73-1.61s.02-.03.03-.04l.03-.05c.06-.02.11-.49.11-.56v-2.44c0-.08-.07-.2-.1-.21l-.82-.84c0-.05-.39-.28-.44-.31l-.38-.19Z"/>
          <path class="cls-28" d="M572.66,142.24h-27.03v-15.78l.79-.03s.14-.08.14-.19v-5.05c0-.1-.1-.16-.14-.18l-1.92-.96h26.93l-1.83.96s-.12.08-.12.19v5.05c0,.13.12.22.23.22h2.95v15.78Z"/>
        </g>
        <path class="cls-22" d="M574.02,115.81h-41.14c-1.04,0-1.9.87-1.9,1.92v33.54c0,1.07.86,1.92,1.9,1.92h41.14c1.05,0,1.91-.86,1.91-1.92v-33.54c0-1.05-.86-1.92-1.91-1.92ZM575.3,150.56c0,.68-.36,1.27-.9,1.61h-.02c-.12.02-.24.04-.35.04h-41.14c-.12,0-.24-.02-.34-.04-.56-.32-.92-.91-.92-1.61v-31.12c0-1.04.85-1.9,1.9-1.9h39.88c1.07,0,1.9.86,1.9,1.9v31.12Z"/>
        <rect class="cls-3" x="546.64" y="117.53" width="13.65" height="3.02"/>
        <g>
          <path class="cls-22" d="M542.08,120.55c-.1-.07-.22-.1-.34-.1h-6.76c-.2,0-.37.08-.51.22-.03.03-.07.07-.09.11-.04.05-.08.12-.09.19-.03.07-.04.14-.04.22v5.05c0,.15.04.3.13.41.02.04.05.08.09.11.13.13.31.21.51.21h6.76s.1,0,.14-.01l.13-.03c.26-.12.44-.37.44-.68v-5.05c0-.29-.15-.52-.37-.64ZM541.79,125.73c0,.2-.08.36-.2.49-.12.14-.32.22-.52.22h-5.44c-.4,0-.73-.32-.73-.71v-4.02c0-.4.33-.71.73-.71h5.44c.22,0,.4.1.52.24.14.11.2.3.2.47v4.02Z"/>
          <path class="cls-22" d="M571.94,120.46h-6.76c-.12,0-.24.03-.34.1-.23.12-.4.35-.4.64v5.05c0,.41.34.73.74.73h6.76c.41,0,.73-.32.73-.73v-5.05c0-.4-.32-.74-.73-.74ZM572,125.73c0,.4-.32.71-.72.71h-5.45c-.19,0-.38-.08-.51-.2-.14-.13-.22-.32-.22-.52v-4.02c0-.2.08-.37.22-.49.12-.14.32-.22.51-.22h5.45c.41,0,.72.32.72.71v4.02Z"/>
          <path class="cls-29" d="M572,121.71v4.02c0,.4-.32.71-.72.71h-5.45c-.19,0-.38-.08-.51-.2-.14-.13-.22-.32-.22-.52v-4.02c0-.2.08-.37.22-.49.12-.14.32-.22.51-.22h5.45c.41,0,.72.32.72.71Z"/>
        </g>
        <path class="cls-17" d="M575.3,119.43v31.12c0,.68-.36,1.27-.9,1.61h-.02c-.12.02-.24.04-.35.04h-41.14c-.12,0-.24-.02-.34-.04-.56-.32-.92-.91-.92-1.61v-31.12c0-1.04.85-1.9,1.9-1.9h13.12v3.02h-4.56c-.1-.07-.22-.1-.34-.1h-6.76c-.2,0-.37.08-.51.22-.03.03-.07.07-.09.11-.04.05-.08.12-.09.19-.03.07-.04.14-.04.22v5.05c0,.15.04.3.13.41.02.04.05.08.09.11.13.13.31.21.51.21h1.7v7.07h-.51v6.47h.51v6.98h33.55v-6.98h.51v-6.47h-.51v-7.07h1.7c.41,0,.73-.32.73-.73v-5.05c0-.4-.32-.74-.73-.74h-6.76c-.12,0-.24.03-.34.1h-4.55v-3.02h13.11c1.07,0,1.9.86,1.9,1.9Z"/>
        <g>
          <rect class="cls-40" x="569.88" y="133.97" width="1.19" height="6.56" rx=".02" ry=".02"/>
          <rect class="cls-37" x="535.85" y="133.97" width="1.19" height="6.56" rx=".02" ry=".02"/>
        </g>
        <g>
          <polygon class="cls-30" points="542.32 146.52 542.32 147.49 536.69 147.49 536.69 141.49 537.74 141.49 537.74 146.52 542.32 146.52"/>
          <polygon class="cls-30" points="570.23 141.49 570.23 147.49 564.61 147.49 564.61 146.52 569.18 146.52 569.18 141.49 570.23 141.49"/>
        </g>
        <g>
          <polygon class="cls-30" points="542.32 146.52 542.32 147.49 536.69 147.49 536.69 141.49 537.74 141.49 537.74 146.52 542.32 146.52"/>
          <polygon class="cls-30" points="570.23 141.49 570.23 147.49 564.61 147.49 564.61 146.52 569.18 146.52 569.18 141.49 570.23 141.49"/>
        </g>
        <g>
          <polygon class="cls-22" points="543.16 142.59 543.16 138.63 542.26 138.63 542.26 142.59 542.26 143.13 542.26 143.43 546.76 143.43 546.76 142.59 543.16 142.59"/>
          <polygon class="cls-22" points="567.93 142.59 567.93 138.63 568.82 138.63 568.82 142.59 568.82 143.13 568.82 143.43 564.32 143.43 564.32 142.59 567.93 142.59"/>
        </g>
        <g>
          <polygon class="cls-30" points="542.27 146.55 542.27 147.52 536.64 147.52 536.64 141.52 537.69 141.52 537.69 146.55 542.27 146.55"/>
          <polygon class="cls-30" points="570.18 141.52 570.18 147.52 564.56 147.52 564.56 146.55 569.13 146.55 569.13 141.52 570.18 141.52"/>
        </g>
        <path class="cls-25" d="M541.8,121.71v4.02c0,.2-.08.36-.2.5-.12.14-.32.22-.52.22h-5.44c-.4,0-.72-.32-.72-.72v-4.02c0-.4.32-.72.72-.72h5.44c.22,0,.4.1.52.24.14.12.2.3.2.48Z"/>
        <polygon class="cls-51" points="552.22 139.67 548.54 142.38 547.18 147.43 547.58 147.43 548.94 142.38 552.46 139.67 552.22 139.67"/>
        <polygon class="cls-49" points="555.03 139.67 551.75 142.38 550.63 147.43 551.03 147.43 552.15 142.38 555.26 139.67 555.03 139.67"/>
        <polygon class="cls-48" points="557.83 139.67 554.97 142.38 554.08 147.43 554.48 147.43 555.37 142.38 558.07 139.67 557.83 139.67"/>
        <polygon class="cls-66" points="560.63 139.67 558.18 142.38 557.53 147.43 557.93 147.43 558.58 142.38 560.87 139.67 560.63 139.67"/>
        <polygon class="cls-71" points="563.44 139.67 561.4 142.38 560.98 147.43 561.38 147.43 561.8 142.38 563.67 139.67 563.44 139.67"/>
        <polygon class="cls-69" points="566.24 139.67 564.61 142.38 564.43 147.43 564.83 147.43 565.01 142.38 566.47 139.67 566.24 139.67"/>
        <polygon class="cls-59" points="542.26 138.63 536.64 141.52 537.69 141.52 543.16 138.63 542.26 138.63"/>
        <polygon class="cls-58" points="546.76 142.59 542.27 146.55 542.27 147.52 546.76 143.43 546.76 142.59"/>
        <polygon class="cls-59" points="537.69 146.55 542.27 146.55 546.76 142.59 543.16 142.59 537.69 146.55"/>
        <polygon class="cls-13" points="543.16 138.63 543.16 142.59 537.69 146.55 537.69 141.52 543.16 138.63"/>
        <polygon class="cls-59" points="567.07 138.63 570.23 141.49 569.18 141.49 566.53 138.63 567.07 138.63"/>
        <polygon class="cls-30" points="564.32 142.59 564.89 146.55 564.89 147.52 564.32 143.43 564.32 142.59"/>
        <polygon class="cls-58" points="569.18 146.55 564.89 146.55 564.32 142.59 566.53 142.59 569.18 146.55"/>
        <polygon class="cls-13" points="566.53 138.63 566.53 142.59 569.18 146.55 569.18 141.52 566.53 138.63"/>
      </g>
      <g>
        <path class="cls-34" d="M620.71,120.68h-13.91v-3.27h13.91v3.27ZM607.06,120.43h13.4v-2.77h-13.4v2.77Z"/>
        <path class="cls-34" d="M620.71,120.68h-13.91v-3.27h13.91v3.27ZM607.06,120.43h13.4v-2.77h-13.4v2.77Z"/>
        <path class="cls-34" d="M620.71,120.68h-13.91v-3.27h13.91v3.27ZM607.06,120.43h13.4v-2.77h-13.4v2.77Z"/>
        <path class="cls-34" d="M620.71,120.68h-13.91v-3.27h13.91v3.27ZM607.06,120.43h13.4v-2.77h-13.4v2.77Z"/>
        <path class="cls-34" d="M594.58,126.73c-.1-.13-.16-.3-.16-.49v-5.05c0-.11.02-.2.06-.28l.23.1s-.03.11-.03.18v5.05c0,.12.03.23.1.34l-.21.15Z"/>
        <path class="cls-34" d="M597.11,140.64h-.76v-6.72h.76v6.72ZM596.6,140.39h.25v-6.22h-.25v6.22Z"/>
        <path class="cls-34" d="M630.65,147.62h-.25v-.13s-.01-20.65-.01-20.65h.25v.13s.01,6.95.01,6.95h.51v6.72h-.51v6.98ZM630.64,140.39h.26v-6.22h-.26v6.22Z"/>
        <path class="cls-34" d="M620.71,120.68h-13.91v-3.27h13.91v3.27ZM607.06,120.43h13.4v-2.77h-13.4v2.77Z"/>
        <polygon class="cls-34" points="602.03 141.86 601.77 141.86 601.76 141.73 601.76 126.84 602.02 126.84 602.03 126.97 602.03 141.86"/>
        <g>
          <path class="cls-7" d="M630.65,147.62h-33.79v-20.77h5.17s.09,0,.12,0l.13-.03c.26-.08.43-.3.43-.56v-5.05c0-.22-.13-.41-.35-.52l-.48-.24h23.77l-.46.24c-.2.11-.33.3-.33.52v5.05c0,.33.27.6.61.6h5.18v20.77Z"/>
          <path class="cls-27" d="M602.61,120.33h24.56l-.43.23c-.15.08-.37.29-.37.46l-.25,1.17s-.03.22-.03.25v3.21c0,.25.2.65.46.65l1.5.4s.36.05.38.05h2.6l.2.71v18.82h-32.1v-19.38l.59-.14h1.04s.28-.03.28-.05l2.2-.54s.06-.01.09-.02l.1-.04c.19-.06.32-.37.32-.56v-2.83s-.02-.27-.03-.28l-.27-1.43c0-.16-.22-.37-.38-.45l-.45-.22Z"/>
          <path class="cls-14" d="M603.34,120.24h25.35l-.41.21c-.1.05-.41.28-.41.39l-.49.95s-.06.17-.06.23v3.03c0,.16.14.7.3.7l1,.79c0,.06.28.11.33.11h2.46l.39.47v17.81h-30.41v-17.99l.39-.29h.96s.24-.06.24-.11l1.47-1.07s.04-.02.06-.03l.06-.05c.13-.04.22-.43.22-.56v-2.64c0-.05-.05-.24-.07-.25l-.55-1.13c0-.11-.3-.33-.41-.38l-.41-.21Z"/>
          <path class="cls-32" d="M604.08,120.14h26.14l-.39.2c-.05.03-.45.27-.45.32l-.74.73s-.09.13-.09.21v2.85c0,.08.07.75.15.75l.5,1.19c0,.1.2.16.28.16h2.31l.59.24v16.79h-28.72v-16.6l.2-.43.87-.02s.19-.06.19-.14l.73-1.61s.02-.03.03-.04l.03-.05c.06-.02.11-.49.11-.56v-2.44c0-.08-.07-.2-.1-.21l-.82-.84c0-.05-.39-.28-.44-.31l-.38-.19Z"/>
          <path class="cls-28" d="M632.96,142.24h-27.03v-15.78l.79-.03s.14-.08.14-.19v-5.05c0-.1-.1-.16-.14-.18l-1.92-.96h26.93l-1.83.96s-.12.08-.12.19v5.05c0,.13.12.22.23.22h2.95v15.78Z"/>
        </g>
        <path class="cls-22" d="M634.32,115.81h-41.14c-1.04,0-1.9.87-1.9,1.92v33.54c0,1.07.86,1.92,1.9,1.92h41.14c1.05,0,1.91-.86,1.91-1.92v-33.54c0-1.05-.86-1.92-1.91-1.92ZM635.59,150.56c0,.68-.36,1.27-.9,1.61h-.02c-.12.02-.24.04-.35.04h-41.14c-.12,0-.24-.02-.34-.04-.56-.32-.92-.91-.92-1.61v-31.12c0-1.04.85-1.9,1.9-1.9h39.88c1.07,0,1.9.86,1.9,1.9v31.12Z"/>
        <rect class="cls-3" x="606.93" y="117.53" width="13.65" height="3.02"/>
        <g>
          <path class="cls-22" d="M602.37,120.55c-.1-.07-.22-.1-.34-.1h-6.76c-.2,0-.37.08-.51.22-.03.03-.07.07-.09.11-.04.05-.08.12-.09.19-.03.07-.04.14-.04.22v5.05c0,.15.04.3.13.41.02.04.05.08.09.11.13.13.31.21.51.21h6.76s.1,0,.14-.01l.13-.03c.26-.12.44-.37.44-.68v-5.05c0-.29-.15-.52-.37-.64ZM602.09,125.73c0,.2-.08.36-.2.49-.12.14-.32.22-.52.22h-5.44c-.4,0-.73-.32-.73-.71v-4.02c0-.4.33-.71.73-.71h5.44c.22,0,.4.1.52.24.14.11.2.3.2.47v4.02Z"/>
          <path class="cls-22" d="M632.23,120.46h-6.76c-.12,0-.24.03-.34.1-.23.12-.4.35-.4.64v5.05c0,.41.34.73.74.73h6.76c.41,0,.73-.32.73-.73v-5.05c0-.4-.32-.74-.73-.74ZM632.3,125.73c0,.4-.32.71-.72.71h-5.45c-.19,0-.38-.08-.51-.2-.14-.13-.22-.32-.22-.52v-4.02c0-.2.08-.37.22-.49.12-.14.32-.22.51-.22h5.45c.41,0,.72.32.72.71v4.02Z"/>
          <path class="cls-29" d="M632.3,121.71v4.02c0,.4-.32.71-.72.71h-5.45c-.19,0-.38-.08-.51-.2-.14-.13-.22-.32-.22-.52v-4.02c0-.2.08-.37.22-.49.12-.14.32-.22.51-.22h5.45c.41,0,.72.32.72.71Z"/>
        </g>
        <path class="cls-18" d="M635.59,119.43v31.12c0,.68-.36,1.27-.9,1.61h-.02c-.12.02-.24.04-.35.04h-41.14c-.12,0-.24-.02-.34-.04-.56-.32-.92-.91-.92-1.61v-31.12c0-1.04.85-1.9,1.9-1.9h13.12v3.02h-4.56c-.1-.07-.22-.1-.34-.1h-6.76c-.2,0-.37.08-.51.22-.03.03-.07.07-.09.11-.04.05-.08.12-.09.19-.03.07-.04.14-.04.22v5.05c0,.15.04.3.13.41.02.04.05.08.09.11.13.13.31.21.51.21h1.7v7.07h-.51v6.47h.51v6.98h33.55v-6.98h.51v-6.47h-.51v-7.07h1.7c.41,0,.73-.32.73-.73v-5.05c0-.4-.32-.74-.73-.74h-6.76c-.12,0-.24.03-.34.1h-4.55v-3.02h13.11c1.07,0,1.9.86,1.9,1.9Z"/>
        <g>
          <rect class="cls-38" x="630.17" y="133.97" width="1.19" height="6.56" rx=".02" ry=".02"/>
          <rect class="cls-41" x="596.14" y="133.97" width="1.19" height="6.56" rx=".02" ry=".02"/>
        </g>
        <g>
          <polygon class="cls-30" points="602.61 146.52 602.61 147.49 596.98 147.49 596.98 141.49 598.03 141.49 598.03 146.52 602.61 146.52"/>
          <polygon class="cls-30" points="630.53 141.49 630.53 147.49 624.9 147.49 624.9 146.52 629.47 146.52 629.47 141.49 630.53 141.49"/>
        </g>
        <g>
          <polygon class="cls-30" points="602.61 146.52 602.61 147.49 596.98 147.49 596.98 141.49 598.03 141.49 598.03 146.52 602.61 146.52"/>
          <polygon class="cls-30" points="630.53 141.49 630.53 147.49 624.9 147.49 624.9 146.52 629.47 146.52 629.47 141.49 630.53 141.49"/>
        </g>
        <g>
          <polygon class="cls-22" points="603.45 142.59 603.45 138.63 602.56 138.63 602.56 142.59 602.56 143.13 602.56 143.43 607.05 143.43 607.05 142.59 603.45 142.59"/>
          <polygon class="cls-22" points="628.22 142.59 628.22 138.63 629.11 138.63 629.11 142.59 629.11 143.13 629.11 143.43 624.62 143.43 624.62 142.59 628.22 142.59"/>
        </g>
        <g>
          <polygon class="cls-30" points="602.56 146.55 602.56 147.52 596.93 147.52 596.93 141.52 597.98 141.52 597.98 146.55 602.56 146.55"/>
          <polygon class="cls-30" points="630.48 141.52 630.48 147.52 624.85 147.52 624.85 146.55 629.42 146.55 629.42 141.52 630.48 141.52"/>
        </g>
        <path class="cls-25" d="M602.09,121.71v4.02c0,.2-.08.36-.2.5-.12.14-.32.22-.52.22h-5.44c-.4,0-.72-.32-.72-.72v-4.02c0-.4.32-.72.72-.72h5.44c.22,0,.4.1.52.24.14.12.2.3.2.48Z"/>
        <polygon class="cls-70" points="612.52 139.67 608.83 142.38 607.47 147.43 607.87 147.43 609.23 142.38 612.75 139.67 612.52 139.67"/>
        <polygon class="cls-88" points="615.32 139.67 612.05 142.38 610.92 147.43 611.32 147.43 612.45 142.38 615.56 139.67 615.32 139.67"/>
        <polygon class="cls-68" points="618.12 139.67 615.26 142.38 614.38 147.43 614.77 147.43 615.66 142.38 618.36 139.67 618.12 139.67"/>
        <polygon class="cls-72" points="620.93 139.67 618.48 142.38 617.83 147.43 618.23 147.43 618.88 142.38 621.16 139.67 620.93 139.67"/>
        <polygon class="cls-67" points="623.73 139.67 621.69 142.38 621.28 147.43 621.68 147.43 622.09 142.38 623.96 139.67 623.73 139.67"/>
        <polygon class="cls-89" points="626.53 139.67 624.91 142.38 624.73 147.43 625.13 147.43 625.31 142.38 626.77 139.67 626.53 139.67"/>
        <polygon class="cls-59" points="602.56 138.63 596.93 141.52 597.98 141.52 603.45 138.63 602.56 138.63"/>
        <polygon class="cls-58" points="607.05 142.59 602.56 146.55 602.56 147.52 607.05 143.43 607.05 142.59"/>
        <polygon class="cls-59" points="597.98 146.55 602.56 146.55 607.05 142.59 603.45 142.59 597.98 146.55"/>
        <polygon class="cls-13" points="603.45 138.63 603.45 142.59 597.98 146.55 597.98 141.52 603.45 138.63"/>
        <polygon class="cls-59" points="627.37 138.63 630.53 141.49 629.47 141.49 626.82 138.63 627.37 138.63"/>
        <polygon class="cls-30" points="624.62 142.59 625.18 146.55 625.18 147.52 624.62 143.43 624.62 142.59"/>
        <polygon class="cls-58" points="629.47 146.55 625.18 146.55 624.62 142.59 626.82 142.59 629.47 146.55"/>
        <polygon class="cls-13" points="626.82 138.63 626.82 142.59 629.47 146.55 629.47 141.52 626.82 138.63"/>
      </g>
      <g>
        <path class="cls-34" d="M678.58,120.68h-13.91v-3.27h13.91v3.27ZM664.92,120.43h13.4v-2.77h-13.4v2.77Z"/>
        <path class="cls-34" d="M678.58,120.68h-13.91v-3.27h13.91v3.27ZM664.92,120.43h13.4v-2.77h-13.4v2.77Z"/>
        <path class="cls-34" d="M678.58,120.68h-13.91v-3.27h13.91v3.27ZM664.92,120.43h13.4v-2.77h-13.4v2.77Z"/>
        <path class="cls-34" d="M678.58,120.68h-13.91v-3.27h13.91v3.27ZM664.92,120.43h13.4v-2.77h-13.4v2.77Z"/>
        <path class="cls-34" d="M652.45,126.73c-.1-.13-.16-.3-.16-.49v-5.05c0-.11.02-.2.06-.28l.23.1s-.03.11-.03.18v5.05c0,.12.03.23.1.34l-.21.15Z"/>
        <path class="cls-34" d="M654.97,140.64h-.76v-6.72h.76v6.72ZM654.46,140.39h.25v-6.22h-.25v6.22Z"/>
        <path class="cls-34" d="M688.52,147.62h-.25v-.13s-.01-20.65-.01-20.65h.25v.13s.01,6.95.01,6.95h.51v6.72h-.51v6.98ZM688.51,140.39h.26v-6.22h-.26v6.22Z"/>
        <path class="cls-34" d="M678.58,120.68h-13.91v-3.27h13.91v3.27ZM664.92,120.43h13.4v-2.77h-13.4v2.77Z"/>
        <polygon class="cls-34" points="659.89 141.86 659.64 141.86 659.62 141.73 659.62 126.84 659.88 126.84 659.89 126.97 659.89 141.86"/>
        <g>
          <path class="cls-7" d="M688.52,147.62h-33.79v-20.77h5.17s.09,0,.12,0l.13-.03c.26-.08.43-.3.43-.56v-5.05c0-.22-.13-.41-.35-.52l-.48-.24h23.77l-.46.24c-.2.11-.33.3-.33.52v5.05c0,.33.27.6.61.6h5.18v20.77Z"/>
          <path class="cls-27" d="M660.48,120.33h24.56l-.43.23c-.15.08-.37.29-.37.46l-.25,1.17s-.03.22-.03.25v3.21c0,.25.2.65.46.65l1.5.4s.36.05.38.05h2.6l.2.71v18.82h-32.1v-19.38l.59-.14h1.04s.28-.03.28-.05l2.2-.54s.06-.01.09-.02l.1-.04c.19-.06.32-.37.32-.56v-2.83s-.02-.27-.03-.28l-.27-1.43c0-.16-.22-.37-.38-.45l-.45-.22Z"/>
          <path class="cls-14" d="M661.21,120.24h25.35l-.41.21c-.1.05-.41.28-.41.39l-.49.95s-.06.17-.06.23v3.03c0,.16.14.7.3.7l1,.79c0,.06.28.11.33.11h2.46l.39.47v17.81h-30.41v-17.99l.39-.29h.96s.24-.06.24-.11l1.47-1.07s.04-.02.06-.03l.06-.05c.13-.04.22-.43.22-.56v-2.64c0-.05-.05-.24-.07-.25l-.55-1.13c0-.11-.3-.33-.41-.38l-.41-.21Z"/>
          <path class="cls-32" d="M661.94,120.14h26.14l-.39.2c-.05.03-.45.27-.45.32l-.74.73s-.09.13-.09.21v2.85c0,.08.07.75.15.75l.5,1.19c0,.1.2.16.28.16h2.31l.59.24v16.79h-28.72v-16.6l.2-.43.87-.02s.19-.06.19-.14l.73-1.61s.02-.03.03-.04l.03-.05c.06-.02.11-.49.11-.56v-2.44c0-.08-.07-.2-.1-.21l-.82-.84c0-.05-.39-.28-.44-.31l-.38-.19Z"/>
          <path class="cls-28" d="M690.82,142.24h-27.03v-15.78l.79-.03s.14-.08.14-.19v-5.05c0-.1-.1-.16-.14-.18l-1.92-.96h26.93l-1.83.96s-.12.08-.12.19v5.05c0,.13.12.22.23.22h2.95v15.78Z"/>
        </g>
        <path class="cls-22" d="M692.18,115.81h-41.14c-1.04,0-1.9.87-1.9,1.92v33.54c0,1.07.86,1.92,1.9,1.92h41.14c1.05,0,1.91-.86,1.91-1.92v-33.54c0-1.05-.86-1.92-1.91-1.92ZM693.45,150.56c0,.68-.36,1.27-.9,1.61h-.02c-.12.02-.24.04-.35.04h-41.14c-.12,0-.24-.02-.34-.04-.56-.32-.92-.91-.92-1.61v-31.12c0-1.04.85-1.9,1.9-1.9h39.88c1.07,0,1.9.86,1.9,1.9v31.12Z"/>
        <rect class="cls-3" x="664.79" y="117.53" width="13.65" height="3.02"/>
        <g>
          <path class="cls-22" d="M660.23,120.55c-.1-.07-.22-.1-.34-.1h-6.76c-.2,0-.37.08-.51.22-.03.03-.07.07-.09.11-.04.05-.08.12-.09.19-.03.07-.04.14-.04.22v5.05c0,.15.04.3.13.41.02.04.05.08.09.11.13.13.31.21.51.21h6.76s.1,0,.14-.01l.13-.03c.26-.12.44-.37.44-.68v-5.05c0-.29-.15-.52-.37-.64ZM659.95,125.73c0,.2-.08.36-.2.49-.12.14-.32.22-.52.22h-5.44c-.4,0-.73-.32-.73-.71v-4.02c0-.4.33-.71.73-.71h5.44c.22,0,.4.1.52.24.14.11.2.3.2.47v4.02Z"/>
          <path class="cls-22" d="M690.09,120.46h-6.76c-.12,0-.24.03-.34.1-.23.12-.4.35-.4.64v5.05c0,.41.34.73.74.73h6.76c.41,0,.73-.32.73-.73v-5.05c0-.4-.32-.74-.73-.74ZM690.16,125.73c0,.4-.32.71-.72.71h-5.45c-.19,0-.38-.08-.51-.2-.14-.13-.22-.32-.22-.52v-4.02c0-.2.08-.37.22-.49.12-.14.32-.22.51-.22h5.45c.41,0,.72.32.72.71v4.02Z"/>
          <path class="cls-29" d="M690.16,121.71v4.02c0,.4-.32.71-.72.71h-5.45c-.19,0-.38-.08-.51-.2-.14-.13-.22-.32-.22-.52v-4.02c0-.2.08-.37.22-.49.12-.14.32-.22.51-.22h5.45c.41,0,.72.32.72.71Z"/>
        </g>
        <path class="cls-21" d="M693.45,119.43v31.12c0,.68-.36,1.27-.9,1.61h-.02c-.12.02-.24.04-.35.04h-41.14c-.12,0-.24-.02-.34-.04-.56-.32-.92-.91-.92-1.61v-31.12c0-1.04.85-1.9,1.9-1.9h13.12v3.02h-4.56c-.1-.07-.22-.1-.34-.1h-6.76c-.2,0-.37.08-.51.22-.03.03-.07.07-.09.11-.04.05-.08.12-.09.19-.03.07-.04.14-.04.22v5.05c0,.15.04.3.13.41.02.04.05.08.09.11.13.13.31.21.51.21h1.7v7.07h-.51v6.47h.51v6.98h33.55v-6.98h.51v-6.47h-.51v-7.07h1.7c.41,0,.73-.32.73-.73v-5.05c0-.4-.32-.74-.73-.74h-6.76c-.12,0-.24.03-.34.1h-4.55v-3.02h13.11c1.07,0,1.9.86,1.9,1.9Z"/>
        <g>
          <rect class="cls-44" x="688.04" y="133.97" width="1.19" height="6.56" rx=".02" ry=".02"/>
          <rect class="cls-39" x="654" y="133.97" width="1.19" height="6.56" rx=".02" ry=".02"/>
        </g>
        <g>
          <polygon class="cls-30" points="660.48 146.52 660.48 147.49 654.84 147.49 654.84 141.49 655.9 141.49 655.9 146.52 660.48 146.52"/>
          <polygon class="cls-30" points="688.39 141.49 688.39 147.49 682.77 147.49 682.77 146.52 687.34 146.52 687.34 141.49 688.39 141.49"/>
        </g>
        <g>
          <polygon class="cls-30" points="660.48 146.52 660.48 147.49 654.84 147.49 654.84 141.49 655.9 141.49 655.9 146.52 660.48 146.52"/>
          <polygon class="cls-30" points="688.39 141.49 688.39 147.49 682.77 147.49 682.77 146.52 687.34 146.52 687.34 141.49 688.39 141.49"/>
        </g>
        <g>
          <polygon class="cls-22" points="661.31 142.59 661.31 138.63 660.42 138.63 660.42 142.59 660.42 143.13 660.42 143.43 664.92 143.43 664.92 142.59 661.31 142.59"/>
          <polygon class="cls-22" points="686.08 142.59 686.08 138.63 686.98 138.63 686.98 142.59 686.98 143.13 686.98 143.43 682.48 143.43 682.48 142.59 686.08 142.59"/>
        </g>
        <g>
          <polygon class="cls-30" points="660.43 146.55 660.43 147.52 654.79 147.52 654.79 141.52 655.85 141.52 655.85 146.55 660.43 146.55"/>
          <polygon class="cls-30" points="688.34 141.52 688.34 147.52 682.72 147.52 682.72 146.55 687.29 146.55 687.29 141.52 688.34 141.52"/>
        </g>
        <path class="cls-25" d="M659.95,121.71v4.02c0,.2-.08.36-.2.5-.12.14-.32.22-.52.22h-5.44c-.4,0-.72-.32-.72-.72v-4.02c0-.4.32-.72.72-.72h5.44c.22,0,.4.1.52.24.14.12.2.3.2.48Z"/>
        <polygon class="cls-90" points="670.38 139.67 666.69 142.38 665.34 147.43 665.74 147.43 667.09 142.38 670.62 139.67 670.38 139.67"/>
        <polygon class="cls-65" points="673.18 139.67 669.91 142.38 668.79 147.43 669.19 147.43 670.31 142.38 673.42 139.67 673.18 139.67"/>
        <polygon class="cls-85" points="675.98 139.67 673.13 142.38 672.24 147.43 672.64 147.43 673.52 142.38 676.22 139.67 675.98 139.67"/>
        <polygon class="cls-73" points="678.79 139.67 676.34 142.38 675.69 147.43 676.09 147.43 676.74 142.38 679.02 139.67 678.79 139.67"/>
        <polygon class="cls-77" points="681.59 139.67 679.56 142.38 679.14 147.43 679.54 147.43 679.96 142.38 681.83 139.67 681.59 139.67"/>
        <polygon class="cls-79" points="684.39 139.67 682.77 142.38 682.59 147.43 682.99 147.43 683.17 142.38 684.63 139.67 684.39 139.67"/>
        <polygon class="cls-59" points="660.42 138.63 654.79 141.52 655.85 141.52 661.31 138.63 660.42 138.63"/>
        <polygon class="cls-58" points="664.92 142.59 660.43 146.55 660.43 147.52 664.92 143.43 664.92 142.59"/>
        <polygon class="cls-59" points="655.85 146.55 660.43 146.55 664.92 142.59 661.31 142.59 655.85 146.55"/>
        <polygon class="cls-13" points="661.31 138.63 661.31 142.59 655.85 146.55 655.85 141.52 661.31 138.63"/>
        <polygon class="cls-59" points="685.23 138.63 688.39 141.49 687.34 141.49 684.68 138.63 685.23 138.63"/>
        <polygon class="cls-30" points="682.48 142.59 683.05 146.55 683.05 147.52 682.48 143.43 682.48 142.59"/>
        <polygon class="cls-58" points="687.34 146.55 683.05 146.55 682.48 142.59 684.68 142.59 687.34 146.55"/>
        <polygon class="cls-13" points="684.68 138.63 684.68 142.59 687.34 146.55 687.34 141.52 684.68 138.63"/>
      </g>
      <g>
        <path class="cls-34" d="M738.6,120.68h-13.91v-3.27h13.91v3.27ZM724.94,120.43h13.4v-2.77h-13.4v2.77Z"/>
        <path class="cls-34" d="M738.6,120.68h-13.91v-3.27h13.91v3.27ZM724.94,120.43h13.4v-2.77h-13.4v2.77Z"/>
        <path class="cls-34" d="M738.6,120.68h-13.91v-3.27h13.91v3.27ZM724.94,120.43h13.4v-2.77h-13.4v2.77Z"/>
        <path class="cls-34" d="M738.6,120.68h-13.91v-3.27h13.91v3.27ZM724.94,120.43h13.4v-2.77h-13.4v2.77Z"/>
        <path class="cls-34" d="M712.47,126.73c-.1-.13-.16-.3-.16-.49v-5.05c0-.11.02-.2.06-.28l.23.1s-.03.11-.03.18v5.05c0,.12.03.23.1.34l-.21.15Z"/>
        <path class="cls-34" d="M714.99,140.64h-.76v-6.72h.76v6.72ZM714.48,140.39h.25v-6.22h-.25v6.22Z"/>
        <path class="cls-34" d="M748.54,147.62h-.25v-.13s-.01-20.65-.01-20.65h.25v.13s.01,6.95.01,6.95h.51v6.72h-.51v6.98ZM748.53,140.39h.26v-6.22h-.26v6.22Z"/>
        <path class="cls-34" d="M738.6,120.68h-13.91v-3.27h13.91v3.27ZM724.94,120.43h13.4v-2.77h-13.4v2.77Z"/>
        <polygon class="cls-34" points="719.91 141.86 719.65 141.86 719.64 141.73 719.64 126.84 719.9 126.84 719.91 126.97 719.91 141.86"/>
        <g>
          <path class="cls-7" d="M748.54,147.62h-33.79v-20.77h5.17s.09,0,.12,0l.13-.03c.26-.08.43-.3.43-.56v-5.05c0-.22-.13-.41-.35-.52l-.48-.24h23.77l-.46.24c-.2.11-.33.3-.33.52v5.05c0,.33.27.6.61.6h5.18v20.77Z"/>
          <path class="cls-27" d="M720.5,120.33h24.56l-.43.23c-.15.08-.37.29-.37.46l-.25,1.17s-.03.22-.03.25v3.21c0,.25.2.65.46.65l1.5.4s.36.05.38.05h2.6l.2.71v18.82h-32.1v-19.38l.59-.14h1.04s.28-.03.28-.05l2.2-.54s.06-.01.09-.02l.1-.04c.19-.06.32-.37.32-.56v-2.83s-.02-.27-.03-.28l-.27-1.43c0-.16-.22-.37-.38-.45l-.45-.22Z"/>
          <path class="cls-14" d="M721.23,120.24h25.35l-.41.21c-.1.05-.41.28-.41.39l-.49.95s-.06.17-.06.23v3.03c0,.16.14.7.3.7l1,.79c0,.06.28.11.33.11h2.46l.39.47v17.81h-30.41v-17.99l.39-.29h.96s.24-.06.24-.11l1.47-1.07s.04-.02.06-.03l.06-.05c.13-.04.22-.43.22-.56v-2.64c0-.05-.05-.24-.07-.25l-.55-1.13c0-.11-.3-.33-.41-.38l-.41-.21Z"/>
          <path class="cls-32" d="M721.96,120.14h26.14l-.39.2c-.05.03-.45.27-.45.32l-.74.73s-.09.13-.09.21v2.85c0,.08.07.75.15.75l.5,1.19c0,.1.2.16.28.16h2.31l.59.24v16.79h-28.72v-16.6l.2-.43.87-.02s.19-.06.19-.14l.73-1.61s.02-.03.03-.04l.03-.05c.06-.02.11-.49.11-.56v-2.44c0-.08-.07-.2-.1-.21l-.82-.84c0-.05-.39-.28-.44-.31l-.38-.19Z"/>
          <path class="cls-28" d="M750.84,142.24h-27.03v-15.78l.79-.03s.14-.08.14-.19v-5.05c0-.1-.1-.16-.14-.18l-1.92-.96h26.93l-1.83.96s-.12.08-.12.19v5.05c0,.13.12.22.23.22h2.95v15.78Z"/>
        </g>
        <path class="cls-22" d="M752.2,115.81h-41.14c-1.04,0-1.9.87-1.9,1.92v33.54c0,1.07.86,1.92,1.9,1.92h41.14c1.05,0,1.91-.86,1.91-1.92v-33.54c0-1.05-.86-1.92-1.91-1.92ZM753.47,150.56c0,.68-.36,1.27-.9,1.61h-.02c-.12.02-.24.04-.35.04h-41.14c-.12,0-.24-.02-.34-.04-.56-.32-.92-.91-.92-1.61v-31.12c0-1.04.85-1.9,1.9-1.9h39.88c1.07,0,1.9.86,1.9,1.9v31.12Z"/>
        <rect class="cls-3" x="724.81" y="117.53" width="13.65" height="3.02"/>
        <g>
          <path class="cls-22" d="M720.25,120.55c-.1-.07-.22-.1-.34-.1h-6.76c-.2,0-.37.08-.51.22-.03.03-.07.07-.09.11-.04.05-.08.12-.09.19-.03.07-.04.14-.04.22v5.05c0,.15.04.3.13.41.02.04.05.08.09.11.13.13.31.21.51.21h6.76s.1,0,.14-.01l.13-.03c.26-.12.44-.37.44-.68v-5.05c0-.29-.15-.52-.37-.64ZM719.97,125.73c0,.2-.08.36-.2.49-.12.14-.32.22-.52.22h-5.44c-.4,0-.73-.32-.73-.71v-4.02c0-.4.33-.71.73-.71h5.44c.22,0,.4.1.52.24.14.11.2.3.2.47v4.02Z"/>
          <path class="cls-22" d="M750.11,120.46h-6.76c-.12,0-.24.03-.34.1-.23.12-.4.35-.4.64v5.05c0,.41.34.73.74.73h6.76c.41,0,.73-.32.73-.73v-5.05c0-.4-.32-.74-.73-.74ZM750.18,125.73c0,.4-.32.71-.72.71h-5.45c-.19,0-.38-.08-.51-.2-.14-.13-.22-.32-.22-.52v-4.02c0-.2.08-.37.22-.49.12-.14.32-.22.51-.22h5.45c.41,0,.72.32.72.71v4.02Z"/>
          <path class="cls-29" d="M750.18,121.71v4.02c0,.4-.32.71-.72.71h-5.45c-.19,0-.38-.08-.51-.2-.14-.13-.22-.32-.22-.52v-4.02c0-.2.08-.37.22-.49.12-.14.32-.22.51-.22h5.45c.41,0,.72.32.72.71Z"/>
        </g>
        <path class="cls-20" d="M753.47,119.43v31.12c0,.68-.36,1.27-.9,1.61h-.02c-.12.02-.24.04-.35.04h-41.14c-.12,0-.24-.02-.34-.04-.56-.32-.92-.91-.92-1.61v-31.12c0-1.04.85-1.9,1.9-1.9h13.12v3.02h-4.56c-.1-.07-.22-.1-.34-.1h-6.76c-.2,0-.37.08-.51.22-.03.03-.07.07-.09.11-.04.05-.08.12-.09.19-.03.07-.04.14-.04.22v5.05c0,.15.04.3.13.41.02.04.05.08.09.11.13.13.31.21.51.21h1.7v7.07h-.51v6.47h.51v6.98h33.55v-6.98h.51v-6.47h-.51v-7.07h1.7c.41,0,.73-.32.73-.73v-5.05c0-.4-.32-.74-.73-.74h-6.76c-.12,0-.24.03-.34.1h-4.55v-3.02h13.11c1.07,0,1.9.86,1.9,1.9Z"/>
        <g>
          <rect class="cls-42" x="748.06" y="133.97" width="1.19" height="6.56" rx=".02" ry=".02"/>
          <rect class="cls-92" x="714.02" y="133.97" width="1.19" height="6.56" rx=".02" ry=".02"/>
        </g>
        <g>
          <polygon class="cls-30" points="720.5 146.52 720.5 147.49 714.86 147.49 714.86 141.49 715.92 141.49 715.92 146.52 720.5 146.52"/>
          <polygon class="cls-30" points="748.41 141.49 748.41 147.49 742.79 147.49 742.79 146.52 747.36 146.52 747.36 141.49 748.41 141.49"/>
        </g>
        <g>
          <polygon class="cls-30" points="720.5 146.52 720.5 147.49 714.86 147.49 714.86 141.49 715.92 141.49 715.92 146.52 720.5 146.52"/>
          <polygon class="cls-30" points="748.41 141.49 748.41 147.49 742.79 147.49 742.79 146.52 747.36 146.52 747.36 141.49 748.41 141.49"/>
        </g>
        <g>
          <polygon class="cls-22" points="721.33 142.59 721.33 138.63 720.44 138.63 720.44 142.59 720.44 143.13 720.44 143.43 724.94 143.43 724.94 142.59 721.33 142.59"/>
          <polygon class="cls-22" points="746.1 142.59 746.1 138.63 747 138.63 747 142.59 747 143.13 747 143.43 742.5 143.43 742.5 142.59 746.1 142.59"/>
        </g>
        <g>
          <polygon class="cls-30" points="720.45 146.55 720.45 147.52 714.81 147.52 714.81 141.52 715.87 141.52 715.87 146.55 720.45 146.55"/>
          <polygon class="cls-30" points="748.36 141.52 748.36 147.52 742.74 147.52 742.74 146.55 747.31 146.55 747.31 141.52 748.36 141.52"/>
        </g>
        <path class="cls-25" d="M719.97,121.71v4.02c0,.2-.08.36-.2.5-.12.14-.32.22-.52.22h-5.44c-.4,0-.72-.32-.72-.72v-4.02c0-.4.32-.72.72-.72h5.44c.22,0,.4.1.52.24.14.12.2.3.2.48Z"/>
        <polygon class="cls-76" points="730.4 139.67 726.71 142.38 725.36 147.43 725.76 147.43 727.11 142.38 730.64 139.67 730.4 139.67"/>
        <polygon class="cls-75" points="733.2 139.67 729.93 142.38 728.81 147.43 729.21 147.43 730.33 142.38 733.44 139.67 733.2 139.67"/>
        <polygon class="cls-87" points="736 139.67 733.14 142.38 732.26 147.43 732.66 147.43 733.54 142.38 736.24 139.67 736 139.67"/>
        <polygon class="cls-86" points="738.81 139.67 736.36 142.38 735.71 147.43 736.11 147.43 736.76 142.38 739.04 139.67 738.81 139.67"/>
        <polygon class="cls-91" points="741.61 139.67 739.58 142.38 739.16 147.43 739.56 147.43 739.97 142.38 741.85 139.67 741.61 139.67"/>
        <polygon class="cls-74" points="744.41 139.67 742.79 142.38 742.61 147.43 743.01 147.43 743.19 142.38 744.65 139.67 744.41 139.67"/>
        <polygon class="cls-59" points="720.44 138.63 714.81 141.52 715.87 141.52 721.33 138.63 720.44 138.63"/>
        <polygon class="cls-58" points="724.94 142.59 720.45 146.55 720.45 147.52 724.94 143.43 724.94 142.59"/>
        <polygon class="cls-59" points="715.87 146.55 720.45 146.55 724.94 142.59 721.33 142.59 715.87 146.55"/>
        <polygon class="cls-13" points="721.33 138.63 721.33 142.59 715.87 146.55 715.87 141.52 721.33 138.63"/>
        <polygon class="cls-59" points="745.25 138.63 748.41 141.49 747.36 141.49 744.7 138.63 745.25 138.63"/>
        <polygon class="cls-30" points="742.5 142.59 743.07 146.55 743.07 147.52 742.5 143.43 742.5 142.59"/>
        <polygon class="cls-58" points="747.36 146.55 743.07 146.55 742.5 142.59 744.7 142.59 747.36 146.55"/>
        <polygon class="cls-13" points="744.7 138.63 744.7 142.59 747.36 146.55 747.36 141.52 744.7 138.63"/>
      </g>
      <g>
        <path class="cls-34" d="M793.57,120.68h-13.91v-3.27h13.91v3.27ZM779.92,120.43h13.4v-2.77h-13.4v2.77Z"/>
        <path class="cls-34" d="M793.57,120.68h-13.91v-3.27h13.91v3.27ZM779.92,120.43h13.4v-2.77h-13.4v2.77Z"/>
        <path class="cls-34" d="M793.57,120.68h-13.91v-3.27h13.91v3.27ZM779.92,120.43h13.4v-2.77h-13.4v2.77Z"/>
        <path class="cls-34" d="M793.57,120.68h-13.91v-3.27h13.91v3.27ZM779.92,120.43h13.4v-2.77h-13.4v2.77Z"/>
        <path class="cls-34" d="M767.44,126.73c-.1-.13-.16-.3-.16-.49v-5.05c0-.11.02-.2.06-.28l.23.1s-.03.11-.03.18v5.05c0,.12.03.23.1.34l-.21.15Z"/>
        <path class="cls-34" d="M769.96,140.64h-.76v-6.72h.76v6.72ZM769.46,140.39h.25v-6.22h-.25v6.22Z"/>
        <path class="cls-34" d="M803.51,147.62h-.25v-.13s-.01-20.65-.01-20.65h.25v.13s.01,6.95.01,6.95h.51v6.72h-.51v6.98ZM803.5,140.39h.26v-6.22h-.26v6.22Z"/>
        <path class="cls-34" d="M793.57,120.68h-13.91v-3.27h13.91v3.27ZM779.92,120.43h13.4v-2.77h-13.4v2.77Z"/>
        <polygon class="cls-34" points="774.88 141.86 774.63 141.86 774.62 141.73 774.62 126.84 774.87 126.84 774.88 126.97 774.88 141.86"/>
        <g>
          <path class="cls-7" d="M803.51,147.62h-33.79v-20.77h5.17s.09,0,.12,0l.13-.03c.26-.08.43-.3.43-.56v-5.05c0-.22-.13-.41-.35-.52l-.48-.24h23.77l-.46.24c-.2.11-.33.3-.33.52v5.05c0,.33.27.6.61.6h5.18v20.77Z"/>
          <path class="cls-27" d="M775.47,120.33h24.56l-.43.23c-.15.08-.37.29-.37.46l-.25,1.17s-.03.22-.03.25v3.21c0,.25.2.65.46.65l1.5.4s.36.05.38.05h2.6l.2.71v18.82h-32.1v-19.38l.59-.14h1.04s.28-.03.28-.05l2.2-.54s.06-.01.09-.02l.1-.04c.19-.06.32-.37.32-.56v-2.83s-.02-.27-.03-.28l-.27-1.43c0-.16-.22-.37-.38-.45l-.45-.22Z"/>
          <path class="cls-14" d="M776.2,120.24h25.35l-.41.21c-.1.05-.41.28-.41.39l-.49.95s-.06.17-.06.23v3.03c0,.16.14.7.3.7l1,.79c0,.06.28.11.33.11h2.46l.39.47v17.81h-30.41v-17.99l.39-.29h.96s.24-.06.24-.11l1.47-1.07s.04-.02.06-.03l.06-.05c.13-.04.22-.43.22-.56v-2.64c0-.05-.05-.24-.07-.25l-.55-1.13c0-.11-.3-.33-.41-.38l-.41-.21Z"/>
          <path class="cls-32" d="M776.94,120.14h26.14l-.39.2c-.05.03-.45.27-.45.32l-.74.73s-.09.13-.09.21v2.85c0,.08.07.75.15.75l.5,1.19c0,.1.2.16.28.16h2.31l.59.24v16.79h-28.72v-16.6l.2-.43.87-.02s.19-.06.19-.14l.73-1.61s.02-.03.03-.04l.03-.05c.06-.02.11-.49.11-.56v-2.44c0-.08-.07-.2-.1-.21l-.82-.84c0-.05-.39-.28-.44-.31l-.38-.19Z"/>
          <path class="cls-28" d="M805.82,142.24h-27.03v-15.78l.79-.03s.14-.08.14-.19v-5.05c0-.1-.1-.16-.14-.18l-1.92-.96h26.93l-1.83.96s-.12.08-.12.19v5.05c0,.13.12.22.23.22h2.95v15.78Z"/>
        </g>
        <path class="cls-22" d="M807.18,115.81h-41.14c-1.04,0-1.9.87-1.9,1.92v33.54c0,1.07.86,1.92,1.9,1.92h41.14c1.05,0,1.91-.86,1.91-1.92v-33.54c0-1.05-.86-1.92-1.91-1.92ZM808.45,150.56c0,.68-.36,1.27-.9,1.61h-.02c-.12.02-.24.04-.35.04h-41.14c-.12,0-.24-.02-.34-.04-.56-.32-.92-.91-.92-1.61v-31.12c0-1.04.85-1.9,1.9-1.9h39.88c1.07,0,1.9.86,1.9,1.9v31.12Z"/>
        <rect class="cls-3" x="779.79" y="117.53" width="13.65" height="3.02"/>
        <g>
          <path class="cls-22" d="M775.23,120.55c-.1-.07-.22-.1-.34-.1h-6.76c-.2,0-.37.08-.51.22-.03.03-.07.07-.09.11-.04.05-.08.12-.09.19-.03.07-.04.14-.04.22v5.05c0,.15.04.3.13.41.02.04.05.08.09.11.13.13.31.21.51.21h6.76s.1,0,.14-.01l.13-.03c.26-.12.44-.37.44-.68v-5.05c0-.29-.15-.52-.37-.64ZM774.94,125.73c0,.2-.08.36-.2.49-.12.14-.32.22-.52.22h-5.44c-.4,0-.73-.32-.73-.71v-4.02c0-.4.33-.71.73-.71h5.44c.22,0,.4.1.52.24.14.11.2.3.2.47v4.02Z"/>
          <path class="cls-22" d="M805.09,120.46h-6.76c-.12,0-.24.03-.34.1-.23.12-.4.35-.4.64v5.05c0,.41.34.73.74.73h6.76c.41,0,.73-.32.73-.73v-5.05c0-.4-.32-.74-.73-.74ZM805.15,125.73c0,.4-.32.71-.72.71h-5.45c-.19,0-.38-.08-.51-.2-.14-.13-.22-.32-.22-.52v-4.02c0-.2.08-.37.22-.49.12-.14.32-.22.51-.22h5.45c.41,0,.72.32.72.71v4.02Z"/>
          <path class="cls-29" d="M805.15,121.71v4.02c0,.4-.32.71-.72.71h-5.45c-.19,0-.38-.08-.51-.2-.14-.13-.22-.32-.22-.52v-4.02c0-.2.08-.37.22-.49.12-.14.32-.22.51-.22h5.45c.41,0,.72.32.72.71Z"/>
        </g>
        <path class="cls-19" d="M808.45,119.43v31.12c0,.68-.36,1.27-.9,1.61h-.02c-.12.02-.24.04-.35.04h-41.14c-.12,0-.24-.02-.34-.04-.56-.32-.92-.91-.92-1.61v-31.12c0-1.04.85-1.9,1.9-1.9h13.12v3.02h-4.56c-.1-.07-.22-.1-.34-.1h-6.76c-.2,0-.37.08-.51.22-.03.03-.07.07-.09.11-.04.05-.08.12-.09.19-.03.07-.04.14-.04.22v5.05c0,.15.04.3.13.41.02.04.05.08.09.11.13.13.31.21.51.21h1.7v7.07h-.51v6.47h.51v6.98h33.55v-6.98h.51v-6.47h-.51v-7.07h1.7c.41,0,.73-.32.73-.73v-5.05c0-.4-.32-.74-.73-.74h-6.76c-.12,0-.24.03-.34.1h-4.55v-3.02h13.11c1.07,0,1.9.86,1.9,1.9Z"/>
        <g>
          <rect class="cls-94" x="803.03" y="133.97" width="1.19" height="6.56" rx=".02" ry=".02"/>
          <rect class="cls-93" x="769" y="133.97" width="1.19" height="6.56" rx=".02" ry=".02"/>
        </g>
        <g>
          <polygon class="cls-30" points="775.47 146.52 775.47 147.49 769.84 147.49 769.84 141.49 770.89 141.49 770.89 146.52 775.47 146.52"/>
          <polygon class="cls-30" points="803.39 141.49 803.39 147.49 797.76 147.49 797.76 146.52 802.33 146.52 802.33 141.49 803.39 141.49"/>
        </g>
        <g>
          <polygon class="cls-30" points="775.47 146.52 775.47 147.49 769.84 147.49 769.84 141.49 770.89 141.49 770.89 146.52 775.47 146.52"/>
          <polygon class="cls-30" points="803.39 141.49 803.39 147.49 797.76 147.49 797.76 146.52 802.33 146.52 802.33 141.49 803.39 141.49"/>
        </g>
        <g>
          <polygon class="cls-22" points="776.31 142.59 776.31 138.63 775.41 138.63 775.41 142.59 775.41 143.13 775.41 143.43 779.91 143.43 779.91 142.59 776.31 142.59"/>
          <polygon class="cls-22" points="801.08 142.59 801.08 138.63 801.97 138.63 801.97 142.59 801.97 143.13 801.97 143.43 797.47 143.43 797.47 142.59 801.08 142.59"/>
        </g>
        <g>
          <polygon class="cls-30" points="775.42 146.55 775.42 147.52 769.79 147.52 769.79 141.52 770.84 141.52 770.84 146.55 775.42 146.55"/>
          <polygon class="cls-30" points="803.34 141.52 803.34 147.52 797.71 147.52 797.71 146.55 802.28 146.55 802.28 141.52 803.34 141.52"/>
        </g>
        <path class="cls-25" d="M774.95,121.71v4.02c0,.2-.08.36-.2.5-.12.14-.32.22-.52.22h-5.44c-.4,0-.72-.32-.72-.72v-4.02c0-.4.32-.72.72-.72h5.44c.22,0,.4.1.52.24.14.12.2.3.2.48Z"/>
        <polygon class="cls-83" points="785.37 139.67 781.69 142.38 780.33 147.43 780.73 147.43 782.09 142.38 785.61 139.67 785.37 139.67"/>
        <polygon class="cls-80" points="788.18 139.67 784.91 142.38 783.78 147.43 784.18 147.43 785.31 142.38 788.41 139.67 788.18 139.67"/>
        <polygon class="cls-82" points="790.98 139.67 788.12 142.38 787.23 147.43 787.63 147.43 788.52 142.38 791.22 139.67 790.98 139.67"/>
        <polygon class="cls-84" points="793.78 139.67 791.34 142.38 790.68 147.43 791.08 147.43 791.74 142.38 794.02 139.67 793.78 139.67"/>
        <polygon class="cls-81" points="796.59 139.67 794.55 142.38 794.14 147.43 794.53 147.43 794.95 142.38 796.82 139.67 796.59 139.67"/>
        <polygon class="cls-78" points="799.39 139.67 797.77 142.38 797.59 147.43 797.99 147.43 798.17 142.38 799.63 139.67 799.39 139.67"/>
        <polygon class="cls-59" points="775.41 138.63 769.79 141.52 770.84 141.52 776.31 138.63 775.41 138.63"/>
        <polygon class="cls-58" points="779.91 142.59 775.42 146.55 775.42 147.52 779.91 143.43 779.91 142.59"/>
        <polygon class="cls-59" points="770.84 146.55 775.42 146.55 779.91 142.59 776.31 142.59 770.84 146.55"/>
        <polygon class="cls-13" points="776.31 138.63 776.31 142.59 770.84 146.55 770.84 141.52 776.31 138.63"/>
        <polygon class="cls-59" points="800.23 138.63 803.39 141.49 802.33 141.49 799.68 138.63 800.23 138.63"/>
        <polygon class="cls-30" points="797.47 142.59 798.04 146.55 798.04 147.52 797.47 143.43 797.47 142.59"/>
        <polygon class="cls-58" points="802.33 146.55 798.04 146.55 797.47 142.59 799.68 142.59 802.33 146.55"/>
        <polygon class="cls-13" points="799.68 138.63 799.68 142.59 802.33 146.55 802.33 141.52 799.68 138.63"/>
      </g>
    </g>
    <g>
      <path class="cls-15" d="M860.3,133.37v17.09c0,1.23-1,2.22-2.23,2.22h-34.25c-1.23,0-2.23-1-2.23-2.22v-17.09c0-1.23,1-2.23,2.23-2.23h34.25c1.23,0,2.23,1,2.23,2.23Z"/>
      <path class="cls-33" d="M860.3,134.9v10.3c0,1.23-1,2.23-2.23,2.23h-29.47v-14.06c0-1.23,1-2.23,2.23-2.23h25.71c2.08,0,3.76,1.68,3.76,3.76Z"/>
      <rect class="cls-105" x="821.59" y="131.14" width="38.72" height="21.54" rx="3.65" ry="3.65"/>
    </g>
    <g>
      <path class="cls-57" d="M908.81,133.37v17.09c0,1.23-1,2.22-2.23,2.22h-34.25c-1.23,0-2.23-1-2.23-2.22v-17.09c0-1.23,1-2.23,2.23-2.23h34.25c1.23,0,2.23,1,2.23,2.23Z"/>
      <path class="cls-33" d="M908.68,134.33v10.88c0,1.23-1,2.23-2.23,2.23h-29.47v-14.06c0-1.23,1-2.23,2.23-2.23h26.28c1.76,0,3.19,1.43,3.19,3.19Z"/>
      <rect class="cls-105" x="870.09" y="131.14" width="38.72" height="21.54" rx="3.65" ry="3.65"/>
    </g>
  </g>
</svg>