<?xml version="1.0" encoding="UTF-8"?>
<svg id="Layer_1" data-name="Layer 1" xmlns="http://www.w3.org/2000/svg" xmlns:xlink="http://www.w3.org/1999/xlink" viewBox="0 0 1391.73 156.12">
  <defs>
    <style>
      .cls-1 {
        fill: #e6ebed;
      }

      .cls-1, .cls-2, .cls-3, .cls-4, .cls-5, .cls-6, .cls-7, .cls-8, .cls-9, .cls-10, .cls-11, .cls-12, .cls-13, .cls-14, .cls-15, .cls-16, .cls-17, .cls-18, .cls-19, .cls-20, .cls-21, .cls-22, .cls-23, .cls-24, .cls-25, .cls-26, .cls-27, .cls-28, .cls-29, .cls-30, .cls-31, .cls-32, .cls-33, .cls-34, .cls-35, .cls-36, .cls-37, .cls-38, .cls-39, .cls-40, .cls-41, .cls-42, .cls-43, .cls-44, .cls-45, .cls-46, .cls-47, .cls-48, .cls-49, .cls-50, .cls-51, .cls-52, .cls-53, .cls-54, .cls-55, .cls-56, .cls-57, .cls-58, .cls-59, .cls-60, .cls-61, .cls-62, .cls-63, .cls-64, .cls-65, .cls-66, .cls-67, .cls-68, .cls-69, .cls-70, .cls-71, .cls-72, .cls-73, .cls-74, .cls-75, .cls-76, .cls-77, .cls-78, .cls-79, .cls-80, .cls-81, .cls-82, .cls-83, .cls-84, .cls-85, .cls-86, .cls-87, .cls-88, .cls-89, .cls-90, .cls-91, .cls-92, .cls-93, .cls-94, .cls-95 {
        stroke-width: 0px;
      }

      .cls-2 {
        fill: #f9fbfe;
      }

      .cls-3 {
        fill: #333;
      }

      .cls-4 {
        fill: #edf5f9;
      }

      .cls-5 {
        fill: url(#Adsız_degrade_3);
      }

      .cls-6 {
        fill: url(#Adsız_degrade_2);
      }

      .cls-7 {
        fill: #cccbcb;
      }

      .cls-8 {
        fill: #d5dce7;
      }

      .cls-9 {
        fill: url(#Adsız_degrade_1300);
      }

      .cls-10 {
        fill: url(#Adsız_degrade_1311);
      }

      .cls-96 {
        letter-spacing: -.02em;
      }

      .cls-11 {
        fill: #4d4d4d;
      }

      .cls-12 {
        fill: #5a0909;
      }

      .cls-13 {
        fill: #2b2f3f;
      }

      .cls-14 {
        fill: #717276;
      }

      .cls-15 {
        fill: url(#linear-gradient);
      }

      .cls-97 {
        letter-spacing: -.01em;
      }

      .cls-16 {
        fill: url(#Adsız_degrade_2-2);
      }

      .cls-17 {
        fill: url(#Adsız_degrade_3-2);
      }

      .cls-18 {
        fill: url(#Adsız_degrade_3-3);
      }

      .cls-19 {
        fill: url(#Adsız_degrade_3-6);
      }

      .cls-20 {
        fill: url(#Adsız_degrade_3-5);
      }

      .cls-21 {
        fill: url(#Adsız_degrade_3-4);
      }

      .cls-22, .cls-98, .cls-99 {
        fill: #3c3c3b;
      }

      .cls-23 {
        fill: #eaf2f7;
      }

      .cls-24 {
        fill: #60605f;
      }

      .cls-25 {
        fill: #f8af3c;
      }

      .cls-26 {
        fill: #1a1a1a;
      }

      .cls-27 {
        fill: #9e9fa1;
      }

      .cls-28 {
        fill: #151a21;
      }

      .cls-29 {
        fill: #009145;
      }

      .cls-30 {
        fill: #676767;
      }

      .cls-31 {
        fill: #848484;
      }

      .cls-100 {
        letter-spacing: -.04em;
      }

      .cls-32 {
        fill: #43464c;
      }

      .cls-33 {
        fill: #000;
      }

      .cls-34 {
        fill: #e1111a;
      }

      .cls-98 {
        font-size: 8.65px;
      }

      .cls-98, .cls-99 {
        font-family: Montserrat-Medium, Montserrat;
        font-weight: 500;
      }

      .cls-35 {
        fill: #d1dbe0;
      }

      .cls-36 {
        fill: #a8a8a8;
      }

      .cls-37 {
        fill: url(#Adsız_degrade_1300-4);
      }

      .cls-38 {
        fill: url(#Adsız_degrade_1300-5);
      }

      .cls-39 {
        fill: url(#Adsız_degrade_1300-8);
      }

      .cls-40 {
        fill: url(#Adsız_degrade_1300-3);
      }

      .cls-41 {
        fill: url(#Adsız_degrade_1300-6);
      }

      .cls-42 {
        fill: url(#Adsız_degrade_1300-9);
      }

      .cls-43 {
        fill: url(#Adsız_degrade_1300-2);
      }

      .cls-44 {
        fill: url(#Adsız_degrade_1300-7);
      }

      .cls-45 {
        fill: url(#Adsız_degrade_1311-3);
      }

      .cls-46 {
        fill: url(#Adsız_degrade_1311-6);
      }

      .cls-47 {
        fill: url(#Adsız_degrade_1311-4);
      }

      .cls-48 {
        fill: url(#Adsız_degrade_1311-9);
      }

      .cls-49 {
        fill: url(#Adsız_degrade_1311-8);
      }

      .cls-50 {
        fill: url(#Adsız_degrade_1311-5);
      }

      .cls-51 {
        fill: url(#Adsız_degrade_1311-7);
      }

      .cls-52 {
        fill: url(#Adsız_degrade_1311-2);
      }

      .cls-53 {
        fill: #4e4d4d;
      }

      .cls-54, .cls-61 {
        isolation: isolate;
        opacity: .46;
      }

      .cls-54, .cls-63 {
        fill: #6d7c84;
      }

      .cls-55 {
        fill: #f2f2f2;
      }

      .cls-56 {
        fill: #1d1317;
      }

      .cls-99 {
        font-size: 6.03px;
      }

      .cls-101 {
        opacity: .66;
      }

      .cls-102 {
        opacity: .54;
      }

      .cls-57 {
        fill: url(#linear-gradient-2);
      }

      .cls-58 {
        fill: #2d273d;
      }

      .cls-59 {
        fill: #434249;
      }

      .cls-60 {
        fill: #f4dbdd;
      }

      .cls-103 {
        letter-spacing: 0em;
      }

      .cls-61 {
        fill: #474747;
      }

      .cls-62 {
        fill: #ccc;
      }

      .cls-64 {
        fill: #fff;
      }

      .cls-65 {
        fill: url(#Adsız_degrade_1311-20);
      }

      .cls-66 {
        fill: url(#Adsız_degrade_1311-10);
      }

      .cls-67 {
        fill: url(#Adsız_degrade_1311-17);
      }

      .cls-68 {
        fill: url(#Adsız_degrade_1311-15);
      }

      .cls-69 {
        fill: url(#Adsız_degrade_1311-12);
      }

      .cls-70 {
        fill: url(#Adsız_degrade_1311-13);
      }

      .cls-71 {
        fill: url(#Adsız_degrade_1311-11);
      }

      .cls-72 {
        fill: url(#Adsız_degrade_1311-16);
      }

      .cls-73 {
        fill: url(#Adsız_degrade_1311-22);
      }

      .cls-74 {
        fill: url(#Adsız_degrade_1311-30);
      }

      .cls-75 {
        fill: url(#Adsız_degrade_1311-26);
      }

      .cls-76 {
        fill: url(#Adsız_degrade_1311-25);
      }

      .cls-77 {
        fill: url(#Adsız_degrade_1311-23);
      }

      .cls-78 {
        fill: url(#Adsız_degrade_1311-36);
      }

      .cls-79 {
        fill: url(#Adsız_degrade_1311-24);
      }

      .cls-80 {
        fill: url(#Adsız_degrade_1311-32);
      }

      .cls-81 {
        fill: url(#Adsız_degrade_1311-35);
      }

      .cls-82 {
        fill: url(#Adsız_degrade_1311-33);
      }

      .cls-83 {
        fill: url(#Adsız_degrade_1311-31);
      }

      .cls-84 {
        fill: url(#Adsız_degrade_1311-34);
      }

      .cls-85 {
        fill: url(#Adsız_degrade_1311-21);
      }

      .cls-86 {
        fill: url(#Adsız_degrade_1311-28);
      }

      .cls-87 {
        fill: url(#Adsız_degrade_1311-27);
      }

      .cls-88 {
        fill: url(#Adsız_degrade_1311-14);
      }

      .cls-89 {
        fill: url(#Adsız_degrade_1311-18);
      }

      .cls-90 {
        fill: url(#Adsız_degrade_1311-19);
      }

      .cls-91 {
        fill: url(#Adsız_degrade_1311-29);
      }

      .cls-92 {
        fill: url(#Adsız_degrade_1300-10);
      }

      .cls-93 {
        fill: url(#Adsız_degrade_1300-12);
      }

      .cls-94 {
        fill: url(#Adsız_degrade_1300-11);
      }

      .cls-104 {
        fill: none;
        stroke: #ede4bc;
        stroke-miterlimit: 10;
      }

      .cls-95 {
        fill: #295e28;
      }
    </style>
    <linearGradient id="Adsız_degrade_2" data-name="Adsız degrade 2" x1="659.46" y1="103.56" x2="659.46" y2="145.48" gradientUnits="userSpaceOnUse">
      <stop offset="0" stop-color="#fff3e5"/>
      <stop offset="1" stop-color="#333"/>
    </linearGradient>
    <linearGradient id="Adsız_degrade_2-2" data-name="Adsız degrade 2" x1="687.55" y1="119.53" x2="725.99" y2="119.53" xlink:href="#Adsız_degrade_2"/>
    <linearGradient id="Adsız_degrade_3" data-name="Adsız degrade 3" x1="769.6" y1="103.71" x2="769.6" y2="147.56" gradientUnits="userSpaceOnUse">
      <stop offset="0" stop-color="#dbd3e1"/>
      <stop offset="1" stop-color="#333"/>
    </linearGradient>
    <linearGradient id="Adsız_degrade_1300" data-name="Adsız degrade 1300" x1="785.39" y1="119.81" x2="785.39" y2="132.91" gradientUnits="userSpaceOnUse">
      <stop offset="0" stop-color="#d7cdc1"/>
      <stop offset="1" stop-color="#2b2b2b"/>
    </linearGradient>
    <linearGradient id="Adsız_degrade_1300-2" data-name="Adsız degrade 1300" x1="753.81" y1="119.81" x2="753.81" y2="132.91" xlink:href="#Adsız_degrade_1300"/>
    <linearGradient id="Adsız_degrade_1311" data-name="Adsız degrade 1311" x1="766.23" y1="136.65" x2="766.23" y2="130.22" gradientUnits="userSpaceOnUse">
      <stop offset="0" stop-color="#fff2e4"/>
      <stop offset="1" stop-color="#000"/>
    </linearGradient>
    <linearGradient id="Adsız_degrade_1311-2" data-name="Adsız degrade 1311" x1="769.13" y1="136.65" x2="769.13" y2="130.22" xlink:href="#Adsız_degrade_1311"/>
    <linearGradient id="Adsız_degrade_1311-3" data-name="Adsız degrade 1311" x1="772.03" x2="772.03" y2="130.22" xlink:href="#Adsız_degrade_1311"/>
    <linearGradient id="Adsız_degrade_1311-4" data-name="Adsız degrade 1311" x1="774.93" x2="774.93" y2="130.22" xlink:href="#Adsız_degrade_1311"/>
    <linearGradient id="Adsız_degrade_1311-5" data-name="Adsız degrade 1311" x1="777.83" x2="777.83" y2="130.22" xlink:href="#Adsız_degrade_1311"/>
    <linearGradient id="Adsız_degrade_1311-6" data-name="Adsız degrade 1311" x1="780.73" y1="136.65" x2="780.73" y2="130.22" xlink:href="#Adsız_degrade_1311"/>
    <linearGradient id="Adsız_degrade_3-2" data-name="Adsız degrade 3" x1="823.32" x2="823.32" xlink:href="#Adsız_degrade_3"/>
    <linearGradient id="Adsız_degrade_1300-3" data-name="Adsız degrade 1300" x1="839.11" x2="839.11" xlink:href="#Adsız_degrade_1300"/>
    <linearGradient id="Adsız_degrade_1300-4" data-name="Adsız degrade 1300" x1="807.53" y1="119.81" x2="807.53" y2="132.91" xlink:href="#Adsız_degrade_1300"/>
    <linearGradient id="Adsız_degrade_1311-7" data-name="Adsız degrade 1311" x1="819.94" x2="819.94" xlink:href="#Adsız_degrade_1311"/>
    <linearGradient id="Adsız_degrade_1311-8" data-name="Adsız degrade 1311" x1="822.84" x2="822.84" y2="130.22" xlink:href="#Adsız_degrade_1311"/>
    <linearGradient id="Adsız_degrade_1311-9" data-name="Adsız degrade 1311" x1="825.75" x2="825.75" y2="130.22" xlink:href="#Adsız_degrade_1311"/>
    <linearGradient id="Adsız_degrade_1311-10" data-name="Adsız degrade 1311" x1="828.65" x2="828.65" y2="130.22" xlink:href="#Adsız_degrade_1311"/>
    <linearGradient id="Adsız_degrade_1311-11" data-name="Adsız degrade 1311" x1="831.55" x2="831.55" y2="130.22" xlink:href="#Adsız_degrade_1311"/>
    <linearGradient id="Adsız_degrade_1311-12" data-name="Adsız degrade 1311" x1="834.45" y1="136.65" x2="834.45" y2="130.22" xlink:href="#Adsız_degrade_1311"/>
    <linearGradient id="Adsız_degrade_3-3" data-name="Adsız degrade 3" x1="879.27" x2="879.27" xlink:href="#Adsız_degrade_3"/>
    <linearGradient id="Adsız_degrade_1300-5" data-name="Adsız degrade 1300" x1="895.06" x2="895.06" xlink:href="#Adsız_degrade_1300"/>
    <linearGradient id="Adsız_degrade_1300-6" data-name="Adsız degrade 1300" x1="863.48" y1="119.81" x2="863.48" y2="132.91" xlink:href="#Adsız_degrade_1300"/>
    <linearGradient id="Adsız_degrade_1311-13" data-name="Adsız degrade 1311" x1="875.89" x2="875.89" y2="130.22" xlink:href="#Adsız_degrade_1311"/>
    <linearGradient id="Adsız_degrade_1311-14" data-name="Adsız degrade 1311" x1="878.79" x2="878.79" y2="130.22" xlink:href="#Adsız_degrade_1311"/>
    <linearGradient id="Adsız_degrade_1311-15" data-name="Adsız degrade 1311" x1="881.69" x2="881.69" y2="130.22" xlink:href="#Adsız_degrade_1311"/>
    <linearGradient id="Adsız_degrade_1311-16" data-name="Adsız degrade 1311" x1="884.59" x2="884.59" y2="130.22" xlink:href="#Adsız_degrade_1311"/>
    <linearGradient id="Adsız_degrade_1311-17" data-name="Adsız degrade 1311" x1="887.49" x2="887.49" y2="130.22" xlink:href="#Adsız_degrade_1311"/>
    <linearGradient id="Adsız_degrade_1311-18" data-name="Adsız degrade 1311" x1="890.4" y1="136.65" x2="890.4" y2="130.22" xlink:href="#Adsız_degrade_1311"/>
    <linearGradient id="Adsız_degrade_3-4" data-name="Adsız degrade 3" x1="932.96" x2="932.96" xlink:href="#Adsız_degrade_3"/>
    <linearGradient id="Adsız_degrade_1300-7" data-name="Adsız degrade 1300" x1="948.75" x2="948.75" xlink:href="#Adsız_degrade_1300"/>
    <linearGradient id="Adsız_degrade_1300-8" data-name="Adsız degrade 1300" x1="917.17" y1="119.81" x2="917.17" y2="132.91" xlink:href="#Adsız_degrade_1300"/>
    <linearGradient id="Adsız_degrade_1311-19" data-name="Adsız degrade 1311" x1="929.58" x2="929.58" y2="130.22" xlink:href="#Adsız_degrade_1311"/>
    <linearGradient id="Adsız_degrade_1311-20" data-name="Adsız degrade 1311" x1="932.48" x2="932.48" y2="130.22" xlink:href="#Adsız_degrade_1311"/>
    <linearGradient id="Adsız_degrade_1311-21" data-name="Adsız degrade 1311" x1="935.38" x2="935.38" y2="130.22" xlink:href="#Adsız_degrade_1311"/>
    <linearGradient id="Adsız_degrade_1311-22" data-name="Adsız degrade 1311" x1="938.28" x2="938.28" y2="130.22" xlink:href="#Adsız_degrade_1311"/>
    <linearGradient id="Adsız_degrade_1311-23" data-name="Adsız degrade 1311" x1="941.19" x2="941.19" y2="130.22" xlink:href="#Adsız_degrade_1311"/>
    <linearGradient id="Adsız_degrade_1311-24" data-name="Adsız degrade 1311" x1="944.09" y1="136.65" x2="944.09" y2="130.22" xlink:href="#Adsız_degrade_1311"/>
    <linearGradient id="Adsız_degrade_3-5" data-name="Adsız degrade 3" x1="988.65" x2="988.65" xlink:href="#Adsız_degrade_3"/>
    <linearGradient id="Adsız_degrade_1300-9" data-name="Adsız degrade 1300" x1="1004.44" x2="1004.44" xlink:href="#Adsız_degrade_1300"/>
    <linearGradient id="Adsız_degrade_1300-10" data-name="Adsız degrade 1300" x1="972.86" y1="119.81" x2="972.86" y2="132.91" xlink:href="#Adsız_degrade_1300"/>
    <linearGradient id="Adsız_degrade_1311-25" data-name="Adsız degrade 1311" x1="985.27" x2="985.27" y2="130.22" xlink:href="#Adsız_degrade_1311"/>
    <linearGradient id="Adsız_degrade_1311-26" data-name="Adsız degrade 1311" x1="988.17" x2="988.17" y2="130.22" xlink:href="#Adsız_degrade_1311"/>
    <linearGradient id="Adsız_degrade_1311-27" data-name="Adsız degrade 1311" x1="991.07" x2="991.07" y2="130.22" xlink:href="#Adsız_degrade_1311"/>
    <linearGradient id="Adsız_degrade_1311-28" data-name="Adsız degrade 1311" x1="993.98" x2="993.98" y2="130.22" xlink:href="#Adsız_degrade_1311"/>
    <linearGradient id="Adsız_degrade_1311-29" data-name="Adsız degrade 1311" x1="996.88" x2="996.88" y2="130.22" xlink:href="#Adsız_degrade_1311"/>
    <linearGradient id="Adsız_degrade_1311-30" data-name="Adsız degrade 1311" x1="999.78" y1="136.65" x2="999.78" y2="130.22" xlink:href="#Adsız_degrade_1311"/>
    <linearGradient id="Adsız_degrade_3-6" data-name="Adsız degrade 3" x1="1039.66" x2="1039.66" xlink:href="#Adsız_degrade_3"/>
    <linearGradient id="Adsız_degrade_1300-11" data-name="Adsız degrade 1300" x1="1055.45" x2="1055.45" xlink:href="#Adsız_degrade_1300"/>
    <linearGradient id="Adsız_degrade_1300-12" data-name="Adsız degrade 1300" x1="1023.87" y1="119.81" x2="1023.87" y2="132.91" xlink:href="#Adsız_degrade_1300"/>
    <linearGradient id="Adsız_degrade_1311-31" data-name="Adsız degrade 1311" x1="1036.28" x2="1036.28" y2="130.22" xlink:href="#Adsız_degrade_1311"/>
    <linearGradient id="Adsız_degrade_1311-32" data-name="Adsız degrade 1311" x1="1039.19" x2="1039.19" y2="130.22" xlink:href="#Adsız_degrade_1311"/>
    <linearGradient id="Adsız_degrade_1311-33" data-name="Adsız degrade 1311" x1="1042.09" x2="1042.09" y2="130.22" xlink:href="#Adsız_degrade_1311"/>
    <linearGradient id="Adsız_degrade_1311-34" data-name="Adsız degrade 1311" x1="1044.99" x2="1044.99" y2="130.22" xlink:href="#Adsız_degrade_1311"/>
    <linearGradient id="Adsız_degrade_1311-35" data-name="Adsız degrade 1311" x1="1047.89" x2="1047.89" y2="130.22" xlink:href="#Adsız_degrade_1311"/>
    <linearGradient id="Adsız_degrade_1311-36" data-name="Adsız degrade 1311" x1="1050.79" y1="136.65" x2="1050.79" y2="130.22" xlink:href="#Adsız_degrade_1311"/>
    <linearGradient id="linear-gradient" x1="1098.61" y1="152.27" x2="1089.45" y2="130.17" gradientUnits="userSpaceOnUse">
      <stop offset="0" stop-color="#dbd3e1"/>
      <stop offset="1" stop-color="#000"/>
    </linearGradient>
    <linearGradient id="linear-gradient-2" x1="1143.62" y1="152.27" x2="1134.46" y2="130.17" xlink:href="#linear-gradient"/>
  </defs>
  <path class="cls-61" d="M15.63,105.51s276.18,49.71,292.92,50.16C381.09,67.38,0,67.38,0,67.38l15.63,38.14Z"/>
  <g>
    <g>
      <path class="cls-23" d="M1391.73,52.7v98.23c0,1.83,0,4.99-3.31,4.99H313.21c-3.31,0-3.31-3.16-3.31-4.99V49.95c0-2.15,1.75-3.9,3.9-3.9h1071.28c3.67,0,6.65,2.98,6.65,6.65Z"/>
      <path class="cls-23" d="M1391.73,52.53v2.21c0-3.74-3.02-6.76-6.76-6.76H316.66c-3.74,0-6.76,3.02-6.76,6.76v-1.93c0-3.67,2.93-6.67,6.59-6.75.06,0,.11,0,.17,0h1068.58c3.58,0,6.48,2.9,6.48,6.48Z"/>
      <path class="cls-64" d="M590.9,95.38c-1.12.88-2.22,1.79-3.31,2.73.17-.2,1.08-1.2,3.31-2.73Z"/>
      <path class="cls-25" d="M590.9,95.38c-1.12.88-2.22,1.79-3.31,2.73.17-.2,1.08-1.2,3.31-2.73Z"/>
      <path class="cls-25" d="M946.35,46.05c-9.12,23.55-39.65,55.36-139.75,38.47-132.38-22.35-177.19,10.91-179.22,12.47,14.45-14.18,40.1-21.46,65.65-25.07-68.82,5.49-94.07,17.91-102.13,23.46,40.53-32.04,103.38-31.01,103.38-31.01-113.02-5.95-172.82,63.66-173.71,64.7,17.39-42.93,45.49-65.53,72.44-83.01h353.34Z"/>
      <path class="cls-25" d="M487.99,156.07l-157.66-.17c-7.24-7.39-12.35-15.14-13.94-24.13-1.62-9.13-.04-18.53,4.12-26.81,1.43-2.85,3.18-5.95,5.22-8.91,3.58-5.21,8.07-10.01,13.37-12.32-.34.46-18.77,25.49,8.32,44.68-.27-.41-5.86-8.76-2.71-20.04,0,0,1.18,21.62,38.82,33.86-1.66-.61-12.44-5.01-16.21-18.51.34.66,12.03,23.03,120.67,32.36Z"/>
      <path class="cls-25" d="M1385.25,46.05h-154.18c-.18.65-.37,1.29-.56,1.93-16.61,55.9-68.68,77.43-72.73,79.02,22.78-10.02,27.19-42.25,27.19-42.25-28.73,36.05-172.67,71.18-172.67,71.18h300.82c1.99.17,5.23.34,9.24,0,5.98-.5,13.69-2.14,21.61-6.56,16.58-9.24,22.75-24.37,24.31-28.58,0,0-1.66,16.16-5.39,20.73,0,0,25.69-11.33,23.76-48.85,0,0,2.47,5.28,5.06,12.91v-53.04c0-3.58-2.9-6.48-6.48-6.48Z"/>
      <g>
        <path class="cls-53" d="M391.53,87.65c-1.21-.69-2.54-1.12-4.01-1.29l-1.02.65c-1.24.79-2.39,1.7-3.42,2.71.91-.38,1.88-.57,2.93-.57,1.44,0,2.74.34,3.89,1.02,1.14.68,2.05,1.59,2.71,2.74.66,1.15.99,2.45.99,3.91s-.33,2.73-.99,3.89c-.66,1.16-1.56,2.07-2.71,2.74-1.15.67-2.44,1-3.89,1s-2.7-.33-3.83-1c-1.14-.66-2.03-1.58-2.67-2.74-.65-1.16-.97-2.45-.97-3.89,0-.23,0-.45.03-.66-.71,1.51-1.27,3.08-1.69,4.65.57,1.1,1.19,2.01,1.74,2.74.85,1.13,1.96,2.05,3.33,2.74,1.37.69,2.89,1.04,4.57,1.04,1.96,0,3.71-.46,5.26-1.38,1.55-.92,2.76-2.17,3.66-3.76.89-1.59,1.33-3.38,1.33-5.36s-.47-3.82-1.41-5.4c-.94-1.59-2.22-2.84-3.83-3.76Z"/>
        <path class="cls-53" d="M417.78,87.63c-1.6-.91-3.43-1.36-5.49-1.36s-3.94.45-5.55,1.36c-1.61.91-2.88,2.16-3.81,3.74-.93,1.59-1.39,3.4-1.39,5.44s.47,3.81,1.39,5.4c.93,1.59,2.2,2.83,3.81,3.74,1.61.91,3.46,1.36,5.55,1.36s3.9-.45,5.51-1.36c1.61-.91,2.88-2.15,3.81-3.74.93-1.59,1.39-3.39,1.39-5.4-.03-2.04-.5-3.85-1.43-5.44-.93-1.59-2.2-2.83-3.79-3.74ZM418.82,100.72c-.65,1.14-1.53,2.05-2.67,2.72-1.14.67-2.42,1-3.87,1s-2.74-.33-3.89-1c-1.14-.66-2.05-1.57-2.71-2.72-.66-1.15-.99-2.45-.99-3.91s.33-2.77.99-3.93c.66-1.16,1.56-2.07,2.71-2.74,1.15-.67,2.44-1,3.89-1s2.73.33,3.87,1c1.13.67,2.02,1.58,2.67,2.74.65,1.16.97,2.47.97,3.93,0,1.46-.32,2.77-.97,3.91Z"/>
        <path class="cls-53" d="M441.59,86.8c-.68-.38-1.68-.56-3-.56-1.49,0-2.87.35-4.12,1.06-.97.54-1.78,1.24-2.46,2.09v-1.34c0-.5-.14-.89-.41-1.17-.27-.27-.67-.41-1.18-.41s-.92.14-1.2.41c-.29.28-.43.67-.43,1.17v17.49c0,.5.14.89.43,1.17.28.27.68.41,1.2.41s.91-.14,1.18-.41c.27-.28.41-.67.41-1.17v-11.22c0-1.16.34-2.15,1.05-2.98.7-.83,1.63-1.43,2.8-1.8,1.17-.36,2.52-.46,4.04-.28.41.05.78.08,1.1.08s.6-.08.85-.23c.24-.15.41-.41.48-.76.18-.66-.07-1.18-.76-1.55Z"/>
        <path class="cls-53" d="M459.54,96.6c-1.12-.59-2.65-1.05-4.59-1.38-1.42-.25-2.51-.53-3.27-.85-.76-.31-1.29-.67-1.59-1.08-.3-.4-.45-.88-.45-1.43,0-.81.41-1.47,1.24-1.98.83-.52,1.91-.77,3.25-.77,1.06,0,2,.16,2.82.47.83.32,1.56.81,2.21,1.49.31.33.69.53,1.14.61.45.07.85,0,1.18-.23.39-.23.6-.53.64-.92.04-.39-.08-.76-.37-1.12-.77-.95-1.79-1.72-3.05-2.28-1.26-.56-2.76-.85-4.49-.85-1.37,0-2.64.21-3.81.64-1.18.43-2.12,1.07-2.85,1.93-.72.86-1.08,1.93-1.08,3.21,0,1.41.6,2.62,1.8,3.63,1.2,1.01,3.1,1.72,5.71,2.16,2.01.33,3.44.78,4.27,1.36.84.58,1.26,1.3,1.26,2.15-.03.88-.46,1.62-1.3,2.21-.84.59-2.15.89-3.93.89-1.21,0-2.32-.19-3.33-.59-1.01-.39-1.79-.91-2.36-1.57-.28-.3-.64-.48-1.06-.53-.42-.05-.85.07-1.26.38-.36.28-.57.63-.62,1.06-.05.43.08.81.39,1.13.9.95,2.11,1.69,3.62,2.21,1.51.52,3.06.77,4.66.77,1.7,0,3.17-.26,4.41-.79,1.24-.53,2.2-1.24,2.88-2.14.68-.89,1.03-1.93,1.03-3.12,0-.96-.24-1.83-.72-2.61-.48-.78-1.28-1.47-2.4-2.06Z"/>
        <path class="cls-53" d="M485.4,86.46c-.49,0-.89.15-1.18.44-.3.29-.45.67-.45,1.15v11c0,1.03-.28,1.95-.85,2.74-.57.79-1.34,1.42-2.32,1.89-.98.47-2.08.7-3.29.7s-2.4-.25-3.4-.74c-1.01-.49-1.81-1.22-2.4-2.19-.59-.97-.89-2.22-.89-3.76v-9.63c0-.45-.16-.83-.46-1.13-.31-.3-.7-.45-1.16-.45s-.85.15-1.16.45c-.31.3-.46.68-.46,1.13v9.63c0,2.09.41,3.85,1.24,5.29.82,1.43,1.95,2.53,3.38,3.27s3.06,1.11,4.89,1.11c1.67,0,3.2-.36,4.57-1.09.9-.48,1.67-1.07,2.32-1.77v1.01c0,.5.15.9.45,1.19.3.29.69.43,1.18.43s.89-.15,1.2-.43c.31-.29.46-.69.46-1.19v-17.46c0-.48-.16-.86-.46-1.15-.3-.29-.71-.44-1.19-.44Z"/>
        <path class="cls-53" d="M510.01,104.85l-7.88-9.48,7.53-6.62c.34-.3.52-.64.54-1,.03-.36-.12-.71-.42-1.04-.31-.33-.65-.5-1.03-.53-.37-.03-.73.11-1.06.41l-10.45,9.21v-16.66c0-.45-.15-.82-.45-1.11-.3-.29-.69-.44-1.18-.44s-.85.15-1.14.44-.44.66-.44,1.11v26.41c0,.45.15.83.44,1.12.3.29.68.43,1.14.43.49,0,.88-.15,1.18-.43.3-.29.45-.66.45-1.12v-5.9l2.59-2.28,7.78,9.34c.29.35.63.55,1.03.58.4.04.78-.09,1.14-.4.39-.3.59-.64.62-1.02.03-.37-.1-.73-.38-1.05Z"/>
      </g>
      <path class="cls-25" d="M375.69,120.97s-7.96-10.28-4.82-20.92c2.24-7.58,8.32-11.8,9.75-12.51,1.14-.57,2.31-.87,2.31-.87,1.26-.33,2.35-.4,3.08-.4-.96.61-2.75,1.84-4.5,3.8-10.37,11.55-5.82,30.9-5.82,30.9Z"/>
      <circle class="cls-60" cx="624.78" cy="129.24" r="6.85"/>
      <circle class="cls-56" cx="624.78" cy="129.24" r="5.82"/>
      <circle class="cls-22" cx="625.58" cy="128.26" r="4.53"/>
      <g>
        <path class="cls-62" d="M674.45,121.56v4.7c0,.29.21.5.5.5h.64v5.76c0,.64-.5,1.14-1.14,1.14h-5.37v1.98c0,.64-.5,1.16-1.14,1.16h-2.64v1.48c0,.62-.5,1.14-1.14,1.14h-9.42c-.64,0-1.14-.52-1.14-1.14v-1.48h-2.64c-.64,0-1.14-.52-1.14-1.16v-1.98h-5.37c-.64,0-1.14-.5-1.14-1.14v-5.76h.64c.29,0,.5-.21.5-.5v-4.7c0-.29-.21-.52-.5-.52h-.64v-5.89c0-.64.5-1.14,1.14-1.14h29.99c.64,0,1.14.5,1.14,1.14v5.89h-.64c-.29,0-.5.23-.5.52Z"/>
        <path class="cls-36" d="M644.75,115.3c0-.48.69-.85,1.16-.85h26.04c.11,0,1.55.09,1.55.2.48,0,.85.63.85,1.11v5.28l-.48.08c-.22,0-.38.29-.38.5v4.22c0,.22.16.49.38.49l.48.09v4.92s0,.23,0,.25c-.02.57-.47,1.01-1.04,1.01h-4.96v1.83c0,.59-.46,1.06-1.05,1.06h-2.44v1.37c0,.57-.46,1.05-1.05,1.05h-8.7c-.59,0-1.05-.48-1.05-1.05v-1.37h-2.44c-.59,0-1.05-.48-1.05-1.06v-1.83h-4.96c-.59,0-1.05-.46-1.05-1.05v-5.31l.48-.1c.22,0,.38-.29.38-.51v-4.33c0-.22-.16-.53-.38-.53l-.48-.11v-3.83c0-.11.09-1.51.2-1.51Z"/>
        <path class="cls-31" d="M646.18,115.46c0-.32.87-.57,1.19-.57h23.89c.22,0,1.29.18,1.29.39.32,0,.57.76.57,1.08v4.67l-.32.17c-.14,0-.25.34-.25.48v3.74c0,.14.11.48.25.48l.32.18v4.36s0,.19,0,.22c-.04.5-.45.88-.95.88h-4.55v1.68c0,.54-.43.97-.96.97h-2.23v1.26c0,.53-.43.96-.96.96h-7.98c-.54,0-.96-.44-.96-.96v-1.26h-2.23c-.54,0-.96-.44-.96-.97v-1.68h-4.55c-.54,0-.96-.43-.96-.96v-4.87l.32-.2c.14,0,.25-.37.25-.52v-3.97c0-.14-.11-.54-.25-.54l-.32-.22v-3.53c0-.22.18-1.27.39-1.27Z"/>
        <path class="cls-24" d="M647.61,115.62c0-.16,1.05-.28,1.21-.28h21.74c.33,0,1.04.27,1.04.59.16,0,.28.89.28,1.05v4.05l-.16.25c-.07,0-.13.39-.13.47v3.26c0,.07.05.47.13.47l.16.27v3.8s0,.15-.01.19c-.06.43-.42.75-.86.75h-4.14v1.53c0,.49-.39.88-.88.88h-2.03v1.14c0,.48-.39.88-.88.88h-7.26c-.49,0-.88-.4-.88-.88v-1.14h-2.03c-.49,0-.88-.4-.88-.88v-1.53h-4.14c-.49,0-.88-.39-.88-.88v-4.43l.16-.3c.07,0,.13-.45.13-.52v-3.6c0-.07-.05-.55-.13-.55l-.16-.33v-3.22c0-.33.27-1.03.59-1.03Z"/>
        <path class="cls-22" d="M669.87,115.78h-20.83c-.44,0-.79.35-.79.79v12.07c0,.44.35.79.79.79h3.73v1.38c0,.44.35.79.79.79h1.83v1.03c0,.44.35.79.79.79h6.54c.44,0,.79-.35.79-.79v-1.03h1.83c.44,0,.79-.35.79-.79v-1.38h3.73c.44,0,.79-.35.79-.79v-12.07c0-.44-.35-.79-.79-.79Z"/>
      </g>
      <path class="cls-64" d="M680.73,105.51h-42.55c-.62,0-1.14.52-1.14,1.14v34.36c0,.64.52,1.14,1.14,1.14h42.55c.62,0,1.14-.5,1.14-1.14v-34.36c0-.62-.52-1.14-1.14-1.14ZM680.21,138.78c0,.71-.58,1.29-1.29,1.29h-39.08c-.62,0-1.14-.52-1.14-1.14v-30.18c0-.64.52-1.14,1.14-1.14h39.23c.62,0,1.14.5,1.14,1.14v30.03Z"/>
      <path class="cls-22" d="M679.07,107.61h-39.23c-.62,0-1.14.5-1.14,1.14v30.18c0,.62.52,1.14,1.14,1.14h39.08c.71,0,1.29-.58,1.29-1.29v-30.03c0-.64-.52-1.14-1.14-1.14ZM679.4,138.14h-.37c-.54,0-.96.42-.96.96v.33h-37.23v-.33c0-.54-.42-.96-.96-.96h-.37v-28.33c0-.1.02-.19.04-.27h.33c.5,0,.91-.39.96-.87h37.25c.04.48.44.87.94.87h.33c.02.08.04.17.04.27v28.33Z"/>
      <path class="cls-6" d="M679.36,109.54h-.33c-.5,0-.91-.39-.94-.87h-37.25c-.06.48-.46.87-.96.87h-.33c-.02.08-.04.17-.04.27v28.33h.37c.54,0,.96.42.96.96v.33h37.23v-.33c0-.54.42-.96.96-.96h.37v-28.33c0-.1-.02-.19-.04-.27ZM675.59,121.04h-.64c-.29,0-.5.23-.5.52v4.7c0,.29.21.5.5.5h.64v5.76c0,.64-.5,1.14-1.14,1.14h-5.37v1.98c0,.64-.5,1.16-1.14,1.16h-2.64v1.48c0,.62-.5,1.14-1.14,1.14h-9.42c-.64,0-1.14-.52-1.14-1.14v-1.48h-2.64c-.64,0-1.14-.52-1.14-1.16v-1.98h-5.37c-.64,0-1.14-.5-1.14-1.14v-5.76h.64c.29,0,.5-.21.5-.5v-4.7c0-.29-.21-.52-.5-.52h-.64v-5.89c0-.64.5-1.14,1.14-1.14h29.99c.64,0,1.14.5,1.14,1.14v5.89Z"/>
      <circle class="cls-55" cx="735.19" cy="120" r="4.38"/>
      <circle class="cls-55" cx="735.19" cy="132.23" r="4.63"/>
      <circle class="cls-95" cx="735.19" cy="120" r="3.69"/>
      <circle class="cls-12" cx="735.19" cy="132.23" r="3.69"/>
      <ellipse class="cls-55" cx="734.54" cy="118.98" rx=".71" ry=".46"/>
      <ellipse class="cls-55" cx="736.84" cy="119.65" rx=".37" ry=".83"/>
      <ellipse class="cls-55" cx="734.94" cy="131.12" rx=".71" ry=".46"/>
      <ellipse class="cls-55" cx="737.24" cy="131.79" rx=".37" ry=".83"/>
      <text class="cls-99" transform="translate(590.78 131.18)"><tspan x="0" y="0">ON</tspan><tspan class="cls-96" x="9.97" y="0">/</tspan><tspan x="11.97" y="0">OFF</tspan></text>
      <text class="cls-99" transform="translate(644.18 102)"><tspan class="cls-97" x="0" y="0">C</tspan><tspan x="4.27" y="0">ONSOLE</tspan></text>
      <text class="cls-98" transform="translate(696.18 92.17)"><tspan x="0" y="0">USB</tspan></text>
      <text class="cls-99" transform="translate(761.92 99.69)"><tspan class="cls-100" x="0" y="0">W</tspan><tspan x="6.57" y="0">AN</tspan></text>
      <text class="cls-99" transform="translate(816.73 99.69)"><tspan x="0" y="0">LAN1</tspan></text>
      <text class="cls-99" transform="translate(870.35 99.69)"><tspan x="0" y="0">LAN2</tspan></text>
      <text class="cls-99" transform="translate(923.8 99.69)"><tspan x="0" y="0">LAN3 </tspan></text>
      <text class="cls-99" transform="translate(977.93 99.69)"><tspan x="0" y="0">LAN4</tspan></text>
      <text class="cls-99" transform="translate(1031.48 99.69)"><tspan x="0" y="0">LAN5</tspan></text>
      <text class="cls-99" transform="translate(1083.32 116.13)"><tspan x="0" y="0">SFP1</tspan></text>
      <text class="cls-99" transform="translate(1126.96 116.13)"><tspan x="0" y="0">SF</tspan><tspan class="cls-103" x="7.58" y="0">P</tspan><tspan x="11.9" y="0">2</tspan></text>
      <path class="cls-64" d="M692.74,140.09h-5.31v-5.31h3.08l-.05.16c-.06.2-.09.4-.09.58,0,1.05.83,1.88,1.88,1.88.12,0,.23-.02.34-.04l.14-.02v2.75ZM687.67,139.85h4.82v-2.22c-.08,0-.16.02-.24.02-1.19,0-2.13-.93-2.13-2.13,0-.16.02-.32.06-.49h-2.51v4.82Z"/>
      <path class="cls-64" d="M690.51,104.25h-3.08v-5.29h5.31v2.73l-.14-.02c-.11-.02-.22-.04-.34-.04-1.04,0-1.88.84-1.88,1.88,0,.18.03.38.09.58l.05.16ZM687.67,104h2.51c-.04-.17-.06-.33-.06-.49,0-1.17.95-2.13,2.13-2.13.09,0,.17,0,.24.02v-2.2h-4.82v4.8Z"/>
      <path class="cls-64" d="M726.11,104.25h-3.06l.05-.16c.06-.2.09-.4.09-.58,0-1.04-.84-1.88-1.88-1.88-.13,0-.26.02-.37.04l-.14.02v-2.73h5.31v5.29ZM723.38,104h2.49v-4.8h-4.82v2.2c.08-.01.17-.02.26-.02,1.17,0,2.13.95,2.13,2.13,0,.16-.02.32-.06.49Z"/>
      <path class="cls-64" d="M726.11,140.09h-5.31v-2.75l.14.02c.11.02.24.04.37.04,1.04,0,1.88-.84,1.88-1.88,0-.18-.03-.38-.09-.58l-.05-.16h3.06v5.31ZM721.05,139.85h4.82v-4.82h-2.49c.04.17.06.33.06.49,0,1.17-.95,2.13-2.13,2.13-.09,0-.18,0-.26-.02v2.22Z"/>
      <path class="cls-64" d="M692.74,140.09h-5.31v-5.31h3.08l-.05.16c-.06.2-.09.4-.09.58,0,1.05.83,1.88,1.88,1.88.12,0,.23-.02.34-.04l.14-.02v2.75ZM687.67,139.85h4.82v-2.22c-.08,0-.16.02-.24.02-1.19,0-2.13-.93-2.13-2.13,0-.16.02-.32.06-.49h-2.51v4.82Z"/>
      <path class="cls-64" d="M690.51,104.25h-3.08v-5.29h5.31v2.73l-.14-.02c-.11-.02-.22-.04-.34-.04-1.04,0-1.88.84-1.88,1.88,0,.18.03.38.09.58l.05.16ZM687.67,104h2.51c-.04-.17-.06-.33-.06-.49,0-1.17.95-2.13,2.13-2.13.09,0,.17,0,.24.02v-2.2h-4.82v4.8Z"/>
      <path class="cls-3" d="M721.28,123h-28.66c-.89,0-1.62.73-1.62,1.62v10.32c0,.89.71,1.6,1.6,1.6h28.7c.89,0,1.6-.71,1.6-1.6v-10.32c0-.89-.73-1.62-1.62-1.62Z"/>
      <path class="cls-64" d="M726.11,104.25h-3.06l.05-.16c.06-.2.09-.4.09-.58,0-1.04-.84-1.88-1.88-1.88-.13,0-.26.02-.37.04l-.14.02v-2.73h5.31v5.29ZM723.38,104h2.49v-4.8h-4.82v2.2c.08-.01.17-.02.26-.02,1.17,0,2.13.95,2.13,2.13,0,.16-.02.32-.06.49Z"/>
      <path class="cls-64" d="M726.11,140.09h-5.31v-2.75l.14.02c.11.02.24.04.37.04,1.04,0,1.88-.84,1.88-1.88,0-.18-.03-.38-.09-.58l-.05-.16h3.06v5.31ZM721.05,139.85h4.82v-4.82h-2.49c.04.17.06.33.06.49,0,1.17-.95,2.13-2.13,2.13-.09,0-.18,0-.26-.02v2.22Z"/>
      <path class="cls-11" d="M719.69,125.81v1.6c0,.39-.31.69-.69.69h-25.56c-.37,0-.67-.31-.67-.69v-1.6c0-.37.31-.67.67-.67h25.56c.39,0,.69.31.69.67Z"/>
      <path class="cls-3" d="M721.28,115.2h-28.66c-.89,0-1.62-.73-1.62-1.62v-10.32c0-.89.71-1.6,1.6-1.6h28.7c.89,0,1.6.71,1.6,1.6v10.32c0,.89-.73,1.62-1.62,1.62Z"/>
      <path class="cls-11" d="M719.69,112.38v-1.6c0-.39-.31-.69-.69-.69h-25.56c-.37,0-.67.31-.67.69v1.6c0,.37.31.67.67.67h25.56c.39,0,.69-.31.69-.67Z"/>
      <path class="cls-26" d="M692.61,99.08v2.47c-.12-.02-.23-.04-.37-.04-1.12,0-2,.91-2,2,0,.21.04.42.1.62h-2.79v-5.05h5.07Z"/>
      <path class="cls-26" d="M725.99,99.08v5.05h-2.77c.06-.19.1-.4.1-.62,0-1.1-.91-2-2-2-.13,0-.27.02-.39.04v-2.47h5.07Z"/>
      <path class="cls-26" d="M692.61,137.49v2.48h-5.07v-5.07h2.79c-.06.19-.1.4-.1.62,0,1.12.89,2,2,2,.13,0,.25-.02.37-.04Z"/>
      <path class="cls-64" d="M685.51,96.9v45.24h42.54v-45.24h-42.54ZM725.99,139.97h-38.44v-40.89h38.44v40.89Z"/>
      <path class="cls-16" d="M725.99,104.13h-2.77c.06-.19.1-.4.1-.62,0-1.1-.91-2-2-2-.13,0-.27.02-.39.04v-2.47h-28.31v2.47c-.12-.02-.23-.04-.37-.04-1.12,0-2,.91-2,2,0,.21.04.42.1.62h-2.79v30.78h2.79c-.06.19-.1.4-.1.62,0,1.12.89,2,2,2,.13,0,.25-.02.37-.04v2.48h28.31v-2.48c.12.02.25.04.39.04,1.1,0,2-.89,2-2,0-.21-.04-.42-.1-.62h2.77v-30.78ZM722.72,134.94c0,.89-.71,1.6-1.6,1.6h-28.7c-.89,0-1.6-.71-1.6-1.6v-10.32c0-.89.73-1.62,1.62-1.62h28.66c.89,0,1.62.73,1.62,1.62v10.32ZM722.72,113.53c0,.73-.58,1.31-1.31,1.31h-29.27c-.73,0-1.31-.58-1.31-1.31v-9.44c0-.89.71-1.6,1.6-1.6h28.7c.89,0,1.6.71,1.6,1.6v9.44Z"/>
      <path class="cls-26" d="M725.99,134.9v5.07h-5.07v-2.48c.12.02.25.04.39.04,1.1,0,2-.89,2-2,0-.21-.04-.42-.1-.62h2.77Z"/>
      <g class="cls-102">
        <path class="cls-8" d="M1391.73,147.24v5.56c0,1.72-1.4,3.12-3.12,3.12H312.46c-1.41,0-2.56-1.15-2.56-2.56v-6.13c0,3.74,3.02,6.76,6.76,6.76h1068.3c3.74,0,6.76-3.02,6.76-6.76Z"/>
      </g>
      <g>
        <g>
          <g>
            <g>
              <path class="cls-34" d="M776.06,111.98h-12.91v-3.04h12.91v3.04ZM763.39,111.74h12.43v-2.57h-12.43v2.57Z"/>
              <path class="cls-34" d="M776.06,111.98h-12.91v-3.04h12.91v3.04ZM763.39,111.74h12.43v-2.57h-12.43v2.57Z"/>
              <path class="cls-34" d="M776.06,111.98h-12.91v-3.04h12.91v3.04ZM763.39,111.74h12.43v-2.57h-12.43v2.57Z"/>
              <path class="cls-34" d="M776.06,111.98h-12.91v-3.04h12.91v3.04ZM763.39,111.74h12.43v-2.57h-12.43v2.57Z"/>
              <path class="cls-34" d="M751.82,117.59c-.1-.12-.15-.28-.15-.45v-4.69c0-.1.02-.19.05-.26l.22.09s-.02.1-.02.16v4.69c0,.11.03.21.09.31l-.19.14Z"/>
              <path class="cls-34" d="M754.16,130.5h-.7v-6.24h.7v6.24ZM753.69,130.27h.23v-5.77h-.23v5.77Z"/>
              <path class="cls-34" d="M785.29,136.97h-.24v-.12s-.01-19.16-.01-19.16h.24v.12s.01,6.45.01,6.45h.47v6.24h-.47v6.47ZM785.28,130.27h.24v-5.77h-.24v5.77Z"/>
              <path class="cls-34" d="M776.06,111.98h-12.91v-3.04h12.91v3.04ZM763.39,111.74h12.43v-2.57h-12.43v2.57Z"/>
              <polygon class="cls-34" points="758.72 131.63 758.49 131.63 758.48 131.51 758.48 117.7 758.71 117.7 758.72 117.81 758.72 131.63"/>
              <g>
                <path class="cls-7" d="M785.29,136.97h-31.36v-19.28h4.8s.08,0,.11,0l.12-.03c.24-.08.4-.28.4-.52v-4.69c0-.2-.12-.38-.32-.49l-.44-.22h22.06l-.42.22c-.19.1-.3.28-.3.49v4.69c0,.31.25.55.57.55h4.81v19.28Z"/>
                <path class="cls-27" d="M758.21,111.66h22.79l-.4.21c-.14.08-.34.27-.34.42l-.23,1.09s-.03.21-.03.23v2.98c0,.23.19.6.42.6l1.39.37s.33.05.36.05h2.42l.18.65v17.46h-29.79v-17.99l.52-.13h.97s.26-.03.26-.05l2.06-.5s.06-.01.08-.02l.09-.04c.18-.06.3-.34.3-.52v-2.61s-.02-.25-.03-.26l-.26-1.33c0-.15-.2-.34-.35-.42l-.41-.21Z"/>
                <path class="cls-14" d="M757.84,111.57h23.52l-.38.2c-.09.05-.38.26-.38.36l-.46.88s-.06.16-.06.21v2.81c0,.15.13.65.28.65l.93.74c0,.06.26.1.31.1h2.28l.37.44v16.52h-28.22v-16.71l.34-.25h.89s.22-.05.22-.1l1.38-1.01s.04-.02.05-.02l.06-.04c.12-.04.2-.4.2-.52v-2.43s-.04-.22-.06-.23l-.51-1.06c0-.1-.28-.3-.38-.35l-.38-.19Z"/>
                <path class="cls-32" d="M757.47,111.48h24.25l-.36.19s-.41.25-.41.3l-.68.68s-.09.12-.09.19v2.64c0,.08.06.69.14.69l.46,1.11c0,.09.18.15.26.15h2.14l.55.22v15.58h-26.65v-15.42l.17-.38.81-.02s.18-.06.18-.13l.69-1.51s.02-.03.03-.03l.03-.05c.06-.02.1-.46.1-.51v-2.25c0-.07-.07-.18-.1-.2l-.77-.79c0-.05-.36-.26-.41-.29l-.35-.18Z"/>
                <path class="cls-28" d="M783.21,131.99h-25.08v-14.64l.73-.03s.13-.08.13-.17v-4.69c0-.1-.09-.15-.13-.17l-1.78-.89h24.98l-1.7.89s-.11.07-.11.17v4.69c0,.12.11.2.21.2h2.73v14.64Z"/>
              </g>
              <path class="cls-22" d="M788.69,107.46h-38.17c-.97,0-1.76.81-1.76,1.78v31.12c0,.99.79,1.78,1.76,1.78h38.17c.98,0,1.77-.8,1.77-1.78v-31.12c0-.98-.8-1.78-1.77-1.78ZM789.87,139.7c0,.63-.34,1.18-.84,1.5h-.02c-.11.02-.22.04-.33.04h-38.17c-.11,0-.22-.02-.32-.04-.52-.3-.86-.85-.86-1.5v-28.88c0-.97.78-1.76,1.76-1.76h37c.99,0,1.76.8,1.76,1.76v28.88Z"/>
              <rect class="cls-3" x="763.27" y="109.06" width="12.67" height="2.8"/>
              <g>
                <path class="cls-22" d="M759.04,111.86c-.09-.06-.2-.09-.32-.09h-6.27c-.18,0-.35.07-.47.2-.03.03-.06.06-.08.1-.04.05-.07.11-.08.17-.03.06-.04.13-.04.2v4.69c0,.14.04.28.12.38.02.04.05.07.08.1.12.12.29.19.47.19h6.27s.09,0,.13-.01l.12-.03c.24-.11.41-.35.41-.63v-4.69c0-.27-.14-.48-.35-.59ZM758.78,116.66c0,.18-.07.34-.18.46-.11.13-.3.2-.48.2h-5.05c-.37,0-.67-.3-.67-.66v-3.73c0-.37.31-.66.67-.66h5.05c.2,0,.37.09.48.22.13.1.18.28.18.44v3.73Z"/>
                <path class="cls-22" d="M786.75,111.77h-6.27c-.11,0-.22.03-.32.09-.21.11-.37.33-.37.59v4.69c0,.38.32.67.68.67h6.27c.38,0,.67-.3.67-.67v-4.69c0-.37-.3-.68-.67-.68ZM786.81,116.66c0,.37-.3.66-.67.66h-5.06c-.17,0-.36-.07-.47-.18-.13-.12-.2-.3-.2-.48v-3.73c0-.18.07-.35.2-.46.11-.13.3-.2.47-.2h5.06c.38,0,.67.3.67.66v3.73Z"/>
                <path class="cls-29" d="M786.81,112.93v3.73c0,.37-.3.66-.67.66h-5.06c-.17,0-.36-.07-.47-.18-.13-.12-.2-.3-.2-.48v-3.73c0-.18.07-.35.2-.46.11-.13.3-.2.47-.2h5.06c.38,0,.67.3.67.66Z"/>
              </g>
              <path class="cls-5" d="M789.87,110.82v28.88c0,.63-.34,1.18-.84,1.5h-.02c-.11.02-.22.04-.33.04h-38.17c-.11,0-.22-.02-.32-.04-.52-.3-.86-.85-.86-1.5v-28.88c0-.97.78-1.76,1.76-1.76h12.17v2.8h-4.23c-.09-.06-.2-.09-.32-.09h-6.27c-.18,0-.35.07-.47.2-.03.03-.06.06-.08.1-.04.05-.07.11-.08.17-.03.06-.04.13-.04.2v4.69c0,.14.04.28.12.38.02.04.05.07.08.1.12.12.29.19.47.19h1.58v6.56h-.47v6h.47v6.47h31.13v-6.47h.47v-6h-.47v-6.56h1.58c.38,0,.67-.3.67-.67v-4.69c0-.37-.3-.68-.67-.68h-6.27c-.11,0-.22.03-.32.09h-4.22v-2.8h12.16c.99,0,1.76.8,1.76,1.76Z"/>
              <g>
                <rect class="cls-9" x="784.84" y="124.31" width="1.11" height="6.08" rx=".02" ry=".02"/>
                <rect class="cls-43" x="753.26" y="124.31" width="1.11" height="6.08" rx=".02" ry=".02"/>
              </g>
              <g>
                <polygon class="cls-30" points="759.27 135.96 759.27 136.86 754.04 136.86 754.04 131.29 755.02 131.29 755.02 135.96 759.27 135.96"/>
                <polygon class="cls-30" points="785.17 131.29 785.17 136.86 779.95 136.86 779.95 135.96 784.19 135.96 784.19 131.29 785.17 131.29"/>
              </g>
              <g>
                <polygon class="cls-30" points="759.27 135.96 759.27 136.86 754.04 136.86 754.04 131.29 755.02 131.29 755.02 135.96 759.27 135.96"/>
                <polygon class="cls-30" points="785.17 131.29 785.17 136.86 779.95 136.86 779.95 135.96 784.19 135.96 784.19 131.29 785.17 131.29"/>
              </g>
              <g>
                <polygon class="cls-22" points="760.04 132.31 760.04 128.64 759.21 128.64 759.21 132.31 759.21 132.81 759.21 133.09 763.39 133.09 763.39 132.31 760.04 132.31"/>
                <polygon class="cls-22" points="783.03 132.31 783.03 128.64 783.86 128.64 783.86 132.31 783.86 132.81 783.86 133.09 779.68 133.09 779.68 132.31 783.03 132.31"/>
              </g>
              <g>
                <polygon class="cls-30" points="759.22 135.99 759.22 136.89 753.99 136.89 753.99 131.32 754.97 131.32 754.97 135.99 759.22 135.99"/>
                <polygon class="cls-30" points="785.12 131.32 785.12 136.89 779.9 136.89 779.9 135.99 784.14 135.99 784.14 131.32 785.12 131.32"/>
              </g>
              <path class="cls-25" d="M758.78,112.93v3.73c0,.19-.07.33-.19.46-.11.13-.3.2-.48.2h-5.04c-.37,0-.67-.3-.67-.67v-3.73c0-.37.3-.67.67-.67h5.04c.2,0,.37.09.48.22.13.11.19.28.19.45Z"/>
            </g>
            <g>
              <polygon class="cls-10" points="768.46 129.6 765.04 132.11 763.78 136.8 764.15 136.8 765.41 132.11 768.68 129.6 768.46 129.6"/>
              <polygon class="cls-52" points="771.06 129.6 768.02 132.11 766.98 136.8 767.35 136.8 768.39 132.11 771.28 129.6 771.06 129.6"/>
              <polygon class="cls-45" points="773.66 129.6 771 132.11 770.18 136.8 770.55 136.8 771.37 132.11 773.88 129.6 773.66 129.6"/>
              <polygon class="cls-47" points="776.26 129.6 773.99 132.11 773.38 136.8 773.75 136.8 774.36 132.11 776.48 129.6 776.26 129.6"/>
              <polygon class="cls-50" points="778.86 129.6 776.97 132.11 776.58 136.8 776.96 136.8 777.34 132.11 779.08 129.6 778.86 129.6"/>
              <polygon class="cls-46" points="781.46 129.6 779.95 132.11 779.79 136.8 780.16 136.8 780.32 132.11 781.68 129.6 781.46 129.6"/>
            </g>
          </g>
          <polygon class="cls-59" points="759.21 128.64 753.99 131.32 754.97 131.32 760.04 128.64 759.21 128.64"/>
          <polygon class="cls-58" points="763.39 132.31 759.22 135.99 759.22 136.89 763.39 133.09 763.39 132.31"/>
          <polygon class="cls-59" points="754.97 135.99 759.22 135.99 763.39 132.31 760.04 132.31 754.97 135.99"/>
          <polygon class="cls-13" points="760.04 128.64 760.04 132.31 754.97 135.99 754.97 131.32 760.04 128.64"/>
          <polygon class="cls-59" points="782.24 128.64 785.17 131.29 784.19 131.29 781.73 128.64 782.24 128.64"/>
          <polygon class="cls-30" points="779.68 132.31 780.21 135.99 780.21 136.89 779.68 133.09 779.68 132.31"/>
          <polygon class="cls-58" points="784.19 135.99 780.21 135.99 779.68 132.31 781.73 132.31 784.19 135.99"/>
          <polygon class="cls-13" points="781.73 128.64 781.73 132.31 784.19 135.99 784.19 131.32 781.73 128.64"/>
        </g>
        <g>
          <path class="cls-34" d="M829.78,111.98h-12.91v-3.04h12.91v3.04ZM817.11,111.74h12.43v-2.57h-12.43v2.57Z"/>
          <path class="cls-34" d="M829.78,111.98h-12.91v-3.04h12.91v3.04ZM817.11,111.74h12.43v-2.57h-12.43v2.57Z"/>
          <path class="cls-34" d="M829.78,111.98h-12.91v-3.04h12.91v3.04ZM817.11,111.74h12.43v-2.57h-12.43v2.57Z"/>
          <path class="cls-34" d="M829.78,111.98h-12.91v-3.04h12.91v3.04ZM817.11,111.74h12.43v-2.57h-12.43v2.57Z"/>
          <path class="cls-34" d="M805.53,117.59c-.1-.12-.15-.28-.15-.45v-4.69c0-.1.02-.19.05-.26l.22.09s-.02.1-.02.16v4.69c0,.11.03.21.09.31l-.19.14Z"/>
          <path class="cls-34" d="M807.87,130.5h-.7v-6.24h.7v6.24ZM807.4,130.27h.23v-5.77h-.23v5.77Z"/>
          <path class="cls-34" d="M839,136.97h-.24v-.12s-.01-19.16-.01-19.16h.24v.12s.01,6.45.01,6.45h.47v6.24h-.47v6.47ZM838.99,130.27h.24v-5.77h-.24v5.77Z"/>
          <path class="cls-34" d="M829.78,111.98h-12.91v-3.04h12.91v3.04ZM817.11,111.74h12.43v-2.57h-12.43v2.57Z"/>
          <polygon class="cls-34" points="812.44 131.63 812.2 131.63 812.19 131.51 812.19 117.7 812.43 117.7 812.44 117.81 812.44 131.63"/>
          <g>
            <path class="cls-7" d="M839,136.97h-31.36v-19.28h4.8s.08,0,.11,0l.12-.03c.24-.08.4-.28.4-.52v-4.69c0-.2-.12-.38-.32-.49l-.44-.22h22.06l-.42.22c-.19.1-.3.28-.3.49v4.69c0,.31.25.55.57.55h4.81v19.28Z"/>
            <path class="cls-27" d="M811.93,111.66h22.79l-.4.21c-.14.08-.34.27-.34.42l-.23,1.09s-.03.21-.03.23v2.98c0,.23.19.6.42.6l1.39.37s.33.05.36.05h2.42l.18.65v17.46h-29.79v-17.99l.52-.13h.97s.26-.03.26-.05l2.06-.5s.06-.01.08-.02l.09-.04c.18-.06.3-.34.3-.52v-2.61s-.02-.25-.03-.26l-.26-1.33c0-.15-.2-.34-.35-.42l-.41-.21Z"/>
            <path class="cls-14" d="M811.56,111.57h23.52l-.38.2c-.09.05-.38.26-.38.36l-.46.88s-.06.16-.06.21v2.81c0,.15.13.65.28.65l.93.74c0,.06.26.1.31.1h2.28l.37.44v16.52h-28.22v-16.71l.34-.25h.89s.22-.05.22-.1l1.38-1.01s.04-.02.05-.02l.06-.04c.12-.04.2-.4.2-.52v-2.43s-.04-.22-.06-.23l-.51-1.06c0-.1-.28-.3-.38-.35l-.38-.19Z"/>
            <path class="cls-32" d="M811.19,111.48h24.25l-.36.19s-.41.25-.41.3l-.68.68s-.09.12-.09.19v2.64c0,.08.06.69.14.69l.46,1.11c0,.09.18.15.26.15h2.14l.55.22v15.58h-26.65v-15.42l.17-.38.81-.02s.18-.06.18-.13l.69-1.51s.02-.03.03-.03l.03-.05c.06-.02.1-.46.1-.51v-2.25c0-.07-.07-.18-.1-.2l-.77-.79c0-.05-.36-.26-.41-.29l-.35-.18Z"/>
            <path class="cls-28" d="M836.93,131.99h-25.08v-14.64l.73-.03s.13-.08.13-.17v-4.69c0-.1-.09-.15-.13-.17l-1.78-.89h24.98l-1.7.89s-.11.07-.11.17v4.69c0,.12.11.2.21.2h2.73v14.64Z"/>
          </g>
          <path class="cls-22" d="M842.4,107.46h-38.17c-.97,0-1.76.81-1.76,1.78v31.12c0,.99.79,1.78,1.76,1.78h38.17c.98,0,1.77-.8,1.77-1.78v-31.12c0-.98-.8-1.78-1.77-1.78ZM843.58,139.7c0,.63-.34,1.18-.84,1.5h-.02c-.11.02-.22.04-.33.04h-38.17c-.11,0-.22-.02-.32-.04-.52-.3-.86-.85-.86-1.5v-28.88c0-.97.78-1.76,1.76-1.76h37c.99,0,1.76.8,1.76,1.76v28.88Z"/>
          <rect class="cls-3" x="816.99" y="109.06" width="12.67" height="2.8"/>
          <g>
            <path class="cls-22" d="M812.76,111.86c-.09-.06-.2-.09-.32-.09h-6.27c-.18,0-.35.07-.47.2-.03.03-.06.06-.08.1-.04.05-.07.11-.08.17-.03.06-.04.13-.04.2v4.69c0,.14.04.28.12.38.02.04.05.07.08.1.12.12.29.19.47.19h6.27s.09,0,.13-.01l.12-.03c.24-.11.41-.35.41-.63v-4.69c0-.27-.14-.48-.35-.59ZM812.49,116.66c0,.18-.07.34-.18.46-.11.13-.3.2-.48.2h-5.05c-.37,0-.67-.3-.67-.66v-3.73c0-.37.31-.66.67-.66h5.05c.2,0,.37.09.48.22.13.1.18.28.18.44v3.73Z"/>
            <path class="cls-22" d="M840.47,111.77h-6.27c-.11,0-.22.03-.32.09-.21.11-.37.33-.37.59v4.69c0,.38.32.67.68.67h6.27c.38,0,.67-.3.67-.67v-4.69c0-.37-.3-.68-.67-.68ZM840.53,116.66c0,.37-.3.66-.67.66h-5.06c-.17,0-.36-.07-.47-.18-.13-.12-.2-.3-.2-.48v-3.73c0-.18.07-.35.2-.46.11-.13.3-.2.47-.2h5.06c.38,0,.67.3.67.66v3.73Z"/>
            <path class="cls-29" d="M840.53,112.93v3.73c0,.37-.3.66-.67.66h-5.06c-.17,0-.36-.07-.47-.18-.13-.12-.2-.3-.2-.48v-3.73c0-.18.07-.35.2-.46.11-.13.3-.2.47-.2h5.06c.38,0,.67.3.67.66Z"/>
          </g>
          <path class="cls-17" d="M843.58,110.82v28.88c0,.63-.34,1.18-.84,1.5h-.02c-.11.02-.22.04-.33.04h-38.17c-.11,0-.22-.02-.32-.04-.52-.3-.86-.85-.86-1.5v-28.88c0-.97.78-1.76,1.76-1.76h12.17v2.8h-4.23c-.09-.06-.2-.09-.32-.09h-6.27c-.18,0-.35.07-.47.2-.03.03-.06.06-.08.1-.04.05-.07.11-.08.17-.03.06-.04.13-.04.2v4.69c0,.14.04.28.12.38.02.04.05.07.08.1.12.12.29.19.47.19h1.58v6.56h-.47v6h.47v6.47h31.13v-6.47h.47v-6h-.47v-6.56h1.58c.38,0,.67-.3.67-.67v-4.69c0-.37-.3-.68-.67-.68h-6.27c-.11,0-.22.03-.32.09h-4.22v-2.8h12.16c.99,0,1.76.8,1.76,1.76Z"/>
          <g>
            <rect class="cls-40" x="838.56" y="124.31" width="1.11" height="6.08" rx=".02" ry=".02"/>
            <rect class="cls-37" x="806.98" y="124.31" width="1.11" height="6.08" rx=".02" ry=".02"/>
          </g>
          <g>
            <polygon class="cls-30" points="812.98 135.96 812.98 136.86 807.76 136.86 807.76 131.29 808.73 131.29 808.73 135.96 812.98 135.96"/>
            <polygon class="cls-30" points="838.89 131.29 838.89 136.86 833.67 136.86 833.67 135.96 837.91 135.96 837.91 131.29 838.89 131.29"/>
          </g>
          <g>
            <polygon class="cls-30" points="812.98 135.96 812.98 136.86 807.76 136.86 807.76 131.29 808.73 131.29 808.73 135.96 812.98 135.96"/>
            <polygon class="cls-30" points="838.89 131.29 838.89 136.86 833.67 136.86 833.67 135.96 837.91 135.96 837.91 131.29 838.89 131.29"/>
          </g>
          <g>
            <polygon class="cls-22" points="813.76 132.31 813.76 128.64 812.93 128.64 812.93 132.31 812.93 132.81 812.93 133.09 817.1 133.09 817.1 132.31 813.76 132.31"/>
            <polygon class="cls-22" points="836.75 132.31 836.75 128.64 837.57 128.64 837.57 132.31 837.57 132.81 837.57 133.09 833.4 133.09 833.4 132.31 836.75 132.31"/>
          </g>
          <g>
            <polygon class="cls-30" points="812.94 135.99 812.94 136.89 807.71 136.89 807.71 131.32 808.69 131.32 808.69 135.99 812.94 135.99"/>
            <polygon class="cls-30" points="838.84 131.32 838.84 136.89 833.62 136.89 833.62 135.99 837.86 135.99 837.86 131.32 838.84 131.32"/>
          </g>
          <path class="cls-25" d="M812.5,112.93v3.73c0,.19-.07.33-.19.46-.11.13-.3.2-.48.2h-5.04c-.37,0-.67-.3-.67-.67v-3.73c0-.37.3-.67.67-.67h5.04c.2,0,.37.09.48.22.13.11.19.28.19.45Z"/>
          <polygon class="cls-51" points="822.17 129.6 818.75 132.11 817.49 136.8 817.86 136.8 819.13 132.11 822.39 129.6 822.17 129.6"/>
          <polygon class="cls-49" points="824.77 129.6 821.74 132.11 820.7 136.8 821.07 136.8 822.11 132.11 824.99 129.6 824.77 129.6"/>
          <polygon class="cls-48" points="827.37 129.6 824.72 132.11 823.9 136.8 824.27 136.8 825.09 132.11 827.59 129.6 827.37 129.6"/>
          <polygon class="cls-66" points="829.98 129.6 827.7 132.11 827.1 136.8 827.47 136.8 828.08 132.11 830.19 129.6 829.98 129.6"/>
          <polygon class="cls-71" points="832.58 129.6 830.69 132.11 830.3 136.8 830.67 136.8 831.06 132.11 832.8 129.6 832.58 129.6"/>
          <polygon class="cls-69" points="835.18 129.6 833.67 132.11 833.5 136.8 833.87 136.8 834.04 132.11 835.4 129.6 835.18 129.6"/>
          <polygon class="cls-59" points="812.93 128.64 807.71 131.32 808.69 131.32 813.76 128.64 812.93 128.64"/>
          <polygon class="cls-58" points="817.1 132.31 812.94 135.99 812.94 136.89 817.1 133.09 817.1 132.31"/>
          <polygon class="cls-59" points="808.69 135.99 812.94 135.99 817.1 132.31 813.76 132.31 808.69 135.99"/>
          <polygon class="cls-13" points="813.76 128.64 813.76 132.31 808.69 135.99 808.69 131.32 813.76 128.64"/>
          <polygon class="cls-59" points="835.95 128.64 838.89 131.29 837.91 131.29 835.45 128.64 835.95 128.64"/>
          <polygon class="cls-30" points="833.4 132.31 833.93 135.99 833.93 136.89 833.4 133.09 833.4 132.31"/>
          <polygon class="cls-58" points="837.91 135.99 833.93 135.99 833.4 132.31 835.45 132.31 837.91 135.99"/>
          <polygon class="cls-13" points="835.45 128.64 835.45 132.31 837.91 135.99 837.91 131.32 835.45 128.64"/>
        </g>
        <g>
          <path class="cls-34" d="M885.72,111.98h-12.91v-3.04h12.91v3.04ZM873.05,111.74h12.43v-2.57h-12.43v2.57Z"/>
          <path class="cls-34" d="M885.72,111.98h-12.91v-3.04h12.91v3.04ZM873.05,111.74h12.43v-2.57h-12.43v2.57Z"/>
          <path class="cls-34" d="M885.72,111.98h-12.91v-3.04h12.91v3.04ZM873.05,111.74h12.43v-2.57h-12.43v2.57Z"/>
          <path class="cls-34" d="M885.72,111.98h-12.91v-3.04h12.91v3.04ZM873.05,111.74h12.43v-2.57h-12.43v2.57Z"/>
          <path class="cls-34" d="M861.48,117.59c-.1-.12-.15-.28-.15-.45v-4.69c0-.1.02-.19.05-.26l.22.09s-.02.1-.02.16v4.69c0,.11.03.21.09.31l-.19.14Z"/>
          <path class="cls-34" d="M863.82,130.5h-.7v-6.24h.7v6.24ZM863.35,130.27h.23v-5.77h-.23v5.77Z"/>
          <path class="cls-34" d="M894.95,136.97h-.24v-.12s-.01-19.16-.01-19.16h.24v.12s.01,6.45.01,6.45h.47v6.24h-.47v6.47ZM894.94,130.27h.24v-5.77h-.24v5.77Z"/>
          <path class="cls-34" d="M885.72,111.98h-12.91v-3.04h12.91v3.04ZM873.05,111.74h12.43v-2.57h-12.43v2.57Z"/>
          <polygon class="cls-34" points="868.39 131.63 868.15 131.63 868.14 131.51 868.14 117.7 868.38 117.7 868.39 117.81 868.39 131.63"/>
          <g>
            <path class="cls-7" d="M894.95,136.97h-31.36v-19.28h4.8s.08,0,.11,0l.12-.03c.24-.08.4-.28.4-.52v-4.69c0-.2-.12-.38-.32-.49l-.44-.22h22.06l-.42.22c-.19.1-.3.28-.3.49v4.69c0,.31.25.55.57.55h4.81v19.28Z"/>
            <path class="cls-27" d="M867.88,111.66h22.79l-.4.21c-.14.08-.34.27-.34.42l-.23,1.09s-.03.21-.03.23v2.98c0,.23.19.6.42.6l1.39.37s.33.05.36.05h2.42l.18.65v17.46h-29.79v-17.99l.52-.13h.97s.26-.03.26-.05l2.06-.5s.06-.01.08-.02l.09-.04c.18-.06.3-.34.3-.52v-2.61s-.02-.25-.03-.26l-.26-1.33c0-.15-.2-.34-.35-.42l-.41-.21Z"/>
            <path class="cls-14" d="M867.5,111.57h23.52l-.38.2c-.09.05-.38.26-.38.36l-.46.88s-.06.16-.06.21v2.81c0,.15.13.65.28.65l.93.74c0,.06.26.1.31.1h2.28l.37.44v16.52h-28.22v-16.71l.34-.25h.89s.22-.05.22-.1l1.38-1.01s.04-.02.05-.02l.06-.04c.12-.04.2-.4.2-.52v-2.43s-.04-.22-.06-.23l-.51-1.06c0-.1-.28-.3-.38-.35l-.38-.19Z"/>
            <path class="cls-32" d="M867.13,111.48h24.25l-.36.19s-.41.25-.41.3l-.68.68s-.09.12-.09.19v2.64c0,.08.06.69.14.69l.46,1.11c0,.09.18.15.26.15h2.14l.55.22v15.58h-26.65v-15.42l.17-.38.81-.02s.18-.06.18-.13l.69-1.51s.02-.03.03-.03l.03-.05c.06-.02.1-.46.1-.51v-2.25c0-.07-.07-.18-.1-.2l-.77-.79c0-.05-.36-.26-.41-.29l-.35-.18Z"/>
            <path class="cls-28" d="M892.88,131.99h-25.08v-14.64l.73-.03s.13-.08.13-.17v-4.69c0-.1-.09-.15-.13-.17l-1.78-.89h24.98l-1.7.89s-.11.07-.11.17v4.69c0,.12.11.2.21.2h2.73v14.64Z"/>
          </g>
          <path class="cls-22" d="M898.35,107.46h-38.17c-.97,0-1.76.81-1.76,1.78v31.12c0,.99.79,1.78,1.76,1.78h38.17c.98,0,1.77-.8,1.77-1.78v-31.12c0-.98-.8-1.78-1.77-1.78ZM899.53,139.7c0,.63-.34,1.18-.84,1.5h-.02c-.11.02-.22.04-.33.04h-38.17c-.11,0-.22-.02-.32-.04-.52-.3-.86-.85-.86-1.5v-28.88c0-.97.78-1.76,1.76-1.76h37c.99,0,1.76.8,1.76,1.76v28.88Z"/>
          <rect class="cls-3" x="872.94" y="109.06" width="12.67" height="2.8"/>
          <g>
            <path class="cls-22" d="M868.71,111.86c-.09-.06-.2-.09-.32-.09h-6.27c-.18,0-.35.07-.47.2-.03.03-.06.06-.08.1-.04.05-.07.11-.08.17-.03.06-.04.13-.04.2v4.69c0,.14.04.28.12.38.02.04.05.07.08.1.12.12.29.19.47.19h6.27s.09,0,.13-.01l.12-.03c.24-.11.41-.35.41-.63v-4.69c0-.27-.14-.48-.35-.59ZM868.44,116.66c0,.18-.07.34-.18.46-.11.13-.3.2-.48.2h-5.05c-.37,0-.67-.3-.67-.66v-3.73c0-.37.31-.66.67-.66h5.05c.2,0,.37.09.48.22.13.1.18.28.18.44v3.73Z"/>
            <path class="cls-22" d="M896.41,111.77h-6.27c-.11,0-.22.03-.32.09-.21.11-.37.33-.37.59v4.69c0,.38.32.67.68.67h6.27c.38,0,.67-.3.67-.67v-4.69c0-.37-.3-.68-.67-.68ZM896.47,116.66c0,.37-.3.66-.67.66h-5.06c-.17,0-.36-.07-.47-.18-.13-.12-.2-.3-.2-.48v-3.73c0-.18.07-.35.2-.46.11-.13.3-.2.47-.2h5.06c.38,0,.67.3.67.66v3.73Z"/>
            <path class="cls-29" d="M896.47,112.93v3.73c0,.37-.3.66-.67.66h-5.06c-.17,0-.36-.07-.47-.18-.13-.12-.2-.3-.2-.48v-3.73c0-.18.07-.35.2-.46.11-.13.3-.2.47-.2h5.06c.38,0,.67.3.67.66Z"/>
          </g>
          <path class="cls-18" d="M899.53,110.82v28.88c0,.63-.34,1.18-.84,1.5h-.02c-.11.02-.22.04-.33.04h-38.17c-.11,0-.22-.02-.32-.04-.52-.3-.86-.85-.86-1.5v-28.88c0-.97.78-1.76,1.76-1.76h12.17v2.8h-4.23c-.09-.06-.2-.09-.32-.09h-6.27c-.18,0-.35.07-.47.2-.03.03-.06.06-.08.1-.04.05-.07.11-.08.17-.03.06-.04.13-.04.2v4.69c0,.14.04.28.12.38.02.04.05.07.08.1.12.12.29.19.47.19h1.58v6.56h-.47v6h.47v6.47h31.13v-6.47h.47v-6h-.47v-6.56h1.58c.38,0,.67-.3.67-.67v-4.69c0-.37-.3-.68-.67-.68h-6.27c-.11,0-.22.03-.32.09h-4.22v-2.8h12.16c.99,0,1.76.8,1.76,1.76Z"/>
          <g>
            <rect class="cls-38" x="894.5" y="124.31" width="1.11" height="6.08" rx=".02" ry=".02"/>
            <rect class="cls-41" x="862.92" y="124.31" width="1.11" height="6.08" rx=".02" ry=".02"/>
          </g>
          <g>
            <polygon class="cls-30" points="868.93 135.96 868.93 136.86 863.7 136.86 863.7 131.29 864.68 131.29 864.68 135.96 868.93 135.96"/>
            <polygon class="cls-30" points="894.83 131.29 894.83 136.86 889.61 136.86 889.61 135.96 893.85 135.96 893.85 131.29 894.83 131.29"/>
          </g>
          <g>
            <polygon class="cls-30" points="868.93 135.96 868.93 136.86 863.7 136.86 863.7 131.29 864.68 131.29 864.68 135.96 868.93 135.96"/>
            <polygon class="cls-30" points="894.83 131.29 894.83 136.86 889.61 136.86 889.61 135.96 893.85 135.96 893.85 131.29 894.83 131.29"/>
          </g>
          <g>
            <polygon class="cls-22" points="869.7 132.31 869.7 128.64 868.88 128.64 868.88 132.31 868.88 132.81 868.88 133.09 873.05 133.09 873.05 132.31 869.7 132.31"/>
            <polygon class="cls-22" points="892.69 132.31 892.69 128.64 893.52 128.64 893.52 132.31 893.52 132.81 893.52 133.09 889.35 133.09 889.35 132.31 892.69 132.31"/>
          </g>
          <g>
            <polygon class="cls-30" points="868.88 135.99 868.88 136.89 863.65 136.89 863.65 131.32 864.63 131.32 864.63 135.99 868.88 135.99"/>
            <polygon class="cls-30" points="894.79 131.32 894.79 136.89 889.57 136.89 889.57 135.99 893.81 135.99 893.81 131.32 894.79 131.32"/>
          </g>
          <path class="cls-25" d="M868.45,112.93v3.73c0,.19-.07.33-.19.46-.11.13-.3.2-.48.2h-5.04c-.37,0-.67-.3-.67-.67v-3.73c0-.37.3-.67.67-.67h5.04c.2,0,.37.09.48.22.13.11.19.28.19.45Z"/>
          <polygon class="cls-70" points="878.12 129.6 874.7 132.11 873.44 136.8 873.81 136.8 875.07 132.11 878.34 129.6 878.12 129.6"/>
          <polygon class="cls-88" points="880.72 129.6 877.68 132.11 876.64 136.8 877.01 136.8 878.05 132.11 880.94 129.6 880.72 129.6"/>
          <polygon class="cls-68" points="883.32 129.6 880.67 132.11 879.84 136.8 880.21 136.8 881.04 132.11 883.54 129.6 883.32 129.6"/>
          <polygon class="cls-72" points="885.92 129.6 883.65 132.11 883.05 136.8 883.42 136.8 884.02 132.11 886.14 129.6 885.92 129.6"/>
          <polygon class="cls-67" points="888.52 129.6 886.63 132.11 886.25 136.8 886.62 136.8 887 132.11 888.74 129.6 888.52 129.6"/>
          <polygon class="cls-89" points="891.12 129.6 889.62 132.11 889.45 136.8 889.82 136.8 889.99 132.11 891.34 129.6 891.12 129.6"/>
          <polygon class="cls-59" points="868.88 128.64 863.65 131.32 864.63 131.32 869.7 128.64 868.88 128.64"/>
          <polygon class="cls-58" points="873.05 132.31 868.88 135.99 868.88 136.89 873.05 133.09 873.05 132.31"/>
          <polygon class="cls-59" points="864.63 135.99 868.88 135.99 873.05 132.31 869.7 132.31 864.63 135.99"/>
          <polygon class="cls-13" points="869.7 128.64 869.7 132.31 864.63 135.99 864.63 131.32 869.7 128.64"/>
          <polygon class="cls-59" points="891.9 128.64 894.83 131.29 893.85 131.29 891.39 128.64 891.9 128.64"/>
          <polygon class="cls-30" points="889.35 132.31 889.87 135.99 889.87 136.89 889.35 133.09 889.35 132.31"/>
          <polygon class="cls-58" points="893.85 135.99 889.87 135.99 889.35 132.31 891.39 132.31 893.85 135.99"/>
          <polygon class="cls-13" points="891.39 128.64 891.39 132.31 893.85 135.99 893.85 131.32 891.39 128.64"/>
        </g>
        <g>
          <path class="cls-34" d="M939.41,111.98h-12.91v-3.04h12.91v3.04ZM926.74,111.74h12.43v-2.57h-12.43v2.57Z"/>
          <path class="cls-34" d="M939.41,111.98h-12.91v-3.04h12.91v3.04ZM926.74,111.74h12.43v-2.57h-12.43v2.57Z"/>
          <path class="cls-34" d="M939.41,111.98h-12.91v-3.04h12.91v3.04ZM926.74,111.74h12.43v-2.57h-12.43v2.57Z"/>
          <path class="cls-34" d="M939.41,111.98h-12.91v-3.04h12.91v3.04ZM926.74,111.74h12.43v-2.57h-12.43v2.57Z"/>
          <path class="cls-34" d="M915.17,117.59c-.1-.12-.15-.28-.15-.45v-4.69c0-.1.02-.19.05-.26l.22.09s-.02.1-.02.16v4.69c0,.11.03.21.09.31l-.19.14Z"/>
          <path class="cls-34" d="M917.51,130.5h-.7v-6.24h.7v6.24ZM917.04,130.27h.23v-5.77h-.23v5.77Z"/>
          <path class="cls-34" d="M948.64,136.97h-.24v-.12s-.01-19.16-.01-19.16h.24v.12s.01,6.45.01,6.45h.47v6.24h-.47v6.47ZM948.63,130.27h.24v-5.77h-.24v5.77Z"/>
          <path class="cls-34" d="M939.41,111.98h-12.91v-3.04h12.91v3.04ZM926.74,111.74h12.43v-2.57h-12.43v2.57Z"/>
          <polygon class="cls-34" points="922.08 131.63 921.84 131.63 921.83 131.51 921.83 117.7 922.07 117.7 922.08 117.81 922.08 131.63"/>
          <g>
            <path class="cls-7" d="M948.64,136.97h-31.36v-19.28h4.8s.08,0,.11,0l.12-.03c.24-.08.4-.28.4-.52v-4.69c0-.2-.12-.38-.32-.49l-.44-.22h22.06l-.42.22c-.19.1-.3.28-.3.49v4.69c0,.31.25.55.57.55h4.81v19.28Z"/>
            <path class="cls-27" d="M921.57,111.66h22.79l-.4.21c-.14.08-.34.27-.34.42l-.23,1.09s-.03.21-.03.23v2.98c0,.23.19.6.42.6l1.39.37s.33.05.36.05h2.42l.18.65v17.46h-29.79v-17.99l.52-.13h.97s.26-.03.26-.05l2.06-.5s.06-.01.08-.02l.09-.04c.18-.06.3-.34.3-.52v-2.61s-.02-.25-.03-.26l-.26-1.33c0-.15-.2-.34-.35-.42l-.41-.21Z"/>
            <path class="cls-14" d="M921.19,111.57h23.52l-.38.2c-.09.05-.38.26-.38.36l-.46.88s-.06.16-.06.21v2.81c0,.15.13.65.28.65l.93.74c0,.06.26.1.31.1h2.28l.37.44v16.52h-28.22v-16.71l.34-.25h.89s.22-.05.22-.1l1.38-1.01s.04-.02.05-.02l.06-.04c.12-.04.2-.4.2-.52v-2.43s-.04-.22-.06-.23l-.51-1.06c0-.1-.28-.3-.38-.35l-.38-.19Z"/>
            <path class="cls-32" d="M920.82,111.48h24.25l-.36.19s-.41.25-.41.3l-.68.68s-.09.12-.09.19v2.64c0,.08.06.69.14.69l.46,1.11c0,.09.18.15.26.15h2.14l.55.22v15.58h-26.65v-15.42l.17-.38.81-.02s.18-.06.18-.13l.69-1.51s.02-.03.03-.03l.03-.05c.06-.02.1-.46.1-.51v-2.25c0-.07-.07-.18-.1-.2l-.77-.79c0-.05-.36-.26-.41-.29l-.35-.18Z"/>
            <path class="cls-28" d="M946.57,131.99h-25.08v-14.64l.73-.03s.13-.08.13-.17v-4.69c0-.1-.09-.15-.13-.17l-1.78-.89h24.98l-1.7.89s-.11.07-.11.17v4.69c0,.12.11.2.21.2h2.73v14.64Z"/>
          </g>
          <path class="cls-22" d="M952.04,107.46h-38.17c-.97,0-1.76.81-1.76,1.78v31.12c0,.99.79,1.78,1.76,1.78h38.17c.98,0,1.77-.8,1.77-1.78v-31.12c0-.98-.8-1.78-1.77-1.78ZM953.22,139.7c0,.63-.34,1.18-.84,1.5h-.02c-.11.02-.22.04-.33.04h-38.17c-.11,0-.22-.02-.32-.04-.52-.3-.86-.85-.86-1.5v-28.88c0-.97.78-1.76,1.76-1.76h37c.99,0,1.76.8,1.76,1.76v28.88Z"/>
          <rect class="cls-3" x="926.63" y="109.06" width="12.67" height="2.8"/>
          <g>
            <path class="cls-22" d="M922.4,111.86c-.09-.06-.2-.09-.32-.09h-6.27c-.18,0-.35.07-.47.2-.03.03-.06.06-.08.1-.04.05-.07.11-.08.17-.03.06-.04.13-.04.2v4.69c0,.14.04.28.12.38.02.04.05.07.08.1.12.12.29.19.47.19h6.27s.09,0,.13-.01l.12-.03c.24-.11.41-.35.41-.63v-4.69c0-.27-.14-.48-.35-.59ZM922.13,116.66c0,.18-.07.34-.18.46-.11.13-.3.2-.48.2h-5.05c-.37,0-.67-.3-.67-.66v-3.73c0-.37.31-.66.67-.66h5.05c.2,0,.37.09.48.22.13.1.18.28.18.44v3.73Z"/>
            <path class="cls-22" d="M950.1,111.77h-6.27c-.11,0-.22.03-.32.09-.21.11-.37.33-.37.59v4.69c0,.38.32.67.68.67h6.27c.38,0,.67-.3.67-.67v-4.69c0-.37-.3-.68-.67-.68ZM950.16,116.66c0,.37-.3.66-.67.66h-5.06c-.17,0-.36-.07-.47-.18-.13-.12-.2-.3-.2-.48v-3.73c0-.18.07-.35.2-.46.11-.13.3-.2.47-.2h5.06c.38,0,.67.3.67.66v3.73Z"/>
            <path class="cls-29" d="M950.16,112.93v3.73c0,.37-.3.66-.67.66h-5.06c-.17,0-.36-.07-.47-.18-.13-.12-.2-.3-.2-.48v-3.73c0-.18.07-.35.2-.46.11-.13.3-.2.47-.2h5.06c.38,0,.67.3.67.66Z"/>
          </g>
          <path class="cls-21" d="M953.22,110.82v28.88c0,.63-.34,1.18-.84,1.5h-.02c-.11.02-.22.04-.33.04h-38.17c-.11,0-.22-.02-.32-.04-.52-.3-.86-.85-.86-1.5v-28.88c0-.97.78-1.76,1.76-1.76h12.17v2.8h-4.23c-.09-.06-.2-.09-.32-.09h-6.27c-.18,0-.35.07-.47.2-.03.03-.06.06-.08.1-.04.05-.07.11-.08.17-.03.06-.04.13-.04.2v4.69c0,.14.04.28.12.38.02.04.05.07.08.1.12.12.29.19.47.19h1.58v6.56h-.47v6h.47v6.47h31.13v-6.47h.47v-6h-.47v-6.56h1.58c.38,0,.67-.3.67-.67v-4.69c0-.37-.3-.68-.67-.68h-6.27c-.11,0-.22.03-.32.09h-4.22v-2.8h12.16c.99,0,1.76.8,1.76,1.76Z"/>
          <g>
            <rect class="cls-44" x="948.19" y="124.31" width="1.11" height="6.08" rx=".02" ry=".02"/>
            <rect class="cls-39" x="916.62" y="124.31" width="1.11" height="6.08" rx=".02" ry=".02"/>
          </g>
          <g>
            <polygon class="cls-30" points="922.62 135.96 922.62 136.86 917.39 136.86 917.39 131.29 918.37 131.29 918.37 135.96 922.62 135.96"/>
            <polygon class="cls-30" points="948.52 131.29 948.52 136.86 943.3 136.86 943.3 135.96 947.54 135.96 947.54 131.29 948.52 131.29"/>
          </g>
          <g>
            <polygon class="cls-30" points="922.62 135.96 922.62 136.86 917.39 136.86 917.39 131.29 918.37 131.29 918.37 135.96 922.62 135.96"/>
            <polygon class="cls-30" points="948.52 131.29 948.52 136.86 943.3 136.86 943.3 135.96 947.54 135.96 947.54 131.29 948.52 131.29"/>
          </g>
          <g>
            <polygon class="cls-22" points="923.4 132.31 923.4 128.64 922.57 128.64 922.57 132.31 922.57 132.81 922.57 133.09 926.74 133.09 926.74 132.31 923.4 132.31"/>
            <polygon class="cls-22" points="946.38 132.31 946.38 128.64 947.21 128.64 947.21 132.31 947.21 132.81 947.21 133.09 943.04 133.09 943.04 132.31 946.38 132.31"/>
          </g>
          <g>
            <polygon class="cls-30" points="922.57 135.99 922.57 136.89 917.35 136.89 917.35 131.32 918.32 131.32 918.32 135.99 922.57 135.99"/>
            <polygon class="cls-30" points="948.48 131.32 948.48 136.89 943.26 136.89 943.26 135.99 947.5 135.99 947.5 131.32 948.48 131.32"/>
          </g>
          <path class="cls-25" d="M922.14,112.93v3.73c0,.19-.07.33-.19.46-.11.13-.3.2-.48.2h-5.04c-.37,0-.67-.3-.67-.67v-3.73c0-.37.3-.67.67-.67h5.04c.2,0,.37.09.48.22.13.11.19.28.19.45Z"/>
          <polygon class="cls-90" points="931.81 129.6 928.39 132.11 927.13 136.8 927.5 136.8 928.76 132.11 932.03 129.6 931.81 129.6"/>
          <polygon class="cls-65" points="934.41 129.6 931.37 132.11 930.33 136.8 930.7 136.8 931.75 132.11 934.63 129.6 934.41 129.6"/>
          <polygon class="cls-85" points="937.01 129.6 934.36 132.11 933.53 136.8 933.9 136.8 934.73 132.11 937.23 129.6 937.01 129.6"/>
          <polygon class="cls-73" points="939.61 129.6 937.34 132.11 936.74 136.8 937.11 136.8 937.71 132.11 939.83 129.6 939.61 129.6"/>
          <polygon class="cls-77" points="942.21 129.6 940.32 132.11 939.94 136.8 940.31 136.8 940.7 132.11 942.43 129.6 942.21 129.6"/>
          <polygon class="cls-79" points="944.81 129.6 943.31 132.11 943.14 136.8 943.51 136.8 943.68 132.11 945.03 129.6 944.81 129.6"/>
          <polygon class="cls-59" points="922.57 128.64 917.35 131.32 918.32 131.32 923.4 128.64 922.57 128.64"/>
          <polygon class="cls-58" points="926.74 132.31 922.57 135.99 922.57 136.89 926.74 133.09 926.74 132.31"/>
          <polygon class="cls-59" points="918.32 135.99 922.57 135.99 926.74 132.31 923.4 132.31 918.32 135.99"/>
          <polygon class="cls-13" points="923.4 128.64 923.4 132.31 918.32 135.99 918.32 131.32 923.4 128.64"/>
          <polygon class="cls-59" points="945.59 128.64 948.52 131.29 947.54 131.29 945.08 128.64 945.59 128.64"/>
          <polygon class="cls-30" points="943.04 132.31 943.56 135.99 943.56 136.89 943.04 133.09 943.04 132.31"/>
          <polygon class="cls-58" points="947.54 135.99 943.56 135.99 943.04 132.31 945.08 132.31 947.54 135.99"/>
          <polygon class="cls-13" points="945.08 128.64 945.08 132.31 947.54 135.99 947.54 131.32 945.08 128.64"/>
        </g>
        <g>
          <path class="cls-34" d="M995.11,111.98h-12.91v-3.04h12.91v3.04ZM982.44,111.74h12.43v-2.57h-12.43v2.57Z"/>
          <path class="cls-34" d="M995.11,111.98h-12.91v-3.04h12.91v3.04ZM982.44,111.74h12.43v-2.57h-12.43v2.57Z"/>
          <path class="cls-34" d="M995.11,111.98h-12.91v-3.04h12.91v3.04ZM982.44,111.74h12.43v-2.57h-12.43v2.57Z"/>
          <path class="cls-34" d="M995.11,111.98h-12.91v-3.04h12.91v3.04ZM982.44,111.74h12.43v-2.57h-12.43v2.57Z"/>
          <path class="cls-34" d="M970.86,117.59c-.1-.12-.15-.28-.15-.45v-4.69c0-.1.02-.19.05-.26l.22.09s-.02.1-.02.16v4.69c0,.11.03.21.09.31l-.19.14Z"/>
          <path class="cls-34" d="M973.2,130.5h-.7v-6.24h.7v6.24ZM972.73,130.27h.23v-5.77h-.23v5.77Z"/>
          <path class="cls-34" d="M1004.33,136.97h-.24v-.12s-.01-19.16-.01-19.16h.24v.12s.01,6.45.01,6.45h.47v6.24h-.47v6.47ZM1004.32,130.27h.24v-5.77h-.24v5.77Z"/>
          <path class="cls-34" d="M995.11,111.98h-12.91v-3.04h12.91v3.04ZM982.44,111.74h12.43v-2.57h-12.43v2.57Z"/>
          <polygon class="cls-34" points="977.77 131.63 977.53 131.63 977.52 131.51 977.52 117.7 977.76 117.7 977.77 117.81 977.77 131.63"/>
          <g>
            <path class="cls-7" d="M1004.33,136.97h-31.36v-19.28h4.8s.08,0,.11,0l.12-.03c.24-.08.4-.28.4-.52v-4.69c0-.2-.12-.38-.32-.49l-.44-.22h22.06l-.42.22c-.19.1-.3.28-.3.49v4.69c0,.31.25.55.57.55h4.81v19.28Z"/>
            <path class="cls-27" d="M977.26,111.66h22.79l-.4.21c-.14.08-.34.27-.34.42l-.23,1.09s-.03.21-.03.23v2.98c0,.23.19.6.42.6l1.39.37s.33.05.36.05h2.42l.18.65v17.46h-29.79v-17.99l.52-.13h.97s.26-.03.26-.05l2.06-.5s.06-.01.08-.02l.09-.04c.18-.06.3-.34.3-.52v-2.61s-.02-.25-.03-.26l-.26-1.33c0-.15-.2-.34-.35-.42l-.41-.21Z"/>
            <path class="cls-14" d="M976.89,111.57h23.52l-.38.2c-.09.05-.38.26-.38.36l-.46.88s-.06.16-.06.21v2.81c0,.15.13.65.28.65l.93.74c0,.06.26.1.31.1h2.28l.37.44v16.52h-28.22v-16.71l.34-.25h.89s.22-.05.22-.1l1.38-1.01s.04-.02.05-.02l.06-.04c.12-.04.2-.4.2-.52v-2.43s-.04-.22-.06-.23l-.51-1.06c0-.1-.28-.3-.38-.35l-.38-.19Z"/>
            <path class="cls-32" d="M976.51,111.48h24.25l-.36.19s-.41.25-.41.3l-.68.68s-.09.12-.09.19v2.64c0,.08.06.69.14.69l.46,1.11c0,.09.18.15.26.15h2.14l.55.22v15.58h-26.65v-15.42l.17-.38.81-.02s.18-.06.18-.13l.69-1.51s.02-.03.03-.03l.03-.05c.06-.02.1-.46.1-.51v-2.25c0-.07-.07-.18-.1-.2l-.77-.79c0-.05-.36-.26-.41-.29l-.35-.18Z"/>
            <path class="cls-28" d="M1002.26,131.99h-25.08v-14.64l.73-.03s.13-.08.13-.17v-4.69c0-.1-.09-.15-.13-.17l-1.78-.89h24.98l-1.7.89s-.11.07-.11.17v4.69c0,.12.11.2.21.2h2.73v14.64Z"/>
          </g>
          <path class="cls-22" d="M1007.73,107.46h-38.17c-.97,0-1.76.81-1.76,1.78v31.12c0,.99.79,1.78,1.76,1.78h38.17c.98,0,1.77-.8,1.77-1.78v-31.12c0-.98-.8-1.78-1.77-1.78ZM1008.91,139.7c0,.63-.34,1.18-.84,1.5h-.02c-.11.02-.22.04-.33.04h-38.17c-.11,0-.22-.02-.32-.04-.52-.3-.86-.85-.86-1.5v-28.88c0-.97.78-1.76,1.76-1.76h37c.99,0,1.76.8,1.76,1.76v28.88Z"/>
          <rect class="cls-3" x="982.32" y="109.06" width="12.67" height="2.8"/>
          <g>
            <path class="cls-22" d="M978.09,111.86c-.09-.06-.2-.09-.32-.09h-6.27c-.18,0-.35.07-.47.2-.03.03-.06.06-.08.1-.04.05-.07.11-.08.17-.03.06-.04.13-.04.2v4.69c0,.14.04.28.12.38.02.04.05.07.08.1.12.12.29.19.47.19h6.27s.09,0,.13-.01l.12-.03c.24-.11.41-.35.41-.63v-4.69c0-.27-.14-.48-.35-.59ZM977.82,116.66c0,.18-.07.34-.18.46-.11.13-.3.2-.48.2h-5.05c-.37,0-.67-.3-.67-.66v-3.73c0-.37.31-.66.67-.66h5.05c.2,0,.37.09.48.22.13.1.18.28.18.44v3.73Z"/>
            <path class="cls-22" d="M1005.79,111.77h-6.27c-.11,0-.22.03-.32.09-.21.11-.37.33-.37.59v4.69c0,.38.32.67.68.67h6.27c.38,0,.67-.3.67-.67v-4.69c0-.37-.3-.68-.67-.68ZM1005.86,116.66c0,.37-.3.66-.67.66h-5.06c-.17,0-.36-.07-.47-.18-.13-.12-.2-.3-.2-.48v-3.73c0-.18.07-.35.2-.46.11-.13.3-.2.47-.2h5.06c.38,0,.67.3.67.66v3.73Z"/>
            <path class="cls-29" d="M1005.86,112.93v3.73c0,.37-.3.66-.67.66h-5.06c-.17,0-.36-.07-.47-.18-.13-.12-.2-.3-.2-.48v-3.73c0-.18.07-.35.2-.46.11-.13.3-.2.47-.2h5.06c.38,0,.67.3.67.66Z"/>
          </g>
          <path class="cls-20" d="M1008.91,110.82v28.88c0,.63-.34,1.18-.84,1.5h-.02c-.11.02-.22.04-.33.04h-38.17c-.11,0-.22-.02-.32-.04-.52-.3-.86-.85-.86-1.5v-28.88c0-.97.78-1.76,1.76-1.76h12.17v2.8h-4.23c-.09-.06-.2-.09-.32-.09h-6.27c-.18,0-.35.07-.47.2-.03.03-.06.06-.08.1-.04.05-.07.11-.08.17-.03.06-.04.13-.04.2v4.69c0,.14.04.28.12.38.02.04.05.07.08.1.12.12.29.19.47.19h1.58v6.56h-.47v6h.47v6.47h31.13v-6.47h.47v-6h-.47v-6.56h1.58c.38,0,.67-.3.67-.67v-4.69c0-.37-.3-.68-.67-.68h-6.27c-.11,0-.22.03-.32.09h-4.22v-2.8h12.16c.99,0,1.76.8,1.76,1.76Z"/>
          <g>
            <rect class="cls-42" x="1003.88" y="124.31" width="1.11" height="6.08" rx=".02" ry=".02"/>
            <rect class="cls-92" x="972.31" y="124.31" width="1.11" height="6.08" rx=".02" ry=".02"/>
          </g>
          <g>
            <polygon class="cls-30" points="978.31 135.96 978.31 136.86 973.08 136.86 973.08 131.29 974.06 131.29 974.06 135.96 978.31 135.96"/>
            <polygon class="cls-30" points="1004.21 131.29 1004.21 136.86 999 136.86 999 135.96 1003.24 135.96 1003.24 131.29 1004.21 131.29"/>
          </g>
          <g>
            <polygon class="cls-30" points="978.31 135.96 978.31 136.86 973.08 136.86 973.08 131.29 974.06 131.29 974.06 135.96 978.31 135.96"/>
            <polygon class="cls-30" points="1004.21 131.29 1004.21 136.86 999 136.86 999 135.96 1003.24 135.96 1003.24 131.29 1004.21 131.29"/>
          </g>
          <g>
            <polygon class="cls-22" points="979.09 132.31 979.09 128.64 978.26 128.64 978.26 132.31 978.26 132.81 978.26 133.09 982.43 133.09 982.43 132.31 979.09 132.31"/>
            <polygon class="cls-22" points="1002.07 132.31 1002.07 128.64 1002.9 128.64 1002.9 132.31 1002.9 132.81 1002.9 133.09 998.73 133.09 998.73 132.31 1002.07 132.31"/>
          </g>
          <g>
            <polygon class="cls-30" points="978.27 135.99 978.27 136.89 973.04 136.89 973.04 131.32 974.02 131.32 974.02 135.99 978.27 135.99"/>
            <polygon class="cls-30" points="1004.17 131.32 1004.17 136.89 998.95 136.89 998.95 135.99 1003.19 135.99 1003.19 131.32 1004.17 131.32"/>
          </g>
          <path class="cls-25" d="M977.83,112.93v3.73c0,.19-.07.33-.19.46-.11.13-.3.2-.48.2h-5.04c-.37,0-.67-.3-.67-.67v-3.73c0-.37.3-.67.67-.67h5.04c.2,0,.37.09.48.22.13.11.19.28.19.45Z"/>
          <polygon class="cls-76" points="987.5 129.6 984.08 132.11 982.82 136.8 983.19 136.8 984.45 132.11 987.72 129.6 987.5 129.6"/>
          <polygon class="cls-75" points="990.1 129.6 987.07 132.11 986.02 136.8 986.4 136.8 987.44 132.11 990.32 129.6 990.1 129.6"/>
          <polygon class="cls-87" points="992.7 129.6 990.05 132.11 989.23 136.8 989.6 136.8 990.42 132.11 992.92 129.6 992.7 129.6"/>
          <polygon class="cls-86" points="995.3 129.6 993.03 132.11 992.43 136.8 992.8 136.8 993.4 132.11 995.52 129.6 995.3 129.6"/>
          <polygon class="cls-91" points="997.91 129.6 996.02 132.11 995.63 136.8 996 136.8 996.39 132.11 998.12 129.6 997.91 129.6"/>
          <polygon class="cls-74" points="1000.51 129.6 999 132.11 998.83 136.8 999.2 136.8 999.37 132.11 1000.73 129.6 1000.51 129.6"/>
          <polygon class="cls-59" points="978.26 128.64 973.04 131.32 974.02 131.32 979.09 128.64 978.26 128.64"/>
          <polygon class="cls-58" points="982.43 132.31 978.27 135.99 978.27 136.89 982.43 133.09 982.43 132.31"/>
          <polygon class="cls-59" points="974.02 135.99 978.27 135.99 982.43 132.31 979.09 132.31 974.02 135.99"/>
          <polygon class="cls-13" points="979.09 128.64 979.09 132.31 974.02 135.99 974.02 131.32 979.09 128.64"/>
          <polygon class="cls-59" points="1001.28 128.64 1004.21 131.29 1003.24 131.29 1000.78 128.64 1001.28 128.64"/>
          <polygon class="cls-30" points="998.73 132.31 999.25 135.99 999.25 136.89 998.73 133.09 998.73 132.31"/>
          <polygon class="cls-58" points="1003.24 135.99 999.25 135.99 998.73 132.31 1000.78 132.31 1003.24 135.99"/>
          <polygon class="cls-13" points="1000.78 128.64 1000.78 132.31 1003.24 135.99 1003.24 131.32 1000.78 128.64"/>
        </g>
        <g>
          <path class="cls-34" d="M1046.12,111.98h-12.91v-3.04h12.91v3.04ZM1033.45,111.74h12.43v-2.57h-12.43v2.57Z"/>
          <path class="cls-34" d="M1046.12,111.98h-12.91v-3.04h12.91v3.04ZM1033.45,111.74h12.43v-2.57h-12.43v2.57Z"/>
          <path class="cls-34" d="M1046.12,111.98h-12.91v-3.04h12.91v3.04ZM1033.45,111.74h12.43v-2.57h-12.43v2.57Z"/>
          <path class="cls-34" d="M1046.12,111.98h-12.91v-3.04h12.91v3.04ZM1033.45,111.74h12.43v-2.57h-12.43v2.57Z"/>
          <path class="cls-34" d="M1021.87,117.59c-.1-.12-.15-.28-.15-.45v-4.69c0-.1.02-.19.05-.26l.22.09s-.02.1-.02.16v4.69c0,.11.03.21.09.31l-.19.14Z"/>
          <path class="cls-34" d="M1024.21,130.5h-.7v-6.24h.7v6.24ZM1023.75,130.27h.23v-5.77h-.23v5.77Z"/>
          <path class="cls-34" d="M1055.34,136.97h-.24v-.12s-.01-19.16-.01-19.16h.24v.12s.01,6.45.01,6.45h.47v6.24h-.47v6.47ZM1055.33,130.27h.24v-5.77h-.24v5.77Z"/>
          <path class="cls-34" d="M1046.12,111.98h-12.91v-3.04h12.91v3.04ZM1033.45,111.74h12.43v-2.57h-12.43v2.57Z"/>
          <polygon class="cls-34" points="1028.78 131.63 1028.54 131.63 1028.53 131.51 1028.53 117.7 1028.77 117.7 1028.78 117.81 1028.78 131.63"/>
          <g>
            <path class="cls-7" d="M1055.34,136.97h-31.36v-19.28h4.8s.08,0,.11,0l.12-.03c.24-.08.4-.28.4-.52v-4.69c0-.2-.12-.38-.32-.49l-.44-.22h22.06l-.42.22c-.19.1-.3.28-.3.49v4.69c0,.31.25.55.57.55h4.81v19.28Z"/>
            <path class="cls-27" d="M1028.27,111.66h22.79l-.4.21c-.14.08-.34.27-.34.42l-.23,1.09s-.03.21-.03.23v2.98c0,.23.19.6.42.6l1.39.37s.33.05.36.05h2.42l.18.65v17.46h-29.79v-17.99l.52-.13h.97s.26-.03.26-.05l2.06-.5s.06-.01.08-.02l.09-.04c.18-.06.3-.34.3-.52v-2.61s-.02-.25-.03-.26l-.26-1.33c0-.15-.2-.34-.35-.42l-.41-.21Z"/>
            <path class="cls-14" d="M1027.9,111.57h23.52l-.38.2c-.09.05-.38.26-.38.36l-.46.88s-.06.16-.06.21v2.81c0,.15.13.65.28.65l.93.74c0,.06.26.1.31.1h2.28l.37.44v16.52h-28.22v-16.71l.34-.25h.89s.22-.05.22-.1l1.38-1.01s.04-.02.05-.02l.06-.04c.12-.04.2-.4.2-.52v-2.43s-.04-.22-.06-.23l-.51-1.06c0-.1-.28-.3-.38-.35l-.38-.19Z"/>
            <path class="cls-32" d="M1027.53,111.48h24.25l-.36.19s-.41.25-.41.3l-.68.68s-.09.12-.09.19v2.64c0,.08.06.69.14.69l.46,1.11c0,.09.18.15.26.15h2.14l.55.22v15.58h-26.65v-15.42l.17-.38.81-.02s.18-.06.18-.13l.69-1.51s.02-.03.03-.03l.03-.05c.06-.02.1-.46.1-.51v-2.25c0-.07-.07-.18-.1-.2l-.77-.79c0-.05-.36-.26-.41-.29l-.35-.18Z"/>
            <path class="cls-28" d="M1053.27,131.99h-25.08v-14.64l.73-.03s.13-.08.13-.17v-4.69c0-.1-.09-.15-.13-.17l-1.78-.89h24.98l-1.7.89s-.11.07-.11.17v4.69c0,.12.11.2.21.2h2.73v14.64Z"/>
          </g>
          <path class="cls-22" d="M1058.74,107.46h-38.17c-.97,0-1.76.81-1.76,1.78v31.12c0,.99.79,1.78,1.76,1.78h38.17c.98,0,1.77-.8,1.77-1.78v-31.12c0-.98-.8-1.78-1.77-1.78ZM1059.93,139.7c0,.63-.34,1.18-.84,1.5h-.02c-.11.02-.22.04-.33.04h-38.17c-.11,0-.22-.02-.32-.04-.52-.3-.86-.85-.86-1.5v-28.88c0-.97.78-1.76,1.76-1.76h37c.99,0,1.76.8,1.76,1.76v28.88Z"/>
          <rect class="cls-3" x="1033.33" y="109.06" width="12.67" height="2.8"/>
          <g>
            <path class="cls-22" d="M1029.1,111.86c-.09-.06-.2-.09-.32-.09h-6.27c-.18,0-.35.07-.47.2-.03.03-.06.06-.08.1-.04.05-.07.11-.08.17-.03.06-.04.13-.04.2v4.69c0,.14.04.28.12.38.02.04.05.07.08.1.12.12.29.19.47.19h6.27s.09,0,.13-.01l.12-.03c.24-.11.41-.35.41-.63v-4.69c0-.27-.14-.48-.35-.59ZM1028.84,116.66c0,.18-.07.34-.18.46-.11.13-.3.2-.48.2h-5.05c-.37,0-.67-.3-.67-.66v-3.73c0-.37.31-.66.67-.66h5.05c.2,0,.37.09.48.22.13.1.18.28.18.44v3.73Z"/>
            <path class="cls-22" d="M1056.81,111.77h-6.27c-.11,0-.22.03-.32.09-.21.11-.37.33-.37.59v4.69c0,.38.32.67.68.67h6.27c.38,0,.67-.3.67-.67v-4.69c0-.37-.3-.68-.67-.68ZM1056.87,116.66c0,.37-.3.66-.67.66h-5.06c-.17,0-.36-.07-.47-.18-.13-.12-.2-.3-.2-.48v-3.73c0-.18.07-.35.2-.46.11-.13.3-.2.47-.2h5.06c.38,0,.67.3.67.66v3.73Z"/>
            <path class="cls-29" d="M1056.87,112.93v3.73c0,.37-.3.66-.67.66h-5.06c-.17,0-.36-.07-.47-.18-.13-.12-.2-.3-.2-.48v-3.73c0-.18.07-.35.2-.46.11-.13.3-.2.47-.2h5.06c.38,0,.67.3.67.66Z"/>
          </g>
          <path class="cls-19" d="M1059.93,110.82v28.88c0,.63-.34,1.18-.84,1.5h-.02c-.11.02-.22.04-.33.04h-38.17c-.11,0-.22-.02-.32-.04-.52-.3-.86-.85-.86-1.5v-28.88c0-.97.78-1.76,1.76-1.76h12.17v2.8h-4.23c-.09-.06-.2-.09-.32-.09h-6.27c-.18,0-.35.07-.47.2-.03.03-.06.06-.08.1-.04.05-.07.11-.08.17-.03.06-.04.13-.04.2v4.69c0,.14.04.28.12.38.02.04.05.07.08.1.12.12.29.19.47.19h1.58v6.56h-.47v6h.47v6.47h31.13v-6.47h.47v-6h-.47v-6.56h1.58c.38,0,.67-.3.67-.67v-4.69c0-.37-.3-.68-.67-.68h-6.27c-.11,0-.22.03-.32.09h-4.22v-2.8h12.16c.99,0,1.76.8,1.76,1.76Z"/>
          <g>
            <rect class="cls-94" x="1054.9" y="124.31" width="1.11" height="6.08" rx=".02" ry=".02"/>
            <rect class="cls-93" x="1023.32" y="124.31" width="1.11" height="6.08" rx=".02" ry=".02"/>
          </g>
          <g>
            <polygon class="cls-30" points="1029.33 135.96 1029.33 136.86 1024.1 136.86 1024.1 131.29 1025.07 131.29 1025.07 135.96 1029.33 135.96"/>
            <polygon class="cls-30" points="1055.23 131.29 1055.23 136.86 1050.01 136.86 1050.01 135.96 1054.25 135.96 1054.25 131.29 1055.23 131.29"/>
          </g>
          <g>
            <polygon class="cls-30" points="1029.33 135.96 1029.33 136.86 1024.1 136.86 1024.1 131.29 1025.07 131.29 1025.07 135.96 1029.33 135.96"/>
            <polygon class="cls-30" points="1055.23 131.29 1055.23 136.86 1050.01 136.86 1050.01 135.96 1054.25 135.96 1054.25 131.29 1055.23 131.29"/>
          </g>
          <g>
            <polygon class="cls-22" points="1030.1 132.31 1030.1 128.64 1029.27 128.64 1029.27 132.31 1029.27 132.81 1029.27 133.09 1033.45 133.09 1033.45 132.31 1030.1 132.31"/>
            <polygon class="cls-22" points="1053.09 132.31 1053.09 128.64 1053.91 128.64 1053.91 132.31 1053.91 132.81 1053.91 133.09 1049.74 133.09 1049.74 132.31 1053.09 132.31"/>
          </g>
          <g>
            <polygon class="cls-30" points="1029.28 135.99 1029.28 136.89 1024.05 136.89 1024.05 131.32 1025.03 131.32 1025.03 135.99 1029.28 135.99"/>
            <polygon class="cls-30" points="1055.18 131.32 1055.18 136.89 1049.96 136.89 1049.96 135.99 1054.2 135.99 1054.2 131.32 1055.18 131.32"/>
          </g>
          <path class="cls-25" d="M1028.84,112.93v3.73c0,.19-.07.33-.19.46-.11.13-.3.2-.48.2h-5.04c-.37,0-.67-.3-.67-.67v-3.73c0-.37.3-.67.67-.67h5.04c.2,0,.37.09.48.22.13.11.19.28.19.45Z"/>
          <polygon class="cls-83" points="1038.51 129.6 1035.1 132.11 1033.83 136.8 1034.21 136.8 1035.47 132.11 1038.73 129.6 1038.51 129.6"/>
          <polygon class="cls-80" points="1041.11 129.6 1038.08 132.11 1037.04 136.8 1037.41 136.8 1038.45 132.11 1041.33 129.6 1041.11 129.6"/>
          <polygon class="cls-82" points="1043.72 129.6 1041.06 132.11 1040.24 136.8 1040.61 136.8 1041.43 132.11 1043.93 129.6 1043.72 129.6"/>
          <polygon class="cls-84" points="1046.32 129.6 1044.05 132.11 1043.44 136.8 1043.81 136.8 1044.42 132.11 1046.54 129.6 1046.32 129.6"/>
          <polygon class="cls-81" points="1048.92 129.6 1047.03 132.11 1046.64 136.8 1047.01 136.8 1047.4 132.11 1049.14 129.6 1048.92 129.6"/>
          <polygon class="cls-78" points="1051.52 129.6 1050.01 132.11 1049.84 136.8 1050.22 136.8 1050.38 132.11 1051.74 129.6 1051.52 129.6"/>
          <polygon class="cls-59" points="1029.27 128.64 1024.05 131.32 1025.03 131.32 1030.1 128.64 1029.27 128.64"/>
          <polygon class="cls-58" points="1033.45 132.31 1029.28 135.99 1029.28 136.89 1033.45 133.09 1033.45 132.31"/>
          <polygon class="cls-59" points="1025.03 135.99 1029.28 135.99 1033.45 132.31 1030.1 132.31 1025.03 135.99"/>
          <polygon class="cls-13" points="1030.1 128.64 1030.1 132.31 1025.03 135.99 1025.03 131.32 1030.1 128.64"/>
          <polygon class="cls-59" points="1052.29 128.64 1055.23 131.29 1054.25 131.29 1051.79 128.64 1052.29 128.64"/>
          <polygon class="cls-30" points="1049.74 132.31 1050.27 135.99 1050.27 136.89 1049.74 133.09 1049.74 132.31"/>
          <polygon class="cls-58" points="1054.25 135.99 1050.27 135.99 1049.74 132.31 1051.79 132.31 1054.25 135.99"/>
          <polygon class="cls-13" points="1051.79 128.64 1051.79 132.31 1054.25 135.99 1054.25 131.32 1051.79 128.64"/>
        </g>
      </g>
      <g>
        <path class="cls-15" d="M1108.04,123.76v15.86c0,1.14-.92,2.06-2.07,2.06h-31.78c-1.15,0-2.07-.92-2.07-2.06v-15.86c0-1.14.92-2.07,2.07-2.07h31.78c1.15,0,2.07.93,2.07,2.07Z"/>
        <path class="cls-33" d="M1101.53,121.69v13.05c0,1.15-.92,2.07-2.07,2.07h-27.34v-13.05c0-1.14.92-2.07,2.07-2.07h27.34Z"/>
        <rect class="cls-104" x="1072.12" y="121.69" width="35.92" height="19.99" rx="3.65" ry="3.65"/>
      </g>
      <g>
        <path class="cls-57" d="M1153.05,123.76v15.86c0,1.14-.92,2.06-2.07,2.06h-31.78c-1.15,0-2.07-.92-2.07-2.06v-15.86c0-1.14.92-2.07,2.07-2.07h31.78c1.15,0,2.07.93,2.07,2.07Z"/>
        <path class="cls-33" d="M1146.54,121.69v13.05c0,1.15-.92,2.07-2.07,2.07h-27.34v-13.05c0-1.14.92-2.07,2.07-2.07h27.34Z"/>
        <rect class="cls-104" x="1117.12" y="121.69" width="35.92" height="19.99" rx="3.65" ry="3.65"/>
      </g>
    </g>
    <g>
      <g>
        <path class="cls-63" d="M298.08,139.83c0-2.83-3.37-2.83-3.28,0-.07,2.83,3.37,2.83,3.28,0Z"/>
        <path class="cls-63" d="M296.44,62.88c0-2.83-3.37-2.83-3.37,0s3.37,2.83,3.37,0Z"/>
        <path class="cls-63" d="M293.81,96.24c-2.18-.07-2.18,4.41,0,4.41s2.18-4.41,0-4.41Z"/>
        <path class="cls-35" d="M55.76,8.68c4.18,94.73-22.13,73.58,63.63,97.05,56.08,14.13,133.84,36.94,190.51,50.02V47.55C305.49,48.16,74.59,1.58,63.98,0c-4.72-.15-8.29,3.51-8.22,8.67Z"/>
        <g class="cls-101">
          <path class="cls-63" d="M229.89,88.46c-.52-1.57-4.11-1.8-3.21.38,1.12.6,16.9,39.48,19.37,36.78.83-.07,1.19-.74.83-1.57l-16.97-35.59h-.01Z"/>
          <path class="cls-63" d="M227.5,83.3c.74.6,2.02.74,2.39.07l16.97-26.92c.9-1.5-2.32-3.37-3.21-1.87l-16.97,26.76c-.38.6,0,1.42.83,1.95h0Z"/>
          <path class="cls-63" d="M212.39,86.89c-.52-1.5-4.04-1.87-3.21.29,1.19.97,12.86,29.01,15.33,27.59.9.07,1.5-.6,1.05-1.57l-13.16-26.31h0Z"/>
          <path class="cls-63" d="M224.81,54.43c-.83-.52-2.02-.6-2.39.07l-13.16,19.52c-.9,1.35,2.39,3.28,3.21,1.95l13.16-19.66c.29-.52-.07-1.42-.83-1.87h0Z"/>
          <path class="cls-63" d="M208.81,82.33c5.84.52-1.12-6.65-2.25-2.39-.07.97.97,2.02,2.25,2.39Z"/>
          <path class="cls-63" d="M193.92,79.03c-.52-1.42-4.04-1.8-3.21.29,1.05.74,16.97,36.26,19.14,34.4,4.94,2.02-16.74-34.54-15.93-34.69h0Z"/>
          <path class="cls-63" d="M191.54,74.24c.74.6,2.02.74,2.39.07l16.97-24.6c.9-1.5-2.39-3.14-3.21-1.8l-16.97,24.45c-.38.6,0,1.42.83,1.87h0Z"/>
          <path class="cls-63" d="M176.5,77.23c-.45-1.35-4.04-1.8-3.21.22.97.67,13.39,27.66,15.33,25.72.9.07,1.5-.52,1.05-1.42l-13.16-24.53h0Z"/>
          <path class="cls-63" d="M188.84,47.64c-.83-.52-2.02-.6-2.39.07l-13.16,17.72c-.9,1.35,2.47,3.06,3.21,1.87l13.08-17.95c.38-.52.07-1.35-.74-1.73h0Z"/>
          <path class="cls-63" d="M107.12,55.93c-.74-.52-2.02-.67-2.39-.22l-16.97,16.45c-.52.38.29,1.28,1.05,1.64.83.52,1.8.6,2.18.22l16.97-16.6c.29-.38,0-1.05-.83-1.5h-.01Z"/>
          <path class="cls-63" d="M90.97,26.63c-.38-.97-4.04-1.42-3.21.22.97.6,17.35,27.97,19.14,26.09.83.07,1.57-.38,1.05-1.12-.07.07-16.97-25.19-16.97-25.19h-.01Z"/>
          <path class="cls-63" d="M124.62,62.88c-.74-.52-2.02-.74-2.39-.22l-13.16,13.53c-.52.45.22,1.35,1.05,1.73.83.52,1.8.6,2.18.22l13.16-13.68c.29-.38-.07-1.12-.83-1.57h-.01Z"/>
          <path class="cls-63" d="M122.15,53.98c.45,1.12,4.04,1.73,3.21-.15-1.05-.67-13.3-23.1-15.33-21.3-.83,0-1.57.52-1.05,1.19l13.16,20.27h0Z"/>
          <path class="cls-63" d="M123.5,58.69c-.22,1.57,4.34,3.21,4.56,1.19.22-1.64-4.34-3.28-4.56-1.19Z"/>
          <path class="cls-63" d="M143.09,65.28c-.74-.52-2.02-.74-2.39-.15l-16.97,18.76c-.38.38,0,1.12.83,1.64.74.6,2.02.83,2.39.38l16.97-18.92c.29-.52,0-1.28-.83-1.73h0Z"/>
          <path class="cls-63" d="M126.94,33.2c-.45-1.12-4.04-1.42-3.21.38.9.52,17.35,30.51,19.14,28.49.83.07,1.57-.52,1.05-1.28-.07,0-16.97-27.59-16.97-27.59h-.01Z"/>
          <path class="cls-63" d="M160.51,72.45c-.74-.52-2.02-.74-2.39-.15l-13.16,15.33c-.9,1.19,2.47,3.06,3.21,2.02l13.16-15.41c.38-.52,0-1.28-.83-1.8h0Z"/>
          <path class="cls-63" d="M148.17,40.3c-.45-1.19-4.04-1.5-3.21.38l13.16,22.06c.38.67,1.35,1.12,2.18,1.05.83,0,1.5-.6,1.05-1.35l-13.16-22.13h-.01Z"/>
          <path class="cls-63" d="M167.31,68.27c-3.28-.67-2.54,2.69,0,3.21,3.28.74,2.54-2.69,0-3.21Z"/>
        </g>
        <path class="cls-2" d="M290.31,147.22c5.3,1.19,14.43,2.54,19.3,5.16v3.28c-1.73-.45-7.77-2.02-9.57-2.47l-18.17-7.7c-.07-.67-.15-1.5-.22-2.32l8.67,4.04h0ZM293.81,100.64c-2.18.07-2.18-4.41,0-4.41,2.18-.07,2.18,4.41,0,4.41ZM293.07,62.88c0-2.83,3.37-2.83,3.37,0s-3.37,2.83-3.37,0ZM298.08,139.83c0,2.83-3.37,2.83-3.28,0-.07-2.83,3.37-2.83,3.28,0Z"/>
        <path class="cls-54" d="M285.52,150.14l-218.55-58.24c-5.16-.97-7.48-3.51-9.05-5.91l224.08,59.9c.9,2.18,1.19,3.37,3.51,4.27h.01Z"/>
        <g>
          <path class="cls-63" d="M292.17,98.4c0,2.83,3.37,2.83,3.37,0s-3.44-2.83-3.37,0Z"/>
          <path class="cls-63" d="M294.8,139.83c-.07,2.83,3.37,2.83,3.28,0,.07-2.83-3.37-2.83-3.28,0Z"/>
          <path class="cls-63" d="M293.07,62.88c0,2.83,3.37,2.83,3.37,0s-3.37-2.83-3.37,0Z"/>
        </g>
      </g>
      <path class="cls-4" d="M291.27,44.65h0l18.62,2.91c.07,10.92-.45,99.68,0,108.2-34.02-10.47-32.15,8.07-32.38-56.98,0-16.6,1.05-39.03,2.18-45.99.97-6.06,3.59-9.8,11.59-8.15h-.01ZM294.8,60.72c-2.18-.07-2.18,4.41,0,4.34,2.18.07,2.18-4.41,0-4.34ZM296.44,141.99c2.18.07,2.18-4.41,0-4.41s-2.18,4.49,0,4.41ZM293.81,100.64c2.18.07,2.18-4.41,0-4.41s-2.18,4.41,0,4.41Z"/>
      <path class="cls-63" d="M66.52,78.74c-.07,4.34,4.49,4.34,4.41,0,.07-4.34-4.41-4.34-4.41,0Z"/>
      <path class="cls-63" d="M258.67,134.07c0,3.06,3.14,3.06,3.14,0s-3.21-3.06-3.14,0Z"/>
      <path class="cls-63" d="M260.25,49.05c0,3.06,3.14,3.06,3.14,0s-3.21-2.99-3.14,0Z"/>
    </g>
    <polygon class="cls-1" points="1145.85 0 64.02 0 309.9 47.55 1391.73 47.55 1145.85 0"/>
  </g>
</svg>