<?xml version="1.0" encoding="UTF-8"?>
<svg id="Layer_1" data-name="Layer 1" xmlns="http://www.w3.org/2000/svg" xmlns:xlink="http://www.w3.org/1999/xlink" viewBox="0 0 597.29 136.33">
  <defs>
    <style>
      .cls-1 {
        fill: #d0e2ea;
      }

      .cls-1, .cls-2, .cls-3, .cls-4, .cls-5, .cls-6, .cls-7, .cls-8, .cls-9, .cls-10, .cls-11, .cls-12, .cls-13, .cls-14, .cls-15, .cls-16, .cls-17, .cls-18, .cls-19, .cls-20, .cls-21 {
        stroke-width: 0px;
      }

      .cls-2 {
        fill: #37363f;
      }

      .cls-22 {
        clip-path: url(#clippath);
      }

      .cls-3 {
        fill: none;
      }

      .cls-4 {
        fill: #989797;
      }

      .cls-5 {
        fill: url(#linear-gradient);
      }

      .cls-6 {
        fill: url(#radial-gradient);
      }

      .cls-7 {
        opacity: .77;
      }

      .cls-7, .cls-13 {
        fill: #d1dbe0;
      }

      .cls-8 {
        fill: #cccaca;
      }

      .cls-9 {
        fill: #020202;
      }

      .cls-23 {
        clip-path: url(#clippath-1);
      }

      .cls-24 {
        clip-path: url(#clippath-4);
      }

      .cls-25 {
        clip-path: url(#clippath-3);
      }

      .cls-26 {
        clip-path: url(#clippath-2);
      }

      .cls-27 {
        clip-path: url(#clippath-6);
      }

      .cls-28 {
        clip-path: url(#clippath-5);
      }

      .cls-10 {
        fill: #bebebe;
      }

      .cls-11 {
        fill: #8c6239;
      }

      .cls-12 {
        fill: #f0f0f0;
      }

      .cls-14 {
        fill: #4e4d4d;
      }

      .cls-15 {
        fill: #e6e4e4;
      }

      .cls-16 {
        fill: #eff2fa;
      }

      .cls-17 {
        opacity: .38;
      }

      .cls-17, .cls-19 {
        fill: #6d7c84;
      }

      .cls-29, .cls-18 {
        isolation: isolate;
      }

      .cls-18 {
        fill: #474747;
        opacity: .46;
      }

      .cls-20 {
        fill: #fff;
      }

      .cls-21 {
        fill: #f8af3b;
      }
    </style>
    <linearGradient id="linear-gradient" x1="-3668.95" y1="116.21" x2="-3717.37" y2="92.83" gradientTransform="translate(-1388.71) rotate(-180) scale(.39 -1)" gradientUnits="userSpaceOnUse">
      <stop offset="0" stop-color="#ffd28b"/>
      <stop offset="1" stop-color="#000"/>
    </linearGradient>
    <radialGradient id="radial-gradient" cx="62.61" cy="99.09" fx="62.61" fy="99.09" r="4.87" gradientUnits="userSpaceOnUse">
      <stop offset="0" stop-color="#ffd28b"/>
      <stop offset="1" stop-color="#000"/>
    </radialGradient>
    <clipPath id="clippath">
      <polygon class="cls-3" points="374.81 115.21 374.9 80.79 157.63 80.79 157.53 115.21 374.81 115.21"/>
    </clipPath>
    <clipPath id="clippath-1">
      <path class="cls-3" d="M367.61,84.69h-32.16c-1.25,0-2.28,1.04-2.28,2.3l-.05,18.02c0,1.28,1.01,2.3,2.28,2.3h3.33v1.28c0,1.28,1.01,2.3,2.28,2.3h1.32v1.81c0,1.28,1.01,2.3,2.28,2.3h13.76c1.25,0,2.28-1.02,2.28-2.3v-1.81h1.32c1.25,0,2.28-1.04,2.28-2.3v-1.28h3.33c1.25,0,2.28-1.04,2.28-2.3l.05-18.02c0-1.28-1.01-2.3-2.28-2.3"/>
    </clipPath>
    <clipPath id="clippath-2">
      <path class="cls-3" d="M325,84.69h-32.14c-1.26,0-2.28,1.04-2.28,2.3l-.05,18.02c0,1.28,1.01,2.3,2.28,2.3h3.33v1.28c0,1.28,1.01,2.3,2.28,2.3h1.32v1.81c0,1.28,1.01,2.3,2.28,2.3h13.76c1.26,0,2.28-1.02,2.28-2.3v-1.81h1.32c1.25,0,2.28-1.04,2.28-2.3v-1.28h3.33c1.26,0,2.28-1.04,2.28-2.3l.05-18.02c0-1.28-1.01-2.3-2.28-2.3"/>
    </clipPath>
    <clipPath id="clippath-3">
      <path class="cls-3" d="M282.4,84.69h-32.16c-1.26,0-2.28,1.04-2.28,2.3l-.05,18.02c0,1.28,1.01,2.3,2.28,2.3h3.33v1.28c0,1.28,1.01,2.3,2.28,2.3h1.32v1.81c0,1.28,1.01,2.3,2.28,2.3h13.76c1.25,0,2.28-1.02,2.28-2.3v-1.81h1.32c1.26,0,2.28-1.04,2.28-2.3v-1.28h3.33c1.25,0,2.28-1.04,2.28-2.3l.05-18.02c0-1.28-1.01-2.3-2.28-2.3"/>
    </clipPath>
    <clipPath id="clippath-4">
      <path class="cls-3" d="M239.79,84.69h-32.16c-1.25,0-2.28,1.04-2.28,2.3l-.05,18.02c0,1.28,1.01,2.3,2.28,2.3h3.33v1.28c0,1.28,1.01,2.3,2.28,2.3h1.32v1.81c0,1.28,1.01,2.3,2.28,2.3h13.76c1.25,0,2.28-1.02,2.28-2.3v-1.81h1.32c1.25,0,2.28-1.04,2.28-2.3v-1.28h3.33c1.25,0,2.28-1.04,2.28-2.3l.05-18.02c0-1.28-1.01-2.3-2.28-2.3"/>
    </clipPath>
    <clipPath id="clippath-5">
      <path class="cls-3" d="M197.19,84.69h-32.16c-1.25,0-2.28,1.04-2.28,2.3l-.05,18.02c0,1.28,1.01,2.3,2.28,2.3h3.33v1.28c0,1.28,1.01,2.3,2.28,2.3h1.32v1.81c0,1.28,1.01,2.3,2.28,2.3h13.76c1.25,0,2.28-1.02,2.28-2.3v-1.81h1.32c1.25,0,2.28-1.04,2.28-2.3v-1.28h3.33c1.25,0,2.28-1.04,2.28-2.3l.05-18.02c0-1.28-1.01-2.3-2.28-2.3"/>
    </clipPath>
    <clipPath id="clippath-6">
      <polygon class="cls-3" points="158.52 47.79 212.92 12.75 387.22 12.75 332.83 47.79 158.52 47.79"/>
    </clipPath>
  </defs>
  <g>
    <polygon class="cls-18" points="431.95 135.05 590.54 73.64 597.29 50.19 405.96 98 431.95 135.05"/>
    <g>
      <polygon class="cls-13" points="431.95 135.05 571.81 70.04 571.81 .14 431.95 60.55 431.95 135.05"/>
      <g>
        <g>
          <path class="cls-17" d="M527.03,42.83v30.08c0,.55.4,1.01.97,1.24.21.09.47.13.72.13.93,0,1.68-.61,1.68-1.36v-30.08c0-.74-.74-1.35-1.68-1.35-.25,0-.51.04-.72.13-.57.23-.97.69-.97,1.22Z"/>
          <path class="cls-19" d="M527.03,42.83v30.08c0,.55.4,1.01.97,1.24.57-.21.97-.69.97-1.24v-30.08c0-.54-.4-1.01-.97-1.22-.57.23-.97.69-.97,1.22Z"/>
        </g>
        <g>
          <path class="cls-17" d="M521.5,45.23v30.08c0,.55.4,1.01.97,1.24.21.08.47.13.72.13.93,0,1.68-.61,1.68-1.36v-30.08c0-.74-.74-1.35-1.68-1.35-.25,0-.5.04-.72.13-.57.23-.97.69-.97,1.22Z"/>
          <path class="cls-19" d="M521.5,45.23v30.08c0,.55.4,1.01.97,1.24.57-.21.97-.69.97-1.24v-30.08c0-.54-.4-1.01-.97-1.22-.57.23-.97.69-.97,1.22Z"/>
        </g>
        <g>
          <path class="cls-17" d="M515.96,47.62v30.08c0,.55.4,1.01.97,1.24.21.08.47.13.72.13.93,0,1.68-.61,1.68-1.36v-30.08c0-.74-.74-1.35-1.68-1.35-.25,0-.5.04-.72.13-.57.23-.97.69-.97,1.22Z"/>
          <path class="cls-19" d="M515.96,47.62v30.08c0,.55.4,1.01.97,1.24.57-.21.97-.69.97-1.24v-30.08c0-.54-.4-1.01-.97-1.22-.57.23-.97.69-.97,1.22Z"/>
        </g>
        <g>
          <path class="cls-17" d="M510.43,50.02v30.08c0,.55.4,1.01.97,1.24.21.08.47.13.72.13.93,0,1.68-.61,1.68-1.36v-30.08c0-.74-.74-1.35-1.68-1.35-.25,0-.5.04-.72.13-.57.23-.97.69-.97,1.22Z"/>
          <path class="cls-19" d="M510.43,50.02v30.08c0,.55.4,1.01.97,1.24.57-.21.97-.69.97-1.24v-30.08c0-.54-.4-1.01-.97-1.22-.57.23-.97.69-.97,1.22Z"/>
        </g>
        <g>
          <path class="cls-17" d="M504.89,52.41v30.08c0,.55.4,1.01.97,1.24.21.08.47.13.72.13.93,0,1.68-.61,1.68-1.36v-30.08c0-.74-.74-1.35-1.68-1.35-.25,0-.5.04-.72.13-.57.23-.97.69-.97,1.22Z"/>
          <path class="cls-19" d="M504.89,52.41v30.08c0,.55.4,1.01.97,1.24.57-.21.97-.69.97-1.24v-30.08c0-.54-.4-1.01-.97-1.22-.57.23-.97.69-.97,1.22Z"/>
        </g>
        <g>
          <path class="cls-17" d="M499.36,54.81v30.08c0,.55.4,1.01.97,1.24.21.08.47.13.72.13.93,0,1.68-.61,1.68-1.36v-30.08c0-.74-.74-1.35-1.68-1.35-.25,0-.5.04-.72.13-.57.23-.97.69-.97,1.22Z"/>
          <path class="cls-19" d="M499.36,54.81v30.08c0,.55.4,1.01.97,1.24.57-.21.97-.69.97-1.24v-30.08c0-.54-.4-1.01-.97-1.22-.57.23-.97.69-.97,1.22Z"/>
        </g>
        <g>
          <path class="cls-17" d="M493.82,57.2v30.08c0,.55.4,1.01.97,1.24.21.08.47.13.72.13.93,0,1.68-.61,1.68-1.36v-30.08c0-.74-.74-1.35-1.68-1.35-.25,0-.5.04-.72.13-.57.23-.97.69-.97,1.22Z"/>
          <path class="cls-19" d="M493.82,57.2v30.08c0,.55.4,1.01.97,1.24.57-.21.97-.69.97-1.24v-30.08c0-.54-.4-1.01-.97-1.22-.57.23-.97.69-.97,1.22Z"/>
        </g>
        <g>
          <path class="cls-17" d="M488.29,59.6v30.08c0,.55.4,1.01.97,1.24.21.09.47.13.72.13.93,0,1.68-.61,1.68-1.36v-30.08c0-.74-.74-1.35-1.68-1.35-.25,0-.51.04-.72.13-.57.23-.97.69-.97,1.22Z"/>
          <path class="cls-19" d="M488.29,59.6v30.08c0,.55.4,1.01.97,1.24.57-.21.97-.69.97-1.24v-30.08c0-.54-.4-1.01-.97-1.22-.57.23-.97.69-.97,1.22Z"/>
        </g>
      </g>
      <g>
        <polygon class="cls-19" points="544.66 80.15 557.72 74.07 557.72 67.47 544.66 73.55 544.66 80.15"/>
        <polygon class="cls-7" points="544.66 80.15 557.72 74.07 556.95 68.33 544.66 74.13 544.66 80.15"/>
      </g>
      <g>
        <polygon class="cls-19" points="457.49 120.75 470.55 114.66 470.55 108.06 457.49 114.15 457.49 120.75"/>
        <polygon class="cls-7" points="457.49 120.75 470.55 114.66 469.79 108.93 457.49 114.72 457.49 120.75"/>
      </g>
    </g>
  </g>
  <g>
    <path class="cls-1" d="M434.16,63.6v66.99c0,3.17-2.57,5.73-5.73,5.73H5.73c-3.17,0-5.73-2.57-5.73-5.73V63.59c0-3.17,2.57-5.73,5.73-5.73h422.68c3.17,0,5.74,2.57,5.74,5.74Z"/>
    <path class="cls-16" d="M434.16,64.92v62.94c0,2.41-1.96,4.37-4.37,4.37H4.36c-2.41,0-4.36-1.95-4.36-4.36v-62.96c0-2.41,1.95-4.36,4.36-4.36h425.43c2.41,0,4.37,1.96,4.37,4.37Z"/>
    <circle class="cls-14" cx="132.24" cy="111.57" r="5.82"/>
    <circle class="cls-14" cx="110.62" cy="111.57" r="5.89"/>
    <circle class="cls-14" cx="88.99" cy="109.9" r="5.82"/>
    <rect class="cls-14" x="44.08" y="80.79" width="33.27" height="36.59" rx="7.66" ry="7.66"/>
    <circle class="cls-2" cx="60.71" cy="99.09" r="13.14"/>
    <path class="cls-5" d="M71.39,99.42c1.58-.48,2.46-1.04,2.46-2.33s-1.33-2.33-2.96-2.33l-8.71.49c-1.88,0-3.41,1.72-3.41,3.84s1.53,3.84,3.41,3.84c0,0,6.72-2.76,9.2-3.5Z"/>
    <circle class="cls-6" cx="62.61" cy="99.09" r="3.84"/>
    <g class="cls-22">
      <g>
        <path class="cls-10" d="M345.49,84.69h-10.02c-1.25,0-2.28,1.04-2.28,2.3l-.05,18.02c0,1.28,1.01,2.3,2.28,2.3h3.33v1.28c0,1.28,1.01,2.3,2.28,2.3h1.32v1.81c0,1.28,1.01,2.3,2.28,2.3h13.76c1.25,0,2.28-1.02,2.28-2.3v-1.81h1.32c1.25,0,2.28-1.04,2.28-2.3v-1.28h3.33c1.25,0,2.28-1.04,2.28-2.3l.05-18.02c0-1.28-1.01-2.3-2.28-2.3h-22.14M302.88,84.69h-10.02c-1.26,0-2.28,1.04-2.28,2.3l-.05,18.02c0,1.28,1.01,2.3,2.28,2.3h3.33v1.28c0,1.28,1.01,2.3,2.28,2.3h1.32v1.81c0,1.28,1.01,2.3,2.28,2.3h13.76c1.26,0,2.28-1.02,2.28-2.3v-1.81h1.32c1.25,0,2.28-1.04,2.28-2.3v-1.28h3.33c1.26,0,2.28-1.04,2.28-2.3l.05-18.02c0-1.28-1.01-2.3-2.28-2.3h-22.12M260.28,84.69h-10.02c-1.26,0-2.28,1.04-2.28,2.3l-.05,18.02c0,1.28,1.01,2.3,2.28,2.3h3.33v1.28c0,1.28,1.01,2.3,2.28,2.3h1.32v1.81c0,1.28,1.01,2.3,2.28,2.3h13.76c1.25,0,2.28-1.02,2.28-2.3v-1.81h1.32c1.26,0,2.28-1.04,2.28-2.3v-1.28h3.33c1.25,0,2.28-1.04,2.28-2.3l.05-18.02c0-1.28-1.01-2.3-2.28-2.3h-22.12M217.67,84.69h-10.02c-1.25,0-2.28,1.04-2.28,2.3l-.05,18.02c0,1.28,1.01,2.3,2.28,2.3h3.33v1.28c0,1.28,1.01,2.3,2.28,2.3h1.32v1.81c0,1.28,1.01,2.3,2.28,2.3h13.76c1.25,0,2.28-1.02,2.28-2.3v-1.81h1.32c1.25,0,2.28-1.04,2.28-2.3v-1.28h3.33c1.25,0,2.28-1.04,2.28-2.3l.05-18.02c0-1.28-1.01-2.3-2.28-2.3h-22.14M175.05,84.69h-10.02c-1.25,0-2.28,1.04-2.28,2.3l-.05,18.02c0,1.28,1.01,2.3,2.28,2.3h3.33v1.28c0,1.28,1.01,2.3,2.28,2.3h1.32v1.81c0,1.28,1.01,2.3,2.28,2.3h13.76c1.25,0,2.28-1.02,2.28-2.3v-1.81h1.32c1.25,0,2.28-1.04,2.28-2.3v-1.28h3.33c1.25,0,2.28-1.04,2.28-2.3l.05-18.02c0-1.28-1.01-2.3-2.28-2.3h-22.14M159.24,80.79h214.06c.88,0,1.61.73,1.61,1.62l-.08,31.16c0,.89-.73,1.62-1.62,1.62h-214.06c-.89,0-1.61-.73-1.61-1.62l.08-31.16c0-.91.72-1.62,1.62-1.62"/>
        <path class="cls-2" d="M335.47,84.69h32.14c1.25,0,2.28,1.04,2.28,2.3l-.05,18.02c0,1.28-1.02,2.3-2.28,2.3h-3.33v1.28c0,1.28-1.02,2.3-2.28,2.3h-1.32v1.81c0,1.28-1.02,2.3-2.28,2.3h-13.76c-1.25,0-2.28-1.02-2.28-2.3v-1.81h-1.3c-1.26,0-2.28-1.04-2.28-2.3v-1.28h-3.33c-1.25,0-2.28-1.04-2.28-2.3l.05-18.02c0-1.28,1.02-2.3,2.28-2.3"/>
        <g class="cls-23">
          <g>
            <path class="cls-11" d="M339.31,84.69h1.65l7.8,3.18c0,.45-.37.84-.83.84s-.83-.37-.83-.84l-7.8-3.18"/>
            <path class="cls-11" d="M347.11,84.69h1.65l7.8,3.18c0,.45-.37.84-.83.84s-.83-.37-.83-.84l-7.8-3.18"/>
            <path class="cls-11" d="M354.92,84.69h1.65l7.8,3.18c0,.45-.37.84-.83.84s-.83-.37-.83-.84l-7.8-3.18"/>
          </g>
        </g>
        <path class="cls-2" d="M292.86,84.69h32.17c1.26,0,2.28,1.04,2.28,2.3l-.05,18.02c0,1.28-1.02,2.3-2.28,2.3h-3.33v1.28c0,1.28-1.02,2.3-2.28,2.3h-1.32v1.81c0,1.28-1.02,2.3-2.28,2.3h-13.76c-1.26,0-2.28-1.02-2.28-2.3v-1.81h-1.32c-1.25,0-2.28-1.04-2.28-2.3v-1.28h-3.31c-1.26,0-2.28-1.04-2.28-2.3l.05-18.02c0-1.28,1.02-2.3,2.28-2.3"/>
        <g class="cls-26">
          <g>
            <path class="cls-11" d="M296.7,84.69h1.65l7.79,3.18c0,.45-.37.84-.83.84s-.83-.37-.83-.84l-7.8-3.18"/>
            <path class="cls-11" d="M304.5,84.69h1.65l7.79,3.18c0,.45-.37.84-.83.84s-.83-.37-.83-.84l-7.8-3.18"/>
            <path class="cls-11" d="M312.31,84.69h1.65l7.79,3.18c0,.45-.37.84-.83.84s-.83-.37-.83-.84l-7.8-3.18"/>
          </g>
        </g>
        <path class="cls-2" d="M250.25,84.69h32.13c1.25,0,2.28,1.04,2.28,2.3l-.05,18.02c0,1.28-1.02,2.3-2.28,2.3h-3.33v1.28c0,1.28-1.02,2.3-2.28,2.3h-1.32v1.81c0,1.28-1.02,2.3-2.28,2.3h-13.76c-1.26,0-2.28-1.02-2.28-2.3v-1.81h-1.3c-1.25,0-2.28-1.04-2.28-2.3v-1.28h-3.31c-1.26,0-2.28-1.04-2.28-2.3l.05-18.02c0-1.28,1.02-2.3,2.28-2.3"/>
        <g class="cls-25">
          <g>
            <path class="cls-11" d="M254.09,84.69h1.65l7.8,3.18c0,.45-.37.84-.83.84s-.83-.37-.83-.84l-7.79-3.18"/>
            <path class="cls-11" d="M261.89,84.69h1.65l7.79,3.18c0,.45-.37.84-.83.84s-.83-.37-.83-.84l-7.79-3.18"/>
            <path class="cls-11" d="M269.71,84.69h1.65l7.79,3.18c0,.45-.37.84-.83.84s-.83-.37-.83-.84l-7.79-3.18"/>
          </g>
        </g>
        <path class="cls-2" d="M207.65,84.69h32.14c1.25,0,2.28,1.04,2.28,2.3l-.05,18.02c0,1.28-1.02,2.3-2.28,2.3h-3.33v1.28c0,1.28-1.02,2.3-2.28,2.3h-1.32v1.81c0,1.28-1.02,2.3-2.28,2.3h-13.76c-1.25,0-2.28-1.02-2.28-2.3v-1.81h-1.3c-1.25,0-2.28-1.04-2.28-2.3v-1.28h-3.33c-1.25,0-2.28-1.04-2.28-2.3l.05-18.02c0-1.28,1.02-2.3,2.28-2.3"/>
        <g class="cls-24">
          <g>
            <path class="cls-11" d="M211.49,84.69h1.65l7.8,3.18c0,.45-.37.84-.83.84s-.83-.37-.83-.84l-7.8-3.18"/>
            <path class="cls-11" d="M219.29,84.69h1.65l7.8,3.18c0,.45-.37.84-.83.84s-.83-.37-.83-.84l-7.79-3.18"/>
            <path class="cls-11" d="M227.09,84.69h1.65l7.8,3.18c0,.45-.37.84-.83.84s-.83-.37-.83-.84l-7.8-3.18"/>
          </g>
        </g>
        <path class="cls-2" d="M165.03,84.69h32.14c1.25,0,2.28,1.04,2.28,2.3l-.05,18.02c0,1.28-1.02,2.3-2.28,2.3h-3.33v1.28c0,1.28-1.02,2.3-2.28,2.3h-1.32v1.81c0,1.28-1.02,2.3-2.28,2.3h-13.76c-1.25,0-2.28-1.02-2.28-2.3v-1.81h-1.3c-1.26,0-2.28-1.04-2.28-2.3v-1.28h-3.33c-1.25,0-2.28-1.04-2.28-2.3l.05-18.02c0-1.28,1.02-2.3,2.28-2.3"/>
        <g class="cls-28">
          <g>
            <path class="cls-11" d="M168.87,84.69h1.65l7.8,3.18c0,.45-.37.84-.83.84s-.83-.37-.83-.84l-7.8-3.18"/>
            <path class="cls-11" d="M176.68,84.69h1.65l7.8,3.18c0,.45-.37.84-.83.84s-.83-.37-.83-.84l-7.8-3.18"/>
            <path class="cls-11" d="M184.49,84.69h1.65l7.9,3.44c0,.45-.47.58-.93.58s-.72-.11-.72-.58l-7.9-3.44"/>
          </g>
        </g>
      </g>
    </g>
  </g>
  <polygon class="cls-20" points="571.81 0 137.65 0 0 60.55 434.16 60.55 571.81 0"/>
  <g class="cls-29">
    <g class="cls-27">
      <g>
        <path class="cls-20" d="M350.63,32.21c-.5.32-1.04.65-1.6.96.05,0,.1,0,.16,0,.37-.26.81-.56,1.44-.97,0,0,0,0,0,0M351.92,31.33s0,0,0,0c0,0,0,0,0,0M352.09,31.2s0,0,0,0c0,0,0,0,0,0M352.26,31.07s-.01,0-.02.01c0,0,.01,0,.02-.01M352.44,30.94s-.02.02-.04.03c.01,0,.02-.02.04-.03M352.61,30.8s-.04.03-.05.04c.02-.01.04-.03.05-.04M352.77,30.67s-.04.04-.06.05c.02-.02.04-.04.06-.05M352.93,30.54s-.05.04-.08.07c.03-.02.05-.04.08-.07M353.08,30.41s-.06.05-.08.07c.03-.02.06-.05.08-.07M286.21,30.39c-1.64.17-3.36.33-5.12.45,1.76-.12,3.48-.28,5.12-.45M353.24,30.28s-.06.06-.1.08c.03-.03.06-.06.1-.08M353.38,30.15s-.07.06-.1.09c.03-.03.07-.06.1-.09M353.52,30.02s-.07.07-.11.1c.04-.03.07-.07.11-.1M353.66,29.89s-.08.08-.12.11c.04-.04.08-.08.12-.11M284.63,27.65s0,0,0,0c-.74.26-2.35.76-4.93,1.09,2.59-.33,4.21-.84,4.94-1.09M287.34,27.58c-.01.26-.16,1.68-5.08,2.83-.74.17-1.71.37-2.95.55,0,0,.01,0,.02,0,1.24-.19,2.2-.38,2.94-.55,4.91-1.15,5.07-2.57,5.08-2.83M355.65,27.31c-.4.84-1.06,1.7-1.99,2.58.93-.88,1.59-1.74,1.99-2.58M355.7,27.2s-.03.06-.04.09c.01-.03.03-.06.04-.09M355.75,27.09s-.02.05-.03.07c.01-.02.02-.05.03-.07M281.47,27.08c-1.05.3-2.66.67-4.97,1.04,2.31-.36,3.92-.74,4.97-1.04M355.8,26.98s-.01.03-.02.05c0-.02.01-.03.02-.05M355.84,26.88s0,.01,0,.02c0,0,0-.01,0-.02M305.96,25.91s.05.02.07.03c.28.11.42.23.49.33,0,0,0,0,0,0-.08-.1-.22-.21-.49-.32-.02,0-.05-.02-.07-.03M303.24,25.49c.05.53-.42.98-.97,1.34.55-.36,1.02-.81.98-1.34,0,0,0,0,0,0M311.81,23.57l.02.04h-.02s.04,0,.04,0c-.01-.01-.03-.03-.04-.05M311.65,23.56s.02,0,.03,0h-.01s-.01,0-.01,0M311.55,23.54c.12.03.21.05.26.06h-.04s-.12-.04-.2-.06h-.02M311.07,23.42c.18.05.34.09.46.12,0,0-.02,0-.02,0-.12-.03-.27-.07-.44-.11M310.82,22.3s-.02.06-.02.1c0-.03.01-.06.02-.1M301.93,21.83c.2.1.41.21.64.32.11.06.26.11.43.16.67.19,1.75.33,2.95.46-1.2-.13-2.27-.27-2.94-.46l-.09-.03c-.12-.04-.25-.08-.34-.13-.23-.11-.45-.22-.65-.32M306.11,21.79c.05.02.14.04.18.07l-.03-.04c-.09-.02-.14-.03-.15-.03M300.82,21.31c.07.03.14.06.21.09-.02,0-.04-.02-.06-.03-.05-.02-.1-.04-.16-.07M300.4,21.15s.1.04.15.05c-.04-.02-.09-.04-.15-.05M299.99,21.02c.08.02.16.05.24.07-.07-.03-.15-.05-.24-.07M297.52,20.62s.03,0,.05,0c-.02,0-.03,0-.05,0M295.54,20.52s.11,0,.18,0c.02,0,.04,0,.06,0h0c.65.02,1.21.05,1.71.09-.49-.04-1.05-.07-1.7-.09h-.02c-.07,0-.16,0-.24,0M287.62,20.14h0c1.46.16,2.38.23,3.5.27-1.12-.04-2.03-.11-3.5-.27M291.66,17.59h0c.66.02,1.32.04,1.99.07,0,0,0,0,0,0h0c-.68-.03-1.34-.06-1.99-.07M339.33,15.92l-19.43,4.87c.23.09.39.17.48.26,0,0,0,0-.03,0-.15,0-.94,0-2,.13l-4.44,1.11c-.77.34-1.48.77-2.05,1.32,0-.01-.03-.05-.08-.1-.25-.36-.57-.91-.95-1.21.02-.05.05-.09.09-.14-.04.05-.07.09-.09.14,0,0,0,0,0,0,0,0,0,0,0,0,.38.31.7.86.95,1.21,0,0-.01-.01-.02-.02,0,0,0,.01.01.02,0,0-.01-.01-.02-.02,0,0,.01.01.02.02.01.02.03.04.04.05-.01-.02-.02-.03-.03-.05.05.05.08.08.07.1h0s1.48.9,3.25,2.31h0s0,0,0,0c0,0,0,0,0,0,2.28,1.82,5.08,4.49,6,7.24h.08c.07-.04.14-.09.21-.13,2.63-1.69,3.76-3.31,3.56-4.79l31.11-3.49c-.03-.16-.06-.31-.11-.47l-31.11,3.49c-.7-2.08-4.11-3.86-9.79-5.16l25.58-6.41c-.43-.1-.86-.19-1.31-.28M251.58,15.84c-.73.09-1.46.19-2.19.28l5.31,6.46c-9.66,1.28-18.57,3.04-25.73,5.1l-19.99-3.57c-.53.15-1.06.31-1.58.47l20,3.57c-4.93,1.5-8.91,3.15-11.6,4.88l-.2.13h46.71c9.5-3.95,16.23-8.42,8.73-11.5,0,0-.01,0-.02,0-.48-.21-.99-.42-1.52-.62-4.27.32-8.5.75-12.61,1.26l-5.31-6.45M300.07,12.75c-.26,0-.53,0-.79,0l-6.47,4.1c.62.02,1.27.05,1.96.09l6.61-4.19c-.43,0-.87,0-1.31,0"/>
        <path class="cls-14" d="M212.88,40.7l-1.04.13c-1.28.16-2.52.35-3.7.55.88-.08,1.74-.12,2.61-.12,1.2,0,2.17.07,2.91.21.73.14,1.19.33,1.37.56.18.23.04.5-.42.8s-1.14.56-2.06.8c-.92.24-1.95.43-3.11.56-1.17.14-2.35.21-3.56.21s-2.13-.07-2.86-.21c-.73-.14-1.18-.32-1.35-.56-.17-.24-.03-.5.43-.8.07-.05.15-.09.24-.14-1.07.31-2.03.63-2.88.95.12.23.34.41.57.56.34.23.98.42,1.89.56.91.14,2.06.21,3.46.21,1.63,0,3.23-.09,4.81-.28s2.99-.45,4.23-.77c1.25-.33,2.18-.69,2.82-1.1s.82-.78.55-1.11c-.28-.33-.95-.58-1.99-.77-.78-.14-1.75-.23-2.92-.26"/>
        <path class="cls-14" d="M227.69,44.4c-1.19,0-2.18-.06-2.92-.2-.73-.14-1.2-.33-1.38-.56-.18-.23-.02-.5.44-.8s1.15-.56,2.05-.8c.92-.24,1.97-.42,3.13-.56,1.16-.14,2.34-.2,3.54-.2s2.17.06,2.91.2c.72.14,1.18.33,1.35.56.15.24,0,.5-.46.8s-1.15.57-2.03.8c-.9.23-1.94.42-3.09.56-1.16.14-2.32.2-3.53.2M233.48,40.68c-1.73,0-3.43.09-5.05.28-1.64.18-3.07.44-4.36.77-1.27.33-2.23.69-2.88,1.11s-.83.78-.56,1.11c.28.33.92.58,1.99.77,1.03.19,2.44.28,4.17.28s3.37-.09,5.01-.28c1.62-.18,3.07-.44,4.35-.77,1.28-.32,2.25-.69,2.88-1.11.63-.42.79-.79.54-1.11-.26-.33-.92-.58-1.96-.77-1.04-.19-2.4-.28-4.12-.28"/>
        <path class="cls-14" d="M255.33,40.68c-1.24,0-2.5.07-3.76.22-.98.11-1.88.26-2.71.43l.42-.27c.16-.11.17-.18.03-.24-.13-.06-.41-.09-.84-.09s-.81.03-1.12.09c-.33.06-.57.14-.74.24l-5.56,3.58c-.16.1-.17.18,0,.24.14.06.43.09.86.09s.8-.03,1.11-.09c.31-.06.56-.14.72-.24l3.57-2.3c.37-.24.97-.44,1.81-.61.85-.17,1.81-.29,2.9-.37.74-.05,1.5-.08,2.3-.08.38,0,.76,0,1.16.02.32.01.62.02.89.02s.52-.02.78-.05c.25-.03.46-.08.64-.15.35-.14.32-.24-.13-.32-.45-.08-1.22-.12-2.31-.12"/>
        <path class="cls-14" d="M268.29,40.69c-1.13,0-2.26.04-3.36.13-1.11.09-2.1.22-2.98.39-.87.18-1.51.39-1.92.66-.45.29-.34.54.34.74s2.03.35,4.05.44c1.57.07,2.61.16,3.11.28.52.12.64.27.37.44-.3.18-.89.33-1.78.45-.89.12-2.06.18-3.54.18-1.01,0-1.87-.04-2.58-.12-.71-.08-1.19-.19-1.46-.32-.14-.06-.38-.1-.72-.11-.05,0-.11,0-.16,0-.29,0-.63.03-1,.08-.38.06-.67.13-.85.22-.18.09-.19.17-.04.23.45.19,1.22.35,2.31.45,1.09.11,2.29.16,3.63.16,1.41,0,2.71-.05,3.91-.16,1.2-.11,2.22-.25,3.07-.44.85-.18,1.47-.39,1.85-.64.3-.2.38-.37.23-.53-.15-.16-.59-.3-1.33-.42-.75-.12-1.87-.21-3.37-.28-1.09-.05-1.91-.11-2.44-.17-.53-.06-.86-.14-.98-.22s-.09-.18.09-.29c.26-.17.81-.3,1.66-.41.85-.11,1.83-.16,2.94-.16.88,0,1.61.03,2.2.1.59.06,1.04.17,1.36.31.15.07.4.11.75.12.09,0,.17,0,.26,0,.27,0,.53-.02.79-.05.39-.05.67-.11.82-.19.16-.08.17-.16.04-.23-.34-.19-.94-.35-1.8-.47-.87-.12-2.02-.17-3.46-.17"/>
        <path class="cls-14" d="M294.12,40.72c-.4,0-.78.03-1.11.09-.34.06-.58.14-.73.23l-3.5,2.25c-.33.21-.85.4-1.58.56s-1.57.29-2.53.39c-.97.1-1.95.14-2.95.14s-1.9-.05-2.59-.15c-.69-.1-1.12-.25-1.3-.45-.18-.2-.03-.46.46-.77l3.06-1.97c.14-.09.13-.17-.03-.23-.15-.06-.44-.09-.82-.09s-.75.03-1.1.09c-.35.06-.6.14-.74.23l-3.06,1.97c-.67.43-.88.79-.66,1.09.23.29.82.52,1.78.67.95.15,2.18.23,3.7.23,1.39,0,2.77-.07,4.14-.22.9-.1,1.73-.22,2.5-.36l-.32.21c-.16.1-.17.18,0,.24.15.06.43.09.84.09s.79-.03,1.14-.09c.34-.06.59-.14.76-.24l5.55-3.58c.15-.1.15-.18-.01-.23-.17-.06-.45-.09-.86-.09"/>
        <path class="cls-14" d="M305.41,38.91c-.38,0-.74.03-1.08.09-.35.06-.58.14-.72.23l-8.4,5.41c-.14.09-.15.17.01.23.15.06.42.09.8.09.41,0,.79-.03,1.12-.09.33-.06.58-.14.72-.23l1.87-1.21,2.88-.47,3.48,1.92c.13.07.35.11.67.12.04,0,.07,0,.11,0,.29,0,.61-.03.96-.08.42-.06.69-.13.84-.21.13-.07.15-.15.01-.21l-3.53-1.94,8.37-1.36c.37-.06.63-.13.76-.2.13-.07.13-.15-.02-.21-.16-.07-.38-.1-.69-.11-.02,0-.04,0-.06,0-.28,0-.6.03-.95.09l-11.6,1.89,5.3-3.41c.14-.09.13-.17-.01-.23-.15-.06-.43-.09-.84-.09"/>
        <path class="cls-21" d="M211.66,40.69c-.61,0-1.53.01-2.68.08,0,0-1.07.06-2.2.18-1.41.15-7.8,1.01-12.07,2.56-5.99,2.18-2.65,4.28-2.65,4.28,0,0,2.38-3.96,14.66-6.33,2.09-.4,3.96-.65,4.95-.78"/>
        <path class="cls-21" d="M249.39,16.12c-15.19,1.99-29.23,4.75-40.42,7.99h.01s19.99,3.57,19.99,3.57c7.16-2.06,16.07-3.82,25.73-5.1l-5.31-6.46h0"/>
        <path class="cls-21" d="M285.68,19.92s.06,0,.1.01c.71.09,1.31.16,1.84.21h0s0,0,0,0c-.52-.05-1.11-.13-1.83-.21-.03,0-.07,0-.1-.01M285.33,19.88c.08,0,.15.02.23.03-.07,0-.15-.02-.23-.03M284.49,19.77c.11.01.23.03.34.04-.11-.01-.23-.03-.34-.04M284.24,19.75s0,0,0,0c0,0,0,0,0,0M284.07,19.73s.05,0,.08,0c-.03,0-.05,0-.08,0M276.51,19.67c-.11.01-.24.03-.35.05-.53.08-1.28.12-2.12.14.84-.01,1.58-.05,2.12-.13h.01c.12-.02.24-.03.34-.05M274.78,18.94c-.16.03-.34.07-.54.1.2-.03.37-.07.54-.1M276.63,18.45c-.25.08-.49.15-.76.23.24-.07.45-.13.66-.2.03-.01.07-.02.1-.03M277.16,18.29s-.03,0-.05.01h0s.03,0,.05-.01M277.61,18.19h-.06c-.08.03-.16.05-.24.07.07-.02.15-.04.24-.05.02,0,.04-.01.06-.02M277.88,18.13l-.08.02h-.04s.02,0,.04,0l.08-.02M279.75,17.88c-.81.06-1.37.15-1.84.24.43-.08,1.04-.16,1.84-.24M288.28,17.54c-3.55,0-6.51.15-8.47.34h-.03s.02,0,.02,0c1.95-.18,4.88-.34,8.38-.34,1.1,0,2.26.01,3.46.05,0,0,0,0,0,0h0c-1.17-.04-2.3-.05-3.37-.05M299.28,12.75c-15.86.04-32.32,1.16-47.71,3.09h0s5.31,6.46,5.31,6.46c4.11-.51,8.34-.93,12.61-1.26-.23-.08-.45-.16-.69-.24-1.01-.35-2.49-.79-2.51-1.56,0,0,0,0-.01,0,0,0,0,0,.01,0,0,0,0,0,0,0,0,0,0,0,.01,0,.47.04,1.15.07,1.91.08-.77-.01-1.45-.04-1.91-.08v-.02c0-.16.06-.31.18-.47,5.48-.48,8.14-1.46,8.22-1.49-.08.03-2.74,1.01-8.23,1.49.63-.89,2.87-1.78,5.05-2.48l.16-.05c.36.08.8.19,1.23.31-.43-.12-.87-.23-1.22-.31.36-.09.85-.14,1.28-.14.13,0,.25,0,.36.02.74.06,1.64.15,2.68.24,4.01.37,4.76.47,6.26.55,1.15.06,2.26.08,3.26.08,1.7,0,3.08-.06,3.78-.08.55-.02,1.15-.03,1.8-.03.53,0,1.1,0,1.7.03l6.47-4.1h0"/>
        <path class="cls-21" d="M312.91,21.17c-.4.12-.74.25-1.03.37.29-.13.64-.25,1.03-.37M318.35,21.17c-1.28.15-2.97.46-4.44,1.11l4.44-1.11M311.26,20.87c.15.03.32.05.51.07.27.03.57.05.92.05.23,0,.47,0,.73-.03,0,0,0,0,0,0-.26.02-.51.03-.74.03-.59,0-1.07-.05-1.43-.12M310.55,20.7s.14.05.4.11c0,0,.01,0,.02,0-.28-.06-.42-.12-.42-.12M315.04,20.3s-.04,0-.06,0c0,0,0,0,0,0,.02,0,.04,0,.06,0,0,0,0,0,0,0M307.39,19.33h0s3.19.62,5.82.87c-2.62-.25-5.81-.87-5.81-.87M305.57,18.88c.67.14,1.27.29,1.81.45-.54-.16-1.14-.31-1.81-.45M301.6,18.26c.31.03.6.07.9.11h0c-.33-.05-.64-.08-.91-.11M293.65,17.65h0c2.54.11,5.23.3,7.96.61-2.73-.31-5.41-.5-7.95-.61M301.38,12.75h0s-6.61,4.19-6.61,4.19c2.8.17,6.24.53,10.48,1.23,0,0,6.53.09,8.57,1.08,0,0-.34-.04-.81-.04-.31,0-.68.02-1.04.07,3.35.46,6.63,1,7.92,1.5l19.43-4.87h0c-9.32-1.95-22.25-3.11-37.96-3.17"/>
        <path class="cls-21" d="M340.65,16.2h0s-25.58,6.41-25.58,6.41c5.67,1.3,9.09,3.08,9.79,5.16l31.11-3.49h0c-.99-3.27-6.35-6.06-15.31-8.08"/>
        <path class="cls-21" d="M207.39,24.58c-7.79,2.34-14.08,4.92-18.29,7.63-.5.32-.97.65-1.4.97.35-.01.71-.02,1.06-.02h26.84c.07-.04.14-.09.2-.13,2.68-1.73,6.67-3.37,11.6-4.88l-20-3.57h-.01"/>
        <path class="cls-21" d="M356.07,24.75h0s-31.11,3.49-31.11,3.49c.2,1.48-.93,3.1-3.56,4.79-.07.04-.14.09-.21.13h26.85c.35,0,.69,0,1.01.02.56-.32,1.1-.64,1.6-.96,0,0,0,0,0,0,.45-.29.88-.58,1.28-.87,0,0,0,0,0,0,.05-.04.11-.08.16-.12,0,0,0,0,0,0,.05-.04.1-.08.16-.12,0,0,.01,0,.02-.01.05-.04.09-.07.14-.11.01,0,.02-.02.04-.03.04-.03.08-.06.12-.09.02-.01.04-.03.05-.04.03-.03.06-.05.1-.08.02-.02.04-.04.06-.05.03-.02.06-.05.08-.07.03-.02.05-.04.08-.07.02-.02.04-.04.06-.05.03-.02.06-.05.08-.07.02-.02.04-.03.06-.05.03-.03.06-.06.1-.08.01-.01.03-.02.04-.03.03-.03.07-.06.1-.09.01,0,.02-.02.03-.03.04-.03.07-.07.11-.1,0,0,.01-.01.02-.02.04-.04.08-.08.12-.11,0,0,0,0,0,0,.93-.88,1.59-1.74,1.99-2.58,0,0,0-.02.01-.02.01-.03.03-.06.04-.09,0-.01.01-.03.02-.04.01-.02.02-.05.03-.07,0-.02.02-.04.02-.06,0-.02.01-.03.02-.05.01-.03.02-.06.03-.09,0,0,0-.01,0-.02.27-.73.35-1.44.23-2.13"/>
        <path class="cls-9" d="M271.7,16.21l-.16.05c-2.19.7-4.42,1.59-5.05,2.48,5.49-.49,8.15-1.46,8.23-1.49,0,0,0,0,0,0-.12-.21-.94-.49-1.78-.72-.43-.12-.88-.23-1.23-.31"/>
        <path class="cls-8" d="M311.7,23.45s.04.03.05.05c0,0,.01.01.02.02,0,0,0-.01-.01-.02-.02-.01-.04-.03-.06-.05M311.43,23.23s.02.02.03.03c.03.03.06.05.09.07-.04-.03-.08-.07-.13-.11M311.26,23.08s.03.03.05.04c-.02-.01-.03-.03-.05-.04M310.95,22.76s0,0,0,.02c0,0,0,0,.01.01,0,0-.02-.02-.02-.03M310.82,22.3s-.02.06-.02.1c0,.03,0,.05,0,.08,0-.06,0-.12.03-.17,0,0,0,0,0,0"/>
        <path class="cls-12" d="M266.3,19.23c.02.78,1.5,1.22,2.51,1.56.23.08.46.16.69.24.53.2,1.04.4,1.52.62,0,0,.01,0,.02,0,0,0,0,0,0,0,4.92.96,8.52,1.35,11.11,1.5.26.02.93.05,1.61.17,3.17.55,2.54,2.14-1.14,3.4-.27.09-.65.21-1.14.35-1.05.3-2.65.68-4.97,1.04.33.02,1.15.07,2.25.07,1.26,0,2.87-.06,4.52-.31.42-.06.88-.14,1.37-.24,0,0,0,0,0,0,0,0,0,0,0,0-.73.26-2.35.76-4.94,1.09-.5.06-.99.12-1.44.15.96-.03,4.29-.17,7.23-.81.8-.18,1.41-.35,1.86-.5,0,.26-.16,1.68-5.08,2.83-.74.17-1.7.37-2.94.55.59-.03,1.18-.07,1.76-.11,1.76-.13,3.48-.28,5.12-.45,7-.74,12.74-1.9,15.4-3.19.22-.11.45-.23.67-.37.55-.36,1.02-.81.97-1.34,0,0,0,0,0,0,0,0,0,0,0,0,.66.04,1.94.13,2.72.42.03,0,.05.02.07.03.27.11.41.22.49.32,3.07-1.14,2.98-2.31,1.89-3.23,0,0-.01,0-.02,0-.82-.09-1.66-.18-2.45-.26-1.2-.13-2.28-.27-2.95-.46-.17-.05-.32-.1-.43-.16-.23-.11-.44-.22-.64-.32-.32-.16-.61-.3-.9-.43-.07-.03-.14-.06-.21-.09-.05-.02-.11-.04-.17-.06-.03-.02-.06-.03-.1-.05-.05-.02-.1-.04-.15-.05-.02,0-.04-.01-.06-.02-.03-.01-.07-.03-.1-.04-.08-.02-.16-.05-.24-.07-.06-.02-.13-.03-.2-.05-.58-.16-1.28-.27-2.23-.35-.02,0-.03,0-.05,0,0,0-.01,0-.02,0-.5-.04-1.06-.07-1.71-.09h0s-.04,0-.06,0c-.07,0-.13,0-.18,0-.01,0-.02,0-.03,0-2.08-.05-3.33-.07-4.39-.11-1.12-.04-2.04-.11-3.5-.27-.53-.06-1.13-.13-1.84-.21-.03,0-.06,0-.1-.01-.04,0-.09,0-.12-.01-.07,0-.15-.02-.23-.03-.17-.02-.34-.04-.51-.06-.11-.01-.23-.03-.34-.04-.08,0-.16-.02-.24-.03,0,0,0,0,0,0-.03,0-.06,0-.1-.01-.03,0-.05,0-.08,0-1.31-.15-2.73-.27-4.25-.27-1.03,0-2.1.06-3.21.21-.03,0-.07,0-.1.01-.1.02-.22.03-.34.05h-.01c-.53.08-1.27.13-2.12.14-.14,0-.29,0-.44,0-2.7,0-6.18-.29-7.3-.62M266.3,19.23s0,0,0,0c0,0,0,0,.01,0,0,0,0,0-.01,0"/>
        <path class="cls-9" d="M271.03,21.66s0,0,0,0c7.5,3.08.77,7.54-8.73,11.5h16.18c1.51-.48,2.87-.94,4.1-1.38.3-.11.6-.22.89-.32.14-.05.28-.11.42-.16.28-.11.56-.21.82-.31.27-.1.52-.2.77-.3.25-.1.49-.19.72-.29-1.64.17-3.36.33-5.12.45-.58.04-1.17.08-1.76.11,0,0-.01,0-.02,0,1.25-.19,2.22-.38,2.95-.55,4.92-1.15,5.07-2.57,5.08-2.83-.45.15-1.06.33-1.86.5-2.94.64-6.26.78-7.23.81.45-.04.94-.09,1.44-.15,2.58-.33,4.19-.83,4.93-1.09,0,0,0,0,0,0-.49.1-.95.18-1.37.24-1.65.24-3.27.31-4.52.31-1.1,0-1.92-.05-2.25-.07,2.31-.37,3.91-.74,4.97-1.04.49-.14.87-.26,1.14-.35,3.68-1.26,4.31-2.85,1.14-3.4-.67-.12-1.35-.16-1.61-.17-2.59-.16-6.19-.55-11.11-1.5"/>
        <path class="cls-15" d="M311.56,23.55c.09.02.15.04.2.05l-.07-.02h-.01s-.02-.01-.03-.01l-.09-.02M311.07,23.42c.17.04.32.08.44.11-.11-.03-.26-.07-.44-.11"/>
        <path class="cls-12" d="M272.98,16.06c-.43,0-.92.05-1.28.14.35.08.79.19,1.22.31.84.23,1.66.51,1.78.72,0,0,0,0,0,0-.08.03-2.74,1.01-8.22,1.49-.12.16-.18.31-.19.47v.02c.47.04,1.15.07,1.92.08.3,0,.61,0,.93,0,1.77,0,3.76-.07,4.82-.24h.03c.08-.02.16-.03.24-.04.19-.03.37-.07.54-.1.07-.01.14-.03.2-.04.14-.03.26-.06.38-.09.18-.04.35-.09.51-.13.27-.08.51-.16.76-.23.15-.05.3-.09.46-.14h.02s.03,0,.05-.01c.05-.01.1-.03.15-.04.08-.02.15-.04.24-.06h.06s.1-.04.15-.05h.04s.08-.03.08-.03h.02s.01,0,.02,0c.47-.09,1.03-.17,1.84-.24.01,0,.02,0,.03,0h0s.03,0,.03,0c1.95-.18,4.92-.34,8.47-.34,1.08,0,2.2.01,3.37.05.65.02,1.32.04,1.99.07,2.53.11,5.22.3,7.95.61.27.03.58.06.91.1h0s0,0,.01,0c1.15.15,2.16.32,3.06.51.67.14,1.27.29,1.81.45h0s3.19.62,5.81.87c.65.06,1.26.1,1.78.1.02,0,.04,0,.06,0,0,0,0,0,0,0,0,0,0,0,0,0,0,0-1.9.45-3.62.45-.3,0-.6-.01-.87-.05,0,0,.15.06.42.12.08.02.18.04.28.06.35.06.83.12,1.43.12.23,0,.48,0,.74-.03,0,0,0,0,0,0,0,0,0,0,0,0,0,0-.14.09-.52.21-.39.12-.74.25-1.03.37-.24.11-.45.21-.61.32-.15.1-.28.2-.36.3-.04.05-.07.09-.09.14.39.31.71.85.95,1.21.05.05.08.08.08.1.57-.55,1.28-.98,2.05-1.32,1.48-.65,3.16-.97,4.44-1.11,1.07-.12,1.85-.13,2-.13.02,0,.03,0,.03,0-.09-.08-.26-.17-.48-.26-1.28-.5-4.57-1.04-7.92-1.5.36-.05.72-.07,1.04-.07.47,0,.81.04.81.04-2.04-.99-8.57-1.08-8.57-1.08-4.25-.7-7.68-1.06-10.48-1.23-.69-.04-1.35-.07-1.96-.09-.6-.02-1.16-.03-1.7-.03-.65,0-1.24.01-1.8.03-.7.03-2.07.08-3.78.08-1,0-2.11-.02-3.26-.08-1.49-.08-2.25-.18-6.26-.55-1.04-.1-1.94-.18-2.68-.24-.11-.01-.23-.02-.36-.02"/>
        <path class="cls-15" d="M310.82,22.3s0,0,0,0c-.02.06-.03.12-.03.17,0,.05.03.1.07.15.03.04.05.08.08.13,0,0,.02.02.02.03.08.08.14.17.24.25.02.02.03.03.05.05.02.01.03.03.05.04.04.04.08.07.12.1.04.04.09.07.13.11.05.04.1.08.14.11.02.02.04.03.06.05,0,0,.01.01.02.02-.25-.36-.57-.9-.95-1.21"/>
        <path class="cls-15" d="M311.77,23.52s.02.03.03.05c-.01-.02-.02-.03-.03-.05"/>
        <path class="cls-9" d="M276.52,18.48c-.21.07-.42.13-.66.2-.16.04-.32.09-.51.13.46-.11.82-.22,1.17-.33"/>
        <path class="cls-9" d="M306.3,21.86s-.13-.05-.18-.07c.01,0,.06.02.15.03l.03.04M292.34,19.36c-1.3,0-2.45-.16-2.65-.68,0,0,1.96-.24,3.78-.24,1.35,0,2.62.13,2.97.59,0,0-2.21.33-4.1.33M288.19,17.54c-3.5,0-6.43.15-8.38.34h-.03s-.02,0-.03,0c-.8.08-1.41.16-1.84.24,0,0-.01,0-.02,0h-.02s-.08.02-.08.02c-.01,0-.03,0-.04,0-.05.01-.1.02-.15.03-.02,0-.04,0-.06.02-.09.02-.17.04-.24.05-.05.01-.1.03-.15.04-.02,0-.03,0-.05.01h-.03c-.16.05-.31.09-.46.14-.03.01-.07.02-.1.03-.35.11-.7.22-1.17.33-.12.03-.25.06-.38.09-.06.01-.13.03-.2.04-.16.03-.34.07-.54.1-.08.01-.16.03-.24.04h-.03c-1.06.17-3.05.24-4.82.24-.32,0-.63,0-.93,0-.76-.01-1.43-.04-1.91-.08,0,0,0,0-.01,0,0,0,0,0-.01,0,0,0,0,0,.01,0,1.11.33,4.6.62,7.3.62.15,0,.3,0,.44,0,.84-.01,1.59-.05,2.12-.14.12-.02.24-.03.35-.05.04,0,.07,0,.1-.01,1.11-.15,2.18-.21,3.21-.21,1.51,0,2.94.12,4.25.27.03,0,.05,0,.08,0,.03,0,.06,0,.1.01,0,0,0,0,0,0,.08,0,.16.02.24.03.11.01.23.03.34.04.17.02.34.04.51.06.08,0,.15.02.23.03.04,0,.08,0,.12.01.03,0,.07,0,.1.01.72.09,1.31.16,1.83.21,0,0,0,0,0,0,1.47.16,2.38.23,3.5.27,1.06.04,2.31.06,4.39.11.01,0,.02,0,.03,0,.08,0,.17,0,.24,0h.02c.64.02,1.2.05,1.7.09,0,0,.01,0,.02,0,.02,0,.03,0,.05,0,.95.08,1.65.19,2.23.35.07.01.13.03.2.05.08.02.16.05.24.07.04.01.07.03.1.04.02,0,.04.01.06.02.06.02.1.03.15.05.04.02.07.03.1.05.06.02.12.04.17.06.06.02.11.04.16.07.02,0,.04.02.06.03.29.13.58.27.9.43.2.1.42.21.65.32.09.04.23.09.34.13l.09.03c.67.19,1.74.33,2.94.46.78.09,1.62.17,2.45.26,0,0,.01,0,.02,0,0,0,0,0,0,0,.95.11,1.89.23,2.65.39h.01c.18.04.33.08.44.11,0,0,.02,0,.02,0,0,0,0,0,.01,0h.02s.09.02.09.02h.01s.01,0,.01,0h.01s.07.03.07.03h.04s0,.01,0,.01h0s-.02-.04-.02-.04c0,0,0,0,0,0,0-.01-.03-.03-.04-.05,0,0-.01-.01-.02-.02-.01-.02-.03-.03-.05-.05-.04-.03-.09-.07-.14-.11-.03-.02-.06-.05-.09-.07-.01-.01-.02-.02-.03-.03-.04-.03-.08-.07-.12-.1-.02-.01-.03-.03-.05-.04-.02-.02-.03-.03-.05-.05-.1-.08-.16-.16-.24-.25,0,0,0,0-.01-.01,0,0,0-.01,0-.02-.03-.04-.05-.08-.08-.13-.04-.05-.07-.1-.07-.15,0-.03,0-.05,0-.08,0-.03.01-.06.02-.1.02-.05.05-.09.09-.14.08-.1.2-.2.36-.3.16-.11.37-.21.61-.32.29-.13.63-.25,1.03-.37.39-.12.52-.21.52-.21,0,0,0,0,0,0-.26.02-.51.03-.73.03-.34,0-.65-.02-.92-.05-.19-.02-.36-.04-.51-.07-.1-.02-.2-.04-.28-.06,0,0-.01,0-.02,0-.26-.06-.4-.11-.4-.11.28.03.57.05.87.05,1.72,0,3.62-.45,3.62-.45,0,0,0,0,0,0-.02,0-.04,0-.06,0,0,0,0,0,0,0-.52,0-1.14-.04-1.78-.1-2.63-.25-5.82-.87-5.82-.87-.54-.16-1.15-.31-1.81-.45-.9-.19-1.91-.37-3.06-.51,0,0,0,0-.01,0-.3-.04-.59-.08-.9-.11-2.73-.3-5.42-.49-7.96-.6,0,0,0,0,0,0-.67-.03-1.33-.05-1.99-.07,0,0,0,0,0,0-1.2-.03-2.36-.05-3.46-.05"/>
        <path class="cls-9" d="M311.77,23.52s.02.03.03.05c0,0,0,0,0,0,.01.02.02.03.04.05h0s-.02-.05-.07-.1"/>
        <path class="cls-8" d="M308.41,23.03s0,0,0,0c1.09.93,1.19,2.1-1.89,3.23,0,0,0,0,0,0-.08-.1-.22-.21-.49-.33-.02,0-.05-.02-.07-.03-.77-.29-2.05-.39-2.72-.42,0,0,0,0,0,0,.05.53-.42.98-.98,1.34-.22.14-.45.26-.67.37-2.66,1.29-8.4,2.45-15.4,3.19-.23.09-.47.19-.72.29-.24.1-.5.2-.77.3-.26.1-.54.2-.82.31-.14.05-.28.11-.42.16-.29.11-.59.21-.89.32-1.23.44-2.59.9-4.1,1.38h24.94c4.41-1.57,4.2-3.65,4.2-3.7.69.55,1.45,1.22,2.11,1.96,5.55-2.44,5.37-5.31,5.36-5.49,0,0,0,0,0,0h0c-1.77-1.41-3.23-2.31-3.25-2.31h-.04s-.13-.04-.26-.07c0,0,0,0-.01,0-.12-.03-.28-.07-.46-.12h-.01c-.76-.17-1.7-.29-2.65-.4"/>
        <path class="cls-4" d="M315.09,25.92s0,0,0,0c.01.18.19,3.05-5.36,5.49.49.55.92,1.14,1.23,1.74h10.13c-.92-2.74-3.72-5.42-6-7.24"/>
        <path class="cls-4" d="M307.62,29.46s.21,2.14-4.2,3.7h7.54c-.31-.6-.74-1.19-1.23-1.74-.66-.74-1.43-1.42-2.11-1.96"/>
        <path class="cls-9" d="M348.02,33.16h-26.85s-.08,0-.08,0h-10.13s-7.54,0-7.54,0h-24.94s-16.18,0-16.18,0h-46.71s-26.84,0-26.84,0c-.35,0-.71,0-1.06.02-3.85.12-7.85.88-9.27,1.8-1.56,1,.56,1.81,4.71,1.81h159.26c4.15,0,8.78-.81,10.33-1.81,1.4-.9-.18-1.65-3.54-1.79-.05,0-.1,0-.16,0-.32-.01-.66-.02-1.01-.02"/>
        <path class="cls-14" d="M293.47,18.44c-1.82,0-3.78.24-3.78.24.19.52,1.35.68,2.65.68,1.89,0,4.1-.33,4.1-.33-.35-.46-1.62-.59-2.97-.59"/>
      </g>
    </g>
  </g>
</svg>