<?xml version="1.0" encoding="UTF-8"?>
<svg id="Layer_1" data-name="Layer 1" xmlns="http://www.w3.org/2000/svg" viewBox="0 0 387.21 97.93">
  <defs>
    <style>
      .cls-1 {
        fill: #fff;
        stroke-width: 0px;
      }
    </style>
  </defs>
  <polygon class="cls-1" points="127.97 28.57 133.84 28.57 133.84 12.46 140.19 12.46 140.19 7.8 121.61 7.8 121.61 12.46 127.97 12.46 127.97 28.57"/>
  <path class="cls-1" d="M151.63,28.98c3.09,0,5.49-.84,7.2-2.52,1.71-1.68,2.56-4.06,2.56-7.15V7.8h-5.78v11.34c0,3.31-1.3,4.97-3.91,4.97s-3.95-1.66-3.95-4.97V7.8h-5.87v11.51c0,3.09.86,5.46,2.57,7.15,1.71,1.68,4.11,2.52,7.19,2.52Z"/>
  <path class="cls-1" d="M148.56,6.15c.66,0,1.22-.21,1.67-.64.45-.42.66-.98.66-1.67s-.21-1.26-.66-1.7c-.45-.44-1.01-.65-1.67-.65s-1.23.21-1.68.65c-.44.44-.66.99-.66,1.7s.23,1.25.66,1.67c.45.42,1.01.64,1.68.64Z"/>
  <path class="cls-1" d="M154.84,6.15c.66,0,1.23-.21,1.67-.64.45-.42.66-.98.66-1.67s-.21-1.26-.66-1.7c-.44-.44-1.01-.65-1.67-.65s-1.23.21-1.68.65c-.44.44-.66.99-.66,1.7s.23,1.25.66,1.67c.45.42,1.01.64,1.68.64Z"/>
  <path class="cls-1" d="M171.24,23.05h3.2l3.76,5.52h6.28l-4.47-6.52c1.3-.64,2.31-1.51,3.01-2.62.7-1.11,1.05-2.43,1.05-3.92s-.37-2.93-1.13-4.08-1.82-2.04-3.21-2.66c-1.38-.62-3.01-.94-4.89-.94h-9.48v20.76h5.87v-5.52ZM171.24,12.43h3.26c1.21,0,2.11.27,2.72.81.62.53.93,1.29.93,2.25s-.31,1.71-.93,2.23c-.61.53-1.51.8-2.72.8h-3.26v-6.09Z"/>
  <polygon class="cls-1" points="208.06 28.57 199.14 17 207.62 7.8 201.15 7.8 193.12 16.43 193.12 7.8 187.31 7.8 187.31 28.57 193.12 28.57 193.12 23.37 195.32 21.04 201.24 28.57 208.06 28.57"/>
  <path class="cls-1" d="M212.54.34c-.85,0-1.55.27-2.11.81-.56.54-.82,1.25-.82,2.09s.27,1.55.81,2.11c.54.54,1.25.82,2.12.82s1.55-.28,2.11-.82c.56-.56.82-1.26.82-2.11s-.27-1.55-.82-2.09c-.56-.54-1.26-.81-2.11-.81Z"/>
  <rect class="cls-1" x="209.61" y="7.8" width="5.86" height="20.76"/>
  <polygon class="cls-1" points="224.91 28.57 230.77 28.57 230.77 21.13 238.72 7.8 233.02 7.8 228.1 16.05 223.18 7.8 216.99 7.8 224.91 21.04 224.91 28.57"/>
  <polygon class="cls-1" points="256.78 24.03 245.92 24.03 245.92 20.23 255.15 20.23 255.15 15.84 245.92 15.84 245.92 12.35 256.39 12.35 256.39 7.8 240.11 7.8 240.11 28.57 256.78 28.57 256.78 24.03"/>
  <path class="cls-1" d="M130.89,57.31c-1.19,0-2.4-.19-3.62-.57-1.23-.37-2.31-.86-3.23-1.47l-1.92,4.32c.98.69,2.27,1.25,3.84,1.66,1.59.42,3.22.62,4.89.62,1.99,0,3.66-.29,5.05-.9,1.38-.6,2.41-1.41,3.1-2.41.7-1.01,1.05-2.13,1.05-3.38,0-1.45-.38-2.59-1.14-3.43-.77-.84-1.67-1.45-2.7-1.83-1.03-.38-2.35-.74-3.92-1.09-1.41-.29-2.43-.58-3.06-.86-.62-.28-.94-.69-.94-1.25s.27-.99.8-1.34c.54-.34,1.39-.52,2.56-.52,1.86,0,3.77.53,5.74,1.59l1.82-4.36c-1.01-.58-2.17-1.03-3.5-1.34-1.33-.3-2.66-.46-4.03-.46-2,0-3.69.29-5.06.89-1.37.6-2.4,1.41-3.09,2.41-.69,1.02-1.03,2.16-1.03,3.43,0,1.45.37,2.59,1.11,3.43.76.85,1.66,1.47,2.7,1.86,1.05.38,2.35.74,3.91,1.09,1.43.3,2.45.61,3.1.9.64.28.97.73.97,1.31,0,1.13-1.13,1.7-3.38,1.7Z"/>
  <rect class="cls-1" x="142.74" y="40.7" width="5.87" height="20.76"/>
  <path class="cls-1" d="M147.78,34.04c-.54-.54-1.25-.81-2.09-.81s-1.55.27-2.11.81c-.56.54-.84,1.25-.84,2.09s.28,1.55.82,2.11c.54.56,1.25.82,2.12.82s1.55-.27,2.09-.82c.56-.56.84-1.26.84-2.11s-.28-1.55-.84-2.09Z"/>
  <path class="cls-1" d="M152.79,61.46h11.22c2.77,0,4.88-.49,6.34-1.48,1.47-.98,2.2-2.39,2.2-4.2,0-1.25-.33-2.32-1.01-3.2-.68-.87-1.6-1.52-2.78-1.94.89-.46,1.58-1.07,2.05-1.86.49-.78.73-1.67.73-2.65,0-1.67-.69-2.98-2.08-3.96-1.38-.98-3.39-1.47-6.05-1.47h-10.62v20.76ZM158.61,44.94h4.03c1.98,0,2.97.66,2.97,1.99s-.99,2.02-2.97,2.02h-4.03v-4ZM158.61,53.01h4.92c2.05,0,3.09.69,3.09,2.09s-1.03,2.11-3.09,2.11h-4.92v-4.2Z"/>
  <polygon class="cls-1" points="191.87 45.24 191.87 40.7 175.59 40.7 175.59 61.46 192.25 61.46 192.25 56.92 181.41 56.92 181.41 53.12 190.62 53.12 190.62 48.73 181.41 48.73 181.41 45.24 191.87 45.24"/>
  <path class="cls-1" d="M213.18,52.31c.7-1.11,1.05-2.43,1.05-3.92s-.37-2.93-1.13-4.08c-.74-1.15-1.82-2.04-3.19-2.66-1.38-.62-3.01-.94-4.89-.94h-9.49v20.76h5.87v-5.52h3.21l3.76,5.52h6.28l-4.48-6.52c1.3-.64,2.31-1.51,3.01-2.63ZM207.38,50.63c-.61.52-1.52.78-2.73.78h-3.26v-6.09h3.26c1.21,0,2.12.27,2.73.81.61.53.91,1.29.91,2.25s-.3,1.71-.91,2.24Z"/>
  <path class="cls-1" d="M236.88,45.15c1.96,0,3.63.77,5.04,2.31l3.74-3.38c-1.02-1.22-2.31-2.16-3.86-2.81-1.54-.65-3.27-.98-5.21-.98-2.21,0-4.2.46-5.97,1.38-1.75.91-3.13,2.2-4.12,3.84-.98,1.63-1.47,3.5-1.47,5.57s.49,3.94,1.47,5.58c.99,1.63,2.36,2.92,4.1,3.83,1.74.93,3.7,1.38,5.87,1.38,1.54,0,3.08-.23,4.63-.68,1.54-.45,2.9-1.11,4.08-1.96v-8.59h-5.18v5.69c-.99.45-2.04.68-3.17.68s-2.17-.25-3.06-.76c-.89-.5-1.58-1.19-2.07-2.09-.5-.9-.74-1.92-.74-3.08,0-1.79.54-3.23,1.63-4.31,1.09-1.07,2.52-1.62,4.3-1.62Z"/>
  <path class="cls-1" d="M253.74,35.04c-.45.44-.68,1.01-.68,1.7s.23,1.25.68,1.67c.44.42.99.64,1.67.64s1.23-.21,1.67-.64c.45-.42.68-.98.68-1.67s-.23-1.26-.68-1.7c-.44-.44-.99-.65-1.67-.65s-1.23.21-1.67.65Z"/>
  <path class="cls-1" d="M261.7,39.04c.68,0,1.23-.21,1.67-.64.45-.42.68-.98.68-1.67s-.23-1.26-.68-1.7c-.44-.44-.99-.65-1.67-.65s-1.23.21-1.67.65c-.45.44-.68,1.01-.68,1.7s.23,1.25.68,1.67c.44.42.99.64,1.67.64Z"/>
  <path class="cls-1" d="M254.62,52.03v-11.34h-5.87v11.51c0,3.09.85,5.46,2.56,7.15,1.71,1.68,4.11,2.52,7.2,2.52s5.48-.84,7.19-2.52c1.71-1.68,2.56-4.06,2.56-7.15v-11.51h-5.78v11.34c0,3.31-1.3,4.97-3.91,4.97s-3.94-1.66-3.94-4.97Z"/>
  <polygon class="cls-1" points="293.28 40.7 287.47 40.7 281.72 54.22 276.08 40.7 269.73 40.7 278.6 61.46 284.38 61.46 293.28 40.7"/>
  <polygon class="cls-1" points="311.16 56.92 300.3 56.92 300.3 53.12 309.53 53.12 309.53 48.73 300.3 48.73 300.3 45.24 310.78 45.24 310.78 40.7 294.5 40.7 294.5 61.46 311.16 61.46 311.16 56.92"/>
  <polygon class="cls-1" points="320.16 50.4 329.34 61.46 334.16 61.46 334.16 40.7 328.41 40.7 328.41 51.77 319.25 40.7 314.42 40.7 314.42 61.46 320.16 61.46 320.16 50.4"/>
  <polygon class="cls-1" points="344.19 40.7 338.31 40.7 338.31 61.46 354.09 61.46 354.09 56.8 344.19 56.8 344.19 40.7"/>
  <rect class="cls-1" x="356.4" y="40.7" width="5.87" height="20.76"/>
  <path class="cls-1" d="M359.34,33.23c-.85,0-1.55.27-2.11.81-.56.54-.84,1.25-.84,2.09s.28,1.55.82,2.11c.54.56,1.25.82,2.12.82s1.55-.27,2.11-.82c.54-.56.82-1.26.82-2.11s-.28-1.55-.82-2.09c-.56-.54-1.26-.81-2.11-.81Z"/>
  <polygon class="cls-1" points="386.77 40.7 380.3 40.7 372.26 49.33 372.26 40.7 366.46 40.7 366.46 61.46 372.26 61.46 372.26 56.27 374.47 53.93 380.39 61.46 387.21 61.46 378.28 49.9 386.77 40.7"/>
  <polygon class="cls-1" points="143.87 73.59 137.41 73.59 129.37 82.22 129.37 73.59 123.55 73.59 123.55 94.35 129.37 94.35 129.37 89.17 131.56 86.82 137.49 94.35 144.32 94.35 135.39 82.79 143.87 73.59"/>
  <path class="cls-1" d="M156.66,67.93c-.44.44-.66,1.01-.66,1.7s.23,1.25.66,1.67c.45.42,1.01.64,1.68.64s1.23-.21,1.67-.64c.45-.42.66-.98.66-1.67s-.21-1.26-.66-1.7c-.44-.44-1.01-.65-1.67-.65s-1.23.21-1.68.65Z"/>
  <path class="cls-1" d="M159.11,84.92c0,3.31-1.31,4.98-3.91,4.98s-3.95-1.67-3.95-4.98v-11.34h-5.87v11.51c0,3.09.86,5.48,2.57,7.15,1.71,1.68,4.11,2.52,7.19,2.52s5.49-.84,7.2-2.52c1.7-1.67,2.56-4.06,2.56-7.15v-11.51h-5.78v11.34Z"/>
  <path class="cls-1" d="M150.37,67.93c-.44.44-.66,1.01-.66,1.7s.23,1.25.66,1.67c.45.42,1.01.64,1.68.64s1.22-.21,1.67-.64c.44-.42.66-.98.66-1.67s-.23-1.26-.66-1.7c-.45-.44-1.01-.65-1.67-.65s-1.23.21-1.68.65Z"/>
  <polygon class="cls-1" points="188.11 73.59 180.99 85.57 173.69 73.59 168.87 73.59 168.87 94.35 174.29 94.35 174.29 83.65 179.59 92.31 182.21 92.31 187.55 83.35 187.6 94.35 193 94.35 192.94 73.59 188.11 73.59"/>
  <polygon class="cls-1" points="202.97 86.02 212.18 86.02 212.18 81.64 202.97 81.64 202.97 78.14 213.43 78.14 213.43 73.59 197.15 73.59 197.15 94.35 213.81 94.35 213.81 89.82 202.97 89.82 202.97 86.02"/>
  <polygon class="cls-1" points="222.95 73.59 217.07 73.59 217.07 94.35 232.85 94.35 232.85 89.7 222.95 89.7 222.95 73.59"/>
  <polygon class="cls-1" points="240.98 86.02 250.19 86.02 250.19 81.64 240.98 81.64 240.98 78.14 251.44 78.14 251.44 73.59 235.16 73.59 235.16 94.35 251.82 94.35 251.82 89.82 240.98 89.82 240.98 86.02"/>
  <polygon class="cls-1" points="269.08 84.66 259.92 73.59 255.08 73.59 255.08 94.35 260.84 94.35 260.84 83.29 270 94.35 274.84 94.35 274.84 73.59 269.08 73.59 269.08 84.66"/>
  <polygon class="cls-1" points="298.23 73.59 291.12 85.57 283.82 73.59 278.99 73.59 278.99 94.35 284.41 94.35 284.41 83.65 289.72 92.31 292.32 92.31 297.66 83.35 297.73 94.35 303.13 94.35 303.06 73.59 298.23 73.59"/>
  <polygon class="cls-1" points="313.08 86.02 322.31 86.02 322.31 81.64 313.08 81.64 313.08 78.14 323.56 78.14 323.56 73.59 307.28 73.59 307.28 94.35 323.94 94.35 323.94 89.82 313.08 89.82 313.08 86.02"/>
  <path class="cls-1" d="M339.85,82.8c-1.05-.38-2.36-.74-3.94-1.09-1.41-.29-2.41-.58-3.05-.86-.64-.27-.95-.69-.95-1.25s.27-.99.81-1.34c.53-.34,1.38-.52,2.55-.52,1.86,0,3.78.53,5.75,1.59l1.8-4.35c-1.01-.6-2.17-1.05-3.5-1.35-1.33-.3-2.66-.46-4.03-.46-1.99,0-3.69.3-5.05.89-1.38.6-2.41,1.41-3.1,2.43-.69,1.01-1.03,2.15-1.03,3.42,0,1.45.37,2.59,1.13,3.43.76.85,1.64,1.47,2.69,1.86,1.05.38,2.36.74,3.92,1.09,1.42.32,2.45.61,3.09.9.65.29.97.73.97,1.31,0,1.13-1.13,1.7-3.38,1.7-1.18,0-2.39-.19-3.62-.57-1.22-.37-2.31-.86-3.23-1.47l-1.92,4.32c.99.69,2.27,1.25,3.86,1.66,1.58.42,3.21.62,4.89.62,1.98,0,3.66-.29,5.04-.9,1.38-.6,2.43-1.41,3.12-2.41s1.03-2.13,1.03-3.38c0-1.45-.38-2.59-1.14-3.42-.76-.85-1.66-1.46-2.69-1.84Z"/>
  <path class="cls-1" d="M349.32,66.12c-.85,0-1.55.27-2.11.81-.56.54-.82,1.25-.82,2.09s.27,1.55.81,2.11,1.25.82,2.12.82,1.55-.27,2.11-.82c.56-.56.82-1.26.82-2.11s-.27-1.55-.82-2.09c-.56-.54-1.26-.81-2.11-.81Z"/>
  <rect class="cls-1" x="346.39" y="73.59" width="5.86" height="20.76"/>
  <path class="cls-1" d="M57.57,76.25c-4.03.07-7.95-.57-11.68-2.03-5.89-2.32-10.8-5.98-14.52-11.16-3.78-5.28-6.03-11.08-5.99-17.66.03-2.45-.32-4.95.46-7.36.21-.62-.07-1.09-.65-1.47-3.04-2.03-5.89-4.27-8.1-7.23-1.03-1.39-1.13-1.51-.11-2.94,3.1-4.37,6.97-7.94,11.48-10.8.88-.56,1.72-1.51,2.96-1.14,1.9.57,3.74,1.33,5.65,1.84,1.06.28,2.09,1.26,3.33.48,2.94-1.88,6.14-3.12,9.53-3.95,3.29-.8,6.6-.98,9.92-.74,1.07.08,2.59-.4,3.18,1.45.6,1.88,2.69,2.52,4.47,1.68,1.46-.68,2.43-2.73,1.88-4.03-.81-1.95-2.94-3.02-4.68-2.12-1.1.57-2.07.62-3.29.53-7.09-.56-13.96.33-20.28,3.92-.86.49-1.78,1.01-2.86.62-1.98-.72-3.96-1.42-5.94-2.12-1.02-.37-1.95-.44-2.98.2-1.67,1.03-3.35,2-4.93,3.18-4.39,3.25-8.03,7.19-10.95,11.81-.32.52-.3.85.03,1.37,2.29,3.53,5.16,6.51,8.66,8.84.9.6,1.05,1.26.91,2.16-.13.93-.34,1.86-.4,2.78-.21,4.3.4,8.51,1.7,12.59.89,2.74,2.16,5.36,3.77,7.78,5.2,7.82,12.26,13.01,21.48,15.13,3.98.93,7.95,1.34,12.06.7,3.46-.54,6.81-1.38,9.98-2.8,4.88-2.2,9.04-5.4,12.44-9.57.42-.53.85-.7,1.48-.66,1.19.08,2.12-.46,2.88-1.33.91-1.03.93-2.82.08-4.04-.91-1.33-2.43-1.76-4.02-1.18-1.25.46-2.52,2.13-2.15,3.3.52,1.58-.24,2.53-1.17,3.53-6.4,6.8-14.27,10.31-23.62,10.43ZM67.29,12.22c-.07.77-.5,1.27-1.26,1.25-.81-.03-1.23-.6-1.22-1.41.01-.85.6-1.17,1.31-1.17.81,0,1.11.6,1.17,1.33ZM85.69,60.71c.64-.12,1.45.74,1.45,1.42-.09.78-.52,1.3-1.33,1.37-.72.07-1.52-.69-1.45-1.37.09-.77.58-1.29,1.33-1.42Z"/>
  <path class="cls-1" d="M42.47,92.45c1.56.11,3.05-.77,3.47-2.04.57-1.74.09-3.34-1.29-4.22-1.34-.85-3.06-.74-4.19.49-.61.66-1.11.66-1.84.42-2-.64-4-1.27-5.93-2.13-.52-.23-.84-.49-.97-1.05-.53-2.03-1.1-4.06-1.63-6.09-.45-1.74-.77-3.47-2.48-4.57-.86-.57-1.55-1.42-2.28-2.19-2.52-2.66-4.4-5.75-5.98-9.05,0,0,0,0,0,0,0,0,0,0,0,.01-.56-1.57-.87-3.23-1.67-4.72,0,0,0-.01,0-.02-.04-.34-.04-.7-.11-1.05-1.03-4.81-1.07-9.64.08-14.42.2-.84-.04-1.25-.65-1.66-2.33-1.59-4.39-3.5-6.16-5.71,0,0,0,0,0,0-.29-.45-.57-.76-.8.05-.24.86-.51,1.72-.77,2.58-.74,2.51-1.31,5.06-1.54,7.67-.25,2.82-.26,5.63,0,8.45.27,2.96.83,5.87,1.88,8.66.29,1.06.53,2.14,1.17,3.06,0,0,0,0,0,0,.99,2.61,2.29,5.05,3.99,7.28,0,0,0,.01.01.02,0,0,0,0-.02-.01.45.74.14,1.47-.03,2.21-.22.93-.21,1.81.52,2.54,0,0,0-.01,0-.02,0,0,0,.01,0,.02.65,1.76,3.45,2.21,4.88.89,1.26-1.18,1.59-2.44,1.01-4.03-.42-1.18-1.82-2.03-3.41-1.98-.65.01-1.02-.17-1.43-.73-1.1-1.52-1.87-3.25-2.88-4.83,0,0,0,0,0,0-.34-.86-.62-1.76-1.03-2.58-.83-1.68-1-3.58-1.82-5.25,0,0,0,0,0,0-.12-2.07-.6-4.09-.83-6.15-.48-4.43.14-8.73,1.02-13.03.19-.92.67-1.05,1.4-.54,0,0,0,0,.01.01.8.94,1.79,1.66,2.8,2.35,0,0,0,0,.01,0,0,0,0,0,0,0,.34.4.52.78.37,1.37-.26,1.01-.45,2.06-.51,3.11-.3,5.02-.05,10,1.72,14.78.83,2.25,1.67,4.51,3.15,6.45,0,0,0,.01.01.02,1.76,3.29,4.31,5.91,7.03,8.39.42.38.88.77.94,1.3.24,1.87.94,3.61,1.37,5.42.32,1.33.44,2.77,1.27,3.95,0,0,0,0,0,0,0,0,0,0,0,0,1.12.95,2.54,1.29,3.84,1.89,1.73.8,3.68,1,5.37,1.92,0,0,0-.01,0-.02,0,0,0,0,0,.02.29,1.56,1.45,2.66,2.9,2.76ZM42.8,87.68c.89.07,1.45.58,1.48,1.39.03.89-.61,1.35-1.47,1.35-.8-.01-1.39-.42-1.39-1.27s.52-1.35,1.38-1.47ZM18.12,73.67c.76.01,1.46.78,1.45,1.68-.13.74-.6,1.35-1.51,1.33-.86-.04-1.47-.54-1.51-1.46-.04-.82.77-1.56,1.58-1.55Z"/>
  <path class="cls-1" d="M72.38,80.88c-4.68,3.41-9.89,5.63-15.52,6.84-1.29.28-2.48.52-3.53-.88-.82-1.1-2.33-1.17-3.54-.56-1.17.58-2.07,1.56-1.95,3.13-.04.54.04,1.11.37,1.64,1.5,2.33,4.37,2.37,5.85.03.4-.62.8-.91,1.54-1.05,1.8-.3,3.62-.69,5.37-1.23,5.9-1.83,11.18-4.81,15.82-8.91.54-.49.97-.7,1.75-.49,1.46.38,2.74-.2,3.61-1.39.78-1.09,1.05-2.29.23-3.59-.86-1.38-2.47-2.11-3.9-1.59-1.79.65-2.76,2.17-2.4,3.9.13.6.09,1.07-.41,1.48-1.09.89-2.13,1.83-3.27,2.66ZM51.21,90.81c-.88.03-1.43-.5-1.43-1.37.01-.81.45-1.46,1.37-1.46.89-.01,1.31.54,1.47,1.31-.11.91-.53,1.48-1.41,1.51ZM79.06,74.74c1.15.04,1.72.45,1.75,1.25.01.86-.57,1.34-1.42,1.41-.73.05-1.46-.68-1.38-1.39.08-.81.5-1.29,1.05-1.26Z"/>
  <path class="cls-1" d="M97.71,49.13c-1.27-.44-2.86.03-3.71,1.1-1,1.27-1.04,2.49-.24,3.92.34.6.98.91,1.26,1.54,0,0,0,0,0,0h0c-.56,2.36-1.12,4.72-1.68,7.07h0s0,0,0,0c-.52,1.66-1.14,3.28-1.82,4.89-1.92,4.5-4.57,8.52-7.8,12.16-4.49,5.07-9.91,8.9-16.08,11.69,0,0,0,0,0,0h0c-.72.26-1.45.51-2.17.78-2.53.89-5.06,1.64-7.72,2.15-1.42.27-2.85.33-4.24.62,0,0,0,0,0,.01v.23s0,0,0,0v-.25c-1.84-.07-3.66.44-5.5.27-1.72-.15-3.45-.25-5.14-.46-2.24-.32-4.45-.76-6.62-1.43-1.87-.6-3.74-1.27-5.59-1.91-4.89-2.24-9.36-5.1-13.28-8.83-5.62-5.33-9.7-11.64-12.18-18.97,0,0,0,0,0-.01,0,0,0,0,0,0-.16-.63-.23-1.3-.5-1.87-.57-1.23-.34-2.68-1.14-3.83,0,0,0,0,0,0,.1-1.51-.55-2.92-.54-4.41.02-4.02-.28-8.04.42-12.06.6-3.39,1.54-6.64,2.73-9.85,1.07-2.89,2.72-5.48,4.19-8.16,0,0,0,0,.01-.01.01-.03.04-.07.07-.09.21-.28.46-.53.65-.81,4.56-6.55,10.42-11.57,17.57-15.1,1.6-.8,3.25-1.5,4.85-2.23,1.41-.09,2.68-.81,4.03-1.09,3.39-.69,6.79-1.34,10.29-1.39,5.48-.05,10.8.6,16,2.36,1.27.44,2.45,1.18,3.83,1.29,1.48.77,2.96,1.55,4.43,2.31,1.02.53,2.02,1.06,1.78,2.49-.07.41.27.73.45,1.06.95,1.62,2.73,2.2,4.31,1.42,1.62-.81,2.4-2.57,1.79-4.08-.77-1.91-2.39-2.72-4.28-2.09-.46.15-.86.11-1.31-.17-1.14-.72-2.25-1.5-3.55-1.94,0,0,0,0,0,0,0,0,0,0,0,0-.67-.65-1.52-.94-2.4-1.17,0,0,0,0,0,0,0,0,0,0,0,0C63.99,1.89,58.78.67,53.46.21c-6.64-.6-13.22.07-19.55,2.32,0,0,0,0,0,0-.12-.02-.25.03-.38.12-1.13.4-2.29.75-3.39,1.22-4.48,1.9-8.59,4.41-12.33,7.53-3.75,3.13-6.96,6.73-9.66,10.81-2.33,3.53-4.15,7.3-5.52,11.29-.53,1.54-1.03,3.09-1.26,4.72h0c-.86,2.64-1.09,5.39-1.27,8.13-.3,4.52.07,9.01,1.27,13.4h0s0,0,0,0c.59,3.26,1.71,6.36,3.06,9.35,1.98,4.39,4.53,8.45,7.76,12.03,2.21,2.45,4.43,4.93,7.31,6.68h0c.03.09.03.18.09.21,4.67,3.59,9.84,6.24,15.47,7.91,3.9,1.15,7.89,1.86,11.98,1.98,5.61.17,11.08-.45,16.45-2.05,4.06-1.23,7.93-3.01,11.51-5.32,1.83-1.18,3.73-2.26,5.2-3.9,0,0,0,.01-.01.02,3.31-2.54,6.15-5.51,8.47-8.98.65-.38.86-1.09,1.25-1.67,2.83-4.16,4.92-8.66,6.23-13.52.51-1.88,1.1-3.73,1.24-5.7.04-.61.36-1.15.95-1.54,1.02-.68,1.72-1.66,1.76-2.91.05-1.29-1.13-2.77-2.39-3.21ZM77.21,9.32c.82.03,1.31.45,1.38,1.34-.07.86-.56,1.37-1.42,1.38-.84.01-1.37-.54-1.37-1.33,0-.82.48-1.42,1.41-1.39ZM53.28,2.63h0s0,0,0,0h0ZM57.25,3.08s0,0,0,0c0,.01,0,.03,0,.04.02,0,.04,0,.05,0,0,0,0,0,0,0h-.09s.01-.03.03-.04ZM43.18,2.53s-.05.01-.07.02c.03,0,.05-.02.08-.02,0,0,0,0,0,0ZM42.99,2.58s0,0,0,0c-.01.01-.02.03-.03.04,0,0,0,0,0,0,0-.01.01-.03.03-.04ZM94.76,58.28s0,0,0,0h0s0,0,0,0c0,0,0,0,0,0h0s0,0,0-.02c.02.01.03.03.05.05,0,0,0,0,0,.01-.02,0-.03-.02-.05-.03v.04s0,0,0,0h0s0-.02,0-.03Z"/>
  <path class="cls-1" d="M29.26,27.66s0,0,0,0c.72-1.02,1.43-2.03,2.13-3.06.45-.65.9-.88,1.76-.64,1.42.41,2.76.01,3.62-1.26.78-1.13.99-2.39.25-3.63-.74-1.23-1.86-1.91-3.33-1.76-1.82.19-3.16,1.78-3.04,3.53.05.78.08,1.54-.5,2.2-1.01,1.15-1.91,2.37-2.59,3.75-.29.58-.66.95-1.43.97-.98,0-1.78.53-2.41,1.26-1.13,1.29-1.05,3.23.17,4.45,1.29,1.3,3.16,1.43,4.44.37,1.5-1.25,2.04-3.23.7-4.57,0,0,0,0,0,0-.2-.57,0-1.08.21-1.59ZM33.97,19.35c.91-.01,1.37.45,1.46,1.31-.04.88-.56,1.31-1.35,1.34-.91.01-1.39-.56-1.38-1.42.01-.76.44-1.22,1.27-1.23ZM27.78,31.19c-.09.81-.64,1.39-1.48,1.35-.84-.03-1.37-.58-1.35-1.45.01-.91.72-1.19,1.44-1.39.8.24,1.5.57,1.39,1.48Z"/>
  <polygon class="cls-1" points="57.27 3.12 57.27 3.12 57.27 3.12 57.27 3.12"/>
  <path class="cls-1" d="M102.75,23.19l.42-9.97-6.74,7.25c-.15.16-.38.22-.59.15l-9.41-3.2,4.85,8.55c.11.19.09.42-.03.6l-6.18,8.56,10.27-2.24c.22-.05.45.04.58.23l5.64,8.25,1.04-10.49c.02-.23.18-.42.4-.48l9.54-2.72-9.45-3.95c-.21-.09-.35-.3-.34-.54Z"/>
</svg>