<?xml version="1.0" encoding="utf-8"?>
<!-- Generator: Adobe Illustrator 27.8.1, SVG Export Plug-In . SVG Version: 6.00 Build 0)  -->
<svg version="1.1" id="katman_1" xmlns="http://www.w3.org/2000/svg" xmlns:xlink="http://www.w3.org/1999/xlink" x="0px" y="0px"
	 viewBox="0 0 258.4 114.1" style="enable-background:new 0 0 258.4 114.1;" xml:space="preserve">
<style type="text/css">
	.st0{fill:#545756;}
	.st1{fill:#E20E17;}
</style>
<path class="st0" d="M237.7,110.1c-0.3,1.9-0.1,2.1,1.6,2.2l-0.1,0.8h-5.8l0.1-0.8c1.7-0.2,2-0.3,2.3-2.2l2.2-13.4
	c0.3-2,0.2-2.1-1.6-2.2l0.1-0.8c1.4-0.2,3-0.7,3.9-1L237.7,110.1L237.7,110.1z"/>
<path class="st0" d="M225.4,110.1c-0.3,1.9-0.1,2.1,1.6,2.2l-0.1,0.8h-5.8l0.1-0.8c1.7-0.2,2-0.3,2.3-2.2l2.2-13.4
	c0.3-2,0.2-2.1-1.6-2.2l0.1-0.8c1.4-0.2,3-0.7,3.9-1L225.4,110.1L225.4,110.1z"/>
<path class="st0" d="M214.8,111.3c-0.3,0.2-0.7,0.3-1,0.3l0,0c-0.5,0-0.9-0.4-0.7-1.7l0.9-5.4c0.2-1.5,0.1-2.6-0.6-3.5
	c-0.5-0.5-1.2-0.8-2-0.8c-1.6,0.3-3.4,1.5-4.2,2c-0.6,0.4-1,0.8-1,1.2c-0.1,0.7,0.5,1.2,0.9,1.2c0.4,0,0.7-0.2,0.8-0.6
	c0.4-0.8,0.7-1.4,1.1-1.8c0.3-0.3,0.8-0.6,1.3-0.6c1.4,0,2.1,1.2,1.8,3.3l-0.1,0.4c-0.6,0.5-2.7,1.3-4.4,1.9
	c-1.6,0.5-2.4,1.5-2.6,2.9c-0.3,1.9,0.7,3.5,2.5,3.5c0.9,0,2.3-1,3.5-1.8c0,0.5,0.1,0.9,0.4,1.3c0.2,0.3,0.7,0.5,1,0.5l2.4-1.4
	L214.8,111.3z M211.2,110.6c-0.6,0.5-1.8,1.2-2.5,1.2c-0.8,0-1.8-0.7-1.6-2.2c0.2-1,0.9-1.6,2-2.1v0l2.8-1.3L211.2,110.6z"/>
<path class="st0" d="M199.8,101.3c-1.4,0.2-1.6,0.6-2.5,2.2c-1.2,2.3-2.9,6-4.7,9.9h-0.8c-0.6-3.2-1.2-6-1.7-9.1
	c-1.4,2.9-3,5.8-4.6,9.1h-0.8c-0.4-3.4-0.8-6.7-1.3-10.2c-0.2-1.5-0.4-1.8-1.7-1.9l0.1-0.8h5.3l-0.1,0.8c-1.6,0.2-1.7,0.4-1.6,1.8
	c0.2,2.2,0.6,4.5,0.8,6.8h0.1c1.4-2.8,2.9-5.8,4.6-9.2h0.7c0.5,3,1.1,6.2,1.6,9.3h0.1c0.9-2,2-4.5,2.9-6.7c0.6-1.6,0.5-1.7-1.2-2
	l0.1-0.8h4.8L199.8,101.3L199.8,101.3z"/>
<path class="st0" d="M171,100.2c-1.3,0-2.9,0.8-4.1,2.1c-1.3,1.3-2.2,3.1-2.5,5.1c-0.5,3.3,0.9,6.1,4.1,6.1c0.8,0,2.6-0.5,4.7-2.6
	l-0.3-0.7c-1.1,1-2.2,1.5-3.3,1.5c-1.8,0-3.7-1.6-3-5.5c3.2-0.1,6.6-0.4,7.1-0.5c0.5-0.1,0.6-0.3,0.7-1
	C174.6,102.3,173.2,100.2,171,100.2z M172.2,104.2c-0.1,0.4-0.3,0.6-0.8,0.6c-1.6,0.1-3.2,0.1-4.7,0.1c0.9-2.3,2.2-3.5,3.5-3.5
	C171.7,101.3,172.5,102.6,172.2,104.2z"/>
<path class="st0" d="M158.6,101.6c-0.1,0.5-0.4,1.1-1,1.3c-0.3,0.1-0.5,0.1-0.7-0.1c-0.3-0.4-0.6-0.6-1-0.6c-0.7,0-1.9,1-2.7,2.7
	l-0.8,5.1c-0.3,1.9-0.2,2.1,1.8,2.3l-0.1,0.8h-5.9l0.1-0.8c1.8-0.2,2-0.3,2.3-2.2l0.9-5.8c0.3-2,0.2-2.1-1.3-2.2l0.1-0.8
	c1.2-0.2,2.4-0.6,3.7-1.2l-0.5,3.1h0.1c1-1.4,2.4-3,3.7-3C158.3,100.2,158.7,101,158.6,101.6L158.6,101.6z"/>
<path class="st0" d="M139.7,110.1c-0.3,1.9-0.1,2.1,1.5,2.3l-0.1,0.8h-5.6l0.1-0.8c1.7-0.2,2-0.3,2.3-2.3l1-5.9
	c0.3-1.7,0.2-1.9-1.4-2.1l0.1-0.8c1.4-0.2,2.6-0.6,3.8-1.2L139.7,110.1L139.7,110.1z"/>
<path class="st0" d="M142.2,96.2c-0.1,0.8-0.8,1.4-1.5,1.4c-0.7,0-1.2-0.7-1.1-1.4c0.1-0.8,0.8-1.5,1.5-1.5S142.3,95.4,142.2,96.2
	L142.2,96.2z"/>
<path class="st0" d="M130.6,98.8l-0.9,0.1c0-1.2-0.1-1.7-0.3-2.3c-0.3-0.8-0.8-1-2.7-1h-2.2c-0.8,0-0.9,0.1-1,0.9l-1.1,6.8h2.8
	c2.3,0,2.5-0.2,3.1-2.1h0.9l-0.9,5.6h-0.8c0-2.1-0.1-2.3-2.4-2.3h-2.8l-0.8,5.2c-0.4,2.4-0.2,2.6,2.3,2.7l-0.1,0.9h-7.1l0.1-0.9
	c2.2-0.1,2.4-0.3,2.8-2.7l1.8-11.4c0.4-2.4,0.2-2.6-1.8-2.7l0.1-0.9H131C130.8,95.7,130.7,97.4,130.6,98.8L130.6,98.8z"/>
<path class="st1" d="M238.8,81.5v-9.8c0-0.7,0-2.8-0.3-3.5c-0.2-0.4-0.7-0.8-1.1-1c-0.7-0.4-1.4-0.6-2.2-0.6h-1.2
	c-0.7,0-1.3-0.6-1.3-1.3V64c0-0.7,0.6-1.3,1.3-1.3h23c0.7,0,1.3,0.6,1.3,1.3v1.3c0,0.7-0.5,1.3-1.2,1.3c-0.8,0.1-2.4,0.2-3.1,0.6
	c-0.5,0.3-0.8,0.8-1.1,1.4c-0.2,0.5-0.2,2.5-0.2,3.1v10.7c0,0.5-0.3,0.9-0.7,1.2c-3.1,1.5-6.3,2.7-9.7,3.4
	c-3.4,0.8-6.9,1.2-10.4,1.2c-3.9,0-8.1-0.5-11.7-2.1c-3-1.4-5.8-3.2-8.2-5.5c-2.3-2.2-4.2-4.8-5.6-7.7c-1.8-3.9-2.6-8.1-2.6-12.3
	c0-7.9,2.5-14.8,7.8-20.6c5.3-5.7,12-8.5,19.8-8.5c2.2,0,4.4,0.2,6.6,0.6c1.7,0.4,3.6,1.1,5.2,1.8c0.8,0.3,2.8,1.2,3.6,1.3
	c0.4,0,0.7-0.2,0.9-0.4c0.5-0.5,1-1.7,1.2-2.4c0.2-0.5,0.7-0.9,1.2-0.9h1.2c0.7,0,1.3,0.6,1.3,1.3V51c0,0.7-0.6,1.3-1.3,1.3h-1.2
	c-0.6,0-1.1-0.4-1.2-0.9c-1.3-4-3.3-7.9-6.6-10.6c-2.7-2.3-5.8-3.6-9.4-3.6c-3,0-5.7,0.8-7.9,2.9c-2.4,2.2-3.8,5.3-4.6,8.4
	c-1,3.8-1.4,7.7-1.4,11.6c0,4.2,0.4,8.6,1.5,12.7c0.8,2.9,2.2,5.7,4.7,7.5c2.3,1.7,4.9,2.4,7.7,2.4c1.1,0,2.1-0.1,3.2-0.4
	C237.1,82.1,238,81.8,238.8,81.5L238.8,81.5z"/>
<path class="st1" d="M191.1,39.6c-5.1-5.6-11.8-7.9-19.3-7.6l0,0c-7.3-0.3-13.6,2.3-18.6,7.6c-5.2,5.6-7.5,12.4-7.5,20
	c0,6.8,1.8,13,5.8,18.5c5.1,6.9,12.1,10,20.8,10c8.7,0,15.7-3.3,20.8-10.5c3.8-5.4,5.5-11.5,5.5-18
	C198.5,52.1,196.2,45.2,191.1,39.6z M181.7,73.9c-0.8,2.6-2.2,5.4-4.3,7.2c-1.5,1.2-3.3,1.6-5.2,1.6c-3.1,0-5.5-1.2-7.2-3.8
	c-3.4-5-4-12.9-4-18.8c0-5.2,0.4-11.8,2.6-16.5c1.8-3.7,4.4-6.5,8.7-6.5l0,0c2,0,3.8,0.6,5.4,1.8c2,1.5,3.2,4.3,4,6.6
	c1.5,4.3,1.7,10.5,1.7,14.9S183,69.7,181.7,73.9z"/>
<path class="st1" d="M116.1,81.2c0.7,0.2,2.9,0.2,3.7,0.2h3.9c1.9,0,3.9-0.3,5.6-1.3c1.6-0.9,2.9-2.5,3.9-4.1c1.5-2.6,2.5-6,3.3-8.9
	c0.1-0.6,0.7-1,1.3-1h1.5c0.4,0,0.7,0.2,1,0.4s0.4,0.6,0.3,1l-1.8,18.1c-0.1,0.7-0.6,1.2-1.3,1.2H95.5c-0.7,0-1.3-0.6-1.3-1.3v-1.3
	c0-0.7,0.6-1.3,1.3-1.3h1.6c0.9,0,1.9-0.1,2.6-0.6c0.4-0.2,0.7-0.7,0.8-1.2c0.3-0.7,0.3-3.5,0.3-4.3V42.8c0-0.9,0-3.7-0.3-4.5
	c-0.2-0.5-0.6-0.8-1-1.1c-0.7-0.4-1.6-0.5-2.4-0.5h-1.6c-0.7,0-1.3-0.6-1.3-1.3V34c0-0.7,0.6-1.3,1.3-1.3h25.2
	c0.7,0,1.3,0.6,1.3,1.3v1.3c0,0.7-0.6,1.3-1.3,1.3h-2.1c-0.9,0-1.9,0.1-2.6,0.6c-0.4,0.3-0.7,0.8-0.9,1.2c-0.3,0.7-0.3,3.5-0.3,4.3
	v33c0,1,0,3.7,0.3,4.6C115.3,80.8,115.7,81.1,116.1,81.2L116.1,81.2z"/>
<path class="st1" d="M96.6,3.4L61.1,54.6L96.3,105c0,0,3.6,3.1,6.9,3.9c2.9,0.7,3.7,3.7,3.9,5.1H72.1c0,0-1.8-4.1,8-7L52.4,67.2
	L25,106.8c0.4,0.1,0.8,0.2,1.1,0.3c9.5,2.9,7.7,7,7.7,7H0c0.2-1.4,1-4.4,3.8-5.1c2.6-0.7,6.1-2.9,7.6-5.1l62-90.5
	c3.5-5.1,6.9-10.8,13.5-12.2C92.5,0,96.6,3.4,96.6,3.4L96.6,3.4z M8.2,3.4l33.6,48.5l8.6-12.6l-22.3-32C18.5-6.4,8.2,3.4,8.2,3.4z"
	/>
</svg>
