<?xml version="1.0" encoding="UTF-8"?>
<svg id="Layer_1" data-name="Layer 1" xmlns="http://www.w3.org/2000/svg" xmlns:xlink="http://www.w3.org/1999/xlink" viewBox="0 0 588.2 136.33">
  <defs>
    <style>
      .cls-1 {
        fill: #d0e2ea;
      }

      .cls-1, .cls-2, .cls-3, .cls-4, .cls-5, .cls-6, .cls-7, .cls-8, .cls-9, .cls-10, .cls-11, .cls-12, .cls-13, .cls-14, .cls-15, .cls-16, .cls-17 {
        stroke-width: 0px;
      }

      .cls-2 {
        fill: #37363f;
      }

      .cls-3 {
        fill: #575756;
      }

      .cls-18 {
        clip-path: url(#clippath);
      }

      .cls-4 {
        fill: none;
      }

      .cls-5 {
        fill: url(#linear-gradient);
      }

      .cls-6 {
        fill: url(#radial-gradient);
      }

      .cls-7 {
        opacity: .77;
      }

      .cls-7, .cls-10 {
        fill: #d1dbe0;
      }

      .cls-19 {
        clip-path: url(#clippath-1);
      }

      .cls-20 {
        clip-path: url(#clippath-4);
      }

      .cls-21 {
        clip-path: url(#clippath-3);
      }

      .cls-22 {
        clip-path: url(#clippath-2);
      }

      .cls-23 {
        clip-path: url(#clippath-6);
      }

      .cls-24 {
        clip-path: url(#clippath-5);
      }

      .cls-8 {
        fill: #bebebe;
      }

      .cls-9 {
        fill: #8c6239;
      }

      .cls-11 {
        fill: #4e4d4d;
      }

      .cls-12 {
        fill: #eff2fa;
      }

      .cls-13 {
        fill: #e20917;
      }

      .cls-14 {
        opacity: .38;
      }

      .cls-14, .cls-16 {
        fill: #6d7c84;
      }

      .cls-25, .cls-15 {
        isolation: isolate;
      }

      .cls-15 {
        fill: #474747;
        opacity: .46;
      }

      .cls-17 {
        fill: #fff;
      }
    </style>
    <linearGradient id="linear-gradient" x1="230.96" y1="107.12" x2="206.07" y2="95.1" gradientUnits="userSpaceOnUse">
      <stop offset="0" stop-color="#ffd28b"/>
      <stop offset="1" stop-color="#000"/>
    </linearGradient>
    <radialGradient id="radial-gradient" cx="216.65" cy="99.09" fx="216.65" fy="99.09" r="4.87" gradientUnits="userSpaceOnUse">
      <stop offset="0" stop-color="#ffd28b"/>
      <stop offset="1" stop-color="#000"/>
    </radialGradient>
    <clipPath id="clippath">
      <polygon class="cls-4" points="528.85 115.21 528.95 80.79 311.67 80.79 311.58 115.21 528.85 115.21"/>
    </clipPath>
    <clipPath id="clippath-1">
      <path class="cls-4" d="M521.65,84.69h-32.16c-1.25,0-2.28,1.04-2.28,2.3l-.05,18.02c0,1.28,1.01,2.3,2.28,2.3h3.33v1.28c0,1.28,1.01,2.3,2.28,2.3h1.32v1.81c0,1.28,1.01,2.3,2.28,2.3h13.76c1.25,0,2.28-1.02,2.28-2.3v-1.81h1.32c1.25,0,2.28-1.04,2.28-2.3v-1.28h3.33c1.25,0,2.28-1.04,2.28-2.3l.05-18.02c0-1.28-1.01-2.3-2.28-2.3"/>
    </clipPath>
    <clipPath id="clippath-2">
      <path class="cls-4" d="M479.05,84.69h-32.14c-1.26,0-2.28,1.04-2.28,2.3l-.05,18.02c0,1.28,1.01,2.3,2.28,2.3h3.33v1.28c0,1.28,1.01,2.3,2.28,2.3h1.32v1.81c0,1.28,1.01,2.3,2.28,2.3h13.76c1.26,0,2.28-1.02,2.28-2.3v-1.81h1.32c1.25,0,2.28-1.04,2.28-2.3v-1.28h3.33c1.26,0,2.28-1.04,2.28-2.3l.05-18.02c0-1.28-1.01-2.3-2.28-2.3"/>
    </clipPath>
    <clipPath id="clippath-3">
      <path class="cls-4" d="M436.44,84.69h-32.16c-1.26,0-2.28,1.04-2.28,2.3l-.05,18.02c0,1.28,1.01,2.3,2.28,2.3h3.33v1.28c0,1.28,1.01,2.3,2.28,2.3h1.32v1.81c0,1.28,1.01,2.3,2.28,2.3h13.76c1.25,0,2.28-1.02,2.28-2.3v-1.81h1.32c1.26,0,2.28-1.04,2.28-2.3v-1.28h3.33c1.25,0,2.28-1.04,2.28-2.3l.05-18.02c0-1.28-1.01-2.3-2.28-2.3"/>
    </clipPath>
    <clipPath id="clippath-4">
      <path class="cls-4" d="M393.83,84.69h-32.16c-1.25,0-2.28,1.04-2.28,2.3l-.05,18.02c0,1.28,1.01,2.3,2.28,2.3h3.33v1.28c0,1.28,1.01,2.3,2.28,2.3h1.32v1.81c0,1.28,1.01,2.3,2.28,2.3h13.76c1.25,0,2.28-1.02,2.28-2.3v-1.81h1.32c1.25,0,2.28-1.04,2.28-2.3v-1.28h3.33c1.25,0,2.28-1.04,2.28-2.3l.05-18.02c0-1.28-1.01-2.3-2.28-2.3"/>
    </clipPath>
    <clipPath id="clippath-5">
      <path class="cls-4" d="M351.23,84.69h-32.16c-1.25,0-2.28,1.04-2.28,2.3l-.05,18.02c0,1.28,1.01,2.3,2.28,2.3h3.33v1.28c0,1.28,1.01,2.3,2.28,2.3h1.32v1.81c0,1.28,1.01,2.3,2.28,2.3h13.76c1.25,0,2.28-1.02,2.28-2.3v-1.81h1.32c1.25,0,2.28-1.04,2.28-2.3v-1.28h3.33c1.25,0,2.28-1.04,2.28-2.3l.05-18.02c0-1.28-1.01-2.3-2.28-2.3"/>
    </clipPath>
    <clipPath id="clippath-6">
      <polygon class="cls-4" points="238.36 39.33 188.5 14.86 371.97 21.27 421.83 45.74 238.36 39.33"/>
    </clipPath>
  </defs>
  <polygon class="cls-15" points="158.55 135.05 6.75 75.07 0 51.62 184.54 98 158.55 135.05"/>
  <polygon class="cls-10" points="158.55 135.05 21.55 71.47 21.55 .11 158.55 60.55 158.55 135.05"/>
  <g>
    <path class="cls-1" d="M588.2,63.6v66.99c0,3.17-2.57,5.73-5.73,5.73H159.78c-3.17,0-5.73-2.57-5.73-5.73V63.59c0-3.17,2.57-5.73,5.73-5.73h422.68c3.17,0,5.74,2.57,5.74,5.74Z"/>
    <path class="cls-12" d="M588.2,64.92v62.94c0,2.41-1.96,4.37-4.37,4.37H158.4c-2.41,0-4.36-1.95-4.36-4.36v-62.96c0-2.41,1.95-4.36,4.36-4.36h425.43c2.41,0,4.37,1.96,4.37,4.37Z"/>
    <circle class="cls-11" cx="286.29" cy="111.57" r="5.82"/>
    <circle class="cls-11" cx="264.67" cy="111.57" r="5.89"/>
    <circle class="cls-11" cx="243.04" cy="109.9" r="5.82"/>
    <rect class="cls-11" x="198.12" y="80.79" width="33.27" height="36.59" rx="7.66" ry="7.66"/>
    <circle class="cls-2" cx="214.76" cy="99.09" r="13.14"/>
    <path class="cls-5" d="M204.71,99.42c-1.98-.48-3.08-1.04-3.08-2.33s1.66-2.33,3.71-2.33l10.89.49c2.35,0,4.26,1.72,4.26,3.84s-1.91,3.84-4.26,3.84c0,0-8.41-2.76-11.52-3.5Z"/>
    <circle class="cls-6" cx="216.65" cy="99.09" r="3.84"/>
    <g class="cls-18">
      <g>
        <path class="cls-8" d="M499.53,84.69h-10.02c-1.25,0-2.28,1.04-2.28,2.3l-.05,18.02c0,1.28,1.01,2.3,2.28,2.3h3.33v1.28c0,1.28,1.01,2.3,2.28,2.3h1.32v1.81c0,1.28,1.01,2.3,2.28,2.3h13.76c1.25,0,2.28-1.02,2.28-2.3v-1.81h1.32c1.25,0,2.28-1.04,2.28-2.3v-1.28h3.33c1.25,0,2.28-1.04,2.28-2.3l.05-18.02c0-1.28-1.01-2.3-2.28-2.3h-22.14M456.93,84.69h-10.02c-1.26,0-2.28,1.04-2.28,2.3l-.05,18.02c0,1.28,1.01,2.3,2.28,2.3h3.33v1.28c0,1.28,1.01,2.3,2.28,2.3h1.32v1.81c0,1.28,1.01,2.3,2.28,2.3h13.76c1.26,0,2.28-1.02,2.28-2.3v-1.81h1.32c1.25,0,2.28-1.04,2.28-2.3v-1.28h3.33c1.26,0,2.28-1.04,2.28-2.3l.05-18.02c0-1.28-1.01-2.3-2.28-2.3h-22.12M414.32,84.69h-10.02c-1.26,0-2.28,1.04-2.28,2.3l-.05,18.02c0,1.28,1.01,2.3,2.28,2.3h3.33v1.28c0,1.28,1.01,2.3,2.28,2.3h1.32v1.81c0,1.28,1.01,2.3,2.28,2.3h13.76c1.25,0,2.28-1.02,2.28-2.3v-1.81h1.32c1.26,0,2.28-1.04,2.28-2.3v-1.28h3.33c1.25,0,2.28-1.04,2.28-2.3l.05-18.02c0-1.28-1.01-2.3-2.28-2.3h-22.12M371.71,84.69h-10.02c-1.25,0-2.28,1.04-2.28,2.3l-.05,18.02c0,1.28,1.01,2.3,2.28,2.3h3.33v1.28c0,1.28,1.01,2.3,2.28,2.3h1.32v1.81c0,1.28,1.01,2.3,2.28,2.3h13.76c1.25,0,2.28-1.02,2.28-2.3v-1.81h1.32c1.25,0,2.28-1.04,2.28-2.3v-1.28h3.33c1.25,0,2.28-1.04,2.28-2.3l.05-18.02c0-1.28-1.01-2.3-2.28-2.3h-22.14M329.09,84.69h-10.02c-1.25,0-2.28,1.04-2.28,2.3l-.05,18.02c0,1.28,1.01,2.3,2.28,2.3h3.33v1.28c0,1.28,1.01,2.3,2.28,2.3h1.32v1.81c0,1.28,1.01,2.3,2.28,2.3h13.76c1.25,0,2.28-1.02,2.28-2.3v-1.81h1.32c1.25,0,2.28-1.04,2.28-2.3v-1.28h3.33c1.25,0,2.28-1.04,2.28-2.3l.05-18.02c0-1.28-1.01-2.3-2.28-2.3h-22.14M313.28,80.79h214.06c.88,0,1.61.73,1.61,1.62l-.08,31.16c0,.89-.73,1.62-1.62,1.62h-214.06c-.89,0-1.61-.73-1.61-1.62l.08-31.16c0-.91.72-1.62,1.62-1.62"/>
        <path class="cls-2" d="M489.51,84.69h10.02l-4.31,4.34c0,.45.37.84.83.84s.83-.37.83-.84l4.31-4.34h6.15l-4.31,4.34c0,.45.37.84.83.84s.83-.37.83-.84l4.31-4.34h6.15l-4.31,4.34c0,.45.37.84.83.84s.83-.37.83-.84l4.31-4.34h4.87c1.25,0,2.28,1.04,2.28,2.3l-.05,18.02c0,1.28-1.02,2.3-2.28,2.3h-3.33v1.28c0,1.28-1.02,2.3-2.28,2.3h-1.32v1.81c0,1.28-1.02,2.3-2.28,2.3h-13.76c-1.25,0-2.28-1.02-2.28-2.3v-1.81h-1.3c-1.26,0-2.28-1.04-2.28-2.3v-1.28h-3.33c-1.25,0-2.28-1.04-2.28-2.3l.05-18.02c0-1.28,1.02-2.3,2.28-2.3"/>
        <g class="cls-19">
          <g>
            <path class="cls-9" d="M499.53,84.69h1.65l-4.31,4.34c0,.45-.37.84-.83.84s-.83-.37-.83-.84l4.31-4.34"/>
            <path class="cls-9" d="M507.33,84.69h1.65l-4.31,4.34c0,.45-.37.84-.83.84s-.83-.37-.83-.84l4.31-4.34"/>
            <path class="cls-9" d="M515.14,84.69h1.65l-4.31,4.34c0,.45-.37.84-.83.84s-.83-.37-.83-.84l4.31-4.34"/>
          </g>
        </g>
        <path class="cls-2" d="M446.9,84.69h10.02l-4.31,4.34c0,.45.37.84.83.84s.83-.37.83-.84l4.33-4.34h6.15l-4.31,4.34c0,.45.37.84.83.84s.83-.37.83-.84l4.33-4.34h6.15l-4.31,4.34c0,.45.37.84.83.84s.83-.37.83-.84l4.33-4.34h4.86c1.26,0,2.28,1.04,2.28,2.3l-.05,18.02c0,1.28-1.02,2.3-2.28,2.3h-3.33v1.28c0,1.28-1.02,2.3-2.28,2.3h-1.32v1.81c0,1.28-1.02,2.3-2.28,2.3h-13.76c-1.26,0-2.28-1.02-2.28-2.3v-1.81h-1.32c-1.25,0-2.28-1.04-2.28-2.3v-1.28h-3.31c-1.26,0-2.28-1.04-2.28-2.3l.05-18.02c0-1.28,1.02-2.3,2.28-2.3"/>
        <g class="cls-22">
          <g>
            <path class="cls-9" d="M456.93,84.69h1.65l-4.33,4.34c0,.45-.37.84-.83.84s-.83-.37-.83-.84l4.31-4.34"/>
            <path class="cls-9" d="M464.72,84.69h1.65l-4.33,4.34c0,.45-.37.84-.83.84s-.83-.37-.83-.84l4.31-4.34"/>
            <path class="cls-9" d="M472.54,84.69h1.65l-4.33,4.34c0,.45-.37.84-.83.84s-.83-.37-.83-.84l4.31-4.34"/>
          </g>
        </g>
        <path class="cls-2" d="M404.3,84.69h10.02l-4.33,4.34c0,.45.37.84.83.84s.83-.37.83-.84l4.31-4.34h6.16l-4.33,4.34c0,.45.37.84.83.84s.83-.37.83-.84l4.33-4.34h6.15l-4.33,4.34c0,.45.37.84.83.84s.83-.37.83-.84l4.33-4.34h4.86c1.25,0,2.28,1.04,2.28,2.3l-.05,18.02c0,1.28-1.02,2.3-2.28,2.3h-3.33v1.28c0,1.28-1.02,2.3-2.28,2.3h-1.32v1.81c0,1.28-1.02,2.3-2.28,2.3h-13.76c-1.26,0-2.28-1.02-2.28-2.3v-1.81h-1.3c-1.25,0-2.28-1.04-2.28-2.3v-1.28h-3.31c-1.26,0-2.28-1.04-2.28-2.3l.05-18.02c0-1.28,1.02-2.3,2.28-2.3"/>
        <g class="cls-21">
          <g>
            <path class="cls-9" d="M414.32,84.69h1.65l-4.31,4.34c0,.45-.37.84-.83.84s-.83-.37-.83-.84l4.33-4.34"/>
            <path class="cls-9" d="M422.12,84.69h1.65l-4.33,4.34c0,.45-.37.84-.83.84s-.83-.37-.83-.84l4.33-4.34"/>
            <path class="cls-9" d="M429.93,84.69h1.65l-4.33,4.34c0,.45-.37.84-.83.84s-.83-.37-.83-.84l4.33-4.34"/>
          </g>
        </g>
        <path class="cls-2" d="M361.69,84.69h10.02l-4.31,4.34c0,.45.37.84.83.84s.83-.37.83-.84l4.31-4.34h6.16l-4.33,4.34c0,.45.37.84.83.84s.83-.37.83-.84l4.31-4.34h6.15l-4.31,4.34c0,.45.37.84.83.84s.83-.37.83-.84l4.31-4.34h4.87c1.25,0,2.28,1.04,2.28,2.3l-.05,18.02c0,1.28-1.02,2.3-2.28,2.3h-3.33v1.28c0,1.28-1.02,2.3-2.28,2.3h-1.32v1.81c0,1.28-1.02,2.3-2.28,2.3h-13.76c-1.25,0-2.28-1.02-2.28-2.3v-1.81h-1.3c-1.25,0-2.28-1.04-2.28-2.3v-1.28h-3.33c-1.25,0-2.28-1.04-2.28-2.3l.05-18.02c0-1.28,1.02-2.3,2.28-2.3"/>
        <g class="cls-20">
          <g>
            <path class="cls-9" d="M371.71,84.69h1.65l-4.31,4.34c0,.45-.37.84-.83.84s-.83-.37-.83-.84l4.31-4.34"/>
            <path class="cls-9" d="M379.51,84.69h1.65l-4.31,4.34c0,.45-.37.84-.83.84s-.83-.37-.83-.84l4.33-4.34"/>
            <path class="cls-9" d="M387.31,84.69h1.65l-4.31,4.34c0,.45-.37.84-.83.84s-.83-.37-.83-.84l4.31-4.34"/>
          </g>
        </g>
        <path class="cls-2" d="M319.07,84.69h10.02l-4.31,4.34c0,.45.37.84.83.84s.83-.37.83-.84l4.31-4.34h6.15l-4.31,4.34c0,.45.37.84.83.84s.83-.37.83-.84l4.31-4.34h6.15l-4.31,4.34c0,.45.37.84.83.84s.83-.37.83-.84l4.31-4.34h4.87c1.25,0,2.28,1.04,2.28,2.3l-.05,18.02c0,1.28-1.02,2.3-2.28,2.3h-3.33v1.28c0,1.28-1.02,2.3-2.28,2.3h-1.32v1.81c0,1.28-1.02,2.3-2.28,2.3h-13.76c-1.25,0-2.28-1.02-2.28-2.3v-1.81h-1.3c-1.26,0-2.28-1.04-2.28-2.3v-1.28h-3.33c-1.25,0-2.28-1.04-2.28-2.3l.05-18.02c0-1.28,1.02-2.3,2.28-2.3"/>
        <g class="cls-24">
          <g>
            <path class="cls-9" d="M329.09,84.69h1.65l-4.31,4.34c0,.45-.37.84-.83.84s-.83-.37-.83-.84l4.31-4.34"/>
            <path class="cls-9" d="M336.91,84.69h1.65l-4.31,4.34c0,.45-.37.84-.83.84s-.83-.37-.83-.84l4.31-4.34"/>
            <path class="cls-9" d="M344.72,84.69h1.65l-4.31,4.34c0,.45-.37.84-.83.84s-.83-.37-.83-.84l4.31-4.34"/>
          </g>
        </g>
      </g>
    </g>
  </g>
  <polygon class="cls-17" points="455.71 0 21.55 0 154.04 60.55 588.2 60.55 455.71 0"/>
  <g>
    <g>
      <path class="cls-14" d="M63.47,40.02v30.08c0,.55-.4,1.01-.97,1.24-.21.09-.47.13-.72.13-.93,0-1.68-.61-1.68-1.36v-30.08c0-.74.74-1.35,1.68-1.35.25,0,.51.04.72.13.57.23.97.69.97,1.22Z"/>
      <path class="cls-16" d="M63.47,40.02v30.08c0,.55-.4,1.01-.97,1.24-.57-.21-.97-.69-.97-1.24v-30.08c0-.54.4-1.01.97-1.22.57.23.97.69.97,1.22Z"/>
    </g>
    <g>
      <path class="cls-14" d="M69.01,42.79v30.08c0,.55-.4,1.01-.97,1.24-.21.08-.47.13-.72.13-.93,0-1.68-.61-1.68-1.36v-30.08c0-.74.74-1.35,1.68-1.35.25,0,.5.04.72.13.57.23.97.69.97,1.22Z"/>
      <path class="cls-16" d="M69.01,42.79v30.08c0,.55-.4,1.01-.97,1.24-.57-.21-.97-.69-.97-1.24v-30.08c0-.54.4-1.01.97-1.22.57.23.97.69.97,1.22Z"/>
    </g>
    <g>
      <path class="cls-14" d="M74.54,45.56v30.08c0,.55-.4,1.01-.97,1.24-.21.08-.47.13-.72.13-.93,0-1.68-.61-1.68-1.36v-30.08c0-.74.74-1.35,1.68-1.35.25,0,.5.04.72.13.57.23.97.69.97,1.22Z"/>
      <path class="cls-16" d="M74.54,45.56v30.08c0,.55-.4,1.01-.97,1.24-.57-.21-.97-.69-.97-1.24v-30.08c0-.54.4-1.01.97-1.22.57.23.97.69.97,1.22Z"/>
    </g>
    <g>
      <path class="cls-14" d="M80.08,48.34v30.08c0,.55-.4,1.01-.97,1.24-.21.08-.47.13-.72.13-.93,0-1.68-.61-1.68-1.36v-30.08c0-.74.74-1.35,1.68-1.35.25,0,.5.04.72.13.57.23.97.69.97,1.22Z"/>
      <path class="cls-16" d="M80.08,48.34v30.08c0,.55-.4,1.01-.97,1.24-.57-.21-.97-.69-.97-1.24v-30.08c0-.54.4-1.01.97-1.22.57.23.97.69.97,1.22Z"/>
    </g>
    <g>
      <path class="cls-14" d="M85.61,51.11v30.08c0,.55-.4,1.01-.97,1.24-.21.08-.47.13-.72.13-.93,0-1.68-.61-1.68-1.36v-30.08c0-.74.74-1.35,1.68-1.35.25,0,.5.04.72.13.57.23.97.69.97,1.22Z"/>
      <path class="cls-16" d="M85.61,51.11v30.08c0,.55-.4,1.01-.97,1.24-.57-.21-.97-.69-.97-1.24v-30.08c0-.54.4-1.01.97-1.22.57.23.97.69.97,1.22Z"/>
    </g>
    <g>
      <path class="cls-14" d="M91.15,53.88v30.08c0,.55-.4,1.01-.97,1.24-.21.08-.47.13-.72.13-.93,0-1.68-.61-1.68-1.36v-30.08c0-.74.74-1.35,1.68-1.35.25,0,.5.04.72.13.57.23.97.69.97,1.22Z"/>
      <path class="cls-16" d="M91.15,53.88v30.08c0,.55-.4,1.01-.97,1.24-.57-.21-.97-.69-.97-1.24v-30.08c0-.54.4-1.01.97-1.22.57.23.97.69.97,1.22Z"/>
    </g>
    <g>
      <path class="cls-14" d="M96.68,56.65v30.08c0,.55-.4,1.01-.97,1.24-.21.08-.47.13-.72.13-.93,0-1.68-.61-1.68-1.36v-30.08c0-.74.74-1.35,1.68-1.35.25,0,.5.04.72.13.57.23.97.69.97,1.22Z"/>
      <path class="cls-16" d="M96.68,56.65v30.08c0,.55-.4,1.01-.97,1.24-.57-.21-.97-.69-.97-1.24v-30.08c0-.54.4-1.01.97-1.22.57.23.97.69.97,1.22Z"/>
    </g>
    <g>
      <path class="cls-14" d="M102.22,59.42v30.08c0,.55-.4,1.01-.97,1.24-.21.09-.47.13-.72.13-.93,0-1.68-.61-1.68-1.36v-30.08c0-.74.74-1.35,1.68-1.35.25,0,.51.04.72.13.57.23.97.69.97,1.22Z"/>
      <path class="cls-16" d="M102.22,59.42v30.08c0,.55-.4,1.01-.97,1.24-.57-.21-.97-.69-.97-1.24v-30.08c0-.54.4-1.01.97-1.22.57.23.97.69.97,1.22Z"/>
    </g>
  </g>
  <g>
    <polygon class="cls-16" points="46.52 70.27 32.59 64.62 32.59 57.58 46.52 63.23 46.52 70.27"/>
    <polygon class="cls-7" points="46.52 70.27 32.59 64.62 33.41 58.5 46.52 63.84 46.52 70.27"/>
  </g>
  <g>
    <polygon class="cls-16" points="133.59 116.47 120.53 111.18 120.53 104.57 133.59 109.87 133.59 116.47"/>
    <polygon class="cls-7" points="133.59 116.47 120.53 111.18 121.29 105.44 133.59 110.45 133.59 116.47"/>
  </g>
  <g class="cls-25">
    <g class="cls-23">
      <g>
        <path class="cls-13" d="M253.58,29.86c-1.08-.04-1.66.13-1.41.41.25.28,1.2.6,2.48.82.3.05.46.1.6.17.72.36,1.45.71,2.18,1.07.38.19.97.33,1.62.41.18.02.35.03.5.04.68.02.94-.11.49-.34-.72-.36-1.46-.72-2.2-1.08-.14-.07-.18-.11-.07-.15.52-.16.21-.46-.76-.77-.96-.3-2.33-.53-3.43-.57M241.59,24.01s-.05,0-.08,0c-2.61-.08-3.59.48-2.09,1.24,1.45.73,2.96,1.46,4.45,2.19l.12.04,10.27.36c-1.56-.77-3.04-1.52-4.66-2.28-1.66-.77-5.21-1.45-8.01-1.54M252.11,33.87c-2.77-.1-6.41-.83-8.01-1.62-2.49-1.22-5-2.45-7.47-3.67-1.13-.56-1.09-.94-.01-1.17.5-.11,1.24-.14,2.19-.11l-.19-.09c-1.41-.69-2.81-1.38-4.24-2.08-2.69-1.31-1.99-2.36,1.74-2.56.47-.03.99-.03,1.48-.05l2.26.08c.1,0,.21.03.3.03,5.45.36,11.86,1.75,14.81,3.19l4.23,2.08.26.13c.09,0,.15.01.21.01,2.9.13,6.32.84,7.96,1.64,2.49,1.22,4.98,2.44,7.46,3.66,1.6.79.63,1.36-2.15,1.26l-20.81-.73M225.69,16.16c-.64-.02-1.18,0-1.56.08-6.89,1.38-14.96,2.29-24.68,2.78-1.33.07-1.6.43-.65.9l10.25,5.03c10.93,5.37,26.93,9.22,38.42,11.52,13.24,2.64,24.58,4.05,28.08,4.17s10.39-.65,14.07-2.7c3.2-1.78,4.72-5.03-6.21-10.39l-10.25-5.03c-.95-.46-2.87-.91-4.7-1.09-12.81-1.24-27.24-3.04-40.63-5.06-.77-.12-1.5-.19-2.14-.21"/>
        <path class="cls-17" d="M259.55,32.77c-.15,0-.31-.02-.5-.04-.64-.07-1.23-.22-1.62-.41-.74-.36-1.47-.72-2.18-1.07-.14-.07-.3-.12-.6-.17-1.28-.22-2.23-.54-2.48-.82-.25-.28.33-.44,1.41-.41,1.09.04,2.47.27,3.43.57.97.31,1.28.61.76.77-.11.04-.08.08.07.15.74.36,1.49.72,2.2,1.08.45.23.19.36-.49.34M243.99,27.48l-.12-.04c-1.49-.73-3-1.46-4.45-2.19-1.5-.76-.52-1.32,2.09-1.24.03,0,.05,0,.08,0,2.8.1,6.34.77,8.01,1.54,1.62.76,3.1,1.51,4.66,2.28l-10.27-.36M239.84,22.59l-2.26-.08c-.49.02-1.01.03-1.48.05-3.73.2-4.43,1.25-1.74,2.56,1.42.69,2.83,1.39,4.24,2.08l.19.09c-.95-.03-1.69,0-2.19.11-1.08.23-1.11.62.01,1.17,2.48,1.22,4.98,2.45,7.47,3.67,1.6.79,5.25,1.52,8.01,1.62l20.81.73c2.78.1,3.75-.48,2.15-1.26-2.48-1.22-4.97-2.44-7.46-3.66-1.64-.8-5.06-1.51-7.96-1.64-.05,0-.12,0-.21-.01l-.26-.13-4.23-2.08c-2.95-1.45-9.36-2.83-14.81-3.19-.09,0-.2-.02-.3-.03"/>
        <path class="cls-3" d="M322.68,34.6l-3.15-.11,1.05,2.33-9.06-2.61-3.15-.11.17.09c.45.02.82.04,1.08.08.27.04.48.08.66.13.24.07.5.17.78.31l4.19,2.06c.36.18.53.29.51.33-.03.07-.29.1-.76.08h-.39s.18.07.18.07l3.88.14-.18-.09h-.39c-.44-.03-.83-.07-1.16-.15-.24-.05-.57-.18-.96-.37l-4.28-2.1,9.7,2.8h.27s-1.1-2.49-1.1-2.49l4.28,2.1c.36.18.54.29.52.33-.03.07-.28.1-.76.08h-.39s.18.07.18.07l4.73.17-.18-.09h-.39c-.43-.03-.82-.07-1.16-.14-.25-.05-.57-.18-.97-.37l-4.19-2.06c-.36-.18-.53-.29-.51-.33.04-.07.29-.1.76-.09h.39s-.17-.07-.17-.07"/>
        <path class="cls-3" d="M328.22,34.8l-4.76-.17.17.09h.39c.26.02.55.05.87.1.23.03.4.07.54.11.17.05.42.16.75.32l4.14,2.03c.39.19.56.31.54.35-.05.07-.32.09-.77.08h-.39s.18.07.18.07l4.76.17-.18-.09h-.4c-.26-.02-.54-.05-.86-.09-.24-.03-.42-.07-.55-.11-.18-.05-.42-.16-.74-.32l-4.14-2.03c-.39-.19-.57-.31-.53-.35.06-.07.31-.09.76-.08h.4s-.17-.07-.17-.07M324.16,33.89c-.25,0-.41,0-.48.05-.08.04-.04.1.1.17s.35.13.63.19c.28.06.54.09.78.1s.41,0,.48-.05.04-.1-.1-.17-.35-.13-.63-.19-.54-.09-.78-.1"/>
        <path class="cls-3" d="M340.53,35.23l-3.87-.14.17.09h.39c.43.03.82.07,1.16.14.25.05.57.18.97.37l3.7,1.82-11.62-2.6-3.02-.11.17.09c.32.01.59.03.77.05.38.04.69.08.92.12.24.04.63.12,1.17.24l4.46,2.19c.36.18.53.29.51.33-.03.07-.29.1-.76.08h-.39s.18.07.18.07l3.88.14-.18-.09h-.39c-.43-.03-.82-.07-1.16-.15-.24-.05-.57-.18-.96-.37l-3.95-1.94,12.51,2.79h.29s-5.41-2.64-5.41-2.64c-.36-.18-.53-.29-.51-.33.04-.07.28-.1.75-.09h.39s-.17-.07-.17-.07"/>
        <path class="cls-3" d="M345.96,35.42l-4.76-.17.17.09h.39c.26.02.56.05.87.1.23.03.4.07.54.11.18.05.42.16.75.32l4.14,2.03c.39.19.56.31.54.35-.05.07-.32.09-.77.08h-.39s.18.07.18.07l4.76.17-.18-.09h-.4c-.26-.02-.54-.05-.86-.09-.24-.03-.42-.07-.55-.11-.18-.05-.42-.16-.74-.32l-4.14-2.03c-.39-.19-.57-.31-.53-.35.06-.07.31-.09.76-.08h.4s-.17-.07-.17-.07M341.9,34.51c-.25,0-.41,0-.48.05-.08.04-.04.1.1.17s.35.13.63.19c.28.06.54.09.78.1s.41,0,.48-.05c.08-.04.04-.1-.1-.17s-.35-.13-.63-.19c-.27-.06-.54-.09-.78-.1"/>
        <path class="cls-3" d="M360,35.91l-9.09-.32,1.37.73h.32c-.25-.13-.37-.24-.33-.31.03-.08.16-.12.38-.14.18-.01.53-.01,1.04,0l1.34.05,4.9,2.41c.36.18.53.29.51.33-.03.07-.29.1-.76.08h-.39s.18.07.18.07l4.73.17-.18-.09h-.39c-.43-.03-.81-.07-1.16-.15-.24-.05-.57-.18-.96-.37l-4.9-2.41,1.57.05c.45.02.87.05,1.24.1.36.05.73.12,1.08.22.21.06.49.15.81.29h.31s-1.63-.73-1.63-.73"/>
        <path class="cls-3" d="M372.46,36.34l-3.89-.14.17.09h.42c.42.03.81.08,1.16.15.26.06.57.18.98.38l2.59,1.27c.68.33,1.06.57,1.14.7.07.13-.09.23-.48.3-.39.07-.95.09-1.68.07-.57-.02-1.11-.06-1.62-.14-.5-.07-.95-.15-1.34-.25-.39-.1-.79-.22-1.19-.39-.4-.16-.73-.3-.98-.42l-2.79-1.37c-.36-.18-.53-.29-.5-.34.03-.08.27-.11.73-.09h.42s-.17-.07-.17-.07l-4.81-.17.17.09h.42c.42.03.79.07,1.1.14.31.07.67.2,1.06.39l2.51,1.23c.77.38,1.38.64,1.84.78.68.21,1.45.39,2.32.53.86.14,1.91.23,3.13.28,1.11.04,1.87,0,2.26-.1.39-.1.52-.24.39-.4-.13-.17-.53-.41-1.17-.73l-2.6-1.28c-.36-.17-.52-.28-.5-.33.02-.1.25-.14.69-.12h.37s-.17-.07-.17-.07M363.86,35.28c-.25,0-.41,0-.48.05-.07.04-.03.1.11.17s.35.13.63.19c.28.05.53.09.78.09s.4,0,.48-.05c.08-.04.04-.1-.1-.17s-.35-.13-.63-.19c-.27-.06-.54-.09-.78-.1M366.76,35.38c-.25,0-.41,0-.48.05-.08.04-.04.1.1.17s.35.13.63.19.53.09.78.09.41,0,.48-.05c.08-.04.04-.1-.1-.17s-.35-.13-.63-.19c-.27-.06-.53-.09-.78-.1"/>
        <path class="cls-3" d="M384.59,36.77l-3.87-.14.17.09h.39c.43.03.82.07,1.16.14.25.05.57.18.97.37l3.7,1.82-11.62-2.6-3.02-.11.17.09c.32.01.58.03.77.05.38.04.69.08.92.12.24.04.63.12,1.17.24l4.46,2.19c.36.18.53.29.51.33-.03.07-.29.1-.77.08h-.39s.18.07.18.07l3.88.14-.18-.09h-.39c-.43-.03-.82-.07-1.16-.15-.24-.05-.57-.18-.96-.37l-3.95-1.94,12.51,2.79h.3s-5.41-2.64-5.41-2.64c-.36-.18-.53-.29-.51-.33.04-.07.28-.1.75-.09h.39s-.17-.07-.17-.07"/>
        <path class="cls-3" d="M393.75,37.09l-8.58-.3.17.09h.39c.46.03.85.07,1.18.14.23.05.55.18.96.38l4.17,2.05c.32.15.49.25.53.3.04.05,0,.08-.13.1-.16.03-.38.04-.64.03h-.39s.18.07.18.07l8.58.3-.65-.76h-.32c.04.17-.02.3-.16.39-.12.06-.29.1-.52.12-.24.01-.66.01-1.3-.01l-1.89-.07c-.31-.01-.53-.03-.68-.05-.15-.02-.27-.05-.38-.08-.1-.03-.3-.12-.58-.26l-2.11-1.04,2.44.09c.47.02.84.04,1.14.08.29.04.52.09.74.14.17.05.44.15.83.3h.31s-2.23-1.08-2.23-1.08h-.31c.33.17.42.29.29.35-.1.05-.47.06-1.11.04l-2.44-.09-2.53-1.24,3.05.11c.56.02.96.04,1.23.08.34.04.64.1.91.16.27.07.62.19,1.08.36h.32s-1.53-.68-1.53-.68"/>
        <path class="cls-3" d="M400.48,37.32l-5.04-.18.17.09h.42c.42.03.81.08,1.16.15.26.06.58.18.99.38l4.14,2.03c.37.18.54.29.52.34-.02.08-.28.11-.75.09h-.42s.18.07.18.07l8.62.3-.79-.82-.31-.03c.12.19.13.32.03.4-.1.08-.29.13-.56.16-.28.02-.83.02-1.69-.01l-.81-.03c-.72-.03-1.16-.05-1.33-.07-.17-.02-.32-.05-.45-.08-.18-.05-.41-.14-.67-.27l-4.03-1.98c-.38-.19-.58-.3-.59-.35s.07-.08.24-.11c.16-.02.51-.03,1.04,0,.04,0,.07,0,.11,0l-.17-.09"/>
        <path class="cls-13" d="M336.57,26.9l-6.42-.22c-.19,0-.25.03-.15.08l.2.1c.11.05.35.1.53.11h.39c.21.02.46.04.7.07.15.02.31.05.43.09.19.06.61.26.74.33l5.02,2.46c.12.06.54.26.57.31.02.03.03.07-.05.08-.12.03-.35.03-.58.02h-.39c-.19-.02-.25.02-.15.07l.2.1c.11.05.35.1.53.11l10.69.37c.18,0,.24-.03.15-.08l-2.21-1.29s-.12-.05-.23-.07c-.11-.02-.21-.04-.31-.04h-.38c-.15-.02-.23,0-.18.05.22.2.46.44.46.61,0,.11-.1.21-.39.26-.28.05-.75.06-1.23.04l-1-.04c-.19,0-.76-.03-.98-.05-.13-.02-.25-.04-.36-.07-.22-.07-.61-.26-.76-.33l-4.86-2.38c-.12-.06-.53-.26-.56-.31-.02-.03-.03-.07.04-.08.13-.03.37-.03.59-.02l.52.02c.19,0,.25-.03.14-.08l-.2-.1c-.11-.05-.35-.1-.53-.11M357.05,30.97c-.79-.03-1.59-.14-2.41-.34-1.61-.39-2.92-.97-3.79-1.39-.76-.37-1.63-.84-1.76-1.17-.1-.25.16-.43,1.27-.39.52.02,1.07.08,1.66.18.73.13,1.46.34,1.99.51,1.01.33,1.95.76,2.61,1.09s1.3.67,1.57.96c.17.18.24.37-.06.48-.2.07-.6.09-1.09.07M349.22,27.3c-1.74-.06-2.86.07-3.33.4-.51.36-.09.83,1.03,1.38,1,.49,2.37.96,4.19,1.39,2.33.55,4.6.83,6.78.91s3.53-.1,3.76-.57c.18-.35-.28-.78-1.24-1.25-1.12-.55-2.69-1.06-4.85-1.51-2.02-.42-3.95-.65-5.75-.71-.1,0-.2,0-.29,0-.1,0-.2,0-.29-.01M369.79,27.98h-.32c-.15-.02-.22,0-.18.04.04.05.11.13.05.16-.03.02-.08.03-.18.02-.2-.01-.86-.1-1.09-.13-.51-.06-1.11-.14-1.6-.18-.61-.05-1.21-.08-1.78-.1-1.99-.07-3.29.07-3.81.43-.52.37-.13.85,1.03,1.42.62.31,1.43.62,2.46.91.78.22,1.64.43,2.56.61.95.19,1.93.34,2.91.47,1.16.15,2.29.22,3.29.26.89.03,1.74.04,2.49.01.75-.02,1.41-.08,1.98-.16.08-.01.09-.04.01-.08l-1.57-.77c-.09-.04-.37-.18-.4-.22-.03-.04-.03-.08.07-.09.11-.02.5-.02.69-.02.17,0,.22-.03.12-.08l-.2-.1c-.11-.05-.34-.1-.52-.11l-5.87-.2c-.19,0-.25.03-.14.08l.2.1c.11.05.34.1.52.11h.31c.2.02.42.04.64.07.14.02.32.05.42.08.18.05.49.2.6.26l1.44.71c-.18.01-.36.03-.56.03-.24,0-.49,0-.76,0-.72-.03-1.49-.1-2.32-.24-.9-.15-1.67-.37-2.3-.58-.9-.3-1.63-.62-2.25-.93-.58-.28-1.04-.56-1.35-.83-.26-.22-.36-.43-.07-.57.27-.13.84-.17,1.61-.14.9.03,1.89.15,2.91.34,1.25.23,2.34.53,3.26.83.13.04.3.07.45.08h.32c.18.02.24-.02.14-.07l-2.67-1.31c-.11-.05-.35-.1-.53-.11"/>
        <path class="cls-13" d="M323.84,24.33c-.19,0-.38,0-.56,0-1.49.04-1.52.42-1.67.76l-2.5,5.98c-.06.15-.62.28-1.19.3-.61.03-.37.23-.2.34l1.1.04,3.98.14h.39s3.16.12,3.16.12c0,0-.15-.28-3-.57-.12-.01-.24-.02-.34-.03l1.18-2.61,12.93,3.13c-2.09.12-1.01.43-1.01.43l3.28.11,4.53.16,1.15.04c-.27-.11-.91-.33-1.75-.41-.96-.09-2.34-.35-2.36-.35l-16.4-3.95,1.52-3.38s-1.13-.21-2.25-.25M305.18,23.61c-1.25-.04-1.66.17-1.66.17l15.7,3.8.35-.83-10.41-2.51c-1.83-.44-3.11-.6-3.98-.63"/>
        <path class="cls-3" d="M348.53,31.44c-.11,0-.35,0-.99-.03l-2.25-.08.09.06c.59.03.67.05.94.23l1.22.82c.27.18.23.19-.33.18l.09.06,1.97.07-.08-.06c-.67-.04-.75-.05-1.02-.23l-.55-.37.88.03c.5.02.6.05.9.2h.22s-.64-.42-.64-.42h-.21c.11.13.1.16-.4.14l-.88-.03-.71-.48c-.09-.06-.08-.07.12-.06l.76.03c.4.01.53.03.78.11.16.05.29.1.44.16h.21c-.19-.1-.42-.24-.55-.32"/>
        <path class="cls-3" d="M351.88,31.95c-.25.03-.54.04-.88.05l.08.05c.45.04.48.04.67.17l.64.43c.21.14.17.15-.26.15l.09.06,1.57.05-.09-.06c-.47-.03-.54-.04-.75-.18l-.68-.45c-.13-.09-.26-.17-.39-.26M350.93,31.51c-.2,0-.31.03-.21.1.09.06.34.12.53.12.21,0,.29-.04.21-.1-.1-.07-.34-.12-.54-.13"/>
        <path class="cls-3" d="M355.02,32.06c-.27.03-.55.05-.87.05l.08.05c.43.03.46.03.67.17l.64.43c.2.13.17.14-.26.14l.09.06,1.63.06-.08-.06c-.57-.03-.61-.04-.82-.18l-.58-.39c0-.1.17-.15.32-.15.12,0,.24.03.39.06h.19c.1,0,.14-.05.07-.09-.08-.05-.3-.1-.56-.11-.35-.01-.48.09-.58.19-.1-.07-.24-.16-.33-.23"/>
        <path class="cls-3" d="M358.92,32.52c-.15-.16.04-.24.37-.23.4.01.79.12.95.23.05.03.02.04-.11.03-.41,0-.8-.02-1.2-.04M359.34,32.22c-.37-.01-.68.03-.84.11-.16.08-.13.21.08.35.35.24,1.19.46,2.05.49.22,0,.66-.01.87-.16l-.18-.05c-.15.06-.37.09-.66.08-.5-.02-1.25-.15-1.64-.43.83.02,1.71.03,1.84.03.1,0,.09-.02.04-.06-.25-.17-.94-.34-1.55-.36"/>
        <path class="cls-3" d="M366.92,32.5l-1.32-.05.08.06c.51.04.59.05.65.15.1.15.17.34.2.46-.63-.23-1.25-.46-1.84-.69h-.19c.06.21.1.42.13.62-.4-.16-.84-.34-1.24-.5-.24-.1-.23-.11.17-.11l-.08-.06-1.47-.05.08.06c.37.02.45.04.74.16.66.26,1.29.51,1.91.77h.22c-.06-.21-.08-.43-.1-.61.59.22,1.2.45,1.82.68h.22c-.1-.26-.18-.53-.21-.68-.02-.11,0-.13.34-.14l-.08-.06"/>
        <path class="cls-3" d="M370.74,33.4c-.23,0-.58-.07-.75-.18-.11-.08,0-.11.21-.14.13-.01.4-.04.53-.06.14.1.33.22.47.32-.08.04-.29.06-.47.05M369.68,32.58c-.38,0-.67.07-.81.11-.1.02-.16.04-.12.07.08.05.31.1.45.1.11,0,.15,0,.13-.04-.02-.06-.04-.1,0-.13.03-.02.1-.04.26-.04.37.01.74.1.97.25l.06.04c-.1.03-.55.07-.92.1-.33.02-.42.08-.28.18.2.13.74.27,1.25.28.22,0,.45-.06.65-.1.09.04.18.07.31.1.11.02.29.05.4.05l.44-.08-.15-.06c-.06,0-.14.02-.23.01-.13,0-.29-.04-.44-.13l-.59-.4c-.16-.11-.38-.18-.72-.25-.22-.04-.46-.07-.67-.08"/>
        <path class="cls-3" d="M372.87,32.16c-.19.02-.58.03-.95.03l.08.05c.48.03.54.05.72.17l1.47.99c.21.14.16.14-.27.14l.08.06,1.57.05-.08-.06c-.48-.03-.54-.04-.74-.18l-1.46-.97c-.14-.1-.29-.2-.43-.29"/>
        <path class="cls-3" d="M375.98,32.27c-.19.02-.58.03-.95.03l.08.05c.48.03.54.05.72.17l1.47.99c.21.14.16.14-.27.14l.08.06,1.58.06-.09-.06c-.48-.03-.54-.04-.74-.18l-1.46-.97c-.14-.1-.29-.2-.43-.29"/>
      </g>
    </g>
  </g>
</svg>