<?xml version="1.0" encoding="UTF-8"?>
<svg id="Layer_1" data-name="Layer 1" xmlns="http://www.w3.org/2000/svg" xmlns:xlink="http://www.w3.org/1999/xlink" viewBox="0 0 592.66 473.1">
  <defs>
    <style>
      .cls-1 {
        fill: #454f5c;
      }

      .cls-1, .cls-2, .cls-3, .cls-4, .cls-5, .cls-6, .cls-7, .cls-8, .cls-9, .cls-10, .cls-11, .cls-12, .cls-13, .cls-14, .cls-15, .cls-16 {
        stroke-width: 0px;
      }

      .cls-2 {
        fill: #cbd9e6;
      }

      .cls-3 {
        fill: none;
      }

      .cls-4 {
        fill: #17253b;
      }

      .cls-5 {
        fill: url(#linear-gradient);
      }

      .cls-6 {
        mix-blend-mode: overlay;
        opacity: .3;
      }

      .cls-6, .cls-17 {
        isolation: isolate;
      }

      .cls-6, .cls-14 {
        fill: #fff;
      }

      .cls-7 {
        fill: #8599ba;
      }

      .cls-8 {
        fill: #383635;
      }

      .cls-9 {
        fill: #000;
      }

      .cls-10 {
        fill: url(#linear-gradient-4);
      }

      .cls-11 {
        fill: url(#linear-gradient-2);
      }

      .cls-12 {
        fill: url(#linear-gradient-3);
      }

      .cls-13 {
        fill: url(#linear-gradient-5);
      }

      .cls-15 {
        fill: #a3b9cc;
      }

      .cls-16 {
        fill: #262a2e;
      }
    </style>
    <linearGradient id="linear-gradient" x1="12944.07" y1="110.73" x2="12736.43" y2="236.01" gradientTransform="translate(13038.48 -.01) rotate(-180) scale(1 -1)" gradientUnits="userSpaceOnUse">
      <stop offset="0" stop-color="#293445"/>
      <stop offset="1" stop-color="#454f61"/>
    </linearGradient>
    <linearGradient id="linear-gradient-2" x1="12931.98" y1="339.67" x2="12569.89" y2="320.22" gradientTransform="translate(13038.48 -.01) rotate(-180) scale(1 -1)" gradientUnits="userSpaceOnUse">
      <stop offset="0" stop-color="#dce5ed"/>
      <stop offset=".16" stop-color="#e1e9f1"/>
      <stop offset=".34" stop-color="#f0f7fd"/>
      <stop offset=".36" stop-color="#f2f9ff"/>
      <stop offset=".73" stop-color="#f2f9ff"/>
      <stop offset=".84" stop-color="#ecf4fa"/>
      <stop offset=".99" stop-color="#dde6ee"/>
      <stop offset="1" stop-color="#dce5ed"/>
    </linearGradient>
    <linearGradient id="linear-gradient-3" x1="12545.65" y1="389.93" x2="12979.81" y2="405.94" gradientTransform="translate(13038.48 -.01) rotate(-180) scale(1 -1)" gradientUnits="userSpaceOnUse">
      <stop offset="0" stop-color="#b6c4d1"/>
      <stop offset=".12" stop-color="#bbc8d4"/>
      <stop offset=".26" stop-color="#cad5e0"/>
      <stop offset=".37" stop-color="#dce5ed"/>
      <stop offset=".66" stop-color="#dce5ed"/>
      <stop offset="1" stop-color="#b6c4d1"/>
    </linearGradient>
    <linearGradient id="linear-gradient-4" x1="12445.82" y1="209.37" x2="12696.26" y2="209.37" gradientTransform="translate(13038.48 -.01) rotate(-180) scale(1 -1)" gradientUnits="userSpaceOnUse">
      <stop offset="0" stop-color="#293445"/>
      <stop offset="1" stop-color="#454f61"/>
    </linearGradient>
    <linearGradient id="linear-gradient-5" x1="12899.25" y1="339.51" x2="13033.82" y2="339.51" gradientTransform="translate(13038.48 -.01) rotate(-180) scale(1 -1)" gradientUnits="userSpaceOnUse">
      <stop offset="0" stop-color="#293445"/>
      <stop offset="1" stop-color="#454f61"/>
    </linearGradient>
  </defs>
  <g class="cls-17">
    <g id="Layer_1-2" data-name="Layer 1-2">
      <g>
        <g>
          <g>
            <path class="cls-16" d="M51.45,137.16c.27-1.36.74-2.7,1.37-3.96.63-1.25,1.4-2.41,2.31-3.41.9-.99,1.92-1.82,3.02-2.41L295.08.75c.39-.2.77-.37,1.15-.49.37-.12.74-.2,1.1-.23.36-.04.71-.03,1.05,0,.33.04.66.12.97.24,1.64.63,3.28,1.25,4.91,1.88-.31-.12-.64-.2-.97-.24s-.68-.05-1.04,0c-.36.03-.73.11-1.1.23-.38.12-.76.28-1.14.49L63.05,129.56c-1.1.59-2.12,1.42-3.02,2.42s-1.68,2.16-2.31,3.41c-.62,1.26-1.09,2.6-1.37,3.96-.27,1.36-.36,2.74-.21,4.06l21.9,192.69-.3-.15c-1.39-.7-4.68-4.21-5.07-7.59h0l-21.42-187.14c-.15-1.32-.07-2.7.2-4.06h0Z"/>
            <path class="cls-5" d="M63.03,129.55c-1.1.59-2.12,1.42-3.02,2.42s-1.68,2.16-2.31,3.41c-.62,1.26-1.09,2.6-1.37,3.96-.27,1.36-.36,2.74-.21,4.06l21.9,192.69,242.54-142.53-12.87-185.52c-.09-1.27-.37-2.37-.8-3.28-.43-.91-1.02-1.62-1.72-2.11s-1.51-.76-2.38-.77c-.88-.02-1.83.23-2.8.75L63.03,129.55h0Z"/>
            <path class="cls-14" d="M66.04,142.27c-.01-.11-.03-.44.07-.96.1-.49.28-1.01.52-1.5.28-.56.58-.95.78-1.17s.34-.31.34-.31L298.17,14.92l14.09,178.08-223.97,131.62-22.25-182.35h0Z"/>
          </g>
          <path class="cls-11" d="M250.63,465.56l225.31-145.93c.94-.61,1.61-1.35,2.04-2.16.42-.82.59-1.71.52-2.63-.08-.92-.4-1.86-.97-2.77s-1.38-1.78-2.43-2.58l-154.36-116.37-242.69,142.98,157.17,128.08c1.07.87,2.31,1.57,3.63,2.08,1.32.51,2.72.83,4.11.95,1.4.13,2.79.05,4.1-.22s2.53-.75,3.58-1.43h0Z"/>
          <g>
            <path class="cls-2" d="M349.68,318.18c-2.81,1.76-5.64,3.53-8.46,5.3-2.83,1.77-5.66,3.54-8.5,5.32s-5.69,3.56-8.54,5.34c-2.86,1.79-5.71,3.58-8.57,5.37-2.84,1.78-5.69,3.56-8.54,5.34-2.85,1.79-5.71,3.58-8.58,5.37-2.87,1.8-5.74,3.59-8.61,5.39-2.88,1.8-5.76,3.61-8.65,5.42-.73.46-1.28.87-1.65,1.27s-.54.79-.53,1.19c0,.41.21.83.6,1.3.38.47.96,1,1.72,1.6.62.49,3.28,2.59,6.97,5.51s8.41,6.65,13.14,10.39c4.74,3.74,9.49,7.5,13.21,10.44,3.73,2.94,6.43,5.07,7.06,5.57.6.46,1.17.83,1.72,1.08.55.26,1.09.41,1.62.47.53.05,1.06,0,1.59-.15s1.06-.4,1.61-.76c3.43-2.2,6.84-4.4,10.26-6.59,3.4-2.19,6.8-4.38,10.2-6.56,3.39-2.18,6.77-4.35,10.14-6.52,3.37-2.17,6.73-4.33,10.09-6.49,2.37-1.52,4.73-3.05,7.1-4.57,2.36-1.52,4.72-3.04,7.07-4.55,2.35-1.52,4.7-3.03,7.05-4.54,2.34-1.51,4.68-3.02,7.02-4.52.53-.34.92-.68,1.17-1.04.25-.35.37-.71.35-1.08s-.18-.76-.48-1.16c-.3-.41-.74-.83-1.32-1.29-.64-.51-3.34-2.6-7.07-5.47-3.72-2.88-8.46-6.54-13.2-10.19-4.73-3.65-9.45-7.29-13.14-10.14-3.69-2.84-6.37-4.9-7.01-5.4-.65-.5-1.25-.88-1.83-1.15-.57-.27-1.12-.43-1.66-.49-.54-.05-1.07,0-1.62.17-.55.16-1.12.44-1.73.81h0Z"/>
            <path class="cls-15" d="M398.28,351.8c-.3-.41-.74-.83-1.32-1.29-.64-.51-3.35-2.6-7.07-5.47-3.72-2.88-8.46-6.54-13.2-10.19-4.73-3.65-9.45-7.29-13.14-10.14-3.69-2.84-6.37-4.9-7.01-5.39-.65-.5-1.25-.88-1.83-1.15-.57-.27-1.12-.43-1.66-.49-.54-.05-1.07,0-1.62.17-.55.16-1.12.44-1.73.81-2.81,1.76-5.64,3.53-8.46,5.3-2.83,1.77-5.66,3.54-8.5,5.32s-5.69,3.56-8.54,5.34c-2.86,1.79-5.71,3.58-8.57,5.37-2.84,1.78-5.69,3.56-8.54,5.34-2.85,1.79-5.71,3.58-8.58,5.37-2.87,1.8-5.74,3.59-8.61,5.39-2.88,1.8-5.76,3.61-8.65,5.42-.74.46-1.29.87-1.65,1.27-.32.35-.48.69-.52,1.04-.03-.11-.05-.22-.05-.33-.01-.41.17-.79.53-1.19s.91-.81,1.65-1.27c2.89-1.81,5.77-3.61,8.65-5.42,2.87-1.8,5.74-3.59,8.61-5.39,2.86-1.79,5.72-3.58,8.58-5.37,2.85-1.78,5.7-3.56,8.54-5.34,2.86-1.79,5.72-3.58,8.57-5.37,2.85-1.78,5.69-3.57,8.54-5.34,2.84-1.78,5.67-3.55,8.5-5.32,2.82-1.77,5.65-3.53,8.46-5.3.61-.38,1.18-.65,1.73-.81.55-.16,1.08-.22,1.62-.17s1.08.21,1.66.49c.57.27,1.17.66,1.83,1.15.65.49,3.32,2.55,7.01,5.4,3.7,2.85,8.41,6.49,13.14,10.14,4.73,3.65,9.47,7.31,13.2,10.19,3.72,2.88,6.43,4.97,7.07,5.47.58.46,1.02.88,1.32,1.29.3.41.46.79.48,1.16,0,.07-.02.15-.03.22-.07-.29-.19-.59-.42-.9h0Z"/>
          </g>
          <g>
            <path class="cls-1" d="M311.67,209.06l-214.33,127.52c-1.91,2.76,6.69,7.71,8.64,6.48,2.22-.83,211.37-125.34,213.49-126.33,2.94-1.3,2.92-3.09-.05-4.7-2.34-1.6-4.65-3.7-7.75-2.97h0Z"/>
            <path class="cls-1" d="M339.25,229.14c-2.25,2.03-11.29,4.15-9.81,7.5,3.97,2.83,8.19,6.7,12.96,8.1,4.14-.34,7.42-3.57,11.08-5.19,2.18-.9,2.9-2.36,1.04-4.04-4.98-1.87-9.55-9.15-15.28-6.37h.01Z"/>
            <path class="cls-1" d="M316.46,313.82c-3.49-1.82-6.85-6.27-11.17-5.16-6.67,3.23-13.04,7.36-19.56,10.91-17.34,9.97-34.67,20.02-52,30.18-4.81,2.5,1.7,5.25,3.81,6.98,2.96,1.94,6.41,5.47,10.15,2.99,11.67-6.8,23.35-13.56,35.05-20.3,11.88-6.79,23.76-13.55,35.67-20.28,3.65-1.71.16-4.09-1.96-5.33h.01Z"/>
            <path class="cls-1" d="M372.62,251.14c-9.74,5.29-19.47,10.61-29.19,16-4.49,3.02,4.68,5.83,6.64,7.94,4.8,4.62,9.15,1.73,13.84-1.1,7.24-3.96,14.49-7.89,21.73-11.83,4.81-1.96,3.68-3.79-.3-5.99-3.89-1.94-7.97-7.39-12.72-5.03h0Z"/>
            <path class="cls-1" d="M355.86,240.18c-7.24,4.14-14.96,7.83-21.93,12.32-1.32,2.67,3.9,4.05,5.52,5.7,2.82,1.56,5.56,4.88,9.11,3.98,5.84-2.63,11.27-6.16,16.96-9.08,2.07-1.6,9.74-3.44,5.38-6.45-4.65-2.21-9.44-9.04-15.02-6.48h-.02Z"/>
            <path class="cls-1" d="M153.11,376.2c6.19-4.53,14.75-7.46,19.71-12.95-1.95-3.09-8.79-7.7-12.38-8.95-7.59,2.33-14.08,8.35-21.18,12.1-3.83,2.48,2.52,4.87,4.16,6.53,2.86,1.81,6.06,5.76,9.7,3.27h-.01Z"/>
            <path class="cls-1" d="M137.97,365.26c2.35-2.3,17.65-8.67,15.31-11.51-3.66-2.76-7.51-6.63-11.95-8.02-4.31.62-7.78,4.35-11.65,6.26-1.79,1.79-7.63,2.91-6.33,6,4.07,2.57,9.4,10,14.62,7.27Z"/>
            <path class="cls-1" d="M323.05,217.97c-5.44,3.7-13.21,5.91-17.4,10.63,1.87,2.93,9.7,7.99,13.25,9.04,4.95-.79,8.97-4.6,13.45-6.62,1.84-1.67,7.7-2.53,6.55-5.52-4.31-2.62-10.52-10.05-15.86-7.54h0Z"/>
            <path class="cls-1" d="M334.24,301.36c-3.57-2.53-7.73-5.94-11.91-2.39-3.74,2.66-9.55,4.09-12.11,7.7.69,2.29,3.99,3.27,5.78,4.84,3.07,1.8,6.48,5.69,10.32,3.32,4.42-2.61,9.3-4.84,13.46-7.73,1.48-2.68-3.93-4.07-5.53-5.74h-.01Z"/>
            <path class="cls-1" d="M167.88,387.32c2.33-2.22,14.33-6.58,12.67-9.67-8.69-6.18-10.27-11.66-20.5-3.78h.02c-1.9,1.79-9.65,3.76-5.84,6.85,4.25,2.15,8.41,8.85,13.66,6.61h-.01Z"/>
            <path class="cls-1" d="M236.01,357.47c-6.03-5.11-8.47-4.81-14.87-.29-1.97,1.92-9.08,3.42-7.65,6.62,4.34,2.61,9.47,9.75,15.09,7.14,4.19-2.61,8.83-4.83,12.77-7.73,1.32-2.72-3.77-4.06-5.33-5.74h-.01Z"/>
            <path class="cls-1" d="M213.38,301.26c-2.14,2.02-10.55,4.22-9.22,7.49,7.03,4.86,10.85,11.77,19.19,4.97h0c1.61-1.45,6.71-2.46,5.24-5.18-4.27-2.58-9.8-9.97-15.19-7.28h-.02Z"/>
            <path class="cls-1" d="M219.47,369.9c-8.04-6.23-9.44-7.23-18.25-1.01-2.1,1.02-4.87,3.01-1.83,4.81,3.7,2.22,6.91,5.98,11.2,6.94,3.69-.32,6.59-3.4,9.86-4.94,4.33-1.86,1.85-4.14-.99-5.8h.01Z"/>
            <path class="cls-1" d="M285.56,297.75c2.14-2.05,13.61-5.09,8.98-8.51-3.9-2.29-7.32-6.09-11.79-7.21-4.55.73-8.74,4.13-12.54,6.51-1.21,2.68,3.67,4,5.26,5.62h0c2.97,1.78,6.3,5.68,10.08,3.6h.01Z"/>
            <path class="cls-1" d="M335.28,269.77c11.17-5.91,11.15-5.33.42-12.24-3.53-3.41-7.66-2.69-11.28,0-2.14,1.61-5.98,2.36-6.97,4.84,1.4,2.97,5.7,4.34,8.25,6.51,2.82,2.43,6.48,3.36,9.58.88h0Z"/>
            <path class="cls-1" d="M259.86,274.04c-2.07,2.02-12.98,4.94-8.97,8.33,9.21,6.35,10.66,10.61,21.11,2.99,4.74-2.11,4.17-3.98-.07-6.38-3.69-1.94-7.5-7.3-12.08-4.95h.01,0Z"/>
            <path class="cls-1" d="M239.02,324.69c13.97-7.42,11.1-6.52-.26-14.55-3.02-2.39-6.22,0-8.89,1.61-1.76,1.64-7.36,2.66-6.07,5.61,4.22,2.65,9.8,9.91,15.23,7.32h0Z"/>
            <path class="cls-1" d="M164.63,354.58c5.18,3.43,10.63,10.31,16.78,4.43,1.95-1.59,5.54-2.36,6.4-4.78-2.31-3.73-7.52-6.1-11.18-8.69-3-1.15-5.55,1.6-8.03,2.88h0c-2.04,1.46-8.01,3.49-3.95,6.16h-.02Z"/>
            <path class="cls-1" d="M199.4,341.77c-3.59-1.89-7.26-7.33-11.74-4.87-2.19,2.06-10.36,4.24-9.32,7.52,4.04,2.78,8.34,8.15,13.57,7.98,3.66-1.75,7.44-3.97,10.65-6.39,1.19-1.98-1.93-3.15-3.17-4.24h0Z"/>
            <path class="cls-1" d="M168.26,328.33c-2,1.96-10.64,4.48-9.05,7.59,3.65,2.84,7.55,6.65,12.02,8.05,3.68-.29,6.61-3.43,9.84-5.02,1.99-.85,3.42-2.82,1.03-4.22-4.28-2.17-8.56-8.95-13.84-6.39h0Z"/>
            <path class="cls-1" d="M198.38,310.19c-2.12,2.03-10.85,4.39-9.28,7.66,3.71,2.81,7.62,6.59,12.12,8.02,3.44-.14,6.16-3.04,9.15-4.47,1.79-.97,5-2.7,2.16-4.56-4.35-2.24-8.8-9.08-14.15-6.66h0Z"/>
            <path class="cls-1" d="M321.86,253.52c-5.17-2.87-10.81-10.32-16.82-5.29-2.04,1.87-8.84,3.12-7.74,6.33,4.18,2.66,10.21,9.82,15.51,7.56,2.2-2.05,14.05-5.11,9.06-8.61h-.01Z"/>
            <path class="cls-1" d="M153.46,337.37c-2.08,2.03-10.51,4.36-9.01,7.61,3.63,2.82,7.48,6.61,11.91,8.02,3.31-.12,5.91-2.98,8.78-4.39,1.95-1.04,5.09-2.93,2.06-4.81-4.22-2.18-8.53-8.96-13.75-6.44h0Z"/>
            <path class="cls-1" d="M223.45,333.84c2.28-2.08,10.65-4.23,9.64-7.56-4.47-2.82-10.61-10.93-16.23-6.82-1.95,1.84-9.81,3.9-8.31,6.95,4.09,2.55,9.71,9.7,14.9,7.43Z"/>
            <path class="cls-1" d="M269.92,306.72c2.1-2.03,13.34-5.04,8.85-8.41-3.88-2.33-7.31-6.14-11.78-7.27-3.5.21-6.27,3.03-9.33,4.47-1.92.98-5.09,2.77-2.11,4.66,4.48,2.18,8.91,8.93,14.37,6.55h0Z"/>
            <path class="cls-1" d="M191.39,294.1c-13.78,7.55-11.09,6.55.29,14.78,2.97,2.32,6.07-.27,8.66-1.82,1.74-1.63,7.08-2.56,5.97-5.49-4.13-2.66-9.6-9.85-14.92-7.47Z"/>
            <path class="cls-1" d="M189.27,388.03c-3.53-1.81-7.06-7.18-11.49-4.98-2.18,2.03-10.61,4.4-9.42,7.62,4.06,2.71,8.22,7.98,13.4,7.93,3.66-1.75,7.45-3.99,10.65-6.43,1.08-1.97-1.94-3.07-3.14-4.14h0Z"/>
            <path class="cls-1" d="M146.65,321.26c-13.59,7.57-10.67,6.67.33,14.77,2.94,2.34,6.01-.36,8.59-1.9,1.67-1.6,6.84-2.56,5.7-5.42-4.05-2.62-9.39-9.83-14.61-7.45h0Z"/>
            <path class="cls-1" d="M237.31,266.91c-2.09,2.07-13.25,5.08-8.83,8.53,3.84,2.31,7.18,6.18,11.6,7.26,3.33-.17,5.89-2.89,8.79-4.23,1.8-1.02,5.76-2.76,2.69-4.82-4.4-2.24-8.88-8.98-14.26-6.74h0Z"/>
            <path class="cls-1" d="M278.14,322.08c16.01-8.16,10.45-7.04-1.52-15.34-3.61-1.17-6.56,2.21-9.6,3.56-1.78,1.18-6.69,2.88-3.41,5.18,4.48,2.24,9.02,9.01,14.53,6.6Z"/>
            <path class="cls-1" d="M275.31,265.13c-2.18,2.03-10.84,4.18-9.52,7.46,3.86,2.86,7.99,6.73,12.68,8.14,3.47-.18,6.18-2.97,9.21-4.34,1.99-.98,5.48-2.87,2.27-4.8-4.54-2.2-9.17-9.15-14.65-6.46h.01Z"/>
            <path class="cls-1" d="M317.35,279.74c2.11-2.01,13.65-5.01,9.27-8.36-4.02-2.35-7.56-6.2-12.15-7.37-3.63.28-6.5,3.11-9.69,4.57-2,.95-4.99,2.75-1.93,4.58,4.53,2.18,9.01,8.82,14.51,6.58h-.01Z"/>
            <path class="cls-1" d="M183.36,319.2c-6.19,4.46-15.16,5.35-4.12,11.58h0c2.8,1.72,5.87,5.62,9.46,3.54,3.01-2.28,7.98-3.52,9.78-6.77-.72-2.31-3.87-3.3-5.61-4.91-2.82-1.71-5.93-5.57-9.51-3.44h0Z"/>
            <path class="cls-1" d="M284.36,239.77c-10.04,6.19-15.57,5.31-2.27,13.44,3.56,3.58,7.69,2.4,11.25-.29,1.85-1.66,7.18-2.42,6.38-5.39-4.15-2.66-10.11-9.75-15.36-7.75h0Z"/>
            <path class="cls-1" d="M254.24,315.79c2.13-2.05,13.41-5.1,8.83-8.5-4.43-2.15-8.77-8.78-14.16-6.66-2.17,1.96-11.13,4.5-9.79,7.64,4.15,2.54,9.91,9.76,15.12,7.51h0Z"/>
            <path class="cls-1" d="M244.21,283.13c-2.2,2.04-10.81,4.22-9.46,7.55,3.8,2.86,7.84,6.7,12.47,8.09,3.81-.29,6.84-3.4,10.18-5,1.98-.86,3.67-2.7,1.13-4.16-4.43-2.19-8.94-9.04-14.33-6.49h.01Z"/>
            <path class="cls-1" d="M325.82,295.05c2.12-1.87,11.69-4.56,10-7.58-4.43-2.62-10.18-9.81-15.77-7.32-2.26,1.98-11.06,4.27-9.96,7.46,4.27,2.64,10.32,9.88,15.72,7.45h0Z"/>
            <path class="cls-1" d="M204.33,379.02c-3.6-1.84-7.21-7.28-11.72-4.93-2.06,1.91-10.82,4.55-9.31,7.61,4.07,2.7,8.24,7.95,13.45,7.87,3.7-1.74,7.49-3.99,10.73-6.42,1.11-1.96-1.95-3.06-3.16-4.13h.01Z"/>
            <path class="cls-1" d="M304.81,261.84c-4.84-2.82-10.08-9.45-15.71-4.6-2.42,1.84-6.7,2.7-7.92,5.46.86,2.22,11.83,9.99,14.37,8.91,3.69-1.43,6.97-3.77,10.43-5.63,2.52-1.23.55-3.2-1.16-4.14h0Z"/>
            <path class="cls-1" d="M231.7,349.1c2.12-1.98,10.82-4.38,9.46-7.52-3.77-2.83-7.8-6.66-12.43-8.03-3.39.2-6.07,2.99-9.03,4.42-1.84,1-5.18,2.78-2.26,4.68,4.39,2.22,8.83,9.02,14.25,6.45h0Z"/>
            <path class="cls-1" d="M328.8,253.2c2.07-1.92,14.04-5.25,9.42-8.46-4.04-2.33-7.56-6.22-12.17-7.36-4.02.29-7.16,3.44-10.69,5.04-2.06.81-3.47,2.68-.98,4.11,4.52,2.17,8.98,8.72,14.42,6.66h0Z"/>
            <path class="cls-1" d="M208.3,342.83c2.16-2.04,10.82-4.34,9.38-7.61-3.78-2.8-7.71-6.62-12.28-8.05-4.38.76-8.41,4.17-12.05,6.56-.99,2.76,3.81,4.02,5.41,5.72h0c2.8,1.74,5.93,5.54,9.53,3.38h0Z"/>
            <path class="cls-1" d="M229.12,291.98c-12.17,6.98-13.41,5.83-1.01,14.1,2.53,2.44,5.79,1.91,8.37-.09,1.97-1.87,8.75-3.24,7.56-6.39-4.11-2.52-9.77-9.62-14.92-7.61h0Z"/>
            <path class="cls-1" d="M301.37,288.76c2.12-2.04,13.45-4.97,9.24-8.37-3.99-2.33-7.46-6.13-12-7.37-3.67.2-6.57,3.13-9.79,4.61-1.84.92-4.84,2.61-1.99,4.4,4.55,2.19,9.03,8.91,14.53,6.73h.01Z"/>
            <path class="cls-1" d="M262.44,331.14c2.12-1.93,11.12-4.54,9.85-7.54-3.86-2.88-7.99-6.69-12.69-8.13-3.53.3-6.35,3.14-9.46,4.62-1.86.93-4.81,2.7-1.97,4.47,4.45,2.18,8.83,8.88,14.27,6.58h0Z"/>
            <path class="cls-1" d="M216.2,358.26c2.13-1.96,10.77-4.51,9.69-7.55-4.38-2.73-10.43-10.78-15.96-6.93-2.13,2-9.55,3.75-8.56,7,4.06,2.57,9.64,9.65,14.83,7.48h0Z"/>
            <path class="cls-1" d="M206.55,285.04c-14.12,7.64-10.94,6.58.46,14.86,2.93,2.24,5.97-.41,8.52-1.88,1.72-1.63,7.33-2.61,5.97-5.53-4.24-2.53-9.62-9.8-14.94-7.45h-.01Z"/>
            <path class="cls-1" d="M309.8,304.05c2.09-1.87,11.47-4.55,9.96-7.51-3.96-2.83-8.12-6.63-12.88-8.1-3.56.24-6.4,3.06-9.53,4.5-2.04,1-5.19,2.83-2.01,4.69,4.5,2.16,8.99,8.85,14.46,6.42h0Z"/>
            <path class="cls-1" d="M252.69,257.95c-3.54,2.94-15.37,5.52-6.54,10.03,9.7,7.6,9.94,6.7,19.93.51,4.22-1.74,1.37-3.93-1.27-5.52-3.71-1.95-7.55-7.43-12.12-5.03h0Z"/>
            <path class="cls-1" d="M122.53,354.49c9.84-6.4,13.87-5.46,1.94-13.31-3.47-3.85-7.47-2.17-11.01.61-1.54,1.5-6.21,2.41-5.12,5.09,3.87,2.52,9.26,9.73,14.19,7.61h0Z"/>
            <path class="cls-1" d="M348.77,276.08c-3.8-1.86-7.61-7.22-12.27-5.07-2.17,1.87-11.76,4.59-10.32,7.59,4.36,2.74,8.87,8,14.32,8.03,3.77-1.48,7.15-3.82,10.71-5.69,3.14-1.7-.75-3.76-2.43-4.86h-.01Z"/>
            <path class="cls-1" d="M310.08,234.4c-4.55-3.5-8.11-5.9-13.16-1.78-1.95,1.81-7.79,2.61-6.94,5.76,4.27,2.81,8.86,8.28,14.27,8.15,3.89-1.81,7.92-3.99,11.37-6.41,1.17-2.7-3.92-4.02-5.54-5.72h0Z"/>
            <path class="cls-1" d="M132.1,330.23c-2.16,2.1-10.35,4.35-9.21,7.66,3.63,2.86,7.47,6.69,11.91,8.12,3.29-.24,5.87-3.07,8.75-4.5,1.84-.99,4.84-2.76,2.02-4.62-4.2-2.13-8.32-8.84-13.46-6.66h0Z"/>
            <path class="cls-1" d="M176.38,303.14c-13.73,7.57-10.96,6.53.27,14.75,2.81,2.29,5.81-.08,8.3-1.6,1.75-1.69,7.43-2.72,6.15-5.7-4-2.53-9.68-9.86-14.72-7.46h0Z"/>
            <path class="cls-1" d="M221.95,275.94c-2.07,2.07-13.24,5.13-8.73,8.53,3.8,2.31,7.11,6.12,11.46,7.26,3.43-.19,6.05-3.05,9.05-4.42,1.75-.95,5.25-2.66,2.37-4.56-4.42-2.18-8.8-9-14.15-6.81h0Z"/>
            <path class="cls-1" d="M247.01,340.12c2.09-1.93,11.15-4.5,9.6-7.57-3.83-2.79-7.86-6.61-12.49-8.02-3.78.34-6.8,3.44-10.14,5.04-1.94.82-3.55,2.68-1.12,4.07,4.39,2.15,8.78,8.93,14.15,6.48h0Z"/>
            <path class="cls-1" d="M293.76,313.14c2-1.92,13.59-5.23,9.27-8.35-3.98-2.34-7.47-6.17-12.02-7.35-3.56.24-6.38,3.08-9.5,4.53-1.81.95-5.06,2.63-2.18,4.47,4.51,2.17,8.96,8.88,14.44,6.69h-.01Z"/>
            <path class="cls-1" d="M161.56,312.14c-13.86,7.69-10.88,6.59.33,14.87,2.91,2.3,5.93-.39,8.47-1.89,1.7-1.61,6.84-2.52,5.84-5.38-3.86-2.51-9.78-9.89-14.64-7.59h0Z"/>
            <path class="cls-1" d="M178.53,362.62c-7.09,4.33-10.73,4.75-1.78,10.22,6.6,5.78,8.59,4.32,15.43-.2,7.03-3.12,1.89-5.21-1.9-7.99-3.55-2.86-7.59-5.91-11.75-2.03h0Z"/>
            <path class="cls-1" d="M268.26,248.96c-2.02,1.88-11.29,4.57-9.64,7.57,3.85,2.84,7.93,6.69,12.57,8.12,3.56-.22,6.37-3.09,9.49-4.52,1.94-.95,5.12-2.74,2.06-4.6-4.5-2.19-9.05-9.07-14.47-6.57h0Z"/>
            <path class="cls-1" d="M201.11,367.25c2.03-1.94,11.07-4.6,9.41-7.64-3.73-2.78-7.67-6.52-12.16-8-3.44.19-6.18,3.11-9.2,4.57-1.84.96-4.71,2.75-1.92,4.5,4.3,2.15,8.57,8.87,13.87,6.57Z"/>
            <path class="cls-1" d="M353.77,294.6c-11.81-8.77-11.68-7.21-23.63.23-2.26,1.85,11.08,9.58,13.03,9.75,3.97-.4,7.18-3.47,10.71-5.07,3.42-1.34,2.88-3.41-.12-4.91h.01Z"/>
            <path class="cls-1" d="M376.14,277.94c6.52-2.76,7.05-5.21-.19-7.49-4.81.49-9.28,4.1-13.27,6.46-1.27,1.78,1.96,3.24,3.29,3.97,3.46,1.78,6.55-1.17,9.45-2.56h0c.23-.12.47-.25.71-.38h0Z"/>
            <path class="cls-1" d="M386.92,276.85c-2.98-2.4-6.34-.69-9.08,1.01-2.39,1.6-5.78,2.48-7.56,4.64-.41,1.79,2.46,2.92,3.67,3.64,3.34,1.62,6.38-1.39,9.26-2.68h0c2.81-1.71,9.5-3.67,3.72-6.61h-.01Z"/>
            <path class="cls-1" d="M397.45,267.29c-4.02,2.9-17.24,5.98-6.63,10.16,5.05.91,10.52-4.15,14.78-6.31.8-2.99-5.56-5.49-8.15-3.85Z"/>
            <path class="cls-1" d="M370.62,285.97c-4.5-3.69-9.19,1.3-13.28,3.11-5.08,2.17-3.95,4.02.39,6.09,4.07,1.61,7.64-2.53,11.18-3.91,2.84-1.31,5.9-3.16,1.71-5.29h0Z"/>
          </g>
          <path class="cls-12" d="M77.87,337.24l.17-1.14,157.17,128.08c1.07.87,2.31,1.57,3.63,2.08,1.32.51,2.72.83,4.11.95,1.4.13,2.79.05,4.1-.22s2.53-.75,3.58-1.43l225.31-145.93c.33-.21.62-.44.88-.68s.5-.5.7-.76c.2-.27.37-.55.51-.83.14-.29.25-.58.33-.89-.9,3.48-.64,2.19-1.54,5.67-.08.3-.19.6-.33.89-.14.29-.31.57-.51.83-.2.27-.43.52-.7.76-.26.24-.56.47-.88.68l-224.75,146.1c-1.05.68-2.27,1.16-3.57,1.43-1.31.27-2.7.34-4.09.22s-2.79-.44-4.1-.95-2.54-1.2-3.61-2.07l-150.21-117.28c-5.67-4.43-6.76-11.57-6.2-15.51h0Z"/>
          <path class="cls-7" d="M468.74,324.29s-23.84,15.36-47.69,30.73c-23.77,15.48-47.54,30.95-47.54,30.95,0,0,23.84-15.36,47.68-30.73,23.77-15.48,47.54-30.95,47.54-30.95h.01Z"/>
          <path class="cls-6" d="M91.39,114.36l-30.36,72.11,5.97,52.51,60.64-144.04-36.25,19.42ZM259.66,229.36l-68.45,40.23L303.85,2.04c.47.13.92.33,1.33.61.7.49,1.28,1.21,1.72,2.11.43.91.71,2.01.8,3.28l6.38,92.04-54.43,129.27h.01Z"/>
        </g>
        <g>
          <path class="cls-10" d="M353.96,120.61c-1.66-.36-3.24-.46-4.67-.32-1.43.14-2.71.51-3.77,1.08s-1.91,1.34-2.48,2.27-.86,2.03-.82,3.27l4.63,113.25c.05,1.32.46,2.65,1.14,3.92.69,1.28,1.65,2.51,2.82,3.61,1.18,1.11,2.56,2.09,4.08,2.89s3.18,1.41,4.91,1.77l221.79,45.84c1.66.34,3.22.4,4.61.21s2.61-.62,3.61-1.26,1.77-1.48,2.26-2.5c.48-1.01.69-2.19.54-3.5l-12.34-112.5c-.13-1.22-.59-2.46-1.3-3.65-.71-1.19-1.67-2.33-2.8-3.37-1.14-1.03-2.46-1.96-3.9-2.71s-2.99-1.34-4.6-1.68l-213.71-46.63h0Z"/>
          <path class="cls-14" d="M351.61,128.12c.14-.23.35-.41.61-.55.26-.14.57-.23.92-.27.35-.03.73-.01,1.13.07l71.82,15.63,64.66,129.3-131.25-27.21c-.41-.09-.81-.23-1.18-.43-.37-.19-.71-.44-.99-.7-.29-.27-.52-.57-.69-.88s-.27-.63-.28-.95l-4.93-113.22c-.01-.29.06-.56.2-.78h-.02Z"/>
          <path class="cls-16" d="M339.37,132.38c.02-.24.05-.47.09-.69s.1-.44.17-.66c.07-.21.15-.42.24-.62.95-2.07,1.9-4.14,2.86-6.21-.09.2-.17.41-.24.62-.07.21-.12.43-.17.66-.04.22-.07.45-.09.69-.02.24-.02.48-.01.73l4.63,113.25c.05,1.32.46,2.65,1.14,3.92.69,1.28,1.65,2.51,2.82,3.61,1.18,1.11,2.56,2.09,4.08,2.89s3.18,1.41,4.91,1.77l221.79,45.84c1.2.25,2.35.35,3.42.31,1.07-.03,2.06-.2,2.94-.49.89-.29,1.68-.7,2.34-1.21.66-.51,1.2-1.13,1.6-1.83-1.11,1.99-2.23,3.99-3.35,5.98-.4.71-.94,1.32-1.6,1.83-.67.51-1.45.92-2.34,1.21-.89.29-1.88.46-2.94.5-1.07.04-2.21-.06-3.41-.31l-221.44-45.64c-1.73-.36-3.38-.97-4.9-1.76-1.52-.8-2.9-1.78-4.08-2.89-1.17-1.11-2.13-2.33-2.82-3.61-.68-1.28-1.08-2.61-1.14-3.92l-4.52-113.25c0-.25,0-.49.01-.73h0Z"/>
          <g>
            <path class="cls-14" d="M580.86,293.05l-222.98-45.53c-2.57-.5-4.77-2.94-4.89-5.42l-5.61-111.99c-.12-2.48,1.87-4.1,4.44-3.6l216.63,47.26c2.57.52,4.77,2.9,4.89,5.29l11.96,110.6c.12,2.39-1.87,3.92-4.44,3.4h0Z"/>
            <g id="image">
              <g>
                <path class="cls-9" d="M493.84,185.01c0,.14.03.28,0,.41-.24,1.02-.5,2.03-.75,3.04-.29,1.19-.58,2.39-.87,3.58-.27,1.11-.55,2.23-.83,3.34-.31,1.23-.63,2.46-.93,3.69-.26,1.06-.5,2.13-.76,3.2-.3,1.26-.62,2.51-.92,3.77-.28,1.15-.55,2.31-.83,3.47-.29,1.22-.58,2.44-.88,3.66-.27,1.12-.54,2.23-.81,3.35-.3,1.22-.6,2.44-.89,3.66-.27,1.12-.53,2.23-.8,3.35-.31,1.25-.62,2.49-.93,3.73-.27,1.09-.55,2.17-.8,3.27-.21.92-.4,1.87.11,2.74.45.77.69,1.6.89,2.44.24.97.29,1.95.21,2.95-.11,1.4-.6,2.62-1.45,3.7-.51.64-1.15,1.14-1.91,1.51-2.06,1.01-4.1.86-6.16.04-1.68-.67-3.08-1.74-4.2-3.14-1.15-1.43-2.02-3.02-2.42-4.85-.34-1.51-.33-2.96.17-4.42.33-.96.82-1.8,1.5-2.56,1.58-1.75,3.58-2.02,5.76-1.71.4.06.81.07,1.21.07.1,0,.24-.13.29-.23.42-.97.84-1.94,1.23-2.92.53-1.32,1.02-2.66,1.54-3.99.28-.72.6-1.43.89-2.15.44-1.07.87-2.15,1.3-3.23.41-1.04.83-2.08,1.24-3.12.45-1.15.88-2.31,1.32-3.47.06-.16.16-.31.23-.47.3-.72.6-1.45.9-2.18.44-1.09.88-2.18,1.32-3.27.38-.95.75-1.91,1.13-2.86.43-1.08.87-2.15,1.3-3.22.42-1.05.85-2.09,1.27-3.14.55-1.38,1.08-2.76,1.63-4.14.29-.73.61-1.45.9-2.18.24-.59.47-1.18.7-1.77.05,0,.1.02.15.03ZM472.35,235.14c0,.1,0,.22.02.34.38,1.73,1.25,3.1,2.93,3.82,1.84.79,3.67.06,4.07-2.17.15-.85-.07-1.66-.44-2.41-.63-1.28-1.66-2.13-3.05-2.51-.75-.21-1.52-.16-2.19.24-.98.59-1.3,1.57-1.34,2.69Z"/>
                <path class="cls-9" d="M465.43,177.69c2.53.02,5.04.22,7.52.6,1.53.23,3.04.6,4.52,1.03,1.75.5,3.48,1.05,5.18,1.71,1.96.77,3.87,1.67,5.79,2.53.74.33,1.45.72,2.18,1.07.28.14.4.3.24.63-.33.73-.63,1.47-.94,2.21-.24.59-.47,1.18-.72,1.77-.03.07-.21.14-.28.11-1.32-.62-2.61-1.29-3.95-1.86-1.39-.6-2.81-1.17-4.25-1.65-1.82-.6-3.66-1.16-5.51-1.63-1.22-.3-2.5-.43-3.75-.58-.99-.12-2-.17-3-.23-2.09-.12-4.19-.13-6.27.11-1.82.21-3.64.45-5.43.81-1.43.29-2.84.71-4.22,1.17-1.36.45-2.7.98-4.03,1.54-1.01.42-2.01.89-2.95,1.44-1.57.92-3.1,1.92-4.65,2.89-.26.16-.5.36-.75.53-.49.34-.91.26-1.26-.24-.37-.54-.72-1.1-1.1-1.63-.43-.61-.86-1.23-1.32-1.82-.37-.48-.35-.88.15-1.23.98-.68,1.96-1.37,2.97-2.01.86-.54,1.75-1.04,2.64-1.52.98-.52,1.98-1,2.98-1.49,1.46-.71,2.97-1.31,4.55-1.74,1.56-.43,3.1-.92,4.67-1.29,2.09-.48,4.22-.81,6.37-.95,1.53-.1,3.07-.18,4.6-.28Z"/>
                <path class="cls-9" d="M482.28,206.4c-2.18-.95-4.4-1.74-6.69-2.29-.98-.23-2.01-.29-3.02-.38-1.83-.16-3.67-.16-5.5.01-1.66.15-3.31.37-4.9.85-1.25.38-2.51.72-3.71,1.21-1.24.5-2.44,1.13-3.63,1.74-.69.36-1.36.78-2,1.21-.52.35-1.01.76-1.5,1.16-.32.26-.69.25-.92-.09-.65-.95-1.29-1.9-1.95-2.85-.28-.39-.61-.75-.88-1.15-.23-.34-.16-.58.19-.82,1.01-.69,2.03-1.39,3.05-2.07,1.32-.87,2.72-1.59,4.19-2.15,1.26-.48,2.52-1.01,3.82-1.37,1.54-.42,3.11-.75,4.69-.98,1.58-.22,3.18-.32,4.78-.37,2-.06,4,.05,5.99.33,2.25.32,4.36,1.12,6.47,1.92,1.01.38,2,.79,3,1.19.48.19.5.23.3.73-.56,1.36-1.12,2.71-1.69,4.06,0,.02-.03.04-.07.08Z"/>
                <path class="cls-9" d="M495.82,187.61c.77.5,1.45.93,2.12,1.39.86.58,1.73,1.15,2.56,1.78,1.41,1.07,2.81,2.16,4.18,3.28.98.8,1.92,1.64,2.86,2.49.88.8,1.75,1.61,2.6,2.44.89.87,1.75,1.76,2.61,2.65.27.28.52.58.76.88.4.51.26.92-.25,1.41-.56.55-1.04,1.19-1.54,1.8-.47.58-.83.81-1.45.24-.68-.62-1.29-1.31-1.94-1.96-.87-.86-1.74-1.72-2.63-2.57-.81-.77-1.63-1.54-2.47-2.28-.96-.84-1.94-1.65-2.94-2.44-.96-.76-1.95-1.47-2.93-2.19-.73-.53-1.48-1.03-2.23-1.53-.5-.33-.51-.38-.36-.95.25-.92.49-1.84.71-2.76.13-.52.22-1.04.35-1.68Z"/>
                <path class="cls-9" d="M474.07,220.3c-1.04.17-2.17.26-3.26.54-1.05.28-2.1.67-3.06,1.17-.91.48-1.73,1.15-2.55,1.79-.43.33-.79.75-1.16,1.15-.19.21-.28.07-.37-.06-.54-.75-1.09-1.49-1.62-2.25-.45-.64-.88-1.31-1.35-1.94-.24-.32-.28-.6.02-.89.3-.28.59-.58.91-.83.66-.52,1.32-1.05,2.03-1.5.71-.45,1.47-.84,2.24-1.18,2.28-1,4.7-1.34,7.17-1.5,1.22-.08,2.36.29,3.53.5.09.02.21.27.19.38-.06.3-.18.58-.3.86-.32.78-.65,1.55-.96,2.33-.1.24-.15.51-.24.76-.19.53-.49.92-1.24.65Z"/>
                <path class="cls-9" d="M491.35,205.76c.46.28.85.48,1.2.75,1.72,1.32,3.47,2.61,5.12,4.01,1.42,1.21,2.72,2.55,4.06,3.85.58.57,1.12,1.18,1.66,1.79.35.39.32.76-.02,1.15-.71.8-1.42,1.61-2.12,2.42-.35.41-.66.4-1.03.02-1.39-1.42-2.75-2.86-4.2-4.22-1.3-1.21-2.7-2.33-4.07-3.46-.45-.37-.96-.67-1.44-1-.2-.14-.31-.26-.24-.55.31-1.2.59-2.41.87-3.62.08-.33.12-.68.2-1.14Z"/>
                <path class="cls-9" d="M488.51,230.06c-.88-1.06-1.68-2.03-2.48-2.99-.16-.19-.31-.41-.51-.56-.26-.19-.23-.39-.16-.67.36-1.38.71-2.77,1.05-4.15.05-.21.07-.43.12-.78.6.56,1.14,1.01,1.62,1.52.88.93,1.73,1.89,2.58,2.84.25.28.47.59.65.91.14.25.07.49-.14.73-.66.73-1.29,1.49-1.93,2.23-.27.31-.54.61-.8.91Z"/>
                <path class="cls-14" d="M472.35,235.14c.04-1.12.36-2.1,1.34-2.69.67-.4,1.43-.44,2.19-.24,1.38.38,2.41,1.23,3.05,2.51.37.75.59,1.56.44,2.41-.4,2.23-2.23,2.95-4.07,2.17-1.67-.72-2.55-2.09-2.93-3.82-.03-.12-.02-.24-.02-.34Z"/>
              </g>
            </g>
          </g>
          <path class="cls-6" d="M440.35,139.46l-95.96,40.4,1.23,30.2,142.78-60.12-48.06-10.49h0ZM587.41,243.73l-88.68,37.34-78.25-16.17,161.78-68.12,5.15,46.95h0Z"/>
        </g>
      </g>
      <g class="cls-17">
        <g>
          <path class="cls-14" d="M134.1,275.65l-1.02.52c-.34.17-.57.34-.67.51s-.15.33-.13.49c.02.18.1.29.26.33.15.03.35-.01.6-.14s.46-.29.64-.5c.18-.22.31-.46.37-.72l-.05-.5M291.72,195.34l-1.02.52c-.34.18-.57.34-.67.51s-.15.33-.14.5c.02.18.1.29.26.33.15.03.36-.02.61-.15s.46-.29.64-.5c.18-.22.3-.45.37-.72l-.05-.5M108.21,287.11c-.25.13-.46.29-.63.49-.18.2-.31.44-.4.69-.1.26-.13.53-.1.8s.1.49.24.63c.13.15.29.23.49.24.2,0,.42-.04.65-.16.25-.13.45-.29.64-.5.18-.2.31-.44.4-.7.09-.26.12-.52.09-.8s-.1-.49-.23-.64c-.13-.14-.29-.22-.49-.23-.2,0-.42.05-.66.17M128.23,276.91c-.24.12-.45.29-.63.49-.18.2-.31.44-.4.69-.09.26-.12.52-.09.8s.1.49.23.64c.13.15.29.23.49.24.2,0,.42-.04.66-.16s.45-.29.63-.5c.18-.2.32-.44.41-.7.08-.26.12-.52.09-.8s-.11-.48-.23-.64c-.13-.14-.29-.22-.5-.23-.2,0-.42.05-.66.17M138.12,271.87c-.24.12-.44.28-.62.48s-.32.44-.41.69c-.1.26-.13.53-.11.81s.11.48.24.63.3.23.5.24c.2,0,.41-.04.65-.16s.45-.29.63-.49c.18-.2.31-.44.41-.7.09-.26.13-.53.1-.8s-.11-.48-.24-.63c-.14-.14-.3-.22-.5-.23-.2,0-.42.05-.66.17M278.44,200.38c-.23.12-.44.28-.63.49-.18.2-.31.44-.41.69-.09.26-.12.52-.09.8s.1.49.23.64c.14.14.3.23.5.24.2,0,.42-.04.66-.16s.45-.29.63-.49c.18-.2.31-.44.4-.7s.13-.53.1-.8-.11-.48-.24-.63c-.13-.14-.29-.22-.49-.23-.2,0-.42.05-.66.17M285.85,196.6c-.25.13-.45.29-.63.49-.18.2-.31.44-.4.69-.09.26-.13.53-.1.8s.11.48.24.63c.13.15.29.23.49.24.2,0,.42-.04.66-.16s.45-.29.63-.5c.18-.2.32-.44.4-.7.09-.26.13-.53.1-.8s-.11-.48-.24-.63c-.12-.14-.29-.23-.49-.23s-.42.05-.66.17M295.74,191.56c-.24.12-.45.28-.63.49-.18.2-.31.44-.4.69-.1.26-.13.53-.11.81s.11.48.24.63c.13.15.29.23.49.24.2,0,.42-.04.66-.16s.44-.29.62-.49c.18-.2.32-.44.41-.7.1-.26.13-.53.11-.81s-.11-.48-.24-.63c-.13-.14-.3-.22-.5-.23-.2,0-.41.04-.65.17M102.1,288.9l-1.35.69.37,3.86,1.35-.69c.42-.21.77-.48,1.06-.79.29-.32.51-.67.64-1.04.14-.38.19-.76.16-1.14s-.15-.69-.35-.89c-.19-.21-.45-.31-.77-.31s-.68.09-1.11.31M113.93,275.15l-1.67.85.16,1.63,1.67-.85c.38-.19.67-.41.87-.65.2-.23.28-.49.25-.78s-.15-.43-.37-.45-.52.06-.91.25M284.12,188.43l-1.67.85.16,1.63,1.67-.85c.39-.2.68-.42.88-.65.19-.23.27-.49.25-.78s-.15-.43-.36-.46c-.22-.03-.52.06-.91.26M113.49,272.89l-1.46.74.15,1.56,1.46-.74c.36-.18.63-.39.81-.62.18-.22.26-.47.24-.73s-.14-.41-.35-.44-.49.05-.85.23M283.69,186.17l-1.46.75.15,1.56,1.46-.75c.36-.18.63-.39.81-.62.18-.22.25-.47.23-.73s-.14-.41-.34-.44c-.21-.03-.49.05-.85.23M117.83,281.36l-1.15,5.1-.95.49-1.38-2.41-.83,3.54-.95.49-1.97-3.51.94-.48,1.42,2.61.87-3.77.83-.42,1.45,2.6.85-3.77.88-.45M108.54,290.66c-.43.22-.83.32-1.18.3-.36-.02-.65-.14-.88-.38-.23-.24-.36-.56-.4-.99s.02-.85.18-1.28.4-.83.73-1.19c.32-.36.69-.65,1.13-.87s.84-.33,1.2-.31c.36,0,.65.13.88.36.22.23.35.57.39,1s-.02.85-.18,1.29c-.16.43-.4.83-.73,1.19-.33.37-.7.66-1.15.88M119.51,281.09c.12-.22.26-.44.44-.63.27-.29.59-.53.96-.72.34-.18.65-.26.93-.27.28,0,.51.1.69.3.18.2.29.51.34.95l.24,2.47-1,.51-.22-2.34c-.04-.38-.15-.62-.35-.72-.19-.1-.45-.07-.77.09-.23.12-.44.27-.61.46s-.29.41-.37.65c-.08.23-.11.5-.08.79l.21,2.18-.99.51-.41-4.31.95-.48.05.56M128.57,280.46c-.43.22-.83.33-1.19.31s-.65-.15-.88-.38c-.23-.24-.36-.56-.4-.99s.02-.85.18-1.28c.17-.43.41-.83.73-1.19.32-.36.7-.65,1.13-.87s.84-.33,1.2-.31c.35.01.65.13.87.37.23.23.36.56.4.99s-.02.85-.18,1.29c-.16.43-.4.83-.72,1.19-.33.37-.71.66-1.15.88M131.64,275.6l-.46-.53c.21-.29.46-.57.77-.82s.63-.46.97-.63c.62-.31,1.1-.4,1.47-.28s.58.5.64,1.12l.24,2.53-.94.48-.05-.52c-.09.2-.21.39-.36.57-.23.26-.54.49-.91.68-.32.16-.6.25-.85.26-.25.02-.45-.05-.59-.17-.15-.13-.23-.32-.26-.57s0-.49.11-.74.27-.5.52-.75c.25-.24.59-.48,1.01-.7l1.1-.56v-.06c-.03-.3-.15-.48-.34-.56s-.46-.02-.81.16c-.24.12-.47.28-.69.47-.23.2-.41.4-.55.61M277.12,200.79c.11-.22.25-.42.4-.6.27-.3.58-.54.94-.73.42-.21.8-.31,1.13-.29.34,0,.62.14.84.38.22.23.35.57.39,1.01s-.01.88-.17,1.31-.38.81-.69,1.16c-.3.34-.66.62-1.08.84-.34.17-.66.25-.96.24-.16,0-.31-.06-.45-.14l.2,2.09-.99.51-.56-5.87.95-.48.05.57M286.18,200.15c-.43.22-.83.33-1.19.31-.36-.02-.65-.15-.88-.38-.23-.24-.36-.56-.4-.99-.04-.43.02-.85.18-1.28.17-.43.41-.83.73-1.19s.7-.65,1.13-.87.84-.33,1.19-.31c.36,0,.65.13.88.36s.36.56.4.99-.02.85-.18,1.29c-.16.43-.4.83-.73,1.19-.32.36-.7.65-1.14.88M289.25,195.29l-.46-.53c.21-.29.47-.57.78-.82.3-.24.63-.46.97-.63.62-.31,1.1-.4,1.47-.28s.58.5.64,1.12l.24,2.53-.94.48-.05-.52c-.08.2-.21.39-.37.57-.23.26-.54.49-.91.68-.32.16-.59.25-.85.26-.25.02-.45-.05-.59-.17-.15-.13-.23-.32-.26-.57s0-.49.11-.74c.1-.25.26-.5.51-.75.25-.24.59-.48,1.02-.7l1.1-.56v-.06c-.03-.3-.15-.48-.34-.56s-.46-.02-.81.16c-.24.12-.47.28-.7.47-.22.19-.4.39-.55.61M100.17,294.87l-.54-5.64,2.42-1.23c.6-.31,1.15-.46,1.62-.45.48,0,.86.15,1.16.44s.47.72.52,1.29-.02,1.12-.24,1.67c-.21.55-.53,1.06-.97,1.53-.43.47-.95.86-1.55,1.17l-2.42,1.23M272.68,206.09c.45-.23.78-.54,1.01-.93.21-.39.3-.87.24-1.45l-.3-3.15,1.02-.52.3,3.18c.08.82-.08,1.56-.47,2.22s-.96,1.17-1.72,1.56-1.38.48-1.85.26c-.48-.21-.75-.73-.83-1.56l-.3-3.18,1.03-.52.3,3.15c.06.58.22.94.49,1.08s.63.09,1.08-.14M124.36,282.55l-.57-5.98.99-.51.57,5.98-.99.51M139.34,270.95l-.21-2.2.98-.5.57,5.98-.94.48-.05-.57c-.11.22-.25.42-.4.61-.26.3-.58.54-.94.73-.41.21-.79.3-1.13.28-.34-.02-.62-.15-.84-.38s-.35-.57-.39-1.02,0-.88.17-1.3c.16-.43.38-.81.69-1.15.31-.35.67-.63,1.08-.84.35-.18.68-.26.98-.25.16,0,.31.05.44.13M281.98,202.23l-.57-5.98.99-.51.57,5.98-.99.51M296.96,190.64l-.21-2.2.99-.5.57,5.98-.95.48-.05-.56c-.11.22-.24.42-.4.6-.26.3-.58.54-.95.73-.4.2-.78.3-1.12.28s-.63-.14-.84-.38c-.22-.23-.35-.57-.39-1.02s.01-.88.17-1.3c.15-.42.38-.81.69-1.15.31-.35.67-.63,1.07-.84.36-.18.68-.26.98-.25.17,0,.31.05.45.13M98.77,282.75v-3.22l3.26-1.66.08.88-2.39,1.22v1.37l.54-.27c.55-.28,1-.43,1.35-.45.35-.03.62.05.8.24.18.18.29.43.32.77s-.02.67-.15,1.03c-.13.35-.35.7-.66,1.03-.31.33-.71.63-1.21.88-.4.2-.78.34-1.16.41-.39.08-.71.08-.99,0l.36-1.04c.22.07.48.08.77.03.3-.04.6-.14.92-.3.36-.18.65-.41.84-.68.19-.26.28-.52.25-.78-.02-.18-.07-.32-.17-.4-.1-.09-.26-.12-.49-.08-.23.05-.53.17-.91.36l-1.34.68M106.75,279.38l1.81-4.84.85-.43.55,5.63-.98.5-.36-3.73-1.53,4.02-.46.23-2.11-2.11.35,3.68-.98.5-.54-5.64.85-.43,2.56,2.62M111.46,278.97l-.54-5.64,2.61-1.33c.67-.34,1.19-.47,1.56-.37.38.09.58.35.63.79.03.3-.02.6-.13.88-.11.26-.26.51-.47.73.07-.01.14-.02.2-.02.26,0,.47.06.64.21.17.14.27.38.3.71.05.49-.1.96-.44,1.4-.34.46-.87.86-1.59,1.23l-2.76,1.41M117.5,275.9l-.54-5.64,1.03-.53.54,5.64-1.03.53M118.87,270.21l-.08-.88,4.71-2.4.08.88-1.84.94.45,4.75-1.03.53-.45-4.75-1.84.94M268.97,196.03v-3.22l3.25-1.66.08.88-2.39,1.22v1.37l.53-.27c.55-.28,1.01-.44,1.36-.46.34-.02.61.06.79.24.18.18.29.43.32.77s-.02.67-.15,1.03c-.14.35-.35.7-.66,1.03s-.72.63-1.21.88c-.39.2-.78.33-1.16.41s-.71.08-.99,0l.36-1.04c.22.07.47.08.77.03.3-.04.6-.14.92-.3.36-.18.65-.41.84-.68.19-.26.28-.52.25-.78-.02-.18-.08-.31-.17-.4-.1-.09-.26-.12-.49-.08-.23.05-.53.17-.91.36l-1.34.68M276.95,192.67l1.81-4.85.85-.43.55,5.63-.98.5-.36-3.73-1.53,4.02-.46.23-2.12-2.12.35,3.69-.98.5-.54-5.64.85-.43,2.56,2.62M281.66,192.25l-.54-5.64,2.61-1.33c.67-.34,1.19-.47,1.56-.37.38.09.58.35.63.79.03.3-.02.6-.13.88-.11.26-.27.51-.47.73.07,0,.14-.02.2-.02.26,0,.47.06.64.21.17.14.27.38.3.71.05.49-.1.96-.44,1.41-.34.46-.87.86-1.59,1.23l-2.76,1.41M287.7,189.18l-.54-5.64,1.03-.52.54,5.64-1.03.52M289.06,183.5l-.08-.88,4.72-2.4.08.88-1.84.94.45,4.75-1.03.52-.45-4.75-1.85.94M152.15,227.43l-7.45-77.93,94.09-47.94,7.45,77.93-94.09,47.94"/>
          <g>
            <path class="cls-9" d="M216.37,118.66c-.94,5.99-1.9,11.98-2.83,17.97-1.12,7.15-2.2,14.31-3.33,21.45-1.07,6.79-2.18,13.57-3.27,20.36-.47,2.9-1.23,5.66.73,8.55,1.59,2.34.96,5.21-.06,7.76-2.2,5.52-5.55,9.85-11.86,10.88-3.82.62-7.29-2.22-7.31-6.16-.03-6.38,2.74-11.32,8.21-14.63,1.52-.92,2.37-2.02,2.84-3.82,5.31-20.22,10.72-40.4,16.11-60.6.17-.62.37-1.23.56-1.84.07.03.14.05.21.08ZM196.99,199.36c3.02-.05,6.54-4.59,5.76-7.5-.45-1.69-1.54-2.54-3.39-2.23-2.82.47-5.49,3.73-5.35,6.6.09,1.8,1.38,3.16,2.98,3.13Z"/>
            <path class="cls-9" d="M151.21,172.83c-1.47-1-2.77-1.89-4.33-2.95,3.21-4.27,6.21-8.54,9.5-12.56,9.11-11.13,19.56-20.76,31.81-28.41,7.54-4.72,15.83-7.25,24.78-9.2-.61,2.36-1.1,4.43-1.73,6.47-.12.39-.77.77-1.23.86-12.85,2.64-23.77,8.95-33.61,17.42-6.88,5.92-13.06,12.49-18.5,19.75-2.13,2.84-4.34,5.61-6.69,8.63Z"/>
            <path class="cls-9" d="M205.8,146.75c-.44,1.81-.78,3.65-1.36,5.41-.21.64-.91,1.4-1.54,1.57-7.42,1.98-13.33,6.49-19.27,11.08-7.14,5.52-12.28,12.69-17.27,19.96-.22,0-.39.06-.49,0-4.17-2.74-4.13-2.72-1.25-6.92,7.79-11.35,17.79-20.34,29.61-27.24,3.43-2,7.41-3.03,11.14-4.51.14.22.28.44.42.65Z"/>
            <path class="cls-9" d="M241.83,122.22c-.88,1.83-1.7,3.75-2.74,5.55-.27.46-1.34.85-1.87.69-6.14-1.93-12.4-2.75-19.18-2.45.37-2.26.69-4.37,1.1-6.47.05-.28.56-.66.87-.67,7.29-.29,14.49.15,21.36,2.93.13.05.21.19.45.42Z"/>
            <path class="cls-9" d="M183.14,191.7c-1.55-1.04-2.97-1.99-4.49-3,4.68-8.31,10.54-15.24,19.17-19.61-.91,2.87-.23,6.26-3.13,8.4-4.53,3.35-7.85,7.73-10.64,12.56-.28.48-.54.98-.91,1.65Z"/>
            <path class="cls-9" d="M214.02,151.71c.21-1.62.46-3.39.68-5.18.14-1.13.49-2.02,1.87-1.81,4.14.63,8.28,1.24,12.41,1.94,1.41.24,1.7,1.06.97,2.35-.88,1.57-1.25,3.89-2.55,4.61-1.17.65-3.28-.48-4.99-.74-2.78-.43-5.58-.79-8.39-1.18Z"/>
            <path class="cls-9" d="M210.33,167.13q6.71,1.46,3.87,7.24c-.32.64-.67,1.26-1.02,1.92-1.37-.61-2.62-1.17-4.06-1.81.4-2.43.8-4.88,1.21-7.35Z"/>
            <path class="cls-14" d="M196.99,199.36c-1.6.03-2.89-1.33-2.98-3.13-.14-2.86,2.53-6.12,5.35-6.6,1.85-.31,2.94.54,3.39,2.23.78,2.91-2.74,7.45-5.76,7.5Z"/>
          </g>
          <path class="cls-8" d="M102.03,277.87l-3.27,1.66v3.22l1.35-.68c.38-.19.68-.31.91-.36.23-.04.39-.01.49.08s.16.22.17.4c.03.26-.06.53-.25.78-.19.26-.48.49-.84.68-.31.16-.61.26-.92.3-.29.05-.55.04-.77-.03l-.36,1.04c.27.08.6.08.99,0,.38-.07.77-.21,1.16-.41.49-.25.9-.55,1.21-.88.31-.33.53-.68.66-1.03.13-.36.18-.7.15-1.03s-.14-.59-.32-.77-.45-.26-.8-.24c-.35.02-.8.17-1.35.45l-.54.27v-1.37l2.39-1.22-.08-.88"/>
          <path class="cls-8" d="M109.42,274.1l-.85.43-1.81,4.84-2.56-2.62-.85.43.54,5.64.98-.5-.35-3.68,2.11,2.11.46-.23,1.53-4.02.36,3.73.98-.5-.55-5.63"/>
          <path class="cls-8" d="M112.26,276l1.67-.85c.38-.19.69-.28.91-.25s.34.18.37.45-.06.55-.25.78c-.19.24-.49.46-.87.65l-1.67.85-.16-1.63M112.18,275.19l-.15-1.56,1.46-.74c.36-.18.64-.26.85-.23s.32.17.35.44-.05.5-.24.73c-.18.23-.45.44-.81.62l-1.46.74M113.52,272.01l-2.61,1.33.54,5.64,2.76-1.41c.73-.37,1.25-.78,1.59-1.23s.48-.92.44-1.4c-.03-.32-.13-.56-.3-.71-.16-.15-.38-.21-.64-.21-.06,0-.13.01-.2.02.2-.23.36-.47.47-.73.12-.28.16-.57.13-.88-.04-.44-.25-.71-.63-.79-.38-.09-.89.03-1.56.37"/>
          <polyline class="cls-8" points="117.99 269.73 116.96 270.26 117.5 275.9 118.53 275.37 117.99 269.73"/>
          <polyline class="cls-8" points="123.49 266.93 118.78 269.33 118.87 270.21 120.71 269.28 121.16 274.03 122.19 273.51 121.74 268.75 123.58 267.81 123.49 266.93"/>
          <path class="cls-8" d="M101.12,293.45l-.37-3.86,1.35-.69c.42-.21.79-.32,1.11-.31.32,0,.58.11.77.31.2.2.31.5.35.89s-.02.77-.16,1.14c-.13.37-.35.72-.64,1.04-.29.31-.64.57-1.06.79l-1.35.69M102.06,287.99l-2.42,1.23.54,5.64,2.42-1.23c.6-.31,1.12-.7,1.55-1.17.44-.47.76-.98.97-1.53.22-.55.3-1.1.24-1.67s-.22-1-.52-1.29c-.29-.29-.67-.44-1.16-.44s-1.02.15-1.62.45"/>
          <path class="cls-8" d="M108.46,289.8c-.23.12-.45.17-.65.16-.2,0-.36-.09-.49-.24-.14-.14-.21-.36-.24-.63s0-.54.1-.8c.09-.25.23-.49.4-.69.18-.2.39-.36.63-.49.23-.12.45-.18.66-.17.2,0,.36.09.49.23.13.15.2.36.23.64s0,.54-.09.8c-.09.26-.22.49-.4.7-.18.2-.39.37-.64.5M108.12,286.26c-.43.22-.81.51-1.13.87-.33.36-.57.76-.73,1.19s-.22.85-.18,1.28.17.75.4.99c.23.23.52.36.88.38.36.02.75-.08,1.18-.3s.82-.51,1.15-.88.57-.77.73-1.19c.16-.43.22-.86.18-1.29s-.17-.76-.39-1c-.23-.23-.52-.35-.88-.36-.36-.02-.76.09-1.2.31"/>
          <polyline class="cls-8" points="117.83 281.36 116.95 281.81 116.1 285.58 114.66 282.97 113.83 283.4 112.96 287.17 111.54 284.56 110.6 285.04 112.57 288.56 113.52 288.07 114.35 284.53 115.73 286.94 116.68 286.46 117.83 281.36"/>
          <path class="cls-8" d="M120.91,279.74c-.37.19-.69.43-.96.72-.18.2-.33.41-.44.63l-.05-.56-.95.48.41,4.31.99-.51-.21-2.18c-.03-.29,0-.56.08-.79.08-.24.21-.46.37-.65.17-.19.38-.34.61-.46.32-.16.57-.19.77-.09.2.09.31.34.35.72l.22,2.34,1-.51-.24-2.47c-.04-.44-.15-.75-.34-.95-.18-.2-.41-.3-.69-.3s-.59.09-.93.27"/>
          <polyline class="cls-8" points="124.78 276.06 123.79 276.56 124.36 282.55 125.35 282.04 124.78 276.06"/>
          <path class="cls-8" d="M128.48,279.6c-.24.12-.46.17-.66.16-.2,0-.36-.09-.49-.24s-.2-.36-.23-.64,0-.54.09-.8c.09-.25.23-.49.4-.69.18-.2.39-.37.63-.49.24-.12.46-.18.66-.17.2,0,.37.09.5.23.12.15.2.36.23.64s0,.54-.09.8c-.09.26-.22.49-.41.7-.18.2-.39.37-.63.5M128.14,276.05c-.43.22-.81.51-1.13.87s-.56.76-.73,1.19c-.16.43-.22.85-.18,1.28s.17.75.4.99c.23.23.52.36.88.38.36.02.75-.09,1.19-.31s.82-.51,1.15-.88c.32-.36.57-.77.72-1.19.16-.44.22-.86.18-1.29s-.17-.76-.4-.99c-.22-.23-.52-.35-.87-.37-.36-.02-.76.09-1.2.31"/>
          <path class="cls-8" d="M133.14,277.36c-.25.13-.45.17-.6.14-.15-.04-.24-.15-.26-.33-.02-.16.02-.32.13-.49s.33-.34.67-.51l1.02-.52.05.5c-.06.26-.19.5-.37.72-.18.21-.39.37-.64.5M132.92,273.62c-.34.17-.66.38-.97.63s-.56.52-.77.82l.46.53c.14-.22.33-.42.55-.61.22-.19.45-.35.69-.47.36-.18.62-.23.81-.16.19.08.3.26.33.56v.06l-1.09.56c-.43.22-.77.45-1.01.7-.25.24-.42.5-.52.75-.09.25-.13.49-.11.74s.11.44.26.57.34.19.59.17c.25-.01.53-.1.85-.26.38-.19.68-.42.91-.68.15-.18.28-.37.36-.57l.05.52.94-.48-.24-2.53c-.06-.62-.27-1-.64-1.12-.37-.13-.85-.04-1.47.28"/>
          <path class="cls-8" d="M138.38,274.56c-.24.12-.45.17-.65.16-.2,0-.37-.09-.5-.24-.14-.14-.22-.35-.24-.63s0-.54.11-.81c.09-.25.23-.49.41-.69.18-.2.38-.36.62-.48s.46-.18.66-.17c.2,0,.36.09.5.23.13.15.21.36.24.63s0,.54-.1.8c-.1.26-.23.5-.41.7-.18.2-.39.37-.63.49M140.12,268.25l-.98.5.21,2.2c-.13-.08-.28-.12-.44-.13-.29-.02-.63.07-.98.25-.41.21-.77.49-1.08.84-.31.34-.54.73-.69,1.15-.16.42-.21.85-.17,1.3s.17.79.39,1.02c.22.23.5.36.84.38.34.02.72-.08,1.13-.28.36-.18.68-.43.94-.73.16-.19.29-.39.4-.61l.05.57.94-.48-.57-5.98"/>
          <path class="cls-8" d="M272.22,191.15l-3.26,1.66v3.22l1.35-.68c.38-.19.68-.31.91-.36.23-.04.39,0,.49.08.1.09.16.22.17.4.03.26-.06.53-.25.78-.19.26-.48.49-.84.68-.31.16-.62.26-.92.3-.3.05-.55.04-.77-.03l-.36,1.04c.27.08.61.07.99,0,.39-.07.78-.21,1.16-.41.5-.25.91-.55,1.21-.88.31-.33.53-.68.66-1.03.13-.36.18-.7.15-1.03s-.14-.59-.32-.77c-.18-.18-.45-.26-.79-.24-.35.02-.81.18-1.36.46l-.53.27v-1.37l2.38-1.22-.08-.88"/>
          <path class="cls-8" d="M279.61,187.39l-.85.43-1.81,4.85-2.56-2.62-.85.43.54,5.64.98-.5-.35-3.69,2.12,2.12.46-.23,1.53-4.02.36,3.73.98-.5-.55-5.63"/>
          <path class="cls-8" d="M282.45,189.28l1.67-.85c.39-.2.69-.28.91-.26.21.03.34.18.36.46s-.06.55-.25.78c-.19.24-.49.46-.88.65l-1.67.85-.16-1.63M282.37,188.47l-.15-1.56,1.46-.75c.36-.18.64-.26.85-.23.2.04.32.18.34.44s-.05.5-.23.73c-.18.23-.45.44-.81.62l-1.46.75M283.72,185.29l-2.61,1.33.54,5.64,2.76-1.41c.72-.37,1.25-.78,1.59-1.23s.49-.92.44-1.41c-.03-.32-.13-.56-.3-.71-.16-.15-.38-.21-.64-.21-.06,0-.13,0-.2.02.2-.22.36-.47.47-.73.12-.28.16-.57.13-.88-.04-.44-.25-.71-.63-.79-.38-.09-.89.03-1.56.37"/>
          <polyline class="cls-8" points="288.19 183.01 287.16 183.54 287.7 189.18 288.73 188.65 288.19 183.01"/>
          <polyline class="cls-8" points="293.69 180.21 288.97 182.61 289.06 183.5 290.9 182.56 291.36 187.31 292.39 186.79 291.93 182.03 293.77 181.09 293.69 180.21"/>
          <path class="cls-8" d="M274.65,200.05l-1.02.52.3,3.15c.06.58-.03,1.06-.24,1.45-.22.39-.55.7-1.01.93s-.81.27-1.08.14-.44-.5-.49-1.08l-.3-3.15-1.03.52.3,3.18c.08.82.35,1.34.83,1.56.47.22,1.09.13,1.85-.26s1.33-.9,1.72-1.56.55-1.39.47-2.22l-.3-3.18"/>
          <path class="cls-8" d="M278.69,203.07c-.23.12-.45.17-.66.16-.2,0-.36-.09-.5-.24-.13-.15-.2-.36-.23-.64s0-.54.09-.8c.1-.26.23-.49.41-.69s.39-.37.63-.49.46-.18.66-.17c.2,0,.36.09.49.23.13.15.21.36.24.63s0,.54-.1.8c-.09.26-.22.49-.4.7-.18.2-.39.37-.63.49M278.46,199.46c-.36.18-.67.42-.94.73-.16.18-.29.38-.4.6l-.05-.57-.95.48.56,5.87.99-.51-.2-2.09c.14.08.28.12.45.14.3,0,.62-.07.96-.24.42-.21.78-.5,1.08-.84.31-.35.53-.74.69-1.16.16-.43.21-.86.17-1.31s-.17-.78-.39-1.01-.5-.36-.84-.38-.71.07-1.13.29"/>
          <polyline class="cls-8" points="282.4 195.75 281.41 196.25 281.98 202.23 282.97 201.73 282.4 195.75"/>
          <path class="cls-8" d="M286.1,199.29c-.24.12-.46.17-.66.16-.2,0-.36-.09-.49-.24-.13-.15-.21-.36-.24-.63s0-.54.1-.8c.09-.25.23-.49.4-.69.18-.2.39-.36.63-.49s.46-.18.66-.17c.2,0,.37.09.49.23.13.15.21.36.24.63s0,.54-.1.8c-.08.26-.22.49-.4.7-.18.2-.39.37-.63.5M285.76,195.74c-.43.22-.81.51-1.13.87s-.56.76-.73,1.19c-.16.43-.22.85-.18,1.28s.17.75.4.99c.23.23.52.36.88.38.36.02.75-.09,1.19-.31s.82-.51,1.14-.88c.32-.37.57-.77.73-1.19.16-.44.22-.86.18-1.29s-.17-.76-.4-.99-.52-.35-.88-.36c-.36-.02-.75.09-1.19.31"/>
          <path class="cls-8" d="M290.75,197.05c-.25.13-.46.18-.61.15-.15-.04-.24-.15-.26-.33-.02-.16.03-.33.14-.5s.33-.34.67-.51l1.02-.52.05.5c-.07.26-.19.5-.37.72-.18.21-.39.37-.64.5M290.54,193.31c-.34.17-.66.39-.97.63-.31.25-.57.52-.78.82l.46.53c.15-.22.33-.42.55-.61.23-.19.46-.35.7-.47.35-.18.62-.23.81-.16s.3.26.33.56v.06l-1.09.56c-.43.22-.77.46-1.02.7-.25.24-.42.5-.51.75-.1.25-.13.49-.11.74s.11.43.26.57c.15.13.34.19.59.17.25,0,.53-.1.85-.26.38-.19.68-.42.91-.68.16-.19.28-.38.37-.57l.05.52.94-.48-.24-2.53c-.06-.62-.27-1-.64-1.12-.37-.13-.85-.04-1.47.28"/>
          <path class="cls-8" d="M296,194.25c-.24.12-.46.17-.66.16-.2,0-.36-.09-.49-.24-.14-.14-.22-.35-.24-.63s0-.54.11-.81c.09-.25.23-.49.4-.69.18-.2.39-.36.63-.49s.45-.17.65-.17.37.09.5.23c.14.14.22.35.24.63s0,.54-.11.81c-.09.26-.23.5-.41.7s-.38.37-.62.49M297.73,187.94l-.99.5.21,2.2c-.13-.08-.28-.12-.45-.13-.29-.02-.62.07-.98.25-.4.2-.76.49-1.07.84-.31.34-.54.73-.69,1.15-.16.42-.21.85-.17,1.3s.17.79.39,1.02c.21.24.5.36.84.38s.72-.08,1.12-.28c.37-.19.69-.43.95-.73.16-.18.29-.38.4-.6l.05.56.95-.48-.57-5.98"/>
        </g>
      </g>
      <g>
        <path class="cls-16" d="M.3,394.99l40.94-144.29c.06-.2.12-.4.2-.59.07-.19.15-.37.24-.55.09-.18.19-.35.29-.52.1-.17.22-.33.33-.48,1.53-2.01,3.07-4.02,4.61-6.04-.12.15-.23.31-.33.48-.1.17-.2.34-.29.52-.09.18-.17.36-.24.55-.07.19-.14.39-.19.59L4.98,389.1c-.35,1.24-.39,2.56-.16,3.88s.73,2.65,1.46,3.91,1.68,2.45,2.81,3.48c1.13,1.04,2.45,1.93,3.9,2.6l76.09,35.01c1.12.51,2.23.86,3.32,1.03,1.08.18,2.14.2,3.12.06.98-.13,1.9-.42,2.72-.84.82-.42,1.54-.98,2.13-1.67-1.63,1.91-3.26,3.81-4.9,5.72-.59.69-1.31,1.25-2.13,1.67s-1.74.71-2.72.84-2.03.12-3.11-.06-2.2-.52-3.31-1.03l-75.92-34.89c-1.45-.66-2.76-1.55-3.89-2.59s-2.08-2.22-2.8-3.48c-.72-1.25-1.22-2.58-1.45-3.9-.23-1.32-.19-2.64.16-3.87v.02h0Z"/>
        <path class="cls-13" d="M58.31,241.1c-1.39-.66-2.78-1.05-4.11-1.2s-2.59-.05-3.72.27-2.12.87-2.92,1.63c-.8.75-1.39,1.72-1.72,2.87L4.96,389.11c-.35,1.24-.39,2.56-.16,3.88s.73,2.65,1.46,3.91,1.68,2.45,2.81,3.48c1.13,1.04,2.45,1.93,3.9,2.6l76.09,35.01c1.43.66,2.87,1.04,4.24,1.15,1.37.11,2.66-.04,3.82-.42,1.16-.39,2.17-1.01,2.98-1.85.8-.84,1.4-1.89,1.72-3.13l37.17-145.09c.3-1.15.3-2.39.05-3.63s-.75-2.49-1.46-3.68-1.63-2.31-2.71-3.3c-1.09-.99-2.34-1.84-3.71-2.49l-72.84-34.44h0Z"/>
        <g>
          <path class="cls-14" d="M135.86,287.17l-15.86,62.81-14.93,56.95-6.51,25.31c-.22.86-.63,1.58-1.18,2.15-.55.58-1.25,1-2.04,1.27-.79.26-1.68.37-2.62.29-.94-.08-1.92-.34-2.91-.79l-22.83-10.51-30.21-13.91-22.99-10.58c-1-.46-1.9-1.07-2.68-1.78-.78-.71-1.43-1.53-1.93-2.39-.5-.86-.84-1.77-1-2.68-.16-.91-.13-1.82.11-2.67h-.02s7.11-25.22,7.11-25.22l8.75-31.01,8.59-30.45,2.43-8.6,13.87-49.2c.23-.79.63-1.45,1.18-1.97.54-.52,1.23-.9,2.01-1.12.78-.22,1.64-.29,2.56-.19.91.1,1.87.37,2.83.82l72.89,34.45c.95.45,1.81,1.04,2.55,1.72.75.68,1.38,1.45,1.87,2.27.49.82.83,1.68,1,2.53.17.85.17,1.7-.04,2.5Z"/>
          <path class="cls-4" d="M121.75,282.54l8.33,3.93s.06.04.09.06.05.05.06.08c.02.03.03.06.03.09v.09s-.02.05-.04.07c-.02.02-.04.03-.07.04-.02,0-.06.01-.09,0-.03,0-.06-.01-.1-.03l-8.33-3.93s-.06-.03-.09-.06c-.02-.02-.05-.05-.06-.08-.02-.03-.03-.06-.03-.09v-.09s.02-.05.04-.07c.02-.02.04-.03.07-.04.03,0,.06-.01.09,0,.03,0,.06.01.1.03h0Z"/>
          <path class="cls-4" d="M121.25,284.47l8.34,3.93s.06.04.09.06.05.05.06.08c.02.03.03.06.03.09v.09s-.02.05-.04.07c-.02.02-.04.03-.07.04-.03,0-.06.01-.09,0-.03,0-.06-.01-.1-.03l-8.33-3.93s-.06-.03-.09-.06c-.02-.02-.05-.05-.06-.08-.02-.03-.03-.06-.04-.09v-.09s.02-.05.04-.07c.02-.02.04-.03.07-.04.03,0,.06-.01.09,0,.03,0,.06.01.1.03h0Z"/>
          <path class="cls-4" d="M120.74,286.4l8.34,3.93s.06.04.09.06c.02.02.05.05.06.08.02.03.03.06.03.09v.09s-.02.05-.04.07c-.02.02-.04.03-.07.04-.03,0-.06.01-.09,0-.03,0-.06-.01-.1-.03l-8.34-3.93s-.06-.04-.09-.06-.05-.05-.06-.08c-.02-.03-.03-.06-.04-.09v-.09s.02-.05.04-.07c.02-.02.04-.03.07-.04.03,0,.06-.01.09,0,.03,0,.06.01.1.03h.01Z"/>
          <path class="cls-4" d="M55.46,252.13c.21.1.39.22.55.37.16.14.3.31.4.48s.18.35.21.54c.03.18.03.36-.02.53s-.13.31-.25.42c-.11.11-.26.19-.42.24s-.35.06-.54.04-.4-.08-.6-.18c-.08-.04-.16-.08-.23-.13s-.14-.1-.21-.15c-.07-.05-.13-.11-.19-.17-.06-.06-.11-.12-.16-.19l.16-.05s.06-.02.07-.04c.02-.02.03-.04.04-.07v-.08s-.02-.06-.04-.09c0-.02-.02-.03-.03-.04,0,0-.02-.03-.04-.04,0,0-.02-.02-.04-.03,0,0-.03-.02-.04-.03,0,0-.03,0-.05-.02h-.15l-.16.05c-.03-.07-.05-.14-.07-.21s-.03-.14-.04-.21v-.21c0-.07.02-.14.04-.2l.24.11.24.11c-.03.11-.03.24,0,.36s.07.24.14.36.16.23.27.32c.11.1.23.18.37.24.14.06.27.1.4.12.13,0,.26,0,.37-.03s.21-.08.29-.16.14-.17.17-.28.03-.24,0-.36c-.02-.12-.07-.24-.14-.36s-.16-.23-.27-.33-.23-.18-.37-.25c-.13-.06-.27-.1-.4-.12-.13-.02-.25,0-.36.03s-.21.08-.29.16c-.08.07-.14.17-.17.28l-.24-.11-.24-.11c.05-.17.13-.31.25-.42.11-.11.26-.19.42-.24s.35-.06.54-.04.4.08.6.17h0v.02Z"/>
          <path class="cls-3" d="M54.07,253.47s.03,0,.04.03c.02,0,.03.02.04.03s.03.02.04.04c0,0,.02.03.03.04.02.03.03.06.04.09v.08s-.02.05-.04.07-.05.03-.07.04l-.16.05-.94.27h-.15s-.03,0-.05-.02c-.02,0-.03-.02-.05-.03,0,0-.03-.02-.04-.03s-.03-.03-.04-.04c0-.02-.02-.03-.03-.05-.02-.03-.03-.06-.04-.09v-.08s.02-.05.04-.07.05-.03.07-.04l.95-.27.16-.05h.15s.03,0,.05.02"/>
        </g>
        <path class="cls-6" d="M119.15,366.07l-113.88,21.98-.3,1.07c-.35,1.24-.39,2.56-.16,3.88s.73,2.65,1.46,3.91,1.68,2.45,2.81,3.48c1.13,1.04,2.45,1.93,3.9,2.6l14.9,6.85,84.23-16.25,7.05-27.52h-.01ZM98.88,260.29l32.28,15.26c1.37.65,2.62,1.51,3.71,2.49,1.08.99,2,2.11,2.71,3.3.29.48.53.97.74,1.46l-109.22,21.08,9.02-31.87,60.76-11.72h0Z"/>
      </g>
      <g id="image-2">
        <g>
          <path class="cls-9" d="M90.78,314.91c0,.1.02.21,0,.31-.18.76-.38,1.52-.56,2.28-.22.9-.43,1.79-.65,2.69-.21.84-.42,1.67-.63,2.5-.23.92-.47,1.84-.7,2.77-.2.8-.38,1.6-.57,2.4-.23.94-.46,1.89-.69,2.83-.21.87-.42,1.73-.62,2.6-.22.92-.44,1.83-.66,2.74-.2.84-.41,1.67-.61,2.51-.22.92-.45,1.83-.67,2.74-.2.84-.4,1.68-.6,2.51-.23.93-.47,1.87-.7,2.8-.2.82-.42,1.63-.6,2.45-.16.69-.3,1.4.08,2.06.34.58.51,1.2.67,1.83.18.73.22,1.46.16,2.21-.08,1.05-.45,1.97-1.09,2.77-.38.48-.86.86-1.43,1.13-1.54.75-3.08.65-4.62.03-1.26-.5-2.31-1.31-3.15-2.35-.86-1.07-1.51-2.26-1.82-3.64-.25-1.13-.25-2.22.13-3.32.25-.72.61-1.35,1.12-1.92,1.18-1.31,2.68-1.52,4.32-1.28.3.04.6.06.91.06.07,0,.18-.09.22-.17.32-.73.63-1.45.93-2.19.4-.99.77-1.99,1.16-2.99.21-.54.45-1.07.67-1.61.33-.81.65-1.61.97-2.42.31-.78.62-1.56.93-2.34.34-.86.66-1.73.99-2.6.05-.12.12-.23.17-.35.23-.54.45-1.09.67-1.63.33-.82.66-1.63.99-2.45.28-.71.56-1.43.84-2.15.32-.81.65-1.61.98-2.42.32-.79.64-1.57.95-2.36.41-1.03.81-2.07,1.22-3.1.22-.55.46-1.09.68-1.63.18-.44.35-.89.52-1.33.04,0,.07.01.11.02ZM74.66,352.51c0,.07,0,.17.02.25.29,1.3.94,2.32,2.2,2.86,1.38.59,2.75.05,3.05-1.62.11-.64-.05-1.25-.33-1.81-.47-.96-1.25-1.6-2.28-1.88-.56-.15-1.14-.12-1.64.18-.74.44-.98,1.18-1.01,2.02Z"/>
          <path class="cls-9" d="M69.47,309.42c1.89.02,3.78.16,5.64.45,1.14.18,2.28.45,3.39.77,1.31.37,2.61.79,3.88,1.28,1.47.57,2.9,1.25,4.34,1.89.55.25,1.09.54,1.64.8.21.1.3.22.18.47-.25.55-.47,1.1-.7,1.66-.18.44-.35.89-.54,1.33-.02.05-.16.1-.21.08-.99-.46-1.96-.97-2.96-1.4-1.05-.45-2.11-.88-3.19-1.24-1.36-.45-2.74-.87-4.14-1.22-.92-.23-1.87-.32-2.82-.44-.74-.09-1.5-.13-2.25-.17-1.57-.09-3.14-.1-4.7.08-1.36.16-2.73.34-4.07.61-1.07.21-2.13.54-3.17.88-1.02.34-2.03.74-3.02,1.16-.76.32-1.51.67-2.21,1.08-1.18.69-2.33,1.44-3.48,2.17-.19.12-.37.27-.56.4-.37.25-.68.2-.94-.18-.28-.4-.54-.82-.82-1.22-.32-.46-.65-.92-.99-1.36-.28-.36-.27-.66.12-.92.74-.51,1.47-1.03,2.23-1.51.64-.41,1.31-.78,1.98-1.14.73-.39,1.49-.75,2.23-1.11,1.1-.54,2.23-.98,3.41-1.31,1.17-.32,2.32-.69,3.5-.97,1.57-.36,3.16-.61,4.78-.71,1.15-.07,2.3-.14,3.45-.21Z"/>
          <path class="cls-9" d="M82.1,330.95c-1.64-.72-3.3-1.31-5.02-1.71-.74-.17-1.51-.22-2.26-.28-1.37-.12-2.75-.12-4.12,0-1.24.11-2.48.28-3.68.64-.93.28-1.88.54-2.79.9-.93.37-1.83.84-2.72,1.31-.52.27-1.02.58-1.5.91-.39.26-.76.57-1.13.87-.24.2-.51.19-.69-.07-.49-.71-.97-1.43-1.46-2.14-.21-.3-.46-.56-.66-.86-.17-.25-.12-.44.14-.61.76-.52,1.52-1.04,2.29-1.55.99-.65,2.04-1.19,3.14-1.61.95-.36,1.89-.76,2.86-1.03,1.15-.31,2.33-.57,3.52-.73,1.18-.17,2.39-.24,3.58-.27,1.5-.05,3,.03,4.49.25,1.69.24,3.27.84,4.85,1.44.75.29,1.5.6,2.25.89.36.14.38.17.22.55-.42,1.02-.84,2.03-1.26,3.05,0,.02-.03.03-.05.06Z"/>
          <path class="cls-9" d="M92.26,316.86c.57.38,1.09.7,1.59,1.04.64.44,1.3.86,1.92,1.33,1.06.8,2.11,1.62,3.14,2.46.74.6,1.44,1.23,2.15,1.87.66.6,1.31,1.21,1.95,1.83.67.65,1.31,1.32,1.96,1.99.2.21.39.43.57.66.3.38.19.69-.19,1.06-.42.41-.78.89-1.16,1.35-.35.43-.62.61-1.09.18-.51-.47-.97-.99-1.46-1.47-.65-.65-1.31-1.29-1.97-1.93-.61-.58-1.22-1.16-1.85-1.71-.72-.63-1.46-1.24-2.21-1.83-.72-.57-1.46-1.11-2.2-1.64-.55-.4-1.11-.77-1.67-1.15-.37-.25-.38-.28-.27-.71.18-.69.37-1.38.53-2.07.09-.39.16-.78.26-1.26Z"/>
          <path class="cls-9" d="M75.97,341.38c-.78.12-1.61.18-2.4.39-.8.21-1.6.49-2.33.88-.76.41-1.51.9-2.1,1.57-.22.24-.47.46-.72.67-.04.03-.21,0-.25-.06-.41-.55-.82-1.12-1.22-1.68-.34-.48-.66-.98-1.01-1.46-.18-.24-.21-.45.02-.66.23-.21.44-.43.68-.62.5-.39.99-.79,1.52-1.12.53-.34,1.1-.63,1.68-.89,1.71-.75,3.53-1.01,5.38-1.13.91-.06,1.77.22,2.65.38.07.01.16.2.14.29-.05.22-.14.44-.22.65-.24.58-.49,1.16-.72,1.75-.06.16-.08.33-.14.48-.16.41-.33.8-.94.57Z"/>
          <path class="cls-9" d="M88.91,330.47c.34.21.64.36.9.56,1.29.99,2.6,1.96,3.84,3.01,1.06.91,2.04,1.91,3.04,2.89.44.43.84.88,1.25,1.34.26.29.24.57-.02.86-.53.6-1.06,1.21-1.59,1.81-.26.3-.49.3-.77.01-1.04-1.06-2.06-2.15-3.15-3.16-.98-.91-2.02-1.74-3.06-2.59-.34-.28-.72-.5-1.08-.75-.15-.1-.24-.19-.18-.41.23-.9.44-1.81.66-2.71.06-.25.09-.51.15-.85Z"/>
          <path class="cls-9" d="M86.78,348.7c-.66-.8-1.26-1.52-1.86-2.24-.12-.15-.23-.31-.38-.42-.19-.15-.18-.3-.12-.5.27-1.04.53-2.07.79-3.11.04-.16.05-.32.09-.58.45.42.85.76,1.21,1.14.66.7,1.3,1.41,1.94,2.13.18.21.35.44.48.68.1.19.05.37-.11.54-.49.55-.97,1.11-1.45,1.67-.2.23-.4.46-.6.68Z"/>
          <path class="cls-14" d="M74.66,352.51c.03-.84.27-1.57,1.01-2.02.5-.3,1.08-.33,1.64-.18,1.04.28,1.81.92,2.28,1.88.28.56.44,1.17.33,1.81-.3,1.67-1.67,2.21-3.05,1.62-1.26-.54-1.91-1.57-2.2-2.86-.02-.09-.01-.18-.02-.25Z"/>
        </g>
      </g>
    </g>
  </g>
</svg>