<?xml version="1.0" encoding="UTF-8"?>
<svg id="Layer_1" data-name="Layer 1" xmlns="http://www.w3.org/2000/svg" viewBox="0 0 222.98 110.85">
  <defs>
    <style>
      .cls-1 {
        fill: #fff;
        stroke-width: 0px;
      }
    </style>
  </defs>
  <path class="cls-1" d="M69.95,35.61v-.03c-7.44,4.72-11.51,3.1-11.51,3.1,6.2-2.16,9.17-7.72,10.51-11.47C65.2,11.6,51.23,0,34.55,0S5.09,10.63.68,25.24c3.1-2.07,10.82-5.99,21.94-3.74,0,0-15.79,4.91-22.62,21.86,3.51,15.94,17.65,27.85,34.55,27.85,19.55,0,35.4-15.94,35.4-35.61ZM44.03,53.04c1.91-21.36.41-37.7.41-37.7-.27-4.02,3.42-3.18,3.42-3.18l4.16.91c3.08,1.18,3.33,5.04,3.33,5.04,1.59,15.25.68,29.74,0,33.67-.66,3.94-3.83,4.51-3.83,4.51,0,0-1.42.28-4.49.69-3.09.42-3-3.94-3-3.94ZM23.36,53.89c-.08,3.26-2.33,3.12-2.33,3.12,0,0-.66-.11-4.75-.72-4.08-.6-3.91-4.26-3.91-4.26-.33-6.28-.42-14.66-.5-18.93-.08-4.27,3.42-4.61,3.42-4.61l5.2-.36c2.97.28,2.88,3.05,2.88,3.05-.41,7.87.08,19.44,0,22.71ZM28.2,53.55l.41-29.75c.04-3.1,1.67-3.26,2.16-3.69.5-.41,2.09-.84,5.5-.58,3.42.25,3.34,3.51,3.34,3.51.33,9.39.16,27.32-.5,30.93-.66,3.61-3.42,3.94-3.42,3.94h-4.24c-3.25,0-3.25-4.36-3.25-4.36Z"/>
  <polygon class="cls-1" points="96.95 39.58 114.81 39.58 114.81 60.75 127.93 60.75 127.93 10.53 114.81 10.53 114.81 28.36 96.95 28.36 96.95 10.53 83.83 10.53 83.83 60.75 96.95 60.75 96.95 39.58"/>
  <polygon class="cls-1" points="145.43 60.75 158.47 60.75 158.47 20.73 173.08 20.73 173.08 10.53 130.82 10.53 130.82 20.73 145.43 20.73 145.43 60.75"/>
  <polygon class="cls-1" points="207.41 60.75 222.98 60.75 201.87 31.64 222.5 10.53 206.82 10.53 188.69 29.69 188.69 10.53 175.85 10.53 175.85 60.75 188.69 60.75 188.69 44.97 193.08 40.64 207.41 60.75"/>
  <polygon class="cls-1" points="8.06 86.27 2.06 86.27 2.06 81.79 .29 81.79 .29 92.36 2.06 92.36 2.06 87.65 8.06 87.65 8.06 92.36 9.82 92.36 9.82 81.79 8.06 81.79 8.06 86.27"/>
  <path class="cls-1" d="M14.9,81.79l-4,10.57h1.86l.8-2.12h5.37l.81,2.12h1.82l-4.07-10.57h-2.57ZM14,88.98l2.21-5.93,2.25,5.93h-4.47Z"/>
  <path class="cls-1" d="M30.97,87.26c-.24-.16-.62-.28-1.13-.38v-.03c.44-.11.76-.27.99-.46.4-.34.6-.94.6-1.8s-.12-1.42-.38-1.83c-.33-.52-.9-.82-1.71-.91-.27-.04-.72-.05-1.33-.05h-5.38v10.57h5.81c1.01,0,1.74-.13,2.21-.4.73-.41,1.1-1.26,1.1-2.56,0-1.07-.27-1.79-.78-2.13ZM24.39,83.15h3.43c.36,0,.62.01.81.03.44.05.74.24.89.53.11.2.16.52.16.95,0,.34-.03.61-.08.8-.12.4-.4.65-.87.77-.25.07-.69.11-1.31.11h-3.02v-3.18ZM29.84,90.35c-.17.38-.64.58-1.38.62-.32.01-.81.03-1.5.03h-2.57v-3.41h3.05c.7,0,1.15.01,1.33.04.56.05.91.28,1.07.64.09.25.15.61.15,1.11,0,.42-.05.74-.15.97Z"/>
  <polygon class="cls-1" points="34.85 87.55 40.44 87.55 40.44 86.3 34.85 86.3 34.85 83.15 40.71 83.15 40.71 81.79 33.09 81.79 33.09 92.36 40.73 92.36 40.73 90.99 34.85 90.99 34.85 87.55"/>
  <path class="cls-1" d="M50.21,87.59c.54-.2.91-.56,1.09-1.07.12-.36.19-.91.19-1.64,0-.58-.05-1.05-.16-1.39-.34-1.13-1.47-1.7-3.39-1.7h-5.55v10.57h1.76v-3.87h3.49c.68,0,1.17.12,1.47.36.32.24.48.69.48,1.37v2.15h1.76v-2.49c0-1.27-.62-1.96-1.88-2.04v-.05c.32-.04.57-.11.76-.17ZM47.54,87.09h-3.41v-3.91h3.7c.98,0,1.56.25,1.74.74.08.23.13.66.13,1.33,0,.34-.03.6-.05.76-.16.73-.86,1.09-2.11,1.09Z"/>
  <polygon class="cls-1" points="60.68 90.9 55.06 90.9 55.06 81.79 53.3 81.79 53.3 92.36 60.68 92.36 60.68 90.9"/>
  <polygon class="cls-1" points="69.09 83.15 69.09 81.79 61.47 81.79 61.47 92.36 69.12 92.36 69.12 90.99 63.24 90.99 63.24 87.55 68.82 87.55 68.82 86.3 63.24 86.3 63.24 83.15 69.09 83.15"/>
  <path class="cls-1" d="M79.21,89.25c0-.78-.09-1.35-.29-1.71-.3-.56-.86-.9-1.68-1.06-.36-.07-1.07-.13-2.12-.17-.9-.04-1.47-.08-1.71-.11-.54-.05-.91-.21-1.11-.46-.16-.23-.25-.58-.25-1.1,0-.69.19-1.13.54-1.34.33-.19,1.11-.28,2.35-.28.56,0,.97.01,1.21.05.48.08.8.28.94.6.11.21.16.58.16,1.09h1.72v-.24c0-.62-.08-1.11-.24-1.48-.27-.61-.81-1.01-1.63-1.19-.46-.11-1.25-.15-2.36-.15-.68,0-1.27.01-1.78.05-.74.07-1.33.25-1.79.56-.58.41-.88,1.21-.88,2.41,0,.86.16,1.5.48,1.92.36.49.98.78,1.87.91.27.03.89.08,1.87.13.97.05,1.54.08,1.72.11.57.07.91.24,1.07.52.11.21.16.5.16.91,0,.76-.11,1.23-.3,1.45-.28.3-1.05.45-2.28.45-1.3,0-2.08-.08-2.35-.23-.38-.23-.58-.76-.58-1.6v-.24h-1.72c.01.54.04.93.07,1.17.13,1.07.69,1.76,1.66,2.04.46.13,1.37.2,2.69.2.82,0,1.51-.03,2.08-.08.81-.07,1.42-.32,1.84-.73.44-.41.65-1.22.65-2.4Z"/>
  <polygon class="cls-1" points="73.55 94.84 74.24 95.33 75.89 93.84 75 93.13 73.55 94.84"/>
  <path class="cls-1" d="M92.03,85.3v7.06h1.75v-10.57h-2.97l-2.52,5.84c-.14.32-.39.96-.76,1.93l-.24.64h-.05l-.25-.64c-.42-1.08-.68-1.72-.78-1.94l-2.54-5.83h-2.91v10.57h1.75v-7.06c0-.37-.02-.91-.06-1.62l-.02-.53h.04l.2.49.58,1.49,3.2,7.23h1.66l3.2-7.3c.22-.58.42-1.08.57-1.5l.18-.5h.04l-.03.56c-.03.62-.04,1.17-.04,1.67Z"/>
  <polygon class="cls-1" points="103.16 83.15 103.16 81.79 95.54 81.79 95.54 92.36 103.18 92.36 103.18 90.99 97.3 90.99 97.3 87.55 102.89 87.55 102.89 86.3 97.3 86.3 97.3 83.15 103.16 83.15"/>
  <polygon class="cls-1" points="113.44 92.36 113.44 83.24 116.99 83.24 116.99 81.79 108.15 81.79 108.15 83.24 111.68 83.24 111.68 92.36 113.44 92.36"/>
  <polygon class="cls-1" points="125.43 90.99 119.55 90.99 119.55 87.55 125.14 87.55 125.14 86.3 119.55 86.3 119.55 83.15 125.41 83.15 125.41 81.79 117.79 81.79 117.79 92.36 125.43 92.36 125.43 90.99"/>
  <polygon class="cls-1" points="136.93 92.36 131.45 86.92 136.37 81.79 134.16 81.79 129.91 86.24 128.84 86.24 128.84 81.79 127.07 81.79 127.07 92.36 128.84 92.36 128.84 87.65 129.92 87.65 134.63 92.36 136.93 92.36"/>
  <path class="cls-1" d="M148.08,81.79h-1.75v7.02c0,.54.01,1.08.04,1.62v.54h-.05l-.49-.85c-.62-1.08-1.12-1.92-1.5-2.53l-3.58-5.81h-2.92v10.57h1.74v-6.98c0-.55,0-1.1-.03-1.66v-.55h.05l.37.68c.6,1.1.98,1.77,1.14,2.03l4.03,6.47h2.93v-10.57Z"/>
  <path class="cls-1" d="M157.64,92.05c.9-.4,1.45-1.21,1.63-2.44.07-.44.11-1.35.11-2.76,0-1.19-.04-1.96-.09-2.35-.21-1.26-.8-2.08-1.78-2.47-.58-.24-1.58-.34-2.98-.34-.65,0-1.19.01-1.63.03-.7.05-1.27.16-1.71.34-.95.4-1.54,1.22-1.74,2.49-.07.42-.11,1.29-.11,2.57,0,.74.01,1.3.03,1.66.04,1.67.6,2.74,1.64,3.23.62.29,1.71.44,3.26.44.61,0,1.11-.01,1.51-.03.74-.05,1.37-.17,1.86-.38ZM152.09,90.85c-.52-.2-.84-.77-.93-1.67-.01-.23-.03-.93-.03-2.11v-1.48c0-1.29.32-2.05.98-2.31.33-.13,1.09-.2,2.27-.2.73,0,1.21,0,1.41.03.6.05,1.02.2,1.26.44.36.36.54,1.03.54,2.02v2.96c0,.49-.05.93-.16,1.3-.09.33-.21.58-.37.74-.24.24-.65.4-1.26.46-.21.03-.68.04-1.39.04-1.18,0-1.96-.07-2.32-.21Z"/>
  <polygon class="cls-1" points="162.62 81.79 160.85 81.79 160.85 92.36 168.23 92.36 168.23 90.9 162.62 90.9 162.62 81.79"/>
  <path class="cls-1" d="M176.83,82.04c-.58-.24-1.58-.34-2.98-.34-.65,0-1.19.01-1.63.03-.7.05-1.27.16-1.71.34-.97.4-1.54,1.22-1.74,2.49-.07.42-.11,1.29-.11,2.57,0,.74.01,1.3.01,1.66.05,1.67.61,2.74,1.66,3.23.61.29,1.7.44,3.26.44.61,0,1.11-.01,1.5-.03.76-.05,1.38-.17,1.87-.38.89-.4,1.43-1.21,1.63-2.44.07-.44.09-1.35.09-2.76,0-1.19-.03-1.96-.09-2.35-.2-1.26-.8-2.08-1.76-2.47ZM176.91,88.52c0,.49-.05.93-.16,1.3-.09.33-.23.58-.37.74-.24.24-.66.4-1.26.46-.23.03-.69.04-1.39.04-1.19,0-1.96-.07-2.32-.21-.53-.2-.84-.77-.93-1.67-.01-.23-.03-.93-.03-2.11v-1.48c0-1.29.32-2.05.97-2.31.34-.13,1.1-.2,2.28-.2.73,0,1.19,0,1.39.03.61.05,1.03.2,1.27.44.36.36.54,1.03.54,2.02v2.96Z"/>
  <path class="cls-1" d="M185.09,88.93c0,.29,0,.56-.03.81-.04.54-.22.91-.53,1.11-.23.14-.68.22-1.34.22-.38,0-.7-.02-.98-.05-.45-.05-.74-.25-.87-.61-.07-.2-.11-.57-.11-1.11v-.94h-1.7c-.01.28-.02.57-.02.88,0,.86.05,1.43.14,1.74.19.62.68,1.04,1.46,1.27.5.14,1.2.22,2.11.22.8,0,1.42-.06,1.86-.18.55-.15.98-.43,1.29-.83.31-.4.47-1.17.47-2.29v-7.37h-1.76v7.14Z"/>
  <rect class="cls-1" x="189.13" y="79.33" width="1.43" height="1.17"/>
  <rect class="cls-1" x="188.96" y="81.79" width="1.76" height="10.57"/>
  <polygon class="cls-1" points="194.6 81.79 192.83 81.79 192.83 92.36 200.21 92.36 200.21 90.9 194.6 90.9 194.6 81.79"/>
  <polygon class="cls-1" points="202.77 87.55 208.36 87.55 208.36 86.3 202.77 86.3 202.77 83.15 208.62 83.15 208.62 81.79 201 81.79 201 92.36 208.65 92.36 208.65 90.99 202.77 90.99 202.77 87.55"/>
  <path class="cls-1" d="M218.12,87.59c.54-.2.91-.56,1.09-1.07.13-.36.19-.91.19-1.64,0-.58-.05-1.05-.16-1.39-.34-1.13-1.47-1.7-3.39-1.7h-5.55v10.57h1.76v-3.87h3.49c.68,0,1.17.12,1.47.36.32.24.46.69.46,1.37v2.15h1.78v-2.49c0-1.27-.62-1.96-1.88-2.04v-.05c.32-.04.57-.11.76-.17ZM215.46,87.09h-3.41v-3.91h3.7c.98,0,1.56.25,1.74.74.08.23.13.66.13,1.33,0,.34-.03.6-.05.76-.16.73-.86,1.09-2.11,1.09Z"/>
  <rect class="cls-1" x="221.21" y="81.79" width="1.76" height="10.57"/>
  <rect class="cls-1" x="221.39" y="79.33" width="1.45" height="1.17"/>
  <polygon class="cls-1" points="64.98 100.26 62.77 100.26 58.53 104.68 57.45 104.68 57.45 100.26 55.68 100.26 55.68 110.75 57.45 110.75 57.45 106.07 58.53 106.07 63.24 110.75 65.54 110.75 60.06 105.35 64.98 100.26"/>
  <rect class="cls-1" x="68.86" y="97.83" width="1.43" height="1.15"/>
  <path class="cls-1" d="M74.02,107.44c0,.28-.01.5-.03.65-.07.65-.33,1.05-.78,1.19-.38.12-1.11.19-2.17.19-.72,0-1.22-.03-1.51-.08-.54-.09-.9-.28-1.09-.56-.15-.23-.21-.68-.21-1.35v-7.23h-1.76v7.23c0,.84.09,1.46.28,1.87.24.54.7.94,1.39,1.19.54.2,1.58.3,3.1.3,1.19,0,2.02-.05,2.49-.17.85-.21,1.43-.62,1.74-1.25.21-.42.32-1.1.32-2.02v-7.16h-1.76v7.19Z"/>
  <rect class="cls-1" x="71.95" y="97.83" width="1.45" height="1.15"/>
  <path class="cls-1" d="M85.41,106.05c-.14.32-.39.95-.76,1.91l-.24.64h-.05l-.25-.64c-.42-1.07-.68-1.71-.77-1.92l-2.54-5.79h-2.91v10.49h1.75v-7.01c0-.36-.02-.9-.06-1.6l-.02-.53h.04l.2.49.58,1.48,3.2,7.18h1.66l3.2-7.25c.22-.57.41-1.07.57-1.48l.18-.49h.04l-.02.55c-.03.62-.04,1.17-.04,1.66v7.01h1.75v-10.49h-2.97l-2.52,5.79Z"/>
  <polygon class="cls-1" points="94.43 105.97 100.02 105.97 100.02 104.73 94.43 104.73 94.43 101.61 100.28 101.61 100.28 100.26 92.67 100.26 92.67 110.75 100.31 110.75 100.31 109.39 94.43 109.39 94.43 105.97"/>
  <polygon class="cls-1" points="103.72 100.26 101.95 100.26 101.95 110.75 109.33 110.75 109.33 109.3 103.72 109.3 103.72 100.26"/>
  <polygon class="cls-1" points="111.89 105.97 117.48 105.97 117.48 104.73 111.89 104.73 111.89 101.61 117.75 101.61 117.75 100.26 110.13 100.26 110.13 110.75 117.77 110.75 117.77 109.39 111.89 109.39 111.89 105.97"/>
  <path class="cls-1" d="M127.91,107.23c0,.54.02,1.08.04,1.61v.54h-.05l-.49-.84c-.62-1.07-1.12-1.91-1.5-2.51l-3.58-5.77h-2.92v10.49h1.74v-6.92c0-.55,0-1.09-.02-1.64v-.54h.05l.37.68c.6,1.09.98,1.76,1.14,2.01l4.03,6.42h2.94v-10.49h-1.75v6.97Z"/>
  <path class="cls-1" d="M139.3,106.05c-.14.32-.39.95-.76,1.91l-.24.64h-.05l-.25-.64c-.42-1.07-.68-1.71-.78-1.92l-2.54-5.79h-2.91v10.49h1.75v-7.01c0-.36-.02-.9-.06-1.6l-.02-.53h.04l.2.49.58,1.48,3.2,7.18h1.66l3.2-7.25c.22-.57.41-1.07.57-1.48l.19-.49h.04l-.03.55c-.03.62-.04,1.17-.04,1.66v7.01h1.75v-10.49h-2.97l-2.52,5.79Z"/>
  <polygon class="cls-1" points="148.31 105.97 153.9 105.97 153.9 104.73 148.31 104.73 148.31 101.61 154.17 101.61 154.17 100.26 146.55 100.26 146.55 110.75 154.19 110.75 154.19 109.39 148.31 109.39 148.31 105.97"/>
  <path class="cls-1" d="M162.32,104.91c-.37-.07-1.08-.13-2.13-.18-.9-.04-1.47-.08-1.71-.1-.54-.06-.91-.21-1.11-.46-.17-.22-.25-.59-.25-1.1,0-.68.18-1.12.54-1.32.33-.19,1.11-.28,2.35-.28.56,0,.96.02,1.21.06.47.07.78.27.94.58.11.22.16.58.15,1.09h1.72v-.24c0-.62-.08-1.12-.24-1.48-.26-.6-.81-1-1.63-1.18-.46-.1-1.25-.15-2.36-.15-.68,0-1.27.02-1.77.06-.74.06-1.33.24-1.78.55-.59.4-.88,1.19-.88,2.39,0,.85.16,1.49.48,1.91.36.48.98.78,1.87.9.27.04.9.08,1.87.13.97.05,1.55.09,1.73.11.56.07.92.24,1.07.52.11.2.16.5.16.9,0,.75-.1,1.23-.3,1.44-.29.3-1.05.45-2.28.45-1.31,0-2.09-.08-2.35-.22-.39-.22-.58-.75-.58-1.59v-.24h-1.72c.01.54.03.93.06,1.15.14,1.08.69,1.75,1.66,2.03.47.13,1.37.2,2.69.2.82,0,1.51-.02,2.08-.08.8-.07,1.42-.31,1.85-.73.43-.41.65-1.21.65-2.39,0-.77-.1-1.33-.3-1.69-.3-.55-.86-.9-1.67-1.05Z"/>
  <rect class="cls-1" x="166" y="97.83" width="1.45" height="1.15"/>
  <rect class="cls-1" x="165.82" y="100.25" width="1.76" height="10.49"/>
</svg>