<?xml version="1.0" encoding="UTF-8"?>
<svg id="Layer_1" data-name="Layer 1" xmlns="http://www.w3.org/2000/svg" viewBox="0 0 119.01 119.01">
  <defs>
    <style>
      .cls-1 {
        fill: #414042;
        stroke-width: 0px;
      }
    </style>
  </defs>
  <path class="cls-1" d="m59.51.96C27.23.96.96,27.23.96,59.51s26.26,58.54,58.54,58.54,58.54-26.26,58.54-58.54S91.79.96,59.51.96m0,118.05C26.69,119.01,0,92.32,0,59.51S26.69,0,59.51,0s59.51,26.69,59.51,59.51-26.69,59.51-59.51,59.51"/>
  <path class="cls-1" d="m52.99,19.97h-21.89c-3,0-5.42,2.43-5.42,5.42v41.52c0,3,2.43,5.42,5.42,5.42h21.89c.83,0,1.61-.18,2.3-.52.31-.13.6-.31.87-.51-.24-.21-.47-.44-.7-.67-.27.18-.58.34-.9.45-.48.18-1.01.29-1.57.29h-21.89c-2.47,0-4.46-1.99-4.46-4.46V25.39c0-2.46,1.99-4.46,4.46-4.46h21.89c2.47,0,4.46,2,4.46,4.46v17.89c.31-.24.64-.47.96-.69v-17.2c0-3-2.43-5.42-5.42-5.42"/>
  <path class="cls-1" d="m54.67,26.9h-25.25c-.27,0-.48.22-.48.48v36.2c0,.27.21.48.48.48h21.92c-.12-.32-.22-.64-.32-.96h-21.12V27.86h24.28v18.65c.3-.4.63-.77.96-1.14v-18c0-.26-.21-.48-.48-.48"/>
  <path class="cls-1" d="m45.34,24.63h-7.62c-.53,0-.96-.43-.96-.96s.43-.96.96-.96h7.62c.53,0,.96.43.96.96s-.43.96-.96.96"/>
  <path class="cls-1" d="m42.05,37.58c-4.39,0-7.97,3.57-7.97,7.97s3.57,7.97,7.97,7.97,7.97-3.57,7.97-7.97-3.57-7.97-7.97-7.97m0,17.87c-5.46,0-9.9-4.44-9.9-9.9s4.44-9.9,9.9-9.9,9.9,4.44,9.9,9.9-4.44,9.9-9.9,9.9"/>
  <path class="cls-1" d="m46.68,51.15c-.25,0-.49-.09-.68-.28l-9.27-9.27c-.38-.38-.38-.99,0-1.36.38-.38.99-.38,1.36,0l9.27,9.27c.38.38.38.99,0,1.36-.19.19-.43.28-.68.28"/>
  <path class="cls-1" d="m37.41,51.15c-.25,0-.49-.09-.68-.28-.38-.38-.38-.99,0-1.36l9.27-9.27c.38-.38.99-.38,1.36,0,.38.38.38.99,0,1.36l-9.27,9.27c-.19.19-.43.28-.68.28"/>
  <path class="cls-1" d="m42.05,65.05c-1.39,0-2.51,1.13-2.51,2.51s1.13,2.51,2.51,2.51,2.51-1.13,2.51-2.51-1.13-2.51-2.51-2.51m0,5.99c-1.92,0-3.48-1.56-3.48-3.48s1.56-3.48,3.48-3.48,3.48,1.56,3.48,3.48-1.56,3.48-3.48,3.48"/>
  <path class="cls-1" d="m83.61,68.35c-.19.28-.4.55-.61.82-1.91,2.44-4.43,4.37-7.32,5.59-.3.13-.61.25-.92.36-1.93.69-4,1.07-6.17,1.07-4.8,0-9.15-1.84-12.43-4.88-.24-.21-.47-.44-.7-.67-1.8-1.85-3.22-4.09-4.11-6.57-.12-.32-.22-.64-.32-.96-.5-1.67-.77-3.43-.77-5.25,0-4.27,1.47-8.21,3.93-11.33.3-.4.63-.77.96-1.14.7-.76,1.47-1.46,2.3-2.09.31-.24.64-.47.96-.69,2.91-1.95,6.41-3.09,10.18-3.09,10.11,0,18.34,8.23,18.34,18.35,0,3.9-1.23,7.53-3.32,10.5m-15.01-29.81c-3.74,0-7.23,1.07-10.18,2.92-.33.19-.65.4-.96.64-.82.58-1.59,1.21-2.3,1.92-.34.32-.66.66-.96,1-3.04,3.41-4.89,7.92-4.89,12.83,0,1.82.25,3.58.73,5.25.09.33.18.65.3.96.9,2.65,2.35,5.03,4.24,7.02.23.25.48.5.73.73,3.47,3.3,8.14,5.33,13.3,5.33,2.37,0,4.63-.43,6.74-1.22.31-.11.62-.23.92-.37,2.88-1.24,5.4-3.17,7.33-5.57.22-.26.42-.53.62-.8,2.32-3.19,3.7-7.11,3.7-11.34,0-10.65-8.66-19.31-19.3-19.31"/>
  <path class="cls-1" d="m68.59,47.36c-5.78,0-10.49,4.7-10.49,10.49s4.7,10.49,10.49,10.49,10.49-4.7,10.49-10.49-4.7-10.49-10.49-10.49m0,21.94c-6.31,0-11.45-5.14-11.45-11.45s5.14-11.45,11.45-11.45,11.45,5.14,11.45,11.45-5.14,11.45-11.45,11.45"/>
  <path class="cls-1" d="m63.41,63.22c-.13,0-.26-.05-.35-.15-1.35-1.42-2.09-3.28-2.09-5.23,0-2.79,1.52-5.36,3.97-6.69.23-.13.53-.04.65.19.13.23.04.53-.19.65-2.14,1.16-3.47,3.4-3.47,5.84,0,1.7.65,3.32,1.82,4.56.18.19.17.5-.02.68-.09.09-.21.13-.33.13"/>
  <path class="cls-1" d="m99.69,91.17l-15.49-21.98-.59-.84c-.19.28-.4.55-.61.82l.58.82,15.04,21.34-7.53,5.3-14.85-21.07-.57-.8c-.3.13-.61.25-.92.36l.57.81,15.25,21.65c.08.11.19.18.32.2.03,0,.05,0,.08,0,.1,0,.2-.03.28-.09l8.32-5.86c.21-.15.27-.45.12-.67"/>
  <path class="cls-1" d="m92.09,88.18c-1.43,0-2.59,1.16-2.59,2.59s1.16,2.59,2.59,2.59,2.59-1.16,2.59-2.59-1.16-2.59-2.59-2.59m0,6.15c-1.96,0-3.56-1.6-3.56-3.56s1.6-3.56,3.56-3.56,3.56,1.6,3.56,3.56-1.59,3.56-3.56,3.56"/>
</svg>