<?xml version="1.0" encoding="UTF-8"?>
<svg id="Layer_1" data-name="Layer 1" xmlns="http://www.w3.org/2000/svg" viewBox="0 0 119.01 137.93">
  <defs>
    <style>
      .cls-1 {
        fill: #414042;
        stroke-width: 0px;
      }
    </style>
  </defs>
  <path class="cls-1" d="m16.2,48.84v33.45c0,7.23,3.06,14.18,8.41,19.07l30.2,27.59,30.18-27.59c4.7-4.28,7.64-10.15,8.28-16.51.09-.78.13-1.64.13-2.57v-33.45h-21.63l-16.95-9.81-16.97,9.81h-21.63Zm38.6,81.46l-30.87-28.21c-5.55-5.08-8.73-12.3-8.73-19.81v-34.45h22.37l17.24-9.96,17.22,9.96h22.37v34.45c0,.96-.04,1.86-.13,2.67-.67,6.6-3.72,12.69-8.6,17.14l-30.85,28.21Z"/>
  <path class="cls-1" d="m72.02,47.84h22.37v34.45c0,.25,0,.51,0,.75,1.99-3.3,3.22-7,3.59-10.82.09-.81.13-1.65.13-2.57v-33.45h-21.62l-16.97-9.81-16.97,9.81h-21.63v11.63h16.65l17.24-9.97,17.22,9.97Zm21.03,38.93l.21-1.92c.08-.77.13-1.64.13-2.56v-33.45h-21.64l-16.95-9.81-16.97,9.81h-17.92v-13.63h22.37l17.24-9.97,17.24,9.97h22.35v34.45c0,.96-.04,1.83-.13,2.67-.45,4.6-2.11,9.05-4.8,12.87l-1.11,1.58Z"/>
  <path class="cls-1" d="m76.75,35.21h22.35v34.45c0,.26,0,.5,0,.75,1.97-3.28,3.21-6.98,3.59-10.82.08-.78.13-1.64.13-2.57V23.58h-21.62l-16.97-9.79-16.97,9.79h-21.63v11.63h16.65l17.24-9.96,17.24,9.96Zm21.02,38.92l.2-1.91c.09-.8.13-1.64.13-2.56v-33.45h-21.62l-16.97-9.81-16.97,9.81h-17.92v-13.63h22.37l17.24-9.95,17.24,9.95h22.35v34.45c0,.96-.05,1.86-.13,2.67-.47,4.63-2.13,9.08-4.8,12.87l-1.11,1.57Z"/>
  <path class="cls-1" d="m81.46,22.58h22.35v34.45c0,.26,0,.51,0,.76,2.45-4.04,3.74-8.62,3.74-13.38V10.95h-21.63L68.94,1.15l-16.97,9.79h-21.63v11.63h16.65l17.24-9.95,17.24,9.95Zm21.01,38.92l.21-1.91c.08-.77.13-1.64.13-2.56V23.58h-21.62l-16.97-9.79-16.97,9.79h-17.92v-13.63h22.37L68.94,0l17.24,9.95h22.37v34.47c0,5.59-1.71,10.96-4.95,15.52l-1.11,1.57Z"/>
  <path class="cls-1" d="m41.57,93.6h26.44v-20.02h-26.44v20.02Zm27.44,1h-28.44v-22.02h28.44v22.02Z"/>
  <rect class="cls-1" x="54.29" y="76.04" width="1" height="15.09" transform="translate(-43.06 63.23) rotate(-45)"/>
  <rect class="cls-1" x="47.25" y="83.09" width="15.09" height="1" transform="translate(-43.06 63.23) rotate(-45)"/>
  <path class="cls-1" d="m46.53,72.58h16.51v-7.38c0-2.06-1.68-3.74-3.74-3.74h-9.04c-2.06,0-3.74,1.68-3.74,3.74v7.38Zm17.51,1h-18.51v-8.38c0-2.61,2.12-4.74,4.74-4.74h9.04c2.61,0,4.74,2.12,4.74,4.74v8.38Z"/>
  <path class="cls-1" d="m.5,112.61c-.28,0-.5-.22-.5-.5V24.97c0-.28.22-.5.5-.5h20.84c.28,0,.5.22.5.5s-.22.5-.5.5H1v86.65c0,.28-.22.5-.5.5"/>
  <path class="cls-1" d="m118.51,112.61h-22.02c-.28,0-.5-.22-.5-.5s.22-.5.5-.5h21.52V24.97c0-.28.22-.5.5-.5s.5.22.5.5v87.15c0,.28-.22.5-.5.5"/>
  <path class="cls-1" d="m84.81,131.53H13.45c-.28,0-.5-.22-.5-.5s.22-.5.5-.5h71.36c.28,0,.5.22.5.5s-.22.5-.5.5"/>
  <path class="cls-1" d="m96.49,131.53h-7.18c-.28,0-.5-.22-.5-.5s.22-.5.5-.5h7.18c.28,0,.5.22.5.5s-.22.5-.5.5"/>
  <path class="cls-1" d="m78.17,137.93h-37.34c-.28,0-.5-.22-.5-.5s.22-.5.5-.5h37.34c.28,0,.5.22.5.5s-.22.5-.5.5"/>
  <path class="cls-1" d="m35.71,137.93h-3.95c-.28,0-.5-.22-.5-.5s.22-.5.5-.5h3.95c.28,0,.5.22.5.5s-.22.5-.5.5"/>
</svg>