<?xml version="1.0" encoding="UTF-8"?>
<svg id="Layer_1" data-name="Layer 1" xmlns="http://www.w3.org/2000/svg" viewBox="0 0 119.01 112.78">
  <defs>
    <style>
      .cls-1 {
        fill: #414042;
        stroke-width: 0px;
      }
    </style>
  </defs>
  <path class="cls-1" d="m59.51,0C28.36,0,3.12,25.25,3.12,56.39s25.25,56.39,56.39,56.39,56.39-25.25,56.39-56.39S90.65,0,59.51,0m0,.94c30.58,0,55.45,24.87,55.45,55.45s-24.87,55.45-55.45,55.45S4.06,86.96,4.06,56.39,28.93.94,59.51.94"/>
  <path class="cls-1" d="m59.22,84.29c-6.72,0-13.02-1.25-19.06-3.75-16.57-6.88-24.54-20.93-27.19-26.66-.07-.15-.05-.34.05-.47.18-.25,18.37-24.82,44.64-25.91,16.65-.69,32.9,8.02,48.32,25.88.1.12.14.28.1.44-1.76,6.07-4.53,11.39-8.24,15.8-.17.2-.46.22-.66.06-.2-.17-.22-.46-.06-.66,3.58-4.25,6.26-9.36,7.99-15.21-15.17-17.5-31.12-26.02-47.4-25.36-24.49,1.01-41.89,22.86-43.76,25.3,2.72,5.78,10.55,19.28,26.58,25.93,9.01,3.74,18.63,4.62,29.42,2.68.25-.05.5.12.54.38.05.26-.12.5-.38.55-3.76.68-7.38,1.01-10.88,1.01"/>
  <path class="cls-1" d="m60.15,35.9c-10.37,0-18.78,8.41-18.78,18.78s8.41,18.78,18.78,18.78,18.78-8.41,18.78-18.78-8.41-18.78-18.78-18.78m0,.94c9.84,0,17.85,8.01,17.85,17.85s-8.01,17.85-17.85,17.85-17.85-8.01-17.85-17.85,8.01-17.85,17.85-17.85"/>
  <path class="cls-1" d="m86.96,55.95c-1.62,0-3.25.8-4.18,2.4l-12.19,21.12c-.63,1.09-.78,2.27-.56,3.34.43,2.13,2.29,3.91,4.74,3.91h24.37c3.72,0,6.04-4.03,4.18-7.25l-5.85-10.15v-.02l-6.33-10.95c-.93-1.6-2.55-2.4-4.18-2.4m0,.94c1.4,0,2.66.72,3.37,1.94l6.27,10.85s.03.08.06.11l5.85,10.15c.7,1.22.7,2.68,0,3.9-.7,1.22-1.96,1.94-3.37,1.94h-24.37c-2.09,0-3.51-1.58-3.82-3.16-.19-.91-.03-1.84.46-2.68l12.19-21.11c.7-1.21,1.96-1.94,3.37-1.94"/>
  <path class="cls-1" d="m86.94,78.48c-.26,0-.47-.21-.47-.47v-16.49c0-.26.21-.47.47-.47s.47.21.47.47v16.49c0,.26-.21.47-.47.47"/>
  <path class="cls-1" d="m67.25,63.79h-14.2c-.71,0-1.29-.58-1.29-1.29v-10.62c0-.71.58-1.28,1.29-1.28h14.2c.71,0,1.29.57,1.29,1.28v10.62c0,.71-.58,1.29-1.29,1.29"/>
  <path class="cls-1" d="m67.25,50.6h-14.2c-.71,0-1.29.58-1.29,1.29v10.62c0,.71.58,1.28,1.29,1.28h14.2c.71,0,1.29-.57,1.29-1.28v-10.62c0-.71-.58-1.29-1.29-1.29m0,.94c.19,0,.35.15.35.35v10.62c0,.19-.16.35-.35.35h-14.2c-.19,0-.35-.15-.35-.35v-10.62c0-.19.16-.35.35-.35h14.2Z"/>
  <path class="cls-1" d="m60.15,43.61c-2.29,0-4.15,1.86-4.15,4.15v6.58c0,.61.49,1.1,1.1,1.1h6.11c.61,0,1.1-.49,1.1-1.1v-6.58c0-2.29-1.86-4.15-4.15-4.15m-3.05,12.6c-1.03,0-1.87-.84-1.87-1.87v-6.58c0-2.71,2.21-4.92,4.92-4.92,1.32,0,2.55.51,3.47,1.43.93.93,1.45,2.17,1.45,3.49v6.58c0,1.03-.84,1.87-1.87,1.87h-6.11Z"/>
  <path class="cls-1" d="m57.09,54.98c-.34,0-.63-.27-.63-.63v-6.58c0-2.03,1.65-3.68,3.68-3.68s3.68,1.65,3.68,3.68v6.58c0,.36-.29.63-.63.63h-6.11Zm3.05-12.6c-2.97,0-5.39,2.4-5.39,5.39v6.58c0,1.3,1.06,2.34,2.34,2.34h6.11c1.28,0,2.34-1.04,2.34-2.34v-6.58c0-1.5-.6-2.83-1.59-3.82-.97-.97-2.32-1.57-3.8-1.57"/>
  <path class="cls-1" d="m86.83,80.79c-.26,0-.47-.19-.47-.45v-.03c0-.26.21-.47.47-.47s.47.21.47.47-.21.48-.47.48"/>
</svg>