<?xml version="1.0" encoding="UTF-8"?>
<svg id="Layer_1" data-name="Layer 1" xmlns="http://www.w3.org/2000/svg" viewBox="0 0 119.01 93.21">
  <defs>
    <style>
      .cls-1 {
        fill: #414042;
        stroke-width: 0px;
      }
    </style>
  </defs>
  <path class="cls-1" d="m93.09,40.43c-.79,0-1.6.07-2.39.19-4.14.68-7.8,3.12-10.03,6.69-1.45,2.32-2.22,5-2.22,7.75s.77,5.43,2.22,7.75c2.23,3.57,5.89,6,10.02,6.68,1.58.26,3.19.26,4.78,0,4.14-.68,7.8-3.11,10.03-6.68,1.45-2.32,2.22-5,2.22-7.75s-.77-5.43-2.22-7.75c-2.24-3.58-5.9-6.01-10.03-6.69-.79-.13-1.59-.19-2.38-.19m0,30.08c-.84,0-1.69-.07-2.52-.2-4.37-.72-8.22-3.29-10.58-7.06-1.53-2.45-2.34-5.28-2.34-8.18s.81-5.74,2.34-8.19c2.36-3.77,6.21-6.34,10.59-7.06,1.66-.27,3.35-.27,5.03,0,4.37.71,8.23,3.29,10.59,7.06,1.53,2.45,2.34,5.28,2.34,8.19s-.81,5.74-2.34,8.19c-2.36,3.77-6.21,6.34-10.59,7.06-.83.14-1.68.2-2.51.2"/>
  <path class="cls-1" d="m80.96,63.24c2.25,3.34,5.78,5.61,9.75,6.26,1.58.26,3.19.26,4.78,0,3.97-.65,7.5-2.92,9.75-6.26-1.67-.58-3.47-1.04-5.36-1.37-4.4-.76-9.15-.76-13.55,0-1.89.33-3.69.79-5.36,1.37m12.14,7.27c-.84,0-1.69-.07-2.52-.2-4.37-.72-8.22-3.29-10.58-7.06l-.27-.42.47-.17c1.85-.68,3.86-1.21,5.98-1.58,4.5-.78,9.34-.78,13.83,0,2.13.37,4.14.9,5.98,1.58l.47.17-.27.42c-2.36,3.77-6.21,6.34-10.59,7.06-.83.14-1.68.2-2.51.2"/>
  <path class="cls-1" d="m80.95,46.88c1.67.58,3.47,1.04,5.36,1.37,4.41.76,9.14.76,13.55,0,1.89-.33,3.69-.79,5.36-1.37-2.26-3.34-5.79-5.61-9.76-6.26-1.59-.26-3.19-.26-4.77,0-3.97.65-7.5,2.93-9.75,6.26m12.14,2.76c-2.34,0-4.66-.2-6.92-.59-2.13-.37-4.14-.9-5.99-1.58l-.47-.17.27-.42c2.36-3.77,6.21-6.34,10.59-7.06,1.66-.27,3.35-.27,5.03,0,4.37.71,8.23,3.29,10.59,7.06l.27.42-.47.17c-1.84.68-3.85,1.21-5.98,1.58-2.25.39-4.58.59-6.92.59"/>
  <path class="cls-1" d="m93.09,40.43c-.79,0-1.6.07-2.39.19-4.14.68-7.8,3.12-10.03,6.69-1.45,2.32-2.22,5-2.22,7.75s.77,5.43,2.22,7.75c2.23,3.57,5.89,6,10.02,6.68,1.53.25,3.09.26,4.63.02,1.92-2.2,3.38-5.01,4.21-8.16.54-2.02.81-4.14.81-6.3s-.27-4.28-.81-6.3c-.84-3.15-2.29-5.97-4.22-8.16-.74-.11-1.5-.17-2.24-.17m0,30.08c-.84,0-1.69-.07-2.52-.2-4.37-.72-8.22-3.29-10.58-7.06-1.53-2.45-2.34-5.28-2.34-8.18s.81-5.74,2.34-8.19c2.36-3.77,6.21-6.34,10.59-7.06,1.66-.27,3.35-.27,5.03,0l.14.02.1.11c2.06,2.31,3.61,5.28,4.49,8.6.55,2.09.84,4.28.84,6.51s-.28,4.42-.84,6.51c-.88,3.32-2.43,6.29-4.49,8.6l-.1.11-.14.02c-.83.14-1.68.2-2.51.2"/>
  <path class="cls-1" d="m90.84,69.52c1.53.23,3.09.23,4.63-.02,4.14-.68,7.8-3.11,10.03-6.68,1.45-2.32,2.22-5,2.22-7.75s-.77-5.43-2.22-7.75c-2.24-3.58-5.9-6.01-10.03-6.69-1.54-.25-3.09-.26-4.62-.02-1.92,2.19-3.37,5.01-4.21,8.16-.54,2.02-.81,4.14-.81,6.3s.27,4.28.81,6.3c.83,3.14,2.29,5.96,4.2,8.16m2.25.98c-.84,0-1.69-.07-2.52-.2l-.14-.02-.1-.11c-2.05-2.31-3.6-5.29-4.48-8.6-.55-2.09-.83-4.28-.83-6.51s.28-4.42.83-6.51c.88-3.33,2.43-6.3,4.48-8.6l.1-.11.14-.02c1.66-.27,3.35-.27,5.03,0,4.37.71,8.23,3.29,10.59,7.06,1.53,2.45,2.34,5.28,2.34,8.19s-.81,5.74-2.34,8.19c-2.36,3.77-6.21,6.34-10.59,7.06-.83.14-1.68.2-2.51.2"/>
  <rect class="cls-1" x="78.05" y="54.66" width="30.08" height=".81"/>
  <path class="cls-1" d="m5.75,39.09c-2.72,0-4.93,2.21-4.93,4.93v43.44c0,2.72,2.21,4.93,4.93,4.93h62.57c-1.68-1.01-2.8-2.84-2.8-4.93v-48.37H5.75Zm65.51,54.12H5.75c-3.17,0-5.75-2.58-5.75-5.75v-43.44c0-3.17,2.58-5.75,5.75-5.75h60.58v49.19c0,2.72,2.21,4.93,4.93,4.93v.81Z"/>
  <path class="cls-1" d="m13.1,86.7h52.42v-41.91H13.1v41.91Zm53.23.81H12.29v-43.54h54.04v43.54Z"/>
  <path class="cls-1" d="m71.26.81c-2.72,0-4.93,2.21-4.93,4.93v81.72c0,2.72,2.21,4.93,4.93,4.93h42c2.72,0,4.93-2.21,4.93-4.93V5.75c0-2.72-2.21-4.93-4.93-4.93h-42Zm42,92.4h-42c-3.17,0-5.75-2.58-5.75-5.75V5.75c0-3.17,2.58-5.75,5.75-5.75h42c3.17,0,5.75,2.58,5.75,5.75v81.72c0,3.17-2.58,5.75-5.75,5.75"/>
  <rect class="cls-1" x="83.78" y="6.65" width="16.97" height=".81"/>
  <path class="cls-1" d="m72.02,74.18h42.15V12.8h-42.15v61.38Zm42.96.81h-43.78V11.99h43.78v63Z"/>
  <path class="cls-1" d="m93.09,79.92c-1.97,0-3.57,1.6-3.57,3.57s1.6,3.57,3.57,3.57,3.57-1.6,3.57-3.57-1.6-3.57-3.57-3.57m0,7.95c-2.42,0-4.38-1.97-4.38-4.38s1.97-4.38,4.38-4.38,4.38,1.97,4.38,4.38-1.97,4.38-4.38,4.38"/>
  <path class="cls-1" d="m92.85,31.14c-1.71,0-3.09,1.39-3.09,3.09s1.39,3.09,3.09,3.09,3.11-1.39,3.11-3.09-1.39-3.09-3.11-3.09m0,7c-2.15,0-3.91-1.75-3.91-3.91s1.75-3.91,3.91-3.91,3.92,1.75,3.92,3.91-1.76,3.91-3.92,3.91"/>
  <path class="cls-1" d="m83.19,21.47c-1.71,0-3.09,1.39-3.09,3.09s1.39,3.09,3.09,3.09,3.09-1.39,3.09-3.09-1.39-3.09-3.09-3.09m0,7c-2.15,0-3.91-1.75-3.91-3.91s1.75-3.91,3.91-3.91,3.91,1.75,3.91,3.91-1.75,3.91-3.91,3.91"/>
  <rect class="cls-1" x="86.69" y="24.15" width="23.26" height=".81"/>
  <rect class="cls-1" x="75.06" y="24.15" width="4.63" height=".81"/>
  <rect class="cls-1" x="96.36" y="33.83" width="13.58" height=".81"/>
  <rect class="cls-1" x="75.06" y="33.83" width="14.29" height=".81"/>
</svg>