<?xml version="1.0" encoding="UTF-8"?>
<svg id="Layer_1" data-name="Layer 1" xmlns="http://www.w3.org/2000/svg" viewBox="0 0 119.01 92.66">
  <defs>
    <style>
      .cls-1 {
        fill: #414042;
        stroke-width: 0px;
      }
    </style>
  </defs>
  <path class="cls-1" d="m8.47,15.38c-.11,0-.22-.05-.3-.15l-2.39-3.19c-.12-.16-.09-.4.07-.52.16-.12.4-.09.52.08l2.39,3.19c.12.16.09.4-.07.52-.07.05-.15.07-.22.07"/>
  <path class="cls-1" d="m3.92,9.31c-.11,0-.22-.05-.3-.15l-2.39-3.19c-.12-.16-.09-.4.07-.52.16-.12.4-.09.52.08l2.39,3.19c.12.16.09.4-.07.52-.07.05-.15.07-.22.07"/>
  <path class="cls-1" d="m.37,14.23c-.11,0-.22-.05-.3-.15-.12-.16-.09-.4.07-.52l3.19-2.39c.16-.12.4-.09.52.07.12.16.09.4-.07.52l-3.19,2.39c-.07.05-.15.07-.22.07"/>
  <path class="cls-1" d="m6.44,9.68c-.11,0-.22-.05-.3-.15-.12-.16-.09-.4.07-.52l3.19-2.39c.16-.12.4-.09.52.07.12.16.09.4-.07.52l-3.19,2.39c-.07.05-.15.07-.22.07"/>
  <path class="cls-1" d="m109.6,72.71c-.11,0-.22-.05-.3-.15l-2.39-3.19c-.12-.16-.09-.4.07-.52.16-.12.4-.09.52.08l2.39,3.19c.12.16.09.4-.07.52-.07.05-.15.07-.22.07"/>
  <path class="cls-1" d="m105.05,66.64c-.11,0-.22-.05-.3-.15l-2.39-3.19c-.12-.16-.09-.4.07-.52.16-.12.4-.09.52.08l2.39,3.19c.12.16.09.4-.07.52-.07.05-.15.07-.22.07"/>
  <path class="cls-1" d="m101.5,71.55c-.11,0-.22-.05-.3-.15-.12-.16-.09-.4.07-.52l3.19-2.39c.16-.12.4-.09.52.07.12.16.09.4-.07.52l-3.19,2.39c-.07.05-.15.07-.22.07"/>
  <path class="cls-1" d="m107.57,67c-.11,0-.22-.05-.3-.15-.12-.16-.09-.4.07-.52l3.19-2.39c.16-.12.4-.09.52.07.12.16.09.4-.07.52l-3.19,2.39c-.07.05-.15.07-.22.07"/>
  <path class="cls-1" d="m96.69,10c-.11,0-.22-.05-.3-.15l-2.39-3.19c-.12-.16-.09-.4.07-.52.16-.12.4-.09.52.08l2.39,3.19c.12.16.09.4-.07.52-.07.05-.15.07-.22.07"/>
  <path class="cls-1" d="m92.14,3.93c-.11,0-.22-.05-.3-.15l-2.39-3.19c-.12-.16-.09-.4.07-.52.16-.12.4-.09.52.08l2.39,3.19c.12.16.09.4-.07.52-.07.05-.15.07-.22.07"/>
  <path class="cls-1" d="m88.59,8.85c-.11,0-.22-.05-.3-.15-.12-.16-.09-.4.07-.52l3.19-2.39c.16-.12.4-.09.52.07.12.16.09.4-.07.52l-3.19,2.39c-.07.05-.15.07-.22.07"/>
  <path class="cls-1" d="m94.67,4.3c-.11,0-.22-.05-.3-.15-.12-.16-.09-.4.07-.52l3.19-2.39c.16-.12.4-.09.52.07.12.16.09.4-.07.52l-3.19,2.39c-.07.05-.15.07-.22.07"/>
  <path class="cls-1" d="m43.53,72.98h44.69v-7.88h-44.69v7.88Zm45.06.74h-45.43c-.21,0-.37-.17-.37-.37v-8.62c0-.21.17-.37.37-.37h45.43c.21,0,.37.17.37.37v8.62c0,.21-.17.37-.37.37M11.75,91.91h106.52V10.75H11.75v81.16Zm106.89.74H11.38c-.21,0-.37-.17-.37-.37V10.38c0-.21.17-.37.37-.37h107.26c.21,0,.37.17.37.37v81.91c0,.21-.17.37-.37.37"/>
  <path class="cls-1" d="m118.64,30.19H11.38c-.21,0-.37-.17-.37-.37s.17-.37.37-.37h107.26c.21,0,.37.17.37.37s-.17.37-.37.37"/>
  <path class="cls-1" d="m107.99,83.27H22.03c-.21,0-.37-.17-.37-.37s.17-.37.37-.37h85.96c.21,0,.37.17.37.37s-.17.37-.37.37"/>
  <path class="cls-1" d="m65.15,24.88h-.09c0-.12,0-.17-.03-.23-.03-.08-.08-.1-.28-.1h-.23c-.08,0-.09,0-.1.09l-.11.69h.29c.24,0,.25-.02.32-.21h.09l-.09.57h-.09c0-.21,0-.24-.24-.24h-.29l-.08.53c-.04.25-.02.26.23.28v.09h-.73v-.09c.24-.01.26-.03.3-.28l.19-1.16c.04-.25.02-.26-.19-.28v-.09h1.18c-.02.12-.03.29-.04.44m1.18-.26c-.01.08-.08.15-.15.15-.07,0-.12-.07-.11-.15.01-.09.08-.15.16-.15s.12.06.1.15m-.25,1.41c-.03.2-.01.22.16.23v.08h-.59v-.08c.19-.02.21-.03.24-.23l.1-.6c.03-.17.03-.19-.14-.22v-.08c.15-.03.28-.06.4-.12l-.16,1.01Zm1.93-.86c0,.05-.05.11-.1.14-.03.01-.05,0-.07,0-.03-.04-.06-.06-.1-.06-.08,0-.19.1-.28.28l-.08.52c-.03.2-.02.22.19.23v.08h-.62v-.08c.19-.02.21-.03.24-.23l.1-.6c.03-.2.02-.21-.13-.23v-.08c.14-.02.26-.06.39-.12l-.05.32h0c.1-.15.24-.31.38-.31.1,0,.14.08.13.14m1.59.31c-.01.07-.03.09-.07.1-.04,0-.39.04-.72.05-.06.4.13.56.31.56.11,0,.22-.05.33-.15l.03.07c-.21.22-.39.27-.48.27-.32,0-.47-.29-.41-.63.03-.2.12-.38.26-.52.13-.13.29-.21.42-.21.22,0,.37.22.33.45m-.41-.34c-.13,0-.27.12-.36.36.16,0,.31,0,.48,0,.05,0,.07-.02.08-.06.03-.15-.05-.29-.2-.29m3.01,0c-.14.02-.17.06-.25.22-.12.24-.29.61-.48,1.01h-.08c-.06-.33-.12-.61-.18-.92-.15.29-.31.59-.47.92h-.08c-.04-.34-.08-.68-.14-1.04-.02-.15-.05-.18-.17-.2v-.08h.55v.08c-.18.03-.19.04-.17.18.02.23.06.46.09.69h0c.15-.28.29-.59.47-.94h.08c.05.31.11.63.17.95h0c.09-.21.21-.46.3-.68.06-.16.05-.18-.12-.2v-.08h.5v.08Zm1.42,1.04s.07-.02.1-.03l.02.09-.24.14s-.09-.03-.11-.05c-.03-.04-.04-.08-.04-.13-.13.08-.27.19-.36.19-.18,0-.29-.17-.26-.36.02-.14.11-.24.27-.29.17-.06.38-.14.45-.19v-.04c.04-.22-.04-.34-.18-.34-.06,0-.1.03-.14.06-.04.04-.07.1-.11.19-.02.04-.05.06-.09.06-.04,0-.1-.05-.09-.12,0-.04.05-.08.11-.12.08-.05.26-.17.43-.2.08,0,.16.03.2.08.07.09.08.2.06.35l-.09.55c-.02.13.02.18.07.18m-.47-.42c-.12.05-.19.11-.21.22-.02.15.07.22.16.22.08,0,.2-.06.26-.12l.07-.45-.28.13Zm1.66.27c-.03.19-.01.21.16.23v.08h-.6v-.08c.19-.02.22-.03.25-.23l.22-1.37c.03-.2.02-.21-.16-.22v-.08c.16-.02.32-.07.41-.1l-.29,1.77Zm1.26,0c-.03.19-.01.21.16.23v.08h-.6v-.08c.19-.02.22-.03.25-.23l.22-1.37c.03-.2.02-.21-.16-.22v-.08c.16-.02.32-.07.41-.1l-.29,1.77Z"/>
  <path class="cls-1" d="m63.67,23.1c.07.03.3.02.38.02h.4c.19,0,.4-.03.57-.13.17-.1.3-.25.39-.42.15-.26.26-.61.34-.91.02-.06.07-.1.13-.1h.15s.07.01.1.04.04.06.03.1l-.18,1.84c0,.07-.06.12-.13.12h-4.27c-.07,0-.13-.06-.13-.13v-.14c0-.07.06-.13.13-.13h.16c.09,0,.19-.01.27-.06.04-.03.07-.07.09-.12.03-.07.03-.36.03-.44v-3.47c0-.09,0-.38-.03-.46-.02-.05-.06-.09-.1-.11-.07-.04-.17-.06-.25-.06h-.16c-.07,0-.13-.06-.13-.13v-.14c0-.07.06-.13.13-.13h2.57c.07,0,.13.06.13.13v.14c0,.07-.06.13-.13.13h-.21c-.09,0-.19.01-.27.06-.04.03-.07.08-.09.12-.03.07-.03.36-.03.44v3.36c0,.1,0,.38.03.47.02.04.05.07.09.09m5.67-5.01c.77-.03,1.44.21,1.97.78.53.57.75,1.27.75,2.04,0,.67-.17,1.29-.56,1.84-.51.73-1.23,1.06-2.12,1.06s-1.6-.31-2.12-1.02c-.41-.56-.59-1.19-.59-1.88,0-.78.23-1.47.77-2.04.51-.54,1.15-.81,1.89-.78m6.84,5.04v-1c0-.08,0-.29-.03-.36-.02-.04-.07-.08-.11-.1-.07-.04-.15-.06-.22-.06h-.12c-.07,0-.13-.06-.13-.13v-.14c0-.07.06-.13.13-.13h2.34c.07,0,.13.06.13.13v.14c0,.07-.05.13-.12.13-.08,0-.24.02-.32.06-.05.03-.08.08-.11.14-.02.06-.02.25-.02.31v1.09c0,.05-.03.1-.08.12-.32.15-.65.27-.99.35-.35.08-.71.12-1.06.12-.4,0-.82-.05-1.19-.22-.31-.14-.59-.33-.84-.56-.24-.23-.43-.49-.57-.79-.18-.4-.26-.82-.26-1.25,0-.8.25-1.51.8-2.1.54-.58,1.22-.86,2.02-.86.23,0,.45.02.67.06.17.04.37.12.53.18.08.03.29.12.36.13.04,0,.07-.02.09-.04.05-.05.1-.18.12-.24.02-.06.07-.09.13-.09h.12c.07,0,.13.06.13.13v1.85c0,.07-.06.13-.13.13h-.12c-.06,0-.11-.04-.13-.09-.13-.41-.34-.81-.67-1.09-.28-.23-.59-.36-.96-.36-.31,0-.58.09-.81.3-.25.23-.39.54-.47.86-.1.39-.15.79-.15,1.18,0,.43.04.87.16,1.29.08.29.23.58.48.77.23.17.5.24.78.24.11,0,.22-.01.33-.04.09-.02.18-.05.27-.08m-6.79-4.53c-.44,0-.71.28-.89.66-.23.48-.27,1.15-.27,1.68,0,.6.06,1.4.41,1.91.18.26.42.39.74.39.19,0,.38-.04.53-.17.22-.18.36-.46.44-.73.14-.43.17-.93.17-1.38s-.02-1.08-.17-1.52c-.08-.23-.21-.51-.41-.67-.16-.13-.35-.19-.55-.19"/>
  <path class="cls-1" d="m52.68,15.16l3.42,4.94.88-1.28-2.28-3.26c-.97-1.39-2.02-.39-2.02-.39m9.01,0l-3.61,5.22,3.59,5.14s.37.32.71.4c.29.07.38.38.4.52h-3.58s-.19-.42.81-.71l-2.82-4.07-2.79,4.03s.08.02.12.03c.97.29.78.71.78.71h-3.45c.02-.15.1-.45.38-.52.26-.07.62-.29.77-.52l6.32-9.22c.36-.52.71-1.1,1.38-1.24.58-.12.99.23.99.23"/>
  <path class="cls-1" d="m40.17,33.95c-.2,0-.4.02-.59.05-1.03.17-1.94.78-2.49,1.66-.36.58-.55,1.24-.55,1.93s.19,1.35.55,1.93c.56.89,1.46,1.49,2.49,1.66.39.06.79.06,1.19,0,1.03-.17,1.94-.77,2.49-1.66.36-.58.55-1.24.55-1.93s-.19-1.35-.55-1.93c-.56-.89-1.47-1.49-2.49-1.66-.2-.03-.4-.05-.59-.05m0,7.65c-.22,0-.44-.02-.65-.05-1.13-.19-2.13-.85-2.75-1.83-.4-.64-.61-1.37-.61-2.12s.21-1.49.61-2.12c.61-.98,1.61-1.65,2.75-1.83.43-.07.87-.07,1.31,0,1.13.18,2.14.85,2.75,1.83.4.64.61,1.37.61,2.12s-.21,1.49-.61,2.12c-.61.98-1.61,1.65-2.75,1.83-.22.03-.44.05-.65.05"/>
  <path class="cls-1" d="m37.21,39.71c.56.78,1.41,1.31,2.36,1.47.39.06.79.06,1.19,0,.95-.16,1.8-.69,2.36-1.47-.39-.13-.81-.23-1.25-.31-1.11-.19-2.3-.19-3.42,0-.44.08-.86.18-1.25.31m2.96,1.89c-.22,0-.44-.02-.65-.05-1.13-.19-2.13-.85-2.75-1.83l-.12-.19.22-.08c.47-.17.99-.31,1.54-.41,1.15-.2,2.39-.2,3.54,0,.54.1,1.06.23,1.54.41l.21.08-.12.19c-.61.98-1.61,1.65-2.75,1.83-.22.03-.44.05-.65.05"/>
  <path class="cls-1" d="m37.21,35.46c.39.13.81.23,1.25.31,1.11.19,2.31.19,3.42,0,.44-.08.86-.18,1.25-.31-.56-.78-1.41-1.31-2.36-1.47-.4-.06-.79-.06-1.18,0-.95.16-1.8.69-2.36,1.47m2.96.83c-.6,0-1.2-.05-1.77-.15-.55-.1-1.06-.23-1.54-.41l-.21-.08.12-.19c.61-.98,1.61-1.65,2.75-1.83.43-.07.87-.07,1.31,0,1.13.19,2.14.85,2.75,1.83l.12.19-.22.08c-.47.17-.99.31-1.54.41-.58.1-1.17.15-1.77.15"/>
  <path class="cls-1" d="m40.17,33.95c-.2,0-.4.02-.59.05-1.03.17-1.94.78-2.49,1.66-.36.58-.55,1.24-.55,1.93s.19,1.35.55,1.93c.56.89,1.46,1.49,2.49,1.66.37.06.75.06,1.12,0,.47-.55.83-1.24,1.03-2.02.13-.51.2-1.04.2-1.58s-.07-1.08-.2-1.58c-.21-.78-.56-1.47-1.03-2.02-.18-.03-.35-.04-.53-.04m0,7.65c-.22,0-.44-.02-.65-.05-1.13-.19-2.13-.85-2.75-1.83-.4-.64-.61-1.37-.61-2.12s.21-1.49.61-2.12c.61-.98,1.61-1.65,2.75-1.83.43-.07.87-.07,1.31,0h.06s.04.06.04.06c.53.6.93,1.36,1.16,2.22.14.54.22,1.1.22,1.68s-.07,1.14-.22,1.68c-.23.85-.63,1.62-1.16,2.22l-.04.05h-.07c-.22.05-.44.06-.65.06"/>
  <path class="cls-1" d="m39.64,41.18c.37.05.75.05,1.12,0,1.03-.17,1.94-.77,2.49-1.66.36-.58.55-1.24.55-1.93s-.19-1.35-.55-1.93c-.56-.89-1.47-1.49-2.49-1.66-.37-.06-.75-.06-1.12,0-.47.54-.83,1.24-1.03,2.02-.13.51-.2,1.04-.2,1.58s.07,1.08.2,1.58c.21.77.56,1.47,1.03,2.02m.53.41c-.22,0-.44-.02-.65-.05h-.07s-.04-.06-.04-.06c-.53-.6-.93-1.36-1.16-2.22-.14-.54-.22-1.1-.22-1.68s.07-1.14.22-1.68c.23-.86.63-1.63,1.16-2.22l.04-.05h.07c.43-.08.87-.08,1.3-.01,1.13.18,2.14.85,2.75,1.83.4.64.61,1.37.61,2.12s-.21,1.49-.61,2.12c-.61.98-1.61,1.65-2.75,1.83-.22.03-.44.05-.65.05"/>
  <rect class="cls-1" x="36.34" y="37.4" width="7.65" height=".37"/>
  <path class="cls-1" d="m65.01,33.95c-.2,0-.4.02-.59.05-1.03.17-1.94.78-2.49,1.66-.36.58-.55,1.24-.55,1.93s.19,1.35.55,1.93c.56.89,1.46,1.49,2.49,1.66.39.06.79.06,1.19,0,1.03-.17,1.94-.77,2.49-1.66.36-.58.55-1.24.55-1.93s-.19-1.35-.55-1.93c-.56-.89-1.47-1.49-2.49-1.66-.2-.03-.4-.05-.59-.05m0,7.65c-.22,0-.44-.02-.65-.05-1.13-.19-2.13-.85-2.75-1.83-.4-.64-.61-1.37-.61-2.12s.21-1.49.61-2.12c.61-.98,1.61-1.65,2.75-1.83.43-.07.87-.07,1.31,0,1.13.18,2.14.85,2.75,1.83.4.63.61,1.37.61,2.12s-.21,1.49-.61,2.12c-.61.98-1.61,1.65-2.75,1.83-.22.03-.44.05-.65.05"/>
  <path class="cls-1" d="m62.06,39.71c.56.78,1.41,1.31,2.36,1.47.39.06.79.06,1.19,0,.95-.16,1.8-.69,2.36-1.47-.39-.13-.81-.23-1.25-.31-1.11-.19-2.3-.19-3.42,0-.44.08-.86.18-1.25.31m2.95,1.89c-.22,0-.44-.02-.65-.05-1.13-.19-2.13-.85-2.75-1.83l-.12-.19.22-.08c.47-.17.99-.31,1.54-.41,1.16-.2,2.39-.2,3.54,0,.55.1,1.06.23,1.54.41l.21.08-.12.19c-.61.98-1.61,1.65-2.75,1.83-.22.03-.44.05-.65.05"/>
  <path class="cls-1" d="m62.06,35.46c.39.13.81.23,1.25.31,1.11.19,2.31.19,3.42,0,.44-.08.86-.18,1.25-.31-.56-.78-1.41-1.31-2.36-1.47-.4-.06-.79-.06-1.19,0-.95.16-1.8.69-2.36,1.47m2.95.83c-.6,0-1.2-.05-1.77-.15-.55-.1-1.06-.23-1.54-.41l-.22-.08.12-.19c.61-.98,1.61-1.65,2.75-1.83.43-.07.87-.07,1.31,0,1.13.19,2.14.85,2.75,1.83l.12.19-.22.08c-.47.17-.99.31-1.53.41-.58.1-1.17.15-1.77.15"/>
  <path class="cls-1" d="m65.01,33.95c-.2,0-.4.02-.59.05-1.03.17-1.94.78-2.49,1.66-.36.58-.55,1.24-.55,1.93s.19,1.35.55,1.93c.56.89,1.46,1.49,2.49,1.66.37.06.75.06,1.12,0,.47-.55.83-1.24,1.03-2.02.13-.51.2-1.04.2-1.58s-.07-1.08-.2-1.58c-.21-.78-.56-1.47-1.03-2.02-.18-.03-.35-.04-.53-.04m0,7.65c-.22,0-.44-.02-.65-.05-1.13-.19-2.13-.85-2.75-1.83-.4-.64-.61-1.37-.61-2.12s.21-1.49.61-2.12c.61-.98,1.61-1.65,2.75-1.83.43-.07.87-.07,1.31,0h.06s.04.06.04.06c.53.6.93,1.36,1.16,2.22.14.54.21,1.1.21,1.68s-.07,1.14-.21,1.68c-.23.86-.63,1.62-1.16,2.22l-.04.05h-.07c-.22.05-.44.06-.65.06"/>
  <path class="cls-1" d="m64.48,41.18c.37.05.75.05,1.12,0,1.03-.17,1.94-.77,2.49-1.66.36-.58.55-1.24.55-1.93s-.19-1.35-.55-1.93c-.56-.89-1.47-1.49-2.49-1.66-.37-.06-.75-.06-1.12,0-.47.54-.83,1.24-1.03,2.02-.13.51-.2,1.04-.2,1.58s.07,1.08.2,1.58c.21.77.56,1.47,1.03,2.02m.53.41c-.22,0-.44-.02-.65-.05h-.07s-.04-.06-.04-.06c-.53-.6-.93-1.36-1.16-2.22-.14-.54-.21-1.1-.21-1.68s.07-1.14.21-1.68c.23-.86.63-1.63,1.16-2.22l.04-.05h.07c.43-.08.87-.08,1.3-.01,1.13.18,2.14.85,2.75,1.83.4.63.61,1.37.61,2.12s-.21,1.49-.61,2.12c-.61.98-1.61,1.65-2.75,1.83-.22.03-.44.05-.65.05"/>
  <rect class="cls-1" x="61.19" y="37.4" width="7.65" height=".37"/>
  <path class="cls-1" d="m89.85,33.95c-.2,0-.4.02-.59.05-1.03.17-1.94.78-2.49,1.66-.36.58-.55,1.24-.55,1.93s.19,1.35.55,1.93c.56.89,1.46,1.49,2.49,1.66.39.06.79.06,1.19,0,1.03-.17,1.94-.77,2.49-1.66.36-.58.55-1.24.55-1.93s-.19-1.35-.55-1.93c-.56-.89-1.47-1.49-2.49-1.66-.2-.03-.4-.05-.59-.05m0,7.65c-.22,0-.44-.02-.65-.05-1.13-.19-2.13-.85-2.75-1.83-.4-.64-.61-1.37-.61-2.12s.21-1.49.61-2.12c.61-.98,1.61-1.65,2.75-1.83.43-.07.87-.07,1.3,0,1.13.18,2.14.85,2.75,1.83.4.64.61,1.37.61,2.12s-.21,1.49-.61,2.12c-.61.98-1.61,1.65-2.75,1.83-.22.03-.44.05-.65.05"/>
  <path class="cls-1" d="m86.9,39.71c.56.78,1.41,1.31,2.36,1.47.39.06.79.06,1.19,0,.95-.16,1.8-.69,2.36-1.47-.39-.13-.81-.23-1.25-.31-1.11-.19-2.3-.19-3.42,0-.44.08-.86.18-1.25.31m2.95,1.89c-.22,0-.44-.02-.65-.05-1.13-.19-2.13-.85-2.75-1.83l-.12-.19.22-.08c.47-.17.99-.31,1.54-.41,1.15-.2,2.39-.2,3.54,0,.55.1,1.06.23,1.54.41l.22.08-.12.19c-.61.98-1.61,1.65-2.75,1.83-.22.03-.44.05-.65.05"/>
  <path class="cls-1" d="m86.9,35.46c.39.13.81.23,1.25.31,1.11.19,2.31.19,3.42,0,.44-.08.86-.18,1.25-.31-.56-.78-1.41-1.31-2.36-1.47-.4-.06-.79-.06-1.19,0-.95.16-1.8.69-2.36,1.47m2.95.83c-.6,0-1.2-.05-1.77-.15-.55-.1-1.06-.23-1.54-.41l-.22-.08.12-.19c.61-.98,1.61-1.65,2.75-1.83.43-.07.87-.07,1.3,0,1.13.19,2.14.85,2.75,1.83l.12.19-.22.08c-.47.17-.99.31-1.53.41-.58.1-1.17.15-1.77.15"/>
  <path class="cls-1" d="m89.85,33.95c-.2,0-.4.02-.59.05-1.03.17-1.94.78-2.49,1.66-.36.58-.55,1.24-.55,1.93s.19,1.35.55,1.93c.56.89,1.46,1.49,2.49,1.66.37.06.75.06,1.12,0,.47-.55.83-1.24,1.03-2.02.13-.51.2-1.04.2-1.58s-.07-1.07-.2-1.58c-.21-.78-.56-1.47-1.03-2.02-.18-.03-.35-.04-.53-.04m0,7.65c-.22,0-.44-.02-.65-.05-1.13-.19-2.13-.85-2.75-1.83-.4-.64-.61-1.37-.61-2.12s.21-1.49.61-2.12c.61-.98,1.61-1.65,2.75-1.83.43-.07.87-.07,1.3,0h.07s.04.06.04.06c.53.6.93,1.36,1.16,2.22.14.54.22,1.1.22,1.68s-.07,1.14-.22,1.68c-.23.86-.63,1.62-1.16,2.22l-.04.05h-.06c-.22.05-.44.06-.65.06"/>
  <path class="cls-1" d="m89.32,41.18c.37.05.75.05,1.12,0,1.03-.17,1.94-.77,2.49-1.66.36-.58.55-1.24.55-1.93s-.19-1.35-.55-1.93c-.56-.89-1.47-1.49-2.49-1.66-.37-.06-.75-.06-1.12,0-.47.54-.83,1.24-1.03,2.02-.13.51-.2,1.04-.2,1.58s.07,1.08.2,1.58c.21.77.56,1.47,1.03,2.02m.53.41c-.22,0-.44-.02-.65-.05h-.07s-.04-.06-.04-.06c-.53-.6-.93-1.36-1.16-2.22-.14-.54-.22-1.1-.22-1.68s.07-1.14.22-1.68c.23-.86.63-1.63,1.16-2.22l.04-.05h.07c.43-.08.87-.08,1.3-.01,1.13.18,2.14.85,2.75,1.83.4.64.61,1.37.61,2.12s-.21,1.49-.61,2.12c-.61.98-1.61,1.65-2.75,1.83-.22.03-.44.05-.65.05"/>
  <rect class="cls-1" x="86.03" y="37.4" width="7.65" height=".37"/>
  <path class="cls-1" d="m43.2,72.98h44.69v-7.88h-44.69v7.88Zm45.06.74h-45.43c-.21,0-.37-.17-.37-.37v-8.62c0-.21.17-.37.37-.37h45.43c.21,0,.37.17.37.37v8.62c0,.21-.17.37-.37.37"/>
  <path class="cls-1" d="m89.85,57.9h-49.68c-.21,0-.37-.17-.37-.37v-9.39c0-.21.17-.37.37-.37s.37.17.37.37v9.02h48.94v-9.02c0-.21.17-.37.37-.37s.37.17.37.37v9.39c0,.21-.17.37-.37.37"/>
  <path class="cls-1" d="m65.01,65.1c-.21,0-.37-.17-.37-.37v-13.93c0-.21.17-.37.37-.37s.37.17.37.37v13.93c0,.21-.17.37-.37.37"/>
  <path class="cls-1" d="m39.25,47.48s-.1-.02-.13-.05l-1.41-1.41c-.07-.07-.07-.19,0-.26.07-.07.19-.07.26,0l1.28,1.28,4.09-4.09c.07-.07.19-.07.26,0,.07.07.07.19,0,.26l-4.22,4.22s-.08.05-.13.05"/>
  <path class="cls-1" d="m64.54,47.48s-.1-.02-.13-.05l-1.41-1.41c-.07-.07-.07-.19,0-.26.07-.07.19-.07.26,0l1.28,1.28,4.09-4.09c.07-.07.19-.07.26,0,.07.07.07.19,0,.26l-4.22,4.22s-.08.05-.13.05"/>
  <path class="cls-1" d="m91.61,48.53s-.1-.02-.13-.05l-3.71-3.71c-.07-.07-.07-.19,0-.26.07-.07.19-.07.26,0l3.71,3.71c.07.07.07.19,0,.26-.04.04-.08.05-.13.05"/>
  <path class="cls-1" d="m87.9,48.53s-.1-.02-.13-.05c-.07-.07-.07-.19,0-.26l3.71-3.71c.07-.07.19-.07.26,0,.07.07.07.19,0,.26l-3.71,3.71s-.08.05-.13.05"/>
  <path class="cls-1" d="m33.09,20.85h-12.21c-.41,0-.74-.33-.74-.74s.33-.74.74-.74h12.21c.41,0,.74.33.74.74s-.33.74-.74.74"/>
</svg>