<?xml version="1.0" encoding="UTF-8"?>
<svg id="Layer_1" data-name="Layer 1" xmlns="http://www.w3.org/2000/svg" viewBox="0 0 119.01 119.01">
  <defs>
    <style>
      .cls-1 {
        fill: #414042;
        stroke-width: 0px;
      }
    </style>
  </defs>
  <path class="cls-1" d="m59.51.97C27.23.97.97,27.23.97,59.51s26.26,58.53,58.53,58.53,58.53-26.26,58.53-58.53S91.78.97,59.51.97m0,118.04C26.69,119.01,0,92.32,0,59.51S26.69,0,59.51,0s59.51,26.69,59.51,59.51-26.69,59.51-59.51,59.51"/>
  <path class="cls-1" d="m37.75,23.95c-5.98,0-10.85,4.86-10.85,10.85v50.45c0,5.98,4.87,10.84,10.85,10.84h43.5c5.98,0,10.84-4.86,10.84-10.84v-50.45c0-5.98-4.86-10.85-10.84-10.85h-43.5Zm43.5,73.11h-43.5c-6.52,0-11.82-5.3-11.82-11.82v-50.45c0-6.52,5.3-11.82,11.82-11.82h43.5c6.52,0,11.82,5.3,11.82,11.82v50.45c0,6.51-5.3,11.82-11.82,11.82"/>
  <rect class="cls-1" x="49.92" y="29.48" width="10.5" height=".97"/>
  <rect class="cls-1" x="29.65" y="29.48" width="17.78" height=".97"/>
  <rect class="cls-1" x="50.23" y="34.69" width="6.29" height=".97"/>
  <rect class="cls-1" x="28.97" y="34.69" width="19.29" height=".97"/>
  <rect class="cls-1" x="45.07" y="39.5" width="17.83" height=".97"/>
  <rect class="cls-1" x="65.32" y="39.5" width="12.47" height=".97"/>
  <rect class="cls-1" x="28.97" y="39.5" width="13.78" height=".97"/>
  <rect class="cls-1" x="54.5" y="44.64" width="17.83" height=".97"/>
  <rect class="cls-1" x="74.75" y="44.64" width="12.47" height=".97"/>
  <rect class="cls-1" x="26.42" y="48.33" width="8.47" height=".97"/>
  <rect class="cls-1" x="26.42" y="51.61" width="8.47" height=".97"/>
  <rect class="cls-1" x="26.42" y="54.9" width="8.47" height=".97"/>
  <rect class="cls-1" x="26.42" y="58.19" width="8.47" height=".97"/>
  <rect class="cls-1" x="26.42" y="61.48" width="8.47" height=".97"/>
  <rect class="cls-1" x="26.42" y="64.76" width="8.47" height=".97"/>
  <rect class="cls-1" x="26.42" y="68.05" width="8.47" height=".97"/>
  <rect class="cls-1" x="26.42" y="71.34" width="8.47" height=".97"/>
  <rect class="cls-1" x="26.42" y="74.62" width="8.47" height=".97"/>
  <rect class="cls-1" x="26.42" y="77.91" width="21.63" height=".97"/>
  <rect class="cls-1" x="50.39" y="77.91" width="5.13" height=".97"/>
  <rect class="cls-1" x="57.87" y="77.91" width="20.13" height=".97"/>
  <rect class="cls-1" x="26.3" y="84" width="16.43" height=".97"/>
  <rect class="cls-1" x="45.32" y="84" width="17.28" height=".97"/>
  <rect class="cls-1" x="61.58" y="89.2" width="9.94" height=".97"/>
  <rect class="cls-1" x="47.7" y="89.2" width="9.94" height=".97"/>
  <rect class="cls-1" x="31" y="89.2" width="14.5" height=".97"/>
  <rect class="cls-1" x="28.97" y="44.64" width="24.03" height=".97"/>
  <path class="cls-1" d="m38.67,62.43l.84-7.82h8.33v2.24h-6.18l-.43,3.71c.72-.41,1.53-.62,2.43-.62,1.48,0,2.63.47,3.45,1.42.82.94,1.23,2.22,1.23,3.81s-.45,2.83-1.36,3.77c-.91.93-2.16,1.4-3.74,1.4-1.42,0-2.6-.4-3.53-1.21-.93-.81-1.44-1.87-1.52-3.19h2.5c.1.75.37,1.33.81,1.73.44.4,1.02.6,1.73.6.79,0,1.41-.28,1.86-.85.44-.57.67-1.34.67-2.32s-.25-1.69-.74-2.24c-.49-.55-1.17-.83-2.02-.83-.47,0-.87.06-1.19.19-.33.12-.68.37-1.07.73l-2.07-.51Z"/>
  <path class="cls-1" d="m55.66,61.94c-.57,0-1.09.16-1.56.48-.47.32-.82.75-1.04,1.28v.79c0,1.15.24,2.07.72,2.74.48.68,1.11,1.02,1.88,1.02s1.37-.29,1.82-.86c.45-.58.67-1.33.67-2.27s-.23-1.7-.68-2.29c-.45-.59-1.06-.88-1.81-.88m2.78-7.41v2.14h-.32c-1.45.02-2.61.42-3.47,1.19-.87.77-1.38,1.87-1.55,3.29.83-.87,1.89-1.31,3.19-1.31,1.37,0,2.45.48,3.24,1.45.79.97,1.19,2.21,1.19,3.74s-.46,2.85-1.39,3.83-2.14,1.46-3.65,1.46-2.8-.57-3.77-1.72c-.96-1.14-1.44-2.64-1.44-4.5v-.88c0-2.72.66-4.85,1.99-6.39,1.33-1.54,3.23-2.31,5.72-2.31h.27Z"/>
  <path class="cls-1" d="m63.48,62.43l.84-7.82h8.33v2.24h-6.18l-.43,3.71c.72-.41,1.53-.62,2.43-.62,1.48,0,2.63.47,3.45,1.42.82.94,1.23,2.22,1.23,3.81s-.45,2.83-1.36,3.77c-.91.93-2.16,1.4-3.74,1.4-1.42,0-2.6-.4-3.53-1.21-.93-.81-1.44-1.87-1.52-3.19h2.5c.1.75.37,1.33.81,1.73.44.4,1.02.6,1.73.6.79,0,1.41-.28,1.86-.85.44-.57.67-1.34.67-2.32s-.25-1.69-.74-2.24c-.49-.55-1.17-.83-2.02-.83-.47,0-.87.06-1.19.19-.33.12-.68.37-1.07.73l-2.07-.51Z"/>
  <polygon class="cls-1" points="82.2 70.12 79.62 70.12 79.62 57.66 75.82 58.95 75.82 56.78 81.87 54.55 82.2 54.55 82.2 70.12"/>
</svg>