<?xml version="1.0" encoding="UTF-8"?>
<svg id="Layer_1" data-name="Layer 1" xmlns="http://www.w3.org/2000/svg" viewBox="0 0 101.46 109.62">
  <defs>
    <style>
      .cls-1 {
        fill: #414042;
        stroke-width: 0px;
      }
    </style>
  </defs>
  <path class="cls-1" d="m26.99,69.05c-.12,0-.24-.05-.33-.14l-14.45-14.44c-.18-.19-.18-.48,0-.67s.48-.19.67,0l14.45,14.44c.18.19.18.48,0,.67-.09.09-.21.14-.33.14"/>
  <path class="cls-1" d="m12.55,69.05c-.12,0-.24-.05-.33-.14-.18-.19-.18-.48,0-.67l14.45-14.44c.18-.19.48-.19.67,0,.18.18.18.48,0,.67l-14.45,14.44c-.09.09-.21.14-.33.14"/>
  <path class="cls-1" d="m97.96,104.15c-.17,0-.33-.09-.41-.24l-2.59-4.67c-.13-.23-.04-.52.18-.64.23-.13.52-.04.64.18l2.59,4.67c.13.23.04.52-.18.64-.07.04-.15.06-.23.06"/>
  <path class="cls-1" d="m93.03,95.26c-.17,0-.33-.09-.41-.24l-2.59-4.67c-.13-.23-.04-.52.18-.64.23-.13.51-.04.64.18l2.59,4.67c.13.23.04.52-.18.64-.07.04-.15.06-.23.06"/>
  <path class="cls-1" d="m87.42,101.14c-.17,0-.33-.09-.41-.24-.13-.23-.04-.52.18-.64l4.67-2.59c.23-.13.52-.04.64.18.13.23.04.52-.18.64l-4.67,2.59c-.07.04-.15.06-.23.06"/>
  <path class="cls-1" d="m96.32,96.21c-.17,0-.33-.09-.41-.24-.13-.23-.04-.52.18-.64l4.67-2.59c.23-.13.52-.04.64.18.13.23.04.52-.18.64l-4.67,2.59c-.07.04-.15.06-.23.06"/>
  <path class="cls-1" d="m10.85,19.13c-.17,0-.34-.1-.42-.26l-2.38-4.78c-.12-.23-.02-.52.21-.63s.52-.02.63.21l2.38,4.78c.12.23.02.52-.21.63-.07.03-.14.05-.21.05"/>
  <path class="cls-1" d="m6.33,10.03c-.17,0-.34-.1-.42-.26l-2.38-4.78c-.12-.23-.02-.52.21-.63.23-.12.52-.02.63.21l2.38,4.78c.12.23.02.52-.21.63-.07.03-.14.05-.21.05"/>
  <path class="cls-1" d="m.47,15.65c-.17,0-.34-.1-.42-.26-.12-.23-.02-.52.21-.63l4.78-2.38c.23-.12.52-.02.63.21.12.23.02.52-.21.63L.68,15.6c-.07.03-.14.05-.21.05"/>
  <path class="cls-1" d="m9.57,11.13c-.17,0-.34-.1-.42-.26-.12-.23-.02-.52.21-.63l4.78-2.38c.23-.12.52-.02.63.21.12.23.02.52-.21.63l-4.78,2.38c-.07.03-.14.05-.21.05"/>
  <path class="cls-1" d="m18.93,76.07v27.53c0,2.8,2.29,5.08,5.1,5.08h52.23c2.81,0,5.1-2.28,5.1-5.08V6.04c0-2.81-2.29-5.1-5.1-5.1H24.03c-2.81,0-5.1,2.29-5.1,5.1v24.24c.25-.02.52-.03.84-.03,1.55,0,3.04.28,4.43.84,4.72,1.8,7.89,6.41,7.89,11.48v4.08h6.25c.26,0,.47.21.47.47v28.46c0,.26-.21.47-.47.47h-19.41v.02Zm57.33,33.56H24.03c-3.33,0-6.04-2.7-6.04-6.03v-28c0-.26.21-.47.47-.47h19.41v-27.52h-6.25c-.26,0-.47-.21-.47-.47v-4.55c0-4.68-2.93-8.94-7.29-10.6-1.29-.51-2.66-.77-4.09-.77-.52,0-.9.02-1.24.08-.14.02-.27-.02-.38-.11-.1-.09-.16-.22-.16-.36V6.04c0-3.33,2.71-6.04,6.04-6.04h52.23c3.33,0,6.04,2.71,6.04,6.04v97.55c0,3.32-2.71,6.03-6.04,6.03"/>
  <path class="cls-1" d="m1.66,75.12h36.21v-27.52H1.66v27.52Zm36.69.94H1.19c-.26,0-.47-.21-.47-.47v-28.46c0-.26.21-.47.47-.47h37.16c.26,0,.47.21.47.47v28.46c0,.26-.21.47-.47.47"/>
  <path class="cls-1" d="m8.38,46.66h22.77v-4.08c0-4.68-2.93-8.94-7.29-10.6-1.29-.51-2.66-.77-4.09-.77-.52,0-.9.02-1.24.08-5.8.63-10.15,5.48-10.15,11.3v4.08h0Zm23.24.94H7.91c-.26,0-.47-.21-.47-.47v-4.55c0-6.3,4.72-11.56,10.97-12.24.37-.06.8-.09,1.37-.09,1.55,0,3.04.28,4.43.84,4.72,1.8,7.89,6.41,7.89,11.48v4.55c0,.26-.21.47-.47.47"/>
  <path class="cls-1" d="m24.5,90.22h51.28V15.64H24.5v15.58c4.55,1.88,7.59,6.41,7.59,11.36v4.08h6.25c.26,0,.47.21.47.47v28.46c0,.26-.21.47-.47.47h-13.84v14.16Zm51.76.94H24.03c-.26,0-.47-.21-.47-.47v-15.1c0-.26.21-.47.47-.47h13.84v-27.52h-6.25c-.26,0-.47-.21-.47-.47v-4.55c0-4.68-2.93-8.94-7.29-10.6-.18-.07-.3-.25-.3-.44V15.16c0-.26.21-.47.47-.47h52.23c.26,0,.47.21.47.47v75.53c0,.26-.21.47-.47.47"/>
  <path class="cls-1" d="m50.15,96.2c-2.43,0-4.41,1.98-4.41,4.41s1.98,4.41,4.41,4.41,4.41-1.98,4.41-4.41-1.98-4.41-4.41-4.41m0,9.76c-2.95,0-5.35-2.4-5.35-5.35s2.4-5.35,5.35-5.35,5.35,2.4,5.35,5.35-2.4,5.35-5.35,5.35"/>
  <path class="cls-1" d="m43.49,9.24h13.32v-3.25h-13.32s0,3.25,0,3.25Zm13.79.94h-14.27c-.26,0-.47-.21-.47-.47v-4.2c0-.26.21-.47.47-.47h14.27c.26,0,.47.21.47.47v4.2c0,.26-.21.47-.47.47"/>
  <path class="cls-1" d="m88.96,64.52c-.26,0-.47-.21-.47-.47v-16.92c0-.26.21-.47.47-.47s.47.21.47.47v16.92c0,.26-.21.47-.47.47"/>
  <path class="cls-1" d="m94.21,55.29c-.26,0-.47-.21-.47-.47v-19.93c0-.26.21-.47.47-.47s.47.21.47.47v19.93c0,.26-.21.47-.47.47"/>
</svg>