<?xml version="1.0" encoding="UTF-8"?>
<svg id="Layer_1" data-name="Layer 1" xmlns="http://www.w3.org/2000/svg" viewBox="0 0 119.01 45.11">
  <defs>
    <style>
      .cls-1 {
        fill: #414042;
        stroke-width: 0px;
      }
    </style>
  </defs>
  <path class="cls-1" d="m9.2,12.8c-.25,0-.48.03-.7.09-.59.13-1.11.42-1.54.84-.6.61-.93,1.4-.93,2.24v15.78c0,1.75,1.42,3.18,3.17,3.18h96.57c1.75,0,3.17-1.42,3.17-3.18v-15.78c0-1.15-.63-2.21-1.63-2.77l-.33-.17c-.36-.15-.78-.23-1.21-.23H9.2Zm96.57,22.94H9.2c-2.2,0-3.99-1.79-3.99-4v-15.78c0-1.05.41-2.05,1.15-2.8.55-.55,1.22-.92,1.94-1.08.27-.07.58-.11.89-.11h96.57c.54,0,1.07.1,1.56.31l.36.18c1.28.71,2.07,2.04,2.07,3.49v15.78c0,2.2-1.79,4-3.99,4"/>
  <path class="cls-1" d="m101.28,9.6H13.42c-.75,0-1.42.22-2,.6h-.02l-4.16,2.31c.05.05.11.06.17.06.19,0,.44-.16.65-.16h98.57c.51,0,.99.1,1.42.28l-4.6-2.37-1.06-.55s-.03-.02-.06-.02c-.33-.1-.69-.16-1.06-.16m0,.82c.27,0,.55.04.81.12l.99.52,1.04.54H10.58l1.02-.57h.05l.21-.14c.46-.31.98-.47,1.55-.47h87.86Z"/>
  <path class="cls-1" d="m18.12,18.33c-1.01,0-1.82.82-1.82,1.82v7.41c0,1.01.82,1.83,1.82,1.83h12.42c1.01,0,1.82-.82,1.82-1.83v-7.41c0-1.01-.82-1.82-1.82-1.82h-12.42Zm12.42,11.88h-12.42c-1.46,0-2.65-1.19-2.65-2.65v-7.41c0-1.46,1.19-2.65,2.65-2.65h12.42c1.46,0,2.65,1.19,2.65,2.65v7.41c0,1.46-1.19,2.65-2.65,2.65"/>
  <path class="cls-1" d="m51.27,18.33c-1.01,0-1.82.82-1.82,1.82v7.41c0,1.01.82,1.83,1.82,1.83h12.42c1.01,0,1.82-.82,1.82-1.83v-7.41c0-1.01-.82-1.82-1.82-1.82h-12.42Zm12.42,11.88h-12.42c-1.46,0-2.65-1.19-2.65-2.65v-7.41c0-1.46,1.19-2.65,2.65-2.65h12.42c1.46,0,2.65,1.19,2.65,2.65v7.41c0,1.46-1.19,2.65-2.65,2.65"/>
  <path class="cls-1" d="m84.43,18.33c-1.01,0-1.82.82-1.82,1.82v7.41c0,1.01.82,1.83,1.82,1.83h12.42c1.01,0,1.82-.82,1.82-1.83v-7.41c0-1.01-.82-1.82-1.82-1.82h-12.42Zm12.42,11.88h-12.42c-1.46,0-2.65-1.19-2.65-2.65v-7.41c0-1.46,1.19-2.65,2.65-2.65h12.42c1.46,0,2.65,1.19,2.65,2.65v7.41c0,1.46-1.19,2.65-2.65,2.65"/>
  <path class="cls-1" d="m54.83,26.78c-.11,0-.21-.04-.29-.12-.16-.16-.16-.42,0-.58l5.31-5.31c.16-.16.42-.16.58,0,.16.16.16.42,0,.58l-5.31,5.31c-.08.08-.19.12-.29.12"/>
  <path class="cls-1" d="m60.14,26.78c-.11,0-.21-.04-.29-.12l-5.31-5.31c-.16-.16-.16-.42,0-.58.16-.16.42-.16.58,0l5.31,5.31c.16.16.16.42,0,.58-.08.08-.19.12-.29.12"/>
  <path class="cls-1" d="m118.6,44.93H.41c-.23,0-.41-.18-.41-.41s.18-.41.41-.41h117.78v-16.14c0-.23.18-.41.41-.41s.41.18.41.41v16.55c0,.23-.18.41-.41.41"/>
  <path class="cls-1" d="m.41,17.38c-.23,0-.41-.18-.41-.41V.41c0-.23.18-.41.41-.41h118.19c.23,0,.41.18.41.41s-.18.41-.41.41H.82v16.14c0,.23-.18.41-.41.41"/>
</svg>