<?xml version="1.0" encoding="UTF-8"?>
<svg id="Layer_1" data-name="Layer 1" xmlns="http://www.w3.org/2000/svg" viewBox="0 0 101.62 86.01">
  <defs>
    <style>
      .cls-1 {
        fill: #414042;
        stroke-width: 0px;
      }
    </style>
  </defs>
  <path class="cls-1" d="m39.56.71c-2.11,0-4.24.17-6.34.52C22.23,3.04,12.52,9.51,6.6,18.99,2.74,25.15.7,32.26.7,39.58s2.04,14.43,5.9,20.59c5.93,9.47,15.63,15.94,26.61,17.75,4.19.68,8.46.69,12.68,0,4.66-.75,9.1-2.34,13.2-4.74l-2.85-2.61c-1.19-1.09-2.18-2.35-2.95-3.73-1.24-2.22-1.89-4.72-1.89-7.25v-22.24c0-.2.16-.36.36-.36h12.02l9.34-5.39c.11-.06.25-.06.36,0l4.57,2.64c-.73-5.42-2.58-10.54-5.52-15.24-5.95-9.49-15.66-15.96-26.64-17.76-2.1-.34-4.22-.52-6.32-.52m0,78.42c-2.15,0-4.33-.18-6.47-.52-11.18-1.84-21.06-8.43-27.1-18.07-3.93-6.27-6-13.52-6-20.96s2.08-14.69,6-20.96C12.03,8.96,21.91,2.36,33.1.52c4.26-.69,8.59-.7,12.88,0,11.18,1.83,21.07,8.42,27.12,18.08,3.12,4.99,5.04,10.46,5.71,16.24.02.13-.05.26-.16.34-.11.07-.26.08-.37,0l-5.01-2.9-9.24,5.34c-.05.03-.12.05-.18.05h-11.76v21.88c0,2.4.62,4.79,1.81,6.9.73,1.32,1.67,2.51,2.81,3.55l3.2,2.94c.08.08.13.19.11.3-.01.11-.07.21-.17.27-4.29,2.58-8.96,4.29-13.86,5.08-2.14.35-4.31.52-6.44.52"/>
  <path class="cls-1" d="m6.83,60.52c5.95,9.27,15.54,15.59,26.38,17.38,4.19.68,8.46.69,12.68,0,4.66-.75,9.1-2.34,13.2-4.74l-2.85-2.61c-1.19-1.09-2.18-2.35-2.95-3.73-1.24-2.22-1.89-4.72-1.89-7.25v-3.79c-3.88-.44-7.86-.66-11.83-.66-6.02,0-12,.51-17.79,1.51-5.3.92-10.32,2.24-14.94,3.91m32.73,18.6c-2.15,0-4.33-.18-6.47-.52-11.18-1.84-21.06-8.43-27.1-18.07-.06-.09-.07-.2-.03-.3.03-.1.11-.18.21-.22,4.77-1.76,9.98-3.13,15.48-4.09,5.83-1.01,11.85-1.52,17.91-1.52,4.11,0,8.22.24,12.23.7.18.02.31.17.31.35v4.11c0,2.4.62,4.79,1.81,6.9.73,1.32,1.67,2.51,2.81,3.55l3.2,2.94c.08.08.13.19.11.3-.01.11-.07.21-.17.27-4.29,2.58-8.96,4.29-13.86,5.08-2.14.35-4.31.52-6.44.52"/>
  <path class="cls-1" d="m6.83,18.61c4.62,1.67,9.64,2.98,14.94,3.91,11.57,2,24,2,35.57,0,5.29-.92,10.31-2.24,14.93-3.91-5.97-9.29-15.57-15.62-26.4-17.39-4.22-.69-8.47-.68-12.65,0C22.37,3.01,12.78,9.33,6.83,18.61m32.73,6.12c-6.06,0-12.08-.51-17.91-1.52-5.5-.96-10.71-2.34-15.48-4.09-.1-.04-.18-.12-.21-.22-.03-.1-.02-.21.03-.3C12.03,8.96,21.91,2.36,33.11.52c4.26-.69,8.59-.7,12.88,0,11.18,1.83,21.07,8.42,27.12,18.08.06.09.07.2.04.3-.03.1-.11.18-.21.22-4.77,1.75-9.97,3.13-15.47,4.09-5.83,1.01-11.85,1.52-17.91,1.52"/>
  <path class="cls-1" d="m39.56.71c-2.11,0-4.24.17-6.34.52C22.23,3.04,12.52,9.51,6.6,18.99,2.74,25.15.7,32.26.7,39.58s2.04,14.43,5.9,20.59c5.93,9.47,15.63,15.94,26.61,17.75,4.14.67,8.37.69,12.55.02,2.89-3.26,5.39-7.05,7.44-11.27-1.18-2.18-1.81-4.62-1.81-7.09v-22.24c0-.2.16-.36.36-.36h7.39c-.19-4.79-.89-9.51-2.08-14.02-2.23-8.4-6.14-15.92-11.31-21.76-2.06-.33-4.14-.49-6.19-.49m0,78.42c-2.15,0-4.33-.18-6.47-.52-11.18-1.84-21.06-8.43-27.1-18.07C2.06,54.27-.01,47.02-.01,39.58s2.08-14.69,6-20.96C12.03,8.96,21.91,2.36,33.1.52c4.26-.69,8.59-.7,12.88,0,.08,0,.15.05.21.11,5.29,5.93,9.28,13.58,11.55,22.14,1.24,4.67,1.95,9.57,2.12,14.54,0,.1-.03.19-.1.26s-.16.11-.26.11h-7.41v21.88c0,2.4.62,4.79,1.81,6.9.06.1.06.22,0,.33-2.1,4.38-4.7,8.31-7.71,11.69-.05.06-.13.1-.21.11-2.14.35-4.31.52-6.44.52"/>
  <path class="cls-1" d="m33.33,77.92c4.15.66,8.38.66,12.55-.02,4.66-.75,9.1-2.34,13.2-4.74l-2.85-2.61c-1.19-1.09-2.18-2.35-2.95-3.73-1.24-2.22-1.89-4.72-1.89-7.25v-22.24c0-.2.16-.36.36-.36h12.02l9.34-5.39c.11-.06.25-.06.36,0l4.58,2.64c-.74-5.43-2.6-10.55-5.53-15.24-5.95-9.49-15.66-15.96-26.64-17.76-4.17-.68-8.39-.68-12.53-.02-5.15,5.83-9.06,13.35-11.29,21.76-1.41,5.32-2.13,10.91-2.13,16.61s.72,11.29,2.13,16.61c2.23,8.38,6.13,15.9,11.28,21.74m6.23,1.21c-2.15,0-4.33-.18-6.47-.52-.08-.01-.15-.05-.21-.12-5.27-5.94-9.25-13.6-11.52-22.13-1.43-5.38-2.15-11.03-2.15-16.79s.72-11.41,2.15-16.79c2.27-8.56,6.26-16.22,11.53-22.14.05-.06.13-.1.21-.11,4.26-.69,8.59-.7,12.88,0,11.18,1.83,21.07,8.42,27.12,18.08,3.12,4.98,5.04,10.45,5.72,16.24.02.13-.04.26-.16.34-.11.07-.26.08-.37,0l-5.02-2.9-9.24,5.34c-.05.03-.12.05-.18.05h-11.76v21.88c0,2.4.62,4.79,1.81,6.9.73,1.32,1.67,2.51,2.81,3.55l3.2,2.94c.08.08.13.19.11.3-.01.11-.07.21-.17.27-4.29,2.58-8.96,4.29-13.86,5.08-2.14.35-4.31.52-6.44.52"/>
  <path class="cls-1" d="m51.75,39.92H.34c-.2,0-.36-.16-.36-.36s.16-.36.36-.36h51.4c.2,0,.36.16.36.36s-.16.36-.36.36"/>
  <path class="cls-1" d="m52.1,37.69v21.88c0,2.4.62,4.79,1.81,6.9.73,1.32,1.67,2.51,2.81,3.55l16.57,15.15,16.58-15.15c2.92-2.68,4.6-6.49,4.6-10.45v-21.88h-11.76c-.06,0-.12-.02-.18-.05l-4.18-2.42s-.04,0-.05-.02l-5.01-2.9-9.24,5.34c-.05.03-.12.05-.18.05h-11.77Zm21.18,48.32c-.09,0-.17-.03-.24-.09l-16.81-15.37c-1.19-1.09-2.18-2.35-2.95-3.73-1.24-2.22-1.89-4.72-1.89-7.25v-22.24c0-.2.16-.36.36-.36h12.02l9.34-5.39c.11-.06.25-.06.36,0l5.14,2.97s.04,0,.06.02l4.14,2.39h12.02c.2,0,.36.16.36.36v22.24c0,4.16-1.76,8.16-4.83,10.98l-16.82,15.37c-.07.06-.15.09-.24.09"/>
  <path class="cls-1" d="m65.62,68.75h15.34v-11.59h-15.34s0,11.59,0,11.59Zm15.7.71h-16.05c-.2,0-.36-.16-.36-.36v-12.3c0-.2.16-.36.36-.36h16.05c.2,0,.36.16.36.36v12.3c0,.2-.16.36-.36.36"/>
  <path class="cls-1" d="m76.41,66.43c-.09,0-.18-.03-.25-.1l-6.24-6.24c-.14-.14-.14-.36,0-.5s.36-.14.5,0l6.24,6.24c.14.14.14.36,0,.5-.07.07-.16.1-.25.1"/>
  <path class="cls-1" d="m70.17,66.43c-.09,0-.18-.03-.25-.1-.14-.14-.14-.36,0-.5l6.24-6.24c.14-.14.36-.14.5,0s.14.36,0,.5l-6.24,6.24c-.07.07-.16.1-.25.1"/>
  <path class="cls-1" d="m68.52,56.45h9.54v-3.72c0-1.46-1.19-2.66-2.66-2.66h-4.22c-1.46,0-2.66,1.19-2.66,2.66,0,0,0,3.72,0,3.72Zm9.89.71h-10.25c-.2,0-.36-.16-.36-.36v-4.08c0-1.86,1.51-3.37,3.37-3.37h4.22c1.86,0,3.37,1.51,3.37,3.37v4.08c0,.2-.16.36-.36.36"/>
  <path class="cls-1" d="m87.74,43.74h-28.91c-.2,0-.36-.16-.36-.36s.16-.36.36-.36h28.91c.2,0,.36.16.36.36s-.16.36-.36.36"/>
</svg>