<?xml version="1.0" encoding="UTF-8"?>
<svg id="Layer_1" data-name="Layer 1" xmlns="http://www.w3.org/2000/svg" viewBox="0 0 119.01 119.01">
  <defs>
    <style>
      .cls-1 {
        fill: #414042;
        stroke-width: 0px;
      }
    </style>
  </defs>
  <path class="cls-1" d="m59.51.97C27.23.97.97,27.23.97,59.51s26.26,58.53,58.53,58.53,58.53-26.26,58.53-58.53S91.78.97,59.51.97m0,118.04C26.69,119.01,0,92.32,0,59.51S26.69,0,59.51,0s59.51,26.69,59.51,59.51-26.69,59.51-59.51,59.51"/>
  <path class="cls-1" d="m37.75,23.95c-5.98,0-10.84,4.86-10.84,10.85v50.45c0,5.98,4.86,10.84,10.84,10.84h43.5c5.98,0,10.85-4.86,10.85-10.84v-50.45c0-5.98-4.87-10.85-10.85-10.85h-43.5Zm43.5,73.11h-43.5c-6.52,0-11.82-5.3-11.82-11.82v-50.45c0-6.52,5.3-11.82,11.82-11.82h43.5c6.52,0,11.82,5.3,11.82,11.82v50.45c0,6.51-5.3,11.82-11.82,11.82"/>
  <rect class="cls-1" x="49.92" y="29.48" width="10.5" height=".97"/>
  <rect class="cls-1" x="29.65" y="29.48" width="17.78" height=".97"/>
  <rect class="cls-1" x="50.23" y="34.69" width="6.28" height=".97"/>
  <rect class="cls-1" x="28.97" y="34.69" width="19.29" height=".97"/>
  <rect class="cls-1" x="45.07" y="39.5" width="17.83" height=".97"/>
  <rect class="cls-1" x="65.32" y="39.5" width="12.47" height=".97"/>
  <rect class="cls-1" x="28.97" y="39.5" width="13.78" height=".97"/>
  <rect class="cls-1" x="54.5" y="44.64" width="17.83" height=".97"/>
  <rect class="cls-1" x="74.75" y="44.64" width="12.47" height=".97"/>
  <rect class="cls-1" x="26.42" y="48.33" width="8.47" height=".97"/>
  <rect class="cls-1" x="26.42" y="51.61" width="8.47" height=".97"/>
  <rect class="cls-1" x="26.42" y="54.9" width="8.47" height=".97"/>
  <rect class="cls-1" x="26.42" y="58.19" width="8.47" height=".97"/>
  <rect class="cls-1" x="26.42" y="61.48" width="8.47" height=".97"/>
  <rect class="cls-1" x="26.42" y="64.76" width="8.47" height=".97"/>
  <rect class="cls-1" x="26.42" y="68.05" width="8.47" height=".97"/>
  <rect class="cls-1" x="26.42" y="71.34" width="8.47" height=".97"/>
  <rect class="cls-1" x="26.42" y="74.62" width="8.47" height=".97"/>
  <rect class="cls-1" x="26.42" y="77.91" width="21.63" height=".97"/>
  <rect class="cls-1" x="50.39" y="77.91" width="5.13" height=".97"/>
  <rect class="cls-1" x="57.87" y="77.91" width="20.13" height=".97"/>
  <rect class="cls-1" x="26.3" y="84" width="16.43" height=".97"/>
  <rect class="cls-1" x="45.32" y="84" width="17.28" height=".97"/>
  <rect class="cls-1" x="61.58" y="89.2" width="9.94" height=".97"/>
  <rect class="cls-1" x="47.7" y="89.2" width="9.94" height=".97"/>
  <rect class="cls-1" x="31" y="89.2" width="14.5" height=".97"/>
  <rect class="cls-1" x="28.97" y="44.64" width="24.03" height=".97"/>
  <path class="cls-1" d="m50.14,55.84c0-.52-.18-.92-.55-1.21-.37-.28-1.03-.57-1.98-.86-.96-.29-1.72-.61-2.28-.96-1.08-.68-1.62-1.56-1.62-2.66,0-.96.39-1.74,1.17-2.36.78-.62,1.79-.93,3.04-.93.83,0,1.56.15,2.21.46.65.3,1.15.74,1.52,1.3.37.56.55,1.19.55,1.87h-2.05c0-.62-.19-1.1-.58-1.45-.39-.35-.94-.53-1.67-.53-.67,0-1.2.14-1.57.43-.37.29-.56.69-.56,1.21,0,.44.2.8.6,1.09.4.29,1.07.57,1.99.85.92.28,1.66.59,2.22.94.56.35.97.75,1.23,1.21.26.45.39.98.39,1.59,0,.99-.38,1.78-1.14,2.36-.76.58-1.79.88-3.08.88-.86,0-1.65-.16-2.37-.48-.72-.32-1.28-.76-1.68-1.32-.4-.56-.6-1.21-.6-1.96h2.06c0,.67.22,1.2.67,1.56.45.37,1.08.55,1.92.55.72,0,1.26-.15,1.62-.44.36-.29.54-.68.54-1.15"/>
  <polygon class="cls-1" points="59.22 52.66 61.95 47.03 64.23 47.03 60.25 54.53 60.25 58.9 58.18 58.9 58.18 54.53 54.2 47.03 56.49 47.03 59.22 52.66"/>
  <path class="cls-1" d="m72.92,55.84c0-.52-.18-.92-.55-1.21-.37-.28-1.03-.57-1.98-.86-.96-.29-1.72-.61-2.28-.96-1.08-.68-1.62-1.56-1.62-2.66,0-.96.39-1.74,1.17-2.36.78-.62,1.79-.93,3.04-.93.83,0,1.56.15,2.21.46.65.3,1.15.74,1.52,1.3.37.56.55,1.19.55,1.87h-2.05c0-.62-.19-1.1-.58-1.45-.39-.35-.94-.53-1.67-.53-.67,0-1.2.14-1.57.43-.37.29-.56.69-.56,1.21,0,.44.2.8.6,1.09.4.29,1.07.57,1.99.85.92.28,1.66.59,2.22.94.56.35.97.75,1.23,1.21.26.45.39.98.39,1.59,0,.99-.38,1.78-1.14,2.36-.76.58-1.79.88-3.08.88-.86,0-1.65-.16-2.37-.48-.72-.32-1.28-.76-1.68-1.32-.4-.56-.6-1.21-.6-1.96h2.06c0,.67.22,1.2.67,1.56.45.37,1.08.55,1.92.55.72,0,1.26-.15,1.62-.44.36-.29.54-.68.54-1.15"/>
  <polygon class="cls-1" points="46 73.89 51.39 73.89 51.39 75.53 43.94 75.53 43.94 63.66 46 63.66 46 73.89"/>
  <path class="cls-1" d="m61.19,69.29c0-1.31-.25-2.32-.75-3.02-.5-.7-1.2-1.05-2.11-1.05s-1.59.35-2.09,1.05c-.5.7-.76,1.69-.77,2.96v.68c0,1.3.25,2.31.76,3.02.51.71,1.21,1.07,2.12,1.07s1.61-.35,2.11-1.04c.49-.7.74-1.71.74-3.05v-.62Zm2.06.62c0,1.16-.2,2.18-.6,3.06-.4.88-.98,1.55-1.72,2.02s-1.61.7-2.58.7-1.82-.24-2.57-.7c-.75-.47-1.33-1.14-1.74-2.01-.41-.87-.62-1.87-.62-3.01v-.67c0-1.16.2-2.18.62-3.06.41-.89.99-1.56,1.74-2.03.75-.47,1.6-.7,2.57-.7s1.82.23,2.57.7c.75.47,1.32,1.13,1.73,2,.41.87.61,1.89.62,3.04v.66Z"/>
  <path class="cls-1" d="m75.73,73.99c-.43.56-1.02.98-1.78,1.27-.76.29-1.62.43-2.59.43s-1.87-.22-2.64-.68c-.77-.45-1.36-1.1-1.77-1.94-.42-.84-.63-1.82-.65-2.94v-.93c0-1.79.43-3.19,1.29-4.2.86-1.01,2.06-1.51,3.59-1.51,1.32,0,2.37.33,3.15.98.78.65,1.24,1.6,1.4,2.82h-2.02c-.23-1.43-1.06-2.14-2.49-2.14-.92,0-1.63.33-2.11,1-.48.66-.73,1.64-.75,2.93v.91c0,1.28.27,2.27.81,2.98.54.71,1.29,1.06,2.25,1.06,1.05,0,1.8-.24,2.25-.72v-2.32h-2.44v-1.57h4.5v4.55Z"/>
</svg>