<?xml version="1.0" encoding="UTF-8"?>
<svg id="Layer_1" data-name="Layer 1" xmlns="http://www.w3.org/2000/svg" viewBox="0 0 119.01 100.31">
  <defs>
    <style>
      .cls-1 {
        fill: #414042;
        stroke-width: 0px;
      }
    </style>
  </defs>
  <path class="cls-1" d="m.9,99.42h117.23V.89H.9v98.53Zm117.67.89H.45c-.25,0-.44-.2-.44-.44V.44C0,.2.21,0,.45,0h118.12c.25,0,.44.2.44.44v99.42c0,.25-.2.44-.44.44"/>
  <path class="cls-1" d="m118.57,20.77H.44c-.25,0-.44-.2-.44-.44s.2-.44.44-.44h118.12c.25,0,.44.2.44.44s-.2.44-.44.44"/>
  <path class="cls-1" d="m118.57,10.59H52.76c-.25,0-.44-.2-.44-.44s.2-.44.44-.44h65.81c.25,0,.44.2.44.44s-.2.44-.44.44"/>
  <path class="cls-1" d="m64.6,74.98c-.08,0-.16-.02-.24-.07-.21-.13-.27-.4-.14-.61l24.85-39.53c.13-.21.41-.27.61-.14.21.13.27.4.14.61l-24.85,39.53c-.08.13-.23.21-.38.21"/>
  <path class="cls-1" d="m59.51,72.37c-3.8,0-6.89,3.09-6.89,6.89s3.09,6.89,6.89,6.89,6.89-3.09,6.89-6.89-3.09-6.89-6.89-6.89m0,14.68c-4.29,0-7.78-3.49-7.78-7.78s3.49-7.78,7.78-7.78,7.78,3.49,7.78,7.78-3.49,7.78-7.78,7.78"/>
  <path class="cls-1" d="m42.73,72.87c-.06,0-.11-.01-.17-.03-.23-.09-.34-.35-.24-.58,2.86-7.01,9.61-11.54,17.18-11.54s14.31,4.52,17.17,11.53c.09.23-.02.49-.24.58-.23.09-.49-.02-.58-.24-2.72-6.67-9.14-10.97-16.35-10.97s-13.63,4.31-16.36,10.99c-.07.17-.24.28-.41.28"/>
  <path class="cls-1" d="m83.69,65.99c-.15,0-.31-.08-.39-.22-4.85-8.55-13.96-13.86-23.8-13.86s-18.71,5.19-23.61,13.53c-.12.21-.4.28-.61.16-.21-.12-.28-.4-.16-.61,5.05-8.62,14.39-13.97,24.37-13.97s19.56,5.48,24.57,14.31c.12.21.05.49-.17.61-.07.04-.15.06-.22.06"/>
  <path class="cls-1" d="m89.71,60.41c-.15,0-.29-.07-.38-.21-6.52-10.24-17.67-16.36-29.83-16.36s-22.87,5.89-29.46,15.77c-.14.2-.41.26-.62.12-.2-.14-.26-.41-.12-.62,6.76-10.12,18.05-16.16,30.2-16.16s23.89,6.27,30.58,16.77c.13.21.07.48-.14.61-.07.05-.16.07-.24.07"/>
  <path class="cls-1" d="m95.98,54.62c-.14,0-.28-.07-.37-.19-8.21-11.88-21.71-18.97-36.11-18.97s-27.29,6.78-35.52,18.15c-.14.2-.42.24-.62.1-.2-.14-.24-.42-.1-.62,8.4-11.59,21.94-18.51,36.24-18.51s28.47,7.24,36.84,19.36c.14.2.09.48-.11.62-.08.05-.17.08-.25.08"/>
  <path class="cls-1" d="m12.4,7.31c-1.83,0-3.31,1.49-3.31,3.31s1.49,3.31,3.31,3.31,3.31-1.49,3.31-3.31-1.49-3.31-3.31-3.31m0,7.52c-2.32,0-4.2-1.89-4.2-4.2s1.89-4.2,4.2-4.2,4.2,1.89,4.2,4.2-1.89,4.2-4.2,4.2"/>
  <path class="cls-1" d="m26.9,7.31c-1.83,0-3.31,1.49-3.31,3.31s1.49,3.31,3.31,3.31,3.31-1.49,3.31-3.31-1.49-3.31-3.31-3.31m0,7.52c-2.32,0-4.2-1.89-4.2-4.2s1.89-4.2,4.2-4.2,4.2,1.89,4.2,4.2-1.89,4.2-4.2,4.2"/>
</svg>