<?xml version="1.0" encoding="UTF-8"?>
<svg id="Layer_1" data-name="Layer 1" xmlns="http://www.w3.org/2000/svg" viewBox="0 0 119.01 89.12">
  <defs>
    <style>
      .cls-1 {
        fill: #414042;
        stroke-width: 0px;
      }
    </style>
  </defs>
  <path class="cls-1" d="m95.69,9.75c-.11,0-.21-.05-.28-.14l-2.34-3.11c-.12-.16-.09-.38.07-.49.16-.12.38-.09.49.07l2.34,3.11c.12.16.09.38-.07.49-.06.05-.14.07-.21.07"/>
  <path class="cls-1" d="m91.25,3.82c-.11,0-.21-.05-.28-.14l-2.34-3.11c-.12-.16-.09-.38.07-.49.16-.12.38-.09.49.07l2.34,3.11c.12.16.09.38-.07.49-.06.05-.14.07-.21.07"/>
  <path class="cls-1" d="m87.78,8.62c-.11,0-.21-.05-.28-.14-.12-.16-.09-.38.07-.49l3.11-2.34c.16-.12.38-.09.49.07.12.16.09.38-.07.49l-3.12,2.34c-.06.05-.14.07-.21.07"/>
  <path class="cls-1" d="m93.71,4.18c-.11,0-.21-.05-.28-.14-.12-.16-.09-.38.07-.49l3.11-2.34c.16-.12.38-.09.49.07.12.16.09.38-.07.49l-3.12,2.34c-.06.05-.14.07-.21.07"/>
  <path class="cls-1" d="m8.26,13.31c-.11,0-.21-.05-.28-.14l-2.34-3.11c-.12-.16-.09-.38.07-.49.16-.12.38-.09.49.07l2.34,3.11c.12.16.09.38-.07.49-.06.05-.14.07-.21.07"/>
  <path class="cls-1" d="m3.82,7.38c-.11,0-.21-.05-.28-.14l-2.34-3.11c-.12-.16-.09-.38.07-.49.16-.12.38-.09.49.07l2.34,3.11c.12.16.09.38-.07.49-.06.05-.14.07-.21.07"/>
  <path class="cls-1" d="m.35,12.18c-.11,0-.21-.05-.28-.14-.12-.16-.09-.38.07-.49l3.11-2.34c.16-.12.38-.09.49.07.12.16.09.38-.07.49l-3.11,2.34c-.06.05-.14.07-.21.07"/>
  <path class="cls-1" d="m6.28,7.74c-.11,0-.21-.05-.28-.14-.12-.16-.09-.38.07-.49l3.11-2.34c.16-.12.38-.09.49.07.12.16.09.38-.07.49l-3.12,2.34c-.06.05-.14.07-.21.07"/>
  <path class="cls-1" d="m107.36,68.71c-.11,0-.21-.05-.28-.14l-2.34-3.11c-.12-.16-.09-.38.07-.49.16-.12.38-.09.49.07l2.34,3.11c.12.16.09.38-.07.49-.06.05-.14.07-.21.07"/>
  <path class="cls-1" d="m102.92,62.78c-.11,0-.21-.05-.28-.14l-2.34-3.11c-.12-.16-.09-.38.07-.49.16-.12.38-.09.49.07l2.34,3.11c.12.16.09.38-.07.49-.06.05-.14.07-.21.07"/>
  <path class="cls-1" d="m99.46,67.59c-.11,0-.21-.05-.28-.14-.12-.16-.09-.38.07-.49l3.11-2.34c.16-.12.38-.09.49.07.12.16.09.38-.07.49l-3.12,2.34c-.06.05-.14.07-.21.07"/>
  <path class="cls-1" d="m105.38,63.14c-.11,0-.21-.05-.28-.14-.12-.16-.09-.38.07-.49l3.11-2.34c.16-.12.38-.09.49.07.12.16.09.38-.07.49l-3.11,2.34c-.06.05-.14.07-.21.07"/>
  <path class="cls-1" d="m11.05,88.05h104.65V8.78H11.05v79.27Zm105.01.71H10.7c-.2,0-.35-.16-.35-.35V8.43c0-.2.16-.35.35-.35h105.36c.2,0,.35.16.35.35v79.98c0,.2-.16.35-.35.35"/>
  <path class="cls-1" d="m42.48,70.24h43.33v-8.47h-43.33v8.47Zm43.69.71h-44.04c-.2,0-.35-.16-.35-.35v-9.18c0-.2.16-.35.35-.35h44.04c.2,0,.35.16.35.35v9.18c0,.2-.16.35-.35.35"/>
  <path class="cls-1" d="m105.74,80.27H21.78c-.2,0-.35-.16-.35-.35s.16-.35.35-.35h83.95c.2,0,.35.16.35.35s-.16.35-.35.35"/>
  <path class="cls-1" d="m118.66,27.59H8.4c-.2,0-.35-.16-.35-.35s.16-.35.35-.35h110.25c.2,0,.35.16.35.35s-.16.35-.35.35"/>
  <path class="cls-1" d="m33.53,18.62h-12.85c-.39,0-.71-.32-.71-.71s.32-.71.71-.71h12.85c.39,0,.71.32.71.71s-.32.71-.71.71"/>
  <path class="cls-1" d="m34.8,46h9.18v-9.18h-9.18v9.18Zm9.54.71h-9.89c-.2,0-.35-.16-.35-.35v-9.89c0-.2.16-.35.35-.35h9.89c.2,0,.35.16.35.35v9.89c0,.2-.16.35-.35.35"/>
  <path class="cls-1" d="m58.79,47.53h9.18v-9.18h-9.18v9.18Zm9.54.71h-9.89c-.2,0-.35-.16-.35-.35v-9.89c0-.2.16-.35.35-.35h9.89c.2,0,.35.16.35.35v9.89c0,.2-.16.35-.35.35"/>
  <path class="cls-1" d="m82.77,46h9.18v-9.18h-9.18v9.18Zm9.54.71h-9.89c-.2,0-.35-.16-.35-.35v-9.89c0-.2.16-.35.35-.35h9.89c.2,0,.35.16.35.35v9.89c0,.2-.16.35-.35.35"/>
  <polygon class="cls-1" points="87.71 54.51 39.04 54.51 39.04 46.36 39.75 46.36 39.75 53.8 87.01 53.8 87.01 46.36 87.71 46.36 87.71 54.51"/>
  <rect class="cls-1" x="63.02" y="48.42" width=".71" height="14.15"/>
</svg>