<?xml version="1.0" encoding="UTF-8"?><svg id="a" xmlns="http://www.w3.org/2000/svg" viewBox="0 0 50 50"><defs><style>.b{fill:#dbdbdb;}</style></defs><path class="b" d="M50,31.15c-.39.85-1.06,1.13-1.97,1.09-1.28-.05-2.56-.01-3.83-.01-.14-1.07-.21-2.11-.41-3.12-.82-4.13-2.89-7.56-5.97-10.4-3.77-3.48-8.26-5.46-13.31-6.21-4.14-.61-8.2-.26-12.19,1.01-.09.03-.18.04-.43.1.35-1.04.59-2,.98-2.89,1.57-3.65,4.27-6.25,7.71-8.13C23.24,1.13,26.09.32,29.12.08c.13,0,.25-.05.37-.08.94,0,1.89,0,2.83,0,.14.03.28.07.43.08,3.7.3,7.12,1.42,10.19,3.53,3.27,2.25,5.6,5.21,6.62,9.09.2.76.3,1.56.44,2.34v2.15c-.03.14-.07.28-.09.42-.24,2.24-.99,4.29-2.21,6.17-.45.69-.96,1.34-1.47,2.04.49.57.99,1.14,1.47,1.73.77.94,1.53,1.88,2.29,2.82v.78Z"/><path class="b" d="M4.15,43.25c-.64-.92-1.31-1.76-1.86-2.68-3.81-6.43-2.77-14.04,2.58-19.25,3.4-3.31,7.5-5.21,12.16-5.9,5.21-.77,10.18.02,14.82,2.56,3.66,2,6.53,4.8,8.15,8.7,2.15,5.18,1.51,10.14-1.73,14.65-3.5,4.88-8.36,7.64-14.29,8.55-.66.1-1.33.12-2,.12-6.77,0-13.54,0-20.31,0-.48,0-.9-.09-1.25-.44-.58-.58-.57-1.41.03-2.1,1.23-1.41,2.46-2.82,3.69-4.21ZM14.65,32.23c0-1.61-1.3-2.93-2.91-2.94-1.61,0-2.93,1.29-2.95,2.9-.01,1.63,1.31,2.96,2.93,2.96,1.6,0,2.92-1.32,2.92-2.92ZM23.53,32.22c0-1.61-1.32-2.92-2.92-2.92-1.61,0-2.93,1.3-2.93,2.91,0,1.63,1.32,2.96,2.95,2.95,1.6,0,2.91-1.33,2.91-2.93ZM29.48,29.3c-1.61,0-2.92,1.32-2.92,2.92,0,1.61,1.31,2.93,2.91,2.93,1.62,0,2.96-1.32,2.95-2.95,0-1.6-1.33-2.91-2.94-2.91Z"/></svg>