<?xml version="1.0" encoding="UTF-8"?><svg id="a" xmlns="http://www.w3.org/2000/svg" viewBox="0 0 249.32 86.02"><defs><style>.b{fill:#ccc;}</style></defs><path class="b" d="M47.09,63.03c.1.53.28.91.53,1.17.26.25.56.44.89.58.34.13.69.23,1.07.31.36.08.71.2,1.04.33.31.15.59.36.79.64.21.26.33.67.36,1.22,0,.13-.07.2-.2.2h-12.95v-23.39c0-4.85-1.38-8.83-4.14-11.95-2.79-3.04-6.41-4.57-10.83-4.57s-7.97,1.51-10.83,4.52c-2.83,3.09-4.24,6.97-4.24,11.65s1.46,8.83,4.39,11.93c2.88,3.07,6.58,4.62,11.08,4.62,2.09,0,4.08-.34,5.97-1.05.97-.36,1.92-.8,2.89-1.33.95-.53,1.94-1.17,2.94-1.91v9.06c-2,1.1-4.03,1.91-6.08,2.42-1.05.26-2.14.44-3.27.58-1.12.13-2.25.2-3.42.2-2.22,0-4.42-.34-6.64-1.02-2.19-.69-4.17-1.66-5.97-2.88-3.37-2.35-5.97-5.26-7.76-8.73-1.79-3.52-2.7-7.43-2.7-11.69,0-7,2.22-12.8,6.64-17.39,4.44-4.55,10.08-6.84,16.91-6.84,4.52,0,8.65,1.12,12.36,3.37,1.87,1.12,3.53,2.5,5,4.14,1.46,1.64,2.65,3.37,3.58,5.2.44.9.85,1.84,1.2,2.83.36.97.63,1.97.82,3.01.38,2.19.58,5.36.58,9.53v15.25Z"/><path class="b" d="M73.34,21.53c2.45-.97,4.67-1.48,6.67-1.55,2-.07,3.8.15,5.34.61,1.56.46,2.88,1.1,3.96,1.91,1.07.81,1.87,1.59,2.42,2.38.56.79.84,1.46.85,2.04.02.58-.26.87-.85.87-.79.03-1.54.05-2.23.05h-3.49c-1.45,0-2.86.07-4.24.2-1.38.12-2.7.35-3.93.64-1.23.31-2.35.72-3.37,1.25-1,.54-1.86,1.2-2.53,2.01-1.22,1.45-2.15,3.25-2.83,5.44-.67,2.19-1.02,4.83-1.02,7.94v14.17c.13,1.22.34,2.15.67,2.81.33.66.69,1.15,1.13,1.5.43.33.87.58,1.32.72.46.15.87.31,1.23.51.38.18.66.46.87.81.21.36.3.9.26,1.64h-19.46c-.07-.77.03-1.33.26-1.69.25-.34.56-.62.94-.81.39-.2.82-.36,1.28-.51.46-.15.92-.41,1.35-.79.43-.39.81-.95,1.1-1.69.31-.74.51-1.79.61-3.17V20.56h7.76v6.94c1.48-2.79,3.45-4.78,5.92-5.97Z"/><path class="b" d="M244.66,63.03c.1.53.28.91.53,1.17.26.25.56.44.89.58.35.13.69.23,1.07.31.36.08.71.2,1.03.33.31.15.59.36.79.64.21.26.33.67.36,1.22,0,.13-.07.2-.2.2h-12.95v-23.39c0-4.85-1.38-8.83-4.14-11.95-2.79-3.04-6.41-4.57-10.83-4.57s-7.97,1.51-10.83,4.52c-2.83,3.09-4.24,6.97-4.24,11.65s1.46,8.83,4.39,11.93c2.88,3.07,6.57,4.62,11.08,4.62,2.09,0,4.08-.34,5.97-1.05.97-.36,1.92-.8,2.89-1.33.95-.53,1.94-1.17,2.94-1.91v9.06c-2.01,1.1-4.03,1.91-6.08,2.42-1.05.26-2.14.44-3.27.58-1.12.13-2.25.2-3.42.2-2.22,0-4.42-.34-6.64-1.02-2.19-.69-4.17-1.66-5.97-2.88-3.37-2.35-5.97-5.26-7.76-8.73-1.79-3.52-2.7-7.43-2.7-11.69,0-7,2.22-12.8,6.64-17.39,4.44-4.55,10.08-6.84,16.91-6.84,4.52,0,8.65,1.12,12.36,3.37,1.88,1.12,3.53,2.5,5,4.14,1.46,1.64,2.65,3.37,3.58,5.2.44.9.85,1.84,1.2,2.83.36.97.62,1.97.82,3.01.38,2.19.58,5.36.58,9.53v15.25Z"/><path class="b" d="M103.87,16.96c-1.35-.23-2.57-.61-3.67-1.15-.92-.46-1.84-1.09-2.74-1.91-.44-.41-.81-.89-1.1-1.43-.46-.87-.63-1.87-.63-2.85V2.79c1.31-.02,2.51.15,3.62.54.92.35,1.82.95,2.71,1.83.89.87,1.48,2.19,1.81,3.94v7.86h0ZM104.16,42.67v25.23c-.07,2.35-.28,4.59-.62,6.71-.16.89-.36,1.82-.61,2.76-.23.95-.53,1.86-.89,2.73-.34.85-.77,1.68-1.25,2.45-.49.77-1.04,1.41-1.64,1.92-1.73,1.41-3.73,2.5-6,3.24-2.25.74-5.05,1.1-8.35,1.1h-12.33c.23-1.89.64-3.37,1.28-4.44.62-1.05,1.43-1.84,2.4-2.38.99-.53,2.12-.87,3.45-1.03,1.32-.15,2.76-.28,4.32-.38,1.32-.1,2.56-.26,3.76-.48.99-.2,1.99-.44,2.97-.76,1-.3,1.74-.69,2.22-1.17,1-.97,1.73-2.14,2.17-3.5.44-1.37.67-3.01.67-4.93V20.95c1.68.03,3.16.59,4.44,1.69.54.48,1.07,1.09,1.58,1.82.53.74.97,1.66,1.36,2.79.38,1.12.67,2.45.85,4,.2,1.54.26,3.32.2,5.34v6.07Z"/><path class="b" d="M150.98,52.2c1.46-1.35,2.78-2.32,3.91-2.91,1.15-.59,2.1-.99,2.88-1.18.89-.23,1.68-.28,2.35-.15-.28,1.68-.66,3.21-1.1,4.6-.44,1.4-.99,2.7-1.61,3.89-.62,1.22-1.35,2.33-2.17,3.4-.82,1.05-1.76,2.07-2.83,3.02-4.26,3.9-9.43,5.84-15.5,5.84-2.09,0-4.14-.3-6.16-.87-2.05-.54-3.96-1.36-5.72-2.45-3.7-2.25-6.61-5.24-8.73-9.01-2.09-3.72-3.12-7.78-3.12-12.18,0-1.63.15-3.22.46-4.77.3-1.54.74-3.04,1.31-4.52,1.2-2.93,2.93-5.57,5.21-7.96,2.27-2.3,4.85-4.06,7.69-5.29,2.99-1.22,6.05-1.82,9.16-1.82,4.75,0,9.01,1.25,12.75,3.75,3.76,2.53,6.79,6.18,9.11,10.93l-30.77,17.05c-.33-1.41-.31-2.83.05-4.24.3-1.22.92-2.52,1.91-3.9.97-1.38,2.56-2.66,4.78-3.85.16-.1.46-.28.89-.54.45-.25.97-.56,1.59-.9.63-.36,1.32-.74,2.06-1.17.72-.41,1.46-.82,2.2-1.25,1.78-.99,3.7-2.09,5.79-3.27-1.38-1.55-2.96-2.71-4.72-3.52-1.71-.8-3.62-1.2-5.74-1.2-4.21,0-7.76,1.58-10.63,4.72-2.89,3.14-4.34,7.04-4.34,11.65s1.45,8.5,4.34,11.61c2.88,3.17,6.43,4.77,10.63,4.77s7.35-1.31,10.03-3.94c.89-.77,1.61-1.53,2.14-2.24.53-.72,1.17-1.43,1.91-2.1Z"/><path class="b" d="M185.32,20.43c1.31.14,2.38.55,3.22,1.24,1.03.84,1.82,1.74,2.37,2.75.64,1.15,1.09,2.46,1.35,3.94h-6.94v-7.93h0ZM185.32,67.35v-8.15c.82.13,1.7.2,2.65.23.51-.13.85-.38,1.03-.72.18-.36.31-.72.41-1.08.1-.38.25-.71.46-1.02.2-.3.62-.46,1.27-.49.1.03.15.07.15.13v11.23h-3.8c-.33,0-.66-.02-1.02-.05h-.1c-.36-.02-.71-.04-1.05-.07ZM179.4,20.33h1c.61.03,1.2.05,1.79.05h2.25c.3,0,.59.02.87.05v7.93h-5.97l.05-8.04h0ZM185.32,59.2v8.15c-5.07-.41-8.96-1.82-11.7-4.22-3.3-2.89-4.96-7.25-4.96-13.1V15.26c.03-1.79.48-3.24,1.35-4.31.87-1.09,1.82-1.91,2.89-2.48,1.22-.67,2.61-1.13,4.19-1.4v41.47c0,3.78.92,6.54,2.75,8.28,1.28,1.21,3.11,2,5.49,2.37Z"/></svg>