<?xml version="1.0" encoding="UTF-8"?><svg id="a" xmlns="http://www.w3.org/2000/svg" viewBox="0 0 219.63 96.97"><defs><style>.b{fill:#ccc;}</style></defs><path class="b" d="M202.09,93.6c-.26,1.61-.09,1.77,1.36,1.9l-.11.69h-4.89l.11-.69c1.47-.13,1.71-.29,1.97-1.9l1.84-11.41c.27-1.69.14-1.74-1.32-1.85l.11-.66c1.21-.16,2.58-.58,3.32-.87l-2.38,14.79ZM191.6,93.6c-.26,1.61-.09,1.77,1.36,1.9l-.11.69h-4.89l.11-.69c1.47-.13,1.71-.29,1.97-1.9l1.84-11.41c.27-1.69.14-1.74-1.32-1.85l.11-.66c1.21-.16,2.58-.58,3.32-.87l-2.38,14.79ZM177.76,91.38c-.98.42-1.57.9-1.71,1.8-.2,1.24.62,1.85,1.34,1.85.63,0,1.63-.53,2.13-.98l.6-3.75-2.37,1.08ZM181.7,94.87c.27,0,.62-.13.87-.29l.13.71-2.02,1.19c-.27,0-.71-.21-.89-.45-.26-.34-.35-.69-.35-1.11-1.05.66-2.23,1.56-3,1.56-1.52,0-2.4-1.43-2.14-3.01.19-1.16.9-2.01,2.25-2.46,1.43-.5,3.18-1.19,3.73-1.58l.06-.34c.29-1.8-.37-2.8-1.53-2.8-.48,0-.88.21-1.14.5-.34.34-.59.85-.93,1.56-.13.37-.4.53-.71.53-.36,0-.84-.45-.75-1.03.06-.34.39-.63.88-.98.63-.45,2.2-1.4,3.55-1.69.65,0,1.32.21,1.7.66.61.71.69,1.69.49,2.93l-.74,4.62c-.18,1.11.15,1.48.56,1.48ZM169.87,86.15c-1.16.18-1.4.48-2.11,1.87-.99,1.98-2.46,5.1-4,8.4h-.65c-.48-2.72-.98-5.12-1.48-7.71-1.23,2.43-2.55,4.94-3.92,7.71h-.68c-.33-2.88-.68-5.68-1.14-8.63-.2-1.29-.38-1.51-1.45-1.64l.11-.69h4.48l-.11.69c-1.36.21-1.48.37-1.33,1.53.2,1.9.46,3.86.71,5.76h.05c1.23-2.38,2.45-4.91,3.89-7.84h.63c.4,2.59.89,5.26,1.4,7.92h.05c.76-1.72,1.73-3.83,2.49-5.7.53-1.35.41-1.48-1.01-1.66l.11-.69h4.07l-.11.69ZM144.73,86.13c-1.08,0-2.24,1.03-2.96,2.98,1.3.03,2.6,0,3.99-.05.44-.03.61-.18.66-.53.21-1.29-.43-2.4-1.69-2.4ZM148.14,88.92c-.09.55-.22.74-.62.85-.37.08-3.26.32-6.02.4-.51,3.33,1.05,4.7,2.59,4.7.94,0,1.83-.42,2.78-1.24l.29.61c-1.74,1.82-3.28,2.24-3.98,2.24-2.68,0-3.9-2.46-3.45-5.23.27-1.66,1.04-3.2,2.14-4.3,1.07-1.11,2.38-1.77,3.52-1.77,1.86,0,3.06,1.8,2.75,3.75ZM134.83,86.36c-.07.45-.39.9-.86,1.14-.26.11-.45.08-.57-.05-.25-.37-.47-.5-.84-.5-.63,0-1.58.85-2.3,2.3l-.7,4.33c-.26,1.64-.19,1.8,1.55,1.93l-.11.69h-5.04l.11-.69c1.49-.13,1.66-.29,1.92-1.9l.8-4.96c.27-1.66.18-1.74-1.12-1.9l.1-.63c1.07-.18,2.06-.5,3.15-1l-.43,2.67h.05c.87-1.21,2.03-2.59,3.17-2.59.8,0,1.2.63,1.11,1.19ZM118.77,93.57c-.26,1.64-.12,1.8,1.31,1.93l-.11.69h-4.8l.11-.69c1.47-.13,1.66-.29,1.93-1.93l.81-5.04c.23-1.45.21-1.58-1.18-1.8l.1-.63c1.17-.21,2.21-.53,3.2-.98l-1.36,8.45ZM120.83,81.79c-.1.63-.65,1.21-1.28,1.21-.58,0-.99-.58-.89-1.21.11-.71.71-1.24,1.31-1.24s.98.53.86,1.24ZM110.98,83.99l-.73.05c-.03-1.03-.06-1.45-.26-1.98-.23-.66-.66-.84-2.3-.84h-1.9c-.65,0-.74.08-.85.77l-.93,5.76h2.39c2,0,2.1-.18,2.65-1.77h.72l-.76,4.73h-.72c0-1.74-.04-1.98-2.04-1.98h-2.39l-.71,4.38c-.33,2.06-.14,2.19,1.94,2.32l-.12.77h-6l.12-.77c1.85-.11,2.04-.26,2.38-2.32l1.56-9.69c.33-2.06.18-2.17-1.55-2.32l.12-.74h9.76c-.13.98-.27,2.46-.37,3.64Z"/><path class="b" d="M146.37,31.51c-3.68,0-5.92,2.32-7.41,5.5-1.89,4.03-2.24,9.63-2.24,14.01,0,5.03.54,11.68,3.44,15.97,1.48,2.2,3.5,3.26,6.15,3.26,1.6,0,3.15-.36,4.42-1.37,1.86-1.47,2.99-3.87,3.7-6.08,1.14-3.57,1.4-7.78,1.4-11.51s-.16-8.98-1.42-12.65c-.67-1.95-1.74-4.29-3.42-5.58-1.36-1.05-2.9-1.55-4.62-1.55M203.04,69.28v-8.32c0-.63,0-2.42-.24-2.99-.15-.35-.58-.68-.89-.87-.57-.35-1.22-.47-1.88-.47h-1.03c-.61,0-1.11-.5-1.11-1.11v-1.13c0-.61.5-1.11,1.11-1.11h19.52c.61,0,1.11.5,1.11,1.11v1.13c0,.58-.45,1.07-1.03,1.11-.67.05-2.04.18-2.63.52-.43.25-.7.7-.89,1.19-.18.46-.18,2.1-.18,2.61v9.08c0,.44-.23.81-.63,1-2.63,1.28-5.39,2.26-8.24,2.91-2.91.67-5.89.98-8.88.98-3.33,0-6.87-.42-9.93-1.8-2.58-1.16-4.93-2.72-6.97-4.68-1.97-1.89-3.58-4.08-4.74-6.56-1.53-3.29-2.17-6.84-2.17-10.46,0-6.68,2.09-12.59,6.66-17.49,4.53-4.86,10.22-7.18,16.85-7.18,1.88,0,3.78.14,5.62.53,1.44.3,3.06.97,4.42,1.53.65.27,2.4,1.04,3.02,1.12.31,0,.57-.16.79-.36.44-.41.82-1.48,1-2.04.15-.47.57-.78,1.06-.78h1.03c.61,0,1.11.5,1.11,1.11v15.45c0,.61-.5,1.11-1.11,1.11h-1.03c-.49,0-.91-.31-1.06-.78-1.08-3.42-2.8-6.74-5.61-9.06-2.32-1.92-4.95-3.03-7.98-3.03-2.57,0-4.85.72-6.75,2.47-2.06,1.9-3.24,4.48-3.92,7.17-.81,3.24-1.21,6.55-1.21,9.88,0,3.59.32,7.29,1.31,10.75.7,2.45,1.89,4.85,3.99,6.39,1.93,1.43,4.14,2.01,6.53,2.01.92,0,1.83-.12,2.73-.32.76-.17,1.52-.39,2.25-.66ZM146.02,27.23c6.39-.24,12.05,1.74,16.41,6.47,4.4,4.77,6.3,10.58,6.3,17.03,0,5.58-1.46,10.76-4.68,15.33-4.27,6.06-10.28,8.88-17.65,8.88s-13.32-2.58-17.67-8.47c-3.42-4.63-4.91-9.96-4.91-15.7,0-6.48,1.95-12.29,6.39-17.05,4.25-4.55,9.58-6.74,15.8-6.49ZM98.68,69.06c.62.21,2.51.21,3.14.21h3.33c1.62,0,3.32-.25,4.74-1.08,1.4-.81,2.47-2.09,3.27-3.47,1.28-2.2,2.16-5.1,2.82-7.55.13-.49.56-.83,1.07-.83h1.27c.33,0,.61.12.82.37.22.24.31.53.28.86l-1.52,15.38c-.06.57-.53,1-1.11,1h-35.58c-.61,0-1.11-.5-1.11-1.11v-1.13c0-.61.5-1.11,1.11-1.11h1.32c.73,0,1.58-.11,2.24-.53.35-.21.57-.62.72-1.04.25-.6.24-3.01.24-3.69v-28.97c0-.75.01-3.16-.25-3.84-.16-.4-.53-.72-.88-.95-.58-.38-1.4-.46-2.07-.46h-1.32c-.61,0-1.11-.5-1.11-1.11v-1.13c0-.61.5-1.11,1.11-1.11h21.4c.61,0,1.11.5,1.11,1.11v1.13c0,.61-.5,1.11-1.11,1.11h-1.76c-.74,0-1.58.11-2.25.53-.37.22-.61.65-.77,1.04-.24.6-.24,3.01-.24,3.69v28.04c0,.85,0,3.13.28,3.91.14.36.42.58.77.74Z"/><path class="b" d="M82.09,2.9l-30.15,43.5,29.91,42.84s3.09,2.67,5.88,3.35c2.46.6,3.14,3.14,3.32,4.37h-29.83s-1.56-3.52,6.79-5.95l-23.49-33.91-23.3,33.63c.31.09.64.18.97.28,8.05,2.43,6.55,5.95,6.55,5.95H0c.17-1.23.83-3.77,3.2-4.37,2.19-.55,5.15-2.46,6.45-4.35L62.33,11.34c2.97-4.34,5.89-9.2,11.5-10.36,4.8-.99,8.26,1.92,8.26,1.92M6.97,2.9l28.54,41.19,7.34-10.71L23.86,6.17C15.75-5.44,6.97,2.9,6.97,2.9Z"/></svg>