<?xml version="1.0" encoding="UTF-8"?><svg id="a" xmlns="http://www.w3.org/2000/svg" viewBox="0 0 276.42 87.5"><defs><style>.b{fill:#ccc;}</style></defs><path class="b" d="M42.15,23.04c-2.38-1.39-5.01-2.26-7.89-2.61l-2.01,1.31c-2.45,1.59-4.7,3.42-6.73,5.47,1.79-.77,3.71-1.15,5.77-1.15,2.85,0,5.4.68,7.66,2.06,2.26,1.37,4.04,3.21,5.34,5.53,1.3,2.32,1.94,4.94,1.94,7.89s-.65,5.52-1.94,7.85c-1.29,2.34-3.07,4.19-5.34,5.53-2.27,1.35-4.81,2.02-7.66,2.02s-5.32-.67-7.55-2.02c-2.24-1.34-3.99-3.19-5.26-5.53-1.27-2.34-1.91-4.95-1.91-7.85,0-.46.01-.9.05-1.34-1.4,3.05-2.5,6.21-3.34,9.39,1.13,2.23,2.34,4.07,3.44,5.52,1.68,2.29,3.87,4.13,6.56,5.53,2.69,1.4,5.69,2.1,9,2.1,3.86,0,7.32-.92,10.37-2.78,3.05-1.85,5.45-4.39,7.21-7.59,1.75-3.2,2.63-6.81,2.63-10.82,0-4.07-.93-7.7-2.78-10.9-1.86-3.21-4.37-5.74-7.55-7.59Z"/><path class="b" d="M93.89,22.99c-3.15-1.83-6.76-2.74-10.82-2.74-4.12,0-7.77.92-10.94,2.74-3.18,1.83-5.68,4.35-7.51,7.55-1.83,3.2-2.74,6.86-2.74,10.98,0,4.07.92,7.7,2.74,10.9,1.83,3.21,4.34,5.72,7.51,7.55,3.18,1.83,6.82,2.74,10.94,2.74,4.06,0,7.68-.91,10.86-2.74,3.18-1.83,5.68-4.34,7.51-7.55,1.83-3.2,2.74-6.83,2.74-10.9-.05-4.12-.99-7.78-2.82-10.98-1.84-3.2-4.33-5.72-7.48-7.55ZM95.94,49.42c-1.27,2.31-3.02,4.14-5.26,5.48-2.24,1.35-4.78,2.02-7.62,2.02s-5.4-.67-7.67-2.02c-2.26-1.34-4.04-3.18-5.34-5.48-1.3-2.32-1.94-4.95-1.94-7.89,0-2.95.65-5.59,1.94-7.93,1.3-2.34,3.07-4.18,5.34-5.53,2.27-1.35,4.81-2.02,7.67-2.02s5.38.67,7.62,2.02c2.23,1.35,3.99,3.19,5.26,5.53,1.27,2.34,1.91,4.98,1.91,7.93,0,2.95-.63,5.58-1.91,7.89Z"/><path class="b" d="M140.81,21.32c-1.35-.76-3.31-1.14-5.91-1.14-2.94,0-5.65.71-8.12,2.14-1.9,1.1-3.52,2.51-4.84,4.22v-2.7c0-1.02-.27-1.8-.8-2.36-.53-.55-1.31-.84-2.33-.84s-1.8.28-2.36.84c-.56.56-.84,1.35-.84,2.36v35.31c0,1.02.28,1.8.84,2.36.55.55,1.34.84,2.36.84s1.8-.28,2.33-.84c.53-.56.8-1.35.8-2.36v-22.64c0-2.34.68-4.34,2.06-6.02,1.37-1.68,3.21-2.89,5.53-3.62,2.31-.73,4.97-.92,7.97-.57.81.11,1.54.16,2.17.16s1.19-.16,1.68-.46c.48-.31.8-.82.95-1.53.35-1.34-.14-2.38-1.49-3.14Z"/><path class="b" d="M176.19,41.1c-2.21-1.19-5.22-2.12-9.04-2.78-2.8-.51-4.94-1.08-6.44-1.72-1.5-.63-2.54-1.35-3.13-2.17-.59-.81-.88-1.78-.88-2.89,0-1.63.81-2.96,2.44-4.01,1.63-1.04,3.76-1.56,6.41-1.56,2.08,0,3.94.32,5.56.95,1.63.64,3.07,1.64,4.35,3.01.6.66,1.35,1.07,2.25,1.22.89.15,1.67,0,2.33-.46.76-.46,1.18-1.08,1.26-1.87.07-.79-.17-1.54-.73-2.25-1.52-1.93-3.53-3.47-6.02-4.61-2.49-1.14-5.44-1.72-8.85-1.72-2.69,0-5.2.43-7.5,1.3-2.32.86-4.19,2.16-5.61,3.89-1.42,1.73-2.14,3.89-2.14,6.48,0,2.85,1.18,5.28,3.54,7.32,2.36,2.03,6.11,3.48,11.25,4.35,3.96.66,6.78,1.57,8.42,2.74,1.65,1.17,2.48,2.61,2.48,4.34-.06,1.78-.9,3.27-2.56,4.46-1.65,1.2-4.23,1.79-7.74,1.79-2.39,0-4.58-.39-6.56-1.18-1.98-.79-3.54-1.84-4.66-3.16-.55-.61-1.26-.97-2.1-1.07-.84-.11-1.67.15-2.47.76-.71.56-1.12,1.27-1.22,2.14-.1.87.16,1.63.77,2.29,1.78,1.93,4.15,3.42,7.13,4.46,2.98,1.04,6.04,1.56,9.19,1.56,3.36,0,6.25-.53,8.69-1.6,2.44-1.07,4.34-2.51,5.68-4.31,1.34-1.8,2.02-3.9,2.02-6.29,0-1.94-.47-3.69-1.41-5.26-.94-1.58-2.52-2.97-4.73-4.16Z"/><path class="b" d="M227.16,20.63c-.97,0-1.75.29-2.33.88-.59.58-.88,1.36-.88,2.32v22.19c0,2.08-.55,3.93-1.68,5.53-1.12,1.6-2.64,2.87-4.57,3.81-1.94.94-4.09,1.41-6.48,1.41-2.49,0-4.72-.5-6.71-1.48-1.99-.99-3.56-2.47-4.73-4.42-1.17-1.96-1.75-4.48-1.75-7.59v-19.44c0-.91-.31-1.67-.92-2.28-.6-.61-1.37-.92-2.28-.92s-1.68.31-2.29.92c-.61.61-.91,1.37-.91,2.28v19.44c0,4.22.81,7.77,2.44,10.68,1.62,2.89,3.85,5.1,6.67,6.6s6.03,2.25,9.64,2.25c3.3,0,6.3-.73,9-2.21,1.77-.97,3.29-2.15,4.57-3.57v2.05c0,1.02.29,1.81.88,2.4.58.58,1.36.87,2.33.87.96,0,1.75-.29,2.36-.87.61-.59.92-1.39.92-2.4V23.83c0-.96-.31-1.74-.92-2.32-.6-.59-1.39-.88-2.35-.88Z"/><path class="b" d="M275.65,57.77l-15.53-19.12,14.84-13.36c.66-.61,1.02-1.28,1.07-2.02.05-.73-.23-1.44-.84-2.1-.61-.66-1.28-1.02-2.02-1.07-.73-.05-1.44.22-2.1.84l-20.59,18.6V5.91c0-.91-.29-1.66-.88-2.25-.58-.59-1.36-.88-2.32-.88s-1.67.29-2.25.88-.87,1.34-.87,2.25v53.3c0,.92.29,1.67.87,2.25.59.58,1.34.87,2.25.87.96,0,1.74-.29,2.32-.87.59-.59.88-1.34.88-2.25v-11.9s5.1-4.6,5.1-4.6l15.33,18.86c.56.71,1.24,1.1,2.02,1.18.79.07,1.54-.19,2.25-.8.76-.61,1.17-1.3,1.22-2.06.05-.75-.2-1.47-.76-2.13Z"/><path class="b" d="M10.94,90.29S-4.74,69.55,1.44,48.07c4.41-15.29,16.39-23.81,19.21-25.24,2.26-1.14,4.55-1.76,4.55-1.76,2.48-.67,4.62-.81,6.08-.81-1.89,1.23-5.41,3.72-8.88,7.68C1.98,51.24,10.94,90.29,10.94,90.29Z"/></svg>