<?xml version="1.0" encoding="UTF-8"?>
<svg id="Layer_1" data-name="Layer 1" xmlns="http://www.w3.org/2000/svg" viewBox="0 0 27.1 26.53">
  <defs>
    <style>
      .cls-1 {
        fill: #616465;
      }

      .cls-1, .cls-2, .cls-3, .cls-4, .cls-5 {
        stroke-width: 0px;
      }

      .cls-2 {
        fill: #3b4b62;
      }

      .cls-3 {
        fill: #1d3b53;
      }

      .cls-4 {
        fill: #243d55;
      }

      .cls-5 {
        fill: #8a7b5b;
      }
    </style>
  </defs>
  <g>
    <path class="cls-4" d="m3.42,22.12c.57,0,1.15.02,1.7-.2.22-.09.33.1.45.2,2.3,1.97,5.01,2.81,7.99,2.79,5.7-.03,10.86-4.33,11.94-9.92.25-1.31.21-2.61-.06-3.91-.05-.23-.04-.42.07-.64.37-.73.56-1.51.58-2.47.36.59.47,1.12.6,1.63,2.06,8.34-3.76,15.59-11.21,16.75-4.66.73-8.65-.81-11.97-4.12-.03-.03-.05-.08-.07-.12h-.01Z"/>
    <path class="cls-5" d="m22.22,10.66c.06.04.11.07.17.11.03.02.05.04.08.06,0-.04,0-.08,0-.12-.05-.35-.03-.72-.2-1.03-.11-.2.15-.25.07-.4l-.02-.02h.02c.63,2.03.57,4.04-.05,6.04-.04.13-.14.25-.07.39,0,0,0,0,0,0-.15.08-.16.23-.19.37-.1.18-.25.34-.18.57h0c-.14,0-.17.07-.1.19h0c-.14,0-.16.07-.1.19h0c-.14,0-.17.07-.1.19h0c-.15-.03-.15.1-.18.18-.55.89-1.15,1.75-1.96,2.44-.02-.02-.05-.04-.07-.07.33-.38.68-.75.98-1.24-.56-.07-1.12-.51-1.57.18-.03-.03-.06-.05-.09-.08.09-.13.17-.25.29-.42-.47-.15-.93-.3-1.38-.45-.17-.06-.25.06-.35.16-.22.22-.45.43-.67.65-.03-.03-.05-.06-.08-.09.22-.26.44-.52.7-.83-.52-.19-1.02-.38-1.52-.56-.15-.06-.22.08-.29.17-.18.22-.36.45-.53.67-.03-.02-.07-.05-.1-.07.15-.22.29-.45.45-.66.11-.15.17-.25-.07-.34-.56-.22-1.12-.45-1.68-.69-.19-.08-.28,0-.37.14-.21.32-.43.62-.65.93-.04-.02-.07-.05-.11-.07.19-.32.36-.65.56-.96.11-.18.09-.26-.11-.34-.72-.32-1.44-.66-2.15-1-.21-.1-.25,0-.32.16-.15.37-.18.79-.49,1.1.09-.38.15-.77.28-1.14.09-.27.03-.38-.21-.5-.45-.21-.88-.46-1.31-.7.09-.12.21-.17.35-.17.37.19.75.38,1.11.58.18.1.26.09.32-.13.13-.49.3-.97.45-1.46.11-.2.27-.31.49-.35-.23.63-.44,1.26-.69,1.87-.1.25-.05.35.19.45.7.3,1.39.62,2.07.96.27.14.38.05.49-.18.38-.76.77-1.52,1.17-2.27.15-.27.05-.36-.19-.47-.75-.33-1.49-.69-2.23-1.04.07-.12.16-.21.28-.28.72.33,1.44.65,2.15,1,.24.12.35.07.45-.17.24-.56.48-1.11.75-1.65.11-.23.04-.32-.16-.41-.38-.17-.75-.37-1.13-.55.07-.12.17-.18.3-.19.33.15.67.3,1,.46.15.07.25.07.31-.11.18-.49.44-.94.53-1.46h0c.08.01.09-.04.1-.1.14-.13.32-.2.49-.26.44.28.88.56,1.33.84.08.05.24.19.26.03.06-.44.3-.88.04-1.34.1,0,.2-.01.31-.02.39.33.78.67,1.25,1.07-.08-.43-.13-.75-.19-1.07.14,0,.28,0,.43,0,.06.08.13.16.11.27-.02.02-.04.03-.06.05-.08,0-.25-.28-.23.02.04.42.01.89.39,1.22-.03.03-.05.06-.08.09-.18.13-.21,1.14-.03,1.34.28.32.56.63.88.99.22-.91.04-1.57-.61-2.07-.06-.05-.1-.11-.16-.17.03-.03.06-.05.09-.08.18.18.37.36.55.54.03.05.04.14.13.11.02,0,0-.1,0-.16,0-.05,0-.11.02-.13.1-.08.15.02.15.09,0,.45.2.82.43,1.18-.13.04-.14-.2-.29-.13,0,1.14.09,1.47.55,1.83.11-.59.04-1.17-.26-1.7Zm-8.78,5.13c.64.27,1.24.51,1.84.78.22.1.32.04.44-.15.45-.72.85-1.47,1.24-2.23.09-.17.08-.26-.1-.35-.53-.25-1.06-.5-1.58-.78-.21-.11-.29-.05-.39.14-.43.87-.91,1.72-1.45,2.59Zm2.77-5.4c-.31.68-.6,1.33-.91,1.97-.1.21-.04.29.15.38.5.24,1,.49,1.49.76.22.13.32.09.41-.14.22-.56.44-1.12.68-1.68.08-.19.08-.29-.13-.4-.55-.28-1.09-.58-1.68-.9Zm1.22,3.74c-.11,0-.13.08-.17.15-.41.8-.86,1.58-1.39,2.3-.11.15-.06.2.09.25.38.14.75.28,1.12.44.23.1.38.1.53-.15.27-.45.59-.87.86-1.32.49-.84.48-.84-.37-1.31-.23-.13-.46-.25-.68-.37Zm2.45-1.48c.04-.14-.05-.2-.15-.26-.38-.23-.77-.46-1.15-.71-.16-.11-.22-.02-.26.11-.2.62-.46,1.21-.74,1.8-.09.18,0,.25.13.32.39.22.78.44,1.17.67.1.06.18.12.25-.04.29-.61.53-1.25.73-1.9Zm-1.17-3.28c0-.12.01-.22-.1-.29-.47-.3-.94-.6-1.41-.9-.14-.09-.18-.02-.22.11-.18.6-.48,1.16-.61,1.78.54.3,1.08.6,1.61.91.16.09.26.09.31-.1.14-.51.28-1.01.42-1.52Zm.64,5.81c-.13-.04-.16.04-.2.1-.38.71-.83,1.38-1.33,2.01-.06.08-.17.19,0,.25.41.15.82.28,1.23.41.14.04.2-.06.26-.14.39-.56.75-1.13,1.06-1.75.04-.08.12-.18.02-.24-.35-.23-.71-.44-1.04-.65Zm.88-2.47c-.15.42-.28.8-.42,1.17-.42,1.06-.42,1.05.56,1.64.2.12.26.08.32-.11.19-.54.39-1.07.58-1.61.05-.15.06-.29-.1-.41-.31-.22-.62-.45-.94-.69Zm.12-2.18c.04-.1-.08-.19-.19-.27-.21-.16-.41-.33-.62-.49-.54-.41-.55-.42-.68.27-.08.44-.48.92-.23,1.29.24.35.76.51,1.14.78.22.15.26.05.3-.13.09-.46.18-.91.28-1.44Zm-.96,7.53c1.35.45.99.44,1.63-.56.07-.12.14-.24.2-.37.32-.62.32-.61-.29-.97-.16-.1-.25-.13-.35.07-.32.64-.73,1.22-1.18,1.82Zm1.97-4.8c.47-1.26.2-2.12-.79-2.53-.02.49-.12.96-.22,1.43-.03.14-.1.28.08.41.32.22.61.46.92.7Zm.23.51c-.19.51-.35.99-.54,1.46-.25.62-.23.68.35,1.03.16.1.21.06.26-.09.13-.36.27-.72.38-1.09.23-.76.23-.76-.45-1.31Zm-1.24-3.75c.16-1.3-.15-1.86-1.17-2.25-.03.34-.06.68-.11,1.01-.02.17,0,.29.16.4.37.26.72.53,1.12.84Zm1.55,2c-.05.33-.05.62-.15.87-.23.59.1.9.52,1.22.33-1.55.32-1.28-.37-2.09Z"/>
    <path class="cls-5" d="m8.51,4.05c.38.09.74-.04,1.11-.11,0,.26.22.18.34.17.43-.02.88,0,1.27.07.64.12,1.23.44,1.89.15.06.12-.21.2-.05.27.3.13.62.2.93.28.3.09.62.34.93-.18-.01.26-.2.44.06.53.8.27,1.55.66,2.31,1.03.05-.14.08-.25.12-.35.14-.37.05-.59-.35-.76-1.15-.49-2.31-.96-3.54-1.22-.31-.07-.68-.03-.94-.28.44.04.88.08,1.31.12h-.01c.12.16.32.15.49.19,1.96.55,3.78,1.39,5.34,2.73.17.15.45.16.51.43-.15-.05-.3-.09-.45-.14-.16-.22-.38-.37-.66-.53v.4c-.06,0-.13,0-.19,0,.03-.61-.37-1.02-1.24-1.28-.31.59-.14,1.01.48,1.24.01,0,.02.02.03.04-.34.1-.71-.05-1.05.11.18-.39,0-.58-.36-.72-.43-.17-.84-.39-1.27-.57-.88-.37-.88-.36-1.32.48-.11.21-.07.27.13.36.58.25,1.18.48,1.72.82-.07.1-.18.09-.28.09-.11-.05-.23-.1-.34-.15-.48-.21-1-.69-1.42-.56-.45.15-.51.89-.8,1.33-.29.44-.1.61.31.71-.1.13-.25.16-.4.17-.34-.12-.43.07-.44.35h0c-.12.01-.1.1-.1.18-.19.13-.32.36-.59.37.13-.31.26-.63.41-.93.08-.16.08-.23-.11-.3-.54-.2-1.07-.42-1.59-.65-.17-.07-.25-.04-.33.11-.29.58-.57,1.17-.87,1.74-.1.19-.06.26.14.33.46.18.91.39,1.37.58-.06.16-.21.21-.36.24-.38-.15-.77-.31-1.15-.46-.1-.04-.22-.14-.3.05-.23.61-.55,1.19-.62,1.86-.12.05-.24.09-.37.14.14-.68.39-1.33.64-1.98.08-.2.11-.32-.15-.41-.38-.13-.75-.29-1.11-.46-.25-.12-.36-.05-.43.2-.13.44-.33.87-.43,1.32-.32,1.35-.49.94.73,1.65-.1.12-.23.15-.38.14-.06-.04-.12-.09-.19-.12-.16-.07-.32-.3-.46-.2-.15.1-.12.36-.06.55-.08,0-.17.02-.25.02-.01-.29.19-.64-.04-.84-.36-.33-.81-.57-1.26-.88-.15.61-.19,1.16-.23,1.71-.04-.02-.09-.05-.13-.07,0-.39-.02-.78.09-1.16.14-.48,0-.83-.43-1.08-.13-.07-.24-.18-.38-.28-.27.71-.28,1.44-.41,2.2-.65-2.83,3.01-8.88,5.5-9.17-.04.19-.29.16-.35.34-.04.01-.09.02-.03.07,0,0,.03-.03.05-.05Zm4.09,4.29c.09.02.13-.1.18-.19.26-.48.5-.96.78-1.43.1-.18.11-.27-.1-.34-.45-.15-.91-.31-1.36-.47-.16-.06-.29-.05-.4.12-.3.45-.6.9-.9,1.35-.07.1-.12.2.03.26.57.23,1.15.45,1.78.7Zm-3.59,1.52c.14.06.16-.08.19-.15.27-.61.56-1.21.9-1.78.09-.15.06-.21-.1-.26-.41-.14-.82-.28-1.23-.44-.16-.06-.27-.02-.35.12-.32.55-.64,1.1-.89,1.68-.05.11-.09.21.05.26.48.19.95.38,1.43.56Zm-2.78,2.24c.09-.38.16-.75.26-1.13.1-.39.19-.79.36-1.15.15-.33.06-.44-.25-.56-.98-.38-1.01-.4-1.31.61-.54,1.78-.7,1.18.84,2.21.02.02.06.01.1.02Zm5.32-6.36c-.46-.11-.88-.21-1.3-.31-.18-.04-.33-.04-.46.12-.31.39-.62.77-.94,1.15-.13.15-.1.24.09.3.4.13.8.25,1.19.39.18.07.27,0,.37-.15.32-.49.67-.96,1.05-1.5Zm-3.33,1.31c-.38-.11-.7-.21-1.03-.31-.15-.04-.28-.06-.4.12-.35.51-.65,1.05-.93,1.6-.03.07-.11.16-.02.2.4.15.81.29,1.22.42.08.03.11-.09.14-.16.28-.63.62-1.24,1.02-1.86Zm-3.54,4.1c.18-.75.35-1.43.64-2.08.1-.22.08-.35-.17-.39-.24-.03-.51-.46-.71.03-.2.48-.38.98-.57,1.46-.07.17-.04.3.1.41.23.18.45.36.72.57Zm2.43-4.67c.38.1.75.19,1.12.3.14.04.2-.03.27-.11.36-.44.72-.88,1.08-1.32-1.22-.36-1.66-.16-2.47,1.13Zm4.92-.86c.55.2,1.06.38,1.56.56.12.04.23.09.32-.06.16-.25.32-.49.48-.74.08-.11.03-.17-.07-.2-.49-.14-.98-.39-1.47-.38-.35,0-.55.49-.83.82Zm-5.39.99c-.86-.19-.86-.19-1.3.49-.19.28-.37.57-.52.87-.05.09-.31.27,0,.34.26.06.57.44.8.05.33-.57.64-1.16,1.04-1.75Zm5.85-1.91c-1.16-.48-1.48-.42-2.25.43,1.32.51,1.59.46,2.25-.43Zm-3.95.23c.83.2,1.63.3,2.14-.58-.8-.18-1.6-.3-2.14.58Zm-2.54,1.34c.3.02.6.28.87.01.34-.33.63-.72.94-1.09-.87-.09-1.17.09-1.82,1.07Zm1.12-1.25c.8.11,1.33-.27,1.79-.78-.82-.25-1.25.35-1.79.78Z"/>
    <path class="cls-1" d="m4.48,13.18s.09.05.13.07c.51.09,1.01.11,1.52,0,.08,0,.17-.02.25-.02.23-.09.5-.07.72-.23.15,0,.28-.03.38-.14.26,0,.46-.17.69-.24.02-.03.04-.06.06-.08h0c.12-.05.24-.09.37-.14.51-.25.99-.55,1.44-.89.22-.17.54-.24.63-.56.15-.03.3-.07.36-.24.39-.23.75-.5.99-.89.27,0,.4-.24.59-.37.06-.05.18-.07.1-.19h0c.23,0,.4-.1.44-.35.15-.01.3-.04.4-.17.71-.51,1.51-.88,2.25-1.34.1,0,.21,0,.28-.09.38-.09.76-.19,1.1-.38.34-.16.71,0,1.05-.11.24,0,.49,0,.73,0,.06,0,.13,0,.19,0,.22.05.44.09.66.14.15.05.3.09.45.14.12.1.33.07.37.28-.14,0-.28,0-.43,0-.35-.09-.7-.14-1.06,0-.1,0-.2.01-.31.02-.57.05-1.11.24-1.63.47-.18.06-.35.12-.49.26-.06.01-.15,0-.1.11,0,0,0,0,0,0-.73.19-1.3.62-1.85,1.11-.13,0-.24.07-.3.19-.75.52-1.43,1.11-2.05,1.78-.12.06-.21.16-.28.28-.3.12-.5.37-.75.57-.02.04-.05.08-.07.11h0c-.22.05-.39.16-.49.36-.63.34-1.26.68-1.89,1.02-.15,0-.27.04-.35.17-.19-.02-.36.06-.53.13-.07,0-.15,0-.2.06-1.11.2-2.18.15-3.18-.44-.05-.03-.12-.04-.17-.07-.1-.08-.18-.17-.27-.25.07-.1.17-.03.25-.06Z"/>
    <path class="cls-1" d="m20.58,2.8c.56.08,1.12.15,1.68.24.09.01.19.07.24.14.28.37.68.6,1.03.89.3.25.59.53.51.98-.03.19.09.21.22.24.36.09.56.34.69.68.19.48.36.97.69,1.39.07.08.1.17.07.27-.14.58-.16,1.18-.36,1.74-.35-.73-.69-1.45-.96-2.22-.2-.55-.66-.97-1.32-1-.32-.02-.28-.24-.24-.41.11-.52-.09-.91-.45-1.25-.3-.28-.6-.54-.93-.78-.34-.24-.67-.51-.87-.89Z"/>
    <path class="cls-4" d="m6.66,19.09c.32.03.18.26.14.39-.28.97-.95,1.54-1.91,1.79-1.46.38-3-.45-3.34-1.8-.03-.1-.19-.26.05-.34.19.15.33.38.62.36,1.05.43,2.12.4,3.21.21.41-.07.87-.09,1.13-.5.04-.04.08-.08.12-.12Z"/>
    <path class="cls-4" d="m20.58,2.8c.2.38.53.65.87.89.33.23.63.5.93.78.37.35.56.73.45,1.25-.04.18-.08.4.24.41.66.04,1.13.45,1.32,1,.27.77.61,1.49.96,2.22-.07.19-.15.38-.24.61-.59-.65-.95-1.36-1.14-2.16-.16-.67-.41-1.21-1.24-1.26-.32-.02-.51-.3-.41-.64.16-.54-.09-.91-.48-1.22-.27-.21-.56-.38-.86-.55-.54-.3-.93-.74-1.27-1.29.3-.08.57-.16.85-.05Z"/>
    <path class="cls-4" d="m24.57,15.49c.22.37.02.68-.16.97-.44.71-1.14,1.02-1.93,1.18-.17.03-.35.06-.53.1,0-.09,0-.19-.01-.28,0,0,0,0,0,0,.11-.03.11-.11.1-.2,0,0,0,0,0,0,.12-.02.11-.11.1-.2,0,0,0,0,0,0,.13-.02.09-.12.1-.2,0,0,0,0,0,0,.18-.12.18-.33.26-.5.04-.1.14-.09.22-.12.47-.11.99-.06,1.36-.46.2-.05.34-.19.5-.3Z"/>
    <path class="cls-1" d="m2.2,19.49c-.29.02-.43-.22-.62-.36.16-.04.1-.13.04-.21-.15-.21-.07-.39.13-.65-.03.49.23.69.55.81,1.23.45,2.47.46,3.7,0,.3-.11.7-.25.46-.81.46.26.25.56.19.83-.04.04-.08.08-.12.12-.05,0-.1-.02-.14,0-1.02.5-2.1.54-3.2.39-.33-.05-.65-.18-1-.1Z"/>
    <path class="cls-1" d="m24.57,15.49c-.16.11-.3.25-.5.3-.5.02-.94.33-1.46.28,0-.06,0-.13,0-.19,0,0,0,0,0,0,.37-.22.81-.2,1.19-.38.33-.16.61-.33.43-.8.57.11.37.48.33.78Z"/>
    <path class="cls-2" d="m3.78,15.25c-.04,1.1-.78,2.87-1.63,2.74,1.1-.61,1.26-1.74,1.63-2.74Z"/>
    <path class="cls-2" d="m4.61,15.58c.35.78.55,1.64,1.21,2.26-.63-.27-1.03-1.03-1.21-2.26Z"/>
    <path class="cls-5" d="m11.87,3.86c.02-.24-.16-.27-.33-.28-.34-.02-.67-.04-1.01-.06-.09,0-.19.03-.21-.11.27-.09.52-.25.83-.26-.11.06-.21.12-.36.2.52.19,1.02.14,1.51.13-.14.14-.37.15-.44.37h0Z"/>
    <path class="cls-5" d="m7.85,14c.05-.07.12-.07.2-.06-.07.37-.1.75-.37,1.08.06-.34.11-.68.17-1.02Z"/>
    <path class="cls-1" d="m4.37,14.48c-.21-.04-.09-.22-.22-.32-.04.12-.07.23-.1.35-.05-.03-.1-.05-.1-.06.03-.18.05-.49.19-.48.29.02.14.34.23.51Z"/>
    <path class="cls-5" d="m18.78,18.71c-.14.2-.3.38-.57.55.09-.31.32-.45.47-.62.03.03.06.05.09.08Z"/>
    <path class="cls-5" d="m21.19,8.24c-.14-.07-.24-.18-.32-.33.01-.02.02-.04.04-.05.15.08.26.2.28.38h0Z"/>
    <path class="cls-5" d="m16.58,18.58c-.06.06-.13.17-.2.08-.06-.08.06-.13.13-.17.03.03.05.06.08.09Z"/>
    <path class="cls-5" d="m9.9,3.77c-.03.09-.07.18-.19.09.01-.14.11-.09.19-.09Z"/>
    <path class="cls-5" d="m19.24,20c-.03.09-.08.1-.16.06.03-.04.07-.07.1-.11.02.02.04.03.05.04Z"/>
    <path class="cls-5" d="m13.92,3.76s0-.04,0-.06c.02,0,.04,0,.05,0-.02.01-.04.03-.06.04,0,0,.01,0,.01,0Z"/>
    <path class="cls-5" d="m20.88,7.92s-.07-.06-.11-.09c.02-.02.04-.04.06-.06.03.03.06.07.09.1-.01.02-.03.03-.04.05Z"/>
    <path class="cls-5" d="m20.73,7.67s.06.06.1.09c-.02.02-.04.04-.06.06-.03-.03-.06-.07-.09-.1.02-.02.04-.04.06-.05Z"/>
    <path class="cls-5" d="m20.84,8.96s.06.06.1.1c-.03.03-.06.05-.09.08-.03-.03-.06-.06-.08-.08.03-.03.05-.06.08-.09Z"/>
    <path class="cls-5" d="m9.71,3.85c.05.12-.04.09-.1.1-.06-.12.03-.1.1-.1Z"/>
    <path class="cls-5" d="m19.43,19.83s-.07.06-.1.09c-.02-.02-.04-.04-.06-.06.03-.03.06-.06.09-.09.02.02.05.04.07.07Z"/>
    <path class="cls-5" d="m19.33,19.92s-.07.06-.1.09c-.02-.01-.04-.03-.05-.04.03-.03.06-.07.09-.1.02.02.04.04.06.06Z"/>
    <path class="cls-4" d="m3.43,22.12s-.03-.04-.05-.06c.02,0,.04,0,.05,0,.04.02.04.05,0,.07,0,0,.01,0,.01,0Z"/>
    <path class="cls-5" d="m11.39,12.16s-.05.07-.07.11c.02-.04.05-.07.07-.11Z"/>
    <path class="cls-5" d="m8.17,12.62s.04-.06.06-.08c-.02.03-.04.06-.06.08Z"/>
    <polygon class="cls-5" points="11.86 3.86 11.85 3.86 11.87 3.86 11.86 3.86"/>
  </g>
  <g>
    <path class="cls-3" d="m.75,16.37l.11.42,1.14-.3.07.29-1.14.3.11.42-.23.06-.3-1.13.23-.06Z"/>
    <path class="cls-3" d="m.14,15.47s-.07,0-.09-.03c-.03-.02-.04-.05-.05-.09s0-.07.02-.1c.02-.03.05-.05.08-.05.03,0,.06,0,.09.02.03.02.04.05.05.09,0,.04,0,.07-.02.1-.02.03-.05.05-.08.05Zm.03.2s.06,0,.09.03.04.05.05.09c0,.04,0,.07-.02.1-.02.03-.05.04-.08.05-.03,0-.06,0-.09-.02-.03-.02-.04-.05-.05-.09,0-.04,0-.07.02-.1.02-.03.05-.04.08-.05Zm.12-.68l.93-.14c.15-.02.28,0,.39.09.1.08.17.21.19.38.02.17,0,.3-.07.41-.07.11-.18.18-.34.2l-.94.14-.04-.29.93-.14c.09-.01.16-.05.19-.1.04-.05.05-.12.04-.19-.02-.16-.12-.24-.29-.21l-.93.14-.04-.29Z"/>
    <path class="cls-3" d="m1.13,13.99v.24s.53-.02.53-.02v.3s-1.41.05-1.41.05l-.02-.53c0-.17.03-.3.1-.4.07-.1.18-.14.31-.15.1,0,.18.02.25.06.07.04.12.1.16.19l.57-.33h.01s.01.32.01.32l-.51.29Zm-.23.24v-.24c-.01-.07-.03-.13-.07-.17-.04-.04-.09-.06-.16-.06-.07,0-.12.02-.16.06-.04.04-.05.1-.05.18v.24s.43-.02.43-.02Z"/>
    <path class="cls-3" d="m1.11,12.68l.15.17.4.03-.02.29-1.42-.11.02-.29.64.05-.17-.14-.44-.4.03-.36.59.56.83-.46-.03.35-.6.32Z"/>
    <path class="cls-3" d="m1.82,11.53l-.05.29-1.4-.23.05-.29,1.4.22Z"/>
    <path class="cls-3" d="m1.22,10.58l-.55-.44.08-.31.77.67.5.12-.07.29-.5-.12-.99.25.08-.32.69-.14Z"/>
    <path class="cls-3" d="m1.89,8.97l-.19.53.36.13.22-.63.22.08-.32.91-1.34-.47.32-.9.22.08-.22.63.32.11.19-.53.22.08Z"/>
    <path class="cls-3" d="m2.96,7.5l-.25.46.21.23-.15.28-1-1.14.13-.24,1.5.2-.15.28-.3-.05Zm-.42.27l.17-.32-.55-.09.38.41Z"/>
    <path class="cls-3" d="m3.51,7.13l-1.17-.81.25-.36c.07-.1.16-.18.26-.23.1-.05.21-.07.33-.05.12.01.23.06.34.13l.05.04c.11.08.19.17.24.27.05.1.07.21.06.33-.01.11-.05.22-.12.33l-.25.37Zm-.8-.92l.78.54.08-.12c.07-.1.09-.19.06-.28s-.1-.18-.21-.26l-.06-.04c-.12-.08-.23-.12-.32-.11-.1,0-.18.06-.24.15l-.08.12Z"/>
    <path class="cls-3" d="m4.59,5.24l-.34.39.16.27-.21.24-.72-1.34.18-.21,1.42.53-.21.24-.29-.12Zm-.47.17l.24-.27-.52-.21.28.48Z"/>
    <path class="cls-3" d="m5.28,4.63l.46-.43.16.17-.68.63-.97-1.04.22-.2.81.87Z"/>
    <path class="cls-3" d="m6.37,3.22l-.45.35.23.3.53-.41.14.19-.76.59-.87-1.13.76-.58.14.19-.53.4.21.27.45-.35.14.18Z"/>
    <path class="cls-3" d="m7.32,1.94l-.37.23.62,1.01-.25.15-.62-1.01-.37.23-.12-.2.99-.61.12.2Z"/>
    <path class="cls-3" d="m9.23,2.03l-.48.2.02.31-.29.12-.06-1.52.25-.11,1.05,1.1-.29.12-.21-.23Zm-.5-.05l.33-.14-.37-.42.04.56Z"/>
    <path class="cls-3" d="m10.16,1.41l-.1.2.12.39-.28.08-.4-1.36.28-.08.18.62.07-.21.22-.55.35-.1-.31.75.73.61-.34.1-.52-.44Z"/>
    <path class="cls-3" d="m11.92,1.29l-.51.09-.04.31-.31.06.27-1.49.27-.05.78,1.3-.31.06-.15-.27Zm-.47-.16l.35-.06-.27-.49-.08.55Z"/>
    <path class="cls-3" d="m12.55,1.49l-.1-1.42.44-.03c.13,0,.24.01.34.06.1.05.19.12.25.22.06.1.1.22.11.35v.07c.01.13,0,.25-.05.36-.05.11-.12.19-.21.25-.1.06-.21.1-.33.11l-.44.03Zm.21-1.2l.06.95h.14c.12-.02.2-.06.26-.14.06-.08.08-.19.07-.33v-.07c-.02-.14-.05-.25-.12-.32-.07-.07-.16-.1-.27-.09h-.15Z"/>
    <path class="cls-3" d="m14.8.83l-.57-.02v.38s.65.02.65.02v.24s-.97-.03-.97-.03l.05-1.42.96.03v.24s-.67-.02-.67-.02v.34s.56.02.56.02v.23Z"/>
    <path class="cls-3" d="m15.69.11l.2,1.07.52-.96.38.06-.22,1.4-.29-.05.06-.38.13-.66-.55.99-.2-.03-.22-1.1-.07.67-.06.38-.29-.05.22-1.4.38.06Z"/>
    <path class="cls-3" d="m17.18,1.86l-.29-.08.36-1.37.29.07-.36,1.37Zm.31-1.78s.08.03.09.06c.02.03.02.06.01.1,0,.04-.03.07-.06.08-.03.02-.07.02-.11,0-.04-.01-.07-.03-.09-.06s-.02-.06-.01-.1c0-.04.03-.07.06-.08s.07-.02.11,0Z"/>
    <path class="cls-3" d="m18.33,1.84c.02-.05.01-.1-.01-.14-.03-.04-.08-.09-.17-.16-.09-.07-.15-.12-.2-.17-.12-.14-.16-.27-.11-.41.03-.07.07-.13.13-.17.06-.04.14-.07.22-.07.09,0,.18,0,.28.04.1.03.18.08.24.14.06.06.11.13.12.21.02.08.02.16-.01.24l-.28-.1c.02-.06.02-.12,0-.16s-.08-.08-.15-.11c-.07-.02-.13-.03-.17-.01-.05.02-.08.05-.1.09-.02.04,0,.09.03.13.03.04.09.1.17.15.14.1.24.2.29.3.05.1.05.2.02.3-.04.12-.12.19-.23.23-.11.04-.24.03-.39-.03-.1-.04-.19-.09-.26-.16-.07-.07-.12-.14-.14-.22-.02-.08-.02-.17.01-.25l.28.1c-.05.15.01.25.19.32.07.02.12.03.17.01.05-.01.08-.04.09-.09Z"/>
    <path class="cls-3" d="m19,2.52l-.27-.12.57-1.3.27.12-.57,1.3Zm.59-1.71s.07.04.08.08c.01.03.01.07,0,.1-.02.04-.04.06-.07.07-.03.01-.07,0-.11,0-.04-.02-.07-.04-.08-.08-.01-.03-.01-.07,0-.1.02-.04.04-.06.08-.07.03-.01.07,0,.11,0Z"/>
  </g>
</svg>