<?xml version="1.0" encoding="utf-8"?>
<!-- Generator: Adobe Illustrator 27.8.1, SVG Export Plug-In . SVG Version: 6.00 Build 0)  -->
<svg version="1.1" id="katman_1" xmlns="http://www.w3.org/2000/svg" xmlns:xlink="http://www.w3.org/1999/xlink" x="0px" y="0px"
	 viewBox="0 0 225.6 185.9" style="enable-background:new 0 0 225.6 185.9;" xml:space="preserve">
<style type="text/css">
	.st0{fill-rule:evenodd;clip-rule:evenodd;fill:#E20613;}
</style>
<path class="st0" d="M125.8,109.7c0,5.1-4.2,9.3-9.3,9.3s-9.3-4.2-9.3-9.3s4.2-9.3,9.3-9.3S125.8,104.5,125.8,109.7z"/>
<path class="st0" d="M185.1,107.2c-1.9-16.9-7.8-21.3-18.6-24.9c2.9-1.5,5.9,0.1,10.6,2.2c0.1-4.9-3.5-6.9-5.1-8.9l12.7,4.5
	c-5.1-11.6-13.9-13.2-25.8-15.1c1.4-1.9,6.3-3.6,11.6-2.5c-2.4-4-6.6-6.7-9-7.1c0.2-0.9,6-1.7,14.5,0.8c-8.7-11.6-23.1-9.9-29.4-5.8
	c0.8-3.3,1.6-4.9,8.6-5.8c-3-4.1-5.1-4.1-8.7-4.2c1.1-1,4.7-3.5,12.7-3.8c-10.6-8.3-23.2-2.4-29.6,4c-0.1-3.7,2.6-5.2,6.7-8.4
	c-5.3-2.6-9.8-0.3-10.6,0.6c0.8-3.1,4-6.1,12-9.8c-18.6-1.2-22.1,8.8-26,13.7c-0.6-5.2,1.8-7.9,3.6-10.4c-3.3,0.6-7.2,1.8-10.1,5.2
	c0-7,5.9-9,8.8-13.5c-10.8,2.5-17.2,5.2-20,21.3c-2.3-2.5-1-7.2-0.2-11.2c-2.8,2.2-5.3,3.3-7.3,8.7c-2.1-2.6-0.5-8.2,0.8-13.2
	c-5.8,5.5-13.2,8.2-9.5,27.2c-3.1-3.1-4.2-4.8-4.2-11.4c-3,2.1-4.7,6.3-4.3,10.6c-2.1-0.1-3.9-6.7-2.5-14.8
	c-0.6,1.6-12.7,10.5-2.6,30.6c-2.6-1.1-4.7-1.4-6.9-8.4c-2.2,3.6-2.5,6.5-0.3,10.2c-1.9,0.6-4.5-0.1-7.7-12C46,69.6,47.8,74.2,58,84
	c-2.7,0.4-5.4-1.2-9-5.3c-0.8,5.7-0.1,7.3,1.7,9.8c-3.1-0.1-6.8-2.8-10.2-9.6c1.9,17,7,21.2,17.9,24.7c-2.8,1.5-5.2,0.1-9.9-2
	c-0.1,4.9,2.8,6.8,4.3,8.9l-11.9-4.5c5,11.6,12.4,14.4,24.3,16.2c-1.3,2-4.8,2.4-10.2,1.4c2.4,4,6.2,6.6,8.5,7.1
	c-0.2,0.9-5.5,1.7-14-0.8c8.7,11.6,23.1,9.8,29.4,5.8c-0.8,3.3-1.6,4.9-8.6,5.8c3,4,5.1,4,8.7,4.1c-1.1,1-4.7,3.4-12.8,3.7
	c10.6,8.4,23.2,2.4,29.7-3.9c0.1,3.7-2.6,5.2-6.7,8.4c5.3,2.6,9.8,0.3,10.6-0.6c-0.8,3.1-4,6.1-12,9.8c18.6,1.2,22.3-7.5,26.3-12.5
	c0.6,5.2-2,6.6-4,9.2c3.3-0.6,7.2-1.8,10.1-5.2c0,7-5.1,8.8-8.1,13.2c10.8-2.5,16.4-5.1,19.3-21c2.3,2.6,1,7.2,0.2,11.2
	c2.8-2.2,5.3-3.3,7.3-8.8c2.1,2.6,0.5,8.2-0.8,13.2c5.8-5.5,13.3-8.8,9.5-27.7c3.1,3.1,4.2,5.3,4.2,11.9c3-2.2,4.7-6.3,4.3-10.6
	c2.1,0.1,3.9,6.6,2.5,14.7c0.5-1.6,12.2-11.2,2.2-31.3c2.6,1.1,4.9,1.3,7.1,8.4c1.4-3.6,2.3-7.4,0.5-11.1c1.9-0.6,4.5,1.8,7.7,13.6
	c3.3-14,0.9-19.3-9.3-29.1c2.7-0.4,6.1,0.9,9.7,5c0.8-5.6-0.6-7-2.5-9.4C177.3,97.1,181.7,100.5,185.1,107.2z M126,125.6
	c-2.8,1.7-6,2.7-9.5,2.7c-8.8,0-16.3-6.3-18.2-14.6v13.2H87.5V57.5h10.8v48.1c1.9-8.2,9.3-14.5,18.2-14.5c3.5,0,6.7,1,9.5,2.7
	c5.4,3.3,9.1,9.1,9.1,15.9S131.4,122.3,126,125.6L126,125.6z M148.4,60.6l-6.9,0.5l-6.2,31.9c-2.8-2.3-5.7-4.6-9.3-6.3
	c-2.6-1.2-5.5-2.1-9.1-2.6l9.1-12.2l11.1-14.8h11.3L148.4,60.6L148.4,60.6z"/>
<path class="st0" d="M112.7,0c37.1,0.5,73.6,7,109.7,19.1c2.6,0.8,3.1,1.2,3.1,2.6v0.3c0,0.6-0.1,1.5-0.2,2.8
	c-2.2,55.6-14,107.2-35.1,154.7c-1.4,3.2-1.9,2.7-5.4,3c-24.1,2.6-48.1,3.6-72.2,3.4v-3.3c23.4,0.2,46.7-0.9,70.1-3.4
	c2.9-0.3,3.3,0.2,4.6-2.4c20.5-46,31.8-95.9,34-149.7c0.2-3.9,0.9-4-2.8-5.3C183.7,10.1,148.5,3.9,112.7,3.4V0L112.7,0z M5.7,15.6
	c36.2-11,71.9-16,107-15.6v3.4C78,3,42.8,8.1,7,19.2c-3.9,1.2-3,1.7-2.9,5.7C7.2,116.9,26,143.8,37.6,174c1.4,3.6,1,3.7,4.9,4.1
	c23.4,2.7,46.9,4.1,70.2,4.4v3.3c-24.3-0.3-48.5-1.8-72.8-4.5c-3.1-0.4-3.4,0.1-4.5-2.8C23.4,146.7,3.4,119.5,0.1,23
	c0-1.1-0.1-1.9-0.1-2.6v-0.3C0,17,0.8,17.1,5.7,15.6L5.7,15.6L5.7,15.6z"/>
</svg>
