<?xml version="1.0" encoding="UTF-8"?>
<svg id="katman_1" data-name="katman 1" xmlns="http://www.w3.org/2000/svg" viewBox="0 0 174.3 173.9">
  <defs>
    <style>
      .cls-1 {
        fill: #41484c;
      }

      .cls-1, .cls-2, .cls-3, .cls-4, .cls-5 {
        fill-rule: evenodd;
        stroke-width: 0px;
      }

      .cls-2 {
        fill: #243964;
      }

      .cls-3 {
        fill: #e30921;
      }

      .cls-4 {
        fill: #fdea18;
      }

      .cls-5 {
        fill: #31a947;
      }
    </style>
  </defs>
  <path class="cls-1" d="M87.2,0C39.2,0,0,39.1,0,87s39.2,86.9,87.2,86.9,87.1-39,87.1-86.9S135.2,0,87.2,0ZM87.2,171.3c-46.6,0-84.5-37.9-84.5-84.3S40.7,2.7,87.2,2.7s84.5,37.9,84.5,84.3-38,84.3-84.5,84.3Z"/>
  <path class="cls-1" d="M87.2,144.2c31.6,0,57.4-25.8,57.4-57.3s-25.8-57.2-57.4-57.2-57.4,25.7-57.4,57.3,25.8,57.2,57.4,57.2Z"/>
  <path class="cls-3" d="M38.8,61.6c9-17,26.7-28.7,47.2-29.2-6.1,8.1-13.6,15.4-22.3,20.7-5.2,3.1-10.8,5.6-16.6,7.1-2.8.7-5.5,1.1-8.3,1.4h0Z"/>
  <path class="cls-3" d="M79.3,141c-26.4-3.9-46.8-26.6-46.8-54,0-7.5,1.5-14.7,4.3-21.2.1,1.3.2,2.6.3,3.9,1.4,13.4,6.3,27.2,13.8,39.7,7.2,12.1,17,23.2,28.4,31.6h0Z"/>
  <path class="cls-3" d="M137.6,65.8c2.8,6.5,4.3,13.7,4.3,21.2,0,27.4-20.4,50.2-46.8,54,11.4-8.4,21.1-19.5,28.5-31.7,7.6-12.7,12.5-26.7,13.8-40.3.1-1,.1-2.1.2-3.2h0Z"/>
  <path class="cls-3" d="M88.4,32.4c20.5.5,38.2,12.2,47.2,29.2-2.3-.2-4.6-.6-7-1.1-6.4-1.4-12.4-4-18-7.4-8.6-5.3-16.1-12.6-22.2-20.7h0Z"/>
  <path class="cls-2" d="M46,61.7h82.2c-6.5-1.5-12.7-4.1-18.4-7.6-8.7-5.4-16.5-12.9-22.6-21.2-6.2,8.3-13.9,15.8-22.8,21.2-5.7,3.5-11.8,6.2-18.4,7.6Z"/>
  <path class="cls-2" d="M59.1,92.3h-15.2c2.2,5.6,4.8,11.1,8,16.3,7.6,12.7,17.9,24.2,30,32.6.8.1,1.5.1,2.3.2.4-2.6.2-14.7.1-15.3-.5-.6-1.1-1-1.7-1.2-.7-.2-1.5-.4-2.5-.4-.9,0-1.7.1-2.5.2s-1.5.4-2.5.7c-.9.3-1.6.5-2.3.5-.8,0-1.6-.3-2.4-1.1-.2-.1-.3-.3-.5-.4-.6-.6-1.3-1.3-2-1.3-.9,0-1.7-.1-2.4-.3-.7-.2-1.4-.6-2-1.1-1.3-1.2-1.3-2.9-1.2-4.3,0-.6,0-1.1-.1-1.3-.2-.4-.7-.8-1.4-1.2-.8-.5-1.6-.9-2.3-1.2-1.2-.5-2-1.5-2.4-2.5s-.5-2.2-.5-3.4c0-.5,0-1-.1-1.4s-.1-.6-.3-.8h0c-.4-.4-.8-.9-1.1-1.5s-.5-1.3-.5-2.1c0-.7.2-1.4.6-1.8.4-.6,1.1-.9,1.6-.9,1.4,0,2.7,1.2,3.5,2.1.1,0,.1.1.2.2.4.4.8.8,1.3,1.2.5.3.9.6,1.4.7.9.2,1.6.2,2.3.2h.1c1.1,0,1.9.1,2.6.5s1.2,1,1.6,2.1c.5,1.1,1,1.1,1.8,1.1h.9c1.8.1,2.2.9,2.9,2.2.1.2.2.4.4.6.3.5.5.9.8,1.2.2.3.5.5.6.6.3.2.6.2.9.3.5.1,1.2.2,2.1.9.6.4,1,.9,1.3,1.5s.4,1.2.6,1.9c.3,1.3.5,2.5,1,3.3.4.8,1.1,1.5,2.4,1.9v-.5c.2-4,.3-6.6.1-8.3-.2-1.5-.6-2.3-1.4-2.9-2.5-1.7-5.1-3.5-7.5-5s-4.5-2.8-6.2-3.6c-.3,0-.6-.1-.9-.1h-1.3c-1.6,0-3.1-.1-4.7-1.2-1-.7-1.7-1.5-2.1-2.3-.4-.8-.4-1.8.1-2.6.1-.2.2-.3.2-.4.2-.3.2-.5,0-.7-.4-.4-.9-.9-1.2-1.5-.4-.2-.5-.3-.5-.4h0Z"/>
  <path class="cls-2" d="M81,92.3h-14.3c.4.5.9.6,1.4.7s1.1.2,1.7.6c.5.3.9.6,1.2,1.1s.6,1.1.8,1.8c.1.3.1.4.1.6.1.6.2,1,.9,1.6,2.7,2,5.3,3.7,7.7,5.3,1.7,1.1,3.3,2.1,4.6,3.1h.1c0-.3,0-.7-.1-1.1-.1-.5-.2-1-.3-1.5-2-2.4-3.3-4.1-4.1-5.5-.8-1.6-1-2.8-.9-4.4.1-.6.2-1.3.6-1.8.3-.2.5-.3.6-.5h0Z"/>
  <path class="cls-2" d="M109.6,92.3h-16.6c-.2.3-.5.6-.7.8.5.6.9,1.2,1.2,1.8.4.8.5,1.5.5,2.2,0,1.5-.7,2.8-1.6,4-.8,1.1-1.9,2-2.9,2.9-.1.4-.1.9-.1,1.4s.1,1,.1,1.4h.3c.3-.2,1-.6,1.7-.9,3.3-1.9,7.3-4.1,11.2-6.9.4-.3.6-.5.7-.9s.2-.8.2-1.2c0-.8.2-1.4.6-2,.4-.7,1-1.2,1.5-1.5.7-.4,1.5-.4,2.2-.4.6,0,1.3,0,1.5-.4,0,.1.1-.1.2-.3h0Z"/>
  <path class="cls-2" d="M89.8,141.5c.9,0,1.8-.1,2.7-.2,12-8.5,22.4-19.9,30-32.6,3.2-5.3,5.8-10.8,8-16.3h-13.5c-.1.3-.3.6-.5.8-.3.5-.6.8-.9,1.2-.5.6-.6,1.5-.6,2.4,0,1.7,0,3.3-2.7,4.4-.9.4-1.6.5-2.3.6-.7.1-1.3.1-2.1.2-.6,0-1.2,0-1.7.1s-1,.2-1.4.5c-1,.6-2.2,1.3-3.4,2-3.5,2-7.7,4.4-9.6,6.1-.8.6-1.2,1.4-1.5,2.9-.3,1.6-.4,4-.2,8v.6c.1,0,.4-.1.7-.3.6-.3,1.4-.9,2-1.4.5-.5.9-.9,1-1.1,0-.1.1-.4.1-.8.4-1.7.9-4.3,2.2-5.1.7-.5,1.4-.6,2.2-.7.5,0,1-.1,1.4-.3.2,0,.4-.5.6-1.1.5-1.4,1.1-3,3.4-3.1h.8c1,0,1.9,0,2.4-1.1.5-1,.9-1.6,1.6-2,.6-.4,1.4-.5,2.5-.5h.3c.8,0,2.4.1,3.2-.1.6-.1.8-.4,1.1-.7.2-.2.3-.4.6-.6l.3-.3c.7-.7,1.3-1.4,2.6-1.3.4,0,.9.1,1.4.3.5.3.9.8.9,1.7,0,.5-.2,1.2-.5,1.8-.3.6-.8,1.3-1.2,1.8h0c-.2.2-.3.6-.5,1.1-.2.7-.3,1.4-.2,1.9,0,1.2,0,2.2-.4,3.1-.4,1-1,1.8-2.3,2.3-.5.2-1,.4-1.4.5-1,.3-1.9.6-2.3,1.2-.1.2-.2.8-.3,1.6-.1,1.4-.3,3.1-1.4,3.8-.6.4-1.2.6-2,.7-.7.1-1.5.1-2.4.1-.4,0-.8.2-1.2.4-.6.4-1.1,1-1.5,1.5-1.6,2-2.9,1.4-4.6.6-.4-.2-.8-.3-1.2-.5-.6-.2-1.3-.4-2-.5-.6-.1-1.3-.2-1.9-.2-1,0-1.9.1-2.7.3-.7.2-1.2.6-1.8,1.2-.2,1-.1,9.6-.1,11.4.1,1.2.1,2.4.3,3.7h0Z"/>
  <path class="cls-4" d="M136.4,63H37.9c.1,9.2,2.1,18.7,5.5,28h15.4v-.1c0-.3,0-.5.1-.8.1-.8.5-1.3,1-1.7.5-.4,1.1-.5,1.7-.5h.8c.6.1,1.2.3,1.8.6.6.3,1.1.8,1.5,1.4.2.4.4.7.5,1h15c-.5-.7-.9-1.4-1.2-2.2-.5-1.2-.8-2.5-.6-3.8.1-.7.3-1.4.7-2,.3-.5.8-1,1.4-1.4,0-.1-.1-.3-.1-.4-.6-2.4-1.3-5.5,3.1-8.4.1-1.6.3-2.9.8-3.8.6-1.1,1.4-1.9,2.7-2.4h.4c1.3.5,2.3,1.3,2.8,2.5.5,1.1.7,2.5.6,4.1,3.8,3.6,2.4,6.5,1.7,8,.5.5.9,1.1,1.2,1.8.5.9.8,1.9.8,2.7.1,1.3-.3,2.7-.9,4-.2.4-.4.9-.7,1.3h16.4c.1-.2.2-.4.3-.5.4-.6.8-1.1,1.3-1.4s1.1-.5,1.7-.5c.5,0,.9,0,1.4.1s1.1.4,1.5.7c.4.4.7.9.7,1.5v.1h13.7c3.4-9.1,5.4-18.6,5.5-27.9h0Z"/>
  <path class="cls-5" d="M88.4,141.6h-2.8c.1-.6.1-1.9.1-2.5.1-1.5.1-3.2.1-4.8v-5.3c0-1.4-.1-2.7-.2-3.3l-.1-.3c-.7-.9-1.5-1.4-2.3-1.7-.8-.3-1.8-.4-2.9-.5-1,0-1.9.1-2.7.2-.9.2-1.7.4-2.6.8-.8.2-1.4.5-1.9.5s-1-.2-1.6-.8l-.4-.4c-.8-.8-1.7-1.7-3-1.7-.8,0-1.4,0-2-.2s-1.1-.4-1.5-.8c-.9-.8-.8-2.2-.8-3.3,0-.8,0-1.4-.2-1.9-.3-.6-1.1-1.2-1.9-1.7-.8-.5-1.7-.9-2.5-1.2-.9-.4-1.4-1-1.8-1.9-.4-.8-.4-1.9-.4-2.9,0-.5,0-1.1-.1-1.6-.1-.6-.3-1.1-.7-1.5h0c-.3-.4-.7-.8-.9-1.2-.2-.4-.4-.9-.4-1.5,0-.4.1-.8.3-1s.3-.4.5-.4c.8,0,1.9,1,2.6,1.7q.1.1.2.2c.4.4.9.9,1.5,1.3s1.2.8,1.9.9c1.1.2,1.9.2,2.6.2h.1c.9,0,1.5,0,1.9.3s.8.8,1.2,1.6c.9,1.8,1.6,1.8,2.9,1.8h.8c1,0,1.3.6,1.8,1.6.1.2.2.4.4.6.3.5.6,1,.9,1.4s.6.7,1,.9c.5.3.9.4,1.3.4.4.1.9.2,1.7.7.4.2.6.6.8,1,.2.5.4,1,.5,1.6.3,1.4.5,2.6,1.1,3.7s1.5,2,3.1,2.5c.8.3,1.2.2,1.5-.3.2-.3.2-.7.2-1.3.2-4.1.3-6.7.1-8.5-.2-2-.8-3-2-3.8-2.5-1.7-5.1-3.5-7.5-5-2.4-1.6-4.6-2.9-6.4-3.8h-.2c-.4-.1-.8-.1-1.2-.2s-.7,0-1.1,0h-.4c-1.4,0-2.7-.1-4-1-.8-.5-1.3-1.1-1.6-1.8-.2-.5-.2-1,0-1.6.1-.1.1-.2.2-.4.5-.9.8-1.3-.3-2.3-.4-.3-.7-.7-.9-1.2-.2-.4-.3-.7-.3-1.1,0-.2,0-.4.1-.5.1-.4.2-.7.5-.9.2-.2.6-.3,1-.3h.6c.5.1.9.2,1.4.4.4.2.8.5,1,1,.3.5.4.9.6,1.2.2.4.3.7.5,1,.6,1,1.4,1.2,2.3,1.4.4.1.9.2,1.3.5.3.2.6.4.8.8.3.4.5.8.6,1.4,0,.2.1.4.1.5.1.9.2,1.5,1.4,2.4,2.7,2,5.4,3.7,7.8,5.3,1.7,1.1,3.2,2.1,4.6,3.1.2.1.4.2.6.3h.6c.2,0,.4-.2.5-.4.1-.1.1-.2.2-.3.1-.5.1-1.2,0-1.8-.1-.6-.2-1.4-.5-2-2-2.4-3.3-4-4-5.4-.7-1.3-.9-2.4-.8-3.7.1-.4.2-.9.4-1.2.5-.7,1.2-1.1,2-1.5-1.1-1.1-2-2.2-2.6-3.6-.4-1-.6-2.1-.6-3.2.1-.5.2-1,.5-1.4.5-.7,1.1-1.2,1.7-1.6-.3-1.2-.7-2.5-.6-3.7.1-2.3,1.6-3.7,3.5-4.9,0-1.3.1-2.8.6-4,.4-.8,1-1.3,1.8-1.6.9.4,1.5,1,1.9,1.8.6,1.3.5,2.7.4,4.1,1.3,1.2,2.5,2.6,2.5,4.4,0,1.3-.6,2.4-1.1,3.5.7.6,1.2,1.1,1.7,1.9.4.8.6,1.6.7,2.2.1,1-.3,2.2-.8,3.4-.7,1.5-1.7,2.7-3,3.8.7.7,1.4,1.5,1.9,2.4.3.6.4,1.1.4,1.7,0,1.2-.6,2.3-1.4,3.3s-1.9,2-2.9,2.8c-.4.6-.4,1.5-.4,2.2,0,.6.1,1.3.2,1.8,0,.1.1.2.2.3.1.2.4.4.6.5.3.1.6.2.9.1.1,0,.2-.1.4-.2.8-.4,1.2-.7,1.7-.9,3.4-1.9,7.4-4.1,11.3-7,.6-.4.9-.9,1.1-1.4s.3-1.1.3-1.7c0-.5.2-1,.4-1.4.3-.5.7-.8,1-1,.4-.2,1-.2,1.6-.2,1,0,2,0,2.6-.9.2-.4.4-.7.6-1.1s.4-.8.7-1.2c.3-.5.6-.8.9-1s.7-.3,1.1-.3.7,0,1,.1c.4.1.6.2.9.4.2.2.3.4.3.6v.4c-.1.4-.3.7-.5,1-.2.4-.5.7-.8,1.1-.9,1-.9,2.1-.9,3.2,0,1.2,0,2.5-1.9,3.2-.9.4-1.5.5-2.1.6s-1.2.1-1.9.1c-.6,0-1.2,0-1.9.1-.6.1-1.3.3-1.9.7-.9.5-2.1,1.2-3.4,2-3.5,2-7.8,4.5-9.9,6.3-.9.9-1.6,1.8-1.9,3.6-.3,1.7-.4,4.2-.3,8.3,0,1.2.4,1.7,1,1.8.5.1,1-.1,1.6-.4.8-.4,1.6-1,2.3-1.6.7-.6,1.2-1.3,1.4-1.8.1-.3.1-.5.2-.8.3-1.5.7-3.7,1.7-4.3.4-.3,1-.4,1.6-.5.5-.1,1.1-.2,1.6-.4.7-.2,1-1,1.3-1.8.4-1,.8-2.2,2.2-2.3h.8c1.5,0,2.7,0,3.6-1.8.4-.8.7-1.3,1.1-1.6h0c.4-.2.9-.3,1.8-.3h.3c.9,0,2.5.1,3.6-.2,1-.2,1.3-.6,1.8-1.1.1-.2.3-.3.5-.5l.4-.4c.5-.5.9-.9,1.6-.9.3,0,.6,0,.8.1.1.1.2.3.2.6s-.1.8-.4,1.2c-.2.5-.6,1.1-.9,1.5h0c-.4.4-.6,1-.8,1.7-.2.8-.3,1.7-.3,2.3,0,1,0,1.9-.2,2.7-.2.7-.7,1.2-1.6,1.6-.4.2-.9.4-1.3.5-1.2.4-2.3.8-2.9,1.6-.4.5-.4,1.3-.5,2.2-.1,1.1-.2,2.5-.8,2.9-.4.3-.9.4-1.5.5s-1.4.1-2.2.1c-.6,0-1.3.2-1.9.6-.7.5-1.4,1.1-1.8,1.7-1,1.2-1.9.8-3.1.3-.4-.2-.8-.4-1.3-.5-.6-.2-1.4-.4-2.1-.6-.8-.2-1.5-.3-2.2-.3-1.1,0-2.1.1-3,.4s-1.8.8-2.5,1.7l-.1.3c-.2,1-.2,3.9-.2,6.5v6.6c.2.7.3,2,.3,2.6h0Z"/>
  <path class="cls-1" d="M88.6,76.5c-.5.7-.9,1.5-1.2,2.3-.1.3-.2.6-.2.8,0,0,0,.1-.1.2-.1.4-.1.8-.2,1.2-.1,1.9.4,3.6.9,5.2.4,1.2.7,2.4.9,3.8v.2c.4-.2.8-.6,1.3-1.1.2-.3.4-.5.7-.3.3.2.2.5-.1.8-.6.8-1.2,1.3-1.9,1.5,0,.9,0,2-.2,2.9-.2,1-.5,1.9-.9,2.5-.2.3-.5.5-.8.3s-.1-.5.1-.8c.4-.5.6-1.3.8-2.2.1-.9.2-1.8.2-2.6-.4,0-.8,0-1.2-.2-.5-.2-.8-.5-1.1-.9-.4-.5-.6-1.1-.6-1.8,0-.3.1-.6.5-.5.4,0,.4.3.3.6,0,.4.1.8.4,1.1.2.2.5.5.8.6.2.1.5.1.8.1,0-.1,0-.2-.1-.4-.1-1.3-.5-2.5-.8-3.6-.5-1.7-1-3.4-.9-5.5,0-.4.1-.8.1-1.1-.2-.2-.4-.3-.5-.5-.2-.3-.3-.5-.4-1-.1-.2-.1-.5.3-.6s.5.2.5.4c.1.4.2.5.3.7l.1.1c.1-.1.1-.3.2-.5.3-.9.7-1.6,1.3-2.5.1-.2.4-.4.6-.2.2.5.2.8.1,1h0Z"/>
  <path class="cls-1" d="M113.2,109.9c-3.1,3.7-5.8,5-8.2,6.3-1.9,1-3.7,1.9-5.2,3.9-.2.2-.5.3-.8.1s-.2-.5-.1-.7c1.7-2.2,3.5-3.1,5.6-4.1,2.3-1.2,4.9-2.5,7.9-6,.2-.2.5-.2.8,0,.1,0,.2.3,0,.5h0Z"/>
  <path class="cls-1" d="M62.3,108.2c2.9,3.6,5.5,5,7.9,6.2,2,1.1,3.8,2,5.5,4.2.2.2.2.5-.1.8-.3.2-.6.1-.8-.1-1.5-2-3.2-2.9-5.2-3.9-2.4-1.3-5.1-2.7-8.2-6.5-.2-.2-.1-.6.1-.8.2-.2.6-.1.8.1h0Z"/>
  <polygon class="cls-1" points="152.2 133.5 154 134.7 152.9 136.3 151.1 135.1 152.2 133.5"/>
  <polygon class="cls-1" points="154.5 130.2 156.3 131.5 155.2 133.1 153.4 131.8 154.5 130.2"/>
  <path class="cls-1" d="M149.7,135.5l-1.2,1.7-7.4-5.1c-1.3-.9-2.2-1.8-2.7-2.6-.6-.8-.8-1.8-.8-2.9s.5-2.2,1.4-3.5c.8-1.2,1.7-2,2.7-2.5s1.9-.6,2.9-.4,2.2.8,3.5,1.8l7.4,5.1-1.2,1.7-7.4-5.1c-1.1-.8-2-1.2-2.7-1.4-.6-.2-1.3-.1-2,.2-.6.3-1.2.8-1.7,1.5-.9,1.2-1.2,2.3-1,3.3.2.9,1.1,1.9,2.7,3l7.5,5.2h0Z"/>
  <polygon class="cls-1" points="166.2 100.7 168.3 101 168 103 165.9 102.6 166.2 100.7"/>
  <polygon class="cls-1" points="166.8 96.8 169 97.1 168.6 99.1 166.5 98.7 166.8 96.8"/>
  <path class="cls-1" d="M164.7,103.6l-.3,2-8.9-1.4c-1.5-.2-2.7-.6-3.6-1.1-.9-.5-1.5-1.2-1.9-2.2s-.5-2.3-.3-3.7c.2-1.5.7-2.6,1.3-3.4s1.5-1.4,2.5-1.6,2.3-.2,4,0l8.9,1.4-.3,2-8.9-1.4c-1.4-.2-2.4-.2-3-.1-.7.1-1.2.5-1.7,1-.4.6-.7,1.3-.9,2.2-.2,1.5,0,2.6.5,3.3.6.8,1.8,1.3,3.8,1.6l8.8,1.4h0Z"/>
  <polygon class="cls-1" points="150.5 80 166.1 79.4 166.2 81.4 152.5 81.9 152.7 89.6 150.9 89.6 150.5 80"/>
  <path class="cls-1" d="M165,71.8l.5,2-8.7,2.2c-1.5.4-2.8.5-3.8.4s-1.9-.6-2.6-1.3c-.8-.8-1.4-1.9-1.7-3.3-.4-1.4-.4-2.6-.1-3.6.2-1,.8-1.9,1.6-2.4.8-.6,2-1.1,3.6-1.5l8.7-2.2.5,2-8.7,2.2c-1.3.3-2.2.7-2.8,1.1s-1,.9-1.1,1.6c-.2.7-.2,1.5,0,2.3.4,1.5,1,2.4,1.8,2.9s2.2.5,4.1,0l8.7-2.4h0Z"/>
  <polygon class="cls-1" points="141.3 53.3 155 46 156 47.8 149.2 51.4 159.7 54.6 161 57.1 152.3 54.3 147.3 64.6 146.1 62.2 150.4 53.6 147 52.6 142.3 55.1 141.3 53.3"/>
  <path class="cls-1" d="M87.5,18.3h2c0,.8.2,1.4.5,1.9s.8,1,1.5,1.3c.7.4,1.5.6,2.4.6.8.1,1.5,0,2.1-.2s1.1-.5,1.4-.9.5-.8.5-1.3-.1-.9-.4-1.3c-.2-.4-.7-.7-1.3-1-.4-.2-1.3-.5-2.7-1-1.4-.4-2.4-.8-2.9-1.2-.7-.5-1.2-1-1.6-1.6-.3-.6-.5-1.3-.4-2,.1-.8.3-1.5.8-2.2.5-.6,1.2-1.1,2.1-1.4s1.8-.4,2.9-.4c1.1.1,2.1.4,3,.8.9.4,1.5,1,1.9,1.8s.6,1.6.6,2.5h-2c-.1-1-.4-1.8-.9-2.3-.6-.6-1.5-.9-2.6-.9-1.2-.1-2.2.1-2.8.5-.6.4-.9.9-1,1.6-.1.6.1,1,.5,1.4s1.4.8,3,1.3,2.8.9,3.4,1.2c.9.5,1.5,1.1,1.9,1.7.4.7.6,1.4.5,2.2-.1.8-.4,1.6-.9,2.3-.5.7-1.2,1.2-2.2,1.6-.9.4-1.9.5-3,.4-1.4-.1-2.6-.4-3.5-.9s-1.6-1.2-2.1-2c-.5-.5-.7-1.5-.7-2.5h0Z"/>
  <polygon class="cls-1" points="68.6 26.1 65.1 10.9 76.1 8.4 76.5 10.2 67.6 12.2 68.6 16.9 77 14.9 77.4 16.7 69 18.7 70.2 23.8 79.6 21.7 80 23.5 68.6 26.1"/>
  <path class="cls-1" d="M64.5,26.5c.7-1.3.9-2.8.6-4.5l-2.1.4c.3,1.3.2,2.4-.3,3.4s-1.2,1.6-2.3,2.1c-.9.4-1.8.5-2.7.4s-1.8-.5-2.5-1.3c-.8-.7-1.4-1.7-1.9-2.9-.4-.9-.7-1.9-.8-2.9s.1-1.9.6-2.8c.5-.8,1.3-1.5,2.4-2,.9-.4,1.8-.5,2.7-.4.8.2,1.6.7,2.4,1.6l1.7-1.2c-1-1.2-2.1-1.9-3.4-2.2s-2.8-.2-4.2.5c-1.2.6-2.3,1.4-3.1,2.4-.8,1.1-1.2,2.2-1.3,3.6s.2,2.8.9,4.3c.6,1.4,1.4,2.5,2.5,3.5,1,.9,2.2,1.5,3.4,1.7.9.1,1.9,0,3-.3l.2,1.9c.5-.2.8-.3,1.1-.4.2,0,.4,0,.5.1s.2.2.2.3c.4.8-.8,1.5-1.2,1.7-.2.1-.5.2-.9.4v1c.5-.1,1.4-.4,1.9-.6.9-.4,1.6-.9,1.9-1.5.3-.6.4-1.1.1-1.6-.2-.4-.4-.6-.8-.7-.4-.2-.9-.1-1.7.1l-.1-1s.1,0,.1-.1c1.3-.8,2.4-1.7,3.1-3h0Z"/>
  <polygon class="cls-1" points="43 40.8 33.5 28.6 35.1 27.3 39 32.3 45.4 27.3 41.5 22.3 43.1 21 52.7 33.3 51 34.6 46.5 28.8 40.2 33.8 44.7 39.5 43 40.8"/>
  <polygon class="cls-1" points="46.4 141 51.4 137.3 49.4 143.2 54.2 146.8 48.2 146.8 46.4 152.3 44.6 146.8 38.7 146.8 43.5 143.2 41.5 137.3 46.4 141"/>
  <path class="cls-1" d="M99.2,151.4l-.4-1.6,9.1-2.3.4,1.4c-.6,1.2-1.2,2.6-1.7,4.5-.5,1.8-.8,3.6-.8,5.4-.1,1.3.1,2.6.3,4l-1.8.5c-.2-1.1-.4-2.5-.4-4.2s.3-3.3.7-5c.4-1.6.9-3.1,1.6-4.3l-7,1.6h0Z"/>
  <path class="cls-1" d="M66.9,162.3l-1.7-.5,3.1-10.6-3.1-.9.4-1.4c1.9.5,2.9.5,4.1-.9l1.3.4-4.1,13.9h0Z"/>
  <polygon class="cls-1" points="127.9 141 123 137.3 124.9 143.2 120.2 146.8 126.1 146.8 127.9 152.3 129.7 146.8 135.7 146.8 130.9 143.2 132.8 137.3 127.9 141"/>
  <polygon class="cls-1" points="38.5 128.4 25.7 137.3 19.6 128.7 21.2 127.6 26 134.6 30 131.8 25.8 125.8 27.3 124.7 31.5 130.7 37.3 126.7 38.5 128.4"/>
  <polygon class="cls-1" points="23.3 91.2 7.7 90.6 8.1 79.4 10 79.5 9.6 88.6 14.4 88.8 14.7 80.3 16.5 80.3 16.2 88.9 21.5 89.1 21.9 79.6 23.7 79.6 23.3 91.2"/>
  <polygon class="cls-1" points="25.8 105.8 10.4 108.2 10.1 106.2 20.9 96.2 8.8 98.1 8.5 96.2 23.9 93.7 24.2 95.8 13.4 105.8 25.5 103.9 25.8 105.8"/>
  <polygon class="cls-1" points="31.3 118.3 17.1 124.6 12.5 114.3 14.2 113.6 17.9 122 22.3 120 18.8 112.2 20.5 111.4 24 119.3 28.8 117.1 24.9 108.4 26.6 107.7 31.3 118.3"/>
  <path class="cls-1" d="M87.7,158.1c-.1-1.7-.1-3.1.2-4.2.2-1,.7-1.9,1.4-2.5.6-.6,1.5-1,2.5-1.1.8,0,1.5,0,2.1.3.6.2,1.1.7,1.6,1.2.4.6.8,1.2,1.1,2.1.3.8.5,1.9.6,3.4.2,1.7.1,3.1-.2,4.1-.2,1-.7,1.9-1.4,2.5-.6.6-1.5,1-2.5,1.1-1.4.1-2.5-.3-3.4-1.2-1.1-1.1-1.8-3-2-5.7h0ZM89.5,157.9c.2,2.4.6,3.9,1.2,4.6.6.8,1.4,1.1,2.2,1,.8,0,1.5-.5,1.9-1.4.5-.8.6-2.4.4-4.8-.2-2.4-.6-3.9-1.2-4.7-.6-.7-1.4-1-2.2-1s-1.4.5-1.9,1.2c-.4,1.1-.6,2.8-.4,5.1h0Z"/>
  <path class="cls-1" d="M74.6,160.6h1.7c.1.8.2,1.4.6,1.8.4.4.9.6,1.5.7.5,0,1,0,1.5-.2.4-.2.8-.5,1.1-.9.3-.4.6-.9.9-1.6.2-.7.4-1.4.5-2.1v-.4c-.4.5-.9.9-1.6,1.2s-1.4.4-2.1.3c-1.2-.1-2.2-.7-2.9-1.6-.7-1-1-2.2-.8-3.6.2-1.5.8-2.6,1.7-3.4s2.1-1.1,3.4-.9c.9.1,1.8.5,2.5,1.1s1.2,1.4,1.5,2.4.3,2.4.1,4.1c-.2,1.8-.6,3.3-1.1,4.3s-1.2,1.8-2.1,2.3-1.8.6-2.9.5-2-.6-2.6-1.3c-.6-.6-.9-1.6-.9-2.7h0ZM82.6,155.1c.1-1,0-1.8-.5-2.5-.5-.6-1.1-1-1.8-1.1-.8-.1-1.5.2-2.2.7-.7.6-1.1,1.4-1.2,2.4-.1.9.1,1.7.6,2.3s1.1,1,1.9,1.1,1.5-.1,2.1-.6,1-1.2,1.1-2.3h0Z"/>
  <path class="cls-1" d="M33.3,52.6l-8.4-14.4,1.4-1.7,16.1,4.8-1.5,1.8-4.8-1.6-4.1,5.1,2.6,4.3-1.3,1.7h0ZM31.1,45l3.3-4.1s-6.8-2.3-7.6-2.6c.7.8,4.3,6.7,4.3,6.7h0Z"/>
  <path class="cls-1" d="M27.8,63.3l-13.8-7.3,2.7-5.1c.6-1.1,1.2-1.8,1.8-2.3s1.3-.8,2.1-.8c.8-.1,1.5.1,2.1.4.6.3,1.1.8,1.4,1.4.4.6.5,1.3.5,2.1.7-.7,1.5-1.1,2.3-1.2.8-.1,1.6,0,2.5.4.6.3,1.2.8,1.6,1.4s.6,1.1.8,1.7c.1.6,0,1.2-.1,1.9-.2.7-.5,1.5-.9,2.4l-3,5h0ZM27.2,60.6l1.8-3.4c.3-.6.5-1,.6-1.3.1-.5.2-.9.2-1.3s-.2-.7-.4-1.1-.6-.6-1-.9c-.5-.3-1-.4-1.5-.3-.5.1-1,.3-1.4.7s-.8,1-1.3,1.9l-1.7,3.2,4.7,2.5h0ZM20.8,57.2l1.6-3c.4-.8.7-1.4.8-1.8.1-.5.1-1-.1-1.4s-.5-.7-1-1c-.5-.2-.9-.4-1.4-.3-.5.1-.9.2-1.2.6-.4.4-.8,1-1.3,2l-1.5,2.7,4.1,2.2h0Z"/>
  <path class="cls-1" d="M24,77.6l-15.2-3.5,1.6-6.7c.3-1.4.7-2.4,1.1-3,.4-.6,1.1-1.1,1.8-1.4.8-.3,1.6-.3,2.4-.1,1.1.3,1.9.8,2.5,1.7.6.9.8,2.1.7,3.6.4-.5.7-.8,1-1,.7-.5,1.5-.9,2.4-1.2l4.7-1.7-.5,2.4-3.6,1.3c-1.1.4-1.9.7-2.4.9-.6.3-1,.5-1.2.8-.3.3-.5.5-.6.8-.1.2-.2.6-.3,1.1l-.7,2.4,6.7,1.6-.4,2h0ZM15.9,73.6l1-4.3c.2-.9.3-1.6.2-2.2s-.3-1-.6-1.4c-.4-.4-.8-.6-1.3-.7-.7-.2-1.4-.1-1.9.4-.6.4-1,1.2-1.3,2.3l-1.1,4.8,5,1.1Z"/>
  <path class="cls-1" d="M127.8,37.7l11.2-10.8,4.8,5c1,1,1.6,1.8,1.9,2.6.3.7.3,1.5.1,2.3s-.6,1.5-1.2,2.1c-.8.8-1.7,1.1-2.8,1.2-1,0-2.2-.5-3.4-1.4.2.6.3,1.1.3,1.4,0,.8-.1,1.7-.3,2.7l-1.2,4.9-1.8-1.9.9-3.8c.2-1.1.4-1.9.5-2.5s.1-1.1,0-1.5c0-.4-.2-.7-.4-1-.1-.2-.4-.5-.7-.9l-1.7-1.7-5,4.8-1.2-1.5h0ZM135.5,33.1l3.1,3.2c.6.7,1.2,1.2,1.7,1.4s1,.3,1.5.2,1-.3,1.3-.7c.5-.5.8-1.1.8-1.8s-.5-1.5-1.2-2.3l-3.4-3.5-3.8,3.5h0Z"/>
  <path class="cls-1" d="M117.4,22.5c1.2-2.3,2.8-3.7,4.8-4.3,1.9-.6,3.9-.4,5.8.7,1.2.7,2.2,1.6,2.9,2.8.7,1.2,1,2.4.9,3.8,0,1.4-.5,2.7-1.2,4.1-.8,1.4-1.7,2.5-2.9,3.2-1.2.8-2.4,1.2-3.7,1.2-1.4,0-2.6-.4-3.8-1-1.3-.7-2.3-1.6-2.9-2.8-.7-1.2-1-2.4-.9-3.8,0-1.4.3-2.7,1-3.9h0ZM119.2,23.6c-.9,1.6-1.2,3.2-.8,4.6.4,1.4,1.2,2.5,2.5,3.3,1.4.7,2.8.9,4.2.4,1.4-.5,2.6-1.6,3.6-3.3.6-1.1,1-2.2,1-3.2.1-1-.1-2-.6-2.8-.5-.9-1.2-1.5-2-2-1.3-.7-2.6-.9-4-.5-1.5.2-2.8,1.4-3.9,3.5h0Z"/>
  <path class="cls-1" d="M101.4,24.8l4.8-14.8,5.6,1.8c1,.3,1.7.6,2.2.9.7.4,1.2.8,1.6,1.3s.6,1.1.7,1.8c.1.7,0,1.4-.2,2.2-.4,1.2-1.1,2.2-2.2,2.8s-2.7.6-4.8-.1l-3.8-1.2-1.9,6-2-.7h0ZM105.9,17.7l3.8,1.2c1.3.4,2.2.5,2.9.2.7-.3,1.2-.9,1.5-1.7.2-.6.2-1.2.1-1.8-.2-.5-.5-1-1-1.3-.3-.2-.9-.4-1.8-.7l-3.8-1.2-1.7,5.3h0Z"/>
  <path class="cls-1" d="M148,105.7l14.6,5.6-2.1,5.5c-.4,1.1-.9,1.9-1.5,2.5s-1.2.9-2,1c-.8.2-1.5.1-2.1-.2-.6-.2-1.2-.6-1.6-1.2-.4-.6-.7-1.2-.8-2-.6.8-1.3,1.3-2.1,1.5s-1.6.2-2.5-.1c-.7-.2-1.2-.6-1.7-1.2-.5-.5-.8-1-1-1.6-.2-.5-.2-1.2-.1-1.9.1-.7.3-1.5.6-2.5l2.3-5.4h0ZM149,108.3l-1.4,3.6c-.2.6-.4,1-.4,1.3-.1.5-.1.9,0,1.3,0,.4.2.7.5,1s.6.6,1.1.8c.5.2,1,.2,1.6.1.5-.1.9-.4,1.3-.8.4-.4.7-1.1,1.1-2l1.3-3.3-5.1-2h0ZM155.7,110.8l-1.2,3.2c-.3.8-.5,1.5-.5,1.9,0,.5.1,1,.3,1.4s.6.7,1.1.9c.5.2,1,.2,1.4.1.5-.1.8-.3,1.1-.7.3-.4.6-1.1,1-2.1l1.1-2.9-4.3-1.8h0Z"/>
</svg>