<?xml version="1.0" encoding="UTF-8"?>
<svg id="Layer_1" data-name="Layer 1" xmlns="http://www.w3.org/2000/svg" viewBox="0 0 150 150">
  <defs>
    <style>
      .cls-1 {
        fill: #78bd4a;
      }

      .cls-1, .cls-2, .cls-3, .cls-4, .cls-5, .cls-6, .cls-7, .cls-8, .cls-9, .cls-10, .cls-11, .cls-12, .cls-13, .cls-14, .cls-15, .cls-16, .cls-17, .cls-18, .cls-19, .cls-20, .cls-21, .cls-22 {
        stroke-width: 0px;
      }

      .cls-2 {
        fill: #525a8c;
      }

      .cls-3 {
        fill: #7a7ba3;
      }

      .cls-4 {
        fill: #51598b;
      }

      .cls-5 {
        fill: #35467f;
      }

      .cls-6 {
        fill: #2c417c;
      }

      .cls-7 {
        fill: #2d417c;
      }

      .cls-8 {
        fill: #9a99b8;
      }

      .cls-9 {
        fill: #465186;
      }

      .cls-10 {
        fill: #2e427c;
      }

      .cls-11 {
        fill: #2e427d;
      }

      .cls-12 {
        fill: #3b4a81;
      }

      .cls-13 {
        fill: #34467f;
      }

      .cls-14 {
        fill: #3e4c82;
      }

      .cls-15 {
        fill: #36467f;
      }

      .cls-16 {
        fill: #364780;
      }

      .cls-17 {
        fill: #dcdddc;
      }

      .cls-18 {
        fill: #a7a5c2;
      }

      .cls-19 {
        fill: #a9a8c3;
      }

      .cls-20 {
        fill: #73749e;
      }

      .cls-21 {
        fill: #30437e;
      }

      .cls-22 {
        fill: #e4e3ec;
      }
    </style>
  </defs>
  <g>
    <path class="cls-6" d="M87.68,44.23c-2.99,1.21-5.59,2.94-7.27,5.78-1.54,2.6-1.69,5.41-1.16,8.3.11.57.2,1.15.29,1.72,1.11,6.55-2.62,12.08-9.24,13.64-.17-.47.28-.55.49-.73,3.49-2.89,4.49-6.52,3.27-10.82-.46-1.63-1.04-3.23-1.43-4.88-.98-4.11.22-7.19,3.68-9.61,3.06-2.14,6.57-3.06,10.18-3.71.44-.07.96-.46,1.19.31Z"/>
    <path class="cls-7" d="M145.7,83.2c-1.2,2.7-2.39,5.4-3.6,8.1-.19.42-.2,1.1-.75,1.13-.58.03-.88-.59-1.1-1.04-1.23-2.58-2.41-5.18-3.6-7.78-.15-.33-.19-.74-.61-.93-.89,2.85-1.54,8.48-1.1,9.75h-2.55c1.25-3.98,1.72-8.09,2.08-12.35.41,0,1.04.06,1.65-.01.95-.12,1.39.33,1.74,1.15,1.09,2.58,2.24,5.13,3.5,8.01.53-1.17.95-2.05,1.34-2.94.73-1.69,1.43-3.39,2.18-5.07.19-.42.27-1.02.85-1.09.67-.08,1.37-.13,2.03-.03,1.35.2.2,1.05.29,1.56.52,3.05.89,6.13,1.35,9.19.08.5.37.97.61,1.58-1.05.16-2.02.1-2.91.03.36-3.18-.55-6.18-.77-9.24-.2-.25-.41-.22-.62,0Z"/>
    <path class="cls-7" d="M65.55,88.19c1.03-2.41,2.05-4.82,3.09-7.22.32-.73,2.55-1.29,3.17-.83.25.19.11.41.1.64-.06,3.6.71,7.1,1.29,10.62.05.3.3.58.53,1.01h-3.01c.48-2.45-.29-4.79-.51-7.17-.32-.64-.04-1.32-.17-1.97-.14-.67-.42-.5-.68-.05-1.17,2.65-2.34,5.31-3.53,7.95-.21.46-.23,1.23-.82,1.24-.6.01-.93-.67-1.17-1.18-1.22-2.58-2.4-5.19-3.59-7.79-.12-.25-.24-.5-.39-.81-.79,1.48-1.68,8.54-1.23,9.8h-2.64c1.41-3.39,1.32-7.06,2.11-10.57.01-.05,0-.12.03-.14.61-.44-1.02-1.51.39-1.62,1.23-.1,2.55-.41,3.17,1.4.81,2.38,1.95,4.64,2.95,6.96.6.86.68.04.91-.28Z"/>
    <path class="cls-1" d="M55.99,43c5.83-2.43,13.7,1.17,15.51,6.89.53,1.66-.94,3.45-2.63,3.24-3-.38-5.26-1.82-6.71-4.5-1.35-2.5-3.4-4.28-6.17-5.63Z"/>
    <path class="cls-7" d="M17.51,79.79c-1.33-.05-2.72.34-4,1.07-4.13,2.35-4.5,7.79-.71,10.56,3.27,2.4,8.52,1.67,11.03-1.52.81-1.02,1.25-2.17,1.28-3.48.08-3.87-3.01-6.61-7.61-6.64ZM17.56,91.45c-2.9-.03-5.05-2.27-5.05-5.25s2.2-5.07,5.23-5.07c2.9.03,5.02,2.25,5.02,5.28s-2.17,5.04-5.2,5.04Z"/>
    <path class="cls-10" d="M53.01,80.08c-.6,4.18-.34,8.24-.23,12.35-.57-.06-1.53.56-2.3-.48-.22-.29-.62.08-.91.22-1.12.53-2.29.79-3.53.68-2.56-.21-4.01-1.63-4.13-4.19-.09-1.84-.03-3.68-.04-5.52,0-.96.1-1.94-.59-2.8.23-.13.34-.24.45-.24.82-.01,1.82-.28,2.43.08.81.47-.23,1.29-.18,2.04.13,2.13.01,4.26.07,6.39.05,2.01.98,2.83,3.06,2.85,2.21.02,3.44-.88,3.41-2.86-.04-2.64.48-5.33-.37-7.93-.17-.5.11-.59.5-.59.81,0,1.63,0,2.36,0Z"/>
    <path class="cls-10" d="M39.12,92.4c-1.62.33-2.74-.17-3.63-1.28-1.12-1.4-2.22-2.82-3.36-4.2-.55-.66-.5-.98.38-1.13.33-.06.65-.21.95-.36,1.31-.65,1.83-1.76,1.35-2.82-.47-1.02-2.36-1.65-3.45-1.18-.4.17-.46.47-.44.82.18,3.22-.43,6.48.38,9.67.12.5-.06.6-.48.6-.82,0-1.64,0-2.31,0,.31-4.03.61-7.95-.12-11.87-.1-.53.1-.6.5-.58,1.79.09,3.6-.21,5.37.2,1.46.34,2.7,1.02,2.91,2.66.2,1.53-.78,2.46-2.04,3.03-1,.45-.75.81-.2,1.45,1.4,1.59,2.73,3.23,4.2,4.99Z"/>
    <path class="cls-10" d="M113.64,95.7c-1.09.91-2.27,1.14-3.56.43.15-.99.82-.42,1.29-.43.55-.02,1.14-.17,1.23-.74.14-.94-.97-.48-1.29-.97-.04-1.45-1.16-1.29-2.1-1.42q-1.63-.24-2.09-2.38c.82.32,1.54.65,2.29.89,1.27.41,2.57.55,3.84,0,1.62-.69,1.81-2.14.34-3.09-.97-.63-2.09-1.01-3.12-1.54-.64-.33-1.3-.68-1.86-1.13-1.72-1.39-1.53-3.58.4-4.67,1.94-1.1,4.04-.96,6.1-.55,1.19.24.35,1.24.81,2.17-1.58-.78-2.78-1.29-4.13-1.11-.91.12-1.79.38-2,1.39-.2.97.55,1.5,1.3,1.89.99.51,2.02.94,3.03,1.42,3.32,1.56,3.65,3.63.98,6.1-.59.36-1.16.8-1.91.73-.42,0-.82.05-.98.52.28.35.76.27,1.09.51.12.1.23.2.35.3.51.57.53,1.13,0,1.7Z"/>
    <path class="cls-10" d="M104.53,89.81c-1.15-2.82-2.43-5.59-3.45-8.47-.52-1.52-1.59-1.23-2.67-1.26-1.28-.05-.26.97-.65,1.33-.08.1-.08.29-.16.42-1.57,3.45-2.88,7.06-4.78,10.66.5,0,.81,0,1.15.03.78.03,1.31.18,1.25-1.12-.08-1.07.71-2.3,1.39-3.27.47-.63,1.49-.23,2.22-.23,2.82-.03,3.22-.08,3.74,2.72.44,2.35,1.73,1.94,3.19,1.88.05,0,.1-.13.24-.26-.65-.71-1.1-1.52-1.46-2.43ZM99.54,86.67c-2.46-.08-2.46,0-1.49-2.27.31-.71.63-1.39,1.12-2.46.52,1.31.86,2.33,1.33,3.24.63,1.2.39,1.54-.97,1.49Z"/>
    <path class="cls-10" d="M129.26,88.37c-.97-2.33-2.01-4.63-2.85-7.01-.5-1.49-1.54-1.28-2.64-1.31-1.28-.03-.31.94-.65,1.36-.26.34-.31.81-.5,1.2-1.49,3.24-2.67,6.61-4.42,9.78.5.29.99.08,1.46.1.63.08.94.1.86-.86-.1-1.25.68-2.41,1.36-3.45.47-.71,1.46-.26,2.2-.29,2.93-.03,3.32-.08,3.82,2.74.39,2.27,1.65,1.86,2.98,1.88.1,0,.21-.03.55-.1-1.12-1.28-1.59-2.69-2.17-4.05ZM125.94,86.59c-1.05.03-2.09.03-3.14-.05-.24-.03-.16-.42-.05-.63.52-1.23,1.07-2.43,1.75-4,.65,1.57,1.1,2.72,1.57,3.87.05.08.08.18.1.26.08.26.08.55-.24.55Z"/>
    <path class="cls-21" d="M.32,80.08c2.16,0,4.23.02,6.3,0,1.02-.01.93.69.84,1.29-.15.92-.7.25-1.09.2-.29-.04-.57-.12-.86-.14-2.37-.2-3.24.9-2.55,3.18.16.52.53.48.91.49.48,0,.97.03,1.45-.01.79-.07,1.04.3.98,1.03-.06.86-.58.53-1.04.45-.38-.06-.77-.06-1.15-.11-.86-.11-1.26.18-1.15,1.12.17,1.43-.27,2.9.33,4.3.19.43.08.64-.39.65-.15,0-.29,0-.44,0-.63,0-1.4.22-1.86-.06-.73-.44.2-1.03.19-1.63-.06-3.04,0-6.09-.04-9.13,0-.5-.26-.99-.44-1.62Z"/>
    <path class="cls-11" d="M85.63,92.45c.25-.85.44-1.63.56-2.44.56-3.95-2.39-6.21-4.23-9.01-.15-.24-.37-.43-.55-.65-.02-.02.02-.09.05-.17,1.59-.38,2.84-.1,3.64,1.56.52,1.08,1.32,2.03,1.96,3.06.34.55.67.56.91,0,.65-1.5,2.47-2.42,2.15-4.4-.05-.32.3-.35.52-.31.65.11,1.4-.3,1.93.21.27.26-.18.58-.36.85-.92,1.37-1.75,2.81-2.79,4.07-1.83,2.22-1.13,4.6-.84,7.18-.83.28-1.84.09-2.94.06Z"/>
    <path class="cls-1" d="M84.55,51.22c1.9-.01,3.6,1.51,3.62,3.27.02,1.72-1.7,3.31-3.58,3.31-1.92,0-3.6-1.52-3.61-3.28,0-1.76,1.65-3.29,3.57-3.31Z"/>
    <path class="cls-5" d="M27.15,101.87c-2.42,0-2.58.22-2.16,2.82.06.37.56.87-.1,1.11-.38.14-.9.14-1.28,0-.67-.24-.08-.73-.09-1.1-.01-2.03,0-4.06-.03-6.08,0-.27-.26-.63.15-.72.41-.09.88-.1,1.29.01.37.1.16.47.11.74-.06.33-.05.67-.1,1-.15,1,.23,1.46,1.27,1.3.28-.04.58,0,.87,0,2.42,0,2.48,0,2.28-2.35-.09-.98.49-.72.96-.77.7-.06.68.23.63.87-.15,2.11-.25,4.24.06,6.35.04.29.18.66-.17.74-.46.09-.98.09-1.43-.03-.35-.1-.16-.48-.09-.75.05-.19.09-.38.11-.57q.28-2.57-2.29-2.57Z"/>
    <path class="cls-5" d="M88.37,99.98c-.02,1.64-.14,3.25.08,4.87.04.32.32.71-.09.9-.28.13-.7.16-.98.04-.54-.22-.12-.64-.11-.99.04-1.93.04-3.87.1-5.8.01-.38-.6-.88.07-1.12.55-.2,1.14-.1,1.58.43,1,1.19,2.02,2.35,3.03,3.53.4.47.8.94,1.47,1.71,0-1.88,0-3.39,0-4.89,0-.27-.28-.62.1-.75.29-.1.7-.09.98.04.35.16.04.5.04.76-.04,2.03-.05,4.06-.08,6.09,0,.36.19.83-.28,1.03-.48.21-.67-.24-.92-.52-1.41-1.6-2.82-3.2-4.22-4.81-.18-.2-.29-.51-.77-.52Z"/>
    <path class="cls-5" d="M44.67,104.89c-.26-.47-.5-.97-.71-1.44-.65-1.57-1.31-3.14-1.93-4.71-.24-.63-.58-.92-1.28-.94-.78-.03-.73.5-.94.99-.81,2.01-1.7,4-2.59,5.99-.13.29-.5.58-.24.92.21.29.63.16.97.13.52-.03.31-.42.37-.73.13-.92.29-1.94,1.2-2.3,1.88-.73,3.32.16,3.56,2.22.1.79.37.89,1.15.81.13-.05.55.21.73-.18.16-.31-.16-.52-.29-.76ZM40.88,101.94c-.97,0-1.57-.05-.86-1.2.24-.42.39-.86.63-1.44.71.45.63,1.1.91,1.57.47.78.26,1.07-.68,1.07Z"/>
    <path class="cls-13" d="M81.06,104.84c-.39-.55-.6-1.2-.86-1.83-.63-1.46-1.25-2.95-1.83-4.44-.24-.6-.65-.78-1.25-.73-.42.03-.68.03-.84.55-.65,2.25-1.73,4.31-2.67,6.43-.13.29-.52.6-.21.89.18.18.63.16.94.13.52-.03.31-.42.39-.73.16-.89.26-1.96,1.2-2.3,1.86-.71,3.32.18,3.56,2.25.1.78.37.86.99.78.94.1,1.18-.13.58-.99ZM77.17,101.94c-1.02,0-1.36-.21-.78-1.18.26-.44.44-.94.81-1.78.34.84.44,1.33.71,1.78.58.94.31,1.2-.73,1.18Z"/>
    <path class="cls-13" d="M112.55,104.4c1.26.23,2.32.63,3.44.42.59-.11,1.17-.33,1.26-1.02.09-.63-.39-.95-.88-1.2-.82-.42-1.66-.8-2.46-1.26-.66-.38-1.14-.93-1.06-1.76.09-.88.69-1.34,1.46-1.63,1.04-.4,2.1-.31,3.16-.15.46.07.68.4.54.85-.16.52-.52.24-.82.14-.14-.05-.27-.11-.41-.14-.92-.18-2.06-.4-2.39.69-.3.98.83,1.24,1.53,1.61.3.16.63.26.93.41,1.02.5,2.09,1.01,1.85,2.42-.17,1.06-1.7,2.16-2.96,2.1-1.19-.06-2.74.6-3.2-1.47Z"/>
    <path class="cls-15" d="M50.01,104.08c1.38.55,2.41,1.02,3.56.72.53-.14,1.05-.34,1.16-.95.12-.64-.35-.96-.83-1.22-.86-.45-1.77-.81-2.58-1.34-1.47-.97-1.29-2.54.31-3.26,1.07-.48,2.18-.39,3.29-.24.44.06.73.35.61.81-.16.66-.56.28-.9.16-.18-.06-.37-.13-.56-.16-.83-.13-1.82-.28-2.17.66-.36.97.65,1.24,1.31,1.59.38.21.8.35,1.19.54.89.43,1.79.89,1.79,2.06,0,1.28-1.03,1.97-1.95,2.29-.95.34-2.11.18-3.16.07-.72-.08-.79-.83-1.09-1.73Z"/>
    <path class="cls-16" d="M106.96,104.23c-.11,1.19-.49,1.75-1.64,1.64-1.15-.11-2.52.28-3.39-.23-.46-.27-.04-2-.05-3.07-.02-1.35-.03-2.7-.12-4.04-.03-.4-.07-.68.41-.69,1.11-.01,2.23-.02,3.34,0,.39,0,.65.23.59.65-.08.52-.43.36-.77.3-.69-.12-1.5-.42-2,.29-.56.79.08,1.74,1.17,1.86.4.04.87.03.85.55-.02.61-.53.44-.88.37-.97-.17-1.29.2-1.25,1.17.03.92-.08,1.76,1.28,1.69.79-.04,1.53-.19,2.45-.5Z"/>
    <path class="cls-12" d="M65.24,97.82c.73,0,1.45,0,2.18,0,.32,0,.75-.04.71.47-.03.46-.28.72-.78.56-1.62-.55-1.77.34-1.66,1.61.14,1.58-.17,3.18.18,4.77.19.87-.53.59-.94.62-.5.04-1.03.08-.83-.73.42-1.72.06-3.47.22-5.19.11-1.15-.46-1.31-1.39-1.18-.33.05-.85.45-.96-.1-.11-.56.37-.83.94-.83.78,0,1.55,0,2.33,0Z"/>
    <path class="cls-14" d="M126,97.77c.65.03.94.05.85.9-.23,2.1-.25,4.23.03,6.35.04.27.27.65-.09.75-.45.12-.96.11-1.43.04-.39-.06-.27-.41-.22-.7.33-2.16.26-4.33.06-6.48-.08-.93.35-.8.8-.85Z"/>
    <path class="cls-2" d="M126.77,96.99c-.17.38-.45.66-.89.54-.4-.11-.69-.39-.55-.85.11-.35.41-.55.78-.48.41.07.7.31.65.8Z"/>
    <path class="cls-9" d="M111.37,95.7c-.43.13-1-.12-1.29.43-.42-.12-1.14-.07-.94-.72.2-.69.77-.2,1.18-.07.36.11.71.24,1.06.36Z"/>
    <path class="cls-19" d="M69.35,83.23c-.05-.31.04-.62.34-.68.41-.08.41.31.42.58.05.71.06,1.42.08,2.12-.51-.49-.29-1.13-.33-1.7-.03-.43-.21-.43-.52-.31Z"/>
    <path class="cls-4" d="M109.21,92.56c1.09-.09,2.27-.33,2.1,1.42-.27-1.11-1.26-1.15-2.1-1.42Z"/>
    <path class="cls-8" d="M87.62,43.58c.61-.34,1.23-.32,1.91-.16-.16.58-.58.51-.94.55-.36-.05-.75,0-.97-.39Z"/>
    <path class="cls-20" d="M87.62,43.58c.33.1.75,0,.97.39-.26.22-.56.33-.91.26-.3-.46-.81-.14-1.19-.31.31-.31.74-.26,1.12-.34Z"/>
    <path class="cls-17" d="M113.11,92.56c.74.04,1.3-.5,1.99-.62-.48.81-1.24.94-2.08.86-.07-.12-.04-.2.09-.24Z"/>
    <path class="cls-9" d="M113.64,95.7c.21-.57.2-1.13,0-1.7.77.57.76,1.13,0,1.7Z"/>
    <path class="cls-3" d="M65.55,88.19c.04.39,0,.84-.42.93-.4.09-.53-.28-.49-.65.48.48.63-.12.91-.28Z"/>
    <path class="cls-4" d="M113.11,92.56c-.02.08-.05.16-.09.24,0,0-.13-.02-.13-.02l-.12.05c-.26.25-.54.47-.85.64-.12.04-.23.02-.33-.06-.06-1.28.86-.83,1.51-.85Z"/>
    <path class="cls-22" d="M111.92,93.39c-.15-.84.45-.55.85-.56,0,.16,0,.33,0,.49-.26.34-.56.25-.86.07Z"/>
    <path class="cls-9" d="M111.92,93.39c.29-.02.57-.05.86-.07.18.12.47.09.52.38-.57-.07-1.2.2-1.7-.29.11,0,.21-.01.32-.02Z"/>
    <path class="cls-18" d="M145.7,83.2c-.03-.32.07-.66.39-.65.41.01.28.39.23.66-.21,0-.41,0-.62,0Z"/>
  </g>
  <g>
    <path class="cls-10" d="M3.99,75.83c0,.47-.08.88-.25,1.24-.16.35-.4.63-.7.82-.3.19-.65.29-1.05.29-.6,0-1.08-.21-1.45-.64-.37-.43-.55-1-.55-1.73v-.53c0-.46.08-.88.25-1.24.17-.36.4-.64.7-.83.3-.19.65-.29,1.04-.29s.74.09,1.04.29c.3.19.53.46.7.8s.25.75.26,1.2v.61ZM3.55,75.27c0-.62-.14-1.1-.42-1.45-.28-.35-.66-.52-1.15-.52s-.85.17-1.14.53c-.28.35-.42.84-.42,1.47v.53c0,.61.14,1.09.42,1.44.28.35.66.53,1.15.53s.87-.17,1.14-.52c.28-.35.41-.84.41-1.46v-.54ZM.94,72.05c0-.08.03-.15.08-.2.05-.05.12-.08.21-.08s.16.03.21.08c.05.06.08.12.08.2s-.03.14-.08.2c-.05.05-.12.08-.21.08s-.16-.03-.21-.08c-.05-.06-.08-.12-.08-.2ZM2.48,72.06c0-.08.03-.15.08-.2.05-.06.12-.08.21-.08s.16.03.21.08c.05.05.08.12.08.2s-.03.14-.08.2-.12.08-.21.08-.16-.03-.21-.08-.08-.12-.08-.2Z"/>
    <path class="cls-10" d="M5.19,77.74h3.16v.37h-3.68v-.33l3.04-4.42h-2.94v-.37h3.48v.31l-3.05,4.44Z"/>
    <path class="cls-10" d="M12.12,75.65h-2.39v2.09h2.75v.37h-3.18v-5.11h3.17v.37h-2.73v1.93h2.39v.37Z"/>
    <path class="cls-10" d="M13.82,77.74h2.52v.37h-2.96v-5.11h.44v4.75Z"/>
    <path class="cls-10" d="M19.5,72.99l1.89,4.51,1.89-4.51h.57v5.11h-.43v-2.23l.04-2.28-1.9,4.51h-.33l-1.9-4.49.03,2.25v2.24h-.43v-5.11h.57Z"/>
    <path class="cls-10" d="M27.97,75.65h-2.39v2.09h2.75v.37h-3.18v-5.11h3.17v.37h-2.73v1.93h2.39v.37Z"/>
    <path class="cls-10" d="M31.16,75.97h-1.49v2.13h-.44v-5.11h1.66c.54,0,.97.13,1.28.4.31.27.46.63.46,1.11,0,.33-.1.62-.29.87s-.45.42-.77.52l1.28,2.18v.05h-.46l-1.24-2.13ZM29.67,75.61h1.32c.36,0,.66-.1.88-.31.22-.21.33-.47.33-.8,0-.36-.11-.64-.34-.84s-.55-.3-.96-.3h-1.22v2.25Z"/>
    <path class="cls-10" d="M36.7,76.85c0-.28-.1-.51-.3-.67s-.56-.32-1.09-.47c-.53-.15-.92-.31-1.16-.49-.35-.25-.52-.57-.52-.98s.16-.71.49-.95c.32-.25.73-.37,1.23-.37.34,0,.64.07.91.2.27.13.48.31.62.55.15.23.22.5.22.78h-.44c0-.35-.12-.63-.36-.84-.24-.21-.56-.32-.96-.32s-.7.09-.93.26c-.23.17-.35.4-.35.68,0,.26.1.47.31.64.21.17.54.31,1,.44.46.13.8.26,1.04.39.24.14.41.3.53.49.12.19.18.41.18.66,0,.4-.16.73-.48.97-.32.25-.75.37-1.27.37-.36,0-.69-.07-.99-.19-.3-.13-.53-.31-.68-.54s-.23-.5-.23-.8h.43c0,.36.14.64.41.85.27.21.63.31,1.07.31.4,0,.72-.09.96-.26.24-.18.36-.41.36-.7Z"/>
    <path class="cls-10" d="M38.09,72.12c0-.08.03-.15.08-.2.05-.06.12-.08.21-.08s.16.03.21.08c.05.05.08.12.08.2s-.03.14-.08.2c-.05.05-.13.08-.21.08s-.16-.03-.21-.08-.08-.12-.08-.2ZM38.6,78.11h-.43v-5.11h.43v5.11Z"/>
    <path class="cls-10" d="M43.79,78.11h-.43l-2.94-4.38v4.38h-.44v-5.11h.44l2.94,4.38v-4.38h.43v5.11Z"/>
  </g>
</svg>