<?xml version="1.0" encoding="UTF-8"?>
<svg id="Layer_1" data-name="Layer 1" xmlns="http://www.w3.org/2000/svg" viewBox="0 0 150 150">
  <defs>
    <style>
      .cls-1 {
        fill: #2b5f85;
        stroke-width: 0px;
      }
    </style>
  </defs>
  <path class="cls-1" d="M147.19,76.05c-1.38-1.91-1.32-1.97.31-3.69.86-.9,2.12-1.59,2.03-3.08-2.2-.33-3.86.34-5.14,2.14-.67.96-1.66,1.74-2.79,2.85,0-1.51-.06-2.6.02-3.69.06-.99-.27-1.34-1.32-1.32-.92.04-1.47.13-1.45,1.24.06,3.02.06,6.06,0,9.1-.02,1.11.52,1.22,1.45,1.22.86-.02,1.45-.1,1.3-1.13-.04-.33,0-.69,0-1.05,0-1.01.75-1.7,1.49-2.03.73-.34,1.03.67,1.3,1.17,1.24,2.12,2.79,3.63,5.6,3.06v-.71c-.73-1.47-1.82-2.75-2.81-4.07Z"/>
  <path class="cls-1" d="M86.89,70.52c.03-1.07-.43-1.24-1.4-1.26-1.04-.02-1.41.31-1.35,1.3.07,1.28.03,2.57,0,3.85,0,.37.19.89-.35,1.06-.55.17-.69-.37-.93-.67-1.26-1.57-2.57-3.12-3.74-4.75-.72-.99-1.7-.86-2.61-.73-1.13.16-.57,1.13-.58,1.72-.07,2.86,0,5.72-.05,8.58-.02.94.33,1.19,1.26,1.18.94,0,1.47-.12,1.42-1.21-.08-1.8-.02-3.61-.02-5.89.52.58.75.82.96,1.09,1.4,1.76,2.84,3.51,4.18,5.31.74,1,1.75.75,2.65.61.96-.15.51-1.05.52-1.61.05-2.86-.03-5.72.05-8.58Z"/>
  <path class="cls-1" d="M135.64,76.11c1.34-1.2,1.36-2.81.77-4.38-.56-1.6-1.93-2.27-3.52-2.39-1.76-.15-3.54-.02-5.31-.07-.77,0-1.07.28-1.07,1.03.05,3.15.05,6.31,0,9.46,0,.77.32.94,1.07,1.05,1.64.19,1.93-.53,1.85-1.91-.11-1.32,1.19-2.03,2.35-1.3.44.27.79.78.96,1.26.67,1.97,2.1,2.28,4.2,1.7-.55-.84-.93-1.6-1.47-2.21-.8-.86-.74-1.42.17-2.24ZM131,75.23c-1.32.31-1.78-.29-1.63-1.68.1-1.07-.28-2.28,1.67-2.03,1.35.17,2.81-.02,2.94,1.8.1,1.34-.78,1.91-2.98,1.91Z"/>
  <path class="cls-1" d="M60.29,78.5c-1.46.06-2.93-.01-4.39.04-.94.03-1.11-.43-1.11-1.19,0-.72.05-1.27,1.04-1.22,1.1.05,2.2-.02,3.29.02.9.03,1.49-.07,1.46-1.2-.02-1.06-.59-1.1-1.4-1.08-1.1.02-2.2-.03-3.29.02-.95.04-1.09-.45-1.11-1.2-.02-.81.26-1.17,1.16-1.14,1.4.05,2.81,0,4.21.03.89.02,1.13-.36,1.14-1.16,0-.83-.27-1.18-1.15-1.12-.73.05-8.07.04-8.07.04v11.48s.07,0,.96-.01c2.44-.04,4.88-.04,7.32,0,.87.01.99-.39.99-1.08,0-.73-.06-1.25-1.05-1.21Z"/>
  <path class="cls-1" d="M70.92,72.87c1.1-1.04,2.08-2.2,3.22-3.41-2.02-.42-3.5-.21-4.66,1.37-.83,1.12-1.95,2.05-3.29,3.43,0-1.59-.06-2.63.02-3.66.07-.95-.17-1.36-1.28-1.34-1.03.02-1.54.16-1.5,1.33.09,2.97.07,5.95,0,8.92-.02,1,.31,1.29,1.34,1.3,1.1.02,1.65-.25,1.41-1.36-.27-1.28.37-2.42,1.38-2.79,1.09-.4,1.17,1.16,1.86,1.7.14.11.25.27.32.42.92,2.01,2.55,2.36,4.76,1.8-1.29-1.8-2.45-3.56-3.77-5.2-.81-1-.68-1.68.2-2.52Z"/>
  <path class="cls-1" d="M117.18,69.97c-1.57,3.27-3.04,6.6-4.57,9.91-.33.74-.02.91.71.91,1.05,0,2.1.12,2.39-1.24.15-.73.7-1.01,1.49-.97,1.09.05,2.21,0,3.3,0,.48.03,1.09-.06,1.21.53.44,2.12,1.99,1.74,3.71,1.55-1.61-3.63-3.14-7.15-4.76-10.65-.5-1.07-2.97-1.09-3.48-.04ZM118.88,76.47c-.63-.19-1.42.35-1.55-.61-.08-.61,1.22-2.87,1.53-2.71,1.05.57,1.24,1.74,1.38,2.67.19,1.11-1.04.23-1.36.65Z"/>
  <path class="cls-1" d="M108.98,69.32c-1.57-.11-3.16.02-4.76-.05-.98-.04-1.25.36-1.21,1.24.06,1.47.02,2.94.02,4.38,0,1.53.06,3.05-.04,4.55-.07,1.16.44,1.37,1.51,1.37,1,0,1.53-.28,1.34-1.28-.3-1.7.38-2.39,2.16-2.1.31.06.63.02.92,0,2.5-.17,4.03-1.74,4.03-4.13,0-2.22-1.55-3.84-3.97-3.98ZM107.43,75.27c-1.78.17-1.7-.8-1.57-1.86-.06-1.05-.25-2.02,1.47-1.89,1.99.14,2.95.63,2.87,1.91-.13,1.67-1.38,1.72-2.77,1.84Z"/>
  <path class="cls-1" d="M94.06,78.38c-2.33-.82-3.32-2.77-2.43-4.68.96-2.07,3.06-2.67,5.31-1.46.63.34,3.3.78,3.53.06.18-.57-.52-1-.94-1.4-1.96-1.83-5.34-2.26-7.85-1.02-2.25,1.11-3.53,3.43-3.22,5.82.34,2.68,2.25,4.49,5.43,5.16.74.18,1.48.18,2.22-.02,1.84-.46,3.49-1.15,4.36-3-2.09-.5-3.84,1.44-6.4.54Z"/>
  <path class="cls-1" d="M19.55,70.28c-.25-.57-.53-1.01-1.3-1.01s-.99.57-1.24,1.09c-1.4,3.02-2.83,6.04-4.23,9.08-.19.42-.8.95,0,1.28.54.23,1.3-.63,1.3-.63l1.22-2.05,5.94.02,1.24,2.08s.09.21.17.31c.36.44.9.44,1.32.25.61-.27.11-.69-.04-1.03-1.45-3.12-2.91-6.26-4.38-9.39ZM15.64,76.91l2.68-5.96,2.66,5.96h-5.34Z"/>
  <path class="cls-1" d="M33.77,79.46c-2.1-.02-4.21,0-6.29,0-.09-.62.28-.8.5-1.05,2.12-2.48,4.26-4.96,6.39-7.43.37-.42.69-.87.4-1.41-.24-.46-.76-.25-1.15-.26-2.38-.02-4.76-.02-7.14,0-.51,0-1.2-.17-1.22.65-.02.84.69.66,1.19.67,1.99.02,3.98,0,6.29,0-.4.5-.55.69-.7.87-2.13,2.48-4.26,4.96-6.39,7.43-.36.41-.74.83-.58,1.4.18.62.77.46,1.23.46,2.5.01,5,0,7.5,0,.6,0,1.14-.04,1.08-.8-.06-.74-.69-.52-1.12-.53Z"/>
  <path class="cls-1" d="M38.88,72.74c0-.51-.05-.94-.75-.92-.54.02-.73.3-.73.79,0,2.45,0,4.89,0,7.34,0,.45.1.8.67.83.68.04.81-.33.8-.87-.01-1.17,0-2.33,0-3.5,0-1.22,0-2.45,0-3.67Z"/>
  <path class="cls-1" d="M99.89,73.3c-1.5.02-1.97.41-1.94,1.86.03,1.34.23,1.98,1.85,1.92,1.42-.05,1.87-.21,1.85-1.82.02-1.51-.14-1.98-1.77-1.95Z"/>
  <path class="cls-1" d="M9.11,75.17c-.5-.02-1.12-.26-1.51.27-.15.2.02.49.29.52.41.05.84.02,1.26.02.08,1.1.81,2.33-.73,3.07-1.61.77-3.86.45-5.32-.75-1.4-1.16-1.91-3.1-1.26-4.8.63-1.65,2.3-2.78,4.2-2.89,1.21-.07,2.3.22,3.29.86.41.26.73.36,1.09-.08.46-.57.03-.85-.37-1.12-.3-.2-.62-.37-.96-.51-2.99-1.24-6.41-.33-8.12,2.15-1.57,2.26-1.22,5.38.81,7.22,2.32,2.11,5.81,2.26,8.53.37.8-1.23.35-2.58.3-3.85-.03-.8-.97-.45-1.51-.47Z"/>
  <path class="cls-1" d="M38.27,69.28c-.48-.02-.85.08-.87.64-.03.49.18.77.72.79.54.02.78-.23.77-.73,0-.4-.15-.67-.62-.69Z"/>
  <path class="cls-1" d="M41.17,69.32h-.62v2.19h3.56s.12,5.95.04,8.05c-.03,1.07.46,1.28,1.42,1.24.89-.04,1.7.09,1.64-1.21-.1-1.92-.15-8.08-.15-8.08h3.71v-2.19h-9.6Z"/>
</svg>