<?xml version="1.0" encoding="UTF-8"?>
<svg id="katman_1" data-name="katman 1" xmlns="http://www.w3.org/2000/svg" viewBox="0 0 175.1 174.7">
  <defs>
    <style>
      .cls-1 {
        fill: #154074;
      }

      .cls-1, .cls-2 {
        stroke-width: 0px;
      }

      .cls-2 {
        fill: #abdcf6;
      }
    </style>
  </defs>
  <path class="cls-1" d="M87.5,0C39.2,0,0,39,0,87.3s39.3,87.4,87.6,87.4,87.5-39.2,87.5-87.4S135.9,0,87.5,0ZM87.5,171.1c-46.4,0-84-37.5-84-83.8S41.1,3.5,87.5,3.5s84,37.5,84,83.8-37.6,83.8-84,83.8Z"/>
  <path class="cls-2" d="M87.5,136.3c-27,0-49-22-49-48.9s22-48.9,49-48.9,49,22,49,48.9-22,48.9-49,48.9"/>
  <path class="cls-1" d="M80.5,151.6c-.7-.1-1.3.2-1.8.7-.5.6-.7,1.3-.8,2.3-.1,1.2.1,2.1.5,2.9.4.8,1.1,1.2,1.9,1.2.8.1,1.5-.1,1.9-.6.5-.5.8-1.2.8-2.2.1-1.1-.1-2.1-.6-3-.5-.8-1.2-1.3-1.9-1.3Z"/>
  <path class="cls-1" d="M121.2,29c.7-.2,1.3-.7,1.8-1.6.5-.9.6-1.6.4-2.3-.2-.7-.8-1.2-1.7-1.8-.2-.1-.3-.2-.5-.3s-.4-.2-.6-.3l-3,5.1c.3.2.7.4,1,.6,1,.6,1.9.8,2.6.6Z"/>
  <polygon class="cls-1" points="23.5 72.7 24.6 68.8 18.8 69.2 23.5 72.7"/>
  <path class="cls-1" d="M103.1,152.5c-.7-.6-1.4-.8-2.2-.7-.8.1-1.3.5-1.7,1.1-.4.6-.5,1.4-.3,2.3.2,1.1.7,2,1.4,2.7.7.7,1.5.9,2.3.8.7-.1,1.3-.6,1.6-1.2.3-.7.4-1.5.2-2.4-.2-1.1-.7-2-1.3-2.6Z"/>
  <path class="cls-1" d="M87.5,7C43,7,7,42.9,7,87.3s36.2,80.4,80.6,80.4,80.5-36,80.5-80.4S132,7,87.5,7ZM144.3,37.6c.3-.2.6-.3.9-.3s.6.2.8.4.3.5.3.8c0,.2-.1.4-.4.7-.3.2-.5.3-.9.3-.3,0-.6-.2-.8-.4s-.3-.5-.3-.8.2-.5.4-.7ZM141.4,40.3c.2-.2.4-.3.6-.5.1-.1.2-.2.1-.4l-.5-1.2.3-.3c.5.7,1,1.3,1.6,1.9.5.6,1.1,1.2,1.6,1.8l-.3.3-1.1-.7c-.1-.1-.3-.1-.4,0-.2.1-.4.3-.6.5-.2.2-.4.4-.7.6l-6.3,5.3c-.3.3-.6.5-.8.7-.2.2-.5.4-.7.6-.1.1-.1.3,0,.5l.5,1.1-.3.3c-.5-.7-1.1-1.3-1.6-1.9-.5-.6-1.1-1.2-1.6-1.9l.3-.3,1.1.7c.1.1.3.1.4,0,.2-.2.4-.3.7-.6.2-.2.5-.4.8-.7l6.2-5.2c.3-.2.5-.4.7-.6ZM126.3,36.8l-1.3,2.6c.4.7.8,1.2,1.4,1.7.8.6,1.5,1,2.2,1s1.3-.3,1.9-.9c.3-.3.4-.7.5-1,.1-.4.1-.7,0-1.1-.1-.4-.2-.8-.4-1.1-.2-.4-.4-.8-.5-1.2-.2-.5-.4-.9-.6-1.4s-.3-.9-.4-1.4c-.1-.5,0-.9.1-1.4.1-.5.4-.9.8-1.4.8-.9,1.8-1.3,3-1.1,1.2.2,2.4.7,3.5,1.7.8.7,1.6,1.5,2.3,2.4v.1l-2.4,2-.4-.2.5-2.1c-.4-.6-.8-1.1-1.2-1.5-.7-.6-1.3-.9-2-.9s-1.2.3-1.7.8c-.3.3-.5.7-.5,1-.1.4-.1.7,0,1.1.1.4.2.8.4,1.2.2.4.4.8.6,1.2.2.5.4.9.6,1.3.2.5.3.9.4,1.3.1.5.1.9,0,1.4-.1.5-.4.9-.7,1.3-.9,1-1.9,1.4-3.1,1.3-1.2-.1-2.5-.7-3.7-1.8-.8-.7-1.6-1.6-2.3-2.7v-.1l2.6-2.3.4.2ZM112.8,32.3c.1-.2.3-.5.4-.8.2-.3.3-.6.5-.9l3.9-7c.2-.3.3-.6.4-.8.1-.2.2-.5.3-.6.1-.2.1-.3,0-.4l-.9-1,.2-.4c.7.4,1.5.9,2.2,1.2.1.1.3.2.5.3.2.1.5.2.8.4.3.2.6.3.8.4.2.1.4.2.5.3,1.3.8,2.2,1.5,2.6,2.4.4.9.3,1.8-.2,2.7-.5.8-1.1,1.4-1.9,1.7s-1.7.3-2.8.1c.1.8.1,1.5.1,2.2s0,1.3.1,1.9c0,.6.1,1.1.1,1.5,0,.5.1.8.2,1.1,0,.2.1.3.2.4.1.1.1.2.2.3.1.1.2.2.3.3s.2.2.3.3l-.2.4c-.4-.2-.8-.3-1.1-.5-.2-.1-.4-.2-.6-.4-.2-.1-.3-.2-.4-.3l-.3-.3c-.1-.1-.2-.2-.2-.4-.1-.3-.2-.7-.3-1.2-.1-.5-.1-1-.1-1.5v-1.8c0-.6,0-1.3-.1-1.9v-.5c0-.1-.1-.2-.1-.3s-.1-.2-.2-.2c-.1-.1-.2-.2-.4-.2l-.6-.4-1.4,3.1c-.2.3-.4.7-.5.9-.2.3-.3.5-.4.8-.1.2-.1.3,0,.5l.8.8-.2.4c-.7-.4-1.4-.8-2.1-1.2-.7-.4-1.4-.8-2.2-1.2l.2-.4,1.2.3c.2,0,.3,0,.4-.1ZM99,28.5h1.3c.2,0,.3-.1.3-.2.1-.2.2-.5.3-.8.1-.3.2-.7.3-1l2.3-7.7c.1-.3.2-.6.2-.9.1-.3.1-.5.2-.7,0-.2,0-.3-.1-.4l-1.1-.7.1-.4c.9,0,1.7.3,2.5.5l2.3.7c1.4.4,2.9.9,4.5,1.3v.1l-1.4,2.8h-.4l.1-2.4-4.4-1.3-1.6,5.2.9.3c.7.2,1.4.4,2.2.6.2,0,.3,0,.4-.1l.7-1.2.5.1c-.3.9-.5,1.5-.6,2-.1.4-.3,1.1-.6,2l-.5-.1.1-1.4c0-.2-.1-.3-.2-.3-.8-.3-1.6-.5-2.2-.7l-.9-.2-1,3.5c-.2.7-.4,1.4-.6,2.1l4.6,1.4,1.9-2.1h.4l-1.2,3.2h-.1c-1.6-.5-3.2-1-4.6-1.4l-2.3-.7c-.8-.2-1.6-.5-2.4-.7l.1-.4ZM84.1,13.8c.7.1,1.4.1,2.3.2.9.1,1.8.1,2.8.1v.4l-.9.2c-.1,0-.2.1-.3.1q-.1.1-.1.3c0,.1,0,.3.1.5.1.2.1.5.2.9l2.6,9.1,4.1-8.7c.2-.4.3-.6.4-.9.1-.2.1-.4.2-.5,0-.1,0-.2-.1-.3s-.2-.1-.3-.1l-.9-.3v-.5c.7.1,1.4.1,2.2.2.7,0,1.4.1,2.1.1v.4l-1,.2c-.2,0-.4.1-.6.3-.1.1-.3.4-.5.9l-5.7,11.6-1,.1-3.7-12.3c-.1-.5-.3-.8-.4-.9-.1-.2-.3-.3-.6-.4l-.9-.3v-.4ZM76.1,11.8c.2-.3.4-.4.8-.4.3,0,.6,0,.8.2.2.1.3.3.4.7.1.4,0,.6-.2.9-.2.2-.4.4-.8.4-.3,0-.6,0-.8-.2-.2-.2-.4-.4-.4-.7-.1-.4,0-.6.2-.9ZM77.3,15c.8-.1,1.6-.2,2.4-.4l.1.4-1.2.5c-.2.1-.2.2-.2.3,0,.2.1.5.1.8s.1.6.1.9l1.1,7.9c.1.4.1.8.2,1.1.1.3.1.6.1.9,0,.2.2.3.4.3l1.2.2.1.4c-.8.1-1.7.2-2.4.3-.8.1-1.6.2-2.4.4l-.1-.4,1.2-.5c.2-.1.2-.2.2-.3,0-.3-.1-.6-.1-.9s-.1-.7-.2-1.1l-1.1-8c-.1-.3-.1-.6-.1-.9s-.1-.5-.1-.7-.1-.3-.3-.3l-1.3-.2-.1-.4c.8-.1,1.7-.2,2.4-.3ZM58.3,19.9c.3-.1.6-.2.8-.3l11.4,7-2.6-7.2c-.2-.6-.4-1.1-.6-1.6-.1-.1-.2-.2-.3-.2l-1.2.1-.2-.4c.8-.3,1.5-.5,1.9-.6.5-.2,1.1-.4,1.9-.7l.2.4-1.1.8c-.1.1-.2.2-.1.4.1.4.3.9.5,1.6l3.7,10.5-.8.3-11.8-7.7,2.7,7.6c.3.7.5,1.3.7,1.8.1.2.2.2.3.2l1.2-.1.2.4c-.8.3-1.4.5-1.9.7-.5.2-1.1.4-1.9.7l-.3-.3,1-.8c.1-.1.2-.2.1-.4-.2-.5-.4-1.1-.6-1.9l-2.7-7.6c-.2-.6-.4-1.1-.6-1.5-.1-.2-.2-.2-.3-.2h-1.3l-.2-.4c.8-.3,1.5-.5,1.9-.6ZM45.5,23.2c.2-.2.5-.2.8-.2s.5.1.7.4c.2.3.3.6.2.9-.1.3-.2.5-.5.7-.2.2-.5.2-.8.2s-.5-.2-.7-.5-.2-.6-.2-.8c0-.3.2-.5.5-.7ZM41.6,26.2c0-.3.2-.5.5-.7.3-.2.5-.2.8-.2.2.1.5.2.7.5.2.3.3.6.2.9-.1.3-.2.5-.5.7-.3.2-.5.2-.8.2s-.5-.2-.7-.5c-.2-.3-.3-.6-.2-.9ZM41.8,29.8c.7-.5,1.3-.9,2-1.4l.3.3-.8,1c-.1.1-.1.2,0,.4.1.2.3.4.4.6.2.2.3.5.5.7l3.1,4.5c1.1,1.5,2.1,2.5,3,2.7.9.3,1.9,0,3-.8,1.1-.8,1.7-1.7,1.8-2.6.1-1-.4-2.2-1.4-3.6l-3.2-4.6c-.2-.3-.4-.5-.5-.7s-.3-.4-.5-.6c-.1-.1-.2-.2-.4-.1l-1.1.5-.3-.4c.7-.5,1.3-.9,1.8-1.2s1-.7,1.7-1.2l.3.3-.8,1c-.1.1-.1.3,0,.4.1.2.2.4.4.6.2.2.3.5.5.8l2.9,4.2c1.2,1.8,1.8,3.3,1.7,4.7-.1,1.3-1,2.6-2.5,3.7-1.5,1.1-2.9,1.5-4.2,1.2s-2.5-1.2-3.6-2.8l-3.3-4.7c-.2-.3-.4-.5-.5-.8-.2-.2-.3-.4-.4-.6-.1-.1-.2-.2-.4-.1l-1.2.4-.3-.4c.7-.5,1.4-.9,2-1.4ZM31.1,40.1l.4.2-.5,1.2c-.1.2,0,.3.1.4.2.2.4.3.6.5.2.2.4.4.7.6l6.4,5.2c.3.2.6.5.8.7.3.2.5.4.7.5.1.1.3.1.5-.1l1-.7.3.2c-.5.7-1.1,1.3-1.6,1.9-.5.6-1,1.3-1.5,1.9l-.4-.2.5-1.2c.1-.2,0-.3-.1-.4-.2-.2-.4-.4-.7-.6s-.5-.4-.8-.7l-6.3-5c-.3-.2-.5-.4-.7-.6-.2-.2-.4-.3-.6-.5-.1-.1-.3-.1-.4,0l-1.1.7-.4-.2c.6-.7,1.1-1.3,1.6-1.9s1-1.3,1.5-1.9ZM27.1,39.9c.2-.2.4-.4.7-.4s.6,0,.8.3c.3.2.4.5.5.8,0,.3-.1.6-.3.8-.2.2-.4.4-.7.4s-.6,0-.8-.3c-.3-.2-.4-.5-.5-.8,0-.3.1-.6.3-.8ZM28.3,85c0,2.3-.7,4.2-1.9,5.5-1.2,1.3-3,2-5.2,2-2.4,0-4.2-.8-5.5-2.2-1.3-1.4-1.9-3.4-1.9-5.9,0-1.1.2-2.2.4-3.3l.1-.1,3.3.7v.4l-2.6.7c-.2.8-.3,1.6-.3,2.3,0,1.7.5,2.9,1.6,3.9,1.1.9,2.7,1.4,4.6,1.4,2,0,3.6-.4,4.8-1.4s1.8-2.3,1.8-4c0-.6-.1-1.1-.2-1.7h-4.4c-.2,0-.3.1-.3.2l-.4,1.2h-.4c0-.8,0-1.7.1-2.5.1-.8,0-1.6,0-2.3l.4-.1.3,1.1c0,.2.2.2.3.3h4.9l.1.1c.3,1.3.5,2.6.4,3.7ZM31.2,67.4c-.2.7-.4,1.6-.7,2.6l-.4-.1v-1c0-.1,0-.2-.1-.3,0-.1-.1-.1-.2-.2h-.5c-.2,0-.5,0-.9.1l-2.8.2-1.2,4.6,2.3,1.7c.3.2.6.4.8.5.2.1.4.2.5.2h.3c.1,0,.1-.1.2-.2l.5-.8.4.1c-.3.9-.5,1.6-.6,2.2-.2.6-.3,1.2-.5,1.9l-.4-.1v-1.1c0-.3-.1-.5-.2-.6-.1-.2-.4-.4-.6-.6l-10.4-8.1-.1-.8,12.9-1.1c.5,0,.8-.1,1-.2.2-.1.4-.2.5-.5l.5-.8.4.1c-.2.8-.5,1.6-.7,2.3ZM32.5,63.8l-.4-.2-7.2-12.8-2.9,5.2,1.7,1.8-.1.4-3.1-1.2v-.1c.8-1.4,1.6-2.8,2.3-4.1l1.1-2c.5-.8.9-1.7,1.4-2.5l.4.2,7.3,12.8,3-5.3-1.7-2.5.2-.4,3,2v.1c-.9,1.6-1.7,3.1-2.5,4.3l-1.2,2.1c-.5.8-.9,1.5-1.3,2.2ZM72.2,158.4l1.5.8-.1.4c-1.2-.3-2.1-.5-2.7-.6-.6-.1-1.6-.3-2.8-.6l.1-.4,1.7-.1c.2,0,.3-.1.3-.2.1-.5.3-1.1.4-1.7l.3-1.6c.3-1.3.5-2.5.7-3.5l-2-.8v-.4c1.3.1,2.7.2,4.1.2l.1.1c-.3,1.1-.6,2.3-.9,3.5l-.5,2.4c-.2.9-.3,1.6-.4,2.1,0,.2,0,.3.2.4ZM85.1,156.9c-.2,2.2-1.1,4-2.8,5.4-1.7,1.4-3.8,2.2-6.4,2.3v-.7c1.7-.1,3.1-.7,4.3-1.5,1.2-.8,2.1-2.1,2.7-3.8-.8.8-1.9,1.1-3.1,1-1.2-.1-2.2-.6-3-1.5-.8-.9-1.1-1.9-1-3.1.1-1.3.7-2.3,1.6-3.1,1-.8,2.1-1.1,3.4-1,1.4.1,2.6.7,3.3,1.9.8,1.1,1.2,2.5,1,4.1ZM95,160.4l-.1.1c-1.3.1-2.8.1-4.2.2-1.4.1-2.6.2-3.8.3l-.1-.8c.6-.4,1.1-.9,1.6-1.2.5-.4.9-.7,1.2-1,.3-.3.7-.6.9-.9s.5-.6.7-.8c.2-.3.3-.5.4-.8.1-.3.1-.6.1-.9,0-.6-.3-1.1-.8-1.4s-1-.5-1.7-.4c-.8.1-1.5.3-2.2.8l-.4-.6c1.2-.9,2.4-1.4,3.6-1.5.9-.1,1.7.1,2.4.5.7.4,1,1,1.1,1.8,0,.5,0,1-.2,1.4-.2.4-.5.9-.9,1.3-.4.4-.9.9-1.5,1.4-.6.5-1.3,1-2.1,1.5v.1l4.9-.3.7-1.9.4-.1v3.2ZM105.7,157.5c-.7,1-1.7,1.6-3,1.9-1.4.3-2.7,0-3.8-.9-1.1-.9-1.8-2.1-2.1-3.7-.4-2,0-3.9,1.1-5.7,1.1-1.8,3.1-3.2,5.9-4.2-.2,0,.1.7.1.7-1.9.8-3.3,1.8-4.2,3-.8,1.2-1.2,2.6-1.2,4.1.6-1,1.6-1.6,2.9-1.9,1.2-.2,2.2,0,3.2.6,1,.6,1.6,1.5,1.8,2.7.2,1.3,0,2.4-.7,3.4ZM87.5,139.8c-28.9,0-52.5-23.5-52.5-52.4s23.6-52.4,52.5-52.4,52.5,23.5,52.5,52.4-23.5,52.4-52.5,52.4ZM140.5,58.2l.4,1.5-.4.2c-.7-1.1-1.2-1.9-1.6-2.5-.4-.7-.9-1.5-1.4-2.3l.4-.2,1.1,1c.1.1.2.1.4.1.4-.2,1-.6,1.7-1l8.6-5-1.8-3-2.7.6-.3-.3,2.9-2h.1c.8,1.4,1.6,2.8,2.4,4l1.4,2.3c.8,1.3,1.6,2.6,2.4,4v.1l-3.3,1.2-.3-.3,2-1.9-1.8-3-8.5,5.1c-.7.4-1.2.7-1.6,1-.1.1-.2.2-.1.4ZM145.7,73.6c-.5-1.6-1-3.1-1.4-4.5l-.7-2.2c-.2-.8-.5-1.6-.8-2.3l.4-.2.7,1.1c.1.1.2.2.4.2.3-.1.5-.2.9-.3.3-.1.7-.2,1-.3l7.7-2.5c.3-.1.6-.2.9-.3.2-.1.5-.2.7-.2.2-.1.2-.2.2-.3v-1.3l.4-.2c0,.7.3,1.4.5,2.2l.8,2.3c.5,1.4,1,2.9,1.5,4.4l-.1.1-3.1.4-.2-.4,2-1.3-1.4-4.4-5.2,1.7.3.9c.2.7.5,1.4.7,2.2.1.2.2.2.4.2l1.4-.1.2.5c-.9.3-1.5.5-2,.6-.4.1-1,.4-1.9.7l-.2-.5,1.2-.8c.1-.1.2-.2.2-.4-.2-.8-.5-1.6-.7-2.2l-.3-.8-3.4,1.1c-.7.2-1.4.5-2.1.7l1.5,4.5,2.8.4.2.4-3.4.9h-.1ZM146.3,76.5l.1-.1,3.4.1.1.4-2.7,1c-.2.7-.2,1.5-.2,2.2.1,1,.4,1.7.9,2.2s1.1.7,2,.6c.4-.1.8-.2,1.1-.4.3-.2.5-.5.7-.8.2-.3.4-.7.5-1.1.1-.4.3-.8.4-1.2.1-.5.3-1,.5-1.4.2-.5.4-.9.7-1.3.3-.4.6-.7,1-1,.4-.3.9-.4,1.5-.5,1.2-.1,2.2.3,2.9,1.2.8.9,1.2,2.1,1.4,3.6.1,1,.1,2.1,0,3.3l-.1.1-3.1-.2-.1-.4,2.6-.9c.1-.7.2-1.4.1-1.9-.1-.9-.4-1.5-.9-2s-1.1-.7-1.9-.6c-.4.1-.8.2-1.1.4-.3.2-.6.5-.8.8-.2.3-.4.7-.5,1.1-.1.4-.3.8-.4,1.3-.1.5-.3.9-.5,1.4-.2.4-.4.9-.6,1.2-.3.4-.6.7-1,.9-.4.3-.9.4-1.4.5-1.3.2-2.4-.2-3.2-1.2-.8-.9-1.3-2.2-1.5-3.8-.1-1-.1-2.2.1-3.5ZM160.8,90.8c0,.8-.1,1.6-.1,2.5h-.4l-.3-1.2c0-.2-.1-.2-.3-.3h-1.7l-8-.5h-2c-.2,0-.3.1-.4.3l-.4,1.1h-.4c0-.8.1-1.7.1-2.5s0-1.6.1-2.5h.4l.3,1.2c0,.2.1.3.3.3.3,0,.6,0,.9.1.3,0,.7,0,1.1.1l8.1.3h1.6c.2,0,.3-.1.4-.2l.4-1.2h.4c-.1.8-.1,1.7-.1,2.5ZM163.2,91.9c-.4,0-.6-.1-.8-.3-.2-.2-.3-.5-.3-.8s.1-.6.3-.8c.2-.2.5-.3.8-.3.4,0,.6.1.8.3s.3.5.3.8-.1.6-.3.8c-.2.3-.4.4-.8.3Z"/>
  <path class="cls-1" d="M122.1,61.7s-.9-.2-1.2.4c0,0-.8,1.6.9,2.6,0,0,1.7.8,2.2-.6,0,0,.3-1.9-1.9-2.4M105.1,85.8c-1.8,2.3-2.8,3.6-3.6,3.9-.3.1-.4,0-.4,0-.4-.2.4-1.3.4-1.3,1.1-2,3.8-5.1,3.8-5.1.2-.3.3.4.3.4.3,1.4-.5,2.1-.5,2.1M92.3,74.8c-2.3,2.7-3.2,2.3-3.2,2.3-2.2-.8.3-3.6.3-3.6.9-.5.8-.7.8-.7.1-.2,0-1.5,0-1.9,1.7-.2,2.2,1.1,2.1.9.9,1.6,0,3.1,0,3M70.1,94s-2.7,8-6.7,14.3c0,0-6.3,9.8-8.2,6.8,0,0-.4-.4-.5-1.7,0-1.5.8-3.9,3-7.2,0,0,3.7-6.7,11.7-13.8.4-.4,1-.7,1-.7,0,0,.9-.7-.3,2.3M75.9,72.2c-7.4,5.8-15,8.5-17,6.3-2.1-2.4,2.4-9.8,9.8-15.5,7.4-5.8,15-8.5,17-6,1.9,2.4-2.4,9.5-9.8,15.2M117.9,74c-.9.8-1.3.2-1.3.2-.6-.4-.2-3.5-.2-3.5-.2-.5-1.6-.1-1.6-.1-2.6,2.4-6.2,7-6.2,7-.2.3-.9,1.1-.9,1.1-.9-1.3-3.5-2.1-3.5-2.1.1-.1.2-.1.2-.2l3.6-2.9c2-1.3.7-1.8.7-1.8-.6-.2-1.3.9-1.3.9-1.5.5-4.2-.2-4.2-.2,0-.3.2-.5.2-.5,1.1-.9.1-1.4.1-1.4-2.1-1-2.2,1.7-2.2,1.7-.9,1.2-4.1,3.3-4.1,3.3-2.4,1.8-2.2,0-2.2,0,2.4-2.6,2.2-3.5,2.2-3.5.1-.8-.9-1.1-.9-1.1-.4-.1-1.6.9-2.3,1.6-.3-.8-1.5-1.9-1.5-1.9-3.1-2.2-6,1.8-6,1.8-.9,1.3-1,1.8-1,1.8-.2.5.3,1,.6,1,.2,0,.3-.4.3-.4h0c.5-1.3,1.8-2.7,1.8-2.7l.6-.6v.9c-1.6,1-2,3.1-2,3.1-.6,1.5-4.6,4.5-4.6,4.5-2.9,2.2-5.1,3.9-6.4,5,1.4-5.4,3.1-11.8,3.5-13.5,7.1-6.4,10.7-14.3,8.8-16-2.8-2.3-9.6-.8-17.1,4.2-1.2.1-4.9,1.2-11.8,11.3h0c-2.5,3.7-3.4,6.9-2,8.7,2.4,3,10.6.6,18.8-5.4-1.2,5.6-3.6,13-3.6,13-.2.3-.4.7-.6,1-1.8,1.6-3.8,3.5-4.9,4.6-6.8,6.1-12,15.1-12,15.1-3.6,6.5-.3,8.6-.3,8.6,3.6,2.4,9.7-5.8,9.7-5.8,6.8-9.3,9.3-18.1,9.3-18.1.3-.8.9-2.8,1.6-5.4,2.1-2.1,7.6-6.3,7.6-6.3.9-.8,4.4-3.7,4.4-3.7l.1.1c1.4,1.7,3.8.3,3.8.3.6-.3,1-.7,1.4-1,.8.1,1.5,1.3,1.5,1.3,1.4,1.9,2.9.2,2.9.2,2.9-3,4.8-4.1,4.8-4.1.7-.5,1.2-.3,1.5,0,.5.6.4,1.2-.4,1.8-1,.5-1.6,1-1.6,1-1,.6-.4.7-.4.7,4.3.2,5.6,1.4,6.1,2.1-1.4,1.6-7.1,8.2-7.4,10.4,0,0,0,1.5.4,2.8,0,0,.4,1.4,2.5-.8,0,0,4.3-4.5,5.9-7.8,0,0,1.1-2.9-.2-4.8.9-1.2,4.6-4.8,4.6-4.8.3-.4.6,0,.6,0,1,1.3,2.1,1.4,3.2,1.5.8,0,1.4-.1,1.4-.1.2-2.5,0-2.1,0-2.1M104.4,76.4h0s.1,0,0,0"/>
</svg>