<?xml version="1.0" encoding="UTF-8"?>
<svg id="Layer_1" data-name="Layer 1" xmlns="http://www.w3.org/2000/svg" viewBox="0 0 1311.62 325.22">
  <defs>
    <style>
      .cls-1 {
        fill: #529b07;
      }

      .cls-1, .cls-2 {
        stroke-width: 0px;
      }

      .cls-2 {
        fill: #359fbd;
      }
    </style>
  </defs>
  <path class="cls-2" d="M991.77,80.39c9.28-9.14,18.78-15.98,30.63-18.85,20.04-4.84,37.4-1.27,49.99,16.42,2.02,2.84,3.36,2.11,5.5.38,10.73-8.7,22.4-15.79,36.29-17.9,17.95-2.72,34.13,1,47.02,14.74,8.38,8.93,10.41,20.23,11.44,31.77,1.63,18.28.17,36.62.89,54.92.07,1.66,0,3.35.25,4.99,1.35,8.5,2.52,10.75,11.01,8.21,8.09-2.43,13.36,1.69,15.09,10.09.97,4.69.59,9.31-.62,13.83-1.75,6.51-6.41,10.05-13.45,10.7-5.53.51-11.03-.2-16.4-1.14-11.65-2.03-23.24-1.8-34.74.46-20.38,4-25.05-6.46-23.56-24.14.15-1.79.71-3.59,1.34-5.3,1.59-4.32,4.85-6.17,9.07-4.42,4.67,1.93,5.99,0,6.48-4.15,1.62-13.79.59-27.62.77-41.43.06-4.99-.19-9.98-.96-14.93-1.24-7.97-5.4-12.96-13.3-14.09-18.59-2.65-26.2,6.97-27.69,21.51-1.63,15.92-1.49,31.91-.19,47.87.48,5.93,1.13,6.28,6.93,4.95,4.2-.96,7.39.38,8.7,4.56,2.57,8.18,2.45,16.41-.64,24.45-1.52,3.97-4.71,6.06-8.98,5.88-4.82-.21-9.69-.35-14.41-1.21-12.15-2.21-24.17-1.31-36.23.6-13.21,2.09-17.67-1.62-18.33-15.15-.23-4.66-.48-9.34,1.16-13.84,1.82-5.03,4.74-6.79,9.64-4.86,4.6,1.81,5.88-.45,6.16-4.09,1.49-19.11,1.68-38.27-.15-57.35-.88-9.16-7.2-13.88-16.55-13.87-12.5.02-20.33,6.08-23.46,18.2-1.38,5.35-1.9,10.8-1.84,16.31.14,12.14-.76,24.3.73,36.42.5,4.04,1.66,6.11,6.43,4.21,4.5-1.79,7.74.08,9.27,4.86,2.51,7.86,2.21,15.79-.6,23.52-1.6,4.39-5.12,6.34-9.79,6.29-7.18-.09-14.28-.99-21.37-1.98-12.02-1.67-23.91-.24-35.79,1.39-13.63,1.87-19.64-3.16-19.95-16.96-.05-2-.07-4.01.11-5.99.82-8.95,6.87-13.26,15.65-11.24,7.78,1.79,9.05,1.11,10.06-6.77.62-4.77.63-9.64.63-14.46.02-14.16-.05-28.32-.19-42.47-.03-2.64-.33-5.32-.86-7.91-1.23-6-2.37-6.66-8.16-5.21-10.74,2.69-16.86-1.87-17.26-12.87-.18-5.03,0-9.99,2.24-14.65,2.68-5.58,5.93-7.99,11.94-6.6,12.11,2.81,23.96,2.09,36.07.04,10.13-1.71,13.49,1.82,13.75,12.31.02.97.1,1.93.21,3.96Z"/>
  <path class="cls-2" d="M28.18,189.25c-2-.61-3.11-.94-4.21-1.28-12.38-3.84-18.25-13.09-17.65-26.12.62-13.52,7.89-21.78,19.53-27.05,2.39-1.08,3.58-1.87,1.37-4.5-12.86-15.37-11.13-41.17,8.45-56.2,13.82-10.61,29.46-15,46.79-13.51,1.16.1,2.35,0,3.49.18,3.36.54,4.86-.21,5.13-4.22.81-11.82,8.13-19.2,18.56-23.17,14.84-5.65,29.48-5.56,42.38,5.13,9.5,7.88,9.69,22.56.82,29.24-7.23,5.44-17.06,4.17-22.63-2.94-.51-.66-1.03-1.31-1.52-1.98-1.7-2.33-3.42-5-6.83-3.43-3.54,1.63-3.89,5.08-3.9,8.52,0,1.64,1.11,2.2,2.37,2.81,27.14,13.08,33.83,44.99,14.32,67.94-11.03,12.98-25.8,17.7-42.03,19.02-13.26,1.08-26.31,0-38.68-5.38-3.01-1.31-4.68-.26-6.1,2.24-2.62,4.57-.82,10.13,4.52,13.07,4.46,2.47,9.4,3.2,14.45,3.35,14.65.43,29.31-.24,43.95.85,9.64.71,19.24,1.52,28.2,5.67,15.39,7.13,23.31,21.41,22.3,38.3-1.34,22.53-14.86,35.72-34.05,43.2-31.15,12.13-63.13,12.52-94.8,1.58-11.83-4.09-22.38-11.03-28.14-22.69-8.19-16.58-5.88-37.63,18.7-46.85,1.39-.52,2.82-.96,5.23-1.77ZM80.87,231.82c3.32,0,6.66.2,9.96-.04,6.66-.49,13.25-1.51,18.94-5.38,3.89-2.65,5.63-6.45,5.15-11.17-.48-4.65-3.77-6.82-7.71-8.16-2.02-.69-4.18-1.15-6.3-1.37-13.57-1.45-27.21-.65-40.82-1.14-6.36-.23-12.97,5.42-13.93,10.85-1.02,5.76,2.79,10.74,10.15,13.46,7.95,2.94,16.26,3.06,24.57,2.95ZM101.16,109.38c-.09-10.39-8.43-18.48-18.96-18.39-10.98.09-18.67,8.04-18.52,19.14.14,10.25,8.18,17.87,18.79,17.79,10.69-.08,18.78-8.11,18.69-18.54Z"/>
  <path class="cls-2" d="M644.6,84.83c10.45-11.42,21.08-19.67,34.78-23.36,20.1-5.41,41.82,1.29,53.36,16.91,6.73,9.11,8.35,19.94,8.75,30.77.59,15.8.24,31.63.47,47.45.07,4.64.41,9.32,1.2,13.89.95,5.48,2.66,6.3,8.02,5.05,1.77-.41,3.58-.87,5.38-.91,5.9-.12,9.49,2.41,11.15,8.01,1.85,6.26,1.53,12.53-.86,18.59-2.2,5.58-6.7,7.97-12.46,8.45-6.53.54-13.02-.23-19.4-1.24-13.5-2.15-26.85-1.2-40.23.71-11.57,1.65-13.76.16-15.52-11.41-.82-5.43-1.05-10.96.55-16.35,1.77-5.96,5.04-7.95,10.83-5.94,3.8,1.32,5.37-.16,5.94-3.51.5-2.95.99-5.95.96-8.92-.14-14.31.62-28.63-.42-42.94-.92-12.61-4.87-18.84-13.05-20.4-10.53-2-22.5,3.94-27.13,13.56-1.9,3.93-3.1,8.12-3.13,12.5-.08,13.32-.07,26.64.01,39.96.01,2.14.54,4.28.86,6.42.49,3.3,1.93,4.52,5.5,3.34,6.17-2.04,9.6-.11,11.2,6.08,1.69,6.57,1.59,13.2-.38,19.71-1.93,6.37-5.04,8.81-11.72,8.48-6.8-.33-13.6-1.02-20.36-1.92-11.86-1.59-23.57-.2-35.28,1.34-6.69.88-13.66,2.18-17.82-5.07-4.49-7.82-4.9-16.18-1.09-24.37,2.15-4.63,7.37-6.11,13.51-4.68,7.87,1.83,8.88,1.22,10.19-6.67.38-2.29.49-4.64.49-6.96.04-16.32.05-32.64,0-48.97,0-2.65-.19-5.34-.67-7.94-1.35-7.29-2.05-7.68-9.21-6.01-10.45,2.44-16.61-2.93-16.75-14.97-.04-3.44.37-6.96,1.62-10.3,2.6-6.98,6.63-9.7,14.04-9.34.67.03,1.36-.02,1.99.14,11.01,2.77,21.89,2.36,33.04.12,9.07-1.82,11.62,1.08,11.66,10.45,0,2.93,0,5.86,0,10.24Z"/>
  <path class="cls-2" d="M395.42,97.92c-12.11,0-23.05-.17-33.97.09-4.26.1-6.76,2.58-6,7.3.16.99.21,1.99.31,2.98,1.46,14.9-9.56,23.9-24.03,19.61-8.32-2.47-12.39-10.41-10.56-21.51,1.52-9.3,1.55-18.51-.1-27.77-.29-1.61-.35-3.35-.05-4.95,1.24-6.72,4.67-9.68,11.75-9.8,9.33-.16,18.66-.05,27.99-.05,23.99,0,47.98,0,71.97,0,1,0,2,0,3,0,7.61.03,14.94,1.21,19,8.55,4.38,7.93,3.5,16.09-.96,23.79-4.13,7.14-10.4,12.54-15.92,18.5-17.76,19.17-35.7,38.19-53.56,57.27-.56.59-1.04,1.26-1.48,1.81.46,1.56,1.63,1.21,2.53,1.2,10.31-.17,20.66.59,30.92-.98,6.2-.95,7.96-3.12,7.86-9.37-.05-3.16-.29-6.32-.3-9.48-.03-8.17,4.47-13.67,12.3-15.15,9.86-1.86,17.6,1.43,20.63,8.88,1.93,4.74,2.32,9.71,1.61,14.73-1.38,9.79-1.28,19.58-.02,29.36,1.33,10.3-1.56,14.12-11.78,15.31-1.65.19-3.32.21-4.98.21-34.82.01-69.63.05-104.45-.02-7.28-.01-14.65-.48-18.51-8.14-3.98-7.92-1.94-15.36,3.13-21.94,8.65-11.23,18.88-21.06,28.44-31.49,14.73-16.07,29.59-32.02,45.24-48.94Z"/>
  <path class="cls-2" d="M249.34,144.47c-11.66,0-23.32-.03-34.98.01-5.84.02-7.25,1.68-6.93,7.61.62,11.28,6.23,19.26,16.51,23.49,11.09,4.56,21.52,2.69,30.85-4.95,4.37-3.58,8.18-7.81,13.05-10.81,3.64-2.24,7.54-3.53,11.74-3.82,13.33-.93,22.5,9.65,19.78,22.77-1.83,8.83-7.18,15.23-14.3,20.32-16.49,11.78-35.2,15.09-54.95,14.14-11.58-.55-22.78-2.89-33.08-8.47-19.09-10.34-30.63-26.52-34.51-47.62-4.99-27.14-1.75-52.78,17.17-74.58,12.34-14.22,28.3-21.27,46.79-22.66,11.15-.84,22.27-.28,33.16,2.87,22.99,6.65,39.99,27.18,42.14,51.11.57,6.3,1,12.56.09,18.9-1.04,7.27-3.4,10.02-10.62,10.96-3.29.43-6.62.65-9.94.68-10.66.08-21.32.03-31.98.03ZM232.26,113.13v.03c5.81,0,11.63.05,17.44-.01,5.1-.05,6.77-2.25,5.68-7.27-1.52-6.95-8.17-12.87-15.8-14.06-12.37-1.92-22.65,2.82-29.29,13.5-3,4.82-1.67,7.57,4.03,7.77,5.97.2,11.96.05,17.94.05Z"/>
  <path class="cls-2" d="M921.88,135.32c.11,15.18-2.23,29.86-9.29,43.48-8.7,16.8-22.45,27.42-40.73,31.88-18.18,4.43-36.39,3.95-54.14-2.05-22.81-7.72-36.05-24.42-41.4-47.35-4.18-17.92-4.11-36.03,1.24-53.8,8.06-26.77,26.45-41.98,53.72-46.53,13.74-2.29,27.61-2.28,41.1,1.6,27.89,8.03,43.04,27.44,48.28,55.36,1.08,5.75,1.22,11.58,1.21,17.41ZM875.04,135.69c.13-6.04-.09-11.71-1.39-17.24-2.47-10.49-6.69-19.72-18.42-22.61-15.41-3.8-28.11,3.85-32.4,19.51-2.99,10.91-3.04,22.02-1.52,33.17,1,7.35,3.18,14.32,7.52,20.4,10.04,14.05,33.55,11.74,40.76-3.93,4.34-9.42,5.82-19.37,5.46-29.29Z"/>
  <path class="cls-2" d="M546.61,121.82c0,13.98,0,27.97,0,41.95,0,1.33.02,2.68.23,3.99,1.29,7.98,2.37,9.62,10.13,7.34,8.26-2.43,14.04,1.73,15.46,10.26.8,4.81.52,9.65-.91,14.34-1.82,5.98-6.36,9.37-12.95,9.96-6.53.58-13.03-.18-19.39-1.21-14-2.26-27.85-1.12-41.72.82-.82.12-1.65.25-2.47.34-19.8,2.28-23.8-9.79-21.56-24.77,1.25-8.35,7.12-11.76,15.31-9.81,8,1.9,9.58,1.07,10.1-7.16,1.32-20.77,1.32-41.57,0-62.34-.49-7.7-2.02-8.51-9.75-6.92-9.01,1.86-14.66-1.97-15.99-11.06-.51-3.45-.47-6.97.24-10.43,1.86-9,6.84-13.21,15.98-13.27,2.65-.02,5.38.03,7.94.61,10.73,2.46,21.42,2.26,32.14.06.16-.03.32-.09.49-.11,12.57-2.15,16.39,1.02,16.52,13.93.1,9.82.02,19.65.02,29.47,0,4.66,0,9.32,0,13.99.06,0,.12,0,.18,0Z"/>
  <path class="cls-2" d="M1284.84,118.93c.36,12.84-.61,28.66.5,44.45.14,1.99.16,4,.46,5.97,1.04,6.68,2.26,7.44,8.95,5.82,9.37-2.27,14.86,1.28,16.47,10.76.79,4.67.38,9.32-1.06,13.81-2,6.24-6.46,9.41-12.95,9.93-6.53.53-13.02-.21-19.39-1.23-13.84-2.21-27.51-1.14-41.22.76-2.63.36-5.3.57-7.96.56-10.63-.02-16.37-5.49-16.94-16.06-.12-2.16-.12-4.33.02-6.49.59-9.77,6.85-14.36,16.31-12.03,6.96,1.71,8.93.72,9.48-6.45,1.63-21.26,1.65-42.55,0-63.81-.55-7.16-2.29-7.99-9.36-6.4-9.74,2.19-15.99-2.58-16.46-12.57-.07-1.5-.03-3-.01-4.49.17-11.98,6.24-18.85,17.95-17.36,15.14,1.92,29.99,2.31,45.07-.11,6.21-1,9.42,2.32,9.87,9.05.43,6.47.23,12.98.25,19.47.03,7.83,0,15.65,0,26.44Z"/>
  <path class="cls-2" d="M494.66,26.16C494.73,11.67,506.69-.09,521.24,0c14.37.09,26.51,12.2,26.49,26.44-.01,14.67-12.08,26.39-27.03,26.25-14.81-.14-26.12-11.67-26.05-26.53Z"/>
  <path class="cls-2" d="M1233.35,26.32c0-14.48,11.92-26.34,26.42-26.32,14.36.03,26.58,12.06,26.72,26.3.13,14.3-11.93,26.35-26.43,26.4-15.2.05-26.71-11.32-26.7-26.39Z"/>
  <path class="cls-1" d="M345.22,300.18c-5.03,3.41-10.4,4.77-15.88,1.45-5.53-3.34-6.44-9.02-6.1-14.86.46-7.89,2.09-15.49,7.14-21.91,6.64-8.45,15.95-9.58,24.46-2.93,1.88-.31,1.17-3.04,3.47-3.46,6.35-1.15,7.94.2,6.65,6.39-2.72,13.01-5.17,26.08-8.22,39.01-4.15,17.57-22.11,26.11-38.67,18.67-4.15-1.87-.69-4.86-.72-7.29-.03-2.52,1.81-1.99,3.52-1.49,1.9.55,3.86.98,5.82,1.21,11.8,1.39,16.92-2.2,19.69-13.71.38-.67.62-1.34.15-2.07-.44.33-.87.66-1.31,1ZM334.18,287.09c.39,2.09-.47,5.63,3.05,7,3.44,1.34,6.07-.85,8.31-3.09,2.12-2.13,3.61-4.75,4.36-7.71.81-3.21,1.58-6.43,2.3-9.66,1.03-4.62-.63-6.74-5.33-7.03-4.25-.26-6.83,2.23-8.76,5.49-2.59,4.36-3.62,9.23-3.92,15Z"/>
  <path class="cls-1" d="M193.11,262.94c5.55-4.37,10.35-5.91,15.74-5.2,6.4.85,10.46,5.09,10.11,11.4-.59,10.67-3.42,21.01-6.12,31.27-1.12,4.24-6.05,1.73-9.13,1.77-3.23.04-1.17-2.74-.92-4.1,1.47-7.84,3.19-15.64,4.73-23.47.48-2.44,1.13-5.15-1.29-6.93-2.39-1.75-5.1-1.13-7.62-.05-5.01,2.14-7.71,6.16-8.84,11.32-1.45,6.66-2.77,13.35-4.23,20.01-.29,1.34-.07,3.36-2.21,3.34-2.96-.02-6.04.8-8.84-.53-.91-.43-.05-1.83.14-2.77,4.08-19.7,8.05-39.42,12.32-59.08,1.28-5.91,6.39-2.68,9.56-2.73,3.39-.05,1.14,3.15.89,4.63-1.14,6.67-2.66,13.27-4.31,21.12Z"/>
  <path class="cls-1" d="M555.56,262.21c1.77-5.56,6.2-3.48,9.67-3.48,2.28,0,.89,2.03.68,3.1-1.71,8.65-3.31,17.32-5.36,25.9-1.05,4.42-.47,6.89,4.99,6.12-.27,1.32-.37,2.28-.68,3.18-.68,2.02.31,5.13-2.98,5.54-3.78.47-8.07,1.27-10.3-2.87-1.65-3.07-2.48-2.11-4.52-.48-4.95,3.97-10.59,5.92-16.68,2.77-5.82-3.01-6.95-8.57-6.8-14.5.2-7.96,1.97-15.5,6.75-22.06,6.48-8.88,15.96-10.25,25.21-3.21ZM534.6,286.67c.17,2.76-.4,6.25,3.16,7.49,3.41,1.19,6.01-.97,8.26-3.3,1.99-2.06,3.27-4.59,4.06-7.31.96-3.33,1.85-6.69,2.58-10.07.97-4.53-.52-6.39-5.11-6.84-4.24-.41-6.89,1.96-8.87,5.21-2.73,4.47-3.95,9.42-4.07,14.83Z"/>
  <path class="cls-1" d="M813.28,297.04c-2.98,2.71-6.15,5.07-10.21,5.97-7.39,1.64-13.83-1.79-15.21-9.14-2.18-11.54.28-22.28,8.36-31.08,5.87-6.4,13.51-6.84,21.09-1.79,1.47.98,2.19,1.31,2.75-.62.54-1.86,2.01-1.79,3.58-1.85,6.63-.26,6.62-.3,5.24,6.25-1.68,7.98-3.43,15.94-4.95,23.95-.35,1.85-1.59,4.53,1.97,5.06,1.28.19,3.62-.63,2.76,1.98-.79,2.4.62,6.01-3.4,6.87-5.52,1.19-8.49-.15-11.98-5.61ZM797.94,287.67c.76,1.87-.08,5.07,2.99,6.37,3.03,1.28,5.44-.37,7.63-2.24,2.06-1.75,3.49-3.98,4.47-6.48,1.46-3.71,2.28-7.59,3.04-11.5.96-4.94-1.04-7.38-6.09-7.22-3.99.12-6.29,2.69-8.11,5.77-2.68,4.53-3.44,9.62-3.93,15.31Z"/>
  <path class="cls-1" d="M436.64,263.49c4.9-4.28,9.71-6.24,15.29-5.88,7.68.5,12.32,5.82,11.07,13.43-1.57,9.51-3.43,18.98-5.58,28.37-1.34,5.85-6.38,2.69-9.57,2.71-3.44.02-1.13-3.18-.87-4.63,1.34-7.53,3.13-14.97,4.57-22.48.48-2.53,1.38-5.47-1.34-7.37-2.63-1.84-5.49-1.02-8.08.21-4.69,2.23-7.24,6.2-8.31,11.18-1.36,6.34-2.67,12.69-3.99,19.03-.74,3.53-8.32,6.36-10.93,3.97-1.37-1.25-.23-2.87.03-4.19,2.36-11.73,4.97-23.42,7.26-35.17.61-3.14,1.71-4.61,5.11-4.19,2.79.35,6.47-1.04,5.33,4.99Z"/>
  <path class="cls-1" d="M260.36,291.61q-1.2,10.16-10.57,11.45c-1.65.22-3.31.45-4.96.45-13.23.03-19.97-7.24-19.02-20.44,1.19-16.47,12.73-27.01,27.71-25.3,6.39.73,10.91,4.33,11.99,9.56,1.1,5.36-1.83,10.94-7.4,14.02-5.56,3.07-11.74,3.38-17.86,4.01-3.97.41-4.79,2.37-2.35,5.67,2.64,3.57,6.61,3.62,10.42,3.42,3.97-.2,7.85-1.19,12.04-2.83ZM241.31,276.74c3.73-.47,7.54-.83,10.81-2.98,1.75-1.15,2.99-2.89,2.34-5-.73-2.42-2.89-3.01-5.2-2.74-4.89.58-7.91,3.7-10.15,7.77-1.35,2.45-.36,3.29,2.19,2.95Z"/>
  <path class="cls-1" d="M698.24,257.57c13.18,0,19.51,6.53,19.16,17.51-.43,13.51-6.93,23.78-17.25,27.12-4.51,1.46-9.12,1.73-13.72.46-4.76-1.32-8.22-4.13-9.93-8.92-3.78-10.58,1.39-26.21,10.74-32.42,4.01-2.66,8.42-3.79,11-3.74ZM686.53,286c.05,2.57-.25,6.45,4.23,7.99,4.6,1.58,8.19-.37,10.89-3.91,3.01-3.93,4.2-8.59,4.52-13.5.26-3.97.31-8.07-4.16-9.6-4.62-1.58-8.53.35-11.22,4.3-2.77,4.07-4.13,8.66-4.26,14.71Z"/>
  <path class="cls-1" d="M383.1,258.69c5.96-1.63,5.63,1.39,4.65,5.47-1.67,6.95-3,13.98-4.45,20.99-.74,3.57-1.19,7.12,3.13,8.83,4.15,1.64,9.09-.24,11.07-4.28,1.93-3.93,2.24-8.33,3.2-12.54,1.19-5.19,1.96-10.47,3.26-15.63,1.48-5.91,6.37-2.62,9.54-2.74,3.69-.13,1.22,3.2.96,4.53-1.71,8.98-3.35,18.01-5.88,26.78-3.55,12.33-21.69,17.91-32.12,10.24-4.42-3.25-5.35-7.99-4.47-12.97,1.54-8.68,3.64-17.26,5.18-25.94.77-4.35,3.88-2.38,5.92-2.74Z"/>
  <path class="cls-1" d="M506.5,246.18q6.39,0,5.13,6.01c-1.33,6.34-1.32,6.2,5.2,6.48,1.45.06,4.89-1.82,4.28,1.74-.47,2.74,1.02,7.46-4.95,7.31-7.93-.2-7.91.1-9.46,7.87-.85,4.24-1.83,8.44-2.69,12.68-1.01,5.02-.14,6.04,4.86,5.88.5-.02,1.03-.21,1.49-.08,1.72.47,5-2.19,4.93,1-.06,2.73,1.05,7.69-4.58,7.82-.82.02-1.63.31-2.46.41-13.03,1.53-17.7-3.6-14.91-16.34,1.14-5.2,2.16-10.42,3.35-15.61.61-2.65.18-3.99-3-3.83-1.32.07-4.43,1.56-3.87-1.75.44-2.6-.94-7.51,3.82-7.01,5.95.62,6.62-2.79,7.06-6.96.41-3.91,1.48-6.91,5.81-5.61Z"/>
  <path class="cls-1" d="M591.01,246.18q6.6,0,5.36,5.7c-1.44,6.63-1.44,6.54,5.44,6.76,1.43.04,4.53-1.31,3.94,1.67-.52,2.64,1.22,7.19-4.34,7.37-8.45.27-8.46.42-10.22,8.75-.86,4.07-1.57,8.17-2.53,12.22-1,4.21.46,6.04,4.79,5.52.5-.06,1.04-.22,1.49-.09,1.71.51,4.92-2.22,4.97,1.03.04,2.84.9,7.59-4.61,7.78-1.16.04-2.3.38-3.46.48-12.01,1.04-16.36-3.77-14-15.54,1.11-5.54,2.13-11.12,3.54-16.59.78-3.05-.08-3.73-2.99-3.72-1.42,0-4.86,1.63-3.87-2.24.65-2.55-.93-7.28,4.33-6.63,4.47.56,5.63-1.46,6.29-5.4.59-3.5-.12-9.18,5.87-7.07Z"/>
  <path class="cls-1" d="M758.37,303.61c-2.17-.35-5.27-.94-8.39-1.35-3.6-.46-4.4-1.92-3.61-5.68.82-3.94,2-4.35,5.56-3.2,3.76,1.22,7.8,1.76,11.82.7,2.59-.68,4.79-1.86,4.98-4.82.18-2.74-2.21-3.48-4.15-4.34-1.97-.87-4.08-1.44-6.07-2.25-4.28-1.75-7.39-4.54-7.71-9.5-.32-4.98,1.29-9.2,5.37-12.24,5.46-4.07,19.32-4.61,24.98-.88,3.25,2.15.21,4.81.1,7.18-.12,2.38-1.99,1.42-3.41.95-3.82-1.26-7.69-2.17-11.75-1.54-2.09.32-3.91,1.09-4.34,3.46-.45,2.47,1.16,3.68,3.07,4.53,2.43,1.08,4.96,1.93,7.38,3.04,8.78,3.99,10.15,15.08,2.66,21.26-4.51,3.72-9.95,4.34-16.47,4.68Z"/>
  <path class="cls-1" d="M640.6,302.98c-7.23.03-11.02-3.54-9.71-10.51,3.35-17.79,7-35.54,11.1-53.18,1.18-5.06,6.29-2,9.45-2.11,2.87-.1,1.14,2.77.85,4.21-3.17,15.63-6.42,31.24-9.73,46.84-.69,3.23-.85,5.85,3.64,5.4,1.73-.17,1.77.58,1.68,2.04-.37,5.88-1.69,7.29-7.28,7.31Z"/>
  <path class="cls-1" d="M732.53,302.99c-7.96-.05-11.13-4.22-9.44-12.7,2.6-13.02,5.42-25.99,8.15-38.98.75-3.57,1.55-7.14,2.34-10.7.78-3.51,4.14-4.88,9.4-3.61,3.62.87,1.4,3.4,1.06,5.12-3.11,15.45-6.35,30.87-9.54,46.3-.43,2.09-1.33,4.28,1.82,5.25,1.27.39,4.48-1.5,3.35,2.16-.84,2.74.61,7.34-4.85,7-.82-.05-1.65.11-2.3.16Z"/>
  <path class="cls-1" d="M287.14,264.09c4.92-4.73,8.99-6.62,13.93-6.56,2.5.03,3.07.93,2.69,3.31-.69,4.29-1.42,7.49-7.36,7.06-5.68-.42-9.98,4.13-11.5,10.57-1.6,6.78-2.85,13.64-4.34,20.45-.29,1.33-.05,3.37-2.16,3.38-2.95.01-6.06.82-8.82-.49-1.15-.55-.04-2.13.18-3.2,2.45-12.03,4.98-24.05,7.38-36.1.55-2.76,1.45-4.51,4.75-3.99,2.73.43,6.78-1.49,5.26,5.57Z"/>
  <path class="cls-1" d="M612.38,302.27c-5.77,1.42-5.75-1.18-4.73-5.55,2.67-11.5,4.88-23.11,7.39-34.65.27-1.27-.1-3.39,2.06-3.44,2.98-.08,5.99,0,8.94.33.73.08.22,1.45.05,2.24-2.72,12.86-5.54,25.7-8.07,38.6-.82,4.19-3.84,1.92-5.64,2.48Z"/>
  <path class="cls-1" d="M849.3,290.17c1.26,1.17,4.79-2,5,1.88.42,7.69-2.08,10.5-8.82,10.23-1.74-.07-5.16,2.07-5.17-2.04,0-8.16,1.78-10.07,8.98-10.07Z"/>
  <path class="cls-1" d="M901.27,302.38c-1.21-1.43-5.24,2.49-5.15-2.21.17-8.52,1.65-10.16,8.63-9.9,1.78.07,5.12-2.01,5.31,1.9.38,7.65-1.92,10.22-8.8,10.21Z"/>
  <path class="cls-1" d="M873.35,302.38c-1.16-1.51-5.26,2.59-5.11-2.21.26-8.77,1.52-10.16,8.65-9.9,1.8.07,5.19-2,5.34,1.91.29,7.64-2.06,10.21-8.88,10.21Z"/>
  <path class="cls-1" d="M622.81,248.8c-1.17-1.29-4.81,2.18-4.88-1.98-.12-7.47,1.97-10.07,7.7-9.75,1.73.09,5.07-2.21,5.24,1.93.3,7.44-1.68,9.8-8.06,9.8Z"/>
  <path class="cls-1" d="M414.27,238.77c-.29,1.85-.44,3.18-.71,4.48-1.04,5.17-4.9,7.28-9.95,5.52-.68-.23-.98-.4-1.12-1.22-.81-4.87,2.39-8.8,7.27-8.79,1.31,0,2.63,0,4.5,0Z"/>
  <path class="cls-1" d="M395.52,239.22c-2.2,10.9.86,10.04-11.53,9.15,2.07-10.98-.5-10.07,11.53-9.15Z"/>
</svg>