<?xml version="1.0" encoding="utf-8"?>
<!-- Generator: Adobe Illustrator 27.9.0, SVG Export Plug-In . SVG Version: 6.00 Build 0)  -->
<svg version="1.1" id="Layer_1" xmlns="http://www.w3.org/2000/svg" xmlns:xlink="http://www.w3.org/1999/xlink" x="0px" y="0px"
	 viewBox="0 0 172.9 83.7" style="enable-background:new 0 0 172.9 83.7;" xml:space="preserve">
<style type="text/css">
	.st0{fill:#1D1934;}
	.st1{fill:#AA182C;}
	.st2{fill:#FFFFFF;}
</style>
<g>
	<path class="st0" d="M58.3,16.3c-0.1-1.1,1.8-1.3,1.8,0C60.1,17.5,58.3,17.5,58.3,16.3 M59.9,26.8c0.2,1.9-0.5,4.4,0.8,4.8
		c0.3,0.1,0.8,0,0.9,0.2c0,0.1-0.1,0.1-0.3,0.1c-0.9,0-2,0-2.1,0s-1.2,0-1.7,0c-0.3,0-0.4-0.2-0.1-0.2c1.7,0.1,0.9-2.9,1.1-4.9v-3.1
		c-0.2-3.1,0.6-4.8-1.1-4.9c-0.2,0-0.1-0.3,0.1-0.2c1.6,0,1.8,0,3.4,0c0.3,0,0.4,0.2,0.1,0.2c-0.1,0-0.2,0-0.4,0
		c-1.1,0.4-0.5,1.9-0.7,4.8L59.9,26.8L59.9,26.8z"/>
	<path class="st0" d="M70.9,31.2c2.6,0,2.6-0.6,3.2-2.1c0.4,0.4-0.2,2-0.2,2.4c-0.1,0.4-0.1,0.5-0.5,0.5c-2.9-0.1-6.2,0.2-9.1-0.2
		c2.5-4.2,5.4-8.3,7.8-12.4c-1.9,0.2-6.8-0.9-7.2,1.8c0,0.4-0.3,0.4-0.3,0.1c0-0.2,0.3-1.8,0.3-2.3c0.1-0.7,0.3-0.2,0.9-0.2
		c2.8,0.1,5.3,0,7.8,0c0.4,0,0.4,0.1,0.3,0.3c-2.5,4.1-5.1,8.1-7.7,12.2H70.9L70.9,31.2z"/>
	<path class="st0" d="M90.9,29.7c0.1,0.6,0.2,1.6,0.9,1.9c0.6,0.2,1,0,1.3,0.2c0,0.1-0.2,0.2-0.4,0.2c0-0.1-4,0.2-3.2-0.4
		c0.3,0.2-0.8-9.7-0.8-9.8h0c-0.3,0.5-4.4,10.1-4.8,10.1c-1.9-3-3.4-6.9-4.8-10H79l-0.7,8.2c-0.1,1,0,1.6,1.1,1.5
		c0.1,0,0.1,0,0.1,0.1c-0.2,0.4-1.9,0-1.9,0.1c-0.2,0-1,0-1.4,0c-0.2,0-0.3,0-0.3-0.2c0.1-0.2,0.4,0,0.7-0.1
		c0.6-0.1,0.6-0.8,0.7-1.5l1.2-11.5c0-0.4,0.3-0.4,0.4,0l5.3,11.1l5.1-11.1c0.2-0.4,0.4-0.4,0.5,0.2L90.9,29.7L90.9,29.7z"/>
	<path class="st0" d="M96.1,16.3c-0.1-1.1,1.8-1.3,1.8,0C97.9,17.5,96,17.5,96.1,16.3 M97.7,26.8c0,1.7,0,3.1,0.1,3.8
		c0,0.9,0.8,1.1,1.5,1c0.3,0,0.1,0.3-0.1,0.2c-2.1,0-2-0.1-3.8,0c-0.3,0-0.4-0.2-0.1-0.2c0.1,0,0.4,0,0.5-0.1c0.3-0.1,0.4-0.5,0.5-1
		c0.1-0.7,0.1-2.1,0.1-3.8v-3.1c-0.2-3.1,0.6-4.8-1.1-4.9c-0.2,0-0.1-0.3,0.1-0.2c0.6,0,1.6,0,1.7,0s1.2,0,1.7,0
		c0.2,0,0.3,0,0.3,0.1c-0.1,0.2-0.3,0.1-0.6,0.2c-0.5,0.1-0.6,0.4-0.6,1C97.7,20,97.7,25.4,97.7,26.8L97.7,26.8z"/>
	<path class="st0" d="M105.2,25.2c0.2,0.5,1.1,0.4,1.9,0.5c3.6,0.1,2.8-7.1-0.6-6.6c-0.6,0.1-1.2-0.1-1.3,0.3L105.2,25.2L105.2,25.2
		z M103.9,23.7c0-2.8,0-3.2,0-3.8c0-0.6-0.2-0.9-0.7-1c-0.2-0.1-0.6,0.1-0.7-0.2c0-0.1,0.1-0.1,0.3-0.1c0.8,0,1.9,0,2,0
		c0.2,0,1.5,0,2,0c4.5-0.4,5.9,4.1,2.3,7.3c2.2,2.7,3.6,5.7,6.5,6c0,0.3-1.4,0.1-1.6,0.1c-3.1,0.4-4.4-4.1-6.3-5.7
		c-0.1,0.1-2.4-0.2-2.2,0.1c0.2,1.8-0.5,5,0.8,5.2c0.2,0,0.6,0.1,0.8,0.1c0.3,0,0.1,0.3-0.1,0.2c-2.1,0-1.9-0.1-3.7,0
		c-0.2,0-0.3,0-0.3-0.1c0.1-0.2,0.5-0.1,0.7-0.2c0.3-0.1,0.4-0.5,0.5-1c0.1-0.7,0.1-2.1,0.1-3.8L103.9,23.7L103.9,23.7z"/>
	<path class="st0" d="M58.8,44.1c-0.2-3.2,0.7-4.9-1.4-4.9c-0.2,0-0.1-0.3,0.1-0.2c0.8,0,1.8,0.1,1.9,0.1c0.1,0.1,1.8-0.3,1.9,0.1
		c-0.1,0.2-0.3,0.1-0.6,0.2c-0.5,0.1-0.6,0.4-0.6,1c0,0.6,0,1.1,0,3.8v1.1h0.1c0.3-0.3,3.4-3.6,4-4.3c0.7-0.8,1.4-1.3,0.6-1.8
		c0.3-0.3,1,0,1.5-0.1c0.1,0,1.2-0.1,1.6-0.1c0.3,0,0.4,0.2,0.1,0.2c-0.3,0-0.6,0.1-1,0.2c-1.6,0.8-4.3,4.1-5.6,5.4
		c1.4,1.4,5.5,6.3,7.3,7c0.6,0.3,1.1,0.1,1.3,0.3c0,0.1-0.1,0.1-0.4,0.1c-0.6,0-1.5,0-2.1,0c-2.6-0.4-5.4-4.9-7.3-6.8h-0.1
		c0,1.6,0,4.6,0.1,5.6c0,0.9,0.7,1.1,1.3,1c0.3,0,0.1,0.3-0.1,0.2c-0.9,0-1.8-0.1-2-0.1s-1.1,0.1-1.6,0.1c-0.3,0-0.4-0.2-0.1-0.2
		c1.7,0.1,0.9-2.9,1.1-4.9L58.8,44.1L58.8,44.1z"/>
	<path class="st0" d="M78.1,46.5c0.1,0,0.1-0.1,0.1-0.1l-1.6-4.8c-0.1-0.3-0.2-0.3-0.3,0l-1.5,4.8c0,0.1,0,0.1,0.1,0.1H78.1
		L78.1,46.5z M78.6,37.8c-0.1,0.1-0.2,0.2-0.3,0c-1.7-1.7-1.6-1.6-3.4-0.1c-0.3,0.3-0.6,0.1-0.3-0.2c0.2-0.2,1.7-1.7,1.9-1.8
		c0.3-0.2,0.3-0.2,0.6,0c0.2,0.2,1.7,1.3,1.9,1.5C79,37.4,78.6,37.7,78.6,37.8z M76.3,39.5c0.4-0.9,0.4-1,0.8-0.1
		c0.3,0.7,3,8,4,10.7c0.6,1.6,1.1,1.8,1.5,2c0.3,0.2,0.7,0,0.9,0.2c0,0.1-0.1,0.1-0.3,0.1c-0.1-0.1-2.5,0.2-3.2-0.2
		c0.1-0.2,0.4-0.2,0.2-0.6l-1.6-4.3c0-0.1-0.1-0.1-0.2-0.1h-3.7c-0.1,0-0.1,0.1-0.2,0.1l-1,3.1c-0.3,0.8-0.5,1.8,0.6,1.7
		c0.8,0.4-1.5,0.2-1.4,0.2c-0.2,0-1.1,0.1-1.9,0.1c-0.2,0-0.3,0-0.3-0.1c0-0.1,0.1-0.1,0.1-0.1c1.1,0.1,1.6-0.6,1.9-1.7L76.3,39.5
		L76.3,39.5z"/>
	<path class="st0" d="M87.3,47.3c0,1.7,0,3.1,0.1,3.8c0,0.9,0.8,1.1,1.5,1c0.3,0,0.1,0.3-0.1,0.2c-2.1,0-2-0.1-3.8,0
		c-0.3,0-0.4-0.2-0.1-0.2c1.7,0.1,0.9-2.9,1.1-4.9v-7.5l-2.5,0c-1.4,0-1.7,0.3-2.1,1.1c-0.1,0.2-0.2,0.2-0.3,0
		c0.1-0.4,0.3-1.9,0.6-2.2c0.3,0.2,1.8,0.3,2.1,0.3c1.2-0.1,7.1,0.2,8.2-0.2c0.2,0.4,0,2,0,2.2c0,0.4-0.3,0.2-0.3-0.3
		c0.2-1.2-3.3-1-4.3-1L87.3,47.3L87.3,47.3z"/>
	<path class="st0" d="M94.4,36.8c-0.1-1.1,1.8-1.3,1.8-0.1C96.2,38,94.3,37.9,94.4,36.8 M96,47.2c0,1.7,0,3.1,0.1,3.8
		c0,0.9,0.8,1.1,1.5,1c0.3,0,0.1,0.3-0.1,0.2c-1,0-2-0.1-2.1-0.1s-1.2,0.1-1.7,0.1c-0.2,0-0.3,0-0.3-0.1c0.1-0.2,0.5-0.1,0.7-0.2
		c0.3-0.1,0.4-0.5,0.5-1c0.1-1.2,0.1-5.2,0.1-6.9c0-2.8,0-3.2,0-3.8c0-0.6-0.2-0.9-0.6-1c-0.2-0.1-0.6,0-0.7-0.2
		c0-0.1,0.1-0.1,0.3-0.1c0.6,0,1.6,0.1,1.7,0.1s1.2-0.1,1.7-0.1c0.3,0,0.4,0.2,0.1,0.2c-0.1,0-0.2,0-0.4,0.1
		c-1.1,0.4-0.5,1.9-0.7,4.8L96,47.2L96,47.2z"/>
	<path class="st0" d="M100.7,44.1c0-2.8,0-3.2,0-3.8c0-0.6-0.2-0.9-0.7-1c-0.2-0.1-0.6,0.1-0.7-0.2c0-0.1,0.1-0.1,0.3-0.1
		c0.8,0,1.8,0.1,2,0.1c2.8-0.2,6.2,0,6.2,3.1c0,2.6-2,4.4-4.6,4.2c-0.4-0.1-0.2-0.3,0.3-0.3c4.4,0,3.6-6.9-0.3-6.5
		c-0.4,0.1-0.9-0.1-0.9,0.4c0,2.3-0.1,9.2,0.1,11.1c0,0.5,0.1,0.9,0.7,1c0.2,0,0.6,0.1,0.8,0.1c0.3,0,0.1,0.3-0.1,0.2
		c-1,0-2-0.1-2.1-0.1c0,0-1.1,0.1-1.6,0.1c-0.2,0-0.3,0-0.3-0.1c0.1-0.2,0.5-0.1,0.7-0.2c0.4-0.1,0.4-0.5,0.5-1
		C100.8,49.9,100.7,45.9,100.7,44.1L100.7,44.1z"/>
	<path class="st0" d="M120.5,51.8c1.9,0.1,3.4-0.6,3.6-2.4c0-0.2,0.1-0.3,0.2-0.3c0.3,0.3-0.1,1.7-0.3,2.5c-0.1,0.3-0.1,0.4-0.5,0.5
		c-0.8,0.3-2.3,0.4-3.5,0.4c-0.3,0.2-0.9,0.8-1,0.9c3.3,0.4,1.2,3.2-0.9,3c-0.4,0-0.2-0.4,0.1-0.3c1.5-0.1,1.9-1.9,0-2.4
		c-0.2-0.1-0.3-0.1-0.3-0.2c0-0.2,1.1-0.9,1.2-1.1c-10.8-0.9-8.4-17.6,4.9-13.1c-0.1,0.4-0.1,2.4-0.1,2.8c0,0.5-0.3,0.5-0.3,0
		c-0.1-2.2-1.8-2.7-4.2-2.8C111.3,39.2,113.2,52.1,120.5,51.8"/>
	<path class="st0" d="M128.2,44.1c0-2.8,0-3.2,0-3.8c0-0.6-0.2-0.9-0.7-1c-0.2-0.1-0.6,0.1-0.7-0.2c0-0.1,0.1-0.1,0.3-0.1
		c0.6,0,1.3,0,2,0.1c0.5,0,4,0.1,4.7-0.1c0.5-0.3,0.2,0.3,0.2,0.9c0,0.1-0.1,2-0.3,1.1c0-0.1,0-0.4-0.1-0.6
		c-0.2-0.8-2.9-0.6-3.6-0.7c-0.1,0-0.1,0.1-0.1,0.2v4.9c0,0.1,0,0.2,0.1,0.2c0.8-0.1,3.2,0.3,3.8-0.5c0.2,0.2,0,0.4,0,1.1
		c-0.1,0.5,0.1,1.3-0.2,1.5c-0.2-0.1,0-0.5-0.2-0.7c-0.1-1-2.8-0.6-3.4-0.7c-0.2-0.1-0.1,1.6-0.1,1.7c0,0.6,0,2.7,0,3
		c0,1.2,0.3,1.4,2,1.4c1.1,0,2.3,0,2.4-1.5c0-0.2,0.1-0.3,0.2-0.3c0.3,0.2-0.1,1.4-0.1,2c-0.1,0.5-0.3,0.5-0.9,0.5
		c-2.2,0-3.2-0.1-5-0.1c-0.3,0-1.7,0.1-1.1-0.2c1.7,0.1,0.9-2.9,1.1-4.9L128.2,44.1L128.2,44.1z"/>
	<path class="st0" d="M139.8,47.3c0,2.6,0.1,3.7,0.4,4.1c0.3,0.5,3.6,0.7,4.1-0.1c0.4-0.3,0.3-1.1,0.6-1.3c0.3,0.3-0.1,1.3-0.2,2
		c-0.1,0.4-0.2,0.5-1.1,0.5c-2.5,0-4-0.2-6.3-0.1c-0.3,0-0.4-0.2-0.1-0.2c1.7,0.1,0.9-2.9,1.1-4.9v-3.1c-0.2-3.2,0.7-4.9-1.4-4.9
		c-0.2,0-0.1-0.3,0.1-0.2c0.8,0,1.9,0.1,2,0.1c-0.2,0.1,2.8-0.3,2,0.2c-1.9-0.1-1.1,1.7-1.3,4.9L139.8,47.3L139.8,47.3z"/>
	<path class="st0" d="M148.3,44.1c0-2.8,0-3.2,0-3.8c0-0.6-0.2-0.9-0.7-1c-0.2-0.1-0.6,0.1-0.7-0.2c0-0.1,0.1-0.1,0.3-0.1
		c0.6,0,1.3,0,2,0.1c0.5,0,4,0.1,4.7-0.1c0.5-0.3,0.2,0.3,0.2,0.9c0,0.1-0.1,2-0.4,1.1c0-0.1,0-0.4-0.1-0.6
		c-0.2-0.8-2.9-0.6-3.6-0.7c-0.1,0-0.1,0.1-0.1,0.2v4.9c0,0.1,0,0.2,0.1,0.2c0.2,0,2.3,0,2.7,0c0.6,0,0.8-0.3,1.1-0.5
		c0.2,0-0.2,2-0.1,2.3c0,0.1,0,0.3-0.1,0.3c-0.2-0.1,0-0.5-0.2-0.7c-0.1-1-2.8-0.6-3.4-0.7c-0.2-0.1-0.1,1.6-0.1,1.7
		c0,0.6,0,2.7,0,3c0,1.2,0.3,1.4,2,1.4c1.1,0,2.3,0,2.4-1.5c0-0.2,0.1-0.3,0.2-0.3c0.3,0.2-0.1,1.4-0.1,2c-0.1,0.5-0.3,0.5-0.9,0.5
		c-2.2,0-3.2-0.1-4.9-0.1c-0.4-0.1-1.1,0.2-1.3-0.1c0.1-0.2,0.5-0.1,0.6-0.2c0.4-0.1,0.4-0.5,0.5-1
		C148.3,49.8,148.3,45.9,148.3,44.1L148.3,44.1z"/>
	<path class="st0" d="M159.8,46.4c0,1.4,0,3.6,0,3.8c0,0.9,0,1.1,0.6,1.4c1.7,0.6,3.8,0.5,4-2.2c0.2-1.4-1.2-4.1-3.1-4.1
		c-0.2,0-1.4-0.2-1.5,0.1L159.8,46.4L159.8,46.4z M159.8,44.5c0.1,0.4,0.4,0.2,1.2,0.3c3.2,0.4,2.7-5.4-0.1-5.3c-0.2,0-1-0.1-1,0.3
		V44.5z M158.5,44.1c0-2.8,0-3.2,0-3.8c0-0.6-0.2-0.9-0.7-1c-0.2-0.1-0.6,0.1-0.7-0.2c0-0.1,0.1-0.1,0.3-0.1c2,0.1,2,0.1,3.8,0
		c4.7,0.3,3.9,4,1.8,5.8c5,1.6,3.4,8.5-2.6,7.5c-1.2-0.1-1.7,0-2.7,0c-0.2,0-0.3,0-0.3-0.1c0.1-0.2,0.5-0.1,0.7-0.2
		c0.3-0.1,0.4-0.5,0.5-1C158.5,49.9,158.5,45.9,158.5,44.1L158.5,44.1z"/>
	<path class="st0" d="M169.2,36.8c-0.1-1.1,1.8-1.3,1.8-0.1C171,38,169.1,37.9,169.2,36.8 M170.8,47.2c0,1.7,0,3.1,0.1,3.8
		c0,0.9,0.8,1.1,1.5,1c0.3,0,0.1,0.3-0.1,0.2c-1,0-2-0.1-2.1-0.1s-1.2,0.1-1.7,0.1c-0.2,0-0.3,0-0.3-0.1c0.1-0.2,0.5-0.1,0.7-0.2
		c0.3-0.1,0.4-0.5,0.5-1c0.1-1.2,0.1-5.2,0.1-6.9c0-2.8,0-3.2,0-3.8c0-0.6-0.2-0.9-0.6-1c-0.2-0.1-0.6,0-0.7-0.2
		c0-0.1,0.1-0.1,0.3-0.1c0.6,0,1.6,0.1,1.7,0.1s1.2-0.1,1.7-0.1c0.3,0,0.4,0.2,0.1,0.2c-0.1,0-0.2,0-0.4,0.1
		c-1.1,0.4-0.5,1.9-0.7,4.8L170.8,47.2L170.8,47.2z"/>
	<path class="st0" d="M65.3,57.4c-0.1-0.8,1.5-1.1,1.5-0.1C66.8,58.4,65.2,58.3,65.3,57.4 M61.8,57.4c-0.1-0.9,1.5-1.1,1.5-0.1
		C63.3,58.4,61.8,58.3,61.8,57.4 M58.9,64.6c-0.2-3.2,0.7-4.9-1.4-4.9c-0.2,0-0.1-0.3,0.1-0.2c1.8,0,2,0.1,3.7,0
		c0.3,0,0.4,0.2,0.1,0.2c-0.1,0-0.2,0-0.4,0.1c-1.1,0.3-0.5,1.9-0.7,4.8c-0.1,2.1,0,6.2,1.3,6.8c1.5,1.5,4,1.2,5.3-0.3
		c1.2-1.3,1-4.5,1-6.5c-0.2-3.2,0.7-4.9-1.4-4.9c-0.2,0-0.1-0.3,0.1-0.2c0.8,0,1.7,0.1,1.8,0.1c0,0.1,1.6-0.3,1.7,0.1
		c-0.1,0.2-0.3,0.1-0.6,0.2c-0.5,0.1-0.6,0.4-0.6,1c-0.3,2,0.9,9-1.6,11c-2.2,1.7-4.7,1.9-7.1,0.1C58.9,70.9,58.7,66.9,58.9,64.6
		L58.9,64.6z"/>
	<path class="st0" d="M72.6,70.4c0,1.4,0.2,1.9,0.7,2.1c0.3,0.1,0.7,0.1,0.9,0.1c0.3,0,0.1,0.3-0.2,0.2c-2.1-0.1-1.5-0.1-3.5,0
		c-0.3,0.1-0.4-0.2-0.1-0.2c0.1,0,0.4,0,0.7-0.1c0.4-0.1,0.5-0.6,0.5-2.2c0.1-0.4-0.2-11,0.2-11c0.8,0.6,8.6,9.4,10.2,11.2l-0.2-9
		c0-1.2-0.1-1.5-0.7-1.7c-0.3-0.1-0.7-0.1-0.8-0.1c-0.3-0.1-0.1-0.3,0.2-0.2c0.8,0,1.6,0.1,1.8,0.1c0.1,0.1,1.4-0.2,1.8,0.1
		c0,0.1-0.1,0.1-0.2,0.1c-0.9,0-1.1,0.3-1,1.6l0,10.4c0,1.2,0,1.2-0.2,1.2c-1.7-1.2-8.7-9.2-10.2-11L72.6,70.4L72.6,70.4z"/>
	<path class="st0" d="M86.3,57.2c-0.1-1.1,1.8-1.3,1.8-0.1C88.1,58.4,86.2,58.4,86.3,57.2 M87.9,67.7c0.2,1.9-0.5,4.4,0.8,4.8
		c0.3,0.1,0.8-0.1,0.9,0.2c0,0.1-0.1,0.1-0.3,0.1c-1,0-2-0.1-2.1-0.1s-1.2,0.1-1.7,0.1c-0.3,0-0.4-0.2-0.1-0.2
		c1.7,0.1,0.9-2.9,1.1-4.9v-3.1c-0.2-3.1,0.6-4.8-1.1-4.9c-0.8-0.4,2-0.1,1.9-0.2c0.1,0,1.2-0.1,1.7-0.1c0.3,0,0.4,0.2,0.1,0.2
		c-1.7,0-0.9,1.8-1.1,4.9L87.9,67.7L87.9,67.7z"/>
	<path class="st0" d="M96.7,70.7c1-2.4,3.3-8.5,3.7-9.8c0.3-0.8,0.1-1.2-0.7-1.2c-0.1,0-0.2,0-0.2-0.1c0.3-0.3,2,0,2.1-0.1
		c0.1,0.1,1.4-0.2,1.6,0.1c0,0.1-0.1,0.1-0.2,0.1c-1,0.1-1.1,0.3-1.8,1.9c-0.9,2-3.8,10-4.9,11.5c-0.4,0.2-4.5-11.5-4.8-11.9
		c-0.4-1-0.6-1.2-1.2-1.4c-0.3-0.1-0.5-0.1-0.7-0.1c-0.3-0.1-0.1-0.3,0.3-0.2c0.8,0,1.8,0.1,2,0.1c0.1,0.1,1.8-0.2,2.1,0.1
		c0,0.1,0,0.1-0.2,0.1c-1.3-0.1-0.8,0.8-0.4,1.9L96.7,70.7L96.7,70.7z"/>
	<path class="st0" d="M105.1,64.6c0-2.8,0-3.3,0-3.8c0-0.6-0.2-0.9-0.7-1c-0.2-0.1-0.6,0.1-0.7-0.2c0-0.1,0.1-0.1,0.3-0.1
		c0.6,0,1.3,0,2,0.1c0.5,0,4,0.1,4.7-0.1c0.5-0.3,0.2,0.3,0.2,0.9c0,0.7-0.1,2.4-0.5,0.5c-0.1-0.8-2.9-0.6-3.6-0.7
		c-0.1,0-0.1,0.1-0.1,0.2v4.9c0,0.1,0,0.2,0.1,0.2c0.6-0.1,3,0.2,3.5-0.3c0.1-0.2,0.3-0.4,0.3-0.1c0,0.1-0.1,0.4-0.1,1
		c0,0.4-0.1,1-0.1,1.1c0,0.1,0,0.3-0.1,0.3c-0.2-0.1,0-0.5-0.2-0.7c-0.1-1-2.8-0.6-3.4-0.7c-0.2-0.1-0.1,1.6-0.1,1.7
		c0,0.6,0,2.7,0,3c0,1.2,0.3,1.4,2,1.4c1.1,0,2.3,0,2.4-1.5c0-0.2,0.1-0.3,0.2-0.3c0.3,0.2-0.1,1.4-0.1,2c-0.1,0.5-0.3,0.5-0.9,0.5
		c-2.2,0-3.2-0.1-4.9-0.1c-0.3,0-1.7,0.1-1.1-0.2c1.7,0.1,0.9-2.9,1.1-4.9L105.1,64.6L105.1,64.6z"/>
	<path class="st0" d="M115,66.1c0.2,0.5,1.1,0.4,1.9,0.5c3.6,0.1,2.8-7.1-0.6-6.6c-0.6,0.1-1.2-0.1-1.3,0.3L115,66.1L115,66.1z
		 M113.6,64.6c0-2.8,0-3.3,0-3.8c0-0.6-0.2-0.9-0.7-1c-0.2-0.1-0.6,0.1-0.7-0.2c0-0.1,0.1-0.1,0.3-0.1c0.8,0,1.9,0.1,2,0.1
		c0.2,0,1.5-0.1,2-0.1c4.5-0.4,5.9,4.1,2.3,7.3c2.2,2.7,3.6,5.7,6.5,5.9c0,0.1-0.1,0.1-0.4,0.1c-0.9,0-2.5,0.1-3.1-0.3
		c-1.3-0.6-3.3-4.4-4.4-5.3c-0.1,0.1-2.4-0.2-2.2,0.1c0.2,1.8-0.5,4.9,0.8,5.2c0.2,0,0.6,0.1,0.8,0.1c0.3,0,0.1,0.3-0.1,0.2
		c-2.1,0-1.9-0.1-3.7,0c-0.3,0-0.4-0.2-0.1-0.2c0.1,0,0.4,0,0.5-0.1c0.4-0.1,0.4-0.5,0.5-1c0.1-0.7,0.1-2.1,0.1-3.8V64.6z"/>
	<path class="st0" d="M125.4,72.6c-0.2-0.1-0.3-0.2-0.3-0.7c0-1.2,0.2-3.4,0.4-1.3c0.5,2.8,5.3,2,5-0.6c0.2-2.8-5.5-4.6-5-7.7
		c-0.1-3,3.4-3.6,5.8-2.9c0.4,0.1,0,0.7,0.1,2c0,0.3,0,0.4-0.1,0.4c-0.2-0.1-0.2-0.9-0.4-1.1c-0.1-0.2-0.6-0.9-2.1-0.9
		c-1.2,0-2.1,0.8-2.1,2.1c-0.2,1,1.1,2.3,2.6,3.4C134.5,68.9,130.6,74.9,125.4,72.6"/>
	<path class="st0" d="M134.8,57.2c-0.1-1.1,1.8-1.3,1.8-0.1C136.6,58.4,134.7,58.4,134.8,57.2 M136.4,67.7c0.2,1.9-0.5,4.4,0.8,4.8
		c0.3,0.1,0.8-0.1,0.9,0.2c0,0.1-0.1,0.1-0.3,0.1c-1,0-2-0.1-2.1-0.1s-1.2,0.1-1.7,0.1c-0.2,0-0.3,0-0.3-0.1
		c0.1-0.2,0.5-0.1,0.6-0.2c0.3-0.1,0.4-0.5,0.5-1c0.1-1.2,0.1-5.2,0.1-6.9c-0.2-3.1,0.6-4.8-1.1-4.9c-0.7-0.4,2-0.1,1.9-0.2
		c-0.2,0.1,2.6-0.3,1.8,0.2c-1.7,0-0.9,1.8-1.1,4.9L136.4,67.7L136.4,67.7z"/>
	<path class="st0" d="M144.8,67.7c0,1.7,0,3.1,0.1,3.8c0,0.9,0.8,1.1,1.5,1c0.3,0,0.1,0.3-0.1,0.2c-2.1,0-2-0.1-3.8,0
		c-0.3,0-0.4-0.2-0.1-0.2c1.7,0.1,0.9-2.9,1.1-4.9v-7.5l-2.5,0c-1.4,0-1.7,0.3-2,1.1c-0.1,0.2-0.3,0.3-0.3,0
		c0.1-0.4,0.3-1.9,0.5-2.2c0.3,0.2,1.8,0.3,2.1,0.3c1.2-0.1,7.1,0.2,8.2-0.2c0.2,0.4,0,2,0,2.2c0,0.4-0.3,0.2-0.3-0.3
		c0.2-1.2-3.3-1-4.3-1L144.8,67.7L144.8,67.7z"/>
	<path class="st0" d="M151.7,64.6c0-2.8,0-3.3,0-3.8c0-0.6-0.2-0.9-0.7-1c-0.2-0.1-0.6,0.1-0.7-0.2c0-0.1,0.1-0.1,0.3-0.1
		c0.6,0,1.3,0,2,0.1c0.5,0,4,0.1,4.7-0.1c0.5-0.3,0.2,0.3,0.2,0.9c0,0.7-0.1,2.4-0.5,0.5c-0.1-0.8-2.9-0.6-3.6-0.7
		c-0.1,0-0.1,0.1-0.1,0.2v4.9c0,0.1,0,0.2,0.1,0.2c0.6-0.1,3,0.2,3.5-0.3c0.5-0.6,0.3,0.2,0.2,0.9c0,0.4-0.1,1-0.1,1.1
		c0,0.1,0,0.3-0.1,0.3c-0.2-0.1,0-0.5-0.2-0.7c-0.1-1-2.8-0.6-3.4-0.7c-0.3-0.1-0.1,1.6-0.1,1.7c0,0.6,0,2.7,0,3
		c0,1.2,0.3,1.4,2,1.4c1.1,0,2.3,0,2.4-1.5c0-0.2,0.1-0.3,0.2-0.3c0.3,0.2-0.1,1.4-0.1,2c-0.1,0.5-0.3,0.5-0.9,0.5
		c-2.2,0-3.2-0.1-4.9-0.1c-0.4-0.1-1.1,0.2-1.3-0.1c0.1-0.2,0.5-0.1,0.7-0.2c0.3-0.1,0.4-0.5,0.5-1
		C151.8,70.3,151.8,66.4,151.7,64.6L151.7,64.6z"/>
	<path class="st0" d="M159.8,72.6c-0.2-0.1-0.3-0.2-0.3-0.7c0-1.2,0.2-3.4,0.4-1.3c0.5,2.8,5.3,2,5-0.6c0.2-2.8-5.5-4.6-5-7.7
		c-0.1-3,3.4-3.6,5.8-2.9c0.4,0.1,0,0.7,0.1,2c0,0.3,0,0.4-0.1,0.4c-0.3-0.1-0.1-0.9-0.4-1.1c-0.1-0.2-0.6-0.9-2.1-0.9
		c-1.2,0-2.1,0.8-2.1,2.1c-0.2,1,1.1,2.3,2.6,3.4C168.9,68.9,165,74.9,159.8,72.6"/>
	<path class="st0" d="M169.2,57.2c-0.1-1.1,1.8-1.3,1.8-0.1C171,58.4,169.2,58.4,169.2,57.2 M170.8,67.7c0,1.7,0,3.1,0.1,3.8
		c-0.1,0.9,0.8,1.1,1.5,1c0.3,0,0.1,0.3-0.1,0.2c-1,0-2-0.1-2.1-0.1s-1.2,0.1-1.7,0.1c-0.2,0-0.3,0-0.3-0.1c0.1-0.2,0.5-0.1,0.6-0.2
		c0.3-0.1,0.4-0.5,0.5-1c0.1-1.2,0.1-5.2,0.1-6.9c-0.2-3.1,0.6-4.8-1.1-4.9c-0.8-0.4,2-0.1,1.9-0.2c-0.2,0.1,2.6-0.3,1.8,0.2
		c-1.7,0-0.9,1.8-1.1,4.9L170.8,67.7L170.8,67.7z"/>
	<path class="st0" d="M109,83.4c-0.1,0-0.1-0.1,0-0.2c0.9-0.8,1.6-1.5,1.6-2.4c0-0.9-0.8-1.1-1.2-0.7c-0.1,0-0.1,0.7-0.2,0.5
		c0-0.1-0.1-0.5,0-0.7c3-0.8,1.7,2.2,0.2,3.1c0,0.1,0.9,0,1.1,0c0.4,0,0.5-0.3,0.6-0.5c0.1,0.1-0.1,0.5-0.1,0.7
		c0,0.1-0.1,0.1-0.3,0.1H109L109,83.4z"/>
	<path class="st0" d="M113.4,83.3c1,0,0.9-3.4-0.1-3.4C112.4,79.9,112.4,83.4,113.4,83.3 M113.4,79.8c1.6,0.2,1.3,3.8-0.1,3.7
		C111.8,83.5,112,79.7,113.4,79.8"/>
	<path class="st0" d="M116.9,82c0.1,0.6-0.2,1.1,0.2,1.3c0.1,0,0.3,0,0.4,0.1c-0.8,0.1-0.7,0-1.5,0c-0.3-0.1,0.2-0.1,0.3-0.1
		c0.1,0,0.2-0.1,0.2-0.2c0-0.3,0-1.4,0-1.9c-0.1-0.6,0.3-1.2-0.6-0.6c-0.1,0.1-0.1,0-0.1-0.1c0.1,0,1-0.7,1-0.7
		C117,79.8,116.9,81.6,116.9,82L116.9,82z"/>
	<path class="st0" d="M120,83.3c1,0,0.9-3.4-0.1-3.4C119,79.9,119,83.4,120,83.3 M120,79.8c1.6,0.2,1.3,3.8-0.1,3.7
		C118.4,83.5,118.6,79.7,120,79.8"/>
	<path class="st1" d="M0.6,69.8C17.6,69.4,35,80.7,52.1,83.7v-68C34.8,3.3,17.8-1.3,0.6,0.3C0.6,18.1,0.6,40.7,0.6,69.8"/>
	<path class="st0" d="M172.9,83.3h-50.1v-0.2h50.1V83.3z M107.3,83.3H57.2v-0.2h50.1V83.3z"/>
	<path class="st2" d="M5,66.7c-1.8,1-3.8,2.4-5,3.7c12.5-16.1,21.4-25.3,47.3-48.2c0,0-33.9,27.5-38.6,36.1c0,0-0.9-5.9,4.1-13.4
		c1.4,2.6,1.1,4.4,1.1,4.4c1-3.3,0.7-5.8,0.6-6.7c2.4-2.9,5.6-6,10.2-9c-1.5,3-0.9,5.5-0.9,5.5c-0.1-2.5,1.2-4.8,2.3-6.4
		C42.7,22,42.5,22.6,52.1,15.5c0,0-1.8,3.7-4.8,9c-0.9,0.7-2.3,1.8-3.3,1.9c0,0,1.2,0.1,2.6-0.7c-0.2,0.4-0.4,0.8-0.7,1.2
		c-1.1,0.6-2.2,0.9-2.2,0.9c0.5,0.2,1.2,0,1.8-0.2c-1.6,2.8-3.5,5.8-5.6,8.8c-1.7,0.9-5.4,2.6-9.2,1.8c0,0,3.5,1.1,7.5,0.5
		c-0.2,0.3-0.5,0.7-0.7,1c-1.5,0.3-4,0.8-5.6,0.5c0,0,2.5,0.4,4.9,0.4c-2.3,3.1-4.7,6.1-7.3,8.8c-2.6,1.1-5,0.1-5,0.1s1.3,1,4.1,0.8
		c-3.7,3.7-7.9,8.1-12.7,7c0.9,0.4,2.4,0.4,3.6,0.4c-3,1.7-6.1,2.6-9,2.5c-0.6,0.6-1.6,1.7-2.9,3.2"/>
</g>
</svg>
