<?xml version="1.0" encoding="UTF-8"?>
<svg id="Layer_1" data-name="Layer 1" xmlns="http://www.w3.org/2000/svg" viewBox="0 0 150 150">
  <defs>
    <style>
      .cls-1 {
        fill: #fff;
        fill-rule: evenodd;
      }

      .cls-1, .cls-2 {
        stroke-width: 0px;
      }

      .cls-2 {
        fill: #00afc2;
      }
    </style>
  </defs>
  <circle class="cls-2" cx="75" cy="75" r="75"/>
  <g>
    <path class="cls-1" d="M102.8,67.34c-9.69-12.34-36.84-2.91-47.03-.48-2.55.61-3.2-.72-.41-3.52,10.02-6.41,29.96-15.58,36.3-15.79,16.66.48,20.03,11.78,55.76,14.91-8.73,9.21-31.88,14.5-31.88,14.5-13.22,0-28.2-2.16-35.6-4.09-3.98-.96-3.74-3.36,1.17-3.93,7.73-.57,21.51-.19,21.69-1.59Z"/>
    <path class="cls-1" d="M47.2,82.65c9.69,12.34,36.84,2.91,47.03.48,2.55-.61,3.2.72.4,3.52-10.02,6.41-29.96,15.58-36.3,15.79-16.66-.48-20.03-11.78-55.76-14.91,8.73-9.21,31.88-14.5,31.88-14.5,13.22,0,28.2,2.16,35.6,4.09,3.98.96,3.74,3.36-1.17,3.93-7.73.57-21.51.19-21.69,1.59Z"/>
  </g>
</svg>