<?xml version="1.0" encoding="UTF-8"?>
<svg id="Layer_1" data-name="Layer 1" xmlns="http://www.w3.org/2000/svg" viewBox="0 0 136.77 136.62">
  <defs>
    <style>
      .cls-1 {
        fill: #27ab64;
      }

      .cls-1, .cls-2, .cls-3 {
        stroke-width: 0px;
      }

      .cls-2 {
        fill: #2e3034;
      }

      .cls-3 {
        fill: #231f20;
      }
    </style>
  </defs>
  <path class="cls-3" d="M68.54,0h-.18C30.68,0,0,30.65,0,68.32s30.64,68.21,68.32,68.3h-.01s.11-.01.11-.01c18.24,0,35.42-7.14,48.38-20.12,12.9-12.92,19.99-30,19.97-48.1C136.73,30.78,106.12.1,68.54,0ZM107.55,120.76s-.01,0-.01.01c-1.26.94-2.56,1.83-3.88,2.68-.89.57-1.8,1.12-2.71,1.65-.6.34-1.21.68-1.82,1.01-1.22.65-2.47,1.26-3.73,1.84-.64.28-1.28.56-1.92.83-7.76,3.23-16.26,5.01-25.15,4.99h0c-6.03,0-11.85-.83-17.39-2.35-1.1-.31-2.2-.64-3.28-1-1.08-.36-2.15-.75-3.21-1.17-1.05-.41-2.09-.85-3.12-1.32h-.01c-1.45-.67-2.87-1.37-4.26-2.13h-.01c-1.39-.77-2.75-1.57-4.07-2.42-.45-.29-.89-.58-1.33-.87-1.74-1.19-3.42-2.45-5.03-3.78,0,0,0-.01-.01,0-1.06-.88-2.09-1.79-3.09-2.73-.51-.47-1-.95-1.48-1.44-2.92-2.91-5.56-6.1-7.89-9.52-.77-1.14-1.51-2.3-2.22-3.48-1.05-1.78-2.02-3.62-2.91-5.5-.59-1.26-1.14-2.53-1.65-3.83,0-.01-.01-.01-.01-.01-.38-.99-.75-1.99-1.09-2.99-.42-1.23-.8-2.48-1.14-3.75-.23-.84-.45-1.69-.64-2.55-1.08-4.7-1.65-9.59-1.65-14.61,0-3.72.31-7.36.91-10.91.01-.1.03-.19.04-.28h0c.11-.62.22-1.22.34-1.82.12-.6.25-1.2.39-1.79.25-1.06.52-2.11.81-3.14.25-.87.52-1.73.8-2.58.1-.3.2-.6.3-.89.3-.88.63-1.75.96-2.61,2.56-6.45,6.1-12.4,10.45-17.65.51-.62,1.03-1.22,1.57-1.82.51-.58,1.03-1.15,1.57-1.71.36-.38.73-.75,1.1-1.12.18-.19.36-.37.55-.54.56-.55,1.13-1.09,1.72-1.62,1.16-1.06,2.37-2.08,3.61-3.05.82-.65,1.66-1.28,2.52-1.88,0,0,0-.01.01-.01.68-.48,1.38-.96,2.08-1.42,4.14-2.71,8.6-4.96,13.31-6.68,1.76-.64,3.54-1.21,5.36-1.7,5.52-1.49,11.31-2.28,17.29-2.26.56,0,1.12.01,1.68.02.42.01.83.03,1.25.05.83.03,1.66.09,2.48.16,2.06.18,4.09.44,6.1.8.53.09,1.06.2,1.59.31,1.06.22,2.11.46,3.16.73.52.13,1.03.27,1.55.42.64.19,1.29.38,1.92.58,1.91.61,3.78,1.3,5.61,2.07,1.46.62,2.9,1.29,4.31,2.01,6.34,3.24,12.09,7.48,17.04,12.52.56.56,1.1,1.13,1.62,1.71,1.06,1.16,2.07,2.36,3.05,3.59.97,1.23,1.91,2.51,2.79,3.81h0c.74,1.1,1.44,2.2,2.12,3.34.67,1.13,1.31,2.28,1.92,3.46h0c.36.72.72,1.43,1.05,2.15.34.72.66,1.45.97,2.18,3.34,7.85,5.19,16.51,5.2,25.64.01,4.53-.46,8.95-1.34,13.22-.08.39-.17.79-.26,1.18h0c-.09.4-.18.79-.28,1.18-.19.78-.4,1.56-.62,2.33-.3,1.03-.62,2.05-.96,3.06-.49,1.43-1.03,2.84-1.61,4.22-.06.15-.12.29-.18.43-.41.95-.83,1.88-1.28,2.8-.22.46-.45.92-.69,1.37h0s-.72,1.36-.72,1.36c-.01,0-.01,0-.01.02-.95,1.72-1.98,3.41-3.07,5.04h0c-.36.55-.74,1.09-1.12,1.62h0c-1.14,1.58-2.34,3.12-3.6,4.59h0c-.42.5-.84.98-1.28,1.46-.04.03-.07.06-.1.1-.7.76-1.41,1.5-2.14,2.23-2.22,2.22-4.6,4.28-7.13,6.16Z"/>
  <path class="cls-3" d="M68.52,2.34C32.04,2.35,2.36,31.97,2.35,68.35c0,17.53,6.88,34.08,19.37,46.6,12.5,12.53,29.04,19.43,46.57,19.43h.17c17.58-.04,34.09-6.79,46.51-18.98,12.58-12.36,19.53-29.01,19.56-46.88.07-36.76-28.91-65.84-66.01-66.18ZM132.34,82.79h0c-.09.4-.18.79-.28,1.18-.19.78-.4,1.56-.62,2.33-.3,1.03-.62,2.05-.96,3.06-.49,1.43-1.03,2.84-1.61,4.22-.06.15-.12.29-.18.43-.41.95-.83,1.88-1.28,2.8-.22.46-.45.92-.69,1.37h0s-.72,1.36-.72,1.36c-.01,0-.01,0-.01.02-.95,1.72-1.98,3.41-3.07,5.04h0c-.36.55-.74,1.09-1.12,1.62h0c-1.14,1.58-2.34,3.12-3.6,4.59h0c-.42.5-.84.98-1.28,1.46-.04.03-.07.06-.1.1-.7.76-1.41,1.5-2.14,2.23-2.22,2.22-4.6,4.28-7.13,6.16t-.01.01c-1.26.94-2.56,1.83-3.88,2.68-.89.57-1.8,1.12-2.71,1.65-.6.34-1.21.68-1.82,1.01-1.22.65-2.47,1.26-3.73,1.84-.64.28-1.28.56-1.92.83-7.76,3.23-16.26,5.01-25.15,4.99h0c-6.03,0-11.85-.83-17.39-2.35-1.1-.31-2.2-.64-3.28-1-1.08-.36-2.15-.75-3.21-1.17-1.05-.41-2.09-.85-3.12-1.32h-.01c-1.45-.67-2.87-1.37-4.26-2.13h-.01c-1.39-.77-2.75-1.57-4.07-2.42-.45-.29-.89-.58-1.33-.87-1.74-1.19-3.42-2.45-5.03-3.78,0,0,0-.01-.01,0-1.06-.88-2.09-1.79-3.09-2.73-.51-.47-1-.95-1.48-1.44-2.92-2.91-5.56-6.1-7.89-9.52-.77-1.14-1.51-2.3-2.22-3.48-1.05-1.78-2.02-3.62-2.91-5.5-.59-1.26-1.14-2.53-1.65-3.83,0-.01-.01-.01-.01-.01-.38-.99-.75-1.99-1.09-2.99-.42-1.23-.8-2.48-1.14-3.75-.23-.84-.45-1.69-.64-2.55-1.08-4.7-1.65-9.59-1.65-14.61,0-3.72.31-7.36.91-10.91.01-.1.03-.19.04-.28h0c.11-.62.22-1.22.34-1.82.12-.6.25-1.2.39-1.79.25-1.06.52-2.11.81-3.14.25-.87.52-1.73.8-2.58.1-.3.2-.6.3-.89.3-.88.63-1.75.96-2.61,2.56-6.45,6.1-12.4,10.45-17.65.51-.62,1.03-1.22,1.57-1.82.51-.58,1.03-1.15,1.57-1.71.36-.38.73-.75,1.1-1.12.18-.19.36-.37.55-.54.56-.55,1.13-1.09,1.72-1.62,1.16-1.06,2.37-2.08,3.61-3.05.82-.65,1.66-1.28,2.52-1.88,0,0,0-.01.01-.01.68-.48,1.38-.96,2.08-1.42,4.14-2.71,8.6-4.96,13.31-6.68,1.76-.64,3.54-1.21,5.36-1.7,5.52-1.49,11.31-2.28,17.29-2.26.56,0,1.12.01,1.68.02.42.01.83.03,1.25.05.83.03,1.66.09,2.48.16,2.06.18,4.09.44,6.1.8.53.09,1.06.2,1.59.31,1.06.22,2.11.46,3.16.73.52.13,1.03.27,1.55.42.64.19,1.29.38,1.92.58,1.91.61,3.78,1.3,5.61,2.07,1.46.62,2.9,1.29,4.31,2.01,6.34,3.24,12.09,7.48,17.04,12.52.56.56,1.1,1.13,1.62,1.71,1.06,1.16,2.07,2.36,3.05,3.59.97,1.23,1.91,2.51,2.79,3.81h0c.74,1.1,1.44,2.2,2.12,3.34.67,1.13,1.31,2.28,1.92,3.46h0c.36.72.72,1.43,1.05,2.15.34.72.66,1.45.97,2.18,3.34,7.85,5.19,16.51,5.2,25.64.01,4.53-.46,8.95-1.34,13.22-.08.39-.17.79-.26,1.18Z"/>
  <path class="cls-2" d="M4.49,82.93c-1.09-4.7-1.66-9.58-1.66-14.6,0-3.72.32-7.37.92-10.92-.6,3.55-.91,7.19-.91,10.91,0,5.02.57,9.91,1.65,14.61Z"/>
  <path class="cls-2" d="M7.36,92.22c-.39-.98-.76-1.98-1.09-2.99.34,1,.71,2,1.09,2.99Z"/>
  <path class="cls-2" d="M9.02,96.06c.89,1.88,1.86,3.72,2.91,5.5-1.05-1.78-2.03-3.62-2.91-5.5Z"/>
  <path class="cls-2" d="M11.93,101.56c.71,1.18,1.45,2.34,2.22,3.48-.78-1.13-1.52-2.29-2.22-3.48Z"/>
  <path class="cls-2" d="M31.65,122.51c-1.74-1.18-3.41-2.44-5.03-3.78,1.61,1.33,3.29,2.59,5.03,3.78Z"/>
  <path class="cls-2" d="M37.05,125.8c-1.39-.75-2.75-1.56-4.07-2.42,1.32.85,2.68,1.65,4.07,2.42Z"/>
  <path class="cls-2" d="M41.32,127.93c-1.45-.65-2.87-1.36-4.26-2.13,1.39.76,2.81,1.46,4.26,2.13Z"/>
  <path class="cls-2" d="M68.33,133.78h-.01c-6.02,0-11.85-.83-17.38-2.36,5.54,1.52,11.36,2.35,17.39,2.36Z"/>
  <path class="cls-2" d="M68.33,133.77c8.89.02,17.39-1.76,25.15-4.99-7.76,3.24-16.26,5.02-25.15,5h0Z"/>
  <path class="cls-2" d="M107.54,120.77c-1.26.94-2.55,1.84-3.88,2.68,1.32-.85,2.62-1.74,3.88-2.68Z"/>
  <path class="cls-2" d="M107.55,120.76c2.52-1.88,4.91-3.94,7.13-6.16-2.22,2.22-4.6,4.28-7.13,6.16Z"/>
  <path class="cls-2" d="M121.8,106.23c-1.13,1.58-2.33,3.11-3.6,4.58,1.26-1.47,2.46-3.01,3.6-4.58Z"/>
  <path class="cls-2" d="M125.99,99.56c-.94,1.73-1.96,3.41-3.07,5.04,1.09-1.63,2.12-3.32,3.07-5.04Z"/>
  <path class="cls-2" d="M126,99.54c.98-1.8,1.88-3.64,2.69-5.53-.81,1.89-1.71,3.74-2.69,5.53Z"/>
  <path class="cls-2" d="M130.48,89.36c-.48,1.43-1.02,2.84-1.61,4.22.58-1.38,1.12-2.79,1.61-4.22Z"/>
  <path class="cls-2" d="M132.6,81.61c-.33,1.59-.71,3.15-1.16,4.69.44-1.54.83-3.11,1.16-4.69Z"/>
  <path class="cls-1" d="M68.52,5.18c35.07.33,63.24,28.05,63.18,63.34-.07,35.67-28.76,62.94-63.24,63.03-34.77.09-63.28-28.46-63.27-63.19C5.19,33.68,33.75,5.19,68.53,5.18h0ZM7.46,68.36c-.12,35.54,30.75,64.75,67.75,60.7,14.01-1.53,26.3-7.4,36.32-17.5,11.79-11.88,17.87-26.27,17.93-43.02.12-33.78-27.18-61.09-60.9-61.11-33.78-.02-61.09,27.21-61.1,60.92h0Z"/>
  <path class="cls-1" d="M68.5,28.54c21.5.15,39.59,16.94,39.91,39.66.31,21.8-17.89,39.98-39.62,40.03-21.99.05-39.97-17.15-40.2-39.41-.23-22.3,17.69-40.21,39.91-40.28ZM90.96,47.25c1.61-1.11,1.75-1.96.52-3.36-.57-.64-1.26-1.26-1.32-2.14-.1-1.49-.78-.8-1.32-.4-.66.49-.62,1.17-.23,1.8.35.56.79,1.06,1.2,1.59-1.02-.25-1.37-1.2-1.86-2.02-1.14,1.44-1.08,1.9.36,2.68.79.43,1.51.9,1.83,1.93.71-1.16-.18-1.83-.36-2.62.85.56,1.21,1.31.93,2.32-.11.13-.22.27-.02.4.04.02.17-.12.27-.18ZM47.87,46.22c-.06-.06-.12-.11-.18-.16.22-.38.64-.47.99-.68,1.39-.82,1.46-1.37.22-2.67-.39,1.7-2.5,2.17-2.59,4.05-.13-1.19-.11-1.25,1.24-2.63.51-.52,1.03-1.04,1.03-1.84,0-.84-.6-1.24-1.27-1.37-.83-.16-.36.63-.52.95-.26.53-.5,1.05-.89,1.5-1.76,2.06-1.75,2.18.14,4.09.03.03-.03.15-.07.32h-2.28c.24.75.57,1.26,1.35,1.14.9-.14,1.04.29,1.03,1.07-.04,2.31.03,4.62-.04,6.92-.03.92.29,1.14,1.15,1.12,1.99-.05,3.98-.07,5.97,0,2.63.1,4.72,2.16,4.92,4.73.2,2.55-1.6,5.11-4.06,5.46-1.08.15-1.03.52-.83,1.34,1.93,7.77,3.82,15.54,5.74,23.31.17.67.14,1.42.72,2.23v-.99c0-8.1,0-16.2-.03-24.3,0-.73.24-1.51-.47-2.14-.31-.28-.09-.68.23-.93.28-.22.59-.23.88-.03.34.22.59.6.31.91-.72.79-.45,1.71-.45,2.58-.03,4.3,0,8.6,0,12.89v11.6c.27,0,.31-.19.35-.36,2.04-8.37,4.06-16.75,6.13-25.11.19-.78-.01-.86-.71-.97-2.65-.42-4.43-2.74-4.28-5.43.14-2.48,2.19-4.61,4.73-4.78,1.44-.1,2.9-.1,4.34,0,2.61.2,4.64,2.36,4.74,4.92.1,2.59-1.69,4.88-4.3,5.27-.94.14-.79.48-.63,1.13,1.56,6.28,3.08,12.56,4.62,18.84.51,2.11,1.03,4.21,1.54,6.32.23-.22.27-.39.27-.57v-24.84c0-.5,0-.96-.4-1.37-.36-.38-.14-.76.22-1.04.28-.22.6-.21.88,0,.38.29.52.72.17,1.05-.52.49-.4,1.06-.4,1.63v25.29c.47-.91.7-1.85.93-2.79,1.84-7.46,3.68-14.93,5.49-22.4.1-.43.7-1.06-.46-1.24-2.91-.47-4.66-2.77-4.41-5.55.24-2.66,2.43-4.64,5.25-4.69,1.9-.04,3.8-.06,5.7,0,.93.03,1.14-.29,1.12-1.15-.05-2.31,0-4.61-.03-6.92-.01-.7.09-1.16.94-1.03.85.12,1.21-.37,1.39-1.19-1.6-.07-3.31.5-4.32-1.48-.35-.69-1.61-.8-2.35-1.77-.16,2.15,2.29,1.68,2.58,3.24h-2.15c-.38,0-.6.13-.59.54,0,.42.13.7.62.67.32-.02.64.03.95,0,.97-.12,1.27.26,1.12,1.23-.32,2.07-2.06,3.94-4.15,4.33-2.3.43-4.58-.71-5.66-2.83-.82-1.61-.65-2.62.65-3.88,1.68-1.63,1.7-4.18.05-5.83-1.7-1.7-4.26-1.64-5.9.14-1.56,1.68-1.48,4.4.37,5.78,1.02.76,1.04,1.58.83,2.57-.46,2.24-2.38,3.96-4.66,4.08-1.49.08-2.99.09-4.48-.02-2.57-.19-4.58-2.46-4.61-5.02,0-.58.15-.97.64-1.36,2.08-1.65,2.32-4.26.63-6.05-1.7-1.8-4.31-1.8-6,0-1.67,1.78-1.44,4.48.62,6.06.61.46.74.93.7,1.6-.12,2.33-1.96,4.39-4.29,4.77-2.44.4-4.75-.89-5.69-3.17-.8-1.93-.57-2.31,1.43-2.41h.27c.37,0,.61-.1.62-.52.02-.45-.16-.67-.63-.65-.69.02-1.38,0-2.23,0,.48-.86,1.09-1.13,1.69-1.42.63-.31,1.34-.6.89-1.81-.59,1.05-1.52,1.28-2.33,1.71h-.04Z"/>
  <g>
    <path class="cls-2" d="M65.67,18.21c0,2.28-.03,4.56.02,6.84.02.85-.16,1.26-1.12,1.11-.72-.12-1.49.19-1.4-1.12.2-3.06.2-6.14.34-9.21.02-.51-.39-1.42.43-1.46.86-.04,1.92-.48,2.62.51.88,1.25,1.78,2.5,2.66,3.76.87,1.25,1.85,2.42,2.54,3.79.13,0,.27,0,.4-.01,0-2.16-.01-4.32,0-6.48.01-1.17,1.2-1.85,2.24-1.3.38.2.26.54.25.83-.1,3.39-.2,6.77-.31,10.16-.01.34.09.85-.44.8-.86-.08-1.89.34-2.53-.55-1.8-2.53-3.55-5.1-5.32-7.66-.12,0-.25-.02-.37-.02h0Z"/>
    <path class="cls-2" d="M20.52,88.78c-3.36,0-6.2-2.91-6.2-6.33s2.81-6.27,6.27-6.25c3.38.03,6.22,2.96,6.19,6.42-.03,3.41-2.83,6.17-6.26,6.16ZM24.43,82.49c0-2.09-1.6-3.66-3.7-3.65-2.32.01-4.1,1.68-4.05,3.82.04,2,1.67,3.55,3.69,3.52,2.29-.03,4.07-1.65,4.06-3.69Z"/>
    <path class="cls-2" d="M59.48,24.05c.04,1.39-.58,2.45-1.7,3.2-1.35.9-2.87,1.31-4.49,1.29-1.75-.02-2.95-.96-3.5-2.53-.86-2.47-1.54-5-2.28-7.51-.27-.93.6-.78,1-.86.48-.09,1.21-.86,1.52.26.42,1.48.83,2.95,1.25,4.43.2.7.33,1.41.59,2.08.57,1.49,1.64,2.01,3.11,1.58,1.39-.4,2.07-1.39,1.72-2.91-.49-2.11-1.06-4.2-1.78-6.24-.43-1.24.45-1.11,1.05-1.33.62-.22,1.22-.56,1.49.54.57,2.32,1.29,4.61,1.92,6.91.09.34.07.72.1,1.08h0Z"/>
    <path class="cls-2" d="M104.85,40.4c-.92.66-1.87,1.27-2.74,1.98-.57.47-1.05.6-1.32-.17-.2-.58-1.65-.94-.34-1.87,2.72-1.94,5.42-3.92,8.09-5.94.63-.47.94-.4,1.34.22.61.95,1.34,1.82,1.95,2.77,1.17,1.81,1.14,3.27-.02,4.45-1.27,1.3-2.68,1.41-4.62.3-.77,1.83-1.54,3.65-2.39,5.66-.54-.72-.98-1.38-1.49-1.98-.34-.42-.13-.74.04-1.11.59-1.31,1.17-2.64,1.75-3.96.19-.15.26-.39.1-.54-.15-.14-.27.07-.36.2h0ZM109.22,37.17c-.66.47-1.29.91-1.9,1.37-.19.15-.59.29-.35.6.45.61.86,1.32,1.67,1.49.6.13,1.03-.28,1.38-.7.56-.66.18-1.27-.16-1.86-.17-.31-.41-.58-.64-.9Z"/>
    <path class="cls-2" d="M24.72,61.94c-3.24-2.58-6.32-5.06-9.43-7.5-.53-.42-.45-.83-.19-1.28.36-.65.02-1.8,1.15-1.88,3.83-.29,7.66-.5,11.49-.75.18,0,.35-.06.47.14.25.43-.85,2.51-1.36,2.65-.71.2-1.73-.35-2.11.43-.56,1.16-.85,2.47-1.2,3.72-.12.43.34.63.64.77,1.28.6,1.54,1.47.85,2.69-.13.23-.15.51-.3,1.02h0ZM21.62,56.33c.39-.97.73-1.88.88-2.83h-4.85c1.39.99,2.65,1.89,3.97,2.83Z"/>
    <path class="cls-2" d="M18.67,94.13c1.74.17,3.42.25,5.06.51,1.22.2,1.86-.1,2.28-1.33.64-1.87,1.51-3.66,2.28-5.5,1.69,1.41,1.88,2.19,1.04,4.03-.69,1.51-1.37,3.03-2.21,4.89,1.65-1.06,3.05-1.9,4.38-2.83,1.22-.85,1.13.5,1.57.89.49.44.63.84-.14,1.32-2.88,1.78-5.74,3.6-8.53,5.51-1.04.71-1.12-.19-1.42-.65s-1.15-.94-.05-1.56c1.17-.65,2.26-1.43,3.71-2.37-1.66-.1-2.94-.32-4.21-.22-1.98.15-3.1-.76-3.76-2.71v.02Z"/>
    <path class="cls-2" d="M110.33,80.54c-.94-.09-1.73-.14-1.33-1.55.45-1.6.64-3.27.86-4.93.07-.54.23-.71.75-.61,3.5.66,7.01,1.31,10.52,1.94.51.09.54.35.46.76-.36,1.86-.73,3.72-1.04,5.59-.18,1.1-.86.44-1.33.42-.51-.02-1-.08-.77-.88.22-.78.19-1.64.47-2.39.42-1.15-.16-1.29-1.07-1.52-1.14-.28-1.16.36-1.25,1.12-.08.63-.34,1.24-.34,1.86,0,1.24-.66,1.16-1.57,1.01-.76-.12-.87-.45-.71-1.09.13-.52.2-1.06.3-1.6.34-1.87-.02-2.26-1.96-2.29-.66-.01-.6.42-.67.78-.19.93-.35,1.86-.51,2.8-.08.46-.25.79-.8.57h-.01Z"/>
    <path class="cls-2" d="M24.74,38.27c-.17.28-.29.47-.41.66-.38.61-.76,1.22-1.15,1.83-.7,1.11-.31,2.03.96,2.32.38.09.46-.16.6-.38.45-.73.96-1.42,1.35-2.19.43-.85.79-1.01,1.71-.46,1,.61.63,1.04.18,1.66-.29.4-.48.88-.8,1.25-.92,1.04-.75,1.68.5,2.35.85.46,1.29.58,1.71-.4.25-.57.74-1.04.96-1.62.5-1.29,1.17-.95,2.01-.36.48.34.55.56.22,1.06-1.01,1.54-2,3.11-2.94,4.7-.31.53-.54.53-1.03.22-2.93-1.86-5.88-3.69-8.85-5.49-.52-.32-.56-.54-.23-1.03,1.01-1.54,1.97-3.13,2.97-4.68.14-.22.22-.71.66-.47.54.3,1.04.68,1.57,1.03h.01Z"/>
    <path class="cls-2" d="M105.63,29.74c-.56.65-.91,1.18-1.39,1.57-.4.32-.6-.23-.85-.42-.54-.41-1.02-.89-1.53-1.34-.95-.85-2.08-.5-2.43.72-.11.38.19.46.37.61.71.63,1.4,1.28,2.17,1.84.85.61.27,1.02-.1,1.51-.38.49-.71.9-1.33.21-.51-.56-1.14-1.03-1.75-1.49-.33-.24-.62-.95-1.05-.6-.66.52-1.14,1.27-1.66,1.94-.02.03.27.32.43.47.58.5,1.17,1,1.75,1.5,1.08.92,1.04,1.43-.09,2.31-.39.31-.55.06-.78-.14-1.44-1.23-2.88-2.47-4.34-3.68-.39-.32-.45-.53-.09-.95,2.31-2.66,4.6-5.34,6.87-8.03.36-.42.59-.38.97-.04,1.41,1.26,2.85,2.5,4.29,3.73.14.12.32.17.53.28h0Z"/>
    <path class="cls-2" d="M15.86,62.79c-1.67,2.94-1.65,5.01.02,6.46,1.44,1.25,3.93,1.32,5.41.16,1.68-1.32,1.77-3.29.3-6.37,2.61-.22,3,.06,3.25,2.58.27,2.68-.57,4.96-2.94,6.39-2.24,1.35-4.62,1.29-6.77-.21-2.31-1.61-3.01-3.98-2.56-6.69.41-2.47.5-2.5,3.29-2.33h0Z"/>
    <path class="cls-2" d="M87.72,27.64c1.18-1.09,2.29-2.11,3.39-3.15.49-.46.95-.97,1.42-1.45,1.17-1.2,2.53-1.31,4.08-.33-2.91,2.73-5.81,5.42-8.67,8.16-.7.67-1.14.05-1.66-.16-.54-.22-1.03-.4-.93-1.23.45-3.89.84-7.79,1.26-11.84.79.39,1.47.72,2.15,1.05.26.13.48.3.39.62-.78,2.69-.93,5.48-1.41,8.33h-.02Z"/>
    <path class="cls-2" d="M118.5,49.67c.04,1.64-.62,2.12-1.93,1.43-.37-.2-.62-.34-.33-.8.26-.41.23-.87.06-1.3-.27-.7-.65-1.36-1.53-1.28-.83.08-1.06.75-1.13,1.46-.08.85-.1,1.71-.2,2.56-.23,1.79-1.23,2.93-2.79,3.25-1.46.3-2.88-.35-3.77-1.81-.79-1.3-1.27-2.67-.74-4.24.39-1.15,1.07-.55,1.73-.41.84.18.65.58.35,1.13-.38.71-.17,1.4.24,2.04.36.57.83.98,1.55.86.68-.11.97-.65,1.06-1.25.14-.93.16-1.89.31-2.82.32-1.96,1.25-3,2.77-3.22,1.45-.21,2.8.62,3.69,2.22.38.68.59,1.41.66,2.18Z"/>
    <path class="cls-2" d="M106.05,87.45c.02-1.85,1.32-3.86,2.77-4.5,1.17-.52,1.07.53,1.44,1.03.53.71-.03.77-.52.94-.78.28-1.24.87-1.43,1.68-.14.62-.05,1.16.47,1.59.56.46,1.12.31,1.62-.05.84-.61,1.63-1.29,2.46-1.91,1.22-.91,2.53-1.21,3.9-.33,1.24.8,1.64,2.03,1.43,3.41-.25,1.63-.92,3.02-2.56,3.73-.55.24-.79-.09-.84-.53-.05-.46-.93-.99.03-1.41.63-.28.99-.77,1.2-1.39.19-.56.1-1.08-.34-1.49-.48-.44-1.03-.38-1.49-.03-.83.62-1.59,1.34-2.43,1.95-1.57,1.14-3.2,1.15-4.49.06-.85-.71-1.25-1.64-1.23-2.74h0Z"/>
    <path class="cls-2" d="M114.91,68.48c-1.26,0-2.54-.09-3.79.03-.99.09-1.05-.4-.97-1.11.07-.61-.46-1.48.86-1.48,2.35-.01,4.7-.27,7.04-.22,1.43.03,1.86-.48,1.57-1.77-.23-1.03.15-1.38,1.18-1.3.57.04,1.03-.08,1.04.78.03,2.21.12,4.43.28,6.63.08,1.04-.54.89-1.17.95-.67.06-1.07.05-1.11-.84-.08-1.93-.14-1.91-2.08-1.86-.95.03-1.9,0-2.85,0v.2h0Z"/>
    <path class="cls-2" d="M39.36,36.41c-.22.25-.37.41-.52.57-1.2,1.23-2.41,2.44-3.59,3.69-.39.41-.59.46-1.04.02-2.43-2.42-4.86-4.82-7.37-7.15-.82-.76-.18-1.08.26-1.41.44-.34.63-1.49,1.61-.48,1.79,1.85,3.73,3.55,5.49,5.42.69.73,1,.58,1.52-.06.43-.52.92-1,1.42-1.44.23-.2.36-.78.81-.44.5.37.93.84,1.41,1.29h0Z"/>
    <path class="cls-2" d="M120.83,57.89c.18.67-.25.66-.59.73-3.39.77-6.77,1.51-10.15,2.32-.95.23-.86-.53-.88-.94-.02-.54-.91-1.35.3-1.63,3.43-.79,6.85-1.63,10.3-2.25,1.37-.24.48,1.35,1.02,1.77Z"/>
    <path class="cls-2" d="M103.79,91.67c.26.18.45.3.63.43,2.79,1.84,5.55,3.72,8.37,5.51.78.5.74.91.19,1.44-.44.42-.41,1.64-1.61.81-2.78-1.93-5.63-3.76-8.44-5.64-.25-.17-.82-.25-.47-.76.42-.61.72-1.32,1.33-1.79Z"/>
    <path class="cls-2" d="M82.58,16.87c-.39,1.46-.76,2.78-1.1,4.12-.53,2.06-1.09,4.1-1.54,6.18-.24,1.07-.82.81-1.47.56-.6-.22-1.48-.04-1.11-1.29.96-3.19,1.78-6.41,2.66-9.62.1-.35.05-.88.7-.71.68.18,1.34.37,1.86.76Z"/>
    <path class="cls-2" d="M35.97,24.26c.42.06.51.34.66.55,2.03,2.76,4.01,5.55,6.09,8.27.54.71.18,1.03-.33,1.18-.57.17-.89,1.6-1.78.38-1.96-2.7-3.94-5.38-5.89-8.08-.21-.29-.75-.61-.37-1.02.48-.51,1.11-.89,1.63-1.28h-.01Z"/>
    <path class="cls-2" d="M68.34,123.4c.9-.65,1.49-1.44,1.67-2.52-.5-.31-.93.24-1.42.06-.87-.32-1.47-.88-1.67-1.8-.23-1.04.17-1.85.98-2.49.77-.6,1.57-.63,2.4-.14,1.09.64,1.53,2.06,1.14,3.61-.51,2-1.63,3.22-3.09,3.29h-.01ZM70.47,118.42c-.1-.62-.06-1.79-1.36-1.77-1.1,0-1.07,1.06-1.08,1.86-.01.89.14,1.84,1.25,1.91,1.12.07,1.24-.8,1.19-1.99h0Z"/>
    <path class="cls-2" d="M62.03,123.65c1.58-.55,2.08-1.64,2.53-2.86-.57-.22-1.03.31-1.56.13-.94-.32-1.57-.9-1.73-1.88-.17-1.09.19-2.09,1.2-2.49.83-.33,1.85-.48,2.66.27.97.89,1.15,2.55.46,4.17-.71,1.68-2.01,2.72-3.57,2.66h.01ZM64.89,118.55c-.13-.7.07-1.85-1.32-1.86-1.13,0-1.16.93-1.19,1.73-.03.96.21,1.88,1.34,1.98,1.17.1,1.18-.82,1.17-1.85Z"/>
    <path class="cls-2" d="M72.47,117.74c.58-.83,1.05-1.21,1.66-1.4.96-.3,1.8-.09,2.44.7.67.83.55,1.72-.09,2.48-.93,1.09-1.94,2.11-3.06,3.31,1.41.05,2.64.18,4.15-.5-1.53,2.53-3.66.9-5.33,1.44.7-1.18,1.86-1.88,2.49-3.04.26-.47.63-.89.87-1.36.35-.69.42-1.4-.18-2-.63-.63-1.3-.45-1.97-.03-.19.12-.4.18-.97.42v-.02Z"/>
    <path class="cls-2" d="M57.31,117.74c.71-.51,1.33-.94,2.01-1.43.5,2.43-.49,5.03.6,7.42h-2.11c.99-1.8.35-3.77.46-5.66.04-.61-.58-.07-.96-.33Z"/>
    <path class="cls-2" d="M82.2,15.03c-.66-.1-1.12-.43-1.12-1.12,0-.75.5-1.2,1.18-1.18.62.02,1.05.5,1.04,1.18-.01.7-.47,1.01-1.1,1.12Z"/>
    <path class="cls-2" d="M115.04,99.53c.64.11,1.06.51,1.05,1.16,0,.75-.5,1.14-1.23,1.09-.68-.05-1.06-.53-1.01-1.18.05-.65.49-1.02,1.18-1.06h.01Z"/>
    <path class="cls-2" d="M33.75,24.02c-.65-.1-1.13-.43-1.17-1.1-.04-.67.37-1.14,1.03-1.19.68-.06,1.09.4,1.14,1.06.05.67-.35,1.07-.99,1.23h0Z"/>
    <path class="cls-2" d="M54.08,13.82c-.14.67-.55,1.06-1.21.98-.58-.07-1-.52-.94-1.11.06-.61.43-1.12,1.14-1.07.69.06.96.56,1.01,1.2Z"/>
    <path class="cls-2" d="M123.09,55.53c.68.13,1.19.4,1.2,1.1.01.76-.46,1.17-1.18,1.16-.67,0-1.07-.44-1.07-1.12s.48-1,1.05-1.14Z"/>
    <path class="cls-2" d="M51.27,14.55c-.08.7-.48,1.11-1.15,1.08-.6-.02-1.01-.43-1.01-1.06s.38-1.04.99-1.08c.7-.05,1.06.39,1.17,1.05h0Z"/>
  </g>
  <path class="cls-1" d="M47.88,46.22c-.21.25-.42.51-.77.93-.04-.75.26-.93.58-1.09.06.05.12.1.18.16h0Z"/>
</svg>