<?xml version="1.0" encoding="UTF-8"?>
<svg id="Layer_1" data-name="Layer 1" xmlns="http://www.w3.org/2000/svg" viewBox="0 0 150 150">
  <defs>
    <style>
      .cls-1 {
        fill: #727779;
      }

      .cls-1, .cls-2, .cls-3, .cls-4, .cls-5 {
        stroke-width: 0px;
      }

      .cls-2 {
        fill: #1b1b1d;
      }

      .cls-3 {
        fill: #151517;
      }

      .cls-4 {
        fill: #aeb2b2;
      }

      .cls-5 {
        fill: #a8373d;
      }
    </style>
  </defs>
  <path class="cls-1" d="M63.33,46.14c7.1.61,12.63-2.49,17.1-7.61,2.95-3.38,6.57-5.41,10.89-5.91,2.39-.28,4.56-.77,6.52-2.09,1.12-.76,1.84-.54,2.32.63,2.03,4.86,5.33,8.76,9.08,12.36.94.9,1.76,2.07,2.22,3.28,1.52,4,4.25,7.1,7.21,10.01,1.48,1.45,2.28,3.26,3.14,5.03,2.51,5.16,7.33,8.56,10.19,13.45.73,1.24,1.42,2.41,1.35,3.92-.04.81-.22,1.72-.91,1.92-2.39.7-4.25,2.96-6.78,2.82-4.58-.26-8.68,1.38-12.93,2.54-2.93.8-5.95.6-8.94.24-1.24-.15-2.14.11-3.17.91-2.95,2.28-6.6,2.6-10.14,2.87-3.29.26-6.62.12-9.93.1-1.11,0-2.06.2-3.06.77-2.47,1.42-5.24,1.92-8.03,2.39-4.73.79-9.09,2.94-13.8,3.9-2.45.5-4.87,1.11-7.36.99-2.25-.1-4.07-.96-4.16-3.65.41-.21.51-.59.64-1,1.19-3.6,2.11-7.27,4.2-10.55,2.68-4.19,5.02-8.57,5.47-13.71.11-1.21.49-2.48,1.07-3.55,3.46-6.36,5.87-13.11,7.8-20.06Z"/>
  <path class="cls-4" d="M63.33,46.14c-1.93,6.95-4.35,13.7-7.8,20.06-.58,1.07-.96,2.34-1.07,3.55-.45,5.13-2.79,9.52-5.47,13.71-2.1,3.28-3.01,6.96-4.2,10.55-.13.41-.23.79-.64,1-.7-1.29-1.59-2.51-2.06-3.88-1.52-4.43-4.6-7.54-8.2-10.27-.33-.25-.81-.55-.85-.87-.41-3.57-3.28-4.98-5.66-6.99-2.45-2.07-2.79-5.49-3.97-8.36-.26-.64.39-1.39.9-1.95,2.93-3.26,5.83-6.55,8.79-9.78,5.81-6.35,11.67-12.65,17.47-19.01,1.67-1.84,2.43-4.32,4.16-6.14.87-.92,1.59-1.54,2.28.14.15.35.54.63.86.89,2.49,2.05,2.99,3.9,1.83,6.96-1.27,3.35.62,8.75,3.64,10.42Z"/>
  <path class="cls-5" d="M63.31,32.14c0-.41-.08-.85.01-1.24.67-2.75-.11-4.72-2.43-6.55-2.53-2-2.39-3.48-.31-5.83,4.85-5.48,9.68-10.98,14.6-16.4,2.69-2.96,4.78-2.82,7.29.4,4.03,5.16,8.11,10.29,11.09,16.17.68,1.35,1.61,2.5,2.66,3.59,1.88,1.97,1.08,4.54-1.52,5.32-2.09.63-4.2.86-6.38.88-2.7.02-4.94,1.05-6.7,3.23-2.21,2.73-4.79,5.08-7.83,6.89-2.08,1.23-4.1,2.54-5.57,4.52-.54.73-1.27,1.1-2.18.85-.98-.27-1.64-.96-1.68-1.95-.13-3.32-1.41-6.51-1.04-9.87Z"/>
  <path class="cls-2" d="M58.87,103.81c3.58,0,7.17.15,10.74-.05,2.25-.13,2.16,1.07,2.12,2.59-.03,1.43.28,2.76-2.04,2.68-4.83-.17-9.66,0-14.49-.08-1.53-.03-2.25.24-2.23,2,.02,1.63.45,2.15,2.13,2.11,4.5-.12,9,.08,13.49-.09,2.09-.08,1.77,1.1,1.8,2.35.03,1.34.12,2.34-1.88,2.26-4.49-.18-9,.03-13.49-.1-1.78-.05-2,.66-2.05,2.2-.05,1.61.5,1.93,1.98,1.9,4.91-.09,9.83.08,14.74-.08,2.34-.08,2.03,1.29,2.02,2.71-.02,1.37.4,2.79-1.97,2.74-7.24-.13-14.49-.09-21.74-.02-1.62.02-2.14-.44-2.11-2.13.11-6.24.09-12.49,0-18.74-.02-1.7.39-2.37,2.22-2.3,3.58.14,7.16.04,10.74.04Z"/>
  <path class="cls-3" d="M122.59,103.81c3.66,0,7.33.11,10.99-.04,2.07-.08,2.06,1.04,2.01,2.5-.05,1.4.37,2.82-1.99,2.75-4.91-.15-9.83.02-14.74-.08-1.68-.04-2.14.53-2.13,2.14.01,1.54.52,2.01,2.04,1.98,4.58-.08,9.16.09,13.74-.08,2.17-.08,1.7,1.22,1.72,2.4.02,1.15.3,2.26-1.66,2.19-4.57-.16-9.16.02-13.74-.08-1.7-.04-2.08.58-2.11,2.17-.03,1.61.51,1.95,2,1.92,4.91-.08,9.83.09,14.74-.08,2.49-.09,2.03,1.41,2.14,2.88.13,1.69-.15,2.59-2.2,2.55-7.16-.11-14.32-.07-21.48-.02-1.52.01-2.23-.26-2.2-2.04.11-6.33.1-12.66,0-18.98-.02-1.66.49-2.17,2.12-2.12,3.58.1,7.16.03,10.74.03Z"/>
  <path class="cls-3" d="M76.87,115.3c0-3.24.02-6.49-.01-9.73-.01-1.22.36-1.81,1.72-1.79,6.24.08,12.48-.06,18.71.14,5.63.18,7.45,2.26,7.52,7.95,0,.58,0,1.16-.02,1.75-.18,5.46-1.98,7.29-7.44,7.38-3.74.06-7.49.11-11.23-.01-1.73-.06-2.38.44-2.31,2.22.05,1.17.73,3.02-.42,3.45-1.81.67-3.93.41-5.89.08-.83-.14-.62-1.06-.62-1.69-.01-3.24,0-6.49,0-9.73ZM90.02,115.51h0c1.74-.01,3.48.02,5.22-.02,2.08-.06,2.56-1.39,2.52-3.2-.04-1.77-.68-2.84-2.61-2.83-2.9.01-5.81.16-8.69-.08-2.31-.19-2.79.65-2.67,2.78.19,3.35.05,3.35,3.5,3.35.91,0,1.82,0,2.73,0Z"/>
  <path class="cls-3" d="M28.42,103.81c3.83,0,7.66.12,11.48-.05,1.78-.08,2.2.56,2.03,2.11-.07.58-.09,1.18,0,1.74.27,1.58-.38,2.02-1.91,1.92-2.07-.13-4.16.06-6.24-.06-1.6-.09-2.16.37-2.11,2.07.13,4.41-.04,8.82.08,13.23.04,1.64-.41,2.15-2.08,2.16-4.93.03-4.93.11-4.93-4.7,0-3.58-.1-7.16.04-10.73.07-1.73-.55-2.12-2.12-2.03-2.16.12-4.33-.03-6.49.05-1.38.06-2.05-.34-1.8-1.82.07-.4.06-.84,0-1.25-.29-2,.38-2.81,2.57-2.7,3.82.19,7.65.05,11.48.05Z"/>
  <path class="cls-2" d="M34.27,138.96c0,1.6-.09,3.21.03,4.81.13,1.66-.82,1.7-2.01,1.63-1.12-.06-2.42.33-2.38-1.57.06-3.24-.02-6.48.05-9.72.02-.89-.6-2.36.73-2.53,1.49-.19,3.31-.78,4.41,1.19,1.03,1.83,2.26,3.54,3.88,5.15,0-1.6.09-3.2-.02-4.79-.15-2.14,1.34-1.54,2.48-1.66,1.33-.14,1.93.22,1.88,1.72-.11,3.24.02,6.48-.07,9.72-.02.85.68,2.29-.84,2.43-1.37.13-3.01.64-4.04-1.04-1.13-1.86-2.36-3.66-3.54-5.48-.19.05-.38.1-.56.15Z"/>
  <path class="cls-3" d="M63.61,135.45c-1.24.4-1.97-.6-2.94-.95-.61-.22-1.64-.48-1.98.4-.41,1.05.72,1.16,1.32,1.4,1.07.42,2.22.64,3.33.98,1.84.58,3.05,1.71,3.01,3.76-.04,1.95-1.07,3.22-2.85,3.99-1.31.56-3.58,1.4-3.9,1.18-1.63-1.14-4.03-1.02-5.09-3.11-.68-1.33-1.03-2.18,1-2.08,1.21.06,2.47-.25,3.38,1,.49.67,1.35.55,2.09.41.5-.09,1-.36,1.06-.89.08-.59-.49-.87-.93-1.01-1.26-.41-2.58-.66-3.83-1.1-1.97-.69-3.3-1.96-3.1-4.23.19-2.23,1.62-3.43,3.7-3.73,2.38-.34,4.85-.66,6.79,1.31.62.63,1.42,1.42.96,2.36-.38.79-1.36.17-2.04.31Z"/>
  <path class="cls-2" d="M83.27,131.55c1.72-.55,2.37.49,2.84,1.88,1.08,3.2,2.2,6.38,3.28,9.58.26.76,1.32,1.89.04,2.26-1.11.32-2.63.71-3.71-.51-1.65-1.87-3.78-1.82-5.51.07-1.07,1.17-2.57.74-3.67.38-1.04-.34-.1-1.44.14-2.12,1.06-3.12,2.36-6.16,3.28-9.32.54-1.88,1.39-2.71,3.32-2.22ZM82.71,136.28c.06,1.71-1.53,2.72-.52,4.05.33.44,1.55.43,1.77-.17.49-1.29-.16-2.44-1.25-3.89Z"/>
  <path class="cls-2" d="M111.79,145.42c-1.07-.08-1.8.12-2.45-.5-2.17-2.07-3.61-2.05-5.66-.06-1.05,1.02-2.47.74-3.5.37-1.11-.4-.28-1.53,0-2.33,1.15-3.18,2.4-6.32,3.4-9.54.49-1.59,1.33-1.91,2.85-1.93,1.61-.02,2.61.27,3.15,1.96,1.06,3.29,2.29,6.52,3.48,9.77.59,1.61.47,2.63-1.28,2.26ZM107.69,139.4c-.72-.59.12-2.46-1.24-2.42-1.22.04-.7,1.76-1.13,2.68-.43.92.6.88,1.23.89.67.02,1.4.05,1.14-1.16Z"/>
  <path class="cls-3" d="M129.46,131.49c1.41,0,2.82.05,4.23-.01,1.28-.06,2.13-.04,2.11,1.75-.02,1.64-.58,2.04-2,1.81-1.65-.27-2.19.44-2.1,2.08.13,2.23-.02,4.48.05,6.72.06,1.92-1.27,1.53-2.39,1.58-1.15.05-2.18.06-2.13-1.59.07-2.24-.09-4.49.05-6.72.11-1.68-.49-2.3-2.11-2.06-1.35.2-2.06-.06-2.05-1.77,0-1.74.78-1.85,2.11-1.78,1.41.08,2.82.02,4.23.02Z"/>
  <path class="cls-3" d="M18.7,138.41c0,1.41,0,2.82,0,4.23,0,2.69-1.01,3.4-3.65,2.77-1.01-.24-.8-.9-.8-1.51-.02-3.65.08-7.3-.05-10.95-.06-1.84,1.07-1.51,2.09-1.44,1.01.07,2.5-.63,2.42,1.43-.07,1.82-.01,3.65-.01,5.47Z"/>
  <path class="cls-2" d="M16.58,130.01c-.98.06-1.78.09-1.79-1.15-.01-1.14.57-1.34,1.55-1.33.88.02,1.62-.05,1.61,1.19,0,1.1-.44,1.51-1.37,1.29Z"/>
  <path class="cls-3" d="M61.8,149.11c-.79,1.18-1.95.89-3.07.75l-.03-.78c.63-.03,1.28.01,1.67-.64.19-.27.28-.52-.15-.65-.02-.45.22-.65.66-.64.3.09.61.19.91.28l-.02-.02c.12.18.23.37.35.55.12.4.17.78-.23,1.07,0,0-.08.08-.08.08Z"/>
  <path class="cls-2" d="M58.71,149.09l.03.78c-.55.07-1.02-.12-.89-.71.12-.57.55-.32.87-.06Z"/>
  <path class="cls-3" d="M58.82,147.47c-.07-.49-.07-1,.6-.97.75.04.89.51.6,1.14-.4-.06-.8-.12-1.2-.17Z"/>
  <path class="cls-2" d="M58.82,147.47c.4.06.8.11,1.2.17-.43.13-.87.36-1.2-.17Z"/>
  <path class="cls-2" d="M61.79,147.44c-.3-.09-.61-.18-.91-.28.42-.28.71-.17.91.28Z"/>
  <path class="cls-2" d="M62.12,147.96c-.12-.18-.23-.37-.35-.55.3.07.44.24.35.55Z"/>
  <path class="cls-2" d="M60.23,147.8c.44.12.34.38.15.65-.05-.22-.1-.43-.15-.65Z"/>
  <polygon class="cls-2" points="61.8 149.11 61.89 149.03 61.92 149.15 61.8 149.11"/>
</svg>