<?xml version="1.0" encoding="utf-8"?>
<!-- Generator: Adobe Illustrator 27.9.0, SVG Export Plug-In . SVG Version: 6.00 Build 0)  -->
<svg version="1.1" id="Layer_1" xmlns="http://www.w3.org/2000/svg" xmlns:xlink="http://www.w3.org/1999/xlink" x="0px" y="0px"
	 viewBox="0 0 68.2 21.6" style="enable-background:new 0 0 68.2 21.6;" xml:space="preserve">
<style type="text/css">
	.st0{fill:#BE2539;}
	.st1{fill:#153A61;}
</style>
<g>
	<g>
		<path class="st0" d="M0.2,8.7C2.8,6.6,5,3.5,7.7,1.5c1-0.3,1.3,1.2,1.7,1.8c0.1,0.4,0.7,1.3,0.6,1.6C9.2,4.3,8.5,2.5,7.3,3.1
			C5.2,5,3.2,7,1.1,8.9C0.8,9.2,0.5,9.1,0.1,9.2L0.2,8.7L0.2,8.7z"/>
		<path class="st1" d="M38.2,15.2c-1.2-1.8-2-4-3.7-5.4c2.5-0.3,3.7-3.2,2.6-5.5c-1.7-3.1-6.2-1.4-9.1-1.8c-0.3,0-0.3,0-0.3,0.3
			v12.4c0,0.2,0,0.2,0.2,0.2h1.8c0.2,0,0.3-0.1,0.3-0.3v-4.8c0-0.2,0-0.2,0.2-0.2c3.2-0.4,3.8,3.7,5.6,5.3
			C36.3,15.4,38.7,15.7,38.2,15.2L38.2,15.2z M33.9,7.8c-1.2,0.1-2.4,0.1-3.7,0.1c-0.2,0-0.2,0-0.2-0.2c0-0.9,0-1.8,0-2.7
			c0-0.2,0-0.2,0.2-0.2c1,0,2.5,0,3.5,0C35.5,4.8,35.6,7.6,33.9,7.8L33.9,7.8z"/>
		<path class="st1" d="M20.1,10.1c0-1.7,0-3.3,0-5c0-0.4,0-0.4-0.4-0.4c-1,0-2,0-3,0c-0.2,0-0.2,0-0.2-0.2c0-0.5,0-1.1,0-1.6
			c0-0.4,0-0.4,0.4-0.4c3,0,6,0,9.1,0c0.2,0,0.2,0,0.2,0.2c0,0.6,0,1.2,0,1.8c0,0.2,0,0.2-0.2,0.2c-1,0-2.1,0-3.1,0
			c-0.3,0-0.3,0-0.3,0.3c-0.1,3.4,0.3,7.2-0.1,10.4c-0.7-0.1-1.8,0.2-2.2-0.1C20.1,13.6,20.1,11.8,20.1,10.1L20.1,10.1z"/>
		<path class="st1" d="M46.5,11.8c1.5,0,3.5,0,4.9,0c0.2,0,0.2,0,0.2-0.2c0-0.6,0-1.1-0.2-1.7c-0.2-2.3-2.6-3.9-4.8-3.2
			c-4.7,1.8-2.8,10.7,2.7,8.7c1.1-0.4,1.7-1.1,2.1-2.1c0.1-0.2,0-0.2-0.1-0.2c-0.6-0.1-1.2-0.1-1.7-0.2c-0.3,0-0.2,0-0.3,0.2
			c-0.7,1.8-3.1,0.6-3-1C46.2,11.8,46.3,11.8,46.5,11.8L46.5,11.8z M46.3,10.1c0.1-2.6,3.1-2.5,3.2,0c0,0.2,0,0.2-0.2,0.2
			c-0.5,0-0.9,0-1.4,0h-1.3C46.3,10.4,46.3,10.4,46.3,10.1L46.3,10.1z"/>
		<path class="st1" d="M56.5,15.6c-1.6,0.1-3.4-0.7-3.9-2.4c0.1-0.4,1.5-0.2,2-0.4c0.1,0,0.2,0,0.2,0.1c0.2,0.7,0.7,1,1.3,1.1
			c2.1,0.3,2.9-1.6,0.4-1.9c-6.2-0.9-4-7,1.4-5.4c1,0.3,1.6,1,1.9,1.9c0,0.1,0,0.1-0.1,0.2c-0.6,0.1-1.2,0.1-1.8,0.2
			c-0.2,0-0.2,0-0.3-0.2c-1-2.1-4.9,0.1-1.3,0.9c1.1,0.3,2.3,0.5,3.1,1.2C61.6,13.2,59,16,56.5,15.6L56.5,15.6z"/>
		<path class="st1" d="M64.5,11.1c0.1,1-0.6,3.5,1.4,2.6c0.4,0.1,0.2,1,0.3,1.3c-0.3,0.6-1.8,0.5-2.4,0.4c-2.4-0.6-1.1-4.9-1.4-6.8
			c0.1-0.4-0.5-0.2-0.8-0.3c-0.4-0.2-0.1-1.1-0.2-1.5c0-0.3,0.5-0.1,0.8-0.2c0.2,0,0.2,0,0.2-0.2c0.1-0.5-0.2-1.2,0.2-1.6
			c0.6-0.3,1.2-0.7,1.8-1c0.2-0.1,0.2-0.1,0.2,0.1c0,0.9,0,1.7,0,2.6c0.2,0.4,0.9,0.1,1.3,0.2c0.5-0.1,0.1,1,0.2,1.4
			c0,0.2,0,0.2-0.2,0.2c-0.4,0-0.8,0-1.1,0c-0.2,0-0.2,0-0.2,0.2C64.5,9.4,64.5,10.1,64.5,11.1L64.5,11.1z"/>
		<path class="st1" d="M39.7,11c0-0.9,0-1.7,0-2.5c0-0.2,0-0.2-0.2-0.2c-1.2,0.2-0.6-0.7-0.8-1.5c0.1-0.3,0.6-0.1,0.8-0.1
			c0.4-0.2,0.1-1.1,0.2-1.5c0.3-0.7,1.4-0.9,2-1.4c0.1-0.1,0.2-0.1,0.2,0.1c0,0.8,0,1.7,0,2.5c0,0.2,0,0.2,0.2,0.2
			c0.4,0,0.8,0,1.2,0c0.2,0,0.2,0,0.2,0.2c0,0.4,0,0.8,0,1.3c0,0.2,0,0.2-0.2,0.2c-0.4,0-0.8,0-1.2,0c-0.2,0-0.2,0-0.2,0.2
			c0.3,1.2-0.9,6.2,1.2,5.2c0.6-0.3,0.3,1,0.5,1.3c-0.4,0.6-1.7,0.4-2.4,0.3C39.1,15.1,39.8,12.4,39.7,11L39.7,11z"/>
		<path class="st0" d="M4.4,7.6C4,8.5,2,9.3,2.7,10.5c1.7,2.2,3.5,4.4,5.2,6.5c0.4,0.4,0.5,0.9,0.4,1.4c0,0-0.1,0-0.1-0.1
			c-2.2-2.8-5-5.3-7-8.3C0.9,8.7,3.4,8.2,4.4,7.6z"/>
		<path class="st0" d="M15.8,8.9c-0.4,1.1-2.2,1.7-3.2,2.1c0.4-0.7,1.4-1.2,1.8-2c0.3-0.9-0.7-1.6-1.2-2.3C11.8,4.9,10.4,3.2,9,1.5
			C8.6,1.1,8.6,0.7,8.7,0.2c0,0,0-0.1,0-0.1C9.1,0.4,9.4,1,9.8,1.4C11.7,3.9,14.6,6,15.8,8.9L15.8,8.9z"/>
		<path class="st0" d="M6.9,13.7c1.6,1.6,1.9,3,3.9,0.7c1.7-1.6,3.4-3.1,5.1-4.7c0.3-0.3,0.8-0.3,1.1-0.2c-2.4,2.5-4.9,5.1-7.5,7.4
			C8.1,17.9,7.3,14.6,6.9,13.7L6.9,13.7z"/>
		<path class="st1" d="M36.4,18.3c-0.2-1-1.3-0.9-2.1-0.9c-0.2,0-0.2,0-0.2,0.2c0.1,0.8-0.2,2.4,0.1,2.9
			C35.8,20.8,36.9,19.9,36.4,18.3L36.4,18.3z M35.9,19.7c-0.2,0.5-0.9,0.4-1.3,0.4c-0.1,0-0.2-0.1-0.2-0.2c0-0.6,0-1.4,0-2
			c0-0.2,0-0.2,0.2-0.2C36,17.5,36.4,18.7,35.9,19.7z"/>
		<path class="st1" d="M54.7,19.4c0.1-0.4-0.1-0.9,0.1-1.1c0.1,0,0.2,0,0.2,0.1c0,0.1,0.1,0.1,0.2,0c0.3-0.3,0.8-0.3,1,0
			c0.1,0.1,0.1,0.1,0.2,0c1.4-1,1.2,1.1,1.2,1.9c-0.6,0.7-0.3-1.1-0.3-1.4c0-0.6-0.7-0.5-0.8-0.1c-0.2,0.4,0.2,1.5-0.2,1.7
			c-0.6-0.2,0.3-1.8-0.5-2c-1.1-0.1-0.2,1.8-0.8,2C54.5,20.4,54.7,19.7,54.7,19.4L54.7,19.4z"/>
		<path class="st1" d="M40.9,19c-0.1-0.2,0.1-0.6-0.1-0.6c-0.1,0-0.2,0-0.2,0.1c0,0.1-0.1,0.1-0.1,0.1c-1.8-1.1-1.9,3,0,1.8
			c0.2,0.4-0.1,0.9-0.6,0.9c-0.2,0.1-0.5-0.1-0.7-0.1c-0.2,0.5,0.8,0.4,1.1,0.3C41.2,20.9,40.8,19.7,40.9,19L40.9,19z M40.5,19.8
			c-0.9,1.4-1.8-1.3-0.4-1.2C40.6,18.7,40.6,19.4,40.5,19.8z"/>
		<path class="st1" d="M64.1,20.4c-1.4-4.1-1.4-3.8-2.6,0.1c0.4,0.2,0.5-0.5,0.6-0.7c0.1-0.3,0.4-0.2,0.7-0.2c0.2,0,0.6-0.1,0.7,0.2
			c0.2,0.3,0.1,0.9,0.6,0.8C64.1,20.5,64.1,20.5,64.1,20.4z M63.1,19.2c-0.2,0-0.5,0-0.7,0c-0.1,0-0.2-0.1-0.1-0.2
			c0.2-0.4,0.3-0.9,0.4-1.3c0.2,0.3,0.3,0.9,0.5,1.2C63.2,19.2,63.2,19.2,63.1,19.2L63.1,19.2z"/>
		<path class="st1" d="M66.4,17.4c0.2,0,0.7,0,0.6,0.3c0,0.1-0.1,0.1-0.2,0.1c-0.5-0.3-1.2,0.2-0.8,0.7c0.4,0.3,1,0.3,1.1,0.9
			c0.2,0.5-0.2,1-0.7,1.1c-0.3,0.2,0.4,0.4,0.1,0.7c-0.1,0.2-0.7,0.3-0.6,0c0-0.1,0.2-0.1,0.2-0.1c0.2,0,0.2-0.2,0.1-0.3
			c-0.2,0-0.2-0.1-0.1-0.2c0.1-0.3-0.9-0.1-0.6-0.6c0.6,0.2,1.6,0.2,1.1-0.7c-0.2-0.2-0.5-0.3-0.7-0.4
			C65.1,18.5,65.5,17.3,66.4,17.4L66.4,17.4z"/>
		<path class="st1" d="M52,19c0-0.5,0-0.9,0-1.4c0-0.2,0-0.2-0.2-0.2c-0.3,0-0.1,0.6-0.2,0.9c0,0.1,0,0.1-0.1,0.1
			c-1-0.6-1.6,0.8-1.2,1.6c0.1,0.5,0.8,0.9,1.3,0.4c0,0,0.1,0,0.1,0c0,0.1,0.1,0.1,0.2,0.1C52.1,20.1,51.9,19.4,52,19L52,19z
			 M51.5,20c-0.9,1.1-1.6-1.4-0.5-1.4C51.7,18.5,51.7,19.6,51.5,20z"/>
		<path class="st1" d="M23.5,19.5c0.5-0.1-0.2-1.4-0.7-1.3c-1.5-0.1-1.4,2.6,0,2.3c0.3,0,1-0.5,0.7-0.7c-0.2,0-0.2,0-0.3,0.1
			c-0.6,1-1.9-0.8-0.3-0.5v0C23.1,19.5,23.3,19.5,23.5,19.5L23.5,19.5z M22.7,19.2L22.7,19.2c-0.9,0.2-0.6-0.6,0-0.7
			c0.3-0.1,0.8,0.5,0.4,0.7H22.7z"/>
		<path class="st1" d="M37.4,19.5c0.2,0,0.4,0,0.6,0l0,0c0.6,0,0.9,0.1,0.7-0.6c-0.2-0.7-1.3-0.9-1.7-0.2c-0.8,1.2,0.8,2.9,1.7,1.4
			c0.1-0.2-0.3-0.2-0.4-0.1c-0.1,0.3-0.3,0.4-0.6,0.3C37.4,20.3,36.9,19.5,37.4,19.5L37.4,19.5z M37.2,19c0.1-0.6,1.1-0.6,1.2,0
			c0.1,0.3-0.5,0.1-0.6,0.2l0,0C37.6,19.1,37.1,19.3,37.2,19L37.2,19z"/>
		<path class="st1" d="M58.4,19.5c0.2,0,0.4,0,0.6,0l0,0c0.6,0,1,0.1,0.7-0.6c-0.2-0.8-1.4-0.9-1.7-0.1C57.3,20,59,21.4,59.8,20
			c0-0.1,0-0.1,0-0.1c-0.4-0.2-0.4,0.5-0.8,0.4C58.6,20.3,58,19.6,58.4,19.5z M58.3,19c0.1-0.6,1-0.7,1.2-0.1
			c0.1,0.3-0.4,0.1-0.6,0.2l0,0C58.8,19.1,58.2,19.3,58.3,19z"/>
		<path class="st1" d="M30.7,19.5c0.4-0.1,1.2,0.2,1.4-0.1c0.1-1-1.3-1.6-1.8-0.6c-0.7,1.2,0.9,2.7,1.7,1.3c0.1-0.1,0-0.2-0.1-0.2
			c-0.3-0.1-0.3,0.5-0.7,0.4C30.8,20.4,30.3,19.5,30.7,19.5L30.7,19.5z M31.2,18.5c0.6,0,1,0.8,0,0.7l0,0h-0.4
			C30.3,19.1,30.9,18.5,31.2,18.5L31.2,18.5z"/>
		<path class="st1" d="M41.9,19.5h0.6c0.6,0,1,0.1,0.7-0.6c-0.2-0.7-1.3-0.9-1.7-0.2c-0.8,1.2,0.8,2.9,1.7,1.4c0-0.1,0-0.1,0-0.1
			c-0.4-0.2-0.4,0.5-0.8,0.4C42,20.3,41.5,19.6,41.9,19.5L41.9,19.5z M41.8,19c0.1-0.7,1.1-0.6,1.2,0c0,0.1,0,0.1-0.1,0.1h-0.9
			C41.8,19.2,41.7,19.1,41.8,19L41.8,19z"/>
		<path class="st1" d="M24.8,20.6c-0.5,0.1-1.1-0.4-0.8-0.7c0.2-0.1,0.2,0,0.3,0.1c0.2,0.5,1,0.5,1,0c-0.1-0.4-0.6-0.3-0.9-0.5
			c-0.6-0.2-0.5-1.1,0.1-1.2c0.4-0.1,0.9,0,1,0.4c0.1,0.2-0.2,0.3-0.3,0.1c-0.2-0.6-1.3-0.1-0.7,0.2c0.5,0.2,1.3,0.2,1.1,0.9
			C25.5,20.3,25.2,20.6,24.8,20.6z"/>
		<path class="st1" d="M48.1,19.4c0.1-0.4-0.2-0.9,0.1-1.1c0.1,0,0.2,0,0.2,0.1c0,0.1,0.1,0.1,0.2,0c1.4-0.9,1.3,1,1.2,1.9
			c0,0.2,0,0.2-0.2,0.2c-0.6-0.2,0.3-1.8-0.5-2c-0.9,0-0.6,1.2-0.6,1.8c0,0.2-0.1,0.2-0.3,0.2C48,20.2,48.1,19.7,48.1,19.4
			L48.1,19.4z"/>
		<path class="st1" d="M20.6,19.1c0-0.4,0-0.8,0-1.2c0-0.4-0.5-0.1-0.8-0.2c-0.8-0.6,1.6-0.3,2-0.4c0.1,0,0.2,0.1,0.2,0.2
			c0,0.4-0.5,0.1-0.8,0.2c-0.2,0-0.2,0-0.2,0.2c0,0.8,0,1.6,0,2.4c0,0.2,0,0.2-0.2,0.2c-0.2,0-0.2,0-0.2-0.2
			C20.6,19.9,20.6,19.5,20.6,19.1L20.6,19.1L20.6,19.1z"/>
		<path class="st1" d="M29.1,20.5c-0.5-0.4-0.5-1.4-0.9-2c0-0.1-0.1-0.1,0-0.2c0.6-0.1,0.5,1.3,0.9,1.6c0.3-0.3,0.3-1.6,0.8-1.6
			c0.1,0,0.1,0.1,0.1,0.1C29.6,19,29.6,20.1,29.1,20.5z"/>
		<path class="st1" d="M26.1,19.4c-0.1-0.3,0.2-0.8-0.2-0.9c-0.1,0-0.1-0.1-0.1-0.1c0-0.2,0.3-0.1,0.3-0.4c-0.1-0.2,0.3-0.8,0.3-0.5
			c0,0.2-0.1,0.7,0.2,0.6c0.2,0,0.2,0.3,0,0.3c-0.2,0-0.2,0-0.2,0.2c0.1,0.4-0.2,1.2,0.2,1.4c0.1,0,0.2,0.1,0.2,0.2
			c0,0.1-0.1,0.1-0.2,0.1C25.9,20.6,26.1,19.8,26.1,19.4L26.1,19.4L26.1,19.4z"/>
		<path class="st1" d="M43.7,19.4c0-0.3-0.2-1.5,0.3-1c0,0.1,0.1,0.1,0.1,0c0.2-0.3,0.8-0.2,0.6,0.2c0,0.1-0.1,0.1-0.2,0.1
			c-0.8-0.1-0.5,1.2-0.5,1.7c0,0.1-0.1,0.2-0.2,0.2C43.4,20.4,43.7,19.7,43.7,19.4z"/>
		<path class="st1" d="M53.3,19.4c0-0.3-0.2-1.5,0.3-1c0,0.1,0.1,0,0.2,0c0.1-0.2,0.7-0.2,0.6,0.1c-0.1,0.2-0.1,0.2-0.2,0.1
			c-0.8,0-0.4,1.2-0.5,1.7c0,0.2,0,0.2-0.2,0.2C53.1,20.5,53.4,19.7,53.3,19.4L53.3,19.4z"/>
		<path class="st1" d="M45,18.9c0.1-0.4-0.2-1.4,0.2-1.6c0.2,0,0.2,0,0.2,0.2c0,0.9,0,1.8,0,2.8c0,0.1,0,0.2-0.2,0.2
			c-0.2,0-0.2,0-0.2-0.2C45,19.9,45,19.4,45,18.9L45,18.9z"/>
		<path class="st1" d="M52.8,19.4c-0.1,0.3,0.2,1-0.2,1.1c-0.1,0-0.2,0-0.2-0.2c0-0.6,0-1.3,0-1.9c0-0.1,0-0.2,0.2-0.2
			C53.1,18.3,52.8,19.1,52.8,19.4L52.8,19.4z"/>
		<path class="st1" d="M40,18c-0.6,0.1-0.7-1-0.1-0.3c0.3,0.2,0.4-0.3,0.6-0.3C40.7,17.6,40.3,18,40,18L40,18z"/>
		<path class="st1" d="M64.5,20.3c0-0.2,0-0.2,0.2-0.2c0.2,0,0.2,0,0.2,0.2c0,0.2,0,0.2-0.2,0.2C64.5,20.5,64.5,20.5,64.5,20.3
			L64.5,20.3z"/>
		<path class="st1" d="M67.8,20.5c-0.2,0-0.2,0-0.2-0.2c0-0.2,0-0.2,0.2-0.2c0.2,0,0.2,0,0.2,0.2C68,20.5,68,20.5,67.8,20.5
			L67.8,20.5z"/>
		<path class="st1" d="M52.5,17.6c0-0.2,0-0.2,0.2-0.2c0.2-0.1,0.2,0.5,0,0.4C52.5,17.8,52.5,17.8,52.5,17.6L52.5,17.6z"/>
	</g>
	<path class="st1" d="M46.3,19.4h0.6c0.6,0,1,0.1,0.7-0.6c-0.2-0.7-1.3-0.9-1.7-0.2c-0.8,1.2,0.8,2.9,1.7,1.4c0-0.1,0-0.1,0-0.1
		c-0.4-0.2-0.4,0.5-0.8,0.4C46.4,20.3,45.9,19.5,46.3,19.4L46.3,19.4z M46.2,19c0.1-0.7,1.1-0.6,1.2,0c0,0.1,0,0.1-0.1,0.1h-0.9
		C46.2,19.1,46.1,19.1,46.2,19L46.2,19z"/>
</g>
</svg>
