<?xml version="1.0" encoding="UTF-8"?>
<svg id="Layer_1" data-name="Layer 1" xmlns="http://www.w3.org/2000/svg" viewBox="0 0 50.48 22.4">
  <defs>
    <style>
      .cls-1 {
        fill: #941d3a;
        stroke-width: 0px;
      }
    </style>
  </defs>
  <path class="cls-1" d="m49.52,10.51c-1-1.41-2.43-2.22-4.05-2.72-.08-.02-.19,0-.26.05-.9.63-1.92.99-2.98,1.25-.72.18-1.45.31-2.19.21-.29-.04-.59-.16-.85-.31-.21-.12-.18-.36-.06-.57.11-.2.27-.19.45-.12.76.26,1.53.32,2.32.2.83-.12,1.55-.48,2.25-1.04-.11-.03-.16-.04-.21-.05-1.38-.24-2.76-.29-4.16-.24-1.63.06-3.22.32-4.76.87-1.39.5-2.65,1.22-3.73,2.25-1.51,1.45-2.27,3.23-2.35,5.32-.08,2.04.75,3.64,2.35,4.84,1.07.8,2.3,1.24,3.59,1.53,2.27.51,4.56.51,6.85.15,2.17-.35,4.15-1.14,5.84-2.59,1.58-1.36,2.66-3,2.86-5.12.14-1.41-.09-2.75-.92-3.92Zm-4.6,3.01c-.17,2.38-1.33,4.17-3.43,5.25-1.58.81-3.28.85-4.93.14-1.5-.64-2.2-1.89-1.96-3.51.27-1.79,1.07-3.29,2.61-4.32,1.06-.71,2.26-.98,3.62-.98.77,0,1.6.12,2.37.51,1.2.6,1.82,1.55,1.72,2.91Z"/>
  <path class="cls-1" d="m27.41,14.83c-.83-.59-1.78-.92-2.76-1.17-1.67-.41-3.36-.77-5.03-1.18-.56-.14-1.13-.3-1.63-.57-.59-.31-.6-.95-.07-1.36.22-.17.47-.33.74-.4,1.8-.46,3.57-.4,5.3.32.42.17.79.46,1.02.85.15.26.33.28.59.24.98-.13,1.96-.24,2.94-.36.6-.07,1.2-.15,1.8-.22,0-.05.01-.08,0-.1-.02-.08-.05-.15-.08-.22-.22-.57-.57-1.05-1.01-1.47-.98-.91-2.16-1.4-3.45-1.67-1.75-.36-3.51-.41-5.29-.33-1.33.05-2.65.22-3.93.59-1.21.36-2.34.88-3.26,1.77-1.46,1.41-1.36,3.48.21,4.69.57.44,1.2.74,1.88.93,1.85.51,3.7.98,5.56,1.48.53.14,1.06.28,1.56.48.82.33.92,1.13.18,1.63-.31.21-.66.37-1.02.48-1.17.37-2.37.37-3.58.26-1.46-.14-2.64-.75-3.43-2.03-.04-.06-.18-.09-.27-.08-1.37.14-2.73.29-4.1.45-.37.04-.74.09-1.12.13.37.97,1.16,1.92,2.15,2.6,1.61,1.1,3.44,1.5,5.33,1.69,1.55.16,3.09.17,4.64.06,1.3-.1,2.59-.32,3.81-.8,1.21-.48,2.31-1.14,3.11-2.2.58-.77.82-1.63.63-2.59-.18-.85-.75-1.41-1.42-1.9Z"/>
  <path class="cls-1" d="m7.01,19.31c-.57-.02-.94-.33-.99-.75-.03-.23.03-.47.1-.7.72-2.41,1.45-4.82,2.17-7.23.05-.16.13-.18.27-.18.8,0,1.6,0,2.41,0,.25,0,.58.08.75-.04.17-.12.18-.46.26-.7,0-.03.02-.05.02-.08.2-.7.41-1.4.62-2.13h-3.39c.49-1.68.97-3.32,1.47-4.99-.07.02-.09.02-.11.03-2.05.87-4.1,1.73-6.15,2.61-.09.04-.16.15-.19.25-.19.62-.38,1.24-.56,1.87-.05.18-.13.25-.32.25-.76-.01-1.52,0-2.27,0-.18,0-.26.05-.31.23-.21.74-.43,1.47-.64,2.21-.05.16-.08.32-.14.51h2.76c-.03.12-.05.2-.08.28-.4,1.29-.82,2.58-1.2,3.88-.4,1.36-.81,2.71-1.15,4.09-.32,1.33.21,2.38,1.45,2.98.37.18.76.33,1.16.41,1.91.42,3.83.33,5.76.1.08-.01.19-.12.23-.2.09-.21.14-.43.21-.65.2-.67.41-1.34.62-2.04-.12,0-.2,0-.29,0-.82,0-1.64.04-2.45,0Z"/>
  <path class="cls-1" d="m41.81,6.5c.26.02.53.02.79-.02.9-.15,1.74-.5,2.56-.89.34-.16.68-.33,1.02-.5-.3.68-.69,1.29-1.16,1.83-1.22,1.41-2.74,2.09-4.62,1.82-.35-.05-.7-.15-1.04-.23-.15.21-.09.37.12.44.21.08.44.14.66.15,1.66.05,3.19-.4,4.61-1.23,1.21-.7,2-1.81,2.72-2.97.01-.02,0-.05,0-.09-.24.01-.48.03-.71.04.16-.21.32-.42.48-.62.27-.35.21-.59-.17-.78-.23.3-.42.6-.66.85-.6.63-1.31,1.09-2.1,1.44-.41.18-.84.29-1.28.4-.21.05-.45,0-.59-.21-.14-.21-.07-.44.06-.62.18-.24.37-.48.59-.67,1.17-.99,2.58-1.39,4.07-1.5.95-.07,1.9-.05,2.85-.05.23,0,.3-.13.34-.29,0-.04-.18-.12-.28-.18-.02-.01-.05,0-.08,0-1.52-.04-3.01.15-4.46.6-1.28.39-2.51.89-3.54,1.78-.26.22-.47.53-.62.83-.17.35.04.66.43.69Z"/>
  <path class="cls-1" d="m22.56,5.82c-.17.37,0,.61.39.65.29.02.6,0,.89-.05,1.2-.24,2.31-.74,3.38-1.31.08-.05.17-.09.26-.13-.16.26-.34.47-.5.7-.16.23-.29.47-.43.71l.06.07c.89-.09,1.76-.25,2.6-.55,0-.04,0-.07,0-.11-.38.05-.77.1-1.15.15l-.04-.09c.18-.49.61-.81.92-1.25-.34.04-.63.07-.93.1.09-.13.2-.2.29-.3.16-.17.33-.35.44-.55.14-.25,0-.6-.36-.61-.11.17-.2.35-.32.51-.91,1.17-2.13,1.87-3.53,2.29-.15.05-.31.05-.47.05-.37,0-.56-.23-.42-.57.11-.28.29-.56.51-.75.37-.31.78-.58,1.21-.79,1.8-.9,3.72-1.13,5.71-.95.31.03.39-.14.52-.4-.16-.01-.27-.03-.39-.03-1.85-.02-3.64.34-5.38.96-.98.35-1.92.79-2.7,1.5-.23.21-.41.48-.54.76Z"/>
  <path class="cls-1" d="m31.11,4.96c-.1,0-.22,0-.29.06-.35.29-.68.61-1.02.91,0,.03.02.05.03.08.14-.05.3-.07.42-.15.42-.31.84-.32,1.29-.08.13.07.27.14.4.2,1.16.59,2.36.74,3.59.25.5-.2.93-.52,1.2-.99.09-.15.09-.4.04-.57-.06-.2-.26-.3-.53-.32.14.36.17.7,0,1.02-.24.43-.63.62-1.08.72-1.1.23-1.94-.42-2.86-.82,1.07-.15,2.13-.33,3.11-.8.97-.46,1.82-1.09,2.7-1.75-.07-.02-.09-.03-.11-.03-1.6,0-3.21,0-4.81.01-.06,0-.14,0-.17.04-.33.39-.66.79-.98,1.19.02.03.04.05.06.08.13-.07.28-.11.37-.21.31-.31.67-.52,1.12-.53,1.1-.03,2.2-.05,3.3-.08.03,0,.06.02.11.04-.06.05-.1.09-.14.12-1.71,1.23-3.62,1.76-5.72,1.6Z"/>
  <path class="cls-1" d="m22.78,1.45c-.93,1.14-1.87,2.27-2.79,3.42-.24.3-.45.63-.61.98-.18.38,0,.63.41.64.82.01,1.54-.34,2.26-.7-.12-.04-.23-.05-.33-.02-.3.07-.59.19-.89.23-.31.04-.39-.1-.25-.38.09-.17.19-.34.31-.49.53-.67,1.07-1.33,1.61-1.99.62-.76,1.26-1.52,1.86-2.29.17-.21.25-.49.41-.8-.89.18-1.7.35-2.5.51,0,.03,0,.05,0,.08.08.01.16.04.24.04.18,0,.35-.04.52-.04.23,0,.28.08.16.27-.12.19-.26.38-.4.55Z"/>
  <path class="cls-1" d="m13.8,6.54c.09.01.18.02.26.02,1.5-.03,2.83-.58,4.07-1.37.12-.08.22-.2.31-.32.1-.14.11-.3-.08-.44-.58.68-1.27,1.16-2.07,1.48-.51.2-1.03.3-1.58.25-.46-.04-.65-.31-.51-.74.06-.19.15-.38.27-.54.64-.91,1.52-1.49,2.57-1.79.4-.11.83-.12,1.25-.14.1,0,.21.12.32.18-.07.11-.12.23-.21.31-.1.08-.22.15-.35.18-.45.12-.9.25-1.36.31-.37.05-.76.01-1.14.01,0,.04,0,.09-.01.13.15.04.3.11.45.11,1.14-.04,2.23-.26,3.24-.81.16-.09.31-.21.43-.34.17-.18.12-.34-.12-.41-.16-.04-.33-.06-.5-.06-1.76.06-3.37.59-4.8,1.62-.45.33-.85.71-1.08,1.24-.28.65-.07,1.02.62,1.12Z"/>
  <path class="cls-1" d="m39.45,4.1c-.42.49-.85.97-1.25,1.47-.22.27-.35.58-.36.97.79-.17,1.55-.34,2.3-.5,0-.03,0-.07,0-.1-.08,0-.17-.03-.25-.02-.13.01-.26.07-.39.07-.12,0-.23-.05-.35-.08.04-.1.06-.22.12-.3.33-.4.68-.79,1.01-1.19.36-.44.72-.89,1.06-1.35.11-.15.15-.35.25-.58-.93.19-1.77.36-2.61.54,0,.04,0,.07,0,.11.38-.04.77-.07,1.15-.11.02.03.03.07.05.1-.06.1-.11.22-.18.31-.18.23-.37.45-.56.67Z"/>
  <path class="cls-1" d="m44.41,2.55c.22.05.45.1.67.08.68-.07,1.36-.14,2.03-.28.72-.15,1.41-.38,2-.83.28-.21.52-.45.59-.81.07-.34-.07-.6-.34-.7-.23.39-.4.81-.68,1.14-.51.6-1.21.9-1.97,1.04-.84.15-1.68.16-2.51-.02-.08.22,0,.35.19.39Z"/>
</svg>