<?xml version="1.0" encoding="utf-8"?>
<!-- Generator: Adobe Illustrator 27.9.0, SVG Export Plug-In . SVG Version: 6.00 Build 0)  -->
<svg version="1.1" id="Layer_1" xmlns="http://www.w3.org/2000/svg" xmlns:xlink="http://www.w3.org/1999/xlink" x="0px" y="0px"
	 viewBox="0 0 58.5 14.4" style="enable-background:new 0 0 58.5 14.4;" xml:space="preserve">
<style type="text/css">
	.st0{fill-rule:evenodd;clip-rule:evenodd;fill:#005FAB;}
</style>
<path id="Path_246" class="st0" d="M0,14.4l14.2-0.6L0,13.2L0,14.4L0,14.4z M0,1.2l14.2-0.6L0,0V1.2z M0,2.5l14.9-0.6L0,1.3V2.5z
	 M0,3.8l15.6-0.6L0,2.6L0,3.8L0,3.8z M0,5.1l16.2-0.6L0,4L0,5.1L0,5.1z M0,6.5L17,5.9L0,5.3L0,6.5L0,6.5z M0,7.8l17.6-0.6L0,6.6
	L0,7.8L0,7.8z M0,9.1L17,8.5L0,7.9L0,9.1L0,9.1z M0,10.4l16.2-0.6L0,9.2L0,10.4L0,10.4z M0,11.7l15.6-0.6L0,10.5
	C0,10.5,0,11.7,0,11.7z M0,13.1l14.9-0.6L0,11.9L0,13.1L0,13.1z M55.3,5.5c0,0.7-0.5,1.3-1.1,1.3h-1.6V2.9h1.6
	c0.7,0,1.2,0.6,1.1,1.3L55.3,5.5L55.3,5.5z M30.7,0h5.5v0.5h-5.5V0z M24.6,10.5c0.1,0.8-0.4,1.5-1.2,1.5s-1.5-0.4-1.5-1.2
	c0-0.1,0-0.2,0-0.4V1.4h-3.1v9.3c0.1,1.7,1.3,3,2.8,3h3.6c1.4-0.1,2.5-1.4,2.6-3V1.4h-3.1v9L24.6,10.5L24.6,10.5z M32.1,4.6
	C32,3.7,32.7,3,33.5,3c0.7,0,1.3,0.6,1.4,1.4H35l2.9,0c-0.1-1.6-1.2-2.9-2.6-3h-3.7c-1.5,0-2.7,1.3-2.8,3v6.3c0.1,1.7,1.3,3,2.8,3
	h3.7c1.4-0.1,2.5-1.4,2.6-3V6.8h-4.5v1.5h1.4v2.2v0c0.1,0.8-0.4,1.5-1.2,1.6c-0.8,0.1-1.5-0.4-1.6-1.2c0-0.1,0-0.2,0-0.4v-0.2V4.7
	L32.1,4.6L32.1,4.6z M45.1,10.5c0.1,0.8-0.4,1.5-1.2,1.6s-1.5-0.4-1.6-1.2c0-0.1,0-0.2,0-0.4v-0.2l0-8.9h-3.1l0,9.3
	c0.1,1.7,1.3,3,2.8,3h3.6c1.4-0.1,2.5-1.4,2.6-3V1.4h-3.1v9V10.5L45.1,10.5z M55.4,1.4h-5.9v12.3h3.1V8.2h2h-0.1
	c0.5,0,0.8,0.4,0.8,0.9v4.5h3.1V8.5c0-0.4-0.2-0.7-0.5-0.8L57,7.4c0.9-0.7,1.5-1.7,1.5-2.9c0-1.9-1.3-3.1-2.9-3.1H55.4z"/>
</svg>
