<?xml version="1.0" encoding="UTF-8"?>
<svg id="Layer_1" data-name="Layer 1" xmlns="http://www.w3.org/2000/svg" viewBox="0 0 150 150">
  <defs>
    <style>
      .cls-1 {
        stroke: #fff100;
        stroke-miterlimit: 22.93;
        stroke-width: .13px;
      }

      .cls-1, .cls-2, .cls-3, .cls-4, .cls-5, .cls-6 {
        fill-rule: evenodd;
      }

      .cls-1, .cls-6, .cls-7 {
        fill: #fff100;
      }

      .cls-2 {
        fill: #231f20;
      }

      .cls-2, .cls-3, .cls-4, .cls-5, .cls-6, .cls-7 {
        stroke-width: 0px;
      }

      .cls-3 {
        fill: #2e3191;
      }

      .cls-4 {
        fill: #fff;
      }

      .cls-5 {
        fill: #ec1c24;
      }
    </style>
  </defs>
  <path class="cls-6" d="M75,0C116.41,0,150,33.59,150,75s-33.59,75-75,75S0,116.41,0,75,33.59,0,75,0h0Z"/>
  <path class="cls-2" d="M75,1.91h0s0,0,0,0h0c-20.18,0-38.46,8.18-51.69,21.41C10.09,36.55,1.9,54.82,1.9,75h0s0,0,0,0c0,20.18,8.18,38.45,21.41,51.68,13.23,13.23,31.5,21.41,51.69,21.41h0s0,0,0,0h0c20.18,0,38.46-8.18,51.69-21.41,13.23-13.23,21.41-31.5,21.41-51.68h0s0,0,0,0c0-20.18-8.18-38.45-21.41-51.68C113.46,10.09,95.18,1.91,75,1.91h0Z"/>
  <path class="cls-3" d="M75.19,1.91v24.11c-.06,0-.13,0-.19,0-26.98,0-48.99,22-48.99,48.99s22.01,48.99,48.99,48.99c.06,0,.13,0,.19,0l-.06,24.11h-.01s0-.03,0,0c-.04,0-.08,0-.12,0h0s0,0,0,0h0c-20.18,0-38.46-8.18-51.69-21.41C10.09,113.45,1.9,95.18,1.9,75h0s0,0,0,0c0-20.18,8.18-38.45,21.41-51.68C36.54,10.09,54.82,1.91,75,1.91h0s0,0,0,0h0c.06,0,.13,0,.19,0h0Z"/>
  <path class="cls-6" d="M82.78,13.97l-.05-.02,3.69-9.89c6.63,1.07,12.97,3.05,18.87,5.82l-2.22,10.36h0c4.61,2.37,8.87,5.31,12.69,8.71v-.02s8.6-6.04,8.6-6.04c5.04,4.79,9.39,10.31,12.88,16.38l-7.58,7.65h0c2.52,4.92,4.39,10.22,5.5,15.76v-.02s10.52-.01,10.52-.01c.68,3.96,1.04,8.03,1.04,12.17,0,3.12-.2,6.19-.59,9.2l-10.72,1.27v-.08c-1,5.68-2.78,11.06-5.21,16.06h0s7.87,7.64,7.87,7.64c-3.34,6.14-7.55,11.74-12.46,16.64l-8.97-6.04.09-.12c-3.84,3.56-8.13,6.62-12.77,9.11l.18-.06,2.5,10.7c-5.83,2.88-12.1,4.99-18.68,6.2l-4.03-10.23.06-.02c-1.55.22-3.11.39-4.69.5l-1.52,10.92-2.54.02v-22.53c26.89-.11,48.79-22.07,48.79-48.98s-21.9-48.88-48.79-48.98V3.49c.18,0,1.78.07,3.45.04.41,2.45.39,9.99.84,10.04l3.29.4h0Z"/>
  <path class="cls-1" d="M22.85,47.49l-.58.3-.63.17-.44-.06-.12-.3.1-.44.19-.47.17-.38.32-.61.5-.5.5-.36.55-.45.57-.53.58-.56.58-.57.56-.53.53-.5.47-.4.42-.28.34-.15.59-.08.59-.05.59-.02.59-.04.58-.05.58-.08.56-.15.53-.23.51-.33.62-.36.68-.23.69-.24.63-.33.64-.36.36.05v.36s-.39.56-.39.56l-.39.46-.38.51-.36.53-.36.57-.36.58-.35.58-.36.58-.36.57-.38.53-.39.5-.39.44-.41.39-.67.56-.63.52-.59.47-.55.45-.52.4-.51.39-.48.35-.47.33-.46.33-.46.3-.47.29-.49.29-.5.28-.52.29-.56.3-.58.3-.62.33-.68.34-.72.36-.78.39-.41.13-.29-.08-.15-.27v-.46s.1-.4.1-.4l.12-.35.16-.32.17-.29.22-.25.23-.22.25-.19.27-.18.29-.16.3-.15.3-.13.33-.12.33-.12.34-.12.33-.13.34-.12.33-.15.33-.15.31-.17.3-.19.84-.62.79-.7.78-.74.78-.74.79-.72.81-.65.42-.36.16-.29-.05-.22-.21-.13-.33-.06-.39.04-.4.12-.36.21-5.36,4.15h0ZM23.12,79.77l.21-.23.3-.04.28.12.12.28,1.06,7.14.04.57-.05.61-.11.65-.18.68-.23.7-.27.73-.31.75-.33.75-.35.76-.36.75-.36.75-.35.74-.33.72-.3.69-.27.67-.22.63-.16.59-.1.53-.04.5.06.42.11.65-.07.29-.29.11-.23-.08-.17-.58-.25-.74-.33-.57-.08-.63.11-.57.18-.55.24-.55.27-.53.28-.55.27-.55.23-.56.18-.57.11-.59.45-4.16-.02-.12-.11-.06h-.13s-.07.12-.07.12l-1.48,5.81-.12.32-.23.41-.28.41-.32.34-.29.16-.24-.11-.16-.47-.16-.8-.18-.74-.16-.72-.06-.74.11-.81.21-.84.24-.84.25-.84.28-.84.29-.84.32-.82.33-.81.34-.81.35-.79.36-.78,2.19-4.56h0ZM14.85,79.21l.05-.47.07-.47.1-.47.12-.46.15-.47.16-.46.18-.46.18-.46.21-.45.22-.45.22-.45.22-.44.23-.44.23-.44.23-.42.22-.41.22-.42.21-.4.19-.4.24-.35.4-.17.29-.08.28-.12.28-.12.28-.13.28-.16.25-.17.27-.17.24-.19.24-.21.23-.22.22-.23.21-.24.18-.25.17-.27.16-.28.13-.29.11-.29.1-.32.29-.84.3-.25.28.21.1.5-.02,1.38-.08,1.3-.13,1.24-.17,1.19-.22,1.13-.27,1.09-.29,1.04-.34,1.02-.36,1.01-.39.97-.41.97-.45.97-.46.97-.47.99-.48.99-.51,1.03-.51,1.05-.51,1.1-.51,1.14-.52,1.2-.3.65-.24.29h-.17s-.13-.21-.13-.21l-.08-.35-.05-.42-.05-.44-.04-.36v-.58s.13-.55.13-.55l.21-.4.23-.44.24-.45.27-.47.27-.5.29-.51.28-.53.29-.53.29-.56.28-.55.28-.56.25-.56.24-.55.22-.55.19-.53.17-.53.15-.51.1-.48.06-.47.02-.45-.06-.67-.21-.28-.32.11-.39.48-.34.64-.24.62-.17.58-.1.55-.07.52-.06.49-.07.45-.11.42-.17.38-2.19,3.84-.18.17h-.25s-.21-.12-.21-.12l-.07-.24v-4.53h.01ZM15.43,69.35l-.28.15-.3-.1-.18-.24.04-.31,1.26-2.72.33-.4.46-.28.52-.24.47-.28.34-.38.58-.96.68-.86.72-.84.7-.87.39-.67-.04-.4-.4-.05-.67.38-.44.39-.39.44-.34.47-.32.49-.29.47-.28.46-.3.41-.33.35-.35.27-.56.29-.25.04-.06-.23.12-.35.22-.58.13-.67.11-.7.12-.69.18-.61.3-.47.36-.4.3-.44.28-.47.25-.5.23-.51.24-.5.24-.51.25-.47.28-.46.33-.41.36-.38.62-.39.68-.19.7-.1.72-.12.81-.28.8-.4.79-.47.76-.52.75-.51.74-.44.59-.3.24-.07.05.25v.67s-.08.5-.08.5l-.16.57-.25.62-.34.68-.4.73-.46.75-.51.79-.56.8-.59.81-.62.82-.63.81-.64.8-.64.78-.63.74-.61.7-.58.67-.55.59-.51.55-.45.47-.39.39-3.7,3.65h0ZM59.77,136.21l-.68.11-5.01.5-.4.18-.1.44.18.4.44.1,6.23-.64.55-.08.53-.12.53-.16.52-.19.51-.22.5-.25.5-.27.47-.29.46-.31.44-.32.55-.3.59-.16.62-.06h.64l.64.02h.64s.62-.02.62-.02l.32.05.18.21-.1.28-.46.34-.59.35-.64.36-.67.35-.7.36-.73.36-.76.34-.78.34-.79.33-.8.3-.82.28-.81.25-.82.22-.82.19-.81.16-.8.1-.79.07h-.78s-.75-.02-.75-.02l-.72-.1-.7-.17-5.73-1.6-.28-.17-.08-.32.1-.3.29-.16,2.19-.67.96-.19,1.44-.22,10.69-1.79.28.05.15.24-.02.28-.23.17-3.5,1.08-1.07.3h0ZM59.21,18.43l.7-.21.25-.24-.02-.39v-.06s-.12-.24-.12-.24l-.18-.12h-.34s-.56.08-.56.08l-.85.21-8.83,2.32h-.11l-.08-.09v-.12l.07-.08,5.44-3.21.46-.24.53-.23.57-.21.59-.18.62-.16.61-.11.61-.08.57-.04h.51s8.71.69,8.71.69l.27.1.15.25v.3s-.21.21-.21.21l-6.96,4.16-.42.22-.46.18-.51.15-.55.12-.57.1-.61.06-.62.05h-.64s-.64.02-.64.02h-.67s-.65-.04-.65-.04l-.67-.04-.66-.04-.64-.05-.62-.05-.61-.05-.58-.05-.55-.04-.52-.04-.47-.02-.51-.11-.17-.25.17-.24.51-.11.78-.04.78-.11,7.7-1.94h0ZM47.22,121.9l-.25-.21-.33.07-.22.24.04.33,3.44,7.01.22.53v.27l-.27-.02-.67-.23-.58-.28-.53-.36-.48-.47-.45-.53-.41-.61-.39-.67-.35-.72-.31-.75-.3-.78-.28-.8-.27-.81-.25-.81-.23-.8-.24-.79-.23-.75-.23-.73-.23-.67-.24-.62-.24-.55-.27-.47-.18-.39.04-.22.27.1.59.45.47.39.47.39.47.39.46.39.46.38.45.39.45.39.45.4.44.39.44.4.42.41.41.42.42.42.4.44.4.45.39.46.38.47.38.5.3.44.28.47.27.5.24.5.24.51.22.52.23.51.23.51.24.5.24.48.27.46.29.42.32.4.35.38.42.51.05.36-.33.13-.76-.07-1.01-.29-.97-.39-.53-.27-.24-.3-.1-.5-.1-.72-.17-.75-.23-.75-.28-.73-.32-.67-.35-.59-2.72-4.01h0ZM9.56,69.09l.3.65.24.69.21.7.17.72.18.72.17.72.21.7.25.69.65,1.24.92,1.61.49.99.25,2.84-.05.23-.19.13h-.23s-.17-.18-.17-.18l-3.13-6.11-.36-.5-.39-.1-.28.29-.07.68.07.33.17.48.28.59.34.69.39.74.42.78.44.76.45.74.41.65.38.57.33.44.24.27.39.41.32.42.25.44.19.45.17.46.12.48.12.5.12.51.12.53v.46s-.24.23-.24.23l-.36-.22-.46-.86-.28-.63-.32-.59-.33-.56-.34-.53-.36-.5-.36-.47-.38-.45-.39-.44-.39-.41-.39-.4-.39-.39-.38-.38-.38-.39-.35-.38-.35-.38-.33-.38-.3-.39-.29-.4-.27-.41-.23-.42-.21-.45-.18-.46-.16-.46-.15-.47-.11-.48-.1-.48-.07-.48-.06-.5-.04-.5-.02-.5v-.5s0-.5,0-.5v-.51s.04-.5.04-.5l.02-.5.05-.5.04-.5.06-.48.05-.48.06-.47.39-3.13.06-.34.13-.09.24.19.4.53.59.89,1.54,2.33.38.64h0ZM26.15,94.41l.23-.75.16-.11.19.5,2.99,9.66.11,1.1v1.6s-.01,1.2-.01,1.2l-.04.52-.05.51-.06.5-.07.5-.07.48-.06.47-.07.47-.05.47-.02.49v.47s0,.49,0,.49l.05.48.08.5.12.5.17.52.17.56v.35l-.12.17h-.23l-.32-.12-.35-.22-.38-.29-.38-.33-.3-.29-.25-.27-.18-.24-.13-.22-.1-.21-.05-.18v-.18s0-.18,0-.18l.04-.17.05-.17.07-.18.07-.19.07-.19.07-.22.06-.24.05-.25.02-.29v-.32l-.5-10.29-.11-.28-.29-.1-.29.1-.11.29-.23,10.67-.12.36-.36.15-.36-.19-.27-.67-.23-.65-.32-.58-.33-.58-.25-.61-.13-.72-.02-.85v-.9l.04-.92.06-.93.1-.91.15-.89.18-.82,1.92-7.37h0ZM46.51,29.83l.27.12.13.27-.02.29-.22.21-9.47,5-.46.21-.59.18-.7.18-.79.16-.85.16-.91.15-.93.13-.93.13-.93.12-.9.11-.85.11-.79.1-.68.08-.58.1-.47-.09-.02-.4.15-.52.11-.38.21-.17.42-.07.84-.07.81-.1.79-.1.75-.12.74-.12.73-.15.7-.16.69-.16.68-.18.68-.18.67-.19.67-.21.67-.22.68-.23.68-.24.69-.24.69-.25.72-.27.74-.28.75-.28.53-.25.27-.25.05-.22-.15-.19-.27-.15-.38-.1h-.41s-.42.06-.42.06l-1.73.52-1.71.56-1.71.55-1.71.56-1.71.53-1.72.51-1.73.46-.33.05-.16-.07.05-.17.28-.35.4-.44.47-.44.51-.42.56-.41.59-.4.64-.39.65-.38.69-.35.7-.33.73-.32.74-.28.74-.25.74-.23.73-.19.73-.16.72-.12.7-.07.67-.05h.64s.62.06.62.06l5.46.7h0ZM34.36,21.38l.04-.19-.12-.15-.18-.05-.16.12-1.73,2.5-.48.58-.34.28-.25.24-.23.47-.27.96-.33,1.18-.58,1.84-.61,1.77-.42.98-.32.35-.32.21-.3.06-.23-.11-.13-.32v-.53s.17-1.07.17-1.07l.23-1.04.28-1.01.34-.98.38-.97.44-.93.48-.91.52-.88.56-.86.59-.85.63-.81.67-.8.69-.79.72-.75.73-.75.76-.73.78-.7.79-.69.8-.68.81-.67.32-.21h.18s-.01.19-.01.19l-.13.59-.24.85-.29.82-.33.8-.36.79-.4.76-.41.75-.44.74-.45.72-.46.7-.46.69-.45.68-.44.67-.42.65-.4.64-.36.63-.34.63-.29.62-.24.61-.19.61-.13.61-.21.47-.44.34-.64.44-.25.1-.05-.21.13-.36.22-.78.06-.84.19-.76,3.36-6.27h0ZM57.18,8.32l.16.15.04.21-.11.18-10.95,10.06-.84.89-.79.95-.35.36-.34.21-.28.04-.17-.15v-.34l.21-.55.19-.36.21-.39.23-.41.24-.41.27-.44.29-.45.29-.44.32-.45.32-.45.33-.45.34-.44.35-.41.35-.41.35-.39.35-.38.36-.35.36-.32.35-.29.35-.25.35-.22.55-.44.04-.41-.36-.17-.61.24-.51.33-.51.35-.5.36-.48.39-.47.4-.47.41-.45.44-.44.45-.42.47-.4.48-.38.5-.35.51-.34.52-.3.55-.28.56-.24.56-.22.58-.18.59-.16.61-.11.62-.19.53-.48.34-2.98,1.3-.44.17h-.24s-.05-.17-.05-.17l.12-.42.28-.68,2.19-5.02.19-.4.24-.42.29-.42.34-.45.36-.44.41-.46.42-.45.46-.44.49-.45.48-.42.51-.41.51-.39.52-.38.52-.35.51-.33.51-.29.48-.25.47-.22.46-.17.42-.13,7.78-1.99h.21ZM58.22,126.02l-.28-.06-.25.19-.11.29.12.25,3.06,2.75.48.56.4.59.47.63.69.67.33.3.24.33.12.3v.24l-.18.16-.35.02-.58-.13-.34-.15-.39-.24-.42-.32-.46-.38-.47-.42-.48-.46-.5-.5-.5-.51-.48-.51-.45-.51-.44-.48-.4-.46-.34-.41-.3-.36-.23-.3-.76-1.18-.64-1.22-.69-1.19-.22-.39v-.21l.22.06.55.3.67.34.73.24.74.19.74.19.72.23.68.33,2.38,1.39,2.34,1.44.44.34.53.52.62.64.67.72.69.75.65.72.61.65.52.51.4.34.24.12.3.05.1.25-.21.27h-.58s-1.16-.15-1.16-.15l-1.16-.07-.64-.11-.49-.41-.48-.58-.51-.69-.53-.73-.55-.75-.56-.74-.56-.67-.58-.57-.57-.44-2.57-1.61h0ZM19.98,36.82l-.04-.33-.28-.18-.34.02-.18.28-.91,3.08-.17.63-.12.64-.08.63-.05.63-.02.64v.63s.04.63.04.63l.05.63.06.62.06.62.07.62.06.61.07.59.05.59.05.58.02.57v.57l-.02.55-.06.55-.08.52-.21.44-.38.15-.38-.15-.21-.44-.18-.92-.18-.93-.17-.96-.16-.98-.15-.98-.11-.99-.1-1.01-.06-1.01-.02-1.01v-.99s.06-.99.06-.99l.1-.99.15-.97.19-.97.25-.93.32-.93.38-.9.45-.87.51-.84.59-.81,3.37-4.22.27-.19.34.04.27.19.07.33-.31,5.78-.11.67-.23.65-.3.63-.29.63-.24.64-.13.65-.04.48-.04.47-.04.47-.05.46-.04.46-.05.46-.05.46-.06.45-.06.45-.07.45-.08.45-.1.44-.11.45-.12.44-.15.44-.15.44-.18.44-.19.44-.22.44-.27.42-.23.11-.17-.17-.07-.4-.12-1.12-.18-1.39-.02-.99,1.29-6.77h0ZM12.8,55.8l-.18-.34-.36-.06-.34.16-.08.36.39,4.36.07.38.13.46.18.53.23.57.24.61.27.63.27.62.24.61.21.57.18.52.11.46.05.38-.04.28-1.03,2.64-.23.47-.18-.08-.25-.69-2.58-8.15-.07-.47-.05-.8-.02-1.03v-2.5s.05-1.29.05-1.29l.05-1.22.06-1.07.06-.84.07-.52,1.13-5.58.1-.17.19-.06.18.06.1.17.85,4.46.16.39.33.47.44.53.47.58.47.62.4.62.29.63.15.45.12.42.1.42.1.41.07.41.05.4.05.4.02.39v.4s.01.39.01.39v.39s-.05.39-.05.39l-.04.39-.06.4-.06.4-.07.4-.1.41-.1.41-.11.42-.12.44-.24.64-.27.21-.29-.13-.13-.33-.33-.79-.34-.76-.9-5.26h0ZM14.73,106.02l-.4-.19-.4.19-.21.41.21.4,4.93,4.92.35.32.36.27.38.24.38.19.4.17.4.15.41.12.41.11.42.11.42.1.42.1.42.11.42.12.41.13.42.16.4.19.41.22.39.25.39.29.38.34.55.57.16.23-.18.12-.33-.05-1.05-.31-1.04-.35-1.02-.36-1.01-.38-.99-.4-1.01-.42-1.01-.44-1.02-.46-1.33-1.01-1.32-1.1-.34-.35-.39-.29-.41-.12-.35-.13-4.09-6.75-.3-.79-.25-.84-.27-.74v-.32h.32s.59.34.59.34l2.46,1.62,2.49,1.61.4.28.4.3.38.33.38.34.38.35.38.36.36.38.38.36.38.36.38.35.39.33.39.33.41.29.41.25.44.23.44.19.5.18.32.4.32.81.36.8.29.62v.3s-.3.02-.3.02l-.67-.23-.74-.29-.78-.29-.78-.34-.72-.4-.62-.48-4.45-4.45h0ZM60.01,24.41l.19.05.1.18v.21s-.17.13-.17.13l-5.55,2.56-.52.19-.61.16-.68.13-.75.1-.8.06-.85.04h-.9s-.91-.02-.91-.02l-.93-.05-.95-.08-.93-.1-.92-.13-.91-.16-.87-.17-.82-.21-.78-.22-.72-.24-.64-.25-.56-.28-.47-.29-.44-.34-.17-.24.1-.22.35-.27.67-.4.69-.34.58-.12.58.09.5.19.46.24.46.29.45.32.44.3.46.3.47.24.5.19.53.12.86.11.89.11.9.11.91.07.91.04.89-.02.86-.1.44-.11.18-.16-.07-.22-.31-.35-.52-.33-.58-.12h-.62s-.62,0-.62,0l-.61-.04-1.16-.12-1.16-.07-1.16-.16-.84-.34-.74-.49-.79-.41-.32-.21-.07-.29.21-.24.57-.13.41-.07.4-.12.57-.12.56.06.7.22.72.24.73.27.74.25.75.24.75.21.75.17.75.11.74.05h7.72ZM32.05,106.45v-.44s.06-.18.06-.18l.18.08.32.35.51.65,2.85,3.75.3.4.29.4.28.42.28.44.27.44.27.45.25.45.24.47.23.46.23.47.22.48.21.47.19.48.19.5.17.48.16.48.16.5.13.69.07.76.05.79.07.78.16.7.28.61,1.5,2.27.35.57-.11.11-.62-.33-3.93-2.26-.36-.27-.15-.34.02-.59.04-.56v-.55s0-.52,0-.52l-.04-.52-.06-.51-.07-.5-.1-.51-.12-.5-.13-.5-.16-.5-.18-.51-.19-.52-2.09-5.4-.22-.25h-.33l-.27.21v.33l2.29,7.03.24.99.15,1.08.1,1.03-.04.35-.19.22-.25-.06-.51-.32-.52-.3-.31-.18-.21-.28-.16-.59-.23-1.08-.24-1.07-.24-1.07-.24-1.07-.22-1.05-.22-1.08-.17-1.08-.15-1.09-.09-1.12-.21-3.49h0ZM25.48,118.01l1.12.41,1.09.45,1.09.46,1.09.47,1.12.42.82.39.76.47.72.52.73.51.78.44.5.34.09.35-.28.24h-.65l-.4-.07-.58-.15-.7-.21-.81-.25-.86-.29-.9-.32-.89-.32-.84-.33-.76-.32-.63-.29-.48-.25-.29-.22-.52-.51-.64-.33-.3-.11-.41-.17-.45-.17-.4-.15-.32-.04-.16.1.08.29.36.53.25.28.32.28.38.29.44.29.47.29.52.28.55.29.57.29.59.27.62.28.62.25.61.25.62.23.59.22.58.21.56.18.52.16.48.15.45.11.39.1.41.07.39.04.35.02h.34s.32,0,.32,0h.3s.29-.04.29-.04l.29-.02h.27s.28-.01.28-.01h.27s.27.04.27.04l.28.06.29.08.3.12.3.16.33.21.35.24.38.32.4.36.27.32.02.24-.24.07-.63-.05-.97-.12-.98-.12-.98-.12-.98-.12-.97-.15-.98-.15-.97-.17-.97-.19-.96-.23-.93-.24-.93-.29-.91-.33-.9-.36-.86-.41-.85-.46-.82-.52-.79-.58-.76-.64-.73-.7-.69-.78-1.82-2.19-.44-.55-.33-.42-.18-.3-.07-.19.06-.11.19-.02.32.05.45.1,4.62,1.16,1.14.33h0ZM11.17,91.55l-.22-.13-.24.07-.16.19.05.25,2.01,3.73.33.46.44.41.52.39.59.36.62.33.62.33.59.32.55.3.46.32.57.59.48.76.44.81.42.74.16.39-.06.25h-.29l-.58-.29-1.26-.95-1.78-1.5-1.6-1.41-.73-.63-.51-.25-.51-.38-.51-.47-.47-.53-.45-.53-.4-.52-.35-.45-.41-.56-.39-.56-.36-.58-.34-.58-.32-.59-.29-.59-.28-.61-.25-.62-.24-.62-.23-.63-.21-.63-.19-.64-.18-.64-.17-.65-.17-.65-.16-.65-.15-.65-.13-.67-.15-.67-.13-.67-.02-.4.15-.19.23.12.36.5.29.42.35.44.4.44.44.44.46.44.48.45.5.44.5.45.49.45.46.46.42.45.39.45.35.45.78.98.96,1.19.62.9.22.56.22.35.47.33.62.51.51.62.34.48.22.5.13.51.1.52.1.52.15.51.23.51.23.5-.04.25-.27-.04-.47-.35-.72-.51-.75-.45-.67-.53-.38-.59-.34-.58-2.47-2.96h0ZM33.67,130.05l-.45-.36-.3-.27-.12-.19.05-.12.22-.08.4-.02h.59s2.66-.01,2.66-.01h.63s.67.06.67.06l.7.08.72.1.73.11.74.13.74.13.74.15.73.15.7.13.68.12.64.11.61.08.56.07.51.04h.45l.57.17.46.44.22.16.28.22.3.25.28.27.19.24.06.21-.15.16-.38.06-.68-.04-.99-.08h-1.03s-1.03-.04-1.03-.04l-1.01-.07-.98-.17-.98-.3-.92-.36-.95-.4-1.02-.39-1.18-.35h-.47s-.27.24-.27.24l.21.4.86.65,1.1.52,1.61.62,1.22.44.76.23.7.17.68.11.63.07.61.02h.57s.56-.06.56-.06l.53-.07.52-.08.52-.1.52-.1.52-.1.52-.1.55-.07.56-.06.59-.04h.61s.65.02.65.02l.69.08.73.13.36.16.11.28-.22.24-.64.12-.95.08-.95.11-.95.1-.93.11-.95.1-.92.08-.93.07-.92.06-.92.02h-.91s-.92-.06-.92-.06l-.9-.08-.91-.13-.9-.19-.9-.24-.89-.31-.89-.39-.87-.46-.87-.53-.87-.63-2.33-1.81h0Z"/>
  <path class="cls-5" d="M75,26.01c26.98,0,48.99,22,48.99,48.99s-22.01,48.99-48.99,48.99-48.99-22-48.99-48.99,22.01-48.99,48.99-48.99h0Z"/>
  <path class="cls-7" d="M38.11,75.87h-5.43v1.94h-1.11v-5.19h1.11v1.93h5.43v1.32h0ZM38.21,71.82l-6.45-1.02.21-1.3,6.45,1.02-.21,1.3h0ZM31.4,70.69l-1.17-.18.19-1.21,1.17.19-.19,1.21h0ZM37.12,64.62l.68-1.15c.65.35,1.09.79,1.33,1.31.23.52.27,1.12.11,1.81-.2.84-.64,1.47-1.35,1.88-.7.41-1.56.5-2.56.27-1.06-.24-1.82-.71-2.28-1.39-.46-.68-.59-1.47-.38-2.36.18-.78.56-1.36,1.13-1.74.34-.23.78-.35,1.32-.38v1.34c-.34,0-.63.09-.88.29-.25.19-.41.46-.49.8-.11.47-.03.89.24,1.27.27.37.78.64,1.54.82.8.19,1.41.17,1.82-.04.41-.21.67-.55.77-1.01.08-.34.04-.66-.12-.96-.16-.3-.46-.55-.9-.77h0ZM42.53,57.47l-.61,1.3-1.59-.11-1.1,2.37,1.12,1.12-.59,1.27-4.84-5.07.59-1.26,7.02.39h0ZM39.16,58.57l-2.58-.21,1.82,1.82.75-1.62h0ZM42.8,56.74l-5.35-3.75,1.59-2.27c.4-.57.74-.95,1.02-1.15.28-.19.59-.28.95-.26.36.02.69.14,1.01.36.4.28.65.63.75,1.05.1.42.01.89-.25,1.4.3-.14.59-.23.86-.26.27-.04.7-.04,1.3,0l1.5.08-.9,1.29-1.71-.03c-.61-.01-1.01,0-1.19.02-.18.03-.33.08-.45.17-.12.09-.27.25-.44.5l-.15.22,2.23,1.56-.76,1.08h0ZM40.47,53.5l.56-.8c.36-.52.57-.86.62-1.02.05-.16.04-.31-.01-.46-.06-.15-.16-.28-.33-.39-.18-.13-.36-.18-.54-.16-.18.02-.34.1-.5.26-.07.08-.26.34-.57.78l-.59.84,1.36.95h0ZM46.55,51.43l-4.7-4.54,3.36-3.48.8.77-2.45,2.53,1.04,1.01,2.28-2.36.79.76-2.28,2.36,1.28,1.23,2.53-2.62.79.76-3.45,3.57h0ZM52.03,46.12l-3.34-4.28-1.53,1.19-.68-.87,4.09-3.2.68.87-1.52,1.19,3.34,4.28-1.04.81h0ZM59.04,41.75l-4.79-5.02,1.31-.58,3.48,3.74-.5-5.07,1.28-.57.52,6.92-1.29.57h0ZM63.09,40.05l-1.8-6.28,4.65-1.33.31,1.06-3.39.97.4,1.39,3.15-.9.3,1.06-3.15.9.49,1.71,3.51-1.01.3,1.06-4.77,1.37h0ZM71.22,36.01l1.28-.13c.08.43.23.75.47.95.24.2.55.3.96.3.42,0,.74-.09.96-.27.22-.18.32-.39.32-.63,0-.16-.05-.29-.14-.39-.09-.11-.25-.2-.47-.28-.15-.05-.51-.15-1.06-.29-.71-.17-1.2-.39-1.49-.65-.4-.36-.6-.8-.6-1.31,0-.33.09-.64.28-.93.19-.29.46-.51.82-.66.36-.15.78-.23,1.29-.23.82,0,1.44.18,1.85.54.41.36.63.84.65,1.44l-1.32.06c-.06-.34-.18-.58-.36-.72-.19-.15-.46-.22-.83-.22s-.68.08-.9.24c-.14.1-.21.24-.21.4,0,.16.07.29.2.4.17.14.57.29,1.21.44.64.15,1.12.31,1.42.47.31.16.55.38.72.66.17.28.26.63.26,1.04,0,.37-.1.72-.31,1.05-.21.33-.5.57-.88.73-.38.16-.85.24-1.42.24-.83,0-1.46-.19-1.9-.57-.44-.38-.71-.94-.79-1.67h0ZM83.46,38.95l-1.42-.2-.36-1.55-2.59-.36-.74,1.39-1.39-.19,3.43-6.11,1.38.19,1.68,6.83h0ZM81.42,36.06l-.55-2.53-1.21,2.28,1.76.25h0ZM84.11,39.16l2.02-6.21,1.22.4,1.19,4.97,1.35-4.15,1.17.38-2.02,6.21-1.26-.41-1.19-4.86-1.32,4.05-1.17-.38h0ZM95.48,44.13l-1.27-.67.19-1.58-2.3-1.23-1.17,1.06-1.23-.66,5.31-4.57,1.23.65-.76,6.99h0ZM94.55,40.71l.34-2.56-1.92,1.73,1.57.84h0ZM96.77,45.16l1.69-2.17.44-4.45,1.22.95-.38,2.98,2.78-1.11,1.2.94-4.23,1.51-1.69,2.16-1.04-.81h0ZM100.07,47.95l4.45-4.78.96.9-4.45,4.78-.96-.9h0ZM104.82,42.94l.81-.87.9.84-.81.87-.9-.84h0ZM105.95,49.46c.53-.4,1.04-.66,1.52-.77.35-.08.72-.1,1.08-.05.36.05.69.15.98.32.38.22.73.54,1.05.97.58.77.8,1.56.68,2.38-.13.82-.62,1.55-1.47,2.19-.84.63-1.67.9-2.5.8-.82-.1-1.52-.53-2.09-1.3-.59-.78-.81-1.57-.69-2.38.13-.82.61-1.53,1.44-2.16h0ZM106.8,50.52c-.59.44-.93.92-1.03,1.42-.1.5.01.96.33,1.38.32.42.73.65,1.23.69.5.04,1.06-.17,1.66-.62.6-.45.94-.92,1.04-1.4.1-.48-.02-.94-.35-1.38-.33-.43-.74-.67-1.24-.71-.5-.04-1.05.16-1.65.62h0ZM113.51,54.76l1.02,2.19c.23.49.37.88.41,1.18.06.4.02.78-.13,1.15-.14.37-.38.71-.69,1.01-.32.31-.76.59-1.31.85-.49.23-.93.36-1.34.41-.5.05-.95,0-1.34-.15-.3-.11-.59-.32-.86-.62-.21-.22-.41-.56-.62-1l-1.05-2.25,5.92-2.76h0ZM113.06,56.43l-3.92,1.83.42.89c.16.33.29.57.39.7.14.17.3.29.47.37.18.08.41.09.72.05.3-.04.68-.17,1.14-.38.46-.21.79-.42,1-.61.21-.2.35-.4.41-.61.07-.21.08-.44.02-.68-.04-.19-.17-.52-.4-1.01l-.25-.54h0ZM111.65,69.22l-.35-1.39,1.3-.91-.63-2.53-1.57-.16-.34-1.36,6.95.89.34,1.35-5.7,4.12h0ZM113.57,66.24l2.13-1.46-2.57-.27.43,1.73h0ZM113.69,69.48l.24,1.27c-.42.11-.73.3-.91.55-.18.25-.25.58-.22.98.04.42.15.73.35.93.2.2.42.29.66.27.15-.01.28-.07.38-.17.1-.1.18-.26.24-.5.04-.16.1-.52.19-1.08.11-.72.29-1.23.51-1.54.32-.43.74-.67,1.26-.71.33-.03.65.04.95.2.3.16.55.42.73.75.18.34.29.76.34,1.26.07.82-.05,1.45-.38,1.89-.32.44-.78.7-1.38.78l-.17-1.31c.33-.09.56-.23.69-.42.13-.2.18-.48.15-.85-.03-.38-.14-.67-.31-.88-.11-.13-.25-.19-.42-.17-.15.01-.28.09-.38.23-.12.18-.23.59-.33,1.25-.1.65-.21,1.14-.34,1.46-.14.32-.33.58-.6.78-.27.2-.6.31-1.01.35-.37.03-.73-.04-1.07-.22-.34-.18-.61-.45-.8-.82-.19-.37-.31-.83-.36-1.4-.07-.82.06-1.47.4-1.94.34-.47.87-.79,1.59-.93h0ZM111.88,75.98h6.53v1.32h-6.53v-1.32h0ZM38.68,100.51l-.74-1.33,1.08-1.29-1.34-2.41-1.65.26-.72-1.29,7.34-.99.71,1.29-4.7,5.77h0ZM39.82,96.94l1.78-2.08-2.69.43.91,1.65h0ZM39.33,100.99l5.51-4.16,2.85,3.78-.93.7-2.01-2.67-1.3.98,1.74,2.3-.93.7-1.73-2.3-2.34,1.77-.84-1.11h0ZM45.06,107.48l1.91-2.19.71-4.68,1.23,1.07-.57,3.13,2.99-1.02,1.21,1.05-4.55,1.36-1.9,2.19-1.05-.91h0ZM50.16,107.44c.38-.59.79-1.03,1.23-1.31.32-.21.67-.36,1.05-.44.38-.08.74-.1,1.09-.03.46.08.93.27,1.4.58.85.55,1.36,1.26,1.53,2.12.17.86-.05,1.76-.67,2.71-.61.94-1.34,1.5-2.19,1.7-.85.2-1.7.02-2.55-.53-.86-.56-1.38-1.27-1.54-2.12-.17-.86.05-1.74.65-2.66h0ZM51.39,108.18c-.43.66-.6,1.25-.51,1.79.08.53.36.95.82,1.26.46.3.96.38,1.47.24.52-.14.99-.55,1.43-1.22.43-.66.61-1.25.53-1.77-.08-.52-.36-.93-.84-1.24-.48-.31-.98-.4-1.49-.26-.51.14-.98.54-1.41,1.21h0ZM54.95,114.43l2.92-6.26,1.23.57.61,5.37,1.95-4.18,1.17.55-2.92,6.26-1.27-.59-.62-5.26-1.9,4.08-1.18-.55h0ZM61.29,117.18l1.55-6.73,1.36.31-.69,2.99,3.43-2.35,1.83.42-3.14,2.04,1.72,4.72-1.76-.41-1.12-3.58-1.36.87-.47,2.03-1.36-.31h0ZM74.26,119.36l-1.51-.13-.46-1.62-2.75-.24-.7,1.51-1.47-.13,3.28-6.64,1.47.13,2.15,7.12h0ZM71.94,116.41l-.72-2.64-1.15,2.47,1.88.16h0ZM75.03,119.37l-.6-6.88,2.92-.26c.73-.06,1.27-.05,1.62.05.34.09.63.29.86.59.23.3.36.65.39,1.06.05.52-.07.96-.34,1.32-.27.36-.71.61-1.31.75.32.15.58.32.8.51.21.19.51.54.89,1.05l.96,1.27-1.66.15-1.14-1.41c-.4-.5-.68-.82-.82-.95-.14-.13-.29-.21-.44-.25-.15-.04-.39-.04-.71-.02l-.28.02.25,2.87-1.39.12h0ZM76.07,115.28l1.03-.09c.67-.06,1.08-.12,1.24-.19.16-.07.28-.18.36-.33.08-.15.11-.32.1-.53-.02-.23-.1-.41-.23-.54-.14-.13-.32-.21-.55-.23-.11,0-.45.02-1.02.07l-1.08.09.15,1.74h0ZM88.01,117.27l-1.47.37-.96-1.38-2.68.67-.17,1.66-1.44.36.94-7.35,1.43-.36,4.35,6.03h0ZM84.86,115.24l-1.54-2.26-.29,2.71,1.83-.46h0ZM88.82,117.14l-2.59-6.4,1.29-.52,1.02,2.52,2.53-1.02-1.02-2.52,1.29-.52,2.59,6.4-1.29.52-1.13-2.8-2.53,1.02,1.13,2.8-1.29.52h0ZM95.13,114.3l-3.24-6.1,1.23-.65,3.24,6.1-1.23.65h0ZM91.75,107.83l-.59-1.11,1.15-.61.59,1.11-1.15.61h0ZM96.01,111.37l1.06-.85c.32.34.64.53.96.57.33.04.67-.05,1.02-.28.38-.24.61-.51.69-.79.09-.28.06-.53-.07-.74-.09-.14-.2-.23-.35-.27-.14-.05-.34-.04-.58.02-.17.04-.53.16-1.1.35-.73.25-1.29.35-1.69.28-.56-.09-.99-.36-1.29-.82-.19-.3-.29-.63-.29-.99,0-.37.11-.72.34-1.06.23-.34.56-.65,1.01-.94.73-.47,1.38-.67,1.95-.59.57.08,1.04.38,1.41.9l-1.14.81c-.24-.27-.49-.41-.74-.43-.25-.02-.54.07-.87.28-.34.22-.56.46-.66.73-.07.17-.05.33.05.48.09.14.22.22.4.24.23.03.67-.07,1.33-.31.66-.23,1.17-.37,1.53-.4.37-.03.71.02,1.02.17.32.15.59.41.83.77.22.33.33.7.33,1.11,0,.41-.12.79-.36,1.15-.25.36-.62.7-1.12,1.03-.73.48-1.4.67-2.02.59-.61-.08-1.17-.42-1.66-1.02h0ZM107.39,105.16l-1.09,1.05-1.52-.71-1.99,1.92.68,1.52-1.06,1.03-2.86-6.84,1.06-1.02,6.79,3.05h0ZM103.65,104.98l-2.46-1.18,1.11,2.49,1.36-1.31h0ZM107.88,104.6l-5.44-4.25,1.81-2.31c.45-.58.83-.96,1.14-1.15.3-.19.64-.26,1.02-.23.37.04.72.18,1.04.43.41.32.65.7.73,1.15.08.45-.03.94-.34,1.47.33-.13.63-.21.92-.23.29-.03.74,0,1.37.06l1.58.16-1.03,1.31-1.81-.13c-.64-.05-1.06-.06-1.25-.05-.19.02-.35.07-.48.15-.13.09-.3.25-.49.51l-.17.22,2.27,1.78-.86,1.1h0ZM105.6,101.04l.63-.81c.41-.53.65-.87.71-1.04.06-.16.06-.33,0-.49-.05-.16-.16-.3-.32-.43-.18-.14-.37-.21-.56-.2-.19,0-.37.09-.54.25-.08.08-.3.34-.64.79l-.67.86,1.38,1.08h0Z"/>
  <path class="cls-4" d="M74.76,41.63c18.33,0,33.29,14.95,33.29,33.28s-14.95,33.28-33.29,33.28-33.29-14.95-33.29-33.28,14.95-33.28,33.29-33.28h0Z"/>
  <path class="cls-2" d="M57.48,95.2v.27c.26.19.05.47.15.73.04.1.29.41.37.53.28.45.49.74,1.05.73.37,0,.5-.11.76-.13.35-.03.22.39.39.5.14.09.43-.36.5-.2.06.15-.35.23-.33.5.02.22.29-.12.44.11.05.07.34.53.34.59.04.28-.32,1.04-.49,1.28-.25.34-.34.87-.72,1.05-.17.08-.68.83-.75,1.05h1.33c.57-.42.49-.55,1.26-.58,1.02-.03.63-.17,1.34-.49.57-.26.76-.18,1.33-.62.39-.3.75-.54,1.13-.83.64-.48.64-.41,1.42-.51.67-.09.74-.51,1.43-.52.6-.02,1.32-.03,1.91.07.62.1,1.23.02,1.84.12.7.11,1.16.1,1.86.08.7-.02,1.19.07,1.85.11,1.32.08,2.42.18,3.76.16.78-.01,1.05.12,1.75.21.59.08,1.24-.01,1.81.08,1.12.18,2.5.1,3.65.1h.02c0-.58-.13-.62-.68-.81-.65-.22-.45-.18-1.13-.18-.56,0-2.13-.04-2.6-.11-.78-.13-1.82-.13-2.61-.11-1.58.04-4.13.14-5.56-.17-.8-.17-2.06-.09-2.91-.08-.41,0-.87-.1-1.2-.09-.41,0-.73.12-1.22.09-.53-.03-.77-.08-1.18.3-.09.08-.31.31-.41.34-.11.04-.66.08-.67-.04v-.04s.27-.03.27-.03v-.36s-.07.01-.07.01l-.06-.53-.4-.35v-.35h.27c.26-.48.45-.52.99-.52.49,0,.88-.16,1.35-.1.31.04,1.03.09,1.25.28.44.37.57.27,1.06.47,2.26.9,3.14.54,5.39.69.74.05,1.65.08,2.35.21.43.08.84-.11,1.23-.03.46.09.9.07,1.39.17.7.14,1.51-.72,2.29-.63.72.08.62.13,1.41.08.33-.02.92.04,1.3.04v-.29s-.46,0-.46,0l-.17-.17.07.02.08-.72-.11-.04.1-.25.02.03c.43-.15.65-.42,1.09-.41.51.08-.26,1.19,1.05,1.37l-.08.17-1.14.04-.18.19v.11s.75.11.75.11v-.02s.44-.04.44-.04l.02.09.19-.14c.56.05.78.76,1.25.77.65.01.35-.02.8-.25.43-.22.43-.14.92-.14.97,0,1.67,0,2.63.12v.39c-1.71,0-3.21,0-5.15,0v.29c1.22,0,.79.01,1.79.48.29.14.47.31.7.43.36.2,0,.45.75.41.15,0,1.19-.72,1.41-.86.16-.11.6-.3.65-.49.07-.27.13-.62.39-.75v-.29l-.3-.1.02-.04h-1.25s-.15-.16-.15-.16c.05-.18.12-.64.21-.78.35-.54.31-.15.29-.92-.02-.65-.13-1.31-.66-1.77-.46-.41-.61-.98-1.09-1.36-.46-.37-1.29-.38-.9-1.3.16-.38.24-.53.27-.97.04-.66.09-.47.25-.98.15-.51-.09-1.65-.08-2.28,0-.59-.42-1.22-.86-1.57-.33-.27-.52-.05-.74-.52-.18-.38-.68-.16-.68-.12v.05s.24.04.24.04l.14.18h.03s-.46.38-.46.38l-.05-.06-.35.51.07.07c.64-.08,1.01-.3,1.57-.27v.07s-.32.12-.32.12c-.14.04-1.43.95-1.79.28l.15-.38c0-.63-.4-.9-.69-.92h-1.25s-.37.5-.37.5l.07.05h.53s.01.06.01.06l-.2.18h-.52s0-.06,0-.06l-.75-.08v-.05s.32-.12.32-.12l-.02-.04h.36s.18-.41.18-.41l-.04-.04-.98.06v.08s-.53.08-.53.08v.07s-.3,0-.3,0l.02.04-.26.15-.02-.04-.62.65-.02-.04-.26.15.02.04-.48-.02v-.09s.38-.02.38-.02l-.02-.03.29-.11.18-.21-.02-.03-.54-.02v-.09s.24-.03.24-.03l.36-.46-.1-.02-.12-.3v-.02c-.53.33-2.05,1.8-2.26,1.2-.53.09-1.34.84-1.74,1.26-.14.14-.18.01-.3.21-.06.1-.09.22-.17.33l.16.21.05.03.24-.4v.02c.41-.28.71-.47,1.19-.68.16-.07.53-.57.57-.57l.04.39c.06.02.4-.32.57-.4.12-.05.79-.23.86-.06-.01.12-.2.07-.35.18-.12.1-.11.19-.25.28-.16.11-.46.2-.69.35-.26.17-1.07.7-1.3.8-.51.21-.85.58-1.31.79-.54.25-.92.34-1.23.87-.18.3-.22.42-.37.71-.2.38-.4-.16-.52-.02-.11.13,0,.45-.3.75-.1.1-.43.46-.51.52-.36.26-.55.05-.87,0-.18-.02-.6.11-.81.14-.4.06-.52.14-.95.05-.17-.04-.26-.08-.43-.09-1.19-.07,1.22-.67,3.26-.66l.04.02.19-.41h-.06c-.86-.32-2.04-.18-2.94.16l-.02-.03-.09-.16-.36.02-.03.25-.04.04-.31-.18c.11-.26.49-.4.53-.63.03-.19-.04-.37.02-.56.05-.17.18-.23.1-.44l-.26-.1-.15-1.12h.06s.23.29.23.29l.16-.07c-.24-.99-.49-1.92-.71-2.89h.03s-.29,0-.29,0h-.03c.13.85.45,1.35.42,2.12h-.1c-.02-.67-.35-1.39-.58-2.04l-.09-.15v-.54s-.15-.11-.15-.11l.02-.28-.14-.13-.03-1.05h-.09s0-.34,0-.34l-.03-.03-.26.21h-.02s.09.42.09.42h.06s0,.28,0,.28l-.19.19h-.02s-.1-.49-.1-.49h-.06s.01-.4.01-.4l-.16-.11v-.44s0-.71,0-.71v-.43s.15-.11.15-.11v-.64s.13-.15.13-.15l-.02-.28.16-.11v-.84s.22-.04.22-.04l-.02-.02.14-.3.04.02v-.51l-.02-.03-.25.2-.08.27-.04-.02-.04.23h-.05s-.04,0-.04,0h-.04s.14-1.29.14-1.29l.06-.03.3.13v.03s.54,0,.54,0l.4-.24v-.03s.26.02.26.02h.02s.28-.47.28-.47h.03s-.02-.28-.02-.28v-.02s.49-.37.49-.37l.52-.7.03-.02c.04.57.06,1.79-.41,2.15-.2.17-.08.3-.58.54l.03.11c.65.65-.5.96-.54.88l-.2.15v.26c.2.07.65.06.63.34,0,.15-.12.22-.09.37.02.12.13.15.18.27.09.25-.23.37.15.61.34.22.26.3.34.69.19.98-.13,2.68.25,3.49.08.18.24,1.41.28,1.72.03.18.11.7.15.85.07.25.34.25.31.59-.05.56.45.67.72,1.1.25.39.26.31.63.17.28-.11.34.15.68.24v-.37l-.17-.18c-.09,0-1.11.1-.84-.34-.28-.07-.51-.22-.62-.57.01-.46.74-.37.82-.41l.02-.65-.24-.04-.06-.06.34-.45.28.02.62-.44v-.31s-.16-.11-.16-.11v-.46c.41.15.12.88.64.74.16-.04.18-.26.37-.33.21-.08.5.03.7-.02.05-.01.54-.62.69-.74.07-.05.89-.46.95-.45.14.14.02.43.37.61.13.07.78.06.89-.02.32-.23.18-.24.64-.34.29-.06.26-.25.55-.4v-.27c-.19-.03-.32.11-.51.2-.22.11-.37.06-.63.06-.18,0-.54.02-.69,0-.31-.04-.13-.25-.43-.27l-.23.15c-.29-.12-.58-.38-.89-.3-.66.14-1.22.22-1.87-.17-.31-.18-.54.02-.54-.44v.02s.84-.07.84-.07v-.13c.44.25.86.41,1.31.52l.51.11v.08s.38,0,.38,0v-.43h-.39s-.02-.02-.02-.02c.11-.38-.07-.69-.34-.79-.45.63-1.57-.27-1.97-.55-.58-.58-1.01-.06-.02.45-.16.36-2.15-.11-2.16-.59.07-.6.13-1.06.61-1.52.51-.31,1.82.72,2.01.96l.04-.03c-.46-1.17-.09-1.42-.03-2.54.03-.6.39-.74.51-1.24.11-.45.33-.85.67-1.17.69-.68.01-1.97.03-2.91,0-.46-.05-1.48.03-1.85.14-.65.4-.59.39-1.48,0-.6-.13-1.2-.13-1.73,0-.75.28-.8-.01-1.64-.23-.65.19-.71.2-1.24.01-.48-.08-1.23-.09-1.78-.01-.83.12-.74.52-1.33.2-.29.42-1,.5-1.36.11-.51.11-.99.48-1.38.16-.17.31-.29.46-.48.1-.14.23-.53.32-.6.02,0,.65.33.83.38.29.09.67.16.97.22.79.14,1.6-.03,2.33.06.68.09,1.35.5,1.92.04.46-.37,1.36.1,1.44-.94.07-.84.42-1.14-.09-1.98-.11-.18-.33-.61-.49-.72-.32-.23-1.05-.86-1.4-.85-.37,0-.37-.27-.67-.42-.66-.32-1.11-.41-1.83-.31v.29l.82.04v.08s.49.02.49.02v.09s-.26.03-.26.03h.02s-.11.31-.11.31l-.04-.02v.84s-.03-.02-.03-.02l-.15.26h.03s-.17.21-.17.21l-.18-.2h-.04s.1-.37.1-.37h.02s.09-.55.09-.55h.08s0-.48,0-.48h-.37l-.17.19h-.04s.09.41.09.41h.06s0,.28,0,.28l-.03-.02-.12.26.04.03-.31.21-.04-.03-.12-.25.09-.05v-.78h-.29v.79s-.37,0-.37,0h-.03s.09-.44.09-.44h.04s.08-.53.08-.53h.07s0-.33,0-.33l.02-.04.3.11.04.1.23-.23-.06-.05-.16-.19h-.47s-.15.19-.15.19c-.07.45-.19.63-.34,1.03-1.26-.69-3.06-.55-4.29-.55-.05-.48.22-1.12.26-1.64.07-.85.42-.58.18-1.54-.22-.87-.86-1.79-1.82-1.97-.26-.05-1.45.1-1.69.18-.62.2-.72.29-1.05.85-.5.83.18.9-.31,1.35-.1.09-.59,1.19-.59,1.31-.24,0-.76.04-.96-.04-.26-.11-.33.07-.74.04-.22-.02-.49-.17-.67-.29-.21-.14-.42-.18-.64-.32-.59-.39-1.46-.72-2.18-.7-.3,0-.19-.05-.37-.11-.1-.03-.13.1-.3.12l-1.36-.43v-.02c.03-.07.58-.21.7-.23.53-.06.27-.1.66-.24.2-.07.22,0,.4-.05.1-.03.18-.07.33-.11.48-.12.35-.3.5-.41.13-.03.57.28,1.04.28.18,0,.78-.25.96-.33.53-.24.51.2.98-.31.28-.3.49-.06.49-.8l-.19-.15v-.04c-.85.52-1.77.21-1.87-.13-.14-.46.6-1.56,1.76-1.42l-.02-.02.45-.47-.46-.44.02-.02c-.6,0-.92-.04-1.4.16l-.23.26-.07-.03.08-.4.02-.04c.25-.25.6-.38.82-.64v-.35s-.24-.13-.24-.13h-.82l-.47.85-.26-.2-.1.06.27.44c-.25.31-.72-.54-1.04-.11-.4.36-.54.64-.69.89-.15.25-.06.76-.21,1.49-.24,0-.23.11-.46.13-.21.02-.41-.04-.62-.02-.26.02-.7.13-1,.17-.75.1-1.14.36-1.76.58-1.22.44-.69.59-1.31,1.04-.41.3-1.18.64-1.03,1.26.09.39.67,1.1,1.03,1.33.49.31,1.05.51,1.57.76.21.1.5.32.72.46.28.17.52.21.81.36.22.11,1.65.4,1.92.4,0,1.1.18,1.85.67,2.83.27.55.43.66.42,1.31-.02.75.1.97.15,1.62.05.63-.02.72.29,1.32.37.7.08.6.02,1.24-.08.75.28.78.43,1.33.11.43-.27.77-.33,1.27-.1.76-.18.91.17,1.59.32.62,0,.88.02,1.52.02.5.18,1.13.23,1.67.16,1.75-.19,3.24.7,4.9.38.71.34.54.27,1.32-.04.47-.01,1.09-.01,1.58-.51,0-1.41-.05-1.87,0-.27.03-.99.54-1.13.75-.36.56-.36.91-.29,1.6.02.25.25,1.02.36,1.26.04.09.37.37.47.47.2.19.23.34.39.54.59.75.09.49.42,1.19.19.41,1.14,2.34,1.12,2.62-.42.28-1.77.17-1.91.73-.1.39.34.36-.09.59-.36.19-.49.37-.8.53-.23.12-1,1.14-1.16,1.41-.35.61-.73.88-1.28,1.3-.41.31-.92.98-1.34,1.23-.51.3-1.03.71-1.5,1.08-.72.57-1.28.16-2.1.14-.44-.01-1.7.06-1.94.43h0ZM69.22,49.9h.12s.12,0,.12,0v.12s0,.02,0,.02v.12s-.12,0-.12,0h-.12s0-.26,0-.26h0ZM66.23,50.21v.07s-.11.16-.11.16l-.13-.17-.3.3-.65-.02-.11.16v-.03s-.55.09-.55.09v.04s-.5.08-.5.08v.05s-.3.13-.3.13v.04s-.26-.02-.26-.02v.03s-.56.29-.56.29l-.06-.09.62-.52h.02s.51-.32.51-.32h.55s.12-.16.12-.16l1.69-.07h0ZM76.77,51.02l-.13-.27h-.07s.17-.25.17-.25c-.02-.15-.26-.06-.08-.18.13-.09.16.02.22.05.63.34.57.15.68.9h.07c0,.1-.03.65-.13.82l-.19.16c-.33-.29-.36-.78-.54-1.23h0ZM74.87,50.69l.33-.23.7-.1v-.06s.02.38.02.38c-.34.09-.37-.18-.39.24.33.28.55.95.52,1.35h-.09c-.05-.43-.37-.84-.59-1.27l.04-.03-.54-.28h0ZM74.87,50.69c-.21.3.53,1.57.18,1.57l-.3-.31v-.32c-.08-.15-.13.14-.13-.24v-.35c0-.16.11-.35.25-.35h0ZM70.24,53.99c-.39-.14-.48-.14-.96-.13l-1.2-.68.02.05c-.49.19-.46.01-1.02-.22l-.43-.07c-.21-.17-.43-.18-.3-.34.13-.17.16.08.5.08.4,0,1-.04,1.38,0,.49.11,1.04.4,1.47.56l.28.29-.03.02.32.41v.05h-.01ZM70.67,53.74h.11s0,.11,0,.11h.38s0,.21,0,.21v.18c-.36,0-.27-.24-.51-.27v-.23h0ZM72.39,54.68h.18s.18,0,.18,0v.12s.14,0,.14,0v.24s-.18,0-.18,0h-.02s-.18,0-.18,0v-.12s-.13-.01-.13-.01v-.23h0ZM84.75,56.33l.03.02v-.47s.27-.2.27-.2l.03-.53.4.12-.02.07h.33s.17.18.17.18l-.17.18h-.32s-.16.21-.16.21l-.02.03.16.1h-.02s-.31.38-.31.38l.05.04-.32.32-.19-.17-.05-.02.16-.24h0ZM81.72,55.93v.02s-.25,0-.25,0h-.29c-.49,0-1.05-.27-1.67-.27,0-.29-.04-.26.3-.25.18,0,.36,0,.54,0,.51,0,.8.13,1.21.3l.16.18h0ZM72.69,60.86h-.54s-.17-.2-.17-.2l-.06-.53h-.07s.01-.73.01-.73h.05c.27.16.37,1.09,1.58.8l.15-.16c.52-.07.4-.03.88-.24.24-.11.37-.39.5-.6.03-.7.56-.5.65-.76v-.51.02s-.72-.08-.72-.08v-.08s-.41.01-.41.01l-.1-.16v.03c-.81-.07-1.28-.41-2.02-.41l-.14.15-.07.03-.42-.49.07-.07h.46s-.02.04-.02.04l.29.14v-.07s.24-.16.24-.16l.02.05c.27.35,1.64.84,1.64.28l.17-.1-.03-.06c-.52,0-.75-.13-1.17-.3v.03s-.01-.37-.01-.37c.7.51.45-.4.86.03.4.41.46.31.83.58.2.14.52.62.73.68.21.06.97.34,1.1.26l.04-.5v.04s.63.65.63.65l.02-.02h.86l.23-.34.11-.3h.03s.12-.28.12-.28l-.03-.02h.48s.11.21.11.21c-.11.26-.46.92-.75.97-.43.07-.25-.11-.6.26-.07.08-.34.4-.43.38l-.06-.36-.08-.05-1.18,1.29-.07-.04-.13-.29-1.28-.18.02.05-.09.45-.02.02-.18.29c.34.35.54.38.97.6l-.06.11h-.76s-.02-.25-.02-.25h-.39s-.02.24-.02.24h-.35c-.05-.72-1.01-.23-1.44-.02l.02.04h0ZM82.53,56.52h.2s.1,0,.1,0h.2s0,.12,0,.12h.13s0,.27,0,.27h-.2s-.25,0-.25,0h-.2s0-.38,0-.38h0ZM81.2,56.98c0-.38,0-.02.13-.32.07-.17-.06-.16.27-.16.55,0,.51-.12.51.36l.05-.02.11.3.29.1v.07s.41-.09.41-.09v-.08s.35.07.35.07v.08s-.02.26-.02.26h-.26s-.25,0-.25,0c-.47,0-.15-.05-.3-.15v.03s-.54-.08-.54-.08v-.07s-.3,0-.3,0l.02-.04-.29-.12-.18-.15h0ZM71.14,59.94h.1s.2,0,.2,0v.2s0,.1,0,.1v.2s-.24,0-.24,0v-.12s-.14,0-.14,0v-.13s-.13-.01-.13-.01v-.23s.2-.01.2-.01h0ZM71.99,63.05v.05c-.58,0-.66.05-1.06-.33-.15-.14-.14,0-.13-.22.02-.22.13-.01.15,0,.32.21.7.2,1.04.5h0ZM69.82,65.2l.08-.02.21-.36c-.13-.07-.96-1.62-1.02-1.79-.02-.06-.12-.66.17-.32.18.22.24.17.34.43.21.54.68.8,1.13,1.15h.52c.82.76.23,1.31-.15,1.45-.55.2-.96-.18-1.26-.54h0ZM72.26,65.7l-.07-.54h-.04s-.17-.24-.17-.24c-.1-.4-.17-.41.19-.25.21.09.19-.07.2.23,0,.12,0,.31,0,.44l.04-.02.12.26c.71.77.34.51,1.42.3l.16-.17h-.02c.09-.36.1-.43.33-.71.22.03.33.72.33.94v.53c0,.18-.28.45-.35.45l-.02-.8h-.37l-.17.19v.71s-.19.17-.19.17l-.77-.79h.02s-.48-.01-.48-.01l-.07-.7h-.07ZM76.21,65.5c.32-.1.26.15.26-.42h.42s-.12.31-.12.31h-.02s-.15.31-.15.31l.31.35-.06.04-.4.34v.49s-.09,0-.09,0l-.02-.65c-.32-.1-.5.18-.53-.2h.02s.39-.58.39-.58h0ZM74.86,67.95v.03s.01.76.01.76c0,.21-.26.74-.59.7h-.42c-.14-.02-.11.24-.26.26-.08-.1-.01-.31-.08-.36-.21-.15-.18-.13-.43.36h-.04s-.02-.34-.02-.34l-.16-.18c-.19-.15-.37-.2-.5.02.1.31.32.46.36.58.08.22-.05.21.06.41.1.19.12.04.11.33,0,.52.02.93.23,1.36.07.14.03.69.03.9.01.38-.13.35-.24.67-.07.2-.01.66-.02.9-.02.47-.4.31-.53.39v.28s-.19.24-.19.24h-.04c-.1-1.19-.71-2.25-.67-3.53l-.25-.2-.07.03c.13,1.15.3,1.85.45,2.97h-.03s.15.12.15.12v1.9c-.47,0-.39.06-.5-.44-.07-.32.06-.58-.03-.88-.17-.53-.14-1.17-.27-1.59-.12-.42-.19-1.13-.25-1.61-.06-.51-.31-1.05-.37-1.47-.05-.32.02-1.16-.09-1.46-.09-.24-.21-.17-.34-.62-.11-.39-.37-.04-.38-.54-.01-.7-.67-.46-.37-1.43.07-.24.18-.54.39-.48.35.09.19.19.68.25l.21.16v-.02c.23-.04.19-.23.57-.13.31.08.18.33.21.48.14.1.15-.03.32.15.08.09.13.14.22.23.06.06.43.41.46.44.1.12.04.16.16.31.16.2.32.46.5.63.35.32.33-.25.66-.26.6,0,.87-.14,1.37-.33h0ZM69.66,70.08c.2.08.16.07.26.27.13.25.19.59.2.87.01.46.33,2.46.48,2.74.13.25.02.24.05.48.03.22.13.12.15.38.01.24-.05.86.02,1.04.15.38.1.55.1.97-1.18,0-1.27-5.37-1.43-6.07,0-.18-.31-.68-.11-.88.13-.14.02.09.28.2h0ZM67.38,80.51c.12-.54.2-.23.43-.46.26-.26.15-.29.59-.29h1.41s.18.17.18.17h.03s-.1.38-.1.38h-.04s-.12.26-.12.26l-.08.65-.04.03-.19.26-.06-.06-.25-.28-.04.03-.07.17h-.11s-.3-.14-.3-.14v-.03s-.28,0-.28,0l-.23-.28h-.34s-.01.34-.01.34l-.19.21-.17-.2h.03s-.15-.28-.15-.28h-.06s.17-.47.17-.47h0ZM69.26,89.91c-.47,0-.26.04-.47-.15h-.62s-.2.27-.2.27h-.33s-.06-.06-.06-.06l.77-.81-.02-.05-.15-.22v-.03c.47,0,2.74.1,2.89-.53-.04-.18-.22-.24-.23-.33-.02-.18.21-.2.27-.19.11,0,.1.2.15.32l.04-.02v.45s.41.36.41.36l-.2.17c-.82.05-1.9.41-2.53.09l-.02.04-.19.25h.03s.32.13.32.13l-.02.03c.74.04,1.19.14,1.94.15v.05c-.01.12-1.36.05-1.8.06h0ZM80.23,89.67c.2-.13.69-.79.9-.91.15-.08.42-.14.57-.33.14-.17.55-.1.8-.1l.03.03-.36.36c-.73-.02-1.51.87-1.81,1.47v-.05c-.32-.23-.56-.31-.8-.58h.07s.34-.16.34-.16h-.03s.27.26.27.26h0ZM82.82,91.94s.32.88.58-.09c.07-.24.3-.84.48-.99.69-.57,1.68-.41,2.52-.4.83,0,.51.03,1.14-.33.49-.28.58-.08,1.03.04.62.17.58-.21.97-.45.17-.1.29-.16.42-.31.22-.25.09-.27.44-.27,0,.38-.05.92-.34,1.21-.23.22-.18-.08-.39.39-.15.34.01.34.16.51.1.11.39.82.51,1.02.38.66.32.37.96.57.5.63-.12.84-.1,1.13l.21.18.29.02.3-.32h.08s.71,1.16.71,1.16l.02.79-.59.79.03.02-.16.16h-.45s-.02-.02-.02-.02l.66-.66.02.02c0-.48,0-.68,0-1.06v-.2s0-.27,0-.27l-.2-.18h-.04s-.21.36-.21.36c-.49.54-.59-.04-.95.54l.04.04h-.34s-.09.16-.09.16v-.02s-.2-.32-.2-.32l-.07.09-.32.13v-.03s-.01-.47-.01-.47l.19-.15h.3s.16-.2.16-.2l.11-.28.04.02v-.37c-.3-.01.08.12-.43.12h-.98c-.52,0-.06-.11-.53-.13-.25.02-.65.77-.68.35.09-.2.36-.47.28-.59-.2-.13-.5.16-.63.27l-.2.22-.15-.31c.26-.57.9-.9,1.62-1.17.09-.07-.09-.25-.17-.24-.89.12-1.07.22-1.6.82-.26.27-.43.04-.44-.25-.01-.21.26-.35.47-.51l.21-.42-.05-.02h-.65c0-.12.03-.12-.08-.12h-.47.03s-.11.32-.11.32l-.22.26.11.42.14.57h.05c-.33.01-.2.03-.32-.31l-.09-.4.02-.22v-.37h-.37l-.15.19-.08.38-.02.04-.24.25-.08-.06.13-.95.12-.29.03-.35-.38.16.02-.02-.14.3h-.02s-.09.4-.09.4h-.06s0,1.13,0,1.13l-.06.06c-.31-.31-.46-.64-.77-.91l-.02.09-.41.29-.04-.06v.55c.45,0,.59.26,1.03.42v-.03c.01.35.13.53-.2.53l.02-.04-.29-.14v.02c-.4-.51-1.05-.53-1.68-.47v.08s-.32,0-.32,0h-.02s-.18.41-.18.41h.05c.66.07.87.04,1.32.48l.02.03-.26.11c-.04-.08-.62-.2-.76-.27v.05s-.49.5-.49.5l.04.07c.54-.17.38-.12.65.33v.05s-.42-.07-.42-.07v-.05l-.31-.14v-.02c-.21-.02-.65-.05-.83.05-.18.1-.56.13-.74.04-.17-.09-.53-.16-.73-.04-.32.2,0,.55-.02.58v.02s-.3,0-.3,0v.07s-.81.08-.81.08v-.03s-.12.15-.12.15l-.28-.02v.03s-.24.14-.24.14v-.05s-.2-.16-.2-.16l-.04-.02.16-.23.03.02v-.38s-.02-.04-.02-.04l-.32.13.02.05c-.5.09-1.29.52-1.76.45-.35-.06-.25.46-.47.46-.12,0-.42-.44-.61-.55-.13-.07-1.48,0-1.86-.18-.37-.18-.3-.33-.8-.24-.32.05-.76.12-1.08.05-.39-.08-.33-.45-.59-.58-.26-.13-.57.21-.81-.06-.12-.14-.1-.23-.31-.32-.1-.04-.33-.05-.36-.12-.03-.08.06-.19.07-.27.01-.13-.28,0-.33.01-.53.14-.31-.4-.67-.38,0,0-.87.29-.88.3-.26.17,0,.52-.5.64-.85.19-1.15-.26-.89-.36.46-.17,1.6-.85.36-.66l-.32.08-.02-.03c.56-.65,1.45-.37,1.99-.92h.04s-.1-.26-.1-.26l-.07.03v-.27s-.37.16-.37.16v-.02s-.35.39-.35.39v.06s-.39-.17-.39-.17l-.03-.12.04-.22h.04s0-.46,0-.46h.02c.29,0,.63-.16.66-.05.14.39.3.13.68.19.18.03.3.31.53.44.17.1.46.26.62.36.17.12.32.3.53.45.24.17.41.17.67.31.49.28,1.09.38,1.64.27.44-.09.29-.19.79-.03.28.09.64.03.94.04.37,0,1.66-.05,1.91.04.64.22.86-.04,1.13-.63.26-.57.57-.71.31-1.39h.33l.18.2.05.02-.16.22c-.12.8-.34,1.24-.87,1.79l-.27.1h-.04s-.23.21-.23.21v.04s-.1.33-.1.33h.03c.61-.04.26.22.57.37.22.11.27-.22.73-.11.28.07.28.34.64,0,.25-.23.13-.3.3-.62.29-.51.71-.57,1.27-.56.27,0,.21-.06.36-.08.08-.01.15.07.3.08.1,0,.85.01.91-.02l-.04-.04.76-.75h.27s0-.25,0-.25h-.79s0-.49,0-.49c.71-.66,1.26-.96,2.1-.96-.1.2-.3.43-.26.66.06.34.35-.17.43-.22h0ZM76.48,90.73h.1s.12.12.12.12v.23s-.12.27-.12.27h-.14s-.02.13-.02.13h-.08s0-.38,0-.38h-.13s0-.24,0-.24l.26-.02.02-.11h0ZM69.12,91.04l.03.07.22.25.3.11v.02s.47.02.47.02v.09s-.52.02-.52.02l-.02.28v.02c.74-.04,1.18-.17,1.86-.16v.05c-.36.33-1.04.48-1.56.47v-.27s-.29,0-.29,0l-.07.46h-.06s0,.36,0,.36c.4,0,.89-.12,1.33-.12v.04c-.38.19-.63.21-1.08.31l.04.09.12.28h-.04s-.4-.12-.4-.12l-.02.05-1.98-1.48h-.3s-.02-.04-.02-.04l.19-.2v.03c.32-.08.39-.14.66-.27l1.16-.36h0ZM75.28,92.6s.24-.19.3-.26c.19-.22,0-.15.2-.35.29-.27.39-.59.41-.02l-.04-.02-.11.29h.02s-.52.48-.52.48l.05.05-.22.22-.04-.03-.51.42-.07-.08.54-.7h0ZM77.12,93.03c0-.11-.01-.45,0-.53.07-.22.1-.03.1-.03.02.02.15.11.16.12,0,.6-.15,1.25-.35,2l-.2.39-.13-.06.07-.57h.04c.23-.49.29-.77.29-1.32h0ZM70.28,93.25h.09s0,.11,0,.11h.14s0,.19,0,.19v.18s-.24,0-.24,0v-.12s-.14,0-.14,0v-.11s.14-.01.14-.01v-.23h0ZM78.3,93.17c0-.32-.04-.17.15-.24.22-.09-.01,0,.15-.07.22-.11-.2.03.07-.03.04,0,0-.01.05,0,.2.06,0,.03.15.24.02.03.2.17.21.18l-.04.03.18.28-.45.1v.06s-.7,0-.7,0h-.03s.12-.3.12-.3l.16-.25h0ZM66.98,94.29h.11s0,.12,0,.12h.26s.01.12.01.12h.11s0,.12,0,.12c0,.16-.7.23-.77.13v-.09s.13,0,.13,0v-.26s.13-.01.13-.01v-.12h0ZM85.17,94.52c0-.1.16-.44.18-.46.13-.17.24.07.35.18.09.09.2.2.32.31.02.02.33.3.33.3v.31l-.33.2-.02-.03c-.14-.1.13-.13-.3-.13h-.29c-.45,0-.51.1-.69.47l.04.02-.32.21-.02-.04-.16-.19v.02s.15-.3.15-.3l.62-.61.14-.25h0ZM59.99,101.78c.15-.38.43-.66.56-.97.12-.28.36-.8.51-1.04.38-.59.84-1.32,1.15-1.93.06-.13.52-.72.64-.89.15-.21.64-.75.69-.86.05-.11.72-.58.87-.66.24-.14.3-.88.69-.09h.65c-.29.34-.41.05-.59.18-.27.22.04.48.42.47.61-.02.33.06.22.31-.08.18.13.53.17.77.08.51.21,1.2.25,1.69.03.37-.75.67-1.06.91-.13.11-1.08.83-1.16.87-.21.1-.48.1-.76.25-.25.13-.37.24-.66.36-.25.11-.35.38-.56.31-.27-.08-.39-.29-.72-.11-.43.23-.67.8-1.33.42h0ZM57.89,95.2c.19,0,.49.03.6-.03.24-.12.12-.1.54-.09.18,0,.46-.04.61.02.03.01.33.28.34.32.05.5-.87.5-1.03.59l-.06.03.33.62-.04.05-.59.18-.02-.07c.03-.06.68-.3.24-.44v.03s-.5.12-.5.12l-.03-.11.46-.3-.06-.16-.74.14-.04-.08.8-.46-.04-.11-.69.13-.03.02-.03-.38h0ZM88.75,95.69c-.09-.21.06-.01-.1-.25-.07-.1-.1-.01.05-.17.18-.19.17-.19.51-.2l.16.17-.05.06.25.21.03-.04.19.26h.33s-.02-.04-.02-.04l.29-.12v.03s.01.37.01.37l-.36-.16-.03.04v.24s-.02-.02-.02-.02l-.32.13h.03s-.29-.13-.29-.13v-.02s-.24-.12-.24-.12l-.43-.24h0Z"/>
</svg>