<?xml version="1.0" encoding="utf-8"?>
<!-- Generator: Adobe Illustrator 27.9.0, SVG Export Plug-In . SVG Version: 6.00 Build 0)  -->
<svg version="1.1" id="Layer_1" xmlns="http://www.w3.org/2000/svg" xmlns:xlink="http://www.w3.org/1999/xlink" x="0px" y="0px"
	 viewBox="0 0 63.4 63.4" style="enable-background:new 0 0 63.4 63.4;" xml:space="preserve">
<style type="text/css">
	.st0{fill:#CFD1D1;}
	.st1{fill:#F9F9F9;}
	.st2{fill:#2F3234;}
	.st3{fill:#959798;}
	.st4{fill:#147EBD;}
</style>
<path class="st0" d="M31.7,0C14.2,0,0,14.2,0,31.7s14.2,31.7,31.7,31.7s31.7-14.2,31.7-31.7S49.2,0,31.7,0z M31.7,56.6
	C18,56.6,6.8,45.4,6.8,31.7S18,6.8,31.7,6.8S56.6,18,56.6,31.7S45.4,56.6,31.7,56.6z"/>
<g>
	<path class="st1" d="M25.4,39c2.7,3.7,9.8,3.8,12.2-0.3c4.7-6.2-5.9-12.3-11-7.8C23.8,33,23.3,36.5,25.4,39z M29,51
		c-1.7,1.3,1.9,2,2.2,0.3c1.6-3.9-5-3.1-2.2-0.5C29,50.9,29,51,29,51z M48.3,21.4c-0.9-0.6-2-0.8-3.1-0.9c-2.3,0.2,3.6,4.1,3.3,1.5
		c1.9,1.4,2.9-2.5,1.8-3.7C49.1,16.9,48.7,20.6,48.3,21.4L48.3,21.4z M42.6,36.4c-1.2-0.2-1.8,1.3-0.5,1.7c0.2,0.1,0.2,0.3,0.3,0.5
		c0.8,2.2-3.9,0.3-2.2,2.6c1.1,2.6-2.8,0-3.2,1.3c-0.1,0.4,0.1,0.4,0.4,0.5c3.7,0.3,7.3,1.6,10.1,4.1c0.5,0.4,1.2,0.9,1.8,0.2
		c2.7-3.4,4.2-3.1,0-6.1c2.7-0.9-1.5-6.9-1.3-1.3c-1.8-0.2-6.1-9.5-6.7-6c0,0.6,0.6,0.4,1,0.7C42.5,35.1,42.9,35.7,42.6,36.4
		L42.6,36.4z M15,39.7c-0.3-0.6,0.2-3.2-1.2-2c-0.8,1.2-2.4,2.3-0.9,3.7c-0.3,1.2-2.7,1.4-1.9,2.8c0.9,1.1,2.4,4.4,4,3.1
		c1.8-1.6,3.8-3.1,6.2-3.7c1.4-0.3,2.8-0.4,4.1-0.6c0.3,0,0.6,0,0.5-0.5c-0.2-1.4-4.7,1.2-3-1.4c0.5-0.6,0.3-1.2-0.5-1.3
		c-0.8-0.2-2.2,0.4-2-1c-0.1-1,1.4-0.7,1.1-1.6c-0.1-0.4-0.2-0.7-0.7-0.8c-1.7,0.3-0.7-2,0.4-2.3c0.3-0.2,0.5-0.5,0.2-0.8
		c-0.3-0.3-0.7-0.4-1-0.1C18.5,35.3,17.3,38,15,39.7L15,39.7z M14.8,16.5c-0.2,2.8,3.2,4.3,5,2.3c2.2-2.2,5-3.2,7.9-3.9
		c2.1-0.3,3.7-1.6,0.3-1.1c-2.9,0.5-5.6,1.7-8.1,3.3C19,18,18.4,17,19.5,16.5c3.4-2.9,8-2.7,10.7-4.1c-4-1-8.5,1.8-11.8,4
		c-0.7,0.8-1.3-0.2-0.5-0.7c3.3-3.2,8.3-3.8,12.1-5.2c-3.7-0.7-8.2,1.6-11.5,3.7c-0.4,0.4-1.5,0.9-1-0.1c3.8-3.9,8.4-4.1,12.6-5.5
		C27.1,7.2,14.7,12.7,14.8,16.5L14.8,16.5z M45.6,14.7c-3.7-2.1-8.3-5-12.6-4.2c-0.1,0.5,0.5,0.4,0.8,0.4c3.7,0.8,10.1,2.1,11.7,5.6
		c-0.8,0.4-2.1-1.2-2.9-1.6c-2.6-1.5-6.9-3.7-9.7-2.5c0.9,0.8,2.9,0.5,4.2,1.1c2.4,0.8,5.9,1.6,7.1,3.8c-0.2,0.4-0.5,0.2-0.8,0
		c-2.8-1.8-5.8-3.2-9.1-3.5c-1.4-0.5-1.8,0.8-0.1,0.8c3.4,0.9,6.8,1.7,9.3,4.4c1.3,1.3,4,0.7,4.6-1.2c2.3-4.7-11.8-10.5-15-9.2
		c-0.1,0.6,0.6,0.4,1,0.5c4,0.5,7.7,2,10.9,4.4C45.4,13.8,45.8,14.1,45.6,14.7L45.6,14.7z M30.4,24.3c-1.1,0.1-2.4-0.3-3.3,0.2
		c-0.8,0.9-1.8,1.8-2.4,2.9c-0.8,1.8,2.2,1.4,1.9-0.3c-0.3-1.4,1.6-1.7,2-0.5c0.2,0.4,0.4,0.7,0.9,0.6c1.3-0.2,0.3-2.2,1.9-2
		c0.7,0,1.1,0.2,1.3,0.9c0.7,2.6,2.8-1.9,3.6,1.2c-0.1,1.3,2.9,1.5,1.8,0.1c-0.4-0.6-0.9-1.1-1.3-1.7C35.5,23.6,32.6,24.6,30.4,24.3
		L30.4,24.3z M34,22.4c-0.8-0.8-2.1-4.7-2.9-3.8C27,23.8,28.9,22.1,34,22.4z M55.2,30.5c0.1-1.2-0.6-1.4-1.2-0.4
		c-0.7,0.9-2,1.7-1.9,3c0,0.5,0.2,0.6,0.6,0.5C54.1,33.3,55.2,32.1,55.2,30.5z M55.1,34.3c0-2.1-2.4,1.2-3.2,1.5
		c-0.4,0.3-0.3,0.9-0.3,1.3C52.9,38.2,55.2,35.9,55.1,34.3L55.1,34.3z M32.5,51.3c5.4-1,0.3-4.8-0.4-1.5c0,0.9,1.6,0.4,0.9-0.2
		c-0.6-0.4,0-0.5,0.2-0.5c0.7-0.2,1.2,0.9,0.6,1.2c-0.8,0.6-2,0.8-1.7,2.1c0.5-0.7,1-0.3,1.6-0.1c1,0.3,1.5-0.2,1.3-1.2
		C34.5,51.5,33.7,51.6,32.5,51.3L32.5,51.3z M52.8,23.5c0.1-0.8-0.8-2.8-1.4-1.3c-0.4,1.2-2,2.8-0.7,3.7
		C51.9,26.4,52.8,24.4,52.8,23.5z M51.2,41.3c1.6,0,3.6-1.5,3.2-3.1c-0.2-0.2-0.5-0.1-0.7,0c-1.1,0.8-3.5,1-3.2,2.8
		C50.7,41.5,51,41.3,51.2,41.3z M54.3,27c0-0.5-0.3-2.1-0.9-1.3c-0.7,1.2-2.6,2.6-1.4,4C53.1,30,54.4,28.2,54.3,27z M10.5,32.6
		c0.2-1.4-0.9-1.9-1.6-2.8c-0.4-0.7-1-0.3-1,0.4C7.2,31.6,10.7,35.2,10.5,32.6z M10.9,36.7c0-1-1.6-3-2.6-3.2
		c-1.6,0.5,0.7,3.7,2,3.7C10.7,37.3,11,37.2,10.9,36.7L10.9,36.7z M12,30c1.4,0.1,3-1.3,2.8-2.8c-0.2-0.2-0.5-0.1-0.7,0
		C13,27.8,11,28,11.3,29.7C11.3,30.1,11.8,30,12,30L12,30z M10.2,23.5c-0.1,0.8,1,3.3,1.9,2C13.3,23.7,10.4,19.3,10.2,23.5z
		 M13.3,26.3c1.3,0.6,4.3-2.6,2.4-2.5c-1.2,0.4-3.5,0.5-3.3,2.2C12.5,26.5,13.1,26.3,13.3,26.3z M15.4,22.8c1,0.4,4.3-2.4,2.2-2.3
		c-1.3,0.3-3.5,0-3.5,1.8C14.1,22.8,15,22.8,15.4,22.8L15.4,22.8z M9.2,25.5c-1.3,0.8,0,4.7,1.5,3.8C11.2,28.3,10.5,25.8,9.2,25.5z
		 M12.3,19.9c0.3,3.8,2.9,1.9,1.8-0.8C13.6,16.8,12.2,18.4,12.3,19.9z M11.9,40.8c0-1.1-2.2-2.6-3.2-2.6c-0.4,0.1-0.3,0.3-0.3,0.6
		C8.5,39.9,11.5,42.5,11.9,40.8L11.9,40.8z M14.2,34.7c0-1.9-1.9,0.3-2.6,0.8c-0.6,0.5-0.2,1.1,0,1.6c0.2,0.5,0.6,0.1,0.9,0
		C13.7,36.8,14.1,35.8,14.2,34.7L14.2,34.7z M11.1,32.7c-0.1,2.3,3.4-0.4,3.1-1.8c0-0.5-0.3-0.6-0.7-0.4
		C12.7,31.3,10.9,31.5,11.1,32.7z M51.3,29.6c0.2-1-2.9-3.6-3.1-1.9c0.2,1.2,1.5,2.3,2.7,2.3C51.1,30,51.4,30,51.3,29.6z M49.4,26.3
		c0.8,0,0.8,0,0.6-0.8c-0.1-0.8-3.2-2.7-3.3-1.2C47,25.4,48.3,26.4,49.4,26.3z M38.9,52.2c-1-0.4-0.7-0.5-0.6-1
		c-0.8-0.5-0.3-1.3-0.5-1.9c0-1.6-1.6,0.9-2.1,1.3c0.8,0.3,0.9-0.7,1.4-0.8c0.4,1.2-0.6,1-1.4,1c-0.4,0-0.4,0.6,0,0.5
		c0.5,0.1,1.1-0.3,1.4,0.2c0.2,0.5-0.6,0.2-0.6,0.7C37.3,52.3,38,52.3,38.9,52.2L38.9,52.2z M51.2,36c0.1-0.7-2-3-2.3-1.7
		C48.4,35.8,51.2,38.8,51.2,36z M51.5,32.6c0.2-0.8-2.4-3.2-2.5-1.6C48.8,32.2,51.4,35,51.5,32.6z M27.5,52
		c-1.2-0.2-0.7-1.1-0.7-1.7c0-1.7,0-1.7-1.5-1.1c0,0,0,0.1-0.1,0.2c1,0.4,1,1.8-0.1,2.8C26,52.1,26.8,52.6,27.5,52z"/>
	<path class="st2" d="M14.4,12.5c-0.7,1.2-2.3-0.6-2.9,0.8c-0.4,0.6,1.2,0.9,0.9,1.5c-0.8,0.1-2.1-1.8-2.8-2.4
		c-0.1-0.3,1.6-1.8,2-1.8c0.8,0.1,1.2,0.5,1,1.3C12.4,12.5,13.9,12.2,14.4,12.5z M12.1,11.8c-0.1-1.4-1.7-0.3-1.8,0.4
		C10.5,13.6,11.9,12.6,12.1,11.8z"/>
	<path class="st2" d="M53.6,17.3c-0.7,0-2.9-1.6-1.7-2.2c0.9-0.5,1.7-1.7,2.8-1.7C56.4,14.6,55.7,17.2,53.6,17.3L53.6,17.3z
		 M55.2,15.3c-0.2-2.1-1.6-1-2.5-0.2c-0.2,0.1-0.7,0.2-0.4,0.7C53,17.5,54.6,16.6,55.2,15.3z"/>
	<path class="st2" d="M39.6,5.8c0.3-0.7,0.2-2.3,1-2.4c0.2,0.1,0.1,0.3,0.1,0.5c-1.1,4.4-1.2,3.7-2.5-0.3C38,4.2,37.2,7.5,37,5.9
		c1-4.1,1.3-4.1,2.4-0.1C39.5,5.8,39.6,5.8,39.6,5.8L39.6,5.8z"/>
	<path class="st2" d="M37,59.3c0.5,0.4,1,0.8,1.3,1.4c-1.1,0.5-1.4-1.8-2.7-1.1c-0.7,0.3,0.4,1.4-0.2,1.7c-0.7-0.4-0.7-2.7-0.8-3.6
		C35.8,56.8,39.1,57.4,37,59.3L37,59.3z M36.2,57.7c-0.2,0.4-1.1-0.4-1,0.7c0,0.3-0.1,0.8,0.5,0.6C37,59.2,37.9,57.7,36.2,57.7
		L36.2,57.7z"/>
	<path class="st2" d="M55.4,23.4c-0.2-0.7-0.4-2.2,0.7-2.2c0.2,0.2,0.1,0.4-0.1,0.5c-0.6,0.4-0.3,1.8,0.5,1.8c0.5,0,0.6-0.6,0.6-1.1
		c-0.5-1.2,1-2.5,1.8-1.2c0.5,0.5,0.5,2.1-0.4,2c-0.2-0.1-0.1-0.3,0.1-0.4c0.5-0.4,0.2-1.6-0.5-1.6c-0.6,0.1-0.3,0.8-0.4,1.2
		C57.9,24.1,56.3,24.7,55.4,23.4L55.4,23.4L55.4,23.4z"/>
	<path class="st2" d="M27.9,5.7c-1,0.5-1.9,0.5-2.7,0.8c-0.3,0.1-0.4-0.1-0.4-0.3c0-1-1.1-2.7-0.4-3.4c0.7,0,1.7-0.7,2.3-0.3
		c-0.1,0.9-2.3,0-2,1.3c0.3,1.1,1.5-0.3,2.3,0.3c-0.7,0.7-2.4,0.1-2,1.4C25.6,6.6,26.8,5.2,27.9,5.7z"/>
	<path class="st2" d="M51,14.2c-2.5-0.1-2-3.8,0.3-3.8C53.8,10.4,53.4,14.2,51,14.2z M52.6,12c-0.1-1.8-2.9-1.2-2.9,0.4
		C49.8,14.5,52.6,13.8,52.6,12z"/>
	<path class="st2" d="M28.3,61.3c-0.7,0.1-2.2-0.7-1.5-1.5c0.3-0.1,0.3,0.2,0.4,0.4c0.2,0.7,1.5,1,1.8,0.3c0.2-0.6-0.2-0.7-0.6-0.9
		c-1.5-0.3-1.9-2.3-0.1-2.2c0.6,0,1.8,0.6,1.3,1.4c-0.2,0.1-0.3,0-0.4-0.2c-0.1-0.6-1.3-1-1.6-0.4c-0.3,0.8,0.8,0.8,1.3,1.1
		C30.1,59.8,29.6,61.5,28.3,61.3L28.3,61.3z"/>
	<path class="st2" d="M17,10.4c-1.5,1.7-2,2.2-3.4,0.2c-1.1-1.4-1.1-1.4,0.3-2.4c0.8-1,1.4-0.3,0.3,0.3c-0.2,0.2-0.6,0.4-0.8,0.7
		c-0.2,0.3,0.2,0.5,0.3,0.8c0.2,0.3,0.4,0,0.6-0.1c0.5-0.2,0.8-1.1,1.3-0.7c0.2,0.2-0.6,0.7-1,1c-0.8,0.4,0.3,1.7,0.8,1
		C15.9,10.9,16.6,9.8,17,10.4L17,10.4z"/>
	<path class="st2" d="M31,5.8c-0.4,0.1-1.6-0.6-1.2-1.2c0.4-0.4,0.4,0.3,0.6,0.4c0.7,0.8,2.6-0.1,1.4-0.9c-2-0.1-3.1-2-0.6-2.3
		c0.6-0.1,1.5,0.4,1.3,1.1c-0.4,0.3-0.5-0.5-0.8-0.5c-0.5-0.1-1-0.2-1.2,0.4c-0.2,0.7,0.7,0.7,1.2,0.8C33.3,3.8,32.9,6.1,31,5.8
		L31,5.8z"/>
	<path class="st2" d="M23.9,57.9c0.8-0.2,1.5-1,2.5-0.9c-0.4,0.8-1.7,0.4-1.7,1.4c0,0.7,0.4,1.4,0.7,2.3c-1.3-0.3-0.6-1.9-1.5-2.3
		c-0.4,0-0.7,0.4-0.8,0.8c-0.1,0.2-0.1,0.7-0.4,0.5c-0.5-0.8,0.7-2.3,0.9-3.3c0.1-0.2,0.1-0.3,0.3-0.2c0.5,0.4-0.2,1.2-0.2,1.7
		C23.8,57.9,23.9,57.9,23.9,57.9z"/>
	<path class="st2" d="M39.1,58.2c0.2-0.5-0.1-1.1,0-1.6c1.2-0.6,2.1,1.7,3,2.3c0.1,0.1,0.4,0.2,0.2,0.5c-0.7,0.4-0.8-1.2-1.9-0.5
		c-0.5,0.2-0.8,0.4-0.7,1c0.1,0.4,0.1,0.9-0.6,0.4C39.1,59.6,39.1,58.9,39.1,58.2L39.1,58.2z M40.8,58.2c-0.9-1.3-1.6-1.3-1.3,0.5
		C40,58.5,40.3,58.4,40.8,58.2z"/>
	<path class="st2" d="M8.7,20.7c-2.2,1.2-4.6-2.2-2.1-3.3c0.2-0.1,0.5-0.2,0.6,0.1c0.1,0.3-0.2,0.3-0.4,0.4
		c-2.1,0.6,0.1,3.2,1.4,2.4c0.6-0.4,0.9-0.9,0.5-1.6c-0.1-0.2-0.4-0.4-0.1-0.6c0.7-0.1,0.8,1,0.7,1.5c-0.1,0.3-0.3,0.5-0.4,0.8
		C8.9,20.4,8.8,20.5,8.7,20.7L8.7,20.7L8.7,20.7z"/>
	<path class="st2" d="M8.2,14.5c1,0.4,3.1,0.2,3.5,0.9c-0.1,0.2-0.3,0.3-0.5,0.2c-0.6-0.2-0.9,0-1.3,0.5c-0.8,0.9,0.7,1.2,0.2,1.8
		c-0.8-0.2-1.5-1.9-2.2-2.6C7.4,15.1,7.7,14.4,8.2,14.5L8.2,14.5z M8.2,15c0.4,0.5,0.7,0.9,1.1,1.4c0.3-0.4,0.6-0.6,0.6-1
		C9.3,15.2,8.8,15.1,8.2,15z"/>
	<path class="st2" d="M33.9,61.3c-0.8,0.8-0.6-1.2-1.6-0.9c-0.6,0-1.1,0.1-1.2,0.8c0,0.2-0.2,0.4-0.4,0.3c-0.3-0.8,0.8-2.2,0.9-3.2
		C32.4,56.2,33.4,60.6,33.9,61.3L33.9,61.3z M31.5,59.9c1.6,0.3,1-0.6,0.6-1.8C31.9,58.9,31.7,59.4,31.5,59.9z"/>
	<path class="st2" d="M54.2,18.5c-0.9,0.4-1.2-0.6-0.3-0.4c4.6-0.7,4.1-0.3,1.3,2.8c-0.3,0.7-0.9,0-0.4-0.4
		C55.8,20.1,55,18.3,54.2,18.5z M56.9,18.3c-1.2,0-2.3,0.2-1.1,1.2C56.1,19.1,56.4,18.8,56.9,18.3z"/>
	<path class="st2" d="M36.4,6.1c-1,0-0.3-1.4-1.4-1.3c-0.6,0-1.1,0-1.3,0.6c-0.1,0.2-0.2,0.4-0.4,0.3c-0.4-0.2-0.1-0.4,0-0.6
		C35.5,0.4,35.5,2.1,36.4,6.1z M35.1,2.7c-0.3,0.6-0.5,1.1-0.8,1.7c0.5-0.2,0.8,0.2,1.2-0.1C35.4,3.8,35.2,3.3,35.1,2.7z"/>
	<path class="st2" d="M18.3,57.7c0.9-0.5,3.7-3.8,3.7-2c-0.3,1.1,0,2.8-0.7,3.5c-0.2,0-0.3-0.2-0.3-0.4C20.7,56.3,20,57.8,18.3,57.7
		L18.3,57.7z M21.4,55.9c-0.5,0.2-0.9,0.5-1.1,0.9C21.4,57.8,21.4,57,21.4,55.9z"/>
	<path class="st2" d="M43.3,8.6c-0.4-0.1-0.6-0.2-0.5-0.5c0.2-0.7-0.1-0.9-0.7-1.2c-1-0.7-1.2,0.8-1.8,0.4c-0.2-0.2,0.1-0.3,0.2-0.5
		C44.2,2.9,43.6,4.4,43.3,8.6L43.3,8.6z M42.9,6.6c0.1-0.5,0-1-0.1-1.4C42.1,5.9,42.1,6.4,42.9,6.6z"/>
	<path class="st2" d="M48,6.8c-1.3,0.7-2.5,0.8-3.1,2.2c-0.1,0.1-0.2,0.3-0.4,0.2c-0.2-0.1-0.2-0.2-0.2-0.3c1-1.1,0.5-2.4,0.6-3.8
		c0.8,0.7,0.3,1.6,0.6,2.2C46.4,7.4,46.9,6.5,48,6.8L48,6.8z"/>
	<path class="st2" d="M7.6,24.5c0,0.1,0,0.2,0,0.4C6.3,25,4.1,23,3.7,25.3c-0.1-1.1,0.2-2,0.5-3c0.2,0.1,0.3,0.1,0.3,0.1
		C3.9,24.5,6.6,23.5,7.6,24.5L7.6,24.5z"/>
	<path class="st2" d="M22.7,3.5C23.6,2.8,23,6.3,23.2,7c-0.6,1.3-2.4-2.1-3.1-2.6c1.1,0.2,1.3,1.3,2.1,1.8
		C23.2,7.8,22.6,4.2,22.7,3.5z"/>
	<path class="st2" d="M40.9,55.8c1-0.4,1.5,0.5,2.3,0.5c0.3-0.6-0.2-1.5,0.5-2.2c0.5,1.2-0.5,2.5,0.6,3.6c0.1,0.1,0.2,0.3,0,0.4
		c-0.2,0.1-0.3,0.1-0.4-0.1C43.4,56.7,42.1,56.5,40.9,55.8L40.9,55.8z"/>
	<path class="st2" d="M16.5,6.8c-0.4,0-0.8,0.8-1,0.3c-0.2-0.4,0.7-0.5,1-0.8c0.4-0.2,1.1-1,1.4-0.7c0.3,0.4-0.4,0.5-0.6,0.7
		c-0.3,0.9,1,1.7,1.3,2.6c0.1,0.2,0.2,0.4,0,0.5C17.7,9.3,17.5,7.2,16.5,6.8L16.5,6.8z"/>
	<path class="st2" d="M56,25.5c0-0.1,0-0.2,0-0.3c1.1,0,2.9-1,3.7-0.5c0.1,0.4-0.3,0.3-0.5,0.3C58.2,25.1,57.2,25.8,56,25.5L56,25.5
		z"/>
	<path class="st2" d="M7.8,22.5C6.9,22,5,22,4.6,21.1c0.7-0.3,2.9,0.7,3.7,1.1C8.1,22.4,8,22.5,7.8,22.5z"/>
	<path class="st2" d="M48.8,7.7c0.6,0.7-1.5,2.2-1.8,3C45.5,11.4,48.4,7.9,48.8,7.7z"/>
	<path class="st3" d="M22.6,3.5c0.1,0,0.1,0,0.2,0c-0.1,0.9,0.4,2.7-0.1,3.2"/>
	<path class="st1" d="M39.1,58.2c0,0.7,0,1.4,0,2.1C38.7,59.6,38.7,58.9,39.1,58.2z"/>
	<path class="st1" d="M39.1,56.5c0,0.3,0,0.6,0,0.8C38.8,57.1,38.8,56.8,39.1,56.5z"/>
	<path class="st2" d="M49.3,7.2L49.3,7.2C49.3,7.2,49.3,7.2,49.3,7.2z"/>
	<path class="st4" d="M15,39.7c2.3-1.8,3.5-4.4,5.4-6.5c0.3-0.3,0.7-0.2,1,0.1c0.3,0.3,0.1,0.6-0.2,0.8c-1,0.3-2,2.6-0.4,2.3
		c0.8,0,1,1.4,0.2,1.5c-0.4,0.1-0.6,0.4-0.7,0.9c-0.2,1.4,1.2,0.8,2,1c0.8,0.1,1,0.8,0.5,1.3c-1.6,2.6,2.8,0,3,1.4
		C26,43,25.7,43,25.4,43c-1.4,0.2-2.8,0.3-4.1,0.6c-2.4,0.5-4.4,2.1-6.2,3.7c-1.6,1.3-3.1-2-4-3.1c-0.7-1.4,1.6-1.6,1.9-2.8
		C13.8,41.1,14.2,40.2,15,39.7L15,39.7z"/>
	<path class="st4" d="M49.4,41.2c0.7,1,3.2,1.7,2.6,3c-1.3,1.1-2.6,4.7-4.4,2.9c-2.8-2.5-6.4-3.7-10.1-4.1c-0.3,0-0.6-0.1-0.4-0.5
		c0.4-1.3,4.3,1.3,3.2-1.3c-1.8-2.5,3.8-0.1,1.9-3.1c-0.5-0.2-0.8-0.5-0.7-1.2c0.2-0.9,1.4-0.2,1.6-0.8c-0.1-0.7,0-1.5-1-1.8
		c-0.9,0-0.9-1.1-0.4-1.3c1.6-0.2,2,2.3,3,3.2C45.9,38.3,47.8,39.5,49.4,41.2L49.4,41.2z"/>
	<path class="st3" d="M25,38.5c-1.7-2.5-1.1-5.6,1.6-7.6c5.1-4.5,15.7,1.6,11,7.8h0c-0.2-2.8,1.2-6.6-2.5-2.7
		c-0.4,0.3-0.6,0.2-0.6-0.3c0.4-1.3-0.9-1.4-1.6-0.6c-0.4,0.4-0.7,0.9-1.4,0.8c-0.2-0.5,0.5-1.2-0.1-1.5c-0.5-0.2-0.9,0.1-1.2,0.5
		c-0.4,0.4-0.7,1.2-1.4,1c-0.6-0.3,0.4-1.2-0.3-1.4c-1.4-0.5-2,1.4-3,2.1c-0.6,0.5-0.7,1-0.3,1.7C25.1,38.4,25.1,38.4,25,38.5
		L25,38.5z"/>
	<path class="st3" d="M14.8,16.5C14.7,12.8,27.1,7.2,30,8.7c-4.1,1.3-8.8,1.6-12.6,5.5c-0.5,1,0.7,0.5,1,0.1
		c3.3-2.1,7.8-4.4,11.5-3.7c-2.4,1.2-6.1,1.2-8.6,2.8c-1.1,0.8-3.8,1.7-3.8,3.2c0.3,0.3,0.6,0,0.8-0.2c3.3-2.2,7.8-5,11.8-4
		c-2.7,1.4-7.3,1.2-10.7,4.1C18.4,17,19,18,19.9,17.2c0.8-1,11.1-5.1,9.8-2.7c-3.5,1-7.2,1.6-9.9,4.4C18,20.8,14.5,19.3,14.8,16.5
		L14.8,16.5z"/>
	<path class="st3" d="M45.6,14.8c0.2-0.7-0.2-1-0.6-1.3c-3.2-2.4-6.9-3.9-10.9-4.4c-0.4-0.1-1.1,0.2-1-0.5c3.1-1.2,17.2,4.6,15,9.2
		c-0.6,1.8-3.2,2.5-4.6,1.2c-2.5-2.7-5.9-3.5-9.3-4.4c-1.6-0.1-1.3-1.3,0.1-0.8c3.3,0.3,6.3,1.8,9.1,3.5c0.3,0.2,0.6,0.3,0.8,0
		c-1.2-2.2-4.7-2.9-7.1-3.8c-1.2-0.6-3.2-0.2-4.2-1.1c3.8-1.2,8.5,1.7,11.8,3.9c0.8,0.8,1.4-0.2,0.5-0.7c-3.2-2.8-7.3-4-11.3-4.7
		c-0.3-0.1-0.8,0.1-0.8-0.4C37.2,9.7,41.9,12.6,45.6,14.8L45.6,14.8z"/>
	<path class="st3" d="M30.4,24.3c2.1,0.3,5.1-0.7,6.4,1.4c0.4,0.6,0.9,1.1,1.3,1.7c1.1,1.4-1.8,1.2-1.8-0.1c-0.8-3.1-3,1.4-3.6-1.2
		c-0.3-0.7-0.7-0.9-1.3-0.9c-1.6-0.3-0.5,1.7-1.9,2c-0.5,0.2-0.7-0.2-0.9-0.6c-0.4-1.2-2.3-0.9-2,0.5c0.3,1.7-2.7,2.1-1.9,0.3
		c0.6-1.2,1.6-2,2.4-2.9C28.1,24.1,29.4,24.5,30.4,24.3L30.4,24.3z"/>
	<path class="st3" d="M37.5,39c-2.6,3.6-9.2,3.7-11.9,0.2c0.1-0.1,0.1-0.1,0.2-0.2c3.9-0.2,7.8,0.4,11.6-0.2
		C37.4,38.9,37.4,38.9,37.5,39z"/>
	<path class="st3" d="M33.9,22.4c-5.1-0.3-6.9,1.5-2.9-3.8C31.8,17.7,33.2,21.6,33.9,22.4z"/>
	<path class="st3" d="M55.1,30.5c0,1.5-1.1,2.8-2.5,3.1c-0.4,0.1-0.6,0-0.6-0.5c-0.1-1.3,1.2-2,1.9-3C54.5,29.2,55.3,29.4,55.1,30.5
		L55.1,30.5z"/>
	<path class="st3" d="M55.1,34.3c0.4,2.2-4.9,4.9-3.2,1.5C52.7,35.5,55.1,32.2,55.1,34.3z"/>
	<path class="st2" d="M32.5,51.3c1.2,0.3,2,0.2,2.3-0.3c0.2,1.1-0.2,1.5-1.3,1.2c-0.5-0.2-1-0.6-1.6,0.1c-0.3-1.3,0.8-1.6,1.7-2.1
		c0.7-0.4,0.1-1.4-0.6-1.2c-1.2,0.2,0.3,0.5-0.1,1.1c-0.3,0.4-1,0.2-1-0.3C32.8,46.6,37.9,50.3,32.5,51.3L32.5,51.3z"/>
	<path class="st3" d="M48.3,21.4c0.3-0.8,0.7-4.5,1.9-3.1c1.2,1.2,0.1,5-1.8,3.7l0,0C48.6,21.8,48.6,21.5,48.3,21.4L48.3,21.4
		L48.3,21.4z"/>
	<path class="st3" d="M52.8,23.5c0,0.9-1,2.9-2,2.4c-0.4-0.4-0.9-1-0.3-1.7C51.3,22.6,52.2,19.8,52.8,23.5z"/>
	<path class="st3" d="M51.2,41.4c-0.2,0-0.6,0.1-0.6-0.3c-0.3-1.8,2.1-2,3.2-2.8c0.2-0.1,0.5-0.2,0.7,0
		C54.9,39.8,52.8,41.4,51.2,41.4z"/>
	<path class="st2" d="M29,50.8c-2.7-2.6,3.8-3.4,2.2,0.5c-0.3,1.7-4,1-2.2-0.3c0.1,0.2,0.3,0.2,0.4,0.4c0.1,0.2-0.4,0.5,0.1,0.6
		c0.7,0.2,1.1-0.6,0.9-1.2C29.9,50.9,29.5,50.9,29,50.8L29,50.8z M30,50.4c0.7-0.1,0.6-1.5-0.2-1.4C29,49.1,29,50.5,30,50.4z"/>
	<path class="st3" d="M54.3,27.1c0.1,1.1-1.2,3-2.3,2.7c-1.2-1.4,0.7-2.8,1.4-4C54,25,54.3,26.6,54.3,27.1z"/>
	<path class="st3" d="M10.4,32.6c0.3,2.6-3.3-1-2.6-2.4c-0.1-0.7,0.6-1.1,1-0.4C9.5,30.7,10.7,31.2,10.4,32.6z"/>
	<path class="st3" d="M10.9,36.8c0.1,0.5-0.2,0.6-0.6,0.5c-1.3,0-3.6-3.2-2-3.7C9.3,33.8,10.9,35.7,10.9,36.8L10.9,36.8z"/>
	<path class="st3" d="M12,30c-0.2-0.1-0.7,0.1-0.7-0.3c-0.3-1.7,1.7-1.9,2.9-2.5c0.2-0.1,0.5-0.2,0.7,0C15,28.7,13.4,30.1,12,30
		L12,30z"/>
	<path class="st3" d="M15,39.7c-0.7,0.5-1.2,1.3-2,1.7c-1.5-1.3,0-2.5,0.9-3.7C15.1,36.6,14.6,39.1,15,39.7L15,39.7z"/>
	<path class="st3" d="M10.2,23.5c0.2-4.1,3.1,0.2,1.9,2C11.2,26.7,10.1,24.3,10.2,23.5z"/>
	<path class="st3" d="M13.3,26.3c-0.2-0.1-0.8,0.2-0.9-0.2c-0.2-1.7,2.1-1.8,3.3-2.2C17.6,23.7,14.6,27,13.3,26.3z"/>
	<path class="st3" d="M15.4,22.8c-0.4-0.1-1.3,0-1.3-0.5c0.1-0.5,0.2-1.2,0.8-1.3c1-0.1,2.4-0.8,3.3-0.3
		C18.1,21.9,16.6,22.9,15.4,22.8z"/>
	<path class="st3" d="M9.2,25.5c1.2,0.1,2.5,3.8,1,4C8.9,29.1,8.1,26.5,9.2,25.5z"/>
	<path class="st3" d="M12.3,20c0.5-4.6,3-0.1,1.6,1.9C13,23,12.1,20.7,12.3,20z"/>
	<path class="st3" d="M11.9,40.8c-0.4,1.7-3.4-0.9-3.4-2c-0.1-0.3-0.2-0.6,0.3-0.6C9.7,38.2,12,39.8,11.9,40.8L11.9,40.8z"/>
	<path class="st3" d="M14.2,34.7c-0.1,1.2-0.5,2.1-1.7,2.4c-0.3,0.1-0.8,0.5-0.9,0c-0.2-0.5-0.5-1.1,0-1.6
		C12.2,35,14.2,32.8,14.2,34.7L14.2,34.7z"/>
	<path class="st3" d="M11.1,32.8c-0.2-1.3,1.6-1.5,2.4-2.2c0.4-0.2,0.7-0.2,0.7,0.4C14.5,32.3,11,35.1,11.1,32.8z"/>
	<path class="st3" d="M48.5,22c-0.5,3.3-8.1-4-0.2-0.6v0C48.2,21.7,48.2,21.9,48.5,22L48.5,22L48.5,22z"/>
	<path class="st3" d="M49.4,41.2c-0.3-0.5-0.8-0.9-1.3-1.3C47.9,34.2,52,40.2,49.4,41.2z"/>
	<path class="st3" d="M51.2,29.6c0.1,0.4-0.2,0.4-0.4,0.4c-1.2,0-2.5-1.2-2.7-2.3C48.4,26,51.5,28.6,51.2,29.6L51.2,29.6z"/>
	<path class="st3" d="M49.4,26.4c-1,0.2-3.7-1.8-2.3-2.5C48.1,23.4,51.7,26.4,49.4,26.4z"/>
	<path class="st2" d="M38.9,52.2c-1,0.1-1.7,0.2-2.3,0c-0.1-0.5,0.8-0.2,0.6-0.7c-0.3-0.7-1.6,0.3-1.7-0.5c0.5-0.7,2.3,0.5,1.7-1.2
		c-0.5,0.1-0.6,1-1.4,0.8c0.5-0.4,2.1-2.9,2.1-1.3c0.1,0.7-0.3,1.4,0.5,1.9C38.2,51.7,38,51.8,38.9,52.2L38.9,52.2z"/>
	<path class="st3" d="M51.2,36c0.2,1.3-0.7,1.5-1.6,0.6c-0.5-0.5-1.3-2.6-0.3-2.6C49.9,34,51.2,35.4,51.2,36z"/>
	<path class="st3" d="M51.4,32.6c0.1,2.8-3.8-1.5-2.1-2.1C50.1,30.5,51.5,31.8,51.4,32.6z"/>
	<path class="st2" d="M27.5,52c-0.7,0.6-1.4,0.1-2.4,0.3c1.1-1,1.1-2.4,0.1-2.8c0-0.1,0-0.2,0.1-0.2c1.5-0.7,1.4-0.7,1.5,1.1
		C26.7,50.9,26.3,51.8,27.5,52z"/>
	<path class="st0" d="M42.3,34.5c0.8,0.3,0.6,1.1,0.7,1.6c0.1,0.3-0.3,0.2-0.5,0.2C42.9,35.7,42.5,35.1,42.3,34.5L42.3,34.5z"/>
	<path class="st3" d="M25.2,38.7c-0.1-0.1-0.1-0.2-0.2-0.2c0.1,0,0.1-0.1,0.1-0.1c0.1,0.1,0.1,0.2,0.2,0.2
		C25.3,38.7,25.2,38.7,25.2,38.7z"/>
	<path class="st3" d="M25.4,39c-0.1-0.1-0.1-0.2-0.2-0.2c0,0,0.1-0.1,0.1-0.1c0.1,0.1,0.1,0.1,0.2,0.2C25.5,38.9,25.5,38.9,25.4,39
		L25.4,39z"/>
	<path class="st3" d="M37.6,38.7c0,0.1-0.1,0.2-0.1,0.3c0,0-0.1-0.1-0.1-0.1C37.4,38.8,37.5,38.7,37.6,38.7L37.6,38.7L37.6,38.7z"/>
	<path class="st3" d="M25.6,39.2c-0.1-0.1-0.1-0.1-0.2-0.2c0-0.1,0.1-0.1,0.1-0.1c0.1,0.1,0.1,0.1,0.2,0.2
		C25.7,39.1,25.6,39.1,25.6,39.2L25.6,39.2z"/>
	<path class="st0" d="M23.9,57.9c-0.1,0-0.2,0-0.2,0c0-0.1,0.1-0.1,0.1-0.2C23.8,57.8,23.9,57.8,23.9,57.9L23.9,57.9z"/>
	<path class="st0" d="M9,20.3c0,0.2,0,0.3,0,0.4c-0.1,0-0.2-0.1-0.3-0.1C8.8,20.5,8.9,20.4,9,20.3z"/>
	<path class="st0" d="M31.6,59.9c0.2-0.5,0.3-1,0.6-1.8"/>
	<path class="st0" d="M21.4,55.9c0,1-0.1,1.9-1.1,0.9C20.5,56.4,20.9,56.1,21.4,55.9z"/>
	<path class="st1" d="M25.7,39c-0.8-0.6-1.2-1.7-0.2-2.3c1-0.7,1.6-2.6,3-2.1c0.7,0.2-0.3,1.1,0.3,1.4c0.7,0.2,1-0.6,1.4-1
		c0.3-0.4,0.7-0.7,1.2-0.5c0.6,0.3-0.1,1,0.1,1.5c0.7,0.1,1-0.4,1.4-0.8c0.7-0.8,2.1-0.7,1.6,0.6c0,0.5,0.2,0.6,0.6,0.3
		c3.7-4,2.2-0.2,2.5,2.7C33.8,39.7,29.6,38.8,25.7,39z M29.1,37.6c0.1-0.7-1.1-0.6-1,0C28.2,38.2,29.2,38.2,29.1,37.6z M36.6,37.6
		c0-0.5-1.1-0.5-1,0.1C35.6,38.3,36.7,38.2,36.6,37.6z M32.8,37.7c0.2-0.6-0.9-0.7-1-0.1C31.8,38.1,32.8,38.3,32.8,37.7z M34.7,37.6
		c0-0.6-1.1-0.5-1,0C33.7,38.2,34.8,38.2,34.7,37.6z M31,37.6c0-0.6-1.1-0.5-1,0.1C30,38.3,31.1,38.1,31,37.6z M27.2,37.6
		c0-0.6-1-0.5-0.9,0.1C26.3,38.2,27.3,38.2,27.2,37.6z"/>
	<path class="st1" d="M48.5,22c-0.3-0.1-0.3-0.3-0.2-0.6C48.6,21.5,48.6,21.8,48.5,22z"/>
	<path class="st1" d="M30,50.4c-1,0.1-1-1.3-0.2-1.4C30.6,48.9,30.7,50.4,30,50.4z"/>
	<path class="st3" d="M29.1,37.6c0.1,0.6-1,0.6-1,0C28,37,29.2,36.9,29.1,37.6z"/>
	<path class="st3" d="M36.6,37.6c0.1,0.6-1,0.7-1,0.1C35.5,37.1,36.6,37,36.6,37.6z"/>
	<path class="st3" d="M32.8,37.7c0,0.6-1.1,0.4-1-0.1C31.9,36.9,33,37.1,32.8,37.7z"/>
	<path class="st3" d="M34.7,37.6c0.1,0.6-1,0.6-1,0C33.7,37.1,34.7,37,34.7,37.6z"/>
	<path class="st3" d="M31,37.6c0.1,0.6-1,0.7-1,0.1C29.9,37.1,31,37,31,37.6z"/>
	<path class="st3" d="M27.2,37.6c0.1,0.6-0.9,0.6-0.9,0.1C26.2,37.1,27.2,37,27.2,37.6z"/>
	<circle class="st2" cx="49.5" cy="7.2" r="0.2"/>
	<circle class="st2" cx="3.9" cy="21.1" r="0.3"/>
</g>
</svg>
