<?xml version="1.0" encoding="UTF-8"?>
<svg id="Layer_1" data-name="Layer 1" xmlns="http://www.w3.org/2000/svg" viewBox="0 0 150 150">
  <defs>
    <style>
      .cls-1 {
        fill: #2d9dbb;
      }

      .cls-1, .cls-2 {
        stroke-width: 0px;
      }

      .cls-2 {
        fill: #3f4e86;
      }
    </style>
  </defs>
  <path class="cls-1" d="M73.43,52.53c-4.59,4.71-6.04,10.7-6.59,16.91-.26,2.89-1.19,4.08-4.2,4-5.41-.14-10.65-.24-15-4.28-2.84-2.64-6.31-1.96-9.59-.63-2.94,1.19-5.82,2.5-9.09,3.23,4.5-4.37,8.79-9.11,15.46-10.34,2.23-.41,4.1.94,5.59,2.6,1.06,1.2,2.1,2.42,3.12,3.65,2.15,2.59,5.12,2.29,7.92,1.96,2.81-.33,1.9-3.08,2.36-4.73.87-3.08,1.74-6.13,3.06-9.06.41-.9,1.27-1.96.37-2.87-.82-.82-2.04-.39-3.06-.09-3.49,1.02-6.39,2.84-8.1,7.04-.88-8.65,10.52-24.85,18.76-27.38-.02,3.86-.71,7.95,3.27,10.46,0,0-.07-.07-.07-.07,1.07,2.39,4.41,3.29,4.3,6.46,0,0,.08-.06.08-.06-2.58.57-4.5-.89-6.51-2.07.04-.76-.26-1.17-1.08-1.06-.48-2.72-2.56-4.23-4.52-6.73-1.24,3.81-2.28,6.91-5.78,9.01,3.36,1.34,5.97,3.48,7.71-.99.4-1.04,1.48-1.46,2.65-1.36.05.66.38,1.05,1.08,1.07-.38,1.44-.76,2.89-1.14,4.33l.08-.07c-.84-.07-1.09.44-1.15,1.14l.07-.08Z"/>
  <path class="cls-2" d="M83.09,93.19c0-2.48,0-4.97,0-7.45q0-9.07,9.29-8.51c10.35.62,16.82,6.99,16.62,16.36-.19,8.93-6.98,15.09-17.02,15.45q-8.89.32-8.89-8.39c0-2.48,0-4.97,0-7.45ZM87.54,92.64c0,3.02-.03,6.03.01,9.05.02,1.18-.22,2.4,1.49,2.94,4.52,1.44,12.3-2.24,14.4-6.97,2.34-5.25.29-11.61-4.62-14.32-7.48-4.14-11.28-2.07-11.28,6.11,0,1.06,0,2.13,0,3.19Z"/>
  <path class="cls-2" d="M25.01,76c3.87,8.4,7.3,15.85,10.75,23.34-7.42,2.08-13.98,1.27-15.5-2.28-1.34,2.83-2.4,5.39-3.73,7.82-2.77,5.04-8.75,8.08-13.27,6.87-1.38-.37-2.86-.78-3.23-2.38-.23-1,.77-1.54,1.53-1.94,1.73-.92,2.53.07,3.18,1.57,1.23,2.82,2.67.63,3.61-.14,2.97-2.42,4.44-5.9,5.99-9.28,3.43-7.5,6.8-15.02,10.67-23.59ZM20.39,96.62c3.53-.2,6.1-.34,9.09-.51-1.57-3.2-2.13-6.48-4.85-8.98-1.42,3.18-2.71,6.05-4.25,9.5Z"/>
  <path class="cls-2" d="M128.33,101.92c2.76-.82,4.56-.17,6.54,1.57,3.22,2.83,7.68,2.36,9.26-.69,2.13-4.12-.67-6.18-3.8-7.92-2.47-1.37-5.22-2.37-7.44-4.06-3.3-2.53-4.48-6.09-2.34-9.89,2.12-3.77,5.74-5.09,10.01-4.62,1.63.18,2.44,1.01,2.46,2.81.02,2.24-1.22,1.99-2.78,1.89-2.34-.15-4.97-.1-5.67,2.73-.8,3.25,2.08,4.06,4.24,5.19,1.73.9,3.57,1.62,5.22,2.64,6.21,3.85,7.66,9.1,3.97,14.09-3.79,5.14-10.93,5.94-16.02,1.73-1.65-1.36-3.02-2.98-3.65-5.47Z"/>
  <path class="cls-2" d="M32.65,101.9c2.16-.64,3.88-.42,5.79,1.23,3.54,3.06,8.19,2.82,9.7-.33,2.11-4.41-1.04-6.49-4.36-8.19-2.52-1.29-5.33-2.08-7.41-4.12-2.83-2.77-3.85-6.06-1.79-9.61,2.18-3.77,5.8-5.02,10.05-4.55,1.74.19,2.27,1.3,2.25,2.98-.03,2.4-1.58,1.71-2.94,1.68-2.42-.05-5.02.28-5.53,3.04-.52,2.83,2.11,3.76,4.16,4.81,1.42.73,2.92,1.32,4.32,2.08,5.27,2.86,7.53,6.85,6.41,11.58-1.13,4.73-4.39,7.16-9.13,7.53-5.47.43-9.55-2.53-11.49-8.12Z"/>
  <path class="cls-2" d="M116.02,98.2c-1.51,2.97-2.95,5.98-4.56,8.9-.84,1.52-2.49,2.53-4.04,1.76-2.03-1.01-.11-2.49.35-3.53,4.22-9.52,8.58-18.98,13.31-29.34,3.86,8.44,7.34,16.04,11.37,24.84-6.04-1.62-11.17,1.32-15.8-2.04,1.64-4.04,5.62-1.61,8.44-2.95-.9-3.15-2.18-6.05-4.26-9.37-1.77,4.31-3.29,8.02-4.82,11.73Z"/>
  <path class="cls-1" d="M82.94,53.7c2.18-.13,3.78.58,4.47,2.84.82,2.71,1.59,5.46,2.68,8.06.74,1.74-.73,4.76,2.56,5.09,3.03.3,5.89.22,8.31-2.41,7.19-7.79,16.5-6.19,22.09,4.34-2.24-.96-3.88-1.6-5.46-2.35-4.88-2.32-9.36-2.64-13.82,1.33-4.07,3.62-9.38,2.73-14.35,2.75-1.15,0-2.19-.39-2.2-1.76-.02-6.31-3.54-11.8-4.19-17.95l-.09.06Z"/>
  <path class="cls-2" d="M55.49,92.55c0-3.73-.09-7.45.05-11.17.05-1.39-.97-3.72,1.37-3.91,2.43-.19,3.16,1.88,3.19,4.03.03,2.13.02,4.26.02,6.39,0,2.31,0,4.61,0,6.92q0,9.06,9.09,9.83c1.38.12,2.92-.22,3.01,1.99.1,2.39-1.37,2.52-3.11,2.44-.18,0-.36,0-.53,0q-13.09.56-13.09-12.25c0-1.42,0-2.84,0-4.26Z"/>
  <path class="cls-1" d="M83.03,53.63c-1.08-.01-2.16-.03-3.24-.04l.08.07c-.38-.38-.76-.76-1.15-1.15l.07.08c-.47-2.6,2.61-1.71,3.23-3.25,0,0-.08.06-.08.06,2.3,0,4.59,0,8.35,0-3.45-2.93-4.67-5.24-6-7.63-2.35-4.25-3.68,4.38-6.65,1.17,0,0,.07.07.07.07.62-3.41,2.05-6.72,1.02-10.36,2.62-.23,4.97.83,5.83,2.42,3.45,6.36,9.4,10.86,12.67,17.28,1.08,2.11,1.23,4.36.76,6.84-4.56-6.3-9.17-7.94-15.06-5.51,0,0,.09-.06.09-.06Z"/>
  <path class="cls-2" d="M78.92,93.5c0,4.25,0,8.51,0,12.76,0,1.39.22,2.85-2,2.93-2.41.09-2.46-1.33-2.46-3.06.03-8.15.05-16.31,0-24.46-.02-2.24.73-4.32,3.02-4.16,2.68.19,1.31,2.8,1.39,4.29.2,3.89.07,7.8.06,11.7Z"/>
  <path class="cls-1" d="M79.79,53.59c.51,1.28,1.1,2.54,1.51,3.86.64,2.08-.05,3.9-1.79,5.07-1.91,1.28-4.05,1.24-5.9-.2-1.79-1.39-2-3.64-1.04-5.25.94-1.57,1.56-2.83.86-4.54,0,0-.07.08-.07.08.74-.03,1.03-.5,1.15-1.14l-.08.07c1.45.35,2.91.71,4.36,1.06,0,0-.07-.08-.07-.08-.15.91.35,1.17,1.15,1.15l-.08-.07Z"/>
  <path class="cls-2" d="M76.61,65.77c2.94.3,4.82,1.84,4.84,4.66.02,2.77-1.62,4.64-4.6,4.66-2.92.02-4.61-1.58-4.68-4.52-.07-2.99,1.8-4.34,4.44-4.81Z"/>
  <path class="cls-2" d="M140.7,111.95c1.96.09,2.89,1.16,2.91,2.71.02,1.57-.98,2.74-2.61,2.78-1.89.05-3.05-1.13-2.95-2.98.09-1.57,1.19-2.5,2.65-2.51Z"/>
</svg>