<?xml version="1.0" encoding="UTF-8"?>
<svg id="Layer_1" data-name="Layer 1" xmlns="http://www.w3.org/2000/svg" viewBox="0 0 150 150">
  <defs>
    <style>
      .cls-1 {
        fill: #47afd7;
      }

      .cls-1, .cls-2 {
        stroke-width: 0px;
      }

      .cls-2 {
        fill: #252724;
      }
    </style>
  </defs>
  <path class="cls-2" d="M85.1,70.18c1.88,0,3.76.02,5.64-.01.54,0,.72.11.74.69.11,3.5-.49,6.8-2.41,9.8-3.16,4.93-9.12,7.53-14.91,6.64-6.05-.93-11.42-5.86-12.42-12.68-1.11-7.6,4.27-15.17,11.89-16.58,5.16-.95,9.63.45,13.44,4.04.43.4.47.64,0,1.05-1.5,1.29-2.98,2.62-4.43,3.97-.34.32-.5.26-.81-.03-2.48-2.35-5.87-2.8-8.91-1.22-2.84,1.47-4.41,4.64-3.95,7.94.43,3.11,3.01,5.74,6.21,6.35,3.2.61,6.69-1.11,8.17-4,.23-.45.28-.65-.35-.63-1.21.03-2.42-.02-3.62.02-.54.02-.61-.2-.6-.65.02-1.36.03-2.73,0-4.1-.01-.51.15-.62.64-.62,1.91.03,3.81.01,5.72.01Z"/>
  <path class="cls-2" d="M.02,72.54c0-4.44.01-8.88-.02-13.32,0-.6.14-.75.74-.74,3.54.04,7.08-.06,10.62.04,6.29.18,11.67,3.93,13.18,10.4,1.32,5.64-.28,11.71-5.17,15.14-2.49,1.74-5.28,2.54-8.3,2.57-3.46.03-6.92,0-10.38.02-.57,0-.7-.15-.69-.71.02-4.47.01-8.94.01-13.4ZM6.64,72.58c0,2.22.01,4.44,0,6.66,0,.48.13.65.63.64,1.37-.04,2.74.05,4.1-.04,2.74-.18,4.95-1.31,6.17-3.91.64-1.37.66-2.83.55-4.31-.21-2.89-2.02-5.13-4.81-5.94-1.95-.56-3.94-.31-5.91-.4-.56-.02-.74.13-.73.71.03,2.19.01,4.39.01,6.58Z"/>
  <path class="cls-2" d="M137.23,87.42c-4.67-.07-8.68-1.81-12.18-4.83-.42-.36-.44-.6-.05-1.01,1.21-1.25,2.4-2.52,3.56-3.82.34-.38.55-.39.96-.1,2.46,1.78,5.2,2.83,8.24,3.07,1.02.08,2.04-.01,3-.38.69-.26,1.2-.7,1.31-1.48.11-.82-.38-1.3-1.01-1.67-1.43-.84-3.05-1.13-4.63-1.52-2.34-.58-4.64-1.27-6.71-2.56-5.05-3.16-5.17-9.81-.23-13.14,2.58-1.74,5.46-2.4,8.54-2.25,3.46.17,6.77.93,9.86,2.57.68.36.78.63.3,1.28-1.05,1.41-2.03,2.88-3,4.36-.31.47-.49.56-1.02.24-2.36-1.41-4.94-1.98-7.69-1.75-.26.02-.53.1-.78.17-.65.19-1.08.62-1.16,1.29-.08.69.28,1.16.89,1.47,1.34.69,2.78,1.1,4.19,1.6,2.04.72,4.08,1.45,6,2.47,1.75.93,3.23,2.13,3.9,4.06.97,2.79.42,5.33-1.46,7.55-2.15,2.54-5.07,3.66-8.26,4.19-.85.14-1.7.2-2.57.18Z"/>
  <path class="cls-2" d="M102.09,66.61c0,2.41-.04,4.82.01,7.23.06,2.8,1.96,5.37,4.46,6.17,3.27,1.04,6.79-.87,7.96-4.31.33-.98.44-1.98.44-3,0-4.47.01-8.94-.02-13.41,0-.65.18-.8.8-.79,1.9.04,3.81.04,5.71,0,.58-.01.78.11.78.74-.03,4.71.01,9.42-.02,14.13-.05,6.53-4.43,12.14-10.65,13.71-6.9,1.74-13.87-2.31-16.02-9.32-.44-1.44-.68-2.91-.67-4.42.01-4.68.02-9.37-.01-14.05,0-.63.15-.81.79-.79,1.9.04,3.81.04,5.71,0,.56,0,.73.16.72.72-.03,2.46-.01,4.92-.01,7.39h.02Z"/>
  <path class="cls-1" d="M31.32,82.11c-1.08-1.01-1.1-1.13-.62-2.36,1.33-3.41,3.51-6.08,6.74-7.87,2.55-1.41,5.25-1.53,7.95-.74,2.34.68,4.63,1.58,6.72,2.84,2.33,1.4,3.55,3.65,4.21,6.2.17.67-.52,1.09-.95,1.73-.17-.65-.29-1.15-.44-1.65-.81-2.79-2.38-4.91-5.22-5.93-1.13-.41-2.23-.91-3.34-1.39-1.93-.83-3.97-1.13-5.98-.66-3.24.76-5.61,2.77-7.23,5.66-.74,1.32-1.3,2.73-1.84,4.17Z"/>
  <path class="cls-1" d="M58.04,76.86c-4.25-10.35-22.71-13.25-29.28.15-.78-1.25-.73-2.16.37-3.44,2.73-3.18,5.99-5.53,10.19-6.45,6.3-1.38,11.74.41,16.59,4.39.93.77,1.65,1.76,2.31,2.76.56.85-.03,1.61-.18,2.58Z"/>
  <path class="cls-1" d="M27.96,72.81c-.2-1.27.16-2.1.95-2.94,3.43-3.64,7.71-5.45,12.59-6.11,3.7-.5,7.1.65,10.49,1.83,1.88.65,3.58,1.67,5,3.1,1.06,1.06,1.83,2.19,1.52,3.89-.44-.62-.83-1.18-1.24-1.71-1.4-1.81-3.28-2.94-5.38-3.79-2.82-1.15-5.67-2.03-8.77-2.05-4.43-.03-8.29,1.42-11.72,4.14-1.29,1.02-2.36,2.24-3.45,3.65Z"/>
  <path class="cls-1" d="M57.75,67.79c-1.77-1.51-3.76-2.59-5.86-3.49-2.2-.95-4.53-1.26-6.85-1.61-3.92-.58-7.63.25-11.18,1.85-1.65.74-3.04,1.9-4.39,3.08-.19.17-.38.51-.66.33-.31-.2.02-.46.08-.7.58-2.08,2.35-2.91,4.06-3.69,2.93-1.33,5.98-2.5,9.25-2.41,4.02.11,8.03.51,11.63,2.6,1.09.63,2.17,1.29,3.14,2.08.58.48.67,1.23.78,1.97Z"/>
  <path class="cls-1" d="M52.18,84.84c-.77-5.98-5.14-8.6-8.56-8.64-2.47-.03-4.61.96-6.37,2.5-1.82,1.59-2.29,3.98-2.82,6.26-1.13-.5-1.18-.6-.9-1.76.34-1.44.94-2.77,1.7-4.05,1.75-2.95,6.49-4.99,10.2-4.08,4.34,1.07,6.74,3.99,7.86,8.15.26.98-.56,1.16-1.1,1.62Z"/>
  <path class="cls-2" d="M76.51,54.96c-1.23,0-2.46-.02-3.69,0-.43,0-.55-.13-.54-.55.02-1.17.02-2.35,0-3.52,0-.4.13-.49.51-.49,2.52.01,5.03.01,7.55,0,.43,0,.55.14.54.55-.02,1.15-.03,2.3,0,3.44.01.46-.13.59-.59.58-1.26-.03-2.52-.01-3.77-.01Z"/>
  <path class="cls-1" d="M44.32,79.19c-2.51.07-4.41.61-5.93,2.09-1.23,1.19-1.45,2.74-1.51,4.35,0,.25.21.72-.22.71-.45-.01-1.13-.24-1.1-.74.12-2.14.49-4.3,2.24-5.74,2.24-1.85,4.98-2.56,7.77-1.83,1.96.51,3.61,1.79,4.56,3.78.42.88.72,1.76.88,2.71.12.66-.46,1.53-1.11,1.66-.47.09-.28-.31-.27-.48.05-1.38-.27-2.66-1.06-3.79-1.13-1.62-2.65-2.59-4.24-2.71Z"/>
  <path class="cls-1" d="M32.69,61.65c3.94-5.62,17.62-5.74,20.99-.17-3.41-1.76-6.83-2.85-10.56-2.83-3.71.02-6.98,1.54-10.44,3Z"/>
  <path class="cls-2" d="M140.13,93.08c-.01,1.54-1.27,2.75-2.85,2.74-1.56-.02-2.8-1.27-2.78-2.81.01-1.53,1.28-2.79,2.82-2.8,1.57,0,2.82,1.27,2.81,2.87Z"/>
  <path class="cls-1" d="M38.99,86.4c.25-1.48.29-3.18,1.72-4.05,2.52-1.53,5-1.25,6.45,1.92.28.61.44,1.25.54,1.92.12.76-.24,1.07-.93,1.17-.3.04-.47.08-.43-.38.09-1.12-.26-2.13-.89-3.08-.59-.87-1.35-1.12-2.35-.98-1.07.15-1.97.46-2.3,1.65-.18.64-.39,1.27-.39,1.95,0,.37.2.94-.55.89-.64-.04-1.05-.26-.86-1.01Z"/>
  <path class="cls-1" d="M36.58,95.04c-.1.93.21,1.86.04,2.8-.04.2.03.46-.28.5-.24.03-.48.03-.65-.21-.62-.87-1.46-1.55-2.03-2.45-.15-.25-.4-.52-.66-.46-.26.06-.14.41-.14.64-.02.67-.01,1.34,0,2,0,.39-.18.51-.54.5-.37-.01-.54-.16-.51-.54.12-1.38.06-2.76-.01-4.15-.01-.28-.03-.56.27-.69.33-.14.56.08.76.31.74.84,1.48,1.69,2.23,2.52.13.15.19.46.45.34.22-.1.1-.39.11-.59.01-.67.02-1.34,0-2-.01-.41.11-.58.54-.57.45,0,.56.24.53.61-.03.48-.07.96-.1,1.44Z"/>
  <path class="cls-1" d="M42.05,98.27c.72-1.7,1.41-3.37,2.15-5.03.2-.45.89-.44,1.09.01.7,1.56,1.36,3.14,2.03,4.71.06.15.09.39-.11.39-.32-.01-.83.24-.93-.16-.34-1.31-1.34-.93-2.19-.97-.34-.02-.59.12-.66.45-.16.77-.67.77-1.37.6ZM44.7,94.64c-.18.36-.34.67-.49.97-.05.1-.08.2-.12.3-.16.35-.03.46.33.5.99.1,1.1-.03.74-.91-.11-.27-.15-.57-.46-.86Z"/>
  <path class="cls-1" d="M52.79,98.36c-.41.08-.65-.16-.74-.58-.09-.46-.38-.6-.82-.56-.27.02-.54.03-.8,0-.58-.07-.99.12-1.14.72-.07.3-.28.43-.57.48-.48.09-.71-.08-.52-.55.64-1.54,1.29-3.07,1.97-4.6.21-.48.92-.48,1.15.02.7,1.53,1.34,3.08,1.99,4.63.21.51-.18.42-.52.43ZM50.81,94.59c-.14.16-.21.2-.24.27-.12.26-.24.53-.34.8-.31.78-.3.77.57.77.59,0,.71-.22.48-.72-.15-.33-.28-.67-.46-1.11Z"/>
  <path class="cls-1" d="M41.46,93.9c-.03.29-.66.57-.89.39-.26-.2-.5-.41-.84-.44-.34-.03-.72.07-.79.4-.05.27.07.61.47.74.46.14.9.35,1.33.56.55.27.84.7.82,1.35-.02.64-.33,1.1-.88,1.33-.51.21-.86.5-1.03,1.02-.1.31-.34.44-.63.31-.31-.14-.06-.39,0-.54.16-.35.09-.53-.28-.66-.27-.1-.52-.27-.75-.45-.17-.14-.45-.33-.15-.57.21-.17.42-.57.8-.21.35.34.78.47,1.25.37.3-.07.54-.21.56-.58.01-.31-.12-.51-.4-.62-.32-.13-.65-.24-.98-.37-.74-.29-1.25-.79-1.17-1.62.06-.69.45-1.16,1.21-1.29.87-.15,1.93.15,2.25.71.04.07.07.14.09.19Z"/>
  <path class="cls-1" d="M55.32,93c.51,0,1.02,0,1.52,0,.33,0,.5.1.48.46-.01.32-.18.45-.46.4-.98-.18-1.02.4-.99,1.13.04.93,0,1.87.02,2.8,0,.41-.13.56-.56.56-.41,0-.57-.12-.57-.55.02-1.04-.03-2.08.01-3.12.02-.61-.15-.91-.81-.83-.32.04-.67.07-.65-.45.02-.46.34-.4.63-.4.45,0,.91,0,1.36,0Z"/>
  <path class="cls-1" d="M30.6,95.68c0,.72,0,1.44,0,2.16,0,.36-.12.53-.51.52-.37,0-.61-.06-.6-.52.02-1.46.01-2.93.01-4.39,0-.31.06-.52.45-.46.3.05.67-.07.65.45-.02.75,0,1.49,0,2.24h0Z"/>
  <path class="cls-1" d="M30.59,92.14c-.08.29-.16.59-.54.56-.32-.03-.56-.19-.56-.55,0-.33.19-.55.54-.56.36-.01.49.25.56.56Z"/>
</svg>