<?xml version="1.0" encoding="UTF-8"?>
<svg id="katman_1" data-name="katman 1" xmlns="http://www.w3.org/2000/svg" viewBox="0 0 169.22 169.22">
  <defs>
    <style>
      .cls-1 {
        fill: none;
        stroke: #000;
        stroke-miterlimit: 10;
        stroke-width: .22px;
      }

      .cls-2 {
        fill: #ff0d00;
        fill-rule: evenodd;
      }

      .cls-2, .cls-3, .cls-4, .cls-5 {
        stroke-width: 0px;
      }

      .cls-4 {
        fill: #299926;
      }

      .cls-5 {
        fill: #fff;
      }
    </style>
  </defs>
  <polygon class="cls-5" points="67.45 148.97 70.31 149.68 67.21 162.12 64.35 161.41 66.69 152.03 63.46 153.67 64.22 150.61 67.45 148.97"/>
  <path class="cls-5" d="M82.22,152.32c-.76-.79-1.73-1.23-2.93-1.34-1.2-.1-2.22.16-3.07.78-.91.67-1.43,1.66-1.54,2.96-.11,1.2.18,2.19.86,2.97.61.72,1.35,1.12,2.21,1.19.3.02.55.01.73-.03l-2.97,4.78,3.23.28,2.9-4.84c.52-.85.84-1.43.98-1.74.17-.36.3-.69.39-.98.09-.29.14-.59.17-.89.12-1.31-.2-2.35-.96-3.14ZM79.75,156.24c-.29.23-.6.33-.95.3-.37-.03-.67-.19-.9-.48-.23-.28-.32-.65-.28-1.09.04-.45.2-.79.48-1.03.28-.23.6-.33.96-.3.19.01.36.07.51.15.15.08.28.19.39.32.22.3.32.66.28,1.09-.04.46-.2.81-.49,1.04Z"/>
  <path class="cls-5" d="M95.02,154.75v-.02c-.12-1.3-.62-2.27-1.5-2.92-.88-.64-1.92-.91-3.12-.81-1.19.1-2.15.54-2.88,1.3-.78.82-1.11,1.88-1,3.18.1,1.19.56,2.12,1.36,2.77.73.6,1.52.87,2.38.79.3-.02.54-.07.71-.15l-2.09,5.22,3.23-.28,2.01-5.27c.37-.92.59-1.55.67-1.88.11-.38.19-.73.22-1.03.03-.3.04-.6.01-.9ZM91.78,156.12c-.24.28-.53.43-.88.46-.37.04-.7-.07-.97-.31-.27-.24-.43-.58-.47-1.02-.04-.45.06-.82.29-1.1.24-.28.53-.44.89-.47.19-.02.37,0,.53.06.16.06.31.14.44.25.28.25.43.59.47,1.02.04.47-.06.84-.3,1.11Z"/>
  <path class="cls-5" d="M107.6,156.91l-1.22-4.88c-.31-1.23-.96-2.09-1.95-2.6-.9-.47-1.9-.57-3.02-.29-1.1.27-1.95.83-2.53,1.67-.64.91-.81,1.98-.5,3.2l1.22,4.89c.31,1.22.96,2.08,1.95,2.59.9.47,1.9.57,3.02.29,1.1-.28,1.95-.83,2.53-1.67.64-.91.8-1.98.5-3.2ZM103.92,159.2c-.75.19-1.24-.14-1.45-.99l-1.22-4.91c-.11-.43-.08-.78.09-1.05.16-.27.4-.44.72-.52.32-.08.61-.04.89.13.28.17.47.46.57.88l1.22,4.9c.21.85-.06,1.37-.82,1.56Z"/>
  <polygon class="cls-1" points="64.35 161.41 66.69 152.03 63.46 153.67 64.22 150.61 67.45 148.97 70.31 149.68 67.21 162.12 64.35 161.41"/>
  <path class="cls-1" d="M82.22,152.32c-.76-.79-1.73-1.23-2.93-1.34-1.2-.1-2.22.16-3.07.78-.91.67-1.43,1.66-1.54,2.96-.11,1.2.18,2.19.86,2.97.61.72,1.35,1.12,2.21,1.19.3.02.55.01.73-.03l-2.97,4.78,3.23.28,2.9-4.84c.52-.85.84-1.43.98-1.74.17-.36.3-.69.39-.98.09-.29.14-.59.17-.89.12-1.31-.2-2.35-.96-3.14ZM79.75,156.24c-.29.23-.6.33-.95.3-.37-.03-.67-.19-.9-.48-.23-.28-.32-.65-.28-1.09.04-.45.2-.79.48-1.03.28-.23.6-.33.96-.3.19.01.36.07.51.15.15.08.28.19.39.32.22.3.32.66.28,1.09-.04.46-.2.81-.49,1.04Z"/>
  <path class="cls-1" d="M95.02,154.75v-.02c-.12-1.3-.62-2.27-1.5-2.92-.88-.64-1.92-.91-3.12-.81-1.19.1-2.15.54-2.88,1.3-.78.82-1.11,1.88-1,3.18.1,1.19.56,2.12,1.36,2.77.73.6,1.52.87,2.38.79.3-.02.54-.07.71-.15l-2.09,5.22,3.23-.28,2.01-5.27c.37-.92.59-1.55.67-1.88.11-.38.19-.73.22-1.03.03-.3.04-.6.01-.9ZM91.78,156.12c-.24.28-.53.43-.88.46-.37.04-.7-.07-.97-.31-.27-.24-.43-.58-.47-1.02-.04-.45.06-.82.29-1.1.24-.28.53-.44.89-.47.19-.02.37,0,.53.06.16.06.31.14.44.25.28.25.43.59.47,1.02.04.47-.06.84-.3,1.11Z"/>
  <path class="cls-1" d="M107.6,156.91l-1.22-4.88c-.31-1.23-.96-2.09-1.95-2.6-.9-.47-1.9-.57-3.02-.29-1.1.27-1.95.83-2.53,1.67-.64.91-.81,1.98-.5,3.2l1.22,4.89c.31,1.22.96,2.08,1.95,2.59.9.47,1.9.57,3.02.29,1.1-.28,1.95-.83,2.53-1.67.64-.91.8-1.98.5-3.2ZM103.92,159.2c-.75.19-1.24-.14-1.45-.99l-1.22-4.91c-.11-.43-.08-.78.09-1.05.16-.27.4-.44.72-.52.32-.08.61-.04.89.13.28.17.47.46.57.88l1.22,4.9c.21.85-.06,1.37-.82,1.56Z"/>
  <polygon class="cls-5" points="152.61 38.87 150.41 40.3 152.12 42.94 154.32 41.51 152.61 38.87"/>
  <path class="cls-4" d="M84.9,23.77c-33.63,0-61.35,27.11-61.35,60.8s28.22,60.87,61.35,60.87,60.79-27.18,60.79-60.87-27.16-60.8-60.79-60.8ZM93.71,40.19l7.99.17-5.28-5.06,1.38-5,6.9,2.85-1.19,4.61-4.37-1.81.78-1.88.76.31-.46,1.1,2.73,1.13.76-2.95-5.37-2.22-.99,3.59,5.59,5.36,7.75.16,1.83-3.24-5.36-2.22-1.55,2.62,2.72,1.13.46-1.1.76.32-.78,1.88-4.36-1.81,2.41-4.1,6.89,2.86-2.56,4.52-7.31-.16,5.77,5.53-2.69,3.27-6.37-2.64,1.59-3.83,3.35.71-.14,2.07-.83-.05.09-1.34-1.97-.42-1,2.4,5.05,2.09,1.79-2.18-5.88-5.64-8.15-.17-.27,2.8,5.05,2.09.99-2.39-1.7-1.1-.88,1.01-.62-.55,1.36-1.56,2.87,1.86-1.58,3.83-6.37-2.63.41-4.22ZM121.57,84.61c0,20.4-16.55,36.95-36.95,36.95s-36.95-16.55-36.95-36.95,15.72-36.1,35.41-36.91c.51-.03,1.02-.04,1.54-.04s1.03.01,1.54.04c19.69.81,35.41,17.03,35.41,36.91ZM76.67,34.5l-.63-5.15h7.46l.66,4.71h-4.73v-2.04h.83v1.19h2.95l-.43-3.01h-5.81l.46,3.69,7.22,2.82,7.21-2.82.46-3.69h-5.81l-.43,3.01h2.95v-1.19h.83v2.04h-4.73l.67-4.71h7.45l-.63,5.15-6.81,2.66,7.44,2.9-1.23,4.05h-6.89v-4.15l3.36-.62.66,1.96-.78.27-.43-1.27-1.99.37v2.59h5.46l.82-2.69-7.58-2.96-7.59,2.96.82,2.69h5.46v-2.59l-1.99-.37-.43,1.27-.78-.27.66-1.96,3.36.62v4.15h-6.89l-1.23-4.05,7.45-2.9-6.82-2.66ZM62.43,34.03l2.41,4.1-4.37,1.81-.77-1.88.76-.32.45,1.1,2.73-1.13-1.55-2.62-5.37,2.22,1.84,3.24,7.74-.16,5.6-5.36-1-3.59-5.36,2.22.76,2.95,2.72-1.13-.45-1.1.76-.31.78,1.88-4.37,1.81-1.19-4.61,6.89-2.85,1.39,5-5.28,5.06,7.99-.17.41,4.22-6.37,2.63-1.59-3.83,2.87-1.86,1.36,1.56-.61.55-.89-1.01-1.69,1.1.99,2.4,5.04-2.09-.27-2.81-8.14.17-5.88,5.64,1.79,2.18,5.04-2.09-.99-2.4-1.98.42.09,1.34-.82.05-.14-2.07,3.34-.71,1.59,3.83-6.37,2.64-2.69-3.27,5.77-5.53-7.31.16-2.55-4.52,6.89-2.86ZM44.77,46.41l3.8,2.85-3.35,3.35-1.43-1.44.58-.58.84.84,2.09-2.09-2.44-1.83-4.1,4.11,2.93,2.29,7.09-3.12,3.12-7.09-2.29-2.93-4.11,4.1,1.83,2.44,2.09-2.09-.84-.84.58-.58,1.44,1.43-3.35,3.35-2.86-3.8,5.28-5.27,3.19,4.09-2.94,6.69,7.32-3.21,1.99,3.73-4.87,4.88-2.94-2.94,1.94-2.81,1.85.92-.35.74-1.21-.6-1.14,1.67,1.83,1.83,3.86-3.86-1.32-2.48-7.46,3.27-3.27,7.46,2.48,1.33,3.86-3.87-1.83-1.83-1.67,1.14.6,1.21-.74.36-.92-1.86,2.81-1.93,2.94,2.93-4.88,4.87-3.73-1.99,3.21-7.32-6.69,2.94-4.09-3.19,5.27-5.27ZM33.15,64.51l4.6,1.19-1.81,4.37-1.87-.78.31-.76,1.1.45,1.13-2.72-2.95-.76-2.22,5.37,3.59.99,5.36-5.59.16-7.75-3.24-1.83-2.22,5.36,2.62,1.55,1.13-2.73-1.1-.45.31-.76,1.88.78-1.81,4.36-4.09-2.41,2.85-6.89,4.52,2.56-.15,7.31,5.53-5.77,3.27,2.69-2.64,6.36-3.83-1.58.71-3.35,2.06.14-.04.83-1.34-.09-.43,1.97,2.4,1,2.09-5.05-2.17-1.79-5.64,5.88-.17,8.14,2.8.28,2.09-5.05-2.4-.99-1.1,1.7,1.02.88-.56.62-1.55-1.36,1.86-2.87,3.83,1.58-2.64,6.37-4.21-.41.17-7.99-5.06,5.28-5-1.39,2.85-6.89ZM29.4,85.79l4.71-.67v4.73h-2.03v-.83h1.19v-2.95l-3.02.43v5.81l3.7-.46,2.81-7.21-2.81-7.22-3.7-.46v5.81l3.02.43v-2.95h-1.19v-.83h2.03v4.73l-4.71-.66v-7.46l5.16.63,2.65,6.81,2.9-7.44,4.05,1.23v6.89h-4.15l-.62-3.36,1.96-.66.28.78-1.28.43.37,1.99h2.59v-5.46l-2.69-.82-2.96,7.59,2.96,7.58,2.69-.82v-5.46h-2.59l-.37,1.99,1.28.43-.28.78-1.96-.66.62-3.36h4.15v6.89l-4.05,1.23-2.9-7.44-2.65,6.81-5.16.63v-7.45ZM34.02,106.83l4.09-2.41,1.81,4.37-1.88.78-.31-.77,1.09-.45-1.12-2.73-2.63,1.55,2.23,5.37,3.24-1.84-.17-7.74-5.36-5.59-3.59.99,2.23,5.37,2.94-.77-1.13-2.72-1.09.45-.32-.76,1.88-.77,1.81,4.36-4.6,1.19-2.86-6.89,5.01-1.39,5.06,5.28-.17-7.99,4.21-.41,2.64,6.37-3.83,1.59-1.87-2.87,1.56-1.36.55.61-1.01.89,1.1,1.69,2.4-.99-2.09-5.04-2.8.27.17,8.14,5.63,5.88,2.18-1.79-2.09-5.04-2.4.99.42,1.98,1.34-.09.05.82-2.06.14-.72-3.34,3.83-1.59,2.64,6.37-3.27,2.69-5.53-5.77.16,7.31-4.52,2.56-2.85-6.9ZM51.65,129.72l-5.27-5.27,2.86-3.8,3.34,3.34-1.44,1.44-.58-.58.84-.85-2.08-2.08-1.83,2.43,4.1,4.11,2.29-2.94-3.11-7.09-7.09-3.11-2.94,2.29,4.11,4.1,2.43-1.83-2.08-2.08-.85.84-.58-.58,1.44-1.44,3.34,3.34-3.8,2.86-5.27-5.28,4.09-3.19,6.7,2.94-3.22-7.32,3.74-1.99,4.87,4.88-2.93,2.93-2.82-1.94.92-1.85.75.36-.6,1.2,1.66,1.15,1.84-1.84-3.86-3.86-2.49,1.32,3.28,7.46,7.46,3.28,1.32-2.49-3.86-3.86-1.84,1.84,1.15,1.66,1.21-.6.35.75-1.85.92-1.94-2.82,2.93-2.93,4.88,4.87-1.99,3.74-7.32-3.22,2.94,6.7-3.2,4.09ZM75.53,129.03l-7.99-.17,5.27,5.06-1.38,5-6.89-2.85,1.19-4.6,4.36,1.81-.78,1.88-.76-.32.46-1.1-2.73-1.13-.76,2.95,5.37,2.22.99-3.58-5.59-5.36-7.75-.17-1.83,3.24,5.37,2.22,1.54-2.62-2.72-1.13-.46,1.1-.76-.31.78-1.88,4.37,1.81-2.42,4.09-6.89-2.85,2.56-4.52,7.31.15-5.77-5.53,2.69-3.27,6.37,2.64-1.59,3.83-3.34-.71.14-2.06.82.04-.09,1.34,1.98.43.99-2.4-5.04-2.09-1.79,2.17,5.88,5.64,8.14.17.27-2.8-5.04-2.09-1,2.4,1.7,1.1.88-1.01.62.55-1.36,1.55-2.87-1.86,1.59-3.83,6.37,2.64-.41,4.21ZM92.6,134.72l.64,5.15h-7.46l-.66-4.7h4.72v2.03h-.82v-1.19h-2.95l.43,3.02h5.81l-.46-3.7-7.22-2.81-7.22,2.81-.45,3.7h5.81l.42-3.02h-2.95v1.19h-.82v-2.03h4.72l-.66,4.7h-7.46l.64-5.15,6.81-2.65-7.45-2.91,1.24-4.04h6.89v4.14l-3.36.63-.66-1.96.78-.28.42,1.28,1.99-.37v-2.6h-5.46l-.82,2.7,7.59,2.95,7.59-2.95-.82-2.7h-5.46v2.6l1.99.37.43-1.28.78.28-.66,1.96-3.37-.63v-4.14h6.9l1.23,4.04-7.45,2.91,6.81,2.65ZM106.81,135.19l-2.42-4.09,4.37-1.81.78,1.88-.77.31-.45-1.1-2.72,1.13,1.54,2.62,5.37-2.22-1.84-3.24-7.74.17-5.59,5.36.99,3.58,5.37-2.22-.76-2.95-2.73,1.13.46,1.1-.77.32-.77-1.88,4.36-1.81,1.19,4.6-6.89,2.85-1.39-5,5.28-5.06-7.99.17-.41-4.21,6.37-2.64,1.59,3.83-2.87,1.86-1.36-1.55.61-.55.89,1.01,1.7-1.1-1-2.4-5.04,2.09.27,2.8,8.14-.17,5.88-5.64-1.79-2.17-5.04,2.09.99,2.4,1.98-.43-.09-1.34.82-.04.14,2.06-3.34.71-1.59-3.83,6.37-2.64,2.69,3.27-5.77,5.53,7.31-.15,2.56,4.52-6.89,2.85ZM124.48,122.86l-3.8-2.86,3.35-3.34,1.43,1.44-.58.58-.84-.84-2.09,2.08,2.44,1.83,4.1-4.1-2.93-2.3-7.09,3.12-3.12,7.09,2.29,2.94,4.11-4.11-1.83-2.43-2.09,2.08.84.84-.58.59-1.44-1.44,3.35-3.34,2.85,3.79-5.27,5.28-3.19-4.09,2.93-6.7-7.31,3.22-1.99-3.74,4.87-4.87,2.93,2.93-1.93,2.82-1.86-.92.36-.75,1.2.6,1.15-1.67-1.83-1.83-3.87,3.86,1.33,2.49,7.46-3.28,3.27-7.46-2.48-1.32-3.86,3.86,1.83,1.84,1.67-1.15-.6-1.21.74-.35.92,1.85-2.82,1.94-2.93-2.93,4.88-4.88,3.73,1.99-3.21,7.32,6.69-2.94,4.09,3.19-5.27,5.28ZM136.15,104.65l-4.6-1.19,1.81-4.37,1.88.78-.32.76-1.1-.45-1.12,2.72,2.94.76,2.23-5.36-3.59-1-5.36,5.59-.17,7.75,3.24,1.83,2.23-5.36-2.63-1.55-1.13,2.73,1.1.45-.31.76-1.88-.78,1.81-4.36,4.09,2.41-2.85,6.89-4.52-2.56.16-7.31-5.53,5.77-3.27-2.69,2.63-6.36,3.84,1.58-.72,3.35-2.06-.14.05-.83,1.34.09.42-1.97-2.4-1-2.09,5.05,2.18,1.79,5.63-5.88.17-8.14-2.8-.28-2.09,5.05,2.4.99,1.1-1.7-1.01-.88.55-.61,1.56,1.35-1.87,2.87-3.83-1.58,2.64-6.37,4.21.41-.17,7.99,5.06-5.28,5.01,1.39-2.86,6.89ZM139.85,83.5l-4.7.66v-4.73h2.03v.83h-1.19v2.95l3.02-.43v-5.81l-3.7.46-2.81,7.22,2.81,7.22,3.7.45v-5.81l-3.02-.42v2.95h1.19v.82h-2.03v-4.73l4.7.67v7.45l-5.15-.63-2.65-6.81-2.91,7.44-4.04-1.23v-6.89h4.14l.63,3.36-1.96.66-.28-.78,1.28-.43-.37-1.99h-2.6v5.47l2.7.82,2.95-7.59-2.95-7.59-2.7.82v5.46h2.6l.37-1.99-1.28-.43.28-.78,1.96.66-.63,3.37h-4.14v-6.9l4.04-1.23,2.91,7.45,2.65-6.82,5.15-.63v7.46ZM135.29,62.45l-4.1,2.42-1.81-4.37,1.88-.78.32.76-1.1.46,1.13,2.72,2.62-1.54-2.22-5.37-3.24,1.84.16,7.74,5.36,5.59,3.59-.99-2.22-5.37-2.95.76,1.13,2.73,1.1-.46.31.76-1.88.78-1.81-4.36,4.61-1.19,2.85,6.89-5,1.39-5.06-5.28.17,7.99-4.22.41-2.63-6.37,3.83-1.59,1.86,2.87-1.56,1.36-.55-.61,1.01-.89-1.1-1.7-2.39,1,2.09,5.04,2.8-.27-.17-8.14-5.64-5.88-2.18,1.79,2.09,5.04,2.4-.99-.42-1.98-1.34.09-.04-.82,2.06-.14.71,3.34-3.83,1.59-2.64-6.37,3.27-2.69,5.53,5.77-.16-7.31,4.52-2.56,2.86,6.89ZM125.68,54.84l-6.7-2.95,3.22,7.32-3.74,1.99-4.87-4.87,2.93-2.93,2.82,1.93-.92,1.86-.75-.36.6-1.2-1.67-1.15-1.83,1.83,3.86,3.86,2.49-1.32-3.28-7.46-7.46-3.27-1.32,2.48,3.86,3.86,1.84-1.83-1.15-1.67-1.21.6-.35-.74,1.85-.92,1.94,2.82-2.93,2.93-4.88-4.88,1.99-3.73,7.32,3.21-2.94-6.69,3.19-4.09,5.28,5.27-2.86,3.8-3.34-3.35,1.44-1.43.58.58-.84.84,2.08,2.09,1.83-2.44-4.1-4.1-2.3,2.93,3.12,7.09,7.09,3.12,2.94-2.29-4.11-4.11-2.43,1.83,2.08,2.09.84-.84.59.58-1.44,1.44-3.34-3.35,3.79-2.85,5.28,5.27-4.09,3.2Z"/>
  <path class="cls-2" d="M54.71,77.57c0,16.52,13.39,29.91,29.91,29.91s29.91-13.39,29.91-29.91-12.57-29.07-28.37-29.87c-.51-.02-1.02-.04-1.54-.04s-1.03.02-1.54.04c-15.8.8-28.37,13.87-28.37,29.87ZM69.54,77.41c-2.23,1.13-3.28,2.33-3.22,4.96l.28,12.87h-3.01l.1-14.88c.03-2.98,2.19-4.8,5.02-6.09.8-.35,1.97,2.28.83,3.14ZM79.64,104.51v-18.37c0-3.85-5.61-5.59-8.87-7.24-1.67-1.26.05-3.46,1.22-2.95h0c4.13,1.87,11.38,4.54,11.5,8.9l.56,19.66h-4.41ZM98.46,78.9c-3.26,1.65-8.87,3.39-8.87,7.24v18.37h-4.41l.56-19.66c.12-4.36,7.37-7.03,11.5-8.91h0c1.17-.5,2.89,1.7,1.22,2.96ZM102.63,95.24l.28-12.87c.06-2.63-.99-3.83-3.22-4.96-1.14-.86.03-3.49.83-3.14h.01c2.83,1.29,4.99,3.11,5.01,6.09l.1,14.88h-3.01ZM104.03,58.93h-.01c1.8,2.12,5.73,4.89,5.74,7.22l.08,22.87-2.69,2.15v-23.43c0-2.35-3.27-4.81-4.99-6.95-.43-1.63.03-2.81,1.87-1.86ZM102.5,66.71c1.48,0,2.67,1.19,2.67,2.67s-1.19,2.67-2.67,2.67-2.67-1.2-2.67-2.67,1.2-2.67,2.67-2.67ZM100.43,59.38l-4.6,3.09v11.89h-2.63v-12.42l6.7-4.67.53,2.11ZM92.84,54.15c1,0,1.82.83,1.82,1.83s-.81,1.82-1.82,1.82-1.83-.81-1.83-1.82.82-1.83,1.83-1.83ZM87.48,54.19l4.67,7.75v14.53h-2.04v-13.48l-4.21-6.77,1.58-2.03ZM87.99,76.31c0,1.86-1.51,3.37-3.37,3.37s-3.37-1.51-3.37-3.37,1.51-3.37,3.37-3.37,3.37,1.51,3.37,3.37ZM83.33,56.22l-4.2,6.77v13.48h-2.04v-14.53l4.66-7.75,1.58,2.03ZM76.39,54.15c1.01,0,1.82.82,1.82,1.83s-.82,1.82-1.82,1.82-1.83-.82-1.83-1.82.82-1.83,1.83-1.83ZM69.33,57.27l6.71,4.67v12.42h-2.63v-11.89l-4.6-3.09.52-2.11ZM69.4,69.38c0,1.47-1.2,2.67-2.67,2.67s-2.67-1.19-2.67-2.67,1.2-2.67,2.67-2.67,2.67,1.2,2.67,2.67ZM65.2,58.93c1.84-.95,2.3.23,1.87,1.86-1.72,2.14-4.99,4.6-4.99,6.95v23.43l-2.69-2.15.08-22.87c.01-2.33,3.94-5.1,5.74-7.22h-.01Z"/>
  <path class="cls-3" d="M164.03,89.11l-.22,3.14,2.62.18.22-3.14-2.62-.18ZM150.02,88.13l-.22,3.14h.01l12.78.89.22-3.14-12.79-.89ZM162.72,79.36c-.13-1.42-.6-2.52-1.43-3.3-.83-.78-1.84-1.11-3.02-1.01-2.14.19-3.27,1.45-3.39,3.77l-.08,1.56c-.06.74-.39,1.14-1,1.19-.77.07-1.2-.51-1.31-1.73-.11-1.3.1-2.28.65-2.93l-2.18-1.83c-1.03,1.19-1.45,2.85-1.26,4.99.13,1.41.58,2.54,1.35,3.39.82.9,1.86,1.3,3.1,1.19h-.02c1.19-.12,2.06-.48,2.62-1.1.56-.62.88-1.52.94-2.71l.08-1.56c.04-.41.14-.71.31-.9.17-.19.36-.29.56-.31.33-.03.6.07.84.29.28.26.44.65.48,1.15.1,1.12-.08,1.94-.54,2.49l2.15,1.8c.93-1.11,1.31-2.59,1.15-4.44ZM159.49,61.58l-12.44,3.1,2.11,8.45h.02s2.72-.67,2.72-.67l-1.35-5.4,2.18-.55,1.15,4.61,2.72-.68-1.15-4.61,2.08-.52,1.35,5.4,2.72-.68-2.11-8.45ZM156.44,53.7l-5.02.22,3.26-3.83-1.51-3.09-5.13,6.81-4.69,2.29,1.38,2.83,4.69-2.29,8.52.15h.01l-1.51-3.09ZM152.61,38.87l-2.2,1.43,1.71,2.64,2.2-1.43-1.71-2.64ZM149.38,40.97l-10.75,6.98,1.72,2.64,10.75-6.98-1.72-2.64ZM143.49,33.31l-3.12-3.59-9.67,8.41,3.12,3.59c.96,1.1,2.04,1.7,3.22,1.78.93.08,1.8-.13,2.6-.64.36-.22,1.08-.8,2.16-1.74,1.09-.95,1.77-1.59,2.02-1.9.6-.75.93-1.58.99-2.48.08-1.18-.36-2.32-1.32-3.43ZM141.68,36.59c-.1.39-.75,1.11-1.95,2.15-.44.39-.77.67-1,.85s-.46.35-.7.51c-.24.16-.47.25-.69.27-.58.07-1.09-.15-1.54-.67l-.91-1.05,5.43-4.72.91,1.05c.45.5.59,1.04.45,1.61ZM134.45,28.04l1.73-2.21-6.87-5.36-7.89,10.1,6.86,5.36h.02l1.73-2.21-4.38-3.42,1.38-1.77,3.74,2.92,1.73-2.21-3.75-2.93,1.32-1.69,4.38,3.42ZM115.49,23.97l4.7-8.84-2.78-1.48-6.02,11.32,7.53,4.01,1.32-2.48-4.75-2.53ZM111.59,14.16l.87-2.67-8.29-2.69-3.96,12.19,8.28,2.69.87-2.67-5.29-1.72.7-2.14,4.52,1.47.87-2.67-4.52-1.47.66-2.04,5.29,1.72ZM98.07,11.27c.15-1.12-.07-2.06-.68-2.82-.61-.77-1.56-1.24-2.86-1.42l-5.26-.74-1.78,12.69,5.53.78c1.15.16,2.15-.03,2.98-.59.83-.56,1.33-1.42,1.5-2.6h0c.17-1.18-.23-2.18-1.18-2.98,1.01-.51,1.59-1.29,1.74-2.32ZM93.1,16.91l-2.1-.3.31-2.23,2.1.3c.76.1,1.08.52.98,1.26h.01c-.11.76-.54,1.08-1.3.97ZM93.65,11.87l-1.94-.27.29-2.07,1.94.27c.75.1,1.08.5.98,1.19-.1.69-.52.99-1.27.88ZM77.18,9.51l-.44-2.77-9.33,1.48.44,2.77,3.11-.49,1.57,9.88,3.11-.49-1.57-9.89,3.11-.49ZM65.15,17.21h-.01s-2.98-7.77-2.98-7.77l-2.94,1.13,2.95,7.7c.21.55.23,1.04.05,1.46-.18.42-.51.72-.99.91-.5.2-.95.19-1.35-.02-.39-.21-.69-.58-.9-1.12l-2.95-7.7-2.94,1.13,2.98,7.76c.49,1.27,1.33,2.14,2.53,2.62,1.15.46,2.36.44,3.64-.05,1.27-.49,2.19-1.3,2.77-2.44.58-1.14.63-2.35.14-3.61ZM53.08,23.81c-.19-.65-.56-1.43-1.12-2.32h-.02s-.94-1.5-.94-1.5l-4.26,2.66,1.39,2.23,1.6-1,.1.15c.66,1.06.46,1.92-.61,2.59-.47.29-.92.36-1.34.2-.49-.19-1.18-1.01-2.08-2.44-.89-1.44-1.32-2.4-1.27-2.89.05-.49.3-.87.76-1.16.82-.51,1.6-.43,2.32.25l2.69-1.68c-.82-.93-1.73-1.51-2.72-1.74-1.22-.28-2.48-.02-3.77.79-1.2.75-1.95,1.79-2.26,3.11-.19.83-.11,1.69.25,2.58.18.46.62,1.26,1.34,2.41.68,1.09,1.21,1.84,1.58,2.26.66.72,1.4,1.17,2.21,1.36,1.33.3,2.59.08,3.79-.67,1.32-.82,2.11-1.89,2.4-3.2.16-.68.15-1.34-.04-1.99ZM41.86,30.04h-.01c-.78-.89-1.59-1.38-2.42-1.47-.83-.09-1.74.19-2.74.83l-1.31.85c-.35.21-.66.31-.91.28-.25-.03-.45-.12-.58-.27-.21-.25-.3-.53-.26-.85.05-.38.27-.73.65-1.06.84-.73,1.62-1.07,2.33-1.02l.19-2.79c-1.44-.1-2.86.46-4.26,1.68-1.08.93-1.69,1.96-1.83,3.09-.14,1.12.18,2.13.96,3.03,1.41,1.62,3.09,1.8,5.04.53l1.31-.85c.63-.39,1.15-.35,1.55.11.5.58.29,1.27-.63,2.07-.99.86-1.9,1.26-2.75,1.2l-.2,2.84c1.57.14,3.16-.5,4.78-1.91,1.07-.93,1.72-1.96,1.95-3.08.25-1.2-.04-2.27-.86-3.21ZM33.56,39.41l-3.57,4.26-1.72-1.45,3.05-3.64-2.15-1.81-3.05,3.64-1.64-1.38,3.57-4.26-2.15-1.81-5.6,6.67,9.82,8.24,5.59-6.66-2.15-1.8ZM28.41,51.14h-.01l-11.21-6.21-1.5,2.71,3.55,5.26-6.34-.22-1.5,2.71,11.21,6.21,1.53-2.76-5.37-2.98,3.65-.05.98-1.76-1.89-3.13,5.37,2.98,1.53-2.76ZM6.15,60.44l-.92,3.01,2.51.77.92-3.01-2.51-.77ZM9.83,61.56l-.92,3.01,12.26,3.75.92-3.01-12.26-3.75ZM10.13,72.76l.49-3.1-2.76-.44-1.48,9.33,2.77.44.49-3.11,9.88,1.56.49-3.11-9.88-1.57ZM16.38,82.95v5.56h-2.25v-4.75h-2.81v4.75h-2.14v-5.56h-2.81v8.71h12.83v-8.71h-2.82Z"/>
  <path class="cls-3" d="M107.6,156.91l-1.22-4.88c-.31-1.23-.96-2.09-1.95-2.6-.9-.47-1.9-.57-3.02-.29-1.1.27-1.95.83-2.53,1.67-.64.91-.81,1.98-.5,3.2l1.22,4.89c.31,1.22.96,2.08,1.95,2.59.9.47,1.9.57,3.02.29,1.1-.28,1.95-.83,2.53-1.67.64-.91.8-1.98.5-3.2ZM103.92,159.2c-.75.19-1.24-.14-1.45-.99l-1.22-4.91c-.11-.43-.08-.78.09-1.05.16-.27.4-.44.72-.52.32-.08.61-.04.89.13.28.17.47.46.57.88l1.22,4.9c.21.85-.06,1.37-.82,1.56ZM95.02,154.75v-.02c-.12-1.3-.62-2.27-1.5-2.92-.88-.64-1.92-.91-3.12-.81-1.19.1-2.15.54-2.88,1.3-.78.82-1.11,1.88-1,3.18.1,1.19.56,2.12,1.36,2.77.73.6,1.52.87,2.38.79.3-.02.54-.07.71-.15l-2.09,5.22,3.23-.28,2.01-5.27c.37-.92.59-1.55.67-1.88.11-.38.19-.73.22-1.03.03-.3.04-.6.01-.9ZM91.78,156.12c-.24.28-.53.43-.88.46-.37.04-.7-.07-.97-.31-.27-.24-.43-.58-.47-1.02-.04-.45.06-.82.29-1.1.24-.28.53-.44.89-.47.19-.02.37,0,.53.06.16.06.31.14.44.25.28.25.43.59.47,1.02.04.47-.06.84-.3,1.11ZM82.22,152.32c-.76-.79-1.73-1.23-2.93-1.34-1.2-.1-2.22.16-3.07.78-.91.67-1.43,1.66-1.54,2.96-.11,1.2.18,2.19.86,2.97.61.72,1.35,1.12,2.21,1.19.3.02.55.01.73-.03l-2.97,4.78,3.23.28,2.9-4.84c.52-.85.84-1.43.98-1.74.17-.36.3-.69.39-.98.09-.29.14-.59.17-.89.12-1.31-.2-2.35-.96-3.14ZM79.75,156.24c-.29.23-.6.33-.95.3-.37-.03-.67-.19-.9-.48-.23-.28-.32-.65-.28-1.09.04-.45.2-.79.48-1.03.28-.23.6-.33.96-.3.19.01.36.07.51.15.15.08.28.19.39.32.22.3.32.66.28,1.09-.04.46-.2.81-.49,1.04ZM67.45,148.97l-3.23,1.64-.76,3.06,3.23-1.64-2.34,9.38,2.86.71,3.1-12.44-2.86-.71Z"/>
  <path class="cls-1" d="M84.61.11C37.95.11.11,37.94.11,84.61s37.84,84.5,84.5,84.5,84.5-37.83,84.5-84.5S131.28.11,84.61.11ZM79.75,156.24c-.29.23-.6.33-.95.3-.37-.03-.67-.19-.9-.48-.23-.28-.32-.65-.28-1.09.04-.45.2-.79.48-1.03.28-.23.6-.33.96-.3.19.01.36.07.51.15.15.08.28.19.39.32.22.3.32.66.28,1.09-.04.46-.2.81-.49,1.04ZM103.92,159.2c-.75.19-1.24-.14-1.45-.99l-1.22-4.91c-.11-.43-.08-.78.09-1.05.16-.27.4-.44.72-.52.32-.08.61-.04.89.13.28.17.47.46.57.88l1.22,4.9c.21.85-.06,1.37-.82,1.56ZM91.78,156.12c-.24.28-.53.43-.88.46-.37.04-.7-.07-.97-.31-.27-.24-.43-.58-.47-1.02-.04-.45.06-.82.29-1.1.24-.28.53-.44.89-.47.19-.02.37,0,.53.06.16.06.31.14.44.25.28.25.43.59.47,1.02.04.47-.06.84-.3,1.11Z"/>
</svg>