<?xml version="1.0" encoding="UTF-8"?>
<svg id="Layer_1" data-name="Layer 1" xmlns="http://www.w3.org/2000/svg" viewBox="0 0 150 150">
  <defs>
    <style>
      .cls-1 {
        fill: #99daf4;
      }

      .cls-1, .cls-2, .cls-3 {
        stroke-width: 0px;
      }

      .cls-2 {
        fill: #11477a;
      }

      .cls-3 {
        fill: #fff;
      }
    </style>
  </defs>
  <path class="cls-2" d="M150,75c0,41.42-33.58,75-75,75-41.42,0-75-33.58-75-75S33.58,0,75,0c41.42,0,75,33.58,75,75"/>
  <path class="cls-3" d="M146.98,75c0,39.76-32.23,71.99-71.99,71.99-39.76,0-71.98-32.23-71.98-71.99S35.24,3.01,75,3.01c39.76,0,71.99,32.23,71.99,71.98"/>
  <path class="cls-2" d="M144.02,75c0,38.12-30.9,69.02-69.02,69.02S5.98,113.12,5.98,75c0-38.12,30.9-69.02,69.02-69.02s69.02,30.9,69.02,69.02"/>
  <path class="cls-3" d="M75,120c-24.79,0-45-20.21-45-45s20.22-45,45-45,45,20.22,45,45-20.21,45-45,45"/>
  <path class="cls-1" d="M75,117c-23.14,0-42-18.87-42-42s18.87-42,42-42,42,18.87,42,42-18.87,42-42,42"/>
  <path class="cls-3" d="M15.1,70.17l.05.34-2.24.56c-.19.69-.28,1.34-.29,1.95-.02,1.42.45,2.53,1.4,3.33.96.81,2.28,1.22,3.97,1.25,1.71.03,3.07-.39,4.09-1.25,1.02-.85,1.54-2.01,1.56-3.47,0-.49-.05-.98-.17-1.45l-2.28-.03c-.28,0-.54,0-.78,0h-.64c-.14,0-.24.07-.28.21l-.35,1.05-.37.02c.03-.73.05-1.44.05-2.11.01-.68.01-1.34,0-1.98l.37-.04.26.94c.05.14.13.21.26.22.23.01.45.02.69.03.24,0,.49,0,.76.01l2.73.04.06.05c.26,1.16.39,2.23.38,3.21-.02,1.99-.57,3.58-1.64,4.74-1.07,1.16-2.56,1.74-4.45,1.72-2.02-.03-3.58-.66-4.7-1.91-1.13-1.24-1.67-2.91-1.64-5.04.02-.91.14-1.88.38-2.87l.07-.05,2.75.56Z"/>
  <path class="cls-3" d="M14.21,58.02l11.05-.93c.42-.03.71-.08.87-.16s.31-.21.43-.4l.43-.71.36.08c-.21.71-.4,1.38-.57,1.99-.17.63-.36,1.37-.57,2.22l-.37-.06-.02-.85c-.01-.12-.03-.21-.07-.27-.03-.06-.1-.1-.2-.13-.1-.03-.25-.04-.45-.03-.2.01-.45.03-.78.05l-2.41.18-1.07,3.96,1.95,1.47c.28.2.5.35.66.47s.3.19.4.22c.09.03.17.02.23-.02.06-.04.12-.1.18-.2l.43-.7.38.08c-.23.78-.41,1.41-.54,1.9-.13.5-.27,1.05-.42,1.66l-.37-.05-.03-.9c-.01-.22-.07-.41-.18-.54-.11-.13-.3-.3-.55-.51l-8.9-6.93.11-.88ZM20.18,62.46l.93-3.39-4.97.37,4.04,3.02Z"/>
  <path class="cls-3" d="M27.89,54.81l-.34-.14-6.21-11.02-2.46,4.39,1.47,1.55-.11.33-2.69-1-.03-.08c.71-1.23,1.38-2.39,2-3.5l.99-1.76c.39-.7.78-1.42,1.16-2.14l.33.15,6.22,11,2.54-4.53-1.46-2.12.14-.37,2.59,1.71.03.07c-.8,1.39-1.49,2.63-2.1,3.71l-1,1.79c-.39.7-.75,1.35-1.07,1.96Z"/>
  <path class="cls-3" d="M24.53,34.15c.23.19.37.41.39.67.03.26-.05.5-.23.73-.17.21-.38.33-.63.36-.25.03-.48-.04-.69-.22-.24-.19-.37-.42-.39-.67-.02-.25.06-.5.25-.73.17-.21.37-.34.61-.37.23-.03.47.04.69.22ZM33.28,41.38c.27.21.51.41.73.58.22.17.42.33.6.47.11.08.25.07.41-.05l.84-.56.3.22c-.47.56-.92,1.1-1.35,1.63-.43.54-.87,1.09-1.31,1.66l-.31-.2.41-1.01c.06-.14.04-.25-.06-.35-.17-.15-.37-.31-.59-.49-.22-.18-.46-.38-.72-.59l-5.38-4.34c-.23-.18-.43-.34-.61-.49-.18-.14-.35-.27-.5-.39-.12-.09-.24-.1-.35-.02l-.92.61-.3-.22c.48-.56.93-1.1,1.35-1.62.43-.53.86-1.09,1.3-1.67l.31.2-.42,1.02c-.06.13-.04.24.07.34.15.13.32.27.5.42.18.15.38.31.6.49l5.41,4.36Z"/>
  <path class="cls-3" d="M34.11,26.8c.61-.4,1.2-.79,1.76-1.17.56-.39,1.13-.8,1.72-1.24l.24.29-.69.86c-.09.1-.1.22-.03.35.11.17.23.35.36.54.13.2.28.41.44.64l2.66,3.83c.93,1.33,1.78,2.11,2.56,2.34.79.22,1.65,0,2.59-.65.96-.66,1.46-1.42,1.52-2.24.06-.83-.35-1.87-1.21-3.12l-2.72-3.92c-.16-.23-.3-.44-.44-.63-.13-.19-.26-.36-.39-.52-.08-.1-.19-.13-.33-.09l-.99.33-.24-.32c.6-.39,1.12-.73,1.55-1.03.41-.28.89-.64,1.47-1.06l.24.28-.7.88c-.08.11-.08.23,0,.35.1.17.22.33.35.53.13.2.28.41.44.65l2.5,3.6c1.06,1.53,1.53,2.88,1.43,4.05-.11,1.16-.85,2.21-2.19,3.14-1.31.91-2.51,1.26-3.59,1.03-1.09-.23-2.11-1.04-3.08-2.43l-2.79-4.02c-.17-.24-.32-.45-.45-.65-.13-.19-.26-.35-.37-.51-.09-.12-.2-.16-.33-.12l-1.06.34-.22-.29ZM37.32,22.13c.17.24.23.49.19.74-.05.25-.19.46-.42.62-.22.16-.44.21-.68.17s-.43-.17-.59-.4c-.17-.24-.23-.49-.18-.73.05-.25.19-.45.43-.61.22-.15.44-.21.67-.18.23.04.42.17.58.4ZM40.26,20.09c.17.24.23.49.19.74-.04.25-.19.46-.42.62-.22.15-.44.2-.68.16-.23-.04-.43-.17-.59-.39-.17-.24-.23-.49-.18-.73.05-.25.2-.45.43-.61.22-.15.44-.21.67-.18.23.04.42.17.58.4Z"/>
  <path class="cls-3" d="M51.38,19.19l2.29,6.5c.23.63.41,1.15.57,1.57.06.15.16.22.3.2l1.05-.05.15.35c-.68.22-1.24.41-1.66.56-.41.14-.97.35-1.65.61l-.16-.34.89-.65c.12-.09.17-.2.12-.32-.14-.44-.33-.98-.55-1.61l-2.3-6.52c-.19-.53-.35-.97-.49-1.32-.05-.13-.16-.21-.29-.21l-1.11.04-.14-.34c.7-.22,1.25-.41,1.65-.55.24-.09.48-.18.72-.29l9.73,6.05-2.19-6.2c-.18-.52-.35-.97-.49-1.34-.05-.12-.14-.18-.3-.17l-1.04.06-.15-.36c.69-.23,1.25-.41,1.67-.56.43-.16.98-.36,1.64-.61l.16.34-.9.67c-.11.09-.13.21-.09.34.11.36.26.81.45,1.34l3.17,8.99-.65.3-10.42-6.47Z"/>
  <path class="cls-3" d="M68.33,21.79c.05.34.09.64.13.92.04.28.08.53.12.75.03.14.14.22.34.25l1,.16.07.36c-.73.09-1.43.17-2.1.27-.68.1-1.38.2-2.09.32l-.08-.36.99-.46c.14-.06.2-.16.19-.29-.03-.23-.06-.48-.09-.76-.04-.28-.08-.59-.13-.93l-.96-6.85c-.04-.29-.08-.55-.11-.78-.04-.23-.07-.44-.1-.62-.03-.15-.11-.23-.24-.26l-1.09-.18-.07-.36c.73-.08,1.43-.17,2.1-.26.68-.09,1.37-.2,2.09-.33l.08.36-1,.46c-.13.05-.19.15-.18.29.02.2.05.41.08.65.03.23.06.49.1.76l.97,6.88ZM66.88,10.53c.04.3-.02.55-.17.76-.16.21-.38.33-.67.37-.27.04-.5-.02-.7-.16-.2-.15-.32-.36-.36-.63-.04-.3.02-.56.17-.76.16-.2.38-.32.68-.36.27-.04.5.01.7.15.19.14.31.35.35.64Z"/>
  <path class="cls-3" d="M76.87,24.1l-3.14-10.51c-.11-.38-.22-.66-.33-.81-.1-.16-.27-.28-.5-.36l-.76-.29v-.37c.57.06,1.22.11,1.97.16.77.05,1.57.08,2.38.11v.37s-.8.18-.8.18c-.12.03-.2.06-.26.11-.06.05-.09.13-.09.23,0,.11.02.26.07.46.04.2.11.45.2.75l2.26,7.83,3.47-7.46c.14-.3.25-.54.34-.73.08-.18.12-.33.13-.44,0-.1-.02-.18-.07-.23-.05-.05-.13-.09-.24-.13l-.78-.26v-.39c.63.06,1.25.11,1.88.16.63.04,1.24.06,1.82.08v.37s-.86.22-.86.22c-.21.04-.36.13-.48.25-.11.13-.26.38-.45.77l-4.89,9.93-.86.02Z"/>
  <path class="cls-3" d="M90.2,13.89l1.99.59c1.21.37,2.51.74,3.87,1.12l.03.08-1.22,2.39-.34-.04.06-2.04-3.78-1.13-1.34,4.5.74.22c.56.17,1.2.35,1.9.55.14.04.25,0,.35-.13l.61-1.02.45.11c-.24.76-.42,1.32-.53,1.68-.1.36-.26.91-.47,1.68l-.45-.1.04-1.2c0-.16-.07-.25-.19-.29-.71-.23-1.34-.42-1.92-.59l-.73-.22-.89,2.97c-.18.6-.35,1.2-.52,1.8l3.92,1.17,1.62-1.78.39.05-1.03,2.79-.07.04c-1.41-.44-2.71-.84-3.9-1.19l-1.94-.58c-.66-.2-1.34-.39-2.04-.58l.08-.36h1.1c.15,0,.24-.07.29-.2.07-.21.14-.45.23-.72.08-.27.18-.57.27-.89l1.98-6.62c.08-.28.15-.53.22-.75.06-.22.12-.43.17-.61.04-.14,0-.25-.11-.34l-.92-.62.09-.36c.7.23,1.37.44,2.02.64Z"/>
  <path class="cls-3" d="M99.04,27.03c-.17.29-.32.56-.44.81-.13.24-.25.46-.35.65-.08.16-.07.29.03.4l.69.71-.16.33c-.58-.35-1.17-.68-1.76-1.01-.6-.34-1.21-.67-1.86-1.01l.15-.34,1.07.24c.14.03.25-.01.33-.12.12-.2.25-.41.39-.66.14-.24.29-.51.46-.81l3.38-6.04c.14-.25.27-.49.38-.68.11-.21.21-.4.29-.56.07-.13.06-.25-.04-.35l-.76-.82.16-.32c.63.37,1.25.73,1.86,1.07.12.07.28.16.47.25s.42.21.69.35c.28.14.51.26.69.36.18.1.33.17.43.23,1.15.64,1.88,1.33,2.21,2.08.33.75.27,1.53-.19,2.36-.41.73-.95,1.22-1.6,1.46-.65.24-1.44.26-2.39.06.05.65.09,1.27.11,1.87.01.59.03,1.14.06,1.64.02.5.05.94.08,1.33.04.39.08.71.16.97.04.13.08.26.13.36.05.11.11.22.18.3.07.09.15.18.23.27.09.08.18.18.28.28l-.16.34c-.38-.16-.69-.3-.94-.44-.2-.11-.38-.22-.53-.32-.15-.09-.27-.19-.38-.29s-.19-.2-.27-.3c-.07-.1-.13-.22-.18-.35-.12-.27-.2-.6-.24-1.01-.04-.4-.06-.84-.07-1.33,0-.49-.01-.99-.01-1.54,0-.54-.01-1.09-.05-1.63-.01-.16-.02-.29-.04-.39-.01-.09-.04-.18-.08-.26-.04-.08-.1-.14-.18-.2-.07-.06-.17-.13-.3-.21l-.51-.3-1.45,2.58ZM100.8,23.89c.3.19.57.35.83.49.86.48,1.59.65,2.2.51.6-.14,1.12-.6,1.56-1.38.42-.75.54-1.41.35-1.97-.18-.56-.68-1.07-1.49-1.52-.14-.08-.29-.16-.45-.23-.17-.08-.35-.16-.54-.24l-2.44,4.35Z"/>
  <path class="cls-3" d="M116.99,29.16c-.33-.54-.69-.97-1.07-1.29-.57-.49-1.14-.74-1.72-.75-.57,0-1.07.24-1.49.73-.24.28-.39.58-.45.89-.06.32-.06.64,0,.97.07.34.18.67.33,1.01.15.35.31.7.48,1.04.19.38.36.77.52,1.15.17.38.28.77.34,1.16.07.39.05.78-.05,1.17s-.3.77-.6,1.13c-.73.86-1.63,1.24-2.69,1.12-1.06-.12-2.12-.63-3.2-1.53-.69-.58-1.35-1.34-1.99-2.29v-.08s2.2-1.95,2.2-1.95l.34.21-1.11,2.23c.3.57.7,1.06,1.18,1.47.64.55,1.27.83,1.88.85.61.02,1.13-.23,1.58-.76.24-.28.38-.57.44-.88.06-.3.06-.62-.01-.94-.07-.32-.18-.65-.32-.98-.15-.34-.3-.68-.47-1.03-.2-.39-.37-.78-.53-1.17-.16-.39-.26-.79-.33-1.19s-.04-.81.07-1.21c.11-.41.33-.81.66-1.2.67-.79,1.51-1.11,2.53-.98,1.02.13,2.02.6,2.99,1.42.68.58,1.33,1.27,1.95,2.07v.08s-2.09,1.7-2.09,1.7l-.3-.17.95-1.97Z"/>
  <path class="cls-3" d="M116.29,40.85c-.26.22-.5.42-.71.6-.21.18-.4.35-.57.5-.1.1-.11.23-.03.42l.39.93-.27.25c-.46-.57-.91-1.11-1.35-1.63-.44-.53-.91-1.06-1.39-1.6l.26-.26.92.6c.12.08.24.08.35,0,.18-.14.37-.3.59-.48.22-.18.46-.38.72-.6l5.28-4.47c.22-.19.42-.36.6-.51.18-.15.33-.29.47-.42.11-.1.14-.21.09-.34l-.43-1.02.27-.25c.46.57.9,1.12,1.34,1.64.44.52.9,1.05,1.39,1.59l-.26.26-.92-.6c-.11-.08-.23-.08-.35,0-.16.12-.32.26-.51.41-.18.15-.38.32-.59.5l-5.31,4.49ZM125.04,33.63c-.23.19-.48.28-.74.26-.26-.02-.48-.14-.67-.36-.18-.21-.26-.44-.24-.68.02-.25.13-.46.35-.64.23-.2.48-.28.73-.26.25.03.48.15.67.38.18.21.26.43.25.67-.01.24-.13.45-.35.64Z"/>
  <path class="cls-3" d="M119.01,49.25c-.36-.61-.76-1.27-1.21-1.98l.3-.22.97.89c.11.1.22.12.34.06.38-.21.86-.48,1.44-.82l7.32-4.34-1.53-2.59-2.34.5-.22-.26,2.51-1.75.09.02c.69,1.21,1.36,2.38,2.02,3.48l1.16,1.96c.65,1.1,1.34,2.24,2.08,3.45l-.04.08-2.85,1.06-.22-.26,1.72-1.65-1.53-2.59-7.32,4.34c-.58.34-1.05.63-1.42.86-.11.07-.15.19-.11.33l.32,1.28-.3.2c-.44-.77-.83-1.44-1.17-2.02Z"/>
  <path class="cls-3" d="M134.2,53.66l.64,1.97c.39,1.21.82,2.49,1.28,3.82l-.05.07-2.66.35-.16-.3,1.71-1.11-1.22-3.75-4.46,1.45.24.74c.18.56.39,1.19.64,1.88.05.13.14.21.3.2l1.18-.07.16.43c-.76.23-1.32.4-1.68.52-.36.12-.9.3-1.65.57l-.18-.43,1.01-.66c.13-.09.17-.2.14-.32-.22-.71-.42-1.34-.6-1.91l-.23-.73-2.96.96c-.6.2-1.19.39-1.77.59l1.27,3.89,2.39.32.19.34-2.88.74-.08-.04c-.44-1.41-.85-2.7-1.24-3.88l-.63-1.93c-.21-.66-.44-1.33-.68-2.01l.34-.14.63.9c.08.12.19.17.32.14.22-.07.46-.14.73-.22.27-.09.56-.18.88-.28l6.58-2.14c.27-.09.52-.18.75-.25.22-.08.41-.14.59-.21.14-.05.21-.14.22-.28v-1.11s.33-.13.33-.13c.21.7.41,1.38.62,2.02Z"/>
  <path class="cls-3" d="M137.04,70.35c.13-.61.17-1.17.11-1.67-.09-.74-.34-1.32-.74-1.72-.42-.4-.95-.57-1.59-.5-.37.04-.68.17-.94.35-.25.18-.48.42-.66.71s-.33.6-.45.96-.25.72-.37,1.09c-.12.41-.26.81-.41,1.2-.14.39-.33.75-.55,1.07-.22.32-.5.59-.83.82s-.74.35-1.21.41c-1.13.13-2.04-.21-2.73-1.02s-1.12-1.91-1.28-3.31c-.1-.89-.07-1.91.11-3.03l.06-.06,2.93.09.1.38-2.34.87c-.17.63-.21,1.25-.14,1.88.09.84.36,1.48.79,1.91.43.43.98.6,1.67.52.37-.04.67-.16.93-.34.25-.19.47-.41.64-.69.17-.28.32-.59.44-.94.12-.35.24-.71.36-1.07.12-.41.26-.82.41-1.21.16-.4.35-.76.57-1.1.23-.34.53-.61.88-.83.36-.23.8-.37,1.3-.43,1.02-.12,1.86.22,2.52,1.01.66.8,1.06,1.82,1.2,3.09.1.88.11,1.83.01,2.84l-.06.06-2.7-.19-.1-.34,2.05-.79Z"/>
  <path class="cls-3" d="M128.53,78.37c-.34-.01-.65-.02-.93-.03-.28,0-.53-.01-.76-.02-.14,0-.24.1-.3.29l-.33.95h-.37c.05-.73.08-1.43.11-2.11.03-.69.04-1.39.06-2.11l.37-.02.28,1.06c.03.14.12.22.26.24.23.01.48.03.76.04.28.01.59.03.93.04l6.91.26c.29.01.55.02.78.03.23,0,.44,0,.63.01.15,0,.25-.06.3-.19l.37-1.04h.37c-.05.73-.09,1.43-.11,2.11-.03.68-.04,1.39-.05,2.11l-.37.02-.27-1.07c-.03-.14-.11-.21-.26-.23-.2-.01-.42-.03-.65-.04-.24-.01-.49-.02-.77-.03l-6.94-.27ZM139.86,78.94c-.3-.01-.54-.11-.72-.3-.18-.19-.26-.43-.25-.72.01-.27.11-.49.29-.66.18-.17.41-.25.69-.24.31.01.54.11.71.3.17.19.25.43.24.73-.01.27-.1.49-.27.66-.17.17-.4.25-.69.23Z"/>
  <path class="cls-3" d="M59.67,128.89l.04-.36c1.15.08,2.3.14,3.47.19l.06.08c-.28.96-.53,1.95-.76,2.99l-.44,2.03c-.16.73-.28,1.33-.37,1.78-.03.17.03.28.17.35l1.26.64-.05.34c-1.03-.24-1.81-.42-2.35-.54-.55-.12-1.33-.28-2.36-.49l.04-.34,1.43-.05c.16,0,.25-.08.28-.22.11-.45.23-.95.35-1.49l.3-1.38c.24-1.11.44-2.11.62-2.98l-1.67-.54Z"/>
  <path class="cls-3" d="M65,140.7c1.45-.13,2.67-.57,3.68-1.31s1.78-1.83,2.29-3.26h-.02c-.72.68-1.62.98-2.68.89s-1.91-.51-2.55-1.25-.93-1.63-.83-2.67c.1-1.09.57-1.96,1.4-2.63.84-.67,1.81-.95,2.92-.85,1.22.11,2.18.64,2.87,1.59.7.96.99,2.12.87,3.5-.17,1.89-.97,3.45-2.41,4.65-1.44,1.21-3.26,1.86-5.47,1.94l-.07-.61ZM66.72,132.74c-.09,1.01.07,1.84.46,2.49.4.65.95,1,1.65,1.06.7.07,1.25-.11,1.66-.53.41-.43.65-1.04.72-1.86.09-.99-.08-1.84-.5-2.55-.43-.7-.98-1.09-1.67-1.15-.6-.06-1.12.15-1.56.6-.43.45-.69,1.1-.76,1.93Z"/>
  <path class="cls-3" d="M81.06,135.06l.37-.09v2.74l-.05.07c-1.16.06-2.37.12-3.63.2-1.18.08-2.26.16-3.25.23l-.1-.69c.51-.38.97-.73,1.38-1.06.41-.32.75-.61,1.05-.89.29-.27.56-.53.78-.76.22-.24.41-.49.55-.72.16-.23.26-.47.33-.7.07-.24.09-.49.08-.74-.04-.53-.25-.93-.65-1.21-.4-.28-.88-.41-1.43-.37-.65.04-1.29.26-1.93.65l-.36-.54c1.02-.79,2.05-1.21,3.12-1.28.8-.05,1.48.1,2.03.45.56.35.86.88.9,1.57.03.43-.04.84-.21,1.21-.17.39-.43.77-.77,1.15-.35.38-.77.78-1.28,1.17s-1.1.82-1.76,1.28v.04s4.24-.27,4.24-.27l.58-1.45Z"/>
  <path class="cls-3" d="M89.01,125.01c-1.67.68-2.86,1.55-3.56,2.58-.7,1.04-1.05,2.21-1.06,3.53h.01c.55-.87,1.36-1.41,2.45-1.61,1-.2,1.92-.03,2.74.52.82.54,1.33,1.31,1.53,2.35.21,1.09,0,2.07-.61,2.94-.61.87-1.48,1.41-2.6,1.62-1.24.24-2.33-.01-3.26-.75-.94-.74-1.55-1.81-1.81-3.21-.33-1.72-.03-3.35.91-4.91.94-1.55,2.61-2.76,5.04-3.61l.23.56ZM89.45,133.2c-.19-.97-.57-1.73-1.14-2.25-.57-.52-1.21-.72-1.92-.58-.64.12-1.12.45-1.44.98-.31.54-.39,1.19-.25,1.97.19.95.58,1.74,1.18,2.32.6.59,1.27.81,1.99.67.63-.12,1.09-.48,1.37-1.07.28-.59.35-1.28.2-2.04Z"/>
  <path class="cls-2" d="M104.62,52.99s-.75-.15-1.01.35c0,0-.72,1.35.76,2.21,0,0,1.42.73,1.85-.55,0,0,.28-1.64-1.6-2.02M90.07,73.69c-1.57,2-2.43,3.12-3.09,3.34-.3.07-.39-.02-.39-.02-.32-.19.31-1.12.31-1.12.92-1.71,3.26-4.39,3.26-4.39.21-.23.29.36.29.36.28,1.18-.39,1.83-.39,1.83M79.11,64.26c-2.01,2.36-2.76,1.95-2.76,1.95-1.89-.65.28-3.09.28-3.09.74-.44.68-.61.68-.61.08-.2.02-1.32,0-1.62,1.47-.17,1.86.93,1.79.76.77,1.37,0,2.61,0,2.61M60.1,80.7s-2.27,6.86-5.71,12.25c0,0-5.36,8.44-7.03,5.8,0,0-.38-.37-.42-1.43-.02-1.31.67-3.39,2.57-6.2,0,0,3.2-5.72,10.03-11.81.36-.32.87-.61.87-.61,0,0,.73-.6-.31,2M65.02,62.01c-6.37,4.98-12.86,7.28-14.54,5.37-1.78-2.03,2.03-8.37,8.4-13.34,6.37-4.97,12.89-7.28,14.55-5.16,1.66,2.13-2.03,8.16-8.4,13.13M101.04,63.51c-.77.68-1.11.12-1.11.12-.51-.34-.21-3-.21-3-.17-.43-1.39-.12-1.39-.12-2.21,2.1-5.3,6.03-5.3,6.03-.2.27-.76.9-.76.9-.81-1.08-2.97-1.77-2.97-1.77.12-.08.17-.12.18-.13l3.07-2.5c1.69-1.09.62-1.51.62-1.51-.47-.13-1.09.76-1.09.76-1.25.45-3.63-.13-3.63-.13-.01-.29.19-.39.19-.39.92-.76.07-1.19.07-1.19-1.77-.89-1.88,1.47-1.88,1.47-.74,1.02-3.51,2.83-3.51,2.83-2.09,1.53-1.87,0-1.87,0,2.09-2.26,1.87-3,1.87-3,.06-.68-.79-.96-.79-.96-.31-.08-1.37.8-2,1.36-.29-.68-1.29-1.65-1.29-1.65-2.69-1.93-5.15,1.52-5.15,1.52-.76,1.11-.85,1.55-.85,1.55-.15.46.26.82.47.82.2-.02.27-.33.27-.33h0c.39-1.15,1.54-2.3,1.54-2.3.17-.19.34-.34.5-.47l.02.76c-1.36.84-1.73,2.68-1.73,2.68-.47,1.21-3.91,3.8-3.91,3.8-2.48,1.86-4.33,3.35-5.46,4.29,1.24-4.61,2.63-10.1,3.02-11.63,6.1-5.52,9.2-12.31,7.52-13.73-2.37-2-8.24-.71-14.64,3.58-1.02.05-4.2,1.04-10.15,9.67l.04-.03c-2.17,3.16-2.95,5.95-1.75,7.47,2.04,2.61,9.09.54,16.08-4.6-1.05,4.82-3.12,11.14-3.12,11.14-.15.29-.33.58-.51.85-1.53,1.39-3.24,2.97-4.22,3.95-5.73,5.37-10.19,13.12-10.19,13.12-3.11,5.61-.3,7.41-.3,7.41,3.12,2.08,8.33-5.03,8.33-5.03,5.83-7.99,7.99-15.58,7.99-15.58.26-.64.77-2.42,1.38-4.63,1.83-1.76,6.51-5.45,6.51-5.45.74-.68,3.74-3.13,3.74-3.13.04.06.02.02.06.07,1.22,1.47,3.3.28,3.3.28.48-.27.86-.57,1.18-.87.78.1,1.35,1.11,1.35,1.11,1.16,1.61,2.52.17,2.52.17,2.49-2.58,4.1-3.54,4.1-3.54.63-.42,1.03-.23,1.3,0,.4.48.37,1.07-.34,1.53-.85.46-1.39.82-1.39.82-.85.51-.37.57-.37.57,3.69.22,4.83,1.23,5.18,1.78-1.2,1.37-6.12,7.05-6.36,8.96,0,0-.01,1.32.32,2.39,0,0,.31,1.19,2.18-.68,0,0,3.71-3.88,5.1-6.74,0,0,.94-2.51-.13-4.08.81-.99,3.93-4.13,3.93-4.13.28-.34.51,0,.51,0,.83,1.08,1.79,1.21,2.75,1.28.69-.01,1.23-.09,1.23-.09.12-2.04-.06-1.66-.06-1.66M89.5,65.54l-.05.04s.08-.06.05-.04"/>
</svg>