<?xml version="1.0" encoding="UTF-8"?>
<svg id="Layer_1" data-name="Layer 1" xmlns="http://www.w3.org/2000/svg" viewBox="0 0 150 150">
  <defs>
    <style>
      .cls-1, .cls-2 {
        stroke-width: 0px;
      }

      .cls-2 {
        fill: #231f20;
      }
    </style>
  </defs>
  <g>
    <path class="cls-1" d="M89.65,57.73c5.03,0,9.95-.26,14.83.08,3.97.28,6.92,3.52,7.57,7.31.88,5.07-1.08,9.84-4.94,12.01-.6.34-1.24.6-2.22,1.06,3.92,6.25,6.57,13.55,15.35,14.66.02.09.06.17.04.24-1.06,3.82-1.22,4.03-4.96,2.9-1.87-.56-3.9-1.34-5.28-2.63-5.17-4.82-8.58-10.89-11.66-17.27,7.78-.51,9.44-4.7,8.65-9.64-.72-4.53-4.02-7.19-12.46-6.19v33.15h-4.92v-35.68Z"/>
    <path class="cls-1" d="M7.9,75.55c-2.22,1.53-3.35,3.42-3.11,6.34.31,3.8.08,7.64.08,11.63H0v-35.6h4.83v16.78c2.08-2.42,3.67-4.42,5.42-6.29,2.67-2.86,5.37-5.7,8.21-8.39,1.97-1.86,4.42-2.81,7.2-2.4.63.09,1.2.59,1.74,1.24-7.72,1.36-10.75,8.06-15.83,12.61,3.73,6.05,6.86,12.3,11.75,17.39,2.39,2.48,5.42,3.7,8.83,3.87.03.17.06.25.05.32-.84,3.66-1.14,3.78-4.72,2.97-6.11-1.38-9.89-5.73-13.31-10.42-2.29-3.14-4.14-6.59-6.27-10.04Z"/>
    <path class="cls-1" d="M117.95,89.84c1.61-4,3.18-7.89,4.75-11.78,2.61-6.46,5.22-12.93,7.85-19.38.28-.7.6-1.45,1.11-1.98,1.52-1.57,2.92-1.23,3.67.82,4.1,11.22,8.2,22.45,12.29,33.67.26.7.42,1.43.72,2.44-1.21,0-2.2-.09-3.17.02-1.52.18-2.1-.53-2.56-1.9-3.16-9.44-6.4-18.85-9.62-28.27-.17-.5-.38-.99-.73-1.88-.88,2.21-1.63,4.08-2.36,5.96-2.64,6.86-5.36,13.7-7.84,20.61-.75,2.09-1.73,2.69-4.09,1.66Z"/>
    <path class="cls-1" d="M60.44,93.33c-.42.16-.56.26-.71.27q-4.28.34-5.65-3.62c-3-8.77-5.98-17.54-8.98-26.32-.19-.55-.43-1.08-.83-2.08-2.13,5.54-4.11,10.66-6.08,15.78-1.4,3.65-2.92,7.26-4.13,10.97-.73,2.22-1.92,2.45-4.02,1.55.75-1.92,1.47-3.83,2.23-5.72,3.45-8.52,6.95-17.02,10.33-25.57.75-1.9,1.87-2.89,4.16-2.83,4.53,12.44,9.07,24.94,13.67,37.57Z"/>
    <path class="cls-1" d="M84.79,57.67c-3.05,5.97-5.85,11.77-8.96,17.4-1.66,3-2.49,6-2.27,9.42.19,2.97.04,5.96.04,9.06h-4.96c0-3.58.16-7.17-.06-10.73-.12-1.9-.56-3.95-1.43-5.62-3.17-6.05-6.59-11.97-9.91-17.94-.25-.45-.45-.93-.83-1.72,1.32,0,2.37.08,3.41-.02,1.41-.14,2.22.36,2.88,1.66,2.65,5.2,5.42,10.33,8.15,15.49.28.52.58,1.03,1.06,1.86,1.53-3.06,2.91-5.85,4.3-8.64,1.3-2.61,2.62-5.21,3.91-7.82q1.31-2.63,4.68-2.38Z"/>
    <path class="cls-1" d="M140.1,58.31c.04-2.56,2.37-4.89,4.9-4.9,2.53-.01,5.09,2.59,5,5.08-.1,2.56-2.43,4.71-5.07,4.68-2.67-.03-4.87-2.24-4.83-4.85ZM149.15,58.43c.03-2.28-1.74-4.11-4.03-4.17-2.25-.06-4.22,1.73-4.29,3.93-.08,2.27,1.91,4.34,4.18,4.35,2.22,0,4.12-1.88,4.14-4.11Z"/>
  </g>
  <path class="cls-2" d="M143.56,55.81h1.43c.49,0,.86.12,1.11.36s.37.57.37.99-.12.75-.37.99c-.25.24-.62.36-1.11.36h-1.11v2.06h-.32v-4.75ZM144.99,58.23c.43,0,.74-.1.91-.29.17-.2.26-.46.26-.77s-.09-.57-.26-.77c-.17-.2-.47-.29-.91-.29h-1.11v2.13h1.11ZM145.15,58.37h.37l1.17,2.2h-.39l-1.14-2.2Z"/>
</svg>