<?xml version="1.0" encoding="utf-8"?>
<!-- Generator: Adobe Illustrator 27.9.0, SVG Export Plug-In . SVG Version: 6.00 Build 0)  -->
<svg version="1.1" id="Layer_1" xmlns="http://www.w3.org/2000/svg" xmlns:xlink="http://www.w3.org/1999/xlink" x="0px" y="0px"
	 viewBox="0 0 24 30.2" style="enable-background:new 0 0 24 30.2;" xml:space="preserve">
<style type="text/css">
	.st0{fill-rule:evenodd;clip-rule:evenodd;fill:#21409A;}
</style>
<path class="st0" d="M13.6,1.1c4.5,3.2,7.4,7.9,7.2,13.4c0.5,0.1,1.1,0,1.7,0l0-12c0-0.1,0-0.1-0.1-0.1h-6.6c-0.4-0.5-1-1-1.5-1.5
	h9.6l0,14.9c-1.6,0-3.2,0-4.8,0c0.7-5.9-2.4-11-7.3-14.4C7,4.9,3.8,10,4.5,15.9H0V1h9.3C8.7,1.4,8.1,1.9,7.6,2.5H1.3l0,12v0.1
	c0.4,0.1,0.9,0,1.4,0C2.5,8.4,6.5,3.1,11.7,0C12.4,0.3,13,0.7,13.6,1.1L13.6,1.1z M10.7,13.1L10.7,13.1l2.1-5c1.3-0.1,2.7,0,4,0
	l-2.3,5.8c-0.1,0.1-0.2,0.3-0.1,0.5l2.7,6l-4.1,0l-0.1-0.1l-2.1-4.9l0,0l0,5l-3.9,0l0-12.3h3.9L10.7,13.1L10.7,13.1z M4.5,17.4
	c0.1,0.2,0,0.4,0.2,0.6c0.1,0.5,0.5,1,0.7,1.5c0.1,0.2,0.3,0.3,0.3,0.5c-1-0.6-2.3-0.3-3.3,0.1c-0.3-0.2-0.8-0.2-1.1-0.4
	c-0.4,0-0.8-0.1-1.2-0.1v-2.2c0.6,0.2,1.3-0.2,1.9,0C2.8,17.3,3.6,17.4,4.5,17.4L4.5,17.4z M22.8,17.4c0.4-0.1,0.7-0.1,1.1,0
	c0,0.7,0,1.5,0,2.1c-0.6-0.1-1.3,0-1.8,0.2c-0.4,0-0.7,0.2-1.1,0.1c-0.6-0.4-1.3-0.5-2-0.3c-0.2,0.1-0.4,0-0.6,0.1
	c0.1-0.4,0.4-0.7,0.5-1c0.1-0.3,0.2-0.7,0.2-1.1c0.3-0.3,0.8-0.1,1.2-0.2C21.2,17.4,22,17.2,22.8,17.4L22.8,17.4z M20.9,20.6
	c0.7,0.2,1.3-0.1,1.8-0.4h1.3l0,1.5c-0.6,0.1-1.2,0.1-1.8,0.3c-1.1-0.4-2.6-0.7-3.8,0c-0.6,0.1-1-0.5-1.5-0.1
	c-0.3,0-0.5,0.2-0.8,0.1c0.5-0.4,1-0.8,1.5-1.2c0.6-0.2,1.3-0.4,2-0.5c0.3-0.3,0.6,0.2,1,0.1L20.9,20.6L20.9,20.6z M1.5,21
	c0.5,0.1,0.9,0.2,1.4,0c0.2-0.1,0.4-0.1,0.6-0.2c1,0,1.9,0.2,2.9,0.2c0.7,0.6,1.4,1,2.1,1.4v0.1c-0.7,0-1.4-0.6-2.1-0.2l0,0
	c-0.6,0.4-1.4,0.4-2,0c-0.7-0.4-1.4,0.1-2.1,0.3C1.5,22.3,0.9,21.9,0,22v-1.6C0.5,20.7,1,20.7,1.5,21z M23.9,22.5l0.1,0.2v7.4
	L0,30.2l0-7C0.2,23,0.4,22.9,0.7,23c0.7,0.2,1.7,0.7,2.4,0.2c0.9-0.8,1.7,0.4,2.7,0.1c0.4-0.1,0.8-0.3,1.1-0.4
	c0.4-0.1,0.5,0.4,0.9,0.2c0.6,0.4,1.2-0.1,1.7-0.2c0.6-0.1,1.1,0.2,1.7,0.3c0.6,0.2,1.1-0.1,1.6-0.2c0.5-0.2,1-0.2,1.5-0.5
	c0.6,0,1.3,0.7,1.9,0c0.5-0.2,1.1-0.2,1.6,0c0.4,0.1,0.8,0.4,1.2,0.3c0.5-0.2,0.9-0.3,1.4-0.4c0.4,0,0.7,0.3,1,0.3
	c0.7,0.5,1.4-0.2,2.1-0.4C23.7,22.5,23.8,22.5,23.9,22.5L23.9,22.5z M20.6,24h0.7v0.7h-0.7V24z M10,25.7c0.6,0.8,0.6,2,0.1,2.8
	c-0.4,0.5-1,0.7-1.6,0.7C8,29.2,7.5,29,7.2,28.5c-0.5-0.7-0.5-1.8-0.1-2.5c0.4-0.7,1.3-1,2.1-0.8C9.5,25.2,9.8,25.4,10,25.7L10,25.7
	z M14.5,25.7c0.1,0.2,0.2,0.4,0.2,0.7c-0.3-0.1-0.8,0.2-0.8-0.2c-0.1-0.2-0.3-0.3-0.6-0.3c-0.4,0-0.7,0-0.9,0.3
	c-0.1,0.3,0.1,0.5,0.3,0.5c0.7,0.2,1.6,0.1,2,0.9c0.1,0.5,0.1,1-0.3,1.3c-0.5,0.4-1.3,0.5-1.9,0.3c-0.4-0.1-0.8-0.5-0.9-0.9l0-0.3
	c0.3,0,1-0.3,0.9,0.3c0.3,0.4,0.8,0.3,1.2,0.2c0.1,0,0.2-0.2,0.4-0.3c0-0.1,0.1-0.2,0-0.3c-0.4-0.5-1.1-0.4-1.6-0.6
	c-0.2,0-0.4-0.2-0.6-0.5c-0.2-0.4-0.1-0.9,0.1-1.3c0.4-0.5,1.2-0.4,1.8-0.4C14,25.2,14.3,25.4,14.5,25.7L14.5,25.7z M3.4,25.2
	c0,0.5,0,1,0,1.5c0.5-0.5,1-1,1.5-1.5h1l-1.6,1.5c0.6,0.8,1.1,1.5,1.7,2.3c-0.3,0.1-0.7,0-1,0l-1.2-1.7c-0.8,0.3-0.3,1.2-0.4,1.7
	H2.6v-3.9H3.4L3.4,25.2z M16.9,26.7L16.9,26.7l1.5-1.5h1l-1.5,1.5v0.1l1.6,2.2c-0.3,0.1-0.6,0-1,0l-1.2-1.7
	c-0.8,0.3-0.3,1.2-0.4,1.7h-0.7l0-3.9h0.8L16.9,26.7L16.9,26.7z M21.3,29.1l-0.8,0v-3.9h0.8V29.1z M9.5,26.3
	c0.2,0.5,0.3,1.3-0.1,1.9c-0.2,0.2-0.5,0.4-0.8,0.4c-0.3,0-0.7-0.1-0.9-0.5c-0.3-0.5-0.3-1.2,0-1.8c0.2-0.4,0.7-0.5,1.1-0.5
	C9.1,25.9,9.4,26.1,9.5,26.3L9.5,26.3z"/>
</svg>
