<?xml version="1.0" encoding="UTF-8"?>
<svg id="Layer_1" data-name="Layer 1" xmlns="http://www.w3.org/2000/svg" viewBox="0 0 150 150">
  <defs>
    <style>
      .cls-1 {
        fill: #fff;
      }

      .cls-1, .cls-2 {
        stroke-width: 0px;
      }

      .cls-2 {
        fill: #ec1e25;
      }
    </style>
  </defs>
  <g>
    <path class="cls-2" d="M74.93,102.24c-24.02,0-48.03-.03-72.05.05-2.19,0-2.89-.44-2.88-2.77.11-16.35.11-32.7,0-49.05-.02-2.34.69-2.77,2.88-2.77,48.13.06,96.26.06,144.39,0,2.1,0,2.75.41,2.73,2.62-.1,16.45-.1,32.89,0,49.34.01,2.22-.64,2.63-2.73,2.62-24.11-.08-48.22-.05-72.34-.05Z"/>
    <path class="cls-1" d="M129.5,64.03c.02-1.19,1.1-2.27,2.27-2.27,1.17,0,2.36,1.2,2.32,2.35-.05,1.19-1.13,2.18-2.35,2.17-1.24-.02-2.26-1.04-2.24-2.25ZM133.7,64.08c.01-1.06-.81-1.91-1.87-1.94-1.04-.03-1.95.8-1.99,1.82-.04,1.05.89,2.01,1.94,2.02,1.03,0,1.91-.87,1.92-1.9Z"/>
    <path class="cls-1" d="M131.11,62.87h.66c.23,0,.4.06.52.17s.17.26.17.46-.06.35-.17.46c-.12.11-.29.17-.52.17h-.52v.95h-.15v-2.2ZM131.78,63.99c.2,0,.34-.05.42-.14.08-.09.12-.21.12-.36s-.04-.27-.12-.36c-.08-.09-.22-.14-.42-.14h-.52v.99h.52ZM131.85,64.06h.17l.54,1.02h-.18l-.53-1.02Z"/>
  </g>
  <g>
    <path class="cls-1" d="M24.32,65.32l4.98,14.05,4.95-14.05h5.24v19.37h-4v-5.29l.4-9.14-5.23,14.43h-2.74l-5.21-14.42.4,9.13v5.29h-3.99v-19.37h5.21Z"/>
    <path class="cls-1" d="M49.64,74.04l4.03-8.73h4.36l-6.36,12.34v7.02h-4.06v-7.02l-6.36-12.34h4.38l4,8.73Z"/>
    <path class="cls-1" d="M76.63,79.6c0-.75-.27-1.33-.8-1.74s-1.49-.83-2.87-1.28c-1.38-.45-2.48-.89-3.29-1.32-2.2-1.19-3.3-2.79-3.3-4.8,0-1.05.29-1.98.88-2.8.59-.82,1.44-1.46,2.54-1.92,1.1-.46,2.34-.69,3.72-.69s2.62.25,3.7.75c1.08.5,1.92,1.21,2.52,2.12.6.91.9,1.95.9,3.11h-3.99c0-.89-.28-1.58-.84-2.07-.56-.49-1.34-.74-2.35-.74s-1.73.21-2.28.62-.81.96-.81,1.63c0,.63.32,1.16.95,1.58s1.57.82,2.8,1.2c2.27.68,3.92,1.53,4.96,2.54,1.04,1.01,1.56,2.27,1.56,3.78,0,1.68-.63,2.99-1.9,3.94-1.27.95-2.97,1.43-5.12,1.43-1.49,0-2.85-.27-4.07-.82-1.22-.55-2.16-1.29-2.8-2.24-.64-.95-.96-2.05-.96-3.3h4c0,2.14,1.28,3.21,3.83,3.21.95,0,1.69-.19,2.22-.58s.8-.92.8-1.62Z"/>
    <path class="cls-1" d="M90.85,84.68h-3.99v-19.37h3.99v19.37Z"/>
    <path class="cls-1" d="M101.81,81.48h8.47v3.21h-12.46v-19.37h3.99v16.16Z"/>
    <path class="cls-1" d="M130.9,75.44c0,1.91-.34,3.58-1.01,5.01s-1.64,2.55-2.89,3.33-2.69,1.17-4.32,1.17-3.04-.39-4.3-1.16c-1.26-.77-2.23-1.87-2.93-3.31-.69-1.43-1.04-3.08-1.05-4.94v-.96c0-1.91.34-3.58,1.03-5.03.69-1.45,1.66-2.56,2.91-3.34s2.69-1.16,4.3-1.16,3.05.39,4.3,1.16,2.23,1.89,2.91,3.34c.69,1.45,1.03,3.12,1.03,5.02v.86ZM126.85,74.56c0-2.03-.36-3.57-1.09-4.63-.73-1.06-1.76-1.58-3.11-1.58s-2.37.52-3.1,1.56c-.73,1.04-1.1,2.57-1.1,4.58v.94c0,1.98.36,3.51,1.09,4.6.73,1.09,1.77,1.64,3.14,1.64s2.37-.53,3.09-1.58c.72-1.05,1.08-2.58,1.09-4.6v-.94Z"/>
  </g>
</svg>