<?xml version="1.0" encoding="UTF-8"?>
<svg id="Layer_1" data-name="Layer 1" xmlns="http://www.w3.org/2000/svg" viewBox="0 0 76.55 8.69">
  <defs>
    <style>
      .cls-1 {
        fill: #080b10;
      }

      .cls-1, .cls-2 {
        stroke-width: 0px;
      }

      .cls-2 {
        fill: #000006;
      }
    </style>
  </defs>
  <path class="cls-2" d="m38.26,2.88c0,1.63-.04,3.26.02,4.89.02.64-.29.6-.73.62-.49.02-.71-.06-.7-.64.04-2.3,0-4.6.03-6.9,0-.27-.23-.75.25-.77.48-.02,1.07-.31,1.45.37.88,1.54,1.74,3.02,2.69,4.53.93-1.57,1.83-3.04,2.72-4.58.13-.25.3-.34.59-.35.98-.02.98-.04.98.96,0,2.28-.03,4.55.02,6.83.02.72-.41.53-.78.54-.39.02-.72.08-.7-.55.05-1.65.02-3.3-.11-4.99-3.58,5.71-2.03,5.89-5.61.04-.04,0-.08,0-.12.01Z"/>
  <path class="cls-1" d="m65.99,8.37c-.46,0-.82-.02-1.17,0-1.11-.2-1.33-1.96-2-2.79-.56-.83-1.88-.19-2.74-.41-.91.05-.25,2.03-.43,2.72,0,.31-.02.48-.42.49-1.03,0-1.02.03-1.02-.99.27-1.16-.65-7.65.58-7.31,2.25.3,6.17-.91,7.01,1.91.29,1.12-.18,2.11-1.4,2.8-.35.2-.28.34-.12.62.57.95,1.11,1.91,1.72,2.95Zm-4.48-4.46v-.02c1.07.05,2.9.18,2.92-1.28,0-.64-.53-1.19-1.29-1.25-.95.1-2.72-.36-3.39.11-.33.4-.08,1.26-.12,1.91-.11.97,1.29.35,1.88.52Z"/>
  <path class="cls-1" d="m.01,4.19c0-1.23,0-2.46,0-3.69C0,.23,0,.03.39.04c2.43.22,7.12-.98,7.31,2.6-.08,2.85-3.63,2.63-5.72,2.54-1.07-.04-.38,2.03-.55,2.76.03.68-.46.41-.75.42-.28.01-.7.2-.68-.42.04-1.25.01-2.5.01-3.76Zm3.13-.28c1.18.03,3.08.18,3.13-1.27,0-.73-.63-1.28-1.55-1.3-.98-.02-3.48-.7-3.32.75-.12,1.84-.14,2.02,1.73,1.81Z"/>
  <path class="cls-2" d="m76.55,8.35c-.85-.11-1.65.31-2.2-.41-.9-1.15-1.83-2.27-2.73-3.41-.22-.28-.38-.36-.61-.04-1.26.76-1.59,1.89-1.36,3.25.1.66-.27.64-.75.65-.51.01-.7-.09-.69-.65.04-2.37.04-4.74,0-7.1-.01-.68.35-.58.76-.59,1.32-.37.45,3.07.7,4.11,2.13-1.42,3.27-4.57,6.05-4.05-.49.76-3.79,2.86-3.04,3.49,1.27,1.54,2.53,3.1,3.88,4.77Z"/>
  <path class="cls-1" d="m25.83,3.14c.56,3.72-1.37,6.52-5.34,5.24-3.24-1.19-1.73-5.2-2.09-7.82-.02-.62.35-.51.7-.5,2.29-.44-1.38,7.56,2.98,7.34,4.45.29.88-7.56,2.99-7.34.33.03.81-.21.77.49-.05.86-.01,1.73-.01,2.6Z"/>
  <path class="cls-1" d="m16.96,8.31c-2.66.82-1.37-2.35-3.57-2.17-.79.08-1.6.05-2.4,0-.75-.11-.8.57-1.06,1.07q-.54,1.25-1.99,1.11c5.11-11.03,3.86-11.04,9.01-.02Zm-6-3.38h2.88c-.48-1.08-.93-2.11-1.44-3.26-.51,1.16-.97,2.19-1.44,3.26Z"/>
  <path class="cls-2" d="m56.39,8.34c-2.75.65-1.34-2.4-3.65-2.2-.79.1-1.6.05-2.39,0-1.64.23-.43,2.88-2.97,2.16,5.18-11.13,3.82-11,9.02.03Zm-6.01-3.43h2.9c-.48-1.08-.93-2.1-1.44-3.25-.52,1.16-.98,2.18-1.46,3.25Z"/>
  <path class="cls-1" d="m28.55,4.17c0-1.21.03-2.42-.01-3.62-.02-.62.35-.52.7-.5.34.02.79-.19.78.5-.03,1.94.02,3.87-.03,5.81-.24,1.44,3.62.51,4.63.73.52-.02.55.22.52.6-.02.34.13.71-.5.7-1.85-.04-3.7-.03-5.55,0-1.12.08-.3-3.32-.54-4.21Z"/>
</svg>