<?xml version="1.0" encoding="UTF-8"?>
<svg id="Layer_1" data-name="Layer 1" xmlns="http://www.w3.org/2000/svg" viewBox="0 0 66.57 10.65">
  <defs>
    <style>
      .cls-1 {
        fill: #345e8c;
        stroke-width: 0px;
      }
    </style>
  </defs>
  <g>
    <path class="cls-1" d="m14.72.8c-1.75-1.22-4.41-1.04-5.84.58-1.13,1.27-.75,3.4.68,4.3,1.88,1.4,5.08,1.09,6.18-1.09.66-1.3.19-3.02-1.03-3.8Zm-.08,3.28c-1.19,2.29-6.28,1.28-5.03-1.62,1.18-2.28,6.28-1.27,5.03,1.62Z"/>
    <path class="cls-1" d="m22.3,4.04s-.01-.03,0-.03c2.15.01,2.62-2.83.75-3.71-.39-.33-5.06-.11-5.6-.17-.03,0-.05.02-.05.05v6.15c-.1.11,1.07.03,1.13.05.03,0,.05-.02.05-.05v-2.28s.02-.05.05-.05h2.1s.02,0,.03.02l2.16,2.35s.02.02.03.02h1.39s.06-.05.03-.07l-2.1-2.29Zm-3.66-1.21s-.05-.02-.05-.05v-1.4s.02-.05.05-.05h3.64c.96.06,1.07,1.53,0,1.5,0,0-3.64,0-3.64,0Z"/>
    <path class="cls-1" d="m31.84.8c-1.75-1.22-4.41-1.04-5.84.58-1.13,1.27-.75,3.4.68,4.3,1.88,1.4,5.08,1.09,6.18-1.09.66-1.3.19-3.02-1.03-3.8Zm-.08,3.28c-1.19,2.29-6.28,1.28-5.03-1.62,1.18-2.28,6.28-1.27,5.03,1.62Z"/>
    <path class="cls-1" d="m40.78,3.34c-1.28-.87-3.36-.43-4.68-.78-1.27-.41-.33-1.22.63-1.29,1.26-.22,3.04-.05,4.17.64,0,0,0,0,.01,0,.04.02.07,0,.06-.05l-.09-1.28s0-.03-.03-.03c-1.79-.87-7.46-1.09-6.39,2.19,1.13,1.83,3.99.66,5.6,1.56.33.32.04.64-.43.82-1.48.47-3.73.17-5.09-.57-.04-.02-.07,0-.07.05l.13,1.32s0,.02.03.03c1.84.61,4.66,1.06,6.3-.26.75-.67.67-1.86-.16-2.38Z"/>
    <path class="cls-1" d="m50.07,2.68h-3.86c-.14-.08-.04.83-.07,1.11,0,.05.02.07.07.07h2.67s.07.02.07.07c-.02.06.05.96-.05.95-1.21.59-2.72.64-3.97.07-1.42-.53-1.49-2.4-.24-3.18,1.32-.88,3.46-.66,4.78-.14.04.02.11,0,.1-.06l-.07-1.24s-.02-.05-.05-.06c-1.98-.43-4.61-.55-6.12,1.13-1.64,1.9-.34,4.52,2.01,4.95,1.59.44,3.44.08,4.76-.8.03-.03.04-.06.04-.09v-2.71s-.02-.07-.07-.07Z"/>
    <path class="cls-1" d="m55.59.14h-1.29s-.04.01-.06.03l-3.07,6.13s0,.11.06.1c.02-.02,1.28.05,1.24-.04l.52-1.03s.03-.03.05-.03h3.81c.06-.06.55,1.05.58,1.07-.04.1,1.21.02,1.24.04.05,0,.08-.06.06-.1,0,0-3.08-6.13-3.08-6.13-.01-.02-.03-.03-.06-.03Zm.68,3.96s-.02.02-.04.02h-2.58s-.05-.02-.03-.06l1.31-2.59s.03-.03.04,0l1.3,2.59s.01.02,0,.04Z"/>
    <path class="cls-1" d="m6.4.14H0v1.05s3.02,0,3.03,0c.02,0,.03,0,.03.03v5.14s.01.05.04.05h1.09s.04-.02.04-.05V1.21s0-.03.03-.03c.03.01,3,0,3.03,0V.14h-.9Z"/>
    <path class="cls-1" d="m66.15,5.22h0s-4.29,0-4.29,0c-.03,0-.05-.05-.03-.07l4.42-3.72s.03-.03.03-.05V.2s-.02-.07-.07-.07h-6.47v1.18c.12,0,4.45,0,4.71,0,.03,0,.05.05.03.07l-4.68,3.94s-.03.02-.03.05v.96s.02.07.07.07h6.73v-1.19h-.42Z"/>
  </g>
  <path class="cls-1" d="m20.31,10.65c-2.31,0-4.46-.81-5.76-2.16l.8-.77c2.17,2.44,7.96,2.38,10.03-.12l.83.74c-1.28,1.45-3.49,2.31-5.9,2.31Z"/>
</svg>