<?xml version="1.0" encoding="UTF-8"?>
<svg id="katman_1" data-name="katman 1" xmlns="http://www.w3.org/2000/svg" viewBox="0 0 285.92 128.26">
  <defs>
    <style>
      .cls-1 {
        fill: #575856;
      }

      .cls-1, .cls-2 {
        stroke-width: 0px;
      }

      .cls-2 {
        fill: #0da5d1;
      }
    </style>
  </defs>
  <path class="cls-1" d="m223.29,79.9c.69-.61,1.19-1.06,1.69-1.51,14.04-12.72,28.09-25.44,42.11-38.18.57-.52,1.12-.76,1.91-.76,5.26.04,10.53.02,15.79.02.35,0,.69,0,1.07,0-.08.46-.4.6-.62.8-11.01,9.85-22.02,19.69-33.03,29.53-1,.89-1.03.67-.02,1.64,10.77,10.26,21.55,20.52,32.32,30.78.41.39.81.78,1.41,1.36h-1.2c-5.26,0-10.53-.01-15.79.02-.75,0-1.26-.24-1.78-.76-7.88-7.86-15.77-15.71-23.67-23.55-.95-.94-.67-1.02-1.73-.06-5.93,5.32-11.85,10.64-17.79,15.94-.47.42-.68.84-.67,1.47.03,2.05.02,4.1,0,6.15,0,.77-.02.79-.77.79-3.71,0-7.43,0-11.14,0-.78,0-.78-.02-.8-.77,0-.14,0-.29,0-.43,0-20.51,0-41.03,0-61.54,0-1.58-.16-1.37,1.39-1.37,3.43,0,6.85,0,10.28,0,1.1,0,1.05-.07,1.05,1.06,0,12.6,0,25.19,0,37.79v1.58Z"/>
  <path class="cls-1" d="m70.08,63.32c0,7.34.02,14.69-.01,22.03-.01,2.23-.31,4.45-.82,6.63-1.41,6.06-5.13,9.74-11.26,10.95-2.02.4-4.06.65-6.12.65-11.25.01-22.5.01-33.75,0-2.28,0-4.53-.29-6.75-.82-5.43-1.28-8.81-4.65-10.28-9.97C.26,89.78,0,86.7,0,83.59c0-8.46,0-16.92,0-25.38,0-5.76,0-11.52,0-17.28,0-.22,0-.43,0-.65.02-.81.02-.82.85-.83,3.61,0,7.21,0,10.82,0,.85,0,.85.01.86.92,0,2.02,0,4.03,0,6.05,0,12.27,0,24.55,0,36.82,0,1.27.11,2.51.43,3.74.58,2.18,2,3.44,4.21,3.82.74.13,1.5.21,2.26.21,10.39,0,20.77,0,31.16,0,1.01,0,2.01-.11,2.99-.38,1.7-.47,2.8-1.55,3.36-3.21.45-1.35.59-2.74.59-4.15,0-7.49,0-14.97,0-22.46,0-6.62,0-13.25,0-19.87,0-.14,0-.29,0-.43,0-1.15-.03-1.05,1.05-1.06,3.5,0,7,0,10.49,0,1.03,0,1.04,0,1.04,1.07,0,7.59,0,15.19,0,22.78,0,0-.02,0-.03,0Z"/>
  <path class="cls-1" d="m76.89,71.57c0-10.22,0-20.44,0-30.66,0-.25.02-.51,0-.76-.04-.49.13-.7.67-.7,3.79.02,7.57.01,11.36,0,.47,0,.65.18.62.64-.02.29,0,.58,0,.86,0,16.09,0,32.17,0,48.26q0,1.67,1.72,1.67c15,0,30,0,45,0,.18,0,.36,0,.54,0,1.05,0,1.06,0,1.06,1.05,0,3.49,0,6.98,0,10.47,0,1.36.12,1.17-1.24,1.17-13.16,0-26.32,0-39.48,0-6.31,0-12.62,0-18.93,0-.18,0-.36,0-.54,0q-.74-.02-.77-.81c0-.25,0-.5,0-.76,0-10.15,0-20.3,0-30.45Z"/>
  <path class="cls-2" d="m141.08,103.16c-.07-.5.19-.91.36-1.33,6.89-17.64,13.79-35.29,20.7-52.93,3.71-9.47,7.42-18.94,11.14-28.41.1-.26.12-.57.44-.69,0,.36.03.72.03,1.08,0,15.32,0,30.64,0,45.96-1.57,1.53-2.96,3.23-4.43,4.86-3.43,3.79-6.82,7.61-10.22,11.41-4.55,5.09-9.1,10.2-13.67,15.28-1.44,1.6-2.82,3.26-4.36,4.77h.01Z"/>
  <path class="cls-1" d="m173.75,66.83c0-15.32,0-30.64,0-45.96,0-.36-.02-.72-.03-1.08,0,0,.04-.03.04-.02,0,0,.06.03.06.03l.04-.05c1.76,4.45,3.52,8.89,5.26,13.34,8.28,21.16,16.56,42.32,24.84,63.48.81,2.08,1.62,4.15,2.43,6.23-.12.01-.24.03-.35.04-6.53-7.29-13.06-14.59-19.59-21.88-4.23-4.72-8.46-9.43-12.69-14.14Z"/>
  <path class="cls-2" d="m177.86,23.46c-1.34-3.39-2.67-6.78-4-10.16-.08,0-.17-.01-.25-.02-1.45,3.33-2.72,6.73-4.16,10.07-2.56-1.23-4.66-4.82-3.79-8.71.8-3.55,3.85-6.42,8.03-6.44,4.12-.03,7.22,2.81,8.06,6.26.87,3.56-.75,7.4-3.89,9Z"/>
  <path class="cls-1" d="m150.94,31.76c-9.16-7.98-9.48-23.4-.05-31.76.72.68,1.41,1.4,2.06,2.21-1.18,1.16-2.23,2.39-3.09,3.77-4.48,7.17-3.53,16.61,2.3,22.74q.82.86.02,1.72c-.41.44-.83.88-1.24,1.32Z"/>
  <path class="cls-1" d="m196.74,31.75c-.69-.57-1.26-1.27-1.87-1.91-.2-.2-.14-.38.04-.55.15-.15.31-.3.45-.46,6.91-7.24,6.95-18.46.1-25.78-.82-.87-.82-.88-.02-1.72.42-.44.79-.93,1.29-1.28,9,7.84,9.5,23.21,0,31.72Z"/>
  <path class="cls-1" d="m89.58,117.99c-.48.5-.5,1.12-.64,1.69-.38,1.54-.74,3.08-1.05,4.63-.12.6-.31.85-.97.84-1.37-.03-1.37.01-1.67-1.31-.37-1.61-.74-3.23-1.11-4.84-.07-.3-.17-.6-.31-1.07-.21.48-.16.79-.16,1.09,0,1.73,0,3.45,0,5.18,0,.92,0,.92-.96.92-.36,0-.72.06-1.07-.06-.19-.3-.12-.63-.12-.95,0-2.84,0-5.69,0-8.53,0-1.16.06-.95,1.02-.96.32,0,.65,0,.97,0q1.22,0,1.5,1.24c.44,1.93.88,3.86,1.31,5.78.07.31.09.64.4.94.52-2.32,1.02-4.6,1.53-6.88.05-.21.09-.42.14-.63.07-.34.27-.46.62-.45.65.02,1.3,0,1.95,0,.76.01.77.02.78.79,0,2.41,0,4.82,0,7.23,0,.61-.02,1.22,0,1.84.01.44-.11.64-.6.66-1.55.08-1.55.1-1.55-1.44,0-1.91,0-3.81,0-5.72Z"/>
  <path class="cls-1" d="m30.04,119.62c.2.16.37.29.54.42.86.7,1.2,1.61.96,2.69-.25,1.1-.94,1.85-2.02,2.18-.38.11-.78.19-1.17.2-1.51.03-3.02,0-4.53.03-.48,0-.62-.18-.62-.63.01-3.09.01-6.18,0-9.27,0-.47.18-.63.64-.62,1.48.02,2.95-.02,4.43.03,1.18.04,2.18.48,2.76,1.58.53,1.01.39,1.94-.41,2.76-.17.18-.42.27-.56.63Zm-3.01,3.67c.43,0,.86.04,1.29,0,.83-.1,1.23-.57,1.21-1.35-.02-.74-.4-1.22-1.17-1.28-.85-.07-1.72-.03-2.58-.03-.31,0-.45.16-.44.47,0,.18,0,.36,0,.54.04,1.98-.31,1.67,1.69,1.67Zm-.05-6.88c-1.91.04-1.61-.33-1.64,1.77,0,.07,0,.14,0,.22,0,.26.13.41.38.42.9.02,1.8.11,2.68-.1.58-.14.83-.52.82-1.11,0-.58-.26-.91-.86-1.08-.46-.13-.93-.11-1.39-.11Z"/>
  <path class="cls-1" d="m74.87,126.42c-.09-.34.23-.55.19-.83-.04-.14-.13-.17-.24-.19-.5-.08-.99-.21-1.45-.4-1.05-.44-1.65-1.24-1.89-2.33-.13-.58-.06-.66.58-.69.22,0,.43.01.65,0,.48-.04.81.05.93.62.09.43.46.72.89.88.84.32,1.69.34,2.53.03.56-.2.89-.6.89-1.22,0-.58-.31-.93-.8-1.17-.56-.27-1.18-.32-1.77-.47-.63-.15-1.27-.26-1.89-.45-1-.3-1.74-.89-1.86-2-.13-1.22.1-2.3,1.19-3.04,1.39-.96,4.19-.95,5.57.02.69.48,1.07,1.15,1.22,1.96.07.41.02.73-.53.67-.18-.02-.36-.02-.54,0-.5.05-.87-.02-1.06-.61-.37-1.19-2.65-1.27-3.41-.63-.66.56-.57,1.47.2,1.87.52.27,1.1.34,1.66.46.7.15,1.42.27,2.11.47,1.14.33,1.87,1.06,1.98,2.29.11,1.32-.26,2.42-1.48,3.12-.57.33-1.2.48-1.84.58-.21.03-.43.04-.64.07-.16.02-.27.12-.29.27-.02.18.12.23.28.24.11,0,.22.01.32.02.43.05.76.26.86.7.1.44.01.86-.35,1.18-.55.5-2.64.56-3.22.09-.13-.11-.13-.24-.09-.39.05-.2.16-.33.38-.28.24.06.48.17.72.23.32.08.64.11.95-.03.21-.09.37-.24.36-.48,0-.25-.16-.4-.39-.46-.24-.06-.49-.08-.72-.12Z"/>
  <path class="cls-1" d="m124.65,126.42c-.13-.36.28-.59.14-.95-.47-.13-.97-.22-1.44-.39-1.18-.42-1.89-1.27-2.14-2.5-.08-.41.03-.62.48-.6.36.02.72,0,1.08,0,.29,0,.42.12.55.39.63,1.31,2.53,1.8,3.77,1.01.87-.55.83-1.7-.07-2.2-.35-.19-.73-.28-1.13-.36-.85-.17-1.7-.33-2.53-.57-1.35-.4-1.91-1.06-2-2.23-.11-1.48.43-2.56,1.67-3.1,1.57-.67,3.17-.64,4.72.05.96.43,1.47,1.23,1.62,2.27.06.41-.08.61-.52.58-.29-.02-.58-.01-.87,0-.31.01-.5-.07-.66-.39-.58-1.13-1.94-1.57-3.11-1.08-.51.22-.83.59-.83,1.15,0,.53.34.84.82,1.03.78.3,1.61.37,2.42.57.39.09.78.15,1.16.27,1.13.35,1.88,1.05,1.99,2.28.11,1.27-.23,2.36-1.37,3.07-.62.39-1.32.56-2.04.65-.25.03-.51-.03-.73.14-.05.04-.1.11-.11.17,0,.1,0,.21.15.23.14.01.29.02.43.04.47.07.82.29.89.79.07.5-.08.92-.52,1.22-.58.39-2.51.37-3.05-.02-.18-.13-.14-.31-.08-.48.06-.15.17-.24.33-.2.21.06.41.14.61.21.35.11.71.15,1.06,0,.21-.08.38-.23.38-.47,0-.24-.14-.41-.37-.47-.24-.06-.49-.08-.72-.12Z"/>
  <path class="cls-1" d="m154.89,27.78c-6.87-6.19-7.07-17.36-.09-23.76.53.5,1.05,1.01,1.48,1.59-.12.36-.4.54-.62.77-4.92,5.35-4.96,13.46-.08,18.86q.79.87-.04,1.75c-.22.24-.41.5-.65.78Z"/>
  <path class="cls-1" d="m192.43,27.73c-.43-.45-.81-.88-1.22-1.29-.26-.26-.23-.47.03-.73.59-.59,1.12-1.22,1.59-1.91,3.76-5.54,3.24-12.57-1.3-17.5-.19-.21-.45-.37-.54-.69.41-.57.94-1.06,1.44-1.56,6.56,5.58,7.29,17.07,0,23.67Z"/>
  <path class="cls-1" d="m50.01,120.07c1.04.42,1.33,1.11,1.35,1.97,0,.39.07.79.07,1.18,0,.61-.02,1.22.61,1.8-.83.19-1.5.12-2.15.1-.42-.01-.51-.37-.53-.69-.04-.61-.04-1.22-.05-1.83-.02-1.3-.3-1.62-1.58-1.62-.72,0-1.61-.3-2.1.13-.52.44-.12,1.36-.19,2.06-.02.21.02.43,0,.65-.04.42.22.99-.16,1.21-.48.29-1.12.11-1.69.09-.17,0-.25-.13-.27-.28-.02-.21-.02-.43-.02-.64,0-2.87,0-5.75,0-8.62,0-.92.01-.93.95-.93,1.51,0,3.02-.02,4.53,0,2.07.03,3.18,1.32,2.92,3.35-.12.93-.68,1.55-1.69,2.08Zm-2.9-.92c.43,0,.86.03,1.29,0,.8-.06,1.13-.42,1.18-1.23.05-.89-.24-1.36-1.05-1.44-.85-.08-1.71-.04-2.57-.06-.35,0-.53.15-.51.51,0,.18,0,.36,0,.54q-.01,1.71,1.67,1.7Z"/>
  <path class="cls-1" d="m4.37,125.06q-2.15.19-2.15-1.83c0-2.59,0-5.18,0-7.77,0-.82.02-.84.84-.83,1.55,0,1.29-.18,1.31,1.31,0,.65.02,1.3,0,1.94,0,.42.09.68.59.67,1.01-.02,2.02-.02,3.03,0,.43,0,.57-.19.56-.58-.01-.86.02-1.73,0-2.59-.01-.52.11-.78.72-.76,1.71.05,1.46-.16,1.46,1.41.01,2.7,0,5.4,0,8.09,0,1.01,0,1.02-.99,1.01-1.22-.01-1.17.19-1.17-1.15,0-.97-.02-1.94,0-2.91.01-.49-.12-.73-.66-.71-.97.04-1.95.02-2.92,0-.46,0-.63.18-.62.63.02,1.33,0,2.66,0,4.06Z"/>
  <path class="cls-1" d="m33.65,119.84c0-1.51.01-3.02,0-4.53,0-.5.14-.7.67-.69,2.09.03,4.18.02,6.27,0,.52,0,.73.17.68.69-.02.14-.02.29,0,.43.06.5-.13.71-.66.7-1.15-.03-2.3,0-3.46,0-.25,0-.5.01-.76,0-.41-.02-.54.18-.58.58-.16,1.76-.14,1.8,1.63,1.8.94,0,1.87.02,2.81,0,.47-.01.67.17.61.63-.01.11,0,.22,0,.32,0,.84,0,.85-.82.85-1.12.01-2.23,0-3.35,0-.86,0-.88.02-.87.9.03,2.15-.3,1.76,1.72,1.8,1.08.02,2.16.02,3.24,0,.54-.01.82.14.75.73-.02.18-.02.36,0,.54.03.42-.18.57-.58.56-1.01-.01-2.02,0-3.02,0-1.15,0-2.3,0-3.46,0-.77,0-.79-.02-.8-.76-.01-1.51,0-3.02,0-4.53Z"/>
  <path class="cls-1" d="m62.43,119.83c0-1.51.01-3.02,0-4.53,0-.51.15-.69.68-.69,2.09.02,4.18.02,6.26,0,.53,0,.72.19.67.69-.01.14-.02.29,0,.43.06.51-.15.7-.67.69-1.15-.03-2.3,0-3.46,0-.25,0-.5.01-.76,0-.42-.02-.54.2-.57.59-.15,1.77-.15,1.79,1.64,1.79.94,0,1.87.01,2.81,0,.47-.01.65.19.6.64-.02.14-.02.29,0,.43.07.55-.15.77-.72.75-1.19-.04-2.38,0-3.56-.02-.53-.01-.81.12-.76.71.04.43.03.86,0,1.29-.05.59.23.73.76.72,1.37-.02,2.74-.02,4.1,0,.83,0,.83.02.84.84.01.96.01.97-.92.97-2.05,0-4.1,0-6.16,0-.76,0-.78-.02-.79-.78-.01-1.51,0-3.02,0-4.53Z"/>
  <path class="cls-1" d="m93.7,119.88c0-1.51.02-3.02-.01-4.53-.01-.57.2-.74.75-.73,2.05.02,4.11.02,6.17,0,.53,0,.72.19.67.69-.02.14-.02.29,0,.43.06.51-.14.71-.67.69-1.15-.03-2.31,0-3.46,0-.25,0-.51-.01-.76,0-.95.08-.49.81-.52,1.25-.03.41-.35,1.11.53,1.12,1.23.02,2.45,0,3.68,0,.77,0,.77.01.79.76,0,.14-.01.29,0,.43.04.46-.14.63-.61.62-1.23-.03-2.45.01-3.68-.02-.55-.01-.74.16-.75.73-.04,1.99-.06,1.99,1.98,1.99,1.01,0,2.02.02,3.03,0,.49-.01.76.11.7.66-.02.21-.01.43,0,.65.02.35-.11.52-.49.52-2.27-.01-4.54-.01-6.81,0-.45,0-.53-.23-.53-.61,0-1.55,0-3.1,0-4.64Z"/>
  <path class="cls-1" d="m12.05,125.03c.25-.7.46-1.3.67-1.9.91-2.57,1.84-5.14,2.73-7.72.18-.53.39-.82,1.05-.81,1.6.03,1.6-.02,2.14,1.52.89,2.58,1.79,5.15,2.69,7.73.09.27.19.54.27.82.1.33-.04.46-.37.46-.36,0-.72-.02-1.08,0-.43.03-.65-.13-.78-.55-.16-.51-.16-1.17-.59-1.47-.47-.32-1.12-.07-1.69-.12-.11,0-.22,0-.32,0-.57.02-1.22-.13-1.7.09-.52.24-.48.99-.68,1.51-.13.33-.27.57-.68.53-.5-.04-1,.06-1.64-.1Zm6.2-3.87c-.45-1.34-.85-2.53-1.32-3.97-.61,1.43-.97,2.67-1.39,3.97.93.11,1.74.1,2.71,0Z"/>
  <path class="cls-1" d="m106.73,125.03c-.13-.35.1-.63.2-.92,1.01-2.88,2.04-5.75,3.06-8.63.3-.85.31-.87,1.2-.86,1.81.03,1.36-.29,1.97,1.43.92,2.6,1.83,5.22,2.72,7.83.12.36.37.71.27,1.11-.12.13-.27.12-.41.13-1.58.07-1.61.08-2.09-1.4-.17-.53-.39-.77-.97-.74-.86.05-1.73.04-2.59,0-.48-.02-.69.18-.85.62-.62,1.7-.64,1.7-2.52,1.42Zm4.83-7.58c-.08,0-.16,0-.25.01-.4,1.22-.8,2.44-1.24,3.78.86,0,1.54,0,2.21,0,.4,0,.49-.2.37-.55-.37-1.08-.73-2.16-1.09-3.24Z"/>
  <path class="cls-1" d="m158.08,7.33c.13.1.23.15.3.23.39.42.97.8,1.1,1.3.15.56-.59.89-.92,1.33-2.76,3.62-2.56,8.6.53,11.98.58.64.63.58,0,1.27-1.04,1.15-1.03,1.15-2.02-.02-4.06-4.8-3.64-11.94,1.01-16.09Z"/>
  <path class="cls-1" d="m189.19,7.34c4.05,3.48,4.99,9.75,2.18,14.46-.5.84-1.09,1.6-1.77,2.3-.28.29-.52.36-.79.01-.02-.03-.05-.05-.08-.08-.33-.38-.82-.71-.95-1.15-.15-.53.52-.78.82-1.15,2.86-3.59,2.73-8.66-.34-12.08-.64-.71-.81-.54.02-1.43.29-.31.53-.68.91-.89Z"/>
  <path class="cls-1" d="m53.68,119.89c0-1.51.02-3.02-.01-4.53-.01-.55.16-.76.73-.75,1.68.04,1.41-.13,1.42,1.34.01,2.19,0,4.38,0,6.57,0,.76.02.78.78.79,1.15.01,2.3,0,3.46,0,.78,0,.78.02.8.76,0,.18,0,.36,0,.54.02.35-.12.52-.5.52-2.05-.01-4.1-.01-6.15,0-.45,0-.53-.24-.53-.61,0-1.54,0-3.09,0-4.63Z"/>
  <path class="cls-1" d="m188.32,15.74c.03,1.96-.65,3.64-2.01,5.05-.32.33-.57.4-.86,0-.12-.18-.28-.33-.41-.5q-.63-.77-.06-1.54c1.29-1.73,1.28-4.21-.13-5.89-.44-.52-.43-.82.03-1.22.03-.02.05-.05.07-.08q.99-1.18,1.96.08c.9,1.17,1.38,2.56,1.41,4.1Z"/>
  <path class="cls-1" d="m162.84,12.29c-1.89,2.1-2.09,4.8.02,7.2-.19.25-.39.5-.59.75-.91,1.1-.92,1.1-1.83-.06-2.1-2.66-1.97-6.52.31-9q.66-.72,1.27,0c.26.3.5.61.75.92.04.05.05.13.08.2Z"/>
  <path class="cls-1" d="m118.63,125.13c-1.02-.01-1.03.16-1.03-1.07,0-1.25.04-1.02,1.18-1.03.99,0,.98,0,.98,1.12,0,1.19-.08.96-1.13.98Z"/>
  <path class="cls-1" d="m132.26,125.13c-1,0-1.03.17-1.03-1.07,0-1.25.04-1.02,1.18-1.03.99,0,.98,0,.98,1.12,0,1.22-.11.95-1.13.98Z"/>
  <path class="cls-1" d="m206.04,102.85c.12-.01.24-.03.35-.04.07.14.27.36.07.43-.19.07-.35-.18-.43-.39Z"/>
  <path class="cls-1" d="m141.07,103.15s-.03.04-.05.06c.02-.02.04-.03.06-.05,0,0-.01-.01-.01-.01Z"/>
  <path class="cls-1" d="m173.85,19.75l-.04.05s-.06-.03-.06-.03c.02-.1.05-.15.1-.02Z"/>
</svg>