<?xml version="1.0" encoding="UTF-8"?>
<svg id="katman_1" data-name="katman 1" xmlns="http://www.w3.org/2000/svg" viewBox="0 0 755.64 935.44">
  <defs>
    <style>
      .cls-1 {
        fill: #252021;
      }

      .cls-1, .cls-2 {
        stroke-width: 0px;
      }

      .cls-2 {
        fill: #f10202;
      }
    </style>
  </defs>
  <g id="FuF4a9.tif">
    <g>
      <path class="cls-1" d="m350.98,935.44c.06-13.47.06-26.94.22-40.41.03-2.58-.81-3.34-3.38-3.54-13.8-1.07-27.45-3.23-40.93-6.34-3.12-.72-3.98.15-4.85,2.82-3.6,11.06-7.51,22.02-11.05,33.09-.99,3.1-1.82,4.17-5.38,2.91-14.42-5.12-28.96-9.89-43.51-14.65-2.64-.86-3.14-1.84-2.19-4.52,3.89-10.96,7.4-22.05,11.3-33,1.03-2.9.38-4.02-2.35-5.11-11.13-4.45-21.9-9.7-32.29-15.68-3.02-1.73-4.41-1.35-6.17,1.57-6.26,10.4-12.86,20.59-19.13,30.98-1.65,2.73-2.75,3.21-5.64,1.35-12.58-8.11-25.32-15.98-38.11-23.75-2.95-1.79-3.85-2.9-1.6-6.3,7.17-10.8,13.76-21.98,20.75-32.91,1.45-2.27,1.44-3.47-.75-5.23-10.66-8.55-20.72-17.78-30.09-27.73-1.7-1.8-2.8-2.01-4.79-.3-9.21,7.93-18.63,15.61-27.83,23.55-2.26,1.95-3.38,2-5.37-.41-9.73-11.82-19.57-23.56-29.62-35.11-2.31-2.66-1.68-3.76.67-5.68,9.28-7.59,18.32-15.46,27.61-23.03,2.54-2.07,3.04-3.54,1.01-6.4-30.34-41.79-6.28-41.25-58.29-19.34-3.61,1.68-4.65.74-6-2.49-5.76-13.8-11.69-27.53-17.77-41.19-1.28-2.87-1.11-4.1,2.02-5.38,11.38-4.67,22.58-9.77,33.95-14.47,3.22-1.33,4.16-2.55,2.92-6.2-4.23-12.44-7.65-25.16-9.82-38.11-.77-4.59-2.62-5.03-6.5-4.68-10.28.93-20.6,1.41-30.89,2.23-2.74.22-3.77-.48-3.95-3.39-.91-14.61-1.97-29.21-3.14-43.81-.24-2.96.39-3.92,3.62-3.98,28.98-.54,57.96-1.21,86.93-2.06,19.15,228.96,275.87,371.04,465.6,213.88,64.96-52.66,100.25-127.59,103.87-211.04.11-2.76.83-3.71,3.73-3.61,29.47,1,58.94,1.88,88.42,2.73,2.29.07,3.66.22,3.4,3.24-1.3,14.92-2.46,29.84-3.42,44.78-.19,3.01-1.3,3.45-3.9,3.25-10.46-.81-20.94-1.33-31.39-2.26-3.01-.27-3.99.54-4.52,3.46-8.53,56.16-28.45,35.86,25.81,60.09,2.77,1.15,3.29,2.16,2.01,5.02-6.18,13.8-12.26,27.65-17.98,41.65-1.53,3.74-2.96,3.61-6.11,2.19-10.6-4.8-21.38-9.2-31.99-13.99-2.96-1.34-4.52-1.28-6.11,1.92-5.63,11.33-12.2,22.13-19.5,32.45-2.06,2.91-1.13,4.15,1.08,5.97,9.11,7.53,18.07,15.25,27.21,22.74,2.24,1.84,2.79,2.91.62,5.41-10.03,11.57-19.92,23.26-29.61,35.11-2.21,2.7-3.44,2.32-5.73.34-8.68-7.52-17.62-14.74-26.24-22.33-2.5-2.2-3.83-2-6,.29-37.54,40.91-40.6,14.42-10.12,65.09,1.55,2.44,2.06,3.79-1.04,5.66-13.12,7.88-26.08,16.02-38.98,24.25-2.56,1.63-3.65,1.53-5.27-1.17-6.26-10.4-12.89-20.57-19.18-30.95-1.6-2.64-2.7-3.3-5.66-1.62-12.15,6.92-24.79,12.87-37.83,17.91-2.83,1.09-3.36,2.32-2.52,5.16,3.52,11.78,6.71,23.67,10.25,35.45.87,2.9.46,3.98-2.6,4.81-14.77,4.03-29.48,8.25-44.16,12.58-2.89.85-4.02.3-4.82-2.67-15.91-51.47.74-36.62-49.77-32.97-2.52.18-3.46.91-3.43,3.51.18,13.46.2,26.93.28,40.39h-53.99Z"/>
      <path class="cls-2" d="m508.91,735.46c.83-2.5,1.62-4.92,2.58-7.81-28.74,4.98-7.44,19.31-41.5,29.56,3.03-5.77,6.07-11.53,9.43-17.94-17.87,1.17-18.1,7.13-26.7,20.92-4.07,9.41-12.52,9.27-21.47,10.76,5.11-8.4,9.73-16.01,14.88-24.49-5.83,1.69-17.97-.05-19.66,5.25-4.62,7.29-9.28,14.56-13.73,21.96-4.02,5.62-12.38,2.27-19.01,3.82,5.31-8.85,10.23-17.05,15.52-25.86-27.33-.18-16.41-2.44-33.98,21.84-3.63,6.97-11.86,3.17-18.13,4.03-3.37.07-3.67-1-1.83-3.61,4.69-6.65,9.26-13.4,13.88-20.11.55-.79,1.38-1.48,1.02-2.9-6.02.7-18.61-4.13-21.99,1.52-4.86,6.54-9.84,12.99-14.66,19.55-3.21,5.4-9.28-.28-14.03.05-4.78-.48-3.48-2.32-1.45-4.77,4.45-5.39,8.8-10.85,13.18-16.3q3.61-4.49-2.12-6.03c-7.22-1.75-11.24-6.02-17.08,1.16-4.52,4.87-9.87,8.96-14.44,13.77-18.63,10.89-86.74-47.31-97.52-65.4-69.37-86.57-64.19-218.75,14.23-297.49,21.3-17.68,36.83-39.06,42.04-66.86,1.46-86.29,0-172.76.9-259.1,1.15-24.18-15.63-42.96-24.58-64.23-2.28,1.13-1.54,2.82-1.54,4.17-.05,14.48.02,28.96-.08,43.44-.02,2.57.44,4.12,3.12,5.27,5.34,2.31,8.19,6.74,8.19,12.58,0,15.98-.17,31.95-.25,47.93.39,4.39-5.13,3.94-4.24-.3-.01-11.64,0-23.25,0-34.89-5.56.45-7.29,3.01-7.08,8.55.5,13.13.17,26.29.1,39.44,0,1.65.85,4.29-1.87,4.31-2.67.02-1.96-2.64-2-4.3-.29-12.48-.99-24.98-.52-37.43.25-6.78-1.95-10.31-9.28-11.59,0,10.84.04,21.61-.04,32.39-.01,1.8.87,4.7-2.01,4.79-3.07.09-2.68-2.9-2.67-4.94.08-14.15.28-28.29.39-42.44-.29-15.2,14.02-11.48,13.2-20.09-.14-16.14.06-32.29-.17-48.43-.05-3.83,1.29-4.1,4.71-4.73,12.13-2.2,18.51,3.16,23.52,13.79,6.04,15.24,18.47,28.17,22.96,43.8-.39,91.38-.68,182.75-1.11,274.13-.09,19.98-8.91,36.79-20.21,52.55-48.83,52.83-84.99,120.02-77.03,194.2,7.06,76.65,94,195.78,165.13,114.53,58.54-63.47,73.39-160.58,31.16-236.83-10.84-20.52-26.14-37.6-43.22-53.13-10.65-9.69-18.98-20.73-22.4-35.11-9.81-41.23,19.05-72.33,52.46-77.34,18.73-2.81,36.29,2.02,53.58,8.33,41.09,15.07,82.89,28.18,124.07,42.91,34.49,11.94,26.14,60.06-10.63,60.09-49.65-.18-99.3-.15-148.95-.54-16.13-.13-30.35-5.56-40.88-18.46-28.76-36.92,9.84-85.27,50.53-69.35,34.91,9.43,35.19,63.59-1.42,66.93-28.56,5.99-52.02-34.23-20.23-47.59,19.53-6.34,32.25,10.96,17.45,26.1-3.68,4.58-11.09-1.22-7.14-5.82,1.86-2.55,4.99-5.36,3.14-8.78-1.42-2.52-4.01-1.89-6.31-1.69-8.21.73-11.25,3.63-12,11.39-.02,21.89,34.72,20.24,40.69,2.78,5.22-11.82,1.32-23.26-10.14-30.45-47.45-25.37-74.43,40.58-31.6,61.3,32.43,10.98,63.69-2.26,64.06-42.59.16-17.18-8.43-29.98-23.73-37.41-52.15-29.96-112.13,32.92-70.79,81.78,12.8,15.1,29.27,23.11,49.31,23.12,50.82.03,101.64,0,152.46.09,5.71,0,10.93-1.07,15.13-5.1,87.47,86.9,64.25,258.65-39.57,327.34Zm17.84-122.84c-2.85,5.54-10.75,8.78-7.32,14.96,4.11,7.19,8,14.52,11.68,21.94,1.57,3.17,2.5,2.53,4.3.29,34.08-43.1,27.36-19.98,4.82-72.49-1.4-2.84-1.29-4.99.28-7.79,6.8-12.15,13.26-24.51,19.99-36.7,1.28-2.31,1.44-3.92-.14-6.24-9.06-12.43-15.94-26.14-25.91-37.88-3.57,6.89-7,13.5-10.43,20.11-6.29,11.44-5.77,13.17,3.62,22.12,3.24-5.5,6.23-10.65,9.47-16.28q9.67,12.93,3.51,26.65c-3.18,7.24-6.1,13.53-9.59,21-9.23-13.61-17.94-26.54-26.78-39.37-1.34-1.94-.56-3.28.21-4.96,5.23-11.28,10.24-22.66,15.71-33.82,1.51-3.08,1.25-4.84-.99-7.28-15.31-16.84-30.28-34.02-45.52-50.93-6.93,16.5-10.09,34.85-15.99,51.93-.86,2.83-.32,4.55,1.41,6.69,9.07,11.28,17.96,22.69,26.97,34.01,1.43,1.8,2.33,3.24.94,5.69-6.88,12.1-13.55,24.32-20.54,36.93-6.98-8.11-13.69-15.9-20.4-23.69-3.11-4.1,4.92-12.48,6.41-17.6,3.28,3.85,6.18,7.25,9.07,10.65,5.05,5.94,5.18,6.02,9.31-.52.98-1.55,3.86-2.95,1.89-5.53-7.4-9.7-14.86-19.36-22.81-29.69-5.86,14.4-11.37,28.02-16.96,41.61-.82,2,.35,3.08,1.36,4.37,7.54,9.52,14.94,19.15,22.68,28.5,2.3,2.78,2.22,4.36-.14,7.02-9.73,10.94-19.18,22.13-28.79,33.17-1.64,1.89-2.52,3.42-1.09,6.07,5.21,9.63,10.22,19.36,15.09,29.16,1.5,3.01,2.64,2.45,4.5.5,5.75-6.01,11.6-11.94,17.41-17.89,6.32-6.48,6.15-6.38,1.85-14.18-1.78-3.24-2.79-2.1-4.46-.2-4.13,4.69-8.35,9.3-12.71,14.14-2.72-4.46-6.95-8.39-7.03-12.39-.08-4.1,5.32-7.17,8.15-10.83,5.55-6.55,10.89-12.56,16.63-19.32,7.09,11.76,13.69,22.89,20.52,33.88,1.62,2.6.33,3.81-1.26,5.44-10.69,10.97-21.26,22.05-32.03,32.94-5.06,4.94,2.93,19.41,3.45,26.36,2.84,11.17,5.71,22.34,8.58,33.54,17.85-13.94,34-30.84,51.41-45.65,2.1-1.87,1.35-3.42.75-5.22-15.96-52.98-22.69-34.16,12.71-78.82,4.81,10.66,9.29,20.61,13.8,30.53,1.52,3.74-7.33,9.88-9.63,13.79-2.95-7.31-4.77-11.62-7.95-18.73Z"/>
      <path class="cls-2" d="m330.46,652.78c-4.51,35.96-72.89,36.35-83.39,4.33-3.64-10.97,22.12,2.81,20.2-9.76-.16-68.05-.26-136.15-.06-204.18-.1-3.82,5.31-4.32,4.96.03.04,67.9.06,135.79-.1,203.69-.49,6.66,3.43,6.16,8.52,5.9,4.25.73,5.53-.69,5.52-5.25-.17-73.89-.13-147.78-.06-221.66,0-2.38-1.39-6.39,2.38-6.5,4.06-.12,2.5,3.98,2.5,6.28.08,73.89.06,147.78.13,221.66-2.41,7.8,6.32,5.22,11.09,5.16,2.07-67.75-.02-137.47.8-205.86,0-2.21-1.89-6.31,2.26-6.35,3.91-.03,2.59,3.97,2.59,6.34.07,67.06.11,134.13-.03,201.19,0,4.16,1,5.38,5.17,5.09,5.78-.4,11.6-.1,17.51-.1Z"/>
      <path class="cls-1" d="m612.91,293.75c.17,29.43-39.62,47.22-61.64,26.17-6.77-5.61-12.85-12.03-19.33-18-1.73-1.6-2.24-2.59-.27-4.64,15.75-16.44,31.37-32.99,46.94-49.59,1.9-2.02,2.97-1.62,4.75.12,13.42,13.15,30.55,24.43,29.54,45.95Zm-39.95,17.05c19.69-.81,29.4-26.77,11.95-38.98-1.38-.88-1.97-.39-2.85.55-8.54,9.03-17.1,18.04-25.69,27.02-3.89,4.13,12.72,12.14,16.6,11.41Z"/>
      <path class="cls-1" d="m358.42,226.97c20.76,4.02,20.2,33.24.54,38.35-10.53,3.16-21.47,1.71-32.21,2.43-9.68.22-9.53.22-9.79-9.7-.5-19.58-1.08-39.16-1.86-58.74-.17-4.3.7-6.18,5.53-6.04,13.98,1.44,37.88-6.14,43.61,10.82,3.07,8.73,1.12,16.79-5.82,22.88Zm-22.83,17.5c2.48,2.24-3.25,8.47,4.75,8.1,9.32-.44,13.64-2.71,13.63-8.07,0-5.91-3.81-7.83-13.85-8.07-7.53-.19-2.6,5.38-4.54,8.05Zm-.74-29.63c2.05,2.1-2.91,7.23,3.47,7.31,6.14.07,9.43-2.52,9.47-7.1.05-5.01-3.22-7.43-9.68-7.25-6.12.17-1.7,4.75-3.26,7.04Z"/>
      <path class="cls-1" d="m99.23,494.77c-2.82,53.34-45.02,31.94-79.58,27.03-2.33-.39-2.96-1.49-2.41-3.79,2.05-16.01,1.61-18.75,18.38-13.18,10.32,1.79,20.58,3.98,30.93,5.48,16.6,3.49,22.01-22.36,3.65-25.1-13.77-3.11-27.7-5.62-41.59-8.23-6.28-.12.36-13.07-.11-17.28.39-2.56,1.58-2.61,3.74-2.18,23.98,7.3,68.33,1.99,66.99,37.24Z"/>
      <path class="cls-1" d="m158.03,288.39c0-11.33.22-21.45-.1-31.55-1.04-10.9,11.85-14,18.21-20.85,0,13.92.26,27.35-.74,41.12-.25,3.25.63,4.56,4,5.25,15.31,3.24,30.17,6.46,45.43,10.18-6.27,4.9-12.17,9.4-17.92,14.08-1.97,1.6-3.81.74-5.65.27-11.58-2.91-23.14-5.9-35.98-9.19,6.39,8.18,11.88,15.42,17.62,22.47,1.98,2.43,2.16,3.86-.65,5.74-4.13,2.76-8.06,8.36-11.94,8.24-4.07-.13-6.47-6.85-9.53-10.72-11.46-14.49-22.66-29.17-34.22-43.58-5.18-5.94,6.88-8.44,9.51-12.73,2.74-2.62,4.15-1.69,6.1.93,4.92,6.62,10.12,13.04,15.85,20.35Z"/>
      <path class="cls-1" d="m129.81,407.64c-17.09-19.65-33.24-38.6-50.15-58-1.67-1.89-2.07-3.35-.72-5.62,3.64-3.9,5.78-16.66,11.71-15.57,24.22,3.31,48.45,6.55,72.69,9.7,6.23.27-.05,5.42-.56,8.43-2.77,8.35-7.59,12.67-16.81,9.07-4.48-2.41-10.75,17.27-14.05,20.8-1.28,2.2-.24,3.25.93,4.7,10.52,9.86,1.99,15.91-3.04,26.49Zm-9.85-41.03c11.01-19.99,9.43-11.84-16.73-17.84,6.08,6.48,11.22,11.96,16.73,17.84Z"/>
      <path class="cls-1" d="m110.43,442.14c-10.1,12.69-12.52,6.31-21.96-3.41,20.93-13,12.36-32.82,1.33-22.67-9.4,13.1-18.43,26.22-34.2,17.51-11.75-5.34-16.98-16.81-13.33-29.83,2.05-7.3,6.04-13.58,10.97-19.34,1.99-2.32,3.35-2.02,5.01.06,2.49,2.97,6.76,5.19,8.22,8.58,1.51,3.69-4.1,4.24-5.02,7.32-.28.93-1,1.72-1.41,2.62-4.88,10.8,5.49,16.09,10.79,6.77,6.82-10.92,16.45-21.61,28.73-16.81,12.49,3.68,19.23,11.46,19.13,23.52-.05,5.3-.43,8.73,6.38,10.24,15.73,7.67-1.92,30.34-14.64,15.43Z"/>
      <path class="cls-1" d="m681.34,463.29c-9.07,18.53,5.43,35,11.62,20.32,1.62-14.47-1.56-31.24,15.8-34.31,11.53-3.03,22.18,1.1,27.9,11.07,5.13,8.94,5.21,18.7,4.25,28.6-.49,4.15-5.92.81-8.52.91-2.61-.51-5.9-.26-7.63-1.78-2.02-1.78.65-4.77.6-7.32.15-5.06-2-13.04-8.38-12.44-12.42,5.87,5.11,33.1-20.31,39.44-26.51,8.4-39.9-23.42-33.71-44.83.38-6.18,13.99.59,18.39.34Z"/>
      <path class="cls-1" d="m721.34,417.8c.8,1.51-1.42,1.89-2.36,2.43-11.97,6.28-13.55,7.15-17.5-6.5-3.1-5.96-2.29-10.52-10.33-6.81-9.26,1.81,1.42,13.66,2.49,19.34.9,2.01.69,3.01-1.59,4.14-12.41,6.13-12.37,6.22-17.63-6.46-2.69-6.36-2.73-8.97-9.97-5.77-4.79,1.6-5.19,3.64-2.92,7.78,2.22,4.05,3.49,8.61,5.55,12.77,1.25,2.53.45,3.48-1.82,4.34-4.02,1.51-8.55,5.16-11.81,4.23-3.42-.97-3.89-7.1-5.6-10.99-3.46-7.9-6.61-15.93-10.18-23.78-1.24-2.74-.94-3.99,1.9-5.17,20.83-8.69,41.6-17.5,62.38-26.3,1.73-.73,3.12-1.74,4.26,1.04,4.92,11.96,10.05,23.83,15.13,35.73Z"/>
      <path class="cls-1" d="m405.1,265.86c-6.15-.28-12.3-.56-18.45-.83-2.52-.11-3.59-.81-3.39-3.91,1.41-22.22,2.61-44.46,3.61-66.71.16-3.64,1.24-4.39,4.69-4.15,11.61.83,23.25,1.39,34.88,1.88,2.54.11,3.44.8,3.39,3.46,1.22,16.57-6.2,12.77-19.13,12.45-3.54-.74-4.97-.01-5.03,4.06-.13,7.99-.42,7.99,7.78,8.23,12.83.36,14.27-.03,13.04,13.21-.2,3.12-1.03,4.36-4.36,4.01-4.96-.52-9.97-.48-14.94-.89-2.13-.18-2.85.32-3.09,2.56-1.04,9.62-1.13,9.61,8.24,10.27,4.34,1.17,11.57-1.38,13.74,1.78,1.97,3.06-.02,8.61-.07,13.08-.03,2.22-.71,2.77-2.96,2.58-5.97-.5-11.96-.67-17.94-.97,0-.04,0-.08,0-.12Z"/>
      <path class="cls-1" d="m534.16,272.02c-3.27-.88-17.79-11.2-18.74-9-2.39,2.61-3.83,6.18-5.24,9.52-.48,1.13,1.45,1.51,2.4,2.04,4.65,2.58,9.23,5.33,14.04,7.57,2.99,1.39,3,2.83,1.46,5.27-5.46,11.65-6.09,13.36-17.24,5.25-7.93-4.2-15.74-8.62-23.72-12.71-2.45-1.26-2.51-2.29-1.29-4.52,10.91-19.95,21.76-39.94,32.5-59.99,1.43-2.68,2.68-2.46,4.96-1.2,10.32,5.72,20.65,11.41,31.14,16.81,2.99,1.54,2.86,2.9,1.38,5.29-5.58,12.02-5.9,13.08-17.24,5.26-7.52-4.1-9.44-6.48-13.41,2.53-1.24,2.34-1.27,3.64,1.42,4.88,4.22,1.95,8.13,4.57,12.37,6.45,3.58,1.58,3.69,3.35,1.69,6.33-2.61,2.96-3.1,8.32-6.49,10.23Z"/>
      <path class="cls-1" d="m663.88,353.36c28.05.48,21.56-4.98,37.06,18.78-12.44,0-24.5.4-36.52-.15-7.12-.32-13.23.62-18.99,5.21-5.84,4.64-12.4,8.37-18.51,12.68-2.29,1.62-3.55,1.5-5.02-1-1.12-4.22-11.93-12.46-6.27-15.38,8.39-6.89,23.53-12.47,28.59-21.65,4.98-13.36,10.13-26.66,15.58-40.93,16.87,25.13,14.68,14.32,4.08,42.45Z"/>
      <path class="cls-1" d="m469.58,201.68c-3.1,16.68-6.06,33.19-9.3,49.64-.79,4.03-.38,6.07,4.35,6.41,4.61.33,9.13,1.83,13.74,2.41,2.99.37,3.93,1.3,3.38,4.43-2.29,12.99-2.19,12.97-15.21,10.48-8.65-1.65-17.31-3.28-26-4.75-2.69-.46-3.48-1.27-2.92-4.23,4.24-22.18,8.3-44.4,12.27-66.64.48-6.8,13.09.05,17.56-.33,1.71.3,2.99.64,2.13,2.58Z"/>
      <path class="cls-1" d="m674.66,525.37c-1.48-3.95,1.14-4.42,5.14-4.72,13.76-1.01,27.5-2.33,41.22-3.75,7.11-1.16,3.86,8.05,5.09,12.25.59,7.13.61,7.09-6.36,7.69-13.08,1.13-26.18,2.14-39.23,3.56-7.79,1.53-4.01-9.61-5.87-15.04Z"/>
      <path class="cls-1" d="m599.96,360.27c-4.25-3.57-11.3-8.51-12.31-13.12-.56-4.26,6.09-7.36,9.65-10.89,7.09-7.03,14.39-13.85,21.5-20.86,3.45-4.44,4.92,2.65,7.6,4.61q6.71,8.74-1.06,16.16c-8.53,7.99-16.59,16.38-25.37,24.1Z"/>
      <path class="cls-1" d="m640.18,295.33c2.05,1.7,3.92,3.86,5.75,5.82,2.39,2.66,7.46,5.46,6.52,7.97-1.43,3.8-5.96,6.41-9.13,9.58-1.57,1.57-2.37.08-3.21-.77-12.79-14.69-15.68-8.57.07-22.6Z"/>
      <path class="cls-1" d="m735.67,523.81c-.25-8.47-.24-8.28,9.16-9.08,7.11-1.05,3.94,8.87,5.17,13.19.02,1.99,1.99,5.06-.33,5.8-3.86,1.23-8.13,1.62-12.29,1.08-.98-.13-.68-1.38-.77-2.15-.33-2.8-.6-5.6-.93-8.84Z"/>
      <path class="cls-2" d="m496.32,535.17c30.28,47.17,34.94,26.75,1.21,72.47-28.74-47.57-28.72-24.11-1.21-72.47Z"/>
      <path class="cls-2" d="m473.14,697.24c-12.16-44.02-12.39-23.36,21.29-63.26,15.75,46.27,13.3,26.91-21.29,63.26Z"/>
      <path class="cls-2" d="m479.23,450.34c34.14,39.8,34.66,18.97,14.63,59.72-29.12-36.6-28.72-16.25-14.63-59.72Z"/>
    </g>
  </g>
</svg>