<?xml version="1.0" encoding="UTF-8"?>
<svg id="Layer_1" data-name="Layer 1" xmlns="http://www.w3.org/2000/svg" xmlns:xlink="http://www.w3.org/1999/xlink" viewBox="0 0 553.69 563.33">
  <defs>
    <style>
      .cls-1 {
        clip-path: url(#clippath);
      }

      .cls-2 {
        fill: none;
      }

      .cls-2, .cls-3, .cls-4 {
        stroke-width: 0px;
      }

      .cls-3 {
        fill: #e20000;
      }

      .cls-4 {
        fill: #f20000;
      }
    </style>
    <clipPath id="clippath">
      <path class="cls-2" d="M299.68,349.61c-6.94-.81-13.57-2.04-19.8-3.67,2.04-.51,4.08-.72,6.33-.72,1.83,0,3.77.2,5.81.51,3.57.92,6.02,2.24,7.65,3.88h.01ZM166.92,69.91v256.53c0,13.68-4.49,18.17-18.16,18.17h-59.39c-13.57,0-18.06-4.49-18.06-18.17v-151.33l-16.12,9.09c-14.49,7.85-21.03,4.89-27.66-7.04L2.84,133.07c-5.41-12.04-3.37-17.75,8.57-24.79l86.23-49.5c7.85-4.49,16.52-7.04,25.61-7.04h25.51c13.67,0,18.16,4.6,18.16,18.17ZM443.25,214.1v20.81c-16.12,7.04-33.77,20.31-53.67,40.51-9.29,9.6-24.8,27.45-46.12,52.86-4.39,4.9-8.57,12.04-12.66,21.12-.2.41-.4.82-.51,1.23-2.85.1-5.71.2-8.67.2-7.65,0-15-.41-21.94-1.22-6.94-.82-13.57-2.04-19.79-3.67-51.34-12.86-80.31-51.23-80.31-106.84v-82.15c0-67.86,43.57-110.1,118.67-111.33-8.87,16.23-13.77,34.59-14.08,53.68v2.34c.11,2.56.11,5,.31,7.56.1,1.22.51,5.5.51,5.5.2,1.54.41,3.17.61,4.8.51,3.17,1.12,6.22,1.94,9.7.1.2.3,1.12.51,1.83-8.26,3.37-12.86,10.41-12.86,20.61v93.17c0,14.9,9.9,23.06,26.43,23.06s26.02-8.16,26.02-23.06v-53.47c2.55,2.04,5.11,3.98,7.86,5.82,0,0,5.2,3.16,5.2,3.26,17.96,10.51,38.27,16.13,58.88,16.13,4.19,0,8.27-.21,12.45-.62.1,0,5.31-.71,5.31-.71.1,0,3.57-.62,3.57-.62.72-.2,1.53-.3,2.34-.5h0ZM530.48,71.12l10.93-27.36-25.31,16.14-11.33-8.88-11.92-9.33,7.62,28.23-25.27,16.14,29.97,1.23,7.6,28.17,4.98-12.54.6-1.51,5.32-13.33,30.02,1.23-23.23-18.19s.02,0,.02,0ZM465.07,170.31c-33.48,9.04-67.72-4.99-85.96-32.36-8.06-13.42-11.06-22.88-12.45-32.8-5.42-38.73,18.66-76.37,57.38-86.82,14.94-4.03,30.02-3.47,43.77.82,2.16.67,4.3,1.43,6.39,2.31,7.52,3.05,14.52,7.28,20.76,12.47-5.62-6.3-11.98-11.85-18.91-16.52-1.88-1.28-3.81-2.5-5.77-3.63-10.07-5.86-21.11-9.99-32.69-12.12-.15-.03-.32-.06-.47-.08-1.01-.18-2.03-.35-3.05-.5-.67-.11-1.34-.19-2.03-.29-.49-.06-.96-.11-1.46-.16-.67-.09-1.34-.16-2.01-.21-.7-.07-1.39-.13-2.08-.16-1.11-.08-2.2-.14-3.29-.18-.6-.03-1.21-.05-1.81-.06-.94-.02-1.86-.03-2.8,0-.67,0-1.34,0-2.03.03h-.07c-.52.02-1.06.04-1.58.07-.5.03-1.04.05-1.54.08-.72.05-1.48.11-2.22.17-.1,0-.18.02-.27.03-.76.07-1.53.14-2.27.23-.1,0-.22,0-.3.04-.79.08-1.58.18-2.37.29-.05,0-.1,0-.15.02-.79.1-1.58.23-2.38.36-.77.13-1.54.27-2.33.41-.1.02-.23.03-.35.06-.79.16-1.61.33-2.4.5-.82.18-1.64.37-2.47.56l-.1.03c-.84.2-1.66.42-2.5.64h-.02c-.99.28-1.98.55-2.95.86-.6.18-1.21.36-1.81.55-.18.07-.39.13-.59.19-.45.15-.89.29-1.33.45-.47.15-.96.33-1.41.5-2.1.74-4.15,1.56-6.14,2.43-.35.16-.72.33-1.09.49-.34.15-.67.3-.99.45-.45.22-.92.44-1.39.65-.07.03-.15.08-.23.13-3.09,1.5-6.09,3.16-8.96,4.94-.59.37-1.17.74-1.73,1.1-28.11,18.25-45.45,49.6-45.92,83.26-.02.66,0,1.32,0,1.97.02,2.22.05,4.45.2,6.69.1,1.41.3,2.81.45,4.21.17,1.6.32,3.2.57,4.8.45,2.82,1.04,5.63,1.7,8.53.05.27.12.52.17.79.03.13.08.28.13.46.05.14.12.32.18.55.05.22.12.45.17.67,6.68,24.06,21.57,43.66,40.8,56.62,1.26.76,4.03,2.48,4.8,2.95.12.07.17.1.2.12,18.39,10.91,40.19,16.05,62.45,13.62.84-.1,1.71-.2,2.57-.32.86-.11,1.7-.24,2.57-.38.86-.14,1.71-.29,2.57-.45,2.57-.48,5.14-1.07,7.7-1.76h.02c.91-.25,1.83-.5,2.72-.79.91-.27,1.81-.55,2.7-.84.87-.29,1.75-.59,2.6-.91l.12-.03c.86-.32,1.71-.64,2.57-.96.72-.29,1.41-.57,2.11-.86.29-.12.55-.23.84-.35.03-.03.07-.03.12-.06.69-.29,1.36-.6,2.05-.91,1.68-.76,3.32-1.58,4.93-2.43,1.63-.85,3.22-1.75,4.77-2.68.79-.47,1.56-.95,2.32-1.43.02-.02.03-.02.05-.02.76-.49,1.49-.98,2.23-1.47,11.23-7.56,20.66-17.26,27.91-28.38,2.43-3.69,4.62-7.55,6.53-11.54.07-.16.17-.3.22-.46.02-.03.03-.04.03-.06.42-.86.81-1.75,1.19-2.62,2.92-6.6,5.14-13.53,6.6-20.66-.05.12-.08.25-.13.37-8.54,23.09-27.71,41.88-53.32,48.79h-.04ZM464.93,304.47c-11.6-.55-21.45,8.41-22,20.02-.55,11.6,8.41,21.45,20.02,22,11.6.55,21.45-8.41,22-20.02.55-11.6-8.41-21.45-20.02-22ZM462.95,255.93c-1.43,5.41-3.67,10.82-6.84,16.33-3.06,5.51-6.22,10.51-9.49,15.1-3.26,4.49-7.75,9.49-13.37,15-5.71,5.51-10.5,10-14.48,13.58-3.99,3.67-9.7,8.16-17.15,13.77-7.34,5.61-12.95,9.8-16.94,12.55-3.87,2.76-10,7.04-18.37,12.86-8.36,5.82-14.08,9.9-17.34,12.14-2.04,4.08-3.47,7.45-4.19,9.9-.71,2.45-.71,4.9-.2,7.25.51,2.45,2.04,4.59,4.39,6.73,1.94,2.35,5.71,2.76,11.32,1.12,5.72-1.53,17.15-6.43,34.29-14.49,4.8-2.14,8.78-1.94,12.04.41,2.35,1.74,2.15,3.57-.51,5.51-27.14,18.17-48.47,26.02-64.29,23.47-3.36-.82-5.71-2.55-7.14-5.2-1.43-2.66-2.24-5.72-2.55-9.29-.2-3.57-.41-5.71-.61-6.33-.41-1.42-1.12-2.24-2.14-2.24-.92-.1-3.2-1.52-19.7,10.1-9.29,6.43-16.63,10-22.04,11.02-4.18.62-15.44,3.98-22.24-2.14-2.74-2.47-3.98-6.12-3.88-11.02.2-3.06-.51-4.8-2.25-5.41-2.56.69-5.55,2.1-8.33,3.61-4.45,2.41-8.36,5.09-9.08,5.6-.08.05-.12.08-.12.08-6.06,3.48-14.7,9.04-25.94,16.63-15.72,10.72-25.61,18.88-30,24.39-1.83,2.55-7.04,10.81-15.51,24.9-8.47,13.98-17.55,28.37-27.25,43.06-9.69,14.8-17.95,25.51-24.79,32.35-17.05,17.04-31.16,28.23-53.27,25.71-.61-.07-1.63-.2-2.85-.51-4.34-1.31-3.58-6.73-3.07-8.57,1.26-5.1,9.59-17.25,17.04-25.61,7.35-8.47,14.6-16.23,21.74-23.37,7.04-7.04,16.22-16.02,27.45-26.94s18.47-18.06,21.83-21.43c5.72-5.51,10.93-11.33,15.52-17.45,4.69-6.02,7.96-10.81,9.9-14.39,2.03-3.57,4.28-7.85,6.73-12.85,2.45-4.9,3.98-7.96,4.7-9.09,4.38-7.96,6.01-12.34,4.69-13.36-.31-.31-1.02.2-2.14,1.42-2.66,3.07-10,8.58-22.05,16.64-12.04,8.06-26.29,17.37-36.94,13.16-9.04-3.57-2-19.45.72-25.31,4.95-10.64,8.72-17.53,10.96-21.35.68-1.17-.53-2.53-1.77-1.98-2.31,1.01-5.37,2.37-8.58,3.85-6.63,3.07-13.65,6.98-17.93,9.94-11.34,7.55-16.97,9.45-20.13,7.72-1.43-.61-1.74-2.15-.72-4.49h0c1.21-2.86,3.15-5.34,5.65-7.18,4.73-3.48,12.68-8.53,23.85-15.17,15.3-9.18,24.28-13.98,26.83-14.49,5.72-1.74,21.4-2.55,14.08,14.59-.1,1.23-25,37.18-13.87,35.31,2.14,0,5.3-1.02,9.59-3.27,6.22-3.36,13.06-7.96,20.51-13.77,7.55-5.82,13.57-11.23,18.16-16.12,8.68-9.19,9.65-11.01,14.6-18.88,5.22-9.06,12.92-6.48,14.89-4.08,2.68,3.26-7.14,17.34-7.96,18.87-1.12,1.94-2.65,4.7-4.49,8.27-1.94,3.57-4.18,7.96-6.73,13.06s-4.49,9.59-5.82,13.47c-1.43,3.88-1.63,6.12-.61,6.84,1.43,1.12,5.31-.21,11.74-3.88,3.57-2.04,7.24-4.29,11.01-6.63,0,0,32.1-20.35,39.5-27.96,7.04-5.31,12.55-9.19,16.53-11.74,3.57-2.24,7.86-2.86,12.96-1.94,4.59,1.12,5.2,3.37,1.83,6.74-2.85,3.16-6.12,7.34-9.79,12.65-3.57,5.21-5.61,8.68-5.92,10.31-1.43,5-.41,7.96,3.06,8.67,3.57.71,6.94,0,10.31-2.04,4.08-1.73,13.88-7.14,29.18-16.22,7.14-4.7,12.15-8.07,14.8-10,.92-2.56,2.55-6.43,4.79-11.54,3.78-8.46,7.55-14.69,11.23-18.87,21.43-25.62,36.73-43.17,45.82-52.56,22.14-22.45,41.63-36.22,58.57-41.32,3.77-1.13,6.53-.1,8.16,2.85,1.74,3.06,1.84,7.35.41,12.96h0ZM141.62,477.88c-1.74.92-3.98,2.85-6.64,5.92-6.53,5.61-16.83,16.53-30.82,32.96-14.08,16.43-20.27,25.61-21.46,27.23-9.5,12.89,9.02-.6,15.24-7.13,7.96-8.57,13.67-15.1,17.15-19.39,3.57-4.28,9.79-12.75,18.88-25.51,7.54-10.51,10.1-15.2,7.65-14.08h0ZM449.79,255.42c-.82-.61-2.45-.2-5,1.43-14.7,9.29-33.47,25.92-56.64,49.9-19.08,20.1-28.57,32.15-28.36,36.12,0,1.54,1.83,1.33,5.71-.71,2.55-1.12,8.57-5.1,18.16-11.94,9.49-6.84,20.51-16.12,32.96-27.86,12.45-11.73,21.12-22.24,26.03-31.63,6.73-8.78,9.08-13.88,7.14-15.31h0Z"/>
    </clipPath>
  </defs>
  <path class="cls-4" d="M299.68,349.61c-6.94-.81-13.57-2.04-19.8-3.67,2.04-.51,4.08-.72,6.33-.72,1.83,0,3.77.2,5.81.51,3.57.92,6.02,2.24,7.65,3.88h.01ZM166.92,69.91v256.53c0,13.68-4.49,18.17-18.16,18.17h-59.39c-13.57,0-18.06-4.49-18.06-18.17v-151.33l-16.12,9.09c-14.49,7.85-21.03,4.89-27.66-7.04L2.84,133.07c-5.41-12.04-3.37-17.75,8.57-24.79l86.23-49.5c7.85-4.49,16.52-7.04,25.61-7.04h25.51c13.67,0,18.16,4.6,18.16,18.17ZM443.25,214.1v20.81c-16.12,7.04-33.77,20.31-53.67,40.51-9.29,9.6-24.8,27.45-46.12,52.86-4.39,4.9-8.57,12.04-12.66,21.12-.2.41-.4.82-.51,1.23-2.85.1-5.71.2-8.67.2-7.65,0-15-.41-21.94-1.22-6.94-.82-13.57-2.04-19.79-3.67-51.34-12.86-80.31-51.23-80.31-106.84v-82.15c0-67.86,43.57-110.1,118.67-111.33-8.87,16.23-13.77,34.59-14.08,53.68v2.34c.11,2.56.11,5,.31,7.56.1,1.22.51,5.5.51,5.5.2,1.54.41,3.17.61,4.8.51,3.17,1.12,6.22,1.94,9.7.1.2.3,1.12.51,1.83-8.26,3.37-12.86,10.41-12.86,20.61v93.17c0,14.9,9.9,23.06,26.43,23.06s26.02-8.16,26.02-23.06v-53.47c2.55,2.04,5.11,3.98,7.86,5.82,0,0,5.2,3.16,5.2,3.26,17.96,10.51,38.27,16.13,58.88,16.13,4.19,0,8.27-.21,12.45-.62.1,0,5.31-.71,5.31-.71.1,0,3.57-.62,3.57-.62.72-.2,1.53-.3,2.34-.5h0ZM530.48,71.12l10.93-27.36-25.31,16.14-11.33-8.88-11.92-9.33,7.62,28.23-25.27,16.14,29.97,1.23,7.6,28.17,4.98-12.54.6-1.51,5.32-13.33,30.02,1.23-23.23-18.19s.02,0,.02,0ZM465.07,170.31c-33.48,9.04-67.72-4.99-85.96-32.36-8.06-13.42-11.06-22.88-12.45-32.8-5.42-38.73,18.66-76.37,57.38-86.82,14.94-4.03,30.02-3.47,43.77.82,2.16.67,4.3,1.43,6.39,2.31,7.52,3.05,14.52,7.28,20.76,12.47-5.62-6.3-11.98-11.85-18.91-16.52-1.88-1.28-3.81-2.5-5.77-3.63-10.07-5.86-21.11-9.99-32.69-12.12-.15-.03-.32-.06-.47-.08-1.01-.18-2.03-.35-3.05-.5-.67-.11-1.34-.19-2.03-.29-.49-.06-.96-.11-1.46-.16-.67-.09-1.34-.16-2.01-.21-.7-.07-1.39-.13-2.08-.16-1.11-.08-2.2-.14-3.29-.18-.6-.03-1.21-.05-1.81-.06-.94-.02-1.86-.03-2.8,0-.67,0-1.34,0-2.03.03h-.07c-.52.02-1.06.04-1.58.07-.5.03-1.04.05-1.54.08-.72.05-1.48.11-2.22.17-.1,0-.18.02-.27.03-.76.07-1.53.14-2.27.23-.1,0-.22,0-.3.04-.79.08-1.58.18-2.37.29-.05,0-.1,0-.15.02-.79.1-1.58.23-2.38.36-.77.13-1.54.27-2.33.41-.1.02-.23.03-.35.06-.79.16-1.61.33-2.4.5-.82.18-1.64.37-2.47.56l-.1.03c-.84.2-1.66.42-2.5.64h-.02c-.99.28-1.98.55-2.95.86-.6.18-1.21.36-1.81.55-.18.07-.39.13-.59.19-.45.15-.89.29-1.33.45-.47.15-.96.33-1.41.5-2.1.74-4.15,1.56-6.14,2.43-.35.16-.72.33-1.09.49-.34.15-.67.3-.99.45-.45.22-.92.44-1.39.65-.07.03-.15.08-.23.13-3.09,1.5-6.09,3.16-8.96,4.94-.59.37-1.17.74-1.73,1.1-28.11,18.25-45.45,49.6-45.92,83.26-.02.66,0,1.32,0,1.97.02,2.22.05,4.45.2,6.69.1,1.41.3,2.81.45,4.21.17,1.6.32,3.2.57,4.8.45,2.82,1.04,5.63,1.7,8.53.05.27.12.52.17.79.03.13.08.28.13.46.05.14.12.32.18.55.05.22.12.45.17.67,6.68,24.06,21.57,43.66,40.8,56.62,1.26.76,4.03,2.48,4.8,2.95.12.07.17.1.2.12,18.39,10.91,40.19,16.05,62.45,13.62.84-.1,1.71-.2,2.57-.32.86-.11,1.7-.24,2.57-.38.86-.14,1.71-.29,2.57-.45,2.57-.48,5.14-1.07,7.7-1.76h.02c.91-.25,1.83-.5,2.72-.79.91-.27,1.81-.55,2.7-.84.87-.29,1.75-.59,2.6-.91l.12-.03c.86-.32,1.71-.64,2.57-.96.72-.29,1.41-.57,2.11-.86.29-.12.55-.23.84-.35.03-.03.07-.03.12-.06.69-.29,1.36-.6,2.05-.91,1.68-.76,3.32-1.58,4.93-2.43,1.63-.85,3.22-1.75,4.77-2.68.79-.47,1.56-.95,2.32-1.43.02-.02.03-.02.05-.02.76-.49,1.49-.98,2.23-1.47,11.23-7.56,20.66-17.26,27.91-28.38,2.43-3.69,4.62-7.55,6.53-11.54.07-.16.17-.3.22-.46.02-.03.03-.04.03-.06.42-.86.81-1.75,1.19-2.62,2.92-6.6,5.14-13.53,6.6-20.66-.05.12-.08.25-.13.37-8.54,23.09-27.71,41.88-53.32,48.79h-.04ZM464.93,304.47c-11.6-.55-21.45,8.41-22,20.02-.55,11.6,8.41,21.45,20.02,22,11.6.55,21.45-8.41,22-20.02.55-11.6-8.41-21.45-20.02-22ZM462.95,255.93c-1.43,5.41-3.67,10.82-6.84,16.33-3.06,5.51-6.22,10.51-9.49,15.1-3.26,4.49-7.75,9.49-13.37,15-5.71,5.51-10.5,10-14.48,13.58-3.99,3.67-9.7,8.16-17.15,13.77-7.34,5.61-12.95,9.8-16.94,12.55-3.87,2.76-10,7.04-18.37,12.86-8.36,5.82-14.08,9.9-17.34,12.14-2.04,4.08-3.47,7.45-4.19,9.9-.71,2.45-.71,4.9-.2,7.25.51,2.45,2.04,4.59,4.39,6.73,1.94,2.35,5.71,2.76,11.32,1.12,5.72-1.53,17.15-6.43,34.29-14.49,4.8-2.14,8.78-1.94,12.04.41,2.35,1.74,2.15,3.57-.51,5.51-27.14,18.17-48.47,26.02-64.29,23.47-3.36-.82-5.71-2.55-7.14-5.2-1.43-2.66-2.24-5.72-2.55-9.29-.2-3.57-.41-5.71-.61-6.33-.41-1.42-1.12-2.24-2.14-2.24-.92-.1-3.2-1.52-19.7,10.1-9.29,6.43-16.63,10-22.04,11.02-4.18.62-15.44,3.98-22.24-2.14-2.74-2.47-3.98-6.12-3.88-11.02.2-3.06-.51-4.8-2.25-5.41-2.56.69-5.55,2.1-8.33,3.61-4.45,2.41-8.36,5.09-9.08,5.6-.08.05-.12.08-.12.08-6.06,3.48-14.7,9.04-25.94,16.63-15.72,10.72-25.61,18.88-30,24.39-1.83,2.55-7.04,10.81-15.51,24.9-8.47,13.98-17.55,28.37-27.25,43.06-9.69,14.8-17.95,25.51-24.79,32.35-17.05,17.04-31.16,28.23-53.27,25.71-.61-.07-1.63-.2-2.85-.51-4.34-1.31-3.58-6.73-3.07-8.57,1.26-5.1,9.59-17.25,17.04-25.61,7.35-8.47,14.6-16.23,21.74-23.37,7.04-7.04,16.22-16.02,27.45-26.94s18.47-18.06,21.83-21.43c5.72-5.51,10.93-11.33,15.52-17.45,4.69-6.02,7.96-10.81,9.9-14.39,2.03-3.57,4.28-7.85,6.73-12.85,2.45-4.9,3.98-7.96,4.7-9.09,4.38-7.96,6.01-12.34,4.69-13.36-.31-.31-1.02.2-2.14,1.42-2.66,3.07-10,8.58-22.05,16.64-12.04,8.06-26.29,17.37-36.94,13.16-9.04-3.57-2-19.45.72-25.31,4.95-10.64,8.72-17.53,10.96-21.35.68-1.17-.53-2.53-1.77-1.98-2.31,1.01-5.37,2.37-8.58,3.85-6.63,3.07-13.65,6.98-17.93,9.94-11.34,7.55-16.97,9.45-20.13,7.72-1.43-.61-1.74-2.15-.72-4.49h0c1.21-2.86,3.15-5.34,5.65-7.18,4.73-3.48,12.68-8.53,23.85-15.17,15.3-9.18,24.28-13.98,26.83-14.49,5.72-1.74,21.4-2.55,14.08,14.59-.1,1.23-25,37.18-13.87,35.31,2.14,0,5.3-1.02,9.59-3.27,6.22-3.36,13.06-7.96,20.51-13.77,7.55-5.82,13.57-11.23,18.16-16.12,8.68-9.19,9.65-11.01,14.6-18.88,5.22-9.06,12.92-6.48,14.89-4.08,2.68,3.26-7.14,17.34-7.96,18.87-1.12,1.94-2.65,4.7-4.49,8.27-1.94,3.57-4.18,7.96-6.73,13.06s-4.49,9.59-5.82,13.47c-1.43,3.88-1.63,6.12-.61,6.84,1.43,1.12,5.31-.21,11.74-3.88,3.57-2.04,7.24-4.29,11.01-6.63,0,0,32.1-20.35,39.5-27.96,7.04-5.31,12.55-9.19,16.53-11.74,3.57-2.24,7.86-2.86,12.96-1.94,4.59,1.12,5.2,3.37,1.83,6.74-2.85,3.16-6.12,7.34-9.79,12.65-3.57,5.21-5.61,8.68-5.92,10.31-1.43,5-.41,7.96,3.06,8.67,3.57.71,6.94,0,10.31-2.04,4.08-1.73,13.88-7.14,29.18-16.22,7.14-4.7,12.15-8.07,14.8-10,.92-2.56,2.55-6.43,4.79-11.54,3.78-8.46,7.55-14.69,11.23-18.87,21.43-25.62,36.73-43.17,45.82-52.56,22.14-22.45,41.63-36.22,58.57-41.32,3.77-1.13,6.53-.1,8.16,2.85,1.74,3.06,1.84,7.35.41,12.96h0ZM141.62,477.88c-1.74.92-3.98,2.85-6.64,5.92-6.53,5.61-16.83,16.53-30.82,32.96-14.08,16.43-20.27,25.61-21.46,27.23-9.5,12.89,9.02-.6,15.24-7.13,7.96-8.57,13.67-15.1,17.15-19.39,3.57-4.28,9.79-12.75,18.88-25.51,7.54-10.51,10.1-15.2,7.65-14.08h0ZM449.79,255.42c-.82-.61-2.45-.2-5,1.43-14.7,9.29-33.47,25.92-56.64,49.9-19.08,20.1-28.57,32.15-28.36,36.12,0,1.54,1.83,1.33,5.71-.71,2.55-1.12,8.57-5.1,18.16-11.94,9.49-6.84,20.51-16.12,32.96-27.86,12.45-11.73,21.12-22.24,26.03-31.63,6.73-8.78,9.08-13.88,7.14-15.31h0Z"/>
  <g class="cls-1">
    <ellipse class="cls-3" cx="425.52" cy="246.6" rx="159.37" ry="185.05"/>
  </g>
</svg>