<?xml version="1.0" encoding="UTF-8"?>
<svg id="katman_1" data-name="katman 1" xmlns="http://www.w3.org/2000/svg" xmlns:xlink="http://www.w3.org/1999/xlink" viewBox="0 0 712.76 854.09">
  <defs>
    <style>
      .cls-1 {
        fill: url(#linear-gradient);
      }

      .cls-1, .cls-2, .cls-3, .cls-4, .cls-5, .cls-6, .cls-7, .cls-8, .cls-9, .cls-10, .cls-11, .cls-12, .cls-13, .cls-14, .cls-15, .cls-16 {
        stroke-width: 0px;
      }

      .cls-2 {
        fill: #da9c68;
        opacity: .38;
      }

      .cls-3 {
        fill: url(#Adsız_degrade_13);
      }

      .cls-4 {
        fill: url(#linear-gradient-2);
      }

      .cls-5 {
        fill: #46271e;
      }

      .cls-6 {
        fill: #565666;
      }

      .cls-7 {
        fill: #643619;
      }

      .cls-8 {
        fill: #434356;
      }

      .cls-9 {
        fill: #1f1f29;
      }

      .cls-10 {
        fill: #e20e17;
      }

      .cls-11 {
        fill: #a56052;
      }

      .cls-12 {
        fill: #994d1d;
      }

      .cls-13 {
        fill: #fbca8e;
      }

      .cls-14 {
        fill: #fff;
      }

      .cls-15 {
        fill: #eeab67;
      }

      .cls-16 {
        fill: #f5fbff;
      }
    </style>
    <linearGradient id="Adsız_degrade_13" data-name="Adsız degrade 13" x1="504.81" y1="561.67" x2="473.21" y2="581.32" gradientTransform="translate(-85.01 -231.86) rotate(14.55)" gradientUnits="userSpaceOnUse">
      <stop offset="0" stop-color="#d38278"/>
      <stop offset="0" stop-color="#b06523"/>
      <stop offset="1" stop-color="#f6b9ad" stop-opacity="0"/>
    </linearGradient>
    <linearGradient id="linear-gradient" x1="418.64" y1="533.4" x2="428.98" y2="568.48" gradientTransform="translate(-85.01 -231.86) rotate(14.55)" gradientUnits="userSpaceOnUse">
      <stop offset="0" stop-color="#da9c68"/>
      <stop offset="1" stop-color="#da9c68" stop-opacity="0"/>
    </linearGradient>
    <linearGradient id="linear-gradient-2" x1="2019.1" y1="77.47" x2="2039.16" y2="145.54" gradientTransform="translate(2222.47 -231.86) rotate(165.45) scale(1 -1)" xlink:href="#linear-gradient"/>
  </defs>
  <g>
    <path class="cls-10" d="m163.75,840.72c5.88-89.76,10.77-170.24,12.03-194.17,28.55,4.5,28.24,27.47,28.24,27.47,15.4,22.37-16.27,108.96-40.27,166.7Z"/>
    <path class="cls-10" d="m470.74,853.83c0,.09,0,.17,0,.26h-3.57c0-.09.03-.17.04-.26h-106.96c-8.27-14.74-15.95-31.21-21.13-44.11,1.22,7.14-1.81,28.36-4.44,44.37h-19.75c-31.02-38.72-102.99-133.5-88.92-163.8,1.08-1.51,47.86-38.22,66.64-42.7,91.75-41.39,148.28,122.33,174.12,188.59,2.88,9.65,3.95,11.92,3.97,17.64Z"/>
    <path class="cls-16" d="m345.09,823.67c-.01,11.98-.28,15.94-.67,30.42h-29.49c-.07-.09-.14-.17-.22-.26h-156.48c17.55-79.92,12.82-186.93,17.55-207.28-6.12-.97-13.57-1.08-22.64.07,1.33-4.12,6.12-3.56,14.62-6.87,28.1-9.12,74-16.05,107.11-9.76,19.78,2.58,46.22,8.43,61.05,12.57-3.34,54.19,10.04,120.48,9.17,181.11Z"/>
    <path class="cls-10" d="m175.78,646.55c-4.71,20.14-.01,127.53-17.55,207.28H0c35.15-77.55,78.67-220.82,175.78-207.28Z"/>
    <path class="cls-10" d="m163.75,840.72c-.28,4.34-.57,8.72-.85,13.11h-4.67c1.77-4.15,3.62-8.55,5.52-13.11Z"/>
    <path class="cls-10" d="m176.11,639.52c0,.64-.12,3.06-.33,7.03-21.13-2.14-47.97,1.28-66.55,16.59,5.72-10.59,50-24.62,66.88-23.62Z"/>
    <path class="cls-10" d="m361.87,853.83h-17.44c0,.09-29.64.09-29.72,0h-32.26c2.83-69.66,5.82-146.17,10.2-206.24.89-8.27.67-12.39,2.12-16.03,19.81.71,46.7,9.91,46.7,9.91,1.96,6.11,2.7,11.35,3.89,18.68,5.34,33.55,12.3,123.75,16.52,193.68Z"/>
    <path class="cls-15" d="m275.66,629.44l-5.05-130.06-50.67,3.53-7.28,127.06c14.96,10.55,46.79,10.77,63-.54Z"/>
    <g>
      <path class="cls-13" d="m152.3,443.75c25.32,55-37.67,60.67-58.58,20.81-20.41-56.41,35.26-70.38,58.58-20.81Z"/>
      <path class="cls-13" d="m117.64,469.28c47.59,197.53,254.57,129.56,253.75-69.53,1.9-85.93-44.15-153.91-125.52-152.65-124.63,1.93-152,66.98-128.23,222.18Z"/>
      <path class="cls-13" d="m331.65,436.9c-26,54.69,36.91,61.14,58.31,21.54,21.11-56.15-34.38-70.81-58.31-21.54Z"/>
      <path class="cls-3" d="m223.73,429.12c48.35-10.8,55.77,34.85,7.41,39.44-16.39,1.92-22.77-36.36-7.41-39.44Z"/>
      <path class="cls-11" d="m215.05,431.88c11.47-3.93,24.29-5.65,36.05-1.81,8,2.5,16.1,9.72,13.2,18.87-3.96,11.66-17.96,17.57-28.74,21.26,9.74-4.49,23.44-10.86,26.92-21.78,2.51-8-5.1-14.33-12.01-16.57-11.37-3.95-23.88-2.68-35.42.03h0Z"/>
      <g>
        <path class="cls-1" d="m215.12,387.52c1.81,13.54,9.4,41.47-28.69,44.65-38.09,3.18-29.04-31.08-29.04-31.08,0,0,40.33-11.79,57.73-13.57Z"/>
        <path class="cls-7" d="m202.98,428.73c-1.6,6.55-11.86,3.89-10.06-2.61,1.6-6.55,11.86-3.89,10.06,2.61Z"/>
        <path class="cls-12" d="m206.91,386.52c-43.67,3.04-67.63,20.4-39.88,20.18,27.76-.22,68.68-22.18,39.88-20.18Z"/>
      </g>
      <g>
        <path class="cls-4" d="m260.88,347.41c-22.46,98.33,64.56,118.8,54.28,27.14,0,0-36.88-25.36-54.28-27.14Z"/>
        <path class="cls-7" d="m271.08,428.73c1.6,6.55,11.86,3.89,10.06-2.61-1.6-6.55-11.86-3.89-10.06,2.61Z"/>
        <path class="cls-12" d="m270.25,346.92c41.86,12.81,61.28,35.13,34.3,28.65-26.99-6.48-61.9-37.11-34.3-28.65Z"/>
      </g>
      <path class="cls-2" d="m164.33,442.31c.6,6.84-34.58,6.84-33.97,0-.6-6.83,34.58-6.83,33.97,0Z"/>
      <path class="cls-2" d="m343.43,442.31c.6,6.84-34.58,6.84-33.97,0-.6-6.83,34.58-6.83,33.97,0Z"/>
    </g>
    <path class="cls-12" d="m123.54,520.36c15.88,35.98,38.07,61.92,63.49,71.9,198.6,75.02,185.07-211.44,181.2-268.62l-21.64,4.23s5.68,143.57-14.27,167.08c-8.49,10.02-42.88-9.5-88.37-9.94-53.79-.53-97.97,23.43-105.82,12.69-45.06-93.91,32.76-230.29-39.89-172,0,0,4.77,148.14,25.3,194.65Z"/>
    <path class="cls-12" d="m193.96,239.05c23.19-21.39,84.41-43.22,114.92-22.34-5.22.1-1.6,3.19-6.85,3.46,95.59,13.19,92.15,100.39,75.14,186.66-6.97.71-6.61-2.43-12.15,2.02-4.31,3.47-5.31,5.19-6.89,8.37,1.35-33.68-9.56-79.37-33.93-106.01-11.38-12.43-41.73-6.87-58.2-10.39-20.64-4.41-39.95-11.72-55.77-25.18-18.35-15.59-29.06-23.84-16.27-36.6Z"/>
    <path class="cls-12" d="m220.13,228.66c19.7,6.72,45.29,11.97,56.47,30.98l-6.12-1.84c20.66,24.75-40.78,92.1-56.62,108.17-18.09,18.36-41.59,27.65-64.19,33.08-1.17-6.07,1.36-13.27,2.66-19.01-8,28.96-38.4,43.46-42.78,80.54-43.29-139.89-19.05-260.53,110.57-231.91Z"/>
    <path class="cls-5" d="m191.95,526.45c6.64-1.97,12.4,2.99,17.75,6.01,5.48,3.09,11.61,4.73,17.88,5.07,12.72.79,25.28-1.86,37.7-4.42-17.52,5.78-39.58,11.05-56.37.69-5.29-3.26-10.21-8.45-16.96-7.35h0Z"/>
  </g>
  <g>
    <path class="cls-13" d="m309.65,591.71c-15.58-7.68-50.95-32.71-59.56-36.49-8.61-3.79-22.03,3.79-10.67,13.08,11.36,9.3,20.66,17.56,20.66,17.56-23.95-15.19-28.56,5.45-10.36,21.55-5.03,1.47-9.86,9.65-5.03,16.15-22.76,8.32,47.05,60.85,63.76,62.92,36.49,6.72,51.41-55,31.25-75.51-14.26-9.65-23.6-16.08-30.05-19.26Z"/>
    <path class="cls-13" d="m306.69,571.76c1.53-8.43,6.33-14.71,11.91-12.66,5.58,2.05-.19,13.96,8.94,25.13,9.12,11.17,16.38,23.46,13.59,35.18-2.79,11.73-39.84-17.87-34.44-47.66Z"/>
    <path class="cls-13" d="m467.21,853.83h-97.6c-28.52-51.74-33.05-131.83-64.33-174.94,2.9-17.48,20.7-31.16,36.72-33.29,28.84,64.39,107.46,132.21,124.76,190.59,1.14,6.15,1.25,12.08.44,17.64Z"/>
  </g>
  <g>
    <path class="cls-6" d="m553.31.1c-140.83-4.95-215.49,181.73-114.12,275.95-41.53,37.47,29,85.66,48.85,33.46C730.85,400.29,812.2,15.11,553.31.1Z"/>
    <path class="cls-14" d="m506.36,240.14l6.24-37.18,35.14,5.9-6.24,37.18-35.14-5.9Zm9.17-58.83c3.31-34.02,29.62-26.64,50.71-42.42,16.67-17.39-12.28-32.94-27.79-10.84l-24.16-24.1c17.45-28.66,61.93-28.46,84.21-5.22,18.67,19.86,13.07,60.12-14.13,71.05-10.53,6.31-28.97,4.88-33.69,17.43l-35.14-5.9Z"/>
    <path class="cls-8" d="m443.44,350.07c-.09,19.96-30.43,19.95-30.52,0,.09-19.96,30.43-19.95,30.52,0Z"/>
    <path class="cls-9" d="m400.93,345.71c.17,11.78-18.34,11.78-18.17,0-.17-11.78,18.34-11.78,18.17,0Z"/>
  </g>
</svg>