<?xml version="1.0" encoding="utf-8"?>
<!-- Generator: Adobe Illustrator 28.0.0, SVG Export Plug-In . SVG Version: 6.00 Build 0)  -->
<svg version="1.1" id="katman_1" xmlns="http://www.w3.org/2000/svg" xmlns:xlink="http://www.w3.org/1999/xlink" x="0px" y="0px"
	 viewBox="0 0 191.7 248" style="enable-background:new 0 0 191.7 248;" xml:space="preserve">
<style type="text/css">
	.st0{fill:#333333;}
</style>
<g>
	<path class="st0" d="M54.1,184.7v-60.5l65.8-10V13.3c0-7.4-6-13.3-13.3-13.3H13.3C6,0,0,6,0,13.3V248h119.9l-65.8-9.4v-17.2H19.3
		v-12.1h34.8v-12.6H19.3v-12.1h34.8V184.7z M18.6,47.8V35.9h83.3v11.9C101.9,47.8,18.6,47.8,18.6,47.8z"/>
	<g>
		<polygon class="st0" points="62,185.8 111.1,185.8 111.1,237.7 62,231.3 		"/>
		<polygon class="st0" points="191.6,185.8 191.6,248.2 117.8,238.6 117.8,185.8 		"/>
		<polygon class="st0" points="62,132.4 111.1,126 111.1,178.8 62,178.8 		"/>
		<polygon class="st0" points="191.6,115.5 191.6,178.8 117.8,178.8 117.8,125.1 		"/>
	</g>
</g>
</svg>
