<?xml version="1.0" encoding="utf-8"?>
<!-- Generator: Adobe Illustrator 27.8.1, SVG Export Plug-In . SVG Version: 6.00 Build 0)  -->
<svg version="1.1" id="katman_1" xmlns="http://www.w3.org/2000/svg" xmlns:xlink="http://www.w3.org/1999/xlink" x="0px" y="0px"
	 viewBox="0 0 444.8 393.6" style="enable-background:new 0 0 444.8 393.6;" xml:space="preserve">
<style type="text/css">
	.st0{fill:#1F1F29;}
	.st1{fill:#C59191;}
	.st2{fill:#FFCEBF;}
	.st3{fill:#E20E17;}
	.st4{fill:#EFEDEF;}
	.st5{fill:#FFFFFF;}
</style>
<path class="st0" d="M0.1,385c2.6-2.7,5.8-3.1,9.4-3.1c27.1,0.1,54.1,0.1,81.2,0.1c96.5,0.1,243.1,0,339.6,0
	c4.9,0.5,11.8-2,14.1,3.9c1.4,3.6-0.9,5.7-3.5,7.7c-128.9,0-307.8,0-436.6,0.1C-1.9,394.2,0.6,389,0.1,385L0.1,385z"/>
<path class="st1" d="M173.6,225c-38.3,5.3-66.5-37.9-40.3-68.6c18.7-20.7,16.4-49.1,16.3-75C154.5-14,289.4-31.1,318.3,59.9
	c5.6,17.4,3.9,35.9,4,53.9c-1.6,28.6,17.6,37.7,24.1,60.3c6.3,30.1-18.8,54-47.9,50.9c-14.3-4.9-28.8-12.4-31.5-28.7
	c-0.7-3.1-1.1-6.4,3.1-8.4c15.9-8,25.7-24.8,26.8-42.4c-6.4,5.2-11.6,11.6-19.2,15.6c-6.5,4-14.5,4.7-20.5,9.9
	c-1.2,1.1-3.3,1.1-5.2,1.1c-9.2-0.1-21.8,2.1-24.4-9.9c-2.6-15.4,24.8-16.9,33.2-9.9c1.7,2.4,3.6,1.8,5.7,0.9
	c25.1-11.1,33.4-32.5,30.5-58.5c0-1.4-0.1-2.8-2-2.6c-17.2-2.8-33-11.9-42.2-27.2c-2.5-4.2-2.5-4.2-6.7-1
	C225.7,79,203,88.4,177.9,92c-3,0.4-3.7,1.7-3.7,4.5c0.1,15.6,0,31.3,0.1,46.9c0.1,20.3,9.8,35,27,45.1c2.5,1.5,3.6,3,3.1,5.7
	C202.8,210.7,188.2,220.2,173.6,225L173.6,225z"/>
<path class="st2" d="M173.6,225c14.6-4.8,29.2-14.3,30.9-31c0.5-2.7-0.5-4.2-3.1-5.7c-17.2-10-26.9-24.8-27-45.1
	c-0.1-15.6,0-31.3-0.1-46.9c0-2.8,0.8-4.1,3.7-4.5c25.1-3.6,47.8-13,68.2-28.1c4.2-3.1,4.1-3.2,6.7,1C262,80,277.8,89.1,295,92
	c1.8-0.2,2,1.2,2,2.6c2.9,26.1-5.3,47.5-30.5,58.5c-2.1,0.9-4,1.5-5.7-0.9c-8.4-6.9-35.8-5.5-33.2,9.9c2.6,11.9,15.2,9.7,24.4,9.9
	c1.9,0.1,4,0,5.2-1.1c5.9-5.3,14-5.9,20.5-9.9c7.6-3.9,12.8-10.3,19.2-15.6c-1.1,17.6-10.9,34.5-26.8,42.4c-4.1,2-3.8,5.3-3.1,8.4
	c3.5,19.3,19.6,23,34.6,30.7c0,7-0.1,14.1-0.2,21.1c-42.7,13.7-88.8,13.8-131.8,1.4c0-7.4-0.1-14.7-0.1-22.1
	C170.5,225.9,172.5,226.2,173.6,225L173.6,225z"/>
<path class="st0" d="M105.2,124.1c-15.9-1-31.9,0.2-47.8-0.8c-27.1-2.6-51-26.4-54-53.3C-6-8.8,109.4-27.1,125.9,48.1
	c5.1,23.4-2.4,44.3-19.6,60.5c-4.6,4.2,8.4,7.6,10.9,10.2c1.3,0.8,2.2,1.7,1.8,3.4C117.6,125.9,108.6,123.3,105.2,124.1L105.2,124.1
	z M47.2,61.6c0.5-8.3-11.5-6.9-11.6,0C35.7,68.5,47.9,69.8,47.2,61.6z M94.2,61.7c0.7-8-11.2-7.4-11.6-0.3
	C82.5,68.5,94.6,69.7,94.2,61.7z M71,61.9c0-7.8-11.7-8.2-11.6-0.1C59.5,69,71,68.8,71,61.9z"/>
<path class="st3" d="M169.6,227.4c0.1,16.6,0,33.2-0.2,49.8c-11.7,1.5-34.9-6-35.1,12c2,31,6.8,61.8,9.6,92.8c-17.7,0-35.4,0-53.1,0
	c0.6-30.6,0-61.2,0.4-91.7c0.1-10.9,5.1-20.1,11.9-28.3c5.1-6.2,11.4-11,18.9-14.2C137.9,241.2,153.5,233,169.6,227.4L169.6,227.4z"
	/>
<path class="st3" d="M301.5,248.1c0-7,0.1-14.1,0.2-21.1c17.9,7.3,36.1,14.2,53.2,23.1c22.9,12.6,26.9,38.7,25.3,62.7
	c0.2,23.1,0.1,46.1,0.2,69.2c-15.8,0-31.6,0-47.4,0c2.5-31,7.4-61.9,9.4-92.9c0.1-7.6-4.1-11.8-11.8-11.8c-9.6,0-19.2,0-28.9,0
	C301.6,267.5,301.5,257.8,301.5,248.1L301.5,248.1z"/>
<path class="st4" d="M301.7,277.2c9.6,0,19.2-0.1,28.9,0c7.7,0,11.9,4.2,11.8,11.8c-2,31.1-6.8,61.9-9.4,92.9c-63,0-126.1,0-189.1,0
	c-2.4-24.2-5.3-48.4-8-72.6c-0.4-11.1-7.1-31.6,10-32.1C197.9,277.1,249.8,277.3,301.7,277.2L301.7,277.2z M254.6,332.2
	c1.1-21-32.6-21.8-32.4,0C222.9,354.9,255.3,353,254.6,332.2z"/>
<path class="st5" d="M301.7,277.2c-44.1,0-88.2,0-132.3,0c0.1-9.2,0.2-18.5,0.3-27.7c43,12.4,89.1,12.3,131.8-1.4
	C301.5,257.8,301.6,267.5,301.7,277.2z"/>
<path class="st5" d="M47.2,61.6c0.7,8.2-11.5,6.9-11.6,0C35.6,54.7,47.7,53.3,47.2,61.6z"/>
<path class="st5" d="M94.2,61.7c0.4,8-11.7,6.8-11.6-0.3C83,54.3,94.9,53.8,94.2,61.7z"/>
<path class="st5" d="M71.1,62c0,6.9-11.6,7.1-11.6-0.1C59.3,53.8,71.1,54.2,71.1,62z"/>
<path class="st0" d="M254.6,332.2c0.8,20.8-31.7,22.7-32.4,0C221.9,310.5,255.6,311.2,254.6,332.2z"/>
</svg>
