<?xml version="1.0" encoding="UTF-8"?>
<svg id="katman_1" data-name="katman 1" xmlns="http://www.w3.org/2000/svg" xmlns:xlink="http://www.w3.org/1999/xlink" viewBox="0 0 461.98 509.18">
  <defs>
    <style>
      .cls-1 {
        fill: url(#Adsız_degrade_6);
      }

      .cls-1, .cls-2, .cls-3, .cls-4, .cls-5, .cls-6, .cls-7, .cls-8, .cls-9, .cls-10, .cls-11, .cls-12 {
        stroke-width: 0px;
      }

      .cls-2 {
        fill: #f9263f;
      }

      .cls-3 {
        fill: #4a80aa;
      }

      .cls-4 {
        fill: #29abe2;
      }

      .cls-5 {
        fill: #365e7d;
      }

      .cls-6 {
        fill: #ccc;
      }

      .cls-7 {
        fill: #e10819;
      }

      .cls-8 {
        fill: #bed8fb;
      }

      .cls-9 {
        fill: #97e4ff;
      }

      .cls-10 {
        fill: #999;
      }

      .cls-11 {
        fill: #fff;
      }

      .cls-12 {
        fill: #ffddce;
      }
    </style>
    <linearGradient id="Adsız_degrade_6" data-name="Adsız degrade 6" x1="231.44" y1="107.96" x2="231.44" y2="400.26" gradientUnits="userSpaceOnUse">
      <stop offset=".25" stop-color="#fff"/>
      <stop offset="1" stop-color="#52c3f1"/>
    </linearGradient>
  </defs>
  <path class="cls-1" d="m328.02,283.23l-45.68-45.43c-22.08-21.96-34.75-52.41-34.75-83.55v-34.07h-32v34.05c0,31.14-12.67,61.59-34.75,83.55l-45.84,45.58-11.43-11.43v41.85h41.85l-7.79-7.79,45.77-45.51c4.35-4.33,8.42-8.92,12.18-13.73v69.72h-12.93l29.59,29.59,29.59-29.59h-14.25v-69.7c3.76,4.81,7.83,9.4,12.18,13.73l45.62,45.36-7.92,7.92h41.85v-41.85l-11.3,11.3Z"/>
  <g id="_1tqRvL.tif" data-name="1tqRvL.tif">
    <g>
      <path class="cls-12" d="m151.74,84.89c-.01-3.13-.06-6.26-.02-9.38.02-1.03-.29-1.68-1.14-2.31-6.65-4.85-10.55-11.34-11.45-19.57-.15-1.36-.41-2.43-2.24-2.69-2.45-.34-3.63-2.06-3.65-4.53-.02-2.14-.03-4.29-.04-6.43,0-.68,0-1.36,0-2.04.01-.22.03-.43.04-.65,2.03,0,4.05.05,6.08-.03,2.25-.09,4.53-1.88,4.94-4.04.25-1.29.08-2.65.12-3.98.12-4.21,3.16-7.88,8.27-6.33,3.54,1.07,7.17,1.85,10.85,2.1,5.66.39,11.17-.58,16.64-2.11,3.96-1.11,7.19.01,8.28,4.12.34,1.3.08,2.76.11,4.15.08,3.78,2.39,6.07,6.14,6.1,1.79.01,3.59,0,5.38,0,0,.11.02.22.04.33,0,.8,0,1.59,0,2.39-.02,2.2-.02,4.4-.05,6.6-.04,2.25-1.24,4.12-3.42,4.39-2.01.25-2.31,1.46-2.46,2.93-.46,4.66-2.13,8.86-4.79,12.67-1.8,2.58-3.9,4.89-6.58,6.59-.95.6-1.27,1.32-1.25,2.43.08,3.13.04,6.26.04,9.39.01.07.01.13,0,.2-.77.1-1.2.69-1.64,1.2-4.06,4.74-8.1,9.49-12.16,14.24-.7.82-.49,1.37.3,2.01,2.06,1.68,4.02,3.48,6.08,5.15,1.06.86,1.03,1.64.23,2.63-1.05,1.31-2.01,2.69-3.03,4.02-.42.54-.55,1.06-.36,1.76,1.69,6.23,2.98,12.56,4.88,18.73-1.84,4.82-4.02,9.49-6.23,14.15h-.07s.04.04.04.04c-.11.14-.22.28-.33.42-1.8-.35-3.33.67-5,.98-2.53-5.1-4.91-10.28-6.96-15.59.14-.62.26-1.24.41-1.85,1.4-5.47,2.8-10.94,4.2-16.41.26-1.02.34-1.9-.56-2.81-1.13-1.14-1.99-2.53-3.01-3.79-.52-.63-.45-1,.21-1.53,2.12-1.69,4.16-3.49,6.27-5.2,1.96-1.59,1.99-1.9.29-3.75-1.64-1.79-3.19-3.66-4.87-5.42-2.91-3.05-5.38-6.51-8.58-9.3Z"/>
      <path class="cls-5" d="m200.07,37.26c-1.79,0-3.59.01-5.38,0-3.76-.02-6.06-2.31-6.14-6.1-.03-1.39.23-2.85-.11-4.15-1.09-4.11-4.32-5.23-8.28-4.12-5.47,1.53-10.97,2.5-16.64,2.11-3.69-.25-7.31-1.03-10.85-2.1-5.11-1.55-8.15,2.13-8.27,6.33-.04,1.33.13,2.69-.12,3.98-.42,2.15-2.69,3.95-4.94,4.04-2.02.08-4.05.02-6.08.03,0-6.84-.2-13.69.09-20.52.19-4.48,2.49-8.21,5.67-11.39,4.01-4,9-5.28,14.43-5.32C162.19,0,170.95,0,179.7,0c3.26,0,6.06,1.04,7.89,3.98.66,1.06,1,2.16,1.02,3.41.03,2.37,1.25,3.62,3.54,3.71,4.42.18,7.87,3.61,7.93,8.08.07,6.03,0,12.06,0,18.08Z"/>
      <path class="cls-7" d="m163.52,152.67c-4.09.33-8.1-.49-12.08-1.14-6.58-1.08-12.9-3.06-19.08-5.61-7.39-3.06-14.16-7.14-20.47-12-3.19-2.46-6.19-5.14-9.06-7.97-.4-.4-.93-.72-.95-1.38.02-1.97.15-3.94.05-5.91-.46-8.77,6.21-17.01,13.62-19.22,5.66-1.69,11.25-3.63,16.87-5.44.26-.08.57-.03.86-.04-.42,2.47,1.17,4.28,2.12,6.29,2.09,4.41,3.62,5.19-1.4,9.85-1.31,1.22-1.75,2.79-1.09,4.6.93,2.57,2.15,4.99,3.62,7.29,4.49,7.05,9.94,13.34,15.75,19.31,3.72,3.82,7.49,7.58,11.24,11.36Z"/>
      <path class="cls-7" d="m224.04,102.72c3.55,3.15,5.99,6.98,6.92,11.67.67,3.36.33,6.79.48,10.18-5.82,6.47-12.62,11.72-20.13,16.08-7.78,4.52-16.02,7.87-24.82,9.84-5.4,1.21-10.81,2.23-16.37,2.19.05-.58.47-.91.83-1.28,5.72-5.81,11.67-11.39,16.94-17.64,4.18-4.96,8.22-10,11.12-15.85,2.31-4.67,2.59-5.86-1.51-9.67-1.78-1.65-1.96-3.13-.92-5.31.8-1.67,1.61-3.34,2.5-4.96.69-1.25,1.16-2.52.93-3.97,2.93.73,5.79,1.68,8.64,2.67,3.88,1.35,7.91,2.2,11.69,3.85,1.33.58,2.38,1.6,3.68,2.19Z"/>
      <path class="cls-2" d="m200.03,94.01c.23,1.45-.24,2.71-.93,3.97-.89,1.62-1.7,3.29-2.5,4.96-1.04,2.19-.86,3.66.92,5.31,4.09,3.81,3.82,4.99,1.51,9.67-2.89,5.85-6.93,10.9-11.12,15.85-5.27,6.25-11.22,11.83-16.94,17.64-.36.37-.79.7-.83,1.28-.71-.02-1.42-.05-2.12-.07.52-.99,1.28-1.87,1.33-3.07.11-.14.22-.28.33-.43,0,0,.03-.04.03-.04,2.2-4.66,4.38-9.33,6.23-14.15,2.27-5.43,4.11-11,5.7-16.67,1.25-4.43,2.14-8.93,2.72-13.48.47-3.74.72-7.55.03-11.31-.53-2.88-.93-5.84-2.75-8.31.01-.07.01-.13,0-.2.49-.23.89.05,1.3.25,5.23,2.6,10.47,5.2,15.7,7.81.5.25.94.64,1.41.96Z"/>
      <path class="cls-2" d="m163.52,152.67c-3.75-3.79-7.52-7.55-11.24-11.36-5.82-5.97-11.26-12.26-15.75-19.31-1.46-2.3-2.68-4.72-3.62-7.29-.66-1.81-.22-3.38,1.09-4.6,5.02-4.66,3.49-5.45,1.4-9.85-.95-2-2.54-3.81-2.12-6.29,1.87-1.66,4.23-2.43,6.42-3.51,3.67-1.81,7.33-3.63,11-5.44.19-.1.44-.09.66-.13-.02.17.02.37-.06.51-3.06,5.84-3.45,12.11-2.66,18.45.74,5.91,1.92,11.77,3.79,17.46,1.51,4.59,2.88,9.23,4.96,13.62,2.05,5.32,4.43,10.49,6.96,15.59.08.81.56,1.44.97,2.1-.59.02-1.19.04-1.78.06Z"/>
      <path class="cls-11" d="m157.38,134.93c-2.08-4.38-3.44-9.03-4.96-13.62-1.87-5.69-3.05-11.54-3.79-17.46-.79-6.33-.39-12.61,2.66-18.45.07-.14.04-.34.06-.51.13,0,.26,0,.39,0,3.2,2.78,5.67,6.25,8.58,9.3,1.67,1.76,3.23,3.63,4.87,5.42,1.7,1.85,1.67,2.16-.29,3.75-2.11,1.71-4.14,3.51-6.27,5.2-.66.53-.73.89-.21,1.53,1.02,1.25,1.89,2.65,3.01,3.79.9.9.82,1.78.56,2.81-1.4,5.47-2.8,10.94-4.2,16.41-.16.61-.28,1.23-.41,1.85Z"/>
      <path class="cls-8" d="m200.12,39.98c0-.8,0-1.59,0-2.39.44.8.43,1.59,0,2.39Z"/>
      <path class="cls-8" d="m133.21,37.94c0,.68,0,1.36,0,2.04-.46-.68-.45-1.36,0-2.04Z"/>
      <path class="cls-12" d="m165.31,152.62c-.41-.66-.89-1.29-.97-2.1,1.67-.3,3.2-1.33,5-.97-.05,1.19-.8,2.08-1.33,3.07-.9,0-1.8,0-2.7,0Z"/>
      <path class="cls-11" d="m181.62,85.17c1.82,2.47,2.22,5.43,2.75,8.31.69,3.75.45,7.56-.03,11.31-.58,4.54-1.47,9.05-2.72,13.48-1.59,5.66-3.43,11.24-5.7,16.67-1.9-6.17-3.19-12.5-4.88-18.73-.19-.7-.06-1.22.36-1.76,1.02-1.33,1.98-2.71,3.03-4.02.8-1,.83-1.77-.23-2.63-2.06-1.68-4.02-3.47-6.08-5.15-.79-.64-1-1.2-.3-2.01,4.06-4.74,8.09-9.5,12.16-14.24.44-.52.87-1.11,1.64-1.2Z"/>
      <polygon class="cls-3" points="169.7 149.08 169.67 149.12 169.63 149.07 169.7 149.08"/>
    </g>
  </g>
  <g id="_1tqRvL.tif-2" data-name="1tqRvL.tif">
    <g>
      <path class="cls-12" d="m281.31,84.89c-.01-3.13-.06-6.26-.02-9.38.02-1.03-.29-1.68-1.14-2.31-6.65-4.85-10.55-11.34-11.45-19.57-.15-1.36-.41-2.43-2.24-2.69-2.45-.34-3.63-2.06-3.65-4.53-.02-2.14-.03-4.29-.04-6.43,0-.68,0-1.36,0-2.04.01-.22.03-.43.04-.65,2.03,0,4.05.05,6.08-.03,2.25-.09,4.53-1.88,4.94-4.04.25-1.29.08-2.65.12-3.98.12-4.21,3.16-7.88,8.27-6.33,3.54,1.07,7.17,1.85,10.85,2.1,5.66.39,11.17-.58,16.64-2.11,3.96-1.11,7.19.01,8.28,4.12.34,1.3.08,2.76.11,4.15.08,3.78,2.39,6.07,6.14,6.1,1.79.01,3.59,0,5.38,0,0,.11.02.22.04.33,0,.8,0,1.59,0,2.39-.02,2.2-.02,4.4-.05,6.6-.04,2.25-1.24,4.12-3.42,4.39-2.01.25-2.31,1.46-2.46,2.93-.46,4.66-2.13,8.86-4.79,12.67-1.8,2.58-3.9,4.89-6.58,6.59-.95.6-1.27,1.32-1.25,2.43.08,3.13.04,6.26.04,9.39.01.07.01.13,0,.2-.77.1-1.2.69-1.64,1.2-4.06,4.74-8.1,9.49-12.16,14.24-.7.82-.49,1.37.3,2.01,2.06,1.68,4.02,3.48,6.08,5.15,1.06.86,1.03,1.64.23,2.63-1.05,1.31-2.01,2.69-3.03,4.02-.42.54-.55,1.06-.36,1.76,1.69,6.23,2.98,12.56,4.88,18.73-1.84,4.82-4.02,9.49-6.23,14.15h-.07s.04.04.04.04c-.11.14-.22.28-.33.42-1.8-.35-3.33.67-5,.98-2.53-5.1-4.91-10.28-6.96-15.59.14-.62.26-1.24.41-1.85,1.4-5.47,2.8-10.94,4.2-16.41.26-1.02.34-1.9-.56-2.81-1.13-1.14-1.99-2.53-3.01-3.79-.52-.63-.45-1,.21-1.53,2.12-1.69,4.16-3.49,6.27-5.2,1.96-1.59,1.99-1.9.29-3.75-1.64-1.79-3.19-3.66-4.87-5.42-2.91-3.05-5.38-6.51-8.58-9.3Z"/>
      <path class="cls-5" d="m329.64,37.26c-1.79,0-3.59.01-5.38,0-3.76-.02-6.06-2.31-6.14-6.1-.03-1.39.23-2.85-.11-4.15-1.09-4.11-4.32-5.23-8.28-4.12-5.47,1.53-10.97,2.5-16.64,2.11-3.69-.25-7.31-1.03-10.85-2.1-5.11-1.55-8.15,2.13-8.27,6.33-.04,1.33.13,2.69-.12,3.98-.42,2.15-2.69,3.95-4.94,4.04-2.02.08-4.05.02-6.08.03,0-6.84-.2-13.69.09-20.52.19-4.48,2.49-8.21,5.67-11.39,4.01-4,9-5.28,14.43-5.32,8.75-.07,17.51-.08,26.26-.06,3.26,0,6.06,1.04,7.89,3.98.66,1.06,1,2.16,1.02,3.41.03,2.37,1.25,3.62,3.54,3.71,4.42.18,7.87,3.61,7.93,8.08.07,6.03,0,12.06,0,18.08Z"/>
      <path class="cls-10" d="m293.09,152.67c-4.09.33-8.1-.49-12.08-1.14-6.58-1.08-12.9-3.06-19.08-5.61-7.39-3.06-14.16-7.14-20.47-12-3.19-2.46-6.19-5.14-9.06-7.97-.4-.4-.93-.72-.95-1.38.02-1.97.15-3.94.05-5.91-.46-8.77,6.21-17.01,13.62-19.22,5.66-1.69,11.25-3.63,16.87-5.44.26-.08.57-.03.86-.04-.42,2.47,1.17,4.28,2.12,6.29,2.09,4.41,3.62,5.19-1.4,9.85-1.31,1.22-1.75,2.79-1.09,4.6.93,2.57,2.15,4.99,3.62,7.29,4.49,7.05,9.94,13.34,15.75,19.31,3.72,3.82,7.49,7.58,11.24,11.36Z"/>
      <path class="cls-10" d="m353.61,102.72c3.55,3.15,5.99,6.98,6.92,11.67.67,3.36.33,6.79.48,10.18-5.82,6.47-12.62,11.72-20.13,16.08-7.78,4.52-16.02,7.87-24.82,9.84-5.4,1.21-10.81,2.23-16.37,2.19.05-.58.47-.91.83-1.28,5.72-5.81,11.67-11.39,16.94-17.64,4.18-4.96,8.22-10,11.12-15.85,2.31-4.67,2.59-5.86-1.51-9.67-1.78-1.65-1.96-3.13-.92-5.31.8-1.67,1.61-3.34,2.5-4.96.69-1.25,1.16-2.52.93-3.97,2.93.73,5.79,1.68,8.64,2.67,3.88,1.35,7.91,2.2,11.69,3.85,1.33.58,2.38,1.6,3.68,2.19Z"/>
      <path class="cls-6" d="m329.59,94.01c.23,1.45-.24,2.71-.93,3.97-.89,1.62-1.7,3.29-2.5,4.96-1.04,2.19-.86,3.66.92,5.31,4.09,3.81,3.82,4.99,1.51,9.67-2.89,5.85-6.93,10.9-11.12,15.85-5.27,6.25-11.22,11.83-16.94,17.64-.36.37-.79.7-.83,1.28-.71-.02-1.42-.05-2.12-.07.52-.99,1.28-1.87,1.33-3.07.11-.14.22-.28.33-.43,0,0,.03-.04.03-.04,2.2-4.66,4.38-9.33,6.23-14.15,2.27-5.43,4.11-11,5.7-16.67,1.25-4.43,2.14-8.93,2.72-13.48.47-3.74.72-7.55.03-11.31-.53-2.88-.93-5.84-2.75-8.31.01-.07.01-.13,0-.2.49-.23.89.05,1.3.25,5.23,2.6,10.47,5.2,15.7,7.81.5.25.94.64,1.41.96Z"/>
      <path class="cls-6" d="m293.09,152.67c-3.75-3.79-7.52-7.55-11.24-11.36-5.82-5.97-11.26-12.26-15.75-19.31-1.46-2.3-2.68-4.72-3.62-7.29-.66-1.81-.22-3.38,1.09-4.6,5.02-4.66,3.49-5.45,1.4-9.85-.95-2-2.54-3.81-2.12-6.29,1.87-1.66,4.23-2.43,6.42-3.51,3.67-1.81,7.33-3.63,11-5.44.19-.1.44-.09.66-.13-.02.17.02.37-.06.51-3.06,5.84-3.45,12.11-2.66,18.45.74,5.91,1.92,11.77,3.79,17.46,1.51,4.59,2.88,9.23,4.96,13.62,2.05,5.32,4.43,10.49,6.96,15.59.08.81.56,1.44.97,2.1-.59.02-1.19.04-1.78.06Z"/>
      <path class="cls-11" d="m286.94,134.93c-2.08-4.38-3.44-9.03-4.96-13.62-1.87-5.69-3.05-11.54-3.79-17.46-.79-6.33-.39-12.61,2.66-18.45.07-.14.04-.34.06-.51.13,0,.26,0,.39,0,3.2,2.78,5.67,6.25,8.58,9.3,1.67,1.76,3.23,3.63,4.87,5.42,1.7,1.85,1.67,2.16-.29,3.75-2.11,1.71-4.14,3.51-6.27,5.2-.66.53-.73.89-.21,1.53,1.02,1.25,1.89,2.65,3.01,3.79.9.9.82,1.78.56,2.81-1.4,5.47-2.8,10.94-4.2,16.41-.16.61-.28,1.23-.41,1.85Z"/>
      <path class="cls-8" d="m329.68,39.98c0-.8,0-1.59,0-2.39.44.8.43,1.59,0,2.39Z"/>
      <path class="cls-8" d="m262.78,37.94c0,.68,0,1.36,0,2.04-.46-.68-.45-1.36,0-2.04Z"/>
      <path class="cls-12" d="m294.87,152.62c-.41-.66-.89-1.29-.97-2.1,1.67-.3,3.2-1.33,5-.97-.05,1.19-.8,2.08-1.33,3.07-.9,0-1.8,0-2.7,0Z"/>
      <path class="cls-11" d="m311.19,85.17c1.82,2.47,2.22,5.43,2.75,8.31.69,3.75.45,7.56-.03,11.31-.58,4.54-1.47,9.05-2.72,13.48-1.59,5.66-3.43,11.24-5.7,16.67-1.9-6.17-3.19-12.5-4.88-18.73-.19-.7-.06-1.22.36-1.76,1.02-1.33,1.98-2.71,3.03-4.02.8-1,.83-1.77-.23-2.63-2.06-1.68-4.02-3.47-6.08-5.15-.79-.64-1-1.2-.3-2.01,4.06-4.74,8.09-9.5,12.16-14.24.44-.52.87-1.11,1.64-1.2Z"/>
      <polygon class="cls-3" points="299.26 149.08 299.23 149.12 299.19 149.07 299.26 149.08"/>
    </g>
  </g>
  <g>
    <path class="cls-12" d="m216.52,103.54c-.01-3.13-.06-6.26-.02-9.38.02-1.03-.29-1.68-1.14-2.31-6.65-4.85-10.55-11.34-11.45-19.57-.15-1.36-.41-2.43-2.24-2.69-2.45-.34-3.63-2.06-3.65-4.53-.02-2.14-.03-4.29-.04-6.43,0-.68,0-1.36,0-2.04.01-.22.03-.43.04-.65,2.03,0,4.05.05,6.08-.03,2.25-.09,4.53-1.88,4.94-4.04.25-1.29.08-2.65.12-3.98.12-4.21,3.16-7.88,8.27-6.33,3.54,1.07,7.17,1.85,10.85,2.1,5.66.39,11.17-.58,16.64-2.11,3.96-1.11,7.19.01,8.28,4.12.34,1.3.08,2.76.11,4.15.08,3.78,2.39,6.07,6.14,6.1,1.79.01,3.59,0,5.38,0,0,.11.02.22.04.33,0,.8,0,1.59,0,2.39-.02,2.2-.02,4.4-.05,6.6-.04,2.25-1.24,4.12-3.42,4.39-2.01.25-2.31,1.46-2.46,2.93-.46,4.66-2.13,8.86-4.79,12.67-1.8,2.58-3.9,4.89-6.58,6.59-.95.6-1.27,1.32-1.25,2.43.08,3.13.04,6.26.04,9.39.01.07.01.13,0,.2-.77.1-1.2.69-1.64,1.2-4.06,4.74-8.1,9.49-12.16,14.24-.7.82-.49,1.37.3,2.01,2.06,1.68,4.02,3.48,6.08,5.15,1.06.86,1.03,1.64.23,2.63-1.05,1.31-2.01,2.69-3.03,4.02-.42.54-.55,1.06-.36,1.76,1.69,6.23,2.98,12.56,4.88,18.73-1.84,4.82-4.02,9.49-6.23,14.15h-.07s.04.04.04.04c-.11.14-.22.28-.33.42-1.8-.35-3.33.67-5,.98-2.53-5.1-4.91-10.28-6.96-15.59.14-.62.26-1.24.41-1.85,1.4-5.47,2.8-10.94,4.2-16.41.26-1.02.34-1.9-.56-2.81-1.13-1.14-1.99-2.53-3.01-3.79-.52-.63-.45-1,.21-1.53,2.12-1.69,4.16-3.49,6.27-5.2,1.96-1.59,1.99-1.9.29-3.75-1.64-1.79-3.19-3.66-4.87-5.42-2.91-3.05-5.38-6.51-8.58-9.3Z"/>
    <path class="cls-5" d="m264.86,55.91c-1.79,0-3.59.01-5.38,0-3.76-.02-6.06-2.31-6.14-6.1-.03-1.39.23-2.85-.11-4.15-1.09-4.11-4.32-5.23-8.28-4.12-5.47,1.53-10.97,2.5-16.64,2.11-3.69-.25-7.31-1.03-10.85-2.1-5.11-1.55-8.15,2.13-8.27,6.33-.04,1.33.13,2.69-.12,3.98-.42,2.15-2.69,3.95-4.94,4.04-2.02.08-4.05.02-6.08.03,0-6.84-.2-13.69.09-20.52.19-4.48,2.49-8.21,5.67-11.39,4.01-4,9-5.28,14.43-5.32,8.75-.07,17.51-.08,26.26-.06,3.26,0,6.06,1.04,7.89,3.98.66,1.06,1,2.16,1.02,3.41.03,2.37,1.25,3.62,3.54,3.71,4.42.18,7.87,3.61,7.93,8.08.07,6.03,0,12.06,0,18.08Z"/>
    <path class="cls-4" d="m228.31,171.32c-4.09.33-8.1-.49-12.08-1.14-6.58-1.08-12.9-3.06-19.08-5.61-7.39-3.06-14.16-7.14-20.47-12-3.19-2.46-6.19-5.14-9.06-7.97-.4-.4-.93-.72-.95-1.38.02-1.97.15-3.94.05-5.91-.46-8.77,6.21-17.01,13.62-19.22,5.66-1.69,11.25-3.63,16.87-5.44.26-.08.57-.03.86-.04-.42,2.47,1.17,4.28,2.12,6.29,2.09,4.41,3.62,5.19-1.4,9.85-1.31,1.22-1.75,2.79-1.09,4.6.93,2.57,2.15,4.99,3.62,7.29,4.49,7.05,9.94,13.34,15.75,19.31,3.72,3.82,7.49,7.58,11.24,11.36Z"/>
    <path class="cls-4" d="m288.82,121.37c3.55,3.15,5.99,6.98,6.92,11.67.67,3.36.33,6.79.48,10.18-5.82,6.47-12.62,11.72-20.13,16.08-7.78,4.52-16.02,7.87-24.82,9.84-5.4,1.21-10.81,2.23-16.37,2.19.05-.58.47-.91.83-1.28,5.72-5.81,11.67-11.39,16.94-17.64,4.18-4.96,8.22-10,11.12-15.85,2.31-4.67,2.59-5.86-1.51-9.67-1.78-1.65-1.96-3.13-.92-5.31.8-1.67,1.61-3.34,2.5-4.96.69-1.25,1.16-2.52.93-3.97,2.93.73,5.79,1.68,8.64,2.67,3.88,1.35,7.91,2.2,11.69,3.85,1.33.58,2.38,1.6,3.68,2.19Z"/>
    <path class="cls-9" d="m264.81,112.65c.23,1.45-.24,2.71-.93,3.97-.89,1.62-1.7,3.29-2.5,4.96-1.04,2.19-.86,3.66.92,5.31,4.09,3.81,3.82,4.99,1.51,9.67-2.89,5.85-6.93,10.9-11.12,15.85-5.27,6.25-11.22,11.83-16.94,17.64-.36.37-.79.7-.83,1.28-.71-.02-1.42-.05-2.12-.07.52-.99,1.28-1.87,1.33-3.07.11-.14.22-.28.33-.43,0,0,.03-.04.03-.04,2.2-4.66,4.38-9.33,6.23-14.15,2.27-5.43,4.11-11,5.7-16.67,1.25-4.43,2.14-8.93,2.72-13.48.47-3.74.72-7.55.03-11.31-.53-2.88-.93-5.84-2.75-8.31.01-.07.01-.13,0-.2.49-.23.89.05,1.3.25,5.23,2.6,10.47,5.2,15.7,7.81.5.25.94.64,1.41.96Z"/>
    <path class="cls-9" d="m228.31,171.32c-3.75-3.79-7.52-7.55-11.24-11.36-5.82-5.97-11.26-12.26-15.75-19.31-1.46-2.3-2.68-4.72-3.62-7.29-.66-1.81-.22-3.38,1.09-4.6,5.02-4.66,3.49-5.45,1.4-9.85-.95-2-2.54-3.81-2.12-6.29,1.87-1.66,4.23-2.43,6.42-3.51,3.67-1.81,7.33-3.63,11-5.44.19-.1.44-.09.66-.13-.02.17.02.37-.06.51-3.06,5.84-3.45,12.11-2.66,18.45.74,5.91,1.92,11.77,3.79,17.46,1.51,4.59,2.88,9.23,4.96,13.62,2.05,5.32,4.43,10.49,6.96,15.59.08.81.56,1.44.97,2.1-.59.02-1.19.04-1.78.06Z"/>
    <path class="cls-11" d="m222.16,153.58c-2.08-4.38-3.44-9.03-4.96-13.62-1.87-5.69-3.05-11.54-3.79-17.46-.79-6.33-.39-12.61,2.66-18.45.07-.14.04-.34.06-.51.13,0,.26,0,.39,0,3.2,2.78,5.67,6.25,8.58,9.3,1.67,1.76,3.23,3.63,4.87,5.42,1.7,1.85,1.67,2.16-.29,3.75-2.11,1.71-4.14,3.51-6.27,5.2-.66.53-.73.89-.21,1.53,1.02,1.25,1.89,2.65,3.01,3.79.9.9.82,1.78.56,2.81-1.4,5.47-2.8,10.94-4.2,16.41-.16.61-.28,1.23-.41,1.85Z"/>
    <path class="cls-8" d="m264.9,58.63c0-.8,0-1.59,0-2.39.44.8.43,1.59,0,2.39Z"/>
    <path class="cls-8" d="m197.99,56.59c0,.68,0,1.36,0,2.04-.46-.68-.45-1.36,0-2.04Z"/>
    <path class="cls-12" d="m230.09,171.27c-.41-.66-.89-1.29-.97-2.1,1.67-.3,3.2-1.33,5-.97-.05,1.19-.8,2.08-1.33,3.07-.9,0-1.8,0-2.7,0Z"/>
    <path class="cls-11" d="m246.4,103.82c1.82,2.47,2.22,5.43,2.75,8.31.69,3.75.45,7.56-.03,11.31-.58,4.54-1.47,9.05-2.72,13.48-1.59,5.66-3.43,11.24-5.7,16.67-1.9-6.17-3.19-12.5-4.88-18.73-.19-.7-.06-1.22.36-1.76,1.02-1.33,1.98-2.71,3.03-4.02.8-1,.83-1.77-.23-2.63-2.06-1.68-4.02-3.47-6.08-5.15-.79-.64-1-1.2-.3-2.01,4.06-4.74,8.09-9.5,12.16-14.24.44-.52.87-1.11,1.64-1.2Z"/>
    <polygon class="cls-3" points="234.48 167.73 234.45 167.77 234.41 167.72 234.48 167.73"/>
  </g>
  <g id="_1tqRvL.tif-3" data-name="1tqRvL.tif">
    <g>
      <path class="cls-12" d="m382.28,331.25c-.01-3.13-.06-6.26-.02-9.38.02-1.03-.29-1.68-1.14-2.31-6.65-4.85-10.55-11.34-11.45-19.57-.15-1.36-.41-2.43-2.24-2.69-2.45-.34-3.63-2.06-3.65-4.53-.02-2.14-.03-4.29-.04-6.43,0-.68,0-1.36,0-2.04.01-.22.03-.43.04-.65,2.03,0,4.05.05,6.08-.03,2.25-.09,4.53-1.88,4.94-4.04.25-1.29.08-2.65.12-3.98.12-4.21,3.16-7.88,8.27-6.33,3.54,1.07,7.17,1.85,10.85,2.1,5.66.39,11.17-.58,16.64-2.11,3.96-1.11,7.19.01,8.28,4.12.34,1.3.08,2.76.11,4.15.08,3.78,2.39,6.07,6.14,6.1,1.79.01,3.59,0,5.38,0,0,.11.02.22.04.33,0,.8,0,1.59,0,2.39-.02,2.2-.02,4.4-.05,6.6-.04,2.25-1.24,4.12-3.42,4.39-2.01.25-2.31,1.46-2.46,2.93-.46,4.66-2.13,8.86-4.79,12.67-1.8,2.58-3.9,4.89-6.58,6.59-.95.6-1.27,1.32-1.25,2.43.08,3.13.04,6.26.04,9.39.01.07.01.13,0,.2-.77.1-1.2.69-1.64,1.2-4.06,4.74-8.1,9.49-12.16,14.24-.7.82-.49,1.37.3,2.01,2.06,1.68,4.02,3.48,6.08,5.15,1.06.86,1.03,1.64.23,2.63-1.05,1.31-2.01,2.69-3.03,4.02-.42.54-.55,1.06-.36,1.76,1.69,6.23,2.98,12.56,4.88,18.73-1.84,4.82-4.02,9.49-6.23,14.15h-.07s.04.04.04.04c-.11.14-.22.28-.33.42-1.8-.35-3.33.67-5,.98-2.53-5.1-4.91-10.28-6.96-15.59.14-.62.26-1.24.41-1.85,1.4-5.47,2.8-10.94,4.2-16.41.26-1.02.34-1.9-.56-2.81-1.13-1.14-1.99-2.53-3.01-3.79-.52-.63-.45-1,.21-1.53,2.12-1.69,4.16-3.49,6.27-5.2,1.96-1.59,1.99-1.9.29-3.75-1.64-1.79-3.19-3.66-4.87-5.42-2.91-3.05-5.38-6.51-8.58-9.3Z"/>
      <path class="cls-5" d="m430.61,283.62c-1.79,0-3.59.01-5.38,0-3.76-.02-6.06-2.31-6.14-6.1-.03-1.39.23-2.85-.11-4.15-1.09-4.11-4.32-5.23-8.28-4.12-5.47,1.53-10.97,2.5-16.64,2.11-3.69-.25-7.31-1.03-10.85-2.1-5.11-1.55-8.15,2.13-8.27,6.33-.04,1.33.13,2.69-.12,3.98-.42,2.15-2.69,3.95-4.94,4.04-2.02.08-4.05.02-6.08.03,0-6.84-.2-13.69.09-20.52.19-4.48,2.49-8.21,5.67-11.39,4.01-4,9-5.28,14.43-5.32,8.75-.07,17.51-.08,26.26-.06,3.26,0,6.06,1.04,7.89,3.98.66,1.06,1,2.16,1.02,3.41.03,2.37,1.25,3.62,3.54,3.71,4.42.18,7.87,3.61,7.93,8.08.07,6.03,0,12.06,0,18.08Z"/>
      <path class="cls-4" d="m394.06,399.03c-4.09.33-8.1-.49-12.08-1.14-6.58-1.08-12.9-3.06-19.08-5.61-7.39-3.06-14.16-7.14-20.47-12-3.19-2.46-6.19-5.14-9.06-7.97-.4-.4-.93-.72-.95-1.38.02-1.97.15-3.94.05-5.91-.46-8.77,6.21-17.01,13.62-19.22,5.66-1.69,11.25-3.63,16.87-5.44.26-.08.57-.03.86-.04-.42,2.47,1.17,4.28,2.12,6.29,2.09,4.41,3.62,5.19-1.4,9.85-1.31,1.22-1.75,2.79-1.09,4.6.93,2.57,2.15,4.99,3.62,7.29,4.49,7.05,9.94,13.34,15.75,19.31,3.72,3.82,7.49,7.58,11.24,11.36Z"/>
      <path class="cls-4" d="m454.58,349.08c3.55,3.15,5.99,6.98,6.92,11.67.67,3.36.33,6.79.48,10.18-5.82,6.47-12.62,11.72-20.13,16.08-7.78,4.52-16.02,7.87-24.82,9.84-5.4,1.21-10.81,2.23-16.37,2.19.05-.58.47-.91.83-1.28,5.72-5.81,11.67-11.39,16.94-17.64,4.18-4.96,8.22-10,11.12-15.85,2.31-4.67,2.59-5.86-1.51-9.67-1.78-1.65-1.96-3.13-.92-5.31.8-1.67,1.61-3.34,2.5-4.96.69-1.25,1.16-2.52.93-3.97,2.93.73,5.79,1.68,8.64,2.67,3.88,1.35,7.91,2.2,11.69,3.85,1.33.58,2.38,1.6,3.68,2.19Z"/>
      <path class="cls-9" d="m430.56,340.36c.23,1.45-.24,2.71-.93,3.97-.89,1.62-1.7,3.29-2.5,4.96-1.04,2.19-.86,3.66.92,5.31,4.09,3.81,3.82,4.99,1.51,9.67-2.89,5.85-6.93,10.9-11.12,15.85-5.27,6.25-11.22,11.83-16.94,17.64-.36.37-.79.7-.83,1.28-.71-.02-1.42-.05-2.12-.07.52-.99,1.28-1.87,1.33-3.07.11-.14.22-.28.33-.43,0,0,.03-.04.03-.04,2.2-4.66,4.38-9.33,6.23-14.15,2.27-5.43,4.11-11,5.7-16.67,1.25-4.43,2.14-8.93,2.72-13.48.47-3.74.72-7.55.03-11.31-.53-2.88-.93-5.84-2.75-8.31.01-.07.01-.13,0-.2.49-.23.89.05,1.3.25,5.23,2.6,10.47,5.2,15.7,7.81.5.25.94.64,1.41.96Z"/>
      <path class="cls-9" d="m394.06,399.03c-3.75-3.79-7.52-7.55-11.24-11.36-5.82-5.97-11.26-12.26-15.75-19.31-1.46-2.3-2.68-4.72-3.62-7.29-.66-1.81-.22-3.38,1.09-4.6,5.02-4.66,3.49-5.45,1.4-9.85-.95-2-2.54-3.81-2.12-6.29,1.87-1.66,4.23-2.43,6.42-3.51,3.67-1.81,7.33-3.63,11-5.44.19-.1.44-.09.66-.13-.02.17.02.37-.06.51-3.06,5.84-3.45,12.11-2.66,18.45.74,5.91,1.92,11.77,3.79,17.46,1.51,4.59,2.88,9.23,4.96,13.62,2.05,5.32,4.43,10.49,6.96,15.59.08.81.56,1.44.97,2.1-.59.02-1.19.04-1.78.06Z"/>
      <path class="cls-11" d="m387.92,381.29c-2.08-4.38-3.44-9.03-4.96-13.62-1.87-5.69-3.05-11.54-3.79-17.46-.79-6.33-.39-12.61,2.66-18.45.07-.14.04-.34.06-.51.13,0,.26,0,.39,0,3.2,2.78,5.67,6.25,8.58,9.3,1.67,1.76,3.23,3.63,4.87,5.42,1.7,1.85,1.67,2.16-.29,3.75-2.11,1.71-4.14,3.51-6.27,5.2-.66.53-.73.89-.21,1.53,1.02,1.25,1.89,2.65,3.01,3.79.9.9.82,1.78.56,2.81-1.4,5.47-2.8,10.94-4.2,16.41-.16.61-.28,1.23-.41,1.85Z"/>
      <path class="cls-8" d="m430.66,286.34c0-.8,0-1.59,0-2.39.44.8.43,1.59,0,2.39Z"/>
      <path class="cls-8" d="m363.75,284.3c0,.68,0,1.36,0,2.04-.46-.68-.45-1.36,0-2.04Z"/>
      <path class="cls-12" d="m395.84,398.98c-.41-.66-.89-1.29-.97-2.1,1.67-.3,3.2-1.33,5-.97-.05,1.19-.8,2.08-1.33,3.07-.9,0-1.8,0-2.7,0Z"/>
      <path class="cls-11" d="m412.16,331.53c1.82,2.47,2.22,5.43,2.75,8.31.69,3.75.45,7.56-.03,11.31-.58,4.54-1.47,9.05-2.72,13.48-1.59,5.66-3.43,11.24-5.7,16.67-1.9-6.17-3.19-12.5-4.88-18.73-.19-.7-.06-1.22.36-1.76,1.02-1.33,1.98-2.71,3.03-4.02.8-1,.83-1.77-.23-2.63-2.06-1.68-4.02-3.47-6.08-5.15-.79-.64-1-1.2-.3-2.01,4.06-4.74,8.09-9.5,12.16-14.24.44-.52.87-1.11,1.64-1.2Z"/>
      <polygon class="cls-3" points="400.23 395.44 400.2 395.48 400.17 395.43 400.23 395.44"/>
    </g>
  </g>
  <g id="_1tqRvL.tif-4" data-name="1tqRvL.tif">
    <g>
      <path class="cls-12" d="m49.86,331.25c-.01-3.13-.06-6.26-.02-9.38.02-1.03-.29-1.68-1.14-2.31-6.65-4.85-10.55-11.34-11.45-19.57-.15-1.36-.41-2.43-2.24-2.69-2.45-.34-3.63-2.06-3.65-4.53-.02-2.14-.03-4.29-.04-6.43,0-.68,0-1.36,0-2.04.01-.22.03-.43.04-.65,2.03,0,4.05.05,6.08-.03,2.25-.09,4.53-1.88,4.94-4.04.25-1.29.08-2.65.12-3.98.12-4.21,3.16-7.88,8.27-6.33,3.54,1.07,7.17,1.85,10.85,2.1,5.66.39,11.17-.58,16.64-2.11,3.96-1.11,7.19.01,8.28,4.12.34,1.3.08,2.76.11,4.15.08,3.78,2.39,6.07,6.14,6.1,1.79.01,3.59,0,5.38,0,0,.11.02.22.04.33,0,.8,0,1.59,0,2.39-.02,2.2-.02,4.4-.05,6.6-.04,2.25-1.24,4.12-3.42,4.39-2.01.25-2.31,1.46-2.46,2.93-.46,4.66-2.13,8.86-4.79,12.67-1.8,2.58-3.9,4.89-6.58,6.59-.95.6-1.27,1.32-1.25,2.43.08,3.13.04,6.26.04,9.39.01.07.01.13,0,.2-.77.1-1.2.69-1.64,1.2-4.06,4.74-8.1,9.49-12.16,14.24-.7.82-.49,1.37.3,2.01,2.06,1.68,4.02,3.48,6.08,5.15,1.06.86,1.03,1.64.23,2.63-1.05,1.31-2.01,2.69-3.03,4.02-.42.54-.55,1.06-.36,1.76,1.69,6.23,2.98,12.56,4.88,18.73-1.84,4.82-4.02,9.49-6.23,14.15h-.07s.04.04.04.04c-.11.14-.22.28-.33.42-1.8-.35-3.33.67-5,.98-2.53-5.1-4.91-10.28-6.96-15.59.14-.62.26-1.24.41-1.85,1.4-5.47,2.8-10.94,4.2-16.41.26-1.02.34-1.9-.56-2.81-1.13-1.14-1.99-2.53-3.01-3.79-.52-.63-.45-1,.21-1.53,2.12-1.69,4.16-3.49,6.27-5.2,1.96-1.59,1.99-1.9.29-3.75-1.64-1.79-3.19-3.66-4.87-5.42-2.91-3.05-5.38-6.51-8.58-9.3Z"/>
      <path class="cls-5" d="m98.19,283.62c-1.79,0-3.59.01-5.38,0-3.76-.02-6.06-2.31-6.14-6.1-.03-1.39.23-2.85-.11-4.15-1.09-4.11-4.32-5.23-8.28-4.12-5.47,1.53-10.97,2.5-16.64,2.11-3.69-.25-7.31-1.03-10.85-2.1-5.11-1.55-8.15,2.13-8.27,6.33-.04,1.33.13,2.69-.12,3.98-.42,2.15-2.69,3.95-4.94,4.04-2.02.08-4.05.02-6.08.03,0-6.84-.2-13.69.09-20.52.19-4.48,2.49-8.21,5.67-11.39,4.01-4,9-5.28,14.43-5.32,8.75-.07,17.51-.08,26.26-.06,3.26,0,6.06,1.04,7.89,3.98.66,1.06,1,2.16,1.02,3.41.03,2.37,1.25,3.62,3.54,3.71,4.42.18,7.87,3.61,7.93,8.08.07,6.03,0,12.06,0,18.08Z"/>
      <path class="cls-7" d="m61.64,399.03c-4.09.33-8.1-.49-12.08-1.14-6.58-1.08-12.9-3.06-19.08-5.61-7.39-3.06-14.16-7.14-20.47-12-3.19-2.46-6.19-5.14-9.06-7.97-.4-.4-.93-.72-.95-1.38.02-1.97.15-3.94.05-5.91-.46-8.77,6.21-17.01,13.62-19.22,5.66-1.69,11.25-3.63,16.87-5.44.26-.08.57-.03.86-.04-.42,2.47,1.17,4.28,2.12,6.29,2.09,4.41,3.62,5.19-1.4,9.85-1.31,1.22-1.75,2.79-1.09,4.6.93,2.57,2.15,4.99,3.62,7.29,4.49,7.05,9.94,13.34,15.75,19.31,3.72,3.82,7.49,7.58,11.24,11.36Z"/>
      <path class="cls-7" d="m122.16,349.08c3.55,3.15,5.99,6.98,6.92,11.67.67,3.36.33,6.79.48,10.18-5.82,6.47-12.62,11.72-20.13,16.08-7.78,4.52-16.02,7.87-24.82,9.84-5.4,1.21-10.81,2.23-16.37,2.19.05-.58.47-.91.83-1.28,5.72-5.81,11.67-11.39,16.94-17.64,4.18-4.96,8.22-10,11.12-15.85,2.31-4.67,2.59-5.86-1.51-9.67-1.78-1.65-1.96-3.13-.92-5.31.8-1.67,1.61-3.34,2.5-4.96.69-1.25,1.16-2.52.93-3.97,2.93.73,5.79,1.68,8.64,2.67,3.88,1.35,7.91,2.2,11.69,3.85,1.33.58,2.38,1.6,3.68,2.19Z"/>
      <path class="cls-2" d="m98.15,340.36c.23,1.45-.24,2.71-.93,3.97-.89,1.62-1.7,3.29-2.5,4.96-1.04,2.19-.86,3.66.92,5.31,4.09,3.81,3.82,4.99,1.51,9.67-2.89,5.85-6.93,10.9-11.12,15.85-5.27,6.25-11.22,11.83-16.94,17.64-.36.37-.79.7-.83,1.28-.71-.02-1.42-.05-2.12-.07.52-.99,1.28-1.87,1.33-3.07.11-.14.22-.28.33-.43,0,0,.03-.04.03-.04,2.2-4.66,4.38-9.33,6.23-14.15,2.27-5.43,4.11-11,5.7-16.67,1.25-4.43,2.14-8.93,2.72-13.48.47-3.74.72-7.55.03-11.31-.53-2.88-.93-5.84-2.75-8.31.01-.07.01-.13,0-.2.49-.23.89.05,1.3.25,5.23,2.6,10.47,5.2,15.7,7.81.5.25.94.64,1.41.96Z"/>
      <path class="cls-2" d="m61.64,399.03c-3.75-3.79-7.52-7.55-11.24-11.36-5.82-5.97-11.26-12.26-15.75-19.31-1.46-2.3-2.68-4.72-3.62-7.29-.66-1.81-.22-3.38,1.09-4.6,5.02-4.66,3.49-5.45,1.4-9.85-.95-2-2.54-3.81-2.12-6.29,1.87-1.66,4.23-2.43,6.42-3.51,3.67-1.81,7.33-3.63,11-5.44.19-.1.44-.09.66-.13-.02.17.02.37-.06.51-3.06,5.84-3.45,12.11-2.66,18.45.74,5.91,1.92,11.77,3.79,17.46,1.51,4.59,2.88,9.23,4.96,13.62,2.05,5.32,4.43,10.49,6.96,15.59.08.81.56,1.44.97,2.1-.59.02-1.19.04-1.78.06Z"/>
      <path class="cls-11" d="m55.5,381.29c-2.08-4.38-3.44-9.03-4.96-13.62-1.87-5.69-3.05-11.54-3.79-17.46-.79-6.33-.39-12.61,2.66-18.45.07-.14.04-.34.06-.51.13,0,.26,0,.39,0,3.2,2.78,5.67,6.25,8.58,9.3,1.67,1.76,3.23,3.63,4.87,5.42,1.7,1.85,1.67,2.16-.29,3.75-2.11,1.71-4.14,3.51-6.27,5.2-.66.53-.73.89-.21,1.53,1.02,1.25,1.89,2.65,3.01,3.79.9.9.82,1.78.56,2.81-1.4,5.47-2.8,10.94-4.2,16.41-.16.61-.28,1.23-.41,1.85Z"/>
      <path class="cls-8" d="m98.24,286.34c0-.8,0-1.59,0-2.39.44.8.43,1.59,0,2.39Z"/>
      <path class="cls-8" d="m31.33,284.3c0,.68,0,1.36,0,2.04-.46-.68-.45-1.36,0-2.04Z"/>
      <path class="cls-12" d="m63.43,398.98c-.41-.66-.89-1.29-.97-2.1,1.67-.3,3.2-1.33,5-.97-.05,1.19-.8,2.08-1.33,3.07-.9,0-1.8,0-2.7,0Z"/>
      <path class="cls-11" d="m79.74,331.53c1.82,2.47,2.22,5.43,2.75,8.31.69,3.75.45,7.56-.03,11.31-.58,4.54-1.47,9.05-2.72,13.48-1.59,5.66-3.43,11.24-5.7,16.67-1.9-6.17-3.19-12.5-4.88-18.73-.19-.7-.06-1.22.36-1.76,1.02-1.33,1.98-2.71,3.03-4.02.8-1,.83-1.77-.23-2.63-2.06-1.68-4.02-3.47-6.08-5.15-.79-.64-1-1.2-.3-2.01,4.06-4.74,8.09-9.5,12.16-14.24.44-.52.87-1.11,1.64-1.2Z"/>
      <polygon class="cls-3" points="67.82 395.44 67.79 395.48 67.75 395.43 67.82 395.44"/>
    </g>
  </g>
  <g id="_1tqRvL.tif-5" data-name="1tqRvL.tif">
    <g>
      <path class="cls-12" d="m218.22,441.32c-.01-3.13-.06-6.26-.02-9.38.02-1.03-.29-1.68-1.14-2.31-6.65-4.85-10.55-11.34-11.45-19.57-.15-1.36-.41-2.43-2.24-2.69-2.45-.34-3.63-2.06-3.65-4.53-.02-2.14-.03-4.29-.04-6.43,0-.68,0-1.36,0-2.04.01-.22.03-.43.04-.65,2.03,0,4.05.05,6.08-.03,2.25-.09,4.53-1.88,4.94-4.04.25-1.29.08-2.65.12-3.98.12-4.21,3.16-7.88,8.27-6.33,3.54,1.07,7.17,1.85,10.85,2.1,5.66.39,11.17-.58,16.64-2.11,3.96-1.11,7.19.01,8.28,4.12.34,1.3.08,2.76.11,4.15.08,3.78,2.39,6.07,6.14,6.1,1.79.01,3.59,0,5.38,0,0,.11.02.22.04.33,0,.8,0,1.59,0,2.39-.02,2.2-.02,4.4-.05,6.6-.04,2.25-1.24,4.12-3.42,4.39-2.01.25-2.31,1.46-2.46,2.93-.46,4.66-2.13,8.86-4.79,12.67-1.8,2.58-3.9,4.89-6.58,6.59-.95.6-1.27,1.32-1.25,2.43.08,3.13.04,6.26.04,9.39.01.07.01.13,0,.2-.77.1-1.2.69-1.64,1.2-4.06,4.74-8.1,9.49-12.16,14.24-.7.82-.49,1.37.3,2.01,2.06,1.68,4.02,3.48,6.08,5.15,1.06.86,1.03,1.64.23,2.63-1.05,1.31-2.01,2.69-3.03,4.02-.42.54-.55,1.06-.36,1.76,1.69,6.23,2.98,12.56,4.88,18.73-1.84,4.82-4.02,9.49-6.23,14.15h-.07s.04.04.04.04c-.11.14-.22.28-.33.42-1.8-.35-3.33.67-5,.98-2.53-5.1-4.91-10.28-6.96-15.59.14-.62.26-1.24.41-1.85,1.4-5.47,2.8-10.94,4.2-16.41.26-1.02.34-1.9-.56-2.81-1.13-1.14-1.99-2.53-3.01-3.79-.52-.63-.45-1,.21-1.53,2.12-1.69,4.16-3.49,6.27-5.2,1.96-1.59,1.99-1.9.29-3.75-1.64-1.79-3.19-3.66-4.87-5.42-2.91-3.05-5.38-6.51-8.58-9.3Z"/>
      <path class="cls-5" d="m266.55,393.69c-1.79,0-3.59.01-5.38,0-3.76-.02-6.06-2.31-6.14-6.1-.03-1.39.23-2.85-.11-4.15-1.09-4.11-4.32-5.23-8.28-4.12-5.47,1.53-10.97,2.5-16.64,2.11-3.69-.25-7.31-1.03-10.85-2.1-5.11-1.55-8.15,2.13-8.27,6.33-.04,1.33.13,2.69-.12,3.98-.42,2.15-2.69,3.95-4.94,4.04-2.02.08-4.05.02-6.08.03,0-6.84-.2-13.69.09-20.52.19-4.48,2.49-8.21,5.67-11.39,4.01-4,9-5.28,14.43-5.32,8.75-.07,17.51-.08,26.26-.06,3.26,0,6.06,1.04,7.89,3.98.66,1.06,1,2.16,1.02,3.41.03,2.37,1.25,3.62,3.54,3.71,4.42.18,7.87,3.61,7.93,8.08.07,6.03,0,12.06,0,18.08Z"/>
      <path class="cls-10" d="m230,509.1c-4.09.33-8.1-.49-12.08-1.14-6.58-1.08-12.9-3.06-19.08-5.61-7.39-3.06-14.16-7.14-20.47-12-3.19-2.46-6.19-5.14-9.06-7.97-.4-.4-.93-.72-.95-1.38.02-1.97.15-3.94.05-5.91-.46-8.77,6.21-17.01,13.62-19.22,5.66-1.69,11.25-3.63,16.87-5.44.26-.08.57-.03.86-.04-.42,2.47,1.17,4.28,2.12,6.29,2.09,4.41,3.62,5.19-1.4,9.85-1.31,1.22-1.75,2.79-1.09,4.6.93,2.57,2.15,4.99,3.62,7.29,4.49,7.05,9.94,13.34,15.75,19.31,3.72,3.82,7.49,7.58,11.24,11.36Z"/>
      <path class="cls-10" d="m290.52,459.15c3.55,3.15,5.99,6.98,6.92,11.67.67,3.36.33,6.79.48,10.18-5.82,6.47-12.62,11.72-20.13,16.08-7.78,4.52-16.02,7.87-24.82,9.84-5.4,1.21-10.81,2.23-16.37,2.19.05-.58.47-.91.83-1.28,5.72-5.81,11.67-11.39,16.94-17.64,4.18-4.96,8.22-10,11.12-15.85,2.31-4.67,2.59-5.86-1.51-9.67-1.78-1.65-1.96-3.13-.92-5.31.8-1.67,1.61-3.34,2.5-4.96.69-1.25,1.16-2.52.93-3.97,2.93.73,5.79,1.68,8.64,2.67,3.88,1.35,7.91,2.2,11.69,3.85,1.33.58,2.38,1.6,3.68,2.19Z"/>
      <path class="cls-6" d="m266.51,450.43c.23,1.45-.24,2.71-.93,3.97-.89,1.62-1.7,3.29-2.5,4.96-1.04,2.19-.86,3.66.92,5.31,4.09,3.81,3.82,4.99,1.51,9.67-2.89,5.85-6.93,10.9-11.12,15.85-5.27,6.25-11.22,11.83-16.94,17.64-.36.37-.79.7-.83,1.28-.71-.02-1.42-.05-2.12-.07.52-.99,1.28-1.87,1.33-3.07.11-.14.22-.28.33-.43,0,0,.03-.04.03-.04,2.2-4.66,4.38-9.33,6.23-14.15,2.27-5.43,4.11-11,5.7-16.67,1.25-4.43,2.14-8.93,2.72-13.48.47-3.74.72-7.55.03-11.31-.53-2.88-.93-5.84-2.75-8.31.01-.07.01-.13,0-.2.49-.23.89.05,1.3.25,5.23,2.6,10.47,5.2,15.7,7.81.5.25.94.64,1.41.96Z"/>
      <path class="cls-6" d="m230,509.1c-3.75-3.79-7.52-7.55-11.24-11.36-5.82-5.97-11.26-12.26-15.75-19.31-1.46-2.3-2.68-4.72-3.62-7.29-.66-1.81-.22-3.38,1.09-4.6,5.02-4.66,3.49-5.45,1.4-9.85-.95-2-2.54-3.81-2.12-6.29,1.87-1.66,4.23-2.43,6.42-3.51,3.67-1.81,7.33-3.63,11-5.44.19-.1.44-.09.66-.13-.02.17.02.37-.06.51-3.06,5.84-3.45,12.11-2.66,18.45.74,5.91,1.92,11.77,3.79,17.46,1.51,4.59,2.88,9.23,4.96,13.62,2.05,5.32,4.43,10.49,6.96,15.59.08.81.56,1.44.97,2.1-.59.02-1.19.04-1.78.06Z"/>
      <path class="cls-11" d="m223.86,491.35c-2.08-4.38-3.44-9.03-4.96-13.62-1.87-5.69-3.05-11.54-3.79-17.46-.79-6.33-.39-12.61,2.66-18.45.07-.14.04-.34.06-.51.13,0,.26,0,.39,0,3.2,2.78,5.67,6.25,8.58,9.3,1.67,1.76,3.23,3.63,4.87,5.42,1.7,1.85,1.67,2.16-.29,3.75-2.11,1.71-4.14,3.51-6.27,5.2-.66.53-.73.89-.21,1.53,1.02,1.25,1.89,2.65,3.01,3.79.9.9.82,1.78.56,2.81-1.4,5.47-2.8,10.94-4.2,16.41-.16.61-.28,1.23-.41,1.85Z"/>
      <path class="cls-8" d="m266.6,396.41c0-.8,0-1.59,0-2.39.44.8.43,1.59,0,2.39Z"/>
      <path class="cls-8" d="m199.69,394.36c0,.68,0,1.36,0,2.04-.46-.68-.45-1.36,0-2.04Z"/>
      <path class="cls-12" d="m231.79,509.04c-.41-.66-.89-1.29-.97-2.1,1.67-.3,3.2-1.33,5-.97-.05,1.19-.8,2.08-1.33,3.07-.9,0-1.8,0-2.7,0Z"/>
      <path class="cls-11" d="m248.1,441.6c1.82,2.47,2.22,5.43,2.75,8.31.69,3.75.45,7.56-.03,11.31-.58,4.54-1.47,9.05-2.72,13.48-1.59,5.66-3.43,11.24-5.7,16.67-1.9-6.17-3.19-12.5-4.88-18.73-.19-.7-.06-1.22.36-1.76,1.02-1.33,1.98-2.71,3.03-4.02.8-1,.83-1.77-.23-2.63-2.06-1.68-4.02-3.47-6.08-5.15-.79-.64-1-1.2-.3-2.01,4.06-4.74,8.09-9.5,12.16-14.24.44-.52.87-1.11,1.64-1.2Z"/>
      <polygon class="cls-3" points="236.18 505.5 236.15 505.55 236.11 505.49 236.18 505.5"/>
    </g>
  </g>
</svg>