<?xml version="1.0" encoding="UTF-8"?>
<svg id="katman_1" data-name="katman 1" xmlns="http://www.w3.org/2000/svg" viewBox="0 0 170.29 170.3">
  <defs>
    <style>
      .cls-1 {
        fill: none;
        stroke: #000;
        stroke-miterlimit: 10;
        stroke-width: .22px;
      }

      .cls-2 {
        fill: #ff0d00;
      }

      .cls-2, .cls-3 {
        fill-rule: evenodd;
      }

      .cls-2, .cls-3, .cls-4, .cls-5, .cls-6 {
        stroke-width: 0px;
      }

      .cls-3, .cls-6 {
        fill: #fff;
      }

      .cls-5 {
        fill: #299926;
      }
    </style>
  </defs>
  <path class="cls-6" d="m170.19,85.15c0,46.7-38.34,85.04-85.04,85.04S.11,131.85.11,85.15,38.45.11,85.15.11s85.04,38.34,85.04,85.04"/>
  <circle class="cls-1" cx="85.15" cy="85.15" r="85.04" transform="translate(-.33 169.97) rotate(-89.78)"/>
  <path class="cls-5" d="m146.22,85.11c0,33.69-27.66,60.87-60.79,60.87s-61.35-27.18-61.35-60.87,27.72-60.8,61.35-60.8,60.79,27.18,60.79,60.8"/>
  <path class="cls-1" d="m146.22,85.11c0,33.69-27.66,60.87-60.79,60.87s-61.35-27.18-61.35-60.87,27.72-60.8,61.35-60.8,60.79,27.18,60.79,60.8Z"/>
  <path class="cls-3" d="m85.15,48.2c20.4,0,36.95,16.55,36.95,36.95s-16.55,36.95-36.95,36.95-36.95-16.55-36.95-36.95,16.55-36.95,36.95-36.95"/>
  <path class="cls-2" d="m85.15,48.2c16.52,0,29.91,13.39,29.91,29.91s-13.39,29.91-29.91,29.91-29.91-13.39-29.91-29.91,13.39-29.91,29.91-29.91"/>
  <path class="cls-3" d="m85.15,73.48c1.86,0,3.37,1.51,3.37,3.37s-1.51,3.37-3.37,3.37-3.37-1.51-3.37-3.37,1.51-3.37,3.37-3.37"/>
  <path class="cls-3" d="m72.52,76.48c4.13,1.88,11.38,4.55,11.5,8.91l.56,19.66h-4.41v-18.37c0-3.85-5.61-5.59-8.87-7.24-1.67-1.26.05-3.46,1.22-2.95"/>
  <path class="cls-3" d="m97.77,76.48c-4.13,1.88-11.38,4.55-11.5,8.91l-.56,19.66h4.41v-18.37c0-3.85,5.61-5.59,8.87-7.24,1.67-1.26-.05-3.46-1.22-2.95"/>
  <path class="cls-3" d="m67.26,67.25c1.47,0,2.67,1.2,2.67,2.67s-1.2,2.67-2.67,2.67-2.67-1.19-2.67-2.67,1.2-2.67,2.67-2.67"/>
  <path class="cls-3" d="m76.92,54.69c1.01,0,1.82.82,1.82,1.83s-.82,1.82-1.82,1.82-1.83-.82-1.83-1.82.82-1.83,1.83-1.83"/>
  <path class="cls-3" d="m65.74,59.47c-1.8,2.12-5.73,4.89-5.74,7.22l-.08,22.87,2.69,2.15v-23.43c0-2.35,3.27-4.81,4.99-6.95.43-1.63-.03-2.81-1.87-1.86"/>
  <path class="cls-3" d="m69.24,74.81c-2.83,1.29-4.99,3.11-5.02,6.09l-.1,14.88h3.01l-.28-12.87c-.06-2.63.99-3.83,3.22-4.96,1.14-.86-.03-3.49-.83-3.14"/>
  <polygon class="cls-3" points="73.94 63.01 69.34 59.92 69.86 57.81 76.57 62.48 76.57 74.9 73.94 74.9 73.94 63.01"/>
  <polygon class="cls-3" points="77.62 62.48 82.28 54.73 83.86 56.76 79.66 63.53 79.66 77.01 77.62 77.01 77.62 62.48"/>
  <path class="cls-3" d="m103.03,67.25c-1.47,0-2.67,1.2-2.67,2.67s1.19,2.67,2.67,2.67,2.67-1.19,2.67-2.67-1.19-2.67-2.67-2.67"/>
  <path class="cls-3" d="m93.37,54.69c-1.01,0-1.83.82-1.83,1.83s.82,1.82,1.83,1.82,1.82-.82,1.82-1.82-.82-1.83-1.82-1.83"/>
  <path class="cls-3" d="m104.55,59.47c1.8,2.12,5.73,4.89,5.74,7.22l.08,22.87-2.69,2.15v-23.43c0-2.35-3.27-4.81-4.99-6.95-.43-1.63.03-2.81,1.87-1.86"/>
  <path class="cls-3" d="m101.06,74.81c2.83,1.29,4.99,3.11,5.01,6.09l.1,14.88h-3.01l.28-12.87c.06-2.63-.99-3.83-3.22-4.96-1.14-.86.03-3.49.83-3.14"/>
  <polygon class="cls-3" points="96.36 63.01 100.96 59.92 100.43 57.81 93.73 62.48 93.73 74.9 96.36 74.9 96.36 63.01"/>
  <polygon class="cls-3" points="92.68 62.48 88.01 54.73 86.43 56.76 90.64 63.53 90.64 77.01 92.68 77.01 92.68 62.48"/>
  <polygon class="cls-6" points="80.79 32.56 80.79 33.75 83.74 33.75 83.31 30.74 77.5 30.74 77.96 34.43 85.18 37.25 92.39 34.43 92.85 30.74 87.04 30.74 86.61 33.75 89.56 33.75 89.56 32.56 90.39 32.56 90.39 34.6 85.66 34.6 86.33 29.89 93.78 29.89 93.15 35.04 86.34 37.7 93.78 40.6 92.55 44.65 85.66 44.65 85.66 40.5 89.02 39.88 89.68 41.84 88.9 42.11 88.47 40.84 86.48 41.21 86.48 43.8 91.94 43.8 92.76 41.11 85.18 38.15 77.59 41.11 78.41 43.8 83.87 43.8 83.87 41.21 81.88 40.84 81.45 42.11 80.67 41.84 81.33 39.88 84.69 40.5 84.69 44.65 77.8 44.65 76.57 40.6 84.02 37.7 77.2 35.04 76.57 29.89 84.03 29.89 84.69 34.6 79.96 34.6 79.96 32.56 80.79 32.56"/>
  <polygon class="cls-6" points="32.61 89.56 33.8 89.56 33.8 86.61 30.78 87.04 30.78 92.85 34.48 92.39 37.29 85.18 34.48 77.96 30.78 77.5 30.78 83.31 33.8 83.74 33.8 80.79 32.61 80.79 32.61 79.96 34.64 79.96 34.64 84.69 29.93 84.03 29.93 76.57 35.09 77.2 37.74 84.01 40.64 76.57 44.69 77.8 44.69 84.69 40.54 84.69 39.92 81.33 41.88 80.67 42.16 81.45 40.88 81.88 41.25 83.87 43.84 83.87 43.84 78.41 41.15 77.59 38.19 85.18 41.15 92.76 43.84 91.94 43.84 86.48 41.25 86.48 40.88 88.47 42.16 88.9 41.88 89.68 39.92 89.02 40.54 85.66 44.69 85.66 44.69 92.55 40.64 93.78 37.74 86.34 35.09 93.15 29.93 93.78 29.93 86.33 34.64 85.66 34.64 90.39 32.61 90.39 32.61 89.56"/>
  <polygon class="cls-6" points="137.71 89.58 136.52 89.58 136.52 86.63 139.54 87.05 139.54 92.86 135.84 92.41 133.03 85.19 135.84 77.97 139.54 77.51 139.54 83.32 136.52 83.75 136.52 80.8 137.71 80.8 137.71 79.97 135.68 79.97 135.68 84.7 140.38 84.04 140.38 76.58 135.23 77.21 132.58 84.03 129.67 76.58 125.63 77.81 125.63 84.71 129.77 84.71 130.4 81.34 128.44 80.68 128.16 81.46 129.44 81.89 129.07 83.88 126.47 83.88 126.47 78.42 129.17 77.6 132.12 85.19 129.17 92.78 126.47 91.96 126.47 86.49 129.07 86.49 129.44 88.48 128.16 88.91 128.44 89.69 130.4 89.03 129.77 85.67 125.63 85.67 125.63 92.56 129.67 93.79 132.58 86.35 135.23 93.16 140.38 93.79 140.38 86.34 135.68 85.67 135.68 90.4 137.71 90.4 137.71 89.58"/>
  <polygon class="cls-6" points="80.77 137.74 80.77 136.55 83.72 136.55 83.3 139.57 77.49 139.57 77.94 135.87 85.16 133.06 92.38 135.87 92.84 139.57 87.03 139.57 86.6 136.55 89.55 136.55 89.55 137.74 90.37 137.74 90.37 135.71 85.65 135.71 86.31 140.41 93.77 140.41 93.13 135.26 86.32 132.61 93.77 129.7 92.54 125.66 85.64 125.66 85.64 129.8 89.01 130.43 89.67 128.47 88.89 128.19 88.46 129.47 86.47 129.1 86.47 126.5 91.93 126.5 92.75 129.2 85.16 132.15 77.57 129.2 78.39 126.5 83.85 126.5 83.85 129.1 81.86 129.47 81.44 128.19 80.66 128.47 81.32 130.43 84.68 129.8 84.68 125.66 77.79 125.66 76.55 129.7 84 132.61 77.19 135.26 76.55 140.41 84.01 140.41 84.67 135.71 79.95 135.71 79.95 137.74 80.77 137.74"/>
  <polygon class="cls-6" points="60.99 38.28 61.44 39.38 64.17 38.25 62.62 35.63 57.25 37.85 59.09 41.09 66.83 40.93 72.43 35.57 71.43 31.98 66.07 34.2 66.83 37.15 69.55 36.02 69.1 34.92 69.86 34.61 70.64 36.49 66.27 38.3 65.08 33.69 71.97 30.84 73.36 35.84 68.08 40.9 76.07 40.73 76.48 44.95 70.11 47.58 68.52 43.75 71.39 41.89 72.75 43.45 72.14 44 71.25 42.99 69.56 44.09 70.55 46.49 75.59 44.4 75.32 41.59 67.18 41.76 61.3 47.4 63.09 49.58 68.13 47.49 67.14 45.09 65.16 45.51 65.25 46.85 64.43 46.9 64.29 44.83 67.63 44.12 69.22 47.95 62.85 50.59 60.16 47.32 65.93 41.79 58.62 41.95 56.07 37.43 62.96 34.57 65.37 38.67 61 40.48 60.23 38.6 60.99 38.28"/>
  <polygon class="cls-6" points="60.97 132.02 61.43 130.92 64.15 132.05 62.61 134.67 57.24 132.45 59.07 129.21 66.82 129.38 72.41 134.74 71.42 138.32 66.05 136.1 66.81 133.15 69.54 134.28 69.08 135.38 69.84 135.7 70.62 133.82 66.26 132.01 65.07 136.61 71.96 139.46 73.34 134.46 68.07 129.4 76.06 129.57 76.47 125.36 70.1 122.72 68.51 126.55 71.38 128.41 72.74 126.86 72.12 126.31 71.24 127.32 69.54 126.22 70.54 123.82 75.58 125.91 75.31 128.71 67.17 128.54 61.29 122.9 63.08 120.73 68.12 122.82 67.13 125.22 65.15 124.79 65.24 123.45 64.42 123.41 64.28 125.47 67.62 126.18 69.21 122.35 62.84 119.71 60.15 122.98 65.92 128.51 58.61 128.36 56.05 132.88 62.94 135.73 65.36 131.64 60.99 129.83 60.21 131.71 60.97 132.02"/>
  <polygon class="cls-6" points="44.9 51.13 45.74 51.97 47.83 49.88 45.39 48.05 41.29 52.16 44.22 54.45 51.31 51.33 54.43 44.24 52.14 41.31 48.03 45.41 49.86 47.85 51.95 45.76 51.11 44.92 51.69 44.34 53.13 45.77 49.78 49.12 46.92 45.32 52.2 40.05 55.39 44.14 52.45 50.83 59.77 47.62 61.76 51.35 56.89 56.23 53.95 53.29 55.89 50.48 57.74 51.4 57.39 52.14 56.18 51.54 55.04 53.21 56.87 55.04 60.73 51.18 59.41 48.7 51.95 51.97 48.68 59.43 51.16 60.76 55.02 56.89 53.19 55.06 51.52 56.2 52.12 57.41 51.38 57.77 50.46 55.91 53.27 53.98 56.21 56.91 51.33 61.78 47.6 59.79 50.81 52.47 44.12 55.41 40.03 52.22 45.3 46.95 49.1 49.8 45.75 53.15 44.32 51.71 44.9 51.13"/>
  <polygon class="cls-6" points="44.88 119.18 45.73 118.34 47.81 120.42 45.38 122.25 41.27 118.15 44.21 115.86 51.3 118.97 54.41 126.06 52.12 129 48.02 124.89 49.85 122.46 51.93 124.54 51.09 125.39 51.67 125.97 53.11 124.53 49.77 121.19 46.91 124.99 52.18 130.26 55.38 126.17 52.44 119.47 59.76 122.69 61.75 118.95 56.87 114.08 53.94 117.01 55.88 119.83 57.73 118.91 57.38 118.16 56.17 118.76 55.02 117.1 56.86 115.26 60.72 119.12 59.4 121.61 51.94 118.33 48.66 110.87 51.15 109.55 55.01 113.41 53.17 115.25 51.51 114.1 52.11 112.9 51.36 112.54 50.44 114.39 53.26 116.33 56.19 113.4 51.32 108.52 47.58 110.51 50.8 117.83 44.1 114.89 40.01 118.08 45.28 123.36 49.08 120.5 45.74 117.16 44.3 118.6 44.88 119.18"/>
  <polygon class="cls-6" points="132.11 61.02 131.01 61.48 132.14 64.2 134.76 62.66 132.54 57.29 129.3 59.13 129.46 66.87 134.82 72.46 138.41 71.47 136.19 66.1 133.24 66.86 134.37 69.59 135.47 69.13 135.78 69.89 133.9 70.67 132.09 66.31 136.7 65.12 139.55 72.01 134.55 73.4 129.49 68.12 129.66 76.11 125.44 76.52 122.81 70.15 126.64 68.56 128.5 71.43 126.94 72.79 126.39 72.18 127.4 71.29 126.3 69.59 123.91 70.59 126 75.63 128.8 75.36 128.63 67.22 122.99 61.34 120.81 63.13 122.9 68.17 125.3 67.18 124.88 65.2 123.54 65.29 123.5 64.47 125.56 64.33 126.27 67.67 122.44 69.26 119.8 62.89 123.07 60.2 128.6 65.97 128.44 58.66 132.96 56.1 135.82 62.99 131.72 65.41 129.91 61.04 131.79 60.26 132.11 61.02"/>
  <polygon class="cls-6" points="132.09 109.28 130.99 108.83 132.12 106.1 134.75 107.65 132.52 113.01 129.28 111.18 129.45 103.43 134.81 97.84 138.4 98.84 136.17 104.2 133.23 103.44 134.35 100.72 135.45 101.17 135.77 100.41 133.89 99.63 132.08 104 136.68 105.19 139.54 98.3 134.53 96.91 129.47 102.19 129.64 94.2 125.43 93.79 122.79 100.16 126.62 101.74 128.49 98.87 126.93 97.52 126.38 98.13 127.39 99.01 126.29 100.71 123.89 99.72 125.98 94.67 128.78 94.95 128.61 103.09 122.98 108.97 120.8 107.18 122.89 102.13 125.29 103.13 124.87 105.1 123.53 105.01 123.48 105.84 125.54 105.98 126.26 102.63 122.42 101.05 119.79 107.41 123.06 110.1 128.59 104.33 128.43 111.64 132.95 114.2 135.8 107.31 131.71 104.9 129.9 109.26 131.78 110.04 132.09 109.28"/>
  <polygon class="cls-6" points="38.27 60.96 39.37 61.41 38.24 64.14 35.62 62.59 37.84 57.23 41.08 59.06 40.92 66.81 35.56 72.4 31.97 71.41 34.19 66.04 37.14 66.8 36.01 69.52 34.91 69.07 34.6 69.83 36.47 70.61 38.28 66.24 33.68 65.05 30.83 71.94 35.83 73.33 40.89 68.05 40.72 76.04 44.93 76.45 47.57 70.08 43.74 68.5 41.88 71.37 43.43 72.73 43.99 72.11 42.97 71.23 44.07 69.53 46.47 70.52 44.38 75.57 41.58 75.29 41.75 67.15 47.39 61.27 49.56 63.06 47.47 68.11 45.07 67.11 45.5 65.14 46.84 65.23 46.88 64.4 44.82 64.26 44.11 67.61 47.94 69.19 50.58 62.83 47.31 60.14 41.78 65.91 41.93 58.6 37.41 56.04 34.56 62.93 38.65 65.34 40.46 60.98 38.58 60.2 38.27 60.96"/>
  <polygon class="cls-6" points="38.26 109.34 39.35 108.89 38.23 106.16 35.6 107.71 37.83 113.08 41.07 111.24 40.9 103.5 35.54 97.91 31.95 98.9 34.18 104.27 37.12 103.5 35.99 100.78 34.9 101.23 34.58 100.47 36.46 99.7 38.27 104.06 33.67 105.25 30.81 98.36 35.82 96.97 40.88 102.25 40.71 94.26 44.92 93.85 47.56 100.22 43.73 101.81 41.86 98.94 43.42 97.58 43.97 98.19 42.96 99.08 44.06 100.77 46.46 99.78 44.37 94.74 41.57 95.01 41.74 103.15 47.37 109.03 49.55 107.24 47.46 102.2 45.06 103.19 45.48 105.17 46.82 105.08 46.87 105.9 44.81 106.04 44.09 102.7 47.92 101.11 50.56 107.48 47.29 110.17 41.76 104.4 41.92 111.71 37.4 114.27 34.55 107.37 38.64 104.96 40.45 109.33 38.57 110.11 38.26 109.34"/>
  <polygon class="cls-6" points="119.22 44.88 118.38 45.72 120.46 47.81 122.29 45.37 118.19 41.27 115.89 44.2 119.01 51.29 126.1 54.41 129.04 52.12 124.93 48.01 122.5 49.84 124.58 51.93 125.42 51.09 126.01 51.67 124.57 53.11 121.23 49.76 125.02 46.91 130.3 52.18 126.21 55.38 119.51 52.43 122.73 59.75 118.99 61.74 114.12 56.87 117.05 53.94 119.87 55.87 118.95 57.73 118.2 57.37 118.8 56.17 117.13 55.02 115.3 56.85 119.16 60.71 121.65 59.39 118.37 51.93 110.91 48.66 109.59 51.14 113.45 55 115.29 53.17 114.14 51.5 112.93 52.1 112.58 51.36 114.43 50.44 116.37 53.26 113.44 56.19 108.56 51.31 110.55 47.58 117.87 50.79 114.93 44.1 118.12 40.01 123.4 45.28 120.54 49.08 117.2 45.73 118.64 44.3 119.22 44.88"/>
  <polygon class="cls-6" points="119.2 125.42 118.36 124.58 120.45 122.5 122.28 124.93 118.17 129.04 115.88 126.1 119 119.01 126.09 115.89 129.02 118.19 124.92 122.29 122.48 120.46 124.57 118.38 125.41 119.22 125.99 118.64 124.56 117.2 121.21 120.54 125.01 123.4 130.28 118.12 126.19 114.93 119.5 117.87 122.71 110.55 118.98 108.56 114.1 113.44 117.03 116.37 119.85 114.43 118.93 112.58 118.19 112.93 118.79 114.14 117.12 115.29 115.29 113.45 119.15 109.59 121.63 110.91 118.36 118.37 110.9 121.65 109.57 119.16 113.44 115.3 115.27 117.13 114.12 118.8 112.92 118.2 112.56 118.95 114.42 119.87 116.35 117.05 113.42 114.12 108.55 118.99 110.54 122.73 117.85 119.51 114.92 126.21 118.11 130.3 123.38 125.02 120.53 121.23 117.18 124.57 118.62 126.01 119.2 125.42"/>
  <polygon class="cls-6" points="101.21 34.92 100.75 36.02 103.48 37.15 104.24 34.2 98.87 31.98 97.88 35.57 103.47 40.93 111.22 41.09 113.05 37.85 107.69 35.63 106.14 38.25 108.86 39.38 109.32 38.28 110.08 38.6 109.3 40.48 104.94 38.67 107.35 34.57 114.24 37.43 111.68 41.95 104.37 41.79 110.14 47.32 107.45 50.59 101.08 47.95 102.67 44.12 106.02 44.83 105.88 46.9 105.05 46.85 105.14 45.51 103.17 45.09 102.17 47.49 107.22 49.58 109.01 47.4 103.13 41.76 94.98 41.59 94.71 44.39 99.76 46.48 100.75 44.09 99.05 42.99 98.17 44 97.55 43.45 98.91 41.89 101.78 43.75 100.2 47.58 93.83 44.95 94.24 40.73 102.23 40.9 96.95 35.84 98.33 30.84 105.23 33.69 104.04 38.3 99.67 36.49 100.45 34.61 101.21 34.92"/>
  <polygon class="cls-6" points="101.2 135.38 100.74 134.28 103.47 133.15 104.23 136.1 98.86 138.32 97.87 134.74 103.46 129.38 111.2 129.21 113.04 132.45 107.67 134.67 106.13 132.05 108.85 130.92 109.3 132.02 110.07 131.71 109.29 129.83 104.92 131.64 107.34 135.73 114.23 132.88 111.67 128.36 104.36 128.51 110.13 122.98 107.44 119.71 101.07 122.35 102.66 126.18 106 125.47 105.86 123.41 105.04 123.45 105.13 124.79 103.15 125.22 102.16 122.82 107.2 120.73 108.99 122.9 103.11 128.54 94.97 128.71 94.7 125.91 99.74 123.82 100.74 126.22 99.04 127.32 98.15 126.31 97.54 126.86 98.9 128.41 101.77 126.55 100.18 122.72 93.81 125.36 94.22 129.57 102.21 129.4 96.93 134.46 98.32 139.46 105.21 136.61 104.02 132.01 99.66 133.82 100.43 135.7 101.2 135.38"/>
  <path class="cls-4" d="m167.18,89.83l-.22,3.14-2.62-.18.22-3.14,2.62.18Zm-16.85,1.98l.22-3.14,12.79.89-.22,3.14-12.78-.89Zm4.35-6.62c-1.24.11-2.28-.29-3.1-1.19-.77-.85-1.22-1.98-1.35-3.39-.19-2.14.23-3.8,1.26-4.99l2.18,1.83c-.55.65-.76,1.63-.65,2.93.11,1.22.54,1.8,1.31,1.73.61-.05.94-.45,1-1.19l.08-1.56c.12-2.32,1.25-3.58,3.39-3.77,1.18-.1,2.19.23,3.02,1.01.83.78,1.3,1.88,1.43,3.3.16,1.85-.22,3.33-1.15,4.44l-2.15-1.8c.46-.55.64-1.37.54-2.49-.04-.5-.2-.89-.48-1.15-.24-.22-.51-.32-.84-.29-.2.02-.39.12-.56.31-.17.19-.27.49-.31.9l-.08,1.56c-.06,1.19-.38,2.09-.94,2.71s-1.43.98-2.62,1.09m-4.97-11.51l-2.11-8.45,12.44-3.1,2.11,8.45-2.72.68-1.35-5.4-2.08.52,1.15,4.61-2.72.68-1.15-4.61-2.18.55,1.35,5.4-2.72.68Zm8.78-16.34l-8.52-.15-4.69,2.29-1.38-2.83,4.69-2.29,5.13-6.81,1.51,3.09-3.26,3.83,5.02-.22,1.51,3.09Zm-5.33-17.92l1.71,2.64-2.2,1.43-1.71-2.64,2.2-1.43Zm-12.26,11.72l-1.72-2.64,10.75-6.98,1.72,2.64-10.75,6.98Zm-.62-11.85c1.2-1.04,1.85-1.76,1.95-2.15.14-.57,0-1.11-.45-1.61l-.91-1.05-5.43,4.72.91,1.05c.45.52.96.74,1.54.67.22-.02.45-.11.69-.27.24-.16.47-.33.7-.51.23-.18.56-.46,1-.85m2.07,2.38c-1.08.94-1.8,1.52-2.16,1.74-.8.51-1.67.72-2.6.64-1.18-.08-2.26-.68-3.22-1.78l-3.12-3.59,9.67-8.41,3.12,3.59c.96,1.11,1.4,2.25,1.32,3.43-.06.9-.39,1.73-.99,2.48-.25.31-.93.95-2.02,1.9m-13.52-5.19l-6.86-5.36,7.89-10.1,6.87,5.36-1.73,2.21-4.38-3.42-1.32,1.69,3.75,2.93-1.73,2.21-3.74-2.92-1.38,1.77,4.38,3.42-1.73,2.21Zm-9.36-6.95l-7.53-4.01,6.02-11.32,2.78,1.48-4.7,8.84,4.75,2.53-1.32,2.48Zm-10.42-5.3l-8.29-2.69,3.96-12.19,8.29,2.69-.87,2.67-5.29-1.72-.66,2.04,4.52,1.47-.87,2.67-4.52-1.47-.7,2.14,5.29,1.72-.87,2.67Zm-14.11-7.74c.1-.74-.22-1.16-.98-1.26l-2.1-.3-.31,2.23,2.1.3c.76.11,1.19-.21,1.3-.96m.52-4.96c.1-.69-.23-1.09-.98-1.19l-1.94-.27-.29,2.07,1.94.27c.75.11,1.17-.19,1.27-.88m2.58,5.58c-.17,1.18-.67,2.04-1.5,2.6-.83.56-1.83.75-2.98.59l-5.53-.78,1.78-12.69,5.26.74c1.3.18,2.25.65,2.86,1.42.61.76.83,1.7.68,2.82-.15,1.03-.73,1.81-1.74,2.32.95.8,1.35,1.8,1.18,2.98m-20.33-7.06l-3.11.49,1.57,9.89-3.11.49-1.57-9.88-3.11.49-.44-2.77,9.33-1.48.44,2.77Zm-12.03,7.7c.49,1.26.44,2.47-.14,3.61-.58,1.14-1.5,1.95-2.77,2.44-1.28.49-2.49.51-3.64.05-1.2-.48-2.04-1.35-2.53-2.62l-2.98-7.76,2.94-1.13,2.95,7.7c.21.54.51.91.9,1.12.4.21.85.22,1.35.02.48-.19.81-.49.99-.91.18-.42.16-.91-.05-1.46l-2.95-7.7,2.94-1.13,2.98,7.76Zm-13.19,4.28c.56.89.93,1.67,1.12,2.32.19.65.2,1.31.04,1.99-.29,1.31-1.08,2.38-2.4,3.2-1.2.75-2.46.97-3.79.67-.81-.19-1.55-.64-2.21-1.36-.37-.42-.9-1.17-1.58-2.26-.72-1.15-1.16-1.95-1.34-2.41-.36-.89-.44-1.75-.25-2.58.31-1.32,1.06-2.36,2.26-3.11,1.29-.81,2.55-1.07,3.77-.79.99.23,1.9.81,2.72,1.74l-2.69,1.68c-.72-.68-1.5-.76-2.32-.25-.46.29-.71.67-.76,1.16-.05.49.38,1.45,1.27,2.89.9,1.43,1.59,2.25,2.08,2.44.42.16.87.09,1.34-.2,1.07-.67,1.27-1.53.61-2.59l-.1-.15-1.6,1-1.39-2.23,4.26-2.66.94,1.51Zm-10.1,8.55c.82.94,1.11,2.01.86,3.21-.23,1.12-.88,2.15-1.95,3.08-1.62,1.41-3.21,2.05-4.78,1.91l.2-2.84c.85.06,1.76-.34,2.75-1.2.92-.8,1.13-1.49.63-2.07-.4-.46-.92-.5-1.55-.11l-1.31.85c-1.95,1.27-3.63,1.09-5.04-.53-.78-.9-1.1-1.91-.96-3.03.14-1.13.75-2.16,1.83-3.09,1.4-1.22,2.82-1.78,4.26-1.68l-.19,2.79c-.71-.05-1.49.29-2.33,1.02-.38.33-.6.68-.65,1.06-.04.32.05.6.26.85.13.15.33.24.58.27.25.03.56-.07.91-.28l1.31-.85c1-.64,1.91-.92,2.74-.83.83.09,1.64.58,2.42,1.48m-6.13,11.15l-5.6,6.67-9.82-8.24,5.6-6.67,2.15,1.81-3.57,4.26,1.64,1.38,3.05-3.64,2.15,1.81-3.05,3.64,1.72,1.45,3.57-4.26,2.15,1.8Zm-7.31,9.94l-1.53,2.76-5.37-2.98,1.89,3.13-.98,1.76-3.65.05,5.37,2.98-1.53,2.76-11.21-6.21,1.5-2.71,6.34.22-3.55-5.26,1.5-2.71,11.21,6.21Zm-23.18,12.31l.92-3.01,2.51.77-.92,3.01-2.51-.77Zm16.86,1.86l-.92,3.01-12.26-3.75.92-3.01,12.26,3.75Zm-11.47,4.34l-.49,3.11,9.88,1.57-.49,3.11-9.88-1.56-.49,3.11-2.77-.44,1.48-9.33,2.77.44Zm8.58,13.3v8.71H6.9v-8.71h2.81v5.56h2.14v-4.75h2.81v4.75h2.25v-5.56h2.81Z"/>
  <path class="cls-4" d="m105.27,158.19l-1.22-4.91c-.1-.42-.29-.71-.57-.88-.28-.17-.57-.21-.89-.13-.32.08-.56.25-.72.52-.17.27-.2.62-.09,1.05l1.22,4.91c.21.85.7,1.18,1.45.99.76-.19,1.03-.71.82-1.56m2.86-.73c.3,1.22.14,2.29-.5,3.2-.58.84-1.43,1.39-2.53,1.67-1.12.28-2.12.18-3.02-.29-.99-.51-1.64-1.37-1.95-2.59l-1.22-4.89c-.31-1.22-.14-2.29.5-3.2.58-.84,1.43-1.4,2.53-1.67,1.12-.28,2.12-.18,3.02.29.99.51,1.64,1.37,1.95,2.6l1.22,4.89Zm-15.52-1.9c-.04-.43-.19-.77-.47-1.02-.13-.11-.28-.19-.44-.25-.16-.06-.34-.08-.53-.06-.36.03-.65.19-.89.47-.23.28-.33.65-.29,1.1.04.44.2.78.47,1.02.27.24.6.35.97.31.35-.03.64-.18.88-.46.24-.27.34-.64.3-1.11m2.94-.26c.03.3.02.6-.01.9-.03.3-.11.65-.22,1.03-.08.33-.3.96-.67,1.88l-2.01,5.27-3.23.28,2.09-5.22c-.17.08-.41.13-.71.15-.86.08-1.65-.19-2.38-.79-.8-.65-1.26-1.58-1.36-2.77-.11-1.3.22-2.36,1-3.18.73-.76,1.69-1.2,2.88-1.3,1.2-.1,2.24.17,3.12.81.88.65,1.38,1.62,1.49,2.92m-14.77.47c.04-.43-.06-.79-.28-1.09-.11-.13-.24-.24-.39-.32-.15-.08-.32-.14-.51-.15-.36-.03-.68.07-.96.3-.28.24-.44.58-.48,1.03-.04.44.05.81.28,1.09.23.29.53.45.9.48.35.03.66-.07.95-.3.29-.23.45-.58.49-1.04m2.94.26c-.03.3-.08.6-.17.89-.09.29-.22.62-.39.98-.14.31-.46.89-.98,1.74l-2.9,4.84-3.23-.28,2.97-4.78c-.18.04-.43.05-.73.03-.86-.07-1.6-.47-2.21-1.19-.68-.78-.97-1.77-.86-2.97.11-1.3.63-2.29,1.54-2.96.85-.62,1.87-.88,3.07-.78,1.2.11,2.17.55,2.93,1.34.76.79,1.08,1.83.96,3.14m-15.97,6.66l-2.86-.71,2.34-9.38-3.23,1.64.76-3.06,3.23-1.64,2.86.71-3.1,12.44Z"/>
</svg>