<?xml version="1.0" encoding="utf-8"?>
<!-- Generator: Adobe Illustrator 27.8.1, SVG Export Plug-In . SVG Version: 6.00 Build 0)  -->
<svg version="1.1" id="katman_1" xmlns="http://www.w3.org/2000/svg" xmlns:xlink="http://www.w3.org/1999/xlink" x="0px" y="0px"
	 viewBox="0 0 174.3 173.9" style="enable-background:new 0 0 174.3 173.9;" xml:space="preserve">
<style type="text/css">
	.st0{fill-rule:evenodd;clip-rule:evenodd;fill:#41484C;}
	.st1{fill-rule:evenodd;clip-rule:evenodd;fill:#FFFFFF;}
	.st2{fill-rule:evenodd;clip-rule:evenodd;fill:#E30921;}
	.st3{fill-rule:evenodd;clip-rule:evenodd;fill:#243964;}
	.st4{fill-rule:evenodd;clip-rule:evenodd;fill:#FDEA18;}
	.st5{fill-rule:evenodd;clip-rule:evenodd;fill:#31A947;}
</style>
<path class="st0" d="M87.2,173.9c48,0,87.1-39,87.1-86.9S135.2,0,87.2,0S0,39.1,0,87S39.2,173.9,87.2,173.9z"/>
<path class="st1" d="M87.2,171.3c46.5,0,84.5-37.9,84.5-84.3s-38-84.3-84.5-84.3S2.7,40.6,2.7,87S40.6,171.3,87.2,171.3z"/>
<path class="st0" d="M87.2,144.2c31.6,0,57.4-25.8,57.4-57.3s-25.8-57.2-57.4-57.2S29.8,55.4,29.8,87S55.6,144.2,87.2,144.2z"/>
<path class="st2" d="M38.8,61.6c9-17,26.7-28.7,47.2-29.2c-6.1,8.1-13.6,15.4-22.3,20.7c-5.2,3.1-10.8,5.6-16.6,7.1
	C44.3,60.9,41.6,61.3,38.8,61.6L38.8,61.6z"/>
<path class="st2" d="M79.3,141c-26.4-3.9-46.8-26.6-46.8-54c0-7.5,1.5-14.7,4.3-21.2c0.1,1.3,0.2,2.6,0.3,3.9
	c1.4,13.4,6.3,27.2,13.8,39.7C58.1,121.5,67.9,132.6,79.3,141L79.3,141z"/>
<path class="st2" d="M137.6,65.8c2.8,6.5,4.3,13.7,4.3,21.2c0,27.4-20.4,50.2-46.8,54c11.4-8.4,21.1-19.5,28.5-31.7
	c7.6-12.7,12.5-26.7,13.8-40.3C137.5,68,137.5,66.9,137.6,65.8L137.6,65.8z"/>
<path class="st2" d="M88.4,32.4c20.5,0.5,38.2,12.2,47.2,29.2c-2.3-0.2-4.6-0.6-7-1.1c-6.4-1.4-12.4-4-18-7.4
	C102,47.8,94.5,40.5,88.4,32.4L88.4,32.4z"/>
<path class="st3" d="M46,61.7h82.2c-6.5-1.5-12.7-4.1-18.4-7.6c-8.7-5.4-16.5-12.9-22.6-21.2C81,41.2,73.3,48.7,64.4,54.1
	C58.7,57.6,52.6,60.3,46,61.7z"/>
<path class="st3" d="M59.1,92.3H43.9c2.2,5.6,4.8,11.1,8,16.3c7.6,12.7,17.9,24.2,30,32.6c0.8,0.1,1.5,0.1,2.3,0.2
	c0.4-2.6,0.2-14.7,0.1-15.3c-0.5-0.6-1.1-1-1.7-1.2c-0.7-0.2-1.5-0.4-2.5-0.4c-0.9,0-1.7,0.1-2.5,0.2s-1.5,0.4-2.5,0.7
	c-0.9,0.3-1.6,0.5-2.3,0.5c-0.8,0-1.6-0.3-2.4-1.1c-0.2-0.1-0.3-0.3-0.5-0.4c-0.6-0.6-1.3-1.3-2-1.3c-0.9,0-1.7-0.1-2.4-0.3
	c-0.7-0.2-1.4-0.6-2-1.1c-1.3-1.2-1.3-2.9-1.2-4.3c0-0.6,0-1.1-0.1-1.3c-0.2-0.4-0.7-0.8-1.4-1.2c-0.8-0.5-1.6-0.9-2.3-1.2
	c-1.2-0.5-2-1.5-2.4-2.5s-0.5-2.2-0.5-3.4c0-0.5,0-1-0.1-1.4s-0.1-0.6-0.3-0.8l0,0c-0.4-0.4-0.8-0.9-1.1-1.5s-0.5-1.3-0.5-2.1
	c0-0.7,0.2-1.4,0.6-1.8c0.4-0.6,1.1-0.9,1.6-0.9c1.4,0,2.7,1.2,3.5,2.1c0.1,0,0.1,0.1,0.2,0.2c0.4,0.4,0.8,0.8,1.3,1.2
	c0.5,0.3,0.9,0.6,1.4,0.7c0.9,0.2,1.6,0.2,2.3,0.2h0.1c1.1,0,1.9,0.1,2.6,0.5s1.2,1,1.6,2.1c0.5,1.1,1,1.1,1.8,1.1
	c0.3,0,0.5,0,0.9,0c1.8,0.1,2.2,0.9,2.9,2.2c0.1,0.2,0.2,0.4,0.4,0.6c0.3,0.5,0.5,0.9,0.8,1.2c0.2,0.3,0.5,0.5,0.6,0.6
	c0.3,0.2,0.6,0.2,0.9,0.3c0.5,0.1,1.2,0.2,2.1,0.9c0.6,0.4,1,0.9,1.3,1.5s0.4,1.2,0.6,1.9c0.3,1.3,0.5,2.5,1,3.3
	c0.4,0.8,1.1,1.5,2.4,1.9c0-0.1,0-0.3,0-0.5c0.2-4,0.3-6.6,0.1-8.3c-0.2-1.5-0.6-2.3-1.4-2.9c-2.5-1.7-5.1-3.5-7.5-5
	s-4.5-2.8-6.2-3.6c-0.3,0-0.6-0.1-0.9-0.1c-0.4,0-0.7,0-1,0h-0.3c-1.6,0-3.1-0.1-4.7-1.2c-1-0.7-1.7-1.5-2.1-2.3
	c-0.4-0.8-0.4-1.8,0.1-2.6c0.1-0.2,0.2-0.3,0.2-0.4c0.2-0.3,0.2-0.5,0-0.7c-0.4-0.4-0.9-0.9-1.2-1.5C59.2,92.5,59.1,92.4,59.1,92.3
	L59.1,92.3z"/>
<path class="st3" d="M81,92.3H66.7c0.4,0.5,0.9,0.6,1.4,0.7s1.1,0.2,1.7,0.6c0.5,0.3,0.9,0.6,1.2,1.1s0.6,1.1,0.8,1.8
	c0.1,0.3,0.1,0.4,0.1,0.6c0.1,0.6,0.2,1,0.9,1.6c2.7,2,5.3,3.7,7.7,5.3c1.7,1.1,3.3,2.1,4.6,3.1l0,0h0.1c0-0.3,0-0.7-0.1-1.1
	c-0.1-0.5-0.2-1-0.3-1.5c-2-2.4-3.3-4.1-4.1-5.5c-0.8-1.6-1-2.8-0.9-4.4c0.1-0.6,0.2-1.3,0.6-1.8C80.7,92.6,80.9,92.5,81,92.3
	L81,92.3z"/>
<path class="st3" d="M109.6,92.3H93c-0.2,0.3-0.5,0.6-0.7,0.8c0.5,0.6,0.9,1.2,1.2,1.8c0.4,0.8,0.5,1.5,0.5,2.2c0,1.5-0.7,2.8-1.6,4
	c-0.8,1.1-1.9,2-2.9,2.9c-0.1,0.4-0.1,0.9-0.1,1.4s0.1,1,0.1,1.4h0.1h0.1c0,0,0,0,0.1,0l0,0c0.3-0.2,1-0.6,1.7-0.9
	c3.3-1.9,7.3-4.1,11.2-6.9c0.4-0.3,0.6-0.5,0.7-0.9s0.2-0.8,0.2-1.2c0-0.8,0.2-1.4,0.6-2c0.4-0.7,1-1.2,1.5-1.5
	c0.7-0.4,1.5-0.4,2.2-0.4c0.6,0,1.3,0,1.5-0.4C109.4,92.7,109.5,92.5,109.6,92.3L109.6,92.3z"/>
<path class="st3" d="M89.8,141.5c0.9,0,1.8-0.1,2.7-0.2c12-8.5,22.4-19.9,30-32.6c3.2-5.3,5.8-10.8,8-16.3H117
	c-0.1,0.3-0.3,0.6-0.5,0.8c-0.3,0.5-0.6,0.8-0.9,1.2c-0.5,0.6-0.6,1.5-0.6,2.4c0,1.7,0,3.3-2.7,4.4c-0.9,0.4-1.6,0.5-2.3,0.6
	c-0.7,0.1-1.3,0.1-2.1,0.2c-0.6,0-1.2,0-1.7,0.1s-1,0.2-1.4,0.5c-1,0.6-2.2,1.3-3.4,2c-3.5,2-7.7,4.4-9.6,6.1
	c-0.8,0.6-1.2,1.4-1.5,2.9c-0.3,1.6-0.4,4-0.2,8c0,0.5,0,0.6,0,0.6c0.1,0,0.4-0.1,0.7-0.3c0.6-0.3,1.4-0.9,2-1.4
	c0.5-0.5,0.9-0.9,1-1.1c0-0.1,0.1-0.4,0.1-0.8c0.4-1.7,0.9-4.3,2.2-5.1c0.7-0.5,1.4-0.6,2.2-0.7c0.5,0,1-0.1,1.4-0.3
	c0.2,0,0.4-0.5,0.6-1.1c0.5-1.4,1.1-3,3.4-3.1c0.3,0,0.5,0,0.8,0c1,0,1.9,0,2.4-1.1c0.5-1,0.9-1.6,1.6-2c0.6-0.4,1.4-0.5,2.5-0.5
	h0.3c0.8,0,2.4,0.1,3.2-0.1c0.6-0.1,0.8-0.4,1.1-0.7c0.2-0.2,0.3-0.4,0.6-0.6c0.1-0.1,0.2-0.2,0.3-0.3c0.7-0.7,1.3-1.4,2.6-1.3
	c0.4,0,0.9,0.1,1.4,0.3c0.5,0.3,0.9,0.8,0.9,1.7c0,0.5-0.2,1.2-0.5,1.8c-0.3,0.6-0.8,1.3-1.2,1.8l0,0c-0.2,0.2-0.3,0.6-0.5,1.1
	c-0.2,0.7-0.3,1.4-0.2,1.9c0,1.2,0,2.2-0.4,3.1c-0.4,1-1,1.8-2.3,2.3c-0.5,0.2-1,0.4-1.4,0.5c-1,0.3-1.9,0.6-2.3,1.2
	c-0.1,0.2-0.2,0.8-0.3,1.6c-0.1,1.4-0.3,3.1-1.4,3.8c-0.6,0.4-1.2,0.6-2,0.7c-0.7,0.1-1.5,0.1-2.4,0.1c-0.4,0-0.8,0.2-1.2,0.4
	c-0.6,0.4-1.1,1-1.5,1.5c-1.6,2-2.9,1.4-4.6,0.6c-0.4-0.2-0.8-0.3-1.2-0.5c-0.6-0.2-1.3-0.4-2-0.5c-0.6-0.1-1.3-0.2-1.9-0.2
	c-1,0-1.9,0.1-2.7,0.3c-0.7,0.2-1.2,0.6-1.8,1.2c-0.2,1-0.1,9.6-0.1,11.4C89.6,139,89.6,140.2,89.8,141.5L89.8,141.5z"/>
<path class="st4" d="M136.4,63H37.9c0.1,9.2,2.1,18.7,5.5,28h15.4v-0.1c0-0.3,0-0.5,0.1-0.8c0.1-0.8,0.5-1.3,1-1.7
	c0.5-0.4,1.1-0.5,1.7-0.5c0.3,0,0.5,0,0.8,0c0.6,0.1,1.2,0.3,1.8,0.6c0.6,0.3,1.1,0.8,1.5,1.4c0.2,0.4,0.4,0.7,0.5,1h15
	c-0.5-0.7-0.9-1.4-1.2-2.2c-0.5-1.2-0.8-2.5-0.6-3.8c0.1-0.7,0.3-1.4,0.7-2c0.3-0.5,0.8-1,1.4-1.4c0-0.1-0.1-0.3-0.1-0.4
	c-0.6-2.4-1.3-5.5,3.1-8.4c0.1-1.6,0.3-2.9,0.8-3.8c0.6-1.1,1.4-1.9,2.7-2.4h0.4c1.3,0.5,2.3,1.3,2.8,2.5c0.5,1.1,0.7,2.5,0.6,4.1
	c3.8,3.6,2.4,6.5,1.7,8c0.5,0.5,0.9,1.1,1.2,1.8c0.5,0.9,0.8,1.9,0.8,2.7c0.1,1.3-0.3,2.7-0.9,4c-0.2,0.4-0.4,0.9-0.7,1.3h16.4
	c0.1-0.2,0.2-0.4,0.3-0.5c0.4-0.6,0.8-1.1,1.3-1.4s1.1-0.5,1.7-0.5c0.5,0,0.9,0,1.4,0.1s1.1,0.4,1.5,0.7c0.4,0.4,0.7,0.9,0.7,1.5
	v0.1h13.7C134.3,81.8,136.3,72.3,136.4,63L136.4,63z"/>
<path class="st5" d="M88.4,141.6c-0.4,0-0.8,0-1.3,0s-1,0-1.5,0c0.1-0.6,0.1-1.9,0.1-2.5c0.1-1.5,0.1-3.2,0.1-4.8c0-0.3,0-0.5,0-0.8
	c0-1.4,0-3,0-4.5c0-1.4-0.1-2.7-0.2-3.3l-0.1-0.3c-0.7-0.9-1.5-1.4-2.3-1.7c-0.8-0.3-1.8-0.4-2.9-0.5c-1,0-1.9,0.1-2.7,0.2
	c-0.9,0.2-1.7,0.4-2.6,0.8c-0.8,0.2-1.4,0.5-1.9,0.5s-1-0.2-1.6-0.8c-0.1-0.1-0.3-0.3-0.4-0.4c-0.8-0.8-1.7-1.7-3-1.7
	c-0.8,0-1.4,0-2-0.2s-1.1-0.4-1.5-0.8c-0.9-0.8-0.8-2.2-0.8-3.3c0-0.8,0-1.4-0.2-1.9c-0.3-0.6-1.1-1.2-1.9-1.7
	c-0.8-0.5-1.7-0.9-2.5-1.2c-0.9-0.4-1.4-1-1.8-1.9c-0.4-0.8-0.4-1.9-0.4-2.9c0-0.5,0-1.1-0.1-1.6c-0.1-0.6-0.3-1.1-0.7-1.5l0,0
	c-0.3-0.4-0.7-0.8-0.9-1.2c-0.2-0.4-0.4-0.9-0.4-1.5c0-0.4,0.1-0.8,0.3-1s0.3-0.4,0.5-0.4c0.8,0,1.9,1,2.6,1.7
	c0.1,0.1,0.1,0.1,0.2,0.2c0.4,0.4,0.9,0.9,1.5,1.3s1.2,0.8,1.9,0.9c1.1,0.2,1.9,0.2,2.6,0.2h0.1c0.9,0,1.5,0,1.9,0.3
	c0.4,0.3,0.8,0.8,1.2,1.6c0.9,1.8,1.6,1.8,2.9,1.8h0.8c1,0,1.3,0.6,1.8,1.6c0.1,0.2,0.2,0.4,0.4,0.6c0.3,0.5,0.6,1,0.9,1.4
	s0.6,0.7,1,0.9c0.5,0.3,0.9,0.4,1.3,0.4c0.4,0.1,0.9,0.2,1.7,0.7c0.4,0.2,0.6,0.6,0.8,1c0.2,0.5,0.4,1,0.5,1.6
	c0.3,1.4,0.5,2.6,1.1,3.7s1.5,2,3.1,2.5c0.8,0.3,1.2,0.2,1.5-0.3c0.2-0.3,0.2-0.7,0.2-1.3c0.2-4.1,0.3-6.7,0.1-8.5
	c-0.2-2-0.8-3-2-3.8c-2.5-1.7-5.1-3.5-7.5-5c-2.4-1.6-4.6-2.9-6.4-3.8h-0.2c-0.4-0.1-0.8-0.1-1.2-0.2s-0.7,0-1.1,0H67
	c-1.4,0-2.7-0.1-4-1c-0.8-0.5-1.3-1.1-1.6-1.8c-0.2-0.5-0.2-1,0-1.6c0.1-0.1,0.1-0.2,0.2-0.4c0.5-0.9,0.8-1.3-0.3-2.3
	c-0.4-0.3-0.7-0.7-0.9-1.2c-0.2-0.4-0.3-0.7-0.3-1.1c0-0.2,0-0.4,0.1-0.5c0.1-0.4,0.2-0.7,0.5-0.9c0.2-0.2,0.6-0.3,1-0.3
	c0.2,0,0.4,0,0.6,0c0.5,0.1,0.9,0.2,1.4,0.4c0.4,0.2,0.8,0.5,1,1c0.3,0.5,0.4,0.9,0.6,1.2c0.2,0.4,0.3,0.7,0.5,1
	c0.6,1,1.4,1.2,2.3,1.4c0.4,0.1,0.9,0.2,1.3,0.5c0.3,0.2,0.6,0.4,0.8,0.8c0.3,0.4,0.5,0.8,0.6,1.4c0,0.2,0.1,0.4,0.1,0.5
	c0.1,0.9,0.2,1.5,1.4,2.4c2.7,2,5.4,3.7,7.8,5.3c1.7,1.1,3.2,2.1,4.6,3.1c0.2,0.1,0.4,0.2,0.6,0.3c0.2,0,0.4,0,0.6,0
	s0.4-0.2,0.5-0.4c0.1-0.1,0.1-0.2,0.2-0.3c0.1-0.5,0.1-1.2,0-1.8c-0.1-0.6-0.2-1.4-0.5-2c-2-2.4-3.3-4-4-5.4
	c-0.7-1.3-0.9-2.4-0.8-3.7c0.1-0.4,0.2-0.9,0.4-1.2c0.5-0.7,1.2-1.1,2-1.5c-1.1-1.1-2-2.2-2.6-3.6c-0.4-1-0.6-2.1-0.6-3.2
	c0.1-0.5,0.2-1,0.5-1.4c0.5-0.7,1.1-1.2,1.7-1.6c-0.3-1.2-0.7-2.5-0.6-3.7c0.1-2.3,1.6-3.7,3.5-4.9c0-1.3,0.1-2.8,0.6-4
	c0.4-0.8,1-1.3,1.8-1.6c0.9,0.4,1.5,1,1.9,1.8c0.6,1.3,0.5,2.7,0.4,4.1c1.3,1.2,2.5,2.6,2.5,4.4c0,1.3-0.6,2.4-1.1,3.5
	c0.7,0.6,1.2,1.1,1.7,1.9c0.4,0.8,0.6,1.6,0.7,2.2c0.1,1-0.3,2.2-0.8,3.4c-0.7,1.5-1.7,2.7-3,3.8c0.7,0.7,1.4,1.5,1.9,2.4
	c0.3,0.6,0.4,1.1,0.4,1.7c0,1.2-0.6,2.3-1.4,3.3s-1.9,2-2.9,2.8c-0.4,0.6-0.4,1.5-0.4,2.2c0,0.6,0.1,1.3,0.2,1.8
	c0,0.1,0.1,0.2,0.2,0.3c0.1,0.2,0.4,0.4,0.6,0.5c0.3,0.1,0.6,0.2,0.9,0.1c0.1,0,0.2-0.1,0.4-0.2c0.8-0.4,1.2-0.7,1.7-0.9
	c3.4-1.9,7.4-4.1,11.3-7c0.6-0.4,0.9-0.9,1.1-1.4s0.3-1.1,0.3-1.7c0-0.5,0.2-1,0.4-1.4c0.3-0.5,0.7-0.8,1-1c0.4-0.2,1-0.2,1.6-0.2
	c1,0,2,0,2.6-0.9c0.2-0.4,0.4-0.7,0.6-1.1s0.4-0.8,0.7-1.2c0.3-0.5,0.6-0.8,0.9-1s0.7-0.3,1.1-0.3s0.7,0,1,0.1
	c0.4,0.1,0.6,0.2,0.9,0.4c0.2,0.2,0.3,0.4,0.3,0.6c0,0.1,0,0.2,0,0.4c-0.1,0.4-0.3,0.7-0.5,1c-0.2,0.4-0.5,0.7-0.8,1.1
	c-0.9,1-0.9,2.1-0.9,3.2c0,1.2,0,2.5-1.9,3.2c-0.9,0.4-1.5,0.5-2.1,0.6s-1.2,0.1-1.9,0.1c-0.6,0-1.2,0-1.9,0.1
	c-0.6,0.1-1.3,0.3-1.9,0.7c-0.9,0.5-2.1,1.2-3.4,2c-3.5,2-7.8,4.5-9.9,6.3c-0.9,0.9-1.6,1.8-1.9,3.6c-0.3,1.7-0.4,4.2-0.3,8.3
	c0,1.2,0.4,1.7,1,1.8c0.5,0.1,1-0.1,1.6-0.4c0.8-0.4,1.6-1,2.3-1.6c0.7-0.6,1.2-1.3,1.4-1.8c0.1-0.3,0.1-0.5,0.2-0.8
	c0.3-1.5,0.7-3.7,1.7-4.3c0.4-0.3,1-0.4,1.6-0.5c0.5-0.1,1.1-0.2,1.6-0.4c0.7-0.2,1-1,1.3-1.8c0.4-1,0.8-2.2,2.2-2.3
	c0.3,0,0.5,0,0.8,0c1.5,0,2.7,0,3.6-1.8c0.4-0.8,0.7-1.3,1.1-1.6l0,0c0.4-0.2,0.9-0.3,1.8-0.3c0.1,0,0.2,0,0.3,0
	c0.9,0,2.5,0.1,3.6-0.2c1-0.2,1.3-0.6,1.8-1.1c0.1-0.2,0.3-0.3,0.5-0.5c0.1-0.1,0.2-0.2,0.4-0.4c0.5-0.5,0.9-0.9,1.6-0.9
	c0.3,0,0.6,0,0.8,0.1c0.1,0.1,0.2,0.3,0.2,0.6c0,0.3-0.1,0.8-0.4,1.2c-0.2,0.5-0.6,1.1-0.9,1.5l0,0c-0.4,0.4-0.6,1-0.8,1.7
	c-0.2,0.8-0.3,1.7-0.3,2.3c0,1,0,1.9-0.2,2.7c-0.2,0.7-0.7,1.2-1.6,1.6c-0.4,0.2-0.9,0.4-1.3,0.5c-1.2,0.4-2.3,0.8-2.9,1.6
	c-0.4,0.5-0.4,1.3-0.5,2.2c-0.1,1.1-0.2,2.5-0.8,2.9c-0.4,0.3-0.9,0.4-1.5,0.5s-1.4,0.1-2.2,0.1c-0.6,0-1.3,0.2-1.9,0.6
	c-0.7,0.5-1.4,1.1-1.8,1.7c-1,1.2-1.9,0.8-3.1,0.3c-0.4-0.2-0.8-0.4-1.3-0.5c-0.6-0.2-1.4-0.4-2.1-0.6c-0.8-0.2-1.5-0.3-2.2-0.3
	c-1.1,0-2.1,0.1-3,0.4s-1.8,0.8-2.5,1.7l-0.1,0.3c-0.2,1-0.2,3.9-0.2,6.5v1.3c0,1.3,0,2.7,0,4c0,0.4,0,0.9,0,1.3
	C88.3,139.7,88.4,141,88.4,141.6L88.4,141.6z"/>
<path class="st0" d="M88.6,76.5c-0.5,0.7-0.9,1.5-1.2,2.3c-0.1,0.3-0.2,0.6-0.2,0.8c0,0,0,0.1-0.1,0.2C87,80.2,87,80.6,86.9,81
	c-0.1,1.9,0.4,3.6,0.9,5.2c0.4,1.2,0.7,2.4,0.9,3.8c0,0.1,0,0.2,0,0.2c0.4-0.2,0.8-0.6,1.3-1.1c0.2-0.3,0.4-0.5,0.7-0.3
	c0.3,0.2,0.2,0.5-0.1,0.8c-0.6,0.8-1.2,1.3-1.9,1.5c0,0.9,0,2-0.2,2.9c-0.2,1-0.5,1.9-0.9,2.5c-0.2,0.3-0.5,0.5-0.8,0.3
	s-0.1-0.5,0.1-0.8c0.4-0.5,0.6-1.3,0.8-2.2c0.1-0.9,0.2-1.8,0.2-2.6c-0.4,0-0.8,0-1.2-0.2c-0.5-0.2-0.8-0.5-1.1-0.9
	C85.2,89.6,85,89,85,88.3c0-0.3,0.1-0.6,0.5-0.5c0.4,0,0.4,0.3,0.3,0.6c0,0.4,0.1,0.8,0.4,1.1c0.2,0.2,0.5,0.5,0.8,0.6
	c0.2,0.1,0.5,0.1,0.8,0.1c0-0.1,0-0.2-0.1-0.4c-0.1-1.3-0.5-2.5-0.8-3.6c-0.5-1.7-1-3.4-0.9-5.5c0-0.4,0.1-0.8,0.1-1.1
	c-0.2-0.2-0.4-0.3-0.5-0.5c-0.2-0.3-0.3-0.5-0.4-1c-0.1-0.2-0.1-0.5,0.3-0.6s0.5,0.2,0.5,0.4c0.1,0.4,0.2,0.5,0.3,0.7l0.1,0.1
	c0.1-0.1,0.1-0.3,0.2-0.5c0.3-0.9,0.7-1.6,1.3-2.5c0.1-0.2,0.4-0.4,0.6-0.2C88.7,76,88.7,76.3,88.6,76.5L88.6,76.5z"/>
<path class="st0" d="M113.2,109.9c-3.1,3.7-5.8,5-8.2,6.3c-1.9,1-3.7,1.9-5.2,3.9c-0.2,0.2-0.5,0.3-0.8,0.1s-0.2-0.5-0.1-0.7
	c1.7-2.2,3.5-3.1,5.6-4.1c2.3-1.2,4.9-2.5,7.9-6c0.2-0.2,0.5-0.2,0.8,0C113.3,109.4,113.4,109.7,113.2,109.9L113.2,109.9z"/>
<path class="st0" d="M62.3,108.2c2.9,3.6,5.5,5,7.9,6.2c2,1.1,3.8,2,5.5,4.2c0.2,0.2,0.2,0.5-0.1,0.8c-0.3,0.2-0.6,0.1-0.8-0.1
	c-1.5-2-3.2-2.9-5.2-3.9c-2.4-1.3-5.1-2.7-8.2-6.5c-0.2-0.2-0.1-0.6,0.1-0.8C61.7,107.9,62.1,108,62.3,108.2L62.3,108.2z"/>
<polygon class="st0" points="152.2,133.5 154,134.7 152.9,136.3 151.1,135.1 "/>
<polygon class="st0" points="154.5,130.2 156.3,131.5 155.2,133.1 153.4,131.8 "/>
<path class="st0" d="M149.7,135.5l-1.2,1.7l-7.4-5.1c-1.3-0.9-2.2-1.8-2.7-2.6c-0.6-0.8-0.8-1.8-0.8-2.9s0.5-2.2,1.4-3.5
	c0.8-1.2,1.7-2,2.7-2.5s1.9-0.6,2.9-0.4s2.2,0.8,3.5,1.8l7.4,5.1l-1.2,1.7l-7.4-5.1c-1.1-0.8-2-1.2-2.7-1.4c-0.6-0.2-1.3-0.1-2,0.2
	c-0.6,0.3-1.2,0.8-1.7,1.5c-0.9,1.2-1.2,2.3-1,3.3c0.2,0.9,1.1,1.9,2.7,3L149.7,135.5L149.7,135.5z"/>
<polygon class="st0" points="166.2,100.7 168.3,101 168,103 165.9,102.6 "/>
<polygon class="st0" points="166.8,96.8 169,97.1 168.6,99.1 166.5,98.7 "/>
<path class="st0" d="M164.7,103.6l-0.3,2l-8.9-1.4c-1.5-0.2-2.7-0.6-3.6-1.1c-0.9-0.5-1.5-1.2-1.9-2.2s-0.5-2.3-0.3-3.7
	c0.2-1.5,0.7-2.6,1.3-3.4s1.5-1.4,2.5-1.6s2.3-0.2,4,0l8.9,1.4l-0.3,2l-8.9-1.4c-1.4-0.2-2.4-0.2-3-0.1c-0.7,0.1-1.2,0.5-1.7,1
	c-0.4,0.6-0.7,1.3-0.9,2.2c-0.2,1.5,0,2.6,0.5,3.3c0.6,0.8,1.8,1.3,3.8,1.6L164.7,103.6L164.7,103.6z"/>
<polygon class="st0" points="150.5,80 166.1,79.4 166.2,81.4 152.5,81.9 152.7,89.6 150.9,89.6 "/>
<path class="st0" d="M165,71.8l0.5,2l-8.7,2.2c-1.5,0.4-2.8,0.5-3.8,0.4s-1.9-0.6-2.6-1.3c-0.8-0.8-1.4-1.9-1.7-3.3
	c-0.4-1.4-0.4-2.6-0.1-3.6c0.2-1,0.8-1.9,1.6-2.4c0.8-0.6,2-1.1,3.6-1.5l8.7-2.2l0.5,2l-8.7,2.2c-1.3,0.3-2.2,0.7-2.8,1.1
	s-1,0.9-1.1,1.6c-0.2,0.7-0.2,1.5,0,2.3c0.4,1.5,1,2.4,1.8,2.9s2.2,0.5,4.1,0L165,71.8L165,71.8z"/>
<polygon class="st0" points="141.3,53.3 155,46 156,47.8 149.2,51.4 159.7,54.6 161,57.1 152.3,54.3 147.3,64.6 146.1,62.2 
	150.4,53.6 147,52.6 142.3,55.1 "/>
<path class="st0" d="M87.5,18.3h2c0,0.8,0.2,1.4,0.5,1.9s0.8,1,1.5,1.3c0.7,0.4,1.5,0.6,2.4,0.6c0.8,0.1,1.5,0,2.1-0.2
	s1.1-0.5,1.4-0.9s0.5-0.8,0.5-1.3s-0.1-0.9-0.4-1.3c-0.2-0.4-0.7-0.7-1.3-1c-0.4-0.2-1.3-0.5-2.7-1c-1.4-0.4-2.4-0.8-2.9-1.2
	c-0.7-0.5-1.2-1-1.6-1.6c-0.3-0.6-0.5-1.3-0.4-2c0.1-0.8,0.3-1.5,0.8-2.2c0.5-0.6,1.2-1.1,2.1-1.4s1.8-0.4,2.9-0.4
	c1.1,0.1,2.1,0.4,3,0.8c0.9,0.4,1.5,1,1.9,1.8s0.6,1.6,0.6,2.5h-2c-0.1-1-0.4-1.8-0.9-2.3c-0.6-0.6-1.5-0.9-2.6-0.9
	c-1.2-0.1-2.2,0.1-2.8,0.5c-0.6,0.4-0.9,0.9-1,1.6c-0.1,0.6,0.1,1,0.5,1.4s1.4,0.8,3,1.3s2.8,0.9,3.4,1.2c0.9,0.5,1.5,1.1,1.9,1.7
	c0.4,0.7,0.6,1.4,0.5,2.2c-0.1,0.8-0.4,1.6-0.9,2.3c-0.5,0.7-1.2,1.2-2.2,1.6c-0.9,0.4-1.9,0.5-3,0.4c-1.4-0.1-2.6-0.4-3.5-0.9
	s-1.6-1.2-2.1-2C87.7,20.3,87.5,19.3,87.5,18.3L87.5,18.3z"/>
<polygon class="st0" points="68.6,26.1 65.1,10.9 76.1,8.4 76.5,10.2 67.6,12.2 68.6,16.9 77,14.9 77.4,16.7 69,18.7 70.2,23.8 
	79.6,21.7 80,23.5 "/>
<path class="st0" d="M64.5,26.5c0.7-1.3,0.9-2.8,0.6-4.5L63,22.4c0.3,1.3,0.2,2.4-0.3,3.4s-1.2,1.6-2.3,2.1
	c-0.9,0.4-1.8,0.5-2.7,0.4s-1.8-0.5-2.5-1.3c-0.8-0.7-1.4-1.7-1.9-2.9c-0.4-0.9-0.7-1.9-0.8-2.9s0.1-1.9,0.6-2.8
	c0.5-0.8,1.3-1.5,2.4-2c0.9-0.4,1.8-0.5,2.7-0.4c0.8,0.2,1.6,0.7,2.4,1.6l1.7-1.2c-1-1.2-2.1-1.9-3.4-2.2s-2.8-0.2-4.2,0.5
	c-1.2,0.6-2.3,1.4-3.1,2.4c-0.8,1.1-1.2,2.2-1.3,3.6s0.2,2.8,0.9,4.3c0.6,1.4,1.4,2.5,2.5,3.5c1,0.9,2.2,1.5,3.4,1.7
	c0.9,0.1,1.9,0,3-0.3l0.2,1.9c0.5-0.2,0.8-0.3,1.1-0.4c0.2,0,0.4,0,0.5,0.1s0.2,0.2,0.2,0.3c0.4,0.8-0.8,1.5-1.2,1.7
	c-0.2,0.1-0.5,0.2-0.9,0.4v1c0.5-0.1,1.4-0.4,1.9-0.6c0.9-0.4,1.6-0.9,1.9-1.5c0.3-0.6,0.4-1.1,0.1-1.6c-0.2-0.4-0.4-0.6-0.8-0.7
	c-0.4-0.2-0.9-0.1-1.7,0.1l-0.1-1c0,0,0.1,0,0.1-0.1C62.7,28.7,63.8,27.8,64.5,26.5L64.5,26.5z"/>
<polygon class="st0" points="43,40.8 33.5,28.6 35.1,27.3 39,32.3 45.4,27.3 41.5,22.3 43.1,21 52.7,33.3 51,34.6 46.5,28.8 
	40.2,33.8 44.7,39.5 "/>
<polygon class="st0" points="46.4,141 51.4,137.3 49.4,143.2 54.2,146.8 48.2,146.8 46.4,152.3 44.6,146.8 38.7,146.8 43.5,143.2 
	41.5,137.3 "/>
<path class="st0" d="M99.2,151.4l-0.4-1.6l9.1-2.3l0.4,1.4c-0.6,1.2-1.2,2.6-1.7,4.5c-0.5,1.8-0.8,3.6-0.8,5.4
	c-0.1,1.3,0.1,2.6,0.3,4l-1.8,0.5c-0.2-1.1-0.4-2.5-0.4-4.2s0.3-3.3,0.7-5c0.4-1.6,0.9-3.1,1.6-4.3L99.2,151.4L99.2,151.4z"/>
<path class="st0" d="M66.9,162.3l-1.7-0.5l3.1-10.6l-3.1-0.9l0.4-1.4c1.9,0.5,2.9,0.5,4.1-0.9l1.3,0.4L66.9,162.3L66.9,162.3z"/>
<polygon class="st0" points="127.9,141 123,137.3 124.9,143.2 120.2,146.8 126.1,146.8 127.9,152.3 129.7,146.8 135.7,146.8 
	130.9,143.2 132.8,137.3 "/>
<polygon class="st0" points="38.5,128.4 25.7,137.3 19.6,128.7 21.2,127.6 26,134.6 30,131.8 25.8,125.8 27.3,124.7 31.5,130.7 
	37.3,126.7 "/>
<polygon class="st0" points="23.3,91.2 7.7,90.6 8.1,79.4 10,79.5 9.6,88.6 14.4,88.8 14.7,80.3 16.5,80.3 16.2,88.9 21.5,89.1 
	21.9,79.6 23.7,79.6 "/>
<polygon class="st0" points="25.8,105.8 10.4,108.2 10.1,106.2 20.9,96.2 8.8,98.1 8.5,96.2 23.9,93.7 24.2,95.8 13.4,105.8 
	25.5,103.9 "/>
<polygon class="st0" points="31.3,118.3 17.1,124.6 12.5,114.3 14.2,113.6 17.9,122 22.3,120 18.8,112.2 20.5,111.4 24,119.3 
	28.8,117.1 24.9,108.4 26.6,107.7 "/>
<path class="st0" d="M87.7,158.1c-0.1-1.7-0.1-3.1,0.2-4.2c0.2-1,0.7-1.9,1.4-2.5c0.6-0.6,1.5-1,2.5-1.1c0.8,0,1.5,0,2.1,0.3
	c0.6,0.2,1.1,0.7,1.6,1.2c0.4,0.6,0.8,1.2,1.1,2.1c0.3,0.8,0.5,1.9,0.6,3.4c0.2,1.7,0.1,3.1-0.2,4.1c-0.2,1-0.7,1.9-1.4,2.5
	c-0.6,0.6-1.5,1-2.5,1.1c-1.4,0.1-2.5-0.3-3.4-1.2C88.6,162.7,87.9,160.8,87.7,158.1L87.7,158.1L87.7,158.1z M89.5,157.9
	c0.2,2.4,0.6,3.9,1.2,4.6c0.6,0.8,1.4,1.1,2.2,1c0.8,0,1.5-0.5,1.9-1.4c0.5-0.8,0.6-2.4,0.4-4.8c-0.2-2.4-0.6-3.9-1.2-4.7
	c-0.6-0.7-1.4-1-2.2-1c-0.8,0-1.4,0.5-1.9,1.2C89.5,153.9,89.3,155.6,89.5,157.9L89.5,157.9z"/>
<path class="st0" d="M74.6,160.6h1.7c0.1,0.8,0.2,1.4,0.6,1.8c0.4,0.4,0.9,0.6,1.5,0.7c0.5,0,1,0,1.5-0.2c0.4-0.2,0.8-0.5,1.1-0.9
	c0.3-0.4,0.6-0.9,0.9-1.6c0.2-0.7,0.4-1.4,0.5-2.1c0-0.1,0-0.2,0-0.4c-0.4,0.5-0.9,0.9-1.6,1.2s-1.4,0.4-2.1,0.3
	c-1.2-0.1-2.2-0.7-2.9-1.6c-0.7-1-1-2.2-0.8-3.6c0.2-1.5,0.8-2.6,1.7-3.4s2.1-1.1,3.4-0.9c0.9,0.1,1.8,0.5,2.5,1.1s1.2,1.4,1.5,2.4
	s0.3,2.4,0.1,4.1c-0.2,1.8-0.6,3.3-1.1,4.3s-1.2,1.8-2.1,2.3s-1.8,0.6-2.9,0.5s-2-0.6-2.6-1.3C74.9,162.7,74.6,161.7,74.6,160.6
	L74.6,160.6L74.6,160.6z M82.6,155.1c0.1-1,0-1.8-0.5-2.5c-0.5-0.6-1.1-1-1.8-1.1c-0.8-0.1-1.5,0.2-2.2,0.7
	c-0.7,0.6-1.1,1.4-1.2,2.4c-0.1,0.9,0.1,1.7,0.6,2.3s1.1,1,1.9,1.1s1.5-0.1,2.1-0.6C82.1,156.9,82.5,156.2,82.6,155.1L82.6,155.1z"
	/>
<path class="st0" d="M33.3,52.6l-8.4-14.4l1.4-1.7l16.1,4.8l-1.5,1.8l-4.8-1.6L32,46.6l2.6,4.3L33.3,52.6L33.3,52.6L33.3,52.6z
	 M31.1,45l3.3-4.1c0,0-6.8-2.3-7.6-2.6C27.5,39.1,31.1,45,31.1,45L31.1,45z"/>
<path class="st0" d="M27.8,63.3L14,56l2.7-5.1c0.6-1.1,1.2-1.8,1.8-2.3s1.3-0.8,2.1-0.8c0.8-0.1,1.5,0.1,2.1,0.4
	c0.6,0.3,1.1,0.8,1.4,1.4c0.4,0.6,0.5,1.3,0.5,2.1c0.7-0.7,1.5-1.1,2.3-1.2c0.8-0.1,1.6,0,2.5,0.4c0.6,0.3,1.2,0.8,1.6,1.4
	s0.6,1.1,0.8,1.7c0.1,0.6,0,1.2-0.1,1.9c-0.2,0.7-0.5,1.5-0.9,2.4L27.8,63.3L27.8,63.3L27.8,63.3z M27.2,60.6l1.8-3.4
	c0.3-0.6,0.5-1,0.6-1.3c0.1-0.5,0.2-0.9,0.2-1.3s-0.2-0.7-0.4-1.1c-0.2-0.4-0.6-0.6-1-0.9c-0.5-0.3-1-0.4-1.5-0.3
	c-0.5,0.1-1,0.3-1.4,0.7s-0.8,1-1.3,1.9l-1.7,3.2L27.2,60.6L27.2,60.6L27.2,60.6z M20.8,57.2l1.6-3c0.4-0.8,0.7-1.4,0.8-1.8
	c0.1-0.5,0.1-1-0.1-1.4s-0.5-0.7-1-1c-0.5-0.2-0.9-0.4-1.4-0.3c-0.5,0.1-0.9,0.2-1.2,0.6c-0.4,0.4-0.8,1-1.3,2L16.7,55L20.8,57.2
	L20.8,57.2z"/>
<path class="st0" d="M24,77.6L8.8,74.1l1.6-6.7c0.3-1.4,0.7-2.4,1.1-3c0.4-0.6,1.1-1.1,1.8-1.4c0.8-0.3,1.6-0.3,2.4-0.1
	c1.1,0.3,1.9,0.8,2.5,1.7s0.8,2.1,0.7,3.6c0.4-0.5,0.7-0.8,1-1c0.7-0.5,1.5-0.9,2.4-1.2l4.7-1.7l-0.5,2.4L22.9,68
	c-1.1,0.4-1.9,0.7-2.4,0.9c-0.6,0.3-1,0.5-1.2,0.8c-0.3,0.3-0.5,0.5-0.6,0.8c-0.1,0.2-0.2,0.6-0.3,1.1L17.7,74l6.7,1.6L24,77.6
	L24,77.6L24,77.6z M15.9,73.6l1-4.3c0.2-0.9,0.3-1.6,0.2-2.2s-0.3-1-0.6-1.4c-0.4-0.4-0.8-0.6-1.3-0.7c-0.7-0.2-1.4-0.1-1.9,0.4
	c-0.6,0.4-1,1.2-1.3,2.3l-1.1,4.8L15.9,73.6z"/>
<path class="st0" d="M127.8,37.7L139,26.9l4.8,5c1,1,1.6,1.8,1.9,2.6c0.3,0.7,0.3,1.5,0.1,2.3s-0.6,1.5-1.2,2.1
	c-0.8,0.8-1.7,1.1-2.8,1.2c-1,0-2.2-0.5-3.4-1.4c0.2,0.6,0.3,1.1,0.3,1.4c0,0.8-0.1,1.7-0.3,2.7l-1.2,4.9l-1.8-1.9l0.9-3.8
	c0.2-1.1,0.4-1.9,0.5-2.5s0.1-1.1,0-1.5c0-0.4-0.2-0.7-0.4-1c-0.1-0.2-0.4-0.5-0.7-0.9l-1.7-1.7l-5,4.8L127.8,37.7L127.8,37.7
	L127.8,37.7z M135.5,33.1l3.1,3.2c0.6,0.7,1.2,1.2,1.7,1.4s1,0.3,1.5,0.2s1-0.3,1.3-0.7c0.5-0.5,0.8-1.1,0.8-1.8s-0.5-1.5-1.2-2.3
	l-3.4-3.5L135.5,33.1L135.5,33.1z"/>
<path class="st0" d="M117.4,22.5c1.2-2.3,2.8-3.7,4.8-4.3c1.9-0.6,3.9-0.4,5.8,0.7c1.2,0.7,2.2,1.6,2.9,2.8c0.7,1.2,1,2.4,0.9,3.8
	c0,1.4-0.5,2.7-1.2,4.1c-0.8,1.4-1.7,2.5-2.9,3.2c-1.2,0.8-2.4,1.2-3.7,1.2c-1.4,0-2.6-0.4-3.8-1c-1.3-0.7-2.3-1.6-2.9-2.8
	c-0.7-1.2-1-2.4-0.9-3.8C116.4,25,116.7,23.7,117.4,22.5L117.4,22.5L117.4,22.5z M119.2,23.6c-0.9,1.6-1.2,3.2-0.8,4.6
	c0.4,1.4,1.2,2.5,2.5,3.3c1.4,0.7,2.8,0.9,4.2,0.4c1.4-0.5,2.6-1.6,3.6-3.3c0.6-1.1,1-2.2,1-3.2c0.1-1-0.1-2-0.6-2.8
	c-0.5-0.9-1.2-1.5-2-2c-1.3-0.7-2.6-0.9-4-0.5C121.6,20.3,120.3,21.5,119.2,23.6L119.2,23.6z"/>
<path class="st0" d="M101.4,24.8l4.8-14.8l5.6,1.8c1,0.3,1.7,0.6,2.2,0.9c0.7,0.4,1.2,0.8,1.6,1.3s0.6,1.1,0.7,1.8s0,1.4-0.2,2.2
	c-0.4,1.2-1.1,2.2-2.2,2.8s-2.7,0.6-4.8-0.1l-3.8-1.2l-1.9,6L101.4,24.8L101.4,24.8L101.4,24.8z M105.9,17.7l3.8,1.2
	c1.3,0.4,2.2,0.5,2.9,0.2c0.7-0.3,1.2-0.9,1.5-1.7c0.2-0.6,0.2-1.2,0.1-1.8c-0.2-0.5-0.5-1-1-1.3c-0.3-0.2-0.9-0.4-1.8-0.7l-3.8-1.2
	L105.9,17.7L105.9,17.7z"/>
<path class="st0" d="M148,105.7l14.6,5.6l-2.1,5.5c-0.4,1.1-0.9,1.9-1.5,2.5s-1.2,0.9-2,1c-0.8,0.2-1.5,0.1-2.1-0.2
	c-0.6-0.2-1.2-0.6-1.6-1.2c-0.4-0.6-0.7-1.2-0.8-2c-0.6,0.8-1.3,1.3-2.1,1.5s-1.6,0.2-2.5-0.1c-0.7-0.2-1.2-0.6-1.7-1.2
	c-0.5-0.5-0.8-1-1-1.6c-0.2-0.5-0.2-1.2-0.1-1.9c0.1-0.7,0.3-1.5,0.6-2.5L148,105.7L148,105.7L148,105.7z M149,108.3l-1.4,3.6
	c-0.2,0.6-0.4,1-0.4,1.3c-0.1,0.5-0.1,0.9,0,1.3c0,0.4,0.2,0.7,0.5,1s0.6,0.6,1.1,0.8c0.5,0.2,1,0.2,1.6,0.1
	c0.5-0.1,0.9-0.4,1.3-0.8c0.4-0.4,0.7-1.1,1.1-2l1.3-3.3L149,108.3L149,108.3L149,108.3z M155.7,110.8l-1.2,3.2
	c-0.3,0.8-0.5,1.5-0.5,1.9c0,0.5,0.1,1,0.3,1.4s0.6,0.7,1.1,0.9c0.5,0.2,1,0.2,1.4,0.1c0.5-0.1,0.8-0.3,1.1-0.7
	c0.3-0.4,0.6-1.1,1-2.1l1.1-2.9L155.7,110.8L155.7,110.8z"/>
</svg>
