<?xml version="1.0" encoding="utf-8"?>
<!-- Generator: Adobe Illustrator 27.8.1, SVG Export Plug-In . SVG Version: 6.00 Build 0)  -->
<svg version="1.1" id="katman_1" xmlns="http://www.w3.org/2000/svg" xmlns:xlink="http://www.w3.org/1999/xlink" x="0px" y="0px"
	 viewBox="0 0 985.5 760.9" style="enable-background:new 0 0 985.5 760.9;" xml:space="preserve">
<style type="text/css">
	.st0{fill:#333333;}
	.st1{fill:#FFFFFF;}
	.st2{fill:#DDEAF1;}
	.st3{fill:#FBFCFE;}
	.st4{fill-rule:evenodd;clip-rule:evenodd;fill:#D71E16;}
	.st5{fill:#E20E17;}
	.st6{fill:#C1272D;}
	.st7{fill-rule:evenodd;clip-rule:evenodd;fill:#E20E17;}
	.st8{fill:#333132;}
	.st9{fill:#010101;}
	.st10{fill:#0C8236;}
	.st11{fill:#F1E519;}
	.st12{clip-path:url(#SVGID_00000169560089702057974700000004810028912086560152_);}
	.st13{fill:#C69C6D;}
	.st14{clip-path:url(#SVGID_00000098913674144112692270000012672865035434537908_);}
	.st15{clip-path:url(#SVGID_00000143618335063770541430000006591274260847936422_);}
	.st16{clip-path:url(#SVGID_00000169517286136620558570000008657833037317568679_);}
	.st17{clip-path:url(#SVGID_00000005245120277346157600000004141167893235376548_);}
	.st18{clip-path:url(#SVGID_00000168826173809342968300000017280299511170766776_);}
	.st19{clip-path:url(#SVGID_00000024719291444650537160000006702120810797891250_);}
	.st20{opacity:0.6;fill-rule:evenodd;clip-rule:evenodd;fill:#878787;enable-background:new    ;}
	.st21{fill:#878787;}
	.st22{opacity:0.17;}
	.st23{clip-path:url(#SVGID_00000170241133794486129950000005077880071265730222_);}
	.st24{clip-path:url(#SVGID_00000016070395410824598650000013414048259284790664_);}
	.st25{clip-path:url(#SVGID_00000109720693746461970500000001568816219355912378_);}
	.st26{clip-path:url(#SVGID_00000072267159308371868040000014588860026397294481_);}
	.st27{clip-path:url(#SVGID_00000024693556764116572010000001932464863324475291_);}
	.st28{clip-path:url(#SVGID_00000127043243849158037580000002740554057407691936_);}
	.st29{clip-path:url(#SVGID_00000159430734951128223540000013226829194547498423_);}
	.st30{opacity:0.2;}
	.st31{clip-path:url(#SVGID_00000121240329290440799400000017195332500082353320_);}
	.st32{fill:#B2B2B2;}
	.st33{fill:#C7C9D6;}
	.st34{fill:#FFFFFD;}
	.st35{fill:#EEF2FB;}
	.st36{opacity:0.15;fill:#616580;enable-background:new    ;}
	.st37{fill:#AFB5CF;}
	.st38{fill:#ABB1C7;}
	.st39{fill:#737B9F;}
	.st40{fill:none;}
	.st41{fill:#18191D;}
	.st42{fill:#1573BB;}
	.st43{fill:#E2CF1B;}
	.st44{fill:#877700;}
	.st45{fill:#48410D;}
	.st46{fill:#6C707B;}
	.st47{fill:#76809B;}
	.st48{opacity:0.1;fill:#616580;enable-background:new    ;}
	.st49{opacity:6.000000e-02;}
	.st50{fill:#A5C7D3;}
	.st51{fill:#FECF73;}
	.st52{fill:#F9A72D;}
	.st53{fill:#248FD1;}
	.st54{fill:#1555AC;}
	.st55{fill:url(#SVGID_00000043442624882064268070000016460167310135047833_);}
</style>
<g>
	<path class="st0" d="M106,655.9h-2.4v-17h12v2.1H106C106,640.9,106,655.9,106,655.9z M105.8,646.9h8.8v2.1h-8.8V646.9z"/>
	<path class="st0" d="M119.6,640.6c-0.4,0-0.8-0.1-1-0.4c-0.3-0.3-0.4-0.6-0.4-1s0.1-0.8,0.4-1c0.3-0.3,0.6-0.4,1-0.4s0.8,0.1,1,0.4
		c0.3,0.3,0.4,0.6,0.4,1s-0.1,0.8-0.4,1C120.4,640.5,120,640.6,119.6,640.6z M118.5,655.9V643h2.3v12.9H118.5z"/>
	<path class="st0" d="M125.2,655.9v-18.1h2.3v8.6l-0.2,3l0.2,3v3.5H125.2L125.2,655.9z M132.1,656c-1.1,0-2.1-0.2-3-0.7
		s-1.6-1.2-2.1-2.2s-0.8-2.2-0.8-3.7s0.3-2.7,0.8-3.7s1.2-1.7,2.1-2.2s1.9-0.7,2.9-0.7c1.3,0,2.4,0.3,3.4,0.8s1.7,1.3,2.3,2.3
		s0.9,2.1,0.9,3.4s-0.3,2.5-0.9,3.5c-0.6,1-1.3,1.8-2.3,2.3S133.4,656,132.1,656L132.1,656z M131.9,654c0.8,0,1.6-0.2,2.2-0.6
		s1.2-0.9,1.6-1.6c0.4-0.7,0.6-1.5,0.6-2.4s-0.2-1.7-0.6-2.4c-0.4-0.7-0.9-1.2-1.6-1.6s-1.4-0.6-2.2-0.6s-1.6,0.2-2.2,0.6
		c-0.7,0.4-1.2,0.9-1.6,1.6c-0.4,0.7-0.6,1.5-0.6,2.4s0.2,1.7,0.6,2.4c0.4,0.7,0.9,1.2,1.6,1.6S131.1,654,131.9,654z"/>
	<path class="st0" d="M147.6,656c-1.4,0-2.6-0.3-3.6-0.8c-1.1-0.6-1.9-1.3-2.4-2.3c-0.6-1-0.9-2.1-0.9-3.4s0.3-2.4,0.8-3.4
		s1.3-1.8,2.3-2.3c1-0.6,2.1-0.8,3.3-0.8s2.4,0.3,3.3,0.8s1.7,1.3,2.2,2.3s0.8,2.2,0.8,3.5c0,0.1,0,0.2,0,0.3s0,0.2,0,0.4h-11v-1.7
		h9.8l-0.9,0.6c0-0.8-0.2-1.6-0.5-2.2c-0.4-0.7-0.9-1.2-1.5-1.5c-0.6-0.4-1.4-0.5-2.2-0.5s-1.5,0.2-2.2,0.5
		c-0.6,0.4-1.1,0.9-1.5,1.5c-0.4,0.7-0.5,1.4-0.5,2.2v0.4c0,0.9,0.2,1.6,0.6,2.3s0.9,1.2,1.7,1.6s1.5,0.6,2.5,0.6
		c0.8,0,1.5-0.1,2.1-0.4c0.6-0.3,1.2-0.7,1.6-1.2l1.3,1.5c-0.6,0.7-1.3,1.2-2.2,1.6C149.6,655.8,148.6,656,147.6,656L147.6,656z"/>
	<path class="st0" d="M156.7,655.9V643h2.2v3.5l-0.2-0.9c0.4-0.9,1-1.6,1.8-2s1.9-0.7,3.1-0.7v2.3c-0.1,0-0.2,0-0.3,0h-0.2
		c-1.2,0-2.2,0.4-3,1.1c-0.7,0.8-1.1,1.8-1.1,3.2v6.4L156.7,655.9L156.7,655.9z"/>
	<path class="st0" d="M181.3,656c-1.3,0-2.5-0.2-3.6-0.7s-2.1-1-2.9-1.8s-1.4-1.7-1.9-2.8s-0.7-2.2-0.7-3.5s0.2-2.4,0.7-3.5
		s1.1-2,1.9-2.8c0.8-0.8,1.8-1.4,2.9-1.8c1.1-0.4,2.3-0.7,3.6-0.7s2.5,0.2,3.6,0.6c1.1,0.4,2.1,1,2.9,1.8c0.8,0.8,1.4,1.7,1.9,2.8
		s0.7,2.2,0.7,3.5s-0.2,2.4-0.7,3.5s-1.1,2-1.9,2.8s-1.8,1.4-2.9,1.8S182.6,656,181.3,656L181.3,656z M181.3,653.9
		c0.9,0,1.8-0.2,2.6-0.5s1.5-0.8,2.1-1.4c0.6-0.6,1.1-1.3,1.4-2.1c0.3-0.8,0.5-1.7,0.5-2.6s-0.2-1.8-0.5-2.6s-0.8-1.5-1.4-2.1
		s-1.3-1-2.1-1.4c-0.8-0.3-1.7-0.5-2.6-0.5s-1.8,0.2-2.6,0.5s-1.5,0.8-2.1,1.4c-0.6,0.6-1.1,1.3-1.4,2.1c-0.3,0.8-0.5,1.7-0.5,2.6
		s0.2,1.8,0.5,2.6s0.8,1.5,1.4,2.1c0.6,0.6,1.3,1,2.1,1.4C179.5,653.7,180.3,653.9,181.3,653.9z"/>
	<path class="st0" d="M193.7,660.6V643h2.2v3.5l-0.1,3l0.2,3v8.2L193.7,660.6L193.7,660.6z M200.5,656c-1.1,0-2.1-0.2-2.9-0.7
		c-0.9-0.5-1.6-1.2-2.1-2.2s-0.8-2.2-0.8-3.7s0.2-2.7,0.8-3.7c0.5-1,1.2-1.7,2.1-2.2c0.9-0.5,1.9-0.7,3-0.7c1.3,0,2.4,0.3,3.4,0.8
		s1.7,1.3,2.3,2.3s0.9,2.1,0.9,3.4s-0.3,2.5-0.9,3.5c-0.6,1-1.3,1.8-2.3,2.3S201.8,656,200.5,656L200.5,656z M200.3,654
		c0.8,0,1.6-0.2,2.2-0.6s1.2-0.9,1.6-1.6s0.6-1.5,0.6-2.4s-0.2-1.7-0.6-2.4c-0.4-0.7-0.9-1.2-1.6-1.6s-1.4-0.6-2.2-0.6
		s-1.6,0.2-2.2,0.6c-0.7,0.4-1.2,0.9-1.6,1.6s-0.6,1.5-0.6,2.4s0.2,1.7,0.6,2.4s0.9,1.2,1.6,1.6S199.5,654,200.3,654z"/>
	<path class="st0" d="M208.4,644.9V643h8.2v1.9H208.4z M214.7,656c-1.3,0-2.3-0.3-3-1s-1.1-1.7-1.1-3v-11.8h2.3v11.7
		c0,0.7,0.2,1.2,0.5,1.6s0.9,0.6,1.5,0.6c0.7,0,1.3-0.2,1.8-0.6l0.7,1.7c-0.4,0.3-0.8,0.5-1.3,0.7C215.8,655.9,215.3,656,214.7,656
		L214.7,656z"/>
	<path class="st0" d="M221.5,640.6c-0.4,0-0.8-0.1-1-0.4c-0.3-0.3-0.4-0.6-0.4-1s0.1-0.8,0.4-1c0.3-0.3,0.6-0.4,1-0.4s0.8,0.1,1,0.4
		c0.3,0.3,0.4,0.6,0.4,1s-0.1,0.8-0.4,1C222.3,640.5,221.9,640.6,221.5,640.6z M220.4,655.9V643h2.3v12.9H220.4z"/>
	<path class="st0" d="M227.2,655.9v-18.1h2.3v18.1H227.2z M229.1,652.7l0.1-3l7.4-6.8h2.8l-5.7,5.6l-1.3,1.1L229.1,652.7
		L229.1,652.7z M237,655.9l-5.1-6.3l1.5-1.9l6.4,8.2H237z"/>
	<path class="st0" d="M249.1,655.9v-17h2.4v17H249.1z M251.2,651.8l-0.1-3l9.7-10h2.8l-7.5,7.9l-1.4,1.5L251.2,651.8L251.2,651.8z
		 M261.1,655.9l-7-8.1l1.6-1.8l8.2,9.9L261.1,655.9L261.1,655.9z"/>
	<path class="st0" d="M269.7,656c-1,0-1.8-0.2-2.5-0.5s-1.3-0.8-1.7-1.3c-0.4-0.6-0.6-1.2-0.6-2s0.2-1.3,0.5-1.9
		c0.3-0.6,0.9-1,1.6-1.4c0.8-0.3,1.8-0.5,3-0.5h4.1v1.7h-4c-1.2,0-2,0.2-2.4,0.6c-0.4,0.4-0.6,0.9-0.6,1.4c0,0.6,0.2,1.1,0.8,1.5
		s1.2,0.6,2.1,0.6s1.6-0.2,2.3-0.6s1.1-1,1.4-1.7l0.5,1.6c-0.3,0.8-0.9,1.4-1.6,1.8C271.8,655.8,270.8,656,269.7,656L269.7,656z
		 M273.9,655.8v-2.7l-0.1-0.5V648c0-1-0.3-1.8-0.9-2.3s-1.4-0.8-2.6-0.8c-0.8,0-1.5,0.1-2.2,0.4c-0.7,0.2-1.4,0.6-1.9,1l-1-1.8
		c0.7-0.5,1.5-1,2.4-1.2c0.9-0.3,1.9-0.4,2.9-0.4c1.8,0,3.1,0.4,4.1,1.3c1,0.9,1.4,2.2,1.4,3.9v7.8L273.9,655.8L273.9,655.8z"/>
	<path class="st0" d="M280.4,655.9v-18.1h2.3v8.6l-0.2,3l0.2,3v3.5H280.4L280.4,655.9z M287.3,656c-1.1,0-2.1-0.2-3-0.7
		s-1.6-1.2-2.1-2.2s-0.8-2.2-0.8-3.7s0.3-2.7,0.8-3.7s1.2-1.7,2.1-2.2s1.9-0.7,2.9-0.7c1.3,0,2.4,0.3,3.4,0.8s1.7,1.3,2.3,2.3
		s0.9,2.1,0.9,3.4s-0.3,2.5-0.9,3.5s-1.3,1.8-2.3,2.3S288.5,656,287.3,656L287.3,656z M287.1,654c0.8,0,1.6-0.2,2.2-0.6
		c0.7-0.4,1.2-0.9,1.6-1.6s0.6-1.5,0.6-2.4s-0.2-1.7-0.6-2.4s-0.9-1.2-1.6-1.6c-0.7-0.4-1.4-0.6-2.2-0.6s-1.6,0.2-2.2,0.6
		c-0.7,0.4-1.2,0.9-1.6,1.6s-0.6,1.5-0.6,2.4s0.2,1.7,0.6,2.4s0.9,1.2,1.6,1.6C285.5,653.8,286.3,654,287.1,654z"/>
	<path class="st0" d="M297,655.9v-18.1h2.3v18.1H297z"/>
	<path class="st0" d="M309.4,656c-1.3,0-2.5-0.3-3.5-0.8c-1-0.6-1.8-1.3-2.4-2.3s-0.9-2.1-0.9-3.4s0.3-2.4,0.9-3.4s1.4-1.8,2.4-2.3
		s2.2-0.8,3.5-0.8s2.4,0.3,3.4,0.8s1.8,1.3,2.4,2.3s0.9,2.1,0.9,3.4s-0.3,2.4-0.9,3.4s-1.4,1.8-2.4,2.3S310.6,656,309.4,656
		L309.4,656z M309.4,654c0.8,0,1.6-0.2,2.2-0.6s1.2-0.9,1.5-1.6s0.6-1.5,0.6-2.4s-0.2-1.7-0.6-2.4s-0.9-1.2-1.5-1.6
		c-0.7-0.4-1.4-0.6-2.2-0.6s-1.6,0.2-2.2,0.6c-0.6,0.4-1.2,0.9-1.6,1.6c-0.4,0.7-0.6,1.5-0.6,2.4s0.2,1.7,0.6,2.4s0.9,1.2,1.6,1.6
		C307.8,653.8,308.5,654,309.4,654z"/>
</g>
<g>
	<g>
		<path class="st1" d="M783.8,286.3c-135.5,2.3-613.2-7.9-739.1,11.4h930.4C918,293.3,841,285.5,783.8,286.3z"/>
		<g>
			<path class="st2" d="M985.4,377.2c-1,7.5-7.4,13.4-15.2,13.4H46.5c-8.5,0-15.3-6.9-15.3-15.3c-0.5-2.7-0.6-68.9,1.4-68.7
				c-0.1,0.6-0.1,1.3-0.1,2v62.3c0,8.5,6.8,15.3,15.3,15.3h923.7C977.6,386.2,983,382.5,985.4,377.2L985.4,377.2z"/>
			<path class="st3" d="M985.5,313v62.3c-0.4,6.5-7.7,10.8-14,10.9H47.8c-8.5,0-15.3-6.9-15.3-15.3v-62.3c0.4-6.5,7.7-10.8,14-10.9
				h923.6C978.6,297.7,985.5,304.6,985.5,313L985.5,313z"/>
			<g>
				<path class="st4" d="M122.4,328.7l-12.5,18.1l12.4,17.9c0.3,0.6,4.1,1.8,3.9,3.3h-12.5c0,0-0.6-1.4,2.9-2.5l-9.8-14.1l-9.7,14
					c0.1,0,0.3,0.1,0.4,0.1c3.3,1,2.7,2.5,2.7,2.5H88.3c0-2.1,3.1-2.1,4-3.7l21.9-32C115.5,329.2,120,326.4,122.4,328.7 M91.1,328.7
					l11.8,17.1l3-4.5L98,330C94.9,325.2,91.1,328.7,91.1,328.7z"/>
				<path class="st5" d="M107.7,331.9c1.2,0.1,0-26.5,0.4-26.9c0-0.1-0.1-0.4-0.4-0.4c-1.2-0.1,0,26.5-0.4,26.9
					C107.3,331.7,107.6,331.9,107.7,331.9z"/>
				<path class="st5" d="M107.7,383.9c0.3,0,0.4-0.1,0.4-0.3c-0.4-0.3,0.8-21.6-0.4-21.3c-1.2-0.3-0.1,21-0.4,21.3
					C107.3,383.7,107.6,383.9,107.7,383.9z"/>
			</g>
			<rect x="206.8" y="385.7" class="st6" width="601.9" height="4.9"/>
			<path class="st5" d="M793.1,318.7l-3.7,3.5l14.8,21.4l-10.5,15.3c-5.8,1.1-6.1,8.9-6.7,13.6h21.7v13.3h-602v-88h601.9v21.7
				C803.9,313.5,795.9,315.8,793.1,318.7L793.1,318.7z"/>
			<g>
				<path class="st7" d="M887.5,353.5c-0.2-1.3,0.6-4.8-0.6-5.7c-0.6-0.4-1.8,0.3-1.9-0.6c0-0.4-0.1-1,0.5-1
					c0.2,0.2,10.1-0.5,9.5,0.5c0.3,1.2-1,0.9-1.7,1.3c-0.5,0.4-0.7,1.2-0.6,1.9v4.3c-2,2-5.5,2.2-8.2,2.4
					c-19.4-1.4-11.2-29.1,6.5-20.9c0.3-0.3,0.3-1.3,1-1.3c0.4,0,1-0.1,1,0.5c-0.2,0.3,0.5,8-0.5,7.6c-2,0-1.6-6-7.1-6
					C876.2,336.6,877.9,359.1,887.5,353.5L887.5,353.5z"/>
				<path class="st7" d="M868.7,336.9c-10.1-9.8-23.5,4.8-15.7,15.2C863,364,878.5,347.5,868.7,336.9z M864.9,350.5
					c-0.5,3.3-4.8,4.9-6.7,1.9c-2.6-4-2.8-19.7,5.1-15.7C866.5,340.1,865.6,346.3,864.9,350.5L864.9,350.5z"/>
				<path class="st7" d="M838.9,353.4c9.7,1.9,6.2-7,9.5-5.5c0.5-0.2-0.6,7.5-0.5,7.6c0,0.3-0.3,0.5-0.5,0.5h-16.6
					c-0.6,0-0.5-0.6-0.5-1c0.2-1.1,2.3,0.1,2.5-1.3c0.3-0.4,0.1-14.3,0.2-15.2c0.1-1.7-0.3-2.6-2.2-2.4c-0.7,0.1-0.7-1.5,0-1.4h10
					c0.6,0,0.5,0.6,0.5,1c-0.2,1.1-2.4-0.2-2.7,1.3c-0.3,2.5-0.3,14,0,16.5C838.7,353.2,838.7,353.4,838.9,353.4L838.9,353.4z"/>
				<path class="st7" d="M831.2,322.6l-14.1,20.3l14,20c0.3,0.7,4.5,1.9,4.3,3.6h-13.8c0,0-0.8-1.6,3.2-2.9l-10.9-15.9L803,363.4
					c3.3,0.7,3.9,2.8,3.5,3H793c0-2.3,3.3-2.3,4.4-4.1l24.6-35.8C823.3,323.2,828.7,320,831.2,322.6 M796.2,322.7l13.3,19.2l3.5-5.1
					C809.3,332.9,802.5,316.3,796.2,322.7z"/>
				<path class="st5" d="M814.1,327.1c-0.3,0-0.5-0.2-0.5-0.5v-22c0-0.3,0.2-0.5,0.5-0.5s0.5,0.2,0.5,0.5v22
					C814.6,326.9,814.4,327.1,814.1,327.1z"/>
				<path class="st5" d="M814.1,390.5c-1.4,0.1,0-29.8-0.5-30.3c0-0.3,0.2-0.5,0.5-0.5c1.4-0.1,0,29.8,0.5,30.3
					C814.6,390.3,814.4,390.5,814.1,390.5z"/>
			</g>
			<g>
				<path class="st1" d="M242.7,372c-1.5-0.3-6.1,1-6.1-1.7c0.3-1.5-1-6.1,1.7-6c1.5,0.3,6.1-1,6.1,1.7
					C244.1,367.4,245.4,372.1,242.7,372z"/>
				<path class="st1" d="M242.7,361.7c-1.5-0.3-6.1,1-6.1-1.7c0.3-1.5-1-6.1,1.7-6c1.5,0.3,6.1-1,6.1,1.7
					C244.1,357.2,245.4,361.8,242.7,361.7z"/>
				<path class="st1" d="M253.2,351.8c-1.9-0.2-6.6,1-6.6-2.2c0.2-1.9-1-6.6,2.2-6.5c1.9,0.2,6.6-1,6.6,2.2
					C255.1,347.1,256.3,351.9,253.2,351.8z M248.8,344.1c-2.1-0.1-0.9,4.5-1.2,5.6c-0.1,2.1,4.5,0.9,5.6,1.2
					c2.1,0.1,0.9-4.5,1.2-5.6C254.5,343.2,249.9,344.4,248.8,344.1z"/>
				<path class="st1" d="M232.1,351.1c-1.5-0.3-6.1,1-6.1-1.7c0.3-1.5-1-6.1,1.7-6c1.5,0.3,6.1-1,6.1,1.7
					C233.5,346.6,234.8,351.2,232.1,351.1z"/>
				<path class="st1" d="M232.1,341c-1.9-0.2-6.6,1-6.6-2.2c0.2-1.9-1-6.6,2.2-6.5c1.9,0.2,6.6-1,6.6,2.2
					C234.1,336.3,235.3,341.1,232.1,341z M227.8,333.3c-2.1-0.1-0.9,4.5-1.2,5.6c-0.1,2.1,4.5,0.9,5.6,1.2c2.1,0.1,0.9-4.5,1.2-5.6
					C233.4,332.4,228.8,333.5,227.8,333.3z"/>
				<path class="st1" d="M221.5,329.9c-1.5-0.3-6.1,1-6.1-1.7c0.3-1.5-1-6.1,1.7-6c1.5,0.3,6.1-1,6.1,1.7
					C222.9,325.3,224.2,330,221.5,329.9z"/>
				<path class="st1" d="M232.1,319.3c-1.5-0.3-6.1,1-6.1-1.7c0.3-1.5-1-6.1,1.7-6c1.5,0.3,6.1-1,6.1,1.7
					C233.5,314.7,234.8,319.4,232.1,319.3z"/>
				<path class="st1" d="M232.1,362.2c-1.9-0.2-6.6,1-6.6-2.2c0.2-1.9-1-6.6,2.2-6.5c1.9,0.2,6.6-1,6.6,2.2
					C234.1,357.5,235.3,362.3,232.1,362.2z M227.8,354.5c-2.1-0.1-0.9,4.5-1.2,5.6c-0.1,2.1,4.5,0.9,5.6,1.2
					c2.1,0.1,0.9-4.5,1.2-5.6C233.4,353.6,228.8,354.8,227.8,354.5z"/>
				<path class="st1" d="M232.1,372.4c-1.5-0.3-6.1,1-6.1-1.7c0.3-1.5-1-6.1,1.7-6c1.5,0.3,6.1-1,6.1,1.7
					C233.5,367.8,234.8,372.4,232.1,372.4z"/>
				<path class="st5" d="M192.9,372c-1.5-0.3-6.1,1-6.1-1.7c0.3-1.5-1-6.1,1.7-6c1.5,0.3,6.1-1,6.1,1.7
					C194.3,367.4,195.5,372.1,192.9,372z"/>
				<path class="st5" d="M202.9,361.7c-1.5-0.3-6.1,1-6.1-1.7c0.3-1.5-1-6.1,1.7-6c1.5,0.3,6.1-1,6.1,1.7
					C204.3,357.2,205.5,361.8,202.9,361.7z"/>
				<path class="st5" d="M203.3,351.3c-1.5-0.3-6.1,1-6.1-1.7c0.3-1.5-1-6.1,1.7-6c1.5,0.3,6.1-1,6.1,1.7
					C204.7,346.7,206,351.4,203.3,351.3z"/>
				<path class="st5" d="M203.3,341.4c-1.9-0.2-6.6,1-6.6-2.2c0.2-1.9-1-6.6,2.2-6.5c1.9,0.2,6.6-1,6.6,2.2
					C205.3,336.7,206.5,341.5,203.3,341.4z M198.9,333.6c-2.1-0.1-0.9,4.5-1.2,5.6c-0.1,2.1,4.5,0.9,5.6,1.2
					c2.1,0.1,0.9-4.5,1.2-5.6C204.6,332.8,200,333.9,198.9,333.6z"/>
				<path class="st5" d="M203.3,330.5c-1.5-0.3-6.1,1-6.1-1.7c0.3-1.5-1-6.1,1.7-6c1.5,0.3,6.1-1,6.1,1.7
					C204.7,325.9,206,330.5,203.3,330.5z"/>
				<path class="st5" d="M172.9,341.8c-1.5-0.3-6.1,1-6.1-1.7c0.3-1.5-1-6.1,1.7-6c1.5,0.3,6.1-1,6.1,1.7
					C174.4,337.2,175.6,341.9,172.9,341.8z"/>
				<path class="st5" d="M192.8,351.2c-1.5-0.3-6.1,1-6.1-1.7c0.3-1.5-1-6.1,1.7-6c1.5,0.3,6.1-1,6.1,1.7
					C194.2,346.6,195.4,351.3,192.8,351.2z"/>
				<path class="st5" d="M182.3,372.4c-1.5-0.3-6.1,1-6.1-1.7c0.3-1.5-1-6.1,1.7-6c1.5,0.3,6.1-1,6.1,1.7
					C183.7,367.8,184.9,372.4,182.3,372.4z"/>
			</g>
			<path class="st8" d="M313,368.2c0.1,10-15.6,10-15.4,0C297.5,358.2,313.2,358.2,313,368.2z"/>
			<path class="st8" d="M418.7,368.9c-0.7,5.1-8.7,3.8-7.8-1.2C411.6,362.5,419.6,363.8,418.7,368.9z"/>
			<path class="st8" d="M418.7,358.2c-0.7,5.1-8.7,3.8-7.8-1.2C411.6,351.9,419.6,353.2,418.7,358.2z"/>
			<path class="st1" d="M353,377.4c-41.3-2.3-35,11.2-35.2-28.8c0-1.7,1.4-3,3-3c41.3,2.3,35-11.2,35.2,28.8
				C356,376,354.7,377.4,353,377.4z"/>
			<path class="st1" d="M362.2,335.6h36.9c1.7,0,3,1.4,3,3v35.7c0,1.7-1.4,3-3,3h-36.9c-1.7,0-3-1.4-3-3v-35.7
				C359.2,336.9,360.5,335.6,362.2,335.6z"/>
			<path class="st1" d="M466.2,345.6c-41.3,2.3-35-11.2-35.2,28.8c0,1.7,1.4,3,3,3c41.3-2.3,35,11.2,35.2-28.8
				C469.3,346.9,467.9,345.6,466.2,345.6z"/>
			<path class="st9" d="M395.6,370.5c-1-0.8-32.7,1.8-31.4-1.5c0.5-1.4-1.3-10.6,1.5-10.3h29.9c2.9-0.3,1.1,9,1.5,10.3
				C397.1,369.8,396.5,370.5,395.6,370.5L395.6,370.5z"/>
			<path class="st9" d="M395.6,353.5c-1-0.8-32.7,1.8-31.4-1.5c0.5-1.4-1.3-10.6,1.5-10.3h29.9c2.9-0.3,1.1,9,1.5,10.3
				C397.1,352.8,396.5,353.5,395.6,353.5L395.6,353.5z"/>
			<path class="st10" d="M467.8,350.2c-0.5,3.6-6.1,2.7-5.5-0.9C462.8,345.8,468.4,346.6,467.8,350.2z"/>
			<path class="st11" d="M438,350.2c-0.5,3.6-6.1,2.7-5.5-0.9C433,345.8,438.6,346.6,438,350.2z"/>
			<path class="st1" d="M514.5,345.6c-41.3,2.3-35-11.2-35.2,28.8c0,1.7,1.4,3,3,3c41.3-2.3,34.9,11.2,35.2-28.8
				C517.6,346.9,516.2,345.6,514.5,345.6L514.5,345.6z"/>
			<path class="st10" d="M516.1,350.2c-0.5,3.6-6.1,2.7-5.5-0.9C511.1,345.8,516.7,346.6,516.1,350.2z"/>
			<path class="st11" d="M486.3,350.2c-0.5,3.6-6.1,2.7-5.5-0.9C481.3,345.8,486.9,346.6,486.3,350.2z"/>
			<path class="st1" d="M562.9,345.6c-41.3,2.3-35-11.2-35.2,28.8c0,1.7,1.3,3,3,3c41.3-2.3,35,11.2,35.2-28.8
				C565.9,346.9,564.6,345.6,562.9,345.6z"/>
			<path class="st10" d="M564.4,350.2c-0.5,3.6-6.2,2.7-5.5-0.9C559.4,345.8,565,346.6,564.4,350.2z"/>
			<path class="st11" d="M534.6,350.2c-0.5,3.6-6.2,2.7-5.5-0.9C529.6,345.8,535.2,346.6,534.6,350.2z"/>
			<path class="st1" d="M611.2,345.6c-41.3,2.3-35-11.2-35.2,28.8c0,1.7,1.3,3,3,3c41.3-2.3,35,11.2,35.2-28.8
				C614.2,346.9,612.9,345.6,611.2,345.6z"/>
			<path class="st10" d="M612.7,350.2c-0.5,3.6-6.2,2.7-5.5-0.9C607.7,345.8,613.3,346.6,612.7,350.2z"/>
			<path class="st11" d="M582.9,350.2c-0.5,3.6-6.2,2.7-5.5-0.9C577.9,345.8,583.5,346.6,582.9,350.2z"/>
			<path class="st1" d="M659.5,345.6c-41.3,2.3-35-11.2-35.2,28.8c0,1.7,1.3,3,3,3c41.3-2.3,35,11.2,35.2-28.8
				C662.5,346.9,661.2,345.6,659.5,345.6z"/>
			<path class="st10" d="M661,350.2c-0.5,3.6-6.2,2.7-5.5-0.9C656,345.8,661.7,346.6,661,350.2z"/>
			<path class="st11" d="M631.2,350.2c-0.5,3.6-6.2,2.7-5.5-0.9C626.2,345.8,631.9,346.6,631.2,350.2z"/>
			<path class="st1" d="M707.8,345.6c-41.3,2.3-35-11.2-35.2,28.8c0,1.7,1.3,3,3,3c41.3-2.3,35,11.2,35.2-28.8
				C710.8,346.9,709.5,345.6,707.8,345.6z"/>
			<g>
				<path class="st9" d="M702,373.1c-2.3,0-14.5,0-17,0c-1.3-0.2-5.1,0.8-5.1-1.5V355c0-1.9,2.4-1.4,3.6-1.5
					c-0.3-1.6,0.7-2.5,2.3-2.3c-0.1-1.1,0-2.6,1.5-2.6h8.8c1.4,0,1.6,1.5,1.5,2.6c1.6-0.2,2.6,0.7,2.3,2.3c1.2,0,3.6-0.4,3.6,1.5
					v16.7C703.5,372.5,702.8,373.1,702,373.1L702,373.1z"/>
				<g>
					<g>
						<defs>
							<path id="SVGID_1_" d="M702,373.1c-2.3,0-14.5,0-17,0c-1.3-0.2-5.1,0.8-5.1-1.5V355c0-1.9,2.4-1.4,3.6-1.5
								c-0.3-1.6,0.7-2.5,2.3-2.3c-0.1-1.1,0-2.6,1.5-2.6h8.8c1.4,0,1.6,1.5,1.5,2.6c1.6-0.2,2.6,0.7,2.3,2.3c1.2,0,3.6-0.4,3.6,1.5
								v16.7C703.5,372.5,702.8,373.1,702,373.1L702,373.1z"/>
						</defs>
						<clipPath id="SVGID_00000142147608831168071190000011514185545944695695_">
							<use xlink:href="#SVGID_1_"  style="overflow:visible;"/>
						</clipPath>
						<g style="clip-path:url(#SVGID_00000142147608831168071190000011514185545944695695_);">
							<g>
								<path class="st13" d="M686.2,374.5c-1,0.4-0.3-7.4-0.5-7.7c0-0.3,0.2-0.5,0.5-0.5c1-0.4,0.3,7.4,0.5,7.7
									C686.7,374.3,686.5,374.5,686.2,374.5z"/>
								<path class="st13" d="M691.2,374.5c-1,0.4-0.3-7.4-0.5-7.7c0-0.3,0.2-0.5,0.5-0.5c1-0.4,0.3,7.4,0.5,7.7
									C691.7,374.3,691.5,374.5,691.2,374.5z"/>
								<path class="st13" d="M696.2,374.5c-1,0.4-0.3-7.4-0.5-7.7c0-0.3,0.2-0.5,0.5-0.5c1-0.4,0.3,7.4,0.5,7.7
									C696.7,374.3,696.5,374.5,696.2,374.5z"/>
							</g>
						</g>
					</g>
				</g>
			</g>
			<g>
				<path class="st9" d="M653.7,373.1c-2.3,0-14.5,0-17,0c-1.3-0.2-5.1,0.8-5.1-1.5V355c0-1.9,2.4-1.4,3.6-1.5
					c-0.3-1.6,0.7-2.5,2.3-2.3c-0.1-1.1,0-2.6,1.5-2.6h8.8c1.4,0,1.6,1.5,1.5,2.6c1.6-0.2,2.6,0.7,2.3,2.3c1.2,0,3.6-0.4,3.6,1.5
					v16.7C655.2,372.5,654.5,373.1,653.7,373.1L653.7,373.1z"/>
				<g>
					<g>
						<defs>
							<path id="SVGID_00000036210424425856748630000000939895290375462820_" d="M653.7,373.1c-2.3,0-14.5,0-17,0
								c-1.3-0.2-5.1,0.8-5.1-1.5V355c0-1.9,2.4-1.4,3.6-1.5c-0.3-1.6,0.7-2.5,2.3-2.3c-0.1-1.1,0-2.6,1.5-2.6h8.8
								c1.4,0,1.6,1.5,1.5,2.6c1.6-0.2,2.6,0.7,2.3,2.3c1.2,0,3.6-0.4,3.6,1.5v16.7C655.2,372.5,654.5,373.1,653.7,373.1
								L653.7,373.1z"/>
						</defs>
						<clipPath id="SVGID_00000116228386802753283230000002797958165773546677_">
							<use xlink:href="#SVGID_00000036210424425856748630000000939895290375462820_"  style="overflow:visible;"/>
						</clipPath>
						<g style="clip-path:url(#SVGID_00000116228386802753283230000002797958165773546677_);">
							<g>
								<path class="st13" d="M637.9,374.5c-1,0.4-0.3-7.4-0.5-7.7c0-0.3,0.2-0.5,0.5-0.5c1-0.4,0.3,7.4,0.5,7.7
									C638.4,374.3,638.2,374.5,637.9,374.5z"/>
								<path class="st13" d="M642.9,374.5c-1,0.4-0.3-7.4-0.5-7.7c0-0.3,0.2-0.5,0.5-0.5c1-0.4,0.3,7.4,0.5,7.7
									C643.4,374.3,643.2,374.5,642.9,374.5z"/>
								<path class="st13" d="M647.9,374.5c-1,0.4-0.3-7.4-0.5-7.7c0-0.3,0.2-0.5,0.5-0.5c1-0.4,0.3,7.4,0.5,7.7
									C648.4,374.3,648.2,374.5,647.9,374.5z"/>
							</g>
						</g>
					</g>
				</g>
			</g>
			<g>
				<path class="st9" d="M605.4,373.1c-2.3,0-14.5,0-17,0c-1.3-0.2-5.1,0.8-5.1-1.5V355c0-1.9,2.4-1.4,3.6-1.5
					c-0.3-1.6,0.7-2.5,2.3-2.3c-0.1-1.1,0-2.6,1.5-2.6h8.8c1.4,0,1.6,1.5,1.5,2.6c1.6-0.2,2.6,0.7,2.3,2.3c1.2,0,3.6-0.4,3.6,1.5
					v16.7C606.9,372.5,606.2,373.1,605.4,373.1L605.4,373.1z"/>
				<g>
					<g>
						<defs>
							<path id="SVGID_00000095326425516849256670000017787111141877480351_" d="M605.4,373.1c-2.3,0-14.5,0-17,0
								c-1.3-0.2-5.1,0.8-5.1-1.5V355c0-1.9,2.4-1.4,3.6-1.5c-0.3-1.6,0.7-2.5,2.3-2.3c-0.1-1.1,0-2.6,1.5-2.6h8.8
								c1.4,0,1.6,1.5,1.5,2.6c1.6-0.2,2.6,0.7,2.3,2.3c1.2,0,3.6-0.4,3.6,1.5v16.7C606.9,372.5,606.2,373.1,605.4,373.1
								L605.4,373.1z"/>
						</defs>
						<clipPath id="SVGID_00000181078167955451916180000009667093591408559778_">
							<use xlink:href="#SVGID_00000095326425516849256670000017787111141877480351_"  style="overflow:visible;"/>
						</clipPath>
						<g style="clip-path:url(#SVGID_00000181078167955451916180000009667093591408559778_);">
							<g>
								<path class="st13" d="M589.6,374.5c-1,0.4-0.3-7.4-0.5-7.7c0-0.3,0.2-0.5,0.5-0.5c1-0.4,0.3,7.4,0.5,7.7
									C590.1,374.3,589.9,374.5,589.6,374.5z"/>
								<path class="st13" d="M594.6,374.5c-1,0.4-0.3-7.4-0.5-7.7c0-0.3,0.2-0.5,0.5-0.5c1-0.4,0.3,7.4,0.5,7.7
									C595.1,374.3,594.9,374.5,594.6,374.5z"/>
								<path class="st13" d="M599.6,374.5c-1,0.4-0.3-7.4-0.5-7.7c0-0.3,0.2-0.5,0.5-0.5c1-0.4,0.3,7.4,0.5,7.7
									C600.1,374.3,599.9,374.5,599.6,374.5z"/>
							</g>
						</g>
					</g>
				</g>
			</g>
			<g>
				<path class="st9" d="M557.1,373.1c-2.3,0-14.5,0-17,0c-1.3-0.2-5.1,0.8-5.1-1.5V355c0-1.9,2.4-1.4,3.6-1.5
					c-0.3-1.6,0.7-2.5,2.3-2.3c-0.1-1.1,0-2.6,1.5-2.6h8.8c1.4,0,1.6,1.5,1.5,2.6c1.6-0.2,2.6,0.7,2.3,2.3c1.2,0,3.6-0.4,3.6,1.5
					v16.7C558.6,372.5,557.9,373.1,557.1,373.1L557.1,373.1z"/>
				<g>
					<g>
						<defs>
							<path id="SVGID_00000103956733655307931490000013564375134736551328_" d="M557.1,373.1c-2.3,0-14.5,0-17,0
								c-1.3-0.2-5.1,0.8-5.1-1.5V355c0-1.9,2.4-1.4,3.6-1.5c-0.3-1.6,0.7-2.5,2.3-2.3c-0.1-1.1,0-2.6,1.5-2.6h8.8
								c1.4,0,1.6,1.5,1.5,2.6c1.6-0.2,2.6,0.7,2.3,2.3c1.2,0,3.6-0.4,3.6,1.5v16.7C558.6,372.5,557.9,373.1,557.1,373.1
								L557.1,373.1z"/>
						</defs>
						<clipPath id="SVGID_00000157285666359249974010000006253503330696445884_">
							<use xlink:href="#SVGID_00000103956733655307931490000013564375134736551328_"  style="overflow:visible;"/>
						</clipPath>
						<g style="clip-path:url(#SVGID_00000157285666359249974010000006253503330696445884_);">
							<g>
								<path class="st13" d="M541.3,374.5c-1,0.4-0.3-7.4-0.5-7.7c0-0.3,0.2-0.5,0.5-0.5c1-0.4,0.3,7.4,0.5,7.7
									C541.8,374.3,541.6,374.5,541.3,374.5z"/>
								<path class="st13" d="M546.3,374.5c-1,0.4-0.3-7.4-0.5-7.7c0-0.3,0.2-0.5,0.5-0.5c1-0.4,0.3,7.4,0.5,7.7
									C546.8,374.3,546.6,374.5,546.3,374.5z"/>
								<path class="st13" d="M551.3,374.5c-1,0.4-0.3-7.4-0.5-7.7c0-0.3,0.2-0.5,0.5-0.5c1-0.4,0.3,7.4,0.5,7.7
									C551.8,374.3,551.6,374.5,551.3,374.5z"/>
							</g>
						</g>
					</g>
				</g>
			</g>
			<g>
				<path class="st9" d="M508.8,373.1c-2.3,0-14.5,0-17,0c-1.3-0.2-5.1,0.8-5.1-1.5V355c0-1.9,2.4-1.4,3.6-1.5
					c-0.3-1.6,0.7-2.5,2.3-2.3c-0.1-1.1,0-2.6,1.5-2.6h8.8c1.4,0,1.6,1.5,1.5,2.6c1.6-0.2,2.6,0.7,2.3,2.3c1.2,0,3.6-0.4,3.6,1.5
					v16.7C510.2,372.5,509.6,373.1,508.8,373.1L508.8,373.1z"/>
				<g>
					<g>
						<defs>
							<path id="SVGID_00000013174319752371879560000012932888882983361428_" d="M508.8,373.1c-2.3,0-14.5,0-17,0
								c-1.3-0.2-5.1,0.8-5.1-1.5V355c0-1.9,2.4-1.4,3.6-1.5c-0.3-1.6,0.7-2.5,2.3-2.3c-0.1-1.1,0-2.6,1.5-2.6h8.8
								c1.4,0,1.6,1.5,1.5,2.6c1.6-0.2,2.6,0.7,2.3,2.3c1.2,0,3.6-0.4,3.6,1.5v16.7C510.2,372.5,509.6,373.1,508.8,373.1
								L508.8,373.1z"/>
						</defs>
						<clipPath id="SVGID_00000016076967124604249030000018315832011353268143_">
							<use xlink:href="#SVGID_00000013174319752371879560000012932888882983361428_"  style="overflow:visible;"/>
						</clipPath>
						<g style="clip-path:url(#SVGID_00000016076967124604249030000018315832011353268143_);">
							<g>
								<path class="st13" d="M493,374.5c-1,0.4-0.3-7.4-0.5-7.7c0-0.3,0.2-0.5,0.5-0.5c1-0.4,0.3,7.4,0.5,7.7
									C493.5,374.3,493.2,374.5,493,374.5z"/>
								<path class="st13" d="M498,374.5c-1,0.4-0.3-7.4-0.5-7.7c0-0.3,0.2-0.5,0.5-0.5c1-0.4,0.3,7.4,0.5,7.7
									C498.5,374.3,498.3,374.5,498,374.5z"/>
								<path class="st13" d="M503,374.5c-1,0.4-0.3-7.4-0.5-7.7c0-0.3,0.2-0.5,0.5-0.5c1-0.4,0.3,7.4,0.5,7.7
									C503.5,374.3,503.3,374.5,503,374.5z"/>
							</g>
						</g>
					</g>
				</g>
			</g>
			<g>
				<path class="st9" d="M460.5,373.1c-2.3,0-14.5,0-17,0c-1.3-0.2-5.1,0.8-5.1-1.5V355c0-1.9,2.4-1.4,3.6-1.5
					c-0.3-1.6,0.7-2.5,2.3-2.3c-0.1-1.1,0-2.6,1.5-2.6h8.8c1.4,0,1.6,1.5,1.5,2.6c1.6-0.2,2.6,0.7,2.3,2.3c1.2,0,3.6-0.4,3.6,1.5
					v16.7C461.9,372.5,461.3,373.1,460.5,373.1L460.5,373.1z"/>
				<g>
					<g>
						<defs>
							<path id="SVGID_00000047778296740362485670000008631110433673815738_" d="M460.5,373.1c-2.3,0-14.5,0-17,0
								c-1.3-0.2-5.1,0.8-5.1-1.5V355c0-1.9,2.4-1.4,3.6-1.5c-0.3-1.6,0.7-2.5,2.3-2.3c-0.1-1.1,0-2.6,1.5-2.6h8.8
								c1.4,0,1.6,1.5,1.5,2.6c1.6-0.2,2.6,0.7,2.3,2.3c1.2,0,3.6-0.4,3.6,1.5v16.7C461.9,372.5,461.3,373.1,460.5,373.1
								L460.5,373.1z"/>
						</defs>
						<clipPath id="SVGID_00000155852707902959230220000000495470033501430420_">
							<use xlink:href="#SVGID_00000047778296740362485670000008631110433673815738_"  style="overflow:visible;"/>
						</clipPath>
						<g style="clip-path:url(#SVGID_00000155852707902959230220000000495470033501430420_);">
							<g>
								<path class="st13" d="M444.7,374.5c-1,0.4-0.3-7.4-0.5-7.7c0-0.3,0.2-0.5,0.5-0.5c1-0.4,0.3,7.4,0.5,7.7
									C445.2,374.3,444.9,374.5,444.7,374.5z"/>
								<path class="st13" d="M449.7,374.5c-1,0.4-0.3-7.4-0.5-7.7c0-0.3,0.2-0.5,0.5-0.5c1-0.4,0.3,7.4,0.5,7.7
									C450.2,374.3,450,374.5,449.7,374.5z"/>
								<path class="st13" d="M454.7,374.5c-1,0.4-0.3-7.4-0.5-7.7c0-0.3,0.2-0.5,0.5-0.5c1-0.4,0.3,7.4,0.5,7.7
									C455.2,374.3,455,374.5,454.7,374.5z"/>
							</g>
						</g>
					</g>
				</g>
			</g>
			<g>
				<path class="st9" d="M347.2,348.7c-2.3,0-14.5,0-17,0c-1.3,0.2-5.1-0.8-5.1,1.5v16.7c0,1.9,2.4,1.4,3.6,1.5
					c-0.3,1.6,0.7,2.5,2.3,2.3c-0.1,1.1,0,2.6,1.5,2.6h8.8c1.4,0,1.6-1.5,1.5-2.6c1.6,0.2,2.6-0.7,2.3-2.3c1.2,0,3.6,0.4,3.6-1.5
					v-16.7C348.7,349.3,348,348.7,347.2,348.7L347.2,348.7z"/>
				<g>
					<g>
						<defs>
							<path id="SVGID_00000028323490705280770070000005715503887441006519_" d="M347.2,348.7c-2.3,0-14.5,0-17,0
								c-1.3,0.2-5.1-0.8-5.1,1.5v16.7c0,1.9,2.4,1.4,3.6,1.5c-0.3,1.6,0.7,2.5,2.3,2.3c-0.1,1.1,0,2.6,1.5,2.6h8.8
								c1.4,0,1.6-1.5,1.5-2.6c1.6,0.2,2.6-0.7,2.3-2.3c1.2,0,3.6,0.4,3.6-1.5v-16.7C348.7,349.3,348,348.7,347.2,348.7L347.2,348.7
								z"/>
						</defs>
						<clipPath id="SVGID_00000100376716808680488630000001044596604182394796_">
							<use xlink:href="#SVGID_00000028323490705280770070000005715503887441006519_"  style="overflow:visible;"/>
						</clipPath>
						<g style="clip-path:url(#SVGID_00000100376716808680488630000001044596604182394796_);">
							<g>
								<path class="st13" d="M331.4,355.5c-1,0.4-0.3-7.4-0.5-7.7c0-0.3,0.2-0.5,0.5-0.5c1-0.4,0.3,7.4,0.5,7.7
									C331.9,355.3,331.7,355.5,331.4,355.5z"/>
								<path class="st13" d="M336.4,355.5c-1,0.4-0.3-7.4-0.5-7.7c0-0.3,0.2-0.5,0.5-0.5c1-0.4,0.3,7.4,0.5,7.7
									C336.9,355.3,336.7,355.5,336.4,355.5z"/>
								<path class="st13" d="M341.5,355.5c-1,0.4-0.3-7.4-0.5-7.7c0-0.3,0.2-0.5,0.5-0.5c1-0.4,0.3,7.4,0.5,7.7
									C342,355.3,341.7,355.5,341.5,355.5z"/>
							</g>
						</g>
					</g>
				</g>
			</g>
			<path class="st10" d="M709.4,350.2c-0.5,3.6-6.2,2.7-5.5-0.9C704.3,345.8,710,346.6,709.4,350.2z"/>
			<path class="st11" d="M679.6,350.2c-0.5,3.6-6.2,2.7-5.5-0.9C674.5,345.8,680.2,346.6,679.6,350.2z"/>
			<path class="st20" d="M872.2,389.3c0.9-17.6-19.8-17.6-18.9,0 M858.6,389.3c-1-15.1,9.4-15.1,8.2,0"/>
			<path class="st20" d="M872.2,298c0.9,17.6-19.8,17.6-18.9,0 M858.6,298c-1,15.1,9.4,15.1,8.2,0"/>
			<g>
				<path class="st21" d="M907.2,341.2h-2.4l-0.4,1.2h-1l2.1-5.8h1.1l2.1,5.8h-1L907.2,341.2L907.2,341.2z M906.9,340.5l-0.9-2.7
					l-0.9,2.7H906.9z"/>
				<path class="st21" d="M912.2,338c0.3,0.1,0.5,0.3,0.6,0.5v-0.7h1c-0.1,0.9,0.2,5-0.3,5.8c-0.8,1.6-4,1.4-4.2-0.6h0.9
					c0.9,1.7,3.1,0.4,2.6-1.3C909,345.2,907.4,336.3,912.2,338z M912.7,339.3c-1-1.7-3.3,0-2.4,1.6
					C911.3,342.7,913.6,340.9,912.7,339.3z M912.6,337.1c-0.8,0.7-2.4,0.2-2.2-1h0.5c-0.1,0.8,1.5,0.8,1.4,0h0.5
					C912.9,336.5,912.8,336.9,912.6,337.1L912.6,337.1z"/>
				<path class="st21" d="M921.4,338.3c-1.4-2.2-4.5,0.2-3.3,2.3c0.8,1.5,3.4,1.2,3.5-0.6h-2.2v-0.8h3.2c0.5,3-3.9,4.4-5.4,1.8
					c-2.1-3.5,3.7-6.5,5.2-2.7L921.4,338.3L921.4,338.3z"/>
				<path class="st21" d="M927.7,337.8v4.6h-0.9v-0.5c-3.1,2.3-3.5-1.9-3.2-4h0.9c0.2,1-0.6,3.9,1.1,3.8c1.8,0.1,1-2.8,1.2-3.8h0.9
					V337.8z M924.6,337.1c-0.5-0.5,0.3-1.2,0.7-0.7C925.8,336.9,925.1,337.6,924.6,337.1z M926,337.1c-0.5-0.5,0.3-1.2,0.7-0.7
					C927.2,336.9,926.5,337.6,926,337.1z"/>
				<path class="st21" d="M930.7,341.5l1.3-3.7h1l-1.7,4.6h-1.1l-1.7-4.6h1L930.7,341.5L930.7,341.5z"/>
				<path class="st21" d="M937.9,340.5h-3.5c0,1.2,1.9,1.7,2.4,0.6h1c-1.2,3.1-5.7,0.6-4.1-2.2C934.9,336.7,938.5,338,937.9,340.5
					L937.9,340.5z M936.9,339.7c0-1.5-2.5-1.5-2.5,0H936.9z"/>
				<path class="st21" d="M942.1,338c1.4,0.6,0.8,3.2,0.9,4.4h-0.9c-0.2-1,0.6-3.9-1.1-3.8c-1.8-0.1-1,2.8-1.2,3.8h-0.9v-4.6h0.9
					v0.5C940.3,337.7,941.4,337.6,942.1,338L942.1,338z"/>
				<path class="st21" d="M945.2,336.3v6.1h-0.9v-6.1H945.2z"/>
				<path class="st21" d="M946.5,337.1c-0.6-0.5,0.3-1.4,0.8-0.9C947.9,336.8,947,337.6,946.5,337.1z M947.4,337.8v4.6h-0.9v-4.6
					H947.4z"/>
				<path class="st21" d="M950.4,340.1l2.1,2.3h-1.3l-1.7-2v2h-0.9v-6.1h0.9v3.6l1.7-2h1.3L950.4,340.1L950.4,340.1z"/>
				<path class="st21" d="M957.1,341.5l1.3-3.7h1l-1.7,4.6h-1.1l-1.7-4.6h1L957.1,341.5L957.1,341.5z"/>
				<path class="st21" d="M964.2,340.5h-3.5c0,1.2,1.9,1.7,2.4,0.6h1c-1.2,3.1-5.7,0.6-4.1-2.2C961.3,336.7,964.9,338,964.2,340.5
					L964.2,340.5z M963.3,339.7c0-1.5-2.5-1.5-2.5,0H963.3z"/>
				<path class="st21" d="M904.6,351.6h2v0.8h-2.9v-5.8h0.9V351.6z"/>
				<path class="st21" d="M908.2,352.1c-2.6-1.5-0.3-5.7,2.4-4.1C913.2,349.5,910.8,353.6,908.2,352.1z M910,351.4
					c1.5-0.9,0.4-3.7-1.3-2.7C907.2,349.6,908.3,352.4,910,351.4z"/>
				<path class="st21" d="M915.4,347.9c0.3,0.1,0.5,0.3,0.6,0.5v-0.7h1c-0.1,0.9,0.2,5-0.3,5.8c-0.8,1.6-4,1.4-4.2-0.6h0.9
					c0.9,1.7,3.1,0.4,2.6-1.3C912.2,355.2,910.6,346.2,915.4,347.9z M915.9,349.2c-1-1.7-3.3,0-2.4,1.6
					C914.5,352.6,916.8,350.8,915.9,349.2z"/>
				<path class="st21" d="M919.2,346.2v6.1h-0.9v-6.1H919.2z"/>
				<path class="st21" d="M920.4,348.8c0.6-1.3,2.6-1.5,3.5-0.4v-0.7h1v4.6h-1v-0.7C922.1,353.8,919.1,351,920.4,348.8z
					 M923.7,349.2c-1-1.7-3.3,0-2.4,1.6C922.3,352.6,924.6,350.8,923.7,349.2z"/>
				<path class="st21" d="M932.5,347.9c1.4,0.6,0.8,3.2,0.9,4.4h-0.9c-0.2-1,0.6-3.9-1.1-3.8c-1.8-0.1-1,2.8-1.2,3.8h-0.9
					c-0.2-1,0.6-3.9-1.1-3.8c-1.8-0.1-1,2.8-1.2,3.8h-1v-4.6h0.9v0.5c0.8-0.9,2.5-0.8,3,0.3C930.4,347.7,931.7,347.5,932.5,347.9
					L932.5,347.9z"/>
				<path class="st21" d="M934.6,348.8c0.6-1.3,2.6-1.5,3.5-0.4v-0.7h1v4.6h-1v-0.7C936.3,353.8,933.3,351,934.6,348.8z
					 M937.9,349.2c-1-1.7-3.3,0-2.4,1.6C936.5,352.6,938.8,350.8,937.9,349.2z"/>
				<path class="st21" d="M943.3,352.2c-0.6-0.3-1-0.8-1-1.4h1c0.2,1.9,3.4,0.2,1.5-0.7c-0.7-0.3-1.7-0.3-2.2-1
					c-1.5-2.5,3.5-3.6,3.7-0.9h-1c-0.3-1.7-3.2-0.2-1.4,0.7C947.5,349.1,946.7,353.4,943.3,352.2L943.3,352.2z"/>
				<path class="st21" d="M947.5,347c-0.6-0.5,0.3-1.4,0.8-0.9C948.9,346.7,948,347.6,947.5,347z M948.3,347.8v4.6h-0.9v-4.6H948.3z
					"/>
				<path class="st21" d="M950.3,352.2c-0.5-0.2-0.9-0.7-0.9-1.3h1c0,1.1,2.5,0.7,1.5-0.2c-0.6-0.3-1.7-0.4-2.2-1
					c-1.3-2.2,3.3-2.9,3.3-0.6h-1c0-1.3-2.7-0.4-1.2,0.3C954.1,349.8,953.2,353.3,950.3,352.2L950.3,352.2z"/>
				<path class="st21" d="M955.1,348.5c0.2,1-0.7,3.5,1.1,3v0.8c-2.7,0.5-2-2.1-2.1-3.8h-0.5v-0.8h0.5v-1.1h1v1.1h1.1v0.8H955.1z"/>
				<path class="st21" d="M961.2,350.4h-3.5c0,1.2,1.9,1.7,2.4,0.6h1c-1.2,3.1-5.7,0.6-4.1-2.2C958.2,346.6,961.9,347.9,961.2,350.4
					L961.2,350.4z M960.3,349.6c0-1.5-2.5-1.5-2.5,0H960.3z"/>
				<path class="st21" d="M968.7,347.9c1.4,0.6,0.8,3.2,0.9,4.4h-0.9c-0.2-1,0.6-3.9-1.1-3.8c-1.8-0.1-1,2.8-1.2,3.8h-0.9
					c-0.2-1,0.6-3.9-1.1-3.8c-1.8-0.1-1,2.8-1.2,3.8h-0.9v-4.6h0.9v0.5c0.8-0.9,2.5-0.8,3,0.3C966.5,347.7,967.8,347.5,968.7,347.9
					L968.7,347.9z"/>
				<path class="st21" d="M970.8,347c-0.6-0.5,0.3-1.4,0.8-0.9C972.2,346.7,971.4,347.6,970.8,347z M971.7,347.8v4.6h-0.9v-4.6
					H971.7z"/>
			</g>
		</g>
		<g class="st22">
			<path class="st2" d="M985.4,404c-1-7.5-7.4-13.4-15.2-13.4H46.5c-8.5,0-15.3,6.9-15.3,15.3c-0.5,2.7-0.6,68.9,1.4,68.7
				c-0.1-0.6-0.1-1.3-0.1-2v-62.3c0-8.5,6.8-15.3,15.3-15.3h923.7C977.6,395.1,983,398.7,985.4,404L985.4,404z"/>
			<path class="st1" d="M985.5,468.2v-62.3c-0.4-6.5-7.7-10.8-14-10.9H47.8c-8.5,0-15.3,6.9-15.3,15.3v62.3
				c0.4,6.5,7.7,10.8,14,10.9h923.6C978.6,483.5,985.5,476.7,985.5,468.2L985.5,468.2z"/>
			<g>
				<path class="st4" d="M122.4,452.5l-12.5-18.1l12.4-17.9c0.3-0.6,4.1-1.8,3.9-3.3h-12.5c0,0-0.6,1.4,2.9,2.5l-9.8,14.1l-9.7-14
					c0.1,0,0.3-0.1,0.4-0.1c3.3-1,2.7-2.5,2.7-2.5H88.3c0,2.1,3.1,2.1,4,3.7l21.9,32C115.5,452,120,454.8,122.4,452.5 M91.1,452.5
					l11.8-17.1l3,4.5L98,451.2C94.9,456,91.1,452.5,91.1,452.5z"/>
				<path class="st5" d="M107.7,449.4c1.2-0.1,0,26.5,0.4,26.9c0,0.1-0.1,0.4-0.4,0.4c-1.2,0.1,0-26.5-0.4-26.9
					C107.3,449.5,107.6,449.4,107.7,449.4z"/>
				<path class="st5" d="M107.7,397.4c0.3,0,0.4,0.1,0.4,0.3c-0.4,0.3,0.8,21.6-0.4,21.3c-1.2,0.3-0.1-21-0.4-21.3
					C107.3,397.5,107.6,397.4,107.7,397.4z"/>
			</g>
			<rect x="206.8" y="390.6" class="st6" width="601.9" height="4.9"/>
			<path class="st5" d="M793.1,462.6l-3.7-3.5l14.8-21.4l-10.5-15.3c-5.8-1.1-6.1-8.9-6.7-13.6h21.7v-13.3h-602v88h601.9v-21.7
				C803.9,467.8,795.9,465.4,793.1,462.6L793.1,462.6z"/>
			<g>
				<path class="st7" d="M887.5,427.7c-0.2,1.3,0.6,4.8-0.6,5.7c-0.6,0.4-1.8-0.3-1.9,0.6c0,0.4-0.1,1,0.5,1
					c0.2-0.2,10.1,0.5,9.5-0.5c0.3-1.2-1-0.9-1.7-1.3c-0.5-0.4-0.7-1.2-0.6-1.9V427c-2-2-5.5-2.2-8.2-2.4
					c-19.4,1.4-11.2,29.1,6.5,20.9c0.3,0.3,0.3,1.3,1,1.3c0.4,0,1,0.1,1-0.5c-0.2-0.3,0.5-8-0.5-7.6c-2,0-1.6,6-7.1,6
					C876.2,444.6,877.9,422.2,887.5,427.7L887.5,427.7z"/>
				<path class="st7" d="M868.7,444.3c-10.1,9.8-23.5-4.8-15.7-15.2C863,417.2,878.5,433.7,868.7,444.3z M864.9,430.7
					c-0.5-3.3-4.8-4.9-6.7-1.9c-2.6,4-2.8,19.7,5.1,15.7C866.5,441.1,865.6,434.9,864.9,430.7L864.9,430.7z"/>
				<path class="st7" d="M838.9,427.9c9.7-1.9,6.2,7,9.5,5.5c0.5,0.2-0.6-7.5-0.5-7.6c0-0.3-0.3-0.5-0.5-0.5h-16.6
					c-0.6,0-0.5,0.6-0.5,1c0.2,1.1,2.3-0.1,2.5,1.3c0.3,0.4,0.1,14.3,0.2,15.2c0.1,1.7-0.3,2.6-2.2,2.4c-0.7-0.1-0.7,1.5,0,1.4h10
					c0.6,0,0.5-0.6,0.5-1c-0.2-1.1-2.4,0.2-2.7-1.3c-0.3-2.5-0.3-14,0-16.5C838.7,428,838.7,427.9,838.9,427.9L838.9,427.9z"/>
				<path class="st7" d="M831.2,458.6l-14.1-20.3l14-20c0.3-0.7,4.5-1.9,4.3-3.6h-13.8c0,0-0.8,1.6,3.2,2.9l-10.9,15.9L803,417.8
					c3.3-0.7,3.9-2.8,3.5-3H793c0,2.3,3.3,2.3,4.4,4.1l24.6,35.8C823.3,458,828.7,461.2,831.2,458.6 M796.2,458.6l13.3-19.2l3.5,5.1
					C809.3,448.4,802.5,464.9,796.2,458.6z"/>
				<path class="st5" d="M814.1,477.2c-0.3,0-0.5-0.2-0.5-0.5v-22c0-0.3,0.2-0.5,0.5-0.5s0.5,0.2,0.5,0.5v22
					C814.6,477,814.4,477.2,814.1,477.2z"/>
				<path class="st5" d="M814.1,421.5c-0.3,0-0.5-0.2-0.5-0.5c0.5-0.5-0.9-30.4,0.5-30.3c1.4-0.1,0,29.8,0.5,30.3
					C814.6,421.3,814.4,421.5,814.1,421.5z"/>
			</g>
			<g>
				<path class="st1" d="M242.7,409.3c-1.5,0.3-6.1-1-6.1,1.7c0.3,1.5-1,6.1,1.7,6c1.5-0.3,6.1,1,6.1-1.7
					C244.1,413.9,245.4,409.2,242.7,409.3z"/>
				<path class="st1" d="M242.7,419.5c-1.5,0.3-6.1-1-6.1,1.7c0.3,1.5-1,6.1,1.7,6c1.5-0.3,6.1,1,6.1-1.7
					C244.1,424.1,245.4,419.4,242.7,419.5z"/>
				<path class="st1" d="M253.2,438.2c-1.9-0.2-6.6,1-6.6-2.2c0.2-1.9-1-6.6,2.2-6.5c1.9,0.2,6.6-1,6.6,2.2
					C255.1,433.5,256.3,438.3,253.2,438.2z M248.8,430.4c-2.1-0.1-0.9,4.5-1.2,5.5c-0.1,2.1,4.5,0.9,5.6,1.2
					c2.1,0.1,0.9-4.5,1.2-5.6C254.5,429.5,249.9,430.7,248.8,430.4L248.8,430.4z"/>
				<path class="st1" d="M232.1,430.1c-1.5,0.3-6.1-1-6.1,1.7c0.3,1.5-1,6.1,1.7,6c1.5-0.3,6.1,1,6.1-1.7
					C233.5,434.7,234.8,430,232.1,430.1z"/>
				<path class="st1" d="M232.1,449c-1.9-0.2-6.6,1-6.6-2.2c0.2-1.9-1-6.6,2.2-6.5c1.9,0.2,6.6-1,6.6,2.2
					C234.1,444.3,235.3,449.1,232.1,449z M227.8,441.2c-2.1-0.1-0.9,4.5-1.2,5.6c-0.1,2.1,4.5,0.9,5.6,1.2c2.1,0.1,0.9-4.5,1.2-5.6
					C233.4,440.3,228.8,441.5,227.8,441.2z"/>
				<path class="st1" d="M221.5,451.3c-1.5,0.3-6.1-1-6.1,1.7c0.3,1.5-1,6.1,1.7,6c1.5-0.3,6.1,1,6.1-1.7
					C222.9,455.9,224.2,451.2,221.5,451.3z"/>
				<path class="st1" d="M232.1,462c-1.5,0.3-6.1-1-6.1,1.7c0.3,1.5-1,6.1,1.7,6c1.5-0.3,6.1,1,6.1-1.7
					C233.5,466.5,234.8,461.9,232.1,462z"/>
				<path class="st1" d="M232.1,427.7c-1.9-0.2-6.6,1-6.6-2.2c0.2-1.9-1-6.6,2.2-6.5c1.9,0.2,6.6-1,6.6,2.2
					C234.1,423,235.3,427.8,232.1,427.7z M227.8,420c-2.1-0.1-0.9,4.5-1.2,5.6c-0.1,2.1,4.5,0.9,5.6,1.2c2.1,0.1,0.9-4.5,1.2-5.6
					C233.4,419.1,228.8,420.3,227.8,420z"/>
				<path class="st1" d="M232.1,408.9c-1.5,0.3-6.1-1-6.1,1.7c0.3,1.5-1,6.1,1.7,6c1.5-0.3,6.1,1,6.1-1.7
					C233.5,413.5,234.8,408.8,232.1,408.9z"/>
				<path class="st5" d="M192.9,409.3c-1.5,0.3-6.1-1-6.1,1.7c0.3,1.5-1,6.1,1.7,6c1.5-0.3,6.1,1,6.1-1.7
					C194.3,413.9,195.5,409.2,192.9,409.3z"/>
				<path class="st5" d="M202.9,419.5c-1.5,0.3-6.1-1-6.1,1.7c0.3,1.5-1,6.1,1.7,6c1.5-0.3,6.1,1,6.1-1.7
					C204.3,424.1,205.5,419.4,202.9,419.5z"/>
				<path class="st5" d="M203.3,429.9c-1.5,0.3-6.1-1-6.1,1.7c0.3,1.5-1,6.1,1.7,6c1.5-0.3,6.1,1,6.1-1.7
					C204.7,434.5,206,429.8,203.3,429.9z"/>
				<path class="st5" d="M203.3,448.6c-1.9-0.2-6.6,1-6.6-2.2c0.2-1.9-1-6.6,2.2-6.5c1.9,0.2,6.6-1,6.6,2.2
					C205.3,443.9,206.5,448.7,203.3,448.6z M198.9,440.9c-2.1-0.1-0.9,4.5-1.2,5.5c-0.1,2.1,4.5,0.9,5.6,1.2
					c2.1,0.1,0.9-4.5,1.2-5.6C204.6,440,200,441.1,198.9,440.9L198.9,440.9z"/>
				<path class="st5" d="M203.3,450.8c-1.5,0.3-6.1-1-6.1,1.7c0.3,1.5-1,6.1,1.7,6c1.5-0.3,6.1,1,6.1-1.7
					C204.7,455.4,206,450.7,203.3,450.8z"/>
				<path class="st5" d="M172.9,439.4c-1.5,0.3-6.1-1-6.1,1.7c0.3,1.5-1,6.1,1.7,6c1.5-0.3,6.1,1,6.1-1.7
					C174.4,444,175.6,439.3,172.9,439.4z"/>
				<path class="st5" d="M192.8,430c-1.5,0.3-6.1-1-6.1,1.7c0.3,1.5-1,6.1,1.7,6c1.5-0.3,6.1,1,6.1-1.7
					C194.2,434.6,195.4,429.9,192.8,430z"/>
				<path class="st5" d="M182.3,408.9c-1.5,0.3-6.1-1-6.1,1.7c0.3,1.5-1,6.1,1.7,6c1.5-0.3,6.1,1,6.1-1.7
					C183.7,413.5,184.9,408.8,182.3,408.9z"/>
			</g>
			<path class="st8" d="M313,413c0.1-10-15.6-10-15.4,0C297.5,423,313.2,423,313,413z"/>
			<path class="st8" d="M418.7,412.4c-0.7-5.1-8.7-3.8-7.8,1.2C411.6,418.7,419.6,417.5,418.7,412.4z"/>
			<path class="st8" d="M418.7,423c-0.7-5.1-8.7-3.8-7.8,1.2C411.6,429.3,419.6,428.1,418.7,423z"/>
			<path class="st1" d="M353,403.9c-41.3,2.3-35-11.2-35.2,28.8c0,1.7,1.4,3,3,3c41.3-2.3,35,11.2,35.2-28.8
				C356,405.2,354.7,403.9,353,403.9z"/>
			<path class="st1" d="M362.2,403.9h36.9c1.7,0,3,1.4,3,3v35.7c0,1.7-1.4,3-3,3h-36.9c-1.7,0-3-1.4-3-3v-35.7
				C359.2,405.2,360.5,403.9,362.2,403.9z"/>
			<path class="st1" d="M466.2,435.7c-41.3-2.3-35,11.2-35.2-28.8c0-1.7,1.4-3,3-3c41.3,2.3,35-11.2,35.2,28.8
				C469.3,434.3,467.9,435.7,466.2,435.7z"/>
			<path class="st9" d="M395.6,410.7c-1,0.8-32.7-1.8-31.4,1.5c0.5,1.4-1.3,10.6,1.5,10.3h29.9c2.9,0.3,1.1-9,1.5-10.3
				C397.1,411.4,396.5,410.7,395.6,410.7L395.6,410.7z"/>
			<path class="st9" d="M395.6,427.7c-1,0.8-32.7-1.8-31.4,1.5c0.5,1.4-1.3,10.6,1.5,10.3h29.9c2.9,0.3,1.1-9,1.5-10.3
				C397.1,428.4,396.5,427.7,395.6,427.7L395.6,427.7z"/>
			<path class="st10" d="M467.8,431c-0.5-3.6-6.1-2.7-5.5,0.9C462.8,435.5,468.4,434.6,467.8,431z"/>
			<path class="st11" d="M438,431c-0.5-3.6-6.1-2.7-5.5,0.9C433,435.5,438.6,434.6,438,431z"/>
			<path class="st1" d="M514.5,435.7c-41.3-2.3-35,11.2-35.2-28.8c0-1.7,1.4-3,3-3c41.3,2.3,34.9-11.2,35.2,28.8
				C517.6,434.3,516.2,435.7,514.5,435.7L514.5,435.7z"/>
			<path class="st10" d="M516.1,431c-0.5-3.6-6.1-2.7-5.5,0.9C511.1,435.5,516.7,434.6,516.1,431z"/>
			<path class="st11" d="M486.3,431c-0.5-3.6-6.1-2.7-5.5,0.9C481.3,435.5,486.9,434.6,486.3,431z"/>
			<path class="st1" d="M562.9,435.7c-41.3-2.3-35,11.2-35.2-28.8c0-1.7,1.3-3,3-3c41.3,2.3,35-11.2,35.2,28.8
				C565.9,434.3,564.6,435.7,562.9,435.7z"/>
			<path class="st10" d="M564.4,431c-0.5-3.6-6.2-2.7-5.5,0.9C559.4,435.5,565,434.6,564.4,431z"/>
			<path class="st11" d="M534.6,431c-0.5-3.6-6.2-2.7-5.5,0.9C529.6,435.5,535.2,434.6,534.6,431z"/>
			<path class="st1" d="M611.2,435.7c-41.3-2.3-35,11.2-35.2-28.8c0-1.7,1.3-3,3-3c41.3,2.3,35-11.2,35.2,28.8
				C614.2,434.3,612.9,435.7,611.2,435.7z"/>
			<path class="st10" d="M612.7,431c-0.5-3.6-6.2-2.7-5.5,0.9C607.7,435.5,613.3,434.6,612.7,431z"/>
			<path class="st11" d="M582.9,431c-0.5-3.6-6.2-2.7-5.5,0.9C577.9,435.5,583.5,434.6,582.9,431z"/>
			<path class="st1" d="M659.5,435.7c-41.3-2.3-35,11.2-35.2-28.8c0-1.7,1.3-3,3-3c41.3,2.3,35-11.2,35.2,28.8
				C662.5,434.3,661.2,435.7,659.5,435.7z"/>
			<path class="st10" d="M661,431c-0.5-3.6-6.2-2.7-5.5,0.9C656,435.5,661.7,434.6,661,431z"/>
			<path class="st11" d="M631.2,431c-0.5-3.6-6.2-2.7-5.5,0.9C626.2,435.5,631.9,434.6,631.2,431z"/>
			<path class="st1" d="M707.8,435.7c-41.3-2.3-35,11.2-35.2-28.8c0-1.7,1.3-3,3-3c41.3,2.3,35-11.2,35.2,28.8
				C710.8,434.3,709.5,435.7,707.8,435.7z"/>
			<g>
				<path class="st9" d="M702,408.1c-2.3,0-14.5,0-17,0c-1.3,0.2-5.1-0.8-5.1,1.5v16.7c0,1.9,2.4,1.4,3.6,1.5
					c-0.3,1.6,0.7,2.5,2.3,2.3c-0.1,1.1,0,2.6,1.5,2.6h8.8c1.4,0,1.6-1.5,1.5-2.6c1.6,0.2,2.6-0.7,2.3-2.3c1.2,0,3.6,0.4,3.6-1.5
					v-16.7C703.5,408.7,702.8,408.1,702,408.1L702,408.1z"/>
				<g>
					<g>
						<defs>
							<path id="SVGID_00000060733856041519725440000015143103413211703217_" d="M702,408.1c-2.3,0-14.5,0-17,0
								c-1.3,0.2-5.1-0.8-5.1,1.5v16.7c0,1.9,2.4,1.4,3.6,1.5c-0.3,1.6,0.7,2.5,2.3,2.3c-0.1,1.1,0,2.6,1.5,2.6h8.8
								c1.4,0,1.6-1.5,1.5-2.6c1.6,0.2,2.6-0.7,2.3-2.3c1.2,0,3.6,0.4,3.6-1.5v-16.7C703.5,408.7,702.8,408.1,702,408.1L702,408.1z"
								/>
						</defs>
						<clipPath id="SVGID_00000026125687600578672460000004761837667282638517_">
							<use xlink:href="#SVGID_00000060733856041519725440000015143103413211703217_"  style="overflow:visible;"/>
						</clipPath>
						<g style="clip-path:url(#SVGID_00000026125687600578672460000004761837667282638517_);">
							<g>
								<path class="st13" d="M686.2,414.9c-1,0.4-0.3-7.4-0.5-7.7c0-0.3,0.2-0.5,0.5-0.5c1-0.4,0.3,7.4,0.5,7.7
									C686.7,414.7,686.5,414.9,686.2,414.9z"/>
								<path class="st13" d="M691.2,414.9c-1,0.4-0.3-7.4-0.5-7.7c0-0.3,0.2-0.5,0.5-0.5c1-0.4,0.3,7.4,0.5,7.7
									C691.7,414.7,691.5,414.9,691.2,414.9z"/>
								<path class="st13" d="M696.2,414.9c-1,0.4-0.3-7.4-0.5-7.7c0-0.3,0.2-0.5,0.5-0.5c1-0.4,0.3,7.4,0.5,7.7
									C696.7,414.7,696.5,414.9,696.2,414.9z"/>
							</g>
						</g>
					</g>
				</g>
			</g>
			<g>
				<path class="st9" d="M653.7,408.1c-2.3,0-14.5,0-17,0c-1.3,0.2-5.1-0.8-5.1,1.5v16.7c0,1.9,2.4,1.4,3.6,1.5
					c-0.3,1.6,0.7,2.5,2.3,2.3c-0.1,1.1,0,2.6,1.5,2.6h8.8c1.4,0,1.6-1.5,1.5-2.6c1.6,0.2,2.6-0.7,2.3-2.3c1.2,0,3.6,0.4,3.6-1.5
					v-16.7C655.2,408.7,654.5,408.1,653.7,408.1L653.7,408.1z"/>
				<g>
					<g>
						<defs>
							<path id="SVGID_00000116945626321445189300000017616209846342631597_" d="M653.7,408.1c-2.3,0-14.5,0-17,0
								c-1.3,0.2-5.1-0.8-5.1,1.5v16.7c0,1.9,2.4,1.4,3.6,1.5c-0.3,1.6,0.7,2.5,2.3,2.3c-0.1,1.1,0,2.6,1.5,2.6h8.8
								c1.4,0,1.6-1.5,1.5-2.6c1.6,0.2,2.6-0.7,2.3-2.3c1.2,0,3.6,0.4,3.6-1.5v-16.7C655.2,408.7,654.5,408.1,653.7,408.1
								L653.7,408.1z"/>
						</defs>
						<clipPath id="SVGID_00000162348787942028670860000002261969784967866557_">
							<use xlink:href="#SVGID_00000116945626321445189300000017616209846342631597_"  style="overflow:visible;"/>
						</clipPath>
						<g style="clip-path:url(#SVGID_00000162348787942028670860000002261969784967866557_);">
							<g>
								<path class="st13" d="M637.9,414.9c-1,0.4-0.3-7.4-0.5-7.7c0-0.3,0.2-0.5,0.5-0.5c1-0.4,0.3,7.4,0.5,7.7
									C638.4,414.7,638.2,414.9,637.9,414.9z"/>
								<path class="st13" d="M642.9,414.9c-1,0.4-0.3-7.4-0.5-7.7c0-0.3,0.2-0.5,0.5-0.5c1-0.4,0.3,7.4,0.5,7.7
									C643.4,414.7,643.2,414.9,642.9,414.9z"/>
								<path class="st13" d="M647.9,414.9c-1,0.4-0.3-7.4-0.5-7.7c0-0.3,0.2-0.5,0.5-0.5c1-0.4,0.3,7.4,0.5,7.7
									C648.4,414.7,648.2,414.9,647.9,414.9z"/>
							</g>
						</g>
					</g>
				</g>
			</g>
			<g>
				<path class="st9" d="M605.4,408.1c-2.3,0-14.5,0-17,0c-1.3,0.2-5.1-0.8-5.1,1.5v16.7c0,1.9,2.4,1.4,3.6,1.5
					c-0.3,1.6,0.7,2.5,2.3,2.3c-0.1,1.1,0,2.6,1.5,2.6h8.8c1.4,0,1.6-1.5,1.5-2.6c1.6,0.2,2.6-0.7,2.3-2.3c1.2,0,3.6,0.4,3.6-1.5
					v-16.7C606.9,408.7,606.2,408.1,605.4,408.1L605.4,408.1z"/>
				<g>
					<g>
						<defs>
							<path id="SVGID_00000134950961691432406820000002066251187913450655_" d="M605.4,408.1c-2.3,0-14.5,0-17,0
								c-1.3,0.2-5.1-0.8-5.1,1.5v16.7c0,1.9,2.4,1.4,3.6,1.5c-0.3,1.6,0.7,2.5,2.3,2.3c-0.1,1.1,0,2.6,1.5,2.6h8.8
								c1.4,0,1.6-1.5,1.5-2.6c1.6,0.2,2.6-0.7,2.3-2.3c1.2,0,3.6,0.4,3.6-1.5v-16.7C606.9,408.7,606.2,408.1,605.4,408.1
								L605.4,408.1z"/>
						</defs>
						<clipPath id="SVGID_00000093877735983527426090000013389427803064946573_">
							<use xlink:href="#SVGID_00000134950961691432406820000002066251187913450655_"  style="overflow:visible;"/>
						</clipPath>
						<g style="clip-path:url(#SVGID_00000093877735983527426090000013389427803064946573_);">
							<g>
								<path class="st13" d="M589.6,414.9c-1,0.4-0.3-7.4-0.5-7.7c0-0.3,0.2-0.5,0.5-0.5c1-0.4,0.3,7.4,0.5,7.7
									C590.1,414.7,589.9,414.9,589.6,414.9z"/>
								<path class="st13" d="M594.6,414.9c-1,0.4-0.3-7.4-0.5-7.7c0-0.3,0.2-0.5,0.5-0.5c1-0.4,0.3,7.4,0.5,7.7
									C595.1,414.7,594.9,414.9,594.6,414.9z"/>
								<path class="st13" d="M599.6,414.9c-1,0.4-0.3-7.4-0.5-7.7c0-0.3,0.2-0.5,0.5-0.5c1-0.4,0.3,7.4,0.5,7.7
									C600.1,414.7,599.9,414.9,599.6,414.9z"/>
							</g>
						</g>
					</g>
				</g>
			</g>
			<g>
				<path class="st9" d="M557.1,408.1c-2.3,0-14.5,0-17,0c-1.3,0.2-5.1-0.8-5.1,1.5v16.7c0,1.9,2.4,1.4,3.6,1.5
					c-0.3,1.6,0.7,2.5,2.3,2.3c-0.1,1.1,0,2.6,1.5,2.6h8.8c1.4,0,1.6-1.5,1.5-2.6c1.6,0.2,2.6-0.7,2.3-2.3c1.2,0,3.6,0.4,3.6-1.5
					v-16.7C558.6,408.7,557.9,408.1,557.1,408.1L557.1,408.1z"/>
				<g>
					<g>
						<defs>
							<path id="SVGID_00000144316076664353934340000006424305481123007105_" d="M557.1,408.1c-2.3,0-14.5,0-17,0
								c-1.3,0.2-5.1-0.8-5.1,1.5v16.7c0,1.9,2.4,1.4,3.6,1.5c-0.3,1.6,0.7,2.5,2.3,2.3c-0.1,1.1,0,2.6,1.5,2.6h8.8
								c1.4,0,1.6-1.5,1.5-2.6c1.6,0.2,2.6-0.7,2.3-2.3c1.2,0,3.6,0.4,3.6-1.5v-16.7C558.6,408.7,557.9,408.1,557.1,408.1
								L557.1,408.1z"/>
						</defs>
						<clipPath id="SVGID_00000029034630376261698290000010595869776877097143_">
							<use xlink:href="#SVGID_00000144316076664353934340000006424305481123007105_"  style="overflow:visible;"/>
						</clipPath>
						<g style="clip-path:url(#SVGID_00000029034630376261698290000010595869776877097143_);">
							<g>
								<path class="st13" d="M541.3,414.9c-1,0.4-0.3-7.4-0.5-7.7c0-0.3,0.2-0.5,0.5-0.5c1-0.4,0.3,7.4,0.5,7.7
									C541.8,414.7,541.6,414.9,541.3,414.9z"/>
								<path class="st13" d="M546.3,414.9c-1,0.4-0.3-7.4-0.5-7.7c0-0.3,0.2-0.5,0.5-0.5c1-0.4,0.3,7.4,0.5,7.7
									C546.8,414.7,546.6,414.9,546.3,414.9z"/>
								<path class="st13" d="M551.3,414.9c-1,0.4-0.3-7.4-0.5-7.7c0-0.3,0.2-0.5,0.5-0.5c1-0.4,0.3,7.4,0.5,7.7
									C551.8,414.7,551.6,414.9,551.3,414.9z"/>
							</g>
						</g>
					</g>
				</g>
			</g>
			<g>
				<path class="st9" d="M508.8,408.1c-2.3,0-14.5,0-17,0c-1.3,0.2-5.1-0.8-5.1,1.5v16.7c0,1.9,2.4,1.4,3.6,1.5
					c-0.3,1.6,0.7,2.5,2.3,2.3c-0.1,1.1,0,2.6,1.5,2.6h8.8c1.4,0,1.6-1.5,1.5-2.6c1.6,0.2,2.6-0.7,2.3-2.3c1.2,0,3.6,0.4,3.6-1.5
					v-16.7C510.2,408.7,509.6,408.1,508.8,408.1L508.8,408.1z"/>
				<g>
					<g>
						<defs>
							<path id="SVGID_00000011006072949969708500000012071075679101805958_" d="M508.8,408.1c-2.3,0-14.5,0-17,0
								c-1.3,0.2-5.1-0.8-5.1,1.5v16.7c0,1.9,2.4,1.4,3.6,1.5c-0.3,1.6,0.7,2.5,2.3,2.3c-0.1,1.1,0,2.6,1.5,2.6h8.8
								c1.4,0,1.6-1.5,1.5-2.6c1.6,0.2,2.6-0.7,2.3-2.3c1.2,0,3.6,0.4,3.6-1.5v-16.7C510.2,408.7,509.6,408.1,508.8,408.1
								L508.8,408.1z"/>
						</defs>
						<clipPath id="SVGID_00000058579478980244556150000012404517159351898264_">
							<use xlink:href="#SVGID_00000011006072949969708500000012071075679101805958_"  style="overflow:visible;"/>
						</clipPath>
						<g style="clip-path:url(#SVGID_00000058579478980244556150000012404517159351898264_);">
							<g>
								<path class="st13" d="M493,414.9c-1,0.4-0.3-7.4-0.5-7.7c0-0.3,0.2-0.5,0.5-0.5c1-0.4,0.3,7.4,0.5,7.7
									C493.5,414.7,493.2,414.9,493,414.9z"/>
								<path class="st13" d="M498,414.9c-1,0.4-0.3-7.4-0.5-7.7c0-0.3,0.2-0.5,0.5-0.5c1-0.4,0.3,7.4,0.5,7.7
									C498.5,414.7,498.3,414.9,498,414.9z"/>
								<path class="st13" d="M503,414.9c-1,0.4-0.3-7.4-0.5-7.7c0-0.3,0.2-0.5,0.5-0.5c1-0.4,0.3,7.4,0.5,7.7
									C503.5,414.7,503.3,414.9,503,414.9z"/>
							</g>
						</g>
					</g>
				</g>
			</g>
			<g>
				<path class="st9" d="M460.5,408.1c-2.3,0-14.5,0-17,0c-1.3,0.2-5.1-0.8-5.1,1.5v16.7c0,1.9,2.4,1.4,3.6,1.5
					c-0.3,1.6,0.7,2.5,2.3,2.3c-0.1,1.1,0,2.6,1.5,2.6h8.8c1.4,0,1.6-1.5,1.5-2.6c1.6,0.2,2.6-0.7,2.3-2.3c1.2,0,3.6,0.4,3.6-1.5
					v-16.7C461.9,408.7,461.3,408.1,460.5,408.1L460.5,408.1z"/>
				<g>
					<g>
						<defs>
							<path id="SVGID_00000109740262144795969710000015695729370818410374_" d="M460.5,408.1c-2.3,0-14.5,0-17,0
								c-1.3,0.2-5.1-0.8-5.1,1.5v16.7c0,1.9,2.4,1.4,3.6,1.5c-0.3,1.6,0.7,2.5,2.3,2.3c-0.1,1.1,0,2.6,1.5,2.6h8.8
								c1.4,0,1.6-1.5,1.5-2.6c1.6,0.2,2.6-0.7,2.3-2.3c1.2,0,3.6,0.4,3.6-1.5v-16.7C461.9,408.7,461.3,408.1,460.5,408.1
								L460.5,408.1z"/>
						</defs>
						<clipPath id="SVGID_00000066493189664372079480000016728693365574198718_">
							<use xlink:href="#SVGID_00000109740262144795969710000015695729370818410374_"  style="overflow:visible;"/>
						</clipPath>
						<g style="clip-path:url(#SVGID_00000066493189664372079480000016728693365574198718_);">
							<g>
								<path class="st13" d="M444.7,414.9c-1,0.4-0.3-7.4-0.5-7.7c0-0.3,0.2-0.5,0.5-0.5c1-0.4,0.3,7.4,0.5,7.7
									C445.2,414.7,444.9,414.9,444.7,414.9z"/>
								<path class="st13" d="M449.7,414.9c-1,0.4-0.3-7.4-0.5-7.7c0-0.3,0.2-0.5,0.5-0.5c1-0.4,0.3,7.4,0.5,7.7
									C450.2,414.7,450,414.9,449.7,414.9z"/>
								<path class="st13" d="M454.7,414.9c-1,0.4-0.3-7.4-0.5-7.7c0-0.3,0.2-0.5,0.5-0.5c1-0.4,0.3,7.4,0.5,7.7
									C455.2,414.7,455,414.9,454.7,414.9z"/>
							</g>
						</g>
					</g>
				</g>
			</g>
			<g>
				<path class="st9" d="M347.2,432.6c-2.3,0-14.5,0-17,0c-1.3-0.2-5.1,0.8-5.1-1.5v-16.7c0-1.9,2.4-1.4,3.6-1.5
					c-0.3-1.6,0.7-2.5,2.3-2.3c-0.1-1.1,0-2.6,1.5-2.6h8.8c1.4,0,1.6,1.5,1.5,2.6c1.6-0.2,2.6,0.7,2.3,2.3c1.2,0,3.6-0.4,3.6,1.5
					v16.7C348.7,431.9,348,432.6,347.2,432.6L347.2,432.6z"/>
				<g>
					<g>
						<defs>
							<path id="SVGID_00000164484910132593948320000009723539000036700810_" d="M347.2,432.6c-2.3,0-14.5,0-17,0
								c-1.3-0.2-5.1,0.8-5.1-1.5v-16.7c0-1.9,2.4-1.4,3.6-1.5c-0.3-1.6,0.7-2.5,2.3-2.3c-0.1-1.1,0-2.6,1.5-2.6h8.8
								c1.4,0,1.6,1.5,1.5,2.6c1.6-0.2,2.6,0.7,2.3,2.3c1.2,0,3.6-0.4,3.6,1.5v16.7C348.7,431.9,348,432.6,347.2,432.6L347.2,432.6z
								"/>
						</defs>
						<clipPath id="SVGID_00000087404103667901766980000018067306148098758333_">
							<use xlink:href="#SVGID_00000164484910132593948320000009723539000036700810_"  style="overflow:visible;"/>
						</clipPath>
						<g style="clip-path:url(#SVGID_00000087404103667901766980000018067306148098758333_);">
							<g>
								<path class="st13" d="M331.4,433.9c-1,0.4-0.3-7.4-0.5-7.7c0-0.3,0.2-0.5,0.5-0.5c1-0.4,0.3,7.4,0.5,7.7
									C331.9,433.7,331.7,433.9,331.4,433.9z"/>
								<path class="st13" d="M336.4,433.9c-1,0.4-0.3-7.4-0.5-7.7c0-0.3,0.2-0.5,0.5-0.5c1-0.4,0.3,7.4,0.5,7.7
									C336.9,433.7,336.7,433.9,336.4,433.9z"/>
								<path class="st13" d="M341.5,433.9c-1,0.4-0.3-7.4-0.5-7.7c0-0.3,0.2-0.5,0.5-0.5c1-0.4,0.3,7.4,0.5,7.7
									C342,433.7,341.7,433.9,341.5,433.9z"/>
							</g>
						</g>
					</g>
				</g>
			</g>
			<path class="st10" d="M709.4,431c-0.5-3.6-6.2-2.7-5.5,0.9C704.3,435.5,710,434.6,709.4,431z"/>
			<path class="st11" d="M679.6,431c-0.5-3.6-6.2-2.7-5.5,0.9C674.5,435.5,680.2,434.6,679.6,431z"/>
			<path class="st20" d="M872.2,391.9c0.9,17.6-19.8,17.6-18.9,0 M858.6,391.9c-1,15.1,9.4,15.1,8.2,0"/>
			<path class="st20" d="M872.2,483.2c0.9-17.6-19.8-17.6-18.9,0 M858.6,483.2c-1-15.1,9.4-15.1,8.2,0"/>
			<g>
				<path class="st21" d="M907.2,440h-2.4l-0.4-1.2h-1l2.1,5.8h1.1l2.1-5.8h-1L907.2,440L907.2,440z M906.9,440.8l-0.9,2.7l-0.9-2.7
					H906.9z"/>
				<path class="st21" d="M912.2,443.3c0.3-0.1,0.5-0.3,0.6-0.5v0.7h1c-0.1-0.9,0.2-5-0.3-5.8c-0.8-1.6-4-1.4-4.2,0.6h0.9
					c0.9-1.7,3.1-0.4,2.6,1.3C909,436,907.4,445,912.2,443.3z M912.7,441.9c-1,1.7-3.3,0-2.4-1.6
					C911.3,438.5,913.6,440.4,912.7,441.9z M912.6,444.1c-0.8-0.7-2.4-0.2-2.2,1h0.5c-0.1-0.8,1.5-0.8,1.4,0h0.5
					C912.9,444.7,912.8,444.3,912.6,444.1L912.6,444.1z"/>
				<path class="st21" d="M921.4,442.9c-1.4,2.2-4.5-0.2-3.3-2.3c0.8-1.5,3.4-1.2,3.5,0.6h-2.2v0.8h3.2c0.5-3-3.9-4.4-5.4-1.8
					c-2.1,3.5,3.7,6.5,5.2,2.7L921.4,442.9L921.4,442.9z"/>
				<path class="st21" d="M927.7,443.4v-4.6h-0.9v0.5c-3.1-2.3-3.5,1.9-3.2,4h0.9c0.2-1-0.6-3.9,1.1-3.8c1.8-0.1,1,2.8,1.2,3.8h0.9
					V443.4z M924.6,444.1c-0.5,0.5,0.3,1.2,0.7,0.7C925.8,444.4,925.1,443.7,924.6,444.1z M926,444.1c-0.5,0.5,0.3,1.2,0.7,0.7
					C927.2,444.4,926.5,443.7,926,444.1z"/>
				<path class="st21" d="M930.7,439.7l1.3,3.7h1l-1.7-4.6h-1.1l-1.7,4.6h1L930.7,439.7L930.7,439.7z"/>
				<path class="st21" d="M937.9,440.8h-3.5c0-1.2,1.9-1.7,2.4-0.6h1c-1.2-3.1-5.7-0.6-4.1,2.2C934.9,444.5,938.5,443.3,937.9,440.8
					L937.9,440.8z M936.9,441.5c0,1.5-2.5,1.5-2.5,0H936.9z"/>
				<path class="st21" d="M942.1,443.3c1.4-0.6,0.8-3.2,0.9-4.4h-0.9c-0.2,1,0.6,3.9-1.1,3.8c-1.8,0.1-1-2.8-1.2-3.8h-0.9v4.6h0.9
					V443C940.3,443.6,941.4,443.6,942.1,443.3L942.1,443.3z"/>
				<path class="st21" d="M945.2,445v-6.1h-0.9v6.1H945.2z"/>
				<path class="st21" d="M946.5,444.2c-0.6,0.5,0.3,1.4,0.8,0.9C947.9,444.5,947,443.6,946.5,444.2z M947.4,443.4v-4.6h-0.9v4.6
					H947.4z"/>
				<path class="st21" d="M950.4,441.1l2.1-2.3h-1.3l-1.7,2v-2h-0.9v6.1h0.9v-3.6l1.7,2h1.3L950.4,441.1L950.4,441.1z"/>
				<path class="st21" d="M957.1,439.7l1.3,3.7h1l-1.7-4.6h-1.1l-1.7,4.6h1L957.1,439.7L957.1,439.7z"/>
				<path class="st21" d="M964.2,440.8h-3.5c0-1.2,1.9-1.7,2.4-0.6h1c-1.2-3.1-5.7-0.6-4.1,2.2C961.3,444.5,964.9,443.3,964.2,440.8
					L964.2,440.8z M963.3,441.5c0,1.5-2.5,1.5-2.5,0H963.3z"/>
				<path class="st21" d="M904.6,429.7h2v-0.8h-2.9v5.8h0.9V429.7z"/>
				<path class="st21" d="M908.2,429.1c-2.6,1.5-0.3,5.7,2.4,4.1C913.2,431.8,910.8,427.6,908.2,429.1z M910,429.8
					c1.5,0.9,0.4,3.7-1.3,2.7C907.2,431.7,908.3,428.9,910,429.8z"/>
				<path class="st21" d="M915.4,433.3c0.3-0.1,0.5-0.3,0.6-0.5v0.7h1c-0.1-0.9,0.2-5-0.3-5.8c-0.8-1.6-4-1.4-4.2,0.6h0.9
					c0.9-1.7,3.1-0.4,2.6,1.3C912.2,426.1,910.6,435,915.4,433.3z M915.9,432c-1,1.7-3.3,0-2.4-1.6
					C914.5,428.6,916.8,430.4,915.9,432z"/>
				<path class="st21" d="M919.2,435v-6.1h-0.9v6.1H919.2z"/>
				<path class="st21" d="M920.4,432.4c0.6,1.3,2.6,1.5,3.5,0.4v0.7h1v-4.6h-1v0.7C922.1,427.5,919.1,430.2,920.4,432.4z M923.7,432
					c-1,1.7-3.3,0-2.4-1.6C922.3,428.6,924.6,430.4,923.7,432z"/>
				<path class="st21" d="M932.5,433.3c1.4-0.6,0.8-3.2,0.9-4.4h-0.9c-0.2,1,0.6,3.9-1.1,3.8c-1.8,0.1-1-2.8-1.2-3.8h-0.9
					c-0.2,1,0.6,3.9-1.1,3.8c-1.8,0.1-1-2.8-1.2-3.8h-1v4.6h0.9V433c0.8,0.9,2.5,0.8,3-0.3C930.4,433.5,931.7,433.8,932.5,433.3
					L932.5,433.3z"/>
				<path class="st21" d="M934.6,432.4c0.6,1.3,2.6,1.5,3.5,0.4v0.7h1v-4.6h-1v0.7C936.3,427.5,933.3,430.2,934.6,432.4z M937.9,432
					c-1,1.7-3.3,0-2.4-1.6C936.5,428.6,938.8,430.4,937.9,432z"/>
				<path class="st21" d="M943.3,429.1c-0.6,0.3-1,0.8-1,1.4h1c0.2-1.9,3.4-0.2,1.5,0.7c-0.7,0.3-1.7,0.3-2.2,1
					c-1.5,2.5,3.5,3.6,3.7,0.9h-1c-0.3,1.7-3.2,0.2-1.4-0.7C947.5,432.2,946.7,427.9,943.3,429.1L943.3,429.1z"/>
				<path class="st21" d="M947.5,434.3c-0.6,0.5,0.3,1.4,0.8,0.9C948.9,434.6,948,433.7,947.5,434.3z M948.3,433.5v-4.6h-0.9v4.6
					H948.3z"/>
				<path class="st21" d="M950.3,429c-0.5,0.2-0.9,0.7-0.9,1.3h1c0-1.1,2.5-0.7,1.5,0.2c-0.6,0.3-1.7,0.4-2.2,1
					c-1.3,2.2,3.3,2.9,3.3,0.6h-1c0,1.3-2.7,0.4-1.2-0.3C954.1,431.5,953.2,428,950.3,429L950.3,429z"/>
				<path class="st21" d="M955.1,432.7c0.2-1-0.7-3.5,1.1-3v-0.8c-2.7-0.5-2,2.1-2.1,3.8h-0.5v0.8h0.5v1.1h1v-1.1h1.1v-0.8H955.1z"
					/>
				<path class="st21" d="M961.2,430.9h-3.5c0-1.2,1.9-1.7,2.4-0.6h1c-1.2-3.1-5.7-0.6-4.1,2.2C958.2,434.6,961.9,433.3,961.2,430.9
					L961.2,430.9z M960.3,431.6c0,1.5-2.5,1.5-2.5,0H960.3z"/>
				<path class="st21" d="M968.7,433.3c1.4-0.6,0.8-3.2,0.9-4.4h-0.9c-0.2,1,0.6,3.9-1.1,3.8c-1.8,0.1-1-2.8-1.2-3.8h-0.9
					c-0.2,1,0.6,3.9-1.1,3.8c-1.8,0.1-1-2.8-1.2-3.8h-0.9v4.6h0.9V433c0.8,0.9,2.5,0.8,3-0.3C966.5,433.5,967.8,433.8,968.7,433.3
					L968.7,433.3z"/>
				<path class="st21" d="M970.8,434.3c-0.6,0.5,0.3,1.4,0.8,0.9C972.2,434.6,971.4,433.7,970.8,434.3z M971.7,433.5v-4.6h-0.9v4.6
					H971.7z"/>
			</g>
		</g>
		<g class="st30">
			<g>
				<g>
					<g>
						<defs>
							<path id="SVGID_00000020368104830562505300000001782365614573655442_" d="M342,293.4c66.5-7.1,269.4-7.1,335.8,0H342z"/>
						</defs>
						<clipPath id="SVGID_00000048501264166269413400000013206197085862741660_">
							<use xlink:href="#SVGID_00000020368104830562505300000001782365614573655442_"  style="overflow:visible;"/>
						</clipPath>
						<g style="clip-path:url(#SVGID_00000048501264166269413400000013206197085862741660_);">
							<g>
								<path class="st32" d="M613.1,290c-61.7,0.8,27.1,3.2,41,1.9c-0.7-0.1-5.3-0.5-5.7-0.6c1.4-0.2,3-0.1,4.5-0.1
									c1.7-0.3-26.4-0.1-27.2-0.1c-0.3,0-1.1,0-0.9,0c4.5,0.2,9.3,0,13.7,0.7c-10.5,0-21.5,0.7-31.8-1.3
									c11.5-1.1,23.6,0.1,35.1,0.1c-2.6-0.3-7.9-0.9-10.5-0.7c-0.2,0-0.2,0.1-0.4,0.1C625.1,290.1,619,289.9,613.1,290"/>
								<path class="st32" d="M560.6,291.9c-5.2-0.3-11.5,0.5-16-1.2C550.8,288.8,586.5,291.6,560.6,291.9 M555.1,289.9
									c-8.7,0.3-18.4-0.6-26.4,1c16.7,1.9,34.9,1.1,51.7,0.9C601.9,290.6,559.4,289.7,555.1,289.9"/>
								<path class="st32" d="M501.8,290h-25.6c-0.5,0-1,0-1.5,0.1c2,0.1,4.3,0,6.3,0.1c0.2,0,0.2,0.1,0,0.1l-3.1,1.3
									c-2.3,0.5-4.9,0.2-7.2,0.3c-0.4,0-2.1,0-1.5,0.1c1.1,0,49.9,0,51,0c0.4,0,1,0,1.4,0l1.2-0.8c-0.2-0.1-0.3,0-0.5,0
									c-1.2,0-2.8,0-4,0c-7.8,1-16,0.5-23.9,0.6c-0.2,0-0.9,0.1-0.7-0.2c0.4-0.3,1.5-1.5,2.1-1.4c2.3-0.1,4.8,0,7.1-0.1
									C502.8,289.9,502.2,290,501.8,290"/>
								<path class="st32" d="M473.5,289c-26.4,0.3-105.3,3.9-131.5,4.4c12.8,0,32,0.1,44.9,0c0.7-0.4-6.2-0.3-8.5-0.4
									c15.6-0.8,55-2.5,70,0c-5.1,0.1-8.3,0-12,0.4c12.1,0.1,33.1,0,45.4,0c-8.8-0.3-35.4-1.9-44.6-2.7L480,289
									C478,289,475.7,289,473.5,289 M406.1,289c-2.9,0-6.2,0-8.9,0.1c7.7,0.8,24.9,2,32.5,1.1C423.6,289.8,412,288.8,406.1,289"/>
							</g>
						</g>
					</g>
				</g>
			</g>
		</g>
	</g>
	<g>
		<g>
			<polygon class="st33" points="639.5,562.2 639.5,566.8 607.4,568.4 607.4,562.2 			"/>
			<rect x="410.9" y="562.2" class="st3" width="196.5" height="6.3"/>
			<polygon class="st33" points="410.9,562.2 410.9,568.4 378.9,566.8 377.2,566.8 377.2,562.2 			"/>
		</g>
		<g>
			<path class="st34" d="M606.6,568.4c0,0.8-3.3,74.8-3.5,78.2H413.6c-0.2-3.8-3.5-77-3.5-78.2H606.6z"/>
			<polygon class="st35" points="413.6,646.6 382.6,640.5 378,566.8 410.1,568.4 			"/>
			<polygon class="st35" points="638.7,566.8 634.1,640.5 603.1,646.6 606.6,568.4 			"/>
			<polygon class="st36" points="638.7,566.8 638.6,568.1 606.6,571.4 606.6,568.4 			"/>
			<polygon class="st36" points="378,566.8 378.1,568.1 410.1,571.4 410.1,568.4 			"/>
			<polygon class="st37" points="603.1,646.6 599.7,655.8 417,655.8 413.6,646.6 			"/>
			<polygon class="st38" points="413.6,646.6 382.6,640.5 389.7,649.8 417,655.8 			"/>
			<polygon class="st38" points="599.7,655.8 627,649.8 634.1,640.5 603.1,646.6 			"/>
			<path class="st34" d="M379.7,558H637c2.2,0,2.7,2.4,2.4,4.1H377.3C377.1,560.4,377.5,558,379.7,558L379.7,558z"/>
			<g>
				<g>
					<polygon class="st39" points="610.6,653.2 609.5,653.4 617.3,643.7 619.4,643.3 					"/>
					<polygon class="st39" points="633.7,610.9 632.5,640.7 630.5,641.1 631.6,611.3 					"/>
					<polygon class="st39" points="623.7,650.5 622.6,650.8 630.5,641.1 632.5,640.7 					"/>
					<path class="st39" d="M620.5,613.2c0,0.5-1.1,29.7-1.1,30.1l-2,0.4l1.1-30.2L620.5,613.2L620.5,613.2z"/>
					<g>
						<polygon class="st39" points="615.7,652 616.9,651.8 626.5,641.7 624.5,642.1 						"/>
						<path class="st39" d="M627.3,612.1l-0.7,29.6l-2,0.4l0.7-29.6L627.3,612.1L627.3,612.1z"/>
					</g>
				</g>
				<g>
					<polygon class="st39" points="406.1,653.2 407.3,653.4 399.4,643.7 397.3,643.3 					"/>
					<polygon class="st39" points="383.1,610.9 384.2,640.7 386.2,641.1 385.1,611.3 					"/>
					<polygon class="st39" points="393,650.5 394.1,650.8 386.2,641.1 384.2,640.7 					"/>
					<path class="st39" d="M396.2,613.2c0,0.5,1.1,29.7,1.1,30.1l2,0.4l-1.1-30.2L396.2,613.2L396.2,613.2z"/>
					<g>
						<polygon class="st39" points="401,652 399.8,651.8 390.2,641.7 392.2,642.1 						"/>
						<path class="st39" d="M389.5,612.1l0.7,29.6l2,0.4l-0.7-29.6L389.5,612.1L389.5,612.1z"/>
					</g>
				</g>
			</g>
			<line class="st40" x1="627.7" y1="612.1" x2="625.6" y2="612.5"/>
			<path class="st41" d="M490.2,621.4c0.1,5.3-8.3,5.3-8.2,0C482,616.1,490.3,616.1,490.2,621.4z"/>
			<path class="st42" d="M423.4,596.2h38.8c1.7,0,3,1.3,3,3v26.3c0,1.7-1.3,3-3,3h-38.8c-1.7,0-3-1.3-3-3v-26.3
				C420.4,597.5,421.7,596.2,423.4,596.2z"/>
			<g>
				<polygon class="st41" points="446,600.2 446,596.2 439.5,596.2 439.5,600.2 424.7,600.2 424.7,624.5 460.9,624.5 460.9,600.2 
									"/>
				<path class="st42" d="M432.1,606.8h-1.8V618h1.8v-2.8h2.5v-5.6h-2.5V606.8L432.1,606.8z"/>
				<path class="st42" d="M453.4,606.8v2.8h-2.5v5.6h2.5v2.8h1.8v-11.2L453.4,606.8L453.4,606.8z"/>
				<path class="st42" d="M442.8,608.1c-5.5-0.1-5.5,8.6,0,8.5C448.3,616.7,448.3,608,442.8,608.1z"/>
			</g>
			<path class="st43" d="M506.7,595.8h45.5c1.7,0,3,1.3,3,3v33.4c0,1.7-1.3,3-3,3h-45.5c-1.7,0-3-1.3-3-3v-33.4
				C503.7,597.2,505.1,595.8,506.7,595.8z"/>
			<path class="st41" d="M566.7,597.1h25.4c1.7,0,3,1.3,3,3v32.1c0,1.7-1.3,3-3,3h-25.4c-1.7,0-3-1.3-3-3v-32.1
				C563.7,598.4,565.1,597.1,566.7,597.1z"/>
			<polygon class="st44" points="548.5,606.7 542.1,606.7 542.1,603.3 538.8,603.3 538.8,600 535.8,600 535.8,595.8 523.2,595.8 
				523.2,600 520.2,600 520.2,603.3 516.9,603.3 516.9,606.7 510.5,606.7 510.5,626 516.9,626 516.9,629.3 542.1,629.3 542.1,626 
				548.5,626 			"/>
			<g>
				<rect x="540.5" y="611.7" class="st45" width="1.2" height="13.4"/>
				<rect x="537.6" y="611.7" class="st45" width="1.2" height="13.4"/>
				<rect x="534.7" y="611.7" class="st45" width="1.2" height="13.4"/>
				<rect x="531.8" y="611.7" class="st45" width="1.2" height="13.4"/>
				<rect x="528.9" y="611.7" class="st45" width="1.2" height="13.4"/>
				<rect x="526" y="611.7" class="st45" width="1.2" height="13.4"/>
				<rect x="523" y="611.7" class="st45" width="1.2" height="13.4"/>
				<rect x="520.1" y="611.7" class="st45" width="1.2" height="13.4"/>
				<rect x="517.2" y="611.7" class="st45" width="1.2" height="13.4"/>
			</g>
			<path d="M590.3,612.6c-0.1,14.3-21.8,14.3-21.8,0C568.6,598.3,590.3,598.3,590.3,612.6z"/>
			<path class="st1" d="M582.3,612.6c0,3.7-5.8,3.7-5.7,0C576.5,608.9,582.3,608.9,582.3,612.6z"/>
			<g>
				<rect x="418.8" y="655.8" class="st46" width="17.5" height="5.4"/>
				<rect x="580.4" y="655.8" class="st46" width="17.5" height="5.4"/>
			</g>
			<g>
				<path class="st47" d="M573.7,579.7c1.7-0.1,1.8,1.5,1.8,2.9c0.1,1.8-1.5,2.1-2.9,2v3.4H572v-8.2L573.7,579.7L573.7,579.7z
					 M573.5,584.1c1.4,0.1,1.4-1.3,1.4-2.4c0.2-1.5-1.3-1.5-2.4-1.5v3.8h1V584.1z"/>
				<path class="st47" d="M578.2,587.9h-0.8l-1.3-8.2h0.5l1.2,7.5l1.2-7.5h0.6l1.2,7.4l1.2-7.5h0.5l-1.3,8.2h-0.7l-1.1-6.7
					L578.2,587.9L578.2,587.9z"/>
				<path class="st47" d="M585,579.7c2.3-0.3,2.4,3.9,0.6,4.3c1.9,0.3,0.8,2.7,1.4,3.9h-0.6c-0.5-2,0.6-4.1-2.6-3.7v3.7h-0.5v-8.2
					H585L585,579.7z M584.7,583.8c1.4,0.2,1.6-1,1.5-2.2c0.1-1.5-1.3-1.5-2.4-1.4v3.5L584.7,583.8L584.7,583.8z"/>
			</g>
			<g>
				<path class="st47" d="M523.2,587.9v-8.2h0.5v7.7h2.6v0.5H523.2L523.2,587.9z"/>
				<path class="st47" d="M527.9,586.1l-0.4,1.8H527l1.8-8.2h0.8l1.8,8.2h-0.5l-0.4-1.8H527.9L527.9,586.1z M527.9,585.6h2.4
					l-1.2-5.3L527.9,585.6z"/>
				<path class="st47" d="M532.7,587.9h-0.5v-8.2h0.7l2.5,6.9v-6.9h0.5v8.2h-0.6l-2.6-7.3L532.7,587.9L532.7,587.9z"/>
			</g>
			<g>
				<path class="st47" d="M481.8,579.7c2.3-0.3,2.4,3.9,0.6,4.3c1.9,0.3,0.8,2.7,1.4,3.9h-0.6c-0.5-2,0.6-4.1-2.6-3.7v3.7H480v-8.2
					H481.8L481.8,579.7z M481.5,583.8c1.4,0.2,1.6-1,1.5-2.2c0.1-1.5-1.3-1.5-2.4-1.4v3.5L481.5,583.8L481.5,583.8z"/>
				<path class="st47" d="M488,581.7v0.2h-0.5c0.4-2.1-2.6-2.4-2.4-0.2c0,2,3,2,3,4.3c0.2,3-4.2,2.5-3.5-0.4h0.5
					c-0.5,2.2,2.6,2.8,2.5,0.5c0-2-3-2-3-4.3C484.3,579,488.3,579,488,581.7L488,581.7z"/>
				<path class="st47" d="M490.3,587.9v-7.7h-1.7v-0.5h3.9v0.5h-1.7v7.7H490.3L490.3,587.9z"/>
			</g>
			<g>
				<path class="st47" d="M438.3,579.7c1.7-0.1,1.8,1.5,1.8,2.9c0.1,1.8-1.5,2.1-2.9,2v3.4h-0.5v-8.2L438.3,579.7L438.3,579.7z
					 M438.1,584.1c1.4,0.1,1.4-1.3,1.4-2.4c0.2-1.5-1.3-1.5-2.4-1.5v3.8h1V584.1z"/>
				<path class="st47" d="M440.8,581.7c-0.3-2.7,3.9-2.7,3.6,0c-0.3,1.6,1,6.4-1.8,6.3C439.8,588.1,441.1,583.3,440.8,581.7
					L440.8,581.7z M441.4,585.9c-0.2,2,2.7,2,2.5,0c-0.3-1.2,0.9-5.9-1.3-5.8C440.4,580,441.7,584.7,441.4,585.9L441.4,585.9z"/>
				<path class="st47" d="M445.8,587.9h-0.5v-8.2h0.7l2.5,6.9v-6.9h0.5v8.2h-0.6l-2.6-7.3V587.9L445.8,587.9z"/>
			</g>
			<polygon class="st48" points="606.6,568.4 606.6,571.4 410.1,571.4 410.1,568.4 			"/>
		</g>
		<g class="st49">
			<g>
				<polygon class="st33" points="639.5,756.7 639.5,752.1 607.4,750.5 607.4,756.7 				"/>
				<rect x="410.9" y="750.5" class="st3" width="196.5" height="6.3"/>
				<polygon class="st33" points="410.9,756.7 410.9,750.5 378.9,752 377.2,752.1 377.2,756.7 				"/>
			</g>
			<g>
				<path class="st34" d="M606.6,750.5c0-0.8-3.3-74.8-3.5-78.2H413.6c-0.2,3.8-3.5,77-3.5,78.2H606.6z"/>
				<polygon class="st35" points="413.6,672.3 382.6,678.4 378,752 410.1,750.5 				"/>
				<polygon class="st35" points="638.7,752.1 634.1,678.4 603.1,672.3 606.6,750.5 				"/>
				<polygon class="st36" points="638.7,752.1 638.6,750.8 606.6,747.5 606.6,750.5 				"/>
				<polygon class="st36" points="378,752.1 378.1,750.8 410.1,747.5 410.1,750.5 				"/>
				<polygon class="st37" points="603.1,672.3 599.7,663 417,663 413.6,672.3 				"/>
				<polygon class="st38" points="413.6,672.3 382.6,678.4 389.7,669.1 417,663 				"/>
				<polygon class="st38" points="599.7,663 627,669.1 634.1,678.4 603.1,672.3 				"/>
				<path class="st34" d="M379.7,760.9H637c2.2,0,2.7-2.4,2.4-4.1H377.3C377.1,758.5,377.5,760.9,379.7,760.9L379.7,760.9z"/>
				<g>
					<g>
						<polygon class="st39" points="610.6,665.7 609.5,665.4 617.3,675.2 619.4,675.5 						"/>
						<polygon class="st39" points="633.7,708 632.5,678.2 630.5,677.8 631.6,707.6 						"/>
						<polygon class="st39" points="623.7,668.3 622.6,668.1 630.5,677.8 632.5,678.2 						"/>
						<path class="st39" d="M620.5,705.7c0-0.5-1.1-29.7-1.1-30.1l-2-0.4l1.1,30.2L620.5,705.7L620.5,705.7z"/>
						<g>
							<polygon class="st39" points="615.7,666.9 616.9,667.1 626.5,677.2 624.5,676.8 							"/>
							<path class="st39" d="M627.3,706.8l-0.7-29.6l-2-0.4l0.7,29.6L627.3,706.8L627.3,706.8z"/>
						</g>
					</g>
					<g>
						<polygon class="st39" points="406.1,665.7 407.3,665.4 399.4,675.2 397.3,675.5 						"/>
						<polygon class="st39" points="383.1,708 384.2,678.2 386.2,677.8 385.1,707.6 						"/>
						<polygon class="st39" points="393,668.3 394.1,668.1 386.2,677.8 384.2,678.2 						"/>
						<path class="st39" d="M396.2,705.7c0-0.5,1.1-29.7,1.1-30.1l2-0.4l-1.1,30.2L396.2,705.7L396.2,705.7z"/>
						<g>
							<polygon class="st39" points="401,666.9 399.8,667.1 390.2,677.2 392.2,676.8 							"/>
							<path class="st39" d="M389.5,706.8l0.7-29.6l2-0.4l-0.7,29.6L389.5,706.8L389.5,706.8z"/>
						</g>
					</g>
				</g>
				<line class="st40" x1="627.7" y1="706.8" x2="625.6" y2="706.4"/>
				<path class="st41" d="M490.2,697.5c0.1-5.3-8.3-5.3-8.2,0C482,702.8,490.3,702.8,490.2,697.5z"/>
				<path class="st42" d="M423.4,690.4h38.8c1.7,0,3,1.3,3,3v26.3c0,1.7-1.3,3-3,3h-38.8c-1.7,0-3-1.3-3-3v-26.3
					C420.4,691.7,421.7,690.4,423.4,690.4z"/>
				<g>
					<polygon class="st41" points="446,718.7 446,722.7 439.5,722.7 439.5,718.7 424.7,718.7 424.7,694.4 460.9,694.4 460.9,718.7 
											"/>
					<path class="st42" d="M432.1,712.1h-1.8V701h1.8v2.8h2.5v5.6h-2.5V712.1L432.1,712.1z"/>
					<path class="st42" d="M453.4,712.1v-2.8h-2.5v-5.6h2.5V701h1.8v11.2L453.4,712.1L453.4,712.1z"/>
					<path class="st42" d="M442.8,710.8c-5.5,0.1-5.5-8.6,0-8.5C448.3,702.2,448.3,710.9,442.8,710.8z"/>
				</g>
				<path class="st43" d="M506.7,683.7h45.5c1.7,0,3,1.3,3,3v33.4c0,1.7-1.3,3-3,3h-45.5c-1.7,0-3-1.3-3-3v-33.4
					C503.7,685,505.1,683.7,506.7,683.7z"/>
				<path class="st41" d="M566.7,683.7h25.4c1.7,0,3,1.3,3,3v32.1c0,1.7-1.3,3-3,3h-25.4c-1.7,0-3-1.3-3-3v-32.1
					C563.7,685,565.1,683.7,566.7,683.7z"/>
				<polygon class="st44" points="548.5,712.2 542.1,712.2 542.1,715.5 538.8,715.5 538.8,718.9 535.8,718.9 535.8,723.1 
					523.2,723.1 523.2,718.9 520.2,718.9 520.2,715.5 516.9,715.5 516.9,712.2 510.5,712.2 510.5,692.9 516.9,692.9 516.9,689.6 
					542.1,689.6 542.1,692.9 548.5,692.9 				"/>
				<g>
					<rect x="540.5" y="693.8" class="st45" width="1.2" height="13.4"/>
					<rect x="537.6" y="693.8" class="st45" width="1.2" height="13.4"/>
					<rect x="534.7" y="693.8" class="st45" width="1.2" height="13.4"/>
					<rect x="531.8" y="693.8" class="st45" width="1.2" height="13.4"/>
					<rect x="528.9" y="693.8" class="st45" width="1.2" height="13.4"/>
					<rect x="526" y="693.8" class="st45" width="1.2" height="13.4"/>
					<rect x="523" y="693.8" class="st45" width="1.2" height="13.4"/>
					<rect x="520.1" y="693.8" class="st45" width="1.2" height="13.4"/>
					<rect x="517.2" y="693.8" class="st45" width="1.2" height="13.4"/>
				</g>
				<path d="M590.3,706.3c-0.1-14.3-21.8-14.3-21.8,0C568.6,720.5,590.3,720.5,590.3,706.3z"/>
				<path class="st1" d="M582.3,706.3c0-3.7-5.8-3.7-5.7,0C576.5,710,582.3,710,582.3,706.3z"/>
				<g>
					<rect x="418.8" y="657.7" class="st46" width="17.5" height="5.4"/>
					<rect x="580.4" y="657.7" class="st46" width="17.5" height="5.4"/>
				</g>
				<g>
					<path class="st47" d="M573.7,739.2c1.7,0.1,1.8-1.5,1.8-2.9c0.1-1.8-1.5-2.1-2.9-2v-3.4H572v8.2L573.7,739.2L573.7,739.2z
						 M573.5,734.8c1.4-0.1,1.4,1.3,1.4,2.4c0.2,1.5-1.3,1.5-2.4,1.5v-3.8h1V734.8z"/>
					<path class="st47" d="M578.2,731h-0.8l-1.3,8.2h0.5l1.2-7.5l1.2,7.5h0.6l1.2-7.4l1.2,7.5h0.5l-1.3-8.2h-0.7l-1.1,6.7L578.2,731
						L578.2,731z"/>
					<path class="st47" d="M585,739.2c2.3,0.3,2.4-3.9,0.6-4.3c1.9-0.3,0.8-2.7,1.4-3.9h-0.6c-0.5,2,0.6,4.1-2.6,3.7V731h-0.5v8.2
						H585L585,739.2z M584.7,735.1c1.4-0.2,1.6,1,1.5,2.2c0.1,1.5-1.3,1.5-2.4,1.4v-3.5L584.7,735.1L584.7,735.1z"/>
				</g>
				<g>
					<path class="st47" d="M523.2,731v8.2h0.5v-7.7h2.6V731H523.2L523.2,731z"/>
					<path class="st47" d="M527.9,732.8l-0.4-1.8H527l1.8,8.2h0.8l1.8-8.2h-0.5l-0.4,1.8H527.9L527.9,732.8z M527.9,733.2h2.4
						l-1.2,5.3L527.9,733.2z"/>
					<path class="st47" d="M532.7,731h-0.5v8.2h0.7l2.5-6.9v6.9h0.5V731h-0.6l-2.6,7.3L532.7,731L532.7,731z"/>
				</g>
				<g>
					<path class="st47" d="M481.8,739.2c2.3,0.3,2.4-3.9,0.6-4.3c1.9-0.3,0.8-2.7,1.4-3.9h-0.6c-0.5,2,0.6,4.1-2.6,3.7V731H480v8.2
						H481.8L481.8,739.2z M481.5,735.1c1.4-0.2,1.6,1,1.5,2.2c0.1,1.5-1.3,1.5-2.4,1.4v-3.5L481.5,735.1L481.5,735.1z"/>
					<path class="st47" d="M488,737.2V737h-0.5c0.4,2.1-2.6,2.4-2.4,0.2c0-2,3-2,3-4.3c0.2-3-4.2-2.5-3.5,0.4h0.5
						c-0.5-2.2,2.6-2.8,2.5-0.5c0,2-3,2-3,4.3C484.3,739.9,488.3,739.8,488,737.2L488,737.2z"/>
					<path class="st47" d="M490.3,731v7.7h-1.7v0.5h3.9v-0.5h-1.7V731H490.3L490.3,731z"/>
				</g>
				<g>
					<path class="st47" d="M438.3,739.2c1.7,0.1,1.8-1.5,1.8-2.9c0.1-1.8-1.5-2.1-2.9-2v-3.4h-0.5v8.2L438.3,739.2L438.3,739.2z
						 M438.1,734.8c1.4-0.1,1.4,1.3,1.4,2.4c0.2,1.5-1.3,1.5-2.4,1.5v-3.8h1V734.8z"/>
					<path class="st47" d="M440.8,737.2c-0.3,2.7,3.9,2.7,3.6,0c-0.3-1.6,1-6.4-1.8-6.3C439.8,730.8,441.1,735.6,440.8,737.2
						L440.8,737.2z M441.4,732.9c-0.2-2,2.7-2,2.5,0c-0.3,1.2,0.9,5.9-1.3,5.8C440.4,738.8,441.7,734.1,441.4,732.9L441.4,732.9z"/>
					<path class="st47" d="M445.8,731h-0.5v8.2h0.7l2.5-6.9v6.9h0.5V731h-0.6l-2.6,7.3V731L445.8,731z"/>
				</g>
				<polygon class="st48" points="606.6,750.5 606.6,747.5 410.1,747.5 410.1,750.5 				"/>
			</g>
		</g>
	</g>
	<path class="st50" d="M359.1,277.7c-1.4,0-2.5-1.1-2.5-2.5v-77.9h5v77.9C361.6,276.6,360.5,277.7,359.1,277.7z"/>
	<g>
		<polygon class="st50" points="379.5,213.9 375.9,217.3 359.1,199.2 342.3,217.3 338.7,213.9 359.1,191.9 		"/>
		<polygon class="st50" points="379.5,213.9 375.9,217.3 359.1,199.2 342.3,217.3 338.7,213.9 359.1,191.9 		"/>
	</g>
	<path class="st50" d="M403.4,110.4c-2.5-1.5-6.3,0-6.6,3.1h8.6C405.2,112.2,404.5,111.1,403.4,110.4z"/>
	<path class="st50" d="M346.5,110.4c-2.5-1.5-6.3,0-6.6,3.1h8.6C348.4,112.2,347.6,111.1,346.5,110.4z"/>
	<path class="st50" d="M436,88.3c1.1-32.5-35.8-55.3-64.3-40.3c-23.2-39.2-87.3-23.1-88.6,23c-52.5,5.8-48.3,85.7,5,85.6h145.1
		c18.9,0,34.2-15.3,34.2-34.2S453.6,89.8,436,88.3L436,88.3z M295.2,123.8H290v-22.7h5.2V123.8z M318.1,123.8H313
		c-0.7-3.2,2.2-13.6-3.5-13.3c-6.3-0.3-3.7,9.7-4.2,13.3h-5.1v-17.4h4.8v2.1c3-3.4,9.8-3.2,12.1,1
		C318.8,111.9,317.9,120.8,318.1,123.8L318.1,123.8z M332,123.7c-9.5,2.2-9.1-6.5-8.8-13.2h-2.7v-3.9h2.7v-4.2h5.1v4.2h4.3v3.9h-4.3
		c0.2,2.7-1.5,12.3,4.2,8.8l1.4,3.6C333.4,123.3,332.8,123.5,332,123.7z M353.3,115.8c0,0.2,0,0.5-0.1,0.7H340
		c0.8,4.1,6.8,4.5,9.4,1.8l2.7,2.9c-7.1,7.6-21.8-1-15.9-10.8C340.7,102.5,354.6,106.1,353.3,115.8L353.3,115.8z M367.5,110.7
		c-7.6-1.6-5.5,8.6-5.8,13h-5.1v-17.4h4.8v2.3c1.4-1.9,3.5-2.6,6-2.6C367.5,106.1,367.5,110.7,367.5,110.7z M388.3,123.8h-5.1
		c-0.7-3.2,2.2-13.6-3.5-13.3c-6.3-0.3-3.7,9.7-4.2,13.3h-5.1v-17.4h4.8v2.1c3-3.4,9.8-3.2,12.1,1
		C389,111.9,388.1,120.8,388.3,123.8L388.3,123.8z M410.1,115.8c0,0.2,0,0.5-0.1,0.7h-13.2c0.8,4.1,6.8,4.5,9.4,1.8l2.7,2.9
		c-7.1,7.6-21.8-1-15.9-10.8C397.5,102.5,411.4,106.1,410.1,115.8L410.1,115.8z M422.9,123.7c-9.5,2.2-9.1-6.5-8.8-13.2h-2.7v-3.9
		h2.7v-4.2h5.1v4.2h4.3v3.9h-4.3c0.2,2.7-1.5,12.3,4.2,8.8l1.4,3.6C424.2,123.3,423.6,123.5,422.9,123.7z"/>
	<path class="st50" d="M374.3,39c8-2.8,16.9-3.6,25.3-2.3c-10.6-16.2-34-23.9-52.6-16.2C357.7,23.7,367.2,30.1,374.3,39L374.3,39z"
		/>
	<path class="st50" d="M276.5,64.8c4.3-30.1,34.3-51.6,64.6-45.7c-24.3-35.8-86-17.9-86.5,26.1c-41.1,3.8-51.9,62.2-15.3,80.5
		C232.4,99,249.9,70.6,276.5,64.8L276.5,64.8z"/>
	<g>
		<path class="st0" d="M492.1,481.3v-17c2.5,0.1,8.3-0.5,10.5,0.7c4.4,1.7,4.4,8.7,0,10.5c-2,1.1-6.8,0.6-9.1,0.7l1.1-1.1v6.3
			L492.1,481.3L492.1,481.3z M494.5,475.2l-1.1-1.2c3.3-0.2,10.1,1.2,10-3.8c0.1-5-6.7-3.6-10-3.8l1.1-1.2V475.2L494.5,475.2z"/>
		<path class="st0" d="M509.4,481.3v-17c2.5,0.1,8.3-0.5,10.5,0.7c4.4,1.7,4.4,8.7,0,10.5c-2,1.1-6.8,0.6-9.1,0.7l1.1-1.1v6.3
			L509.4,481.3L509.4,481.3z M511.9,475.2l-1.1-1.2c3.3-0.2,10.1,1.2,10-3.8c0.2-5-6.7-3.6-10-3.8l1.1-1.2V475.2L511.9,475.2z"/>
		<path class="st0" d="M526.8,481.3v-17c2.5,0.1,8.3-0.5,10.5,0.7c4.4,1.7,4.4,8.7,0,10.5c-2,1.1-6.8,0.6-9.1,0.7l1.1-1.1v6.3
			L526.8,481.3L526.8,481.3z M529.2,475.2l-1.1-1.2c3.3-0.2,10.1,1.2,10-3.8c0.2-5-6.7-3.6-10-3.8l1.1-1.2V475.2L529.2,475.2z"/>
		<path class="st0" d="M552,481.5c-11.8,0.5-11.8-17.9,0-17.4C563.8,463.5,563.8,482,552,481.5z M552,479.3c8.6,0.3,8.6-13.4,0-13.1
			C543.4,465.9,543.4,479.6,552,479.3z"/>
		<path class="st0" d="M567.2,479.1h9.9v2.1h-12.4v-17h12v2.1h-9.6L567.2,479.1L567.2,479.1z M567,471.6h8.8v2.1H567V471.6z"/>
		<path class="st0" d="M587.6,481.3v-17c2.8,0.2,10-0.7,12.2,1.2c3.3,2.4,1,7.9-3,7.5l0.4-0.7c4.3-0.5,6.9,5.2,3.4,7.9
			C598.4,482,590.6,481,587.6,481.3L587.6,481.3z M590.1,479.3c2.7-0.4,9.7,1.4,9.8-2.8c0-4.4-7.2-2.4-10-2.9v-2
			c2.6-0.3,9,1.3,9.1-2.7c-0.1-4-6.3-2.4-8.9-2.7L590.1,479.3L590.1,479.3z"/>
		<path class="st0" d="M609.5,481.4c-6.4,0.4-6.1-8.4,0.4-7.6h4.1v1.7c-13.1-1.5-4.7,8.6-0.4,1.8l0.5,1.6
			C613.3,480.7,611.5,481.4,609.5,481.4L609.5,481.4z M613.7,481.3c0-1.9-0.2-5.9-0.1-7.9c0.1-4-5.3-3.6-7.5-1.7l-1-1.8
			c11.3-5.5,11.3,2.7,10.8,11.4H613.7L613.7,481.3z"/>
		<path class="st0" d="M625.6,480.7c-8.5,0.4-8.5-12.9,0-12.5C633.6,467.7,633.6,481.2,625.6,480.7z M625.9,486.1
			c-2.1,0-4.6-0.6-6.2-1.9l1.1-1.8c5.3,3.6,10.5,1.7,9.4-5.4c0.4-2.5,0-6.1,0.1-8.7h2.2C632,473.9,635.4,487,625.9,486.1
			L625.9,486.1z M625.9,478.7c5.8,0.3,5.8-8.7,0-8.4C620.1,469.9,620.1,479,625.9,478.7z M626.1,466.6c-2,0-3.9-1.2-3.9-3.3h1.6
			c0.1,2.6,4.7,2.6,4.7,0h1.6C630,465.5,628.1,466.6,626.1,466.6z"/>
		<path class="st0" d="M637.1,481.3v-18.1h2.3v18.1H637.1z"/>
		<path class="st0" d="M647.6,481.4c-6.4,0.4-6.1-8.4,0.4-7.6h4.1v1.7c-13.1-1.5-4.7,8.6-0.4,1.8l0.5,1.6
			C651.4,480.7,649.7,481.4,647.6,481.4L647.6,481.4z M651.9,481.3c0-1.9-0.2-5.9-0.1-7.9c0.1-4-5.3-3.6-7.5-1.7l-1-1.8
			c11.3-5.5,11.3,2.7,10.8,11.4H651.9L651.9,481.3z"/>
		<path class="st0" d="M665.3,468.2c6.9-0.4,5.2,8.7,5.3,13h-2.3c-0.5-3,1.8-11.3-3.5-10.9c-5.6-0.4-3.8,7.5-4.1,10.9h-2.3v-12.9
			h2.2v3.5l-0.4-0.9C661.2,469.1,663.2,468.2,665.3,468.2L665.3,468.2z"/>
		<path class="st0" d="M673.1,470.3v-1.9h8.2v1.9H673.1z M679.4,481.4c-6.7,0.6-3.3-12.3-4.1-15.9h2.3v11.7
			c-0.2,2.2,2.5,2.7,3.8,1.6l0.7,1.7C681.5,481.1,680.4,481.4,679.4,481.4L679.4,481.4z"/>
		<path class="st0" d="M685.1,481.3v-12.9h2.3v12.9H685.1z"/>
	</g>
	<g>
		<g>
			<g>
				<path class="st51" d="M440.5,352.8h19.2c1.5,0,2.7,1.2,2.7,2.7v14.9c0,1.5-1.2,2.7-2.7,2.7h-19.2c-1.5,0-2.7-1.2-2.7-2.7v-14.9
					C437.8,354,439,352.8,440.5,352.8z"/>
				<path class="st52" d="M441.7,354.7h16.9c1.5,0,2.7,1.2,2.7,2.7v13c0,1.5-1.2,2.7-2.7,2.7h-16.9c-1.5,0-2.7-1.2-2.7-2.7v-13
					C439,355.9,440.2,354.7,441.7,354.7z"/>
			</g>
			<g>
				<path class="st51" d="M441.3,357.7c0.3-0.7,1.4-1.3,2.7-1.3c2.1-0.1,15-0.5,14.9,1.3c0.7,0.2,1.3,1.2,1.3,2.4s0.3,10.5-0.4,11.2
					c-0.2,1-1.1,1.9-2.3,1.8c-1-0.1-14,0.3-15.6-0.3c-1.1-0.4-2.1-1.2-2-2.4S439.1,357.6,441.3,357.7L441.3,357.7z"/>
				<path class="st52" d="M443.6,357.9c1.2,0.2,14.5-1,14.4,1.4c0.7,0.3,1.3,1.2,1.3,2.4c0,1.1,0.2,9-0.4,9.7
					c-0.2,1-1.1,1.9-2.3,1.7c-1.2-0.2-14.5,1-14.4-1.4c-0.7-0.3-1.3-1.2-1.3-2.4c0-1.1-0.2-9,0.4-9.7
					C441.5,358.7,442.5,357.8,443.6,357.9z"/>
			</g>
			<g>
				<path class="st51" d="M455.5,373.1c-2.4-0.6-13.6,1.9-13.3-2.7c0.5-2.4-1.7-10.7,2.7-10.5c2.4,0.6,13.6-1.9,13.3,2.7
					C457.6,365,459.9,373.3,455.5,373.1z"/>
				<path class="st52" d="M454.7,373.1c-2.4-0.6-12,1.9-11.8-2.7c0.4-2.3-1.5-9.4,2.7-9.3c2.4,0.6,12-1.9,11.8,2.7
					C457,366.2,458.9,373.3,454.7,373.1z"/>
			</g>
		</g>
		<rect x="447.1" y="356.8" class="st52" width="6.1" height="2.1"/>
		<rect x="447.1" y="346" class="st51" width="6.1" height="10.8"/>
	</g>
	<g>
		<g>
			<g>
				<path class="st51" d="M512.9,603h33c1.5,0,2.7,1.2,2.7,2.7v21.1c0,1.5-1.2,2.7-2.7,2.7h-33c-1.5,0-2.7-1.2-2.7-2.7v-21.1
					C510.2,604.2,511.4,603,512.9,603z"/>
				<path class="st52" d="M514.7,605.5h29.4c1.5,0,2.7,1.2,2.7,2.7v18.6c0,1.5-1.2,2.7-2.7,2.7h-29.4c-1.5,0-2.7-1.2-2.7-2.7v-18.6
					C512,606.7,513.2,605.5,514.7,605.5z"/>
			</g>
			<g>
				<path class="st51" d="M516.3,607.6h26.3c1.5,0,2.7,1.2,2.7,2.7v16.5c0,1.5-1.2,2.7-2.7,2.7h-26.3c-1.5,0-2.7-1.2-2.7-2.7v-16.5
					C513.6,608.8,514.8,607.6,516.3,607.6z"/>
				<path class="st52" d="M516.4,611c0-0.8,1-1.3,2.3-1.3c1.7,0,19.7,0,21.4,0c1.3,0,2.3,0.6,2.3,1.3c0.8,0,1.4,3.2,1.3,3.9
					c-0.1,0.9,0.2,10.6-0.1,12.2c-0.3,1.4-1.2,2.4-2.6,2.4h-23.3c-1.4,0-2.4-1-2.7-2.3c0-0.1-0.1-0.7-0.1-0.9
					C515.2,625.1,514.1,610.9,516.4,611L516.4,611z"/>
			</g>
			<g>
				<path class="st51" d="M519.6,612.2h19.6c1.5,0,2.7,1.2,2.7,2.7v11.9c0,1.5-1.2,2.7-2.7,2.7h-19.6c-1.5,0-2.7-1.2-2.7-2.7v-11.9
					C516.9,613.4,518.1,612.2,519.6,612.2z"/>
				<path class="st52" d="M538,629.5h-17.3c-1.5,0-2.7-1.2-2.7-2.7c0.6-2.4-1.9-13.2,2.7-13H538c1.5,0,2.7,1.2,2.7,2.7
					C540.1,619,542.7,629.8,538,629.5z"/>
			</g>
		</g>
		<rect x="524.7" y="608.2" class="st52" width="9.5" height="2.7"/>
		<rect x="524.7" y="594.1" class="st51" width="9.5" height="14.1"/>
	</g>
	<rect x="429.9" y="599.2" class="st53" width="25.4" height="25.4"/>
	<rect x="426.5" y="602.9" class="st54" width="32.2" height="17.9"/>
	<g>
		<g>
			<path class="st42" d="M450.9,616.3c0.2,10.8-16.8,10.8-16.6,0C434.1,605.5,451.1,605.5,450.9,616.3z"/>
			<path class="st54" d="M450.4,616.3c0.1,10.1-15.8,10.1-15.6,0C434.6,606.1,450.6,606.1,450.4,616.3z"/>
		</g>
		<g>
			<path class="st42" d="M450.1,616.3c0,9.8-15,9.8-15,0S450.1,606.5,450.1,616.3z"/>
			<path class="st54" d="M449.7,616.3c0,9.2-14.1,9.2-14.1,0S449.7,607.1,449.7,616.3z"/>
		</g>
		<g>
			<path class="st42" d="M449.3,616.3c0.1,8.7-13.6,8.7-13.5,0C435.7,607.5,449.4,607.5,449.3,616.3z"/>
			<path class="st54" d="M448.9,616.3c0.1,8.2-12.8,8.2-12.6,0C436.2,608.1,449,608.1,448.9,616.3z"/>
		</g>
	</g>
</g>
<linearGradient id="SVGID_00000133531369661723783440000007761600448870328980_" gradientUnits="userSpaceOnUse" x1="0" y1="118.45" x2="445.1" y2="118.45" gradientTransform="matrix(1 0 0 -1 0 762)">
	<stop  offset="0" style="stop-color:#FFFFFF;stop-opacity:0"/>
	<stop  offset="1" style="stop-color:#FFB757"/>
</linearGradient>
<path style="fill:url(#SVGID_00000133531369661723783440000007761600448870328980_);" d="M423.2,673H2.5c-1.4,0-2.5-1.1-2.5-2.5
	s1.1-2.5,2.5-2.5h420.7c4.6,0,8.8-1.8,12-5s5-7.5,4.9-12.1l-0.3-34.3c0-1.4,1.1-2.5,2.5-2.5s2.5,1.1,2.5,2.5l0.3,34.3
	c0,5.9-2.2,11.5-6.4,15.6C434.6,670.7,429.1,673,423.2,673z"/>
<path class="st52" d="M670.2,676.1H548.4c-13.2,0-24-10.8-24-24v-29.3h9v29.3c0,8.3,6.7,15,15,15h121.8c14.8,0,26.8-12,26.8-26.8
	V531.7c0-14.8-12-26.8-26.8-26.8H481.5c-18.9,0-34.6-15.2-35.8-34.5l0-0.3V368.3h9V470c0.9,14.6,12.7,25.9,26.8,25.9h188.7
	c19.7,0,35.8,16,35.8,35.8v108.6C706,660.1,689.9,676.1,670.2,676.1z"/>
</svg>
