<?xml version="1.0" encoding="utf-8"?>
<!-- Generator: Adobe Illustrator 27.8.1, SVG Export Plug-In . SVG Version: 6.00 Build 0)  -->
<svg version="1.1" id="katman_1" xmlns="http://www.w3.org/2000/svg" xmlns:xlink="http://www.w3.org/1999/xlink" x="0px" y="0px"
	 viewBox="0 0 954.2 692.9" style="enable-background:new 0 0 954.2 692.9;" xml:space="preserve">
<style type="text/css">
	.st0{fill-rule:evenodd;clip-rule:evenodd;fill:#F5FBFF;}
	.st1{fill-rule:evenodd;clip-rule:evenodd;fill:#FFFFFF;}
	.st2{fill-rule:evenodd;clip-rule:evenodd;fill:#9BC9DD;}
	.st3{fill-rule:evenodd;clip-rule:evenodd;fill:#D6E4EA;}
	.st4{fill-rule:evenodd;clip-rule:evenodd;fill:#66ABC4;}
	.st5{fill-rule:evenodd;clip-rule:evenodd;fill:#E9F9FF;}
	.st6{fill-rule:evenodd;clip-rule:evenodd;fill:#EAF5F9;}
	.st7{fill:#9BC9DD;}
	.st8{opacity:9.000000e-02;fill-rule:evenodd;clip-rule:evenodd;fill:#9BC9DD;enable-background:new    ;}
	.st9{opacity:0.28;fill-rule:evenodd;clip-rule:evenodd;fill:#9BC9DD;enable-background:new    ;}
	.st10{fill-rule:evenodd;clip-rule:evenodd;fill:url(#SVGID_1_);}
	.st11{fill-rule:evenodd;clip-rule:evenodd;fill:#00F1FF;}
	.st12{opacity:0.22;fill-rule:evenodd;clip-rule:evenodd;fill:#9BC9DD;enable-background:new    ;}
	.st13{fill-rule:evenodd;clip-rule:evenodd;fill:#E10819;}
	.st14{opacity:0.36;}
	.st15{opacity:0.12;fill-rule:evenodd;clip-rule:evenodd;fill:#F5FBFF;enable-background:new    ;}
	.st16{opacity:0.18;fill:#1B1464;enable-background:new    ;}
	.st17{fill:#FFFFFF;}
	.st18{fill:#DDEAF1;}
	.st19{opacity:0.66;}
	.st20{fill:#A5C7D3;}
	.st21{fill:#F9FBFE;}
	.st22{fill:#0071BC;fill-opacity:0;}
	.st23{opacity:0.14;fill:#0071BC;enable-background:new    ;}
	.st24{opacity:0.69;}
	.st25{fill:#B3B3B3;}
	.st26{fill:#F5FBFF;}
	.st27{fill:#EDF5F9;}
	.st28{fill:#D71E16;}
	.st29{fill:#E20E17;}
	.st30{fill:#C1272D;}
	.st31{fill:#333132;}
	.st32{fill:#010101;}
	.st33{fill:#0C8236;}
	.st34{fill:#F1E519;}
	.st35{clip-path:url(#SVGID_00000181768371842926083430000004845428527927380385_);}
	.st36{fill:#C69C6D;}
	.st37{clip-path:url(#SVGID_00000031896992399717282120000004045527590387542968_);}
	.st38{clip-path:url(#SVGID_00000113353035440144108450000010095081833691882678_);}
	.st39{clip-path:url(#SVGID_00000086685041787256359270000003669480673606407355_);}
	.st40{clip-path:url(#SVGID_00000070109575505441935300000012913421339588635281_);}
	.st41{clip-path:url(#SVGID_00000107575064393644017010000001227109484016196999_);}
	.st42{clip-path:url(#SVGID_00000109027675540498058620000004665868750022747043_);}
	.st43{fill:#A9AFB1;}
	.st44{fill:#B7B7B7;}
	.st45{fill:#66ABC4;}
	.st46{fill:#878787;}
	.st47{fill:none;}
</style>
<g>
	<g id="katman_1_00000049934360928461847740000017305715548559748512_">
		<g>
			<path class="st0" d="M60.9,109.6c-19,23.1-47,57-42.7,98.2c4.9,47.3,46.9,53.1,61.9,96c28.1,80.6-91.5,142.3-79.2,227.5
				c14.5,100.6,200.5,148.6,215.8,152.3c120.1,29.7,140-21,371.3-25.6c118.2-2.4,155.6,10,200.6-21.3
				c72.1-50.2,117.1-164.4,83.2-234.8c-20.6-42.7-60.5-49.3-64-91.8c-3.6-42.7,35-55.3,36.3-98.2c1.5-53.2-55.8-108.8-113.1-128.1
				c-78.3-26.2-106.1,32.3-202.7,29.7C359.1,107.9,301.4-136.5,60.9,109.6z"/>
			<g>
				<g>
					<g>
						<path class="st1" d="M295.8,528.1L181.5,539c57.3,1.6,212.2,6,266.6-7.1L295.8,528.1z"/>
						<path class="st2" d="M181.5,539l-4.9,6.3l188,5.3l87.3-12.7l-3.8-6C394.5,545,238.1,540.6,181.5,539z"/>
						<polygon class="st2" points="365.3,542.1 364.6,550.6 451.9,537.9 448.1,531.9 						"/>
						<polygon class="st3" points="301.1,476.3 309.9,532.9 363.2,532.9 346.5,476.3 						"/>
						<polygon class="st4" points="346.5,476.3 356.9,476.3 369.4,532.9 363.2,532.9 						"/>
						<polygon class="st2" points="304,494.9 354.9,504.6 346.5,476.3 301.1,476.3 						"/>
						<polygon class="st2" points="309.9,532.9 309.9,540.6 365.3,542.1 369.4,542.1 369.4,532.9 						"/>
						<path class="st1" d="M309.1,528.1c0.8,2.9,0.9,9.5,0.8,12.5l-128.3-1.5C189.4,538.5,304.6,526.4,309.1,528.1z"/>
						<polygon class="st5" points="39.2,484.4 89.3,172.4 615,130.2 560.1,484.4 						"/>
						<polygon class="st4" points="615,130.2 625.5,138.3 572.7,489.7 560.1,484.4 						"/>
						<polygon class="st2" points="39.2,484.4 51.9,487.7 572.7,489.7 560.1,484.4 						"/>
						<polygon class="st4" points="58,463.6 543.2,463.6 592.8,143.1 103.9,182.1 						"/>
						<polygon class="st1" points="61.4,463.6 105.8,183.8 592.3,146.4 543.2,463.6 						"/>
						<polygon class="st2" points="192.9,479.9 194.6,471 335.6,471 337.7,472.2 336.2,481.5 195,481.3 						"/>
						<polygon class="st6" points="335.6,471 334.7,479.9 192.9,479.9 194.6,471 						"/>
						<polygon class="st7" points="220.1,479.9 218.9,479.8 220.7,471 221.9,471 						"/>
						<polygon class="st7" points="262.1,479.8 260.8,479.8 262.3,471 263.7,471 						"/>
						<polygon class="st7" points="302.2,479.9 300.3,479.8 301.6,471 303.5,471 						"/>
						<polygon class="st8" points="311.9,154.6 317.2,165.1 592.8,143.1 567.4,307.3 584.4,327.4 615,130.2 						"/>
						<polygon class="st9" points="274.8,157.5 284.8,167.7 234.8,171.7 225.4,161.5 						"/>
						
							<radialGradient id="SVGID_1_" cx="531.9907" cy="-168.8813" r="3.6119" gradientTransform="matrix(1 0 0 -1 0 306)" gradientUnits="userSpaceOnUse">
							<stop  offset="0" style="stop-color:#597FE0"/>
							<stop  offset="0.99" style="stop-color:#5243B3"/>
						</radialGradient>
						<path class="st10" d="M535.7,474.9c0,4.8-7.4,4.7-7.3,0C528.3,470.1,535.7,470.1,535.7,474.9z"/>
						<path class="st11" d="M535.7,474.9c0,1.7-1.2,3.2-2.8,3.5C527.4,476.1,534.8,467.9,535.7,474.9L535.7,474.9z"/>
					</g>
					<polygon class="st12" points="81.8,218.9 73.8,268.6 86.2,269 97.4,218.2 					"/>
					<polygon class="st12" points="83.6,207.9 88,180.4 97.4,179.6 90.9,207.1 					"/>
					<polygon class="st0" points="133.7,251.6 103.3,450.9 376.2,450.9 404,237 					"/>
					<polygon class="st13" points="133.7,251.6 131,269 402,251.6 404,237 					"/>
					<g>
						<polygon class="st0" points="171.4,207.1 133.7,444 429.2,444 471.7,183.5 						"/>
						<polygon class="st13" points="171.4,207.1 169.3,220.5 468.9,200.8 471.7,183.5 						"/>
						<g>
							<polygon class="st1" points="444.9,190.9 448,188.4 457.4,196.8 456.3,198.7 							"/>
							<polygon class="st1" points="456.3,188.4 458.5,189.7 444,198.7 443,197 							"/>
						</g>
						<polygon class="st1" points="176.2,209.7 175.3,217.6 183.2,217.1 184.5,208.9 						"/>
					</g>
					<g class="st14">
						<polygon class="st4" points="341,233.7 183.3,243.3 184.2,237.5 342,227.5 						"/>
						<polygon class="st4" points="300.7,288.4 175.4,294 176.3,288.2 301.7,282.3 						"/>
						<polygon class="st4" points="286,248.1 207.9,252.6 208.8,246.7 287,242 						"/>
						<polygon class="st4" points="303.4,247.1 292.3,247.7 293.3,241.6 304.3,241 						"/>
						<polygon class="st4" points="348.9,254.1 337.5,254.7 338.6,248.6 349.9,247.9 						"/>
						<polygon class="st4" points="347.3,263.8 336,264.4 337,258.3 348.3,257.7 						"/>
						<polygon class="st4" points="331.5,255 206.4,261.9 207.3,256 332.5,248.9 						"/>
						<polygon class="st4" points="329.9,264.7 204.9,271.2 205.9,265.3 330.9,258.6 						"/>
						<polygon class="st4" points="313,276.1 301.9,276.6 302.9,270.5 314,270 						"/>
						<polygon class="st4" points="358.1,232.6 346.7,233.3 347.7,227.1 359.1,226.4 						"/>
						<polygon class="st4" points="403.6,345.2 166.5,351.3 167.4,345.5 404.6,338.9 						"/>
						<polygon class="st4" points="421.3,344.7 409.5,345 410.5,338.7 422.4,338.4 						"/>
						<polygon class="st4" points="317.4,287.7 306.2,288.2 307.2,282.1 318.4,281.6 						"/>
						<polygon class="st4" points="330.8,296 174.1,302.6 175,296.8 331.8,289.9 						"/>
						<polygon class="st4" points="347.8,295.3 336.4,295.8 337.4,289.7 348.8,289.2 						"/>
						<polygon class="st4" points="298.5,276.8 203.3,281.4 204.2,275.5 299.5,270.7 						"/>
						<polygon class="st4" points="276.2,308.9 198.5,311.9 199.5,306 277.1,302.9 						"/>
						<polygon class="st4" points="293.4,308.2 282.5,308.6 283.5,302.6 294.4,302.2 						"/>
						<polygon class="st4" points="338.7,316.1 327.4,316.5 328.4,310.4 339.7,310 						"/>
						<polygon class="st4" points="337.1,325.8 325.8,326.2 326.8,320 338.1,319.7 						"/>
						<polygon class="st4" points="321.4,316.7 197.1,321.1 198,315.3 322.4,310.6 						"/>
						<polygon class="st4" points="319.8,326.3 195.6,330.4 196.6,324.5 320.8,320.2 						"/>
						<polygon class="st4" points="303,337.3 292,337.6 293,331.6 304,331.3 						"/>
						<polygon class="st4" points="288.7,337.7 194,340.5 195,334.7 289.6,331.7 						"/>
						<polygon class="st4" points="287.4,370.2 163.2,372.6 164.1,366.8 288.4,364.2 						"/>
						<polygon class="st4" points="299.6,358.3 288.6,358.5 289.6,352.5 300.6,352.2 						"/>
						<polygon class="st4" points="389.4,429.4 154.3,429.4 155.2,423.6 390.5,423.2 						"/>
						<polygon class="st4" points="407,429.4 395.3,429.4 396.3,423.2 408.1,423.2 						"/>
						<polygon class="st4" points="304,369.9 292.9,370.1 293.9,364.1 304.9,363.9 						"/>
						<polygon class="st4" points="317.2,378.6 161.8,381.1 162.7,375.3 318.2,372.5 						"/>
						<polygon class="st4" points="334.1,378.3 322.9,378.5 323.8,372.4 335.1,372.2 						"/>
						<polygon class="st4" points="285.3,358.6 190.9,360.7 191.8,354.9 286.3,352.6 						"/>
						<polygon class="st4" points="263.1,390 186.1,390.9 187,385.1 264.1,384 						"/>
						<polygon class="st4" points="280.2,389.8 269.4,389.9 270.3,383.9 281.2,383.8 						"/>
						<polygon class="st4" points="325.1,398.8 313.9,398.9 314.9,392.8 326.1,392.7 						"/>
						<polygon class="st4" points="323.5,408.4 312.4,408.5 313.4,402.4 324.5,402.3 						"/>
						<polygon class="st4" points="308,398.9 184.7,400.1 185.6,394.3 308.9,392.9 						"/>
						<polygon class="st4" points="306.4,408.5 183.2,409.3 184.1,403.5 307.4,402.5 						"/>
						<polygon class="st4" points="289.8,419 278.8,419 279.8,413 290.7,413 						"/>
						<polygon class="st4" points="275.5,419 181.7,419.3 182.6,413.6 276.5,413.1 						"/>
					</g>
					<g>
						<polygon class="st0" points="411,299.6 577.3,290.7 557.4,437.7 387.5,437.7 						"/>
						<polygon class="st0" points="369.4,281.4 535.7,272.5 516.1,416.6 345.8,419.6 						"/>
						<polygon class="st13" points="369.4,281.4 366.9,295.8 533.7,287 535.7,272.5 						"/>
						<g>
							<polygon class="st1" points="515.8,277.7 518.4,275.3 526.6,283.7 525.6,285.6 							"/>
							<polygon class="st1" points="525.7,275.3 527.5,276.6 515,285.6 514.1,283.9 							"/>
						</g>
						<polygon class="st4" points="535.7,272.5 537.5,275.3 517.2,418 346.7,420.4 345.8,419.6 516.1,416.6 						"/>
					</g>
					<g>
						<polygon class="st15" points="282.6,156.9 436.3,144.6 425.9,210.4 272.2,218.8 						"/>
						<polygon class="st0" points="252.4,104 406.1,88.1 389.2,194.2 235.3,205.1 						"/>
						<polygon class="st4" points="406.1,88.1 407.8,90.5 390.2,195.3 236.1,205.8 235.3,205.1 389.2,194.2 						"/>
						<polygon class="st5" points="275.6,112.2 265.9,173.1 365,166.5 375.1,103.3 						"/>
					</g>
					<g class="st14">
						<polygon class="st4" points="506.1,306.3 370.1,313 371,308 507,301 						"/>
						<polygon class="st4" points="470.8,353 362.8,356.6 363.7,351.6 471.7,347.8 						"/>
						<polygon class="st4" points="458.5,318.1 391.2,321.2 392.1,316.1 459.4,312.9 						"/>
						<polygon class="st4" points="473.5,317.5 464,317.9 464.9,312.7 474.4,312.2 						"/>
						<polygon class="st4" points="512.7,324 502.9,324.4 503.8,319.1 513.6,318.7 						"/>
						<polygon class="st4" points="511.2,332.3 501.4,332.7 502.3,327.5 512.1,327.1 						"/>
						<polygon class="st4" points="497.6,324.6 389.9,329.2 390.7,324.2 498.6,319.3 						"/>
						<polygon class="st4" points="496.2,332.9 388.5,337.2 389.4,332.2 497.1,327.7 						"/>
						<polygon class="st4" points="481.5,342.5 472,342.9 472.9,337.7 482.4,337.3 						"/>
						<polygon class="st4" points="520.8,305.6 511,306.1 511.9,300.8 521.7,300.3 						"/>
						<polygon class="st4" points="485.2,352.6 475.6,352.9 476.5,347.7 486.1,347.3 						"/>
						<polygon class="st4" points="496.6,359.9 361.6,363.9 362.4,358.9 497.5,354.6 						"/>
						<polygon class="st4" points="511.2,359.5 501.5,359.7 502.4,354.5 512.2,354.2 						"/>
						<polygon class="st4" points="469,343 387,346 387.9,340.9 470,337.8 						"/>
						<polygon class="st4" points="449.5,370.4 382.6,372.2 383.4,367.1 450.4,365.2 						"/>
						<polygon class="st4" points="464.3,370 454.9,370.3 455.8,365.1 465.2,364.8 						"/>
						<polygon class="st4" points="503.2,377.3 493.5,377.5 494.5,372.2 504.2,372 						"/>
						<polygon class="st4" points="501.8,385.6 492.1,385.8 493,380.6 502.7,380.3 						"/>
						<polygon class="st4" points="488.3,377.6 381.2,380.1 382.1,375.1 489.2,372.4 						"/>
						<polygon class="st4" points="486.9,385.9 379.9,388.1 380.7,383.1 487.8,380.7 						"/>
						<polygon class="st4" points="472.3,395.2 462.8,395.3 463.7,390.2 473.2,390 						"/>
						<polygon class="st4" points="459.9,395.4 378.4,396.8 379.2,391.8 460.8,390.2 						"/>
					</g>
					<g>
						<g>
							<polygon class="st1" points="175.1,90.7 235.3,84.5 228.7,126 168.4,130.2 							"/>
							<path class="st4" d="M235.3,84.5l2.9,3.9l-6,40.3c-3-0.5-62.9,6-63.8,1.5l60.2-4.3L235.3,84.5z"/>
						</g>
						<g>
							<polygon class="st4" points="194.3,94.3 180.9,110.2 192.5,122.8 193.4,115.9 184.7,110.1 193.3,101.5 							"/>
							<polygon class="st4" points="209.4,92.3 219.1,104.8 204.9,120.8 205.5,114 215.4,105.7 208.8,99.4 							"/>
							<polygon class="st4" points="193.4,122.6 206,92.8 208.8,92.4 195.6,122.3 							"/>
						</g>
					</g>
				</g>
				<g>
					<path class="st16" d="M954.2,576.1c-48.8,11.7-204.4,55.2-225.1,57.5c33.7-15.7,105.8-57.5,105.8-57.5S920.1,577.2,954.2,576.1
						L954.2,576.1z"/>
					<g>
						<path class="st17" d="M905.2,523.3c-2.9,0.6-159.1,33.9-161.9,34.5l-15,0.2l-680.5,6.8C241.2,523.7,704.3,519.6,905.2,523.3z"
							/>
						<g>
							<path class="st18" d="M736.6,622.4c0-2,2.4-2,2.4,0C738.9,624.4,736.5,624.4,736.6,622.4z"/>
							<path class="st18" d="M737.7,567.9c0-2,2.4-2,2.4,0C740.1,569.9,737.7,569.9,737.7,567.9z"/>
							<path class="st18" d="M739.6,591.5c1.5,0,1.5,3.1,0,3.1C738.1,594.7,738.1,591.5,739.6,591.5z"/>
							<path class="st18" d="M908.4,529.5c-2.3,71.2,15.2,51.2-53.9,71.1c-36,9.1-89.9,24.8-126.3,33.1V557
								c4.1,0.2,165.5-32.2,173.7-33.6C905.4,522.8,908.5,525.5,908.4,529.5L908.4,529.5z"/>
							<g class="st19">
								<g>
									<path class="st20" d="M784.9,586c0.4-1.1,2.9-1.3,2.3,0.3c-0.8,0.5-12,27.9-13.7,26.1C770.9,612.5,785.2,586.7,784.9,586
										L784.9,586z"/>
									<path class="st20" d="M786.6,582.4c-0.6,0.4-1.4,0.5-1.7,0l-12-19.1c-0.7-1.1,1.7-2.4,2.3-1.3
										C775,562.7,789.6,582.2,786.6,582.4L786.6,582.4z"/>
									<path class="st20" d="M797.3,584.9c0.4-1,2.9-1.3,2.3,0.2c-0.6,0.5-9.5,21-10.9,19.6C785.4,605.7,797.8,585.2,797.3,584.9
										L797.3,584.9z"/>
									<path class="st20" d="M788.5,561.9c0.6-0.4,1.4-0.4,1.7,0.1l9.3,13.8c0.7,1-1.7,2.3-2.3,1.4l-9.3-13.9
										C787.7,562.8,788,562.2,788.5,561.9z"/>
									<path class="st20" d="M799.9,581.6c-2.3,0.5-1.8-2.2,0-2.5C802.2,578.6,801.7,581.3,799.9,581.6z"/>
									<path class="st20" d="M810.4,579.3c0.4-1,2.9-1.3,2.3,0.2c-0.7,0.5-12,25.7-13.5,24.4C795.8,604.8,810.9,579.7,810.4,579.3
										z"/>
									<path class="st20" d="M812.1,575.9c-0.5,0.4-1.4,0.5-1.7,0.1l-12-17.4c-0.7-1,1.7-2.2,2.3-1.3l12,17.3
										C813,575,812.7,575.6,812.1,575.9z"/>
									<path class="st20" d="M822.8,578c0.3-0.9,2.9-1.3,2.3,0.2c-0.7,0.5-9.5,19.6-10.9,18.3C810.9,597.7,823.3,578.2,822.8,578z
										"/>
									<path class="st20" d="M814,557c0.6-0.4,1.4-0.4,1.7,0l9.3,12.6c0.6,0.9-1.7,2.2-2.3,1.3l-9.3-12.6
										C813.2,557.9,813.5,557.4,814,557L814,557z"/>
									<path class="st20" d="M872,562.9c0.5-0.4,1.4-0.5,1.7-0.2l12,11.6c0.4,0.3-0.2,0.9-0.7,1.2c-0.6,0.3-1.3,0.4-1.5,0.2
										l-12-11.8C871.2,563.7,871.4,563.2,872,562.9z"/>
									<path class="st20" d="M883.4,542.2c0.3-0.7,2.8-1,2.3,0.2c-0.7,0.4-12.3,19.8-13.5,18.5C868.6,562.1,884,542.2,883.4,542.2
										L883.4,542.2z"/>
									<path class="st20" d="M859.6,567.9c0.5-0.4,1.4-0.5,1.7-0.1l9.3,9.6c0.4,0.3-0.2,1-0.7,1.2c-0.6,0.3-1.3,0.4-1.5,0.2
										l-9.3-9.7C858.8,568.7,859,568.2,859.6,567.9L859.6,567.9z"/>
									<path class="st20" d="M861.3,561.6c-0.3,0.8-2.9,1.2-2.3-0.1c0.7-0.5,9.5-16.4,10.9-15.1c0.6,0,1.1,0.4,0.7,0.9
										C870.6,547.2,861.3,561.6,861.3,561.6z"/>
									<path class="st20" d="M860.3,564.9c0.2,1.1-3.1,2.3-3.2,0.8C857,564.6,860.2,563.4,860.3,564.9z"/>
									<path class="st20" d="M846.5,569.6c0.5-0.4,1.4-0.5,1.7-0.1l12,13.3c0.3,0.3,0,0.8-0.6,1.2c-0.5,0.4-1.4,0.6-1.7,0.3
										l-12-13.4C845.7,570.4,845.9,569.9,846.5,569.6L846.5,569.6z"/>
									<path class="st20" d="M858,546.8c0.3-0.8,2.9-1,2.3,0.3l-12,19.4c-0.3,0.8-2.9,1.2-2.3-0.1
										C845.9,566.4,858,546.8,858,546.8z"/>
									<path class="st20" d="M834.1,574.7c0.5-0.4,1.4-0.5,1.7-0.1l9.3,10.9c0.6,0.8-1.7,2.2-2.3,1.4l-9.3-10.9
										C833.3,575.6,833.5,575,834.1,574.7L834.1,574.7z"/>
									<path class="st20" d="M842.9,551.9c0.3-0.9,2.9-1.1,2.3,0.3c-0.7,0.5-9.5,17.7-10.9,16.4c-0.6,0-1.1-0.4-0.7-1
										C833.5,567.6,842.9,551.9,842.9,551.9L842.9,551.9z"/>
									<path class="st20" d="M829.3,571.7c2.3-0.5,1.8,1.9,0,2.3C827,574.5,827.5,572,829.3,571.7z"/>
								</g>
							</g>
							<path class="st21" d="M742.1,627.7c-3.8,0.8-10.3,1.8-13.7,3.6v2.4c4.7-0.6,15.3-5.3,19.7-7.2c0.1-0.5,0.1-1.1,0.2-1.7
								C748.2,624.8,742.1,627.7,742.1,627.7z M745.3,557.4c-1.4-1.2-2.8-2-3.9-2.5l-13.2,2.1v0.9
								C729.5,557.9,744.7,558,745.3,557.4L745.3,557.4z M739.6,594.6c1.5,0,1.5-3.1,0-3.1S738.1,594.6,739.6,594.6z M740.1,567.9
								c0-2-2.4-2-2.4,0C737.7,569.9,740.1,569.9,740.1,567.9z M736.6,622.4c0,2,2.4,2,2.4,0C738.9,620.4,736.5,620.4,736.6,622.4z"
								/>
							<path class="st22" d="M749.6,626.1c-3.9,8.8-13.6,6.6-21.4,7.6v-2.4C734.4,628.5,743,627.7,749.6,626.1z"/>
							<path class="st23" d="M745.5,629.7l155-41.3c3.7-0.7,5.3-2.5,6.4-4.2L748,626.7C747.3,628.3,747.1,629.1,745.5,629.7
								L745.5,629.7z"/>
							<g>
								<path class="st20" d="M740.8,593.1c0,2-2.4,2-2.4,0C738.4,591.1,740.8,591.1,740.8,593.1z"/>
								<path class="st20" d="M738.9,622.4c0,2-2.4,2-2.4,0S738.9,620.4,738.9,622.4z"/>
								<path class="st20" d="M740.1,567.9c0,2-2.4,2-2.4,0C737.7,565.9,740.1,565.9,740.1,567.9z"/>
							</g>
						</g>
						<g class="st24">
							<g>
								<g>
									<path class="st25" d="M604.1,535.2c-63.8,3-19.8,11.5,13.7,3.1c-1.5,0-20.7,0-21.8,0.6c1,0.3,3-0.1,4.3,0.2
										c-4.6,2.5-12.5,2.8-17.3,1.1c3.8-3.7,26.6-6.4,30.3-2.9c1,0,2.2,0.1,3.1-0.1c-0.1-0.1,5.7-2.1,4.8-2.1
										C615.5,535.6,609.9,535.1,604.1,535.2"/>
									<path class="st25" d="M540,541.8c-15.8-0.4,18.9-8.2,20.4-4.4C554.2,540.7,546.9,541.5,540,541.8 M556,536
										c-2.3-0.4-38.7,2.4-29.8,5.8C536.5,545.3,600.9,536.2,556,536"/>
									<path class="st25" d="M496.8,537.2c-0.6,0-1.4,0.1-1.9,0.3c1.3,0.2,2.7-0.2,4,0.1l0,0c-6,2.3-17.7,5.3-23.3,5.6
										c7.9-0.4,37,0.7,44-2.9l0,0h-0.1l0,0c-8.4,0.8-16.7,2.5-25.2,2c6.1-2.2,16.2-5.3,22.5-5.3c0.1-0.2-0.5-0.1-0.6-0.1
										L496.8,537.2"/>
									<path class="st25" d="M504.2,533.8c-21.8,1.2-93.6,12.1-115.5,13.8c1.9-0.1,39.6-0.1,23.3-1.2l38.9-5l4.8,4.4
										c-3.2,0.3-6.5,0.2-9.6,1c7.8-0.3,20.9,0,28.6-0.6c-0.9-1-3.7-0.2-5.2-0.9l-7-5.5l46.2-6
										C507.2,533.8,505.7,533.8,504.2,533.8 M451.1,534.7c-2.5,0-5,0.2-7.4,0.5l5.2,4.7l11.8-1.5
										C457.5,535.6,455.6,534.2,451.1,534.7"/>
								</g>
							</g>
						</g>
						<g>
							<g>
								<path class="st26" d="M728.3,624.3c-0.4-10,0.6-57-1.4-58.5c-2.1-4.8-7.3-7.7-12.6-7.6l-138.9,1.7l-0.1,17.1
									c-4.7-5.4-11.9-2.4-15.8,2.2l12.1,16.7l-8.6,11.9c-4.7,0.9-4.9,6.7-5.5,10.5l17.7,0.1v10.3v0.3h3.8c-0.4-29,1.8-26.2,1.1,0
									l32.1,0.3c0.3-10.5,15.4-10.3,15.5,0.2c9.6-0.3,93.4,1.9,100.4,0.4c0.1,0,0.1-0.1,0.2-0.1L728.3,624.3L728.3,624.3z
									 M579.3,565.2c0-0.7,1.1-0.7,1.1,0l-0.1,17.3c0,0.3-0.3,0.5-0.6,0.5C578.6,583.5,579.6,565.6,579.3,565.2z M565.2,579.5
									c5.4-5,10.8,8.3,13.7,11l-2.9,4L565.2,579.5L565.2,579.5z M595.8,613.9c-2.4,0-7.6-0.1-10-0.1c-0.2-1.3,1.3-1.8,2.6-2.2
									l-9-12.4l-9,12.2c1.3,0.4,3.2,0.9,2.8,2.4c-3.1,0-7.8-0.1-11-0.1c0.1-2,2.7-1.7,3.6-3.2l20.2-28c1.5-2.7,4.8-5.2,7.8-3.2
									l-11.7,16l11.5,15.7c1,1.1,3.3,1.1,3.5,2.9L595.8,613.9L595.8,613.9z M607.7,605.2c-0.2,0.9-13.7,0.1-14.4,0.3
									c-0.3-0.1-0.3-0.8-0.1-1c0.6-0.3,1.7,0.2,2-0.7c0.2-1.9,0.3-11.4,0.1-13.3c-0.3-0.9-1.9,0-2.1-0.9c0-0.3,0-0.8,0.4-0.8h8.3
									c0.4,0,0.4,0.5,0.4,0.8c-0.2,0.9-2.2-0.3-2.3,1.3c0,1.8-0.3,11,0,12.7l0,0c0,0,0,0,0.1,0l0,0c8.2,1.7,5.4-5.5,8.1-4.3
									C608.5,599.1,607.7,605.1,607.7,605.2z M627.7,598.3c-5,17.7-28,0.2-12.4-9.6C621.7,586,629.1,591.2,627.7,598.3
									L627.7,598.3z M628.5,561.5c-0.2,6.3-5.3,10.2-11.3,8c-3.8-1.4-4.4-6.3-4.6-9.8c3,0,12.9-0.2,16-0.2
									C628.6,560,628.5,560.7,628.5,561.5L628.5,561.5z M647.7,598.7c-0.1,0.7-1.2,0.2-1.6,0.7c-0.9,0.8-0.3,3.9-0.5,4.9
									c-20.4,9.9-22.6-22.1-1.3-14.8c0,0,0,0,0-0.1c0.2-0.2,0.3-0.5,0.4-0.8c0.2-0.4,1.2-0.4,1.2,0.1l-0.1,5.7
									c0,0.5-0.8,0.4-1.1,0.3c-1-4.4-7.4-6.9-9.5-1.9c-2.1,4.4-0.6,14.4,6,10.8c-0.3-1.1,0.8-4.4-0.9-4.7
									c-0.4-0.1-1.2,0.2-1.2-0.4c0-0.3,0-0.8,0.4-0.8h7.7C647.7,598,647.7,598.4,647.7,598.7L647.7,598.7z M617.2,563.2
									c-0.3,3.1,2.4,7.3,5.4,4.3c1.7-2.1,1.2-5.5,1.4-8l-6.9,0.1C617,560.6,617.1,562.1,617.2,563.2z M623.2,627.2
									c-1-7.4-7.4-3.7-6.6,2.2l6.8,0.1C623.3,628.8,623.3,628,623.2,627.2L623.2,627.2z M622.5,594.7c0.2-3.9-4.1-7.2-6.5-2.9
									c-1.5,3.5-2.2,12.9,3.6,12.2C623.1,602.5,622.5,597.8,622.5,594.7L622.5,594.7z M617.1,559.6c-1,12.1,8,11.8,6.9-0.1
									L617.1,559.6L617.1,559.6z M622.5,596c-0.9-12.2-9.7-4.4-7.2,4C617.6,608.8,623.7,602.2,622.5,596L622.5,596z M152.7,624.2
									c0,0-2.7-59.1-2.6-59.1c0,0-102.3-0.3-102.4-0.2c0,0.1,0.6,8.5,0.6,8.7c1.3,5.5,0.7,43.6,5.7,47c-0.7,5.8,95.8,2.8,98.8,3.9
									L152.7,624.2 M92.4,588.2c-0.5-0.1-0.9-17.5-1.1-17.7c0-0.2,0.1-0.3,0.2-0.3c0.7,0,0.9,17.4,1.2,17.7
									C92.7,588.1,92.5,588.3,92.4,588.2z M148.6,587.1c1.9-0.1,1.3-3,1.1-4.3c-0.5-1.3-2.7-1-3.8-0.8c-1.2,0.5-0.6,2.6-0.7,3.5
									C145.2,587.4,147.4,587.1,148.6,587.1L148.6,587.1z M85,585.5c1.8,0.4,5.6,7.7,6.7,9l-1.6,2.9l-7.4-11.2
									C83.3,585.6,84.2,585.2,85,585.5z M83.4,611.9c1.6,0,4.4,0,6,0c0.1-0.9-1-1.4-1.9-1.7l5.1-9.1l6.1,9.3
									c-0.8,0.3-1.7,0.7-1.6,1.6c2,0,5.3,0,7.3,0c-0.2-1.3-1.7-1.4-2.4-2.2l-7.8-11.7l6.7-12c-2-1.6-3.9,0.6-4.7,2.4l-11.5,20.9
									c-0.5,1.1-2.2,1-2.2,2.4L83.4,611.9L83.4,611.9z M148.9,594.6c2.3-0.1,1.7-3.4,1.4-4.9c-0.6-1.6-3-1.4-4.3-1.1
									c-1.4,0.6-0.9,2.8-0.9,4C145.2,594.6,147.4,594.7,148.9,594.6L148.9,594.6z M130.7,594.7c1.9-0.1,1.2-3,1.1-4.2
									c-0.5-1.3-2.6-1-3.7-0.8c-1.2,0.5-0.6,2.5-0.7,3.5C127.4,595,129.5,594.8,130.7,594.7z M142.9,601c1.9-0.1,1.3-3,1.1-4.2
									c-0.5-1.3-2.7-1-3.7-0.8c-1.3,0.7-0.7,3-0.5,4.1C140.1,601.4,141.9,601,142.9,601L142.9,601z M149.2,601.1
									c1.9-0.1,1.3-3,1.1-4.3c-0.5-1.3-2.7-1-3.8-0.8c-1.2,0.5-0.6,2.6-0.7,3.5C145.8,601.3,148,601.1,149.2,601.1L149.2,601.1z
									 M149.3,608.1c1.9-0.1,1.3-3,1.1-4.2c-0.5-1.4-2.7-1-3.8-0.8c-1.2,0.5-0.6,2.5-0.7,3.5C145.9,608.3,148,608.1,149.3,608.1
									L149.3,608.1z M94.1,622.3c-0.1,0-0.2-0.1-0.2-0.2c0.1-0.2-1-13.9-0.6-13.9c0.1-0.1,0.4,0,0.4,0.2l0.7,13.7
									C94.4,622.2,94.2,622.3,94.1,622.3L94.1,622.3z M143.6,614.9c1.9-0.1,1.3-3,1.1-4.2c-0.5-1.4-2.7-1-3.7-0.8
									c-1.2,0.5-0.6,2.5-0.7,3.5C140.2,615.1,142.4,614.9,143.6,614.9L143.6,614.9z M137.2,615.1c1.9-0.1,1.3-3,1.1-4.2
									c-0.5-1.3-2.6-1-3.7-0.8c-1.2,0.5-0.6,2.5-0.7,3.5C133.9,615.3,136,615.1,137.2,615.1z M624,559.5
									c1.1,11.9-7.9,12.1-6.9,0.1L624,559.5 M146.8,589.4c-1.5,0.1-0.8,2.7-0.7,3.6c0.4,1,2.4,0.7,3.2,0.6c1-0.4,0.4-2.4,0.5-3.1
									C149.7,589,147.7,589.4,146.8,589.4L146.8,589.4z M618,589.9c-4.9,1.8-3.8,18.1,3,13.2C623.3,600,624.1,588.8,618,589.9
									L618,589.9z M623.4,629.5c0.7-8.3-7.2-8.4-6.8-0.1L623.4,629.5"/>
								<path class="st18" d="M623.3,629.5l-6.8-0.1c0,0.8-0.1,1.7-0.1,2.5l6.9,0.1C623.4,631.2,623.4,630.3,623.3,629.5
									L623.3,629.5L623.3,629.5z M728.5,629.1c-1.2,0.3-100.7,0.5-100.7,0.5c0.1,0.8,0.2,1.7,0.2,2.5c-4.6,0-11.3-0.1-15.9-0.2
									c0-0.8,0.1-1.6,0.2-2.5l-32.1-0.3c-0.1,0.4,0.3,3.3-0.3,3.5l148.4,1.2L728.5,629.1L728.5,629.1z M47.7,564.8
									c0.8,10.3,1.5,44.9,3.7,55.4c1.4,3.3,4.5,6.1,8.2,6.1l519.8,6.2c-0.6-0.1-0.2-3.1-0.3-3.5h-3.8v3.5l-422.4-5.1l-0.1-3
									C38.6,618.2,53.4,647.1,47.7,564.8L47.7,564.8z"/>
								<path class="st27" d="M741.4,554.9l-13.2,3c-0.1,7.8,0.3,69.7,0,75.8c23.5-7.3,22,5.6,23-40.4
									C749.9,580.2,754.3,550.7,741.4,554.9L741.4,554.9z M738.9,566.3c1.5,0,1.5,3.1,0,3.1C737.4,569.5,737.4,566.3,738.9,566.3z
									 M737.7,624c-1.5,0-1.5-3.1,0-3.1C739.3,620.8,739.3,624,737.7,624z M739.6,594.6c-1.5,0-1.5-3.1,0-3.1
									S741.1,594.6,739.6,594.6z"/>
								<path class="st28" d="M99.3,585.6c-1.7,0-2.5,1.7-3.1,2.9l-11.5,20.9c-0.5,1.1-2.2,1.1-2.2,2.5c2,0,4.9,0,6.9,0
									c0.1-0.9-1-1.4-1.9-1.7l5.1-9.1l6.2,9.3c-0.8,0.3-1.7,0.7-1.6,1.6c2,0,5.3,0,7.3,0c-0.1-1.3-1.7-1.4-2.4-2.2l-7.8-11.7
									l6.7-12C100.5,585.8,99.9,585.6,99.3,585.6L99.3,585.6L99.3,585.6z M84.5,585.4c-0.6,0-1.3,0.4-1.7,0.8l7.4,11.2l1.6-2.9
									C90.3,593,86.9,585.4,84.5,585.4L84.5,585.4L84.5,585.4z"/>
								<path class="st29" d="M91.5,570.2c-0.7,0,0.9,17.5,0.7,17.7c0,0.1,0.1,0.3,0.3,0.3c0.7,0-0.9-17.5-0.7-17.8
									C91.8,570.4,91.7,570.2,91.5,570.2L91.5,570.2L91.5,570.2z"/>
								<path class="st29" d="M93.5,608.2c-0.7-0.1,0.7,13.7,0.5,13.9c0,0.1,0.2,0.2,0.3,0.2c0.7,0.1-0.7-13.7-0.5-13.9
									C93.7,608.2,93.6,608.2,93.5,608.2L93.5,608.2z"/>
								<path class="st30" d="M152.7,624.1c0,0.1,0.1,3.1,0.1,3.2l422.4,5.1c0-0.1,0-3.7,0-3.8L152.7,624.1L152.7,624.1L152.7,624.1
									z"/>
								<path class="st29" d="M166.8,603.4c-0.9,0.1-3-0.4-2.9,1.1c0.1,0.9-0.3,3.2,1.1,3.2c0.9-0.1,3,0.4,2.9-1.1
									C167.8,605.7,168.3,603.4,166.8,603.4L166.8,603.4L166.8,603.4z M179.5,596.4c-0.9,0.1-3.1-0.4-2.9,1.1
									c0.1,0.8-0.3,2.8,0.7,3.1c0.9,0.1,3.4,0.6,3.3-1C180.5,598.7,180.9,596.4,179.5,596.4L179.5,596.4L179.5,596.4z
									 M166.2,589.1c-0.7,0.1-2.6-0.4-2.8,0.7c0,0.9-0.3,3.1,0.7,3.5c0.8,0.1,2.9,0.5,3.2-0.6
									C167.3,591.7,167.7,589.1,166.2,589.1L166.2,589.1L166.2,589.1z M165.4,615.3c-1.9-0.1-1.6-3-1.5-4.3c0.4-1.4,2.7-1,3.7-0.8
									c1.2,0.5,0.9,2.5,1,3.5C168.8,615.6,166.6,615.3,165.4,615.3z M284.4,616.1c-3.4,0.1-3.7-5.7-0.1-5.6
									C287.6,610.6,287.8,616.1,284.4,616.1L284.4,616.1L284.4,616.1z M171.9,615.1c-1.9-0.1-1.6-3-1.5-4.3c0.4-1.4,2.7-1,3.7-0.8
									c1.3,0.5,0.9,2.5,1,3.6C175.3,615.4,173.1,615.1,171.9,615.1L171.9,615.1z M213.3,618.1c-6.2,0-6.9-10.5-0.4-10.5
									C219.2,607.5,219.9,618,213.3,618.1L213.3,618.1z M171.6,608.2c-1.9-0.1-1.6-3-1.5-4.3c0.4-1.4,2.7-1,3.7-0.8
									c1.2,0.5,0.9,2.6,1,3.6C175,608.5,172.8,608.2,171.6,608.2L171.6,608.2z M284.1,608.6c-3.5,0.1-3.6-5.8,0-5.6
									C287.4,603.2,287.5,608.6,284.1,608.6L284.1,608.6L284.1,608.6z M165.1,608.6c-2.3-0.1-2.1-3.3-1.9-4.9
									c0.5-1.7,3-1.3,4.3-1.1c1.5,0.6,1.2,2.7,1.3,4C168.9,608.7,166.6,608.7,165.1,608.6L165.1,608.6z M223.8,619.2
									c-1.5,0-2.7-1.4-2.7-2.8l-0.6-16.2c-0.1-1.4,1-2.9,2.5-2.8c1.1,0.3,21.2-0.8,21.3,0.8c1.6,0.5,1.1,17.1,1.4,18.4
									c0.1,1.5-1.1,2.9-2.6,2.8C243.2,619.3,223.9,619.2,223.8,619.2L223.8,619.2L223.8,619.2z M298.1,619.8
									c-1.5,0-2.8-1.4-2.8-2.9l-0.5-16.7c-0.1-1.5,1.1-2.9,2.7-2.9c1.1,0.3,22.4-0.8,22.5,0.9c1.7,0.5,1,17.5,1.3,18.9
									c0.1,1.5-1.2,2.9-2.7,2.9C318.4,620,298,619.8,298.1,619.8L298.1,619.8L298.1,619.8z M331,620.1c-1.6,0-2.9-1.4-2.9-3
									l-0.4-16.9c-0.1-1.6,1.2-3,2.8-3c1.2,0.3,22.9-0.8,23,0.9c1.7,0.5,0.9,17.8,1.3,19.1c0.1,1.6-1.2,3-2.8,2.9
									C351.9,620.3,331,620.1,331,620.1L331,620.1L331,620.1z M364.7,620.4c-1.6,0-3-1.4-3-3l-0.4-17.1c-0.1-1.6,1.2-3,2.8-3
									c1.2,0.3,23.5-0.8,23.6,0.9c1.7,0.5,0.9,18,1.2,19.4c0.1,1.6-1.3,3-2.9,3C386.1,620.6,364.7,620.4,364.7,620.4L364.7,620.4
									L364.7,620.4z M399.3,620.7c-1.6,0-3-1.4-3-3l-0.3-17.3c-0.1-1.6,1.3-3.1,2.9-3c1.2,0.3,24.1-0.8,24.2,0.9
									c1.8,0.6,0.8,18.2,1.2,19.6c0,1.6-1.3,3-3,3C421.2,620.9,399.3,620.7,399.3,620.7L399.3,620.7L399.3,620.7z M434.7,621
									c-1.7,0-3.1-1.4-3.1-3.1l-0.2-17.5c-0.1-1.6,1.3-3.1,3-3c1.2,0.3,24.7-0.9,24.8,0.9c1.8,0.6,0.8,18.4,1.1,19.9
									c0,1.7-1.4,3.1-3.1,3C457.2,621.2,434.7,621,434.7,621L434.7,621L434.7,621z M471.1,621.3c-1.7,0-3.2-1.4-3.2-3.1l-0.2-17.7
									c0-1.7,1.4-3.1,3.1-3.1c1.2,0.3,25.4-0.9,25.4,0.9c1.9,0.6,0.7,18.6,1.1,20.1c0,1.7-1.5,3.1-3.2,3.1
									C494.1,621.5,471.1,621.3,471.1,621.3L471.1,621.3L471.1,621.3z M164.8,601c-1.9-0.1-1.6-3-1.5-4.3c0.4-1.4,2.7-1,3.7-0.8
									c1.2,0.5,0.9,2.5,1,3.6C168.2,601.3,165.9,601,164.8,601z M177.7,601.6c-2.3-0.1-2.1-3.3-1.9-4.9c0.5-1.7,3-1.3,4.3-1.1
									c1.5,0.6,1.2,2.7,1.3,4C181.6,601.7,179.2,601.7,177.7,601.6z M250.5,619.4c-1.5,0-2.7-1.4-2.8-2.9l-0.8-23.3
									c-0.1-1.5,1.1-2.9,2.6-2.9c0.8,0.2,25.3-0.8,24.8,0.8c1.7,0.1,1.2,24.5,1.6,25.6c0.1,1.5-1.1,2.9-2.6,2.9L250.5,619.4
									L250.5,619.4z M164.5,594.3c-2.3-0.1-2.1-3.3-1.9-4.9c0.5-1.7,3-1.3,4.3-1.1c1.5,0.6,1.2,2.7,1.3,4
									C168.3,594.4,165.9,594.4,164.5,594.3L164.5,594.3z M157.7,586.7c-1.9-0.1-1.6-3-1.5-4.3c0.4-1.4,2.7-1,3.7-0.8
									c1.2,0.5,0.9,2.5,1,3.6C161.1,587,158.8,586.7,157.7,586.7z M163.8,579.5c-1.9-0.1-1.6-3-1.5-4.3c0.4-1.4,2.7-1,3.7-0.9
									c1.3,0.5,0.9,2.6,1,3.6C167.2,579.7,165,579.5,163.8,579.5L163.8,579.5z M575.4,559.9L150,565c0,0,2.7,59.1,2.6,59.1
									l422.5,4.5v-10.3l-17.7-0.1c0.5-3.7,0.8-9.6,5.5-10.5l8.6-11.9l-12.1-16.7c3.8-4.6,11.1-7.6,15.8-2.2L575.4,559.9
									L575.4,559.9L575.4,559.9z"/>
								<path class="st29" d="M638.7,588.4c-17.8,2.2-8.2,24.9,6.9,15.9c0.1-0.8-0.1-3.8,0.2-4.4c0.3-0.8,1.2-0.6,1.8-0.8
									c0.2-0.3,0.2-1.1-0.3-1h-7.7c-0.1,0-0.2,0-0.3,0.1c-0.7,1.7,1.5,0.5,1.9,1.6c0.3,0.8,0,3.3,0.1,4.2
									c-8.2,4.5-9.6-13.6-1.9-13.7c4.8,0,4.3,5.1,6.2,4.8c0.5,0.2,0.2-5.9,0.3-6.1c0-0.5-0.6-0.4-0.9-0.4c-0.4,0.1-0.4,0.7-0.7,1
									C642.5,589.6,640.6,587.9,638.7,588.4L638.7,588.4L638.7,588.4z"/>
								<path class="st29" d="M618.7,604.1c-5.5-0.4-5.2-15.6,1.1-14.2C623.8,591.6,623.8,604,618.7,604.1L618.7,604.1L618.7,604.1z
									 M619.4,588.1c-11.7-1.2-12.4,18.1-0.5,17.6C630.1,606.4,630.8,587.9,619.4,588.1L619.4,588.1L619.4,588.1z"/>
								<path class="st29" d="M601.8,588.8h-8.3c-0.4,0-0.4,0.5-0.4,0.8c0.1,0.8,1.8-0.1,2.1,0.9c0.2,1.9,0.2,11.4-0.1,13.3
									c-0.3,1.2-2.5-0.1-2.1,1.5c0.5,0.6,13.6,0.1,14.2,0.3c0.7,0.3,0.8-5.8,1-6c0-0.1,0-0.3-0.1-0.4c-2.9-1.2,0.4,5.7-8.2,4.4
									c-0.2-1.9-0.2-11,0.1-13c0.3-1,1.7-0.3,2.2-0.8C602.3,589.4,602.4,588.8,601.8,588.8L601.8,588.8z"/>
								<path class="st29" d="M591.7,578.6c-2.5,0-4.2,1.9-5.4,3.9c-0.5,0.5-20.1,28.1-20.7,28.5c-1,1-3,0.9-3.1,2.7
									c3.1,0,7.9,0.1,11,0.1c0.3-1.4-1.6-1.9-2.8-2.3l9-12.2l9,12.4c-1.3,0.4-2.8,0.9-2.6,2.2c3.1,0,8.3,0.1,11.4,0.1
									c-0.2-1.8-2.5-1.7-3.5-2.9l-11.4-15.7l11.7-16C593.4,578.9,592.5,578.6,591.7,578.6L591.7,578.6L591.7,578.6z M567.9,578.4
									c-1,0-2.1,0.5-2.8,1.1l10.8,15l2.9-4C576.6,588.3,571.6,578.1,567.9,578.4L567.9,578.4L567.9,578.4z"/>
								<path class="st29" d="M579.9,564.7c-0.3,0-0.6,0.2-0.5,0.5l-0.1,17.3c0,0.5,0.6,0.7,0.9,0.4c0.5-0.2,0.1-17.3,0.2-17.7
									C580.4,564.9,580.2,564.7,579.9,564.7L579.9,564.7L579.9,564.7z"/>
								<path class="st29" d="M579.7,608.3c-0.3,0-0.6,0.2-0.5,0.5l-0.1,20.2c0.2,0.5-0.6,4,0.8,3.5c0.6-0.1,0.2-3.1,0.3-3.4
									l0.1-20.2C580.3,608.5,580,608.3,579.7,608.3L579.7,608.3L579.7,608.3z"/>
								<path class="st17" d="M173.6,609.9c-1.2,0-3.4-0.3-3.3,1.5c0.1,1-0.2,3.1,1,3.5c1.1,0.2,3.3,0.6,3.7-0.8
									C175.2,612.8,175.5,609.9,173.6,609.9L173.6,609.9z"/>
								<path class="st17" d="M173.3,603c-1.2,0-3.4-0.3-3.3,1.5c0.1,1-0.2,3.1,1,3.5c1.1,0.1,3.3,0.6,3.7-0.8
									C174.9,605.9,175.3,603,173.3,603L173.3,603z"/>
								<path class="st17" d="M177.7,600.7c-1.5-0.1-1.1-2.7-1.1-3.7c0.3-1.1,2.4-0.7,3.2-0.6c1,0.3,0.6,2.4,0.8,3.2
									C180.7,601.1,178.6,600.6,177.7,600.7z M179.4,595.5c-1.5-0.1-3.9-0.1-3.7,2c0.1,1.3-0.2,3.4,1.3,4c1.3,0.3,3.8,0.6,4.3-1.1
									C181.5,598.8,181.8,595.5,179.4,595.5L179.4,595.5L179.4,595.5z"/>
								<path class="st17" d="M166.5,595.8c-1.2,0-3.4-0.3-3.3,1.5c0.1,1-0.2,3.1,1,3.5c1.1,0.2,3.3,0.6,3.7-0.8
									C168,598.7,168.4,595.9,166.5,595.8L166.5,595.8z"/>
								<path class="st17" d="M164.5,593.4c-1.5-0.1-1.1-2.7-1.1-3.6c0.3-1.1,2.4-0.6,3.2-0.6c1,0.5,0.7,2.7,0.7,3.6
									C167.1,593.8,165.2,593.3,164.5,593.4L164.5,593.4z M166.2,588.2c-1.5-0.1-3.8-0.1-3.7,2c0.1,1.3-0.2,3.4,1.3,4
									c1.3,0.3,3.8,0.6,4.3-1.1C168.3,591.5,168.5,588.3,166.2,588.2L166.2,588.2L166.2,588.2z"/>
								<path class="st17" d="M159.4,581.5c-1.2,0-3.4-0.3-3.2,1.6c0.1,1-0.2,3.1,1,3.5c1.1,0.2,3.3,0.6,3.7-0.8
									C160.9,584.4,161.3,581.6,159.4,581.5L159.4,581.5z"/>
								<path class="st17" d="M165.6,574.2c-1.2,0-3.4-0.2-3.3,1.6c0.1,1-0.2,3.1,1,3.6c1.1,0.2,3.3,0.5,3.7-0.8
									C167.1,577.2,167.5,574.3,165.6,574.2L165.6,574.2L165.6,574.2z"/>
								<path class="st17" d="M165.1,607.7c-1.5-0.1-1.1-2.7-1.1-3.6c0.3-1.1,2.4-0.6,3.2-0.6c1,0.3,0.6,2.4,0.8,3.1
									C168.1,608.1,165.9,607.6,165.1,607.7L165.1,607.7z M166.8,602.5c-1.5-0.1-3.8-0.1-3.7,2c0.1,1.2-0.2,3.4,1.3,4
									c1.3,0.3,3.8,0.6,4.3-1C168.9,605.8,169.1,602.6,166.8,602.5L166.8,602.5L166.8,602.5z"/>
								<path class="st17" d="M167.1,610.1c-1.2,0-3.4-0.3-3.3,1.5c0.1,1-0.2,3.1,1,3.5c1,0.2,3.3,0.6,3.7-0.8
									C168.7,613.1,169,610.2,167.1,610.1L167.1,610.1L167.1,610.1z"/>
								<path class="st29" d="M143.3,609.7c-1.2,0-3.4-0.3-3.2,1.5c0.1,1-0.2,3,1,3.5c1,0.1,3.3,0.6,3.6-0.8
									C144.9,612.7,145.2,609.8,143.3,609.7L143.3,609.7L143.3,609.7z"/>
								<path class="st29" d="M149,602.9c-1.2,0-3.4-0.3-3.2,1.5c0.1,1-0.2,3,1,3.5c1,0.2,3.3,0.6,3.7-0.8
									C150.6,605.9,151,603,149,602.9L149,602.9L149,602.9z"/>
								<path class="st29" d="M149,595.9c-1.2,0-3.4-0.3-3.2,1.5c0.1,1-0.2,3,1,3.5c1,0.2,3.3,0.6,3.7-0.8
									C150.6,598.9,150.9,596,149,595.9L149,595.9L149,595.9z"/>
								<path class="st29" d="M147,593.7c-1.5-0.1-1.1-2.6-1.1-3.6c0.3-1.1,2.4-0.7,3.2-0.6c1,0.4,0.6,2.4,0.7,3.1
									C149.9,594.1,147.8,593.6,147,593.7L147,593.7z M148.6,588.5c-1.5-0.1-3.8-0.1-3.6,2c0.1,1.2-0.2,3.4,1.3,3.9
									c1.3,0.3,3.7,0.6,4.2-1.1C150.7,591.8,150.9,588.5,148.6,588.5L148.6,588.5L148.6,588.5z"/>
								<path class="st29" d="M148.3,581.9c-1.2,0-3.4-0.3-3.2,1.6c0.1,1-0.2,3.1,1,3.5c1.1,0.2,3.3,0.5,3.7-0.8
									C149.9,584.9,150.3,582,148.3,581.9L148.3,581.9z"/>
								<path class="st29" d="M130.5,589.6c-1.2,0-3.3-0.3-3.2,1.6c0.1,1-0.2,3,1,3.5c1,0.2,3.2,0.5,3.6-0.8
									C132,592.5,132.4,589.7,130.5,589.6L130.5,589.6L130.5,589.6z"/>
								<path class="st29" d="M142.6,595.9c-1.2,0-3.4-0.3-3.2,1.5c0.1,1.2-0.2,3.6,1.5,3.6c1.2,0,3.4,0.3,3.2-1.5
									C144.1,598.3,144.4,595.9,142.6,595.9L142.6,595.9z"/>
								<path class="st29" d="M137,609.9c-1.1,0-3.3-0.3-3.2,1.5c0.1,1-0.2,3,1,3.5c1,0.1,3.2,0.6,3.6-0.8
									C138.5,612.9,138.9,610,137,609.9L137,609.9L137,609.9z"/>
								<path class="st31" d="M212.9,607.5c-6.5,0.1-5.8,10.6,0.4,10.5C219.9,618,219.2,607.5,212.9,607.5L212.9,607.5L212.9,607.5z
									"/>
								<path class="st31" d="M284.2,610.5c-3.4,0-3.3,5.4,0,5.6C287.8,616.3,287.7,610.4,284.2,610.5L284.2,610.5L284.2,610.5z"/>
								<path class="st31" d="M284,603c-3.4,0-3.3,5.4,0,5.6C287.6,608.8,287.5,603,284,603L284,603L284,603z"/>
								<path class="st17" d="M236.1,599.4c1.1,0.3,4.1-0.8,4.3,1l0.4,11.6c0.1,1.2-1.5,1-2.3,1c0.2,1-0.4,1.8-1.4,1.6
									c0.1,0.7,0.1,1.8-0.9,1.8h-5.7c-0.9,0-1-1.1-1-1.8c-1,0.2-1.7-0.6-1.5-1.6c-0.8,0-2.3,0.2-2.3-1c0.2-0.3-0.9-12.4-0.2-12.2
									c0.5-0.6,2.6-0.2,3.3-0.3C231.1,599.4,233.9,599.4,236.1,599.4L236.1,599.4z M242.4,597.3H223c-1.5,0-2.6,1.4-2.5,2.8
									c0.3,1.4-0.1,17.6,1.4,18.2c-0.1,1.6,20.2,0.7,21.2,1c1.5,0,2.6-1.4,2.6-2.8l-0.6-16.4C245.1,598.7,243.9,597.3,242.4,597.3
									L242.4,597.3L242.4,597.3z"/>
								<path class="st17" d="M252.3,614.7c-2.4,0.1-1.2-5.5-1.6-6.8c0-0.8,0.6-1.5,1.3-1.4c0.6,0.1,18.9-0.2,19.5,0.2
									c1.6,0.5,0.8,5.6,1.1,6.7c0,0.6-0.3,1.1-0.8,1.3C271.2,615,252.9,614.6,252.3,614.7L252.3,614.7z M251.9,602.8
									c-2.4,0.1-1.2-5.5-1.6-6.8c0-0.8,0.6-1.5,1.3-1.5c0.6,0.1,18.9-0.2,19.5,0.1c1.6,0.4,0.8,5.6,1.1,6.7c0,0.6-0.3,1.1-0.8,1.4
									C270.9,603.1,252.5,602.7,251.9,602.8L251.9,602.8L251.9,602.8z M272.4,590.3h-22.9c-1.5,0-2.7,1.4-2.6,2.9
									c0.4,1.2,0,25.1,1.6,25.4c0.1,1.7,23.6,0.7,24.7,1.1c1.5,0,2.7-1.4,2.6-2.9l-0.7-23.6C275.2,591.7,274,590.3,272.4,590.3
									L272.4,590.3L272.4,590.3z"/>
								<path class="st17" d="M301.2,616.8c-2,0.6-0.9-12.1-1.4-12.8c-0.1-1.3,1.6-1,2.4-1c-0.2-1,0.5-1.8,1.5-1.6
									c-0.1-0.7,0-1.9,0.9-1.8h6c1,0,1.1,1.1,1,1.9c1.1-0.2,1.8,0.6,1.6,1.6c0.8,0,2.5-0.2,2.5,1.1l0.3,11.9
									c0.1,1.6-2.6,0.9-3.4,1C311,616.9,302.8,616.9,301.2,616.8L301.2,616.8L301.2,616.8z M297.7,602.3c-2.5,0-2.6-4.1,0-4
									C300.1,598.4,300.1,602.3,297.7,602.3L297.7,602.3L297.7,602.3z M317.9,602.3c-2.5,0-2.5-4.2,0.1-4
									C320.4,598.4,320.4,602.4,317.9,602.3L317.9,602.3z M317.9,597.3h-20.5c-1.5,0-2.8,1.4-2.7,2.9c0.3,1.4-0.3,18.1,1.3,18.7
									c-0.1,1.7,21.4,0.7,22.4,1c1.6,0,2.8-1.4,2.7-2.9l-0.4-16.8C320.8,598.7,319.5,597.3,317.9,597.3L317.9,597.3z"/>
								<path class="st32" d="M271,606.5c-0.6,0.1-18.9-0.3-19.4,0c-1.6,0.5-0.4,5.6-0.6,6.7c0,0.6,0.4,1.1,0.9,1.4
									c0.6,0.4,18.8,0.1,19.4,0.3c2.5,0.1,0.8-5.6,1.2-6.8C272.4,607.2,271.7,606.5,271,606.5L271,606.5L271,606.5z"/>
								<path class="st32" d="M270.6,594.6c-0.6,0.1-18.9-0.3-19.5,0.1c-1.6,0.5-0.4,5.6-0.6,6.7c0,0.6,0.4,1.1,0.9,1.3
									c0.6,0.4,18.8,0,19.5,0.2c2.5,0.1,0.8-5.6,1.2-6.9C272,595.3,271.4,594.6,270.6,594.6L270.6,594.6L270.6,594.6z"/>
								<path class="st33" d="M317.8,598.3c-2.5,0-2.4,3.9,0,4C320.4,602.4,320.3,598.2,317.8,598.3L317.8,598.3L317.8,598.3z"/>
								<path class="st34" d="M297.6,598.3c-2.4,0-2.3,3.9,0.1,4C300.2,602.4,300.1,598.2,297.6,598.3L297.6,598.3z"/>
								<path class="st17" d="M334.2,617.1c-2,0.6-0.9-12.3-1.3-13c-0.1-1.3,1.6-1,2.5-1.1c-0.2-1.1,0.5-1.8,1.6-1.6
									c-0.1-0.7,0-1.9,1-1.9h6.2c1,0,1.1,1.1,1.1,1.9c1.1-0.2,1.8,0.6,1.6,1.7c0.9,0,2.6-0.3,2.6,1.1l0.3,12
									c0.1,1.6-2.6,0.9-3.5,1C344.3,617.1,335.9,617.1,334.2,617.1L334.2,617.1z M330.7,602.4c-2.5,0-2.6-4.1,0-4
									C333.1,598.3,333.2,602.4,330.7,602.4L330.7,602.4z M351.4,602.4c-2.6,0.1-2.7-4.1,0-4C353.9,598.4,354,602.4,351.4,602.4
									L351.4,602.4L351.4,602.4z M351.4,597.3h-20.9c-1.6,0-2.9,1.4-2.8,2.9c0.3,1.5-0.4,18.4,1.3,19c-0.1,1.7,21.9,0.7,22.9,1.1
									c1.6,0,2.9-1.3,2.8-2.9l-0.4-17C354.4,598.7,353,597.3,351.4,597.3L351.4,597.3L351.4,597.3z"/>
								<path class="st33" d="M351.3,598.4c-2.5,0-2.4,4,0,4C354,602.5,353.9,598.3,351.3,598.4L351.3,598.4L351.3,598.4z"/>
								<path class="st34" d="M330.6,598.4c-2.5,0-2.4,4,0,4C333.2,602.5,333.1,598.3,330.6,598.4L330.6,598.4L330.6,598.4z"/>
								<path class="st17" d="M368,617.3c-2.1,0.6-0.9-12.4-1.3-13.2c-0.1-1.3,1.7-1,2.5-1.1c-0.2-1.1,0.5-1.9,1.6-1.6
									c-0.1-0.8,0-1.9,1-1.9h6.3c1,0,1.1,1.1,1.1,1.9c1.1-0.2,1.9,0.6,1.7,1.7c0.9,0,2.6-0.3,2.6,1.1l0.2,12.2
									c0.1,1.6-2.7,0.9-3.6,1C378.3,617.4,369.7,617.4,368,617.3L368,617.3L368,617.3z M364.5,602.4c-2.6,0.1-2.7-4.2,0-4.1
									C367,598.4,367,602.5,364.5,602.4L364.5,602.4L364.5,602.4z M385.7,602.5c-2.7,0.1-2.6-4.3,0.1-4.1
									C388.3,598.5,388.3,602.5,385.7,602.5L385.7,602.5L385.7,602.5z M385.7,597.3h-21.5c-1.6,0-2.9,1.4-2.8,3
									c0.3,1.5-0.4,18.6,1.2,19.2c-0.1,1.7,22.4,0.7,23.5,1.1c1.6,0,3-1.4,2.9-3l-0.3-17.2C388.8,598.7,387.4,597.3,385.7,597.3
									L385.7,597.3z"/>
								<path class="st33" d="M385.7,598.4c-2.6,0-2.5,4.1,0,4.1C388.4,602.6,388.3,598.3,385.7,598.4L385.7,598.4L385.7,598.4z"/>
								<path class="st34" d="M364.4,598.4c-2.6,0-2.5,4.1,0,4.1C367.1,602.6,367,598.3,364.4,598.4L364.4,598.4z"/>
								<path class="st17" d="M402.7,617.6c-2.1,0.7-0.9-12.6-1.3-13.3c0-1.4,1.8-1,2.6-1.1c-0.2-1.1,0.5-1.9,1.6-1.7
									c-0.1-0.8,0-1.9,1-1.9h6.5c1,0,1.2,1.1,1.1,1.9c1.1-0.2,2,0.6,1.7,1.7c0.9,0,2.7-0.3,2.7,1.1l0.2,12.3
									c0.1,1.7-2.8,0.9-3.7,1.1C413.2,617.7,404.4,617.7,402.7,617.6L402.7,617.6L402.7,617.6z M399.1,602.5
									c-2.7,0.1-2.7-4.3,0.1-4.1C401.7,598.5,401.7,602.6,399.1,602.5L399.1,602.5L399.1,602.5z M420.9,602.6
									c-2.7,0.1-2.7-4.3,0-4.1C423.5,598.4,423.5,602.6,420.9,602.6L420.9,602.6L420.9,602.6z M420.9,597.3h-22
									c-1.6,0-3,1.4-2.9,3c0.3,1.5-0.5,18.8,1.2,19.4c-0.1,1.7,23,0.8,24.1,1.1c1.6,0,3-1.4,3-3l-0.2-17.5
									C424,598.8,422.6,597.3,420.9,597.3L420.9,597.3L420.9,597.3z"/>
								<path class="st33" d="M420.9,598.4c-2.7,0-2.6,4.1,0,4.1C423.6,602.7,423.6,598.3,420.9,598.4L420.9,598.4z"/>
								<path class="st34" d="M399,598.4c-2.6,0-2.6,4.1,0,4.1C401.8,602.6,401.7,598.3,399,598.4L399,598.4z"/>
								<path class="st17" d="M438.2,617.9c-0.6,0-1.1-0.5-1.1-1.1l-0.2-12.4c0-1.4,1.8-1.1,2.7-1.1c-0.2-1.1,0.6-1.9,1.7-1.7
									c-0.1-0.8,0-1.9,1.1-1.9h6.6c1.1,0,1.2,1.2,1.1,2c1.1-0.2,2,0.6,1.8,1.7c0.9,0,2.7-0.3,2.7,1.1l0.1,12.5
									c0.1,1.7-2.9,0.9-3.8,1.1C449,617.9,440,617.9,438.2,617.9L438.2,617.9L438.2,617.9z M434.6,602.6c-2.8,0.1-2.7-4.4,0.1-4.2
									C437.3,598.6,437.2,602.7,434.6,602.6L434.6,602.6L434.6,602.6z M457,602.6c-2.8,0.1-2.7-4.4,0.1-4.2
									C459.7,598.6,459.6,602.7,457,602.6L457,602.6L457,602.6z M457,597.4h-22.5c-1.6,0-3.1,1.4-3,3c0.3,1.5-0.6,19,1.2,19.7
									c-0.1,1.7,23.6,0.8,24.7,1.1c1.7,0,3.1-1.4,3.1-3l-0.2-17.7C460.2,598.8,458.7,597.4,457,597.4L457,597.4z"/>
								<path class="st33" d="M456.9,598.4c-2.7-0.1-2.7,4.2,0,4.2C459.7,602.8,459.7,598.4,456.9,598.4L456.9,598.4z"/>
								<path class="st34" d="M434.6,598.4c-2.7,0-2.6,4.2,0,4.2C437.3,602.7,437.3,598.3,434.6,598.4L434.6,598.4z"/>
								<path class="st17" d="M474.6,618.1c-0.6,0-1.1-0.5-1.1-1.1l-0.1-12.5c0-1.4,1.8-1.1,2.7-1.1c-0.2-1.2,0.6-1.9,1.8-1.7
									c-0.1-0.8,0.1-2,1.1-2h6.8c1.1,0,1.2,1.2,1.1,2c1.1-0.2,2,0.5,1.8,1.7c0.9,0,2.8-0.3,2.8,1.1l0.1,12.6c0,1.7-3,0.9-3.9,1.1
									C485.7,618.2,476.5,618.1,474.6,618.1L474.6,618.1L474.6,618.1z M471,602.7c-2.9,0.1-2.7-4.4,0.1-4.2
									C473.8,598.6,473.7,602.8,471,602.7L471,602.7L471,602.7z M493.9,602.7c-2.8,0.1-2.8-4.4,0.1-4.2
									C496.8,598.5,496.8,602.8,493.9,602.7L493.9,602.7z M494,597.4h-23.1c-1.7,0-3.1,1.4-3.1,3.1c0.3,1.5-0.7,19.3,1.1,19.9
									c-0.2,1.8,24.2,0.8,25.3,1.1c1.7,0,3.2-1.4,3.2-3.1l-0.1-17.9C497.2,598.8,495.7,597.3,494,597.4L494,597.4L494,597.4z"/>
								<path class="st32" d="M477.8,618.2c0.2-0.5-0.7-5.8,0.7-5.2c0.6,0,0.2,4.9,0.4,5.3L477.8,618.2L477.8,618.2z M481.7,618.2
									c0.2-0.5-0.6-5.5,0.5-5.3c1-0.2,0.3,4.9,0.6,5.3C482.7,618.2,481.7,618.2,481.7,618.2z M485.5,618.2
									c0.2-0.5-0.6-5.5,0.5-5.3c1-0.2,0.3,4.9,0.6,5.3H485.5z M485.8,599.7H479c-1.1,0-1.2,1.1-1.1,2c-1.1-0.2-2,0.6-1.8,1.7
									c-0.9,0-2.8-0.3-2.7,1.1l0.1,12.5c0,1.7,2.9,1,3.9,1.1l10.3,0.1c0.9-0.2,4,0.7,3.9-1.1l-0.1-12.6c0-1.4-1.9-1.1-2.8-1.1
									c0.2-1.2-0.6-1.9-1.8-1.7C487.1,600.9,486.9,599.8,485.8,599.7L485.8,599.7L485.8,599.7z"/>
								<g>
									<g>
										<g>
											<defs>
												<path id="SVGID_00000034066586743692509110000012852838533500323748_" d="M490.5,618.3c-1.8,0-11.1-0.1-13.1-0.1
													c-1-0.2-3.9,0.6-3.9-1.1l-0.1-12.5c0-1.4,1.8-1.1,2.7-1.1c-0.2-1.2,0.6-1.9,1.8-1.7c-0.1-0.8,0.1-2,1.1-2h6.8
													c1.1,0,1.2,1.2,1.1,2c1.1-0.2,2,0.5,1.8,1.7c0.9,0,2.8-0.3,2.8,1.1l0.1,12.6C491.6,617.7,491.1,618.2,490.5,618.3"/>
											</defs>
											<clipPath id="SVGID_00000123399254970188544470000005686075608911358081_">
												<use xlink:href="#SVGID_00000034066586743692509110000012852838533500323748_"  style="overflow:visible;"/>
											</clipPath>
											<g style="clip-path:url(#SVGID_00000123399254970188544470000005686075608911358081_);">
												<path class="st36" d="M478.3,612.9c-1.1-0.2-0.3,4.9-0.5,5.3h1C478.7,617.7,479.4,612.7,478.3,612.9"/>
												<path class="st36" d="M482.2,612.9c-1.1-0.2-0.3,4.9-0.5,5.3h1C482.5,617.7,483.2,612.8,482.2,612.9"/>
												<path class="st36" d="M486,612.9c-1.1-0.2-0.3,4.9-0.5,5.3h1C486.3,617.8,487.1,612.8,486,612.9"/>
											</g>
										</g>
									</g>
								</g>
								<path class="st32" d="M441.3,617.9c0.3-0.5-0.8-5.7,0.6-5.2c0.6,0,0.2,4.9,0.4,5.2H441.3L441.3,617.9z M445.1,617.9
									c0.2-0.4-0.6-5.4,0.4-5.2c1-0.2,0.4,4.8,0.6,5.2H445.1L445.1,617.9z M448.8,618c0.3-0.5-0.8-5.7,0.6-5.2
									c0.6,0,0.2,4.9,0.4,5.2H448.8L448.8,618z M449,599.7h-6.6c-1.1,0-1.1,1.1-1.1,1.9c-1.1-0.2-1.9,0.6-1.7,1.7
									c-0.9,0-2.7-0.3-2.7,1.1l0.2,12.4c0,1.7,2.9,0.9,3.8,1.1L451,618c0.9-0.2,3.9,0.6,3.8-1l-0.1-12.5c0-1.4-1.8-1.1-2.7-1.1
									c0.2-1.1-0.6-1.9-1.7-1.7C450.3,600.8,450.1,599.7,449,599.7L449,599.7z"/>
								<g>
									<g>
										<g>
											<defs>
												<path id="SVGID_00000081606506123029966400000010694836703355054232_" d="M453.7,618c-1.7,0-10.9-0.1-12.8-0.1
													c-0.9-0.2-3.8,0.6-3.8-1.1l-0.2-12.4c0-1.4,1.8-1.1,2.7-1.1c-0.2-1.1,0.6-1.9,1.7-1.7c-0.1-0.8,0-1.9,1.1-1.9h6.6
													c1.1,0,1.2,1.2,1.1,2c1.1-0.2,2,0.6,1.8,1.7c0.9,0,2.7-0.3,2.7,1.1l0.1,12.5C454.8,617.5,454.2,618,453.7,618"/>
											</defs>
											<clipPath id="SVGID_00000096028191954486760250000010504633448079783600_">
												<use xlink:href="#SVGID_00000081606506123029966400000010694836703355054232_"  style="overflow:visible;"/>
											</clipPath>
											<g style="clip-path:url(#SVGID_00000096028191954486760250000010504633448079783600_);">
												<path class="st36" d="M441.8,612.7c-1-0.2-0.2,4.8-0.4,5.2h1C442.1,617.4,442.8,612.5,441.8,612.7"/>
												<path class="st36" d="M445.5,612.7c-1-0.2-0.2,4.8-0.4,5.2h1C445.9,617.5,446.6,612.5,445.5,612.7"/>
												<path class="st36" d="M449.3,612.7c-1-0.2-0.3,4.8-0.5,5.2h1C449.6,617.5,450.3,612.6,449.3,612.7"/>
											</g>
										</g>
									</g>
								</g>
								<path class="st32" d="M405.7,617.6c0.2-0.4-0.6-5.3,0.4-5.2c1-0.2,0.4,4.7,0.6,5.2H405.7L405.7,617.6z M409.4,617.7
									c0.2-0.4-0.6-5.3,0.4-5.2c1-0.2,0.4,4.7,0.6,5.2H409.4z M413,617.7c0.2-0.4-0.6-5.3,0.4-5.2c1-0.2,0.4,4.8,0.6,5.2H413
									L413,617.7z M413.2,599.6h-6.5c-1,0-1.1,1.1-1,1.9c-1.1-0.2-1.8,0.6-1.6,1.7c-0.8,0-2.7-0.3-2.6,1.1l0.2,12.2
									c0,1.6,2.8,0.9,3.7,1.1l9.8,0.1c0.9-0.2,3.8,0.6,3.7-1l-0.2-12.3c0-1.4-1.8-1.1-2.7-1.1c0.2-1.1-0.6-1.9-1.7-1.7
									C414.3,600.7,414.2,599.6,413.2,599.6L413.2,599.6L413.2,599.6z"/>
								<g>
									<g>
										<g>
											<defs>
												<path id="SVGID_00000055709130084265035890000014840051893379690427_" d="M417.8,617.7c-1.7,0-10.6-0.1-12.5-0.1
													c-0.9-0.2-3.7,0.6-3.7-1.1l-0.2-12.2c0-1.4,1.8-1,2.6-1.1c-0.2-1.1,0.5-1.9,1.6-1.7c-0.1-0.8,0-1.9,1-1.9h6.5
													c1,0,1.2,1.1,1.1,1.9c1.1-0.2,2,0.6,1.7,1.7c0.9,0,2.7-0.3,2.7,1.1l0.2,12.3C418.9,617.2,418.4,617.8,417.8,617.7"/>
											</defs>
											<clipPath id="SVGID_00000060724043903678940150000008772259751905982886_">
												<use xlink:href="#SVGID_00000055709130084265035890000014840051893379690427_"  style="overflow:visible;"/>
											</clipPath>
											<g style="clip-path:url(#SVGID_00000060724043903678940150000008772259751905982886_);">
												<path class="st36" d="M406.1,612.5c-1-0.2-0.2,4.7-0.4,5.2h1C406.5,617.2,407.1,612.3,406.1,612.5"/>
												<path class="st36" d="M409.8,612.5c-1-0.2-0.2,4.7-0.4,5.2h1C410.2,617.2,410.8,612.4,409.8,612.5"/>
												<path class="st36" d="M413.5,612.5c-1-0.2-0.2,4.8-0.4,5.2h1C413.8,617.2,414.5,612.4,413.5,612.5"/>
											</g>
										</g>
									</g>
								</g>
								<path class="st32" d="M371,617.4c0.2-0.4-0.6-5.2,0.4-5.1c1-0.2,0.4,4.7,0.6,5.1H371L371,617.4z M374.5,617.4
									c0.2-0.4-0.6-5.2,0.4-5.1c1-0.2,0.4,4.7,0.6,5.1H374.5L374.5,617.4z M378.1,617.4c0.2-0.4-0.6-5.2,0.4-5.1
									c1-0.2,0.4,4.7,0.6,5.1H378.1L378.1,617.4z M378.2,599.6h-6.3c-1,0-1.1,1.1-1,1.9c-1.1-0.2-1.8,0.6-1.6,1.7
									c-0.8,0-2.6-0.3-2.5,1.1l0.2,12.1c0,1.6,2.7,0.9,3.6,1.1l9.6,0.1c0.9-0.2,3.7,0.6,3.6-1l-0.2-12.2c0-1.3-1.7-1.1-2.6-1.1
									c0.2-1.1-0.6-1.9-1.7-1.7C379.3,600.7,379.2,599.6,378.2,599.6L378.2,599.6L378.2,599.6z"/>
								<g>
									<g>
										<g>
											<defs>
												<path id="SVGID_00000166653677504684563340000009987182631728169134_" d="M382.7,617.5c-1.6,0-10.3-0.1-12.2-0.1
													c-0.9-0.2-3.6,0.5-3.6-1.1l-0.3-12.1c-0.1-1.3,1.7-1,2.5-1.1c-0.2-1.1,0.5-1.9,1.6-1.6c-0.1-0.8,0-1.9,1-1.9h6.3
													c1,0,1.1,1.1,1.1,1.9c1.1-0.2,1.9,0.6,1.7,1.7c0.9,0,2.6-0.3,2.6,1.1l0.2,12.2C383.8,617,383.3,617.5,382.7,617.5"/>
											</defs>
											<clipPath id="SVGID_00000121264297226916029610000003730981529188973729_">
												<use xlink:href="#SVGID_00000166653677504684563340000009987182631728169134_"  style="overflow:visible;"/>
											</clipPath>
											<g style="clip-path:url(#SVGID_00000121264297226916029610000003730981529188973729_);">
												<path class="st36" d="M371.4,612.3c-1-0.2-0.2,4.7-0.4,5.1h1C371.7,616.9,372.3,612.1,371.4,612.3"/>
												<path class="st36" d="M374.9,612.3c-1-0.2-0.2,4.7-0.4,5.1h1C375.3,616.9,375.9,612.2,374.9,612.3"/>
												<path class="st36" d="M378.5,612.3c-1-0.2-0.2,4.7-0.4,5.1h1C378.9,617,379.5,612.2,378.5,612.3"/>
											</g>
										</g>
									</g>
								</g>
								<path class="st32" d="M337.1,617.1c0.2-0.4-0.8-5.5,0.5-5c0.6,0,0.3,4.7,0.4,5H337.1L337.1,617.1z M340.6,617.1
									c0.2-0.4-0.6-5.2,0.3-5c1-0.2,0.4,4.6,0.6,5H340.6L340.6,617.1z M344.1,617.2c0.2-0.4-0.6-5.2,0.3-5c1-0.2,0.4,4.6,0.6,5.1
									L344.1,617.2L344.1,617.2z M344,599.6h-6.2c-1,0-1.1,1.1-1,1.9c-1.1-0.2-1.8,0.6-1.6,1.6c-0.8,0-2.5-0.3-2.4,1.1l0.3,11.9
									c0,1.6,2.6,0.9,3.5,1.1l9.3,0.1c0.9-0.2,3.6,0.6,3.5-1l-0.3-12c0-1.3-1.7-1.1-2.5-1.1c0.2-1.1-0.6-1.9-1.6-1.7
									C345.1,600.7,345,599.6,344,599.6L344,599.6L344,599.6z"/>
								<g>
									<g>
										<g>
											<defs>
												<path id="SVGID_00000138568604665988727070000011140931381021125542_" d="M348.5,617.2c-1.6,0-10.1-0.1-11.9-0.1
													c-0.9-0.2-3.6,0.5-3.5-1.1l-0.3-11.9c-0.1-1.3,1.6-1,2.5-1c-0.2-1.1,0.5-1.8,1.6-1.6c-0.1-0.7,0-1.9,1-1.9h6.2
													c1,0,1.1,1.1,1.1,1.9c1.1-0.2,1.8,0.6,1.6,1.7c0.9,0,2.6-0.3,2.6,1.1C348.9,604.9,350.7,617.8,348.5,617.2"/>
											</defs>
											<clipPath id="SVGID_00000082336303292583638270000000405363168167278774_">
												<use xlink:href="#SVGID_00000138568604665988727070000011140931381021125542_"  style="overflow:visible;"/>
											</clipPath>
											<g style="clip-path:url(#SVGID_00000082336303292583638270000000405363168167278774_);">
												<path class="st36" d="M337.4,612.1c-1-0.2-0.2,4.6-0.4,5h0.9C337.8,616.7,338.4,611.9,337.4,612.1"/>
												<path class="st36" d="M340.9,612.1c-1-0.2-0.2,4.6-0.4,5h0.9C341.3,616.7,341.9,612,340.9,612.1"/>
												<path class="st36" d="M344.4,612.1c-1-0.2-0.2,4.6-0.4,5h1C344.8,616.7,345.4,612,344.4,612.1"/>
											</g>
										</g>
									</g>
								</g>
								<path class="st32" d="M304,616.9c0.2-0.4-0.6-5.1,0.3-5c0.9-0.2,0.4,4.6,0.6,5H304z M307.4,616.9c0.2-0.4-0.6-5.1,0.3-5
									c0.9-0.2,0.4,4.6,0.6,5H307.4z M310.8,616.9c0.2-0.4-0.6-5.1,0.3-5c0.9-0.2,0.4,4.6,0.6,5H310.8z M310.7,599.5h-6
									c-1,0-1,1.1-0.9,1.8c-1.1-0.2-1.7,0.6-1.5,1.6c-0.8,0-2.5-0.3-2.4,1l0.3,11.8c0,1.6,2.6,0.9,3.5,1.1l9.1,0.1
									c0.9-0.2,3.5,0.6,3.4-1l-0.3-11.9c0-1.3-1.6-1-2.5-1c0.2-1-0.5-1.8-1.6-1.6C311.8,600.6,311.7,599.5,310.7,599.5
									L310.7,599.5L310.7,599.5z"/>
								<g>
									<g>
										<g>
											<defs>
												<path id="SVGID_00000000921461904672187720000008530375312510576299_" d="M315.2,616.9c-1.6,0-9.8-0.1-11.6-0.1
													c-0.9-0.2-3.5,0.5-3.5-1.1l-0.3-11.8c-0.1-1.3,1.6-1,2.4-1c-0.2-1,0.5-1.8,1.5-1.6c-0.1-0.7,0-1.9,0.9-1.8h6
													c1,0,1.1,1.1,1,1.9c1.1-0.2,1.8,0.6,1.6,1.6c0.9,0,2.5-0.2,2.5,1.1C315.4,604.8,317.2,617.5,315.2,616.9"/>
											</defs>
											<clipPath id="SVGID_00000114043393255638432540000012692102305908802964_">
												<use xlink:href="#SVGID_00000000921461904672187720000008530375312510576299_"  style="overflow:visible;"/>
											</clipPath>
											<g style="clip-path:url(#SVGID_00000114043393255638432540000012692102305908802964_);">
												<path class="st36" d="M304.3,611.9c-0.9-0.2-0.1,4.6-0.3,5h0.9C304.7,616.4,305.2,611.8,304.3,611.9"/>
												<path class="st36" d="M307.7,611.9c-0.9-0.2-0.1,4.6-0.3,5h0.9C308.1,616.5,308.6,611.8,307.7,611.9"/>
												<path class="st36" d="M311.1,611.9c-0.9-0.2-0.1,4.6-0.3,5h0.9C311.5,616.5,312.1,611.8,311.1,611.9"/>
											</g>
										</g>
									</g>
								</g>
								<path class="st32" d="M239.4,599.4c-0.7,0-2.7,0-3.3,0c-0.2,0.4,0.6,5-0.3,4.9c-0.9,0.1-0.4-4.5-0.6-4.9h-2.4
									c-0.2,0.4,0.6,5-0.3,4.9c-0.9,0.1-0.4-4.5-0.6-4.9h-2.4c-0.2,0.4,0.6,5-0.3,4.9c-0.9,0.1-0.4-4.5-0.6-4.9
									c-0.9,0.2-3.6-0.6-3.6,1l0.4,11.5c0,1.2,1.5,1,2.3,1c-0.1,1,0.5,1.8,1.5,1.6c0,0.7,0.1,1.8,1,1.8h5.7c0.9,0,1-1.1,0.9-1.8
									c1,0.2,1.6-0.6,1.4-1.6c0.8,0,2.4,0.3,2.3-1C240.4,611.3,241.4,599,239.4,599.4L239.4,599.4L239.4,599.4z"/>
								<g>
									<g>
										<g>
											<defs>
												<path id="SVGID_00000116198018978242686710000002894697304719527576_" d="M239.4,599.4c-1.5,0-9.3,0-11,0
													c-0.8,0.1-3.3-0.5-3.2,1l0.4,11.5c0,1.2,1.5,1,2.3,1c-0.1,1,0.5,1.8,1.5,1.6c0,0.7,0.1,1.8,1,1.8h5.7
													c0.9,0,1-1.1,0.9-1.8c1,0.2,1.6-0.6,1.4-1.6c0.8,0,2.4,0.3,2.3-1C240.4,611.2,241.4,599,239.4,599.4"/>
											</defs>
											<clipPath id="SVGID_00000163053193250337915460000004054989595879603094_">
												<use xlink:href="#SVGID_00000116198018978242686710000002894697304719527576_"  style="overflow:visible;"/>
											</clipPath>
											<g style="clip-path:url(#SVGID_00000163053193250337915460000004054989595879603094_);">
												<path class="st36" d="M229.7,599.4h-0.9c0.1,0.3-0.1,4.8,0.4,4.8C230.5,604.7,229.5,599.8,229.7,599.4"/>
												<path class="st36" d="M232.9,599.4H232c0.1,0.3-0.1,4.8,0.4,4.8C233.7,604.8,232.7,599.8,232.9,599.4"/>
												<path class="st36" d="M236.1,599.4h-0.9c0.1,0.3-0.1,4.8,0.4,4.8C236.9,604.8,235.9,599.8,236.1,599.4"/>
											</g>
										</g>
									</g>
								</g>
								<path class="st33" d="M493.9,598.5c-2.7-0.1-2.8,4.1-0.1,4.2C496.7,603,496.8,598.3,493.9,598.5L493.9,598.5L493.9,598.5z"
									/>
								<path class="st34" d="M471,598.5c-2.7-0.1-2.8,4.1-0.1,4.2C473.7,602.9,473.8,598.3,471,598.5L471,598.5L471,598.5z"/>
								<path class="st43" d="M616.6,629.5h-4.3c-0.1,0.8-0.2,1.7-0.2,2.5h4.4C616.5,631.1,616.5,630.3,616.6,629.5L616.6,629.5
									L616.6,629.5z M627.8,629.6h-4.4c0,0.8,0,1.7,0,2.5h4.6C628,631.2,627.9,630.4,627.8,629.6L627.8,629.6z"/>
								<path class="st44" d="M620.4,621.7c-4.7-0.6-7.8,3.3-8.1,7.7h4.3c-0.4-8.3,7.5-8.3,6.8,0.1h4.4
									C627.6,625.5,624.9,621.5,620.4,621.7L620.4,621.7z"/>
								<path class="st44" d="M624,559.5c1.1,11.9-7.9,12.1-6.9,0.1L624,559.5L624,559.5z M628.6,559.5l-16,0.2
									C611.6,573.8,629.4,573.4,628.6,559.5L628.6,559.5L628.6,559.5z"/>
							</g>
						</g>
					</g>
				</g>
				<path class="st45" d="M337.6,132.7c0.4-2.4-3.3-0.5-4-1.4c3.2-10.7-3.1-20.3-14-18.7l0,0c-17.2,1.5-16.7,21.3-16.7,21.3
					s-3.4-0.4-4.4,1c0.3,4.5-7.2,32.3-2,31.9C338.2,161,330.4,175.2,337.6,132.7L337.6,132.7z M320.5,145.4
					c-2.2,4.7-2.3,0.6-2.4,7.2c-0.1,1.1,0.2,3-1.5,3c-8.4,1.1-3.6-2.4-3.5-7.3C307.8,142,322.2,136.7,320.5,145.4z M326.7,131.7
					c-0.2-0.1-17,1.6-17.1,1.3C308.4,117,332.4,112.8,326.7,131.7z"/>
				<g>
					<polygon class="st46" points="690.7,589.9 691.5,589.9 691.4,594.9 690.6,594.9 					"/>
					<polygon class="st46" points="677.7,591.2 678.8,594.2 679.9,591.2 680.8,591.2 679.2,594.9 678.2,594.9 676.8,591.2 					"/>
					<path class="st46" d="M674.6,590.3c0-0.5,0.9-0.5,0.9,0C675.4,590.9,674.5,590.9,674.6,590.3z"/>
					<path class="st46" d="M673.3,590.3c0-0.5,0.9-0.5,0.9,0C674.2,590.9,673.3,590.9,673.3,590.3z"/>
					<path class="st46" d="M661.1,589.8h0.5c-0.1,0.7,1.3,0.7,1.2,0h0.5C663.4,591.2,660.9,591.3,661.1,589.8L661.1,589.8z"/>
					<path class="st46" d="M657.7,590.3h-1l-1.8,4.6h0.8l0.4-0.9h2.1l0.3,0.9h0.9L657.7,590.3L657.7,590.3z M656.4,593.3l0.8-2.2
						l0.8,2.2H656.4z"/>
					<polygon class="st46" points="657.6,602.9 655.1,602.9 655.2,598.2 656,598.2 655.9,602.2 657.6,602.2 					"/>
					<path class="st46" d="M663.2,591.2v0.5c-4.2-2.8-4.2,5.5,0,2.6c0.4,1.5-1.5,2.4-2.2,1.1h-0.8c0.2,1.6,2.9,1.7,3.6,0.5
						c0.5-0.5,0.2-3.9,0.3-4.6L663.2,591.2L663.2,591.2z M663.2,593.2c-0.2,1.7-2.9,1.1-2.3-0.5
						C661.2,591.3,663.5,591.8,663.2,593.2z"/>
					<polygon class="st46" points="668.5,602.9 667.7,602.9 667.8,597.9 668.6,597.9 					"/>
					<path class="st46" d="M668.9,594.9c-5.2-1.2,0.2-7.6,2.7-3.3h-1c-0.9-1.5-3.4-0.5-3.1,1.2c0.1,1.8,3.1,2,3.3,0.1H669v-0.6h2.8
						C671.9,593.9,670.4,595.1,668.9,594.9z"/>
					<path class="st46" d="M672.7,599.2v0.5c-4.2-2.9-4.3,5.5-0.1,2.6v0.6h0.8v-3.7L672.7,599.2L672.7,599.2z M672.6,601.2
						c-0.2,1.6-2.7,1.2-2.4-0.4C670.4,599.3,672.9,599.6,672.6,601.2z"/>
					<path class="st46" d="M674.3,594.9c-2.2,0.3-1.8-2.4-1.8-3.7h0.8c0.1,0.8-0.5,3.2,1,3.1c1.5,0.1,0.9-2.2,1-3.1h0.8v3.7h-0.8
						v-0.4C675,594.7,674.7,594.9,674.3,594.9z"/>
					<path class="st46" d="M681,602.9h-0.8c-0.1-0.8,0.5-3.2-1-3.1c-1.5-0.1-0.9,2.2-1,3.1h-0.8c-0.1-0.8,0.5-3.2-1-3.1
						c-1.5-0.1-0.9,2.2-1,3.1h-0.8l0.1-3.7h0.8v0.4c0.7-0.7,2.1-0.6,2.6,0.2C680.5,597.6,681.4,600.7,681,602.9L681,602.9z"/>
					<path class="st46" d="M685.1,592.7c-0.2-2.1-3.8-2-3.9,0.1c-0.5,2.2,3,3,3.8,1h-0.9c-0.5,0.9-2.1,0.6-2.1-0.5h3.1
						C685.1,593.1,685.1,592.9,685.1,592.7z M682,592.7c0.1-1.2,2.2-1.3,2.2,0H682L682,592.7z"/>
					<path class="st46" d="M685.1,599.2v0.5c-4.2-2.9-4.4,5.5,0,2.6v0.5h0.8l0.1-3.7h-0.9L685.1,599.2L685.1,599.2z M685.1,601.1
						c0.1,1.6-2.5,1.6-2.4,0C682.6,599.4,685.2,599.4,685.1,601.1z"/>
					<path class="st46" d="M688.7,592.6c-0.1-0.9-1.4-1.1-1.8-0.4c-0.3,0.4-0.1,2.2-0.2,2.7h-0.8l0.1-3.7h0.8v0.4
						c2.5-1.8,3.1,1.3,2.8,3.3h-0.8C688.7,594.7,688.8,592.7,688.7,592.6z"/>
					<path class="st46" d="M692.3,601.8c-0.3,1.6-3.5,1.6-3.5-0.2h0.9c0.1,1.3,2.8,0.5,1.5-0.5c-0.7-0.4-1.6-0.3-2.1-0.9
						c-1.2-2.1,3.1-2.9,3.3-0.8h-0.9c-0.1-1-2.1-0.7-1.6,0.3C690.5,600.5,692.6,600.2,692.3,601.8z"/>
					<path class="st46" d="M692.5,590.2c0-0.6,1.1-0.7,1.1,0C693.6,590.8,692.5,590.8,692.5,590.2z"/>
					<polygon class="st46" points="692.6,591.2 693.4,591.2 693.4,594.9 692.5,594.9 					"/>
					<polygon class="st46" points="694.1,602.9 693.3,602.9 693.3,599.2 694.2,599.2 					"/>
					<path class="st46" d="M694.3,598.4c-0.1,0.6-1.2,0.4-1-0.2C693.4,597.5,694.5,597.7,694.3,598.4z"/>
					<polygon class="st46" points="694.5,589.9 695.4,589.9 695.3,592.8 696.8,591.2 698,591.2 696.1,593 697.9,594.9 696.8,594.9 
						695.3,593.3 695.3,594.9 694.5,594.9 					"/>
					<path class="st46" d="M698.2,602c-0.3,1.4-3.1,1.2-3.2-0.3h0.9c0,1,2.4,0.4,1.2-0.2c-0.5-0.2-1.2-0.2-1.7-0.6
						c-1.5-1.8,2.8-2.6,2.8-0.6h-0.8c0-0.8-1.8-0.7-1.3,0.1C696.8,601,698.4,600.8,698.2,602z"/>
					<path class="st46" d="M701.1,599.9h-1c0.1,0.8-0.6,2.9,0.9,2.5v0.7c-2.3,0.4-1.8-1.6-1.8-3.1h-0.5v-0.6h0.5v-0.9h0.8v0.9h1
						L701.1,599.9L701.1,599.9z"/>
					<polygon class="st46" points="700,591.2 700.9,591.2 702,594.2 703.2,591.2 704.1,591.1 702.5,594.9 701.5,594.9 					"/>
					<path class="st46" d="M705.6,600.7c-0.2-2-3.5-2.1-3.9-0.2c-0.8,2.3,3,3.5,3.8,1.3h-0.9c-0.5,0.9-2.1,0.6-2.1-0.5h3.1
						C705.6,601.2,705.6,600.9,705.6,600.7L705.6,600.7z M702.5,600.8c0.1-1.2,2.2-1.3,2.2,0H702.5z"/>
					<path class="st46" d="M708.4,592.6c-0.2-2.2-3.8-2-4,0.1c-0.5,2.3,3.1,3.1,3.9,1h-0.9c-0.4,0.9-2.1,0.6-2.1-0.5h3.1
						C708.5,593.1,708.5,592.9,708.4,592.6L708.4,592.6z M705.3,592.7c0.1-1.2,2.2-1.3,2.2,0H705.3z"/>
					<path class="st46" d="M713,603h-0.8c-0.1-0.8,0.6-3.2-1-3.1c-1.5-0.1-1,2.2-1.1,3.1h-0.8c-0.1-0.9,0.6-3.5-1.2-3.1
						c-1.3,0.1-0.7,2.3-0.9,3.1h-0.8l0.1-3.7h0.8v0.4c0.7-0.7,2.1-0.6,2.7,0.2C712.5,597.6,713.5,600.7,713,603L713,603z"/>
					<path class="st46" d="M714.1,598.3c0-0.7,1.1-0.7,1.1,0C715.2,598.9,714.1,598.9,714.1,598.3z"/>
					<polygon class="st46" points="714.1,603 714.2,599.2 715,599.2 714.9,603 					"/>
					<path class="st47" d="M693,590.7c0.7,0,0.7-1,0-1C692.4,589.7,692.3,590.7,693,590.7"/>
					<path class="st46" d="M662,590.3c-0.3,0-0.5-0.2-0.4-0.5h-0.5c-0.2,1.4,2.3,1.4,2.2,0h-0.5C662.8,590.3,662.3,590.4,662,590.3z
						"/>
					<polygon class="st46" points="695.3,594.9 695.3,593.3 696.8,594.9 697.9,594.9 696.1,593 698,591.2 696.8,591.2 695.3,592.8 
						695.4,589.9 694.5,589.9 694.5,594.9 					"/>
					<polygon class="st46" points="691.4,594.9 691.5,589.9 690.7,589.9 690.6,594.9 					"/>
					<path class="st47" d="M675,590.7c0.6,0,0.5-0.9-0.1-0.8C674.4,590,674.5,590.8,675,590.7"/>
					<path class="st47" d="M673.8,590.7c0.5,0,0.6-0.7,0.1-0.8C673.2,589.8,673.1,590.8,673.8,590.7"/>
					<path class="st46" d="M669.5,594.9c1.3-0.1,2.4-1.3,2.2-2.6H669v0.6h1.9c-0.2,1.8-3.2,1.7-3.3-0.2c-0.3-1.7,2.2-2.7,3.1-1.2h1
						C668.5,586.9,663.5,594.7,669.5,594.9z"/>
					<path class="st46" d="M657.7,590.3h-1l-1.8,4.6h0.8l0.4-0.9h2.1l0.3,0.9h0.9L657.7,590.3L657.7,590.3z M656.4,593.3l0.8-2.2
						l0.8,2.2H656.4z"/>
					<path class="st46" d="M708.4,592.6c-0.2-2.2-3.8-2-4,0.1c-0.5,2.3,3.1,3.1,3.9,1h-0.9c-0.4,0.9-2.1,0.6-2.1-0.5h3.1
						C708.5,593.1,708.5,592.9,708.4,592.6L708.4,592.6z M705.3,592.7c0.1-1.2,2.2-1.3,2.2,0H705.3z"/>
					<path class="st46" d="M686.8,591.2H686l-0.1,3.7h0.8c0.1-0.9-0.4-3.2,1.1-3.1c1.5-0.1,0.9,2.2,1,3.1h0.8
						c0.4-1.9-0.2-5.1-2.8-3.3V591.2L686.8,591.2z"/>
					<path class="st46" d="M685.1,592.7c-0.2-2.1-3.8-2-3.9,0.1c-0.5,2.2,3,3,3.8,1h-0.9c-0.5,0.9-2.1,0.6-2.1-0.5h3.1
						C685.1,593.1,685.1,592.9,685.1,592.7z M682,592.7c0.1-1.2,2.2-1.3,2.2,0H682L682,592.7z"/>
					<path class="st46" d="M663.2,591.2v0.5c-4.2-2.8-4.2,5.5,0,2.6c0.4,1.5-1.5,2.4-2.2,1.1h-0.8c0.2,1.6,2.9,1.7,3.6,0.5
						c0.5-0.5,0.2-3.9,0.3-4.6L663.2,591.2L663.2,591.2z M663.2,593.2c-0.2,1.7-2.9,1.1-2.3-0.5
						C661.2,591.3,663.5,591.8,663.2,593.2z"/>
					<polygon class="st46" points="703.2,591.2 702,594.2 700.9,591.2 700,591.2 701.5,594.9 702.5,594.9 704.1,591.1 					"/>
					<polygon class="st46" points="692.5,594.9 693.4,594.9 693.4,591.2 692.6,591.2 					"/>
					<polygon class="st46" points="679.9,591.2 678.8,594.2 677.7,591.2 676.8,591.2 678.2,594.9 679.2,594.9 680.8,591.2 					"/>
					<path class="st46" d="M674.3,594.3c-1.5,0.1-0.8-2.2-1-3.1h-0.8c-0.4,1.9,0.3,5.1,2.8,3.2v0.4h0.8v-3.7h-0.8
						C675.2,592,675.8,594.4,674.3,594.3L674.3,594.3L674.3,594.3z"/>
					<path class="st47" d="M714.6,598.7c0.7,0,0.7-1,0-1C713.9,597.7,713.9,598.8,714.6,598.7"/>
					<path class="st47" d="M693.8,598.7c0.7,0,0.7-1,0-1S693.1,598.8,693.8,598.7"/>
					<polygon class="st46" points="668.5,602.9 668.6,597.9 667.8,597.9 667.7,602.9 					"/>
					<path class="st46" d="M690.3,598.2c-1.2-0.1-2.1,1.4-1.1,2.2c0.6,0.5,2,0.2,2.2,1.2c0,0.9-1.8,0.9-1.8,0h-0.9
						c0.1,2.4,4.9,1.3,3.2-0.9c-0.5-0.5-1.4-0.5-2-0.8c-1.2-0.9,1.3-1.7,1.4-0.5h0.9C692.2,598.5,691.2,598.1,690.3,598.2
						L690.3,598.2z"/>
					<polygon class="st46" points="657.6,602.9 657.6,602.2 655.9,602.2 656,598.2 655.2,598.2 655.1,602.9 					"/>
					<path class="st46" d="M699.3,599.9c0,1.5-0.6,3.5,1.8,3.1v-0.7c-1.5,0.5-0.8-1.7-0.9-2.5h1v-0.6h-1v-0.9h-0.8v0.9h-0.5v0.6
						L699.3,599.9L699.3,599.9z"/>
					<path class="st46" d="M709.9,599.7c-0.6-0.8-1.9-0.8-2.5-0.1v-0.4h-0.8l-0.1,3.7h0.8c0.2-0.8-0.4-3,0.9-3.1
						c1.7-0.4,1.1,2.2,1.2,3.1h0.8c0.1-0.9-0.4-3.2,1.1-3.1c1.5-0.1,0.8,2.3,1,3.1h0.8c0.4-2.2-0.5-5.4-3-3.1
						C709.9,599.8,709.9,599.8,709.9,599.7L709.9,599.7z"/>
					<path class="st46" d="M705.6,600.7c-0.2-2-3.5-2.1-3.9-0.2c-0.8,2.3,3,3.5,3.8,1.3h-0.9c-0.5,0.9-2.1,0.6-2.1-0.5h3.1
						C705.6,601.2,705.6,600.9,705.6,600.7L705.6,600.7z M702.5,600.8c0.1-1.2,2.2-1.3,2.2,0H702.5z"/>
					<path class="st46" d="M697,599.2c0.6,0,1.2,0.5,1.2,1.2h-0.8c-0.2-1.2-3.4-0.3,0.6,0.9c1.5,1.9-2.9,2.5-2.9,0.6h0.9
						c0,0.9,2.2,0.6,1.3-0.2C694.8,601.4,694.2,599.1,697,599.2z"/>
					<path class="st46" d="M685.1,599.2v0.5c-4.2-2.9-4.4,5.5,0,2.6v0.5h0.8l0.1-3.7h-0.9L685.1,599.2L685.1,599.2z M685.1,601.1
						c0.1,1.6-2.5,1.6-2.4,0C682.6,599.4,685.2,599.4,685.1,601.1z"/>
					<path class="st46" d="M677.9,599.7c-0.6-0.7-1.8-0.8-2.5-0.1v-0.4h-0.8l-0.1,3.7h0.8c0.1-0.8-0.5-3.2,1-3.1
						c1.5-0.1,0.8,2.2,1,3.1h0.8c0.1-0.9-0.4-3.4,1.3-3.1c1.2,0.1,0.6,2.3,0.7,3.1h0.8c0.4-2.2-0.5-5.3-3-3
						C678,599.8,677.9,599.7,677.9,599.7L677.9,599.7z"/>
					<path class="st46" d="M672.7,599.2v0.5c-4.2-2.9-4.3,5.5-0.1,2.6v0.6h0.8v-3.7L672.7,599.2L672.7,599.2z M672.6,601.2
						c-0.2,1.6-2.7,1.2-2.4-0.4C670.4,599.3,672.9,599.6,672.6,601.2z"/>
					<polygon class="st46" points="714.1,603 714.9,603 715,599.2 714.2,599.2 					"/>
					<polygon class="st46" points="693.3,602.9 694.1,602.9 694.2,599.2 693.3,599.2 					"/>
					<path class="st47" d="M663.1,592.7c-0.4-1.5-2.8-0.8-2.3,0.7C661.2,595,663.6,594.2,663.1,592.7z"/>
					<path class="st47" d="M685,600.5c-0.6-1.5-2.9-0.5-2.3,1C683.4,603.1,685.6,602,685,600.5z"/>
					<path class="st47" d="M672.6,600.7c-0.4-1.6-2.8-0.8-2.3,0.7C670.7,602.9,673,602.2,672.6,600.7z"/>
					<path class="st46" d="M657.7,590.3h-1l-1.8,4.6h0.8l0.4-0.9h2.1l0.3,0.9h0.9L657.7,590.3L657.7,590.3z M656.4,593.3l0.8-2.2
						l0.8,2.2H656.4z"/>
					<path class="st47" d="M662.8,589.8c0,0.7-1.3,0.7-1.2,0h-0.5c-0.2,1.4,2.3,1.4,2.2,0H662.8L662.8,589.8z M663.2,591.2v0.5
						c-4.2-2.8-4.2,5.5,0,2.6c0.4,1.5-1.5,2.4-2.2,1.1h-0.8c0.2,1.6,2.9,1.7,3.6,0.5c0.5-0.5,0.2-3.9,0.3-4.6L663.2,591.2
						L663.2,591.2z M663.2,593.2c-0.2,1.7-2.9,1.1-2.3-0.5C661.2,591.3,663.5,591.8,663.2,593.2z"/>
					<path class="st46" d="M669.3,590.2c-2.3-0.2-3.6,2.9-1.6,4.3c1.6,1.2,4.3,0,4.1-2.1H669v0.6h1.9c-0.2,1.6-2.7,1.7-3.2,0.3
						c-0.8-1.8,1.9-3.3,3-1.7h1C671.2,590.6,670.2,590.2,669.3,590.2L669.3,590.2L669.3,590.2z"/>
					<path class="st47" d="M675.4,590.2c-0.2-0.5-1-0.2-0.8,0.3C674.8,591,675.6,590.7,675.4,590.2z M674.2,590.2
						c-0.1-0.5-1-0.3-0.8,0.2C673.4,590.9,674.3,590.8,674.2,590.2z M675.3,591.2c-0.1,0.8,0.5,3.2-1,3.1c-1.5,0.1-0.8-2.2-1-3.1
						h-0.8c-0.3,1.9,0.3,5.1,2.8,3.2v0.4h0.8v-3.7L675.3,591.2L675.3,591.2z"/>
					<polygon class="st46" points="680.8,591.2 679.9,591.2 678.8,594.2 677.7,591.2 676.8,591.2 678.2,594.9 679.2,594.9 					"/>
					<path class="st46" d="M685.1,592.7c-0.2-2.1-3.8-2-3.9,0.1c-0.5,2.2,3,3,3.8,1h-0.9c-0.5,0.9-2.1,0.6-2.1-0.5h3.1
						C685.1,593.1,685.1,592.9,685.1,592.7z M682,592.7c0.1-1.2,2.2-1.3,2.2,0H682L682,592.7z"/>
					<path class="st46" d="M688,591.1c-0.4,0-0.9,0.2-1.2,0.5v-0.4H686l-0.1,3.7h0.8c0.1-0.9-0.4-3.2,1.1-3.1c1.5-0.1,0.9,2.2,1,3.1
						h0.8C689.5,593.6,690,591,688,591.1L688,591.1z"/>
					<polygon class="st46" points="691.5,589.9 690.7,589.9 690.6,594.9 691.4,594.9 					"/>
					<path class="st47" d="M693.5,590c-0.3-0.6-1.3-0.1-0.9,0.5C692.9,590.9,693.8,590.5,693.5,590z M692.6,591.2l-0.1,3.7h0.8
						l0.1-3.7H692.6z"/>
					<polygon class="st46" points="695.4,589.9 694.5,589.9 694.5,594.9 695.3,594.9 695.3,593.3 696.8,594.9 697.9,594.9 
						696.1,593 698,591.2 696.8,591.2 695.3,592.8 					"/>
					<polygon class="st46" points="704.1,591.2 703.2,591.2 702,594.2 700.9,591.2 700,591.2 701.5,594.9 702.5,594.9 					"/>
					<path class="st46" d="M708.4,592.6c-0.2-2.2-3.8-2-4,0.1c-0.5,2.3,3.1,3.1,3.9,1h-0.9c-0.4,0.9-2.1,0.6-2.1-0.5h3.1
						C708.5,593.1,708.5,592.9,708.4,592.6L708.4,592.6z M705.3,592.7c0.1-1.2,2.2-1.3,2.2,0H705.3z"/>
					<polygon class="st46" points="656,598.2 655.2,598.2 655.1,602.9 657.6,602.9 657.6,602.2 655.9,602.2 					"/>
					<path class="st46" d="M662,600.8c-0.3-2.8-5-1.6-3.9,1C659,603.8,662.4,602.9,662,600.8z M661.2,601.2c-0.3,1.8-3,1-2.3-0.7
						C659.5,599.2,661.5,599.9,661.2,601.2z"/>
					<path class="st46" d="M665.9,599.2v0.5c-4.2-2.9-4.3,5.5,0,2.6c0.4,1.5-1.5,2.4-2.2,1.1h-0.8c0.2,1.6,2.9,1.7,3.6,0.5
						c0.4-0.6,0.2-3.9,0.3-4.6C666.7,599.2,665.9,599.2,665.9,599.2z M665.8,601.2c-0.2,1.6-2.7,1.2-2.4-0.4
						C663.6,599.3,666.1,599.6,665.8,601.2z"/>
					<polygon class="st46" points="668.6,597.9 667.8,597.9 667.7,602.9 668.5,602.9 					"/>
					<path class="st47" d="M672.7,599.2v0.5c-4.2-2.9-4.3,5.5-0.1,2.6v0.6h0.8v-3.7L672.7,599.2L672.7,599.2z M672.6,601.2
						c-0.2,1.6-2.7,1.2-2.4-0.4C670.4,599.3,672.9,599.6,672.6,601.2z"/>
					<path class="st46" d="M679.4,599.2c-0.5,0-1.1,0.2-1.4,0.7c-0.5-0.9-1.9-1-2.6-0.2v-0.4h-0.8v3.7h0.8c0.1-0.8-0.5-3.2,1-3.1
						c1.5-0.1,0.8,2.2,1,3.1h0.8c0.1-0.8-0.5-3.2,1-3.1c1.5-0.1,0.8,2.2,1,3.1h0.8C681,601.6,681.4,599,679.4,599.2L679.4,599.2
						L679.4,599.2z"/>
					<path class="st47" d="M685.1,599.2v0.5c-4.2-2.9-4.4,5.5,0,2.6v0.5h0.8l0.1-3.7h-0.9L685.1,599.2L685.1,599.2z M685.1,601.1
						c0.1,1.6-2.5,1.6-2.4,0C682.6,599.4,685.2,599.4,685.1,601.1z"/>
					<path class="st46" d="M690.6,598.2c-1.2-0.2-2.4,1.2-1.5,2.1c0.6,0.5,1.5,0.4,2.1,0.8c1,1.1-1.5,1.7-1.6,0.4h-0.9
						c0.1,2.2,4.6,1.4,3.3-0.7c-0.5-0.6-1.4-0.6-2-0.9c-1.4-0.8,1.1-1.8,1.3-0.6h0.9C692.3,598.6,691.4,598.2,690.6,598.2
						L690.6,598.2L690.6,598.2z"/>
					<path class="st47" d="M694.3,598.2c-0.1-0.6-1.2-0.4-1,0.2C693.4,599,694.4,598.8,694.3,598.2z M693.3,599.2l-0.1,3.7h0.8
						l0.1-3.7H693.3z"/>
					<path class="st46" d="M696.7,599.2c-2.8,0.4-1.3,2.2,0.6,2.5c0.6,0.8-1.4,1-1.4,0.1H695c0.1,2.2,4.8,1,2.7-0.7
						c-3.4-0.7-0.8-2.1-0.3-0.7h0.8C698.2,599.6,697.4,599.1,696.7,599.2L696.7,599.2z"/>
					<path class="st46" d="M700.2,598.3h-0.8v0.9h-0.5v0.6h0.5c0,1.5-0.6,3.5,1.8,3.1v-0.7c-1.6,0.4-0.8-1.6-0.9-2.5h1v-0.6h-1
						L700.2,598.3L700.2,598.3L700.2,598.3z"/>
					<path class="st46" d="M705.6,600.7c-0.2-2-3.5-2.1-3.9-0.2c-0.8,2.3,3,3.5,3.8,1.3h-0.9c-0.5,0.9-2.1,0.6-2.1-0.5h3.1
						C705.6,601.2,705.6,600.9,705.6,600.7L705.6,600.7z M702.5,600.8c0.1-1.2,2.2-1.3,2.2,0H702.5z"/>
					<path class="st46" d="M711.4,599.2c-0.5,0-1.2,0.2-1.4,0.7c-0.5-0.9-2-1-2.7-0.2v-0.4h-0.8l-0.1,3.7h0.8
						c0.1-0.9-0.4-3.2,1.1-3.1c1.5-0.1,0.8,2.3,1,3.1h0.8c0.1-0.9-0.4-3.2,1.1-3.1c1.5-0.1,0.8,2.3,1,3.1h0.8
						C713,601.7,713.5,599,711.4,599.2L711.4,599.2z"/>
					<path class="st47" d="M715.1,598.2c-0.1-0.6-1.2-0.5-1.1,0.2C714.2,599,715.3,598.8,715.1,598.2z M714.2,599.2l-0.1,3.7h0.8
						l0.1-3.7H714.2z"/>
				</g>
				<path class="st20" d="M899.9,576.1c2.1-0.1,2.1,4.8,0,4.8C897.8,581,897.8,576.1,899.9,576.1z"/>
				<path class="st20" d="M763.1,616.4c1.4,0,1.4,3.4,0,3.3C761.7,619.7,761.7,616.3,763.1,616.4z"/>
				<path class="st20" d="M762,555.7c1.4,0,1.4,3.4,0,3.3C760.6,559,760.6,555.6,762,555.7z"/>
			</g>
		</g>
	</g>
</g>
</svg>
