<?xml version="1.0" encoding="UTF-8"?>
<svg id="katman_1" data-name="katman 1" xmlns="http://www.w3.org/2000/svg" xmlns:xlink="http://www.w3.org/1999/xlink" viewBox="0 0 544.63 775.27">
  <defs>
    <style>
      .cls-1 {
        letter-spacing: 0em;
      }

      .cls-2 {
        fill: url(#Adsız_degrade_3);
      }

      .cls-2, .cls-3, .cls-4, .cls-5, .cls-6, .cls-7, .cls-8, .cls-9, .cls-10, .cls-11, .cls-12, .cls-13, .cls-14 {
        stroke-width: 0px;
      }

      .cls-3 {
        fill: url(#Adsız_degrade_4);
      }

      .cls-4 {
        fill: url(#Adsız_degrade_2);
      }

      .cls-5 {
        fill: url(#Adsız_degrade_5);
      }

      .cls-6 {
        fill: url(#Adsız_degrade_8);
      }

      .cls-7 {
        fill: url(#Adsız_degrade_6);
      }

      .cls-15 {
        letter-spacing: 0em;
      }

      .cls-16 {
        font-size: 23.4px;
      }

      .cls-16, .cls-17, .cls-18, .cls-19 {
        font-family: Montserrat-Medium, Montserrat;
        font-weight: 500;
      }

      .cls-16, .cls-18 {
        fill: #4d4d4d;
      }

      .cls-20 {
        letter-spacing: -.01em;
      }

      .cls-21 {
        letter-spacing: -.02em;
      }

      .cls-22 {
        fill: #e7e7e7;
      }

      .cls-22, .cls-23, .cls-24 {
        stroke-miterlimit: 10;
      }

      .cls-22, .cls-24 {
        stroke: #333;
        stroke-width: .25px;
      }

      .cls-17 {
        font-size: 16.89px;
      }

      .cls-17, .cls-10, .cls-13 {
        fill: #fff;
      }

      .cls-18, .cls-19 {
        font-size: 19.12px;
      }

      .cls-25 {
        letter-spacing: 0em;
      }

      .cls-26 {
        letter-spacing: 0em;
      }

      .cls-27 {
        letter-spacing: .01em;
      }

      .cls-8 {
        fill: #e10a1a;
        fill-rule: evenodd;
      }

      .cls-28 {
        letter-spacing: 0em;
      }

      .cls-29 {
        letter-spacing: -.06em;
      }

      .cls-23 {
        stroke: #999;
        stroke-width: 7px;
      }

      .cls-23, .cls-24 {
        fill: none;
      }

      .cls-10 {
        filter: url(#drop-shadow-1);
      }

      .cls-11 {
        fill: #3e3e3e;
      }

      .cls-12 {
        fill: #999;
      }

      .cls-14 {
        fill: #00b600;
      }

      .cls-30 {
        letter-spacing: 0em;
      }

      .cls-19 {
        fill: #b3b3b3;
      }
    </style>
    <linearGradient id="Adsız_degrade_8" data-name="Adsız degrade 8" x1="0" y1="397.79" x2="7.88" y2="397.79" gradientTransform="translate(0 789.39) scale(1 -1)" gradientUnits="userSpaceOnUse">
      <stop offset="0" stop-color="#f4f8fd"/>
      <stop offset="0" stop-color="#f3f8fd"/>
      <stop offset=".14" stop-color="#edffff"/>
      <stop offset=".83" stop-color="#f5f9fc"/>
      <stop offset="1" stop-color="#f9f8fc"/>
    </linearGradient>
    <linearGradient id="Adsız_degrade_2" data-name="Adsız degrade 2" x1="538.07" y1="397.69" x2="545.79" y2="397.69" gradientTransform="translate(0 789.39) scale(1 -1)" gradientUnits="userSpaceOnUse">
      <stop offset="0" stop-color="#fff"/>
      <stop offset=".07" stop-color="#f3ffff"/>
      <stop offset=".14" stop-color="#edffff"/>
      <stop offset=".83" stop-color="#f5f9fc"/>
      <stop offset="1" stop-color="#f9f8fc"/>
    </linearGradient>
    <linearGradient id="Adsız_degrade_3" data-name="Adsız degrade 3" x1="512.78" y1="386.97" x2="532.13" y2="386.97" gradientTransform="translate(0 789.39) scale(1 -1)" gradientUnits="userSpaceOnUse">
      <stop offset="0" stop-color="#f0f0f0"/>
      <stop offset="0" stop-color="#ededed"/>
      <stop offset=".14" stop-color="#b4b4b4"/>
      <stop offset=".27" stop-color="#858585"/>
      <stop offset=".4" stop-color="#606060"/>
      <stop offset=".51" stop-color="#454545"/>
      <stop offset=".62" stop-color="#353535"/>
      <stop offset=".7" stop-color="#303030"/>
    </linearGradient>
    <linearGradient id="Adsız_degrade_4" data-name="Adsız degrade 4" x1="23.62" y1="746.03" x2="532.15" y2="746.03" gradientTransform="translate(0 789.39) scale(1 -1)" gradientUnits="userSpaceOnUse">
      <stop offset="0" stop-color="#000"/>
      <stop offset=".1" stop-color="#121212"/>
      <stop offset=".25" stop-color="#2a2a2a"/>
      <stop offset=".4" stop-color="#383838"/>
      <stop offset=".52" stop-color="#3e3e3e"/>
      <stop offset=".63" stop-color="#363636"/>
      <stop offset=".8" stop-color="#212121"/>
      <stop offset="1" stop-color="#000"/>
      <stop offset="1" stop-color="#000"/>
    </linearGradient>
    <linearGradient id="Adsız_degrade_5" data-name="Adsız degrade 5" x1="12.49" y1="387.16" x2="24.08" y2="387.16" gradientTransform="translate(0 789.39) scale(1 -1)" gradientUnits="userSpaceOnUse">
      <stop offset="0" stop-color="#3e3e3e"/>
      <stop offset=".03" stop-color="#3c3c3c"/>
      <stop offset=".67" stop-color="#121212"/>
      <stop offset="1" stop-color="#030303"/>
    </linearGradient>
    <linearGradient id="Adsız_degrade_6" data-name="Adsız degrade 6" x1="512.81" y1="387.09" x2="532.16" y2="387.09" gradientTransform="translate(0 789.39) scale(1 -1)" gradientUnits="userSpaceOnUse">
      <stop offset="0" stop-color="#030303"/>
      <stop offset=".33" stop-color="#121212"/>
      <stop offset=".97" stop-color="#3c3c3c"/>
      <stop offset="1" stop-color="#3e3e3e"/>
    </linearGradient>
    <filter id="drop-shadow-1" filterUnits="userSpaceOnUse">
      <feOffset dx="0" dy="7"/>
      <feGaussianBlur result="blur" stdDeviation="5"/>
      <feFlood flood-color="#c7d2ea" flood-opacity=".5"/>
      <feComposite in2="blur" operator="in"/>
      <feComposite in="SourceGraphic"/>
    </filter>
  </defs>
  <g>
    <g>
      <path class="cls-6" d="m67.79,7.92C33.94,10.51,7.19,38.87,7.19,73.35v701.92H.26c.79-13.1-1.49-693.02.77-705.54,2-13.75,8.01-26.66,17.11-37.07,12.44-14.36,30.67-23.53,49.65-24.74h0Z"/>
      <path class="cls-4" d="m544.61,80.28v694.99h-6.92c-.05-2.86.1-701.86-.05-704.41-.16-4.43-.78-8.83-1.83-13.13-2.11-8.61-6.01-16.79-11.36-23.85-10.7-14.29-27.4-23.87-45.16-25.76,36.11,2.92,65.99,35.95,65.32,72.16h0Z"/>
    </g>
    <path class="cls-11" d="m544.62,73.35v6.93c.16-40.12-33.14-72.7-72.54-72.54-4.21.09-398.61-.17-402.66.08C30.99,9.61.27,41.43.27,80.28-2.38,47.82,17.61,15.39,48.76,4.91,60.41-3.26,468.97.96,486.03,2.17c.01,0,.03,0,.03,0,33.23,6.03,59.1,37.39,58.56,71.18Z"/>
  </g>
  <path class="cls-2" d="m532.13,73.45v701.82h-11.04c-.04-2.03.08-701.79-.04-703.64v-11.1c-.02-10.85-2.93-21.7-8.27-30.97.11.1.22.21.33.32h.02c11.67,10.88,18.96,26.58,19,43.56h0Z"/>
  <path class="cls-9" d="m519.48,46.37s-.02-.06-.04-.07c-8.91-15.61-25.32-26.39-44.47-27.41-3.1-.18-398.95,0-402.17-.06-20-.11-38.16,11.13-47.39,27.56,0,0-.01,0-.01,0-4.55,7.97-7.13,17.17-7.13,26.96v701.91h14.54V73.36c0-21.08,16.37-38.53,37.35-39.91,2.44-.23,399.25,0,401.91-.08,2.11,0,4.47.17,6.57.54,4.9.79,9.65,2.53,13.9,5.08h.01c9.73,5.77,16.78,15.79,18.82,26.94,2.08,10.2-.05,699.45.69,709.34h14.55V73.36c0-9.8-2.59-19.02-7.13-26.99Z"/>
  <path class="cls-9" d="m414.45,33.37c-3.29.17-280.74.17-284.03,0h284.03Z"/>
  <g>
    <path class="cls-3" d="m532.14,73.45c.2-32.02-25.01-58.46-56.94-60.1-3.25-.23-398.97.02-402.35-.07-2.39,0-4.75.13-7.1.42-36.11,5.04-43.62,26.18-41.9,59.66-.01-26.26,20.72-47.75,46.69-48.95,5.61-.05,398.6-.14,404.18.03,25.33,1.33,45.32,21.75,46.35,46.9.65-14.3-.85-30.16-8.27-42.07,11.93,11,19.35,26.76,19.35,44.19h0Z"/>
    <path class="cls-5" d="m25.36,46.47c-1.02,4.48-1.55,9.16-1.55,13.96v714.84h-11.08c.72-12.95-1.36-698.72.7-711.12,2.03-13.34,8.72-25.87,18.65-34.97-3.05,5.31-5.34,11.13-6.72,17.29h0Z"/>
    <path class="cls-7" d="m532.16,73.39v701.88h-11.08V60.57c0-10.84-2.71-21.31-7.95-30.68h-.01c-.09-.2-.2-.38-.31-.57,12.22,11.17,19.39,27.53,19.35,44.08h0Z"/>
  </g>
  <path class="cls-13" d="m512.06,73.36v701.91H32.81V73.36c0-21.08,16.37-38.53,37.35-39.91,4.2-.2,399.4-.06,403.67-.05,1.6.1,3.23.21,4.81.51,4.9.79,9.64,2.54,13.9,5.08h.01c11.93,7.04,19.64,20.48,19.51,34.37h0Z"/>
  <path class="cls-9" d="m321.34,84.1h-97.26c-21.5-.36-21.55-32.39,0-32.75h97.26c9.04,0,16.38,7.33,16.38,16.38s-7.33,16.38-16.38,16.38h0Z"/>
  <g>
    <g>
      <path class="cls-8" d="m300.71,166.16c-2.66,0-4.28,1.68-5.36,3.97-1.37,2.91-1.62,6.95-1.62,10.12,0,3.63.39,8.44,2.49,11.54,1.07,1.59,2.53,2.35,4.45,2.35,1.16,0,2.28-.26,3.2-.99,1.35-1.06,2.16-2.8,2.68-4.39.83-2.58,1.01-5.62,1.01-8.31s-.12-6.49-1.03-9.14c-.48-1.41-1.26-3.1-2.47-4.03-.99-.76-2.1-1.12-3.35-1.12m41.01,27.28v-6.01c0-.45,0-1.75-.17-2.16-.11-.26-.42-.49-.65-.63-.41-.25-.88-.34-1.36-.34h-.75c-.44,0-.81-.36-.81-.8v-.81c0-.44.36-.8.81-.8h14.12c.44,0,.81.36.81.8v.81c0,.42-.32.77-.75.8-.48.04-1.48.13-1.9.38-.31.18-.5.51-.64.86-.13.33-.13,1.52-.13,1.89v6.56c0,.31-.17.59-.45.72-1.91.93-3.9,1.63-5.96,2.1-2.11.48-4.26.71-6.42.71-2.41,0-4.97-.3-7.19-1.3-1.87-.84-3.57-1.96-5.05-3.38-1.43-1.37-2.59-2.95-3.43-4.74-1.11-2.38-1.57-4.94-1.57-7.55,0-4.82,1.51-9.09,4.82-12.63,3.28-3.51,7.39-5.19,12.19-5.19,1.36,0,2.73.1,4.07.38,1.04.22,2.22.7,3.2,1.11.47.19,1.74.75,2.18.81.23,0,.41-.11.57-.26.32-.3.6-1.07.72-1.47.11-.34.41-.56.77-.56h.75c.44,0,.8.36.8.8v11.16c0,.44-.36.8-.8.8h-.75c-.36,0-.66-.22-.77-.56-.78-2.47-2.03-4.86-4.06-6.54-1.68-1.39-3.58-2.19-5.77-2.19-1.86,0-3.51.52-4.89,1.78-1.49,1.37-2.35,3.24-2.84,5.18-.59,2.34-.87,4.73-.87,7.14,0,2.59.23,5.27.95,7.77.51,1.77,1.37,3.5,2.89,4.62,1.4,1.03,3,1.45,4.73,1.45.66,0,1.33-.08,1.97-.23.55-.12,1.1-.28,1.63-.48Zm-41.26-30.37c4.62-.18,8.72,1.25,11.88,4.67,3.18,3.44,4.56,7.64,4.56,12.3,0,4.03-1.06,7.77-3.39,11.07-3.09,4.37-7.44,6.41-12.77,6.41s-9.64-1.86-12.78-6.12c-2.48-3.35-3.55-7.19-3.55-11.34,0-4.68,1.41-8.87,4.63-12.31,3.07-3.28,6.94-4.87,11.43-4.69Zm-34.26,30.21c.45.15,1.82.15,2.27.15h2.41c1.17,0,2.4-.18,3.43-.78,1.02-.59,1.78-1.51,2.37-2.51.93-1.59,1.57-3.68,2.04-5.45.09-.36.41-.6.78-.6h.92c.24,0,.44.09.6.26.16.17.23.38.21.62l-1.1,11.11c-.04.41-.38.73-.8.73h-25.75c-.44,0-.81-.36-.81-.8v-.81c0-.44.36-.8.81-.8h.96c.53,0,1.14-.08,1.62-.38.26-.15.41-.45.52-.75.18-.43.17-2.18.17-2.66v-20.92c0-.54,0-2.28-.18-2.78-.11-.29-.38-.52-.64-.68-.42-.27-1.01-.33-1.5-.33h-.96c-.44,0-.81-.36-.81-.8v-.81c0-.44.36-.8.81-.8h15.48c.44,0,.8.36.8.8v.81c0,.44-.36.8-.8.8h-1.27c-.54,0-1.14.08-1.63.38-.27.16-.44.47-.55.75-.18.43-.17,2.18-.17,2.66v20.25c0,.61,0,2.26.2,2.82.1.26.31.42.55.54Z"/>
      <path class="cls-8" d="m254.19,145.5l-21.82,31.42,21.64,30.94s2.24,1.93,4.26,2.42c1.78.43,2.27,2.27,2.4,3.16h-21.59s-1.13-2.54,4.92-4.3l-17-24.49-16.86,24.29c.23.06.46.13.7.2,5.83,1.76,4.74,4.3,4.74,4.3h-20.81c.13-.89.6-2.72,2.32-3.16,1.58-.4,3.73-1.77,4.67-3.14l38.12-55.55c2.15-3.14,4.26-6.65,8.32-7.48,3.47-.71,5.98,1.39,5.98,1.39m-54.36,0l20.65,29.75,5.31-7.74-13.75-19.65c-5.87-8.39-12.22-2.36-12.22-2.36Z"/>
    </g>
    <text class="cls-16" transform="translate(171.71 261.37)"><tspan class="cls-30" x="0" y="0">O</tspan><tspan class="cls-21" x="19.77" y="0">t</tspan><tspan class="cls-1" x="29.03" y="0">el </tspan><tspan class="cls-21" x="56.17" y="0">K</tspan><tspan class="cls-1" x="72.57" y="0">ullanıcı Gi</tspan><tspan class="cls-26" x="188.69" y="0">r</tspan><tspan x="198.11" y="0">işi</tspan></text>
    <g>
      <rect class="cls-24" x="87.29" y="358.17" width="373.3" height="51.88"/>
      <text class="cls-18" transform="translate(85.06 345.86)"><tspan class="cls-28" x="0" y="0">T</tspan><tspan x="11.03" y="0">C </tspan><tspan class="cls-28" x="30" y="0">K</tspan><tspan x="43.56" y="0">imlik No / </tspan><tspan class="cls-20" x="141.38" y="0">P</tspan><tspan class="cls-15" x="154.9" y="0">asspo</tspan><tspan class="cls-27" x="210.68" y="0">r</tspan><tspan x="218.8" y="0">t Number</tspan></text>
      <text class="cls-19" transform="translate(115.68 391.1)"><tspan class="cls-28" x="0" y="0">T</tspan><tspan x="11.03" y="0">C </tspan><tspan class="cls-28" x="30" y="0">K</tspan><tspan x="43.56" y="0">imlik No / </tspan><tspan class="cls-20" x="141.38" y="0">P</tspan><tspan class="cls-15" x="154.9" y="0">asspo</tspan><tspan class="cls-27" x="210.68" y="0">r</tspan><tspan x="218.8" y="0">t Number</tspan></text>
      <g>
        <rect class="cls-24" x="87.29" y="454.03" width="373.3" height="51.88"/>
        <g>
          <rect class="cls-22" x="420.07" y="467.03" width="24.29" height="25.87"/>
          <g>
            <polyline class="cls-24" points="427.3 476.4 432.22 471.49 437.14 476.4"/>
            <polyline class="cls-24" points="437.14 483.55 432.22 488.46 427.3 483.55"/>
          </g>
        </g>
        <text class="cls-18" transform="translate(85.06 441.72)"><tspan x="0" y="0">Oda No</tspan></text>
        <text class="cls-19" transform="translate(231.51 486.96)"><tspan x="0" y="0">Oda No</tspan></text>
      </g>
      <rect class="cls-14" x="87.29" y="542.38" width="373.3" height="51.88"/>
    </g>
    <text class="cls-17" transform="translate(232.81 573.15) scale(1.11 1)"><tspan x="0" y="0">Gi</tspan><tspan class="cls-25" x="17.75" y="0">r</tspan><tspan x="24.56" y="0">iş </tspan><tspan class="cls-29" x="42.28" y="0">Y</tspan><tspan x="52.11" y="0">ap</tspan></text>
    <rect class="cls-10" x="179.52" y="639.64" width="187.48" height="96.2" rx="33.36" ry="33.36"/>
    <circle class="cls-23" cx="273.26" cy="687.74" r="28.24"/>
    <path class="cls-12" d="m283.92,686h-12.34v-3.56c0-2.41-2.91-3.62-4.62-1.91l-5.82,5.82c-1.06,1.06-1.06,2.77,0,3.83l5.82,5.82c1.7,1.7,4.62.5,4.62-1.91v-3.56h12.34c1.25,0,2.26-1.01,2.26-2.26s-1.01-2.26-2.26-2.26Z"/>
  </g>
</svg>