<?xml version="1.0" encoding="utf-8"?>
<!-- Generator: Adobe Illustrator 27.8.1, SVG Export Plug-In . SVG Version: 6.00 Build 0)  -->
<svg version="1.1" id="katman_1" xmlns="http://www.w3.org/2000/svg" xmlns:xlink="http://www.w3.org/1999/xlink" x="0px" y="0px"
	 viewBox="0 0 273.5 273.5" style="enable-background:new 0 0 273.5 273.5;" xml:space="preserve">
<style type="text/css">
	.st0{fill:#e30613;}
</style>
<path class="st0" d="M137.4,111.2c-13.9,0-25.3,11.3-25.3,25.3s11.3,25.3,25.3,25.3s25.3-11.3,25.3-25.3S151.3,111.2,137.4,111.2
	L137.4,111.2z"/>
<path class="st0" d="M168.7,71.5h-64c-18.2,0-33.1,14.8-33.1,33.1v64c0,18.2,14.8,33.1,33.1,33.1h64c18.2,0,33.1-14.8,33.1-33.1v-64
	C201.8,86.3,187,71.5,168.7,71.5L168.7,71.5z M137.4,176c-21.8,0-39.5-17.7-39.5-39.5s17.7-39.5,39.5-39.5s39.5,17.7,39.5,39.5
	S159.2,176,137.4,176z M179.2,103.8c-5.2,0-9.4-4.2-9.4-9.4s4.2-9.4,9.4-9.4s9.4,4.2,9.4,9.4S184.4,103.8,179.2,103.8z"/>
<path class="st0" d="M136.7,0C61.2,0,0,61.2,0,136.7s61.2,136.7,136.7,136.7s136.7-61.2,136.7-136.7S212.2,0,136.7,0z M216.9,168.5
	c0,26.6-21.6,48.2-48.2,48.2h-64c-26.5,0-48.2-21.6-48.2-48.1v-64c0-26.5,21.6-48.2,48.2-48.2h64c26.6,0,48.2,21.6,48.2,48.2V168.5
	L216.9,168.5z"/>
</svg>
