<?xml version="1.0" encoding="utf-8"?>
<!-- Generator: Adobe Illustrator 27.8.1, SVG Export Plug-In . SVG Version: 6.00 Build 0)  -->
<svg version="1.1" id="katman_1" xmlns="http://www.w3.org/2000/svg" xmlns:xlink="http://www.w3.org/1999/xlink" x="0px" y="0px"
	 viewBox="0 0 104.9 172.9" style="enable-background:new 0 0 104.9 172.9;" xml:space="preserve">
<style type="text/css">
	.st0{fill:#69C1C3;}
	.st1{fill:#2C4B98;}
</style>
<path class="st0" d="M65,120.8c7.1,3.7,12.5,8.4,12.5,16.9c0,5.1-3,15.3-18.9,15.3c-1.2,0-2.4-0.1-3.6-0.2c-1.1-0.1-2.3-0.4-3.5-0.6
	c-0.1,0-0.1,0-0.2-0.1c0,0-0.1,0-0.1,0c-5-1.3-9.2-3.8-12.3-6.7c-1.8-1.8-3.4-3.9-4.6-6.1c-4-7.1-5.3-15.6-5.7-21.5v10.2
	c0,0-0.1,1.8,0,4.7c0.4,10.9,3.4,37.1,24.4,39.8c-0.1,0-0.2,0-0.3,0c0.3,0,0.5,0.1,0.8,0.1c0,0,0.1,0,0.1,0c0,0,0,0,0,0h0
	c0.6,0.1,1.2,0.1,1.8,0.1c0,0,0.1,0,0.1,0c0.1,0,0.2,0,0.3,0c0.3,0,0.5,0,0.6,0c0.4,0,0.8,0,1.2,0c24.9,0,29.5-16,29.5-23.9
	C87.2,134.1,77.3,126.8,65,120.8L65,120.8z M68.2,151.8c-1.5,0.5-3.1,0.9-4.9,1.1C65,152.6,66.7,152.3,68.2,151.8z"/>
<path class="st0" d="M87.2,89.3c0,2-0.3,4.5-1.1,7.2c-4.1-2.7-8.5-5-13-7.1c3.9-3.1,6.5-7,6.3-12.8c-0.1-2.5-1-6.3-4.2-9.2
	C82.4,72.6,87.2,79.2,87.2,89.3z"/>
<path class="st1" d="M53.5,172.3c-0.3,0-0.5-0.1-0.8-0.1c0.1,0,0.2,0,0.3,0C53.2,172.3,53.4,172.3,53.5,172.3z"/>
<path class="st1" d="M28.6,109.9v7.8C28.3,113.1,28.6,109.9,28.6,109.9z"/>
<path class="st1" d="M28.6,127.9v4.7C28.5,129.7,28.6,127.9,28.6,127.9z"/>
<path class="st1" d="M53.5,172.3c-0.3,0-0.5-0.1-0.8-0.1c0.1,0,0.2,0,0.3,0C53.2,172.3,53.4,172.3,53.5,172.3z"/>
<path class="st1" d="M104.9,14.7c0,8.1-6.3,14.7-14.1,14.7s-14.1-6.6-14.1-14.7S82.9,0,90.8,0S104.9,6.6,104.9,14.7z"/>
<path class="st1" d="M44.1,165l2.7-3c1-1.1,1.3-1.6,1.3-2.4c0-0.8-0.6-1.3-1.3-1.3s-1.2,0.4-1.8,1.2l-1-0.9c0.7-1,1.6-1.6,2.8-1.6
	c1.5,0,2.6,1,2.6,2.6v0c0,1.2-0.5,2-1.8,3.3l-1.8,2h3.6v1.4h-5.5L44.1,165L44.1,165z"/>
<path class="st1" d="M51.2,161.7v-0.1c0-2.8,1.3-4.6,3.3-4.6s3.3,1.9,3.3,4.6v0.1c0,2.8-1.3,4.6-3.3,4.6S51.2,164.5,51.2,161.7z
	 M56.3,161.7v-0.1c0-2-0.8-3.3-1.8-3.3s-1.8,1.2-1.8,3.3v0.1c0,2.1,0.8,3.3,1.8,3.3S56.3,163.7,56.3,161.7z"/>
<path class="st1" d="M60.5,158.6l-1.4,0.4l-0.2-1.3l2-0.7h1v9.2h-1.4L60.5,158.6L60.5,158.6z"/>
<path class="st1" d="M63.7,163.7L63.7,163.7c0-1.2,0.6-1.9,1.4-2.3c-0.7-0.4-1.2-1.1-1.2-2v-0.1c0-1.4,1.2-2.4,2.7-2.4
	s2.7,1,2.7,2.4v0.1c0,1-0.5,1.6-1.2,2c0.8,0.4,1.4,1.1,1.4,2.2v0.1c0,1.6-1.3,2.6-3,2.6S63.7,165.3,63.7,163.7L63.7,163.7z
	 M68.3,163.6L68.3,163.6c0-0.9-0.7-1.5-1.6-1.5s-1.6,0.6-1.6,1.4v0c0,0.8,0.6,1.4,1.6,1.4S68.3,164.4,68.3,163.6z M68.1,159.5
	L68.1,159.5c0-0.8-0.6-1.4-1.3-1.4s-1.3,0.5-1.3,1.3v0c0,0.8,0.6,1.4,1.3,1.4S68.1,160.3,68.1,159.5z"/>
<path class="st1" d="M104.9,131.3c0,22.1-21.2,41.6-47.2,41.6c-14.1,0-25.5-6.2-32.5-13.6C17.7,152.2,0,132.7,0,105.1c0,0,0,0,0,0
	V44.1c14.7-6.5,28.1-12.5,28.6-27v92.9c0,0-0.3,3.2,0,7.8v10.2c0,0-0.1,1.8,0,4.7c0.4,10.9,3.4,37.1,24.4,39.8c-0.1,0-0.2,0-0.3,0
	c0.3,0,0.5,0.1,0.8,0.1c0,0,0.1,0,0.1,0c0,0,0,0,0,0h0c0.6,0.1,1.2,0.1,1.8,0.1c0,0,0.1,0,0.1,0c0.1,0,0.2,0,0.3,0
	c0.3,0,0.5,0,0.6,0c0.4,0,0.8,0,1.2,0c24.9,0,29.5-16,29.5-23.9c0-14.4-9.9-21.8-22.2-27.8c-2.7-1.3-5.5-2.6-8.3-3.8
	C45,111.9,37.4,100,37.4,86.8V59.2C38,76.1,55.9,81.4,73.1,89.4c4.5,2.1,8.9,4.4,13,7.1c0.8-2.7,1.1-5.2,1.1-7.2
	c0-10.1-4.9-16.8-12.1-21.9c-5.3-3.8-11.8-6.8-18.5-9.7c-11.7-5.1-19.2-17-19.2-30.1V0c1.1,32.8,67.5,21.9,67.5,72.1
	c0,10.8-5.1,21-13.3,28.6C99.4,107.5,104.9,116.9,104.9,131.3z"/>
</svg>
