<?xml version="1.0" encoding="utf-8"?>
<!-- Generator: Adobe Illustrator 27.8.1, SVG Export Plug-In . SVG Version: 6.00 Build 0)  -->
<svg version="1.1" id="katman_1" xmlns="http://www.w3.org/2000/svg" xmlns:xlink="http://www.w3.org/1999/xlink" x="0px" y="0px"
	 viewBox="0 0 537.1 367.6" style="enable-background:new 0 0 537.1 367.6;" xml:space="preserve">
<style type="text/css">
	.st0{fill:#FFFFFF;}
	.st1{clip-path:url(#SVGID_00000180340780896885797070000016285983444410098091_);}
	.st2{fill:#E10A1A;}
	.st3{fill:#575756;}
	.st4{fill:#DDEAF1;}
	.st5{clip-path:url(#SVGID_00000049924960514352394080000017566768898908277439_);}
	.st6{fill:#D6DDE1;}
	.st7{fill:#4E4D4D;}
	.st8{fill:#989898;}
	.st9{fill:#010101;}
	.st10{clip-path:url(#SVGID_00000103247223408726712640000011407247465758783658_);}
	.st11{fill:#C59B6C;}
	.st12{clip-path:url(#SVGID_00000004522232157822694690000014220878464120660658_);}
	.st13{clip-path:url(#SVGID_00000080179020770114480830000006780525309875329704_);}
	.st14{clip-path:url(#SVGID_00000144325250491884720730000013841997821823931269_);}
	.st15{clip-path:url(#SVGID_00000157277879427536660530000016419613871345153686_);}
	.st16{fill:#FFF8F5;}
	.st17{fill:#A5C7D3;}
	.st18{opacity:0.21;}
	.st19{fill:#2F314C;}
	.st20{fill:#BDE5EF;}
	.st21{fill:none;stroke:#13131A;stroke-width:2;stroke-linecap:round;stroke-linejoin:round;}
	.st22{fill:none;stroke:#13131A;stroke-width:4;stroke-linecap:round;stroke-linejoin:round;}
	.st23{fill:#13131A;}
	.st24{fill:#333333;}
</style>
<g>
	<polygon class="st0" points="14.5,284.7 278.3,276.7 513,281 350.7,284.7 	"/>
	<g>
		<g>
			<g>
				<defs>
					<polygon id="SVGID_1_" points="212.9,282.8 249.6,279.1 330.5,279.1 293.8,282.8 					"/>
				</defs>
				<clipPath id="SVGID_00000052825714171359695610000018033073361800804999_">
					<use xlink:href="#SVGID_1_"  style="overflow:visible;"/>
				</clipPath>
				<g style="clip-path:url(#SVGID_00000052825714171359695610000018033073361800804999_);">
					<g>
						<path class="st2" d="M245.4,281.2c-0.5,0-1.2,0-1.8,0.1c-0.6,0-0.9,0.1-0.8,0.1c0,0,0,0-0.1,0c-0.5,0-1.1,0.1-1.6,0.2
							c-0.3,0-0.3,0-0.2,0.1c0,0,0.1,0,0.2,0c0.3,0,0.8,0,1.1-0.1c0.6-0.1,1.1-0.1,1.6-0.2c0.1,0,0.2,0,0.4,0c0.7,0,1.3-0.1,1.6-0.1
							C246,281.2,245.9,281.2,245.4,281.2 M254.1,280.3L254.1,280.3c-1.2,0-3.2,0.1-4.3,0.2s-2.2,0.2-3.3,0.3h-0.1c1.5,0,3,0,4.5,0
							c1.1-0.1,2.3-0.2,3.4-0.3C255.5,280.4,255.4,280.3,254.1,280.3 M234.3,281.9c-1.2,0-1.3-0.1-0.1-0.2c1.8-0.2,3.7-0.4,5.5-0.6
							c0.8-0.1,1.9-0.1,3-0.2c0.6,0,1,0,1.4,0h0.1c1-0.1,2.1-0.2,3.1-0.3c1.9-0.2,5-0.4,7.5-0.4c0.3,0,0.6,0,0.9,0h1h0.1
							c2,0,1.8,0.2-0.4,0.4l-3.1,0.3h-0.2h0.1c1.2,0,1.2,0.1,0,0.2l-5.5,0.5c-1.2,0.1-3.2,0.2-4.4,0.2L234.3,281.9 M266,279.1
							c-0.3,0-0.6,0-1,0c-7.2,0.3-13.8,0.5-20.3,0.6c-0.9,0-2,0.1-2.7,0.1l-7.5,0.8c-8.1,0.8-9.5,1.4-9.3,1.6
							c0.2,0.4,2.6,0.5,4.1,0.5s7.2-0.2,14.4-0.5c6.3-0.3,15.5-0.8,23.5-1.6l7.5-0.8c0.7-0.1,0.8-0.1,0.3-0.1
							c-3.6-0.1-6.6-0.3-8.5-0.6C266.5,279.1,266.3,279.1,266,279.1"/>
						<path class="st0" d="M241.1,281.6c-0.1,0-0.1,0-0.2,0C240.7,281.6,240.8,281.6,241.1,281.6c0.6-0.1,1.1-0.2,1.6-0.2
							c0.1,0,0.1,0,0.1,0c-0.1,0,0.2-0.1,0.8-0.1s1.3-0.1,1.8-0.1s0.6,0,0.4,0.1c-0.3,0-0.9,0.1-1.6,0.1c-0.2,0-0.3,0-0.4,0
							c-0.5,0.1-1.1,0.1-1.6,0.2C241.8,281.6,241.4,281.6,241.1,281.6 M246.4,280.9L246.4,280.9c1.1-0.1,2.2-0.2,3.3-0.3
							c1.2-0.1,3.1-0.2,4.3-0.2l0,0c1.2,0,1.4,0.1,0.3,0.2c-1.1,0.1-2.3,0.2-3.4,0.3H246.4 M256.9,280.1h-1c-0.3,0-0.6,0-0.9,0
							c-2.5,0-5.6,0.2-7.5,0.4c-1,0.1-2.1,0.2-3.1,0.3h-0.1c-0.4,0-0.9,0-1.4,0c-1.2,0-2.2,0.1-3,0.2c-1.8,0.2-3.7,0.4-5.5,0.5
							c-1.2,0.1-1.1,0.2,0.1,0.2h9.2c1.2,0,3.2-0.1,4.4-0.2l5.5-0.5c1.2-0.1,1.2-0.2,0-0.2h-0.1c0.1,0,0.1,0,0.2,0l3.1-0.3
							C258.7,280.3,258.9,280.1,256.9,280.1L256.9,280.1"/>
						<path class="st3" d="M269.9,281.6h-1.4L263,282l1.9-0.4h-1.4h-0.1c0.2,0,0.3,0,0.4,0s0.1,0,0,0c0,0-0.2,0-0.4,0l-3.1,0.3
							c-0.3,0-0.5,0-0.6,0.1c-0.2,0-0.4,0-0.6,0H259h-0.1h1.7h0.1h-0.2c-0.2,0-0.3,0-0.3,0s0.1,0,0.4-0.1l3.2-0.3l-2.1,0.4h0.1
							l5.9-0.4l-3.2,0.3c-0.3,0-0.5,0-0.6,0.1c-0.2,0-0.4,0-0.6,0h-0.2H263h2.1h0.1H265c-0.2,0-0.3,0-0.3,0s0.1,0,0.4-0.1l3.1-0.3
							c0.3,0,0.5,0,0.6,0c0.2,0,0.4,0,0.6,0h0.2H269.9"/>
						<path class="st3" d="M272.3,281.6h-2.1h-0.1h0.2c0.1,0,0.2,0,0.3,0l0,0c-0.1,0-0.2,0-0.4,0l-3,0.3c-0.3,0-0.5,0.1-0.6,0.1
							c-0.2,0-0.4,0-0.6,0h-0.2h-0.1h2.1h0.1h-0.2c-0.1,0-0.2,0-0.2,0l0,0c0,0,0.2,0,0.4-0.1l3-0.3c0.3,0,0.5,0,0.6,0
							c0.2,0,0.4,0,0.6,0H272.3L272.3,281.6 M272.5,281.5c-0.1,0-0.2,0-0.4,0c-0.1,0-0.3,0-0.4,0s-0.1,0-0.1,0s0.1,0,0.2,0
							s0.2,0,0.4,0C272.3,281.5,272.4,281.5,272.5,281.5s0.2,0,0.2,0S272.6,281.5,272.5,281.5"/>
						<path class="st3" d="M277.8,281.6H276h-0.1h0.2c0.2,0,0.3,0,0.3,0s-0.1,0-0.4,0l-2.7,0.3l0.5-0.4h-1.3h-0.1c0.1,0,0.2,0,0.3,0
							c0.1,0,0.1,0,0.2,0l0,0l-3.3,0.3c-0.3,0-0.5,0-0.6,0.1c-0.2,0-0.4,0-0.6,0h-0.2h-0.1h1.7h0.1h-0.2c-0.2,0-0.3,0-0.3,0
							s0.1,0,0.5-0.1l2.9-0.3l-0.6,0.4h0.1l4-0.4c0.3,0,0.5,0,0.6,0c0.2,0,0.4,0,0.6,0h0.2L277.8,281.6"/>
						<path class="st3" d="M280.2,281.6h-2.1H278h0.2c0.1,0,0.2,0,0.2,0l0,0c0,0-0.2,0-0.4,0l-3,0.3c-0.3,0-0.5,0.1-0.6,0.1
							c-0.2,0-0.4,0-0.6,0h-0.2h-0.1h2.1h0.1h-0.2c-0.1,0-0.2,0-0.2,0l0,0c0,0,0.2,0,0.4-0.1l3-0.3c0.3,0,0.5,0,0.6,0
							c0.2,0,0.4,0,0.6,0h0.2H280.2 M280.3,281.5c-0.1,0-0.2,0-0.4,0c-0.1,0-0.3,0-0.4,0s-0.1,0-0.1,0s0.1,0,0.2,0s0.2,0,0.4,0
							C280.1,281.5,280.3,281.5,280.3,281.5c0.1,0,0.2,0,0.2,0S280.4,281.5,280.3,281.5"/>
						<path class="st3" d="M286.3,281.6h-4l-1.2,0.1h0.1c0.2,0,0.5,0,0.7,0s0.4,0,0.6,0c0.1,0,0.3,0,0.5,0h0.6l-3.6,0.4
							c-0.3,0-0.5,0-0.6,0.1c-0.2,0-0.4,0-0.6,0h-0.2h-0.1h2.1h0.1h-0.2c-0.2,0-0.3,0-0.3,0s0.1,0,0.5-0.1l3.6-0.4h0.7
							c0.2,0,0.3,0,0.4,0s0.1,0,0,0c0,0-0.1,0-0.3,0h0.1L286.3,281.6"/>
						<path class="st3" d="M291.8,281.6h-1.7H290h0.2c0.2,0,0.3,0,0.3,0s-0.2,0-0.5,0.1l-1.9,0.2c-0.5,0-0.9,0.1-1.2,0.1
							c-0.3,0-0.6,0-1,0.1c-0.4,0-0.7,0-1.1,0c-0.2,0-0.4,0-0.5,0s-0.1,0-0.1,0s0.2,0,0.4-0.1c0.2,0,0.4,0,0.6-0.1l2.1-0.2
							c0.3,0,0.5,0,0.6-0.1c0.2,0,0.4,0,0.6,0h0.2h0.1h-2.1h-0.1h0.2c0.2,0,0.3,0,0.3,0s-0.2,0-0.4,0.1l-1.9,0.2
							c-0.6,0.1-0.9,0.1-1,0.1c-0.2,0-0.2,0-0.1,0.1c0.1,0,0.4,0,1,0c0.5,0,1,0,1.5,0s0.9,0,1.2-0.1c0.4,0,0.8-0.1,1.2-0.1l1.9-0.2
							c0.3,0,0.5,0,0.6,0c0.3,0,0.5,0,0.7,0h0.2L291.8,281.6 M290,281.5c-0.1,0-0.2,0-0.4,0c-0.1,0-0.3,0-0.4,0s-0.1,0-0.1,0
							s0.1,0,0.2,0s0.2,0,0.4,0C289.8,281.5,289.9,281.5,290,281.5s0.2,0,0.2,0S290.1,281.5,290,281.5 M291.3,281.5
							c-0.1,0-0.2,0-0.4,0c-0.1,0-0.3,0-0.4,0s-0.1,0-0.1,0s0.1,0,0.2,0s0.2,0,0.4,0C291.1,281.5,291.2,281.5,291.3,281.5
							c0.1,0,0.2,0,0.2,0S291.4,281.5,291.3,281.5"/>
						<path class="st3" d="M297.2,281.6h-1.7h-0.1h0.2c0.2,0,0.3,0,0.3,0s-0.1,0-0.4,0l-2.7,0.3l0.5-0.4H292h-0.1c0.1,0,0.2,0,0.3,0
							c0.1,0,0.2,0,0.2,0l0,0l-3.3,0.3c-0.3,0-0.5,0-0.6,0.1c-0.2,0-0.4,0-0.6,0h-0.2h-0.1h1.7h0.1H289c-0.2,0-0.3,0-0.3,0
							s0.1,0,0.5-0.1l2.9-0.3l-0.6,0.4h0.1l4-0.4c0.3,0,0.5,0,0.6,0c0.2,0,0.4,0,0.6,0h0.2L297.2,281.6"/>
						<path class="st3" d="M301.2,281.6h-3.8h-0.1h0.2c0.2,0,0.3,0,0.3,0s-0.2,0-0.5,0.1l-3.1,0.3c-0.2,0-0.4,0-0.5,0.1
							c-0.1,0-0.2,0-0.3,0c-0.2,0-0.3,0-0.4,0h-0.2h-0.1h3.8l1.6-0.1H298c-0.4,0-0.8,0-1.1,0.1c-0.2,0-0.4,0-0.6,0s-0.4,0-0.7,0
							h-0.8c-0.1,0-0.2,0-0.2,0l0,0c0,0,0.1,0,0.4-0.1l1.6-0.2h1.1c0.2,0,0.3,0,0.4,0c0,0,0.1,0,0,0c0,0-0.1,0-0.4,0h0.1l1.6-0.2
							h-0.1c-0.3,0-0.5,0-0.8,0.1c-0.2,0-0.4,0-0.7,0h-1.1l1.9-0.2h1.4c0.2,0,0.4,0,0.5,0s0.1,0,0.1,0s-0.1,0-0.3,0h0.1L301.2,281.6
							"/>
						<path class="st3" d="M304.2,281.6H302h-0.1h0.2c0.2,0,0.3,0,0.3,0s-0.2,0-0.5,0.1l-3,0.3c-0.3,0-0.5,0-0.6,0
							c-0.2,0-0.4,0-0.6,0h-0.2h-0.1h3.8l1.7-0.1h-0.1c-0.4,0-0.8,0-1,0.1c-0.3,0-0.5,0-0.7,0s-0.5,0-0.9,0h-0.4c-0.3,0-0.5,0-0.5,0
							l0,0c0,0,0.1,0,0.3-0.1l3-0.3c0.3,0,0.5-0.1,0.6-0.1s0.2,0,0.4,0c0.1,0,0.3,0,0.5,0c0,0,0,0,0.1,0L304.2,281.6"/>
						<path class="st2" d="M297.2,280.2h-2.8c-0.1,0-0.2,0-0.3,0H294c-0.1,0-0.1,0,0,0h0.2c0.1,0,0.2,0,0.2,0l0,0c0,0-0.4,0-0.5,0.1
							l-3.7,0.4c-0.1,0-0.4,0-0.5,0.1h-0.2c-0.1,0-0.3,0-0.4,0h-0.2c-0.1,0-0.2,0-0.3,0h-0.1c-0.1,0-0.1,0,0,0h4.7
							c0.1,0,0.2,0,0.3,0l2.2-0.2h0.1h-0.1h-0.2c-0.1,0-0.2,0-0.2,0c-0.4,0-0.9,0.1-1.3,0.1c-0.3,0-0.6,0-0.9,0s-0.5,0-0.8,0h-0.4
							c-0.1,0-0.3,0-0.4,0l0,0c0.1,0,0.4,0,0.5-0.1l3.6-0.4c0.1,0,0.4,0,0.5,0h0.2c0.1,0,0.3,0,0.4,0h0.2
							C297,280.2,297.1,280.2,297.2,280.2L297.2,280.2L297.2,280.2 M297.5,280.8c-0.4,0-0.5,0-0.4,0c0.2-0.1,0.9-0.1,1.6-0.2
							c0.5-0.1,1.3-0.1,2.1-0.2c0.6,0,1.2-0.1,1.7-0.1c0.2,0,0.4,0,0.4,0c0.1,0-0.1,0-0.3,0.1c-0.3,0-0.9,0.1-1.4,0.2
							c-0.5,0-1,0.1-1.6,0.1c-0.4,0-0.8,0.1-1.3,0.1C298,280.8,297.7,280.8,297.5,280.8 M303.1,280.2H303h-0.1c-0.8,0-1.7,0-2.8,0.1
							c-1.2,0.1-2.2,0.1-3,0.2c-0.7,0.1-1.2,0.1-1.4,0.2c-0.2,0.1,0.3,0.1,1.3,0.1s2.1,0,3.5-0.1c1-0.1,1.9-0.1,2.6-0.2
							c0.8-0.1,1.3-0.2,1.3-0.2S303.9,280.2,303.1,280.2 M312,280.2h-0.1c-0.1,0-0.2,0-0.2,0c-0.1,0-0.3,0-0.4,0h-0.1
							c-0.1,0-0.2,0-0.3,0c-0.1,0-0.2,0-0.4,0c-0.2,0-0.4,0-0.7,0c-0.9,0-1.9,0-3.1,0.1s-2.3,0.1-3.1,0.2c-0.5,0-0.8,0.1-1,0.1
							s-0.2,0.1-0.2,0.1s0.1,0,0.3,0.1c0.2,0,0.6,0,1.1,0c0.4,0,0.8,0,1.3,0s1,0,1.5,0h0.2l1.2-0.1c0.1,0,0.3,0,0.4,0s0.2,0,0.3,0
							c0.1,0,0.3,0,0.4,0s0.2,0,0.3,0h0.1c0.1,0,0.1,0,0,0h-2.6c-0.1,0-0.2,0-0.3,0h-0.1c-0.1,0-0.1,0,0,0h0.1c0.1,0,0.2,0,0.2,0
							l0,0c0,0-0.3,0-0.4,0l-1.1,0.1c-0.1,0-0.3,0-0.4,0s-0.3,0-0.4,0c-0.3,0-0.5,0-0.6,0s0.1-0.1,0.3-0.1c0.3,0,0.7-0.1,1.2-0.1
							c0.4,0,0.9-0.1,1.4-0.1c0.4,0,0.9-0.1,1.4-0.1s0.9,0,1.2,0c0.4,0,0.6,0,0.7,0s-0.1,0.1-0.4,0.1l0,0h0.1c0.1,0,0.2,0,0.3,0
							L312,280.2C312.1,280.2,312.1,280.2,312,280.2"/>
						<path class="st2" d="M297,279.9c-0.1,0-0.2,0-0.3,0c-0.9,0-1.9,0.1-2.8,0.1l-16.8,1c-0.4,0-1,0.1-1.4,0.1s-0.8,0-1,0.1h0.5
							h1.8h0.2h1.4c0,0,0.6,0-0.1-0.1h-0.1l7.4-0.4l-1.2,0.4c-1.4,0-1.7,0.1-1.7,0.1h1.4h2h0.5c0.1,0,0.4,0,0.1-0.1
							c-0.3,0-0.4,0-0.4,0l1.5-0.6l9.5-0.6C297.6,279.9,297.5,279.9,297,279.9 M289,279.9c-0.5,0-1.3,0-1.3,0l-1.5,0.5l2.3-0.1
							l1-0.4C289.6,279.9,289.4,279.9,289,279.9"/>
						<path class="st3" d="M291.8,280.9c0,0-0.2,0-0.5,0h-1h-0.1c0.2,0,0.2,0-0.1,0l-1.5,0.1c-0.3,0-0.4,0-0.6,0h-0.1h0.9h0.1
							c-0.3,0-0.3,0,0,0l0.7-0.1h0.4c0.2,0,0.2,0,0,0h0.1l0.8-0.1h-0.1c-0.3,0-0.4,0-0.6,0h-0.4l0.9-0.1c0.1,0,0.1,0,0.2,0h0.3
							c0.2,0,0.2,0,0.1,0c0,0-0.1,0-0.2,0h0.1C291.4,280.9,291.7,280.9,291.8,280.9"/>
						<path class="st3" d="M292.2,281c-0.2,0-0.4,0-0.6,0h-0.1c0.1,0,0.1,0-0.1,0l-0.8,0.1c-0.2,0-0.3,0-0.5,0H290h0.7h0.1
							c-0.2,0-0.2,0,0.1,0l0.8-0.1C291.9,281,292.1,281,292.2,281 M292.9,280.9c-0.1,0-0.3,0-0.4,0s-0.1,0,0,0
							S292.7,281,292.9,280.9L292.9,280.9"/>
						<path class="st3" d="M293.6,281c-0.2,0-0.4,0-0.6,0l0,0c0.2,0,0.2,0-0.1,0l-0.8,0.1c-0.2,0-0.3,0-0.5,0h-0.1h0.7h0.1
							c-0.2,0-0.2,0,0,0l0.7-0.1C293.3,281,293.5,281,293.6,281L293.6,281L293.6,281c0.2,0,0.3,0,0.4,0s0.1,0,0,0
							c-0.2,0-0.5,0-0.8,0C293.4,281,293.5,281,293.6,281"/>
						<path class="st3" d="M294.5,281c0.3,0,0.6,0,0.8,0c0.2,0,0.1,0-0.1,0h-0.1C294.9,281,294.7,281,294.5,281 M295.5,281
							c-0.2,0-0.4,0-0.7,0c-0.3,0-0.6,0-0.9,0.1c-0.4,0-0.6,0.1-0.2,0.1c0.1,0,0.4,0,0.9,0l0,0c-0.2,0-0.4,0-0.5,0
							c-0.2,0-0.3,0,0.2-0.1c0.4,0,0.8,0,0.9,0C295.3,281,295.4,281,295.5,281C295.7,281,295.8,281,295.5,281"/>
						<path class="st3" d="M298.8,281h-0.6h-0.1c0.2,0,0.2,0,0,0c-0.3,0-0.8,0-1.1,0.1c0.3,0,0.5-0.1,0.8-0.1h-0.1
							c-0.5,0-1,0.1-1.5,0.1c0.2,0,0.4-0.1,0.6-0.1c0.1,0,0.2,0,0.4,0h0.1h-0.6h-0.1c0.1,0,0.1,0,0,0c-0.3,0-0.6,0.1-1,0.1h0.1
							c0.5,0,1.1-0.1,1.5-0.1c-0.3,0-0.5,0.1-0.8,0.1h0.1c0.6,0,1.3-0.1,1.7-0.1C298.5,281,298.5,281,298.8,281L298.8,281"/>
						<path class="st3" d="M298.5,281.1C298.4,281.1,298.4,281.1,298.5,281.1c0.2,0,0.3,0,0.5,0c0.1,0,0.3,0,0.4,0
							c-0.2,0-0.4,0-0.6,0C298.8,281.1,298.6,281.1,298.5,281.1 M300.1,281c-0.2,0-0.5,0-0.7,0c-0.1,0-0.2,0-0.2,0c-0.1,0-0.1,0,0,0
							h0.2c0.1,0,0.2,0,0.3,0c0.1,0,0.2,0,0.2,0c0.2,0,0.1,0-0.1,0h-0.1c-0.1,0-0.5,0-0.7,0s-0.5,0-0.6,0c-0.2,0-0.3,0-0.1,0
							c0.1,0,0.4,0,0.6,0h-0.1h0.1h0.5h0.1h-0.1c-0.1,0-0.1,0,0.1,0l0.7-0.1c0.2,0,0.3,0,0.3,0C300.2,281,300.2,281,300.1,281"/>
						<path class="st3" d="M302.8,280.9c-0.1,0-0.4,0-0.6,0h-0.1c0.2,0,0.2,0-0.1,0l-1.8,0.1c-0.2,0-0.3,0-0.5,0h-0.1h0.7h0.1
							c-0.2,0-0.2,0,0.1,0l1.8-0.2C302.5,280.9,302.7,280.9,302.8,280.9"/>
						<path class="st3" d="M304.2,280.9c-0.1,0-0.4,0-0.6,0h-0.1c0.2,0,0.2,0-0.1,0l-1.8,0.1c-0.2,0-0.3,0-0.5,0H301h0.7h0.1
							c-0.2,0-0.2,0,0.1,0l1.7-0.2C303.9,280.9,304,280.9,304.2,280.9"/>
					</g>
				</g>
			</g>
		</g>
	</g>
	<g>
		<path class="st4" d="M513,348.6L350.7,367v-82.3L513,281c9.8,0.4,17.5,8.5,17.5,18.3v31C530.5,340.1,522.8,348.1,513,348.6
			L513,348.6z"/>
		<g>
			<g>
				<g>
					<defs>
						<polygon id="SVGID_00000001663063487402867110000003290979446386190218_" points="12,355.2 6.5,285 362.1,284.8 362.2,367.6 
													"/>
					</defs>
					<clipPath id="SVGID_00000111870399504381148010000011156462029334191490_">
						<use xlink:href="#SVGID_00000001663063487402867110000003290979446386190218_"  style="overflow:visible;"/>
					</clipPath>
					<g style="clip-path:url(#SVGID_00000111870399504381148010000011156462029334191490_);">
						<g>
							<path class="st6" d="M7.4,296.5l3.7,47.6c0.1,1.5,0.5,3,1.1,4.4s1.4,2.6,2.4,3.6s2.1,1.9,3.3,2.5c1.2,0.6,2.6,1,3.9,1
								l326.7,11.5c1.9,0.1,3.6-0.2,5.3-0.8c1.6-0.6,3.1-1.5,4.3-2.7c1.2-1.1,2.2-2.5,2.9-4.1c0.7-1.6,1.1-3.3,1.1-5.1v-6.2
								c0,1.8-0.4,3.5-1.1,5.1s-1.7,2.9-2.9,4.1s-2.7,2.1-4.4,2.7c-1.6,0.6-3.4,0.9-5.3,0.9l-327-10.6l0,0l0,0l0,0l0,0
								c-1.4,0-2.7-0.4-3.9-1s-2.3-1.4-3.3-2.5c-1-1-1.8-2.2-2.4-3.6s-1-2.8-1.1-4.3L7.4,296.5"/>
							<path class="st0" d="M105.9,341.1c-0.6,0-1.2-0.2-1.7-0.4c-0.5-0.3-1-0.6-1.4-1.1s-0.8-0.9-1-1.5s-0.4-1.2-0.4-1.9
								s0.1-1.3,0.2-1.8c0.2-0.6,0.5-1.1,0.8-1.5c0.4-0.4,0.8-0.8,1.3-1s1.1-0.3,1.7-0.3s1.2,0.2,1.7,0.4s1,0.6,1.5,1s0.8,1,1,1.5
								s0.4,1.2,0.4,1.9c0,0.7-0.1,1.3-0.2,1.8s-0.5,1.1-0.9,1.5s-0.8,0.8-1.3,1S106.5,341.1,105.9,341.1 M89.7,340.7
								c-0.6,0-1.2-0.2-1.7-0.4c-0.5-0.3-1-0.6-1.4-1.1s-0.8-1-1-1.5s-0.4-1.2-0.5-1.9s0-1.3,0.2-1.8c0.2-0.6,0.5-1.1,0.8-1.5
								c0.4-0.4,0.8-0.8,1.3-1s1.1-0.4,1.7-0.3c0.6,0,1.2,0.2,1.7,0.4s1,0.6,1.5,1.1c0.4,0.4,0.8,1,1,1.5c0.2,0.6,0.4,1.2,0.5,1.9
								c0,0.7-0.1,1.3-0.2,1.8s-0.5,1.1-0.8,1.5c-0.4,0.4-0.8,0.8-1.3,1S90.3,340.7,89.7,340.7 M73.7,338.9c-0.6,0-1.2-0.2-1.7-0.4
								s-1-0.6-1.4-1s-0.8-0.9-1-1.5c-0.3-0.6-0.4-1.2-0.5-1.8c0-0.6,0-1.2,0.2-1.8c0.2-0.5,0.5-1,0.8-1.5s0.8-0.7,1.3-1
								c0.5-0.2,1-0.3,1.6-0.3s1.2,0.2,1.7,0.4s1,0.6,1.4,1s0.8,0.9,1,1.5s0.4,1.2,0.4,1.8c0,0.6,0,1.3-0.2,1.8s-0.5,1-0.8,1.5
								s-0.8,0.7-1.3,1S74.3,338.9,73.7,338.9 M133.9,339.9c-0.3,0-0.6-0.1-0.8-0.2s-0.5-0.3-0.7-0.5s-0.3-0.4-0.4-0.7
								s-0.2-0.5-0.2-0.8l-1.1-22.2c0-0.3,0-0.6,0.1-0.8c0.1-0.3,0.2-0.5,0.4-0.7s0.4-0.3,0.6-0.4c0.2-0.1,0.5-0.2,0.8-0.1l26.3,0.3
								c0.3,0,0.6,0.1,0.8,0.2s0.5,0.3,0.7,0.5s0.4,0.4,0.5,0.7c0.1,0.3,0.2,0.5,0.2,0.8l1,22.5c0,0.3,0,0.6-0.1,0.8
								s-0.2,0.5-0.4,0.7s-0.4,0.3-0.6,0.4c-0.2,0.1-0.5,0.2-0.8,0.1L133.9,339.9 M172.4,340.9c-0.3,0-0.6-0.1-0.8-0.2
								s-0.5-0.3-0.7-0.5s-0.4-0.4-0.5-0.7s-0.2-0.5-0.2-0.8l-1-22.6c0-0.3,0-0.6,0.1-0.8s0.2-0.5,0.4-0.7s0.4-0.3,0.6-0.4
								s0.5-0.2,0.8-0.2l27.3,0.4c0.3,0,0.6,0.1,0.9,0.2s0.5,0.3,0.7,0.5s0.4,0.4,0.5,0.7c0.1,0.3,0.2,0.5,0.2,0.8l0.8,22.9
								c0,0.3,0,0.6-0.1,0.9s-0.2,0.5-0.4,0.7s-0.4,0.3-0.7,0.4s-0.5,0.1-0.8,0.1L172.4,340.9 M212.3,342c-0.3,0-0.6-0.1-0.9-0.2
								s-0.5-0.3-0.7-0.5s-0.4-0.4-0.5-0.7s-0.2-0.5-0.2-0.8l-0.8-23c0-0.3,0-0.6,0.1-0.9s0.3-0.5,0.4-0.7c0.2-0.2,0.4-0.4,0.7-0.5
								c0.2-0.1,0.5-0.2,0.8-0.2l28.3,0.4c0.3,0,0.6,0.1,0.9,0.2c0.3,0.1,0.5,0.3,0.7,0.5s0.4,0.5,0.5,0.7c0.1,0.3,0.2,0.6,0.2,0.9
								l0.6,23.3c0,0.3,0,0.6-0.1,0.9s-0.2,0.5-0.4,0.7s-0.4,0.3-0.7,0.4s-0.6,0.2-0.9,0.1L212.3,342 M253.7,343
								c-0.3,0-0.6-0.1-0.9-0.2s-0.5-0.3-0.7-0.5s-0.4-0.5-0.5-0.7s-0.2-0.6-0.2-0.9l-0.6-23.4c0-0.3,0.1-0.6,0.2-0.9
								c0.1-0.3,0.3-0.5,0.5-0.7s0.4-0.4,0.7-0.5s0.6-0.2,0.9-0.2l29.4,0.4c0.3,0,0.6,0.1,0.9,0.2s0.5,0.3,0.7,0.5s0.4,0.5,0.5,0.7
								s0.2,0.6,0.2,0.9l0.4,23.8c0,0.3,0,0.6-0.2,0.9s-0.3,0.5-0.5,0.7s-0.4,0.4-0.7,0.5c-0.3,0.1-0.6,0.2-0.9,0.1L253.7,343
								 M296.7,344.1c-0.3,0-0.6-0.1-0.9-0.2s-0.5-0.3-0.7-0.5s-0.4-0.5-0.5-0.7s-0.2-0.6-0.2-0.9l-0.4-23.9c0-0.3,0.1-0.6,0.2-0.9
								s0.3-0.5,0.5-0.7s0.5-0.4,0.7-0.5c0.3-0.1,0.6-0.2,0.9-0.2l30.6,0.4c0.3,0,0.7,0.1,1,0.2s0.5,0.3,0.8,0.5s0.4,0.5,0.5,0.8
								s0.2,0.6,0.2,0.9l0.2,24.2c0,0.3-0.1,0.6-0.2,0.9s-0.3,0.5-0.5,0.7s-0.5,0.4-0.8,0.5s-0.6,0.2-0.9,0.1L296.7,344.1
								 M46.1,339.6c-0.6,0-1.3-0.2-1.8-0.4c-0.6-0.3-1.1-0.7-1.6-1.1s-0.8-1-1.1-1.7s-0.5-1.3-0.5-2l-1.3-18.6c0-0.7,0-1.4,0.2-2
								s0.5-1.2,0.9-1.6s0.9-0.9,1.4-1.1c0.5-0.3,1.2-0.4,1.8-0.4l14.5,0.2c0.7,0,1.3,0.2,1.9,0.4s1.1,0.7,1.6,1.1
								c0.5,0.5,0.9,1.1,1.2,1.7s0.5,1.3,0.5,2.1L65,335c0,0.7,0,1.4-0.2,2s-0.5,1.2-0.9,1.6c-0.4,0.5-0.9,0.8-1.4,1.1
								s-1.2,0.4-1.8,0.4L46.1,339.6 M348.2,284.8L16.6,285c-1.4,0-2.7,0.3-3.8,0.9c-1.2,0.6-2.2,1.4-3,2.5s-1.5,2.3-1.9,3.6
								c-0.4,1.4-0.6,2.9-0.5,4.4l3.3,42.4c0.1,1.5,0.5,3,1.1,4.3s1.4,2.6,2.4,3.6s2.1,1.9,3.3,2.5s2.5,1,3.9,1l0,0l0,0l0,0l0,0
								l327,10.6c1.9,0.1,3.7-0.2,5.3-0.9c1.6-0.6,3.1-1.5,4.4-2.7c1.2-1.1,2.2-2.5,2.9-4.1c0.7-1.6,1.1-3.3,1.1-5.1l-0.1-49.9
								c0-1.9-0.4-3.6-1.1-5.2s-1.7-3.1-3-4.3s-2.8-2.2-4.4-2.9S350.1,284.9,348.2,284.8"/>
							<path class="st7" d="M105.3,331.6c-0.6,0-1.2,0.1-1.7,0.3s-1,0.6-1.3,1c-0.4,0.4-0.7,0.9-0.8,1.5c-0.2,0.6-0.3,1.2-0.2,1.8
								s0.2,1.3,0.4,1.9c0.2,0.6,0.6,1.1,1,1.5s0.9,0.8,1.4,1c0.5,0.3,1.1,0.4,1.7,0.4s1.2-0.1,1.7-0.3c0.5-0.2,1-0.6,1.3-1
								c0.4-0.4,0.7-0.9,0.9-1.5s0.3-1.2,0.2-1.8s-0.2-1.3-0.4-1.9c-0.3-0.6-0.6-1.1-1-1.5s-0.9-0.8-1.5-1.1
								S105.9,331.6,105.3,331.6"/>
							<path class="st7" d="M89.1,331.2c-0.6,0-1.2,0.1-1.7,0.3c-0.5,0.2-1,0.6-1.3,1s-0.7,0.9-0.8,1.5s-0.3,1.2-0.2,1.8
								c0,0.7,0.2,1.3,0.5,1.9s0.6,1.1,1,1.5s0.9,0.8,1.4,1s1.1,0.4,1.7,0.4s1.2-0.1,1.7-0.3c0.5-0.2,1-0.6,1.3-1
								c0.4-0.4,0.7-0.9,0.8-1.5s0.3-1.2,0.2-1.8c0-0.7-0.2-1.3-0.5-1.9s-0.6-1.1-1-1.5s-0.9-0.8-1.5-1.1
								C90.4,331.3,89.8,331.2,89.1,331.2"/>
							<path class="st7" d="M73.1,329.6c-0.6,0-1.1,0.1-1.6,0.3s-0.9,0.6-1.3,1s-0.6,0.9-0.8,1.5c-0.2,0.5-0.3,1.2-0.2,1.8
								c0,0.6,0.2,1.3,0.5,1.8s0.6,1.1,1,1.5s0.9,0.8,1.4,1s1.1,0.4,1.7,0.4s1.1-0.1,1.6-0.3s0.9-0.5,1.3-1s0.6-0.9,0.8-1.5
								c0.2-0.6,0.3-1.2,0.2-1.8c0-0.6-0.2-1.3-0.4-1.8s-0.6-1.1-1-1.5s-0.9-0.8-1.4-1S73.7,329.6,73.1,329.6"/>
							<path class="st7" d="M53,335.6c-1.3,0-2.6-0.4-3.7-0.9s-2.2-1.3-3.1-2.3s-1.7-2.1-2.2-3.4c-0.6-1.3-0.9-2.6-1-4.1
								s0.1-2.8,0.5-4.1s1-2.4,1.8-3.3s1.8-1.7,2.8-2.2s2.3-0.8,3.6-0.8s2.6,0.3,3.8,0.9c1.2,0.5,2.2,1.3,3.2,2.3s1.7,2.1,2.3,3.4
								s0.9,2.7,1,4.1c0.1,1.5-0.1,2.8-0.5,4.1s-1,2.4-1.8,3.3s-1.8,1.7-2.9,2.2S54.3,335.6,53,335.6 M58.6,310.6L44,310.4
								c-0.6,0-1.2,0.1-1.8,0.4c-0.5,0.3-1,0.6-1.4,1.1s-0.7,1-0.9,1.6s-0.3,1.3-0.2,2l1.3,18.7c0,0.7,0.2,1.4,0.5,2
								s0.7,1.2,1.1,1.7c0.5,0.5,1,0.9,1.6,1.1c0.6,0.3,1.2,0.4,1.8,0.4l14.5,0.4c0.7,0,1.3-0.1,1.8-0.4s1-0.6,1.4-1.1
								s0.7-1,0.9-1.6c0.2-0.6,0.3-1.3,0.2-2l-1.2-18.8c0-0.7-0.2-1.4-0.5-2.1c-0.3-0.6-0.7-1.2-1.2-1.7s-1-0.9-1.6-1.2
								C59.9,310.7,59.2,310.6,58.6,310.6"/>
							<path class="st8" d="M150.9,317.3h3.1c0.1,0,0.3,0,0.4,0.1s0.3,0.2,0.4,0.3c0.1,0.1,0.2,0.2,0.3,0.4c0.1,0.1,0.1,0.3,0.1,0.5
								l0.6,14c0,0.2,0,0.3-0.1,0.5c-0.1,0.1-0.1,0.3-0.2,0.4c-0.1,0.1-0.2,0.2-0.4,0.3s-0.3,0.1-0.4,0.1H153v0.7
								c0,0.2,0,0.3-0.1,0.5s-0.1,0.3-0.2,0.4c-0.1,0.1-0.2,0.2-0.4,0.3s-0.3,0.1-0.4,0.1h-0.7l0.1,1c0,0.2,0,0.3-0.1,0.5
								c-0.1,0.1-0.1,0.3-0.2,0.4c-0.1,0.1-0.2,0.2-0.4,0.3s-0.3,0.1-0.4,0.1l-7-0.2c-0.1,0-0.3,0-0.4-0.1s-0.3-0.2-0.4-0.3
								c-0.1-0.1-0.2-0.2-0.3-0.4c-0.1-0.1-0.1-0.3-0.1-0.5l-0.1-1h-0.7c-0.1,0-0.3,0-0.4-0.1c-0.1-0.1-0.3-0.2-0.4-0.3
								c-0.1-0.1-0.2-0.2-0.3-0.4s-0.1-0.3-0.1-0.5v-0.6h-1.7c-0.1,0-0.3,0-0.4-0.1s-0.3-0.2-0.4-0.3c-0.1-0.1-0.2-0.2-0.3-0.4
								s-0.1-0.3-0.1-0.5l-0.7-13.9c0-0.2,0-0.3,0.1-0.5s0.1-0.3,0.2-0.4c0.1-0.1,0.2-0.2,0.4-0.3s0.3-0.1,0.4-0.1l3.9,0.1h1.4h2.5
								h1.4h2.5L150.9,317.3 M158.8,313.9l-26.3-0.3c-0.3,0-0.5,0-0.8,0.1s-0.4,0.2-0.6,0.4s-0.3,0.4-0.4,0.7
								c-0.1,0.2-0.1,0.5-0.1,0.8l1.1,22.2c0,0.3,0.1,0.5,0.2,0.8c0.1,0.3,0.3,0.5,0.4,0.7c0.2,0.2,0.4,0.4,0.6,0.5
								c0.2,0.1,0.5,0.2,0.8,0.2l26.1,0.7c0.3,0,0.6,0,0.8-0.1s0.4-0.2,0.6-0.4s0.3-0.4,0.4-0.7c0.1-0.3,0.1-0.5,0.1-0.8l-1-22.5
								c0-0.3-0.1-0.6-0.2-0.8c-0.1-0.3-0.3-0.5-0.5-0.7s-0.4-0.4-0.7-0.5C159.4,313.9,159.1,313.9,158.8,313.9"/>
							<path class="st9" d="M153.9,317.3l-3.1-0.1l0.2,5.4c0,0.1,0,0.2,0,0.3c0,0.1-0.1,0.2-0.1,0.2s-0.1,0.1-0.2,0.2
								s-0.2,0.1-0.3,0.1s-0.2,0-0.3-0.1c-0.1,0-0.2-0.1-0.2-0.2c-0.1-0.1-0.1-0.2-0.2-0.2c0-0.1-0.1-0.2-0.1-0.3l-0.2-5.4h-2.5
								l0.3,5.4c0,0.1,0,0.2,0,0.3s-0.1,0.2-0.1,0.2s-0.1,0.1-0.2,0.2s-0.2,0.1-0.3,0.1s-0.2,0-0.3-0.1s-0.2-0.1-0.2-0.2
								s-0.1-0.1-0.2-0.2s-0.1-0.2-0.1-0.3l-0.3-5.4H143l0.3,5.4c0,0.1,0,0.2,0,0.3c0,0.1-0.1,0.2-0.1,0.2s-0.1,0.1-0.2,0.2
								c-0.1,0-0.2,0.1-0.3,0s-0.2,0-0.3-0.1s-0.2-0.1-0.2-0.2c-0.1-0.1-0.1-0.1-0.2-0.2s-0.1-0.2-0.1-0.3l-0.3-5.4l-3.9-0.1
								c-0.1,0-0.3,0-0.4,0.1s-0.2,0.1-0.4,0.3c-0.1,0.1-0.2,0.2-0.2,0.4c-0.1,0.1-0.1,0.3-0.1,0.5l0.7,13.9c0,0.2,0.1,0.3,0.1,0.5
								s0.2,0.3,0.3,0.4s0.2,0.2,0.4,0.3s0.3,0.1,0.4,0.1h1.7v0.6c0,0.2,0.1,0.3,0.1,0.5s0.2,0.3,0.3,0.4s0.2,0.2,0.4,0.3
								s0.3,0.1,0.4,0.1h0.7l0.1,1c0,0.2,0.1,0.3,0.1,0.5c0.1,0.1,0.2,0.3,0.3,0.4s0.2,0.2,0.4,0.3c0.1,0.1,0.3,0.1,0.4,0.1l7,0.2
								c0.1,0,0.3,0,0.4-0.1s0.2-0.1,0.4-0.3c0.1-0.1,0.2-0.2,0.2-0.4c0.1-0.1,0.1-0.3,0.1-0.5l-0.1-1h0.7c0.1,0,0.3,0,0.4-0.1
								s0.2-0.1,0.4-0.3c0.1-0.1,0.2-0.2,0.2-0.4c0.1-0.1,0.1-0.3,0.1-0.5v-0.6h1.7c0.1,0,0.3,0,0.4-0.1c0.1-0.1,0.2-0.1,0.4-0.3
								c0.1-0.1,0.2-0.2,0.2-0.4c0.1-0.1,0.1-0.3,0.1-0.5l-0.6-14.1c0-0.2-0.1-0.3-0.1-0.5c-0.1-0.1-0.2-0.3-0.3-0.4
								s-0.2-0.2-0.4-0.3S154.1,317.3,153.9,317.3"/>
							<g>
								<g>
									<defs>
										<path id="SVGID_00000025402999803369731510000015835632140154817941_" d="M137.6,317.1l16.3,0.2c0.1,0,0.3,0,0.4,0.1
											s0.3,0.2,0.4,0.3c0.1,0.1,0.2,0.2,0.3,0.4c0.1,0.1,0.1,0.3,0.1,0.5l0.6,14.1c0,0.2,0,0.3-0.1,0.5
											c-0.1,0.1-0.1,0.3-0.2,0.4c-0.1,0.1-0.2,0.2-0.4,0.3s-0.3,0.1-0.4,0.1h-1.7v0.6c0,0.2,0,0.3-0.1,0.5s-0.1,0.3-0.2,0.4
											c-0.1,0.1-0.2,0.2-0.4,0.3s-0.3,0.1-0.4,0.1h-0.7l0.1,1c0,0.2,0,0.3-0.1,0.5c-0.1,0.1-0.1,0.3-0.2,0.4
											c-0.1,0.1-0.2,0.2-0.4,0.3s-0.3,0.1-0.4,0.1l-7-0.2c-0.1,0-0.3,0-0.4-0.1c-0.1-0.1-0.3-0.2-0.4-0.3
											c-0.1-0.1-0.2-0.2-0.3-0.4c-0.1-0.1-0.1-0.3-0.1-0.5l-0.1-1h-0.7c-0.1,0-0.3,0-0.4-0.1s-0.3-0.2-0.4-0.3
											c-0.1-0.1-0.2-0.2-0.3-0.4s-0.1-0.3-0.1-0.5v-0.6h-1.7c-0.1,0-0.3,0-0.4-0.1s-0.3-0.2-0.4-0.3c-0.1-0.1-0.2-0.2-0.3-0.4
											s-0.1-0.3-0.1-0.5l-0.7-13.9c0-0.2,0-0.3,0.1-0.5s0.1-0.3,0.2-0.4c0.1-0.1,0.2-0.2,0.4-0.3S137.5,317.1,137.6,317.1"/>
									</defs>
									<clipPath id="SVGID_00000113328636424274925060000010029454603292146621_">
										<use xlink:href="#SVGID_00000025402999803369731510000015835632140154817941_"  style="overflow:visible;"/>
									</clipPath>
									<g style="clip-path:url(#SVGID_00000113328636424274925060000010029454603292146621_);">
										<path class="st11" d="M150.9,317.3h-1.4l0.2,5.4c0,0.1,0,0.2,0.1,0.3s0.1,0.2,0.2,0.2s0.1,0.1,0.2,0.2
											c0.1,0,0.2,0.1,0.3,0.1s0.2,0,0.3-0.1s0.2-0.1,0.2-0.2c0.1-0.1,0.1-0.1,0.1-0.2s0.1-0.2,0-0.3L150.9,317.3"/>
										<path class="st11" d="M146.9,317.2h-1.4l0.3,5.4c0,0.1,0,0.2,0.1,0.3s0.1,0.2,0.2,0.2c0.1,0.1,0.1,0.1,0.2,0.2
											c0.1,0,0.2,0.1,0.3,0.1s0.2,0,0.3-0.1c0.1,0,0.2-0.1,0.2-0.2c0.1-0.1,0.1-0.2,0.1-0.2s0.1-0.2,0-0.3L146.9,317.2"/>
										<path class="st11" d="M142.9,317.1h-1.4l0.3,5.4c0,0.1,0,0.2,0.1,0.3c0,0.1,0.1,0.2,0.2,0.2s0.1,0.1,0.2,0.2
											c0.1,0,0.2,0.1,0.3,0.1s0.2,0,0.3-0.1s0.2-0.1,0.2-0.2c0.1-0.1,0.1-0.1,0.1-0.2s0.1-0.2,0-0.3L142.9,317.1"/>
									</g>
								</g>
							</g>
							<path class="st8" d="M190.2,317.8l3.2,0.1c0.2,0,0.3,0,0.5,0.1s0.3,0.2,0.4,0.3s0.2,0.2,0.3,0.4c0.1,0.2,0.1,0.3,0.1,0.5
								l0.5,14.3c0,0.2,0,0.3-0.1,0.5c-0.1,0.1-0.1,0.3-0.2,0.4c-0.1,0.1-0.2,0.2-0.4,0.3s-0.3,0.1-0.4,0.1h-1.8v0.7
								c0,0.2,0,0.3-0.1,0.5c-0.1,0.1-0.1,0.3-0.2,0.4c-0.1,0.1-0.2,0.2-0.4,0.3s-0.3,0.1-0.4,0.1h-0.7v1c0,0.2,0,0.3-0.1,0.5
								c-0.1,0.1-0.1,0.3-0.2,0.4c-0.1,0.1-0.2,0.2-0.4,0.3s-0.3,0.1-0.4,0.1l-7.3-0.2c-0.2,0-0.3,0-0.4-0.1s-0.3-0.2-0.4-0.3
								s-0.2-0.2-0.3-0.4s-0.1-0.3-0.1-0.5v-1h-0.7c-0.2,0-0.3,0-0.4-0.1c-0.1-0.1-0.3-0.2-0.4-0.3c-0.1-0.1-0.2-0.2-0.3-0.4
								s-0.1-0.3-0.1-0.5v-0.7h-1.7c-0.1,0-0.3,0-0.4-0.1s-0.3-0.2-0.4-0.3s-0.2-0.2-0.3-0.4s-0.1-0.3-0.1-0.5l-0.6-14.2
								c0-0.2,0-0.3,0.1-0.5c0.1-0.1,0.1-0.3,0.2-0.4c0.1-0.1,0.2-0.2,0.4-0.3s0.3-0.1,0.4-0.1l4,0.1h1.5h2.6h1.5h2.6L190.2,317.8
								 M198.5,314.3l-27.3-0.4c-0.3,0-0.5,0.1-0.8,0.2c-0.2,0.1-0.5,0.3-0.6,0.5s-0.3,0.4-0.4,0.7s-0.1,0.5-0.1,0.9l1,22.6
								c0,0.3,0.1,0.6,0.2,0.8c0.1,0.3,0.3,0.5,0.5,0.7s0.4,0.4,0.7,0.5c0.2,0.1,0.5,0.2,0.8,0.2l27.1,0.7c0.3,0,0.6,0,0.8-0.2
								c0.2-0.1,0.5-0.2,0.7-0.4s0.3-0.4,0.4-0.7s0.1-0.5,0.1-0.9l-0.8-22.9c0-0.3-0.1-0.6-0.2-0.8s-0.3-0.5-0.5-0.7
								s-0.4-0.4-0.7-0.5C199,314.4,198.7,314.3,198.5,314.3"/>
							<path class="st9" d="M193.4,317.9h-3.2l0.2,5.5c0,0.1,0,0.2-0.1,0.3s-0.1,0.2-0.1,0.2s-0.1,0.1-0.2,0.2s-0.2,0.1-0.3,0.1
								s-0.2,0-0.3-0.1c-0.1,0-0.2-0.1-0.2-0.2s-0.1-0.2-0.2-0.2s-0.1-0.2-0.1-0.3l-0.2-5.5h-2.6l0.2,5.5c0,0.1,0,0.2-0.1,0.3
								s-0.1,0.2-0.1,0.2c-0.1,0.1-0.1,0.1-0.2,0.2c-0.1,0-0.2,0.1-0.3,0.1s-0.2,0-0.3-0.1c-0.1,0-0.2-0.1-0.2-0.2s-0.1-0.2-0.2-0.2
								s-0.1-0.2-0.1-0.3l-0.2-5.5H182l0.2,5.5c0,0.1,0,0.2-0.1,0.3c0,0.1-0.1,0.2-0.1,0.2s-0.1,0.1-0.2,0.2c-0.1,0-0.2,0.1-0.3,0.1
								s-0.2,0-0.3-0.1s-0.2-0.1-0.2-0.2c-0.1-0.1-0.1-0.2-0.2-0.2c0-0.1-0.1-0.2-0.1-0.3l-0.2-5.4l-4-0.1c-0.2,0-0.3,0-0.4,0.1
								c-0.1,0.1-0.3,0.1-0.4,0.3c-0.1,0.1-0.2,0.2-0.2,0.4s-0.1,0.3-0.1,0.5l0.6,14.2c0,0.2,0.1,0.3,0.1,0.5s0.2,0.3,0.3,0.4
								s0.2,0.2,0.4,0.3c0.1,0.1,0.3,0.1,0.4,0.1h1.7v0.7c0,0.2,0.1,0.3,0.1,0.5c0.1,0.1,0.2,0.3,0.3,0.4s0.2,0.2,0.4,0.3
								s0.3,0.1,0.4,0.1h0.7v1c0,0.2,0.1,0.3,0.1,0.5c0.1,0.2,0.2,0.3,0.3,0.4s0.2,0.2,0.4,0.3c0.1,0.1,0.3,0.1,0.4,0.1l7.3,0.2
								c0.2,0,0.3,0,0.4-0.1s0.3-0.1,0.4-0.3c0.1-0.1,0.2-0.2,0.2-0.4s0.1-0.3,0.1-0.5v-1h0.7c0.2,0,0.3,0,0.4-0.1s0.3-0.2,0.4-0.3
								s0.2-0.2,0.2-0.4c0.1-0.2,0.1-0.3,0.1-0.5v-0.7h1.8c0.2,0,0.3,0,0.4-0.1s0.3-0.1,0.4-0.3c0.1-0.1,0.2-0.2,0.2-0.4
								s0.1-0.3,0.1-0.5l-0.5-14.3c0-0.2-0.1-0.3-0.1-0.5s-0.2-0.3-0.3-0.4s-0.2-0.2-0.4-0.3C193.7,317.9,193.5,317.9,193.4,317.9"
								/>
							<g>
								<g>
									<defs>
										<path id="SVGID_00000018237396903391389350000015456654561020391591_" d="M176.4,317.6l16.9,0.2c0.2,0,0.3,0,0.5,0.1
											s0.3,0.2,0.4,0.3c0.1,0.1,0.2,0.2,0.3,0.4s0.1,0.3,0.1,0.5l0.5,14.3c0,0.2,0,0.3-0.1,0.5s-0.1,0.3-0.2,0.4
											c-0.1,0.1-0.2,0.2-0.4,0.3s-0.3,0.1-0.4,0.1h-1.8v0.7c0,0.2,0,0.3-0.1,0.5c-0.1,0.1-0.1,0.3-0.2,0.4
											c-0.1,0.1-0.2,0.2-0.4,0.3s-0.3,0.1-0.4,0.1h-0.7v1c0,0.2,0,0.3-0.1,0.5s-0.1,0.3-0.2,0.4c-0.1,0.1-0.2,0.2-0.4,0.3
											s-0.3,0.1-0.4,0.1l-7.3-0.2c-0.2,0-0.3,0-0.4-0.1c-0.1-0.1-0.3-0.2-0.4-0.3c-0.1-0.1-0.2-0.2-0.3-0.4
											c-0.1-0.1-0.1-0.3-0.1-0.5v-1h-0.7c-0.2,0-0.3,0-0.4-0.1s-0.3-0.2-0.4-0.3s-0.2-0.2-0.3-0.4c-0.1-0.2-0.1-0.3-0.1-0.5
											v-0.7h-1.7c-0.1,0-0.3,0-0.4-0.1c-0.1-0.1-0.3-0.2-0.4-0.3c-0.1-0.1-0.2-0.2-0.3-0.4s-0.1-0.3-0.1-0.5l-0.6-14.2
											c0-0.2,0-0.3,0.1-0.5c0.1-0.1,0.1-0.3,0.2-0.4c0.1-0.1,0.2-0.2,0.4-0.3S176.2,317.6,176.4,317.6"/>
									</defs>
									<clipPath id="SVGID_00000158020047406699848820000006638232206176311729_">
										<use xlink:href="#SVGID_00000018237396903391389350000015456654561020391591_"  style="overflow:visible;"/>
									</clipPath>
									<g style="clip-path:url(#SVGID_00000158020047406699848820000006638232206176311729_);">
										<path class="st11" d="M190.2,317.8h-1.5l0.2,5.5c0,0.1,0,0.2,0.1,0.3s0.1,0.2,0.2,0.2c0.1,0.1,0.1,0.1,0.2,0.2
											c0.1,0,0.2,0.1,0.3,0.1s0.2,0,0.3-0.1c0.1,0,0.2-0.1,0.2-0.2c0.1-0.1,0.1-0.2,0.1-0.2s0.1-0.2,0.1-0.3L190.2,317.8"/>
										<path class="st11" d="M186,317.8h-1.5l0.2,5.5c0,0.1,0,0.2,0.1,0.3c0,0.1,0.1,0.2,0.2,0.2c0.1,0.1,0.1,0.1,0.2,0.2
											s0.2,0.1,0.3,0.1s0.2,0,0.3-0.1c0.1,0,0.2-0.1,0.2-0.2s0.1-0.1,0.1-0.2s0.1-0.2,0.1-0.3L186,317.8"/>
										<path class="st11" d="M181.9,317.7h-1.5l0.2,5.4c0,0.1,0,0.2,0.1,0.3s0.1,0.2,0.2,0.2s0.1,0.1,0.2,0.2
											c0.1,0,0.2,0.1,0.3,0.1s0.2,0,0.3-0.1s0.2-0.1,0.2-0.2s0.1-0.1,0.1-0.2s0.1-0.2,0.1-0.3L181.9,317.7"/>
									</g>
								</g>
							</g>
							<path class="st8" d="M231,318.4l3.3,0.1c0.2,0,0.3,0,0.5,0.1s0.3,0.2,0.4,0.3c0.1,0.1,0.2,0.3,0.3,0.4s0.1,0.3,0.1,0.5
								l0.4,14.6c0,0.2,0,0.3-0.1,0.5c-0.1,0.1-0.1,0.3-0.3,0.4c-0.1,0.1-0.2,0.2-0.4,0.3s-0.3,0.1-0.5,0.1h-1.8v0.7
								c0,0.2,0,0.3-0.1,0.5c-0.1,0.1-0.1,0.3-0.3,0.4c-0.1,0.1-0.2,0.2-0.4,0.3c-0.1,0.1-0.3,0.1-0.5,0.1h-0.7v1
								c0,0.2,0,0.3-0.1,0.5s-0.1,0.3-0.3,0.4c-0.1,0.1-0.2,0.2-0.4,0.3s-0.3,0.1-0.5,0.1l-7.5-0.2c-0.2,0-0.3,0-0.5-0.1
								c-0.1-0.1-0.3-0.2-0.4-0.3c-0.1-0.1-0.2-0.3-0.3-0.4s-0.1-0.3-0.1-0.5v-1h-0.7c-0.2,0-0.3,0-0.5-0.1s-0.3-0.2-0.4-0.3
								c-0.1-0.1-0.2-0.2-0.3-0.4c-0.1-0.2-0.1-0.3-0.1-0.5v-0.7H217c-0.2,0-0.3,0-0.5-0.1s-0.3-0.2-0.4-0.3
								c-0.1-0.1-0.2-0.2-0.3-0.4c-0.1-0.2-0.1-0.3-0.1-0.5l-0.5-14.5c0-0.2,0-0.3,0.1-0.5c0.1-0.1,0.1-0.3,0.2-0.4s0.2-0.2,0.4-0.3
								c0.1-0.1,0.3-0.1,0.5-0.1l4.1,0.1h1.6h2.7h1.6h2.7L231,318.4 M239.6,314.9l-28.3-0.4c-0.3,0-0.6,0-0.8,0.2
								c-0.3,0.1-0.5,0.3-0.7,0.5s-0.3,0.4-0.4,0.7c-0.1,0.3-0.1,0.6-0.1,0.9l0.8,23c0,0.3,0.1,0.6,0.2,0.8c0.1,0.3,0.3,0.5,0.5,0.7
								s0.4,0.4,0.7,0.5s0.6,0.2,0.9,0.2l28.1,0.7c0.3,0,0.6,0,0.9-0.1c0.3-0.1,0.5-0.3,0.7-0.5s0.3-0.4,0.4-0.7s0.1-0.6,0.1-0.9
								l-0.6-23.3c0-0.3-0.1-0.6-0.2-0.9s-0.3-0.5-0.5-0.7s-0.4-0.4-0.7-0.5S239.9,314.9,239.6,314.9"/>
							<path class="st9" d="M234.3,318.5l-3.3-0.1l0.2,5.6c0,0.1,0,0.2-0.1,0.3s-0.1,0.2-0.2,0.2c-0.1,0.1-0.1,0.1-0.2,0.2
								c-0.1,0-0.2,0.1-0.3,0.1s-0.2,0-0.3-0.1c-0.1,0-0.2-0.1-0.2-0.2s-0.1-0.2-0.2-0.2s-0.1-0.2-0.1-0.3l-0.2-5.6h-2.7l0.2,5.6
								c0,0.1,0,0.2-0.1,0.3s-0.1,0.2-0.2,0.2c-0.1,0.1-0.1,0.1-0.2,0.2c-0.1,0-0.2,0.1-0.3,0.1s-0.2,0-0.3-0.1
								c-0.1,0-0.2-0.1-0.2-0.2s-0.1-0.2-0.2-0.2s-0.1-0.2-0.1-0.3l-0.2-5.6h-2.7l0.2,5.6c0,0.1,0,0.2-0.1,0.3s-0.1,0.2-0.2,0.2
								c-0.1,0.1-0.1,0.1-0.2,0.2c-0.1,0-0.2,0.1-0.3,0.1s-0.2,0-0.3-0.1s-0.2-0.1-0.2-0.2c-0.1-0.1-0.1-0.2-0.2-0.2
								s-0.1-0.2-0.1-0.3l-0.2-5.6l-4.1-0.1c-0.2,0-0.3,0-0.5,0.1s-0.3,0.2-0.4,0.3c-0.1,0.1-0.2,0.2-0.2,0.4
								c-0.1,0.2-0.1,0.3-0.1,0.5l0.5,14.5c0,0.2,0.1,0.3,0.1,0.5c0.1,0.1,0.2,0.3,0.3,0.4s0.2,0.2,0.4,0.3c0.1,0.1,0.3,0.1,0.5,0.1
								h1.8v0.7c0,0.2,0.1,0.3,0.1,0.5c0.1,0.1,0.2,0.3,0.3,0.4s0.2,0.2,0.4,0.3c0.1,0.1,0.3,0.1,0.5,0.1h0.7v1
								c0,0.2,0.1,0.3,0.1,0.5s0.2,0.3,0.3,0.4s0.2,0.2,0.4,0.3s0.3,0.1,0.5,0.1l7.5,0.2c0.2,0,0.3,0,0.5-0.1s0.3-0.1,0.4-0.3
								s0.2-0.2,0.3-0.4c0.1-0.1,0.1-0.3,0.1-0.5v-1h0.7c0.2,0,0.3,0,0.5-0.1s0.3-0.1,0.4-0.3s0.2-0.2,0.3-0.4
								c0.1-0.1,0.1-0.3,0.1-0.5v-0.7h1.8c0.2,0,0.3,0,0.5-0.1s0.3-0.1,0.4-0.3s0.2-0.2,0.3-0.4c0.1-0.1,0.1-0.3,0.1-0.5l-0.4-14.6
								c0-0.2-0.1-0.3-0.1-0.5c-0.1-0.1-0.2-0.3-0.3-0.4s-0.3-0.2-0.4-0.3S234.5,318.5,234.3,318.5"/>
							<g>
								<g>
									<defs>
										<path id="SVGID_00000033333974224053689700000005882052921604732576_" d="M216.7,318.2l17.6,0.3c0.2,0,0.3,0,0.5,0.1
											s0.3,0.2,0.4,0.3c0.1,0.1,0.2,0.3,0.3,0.4s0.1,0.3,0.1,0.5l0.4,14.6c0,0.2,0,0.3-0.1,0.5c-0.1,0.1-0.1,0.3-0.3,0.4
											c-0.1,0.1-0.2,0.2-0.4,0.3s-0.3,0.1-0.5,0.1h-1.8v0.7c0,0.2,0,0.3-0.1,0.5c-0.1,0.1-0.1,0.3-0.3,0.4
											c-0.1,0.1-0.2,0.2-0.4,0.3c-0.1,0.1-0.3,0.1-0.5,0.1h-0.7v1c0,0.2,0,0.3-0.1,0.5s-0.1,0.3-0.3,0.4
											c-0.1,0.1-0.2,0.2-0.4,0.3s-0.3,0.1-0.5,0.1l-7.5-0.2c-0.2,0-0.3,0-0.5-0.1c-0.1-0.1-0.3-0.2-0.4-0.3
											c-0.1-0.1-0.2-0.3-0.3-0.4s-0.1-0.3-0.1-0.5v-1h-0.7c-0.2,0-0.3,0-0.5-0.1s-0.3-0.2-0.4-0.3c-0.1-0.1-0.2-0.2-0.3-0.4
											c-0.1-0.2-0.1-0.3-0.1-0.5v-0.7H217c-0.2,0-0.3,0-0.5-0.1s-0.3-0.2-0.4-0.3c-0.1-0.1-0.2-0.2-0.3-0.4
											c-0.1-0.2-0.1-0.3-0.1-0.5l-0.5-14.5c0-0.2,0-0.3,0.1-0.5c0.1-0.1,0.1-0.3,0.2-0.4s0.2-0.2,0.4-0.3
											C216.4,318.3,216.5,318.2,216.7,318.2"/>
									</defs>
									<clipPath id="SVGID_00000031204429039638253970000001661149481479414185_">
										<use xlink:href="#SVGID_00000033333974224053689700000005882052921604732576_"  style="overflow:visible;"/>
									</clipPath>
									<g style="clip-path:url(#SVGID_00000031204429039638253970000001661149481479414185_);">
										<path class="st11" d="M231,318.4h-1.6l0.2,5.6c0,0.1,0,0.2,0.1,0.3c0,0.1,0.1,0.2,0.2,0.2c0.1,0.1,0.2,0.1,0.2,0.2
											s0.2,0.1,0.3,0.1s0.2,0,0.3-0.1c0.1,0,0.2-0.1,0.2-0.2s0.1-0.2,0.2-0.2s0.1-0.2,0.1-0.3L231,318.4"/>
										<path class="st11" d="M226.7,318.4h-1.6l0.2,5.6c0,0.1,0,0.2,0.1,0.3s0.1,0.2,0.2,0.2s0.2,0.1,0.2,0.2
											c0.1,0,0.2,0.1,0.3,0.1s0.2,0,0.3-0.1s0.2-0.1,0.2-0.2c0.1-0.1,0.1-0.2,0.2-0.2c0-0.1,0.1-0.2,0.1-0.3L226.7,318.4"/>
										<path class="st11" d="M222.4,318.3h-1.6l0.2,5.5c0,0.1,0,0.2,0.1,0.3c0,0.1,0.1,0.2,0.2,0.2c0.1,0.1,0.2,0.1,0.2,0.2
											s0.2,0.1,0.3,0.1s0.2,0,0.3-0.1c0.1,0,0.2-0.1,0.2-0.2s0.1-0.1,0.2-0.2s0.1-0.2,0.1-0.3L222.4,318.3"/>
									</g>
								</g>
							</g>
							<path class="st8" d="M273.4,319.1h3.5c0.2,0,0.3,0,0.5,0.1s0.3,0.2,0.4,0.3c0.1,0.1,0.2,0.3,0.3,0.4s0.1,0.3,0.1,0.5
								l0.3,14.9c0,0.2,0,0.3-0.1,0.5s-0.2,0.3-0.3,0.4c-0.1,0.1-0.2,0.2-0.4,0.3s-0.3,0.1-0.5,0.1h-1.9v0.7c0,0.2,0,0.3-0.1,0.5
								c-0.1,0.1-0.2,0.3-0.3,0.4c-0.1,0.1-0.2,0.2-0.4,0.3s-0.3,0.1-0.5,0.1h-0.8v1c0,0.2,0,0.3-0.1,0.5c-0.1,0.1-0.2,0.3-0.3,0.4
								c-0.1,0.1-0.2,0.2-0.4,0.3s-0.3,0.1-0.5,0.1l-7.8-0.2c-0.2,0-0.3-0.1-0.5-0.1c-0.2-0.1-0.3-0.2-0.4-0.3
								c-0.1-0.1-0.2-0.3-0.3-0.4s-0.1-0.3-0.1-0.5v-1h-0.7c-0.2,0-0.3-0.1-0.5-0.1c-0.2-0.1-0.3-0.2-0.4-0.3
								c-0.1-0.1-0.2-0.3-0.3-0.4c-0.1-0.1-0.1-0.3-0.1-0.5v-0.7h-1.9c-0.2,0-0.3,0-0.5-0.1s-0.3-0.2-0.4-0.3
								c-0.1-0.1-0.2-0.3-0.3-0.4c-0.1-0.1-0.1-0.3-0.1-0.5l-0.4-14.7c0-0.2,0-0.3,0.1-0.5s0.2-0.3,0.3-0.4c0.1-0.1,0.2-0.2,0.4-0.3
								s0.3-0.1,0.5-0.1l4.3,0.1h1.6h2.8h1.6h2.9L273.4,319.1 M282.4,315.4L253,315c-0.3,0-0.6,0-0.9,0.2c-0.3,0.1-0.5,0.3-0.7,0.5
								s-0.4,0.4-0.5,0.7c-0.1,0.3-0.2,0.6-0.2,0.9l0.6,23.4c0,0.3,0.1,0.6,0.2,0.9s0.3,0.5,0.5,0.7s0.4,0.4,0.7,0.5
								s0.6,0.2,0.9,0.2l29.2,0.8c0.3,0,0.6,0,0.9-0.1s0.5-0.3,0.7-0.5s0.4-0.4,0.5-0.7c0.1-0.3,0.2-0.6,0.2-0.9l-0.4-23.8
								c0-0.3-0.1-0.6-0.2-0.9s-0.3-0.5-0.5-0.7s-0.5-0.4-0.7-0.5S282.8,315.4,282.4,315.4"/>
							<path class="st9" d="M276.8,319.1h-3.5l0.1,5.7c0,0.1,0,0.2-0.1,0.3s-0.1,0.2-0.2,0.2s-0.2,0.1-0.3,0.2
								c-0.1,0-0.2,0.1-0.3,0.1s-0.2,0-0.3-0.1s-0.2-0.1-0.3-0.2c-0.1-0.1-0.1-0.2-0.2-0.3s-0.1-0.2-0.1-0.3l-0.1-5.7h-2.9l0.1,5.7
								c0,0.1,0,0.2-0.1,0.3s-0.1,0.2-0.2,0.2c-0.1,0.1-0.2,0.1-0.2,0.2c-0.1,0-0.2,0.1-0.3,0.1s-0.2,0-0.3-0.1
								c-0.1,0-0.2-0.1-0.3-0.2c-0.1-0.1-0.1-0.2-0.2-0.3c0-0.1-0.1-0.2-0.1-0.3l-0.1-5.7h-2.8l0.1,5.7c0,0.1,0,0.2-0.1,0.3
								s-0.1,0.2-0.2,0.2c-0.1,0.1-0.2,0.1-0.2,0.2c-0.1,0-0.2,0.1-0.3,0.1s-0.2,0-0.3-0.1s-0.2-0.1-0.3-0.2
								c-0.1-0.1-0.1-0.2-0.2-0.3c0-0.1-0.1-0.2-0.1-0.3l-0.1-5.7l-4.3-0.1c-0.2,0-0.3,0-0.5,0.1s-0.3,0.2-0.4,0.3
								c-0.1,0.1-0.2,0.2-0.3,0.4c-0.1,0.1-0.1,0.3-0.1,0.5l0.4,14.7c0,0.2,0.1,0.3,0.1,0.5c0.1,0.1,0.2,0.3,0.3,0.4
								s0.3,0.2,0.4,0.3c0.1,0.1,0.3,0.1,0.5,0.1h1.9v0.7c0,0.2,0,0.3,0.1,0.5c0.1,0.1,0.2,0.3,0.3,0.4c0.1,0.1,0.3,0.2,0.4,0.3
								c0.2,0.1,0.3,0.1,0.5,0.1h0.7v1c0,0.2,0,0.3,0.1,0.5s0.2,0.3,0.3,0.4s0.3,0.2,0.4,0.3s0.3,0.1,0.5,0.1l7.8,0.2
								c0.2,0,0.3,0,0.5-0.1s0.3-0.2,0.4-0.3c0.1-0.1,0.2-0.2,0.3-0.4c0.1-0.1,0.1-0.3,0.1-0.5v-1h0.8c0.2,0,0.3,0,0.5-0.1
								s0.3-0.2,0.4-0.3c0.1-0.1,0.2-0.2,0.3-0.4s0.1-0.3,0.1-0.5v-0.7h1.9c0.2,0,0.3,0,0.5-0.1s0.3-0.2,0.4-0.3
								c0.1-0.1,0.2-0.2,0.3-0.4c0.1-0.1,0.1-0.3,0.1-0.5l-0.3-14.9c0-0.2,0-0.3-0.1-0.5s-0.2-0.3-0.3-0.4c-0.1-0.1-0.3-0.2-0.4-0.3
								C277.1,319.2,276.9,319.1,276.8,319.1"/>
							<g>
								<g>
									<defs>
										<path id="SVGID_00000097494137440070677630000007363852707531153329_" d="M258.5,318.8l18.3,0.3c0.2,0,0.3,0,0.5,0.1
											s0.3,0.2,0.4,0.3c0.1,0.1,0.2,0.3,0.3,0.4s0.1,0.3,0.1,0.5l0.3,14.9c0,0.2,0,0.3-0.1,0.5s-0.2,0.3-0.3,0.4
											c-0.1,0.1-0.2,0.2-0.4,0.3s-0.3,0.1-0.5,0.1h-1.9v0.7c0,0.2,0,0.3-0.1,0.5c-0.1,0.1-0.2,0.3-0.3,0.4
											c-0.1,0.1-0.2,0.2-0.4,0.3s-0.3,0.1-0.5,0.1h-0.8v1c0,0.2,0,0.3-0.1,0.5c-0.1,0.1-0.2,0.3-0.3,0.4
											c-0.1,0.1-0.2,0.2-0.4,0.3s-0.3,0.1-0.5,0.1l-7.8-0.2c-0.2,0-0.3-0.1-0.5-0.1c-0.2-0.1-0.3-0.2-0.4-0.3
											c-0.1-0.1-0.2-0.3-0.3-0.4s-0.1-0.3-0.1-0.5v-1H262c-0.2,0-0.3-0.1-0.5-0.1c-0.2-0.1-0.3-0.2-0.4-0.3
											c-0.1-0.1-0.2-0.3-0.3-0.4c-0.1-0.1-0.1-0.3-0.1-0.5v-0.7h-1.9c-0.2,0-0.3,0-0.5-0.1s-0.3-0.2-0.4-0.3
											c-0.1-0.1-0.2-0.3-0.3-0.4c-0.1-0.1-0.1-0.3-0.1-0.5l-0.4-14.7c0-0.2,0-0.3,0.1-0.5s0.2-0.3,0.3-0.4
											c0.1-0.1,0.2-0.2,0.4-0.3S258.4,318.8,258.5,318.8"/>
									</defs>
									<clipPath id="SVGID_00000026160552367422595550000002291853912871477632_">
										<use xlink:href="#SVGID_00000097494137440070677630000007363852707531153329_"  style="overflow:visible;"/>
									</clipPath>
									<g style="clip-path:url(#SVGID_00000026160552367422595550000002291853912871477632_);">
										<path class="st11" d="M273.4,319.1h-1.6l0.1,5.7c0,0.1,0,0.2,0.1,0.3c0,0.1,0.1,0.2,0.2,0.3c0.1,0.1,0.2,0.1,0.3,0.2
											c0.1,0,0.2,0.1,0.3,0.1s0.2,0,0.3-0.1s0.2-0.1,0.3-0.2c0.1-0.1,0.1-0.2,0.2-0.2s0.1-0.2,0.1-0.3L273.4,319.1"/>
										<path class="st11" d="M268.9,319h-1.6l0.1,5.7c0,0.1,0,0.2,0.1,0.3c0,0.1,0.1,0.2,0.2,0.3s0.2,0.1,0.3,0.2
											c0.1,0.1,0.2,0.1,0.3,0.1s0.2,0,0.3-0.1s0.2-0.1,0.2-0.2c0.1-0.1,0.1-0.2,0.2-0.2c0-0.1,0.1-0.2,0.1-0.3L268.9,319"/>
										<path class="st11" d="M264.4,318.9h-1.6l0.1,5.7c0,0.1,0,0.2,0.1,0.3s0.1,0.2,0.2,0.3c0.1,0.1,0.2,0.1,0.3,0.2
											c0.1,0,0.2,0.1,0.3,0.1s0.2,0,0.3-0.1c0.1,0,0.2-0.1,0.2-0.2s0.1-0.2,0.2-0.2s0.1-0.2,0.1-0.3L264.4,318.9"/>
									</g>
								</g>
							</g>
							<path class="st8" d="M317.4,319.7l3.6,0.1c0.2,0,0.4,0,0.5,0.1c0.2,0.1,0.3,0.2,0.4,0.3s0.2,0.3,0.3,0.4
								c0.1,0.1,0.1,0.3,0.1,0.5l0.2,15.1c0,0.2,0,0.3-0.1,0.5s-0.2,0.3-0.3,0.4s-0.3,0.2-0.4,0.3s-0.3,0.1-0.5,0.1h-2v0.7
								c0,0.2,0,0.3-0.1,0.5s-0.2,0.3-0.3,0.4s-0.3,0.2-0.4,0.3s-0.3,0.1-0.5,0.1h-0.8v1.1c0,0.2,0,0.3-0.1,0.5s-0.2,0.3-0.3,0.4
								c-0.1,0.1-0.3,0.2-0.4,0.3c-0.2,0.1-0.3,0.1-0.5,0.1l-8.1-0.2c-0.2,0-0.4,0-0.5-0.1s-0.3-0.2-0.4-0.3s-0.2-0.3-0.3-0.4
								s-0.1-0.3-0.1-0.5v-1.2h-0.8c-0.2,0-0.3-0.1-0.5-0.1c-0.2-0.1-0.3-0.2-0.4-0.3s-0.2-0.3-0.3-0.4s-0.1-0.3-0.1-0.5v-0.7h-2
								c-0.2,0-0.3,0-0.5-0.1s-0.3-0.2-0.4-0.3c-0.1-0.1-0.2-0.3-0.3-0.4s-0.1-0.3-0.1-0.5l-0.2-15c0-0.2,0-0.3,0.1-0.5
								c0.1-0.1,0.2-0.3,0.3-0.4c0.1-0.1,0.3-0.2,0.4-0.3c0.2-0.1,0.3-0.1,0.5-0.1l4.5,0.1h1.7h3h1.7h3L317.4,319.7 M326.8,316.1
								l-30.6-0.4c-0.3,0-0.6,0-0.9,0.2c-0.3,0.1-0.5,0.3-0.7,0.5s-0.4,0.4-0.5,0.7c-0.1,0.3-0.2,0.6-0.2,0.9l0.4,23.9
								c0,0.3,0.1,0.6,0.2,0.9s0.3,0.5,0.5,0.7s0.5,0.4,0.7,0.5c0.3,0.1,0.6,0.2,0.9,0.2L327,345c0.3,0,0.6-0.1,0.9-0.2
								s0.5-0.3,0.8-0.5c0.2-0.2,0.4-0.4,0.5-0.7s0.2-0.6,0.2-0.9l-0.2-24.2c0-0.3-0.1-0.6-0.2-0.9s-0.3-0.5-0.5-0.8
								s-0.5-0.4-0.8-0.5C327.5,316.1,327.2,316.1,326.8,316.1"/>
							<path class="st9" d="M321,319.8l-3.6-0.1l0.1,5.8c0,0.1,0,0.2-0.1,0.3c0,0.1-0.1,0.2-0.2,0.3s-0.2,0.1-0.3,0.2
								c-0.1,0-0.2,0.1-0.3,0.1s-0.2,0-0.3-0.1s-0.2-0.1-0.3-0.2c-0.1-0.1-0.1-0.2-0.2-0.3s-0.1-0.2-0.1-0.3l-0.1-5.8h-3l0.1,5.8
								c0,0.1,0,0.2-0.1,0.3c0,0.1-0.1,0.2-0.2,0.3s-0.2,0.1-0.3,0.2c-0.1,0-0.2,0.1-0.3,0.1s-0.2,0-0.3-0.1s-0.2-0.1-0.3-0.2
								c-0.1-0.1-0.1-0.2-0.2-0.3s-0.1-0.2-0.1-0.3l-0.1-5.8h-3l0.1,5.8c0,0.1,0,0.2-0.1,0.3c0,0.1-0.1,0.2-0.2,0.3
								s-0.2,0.1-0.3,0.2c-0.1,0-0.2,0.1-0.3,0.1s-0.2,0-0.3-0.1s-0.2-0.1-0.3-0.2c-0.1-0.1-0.1-0.2-0.2-0.3s-0.1-0.2-0.1-0.3
								l-0.1-5.8l-4.5-0.1c-0.2,0-0.3,0-0.5,0.1s-0.3,0.2-0.4,0.3s-0.2,0.3-0.3,0.4c-0.1,0.1-0.1,0.3-0.1,0.5l0.2,15
								c0,0.2,0,0.3,0.1,0.5s0.2,0.3,0.3,0.4s0.3,0.2,0.4,0.3c0.2,0.1,0.3,0.1,0.5,0.1h1.9v0.7c0,0.2,0,0.3,0.1,0.5
								c0.1,0.1,0.2,0.3,0.3,0.4s0.3,0.2,0.4,0.3s0.3,0.1,0.5,0.1h0.8v1.1c0,0.2,0.1,0.3,0.1,0.5s0.2,0.3,0.3,0.4s0.3,0.2,0.4,0.3
								c0.2,0.1,0.3,0.1,0.5,0.1l8.1,0.2c0.2,0,0.4,0,0.5-0.1s0.3-0.2,0.4-0.3s0.2-0.3,0.3-0.4s0.1-0.3,0.1-0.5v-1.1h0.8
								c0.2,0,0.4,0,0.5-0.1s0.3-0.2,0.4-0.3s0.2-0.3,0.3-0.4c0.1-0.1,0.1-0.3,0.1-0.5v-0.7h2c0.2,0,0.4,0,0.5-0.1
								c0.2-0.1,0.3-0.2,0.4-0.3c0.1-0.1,0.2-0.3,0.3-0.4c0.1-0.2,0.1-0.3,0.1-0.5l-0.2-15.1c0-0.2,0-0.3-0.1-0.5s-0.2-0.3-0.3-0.4
								c-0.1-0.1-0.3-0.2-0.4-0.3C321.4,319.8,321.2,319.8,321,319.8"/>
							<g>
								<g>
									<defs>
										<path id="SVGID_00000162315742974942604610000003109422389100271003_" d="M302,319.5l19,0.3c0.2,0,0.4,0,0.5,0.1
											c0.2,0.1,0.3,0.2,0.4,0.3s0.2,0.3,0.3,0.4c0.1,0.1,0.1,0.3,0.1,0.5l0.2,15.1c0,0.2,0,0.3-0.1,0.5s-0.2,0.3-0.3,0.4
											s-0.3,0.2-0.4,0.3s-0.3,0.1-0.5,0.1h-2v0.7c0,0.2,0,0.3-0.1,0.5s-0.2,0.3-0.3,0.4s-0.3,0.2-0.4,0.3s-0.3,0.1-0.5,0.1h-0.8
											v1.1c0,0.2,0,0.3-0.1,0.5s-0.2,0.3-0.3,0.4c-0.1,0.1-0.3,0.2-0.4,0.3c-0.2,0.1-0.3,0.1-0.5,0.1l-8.1-0.2
											c-0.2,0-0.4,0-0.5-0.1s-0.3-0.2-0.4-0.3s-0.2-0.3-0.3-0.4s-0.1-0.3-0.1-0.5v-1.2h-0.8c-0.2,0-0.3-0.1-0.5-0.1
											c-0.2-0.1-0.3-0.2-0.4-0.3s-0.2-0.3-0.3-0.4s-0.1-0.3-0.1-0.5v-0.7h-2c-0.2,0-0.3,0-0.5-0.1s-0.3-0.2-0.4-0.3
											c-0.1-0.1-0.2-0.3-0.3-0.4s-0.1-0.3-0.1-0.5l-0.2-15c0-0.2,0-0.3,0.1-0.5c0.1-0.1,0.2-0.3,0.3-0.4
											c0.1-0.1,0.3-0.2,0.4-0.3C301.6,319.5,301.8,319.5,302,319.5"/>
									</defs>
									<clipPath id="SVGID_00000038391339784798922780000002565778336318082981_">
										<use xlink:href="#SVGID_00000162315742974942604610000003109422389100271003_"  style="overflow:visible;"/>
									</clipPath>
									<g style="clip-path:url(#SVGID_00000038391339784798922780000002565778336318082981_);">
										<path class="st11" d="M317.4,319.7h-1.7l0.1,5.8c0,0.1,0,0.2,0.1,0.3c0,0.1,0.1,0.2,0.2,0.3c0.1,0.1,0.2,0.1,0.3,0.2
											c0.1,0,0.2,0.1,0.3,0.1s0.2,0,0.3-0.1s0.2-0.1,0.3-0.2c0.1-0.1,0.1-0.2,0.2-0.3s0.1-0.2,0.1-0.3L317.4,319.7"/>
										<path class="st11" d="M312.8,319.6h-1.7l0.1,5.8c0,0.1,0,0.2,0.1,0.3s0.1,0.2,0.2,0.3c0.1,0.1,0.2,0.1,0.3,0.2
											c0.1,0,0.2,0.1,0.3,0.1s0.2,0,0.3-0.1c0.1,0,0.2-0.1,0.3-0.2s0.1-0.2,0.2-0.3s0.1-0.2,0.1-0.3L312.8,319.6"/>
										<path class="st11" d="M308.2,319.6h-1.7l0.1,5.8c0,0.1,0,0.2,0.1,0.3c0,0.1,0.1,0.2,0.2,0.3s0.2,0.1,0.3,0.2
											c0.1,0,0.2,0.1,0.3,0.1s0.2,0,0.3-0.1s0.2-0.1,0.3-0.2c0.1-0.1,0.1-0.2,0.2-0.3s0.1-0.2,0.1-0.3L308.2,319.6"/>
									</g>
								</g>
							</g>
							<path class="st16" d="M52.5,328.2c-0.4,0-0.8-0.1-1.1-0.3s-0.7-0.4-0.9-0.7s-0.5-0.6-0.7-1s-0.3-0.8-0.3-1.2
								c0-0.4,0-0.8,0.1-1.2c0.1-0.4,0.3-0.7,0.5-1s0.5-0.5,0.8-0.6c0.3-0.2,0.7-0.2,1.1-0.2c0.4,0,0.8,0.1,1.1,0.3s0.7,0.4,0.9,0.7
								s0.5,0.6,0.7,1s0.3,0.8,0.3,1.2c0,0.4,0,0.8-0.1,1.2c-0.1,0.4-0.3,0.7-0.5,1s-0.5,0.5-0.8,0.6S52.9,328.2,52.5,328.2
								 M51.5,314.6c-1.3,0-2.5,0.3-3.6,0.8s-2,1.3-2.8,2.2c-0.8,0.9-1.4,2.1-1.8,3.3s-0.5,2.6-0.5,4.1s0.5,2.8,1,4.1
								c0.6,1.3,1.3,2.4,2.2,3.4s2,1.8,3.1,2.3c1.2,0.6,2.4,0.9,3.7,0.9s2.5-0.2,3.6-0.7s2.1-1.2,2.9-2.2s1.4-2.1,1.8-3.3
								s0.6-2.6,0.5-4.1s-0.5-2.9-1-4.1c-0.6-1.3-1.3-2.4-2.3-3.4s-2-1.8-3.2-2.3C54.1,315,52.9,314.7,51.5,314.6"/>
							<path class="st7" d="M52.1,322.1c-0.4,0-0.7,0.1-1.1,0.2s-0.6,0.4-0.8,0.6c-0.2,0.3-0.4,0.6-0.5,1s-0.2,0.8-0.1,1.2
								c0,0.4,0.1,0.8,0.3,1.2c0.2,0.4,0.4,0.7,0.7,1s0.6,0.5,0.9,0.7s0.7,0.2,1.1,0.3c0.4,0,0.7-0.1,1.1-0.2
								c0.3-0.1,0.6-0.4,0.8-0.6c0.2-0.3,0.4-0.6,0.5-1s0.2-0.8,0.1-1.2c0-0.4-0.1-0.8-0.3-1.2s-0.4-0.7-0.7-1s-0.6-0.5-0.9-0.7
								S52.5,322.1,52.1,322.1"/>
						</g>
					</g>
				</g>
			</g>
		</g>
		<g>
			<g>
				<path class="st17" d="M424.7,299.9v41.7c0,1-0.5,2-1.3,2.1c-0.4,0.1-0.7-0.1-1-0.4c-0.4-0.4-0.6-0.9-0.6-1.6v-41.5
					c0-0.7,0.2-1.3,0.6-1.7c0.3-0.3,0.6-0.5,1-0.5s0.7,0.2,0.9,0.5C424.5,298.9,424.7,299.4,424.7,299.9L424.7,299.9z"/>
				<path class="st17" d="M431.9,299.5v41.2c0,1-0.6,1.9-1.3,2.1c-0.4,0.1-0.7-0.1-1-0.4c-0.3-0.4-0.6-0.9-0.6-1.6v-40.9
					c0-0.7,0.2-1.3,0.6-1.7c0.3-0.3,0.6-0.5,1-0.5s0.7,0.2,0.9,0.5S431.9,299,431.9,299.5z"/>
				<path class="st17" d="M439.2,299.2v40.6c0,1-0.6,1.9-1.3,2c-0.4,0.1-0.7-0.1-1-0.3c-0.4-0.3-0.6-0.9-0.6-1.6v-40.4
					c0-0.6,0.2-1.3,0.6-1.6c0.3-0.3,0.6-0.5,1-0.5s0.7,0.2,0.9,0.5S439.2,298.6,439.2,299.2L439.2,299.2z"/>
				<path class="st17" d="M446.4,298.8v40c0,1-0.6,1.9-1.3,2c-0.4,0.1-0.7-0.1-1-0.3c-0.4-0.3-0.6-0.9-0.6-1.5v-39.8
					c0-0.6,0.2-1.2,0.6-1.6c0.3-0.3,0.6-0.5,1-0.5s0.7,0.2,0.9,0.5C446.3,297.9,446.4,298.3,446.4,298.8z"/>
				<path class="st17" d="M453.7,298.5v39.3c0,1-0.6,1.8-1.3,2c-0.4,0.1-0.7-0.1-1-0.3c-0.3-0.3-0.6-0.9-0.6-1.5v-39.1
					c0-0.6,0.2-1.2,0.6-1.6c0.3-0.3,0.6-0.5,1-0.5s0.7,0.2,0.9,0.5C453.5,297.6,453.7,298,453.7,298.5z"/>
				<path class="st17" d="M460.9,298.2v38.6c0,1-0.5,1.8-1.3,1.9c-0.4,0.1-0.7-0.1-1-0.3c-0.4-0.3-0.6-0.9-0.6-1.5v-38.4
					c0-0.6,0.2-1.2,0.6-1.6c0.3-0.3,0.6-0.5,1-0.5s0.7,0.2,0.9,0.5C460.8,297.3,460.9,297.7,460.9,298.2L460.9,298.2z"/>
				<path class="st17" d="M468.2,297.9v37.9c0,1-0.6,1.8-1.3,1.9c-0.4,0.1-0.7-0.1-1-0.3c-0.4-0.3-0.6-0.9-0.6-1.5v-37.7
					c0-0.6,0.2-1.2,0.6-1.6l0,0c0.3-0.3,0.6-0.5,1-0.5s0.7,0.2,0.9,0.5C468,297,468.2,297.4,468.2,297.9z"/>
				<path class="st17" d="M475.4,297.6v37.1c0,0.9-0.5,1.8-1.3,1.9c-0.4,0.1-0.7-0.1-1-0.3c-0.3-0.3-0.6-0.8-0.6-1.4V298
					c0-0.6,0.2-1.1,0.6-1.5c0.3-0.3,0.6-0.5,1-0.5s0.7,0.2,0.9,0.5C475.3,296.7,475.4,297.2,475.4,297.6L475.4,297.6z"/>
			</g>
			<g class="st18">
				<path class="st19" d="M423,300.1v41.6c0,0.7-0.2,1.3-0.6,1.6c-0.4-0.4-0.6-0.9-0.6-1.6v-41.5c0-0.7,0.2-1.3,0.6-1.7
					c0.1,0.1,0.1,0.1,0.2,0.2C422.8,299.2,423,299.6,423,300.1z"/>
				<path class="st19" d="M430.2,299.8v40.9c0,0.7-0.2,1.2-0.6,1.6c-0.3-0.4-0.6-0.9-0.6-1.6v-40.9c0-0.7,0.2-1.3,0.6-1.7
					c0.1,0.1,0.1,0.1,0.2,0.2C430.1,298.9,430.2,299.3,430.2,299.8L430.2,299.8z"/>
				<path class="st19" d="M437.5,299.5v40.3c0,0.6-0.2,1.2-0.6,1.6c-0.4-0.3-0.6-0.9-0.6-1.5v-40.2c0-0.6,0.2-1.2,0.6-1.6
					c0.1,0.1,0.1,0.1,0.2,0.2C437.3,298.6,437.5,299,437.5,299.5z"/>
				<path class="st19" d="M444.7,299.2v39.6c0,0.6-0.2,1.2-0.6,1.6c-0.4-0.3-0.6-0.9-0.6-1.5v-39.6c0-0.6,0.2-1.2,0.6-1.6
					c0.1,0.1,0.1,0.1,0.2,0.2C444.6,298.3,444.7,298.7,444.7,299.2L444.7,299.2z"/>
				<path class="st19" d="M452,299v38.9c0,0.6-0.2,1.2-0.6,1.5c-0.3-0.3-0.6-0.9-0.6-1.5v-38.8c0-0.6,0.2-1.2,0.6-1.6
					c0.1,0.1,0.1,0.1,0.2,0.2C451.8,298.1,452,298.5,452,299L452,299z"/>
				<path class="st19" d="M459.2,298.7v38.2c0,0.6-0.2,1.2-0.6,1.5c-0.4-0.3-0.6-0.9-0.6-1.5v-38.1c0-0.6,0.2-1.2,0.6-1.6
					c0.1,0.1,0.1,0.1,0.2,0.2C459.1,297.8,459.2,298.2,459.2,298.7z"/>
				<path class="st19" d="M466.5,298.5v37.4c0,0.6-0.2,1.1-0.6,1.5c-0.4-0.3-0.6-0.8-0.6-1.4v-37.3c0-0.6,0.2-1.2,0.6-1.5l0,0
					c0.1,0.1,0.1,0.1,0.2,0.2C466.3,297.6,466.5,298,466.5,298.5L466.5,298.5z"/>
				<path class="st19" d="M473.7,298.3v36.6c0,0.6-0.2,1.1-0.6,1.5c-0.3-0.3-0.6-0.8-0.6-1.4v-36.5c0-0.6,0.2-1.1,0.6-1.5
					c0.1,0.1,0.1,0.1,0.2,0.2C473.6,297.4,473.7,297.8,473.7,298.3L473.7,298.3z"/>
			</g>
		</g>
		<path class="st17" d="M412.1,350.9l-3.1,6h-0.3l0.6-2.5h-2.1l-8.6,1c0.5-1.4,0.8-2.7,0.8-2.7L412.1,350.9L412.1,350.9z"/>
		<path class="st20" d="M409.2,354.4l-0.6,2.5l-7,1l-4.7,0.6c0.5-0.4,0.9-1.2,1.2-2c0.2-0.4,0.3-0.7,0.4-1.1l8.6-1H409.2
			L409.2,354.4z"/>
		<path class="st17" d="M505.3,339.3l-3.1,6h-0.3l0.6-2.5h-2.1l-8.6,1c0.5-1.4,0.8-2.7,0.8-2.7L505.3,339.3L505.3,339.3z"/>
		<path class="st20" d="M502.4,342.9l-0.6,2.5l-7,1l-4.7,0.6c0.5-0.4,0.9-1.2,1.2-2c0.2-0.4,0.3-0.7,0.4-1.1l8.6-1H502.4
			L502.4,342.9z"/>
	</g>
	<g>
		<g>
			<g>
				<path class="st21" d="M304.4,203.7h-83.3c-5.7,0-10.3-4.6-10.3-10.3v-8.6c0-5.7,4.6-10.3,10.3-10.3h83.3
					c5.7,0,10.3,4.6,10.3,10.3v8.5C314.7,199.1,310.1,203.7,304.4,203.7z"/>
				<path class="st22" d="M225.6,131.8l7.8,41.6"/>
			</g>
			<g>
				<path class="st21" d="M234.6,194.2c-2.4,0-4.3-1.9-4.3-4.3s1.9-4.3,4.3-4.3s4.3,1.9,4.3,4.3S237,194.2,234.6,194.2z"/>
				<line class="st21" x1="247.5" y1="190" x2="295.2" y2="190"/>
			</g>
		</g>
		<g>
			<path class="st21" d="M178.5,183.2l-16.8,3.6c-5.1,1.1-10.3-2.2-11.4-7.4l-8.8-41.3c-1.1-5.1,2.2-10.3,7.4-11.3l16.8-3.6
				c5.1-1.1,10.3,2.2,11.4,7.4l8.8,41.3C186.9,177.1,183.6,182.1,178.5,183.2z"/>
			<ellipse class="st21" cx="168.4" cy="178.8" rx="2.7" ry="2.7"/>
		</g>
		<g id="fbGwtH.tif">
			<g>
				<path class="st23" d="M360.8,122.2c0.1,0,0.2,0.1,0.4,0.1c2.9,1.7,5.9,3.4,8.8,5.1c9.3,5.4,18.7,10.9,28,16.3
					c1.9,1.1,3.9,2.2,5.8,3.4c1,0.6,1.3,1.3,0.8,2.1c-1.6,2.7-3.1,5.4-4.8,8.1c-0.3,0.5-0.7,0.8-1.1,0.8c-0.3,0-0.6-0.1-0.9-0.3
					c-1.3-0.7-2.5-1.5-3.8-2.2c-0.4-0.2-0.7-0.3-0.9-0.3c-0.4,0-0.7,0.2-1,0.6c-0.4,0.7-0.1,1.3,0.7,1.8c0.4,0.3,0.9,0.5,1.4,0.8
					c0.1,0.1,0.3,0.1,0.3,0.4c-0.1,0.8-0.9,1.4-1.6,1.4c-0.2,0-0.4-0.1-0.6-0.1c-0.7-0.4-1.4-0.8-2.2-1.2c-8.6-5.1-17.3-10-26-15.1
					c-3.3-1.9-6.5-3.8-9.8-5.7c-0.9-0.5-1-1.1-0.5-2c0.2-0.4,0.4-0.8,0.7-1.2c1-1.8,2.2-3.6,3.2-5.4c0.1,0,0.1,0,0.2,0.1
					c0,0.3,0,0.7,0,1c0,1.5,0,3,0.1,4.5c0.1,1.6,0.9,2.9,2.3,3.8c9.1,5.4,18.2,10.6,27.4,16c0.5,0.3,1,0.4,1.3,0.4
					c0.4,0,0.7-0.1,0.9-0.5c0.4-0.7,0.1-1.4-1-2.1c-9-5.2-17.9-10.4-26.9-15.7c-1-0.6-1.6-1.4-1.6-2.7c0-3.9,0-7.7,0-11.6
					C360.6,122.4,360.6,122.2,360.8,122.2 M385.5,159.3c0.3,0,0.6,0.3,0.9,0.4c0.7,0.4,0.8,0.9,0.2,1.6c-0.2,0.3-0.4,0.7-0.7,0.7
					c-0.1,0-0.1,0-0.1,0c-0.6,0-0.7-0.9-1.4-1c-0.2-0.1-0.4-0.2-0.2-0.4c0.3-0.4,0.7-1,1.2-1.3C385.4,159.3,385.5,159.3,385.5,159.3
					 M381.7,162.7c0.5,0,1.1,0.2,1.6,0.6c1,0.9,1.2,2.4,0.3,3.4c-0.5,0.6-1.2,0.9-1.9,0.9c-0.5,0-1.1-0.2-1.6-0.6
					c-1-0.9-1.2-2.4-0.3-3.4C380.3,163,381,162.7,381.7,162.7 M379.5,169.9c0.1,0,0.4,0.1,0.6,0.3c2.5,2.2,5.1,4.4,7.7,6.6
					s5.2,4.5,7.8,6.7c0.4,0.4,0.5,0.7,0.1,1.1c-0.7,0.8-1.4,1.6-2.1,2.5c-0.2,0.3-0.4,0.4-0.6,0.4c-0.1,0-0.4-0.1-0.6-0.3
					c-4.4-3.8-8.8-7.5-13.1-11.3c-1.9-1.6-1.9-3.6-0.4-5.5C379.1,170.1,379.3,169.9,379.5,169.9 M400.5,183.4c0.5,0,1.1,0.3,1.5,0.8
					c0.4,0.5-0.2,0.7-0.4,1c-1.6,1.9-3.2,3.7-4.8,5.6c-1.7,1.9-3.3,3.9-5.1,5.8c-0.1,0.1-0.3,0.4-0.6,0.4c-0.1,0-0.1,0-0.2-0.1
					c-1.2-0.5-1.5-1.6-0.7-2.5c3-3.5,6.1-7.1,9.1-10.6c0.2-0.2,0.4-0.4,0.7-0.6C400.2,183.4,400.3,183.4,400.5,183.4 M360.8,120.8
					c-0.4,0-0.9,0.1-1.2,0.5c-0.5,0.5-0.5,1.3-0.5,1.6c0,1.9,0,3.8,0,5.8c-0.1-0.1-0.4-0.3-0.7-0.4l-0.2-0.1c-0.1,0-0.2-0.1-0.4-0.1
					c-0.5,0-1,0.3-1.3,0.7l-0.7,1.2l-2.5,4.2l-0.2,0.3c-0.1,0.3-0.4,0.6-0.5,0.9c-0.9,1.6-0.5,3,1,4c3.1,1.9,6.2,3.6,9.8,5.7
					c6.7,3.9,13.4,7.8,20.2,11.7l1.3,0.8c-0.1,0.1-0.3,0.1-0.4,0.1c-0.8,0.4-1.3,1.1-1.6,1.6l-0.1,0.1c-0.3,0.5-0.4,1.1-0.2,1.6
					c-0.3-0.1-0.7-0.1-1-0.1l0,0c-1.1,0-2.2,0.5-3,1.4c-0.7,0.8-1,1.8-0.9,2.8c0.1,1,0.6,1.9,1.4,2.7c0.1,0.1,0.3,0.2,0.4,0.3
					c0,0-0.1,0-0.1,0c-1,0-1.6,0.7-1.8,1c-2.1,2.5-1.9,5.5,0.5,7.6c2.1,1.8,4.2,3.6,6.2,5.4c2.3,2,4.6,3.9,6.9,5.9
					c0.2,0.1,0.7,0.7,1.6,0.7c0.1,0,0.1,0,0.1,0c-1.3,1.6-2.7,3.1-4,4.7c-0.7,0.8-1,1.8-0.7,2.7c0.2,1,0.9,1.7,1.9,2.2
					c0.3,0.1,0.5,0.1,0.8,0.1c1,0,1.5-0.7,1.6-0.9l0.1-0.1c1.3-1.5,2.6-3,3.9-4.5l1.2-1.3l1.2-1.3c1.2-1.4,2.5-2.8,3.6-4.2
					c0,0,0-0.1,0.1-0.1c1.3-1.2,0.8-2.4,0.5-2.8c-0.6-1-1.6-1.6-2.7-1.6c-0.4,0-0.7,0.1-1,0.2c-0.6,0.2-1,0.7-1.3,1l-0.8,0.9
					c-0.1-0.9-0.7-1.4-0.9-1.6c-1.9-1.6-3.9-3.3-5.9-5l-1.9-1.7c-0.7-0.6-1.3-1.2-2-1.8c-1.9-1.6-3.7-3.2-5.6-4.8
					c0-0.1-0.1-0.1-0.1-0.1c0.3,0.1,0.5,0.1,0.7,0.1c1.1,0,2.2-0.5,3-1.4c0.7-0.8,1-1.8,1-2.8c0-0.4-0.1-1-0.4-1.3
					c0.1,0.1,0.3,0.1,0.5,0.1c0.1,0,0.3,0,0.5-0.1c0.7-0.1,1.2-0.7,1.4-1.1c0-0.1,0.1-0.1,0.1-0.1c0.6-0.6,1.1-1.2,1-2.1
					c0-0.1,0-0.1-0.1-0.2l0.9,0.5l0.5,0.3c0.5,0.3,1,0.6,1.6,0.9c0.4,0.2,0.8,0.3,1.3,0.3c1.6,0,3-1.3,3.1-2.8c0-0.1,0-0.4-0.1-0.7
					c0.4,0.2,0.7,0.4,1.1,0.7c0.6,0.3,1.1,0.5,1.6,0.5c0.7,0,1.6-0.3,2.4-1.6c1.5-2.5,3-5.1,4.8-8.1c0.4-0.7,1.2-2.7-1.3-4.2
					c-1.9-1.1-3.9-2.2-5.8-3.4l-11.5-6.7l-16.5-9.3l-1-0.6c-2.6-1.5-5.2-3-7.7-4.5C361.7,121,361.2,120.8,360.8,120.8L360.8,120.8
					L360.8,120.8z"/>
				<path class="st24" d="M414.5,157.1c3.9-4.7,3.8-12.3-0.3-17c-0.4-0.5-1-1-1.5-1.5c-0.6-0.4-1.2-0.4-1.6,0
					c-0.4,0.4-0.5,1.1,0,1.7c0.4,0.6,1,1,1.5,1.6c3.1,4,3.2,9.4,0.1,13.5c-0.1,0.1-0.3,0.4-0.4,0.6c-0.4,0.7-0.3,1.3,0.2,1.7
					c0.5,0.4,1.2,0.3,1.7-0.2C414.3,157.4,414.5,157.3,414.5,157.1L414.5,157.1z"/>
				<path class="st24" d="M410.7,154.1c2.7-3.2,2.3-8.6-0.8-11.5c-0.7-0.7-1.5-0.8-2-0.2c-0.6,0.5-0.4,1.3,0.3,2.1
					c1.7,1.6,2.5,4.5,1.2,7.1c-0.1,0.4-0.4,0.7-0.7,1c-0.5,0.8-0.5,1.6,0.1,1.9C409.4,155,410.1,154.8,410.7,154.1L410.7,154.1z"/>
			</g>
		</g>
		<g>
			<path class="st21" d="M234.6,111.4c0.7,0.1,4.5,0,5.2,0v-1.3c0-17.9,0-35.8,0-53.7c0-3.6,1.8-6.2,5-7.1c0.8-0.2,1.7-0.3,2.5-0.3
				c28.6,0,57.1,0,85.7,0c4.8,0,7.6,2.8,7.6,7.6c0,17.8,0,35.6,0,53.5v1.4c0.8,0,4.7,0,5.5,0"/>
			<path class="st21" d="M280,111.4c-0.1,2.2,0,2.5,1.9,2.5c4.1,0,8.1,0,12.2,0c2,0,2.3-0.4,1.8-2.5H280z"/>
			<path class="st21" d="M290.2,107.8c-13.4,0-26.8,0-40.1,0c-1.9,0-3.4-1-3.4-3.3c0.1-15.3,0.1-30.6,0-46c0-2.4,1.5-3.3,3.4-3.3
				c26.8,0.1,53.5,0.1,80.2,0c1.9,0,3.4,1,3.4,3.3c-0.1,15.3-0.1,30.6,0,46c0,2.3-1.5,3.3-3.4,3.3
				C317,107.7,303.6,107.7,290.2,107.8L290.2,107.8z"/>
			<path class="st21" d="M234.6,111.4h111.5v0.5c0,2.4-1.9,4.3-4.3,4.3H239c-2.4,0-4.3-1.9-4.3-4.3L234.6,111.4L234.6,111.4z"/>
		</g>
		<path class="st21" d="M453.1,137.9c-0.4-0.4-0.7-0.8-1.2-1.2c-8.3-8.6-19-14-30.7-15.7c1.3-4.1,2-8.4,2-12.6
			c0-22.5-18.4-40.9-41-40.9c-2.5,0-5.1,0.2-7.5,0.7c-3.3-9.9-8.1-19-14.1-27.1c-18.1-24.5-47.2-39.9-79-39.9S221,16.1,202.7,41
			c-2.3,3.1-4.5,6.5-6.4,9.9c-1-0.1-2-0.2-3-0.2c-9.1,0-16.7,6.5-18.4,15.2c-32.3,6.1-56.5,33.8-58.3,66.6
			c-19.9,0.5-36.8,13.2-43.7,30.7c-2.1,5.4-3.3,11.3-3.3,17.4c0,26.5,21.6,48.2,48.3,48.2h130.9l15.9,27.6l16-27.6h132.4
			c30,0,54.3-24.3,54.3-54.2C467.5,160.9,462.4,148,453.1,137.9z"/>
	</g>
</g>
</svg>
