<?xml version="1.0" encoding="UTF-8"?>
<svg id="katman_1" data-name="katman 1" xmlns="http://www.w3.org/2000/svg" xmlns:xlink="http://www.w3.org/1999/xlink" viewBox="0 0 1410.86 265.72">
  <defs>
    <style>
      .cls-1 {
        clip-path: url(#clippath);
      }

      .cls-2 {
        fill: none;
      }

      .cls-2, .cls-3, .cls-4, .cls-5, .cls-6, .cls-7, .cls-8, .cls-9, .cls-10, .cls-11, .cls-12, .cls-13, .cls-14, .cls-15, .cls-16, .cls-17 {
        stroke-width: 0px;
      }

      .cls-3 {
        fill: #1b1464;
        opacity: .18;
      }

      .cls-18 {
        clip-path: url(#clippath-1);
      }

      .cls-19 {
        clip-path: url(#clippath-4);
      }

      .cls-20 {
        clip-path: url(#clippath-3);
      }

      .cls-21 {
        clip-path: url(#clippath-2);
      }

      .cls-22 {
        clip-path: url(#clippath-6);
      }

      .cls-23 {
        clip-path: url(#clippath-5);
      }

      .cls-24 {
        opacity: .21;
      }

      .cls-25 {
        isolation: isolate;
      }

      .cls-4 {
        fill: #f9f9fd;
      }

      .cls-5 {
        fill: #f9fbfe;
      }

      .cls-6 {
        fill: #4e4d4d;
      }

      .cls-7 {
        fill: #575756;
      }

      .cls-8 {
        fill: #2f314c;
      }

      .cls-9 {
        fill: #ddeaf1;
      }

      .cls-10 {
        fill: #e10a1a;
      }

      .cls-11 {
        fill: #c59b6c;
      }

      .cls-12 {
        fill: #d6dde1;
      }

      .cls-13 {
        fill: #bde5ef;
      }

      .cls-14 {
        fill: #a5c7d3;
      }

      .cls-15 {
        fill: #989898;
      }

      .cls-16 {
        fill: #fff8f5;
      }

      .cls-17 {
        fill: #010101;
      }
    </style>
    <clipPath id="clippath">
      <polygon class="cls-2" points="404.35 49.38 491.18 26.57 814.56 20.92 727.73 43.74 404.35 49.38"/>
    </clipPath>
    <clipPath id="clippath-1">
      <polygon class="cls-2" points="7.31 255.85 0 78.77 855.88 68.8 859.28 265.72 7.31 255.85"/>
    </clipPath>
    <clipPath id="clippath-2">
      <path class="cls-2" d="m326.28,153.74l39.98-.07c1.56,0,2.87,1.46,2.92,3,0,0,1.07,34.6,1.07,34.6.19,3.67-4.53,2.97-6.87,2.97.53,3.13-1.12,5.06-4.33,4.57.23,2.08.21,5.41-2.64,5.44,0,0-17.17-.08-17.17-.08-2.8-.05-3.08-3.32-2.97-5.45-3.18.46-4.9-1.47-4.58-4.58-2.4-.03-6.96.63-7-3,0,0-1.11-34.4-1.11-34.4-.06-1.5,1.16-2.98,2.7-2.99"/>
    </clipPath>
    <clipPath id="clippath-3">
      <path class="cls-2" d="m420.93,153.58s40.95-.07,40.95-.07c1.58,0,2.94,1.47,2.98,3.03,0,0,.99,35.01.99,35.01.17,3.73-4.68,3-7.05,3.01.53,3.21-1.2,5.12-4.45,4.62.23,2.12.18,5.49-2.72,5.5,0,0-17.57-.08-17.57-.08-2.86-.04-3.16-3.34-3.03-5.51-3.22.47-5.02-1.46-4.68-4.64-2.43-.04-7.12.66-7.15-3.04,0,0-1.03-34.81-1.03-34.81-.06-1.53,1.21-3.02,2.77-3.02"/>
    </clipPath>
    <clipPath id="clippath-4">
      <path class="cls-2" d="m517.87,153.41l41.95-.07c1.61,0,3,1.48,3.04,3.07,0,0,.91,35.44.91,35.44.15,3.8-4.82,3.03-7.23,3.04.54,3.28-1.28,5.17-4.57,4.68.24,2.17.15,5.56-2.8,5.57,0,0-18-.08-18-.08-2.9-.03-3.22-3.37-3.08-5.58-3.27.47-5.15-1.44-4.79-4.69-2.47-.05-7.28.69-7.32-3.07,0,0-.95-35.23-.95-35.23-.05-1.56,1.26-3.06,2.85-3.06"/>
    </clipPath>
    <clipPath id="clippath-5">
      <path class="cls-2" d="m617.18,153.24s42.97-.07,42.97-.07c1.63,0,3.07,1.48,3.11,3.11,0,0,.82,35.87.82,35.87.13,3.86-4.96,3.06-7.42,3.08.55,3.35-1.36,5.23-4.69,4.73.25,2.21.11,5.64-2.89,5.64,0,0-18.45-.08-18.45-.08-2.95-.03-3.3-3.39-3.14-5.65-3.31.47-5.28-1.42-4.89-4.75-2.51-.06-7.44.72-7.48-3.11,0,0-.86-35.66-.86-35.66-.05-1.6,1.31-3.1,2.93-3.1"/>
    </clipPath>
    <clipPath id="clippath-6">
      <path class="cls-2" d="m718.93,153.06l44.04-.08c1.66,0,3.14,1.49,3.17,3.14,0,0,.72,36.32.72,36.32.11,3.94-5.11,3.08-7.61,3.12.56,3.43-1.44,5.29-4.82,4.79.26,2.26.07,5.71-2.98,5.71,0,0-18.91-.09-18.91-.09-3-.02-3.38-3.42-3.2-5.72-3.36.47-5.39-1.4-4.99-4.81-2.55-.07-7.62.76-7.66-3.15,0,0-.77-36.1-.77-36.1-.04-1.63,1.37-3.14,3.01-3.14"/>
    </clipPath>
  </defs>
  <polygon class="cls-3" points="830.91 261.12 1410.86 141.58 1002.57 150.32 830.91 261.12"/>
  <g>
    <path class="cls-4" d="m19.43,78.63C283.03,6.43,951.31-1.81,1228.42,1.11l-384.37,72.83L19.43,78.63Z"/>
    <g class="cls-25">
      <g class="cls-1">
        <g>
          <path class="cls-10" d="m508.11,38.2c-1.23.03-8.74.4-7.32,1.24-.43.48-2.85.73-3.87,1.14-1.35,1.15,7.41-.61,8.31-1.07,2.61-.27,9.1-1.24,2.88-1.31"/>
          <path class="cls-10" d="m528.63,32.75c-8.68.13-14.59,1.47-21.76,3.55l18.1-.32c3.56-1.05,15.89-3.32,3.66-3.23"/>
          <path class="cls-10" d="m474.24,42.6c-4.89.09-6.63-.45-3.84-1.19,8.06-1.94,12.97-4.06,22.02-4.68,4.61,0,8.67-1.04,12.99-2.29,3.14-2.14,61.66-6.23,28.71,1.39,14.07-.18-6.13,3.5-9.15,4.63-8.39,2.33-41.23,1.67-50.73,2.14m82.48-17.17c-28.24,2.45-56.35,3.11-83.46,5.85-6.05,2.07-46.09,9.73-28.33,14.41,27.9,5.17,35.02,1.72,74.29-1.3,27.37-2.62,59.24-7.7,85.1-15.4,1.64-.43,1.15-.78-1.2-.84-18.03-.34-32.87-1.8-46.41-2.72"/>
          <path class="cls-7" d="m611.94,38.57c-3.75-.44-17.4,1.93-21.3,2.52l1.62-2.17-5.56.1-.31.08c6.24-.38-5.78,1.99-6.15,2.3-1.68.53-2.99.33-4.72.56l6.83-.12.31-.08c-.83-.02-3.39.16-1.15-.38,0,0,7.47-1.96,7.47-1.96l-1.82,2.34h.48s16.97-2.61,16.97-2.61c-3.14.82-8.98,2.6-12.18,2.52l8.33-.15.31-.08c-6.63.48,5.69-1.96,6.16-2.3,1.68-.53,2.98-.33,4.71-.56"/>
          <path class="cls-7" d="m621.71,38.4l-8.41.15-.31.08c.75-.01,3.29-.11,1.13.39-3.12.82-8.82,2.54-12,2.47l8.41-.15.31-.08c-6.4.4,5.48-1.92,6.06-2.29,1.73-.54,3.05-.34,4.81-.57m-1.31-.69c-.65.08-2.46,0-2.65.42.6.26,5.16-.33,2.65-.42"/>
          <path class="cls-7" d="m643.41,38.02l-6.83.12-.31.08c6.18-.39-4.7,1.72-5.3,2.07l-3.6-1.99-5.33.09-.31.08c1.18.03,1.81-.12,2.7.24-3.17.82-9.26,2.68-12.49,2.6l6.83-.12.31-.08c-6.38.42,5.19-1.84,5.73-2.19.3.13,4.2,2.48,4.45,2.13,3.28-.82,10.82-3.15,14.14-3.03"/>
          <path class="cls-7" d="m652.98,37.85l-8.4.15-.31.08c6.35-.39-5.52,1.93-6.09,2.29-1.74.54-3.02.34-4.78.57l8.4-.15.31-.08c-6.39.39,5.49-1.92,6.06-2.29,1.74-.54,3.05-.34,4.81-.57m-1.3-.69c-.66.08-2.47,0-2.65.42.59.26,5.16-.33,2.65-.42"/>
          <path class="cls-7" d="m677.72,37.42c-2.13.13-17.28-.09-18.87.97,2.81-.43,5.73-.66,8.7-.62-3.23.82-9.98,2.9-13.26,2.8l8.32-.15.31-.08c-.82-.02-3.38.16-1.13-.38,0,0,8.53-2.24,8.53-2.24.56.06,6.48-.37,4.43.39.37.12,2.57-.6,2.96-.7"/>
          <path class="cls-7" d="m699.68,37.04l-6.87.12-.31.08c8.29-.33-15.01,4.13-16.73,2.58,3.19-1.43,7.98-2.41,11.53-2.57l-8.47.15-.31.08c5.22-.28-2.2,1.16-3.19,1.54-7.87,2.11,10.36.98,11.83.49,3.81-.58,8.38-2.57,12.29-2.39h-.09s.31-.08.31-.08m-9.31-.55c-.65.07-2.48.01-2.64.42.57.26,5.14-.33,2.64-.42m5.1-.09c-.64.07-2.5.01-2.64.42.58.26,5.11-.32,2.64-.42"/>
          <path class="cls-7" d="m721.06,36.66l-6.83.12-.31.08c6.17-.38-4.7,1.72-5.29,2.07l-3.62-1.99-5.33.09-.31.08c1.12.02,1.86-.12,2.7.24-3.16.82-9.26,2.68-12.48,2.6l6.83-.12.31-.08c-6.37.42,5.2-1.84,5.74-2.19.29.12,4.21,2.47,4.45,2.13,3.29-.82,10.82-3.15,14.14-3.03"/>
          <path class="cls-7" d="m737.2,36.38c-.3.08-15.16.13-15.42.34,6.66-.47-5.57,1.94-6.09,2.29-1.68.54-3.14.34-4.78.57,3.38-.09,16.58,0,19.61-1.03-4.33.48-8.67.93-12.95.68.3-.15,4.01-1.06,4.47-1.2.45.09,8.27-.45,5.73.31.18.17,4.13-.97,4.43-1.03-2.7.48-6.63.56-9.56.57l4.42-1.16c.61.14,9.51-.57,7.36.32.38.11,2.4-.55,2.79-.65"/>
          <path class="cls-7" d="m749.06,36.17l-8.88.16-.31.08c6.55-.44-5.55,1.94-6.06,2.28-1.73.54-3.06.34-4.81.57,3.52-.09,16.74,0,19.91-1.09-4.19.53-8.87.96-13.03.71,3.7-1.12,9.26-2.72,13.18-2.71"/>
          <path class="cls-10" d="m699.35,29.37c-.61.06-12.46.07-12.6.39-.03.25,1.85-.11,2.1.15-2.91.7-10.06,3.05-13.05,3.04-8.31.58,17.88-.12,17.12-.05.31,0,.69-.04.89-.09-.07-.1,8.08-1.54,4.56-1.31-4.31.67-9.38,1.43-13.75,1.13,1.59-.49,9.1-2.44,10.72-2.82.58-.16,5.07-.15,4.01-.43m10.31,2.96c-8.27-.19,11.73-3.98,13.7-2.99.63,1.5-11.44,3.05-13.7,2.99m12.33-3.4c-5.63.48-16.85.27-20.49,3.26,3.42,2.49,43.53-3.12,20.49-3.26m36.52-.67c-9.45.56-22.27-.34-30.86,3.14,3.05,1.94,17.81.61,22.02-.65.5-.13,4.37-.2,3.35-.43-.72.07-11.26.04-11.6.37-.24.24,3.25-.15,1.08.38-2.08,1.04-13.54,1.33-5.92-.63,3.32-.76,14.81-3.08,16.04-.77,1.13.17,5.02-1.09,6.13-1.33.18-.05.08-.08-.25-.08"/>
          <path class="cls-10" d="m693.28,27.48c-12.92.74-56.18,7.27-69.15,8.32l15.23-.27s1.86-.29-1.68-.41c-.15,0-.29,0-.43-.01l22.47-2.88,2.21,2.47c-5.15.27-5.38.53-5.38.53-.33-.15,18.87.04,15.36-.59-2.71.32-3.52-2-5.03-3.33l29.07-3.72s-.7-.15-2.68-.11m-32.4.51c-2.21.04-4.7.3-4.7.3l2.69,3,7.12-.92c-1.52-1.71-2.08-2.67-5.11-2.38"/>
          <path class="cls-7" d="m688.73,33.42c-.8.06-4.94,0-6.01.16.92,0,1.01,0,.17.18-1.67.34-4.42,1-6.16,1.07.25-.03,3.6,0,3.75-.12-2.42.09,1.05-.4,1.41-.54.21.03,3.18-.17,1.86.12.23.06,2.12-.37,2.39-.42-1.24.14-2.58.24-3.86.22.57-.09,2.37-.56,2.93-.53.25.04,3-.2,1.73.18.54.02,1.29-.24,1.78-.32"/>
          <path class="cls-7" d="m691.62,33.74c-.78.08-1.59.04-2.39.16,1.62,0-3.31.79-3.83.78.09,0,3.08-.03,3.03-.1-1.75.04,2.72-.68,3.19-.84m1.43-.4c-.23-.02-2,.18-1.05.22.26.02,2-.19,1.05-.22"/>
          <path class="cls-7" d="m697.18,33.64c-.89.08-1.62.04-2.4.16,1.61-.02-3.27.79-3.83.78.15-.01,3.08-.02,3.15-.11-.89,0-.93,0-.29-.14,1.67-.49,3.71-.49,5.19-.64.05-.27-2.03.1-2.88.16.32-.07.74-.15,1.06-.22"/>
          <path class="cls-7" d="m701.57,33.86c.95-.16,1.93-.26,2.49-.27.71-.01.68.08.15.18-.85.1-1.81.05-2.64.09m3.17-.35c-.64-.11-8.45.78-4.69.93.41,0,1.45-.06,3.01-.23l.02-.04c-.76.1-4.27.3-1.98-.22,2.05-.07,3.09-.01,4.06-.16.76-.16.67-.3-.42-.28"/>
          <path class="cls-7" d="m717.94,33.3c-.17.01-2.5.01-2.59.1,1.85-.01-2.61.5-3,.6.52-.21,1.05-.41,1.59-.61-1.66.13-3.29.47-4.88.67,1.02-.38,1.46-.54,2.81-.64-.11,0-2.87.02-2.86.1,1.34-.03-1.3.61-1.68.8,1.66-.12,3.46-.49,4.9-.66-.5.2-.98.4-1.51.6,2.85-.28,4.89-.77,7.22-.95"/>
          <path class="cls-7" d="m718.8,34c-1.25-.16,2.31-.38,2.87-.4-.87.2-2.03.42-2.87.4m4.16-.81c-.74.06-3.71.17-3.13.34.46-.04,3.84-.5,2.37-.04-.99.17-3.69.17-4.78.42-1.26.4,1.74.14,2.46.07-.11.03-.18.06-.13.08.29.07,1.76-.05,2.09-.14-2.63.15,4.15-.75,1.13-.73"/>
          <path class="cls-7" d="m732.62,32.53c-.57.06-1.66.03-2.42.15,1.99-.06-6.01,1.39-6.38,1.32l2.77-.05.27-.06c-.75,0-.78,0-.14-.14,1.03-.22,4.95-1.03,5.91-1.23"/>
          <path class="cls-7" d="m738.12,32.44c-.58.06-1.66.03-2.43.15,2.05-.07-6.03,1.39-6.38,1.32l2.77-.05.26-.06c-.75,0-.78,0-.15-.14,1.05-.22,4.93-1.03,5.92-1.23"/>
        </g>
      </g>
    </g>
    <path class="cls-9" d="m1228.42,165.36l-390.8,95.76,6.44-187.18S1228.42,1.11,1228.42,1.11c21.78-5.11,40.6,6.99,42.6,44.47,1.79,33.53,14.66,98.68-42.6,119.78Z"/>
    <g class="cls-25">
      <g class="cls-18">
        <g>
          <path class="cls-12" d="m1.18,107.37s4.96,120.13,4.96,120.13c.4,14.44,11.87,28.48,26.77,28.65,16.01-2.38,791.81,13.99,807.06,6.87,18.51-7.58,19.99-26.13,18.51-43.76.32,12.48-7.31,24.14-18.74,28.87-3.72,1.56-7.82,2.4-12.13,2.36-12.53-2.4-794.13-3.48-805.45-10.13-9.84-4.69-16.15-15.22-16.56-26.14,0,0-4.41-106.85-4.41-106.85"/>
          <path class="cls-5" d="m246.54,214.83c-13.98.08-15.36-23.43-.81-23.59,14-.11,15.39,23.48.81,23.59m-40.31-.07c-14.03.06-15.46-23.63-.85-23.82,14.07-.1,15.52,23.68.85,23.82m-40.18-3.68c-13.69.05-15.13-23.15-.86-23.35,13.72-.09,15.17,23.19.86,23.35m150.09-.56c-2.79,0-5.02-2.55-5.08-5.27,0,0-1.79-54.82-1.79-54.82-.15-2.71,1.98-5.3,4.74-5.28,1.77.95,68.43-2.21,67.9,1.4,3.14-.74,2.45,57.51,3.25,59.05.16,2.77-1.99,5.34-4.83,5.26,0,0-64.19-.35-64.19-.35m94.25.51c-2.84,0-5.13-2.56-5.18-5.33,0,0-1.67-55.47-1.67-55.47-.14-2.77,2.06-5.36,4.87-5.34,3.05,1.24,68.43-2.64,69.52,1.41,2.96.72,2.98,59.69,2.81,61.88.99,6.9-67.51,1.36-70.35,2.85m96.5.52c-2.88.01-5.24-2.57-5.29-5.39,0,0-1.53-56.14-1.53-56.14-.14-2.83,2.15-5.43,5.01-5.41,2.33,1.25,71.3-2.66,71.21,1.43,3.04.72,2.86,60.42,2.69,62.63,1,6.99-69.18,1.37-72.07,2.88m98.85.54c-2.92.02-5.36-2.58-5.41-5.46,0,0-1.39-56.82-1.39-56.82-.13-2.88,2.25-5.5,5.15-5.47,2.67,1.24,72.3-2.64,72.96,1.45,3.1.73,2.74,61.17,2.55,63.4,1.01,7.07-70.91,1.38-73.86,2.92m101.28.55c-2.97.02-5.49-2.59-5.52-5.53,0,0-1.25-57.52-1.25-57.52-.12-2.94,2.35-5.57,5.29-5.54,3.06,1.32,73.77-2.75,74.78,1.46,3.19.73,2.61,61.93,2.41,64.18,1.01,7.15-72.72,1.4-75.71,2.95m-610.94,1.45c-6.89-.03-12.24-6.44-12.4-13.14.09-2.32-2.78-51.56-1.08-51.86,1.56-4.56,5.74-8.1,10.65-8.09,2.95.28,39.86-1.07,41.45.88,4.68,2.11,7.7,7.01,7.86,12.18-.09,2.29,2.7,52,1.01,52.24-1.57,4.62-5.83,8.09-10.8,8.01,0,0-36.69-.22-36.69-.22M824.31,69.17S25.7,78.47,25.7,78.47c-14.87.06-25.43,14.61-24.52,28.9,3.08,15.91-2.05,116.55,12.64,126.85,4.82,5.2,11.41,8.48,18.54,8.47,15.82-2.57,792.24,12.72,807.34,5.45,11.46-4.74,19.09-16.39,18.77-28.88,0,0-2.05-118.64-2.05-118.64-.07-17.12-15.03-31.69-32.12-31.45"/>
          <path class="cls-6" d="m245.73,191.24c-14.54.16-13.16,23.67.81,23.59,14.58-.12,13.19-23.7-.81-23.59"/>
          <path class="cls-6" d="m205.38,190.95c-14.61.19-13.18,23.88.85,23.82,14.67-.14,13.22-23.92-.85-23.82"/>
          <path class="cls-6" d="m165.19,187.73c-14.28.21-12.84,23.41.86,23.35,14.31-.17,12.86-23.44-.86-23.35"/>
          <path class="cls-6" d="m113.98,203.81c-30.72-.34-34.05-51.56-2.01-52.61,30.9.15,34.26,51.76,2.01,52.61m16.02-62.93l-36.75.13c-4.92,0-9.1,3.53-10.65,8.09-1.73.09,1.25,49.73,1.08,51.86.18,5.11,3.15,9.97,7.77,12.1,1.35,1.95,38.59.92,41.33,1.27,4.98.07,9.24-3.39,10.8-8.01,1.71-.03-1.19-50.14-1.01-52.24-.15-6.77-5.6-13.23-12.56-13.19"/>
          <path class="cls-15" d="m358.75,153.69c2.62.46,10.47-1.67,10.43,2.98,0,0,1.07,34.6,1.07,34.6.19,3.67-4.53,2.97-6.87,2.97.53,3.13-1.12,5.06-4.33,4.57.23,2.08.21,5.41-2.64,5.44,0,0-17.17-.08-17.17-.08-2.8-.05-3.08-3.32-2.97-5.45-3.18.46-4.9-1.47-4.58-4.58-2.39-.04-6.97.64-7-3,0,0-1.11-34.4-1.11-34.4-.06-1.5,1.16-2.98,2.7-2.99,10.41-.01,22.09-.04,32.47-.06m19.56-8.71c-2.97,1.51-69.53-3.4-68.7,3.38-.27,2.21.22,59.77,2.99,60.58-1.2,3.69,66.37.94,67.74,1.94,2.84.07,5-2.49,4.83-5.26,0,0-1.69-55.34-1.69-55.34-.05-2.76-2.33-5.33-5.16-5.3"/>
          <path class="cls-17" d="m366.26,153.68h-7.51s.41,13.24.41,13.24c.05.97-.71,1.9-1.71,1.89-1.01,0-1.82-.9-1.84-1.89,0,0-.42-13.22-.42-13.22h-6.22s.42,13.22.42,13.22c.05.97-.71,1.9-1.71,1.89-1,0-1.82-.9-1.83-1.89,0,0-.42-13.21-.42-13.21h-6.2s.42,13.21.42,13.21c.05.97-.71,1.9-1.7,1.88-1,0-1.81-.9-1.83-1.88,0,0-.42-13.19-.42-13.19-2.55.67-12.52-2.01-12.12,3,0,0,1.11,34.4,1.11,34.4.03,3.6,4.61,3.01,7,3-.32,3.12,1.41,5.05,4.58,4.58-.1,2.13.16,5.4,2.97,5.45,0,0,17.17.08,17.17.08,2.84-.03,2.88-3.36,2.64-5.44,3.21.49,4.86-1.44,4.33-4.57,2.34-.03,7.05.73,6.87-2.97,0,0-1.07-34.6-1.07-34.6-.04-1.53-1.36-2.99-2.92-3"/>
          <g class="cls-21">
            <path class="cls-11" d="m358.75,153.69h-3.55s.42,13.23.42,13.23c.02.99.83,1.9,1.84,1.89,1,.01,1.76-.92,1.71-1.89,0,0-.41-13.23-.41-13.23"/>
            <path class="cls-11" d="m348.98,153.71h-3.54s.42,13.21.42,13.21c.02.98.83,1.89,1.83,1.89,1,.01,1.76-.92,1.71-1.89,0,0-.42-13.21-.42-13.21"/>
            <path class="cls-11" d="m339.24,153.72h-3.53s.42,13.2.42,13.2c.02.98.83,1.89,1.83,1.88.99.01,1.75-.92,1.7-1.88,0,0-.42-13.2-.42-13.2"/>
          </g>
          <path class="cls-15" d="m454.18,153.52c2.66.48,10.71-1.7,10.68,3.02,0,0,.99,35.01.99,35.01.17,3.73-4.68,3-7.05,3.01.53,3.21-1.2,5.12-4.45,4.62.23,2.12.18,5.49-2.72,5.5,0,0-17.57-.08-17.57-.08-2.86-.04-3.16-3.34-3.03-5.51-3.22.47-5.02-1.46-4.68-4.64-2.42-.05-7.13.67-7.15-3.04,0,0-1.03-34.81-1.03-34.81-.06-1.53,1.21-3.02,2.77-3.02,10.66-.01,22.62-.04,33.25-.06m20.05-8.81c-3.02,1.53-71.19-3.44-70.36,3.42-.28,2.23.04,60.48,2.87,61.3.95.99,2.23,1.6,3.63,1.61,0,0,65.72.36,65.72.36,2.88.08,5.12-2.49,4.96-5.32,0,0-1.56-56-1.56-56-.05-2.81-2.39-5.4-5.27-5.37"/>
          <path class="cls-17" d="m461.88,153.51h-7.7s.38,13.4.38,13.4c.05.99-.75,1.93-1.76,1.91-1.02,0-1.85-.91-1.87-1.91,0,0-.38-13.38-.38-13.38h-6.37s.39,13.38.39,13.38c.05.99-.74,1.92-1.75,1.91-1.02,0-1.85-.91-1.86-1.91,0,0-.39-13.37-.39-13.37h-6.36s.39,13.37.39,13.37c.05.99-.74,1.92-1.75,1.91-1.02,0-1.84-.91-1.86-1.91,0,0-.39-13.35-.39-13.35-2.6.69-12.8-2.04-12.43,3.04,0,0,1.03,34.81,1.03,34.81.03,3.66,4.73,3.03,7.15,3.04-.34,3.18,1.47,5.1,4.68,4.64-.12,2.18.17,5.47,3.03,5.51,0,0,17.57.08,17.57.08,2.89-.02,2.97-3.39,2.72-5.5,3.26.5,4.98-1.42,4.45-4.62,2.38-.04,7.21.76,7.05-3.01,0,0-.99-35.01-.99-35.01-.04-1.56-1.39-3.02-2.98-3.03"/>
          <g class="cls-20">
            <path class="cls-11" d="m454.18,153.52h-3.63s.38,13.39.38,13.39c.01,1,.85,1.92,1.87,1.91,1.01.01,1.81-.92,1.76-1.91,0,0-.38-13.39-.38-13.39"/>
            <path class="cls-11" d="m444.18,153.54h-3.62s.39,13.37.39,13.37c.01,1,.85,1.92,1.86,1.91,1.01.01,1.8-.92,1.75-1.91,0,0-.39-13.37-.39-13.37"/>
            <path class="cls-11" d="m434.2,153.56h-3.61s.39,13.35.39,13.35c.02,1,.84,1.91,1.86,1.91,1.01.01,1.8-.92,1.75-1.91,0,0-.39-13.35-.39-13.35"/>
          </g>
          <path class="cls-15" d="m551.92,153.35c2.7.5,10.96-1.75,10.93,3.05,0,0,.91,35.44.91,35.44.15,3.8-4.82,3.03-7.23,3.04.54,3.28-1.28,5.17-4.57,4.68.24,2.17.15,5.56-2.8,5.57,0,0-18-.08-18-.08-2.9-.03-3.22-3.37-3.08-5.58-3.27.47-5.15-1.44-4.79-4.69-2.46-.06-7.29.7-7.32-3.07,0,0-.95-35.23-.95-35.23-.05-1.56,1.26-3.06,2.85-3.06,10.92-.01,23.17-.04,34.06-.06m20.57-8.92c-3.07,1.54-72.92-3.47-72.08,3.46-.29,2.25-.15,61.21,2.76,62.04.22,4.17,68.46.7,71.03,2,2.93.08,5.25-2.5,5.1-5.39,0,0-1.42-56.68-1.42-56.68-.04-2.86-2.46-5.47-5.38-5.43"/>
          <path class="cls-17" d="m559.81,153.34h-7.89s.35,13.56.35,13.56c.05,1.01-.78,1.95-1.81,1.93-1.04,0-1.89-.91-1.91-1.93,0,0-.35-13.54-.35-13.54h-6.53s.35,13.54.35,13.54c.05,1.01-.77,1.95-1.8,1.93-1.03,0-1.89-.91-1.9-1.93,0,0-.36-13.53-.36-13.53h-6.51s.36,13.53.36,13.53c.05,1.01-.77,1.94-1.8,1.93-1.03,0-1.89-.91-1.9-1.93,0,0-.36-13.51-.36-13.51-2.69.61-13.04-1.98-12.74,3.08,0,0,.95,35.23.95,35.23.03,3.73,4.86,3.06,7.32,3.07-.36,3.26,1.53,5.16,4.79,4.69-.13,2.21.16,5.55,3.08,5.58,0,0,18,.08,18,.08,2.94,0,3.06-3.41,2.8-5.57,3.3.5,5.11-1.4,4.57-4.68,2.42-.05,7.37.79,7.23-3.04,0,0-.91-35.44-.91-35.44-.04-1.59-1.43-3.06-3.04-3.07"/>
          <g class="cls-19">
            <path class="cls-11" d="m551.92,153.35h-3.72s.35,13.55.35,13.55c.01,1.02.87,1.94,1.91,1.93,1.03.02,1.85-.92,1.81-1.93,0,0-.35-13.55-.35-13.55"/>
            <path class="cls-11" d="m541.68,153.37h-3.71s.36,13.53.36,13.53c.01,1.02.87,1.94,1.9,1.93,1.03.02,1.85-.92,1.8-1.93,0,0-.35-13.53-.35-13.53"/>
            <path class="cls-11" d="m531.46,153.39h-3.7s.36,13.52.36,13.52c.01,1.02.87,1.94,1.9,1.93,1.03.01,1.84-.92,1.8-1.93,0,0-.36-13.52-.36-13.52"/>
          </g>
          <path class="cls-15" d="m652.07,153.18c2.74.51,11.2-1.79,11.18,3.09,0,0,.82,35.87.82,35.87.13,3.86-4.96,3.06-7.42,3.08.55,3.35-1.36,5.23-4.69,4.73.25,2.21.11,5.64-2.89,5.64,0,0-18.45-.08-18.45-.08-2.95-.03-3.3-3.39-3.14-5.65-3.31.47-5.28-1.42-4.89-4.75-2.49-.07-7.45.73-7.48-3.11,0,0-.86-35.66-.86-35.66-.05-1.6,1.31-3.1,2.93-3.1,11.19-.01,23.74-.05,34.9-.06m21.1-9.03c-3.12,1.56-74.71-3.51-73.86,3.51-.31,2.27-.35,61.96,2.63,62.79.78,4.04,70.06.85,72.77,2.03,2.98.09,5.39-2.5,5.24-5.46,0,0-1.28-57.37-1.28-57.37-.03-2.92-2.53-5.54-5.5-5.5"/>
          <path class="cls-17" d="m660.15,153.17h-8.07s.32,13.73.32,13.73c.04,1.04-.82,1.97-1.87,1.96-1.05.01-1.94-.92-1.95-1.96,0,0-.32-13.71-.32-13.71h-6.68s.32,13.71.32,13.71c.04,1.03-.82,1.97-1.86,1.96-1.05.01-1.93-.92-1.94-1.96,0,0-.32-13.69-.32-13.69h-6.67s.32,13.69.32,13.69c.04,1.03-.8,1.97-1.85,1.95-1.05.01-1.93-.91-1.94-1.95,0,0-.32-13.67-.32-13.67-2.74.62-13.34-2.02-13.06,3.11,0,0,.86,35.66.86,35.66.03,3.8,4.98,3.09,7.48,3.11-.39,3.33,1.58,5.22,4.89,4.75-.15,2.26.18,5.62,3.14,5.65,0,0,18.45.08,18.45.08,2.99,0,3.15-3.43,2.89-5.64,3.34.5,5.24-1.39,4.69-4.73,2.46-.06,7.54.82,7.42-3.08,0,0-.82-35.87-.82-35.87-.04-1.62-1.47-3.1-3.11-3.11"/>
          <g class="cls-23">
            <path class="cls-11" d="m652.07,153.18h-3.82s.32,13.72.32,13.72c0,1.04.9,1.97,1.95,1.96,1.05.02,1.91-.92,1.87-1.96,0,0-.32-13.72-.32-13.72"/>
            <path class="cls-11" d="m641.58,153.2h-3.81s.32,13.7.32,13.7c.01,1.04.89,1.97,1.94,1.96,1.04.02,1.9-.92,1.86-1.96,0,0-.32-13.7-.32-13.7"/>
            <path class="cls-11" d="m631.1,153.22h-3.79s.32,13.68.32,13.68c.01,1.04.89,1.96,1.94,1.95,1.04.02,1.89-.92,1.85-1.95,0,0-.32-13.68-.32-13.68"/>
          </g>
          <path class="cls-15" d="m754.69,153c2.79.53,11.47-1.83,11.45,3.13,0,0,.72,36.32.72,36.32.11,3.94-5.11,3.08-7.61,3.12.56,3.43-1.44,5.29-4.82,4.79.26,2.26.07,5.71-2.98,5.71,0,0-18.91-.09-18.91-.09-3-.02-3.38-3.42-3.2-5.72-3.36.47-5.39-1.4-4.99-4.81-2.53-.09-7.63.77-7.66-3.15,0,0-.77-36.1-.77-36.1-.04-1.63,1.37-3.14,3.01-3.14,11.47-.01,24.33-.05,35.76-.06m21.66-9.14c-3.17,1.57-76.58-3.54-75.72,3.55-.32,2.29-.55,62.73,2.49,63.57,3.56,4.53,69.89.57,74.58,2.06,3.03.09,5.53-2.5,5.39-5.52,0,0-1.13-58.09-1.13-58.09-.03-2.98-2.6-5.62-5.62-5.56"/>
          <path class="cls-17" d="m762.97,152.99h-8.28s.28,13.9.28,13.9c.04,1.06-.85,2-1.92,1.98-1.07.01-1.98-.92-1.99-1.98,0,0-.28-13.88-.28-13.88h-6.85s.28,13.88.28,13.88c.04,1.05-.84,2-1.91,1.98-1.07.01-1.99-.91-1.99-1.98,0,0-.29-13.86-.29-13.86h-6.83s.29,13.86.29,13.86c.04,1.06-.85,2-1.91,1.98-1.07.01-1.97-.92-1.98-1.98,0,0-.29-13.84-.29-13.84-2.79.63-13.64-2.05-13.39,3.15,0,0,.77,36.1.77,36.1.03,3.88,5.13,3.11,7.66,3.15-.41,3.41,1.63,5.28,4.99,4.81-.16,2.3.18,5.7,3.2,5.72,0,0,18.91.09,18.91.09,3.04,0,3.25-3.45,2.98-5.71,3.39.5,5.38-1.36,4.82-4.79,2.51-.07,7.71.85,7.61-3.12,0,0-.72-36.32-.72-36.32-.03-1.66-1.51-3.15-3.17-3.14"/>
          <g class="cls-22">
            <path class="cls-11" d="m754.69,153h-3.91s.28,13.89.28,13.89c0,1.06.92,1.99,1.99,1.98,1.07.02,1.96-.92,1.92-1.98,0,0-.28-13.89-.28-13.89"/>
            <path class="cls-11" d="m743.94,153.02h-3.9s.29,13.87.29,13.87c0,1.07.92,1.99,1.99,1.98,1.06.02,1.95-.92,1.91-1.98,0,0-.28-13.87-.28-13.87"/>
            <path class="cls-11" d="m733.2,153.04h-3.89s.29,13.85.29,13.85c0,1.06.92,1.99,1.98,1.98,1.06.02,1.95-.92,1.91-1.98,0,0-.29-13.85-.29-13.85"/>
          </g>
          <path class="cls-16" d="m113.26,185.21c-8.96.04-9.91-15.2-.59-15.37,8.98-.06,9.94,15.22.59,15.37m-1.3-34.01c-32.04,1.05-28.7,52.27,2.01,52.61,32.25-.85,28.89-52.46-2.01-52.61"/>
          <path class="cls-6" d="m112.68,169.84c-9.32.18-8.37,15.41.59,15.37,9.35-.15,8.39-15.43-.59-15.37"/>
        </g>
      </g>
    </g>
    <g>
      <g>
        <path class="cls-14" d="m1021.5,87.24c-1.32,2.27,3.13,102.43-2.64,100.84-7.18,4.89-1.48-98.17-3.21-99.11-.44-4.92,5.68-8.6,5.85-1.72Z"/>
        <path class="cls-14" d="m1036.4,84.23c-.99.91,2.64,103.83-2.66,99.93-7.21,4-1.46-96.76-3.21-98.21-.43-4.88,5.67-8.51,5.86-1.72Z"/>
        <path class="cls-14" d="m1051.31,81.27c-1.07,1.2,2.76,102.29-2.66,98.91-7.27,3.65-1.43-95.57-3.21-97.2-.42-4.82,5.68-8.42,5.86-1.71Z"/>
        <path class="cls-14" d="m1066.2,78.37c-1.13,1.48,2.86,100.65-2.66,97.77-7.12,5.17-1.52-95.33-3.21-96.07-.42-4.76,5.67-8.33,5.86-1.7Z"/>
        <path class="cls-14" d="m1081.11,75.55c-1.18,1.73,2.94,98.91-2.66,96.5-7.08,4.58-1.55-93.74-3.21-94.81-.42-4.73,5.66-8.25,5.86-1.69Z"/>
        <path class="cls-14" d="m1096,72.76c-1.24,2,3.02,97.09-2.66,95.13-7.11,4.55-1.53-92.34-3.21-93.45-.4-4.68,5.68-8.15,5.86-1.68Z"/>
        <path class="cls-14" d="m1110.91,70.02v88.86c.03,2.92-2.2,6.21-4.68,4.32-2.16-1.18-1.96-94.44,0-95.31h.01c1.85-2.88,4.93-.91,4.67,2.13Z"/>
        <path class="cls-14" d="m1125.8,67.34c-1.18,1.53,2.93,94.81-2.64,92.06-7.17,4.16-1.49-89.1-3.21-90.41-.4-4.51,5.65-7.9,5.85-1.65Z"/>
      </g>
      <g class="cls-24">
        <path class="cls-8" d="m1017.98,88.32v98.66c0,1.57-.45,3.05-1.17,4.09-2.13-1.09-1.93-105.56,0-106.28.84.89,1.14,2,1.17,3.52Z"/>
        <path class="cls-8" d="m1032.89,85.4v97.27c0,1.54-.47,3.03-1.18,4.03-2.13-.98-1.93-104.18,0-104.77.86.85,1.15,1.95,1.18,3.46Z"/>
        <path class="cls-8" d="m1047.78,82.52v95.8c0,1.52-.44,2.97-1.15,3.96-2.16-.83-1.94-102.74,0-103.17.82.86,1.12,1.9,1.15,3.4Z"/>
        <path class="cls-8" d="m1062.69,79.67v94.25c0,1.49-.45,2.91-1.17,3.92-2.16-.94-1.95-100.97,0-101.53.83.87,1.14,1.87,1.17,3.35Z"/>
        <path class="cls-8" d="m1077.58,76.9v92.59c0,1.46-.45,2.88-1.17,3.82-2.15-.65-1.89-99.49-.01-99.69.85.78,1.14,1.84,1.18,3.28Z"/>
        <path class="cls-8" d="m1092.49,74.14v90.85c0,1.45-.45,2.84-1.17,3.8-2.16-.97-1.95-97.25,0-97.88.83.8,1.14,1.83,1.17,3.23Z"/>
        <path class="cls-8" d="m1107.4,71.42v89.04c0,1.42-.45,2.78-1.17,3.75-2.16-.96-1.96-95.3,0-95.95h.01c.82.79,1.13,1.79,1.15,3.15Z"/>
        <path class="cls-8" d="m1122.29,68.75v87.16c0,1.39-.47,2.74-1.18,3.64-2.12-.64-1.89-93.63,0-93.87.86.72,1.15,1.73,1.18,3.07Z"/>
      </g>
    </g>
    <g>
      <path class="cls-14" d="m948.43,208.46l-5.74,15.34-.73.19.64-6.16c-3.28-.11-21.86,4.89-25.4,5.71.79-3.59,1.14-6.86,1.14-6.86l30.1-8.21Z"/>
      <path class="cls-13" d="m942.59,217.82l-.64,6.16c-6.67,1.79-21.18,5.67-27.73,7.43,1.41-1.76,2.42-5.32,2.97-7.88,3.65-.85,22.02-5.8,25.4-5.71Z"/>
    </g>
    <path class="cls-14" d="m1219.43,143.68l-5.33,15.49-.73.21.47-6.18c-3.28-.02-21.72,5.47-25.24,6.39.7-3.61.95-6.89.95-6.89l29.88-9.01Z"/>
    <path class="cls-13" d="m1213.84,153.19l-.47,6.18c-6.62,1.96-21.02,6.24-27.52,8.16,1.37-1.8,2.28-5.38,2.76-7.95,3.63-.95,21.86-6.38,25.24-6.39Z"/>
  </g>
</svg>