<?xml version="1.0" encoding="utf-8"?>
<!-- Generator: Adobe Illustrator 27.8.1, SVG Export Plug-In . SVG Version: 6.00 Build 0)  -->
<svg version="1.1" id="katman_1" xmlns="http://www.w3.org/2000/svg" xmlns:xlink="http://www.w3.org/1999/xlink" x="0px" y="0px"
	 viewBox="0 0 284.8 301.6" style="enable-background:new 0 0 284.8 301.6;" xml:space="preserve">
<style type="text/css">
	.st0{fill:#A5C7D3;}
</style>
<path class="st0" d="M284.8,184.4c-6.1,1.4-11.3,4-12.2,11.1c-2.8,4.8-4.3,9-0.7,13.8c3.4,5.7-5.9,9.1-8.5,13.4
	c-4.3,4.4-8.8-6.7-19,1.1c-12.2,1.6-7.6,12.5-13.8,12.4c-25.1,1.6-7.5-5.3-25-12.5c-12.5-6.6-15.2,3-19.2-0.8
	c-19.7-17.5-1.2-8.4-9.4-27.8c-3.6-11.9-12.7-7.8-12.6-13.4c-1.7-25.2,5.3-7.6,12.5-25c6.4-12.6-2.4-15,0.6-19
	c17.7-20.1,8.9-1.6,27.3-9.5c13.3-4.3,8.3-12.5,13.7-12.8c26.4-1.6,7.1,5,26.1,12.8c11.1,6.1,14.7-3.2,18.7,0.5
	c2.1,3.4,11.2,8.2,9.3,12.2c-5.9,9.5,1.6,24.8,12.3,26.3L284.8,184.4L284.8,184.4z M224.8,143.5c-42.2-0.3-42.4,64.4-0.3,64.5
	C266.8,208.4,267.1,143.4,224.8,143.5z"/>
<path class="st0" d="M104,0c4,2.5,4.5,18.7-2.2,18c-7.1,0-4.8-8.8-5.1-13.5c0-2,1.4-3.2,2.5-4.5C99.3,0,104,0,104,0z"/>
<path class="st0" d="M18.9,197.8c-8.2-15.1-2.5-12.4,6.9-23.4c4.3-4.9,10.9,8,21.9-0.9c17-3.1,7.4-15.1,18.1-14.9
	c4.2,0.3,8.5,0.1,12.7,0.1c1.8,0,3.2,0.5,3.5,2.3c1.3,7,5.5,11.1,12.5,12.4c5.7,2.8,9.3,5.3,15.4,1.4c5.9-3,4.4-2.6,8.7,1.5
	c2.2,3.3,11.3,8.2,9.2,12.2c-4.1,6.1-4.2,12.1,0.1,18.1c2.9,16.7,15.1,7.1,14.8,18.1c-0.3,4.2-0.1,8.5-0.1,12.7
	c-0.6,7.8-10-2.6-16.2,19.3c-3,3.8-2.2,7.4-0.2,11.4c3.3,6.7,3,4.8-1.6,9.6c-3.2,2.1-7.9,10.9-11.8,8.8c-6.2-4.3-12.3-4.1-18.4,0.2
	c-4.8,2.1-9.6,2.1-10.9,8.2c-2.8,7.8-1.2,6.2-9,6.4c-3.8-0.8-12.4,2.2-14-2.2c-1.2-7.4-5.9-11.3-13-12.7c-4.9-2.1-8.4-5.2-13.8-1.8
	c-7.5,3.6-5.1,3.5-10.8-1.9c-2.2-3.3-10.4-7.2-8.2-11.4c4.8-6.6,3.4-12.7-0.7-19.2c-1.1-13-14.6-7.9-14.2-15.6
	c0.2-4.6,0.1-9.3,0-13.9c-0.3-6.3,12.6-1.7,14.7-15.8C15.4,203.8,17.7,201,18.9,197.8L18.9,197.8z M71.5,268.4
	c50.3-1,50.2-75.9-0.1-76.7C21.2,191.8,21.2,268.3,71.5,268.4z"/>
<path class="st0" d="M247.6,101.4c3.1,16.2-24.6-14.8-27.3-5.1c-7.8,16.5-7.7,5.8-11.1,12.7c-1.4,7.4-8.3,14.7-16.2,10.7
	c-7.2-3.3-7.2-3.2-12.8,2.4c-2.7,4.3-16.6,12.8-13.6,17.4c2.3,4.6,4.7,8.9,1.7,14.1c-1.2,2.2-2.4,3.7-4.8,4.7
	c-9.6,3.8-7.7,1.1-7.9,11.5c-0.1,5.5,0.1,11.1-0.1,16.6c-1,7.8,12.3,3.5,6,11.8c-2.8,3-7.5,18-11.8,15.1c-10.2-3.9-11.8-4-15.4-14.4
	c-1.8-5.6,8-11.7,3-16.6c-2.4-3.2-9.6-6.3-6.7-10.9c18.5-31.7,36.7-63.7,55.2-95.4c1.3-2.3,0.9-3.4-1.3-4.7
	c-4.6-3.4-18.9-9-20.6-13.3c21.6-13.6,48.5-22.2,71.9-34.1c3.4-1.5,4.4-0.8,4.8,2.8C242.9,51.7,245.5,76.5,247.6,101.4
	C247.7,101.4,247.7,101.4,247.6,101.4L247.6,101.4z"/>
<path class="st0" d="M112.2,90.4c0-4.3,0-8.7,0-13c-1.4-8.3,11.7,0.9,16-13.6c4.1-17.9-23.8-22-24.7-3.2c-0.1,1.4,0.7,3.7-1.7,3.8
	c-2.7,0.1-1.9-2.3-1.9-3.8c-0.3-16.5-24.6-16.2-25.1-0.2c-0.2,6.7,5.1,12.6,12.1,12.9c4.8,0.2,4.3,0.7,4.3,4.9
	c0,8.8-0.1,17.6,0.1,26.4c0,2.6-0.6,3.7-3.5,3.7c-7.3-0.1-7.3,0.1-8.2-7.2c-1-8-4-15.2-8.1-22.1c-20.2-29.7,17-67.9,47.5-49.7
	c15.5,8.6,22.5,27.4,16.1,43.5c-5.3,10.2-11.3,20-11.7,31.9c-0.2,2.6-1.1,3.6-3.8,3.5c-8.6-0.3-7.3,1.1-7.4-7.4
	C112.1,97.3,112.1,93.9,112.2,90.4L112.2,90.4z"/>
<path class="st0" d="M101.8,116.8c4.5,0.7,18.9-1.6,21.1,1.2c0.9,2.2-0.6,5.2-2.5,6.4c-3.1,0.8-3.3,3.1-3.1,5.8
	c0.9,6.8-6.1,4.9-5.9,9.7c0,2.1,0.3,4.4-1.2,6.2c-4.7,4.5-20.6,3.7-18.2-5.9c0.4-5.3-7.1-3.3-5.9-10.6c0.1-2.2,0.2-4.3-2.7-5.1
	c-3.3-1.4-5.1-8.5,0.4-7.7C89.8,116.8,95.8,116.9,101.8,116.8z"/>
<path class="st0" d="M148.3,44.7c-2.9-0.2-4.4-1.3-5.1-3.3c-1.9-5.9,6.4-8.2,10.4-10.4c3.8-1.8,8.5,3.8,5.8,7
	C156.3,41.6,152.1,43.4,148.3,44.7L148.3,44.7z"/>
<path class="st0" d="M123.4,19.6c1.5-3.6,3.2-7.9,6.7-10.8c3.4-2.8,9.1,2.1,7,6c-1.3,3.2-3,6.2-5.2,8.9
	C128.8,27.1,123.1,24.6,123.4,19.6L123.4,19.6z"/>
<path class="st0" d="M60.3,39.8c-1.1,9.1-10.7,2.8-15-0.3c-4.9-3.2-0.2-11.2,4.8-8.5C53.7,33.5,60.3,34.8,60.3,39.8z"/>
<path class="st0" d="M70.8,8.1c5-0.2,13.3,14.2,6.3,16.6c-6,2.5-8.7-5.9-10.8-10C64.9,11.4,67.3,8.2,70.8,8.1z"/>
<path class="st0" d="M103.5,90.7c-0.7,3.2,1.8,17.4-1.8,17.3c-1.9,0-1.8-1.5-1.8-2.8c0.8-4.1-2-33.2,1.8-31.8
	C105.4,73.3,102.8,87.6,103.5,90.7z"/>
<path class="st0" d="M112.2,61.7c-0.5-5.7,7.1-6.5,7.4-1.1C120.4,64.3,111.6,67,112.2,61.7z"/>
<path class="st0" d="M91.1,61.9c0.6,4.9-8.3,2.3-7.4-1.3C84.1,55.3,91.6,56,91.1,61.9z"/>
</svg>
