<?xml version="1.0" encoding="UTF-8"?>
<svg id="katman_1" data-name="katman 1" xmlns="http://www.w3.org/2000/svg" viewBox="0 0 718.54 417.11">
  <defs>
    <style>
      .cls-1 {
        fill: #fc1f2f;
      }

      .cls-1, .cls-2, .cls-3, .cls-4, .cls-5, .cls-6, .cls-7, .cls-8, .cls-9 {
        stroke-width: 0px;
      }

      .cls-2 {
        fill: #ddeaf1;
      }

      .cls-3 {
        fill: #e20e17;
      }

      .cls-4 {
        fill: #bde5ef;
      }

      .cls-5 {
        fill: #fed2a4;
      }

      .cls-6 {
        fill: #fff;
      }

      .cls-7 {
        fill: #ffe5c2;
      }

      .cls-8 {
        fill: #ffbd86;
      }

      .cls-9 {
        fill: #f6aa6d;
      }
    </style>
  </defs>
  <g id="VEDXaq.tif">
    <g>
      <path class="cls-4" d="m552.48,17.08c16.63-12.52,43.4-27.81,57.53-3.07,33.83,62.13,68.35,123.89,102.45,185.87,5.51,7.58,6.65,15.72,5.84,24.88-8.89,16.1-26.01,21-40.46,29.36-19.71,11.4-39.89,21.98-59.71,33.2-24.55,14.63-37.98-8.49-47.23-30.16,20.09-11.24,40-22.81,60.31-33.62,19.22-10.23,23.23-23.54,12.67-42.51-31.03-54.32-59.01-110.48-91.41-163.95Z"/>
      <path class="cls-8" d="m457.56,370.19c-14.66-2.9-27.14-12.78-42.29-15.01-4.93-15.22-24.29-21.25-36.5-14.04-2.63-2.84-6.31-3.2-9.74-4.14-6.88-21.64-29.99-25.87-44.9-11.2-2.07-1.51-1.25-3.78-1.49-5.76-2.77-23.28-27.72-29.5-39.23-19.58-3.96.25-5.26,4.35-8.4,5.8,1.12-11.73-2.19-23.19-13.23-28.16-8.47-4.37-17.72-5.18-26.11,1.32-10.97,5.76-13.84,22.51-19.88,32.8-2.14,4.82-5.88,9.12-5.33,14.92-23.42-18.26-46.84-36.52-70.25-54.77,32.74-61.21,66.28-122.37,100.96-182.53,29.68,12.37,78.56,13.43,94.31,43.68-9.43,23.17-15.76,47.46-21.89,71.87-7.85,34.84,28.86,47.82,49.72,29.21,32.22,17.78,69.63,27.28,103.8,41.88,15.06,5.75,21.17,16.43,18.21,31.83-1.81,9.41-8.88,14.21-16.47,11.24-13-5.1-26-10.22-39.05-15.21-24.13-9.24-48.28-18.42-72.46-27.52-2.24-.85-4.73-2.62-7.15-.18-6.24,3.83-2.56,9.71,3.25,11.47,28.94,11.01,57.79,22.25,86.78,33.12,23.58,6.47,38.08,26.05,17.35,49Z"/>
      <path class="cls-3" d="m79.89,275.42c-22.51-12.28-45.16-24.3-67.46-36.94-12.6-7.14-15.79-21.21-8.79-33.9,31.65-56.79,62.32-114.25,94.43-170.73,21.13,14.28,44.93,24.52,67.13,37.15,11.83,6.31,16.62,21.35,10.18,33.06-31.55,57.27-63.58,114.28-95.49,171.35Z"/>
      <path class="cls-2" d="m552.48,17.08c32.39,53.47,60.37,109.63,91.41,163.95,10.56,18.96,6.55,32.27-12.67,42.51-20.31,10.81-40.23,22.38-60.31,33.62-32-56.5-62.16-114.08-95.04-170.06-5.33-19.94-1.69-27.72,17.13-37.89,19.97-10.44,39.07-22.59,59.49-32.13Z"/>
      <path class="cls-7" d="m475.86,87.11c36.04,62.95,71.68,126.3,105.31,190.58-20.66,9.9-40.94,20.63-61.88,29.93,2.12-19.45-8.26-29.69-26.43-34.11,14.12-5.99,24.08-8.54,26.17-25.75.84-11.08-5.64-21.59-16.57-25.86-21.93-8.58-43.97-16.88-65.97-25.29,3.11-2.52,6.78-1.32,10.1-1.15,15.07.78,27.7-4.99,39.2-13.95,13.08-9.72-.58-29.3-13.76-17-36.1,33.08-78.18-31.61-84.8,12.64-2.28,1.77-1.35,4.38-1.71,6.64-1.11.42-1.98,1.01-2.44,2.24-6.44,16.29-11.13,33.49-19.77,48.56-20.86,18.6-57.58,5.64-49.72-29.21,6.13-24.41,12.45-48.7,21.89-71.87,3.1.21,4.36-2.41,6.14-4.11,16-16.93,39.22-18.36,61.16-16.67,28.28,4.4,48.25-16.92,73.09-25.6Z"/>
      <path class="cls-1" d="m79.89,275.42c31.91-57.07,63.94-114.08,95.49-171.35,6.44-11.71,1.65-26.75-10.18-33.06-22.2-12.63-46-22.87-67.13-37.15,8.39-18.5,20.98-43.42,45.01-30.08,27.87,15.09,55.61,30.49,83.34,45.82,36.2,14.73,8.75,48.62-3.58,72.25-27.41,50.21-56.3,99.79-82.64,150.49-5.33,8.43-10.24,16.89-21.62,18.96-14.68,2.06-26.66-9.16-38.7-15.88Z"/>
      <path class="cls-9" d="m436.49,196.59c22,8.42,44.04,16.72,65.97,25.29,10.93,4.27,17.42,14.79,16.57,25.87-2.1,17.22-12.04,19.75-26.17,25.75,35.81,5.46,35.71,54.47-2.72,53.78,28.14,25.49-3.1,62.53-32.58,42.91,20.71-23,6.26-42.49-17.35-49-28.99-10.87-57.84-22.11-86.78-33.12-5.72-1.74-9.56-7.65-3.25-11.47,2.42-2.43,4.91-.66,7.15.18,24.18,9.11,48.33,18.29,72.46,27.52,13.04,4.99,26.04,10.11,39.05,15.21,7.58,2.97,14.66-1.83,16.47-11.24,2.97-15.4-3.15-26.07-18.2-31.83-34.17-14.6-71.58-24.1-103.8-41.88.62-2.83,2.49-4.89,4.29-6.98,34.51,7.48,67.18,25.04,100.81,36.51,6.09,2.4,9.74.83,12.83-4.29,8.84-14.68,3.33-31.66-12.74-38-24.03-9.47-48.16-18.66-72.28-27.89-6.67-2.07-14.38-10.01-8.98-16.79,16.05,7.43,32.87,12.89,49.26,19.47Z"/>
      <path class="cls-5" d="m283.41,300.45c11.51-9.92,36.47-3.7,39.23,19.58.24,1.98-.58,4.25,1.49,5.76-17.05,21.99-23.68,87.41-63.19,65.89,12.23-13.89,17.75-32.46,25.7-49.01,8.67-14.03,10.08-30.54-3.24-42.22Z"/>
      <path class="cls-5" d="m329.68,321.5c19.31-13.45,43.54,4.93,39.33,27.92-5.49,13.09-13.29,25.38-16.85,39.17-3.67,4.34-5.18,9.85-7.9,14.7-8.06,14.41-26.21,18.36-37.13,8.02,9.22-.01,24.84-47.04,30.81-57.18,5.74-13,2.88-23.71-8.26-32.63Z"/>
      <path class="cls-5" d="m235.67,279.39c15.53-12.12,40.48.96,39.34,20.59-1.32,17.11-12.68,32.75-19.79,48.32-1.18.53-1.5,1.48-1.31,2.68l.03-.05c-11.59,3.31-21.37,10.72-32.38.07,12.03-8.85,14.55-25.76,22.03-38.16,5.94-12.46,3.09-24.53-7.91-33.45Z"/>
      <path class="cls-5" d="m378.77,341.13c17.92-10.61,41.56,6.84,37.95,28.08-4.61,11.79-12.62,22.63-15.39,34.87-9.45,10.81-23.18,17.59-36.59,8.64,9.72-10.42,13.76-23.93,19.8-36.35,6.24-11.87,2.42-25.44-7.12-33.86.45-.46.91-.92,1.36-1.38Z"/>
      <path class="cls-7" d="m329.68,321.5c11.14,8.93,14,19.63,8.26,32.63-6.04,10.26-21.51,57.04-30.81,57.18-7.83-3.2-9.81-10.13-11.11-17.48-.46-2.6,1.07-5.55-1.39-7.79,8.23-14.98,14.88-30.7,21.87-46.27,3.45-6.76,6.4-14.23,13.18-18.27Z"/>
      <path class="cls-7" d="m255.22,348.31c7.61-13.55,13.52-27.89,19.79-42.07,3.14-1.44,4.44-5.55,8.4-5.79,13.32,11.71,11.91,28.17,3.23,42.22-7.95,16.55-13.46,35.12-25.7,49.01-16.09-11.25-14.02-24.68-7-40.74,0,0-.03.05-.03.05,1.17-.53,1.4-1.53,1.31-2.68Z"/>
      <path class="cls-9" d="m416.71,369.21c.4-4.77-.58-9.4-1.44-14.04,12.97,2.69,24.78,8.4,36.6,14.08,25.7,25.29-5.61,59.47-33.94,40.85,12.48-12.97,14.23-28.97-1.21-40.89Z"/>
      <path class="cls-7" d="m235.67,279.39c11.01,8.93,13.85,20.99,7.91,33.45-7.48,12.4-10,29.31-22.03,38.16-14.65-7.6-13.53-26.92-5.76-38.81,6.04-10.3,8.91-27.03,19.88-32.8Z"/>
      <path class="cls-7" d="m377.41,342.52c9.54,8.42,13.36,22,7.12,33.87-6.04,12.42-10.08,25.93-19.8,36.35-16.24-9.1-14.43-27.59-5.8-41.43,5.43-9.8,7.37-23.81,18.48-28.79Z"/>
      <path class="cls-8" d="m416.71,369.21c15.45,11.93,13.69,27.92,1.21,40.89-5.99-.75-10.99-4.23-16.61-6.02,2.77-12.25,10.78-23.08,15.39-34.88Z"/>
      <path class="cls-9" d="m377.41,342.52c-3.76,1.13-5.86,4.28-8.39,6.89,0-4.14,0-8.28.01-12.42,3.43.95,7.12,1.31,9.74,4.14-.45.46-.91.92-1.36,1.38Z"/>
      <path class="cls-8" d="m385.52,183.77c1.72,5.33,5.65,8.22,10.7,10.15,24.12,9.22,48.25,18.42,72.28,27.89,16.07,6.33,21.59,23.31,12.74,38-3.08,5.12-6.74,6.69-12.83,4.29-33.63-11.47-66.3-29.03-100.81-36.51,5.16-13.86,10.34-27.71,15.47-41.57.46-1.23,1.33-1.82,2.44-2.24Z"/>
      <path class="cls-5" d="m436.49,196.59c-16.38-6.58-33.21-12.03-49.26-19.47,6.59-44.24,48.76,20.43,84.8-12.64,13.16-12.3,26.86,7.28,13.76,17-11.5,8.96-24.13,14.73-39.2,13.95-3.31-.17-6.99-1.36-10.1,1.15Z"/>
      <path class="cls-6" d="m255.22,348.31c.09,1.15-.13,2.15-1.31,2.68-.19-1.2.12-2.15,1.31-2.68Z"/>
    </g>
  </g>
</svg>