<?xml version="1.0" encoding="UTF-8"?>
<svg id="katman_1" data-name="katman 1" xmlns="http://www.w3.org/2000/svg" viewBox="0 0 390.14 391.5">
  <defs>
    <style>
      .cls-1 {
        fill: #a5c7d3;
        stroke-width: 0px;
      }
    </style>
  </defs>
  <path class="cls-1" d="m100.59,359.91c-17.01-.13-34.02-.05-51.03-.06-11.85.83-21.41-7.96-17.86-21.15,19.93-97.29,130.29-156.14,222.47-119.95,22.32,5.22,30.5-24.84,4.1-32.02C341,122.7,287.06-9.93,183.46.59c-91.99,10.26-125.77,129.57-52.06,186.08C66.33,209.7,14.74,265.52.68,333.81c-8.11,66.66,57.8,57.93,103.2,56.58,17.46-4.24,14.33-30.44-3.29-30.48Zm21.66-255.57c.43-95.3,144.44-96.28,145.27.04-1,95.12-144.3,95.03-145.27-.04Z"/>
  <path class="cls-1" d="m379.59,265.33c-13.34-35.52-54.8-25.25-84.69-26.58-41.73.49-34.87,32.81-47.88,33.59-30.97-.14-61.94-.02-92.91-.13-5.73-.02-10.3,1.88-14.21,6-7.78,8.19-15.73,16.22-23.56,24.36-7.4,7.7-7.61,16.31-.29,23.96,8.42,8.8,17.08,17.39,25.66,26.03,7.65,9.23,46.49,3.14,60.36,4.76,21.09.26,20.95-31.34-.1-30.96-11.68-.06-23.36-.24-35.03.09-5.07.14-8.74-1.1-12.19-5.06-6.18-7.09-6.3-6.7.15-13.74,3-3.27,6.12-4.51,10.57-4.48,32.49.19,64.99.11,97.48.09,14.59.81,16.74-14.56,20.23-25.41,1.63-5.64,5.67-7.98,11.1-8.03,15.1-.12,30.21-.11,45.31,0,15.86-.53,18.91,33.41,19.39,45.26-.71,11.93-3.84,45.68-19.97,44.76-14.85.03-29.7.07-44.55-.02-11.93.57-12.79-12.95-15.77-21.54-5.79-20.27-35.37-12.45-30.18,8.08,1.4,5.8,3.15,11.49,5.3,17.07,12.8,36.43,55.09,26.15,85.25,27.43,35.8,1.68,46.85-35.99,50.84-65.01,1.19-20.82-1.82-41.34-10.3-60.52Z"/>
  <path class="cls-1" d="m327.77,329.9c20.57.54,20.94-30.78.65-30.96-20.36-.35-20.64,30.66-.65,30.96Z"/>
</svg>