<?xml version="1.0" encoding="utf-8"?>
<!-- Generator: Adobe Illustrator 27.8.1, SVG Export Plug-In . SVG Version: 6.00 Build 0)  -->
<svg version="1.1" id="katman_1" xmlns="http://www.w3.org/2000/svg" xmlns:xlink="http://www.w3.org/1999/xlink" x="0px" y="0px"
	 viewBox="0 0 310 307.5" style="enable-background:new 0 0 310 307.5;" xml:space="preserve">
<style type="text/css">
	.st0{fill:#A5C7D3;}
</style>
<path class="st0" d="M2.7,307.4c-4.7-3.3-3-11,3.2-10.5c7,0,14-0.2,21,0.1c3.4,0.1,4.1-1.1,4.1-4.2c-0.1-27-0.1-53.9-0.1-80.9
	c0-6.4,1.4-7.8,7.7-7.8c9.1,0,18.3,0,27.4,0c4.8,0,6.6,1.8,6.6,6.6c0,27.2,0,54.4,0,81.6c0,3.1,1.5,4.6,4.5,4.6
	c4.7,0.3,5.8-0.2,5.4-5.1c0-33.4,0-66.9,0-100.3c0-7,1.2-8.2,8.3-8.2c8.7,0,17.4,0,26.1,0c5.7,0,7.3,1.6,7.3,7.2
	c0,34,0,67.9,0,101.9c0,2.9,1.5,4.4,4.4,4.4c1.9-0.2,5.6,0.9,5.4-2.1c0-41.4,0-82.8,0-124.1c0-6.6,1.3-7.9,7.9-7.9
	c8.9,0,17.8,0,26.8,0c5.5,0,7,1.6,7,7.2c0,40.7,0,81.5,0,122.2c0,3.2,1.6,4.8,4.7,4.8c2-0.1,5.5,0.8,5.2-2.4c0-36.2,0-72.4,0-108.6
	c0-6.2,1.4-7.6,7.5-7.6c9.1,0,18.3,0,27.4,0c5.1,0,6.8,1.7,6.8,6.8c0,35.7,0,71.4,0,107c0,1.6-1,4,1.1,4.6c2.4,0.4,8.5,1.6,8.7-1.7
	c0.1-50,0-99.9,0-149.9c0-6.8,1.3-8,8.1-8c8.5,0,17,0,25.5,0c6.9,0,8.1,1.2,8.1,8c0,49,0,98,0,147c0,3.3,1.6,4.9,4.9,4.9
	c8.2,1.3,19.3-3,25.8,2.8c0,2.6,1,6.1-0.3,7.5C207.7,308,104.8,307.1,2.7,307.4L2.7,307.4z M248,221.9c0,23.7,0,47.5-0.1,71.2
	c-0.6,6.9,11.1,2.5,15.5,3.7c3.2,0,4.8-1.6,4.8-4.7c0.1-47-0.1-94.1,0-141.1c0-2.7-0.9-3.6-3.5-3.4c-4,0.2-7.9,0-11.9,0.1
	c-3.2,0-4.8,1.6-4.8,4.7C248,175.6,248,198.8,248,221.9L248,221.9z M144.8,234.8c0,19.4,0.1,38.9-0.1,58.3
	c-0.6,6.9,11.7,2.5,16.1,3.7c2.8,0,4.2-1.4,4.2-4.3c0-38.4-0.1-76.9,0.1-115.3c0.6-6.9-11.7-2.5-16.1-3.7c-2.8,0-4.2,1.4-4.2,4.3
	C144.8,196.8,144.8,215.8,144.8,234.8L144.8,234.8z M216.6,243c0-17.1,0-34.1,0-51.2c0-1.8-0.3-2.9-2.4-2.9
	c-5.2,0.1-10.3,0.1-15.5,0c-3.8-0.1-1.8,5.1-2.3,7.5c0,32.2,0,64.4-0.1,96.6c0,2.9,0.7,4,3.8,3.9c4.3-1.4,17.3,3.1,16.5-3.7
	C216.5,276.5,216.6,259.8,216.6,243L216.6,243z M93.2,245.5c0,15.9,0.1,31.8-0.1,47.7c-0.6,7,12,2.3,16.4,3.8c2.9,0.1,4-0.7,3.9-3.8
	c-0.2-31.7-0.1-63.3,0-95c0.6-7.4-11.2-2.8-15.8-4c-3,0-4.5,1.4-4.5,4.3C93.2,214.1,93.2,229.8,93.2,245.5L93.2,245.5z M61.8,256.2
	c0-12.7-0.1-25.3,0-38c0-2.7-0.9-3.6-3.5-3.4c-3.8,1.1-17.2-2.5-16.7,2.8c0,25.5,0,51.1,0,76.6c0,2.1,0.8,2.8,2.8,2.8
	c4.6-1.3,18.5,3.3,17.4-4C61.7,280.6,61.8,268.4,61.8,256.2L61.8,256.2z"/>
<path class="st0" d="M112,125.1C82.4,106,76.7,61.7,94.8,33c32.9-55.8,122.5-37,129.9,27.6c3,22.7-3.7,42.6-19.9,59.3
	c-1.9,2.4-5.1,2.8-6.5,0.2c-3.3-5.3,14.7-12.7,4.2-15.8c-2.4,0-9.9,0-12.4,0c-15.4-2.3-6.5,12.9-15.2,15.7
	c-9.2-0.7,4.7-15.9-6.1-15.7c-6.6,0.1-15.4,0-22,0c-3.5,0.5-6.7-1.3-9.7,1.5c-2.7,3.8,5,12.1-1.3,14.1c-8.5,0.3-2.7-15.8-11.5-15.6
	c-3.8,0-9.6,0-13.4,0c-2-0.1-6.4-0.3-6.6,2C102.4,112.4,123.7,121.2,112,125.1L112,125.1z M154.9,97c21.2-0.6,21.4,5.1,23-18.2
	c0.9-3.5-2.7-5.9-5.1-5.4c-5.4,0.1-12.2,0-17.9,0c-5.9,1.3-24.8-3.9-23.1,5.4C133.4,102.2,133.8,96.4,154.9,97L154.9,97z M204.4,97
	c4,0.1,8.2,0.8,9.8-3.8c1.1-4.7,5.4-12.8,3-18.4c-5.4-3.3-20-0.4-26.7-1.4c-3.5-0.1-5.6,1.8-5.6,5.3c0.7,5.3-2.5,12-0.5,17
	C189.2,98.7,198.5,96.3,204.4,97L204.4,97z M96.4,73.4C86.9,73.8,95,89.7,96,93.9c3,5.8,11.3,2.1,16.5,3.1h9.8
	c7.8-0.2,1.5-13.2,2.6-18.7c0-5.7-5.5-5-9.8-4.9C108.9,73.4,102.6,73.6,96.4,73.4L96.4,73.4z M115,66.7c4.4,0.1,10,0.9,10-4.9
	c0.1-6.5,1-12.8,2.1-19.8c0.1-0.6,0.3-2.2-0.7-3.5c-3.8-2.7-8.8-0.6-13-1.2c-4.9,0.6-12-2.1-14.7,3.3C95.3,47,93,54.1,91.9,61.6
	c-0.9,3.1,2.4,5.5,4.5,5.1C102.6,66.6,108.8,66.7,115,66.7z M186.7,37.1c-2.3-0.4-4.9,2.3-4,4.9c1,6.3,2,13.1,2.1,19.9
	c0.5,7.9,11.2,3.8,16.5,4.8c5-0.7,11.6,1.6,15.7-1.3c2.7-6.9-3.2-18.8-6-24.9C207.1,34,193.6,38.5,186.7,37.1L186.7,37.1z
	 M139.7,37.1c-8.5,0.5-5.7,13.2-7.3,18.8c-2.5,12.2,2.4,10.9,12.2,10.7c8.9,0.1,19.1-0.1,28.7,0.1c9,0.6,2.1-19.4,2.2-25.1
	c-0.6-3-2.3-4.5-5.4-4.5C160,37.2,149.9,37.2,139.7,37.1L139.7,37.1z M162.3,30c3.7,0,11.2,1.2,9.2-5.1c-2.1-4.3-3.2-16.2-8.8-17.8
	c-2.6-0.3-5.3-0.5-7.9-0.5c-3.9,0.5-9.5-1.1-11.3,3.5c-2.3,5.6-4,10.4-5.3,15c-1.8,5.9,5.6,4.8,9.1,4.8C151.4,30,158.3,30,162.3,30
	L162.3,30z M126.2,30c2.8,0,3.8-1.8,4.1-2.9c1.5-5.1,3.8-12.6,5.5-17.9c-12,4.5-22.2,11.4-30.3,20.8C110.5,30,121.2,30,126.2,30
	L126.2,30z M179.5,27.1c0.5,1.8,2,2.8,3.8,2.8h21.4c-9.1-9.7-19.1-16.7-30.6-20.5C174.1,9.4,178.6,24.1,179.5,27.1L179.5,27.1z"/>
<path class="st0" d="M15.5,197.2c-15.1-7.4,23.8-11.6,22.7-20.3c0.9-8,7.5-12.2,13.5-12.2c5.9-0.8,10.1,6.7,15.9,3.7
	c6.3-2.6,12.7-5.2,18.2-7.3c7.3-2.9,1.8-16.1,17.5-17.1c5.8-0.9,9.6,6.4,15.4,3.9c6.1-3.9,21.8-5.4,22.7-12.6
	c1.2-14.3,23.3-15.9,26.5-2.3c1,3.6,3,5.5,6.7,6.5c7.4,0.7,16.2,8,22.3,3.4c7.1-8,14.4-0.1,19.8-4.5c7.8-7.4,16.8-15.9,25.8-24.3
	c4.4-5.2,0-12.5,5.6-17.3c5.1-6.5,12.9-2.1,17.9-4.9l18.7-17.4c-2.5-0.4-8-0.8-9-2.8c-1.1-1.9,0.6-5,3.1-4.8c2.9,0,5.9-0.1,8.8,0
	c3.9,0.5,9.9-1.8,10,3.6c-0.9,5,2.8,17.7-3.2,18.6c-4,0.8-3.8-6.6-4.5-9.8c-5.8,5.4-12.1,11.3-17.8,16.6c-1.7,1.4-2.1,3.2-1.3,5.3
	c4,8.9-3.2,18.9-12.3,19c-3.5,0.4-9-3.9-11.9-0.3c-7.7,7.3-16.7,15.7-25.6,24c-4.5,4.6,5.1,17-11.4,22.3c-7.5,1.9-14.6-2.9-16.7-11
	c-0.6-3.4-4.1-4.1-6.9-4.9c-5.7-1.5-11.5-3.9-17.4-4.9c-1.9,0-3.2,1-4,1.7c-8.5,7.6-13.7,3-22.2-0.6c-7.6,2-14.9,6-21.9,8.4
	c-2.8,1.1-3.4,3.1-3.7,4.9c-1,6.9-6.6,12-13.4,12c-5.8,0.8-10.2-6.7-15.9-3.7c-6.7,2.8-13.4,5.5-18.5,7.4c-7.4,3.6-1.4,15.8-17.2,17
	c-4.5,0.6-8.3-3.8-12.5-4.1C31.3,189.7,23.6,195.7,15.5,197.2L15.5,197.2z M51.5,171.7c-8.8,0.4-8.2,13.7,0.4,13.6
	C60.7,184.8,60.2,171.5,51.5,171.7z M103.3,151c-8.7,0.1-8.7,13.4,0,13.6C112,164.5,112,151.1,103.3,151L103.3,151z M206.5,145.9
	c-8.7,0.1-8.7,13.4-0.1,13.6C215.2,159.4,215.2,146,206.5,145.9L206.5,145.9z M154.7,130.4c-8.7,0.3-8.3,13.7,0.3,13.6
	C163.8,143.6,163.4,130.3,154.7,130.4z M258.1,99.4c-8.7,0.1-8.7,13.5,0,13.6C266.8,112.9,266.8,99.5,258.1,99.4z"/>
</svg>
