<?xml version="1.0" encoding="UTF-8"?>
<svg id="katman_1" data-name="katman 1" xmlns="http://www.w3.org/2000/svg" viewBox="0 0 537.07 345.15">
  <defs>
    <style>
      .cls-1 {
        stroke-width: 2px;
      }

      .cls-1, .cls-2 {
        fill: none;
        stroke: #13131a;
        stroke-linecap: round;
        stroke-linejoin: round;
      }

      .cls-2 {
        stroke-width: 4px;
      }

      .cls-3 {
        fill: #13131a;
      }

      .cls-3, .cls-4 {
        stroke-width: 0px;
      }

      .cls-4 {
        fill: #333;
      }
    </style>
  </defs>
  <g>
    <g>
      <path class="cls-1" d="m316.76,273.27h-112c-7.65,0-13.87-6.21-13.87-13.84v-11.41c0-7.63,6.22-13.84,13.87-13.84h112c7.65,0,13.87,6.21,13.87,13.84v11.41c0,7.63-6.22,13.84-13.87,13.84Z"/>
      <path class="cls-2" d="m210.8,176.64l10.5,55.93"/>
    </g>
    <g>
      <path class="cls-1" d="m222.94,260.65c-3.19,0-5.78-2.59-5.78-5.77s2.59-5.77,5.78-5.77,5.78,2.59,5.78,5.77-2.59,5.77-5.78,5.77Z"/>
      <line class="cls-1" x1="240.28" y1="254.88" x2="304.37" y2="254.88"/>
    </g>
  </g>
  <g>
    <path class="cls-1" d="m147.39,245.81l-22.58,4.82c-6.94,1.48-13.8-2.95-15.28-9.88l-11.89-55.51c-1.48-6.93,2.96-13.77,9.9-15.25l22.58-4.82c6.94-1.48,13.8,2.95,15.28,9.88l11.89,55.51c1.48,6.93-2.96,13.77-9.9,15.25Z"/>
    <ellipse class="cls-1" cx="133.89" cy="239.79" rx="3.62" ry="3.61"/>
  </g>
  <g id="fbGwtH.tif">
    <g>
      <path class="cls-3" d="m392.61,163.76c.14,0,.33.08.59.23,3.92,2.31,7.86,4.59,11.79,6.88,12.54,7.3,25.07,14.59,37.61,21.89,2.6,1.51,5.2,3.03,7.8,4.55,1.41.82,1.77,1.67,1.1,2.83-2.1,3.64-4.21,7.27-6.36,10.88-.43.73-.89,1.07-1.46,1.07-.36,0-.76-.14-1.22-.4-1.7-.96-3.36-1.97-5.07-2.92-.46-.26-.88-.38-1.25-.38-.56,0-1.02.28-1.34.83-.51.87-.16,1.77.98,2.45.62.37,1.24.72,1.86,1.09.2.12.42.2.4.53-.07,1.05-1.17,1.91-2.21,1.91-.27,0-.53-.06-.77-.19-.96-.52-1.9-1.09-2.85-1.64-11.62-6.76-23.24-13.52-34.85-20.29-4.4-2.57-8.81-5.14-13.19-7.73-1.16-.69-1.34-1.53-.68-2.68.31-.53.62-1.06.93-1.59,1.43-2.44,2.86-4.88,4.29-7.32.09.02.18.04.27.06,0,.43.02.87.03,1.3.02,2.02-.05,4.04.07,6.05.12,2.19,1.19,3.94,3.08,5.05,12.25,7.17,24.52,14.31,36.79,21.46.68.4,1.26.59,1.74.59.54,0,.95-.25,1.24-.74.58-.99.13-1.89-1.34-2.75-12.07-7.02-24.13-14.03-36.19-21.05-1.38-.8-2.12-1.93-2.1-3.6.04-5.19.02-10.39,0-15.58,0-.53.08-.78.33-.78m33.23,49.79c.41,0,.8.41,1.18.63q1.44.83.3,2.08c-.31.36-.57.95-.94,1.04-.08.02-.15.03-.22.03-.83,0-1.05-1.17-1.85-1.35-.26-.06-.5-.34-.3-.64.44-.65.87-1.37,1.56-1.71.09-.04.18-.06.27-.06m-5.11,4.67c.74,0,1.48.26,2.11.79,1.41,1.2,1.57,3.17.37,4.57-.67.78-1.56,1.18-2.46,1.18-.73,0-1.47-.26-2.11-.8-1.41-1.2-1.58-3.17-.39-4.57.66-.77,1.56-1.17,2.48-1.17m-2.97,9.69c.25,0,.51.14.84.43,3.39,2.98,6.83,5.91,10.26,8.86,3.5,3.01,6.99,6.04,10.51,9.03.6.51.68.9.12,1.5-.98,1.05-1.92,2.14-2.82,3.26-.29.37-.55.55-.83.55-.25,0-.51-.14-.83-.42-5.87-5.09-11.78-10.14-17.65-15.22-2.47-2.13-2.6-4.92-.5-7.4.32-.38.59-.58.88-.58m28.27,18.14c.72,0,1.49.42,1.96,1.15.48.73-.28,1.04-.61,1.43-2.14,2.53-4.33,5.03-6.5,7.54-2.26,2.61-4.51,5.23-6.78,7.84-.22.25-.39.6-.76.6-.09,0-.2-.02-.31-.07-1.56-.67-1.95-2.13-.85-3.41,4.08-4.74,8.18-9.47,12.28-14.21.27-.32.57-.59.96-.75.19-.08.4-.11.61-.11m-53.42-84.29c-.61,0-1.18.23-1.6.66-.74.74-.73,1.75-.73,2.13.01,2.52.02,5.13.02,7.77-.25-.22-.55-.38-.89-.46l-.27-.06c-.15-.03-.3-.05-.45-.05-.7,0-1.36.37-1.73.99l-.96,1.64-3.33,5.68-.26.44c-.23.39-.46.77-.68,1.16-1.22,2.14-.7,4.15,1.4,5.39,4.16,2.46,8.28,4.87,13.2,7.74,9.02,5.26,18.05,10.51,27.08,15.77l1.81,1.05c-.19.05-.38.11-.56.21-1.1.55-1.74,1.51-2.21,2.21l-.12.17c-.44.66-.54,1.48-.26,2.2-.44-.12-.9-.18-1.36-.18h0c-1.53,0-2.99.68-4,1.88-.92,1.08-1.37,2.44-1.25,3.83.12,1.37.78,2.64,1.87,3.56.18.16.38.3.58.43-.05,0-.11,0-.17,0-1.32,0-2.14.97-2.41,1.29-2.84,3.36-2.56,7.37.71,10.21,2.79,2.42,5.59,4.83,8.39,7.23,3.09,2.66,6.18,5.32,9.26,7.99.26.23,1.05.91,2.14.91.08,0,.16,0,.24-.01-1.81,2.09-3.62,4.19-5.42,6.28-.94,1.1-1.3,2.39-1.01,3.65.29,1.26,1.23,2.32,2.59,2.9.36.16.74.24,1.11.24,1.27,0,1.96-.89,2.21-1.22l.06-.07c1.74-2,3.48-4.02,5.22-6.03l1.56-1.81,1.58-1.82c1.61-1.86,3.28-3.78,4.9-5.7.03-.02.05-.05.08-.07,1.82-1.57,1.1-3.16.71-3.77-.82-1.27-2.22-2.06-3.64-2.06-.47,0-.92.09-1.35.26-.84.33-1.39.9-1.73,1.3l-1.08,1.24c-.07-1.18-.92-1.9-1.2-2.14-2.63-2.23-5.29-4.53-7.86-6.74l-2.65-2.28c-.91-.78-1.82-1.57-2.74-2.35-2.47-2.12-5.03-4.31-7.51-6.49-.05-.05-.13-.11-.22-.19.35.07.7.11,1.05.11,1.51,0,2.96-.69,3.98-1.88.93-1.08,1.37-2.44,1.26-3.81-.05-.64-.22-1.26-.5-1.83.2.05.42.08.66.08.22,0,.44-.02.66-.07,1.03-.23,1.56-1.01,1.88-1.48.05-.07.09-.14.14-.19.76-.84,1.47-1.63,1.28-2.82-.02-.12-.04-.23-.08-.34l1.16.68.73.43c.7.41,1.43.84,2.17,1.24.52.28,1.11.42,1.72.42,2.15,0,4.08-1.73,4.21-3.79.01-.22,0-.52-.09-.85.51.3,1.02.59,1.53.88.78.44,1.5.66,2.2.66.89,0,2.17-.35,3.18-2.05,1.97-3.31,4.06-6.87,6.38-10.9.58-1.01,1.57-3.57-1.82-5.55-2.6-1.52-5.2-3.04-7.81-4.55l-15.53-9.04-22.08-12.85-1.35-.79c-3.48-2.03-6.96-4.05-10.43-6.09-.4-.24-.95-.51-1.61-.51h0Z"/>
      <path class="cls-4" d="m464.91,210.67c5.27-6.27,5.1-16.58-.35-22.81-.63-.72-1.27-1.43-2.04-2.01-.77-.59-1.62-.58-2.24.02-.64.61-.67,1.53-.02,2.3.64.75,1.4,1.41,2.01,2.19,4.24,5.38,4.27,12.66.11,18.12-.19.24-.36.5-.52.76-.53.89-.42,1.76.28,2.29.7.54,1.6.42,2.3-.31.17-.17.31-.36.47-.54Z"/>
      <path class="cls-4" d="m459.73,206.59c3.63-4.33,3.12-11.59-1.07-15.38-1.05-.95-1.97-1.07-2.71-.34-.75.74-.65,1.79.42,2.77,2.28,2.08,3.43,6.03,1.58,9.61-.25.48-.6.91-.91,1.36-.73,1.07-.68,2.05.12,2.64.81.6,1.72.37,2.57-.65Z"/>
    </g>
  </g>
  <g>
    <path class="cls-1" d="m222.94,149.16c.9.05,6.03,0,7.03,0v-1.83c0-24.07,0-48.14,0-72.21,0-4.93,2.38-8.36,6.71-9.53,1.09-.3,2.27-.38,3.42-.38,38.39-.02,76.79-.02,115.18-.01,6.52,0,10.2,3.67,10.2,10.15,0,23.97,0,47.95,0,71.92v1.9c1.09,0,6.34-.02,7.39,0"/>
    <path class="cls-1" d="m283.95,149.16c-.22,3.04.02,3.36,2.63,3.38,5.45.02,10.9.02,16.35,0,2.69-.01,3.06-.54,2.44-3.38h-21.42Z"/>
    <path class="cls-1" d="m297.72,144.35c-17.98,0-35.96-.04-53.94.04-2.56.01-4.57-1.33-4.56-4.49.09-20.61.09-41.22,0-61.83-.01-3.18,2.01-4.48,4.57-4.48,35.96.06,71.92.06,107.88,0,2.51,0,4.57,1.28,4.56,4.49-.09,20.61-.09,41.22,0,61.83.01,3.13-1.96,4.49-4.57,4.48-17.98-.08-35.96-.04-53.94-.04Z"/>
    <path class="cls-1" d="m222.94,149.16h149.93v.7c0,3.22-2.62,5.84-5.84,5.84h-138.25c-3.22,0-5.84-2.62-5.84-5.84v-.7h0Z"/>
  </g>
  <path class="cls-1" d="m516.8,184.92c-.51-.56-1.03-1.11-1.56-1.65-11.24-11.46-25.65-18.77-41.29-21.1,1.79-5.49,2.72-11.26,2.72-17.04,0-30.34-24.74-55.02-55.15-55.02-3.39,0-6.76.31-10.08.93-4.44-13.29-10.91-25.54-19.01-36.45C368.03,21.7,328.87,1,286.23,1s-81.64,20.1-106.28,53.58c-3.12,4.23-6,8.68-8.63,13.33-1.34-.22-2.69-.33-4.05-.33-12.26,0-22.5,8.79-24.71,20.4-43.43,8.25-76.01,45.48-78.39,89.58-26.77.71-49.55,17.67-58.78,41.34-2.83,7.26-4.39,15.17-4.39,23.42,0,35.71,29.12,64.77,64.92,64.77h176.07l21.45,37.06,21.45-37.06h178.14c40.27,0,73.04-32.69,73.04-72.87,0-18.41-6.83-35.83-19.27-49.3Z"/>
</svg>