<?xml version="1.0" encoding="UTF-8"?>
<svg id="katman_1" data-name="katman 1" xmlns="http://www.w3.org/2000/svg" viewBox="0 0 315.68 301.16">
  <defs>
    <style>
      .cls-1 {
        fill: #1f1f29;
      }

      .cls-1, .cls-2, .cls-3, .cls-4, .cls-5 {
        stroke-width: 0px;
      }

      .cls-2 {
        fill: #c3ddf4;
      }

      .cls-3 {
        fill: #e20e17;
      }

      .cls-4 {
        fill: #fff;
      }

      .cls-5 {
        fill: #efedef;
      }
    </style>
  </defs>
  <path class="cls-3" d="m181.19,260.38c4.55.02,9.1.04,13.64.06.12,5.42-1.81,13.9,6.28,13.42,16.48.07,32.96.07,49.44.21-21.64,16.33-48.5,23.88-74.84,27.08h-22.81c-52.83-4.84-102.9-37.69-124.94-86.75,27.59-.59,55.23.01,82.83-.28,2.96-.01,3.89.8,3.78,3.77-1.47,4.48,3.01,20.89-2.98,20.47-10.16-.17-20.33-.18-30.49-.21-9.72-1.2-4.66,11.31-5.83,17.17.03,4.36.93,5.19,5.61,5.19,25.61-.06,51.21-.14,76.82-.17,2.96,3.69,6.4,7.36,10.35,10.98,1.82,0,6.51-4.09,13.13-10.93Z"/>
  <path class="cls-3" d="m246.6,274.08c-6.74-.04-78.9-13.77-85.64-13.75-1.08,0-131.91-45.93-133-45.93C20.07-80.44,263.7,24.41,277.61,50.69c69.35,66.23,14.18,184.78-31.02,223.4Z"/>
  <path class="cls-3" d="m181.19,260.38c-6.62,6.84-11.31,10.92-13.13,10.93-3.95-3.62-7.39-7.28-10.35-10.98,7.83-.03,15.66,0,23.48.05Z"/>
  <path class="cls-3" d="m75.23,29.15c50.97-38.84,127.81-38.89,178.76,0-59.58.2-119.18.2-178.76,0Z"/>
  <path class="cls-3" d="m181.19,260.38c-6.62,6.84-11.31,10.92-13.13,10.93-3.95-3.62-7.39-7.28-10.35-10.98,7.83-.03,15.66,0,23.48.05Z"/>
  <path class="cls-5" d="m0,212.58V31.11c88.97-5.43,181.67-.01,271.85-1.86,10.16-.58,4.1,15.08,5.76,21.44-.01,21.55-.03,43.11-.04,64.66-4.64-.01-9.28-.02-13.92-.04.04-21.72-.03-43.44.1-65.16,0-4.72-.17-4.9-4.77-4.9-80.37,0-160.74,0-241.12,0-4.21,0-4.23.01-4.23,4.28-.1,44.17-.07,88.35-.06,132.53.65,5.45,9.19,1.71,12.97,2.64,56.05-.17,112.11.09,168.16-.12.04,9.91.07,19.82.11,29.73-10.66.02-21.33-.59-31.97.17-11.08-.03,11.68-.05.61-.11-6.61-.54-1.4,17.06-2.68,21.77,0,1.53.69,2.25,2.23,2.24,11.28-.08-11.28-.13,0-.2,10.58.02,21.17.03,31.75.05.02,7.41.04,14.81.05,22.22-37.98-.26-75.96,0-113.95.06-4.69,0-5.58-.83-5.61-5.19,1.17-5.85-3.89-18.38,5.83-17.17,10.16.03,20.33.04,30.49.21,6.05.39,1.49-15.97,2.99-20.47.11-2.97-.82-3.78-3.78-3.77-36.66-1.31-74.93,2.9-110.79-1.54Zm138.85-21.54c-11.11.03-11.22,16.4-.18,16.62,11.03-.01,11.1-16.46.18-16.62Z"/>
  <path class="cls-4" d="m194.72,184.59c-56.05.22-112.11-.05-168.16.12-1.96-41.15-.05-82.7-.69-123.97,79.27-.27,158.55.02,237.82-.14-.01,18.24-.02,36.48-.04,54.72-11.82-.06-23.65-.11-35.47-.17,0-12.4,0-24.8-.02-37.2,0-4.75-.81-5.56-5.54-5.56-55.87-.03-111.75-.05-167.62-.07-5.17,0-6.24,1.08-6.25,6.38-.02,11.48,0,22.96,0,34.43,0,5.83.78,6.62,6.5,6.62,46.41.57,93.3-1.17,139.47.56-.02,3.27-.04,6.54-.06,9.81-44.89.44-32.79-7.3-34.37,35.99,0,4.2.51,4.68,4.85,4.69,9.84.01,19.68,0,29.52,0,.02,4.6.04,9.2.06,13.8Zm-115.56-44.58c7.34-1.62,29.57,4.27,31.16-4.48.12-2.83-2.15-4.77-5.9-4.78-16.63-.04-33.26-.04-49.9,0-3.26,0-5.27,1.9-5.25,4.66.75,8.86,23,2.99,29.88,4.59Zm.04,30.13c7.39-1.59,29.01,4.14,31.1-4.2.17-2.94-1.97-5.03-5.63-5.04-16.73-.06-33.46-.05-50.19,0-3.25,0-5.24,1.95-5.19,4.72.94,8.79,22.98,2.94,29.92,4.53Zm.32-15.14c6.67-1.73,34.46,5.24,30.04-6.86-1.23-2.1-3.37-2.45-5.62-2.45-17.33.62-35.1-1.23-52.23.73-11.66,13.49,21.56,7.26,27.81,8.57Zm53.23-14.99c5.45-.95,17.51,3.14,18.25-4.71-.06-2.57-1.98-4.47-5.19-4.51-8.61-.12-17.22-.1-25.83,0-2.86.03-4.76,2.03-4.76,4.56.87,7.82,12.14,3.69,17.53,4.66Zm.13,30.13c5.43-.99,17.17,3.07,18.06-4.51.32-2.48-1.81-4.64-4.93-4.69-8.82-.14-17.64-.13-26.46.02-2.78.05-4.53,2.37-4.32,4.95,1.58,7.37,12.2,3.2,17.64,4.23Zm.14-15.14c5.34-.88,16.79,2.92,17.92-4.39.14-2.76-1.78-4.78-5.18-4.83-8.42-.13-16.84-.13-25.25,0-3.49.05-5.33,1.94-5.28,4.74.72,7.49,12.53,3.57,17.79,4.48Z"/>
  <path class="cls-5" d="m194.66,130.1c.54-5.39-2.38-14.98,6-14.79,9.18-.08,18.36-.12,27.54-.17,27.73.17,55.46.25,83.19.13,3.7,1.32,4.3,4.26,4.3,7.72-.04,47.83-.02,95.67-.03,143.5,0,5.7-1.56,7.31-7.23,7.32-29.64-.12-59.25.33-88.88.09-12.46-1.29-28.09,5.92-24.71-13.46,0-43.45-.18-86.9-.17-130.35Zm10.19,6.39c-.2,38.2-.12,76.44-.04,114.64,1.3,6.38,10.4,2.09,15,3.33,26.78,0,53.57,0,80.35-.02,4.27,0,5.14-.88,5.14-5.21.02-37.58.02-75.15-.09-112.73-.27-4.36,2.24-12.38-4.6-11.86-30.49-.01-60.97-.02-91.46-.02-6.51-.36-3.85,7.76-4.3,11.86Z"/>
  <path class="cls-2" d="m263.7,60.59c-83.34.02-166.68.14-250.02,0,1.01-4.6-3.2-16.98,4.2-15.34,66.93,0,133.85,0,200.78,0,13.45,0,26.89,0,40.34,0,8.48-1.22,3.49,10.3,4.7,15.34Z"/>
  <path class="cls-2" d="m13.68,60.6c4.06.04,8.13.09,12.19.13.64,41.28-1.27,82.82.69,123.97-3.81-.86-12.28,2.74-12.97-2.64.07-40.49-.18-80.99.1-121.47Z"/>
  <path class="cls-1" d="m138.85,191.03c10.93.17,10.86,16.61-.18,16.62-11.04-.22-10.93-16.59.18-16.62Z"/>
  <path class="cls-2" d="m228.19,115.14c-7.59,1.72-32.64-4.35-33.48,5.16-46.18-1.73-93.06.01-139.47-.56-5.72,0-6.5-.79-6.5-6.62,0-11.48-.01-22.96,0-34.43,0-5.3,1.08-6.38,6.25-6.38,55.87.02,111.75.04,167.62.07,4.73,0,5.54.81,5.54,5.56.01,12.4.02,24.8.02,37.2Z"/>
  <path class="cls-2" d="m194.66,130.1c0,13.56,0,27.12,0,40.69-44.88-.45-32.8,7.29-34.37-36,0-4.21.5-4.68,4.84-4.69,9.84,0,19.68,0,29.52,0Z"/>
  <path class="cls-5" d="m79.16,140.01c-6.96-1.61-29.03,4.3-29.88-4.59-.02-2.76,1.99-4.66,5.25-4.67,16.63-.04,33.26-.04,49.9,0,3.75,0,6.02,1.95,5.9,4.78-1.49,8.73-23.9,2.87-31.16,4.48Z"/>
  <path class="cls-5" d="m79.2,170.14c-7.02-1.61-28.87,4.28-29.92-4.53-.04-2.77,1.95-4.71,5.19-4.72,16.73-.04,33.46-.05,50.19,0,3.65.01,5.8,2.1,5.63,5.04-1.98,8.32-23.78,2.62-31.09,4.21Z"/>
  <path class="cls-5" d="m79.52,155c-6.26-1.31-39.45,4.92-27.81-8.57,17.12-1.96,34.9-.11,52.23-.74,2.25,0,4.39.35,5.62,2.45,4.49,12.08-23.42,5.14-30.04,6.86Z"/>
  <path class="cls-5" d="m132.75,140.01c-5.39-.97-16.66,3.16-17.53-4.66,0-2.54,1.9-4.54,4.77-4.57,8.61-.09,17.22-.11,25.83,0,3.21.04,5.13,1.95,5.19,4.51-.74,7.85-12.8,3.76-18.25,4.71Z"/>
  <path class="cls-5" d="m132.88,170.13c-5.44-1.02-16.05,3.14-17.64-4.23-.22-2.58,1.53-4.9,4.32-4.95,8.82-.15,17.64-.16,26.46-.02,3.12.05,5.25,2.21,4.93,4.69-.9,7.59-12.64,3.52-18.06,4.5Z"/>
  <path class="cls-5" d="m133.02,154.99c-5.27-.91-17.07,3-17.79-4.48-.05-2.8,1.79-4.68,5.28-4.74,8.42-.13,16.84-.13,25.25,0,3.4.05,5.32,2.08,5.18,4.83-1.13,7.31-12.58,3.5-17.92,4.39Z"/>
  <path class="cls-4" d="m305.2,136.51c.11,37.58.11,75.15.09,112.73,0,4.33-.87,5.21-5.14,5.21-27.29-.09-54.6.21-81.88-.09-3.45-24.49-.17-50.43-1.29-75.38,0-1.92.65-2.75,2.68-2.78,23.81-.79,47.64-.44,71.46-.51,8.96.98,3.29-19.68,4.79-25.68,0-4.96-.76-5.71-5.7-5.72-21.98-.02-43.97-.04-65.95-.05q-7.26,0-7.24-7.35c29.3-.95,58.83-.06,88.2-.39Zm-45.99,111.18c8.6,0,14.97.03,21.34-.01,6.27.57,3.77-7.04,4.24-10.98-.03-4.49-.66-5.11-5.21-5.11-16.23.06-32.45.13-48.64-.57-6.88-.53-5.14,5.85-5.35,10.48,0,6.19.57,6.85,6.93,6.71,9.64-.22,19.27-.82,26.69-.52Zm-4.18-26.42c6.51-1.6,26.78,4.7,25.46-5.82-.67-2.92-3.17-3.39-5.51-3.4-13.34-.1-26.68-.06-40.02-.03-1.77,0-3.49.44-4.52,2.05-5.64,11.77,18.6,5.86,24.58,7.21Zm-.33-28.38c6.57-1.59,27.07,4.69,25.8-5.91-.74-3.1-3.45-3.3-5.85-3.32-13.25-.1-26.49-.07-39.74-.03-3.41.01-5.72,2.11-5.58,4.81,2.8,8.55,18.2,2.91,25.37,4.44Zm.38,14.19c6.62-1.56,24.52,4.25,25.47-4.69-.04-3.13-1.91-4.56-6.26-4.57-10.67-.03-21.34-.01-32.02-.01-5.26-.88-17.62.61-11.2,8.07,7.17,2.96,16.21.4,24,1.21Z"/>
  <path class="cls-2" d="m222.49,136.58c27.57-.04,55.14-.05,82.71-.07-.26-4.36,2.24-12.39-4.6-11.86-30.49-.01-60.97-.02-91.46-.02-3.06,0-4.24,1.1-4.34,4.18-.12,40.15-.03,80.32-.06,120.48-.92,7.87,8.73,4.57,13.52,5.07-3.45-24.49-.17-50.43-1.29-75.38,0-1.92.65-2.75,2.68-2.78,23.81-.79,47.64-.44,71.46-.51,8.96.98,3.29-19.68,4.79-25.68,0-4.96-.76-5.71-5.7-5.72-21.98-.02-43.97-.04-65.95-.05q-7.26,0-7.24-7.35c1.8-.59,3.66-.31,5.49-.32Z"/>
  <path class="cls-2" d="m259.21,247.69c-7.41-.31-17.05.3-26.69.52-6.36.14-6.93-.52-6.93-6.71.22-4.63-1.54-11.01,5.35-10.48,16.19.7,32.41.63,48.64.57,4.55,0,5.18.62,5.21,5.11-.46,3.94,2.02,11.55-4.24,10.98-6.37.04-12.74.01-21.34.01Z"/>
  <path class="cls-5" d="m255.03,221.27c-5.99-1.34-30.21,4.57-24.58-7.2,1.03-1.61,2.75-2.05,4.52-2.05,13.34-.03,26.68-.07,40.02.03,2.34.02,4.84.48,5.51,3.4,1.36,10.52-18.99,4.23-25.46,5.82Z"/>
  <path class="cls-5" d="m254.7,192.9c-7.19-1.54-22.55,4.1-25.37-4.45-1.1-9.35,37.58-3.2,45.32-4.78,2.4.02,5.11.22,5.85,3.32,1.31,10.59-19.25,4.32-25.8,5.91Z"/>
  <path class="cls-5" d="m255.08,207.08c-7.79-.81-16.83,1.75-24-1.21-6.41-7.46,5.93-8.95,11.2-8.06,10.67,0,21.34-.02,32.02,0,4.35.01,6.22,1.44,6.26,4.57-.89,8.93-18.89,3.14-25.47,4.69Z"/>
</svg>