<svg xmlns="http://www.w3.org/2000/svg" xmlns:xlink="http://www.w3.org/1999/xlink" viewBox="0 0 1702.71 411.19" xmlns:v="https://vecta.io/nano"><style><![CDATA[.N{fill:#fff}.O{fill:#13131a}.P{stroke:#13131a}.Q{stroke-width:4}.R{fill:#4c4d4f}.S{stroke-miterlimit:10}]]></style><defs><clipPath id="A"><path d="M675.88 214.01h303.44c32.02 0 57.98 25.96 57.98 57.98s-25.96 57.98-57.98 57.98H675.88c15.93-14.27 25.98-34.97 25.98-57.98s-10.05-43.72-25.98-57.98zM572.9 272c0 32.03 25.96 57.99 57.99 57.99s57.99-25.96 57.99-57.99-25.96-57.99-57.99-57.99S572.9 239.97 572.9 272z" stroke-width="0" fill="#e10819"/></clipPath><linearGradient id="B" x1="459.05" y1="272.67" x2="922.1" y2="271.54" gradientUnits="userSpaceOnUse"><stop offset="0" stop-color="#c1272d" stop-opacity=".2"/><stop offset="1" stop-color="#fff"/></linearGradient><linearGradient id="C" x1="448.31" y1="71.64" x2="630.89" y2="71.64" xlink:href="#B"/><path id="D" d="M292.92 242.9c.58.39 1.24.59 1.99.59s1.41-.19 1.99-.59c.58-.39 1.04-.95 1.37-1.68.34-.73.5-1.61.5-2.64s-.17-1.91-.5-2.64c-.34-.73-.79-1.29-1.37-1.68s-1.24-.59-1.99-.59-1.41.2-1.99.59-1.04.95-1.37 1.68-.5 1.61-.5 2.64.17 1.91.5 2.64.79 1.29 1.37 1.68zm-.5-6.51c.24-.59.57-1.04 1.01-1.35s.93-.46 1.48-.46 1.07.15 1.49.46.75.76.99 1.35.36 1.32.36 2.19-.12 1.59-.36 2.19-.57 1.04-.99 1.35-.92.46-1.49.46-1.04-.15-1.48-.46c-.43-.31-.77-.76-1.01-1.35s-.36-1.32-.36-2.19.12-1.59.36-2.19zm45.49-1.76h-2.28v-.88h3.27v9.66h-.99v-8.78zm45.17 0h-2.28v-.88h3.27v9.66h-.99v-8.78zm45.35 8.27c.58.39 1.24.59 1.99.59s1.41-.19 1.99-.59c.58-.39 1.04-.95 1.37-1.68.34-.73.5-1.61.5-2.64s-.17-1.91-.5-2.64c-.34-.73-.79-1.29-1.37-1.68s-1.24-.59-1.99-.59-1.41.2-1.99.59-1.04.95-1.37 1.68-.5 1.61-.5 2.64.17 1.91.5 2.64.79 1.29 1.37 1.68zm-.5-6.51c.24-.59.57-1.04 1.01-1.35s.93-.46 1.48-.46 1.07.15 1.49.46.75.76.99 1.35.36 1.32.36 2.19-.12 1.59-.36 2.19-.57 1.04-.99 1.35-.92.46-1.49.46-1.04-.15-1.48-.46c-.43-.31-.77-.76-1.01-1.35s-.36-1.32-.36-2.19.12-1.59.36-2.19zm45.49-1.76h-2.28v-.88h3.27v9.66h-.99v-8.78zm45.17 0h-2.28v-.88h3.27v9.66h-.99v-8.78zm45.35 8.27c.58.39 1.24.59 1.99.59s1.41-.19 1.99-.59c.58-.39 1.04-.95 1.37-1.68.34-.73.5-1.61.5-2.64s-.17-1.91-.5-2.64c-.34-.73-.79-1.29-1.37-1.68s-1.24-.59-1.99-.59-1.41.2-1.99.59-1.04.95-1.37 1.68-.5 1.61-.5 2.64.17 1.91.5 2.64.79 1.29 1.37 1.68zm-.5-6.51c.24-.59.57-1.04 1.01-1.35s.93-.46 1.48-.46 1.07.15 1.49.46.75.76.99 1.35.36 1.32.36 2.19-.12 1.59-.36 2.19-.57 1.04-.99 1.35-.92.46-1.49.46-1.04-.15-1.48-.46c-.43-.31-.77-.76-1.01-1.35s-.36-1.32-.36-2.19.12-1.59.36-2.19zm45.67 6.51c.58.39 1.24.59 1.99.59s1.41-.19 1.99-.59c.58-.39 1.04-.95 1.37-1.68.34-.73.5-1.61.5-2.64s-.17-1.91-.5-2.64c-.34-.73-.79-1.29-1.37-1.68s-1.24-.59-1.99-.59-1.41.2-1.99.59-1.04.95-1.37 1.68-.5 1.61-.5 2.64.17 1.91.5 2.64.79 1.29 1.37 1.68zm-.5-6.51c.24-.59.57-1.04 1.01-1.35s.93-.46 1.48-.46 1.07.15 1.49.46.75.76.99 1.35.36 1.32.36 2.19-.12 1.59-.36 2.19-.57 1.04-.99 1.35-.92.46-1.49.46-1.04-.15-1.48-.46c-.43-.31-.77-.76-1.01-1.35s-.36-1.32-.36-2.19.12-1.59.36-2.19zm45.67 6.51c.58.39 1.24.59 1.99.59s1.41-.19 1.99-.59c.58-.39 1.04-.95 1.37-1.68.34-.73.5-1.61.5-2.64s-.17-1.91-.5-2.64c-.34-.73-.79-1.29-1.37-1.68s-1.24-.59-1.99-.59-1.41.2-1.99.59-1.04.95-1.37 1.68-.5 1.61-.5 2.64.17 1.91.5 2.64.79 1.29 1.37 1.68zm-.5-6.51c.24-.59.57-1.04 1.01-1.35s.93-.46 1.48-.46 1.07.15 1.49.46.75.76.99 1.35.36 1.32.36 2.19-.12 1.59-.36 2.19-.57 1.04-.99 1.35-.92.46-1.49.46-1.04-.15-1.48-.46c-.43-.31-.77-.76-1.01-1.35s-.36-1.32-.36-2.19.12-1.59.36-2.19zm45.49-1.76h-2.28v-.88h3.27v9.66h-.99v-8.78zm45.35 8.27c.58.39 1.24.59 1.99.59s1.41-.19 1.99-.59c.58-.39 1.04-.95 1.37-1.68.34-.73.5-1.61.5-2.64s-.17-1.91-.5-2.64-.79-1.29-1.37-1.68-1.24-.59-1.99-.59-1.41.2-1.99.59-1.04.95-1.37 1.68-.5 1.61-.5 2.64.17 1.91.5 2.64.79 1.29 1.37 1.68zm-.5-6.51c.24-.59.57-1.04 1.01-1.35s.92-.46 1.48-.46 1.07.15 1.49.46.75.76.99 1.35.36 1.32.36 2.19-.12 1.59-.36 2.19-.57 1.04-.99 1.35-.92.46-1.49.46-1.04-.15-1.48-.46c-.43-.31-.77-.76-1.01-1.35s-.36-1.32-.36-2.19.12-1.59.36-2.19zm45.49-1.76h-2.28v-.88h3.27v9.66h-.99v-8.78zm45.35 8.27c.58.39 1.24.59 1.99.59s1.41-.19 1.99-.59c.58-.39 1.04-.95 1.37-1.68.34-.73.5-1.61.5-2.64s-.17-1.91-.5-2.64-.79-1.29-1.37-1.68-1.24-.59-1.99-.59-1.41.2-1.99.59-1.04.95-1.37 1.68-.5 1.61-.5 2.64.17 1.91.5 2.64.79 1.29 1.37 1.68zm-.5-6.51c.24-.59.57-1.04 1.01-1.35s.92-.46 1.48-.46 1.07.15 1.49.46.75.76.99 1.35.36 1.32.36 2.19-.12 1.59-.36 2.19c-.24.59-.57 1.04-.99 1.35s-.92.46-1.49.46-1.04-.15-1.48-.46c-.43-.31-.77-.76-1.01-1.35s-.36-1.32-.36-2.19.12-1.59.36-2.19zm45.67 6.51c.58.39 1.24.59 1.99.59s1.41-.19 1.99-.59c.58-.39 1.04-.95 1.37-1.68.34-.73.5-1.61.5-2.64s-.17-1.91-.5-2.64-.79-1.29-1.37-1.68-1.24-.59-1.99-.59-1.41.2-1.99.59-1.04.95-1.37 1.68-.5 1.61-.5 2.64.17 1.91.5 2.64.79 1.29 1.37 1.68zm-.5-6.51c.24-.59.57-1.04 1.01-1.35s.92-.46 1.48-.46 1.07.15 1.49.46.75.76.99 1.35.36 1.32.36 2.19-.12 1.59-.36 2.19-.57 1.04-.99 1.35-.92.46-1.49.46-1.04-.15-1.48-.46c-.43-.31-.77-.76-1.01-1.35s-.36-1.32-.36-2.19.12-1.59.36-2.19zm45.49-1.76h-2.28v-.88h3.27v9.66h-.99v-8.78zm45.35 8.27c.58.39 1.24.59 1.99.59s1.41-.19 1.99-.59c.58-.39 1.04-.95 1.37-1.68.34-.73.5-1.61.5-2.64s-.17-1.91-.5-2.64-.79-1.29-1.37-1.68-1.24-.59-1.99-.59-1.41.2-1.99.59-1.04.95-1.37 1.68-.5 1.61-.5 2.64.17 1.91.5 2.64.79 1.29 1.37 1.68zm-.5-6.51c.24-.59.57-1.04 1.01-1.35s.92-.46 1.48-.46 1.07.15 1.49.46.75.76.99 1.35.36 1.32.36 2.19-.12 1.59-.36 2.19-.57 1.04-.99 1.35-.92.46-1.49.46-1.04-.15-1.48-.46c-.43-.31-.77-.76-1.01-1.35s-.36-1.32-.36-2.19.12-1.59.36-2.19zm45.49-1.76h-2.28v-.88h3.27v9.66h-.99v-8.78zm45.17 0h-2.28v-.88h3.27v9.66h-.99v-8.78zm45.17 0h-2.28v-.88h3.27v9.66h-.99v-8.78zm45.17 0h-2.28v-.88h3.27v9.66h-.99v-8.78zm45.35 8.27c.58.39 1.24.59 1.99.59s1.41-.19 1.99-.59c.58-.39 1.04-.95 1.37-1.68.34-.73.5-1.61.5-2.64s-.17-1.91-.5-2.64-.79-1.29-1.37-1.68-1.24-.59-1.99-.59-1.41.2-1.99.59-1.04.95-1.37 1.68-.5 1.61-.5 2.64.17 1.91.5 2.64.79 1.29 1.37 1.68zm-.5-6.51c.24-.59.57-1.04 1.01-1.35s.92-.46 1.48-.46 1.07.15 1.49.46.75.76.99 1.35.36 1.32.36 2.19-.12 1.59-.36 2.19-.57 1.04-.99 1.35-.92.46-1.49.46-1.04-.15-1.48-.46c-.43-.31-.77-.76-1.01-1.35s-.36-1.32-.36-2.19.12-1.59.36-2.19zm45.49-1.76h-2.28v-.88h3.27v9.66h-.99v-8.78zm-948.42 8.27c.58.39 1.24.59 1.99.59s1.41-.19 1.99-.59c.58-.39 1.04-.95 1.37-1.68.34-.73.5-1.61.5-2.64s-.17-1.91-.5-2.64c-.34-.73-.79-1.29-1.37-1.68s-1.24-.59-1.99-.59-1.41.2-1.99.59-1.04.95-1.37 1.68-.5 1.61-.5 2.64.17 1.91.5 2.64.79 1.29 1.37 1.68zm-.5-6.51c.24-.59.57-1.04 1.01-1.35s.93-.46 1.48-.46 1.07.15 1.49.46.75.76.99 1.35.36 1.32.36 2.19-.12 1.59-.36 2.19-.57 1.04-.99 1.35-.92.46-1.49.46-1.04-.15-1.48-.46c-.43-.31-.77-.76-1.01-1.35s-.36-1.32-.36-2.19.12-1.59.36-2.19zm45.49-1.76h-2.28v-.88h3.27v9.66h-.99v-8.78zm45.17 0h-2.28v-.88h3.27v9.66h-.99v-8.78zm45.35 8.27c.58.39 1.24.59 1.99.59s1.41-.19 1.99-.59c.58-.39 1.04-.95 1.37-1.68.34-.73.5-1.61.5-2.64s-.17-1.91-.5-2.64c-.34-.73-.79-1.29-1.37-1.68s-1.24-.59-1.99-.59-1.41.2-1.99.59-1.04.95-1.37 1.68-.5 1.61-.5 2.64.17 1.91.5 2.64.79 1.29 1.37 1.68zm-.5-6.51c.24-.59.57-1.04 1.01-1.35s.93-.46 1.48-.46 1.07.15 1.49.46.75.76.99 1.35.36 1.32.36 2.19-.12 1.59-.36 2.19-.57 1.04-.99 1.35-.92.46-1.49.46-1.04-.15-1.48-.46c-.43-.31-.77-.76-1.01-1.35s-.36-1.32-.36-2.19.12-1.59.36-2.19zm45.49-1.76h-2.28v-.88h3.27v9.66h-.99v-8.78zm45.17 0h-2.28v-.88h3.27v9.66h-.99v-8.78zm45.35 8.27c.58.39 1.24.59 1.99.59s1.41-.19 1.99-.59c.58-.39 1.04-.95 1.37-1.68.34-.73.5-1.61.5-2.64s-.17-1.91-.5-2.64c-.34-.73-.79-1.29-1.37-1.68s-1.24-.59-1.99-.59-1.41.2-1.99.59-1.04.95-1.37 1.68-.5 1.61-.5 2.64.17 1.91.5 2.64.79 1.29 1.37 1.68zm-.5-6.51c.24-.59.57-1.04 1.01-1.35s.93-.46 1.48-.46 1.07.15 1.49.46.75.76.99 1.35.36 1.32.36 2.19-.12 1.59-.36 2.19-.57 1.04-.99 1.35-.92.46-1.49.46-1.04-.15-1.48-.46c-.43-.31-.77-.76-1.01-1.35s-.36-1.32-.36-2.19.12-1.59.36-2.19zm45.67 6.51c.58.39 1.24.59 1.99.59s1.41-.19 1.99-.59c.58-.39 1.04-.95 1.37-1.68.34-.73.5-1.61.5-2.64s-.17-1.91-.5-2.64c-.34-.73-.79-1.29-1.37-1.68s-1.24-.59-1.99-.59-1.41.2-1.99.59-1.04.95-1.37 1.68-.5 1.61-.5 2.64.17 1.91.5 2.64.79 1.29 1.37 1.68zm-.5-6.51c.24-.59.57-1.04 1.01-1.35s.93-.46 1.48-.46 1.07.15 1.49.46.75.76.99 1.35.36 1.32.36 2.19-.12 1.59-.36 2.19-.57 1.04-.99 1.35-.92.46-1.49.46-1.04-.15-1.48-.46c-.43-.31-.77-.76-1.01-1.35s-.36-1.32-.36-2.19.12-1.59.36-2.19zm45.67 6.51c.58.39 1.24.59 1.99.59s1.41-.19 1.99-.59c.58-.39 1.04-.95 1.37-1.68.34-.73.5-1.61.5-2.64s-.17-1.91-.5-2.64c-.34-.73-.79-1.29-1.37-1.68s-1.24-.59-1.99-.59-1.41.2-1.99.59-1.04.95-1.37 1.68-.5 1.61-.5 2.64.17 1.91.5 2.64.79 1.29 1.37 1.68zm-.5-6.51c.24-.59.57-1.04 1.01-1.35s.93-.46 1.48-.46 1.07.15 1.49.46.75.76.99 1.35.36 1.32.36 2.19-.12 1.59-.36 2.19-.57 1.04-.99 1.35-.92.46-1.49.46-1.04-.15-1.48-.46c-.43-.31-.77-.76-1.01-1.35s-.36-1.32-.36-2.19.12-1.59.36-2.19zm45.49-1.76h-2.28v-.88h3.27v9.66h-.99v-8.78zm45.35 8.27c.58.39 1.24.59 1.99.59s1.41-.19 1.99-.59c.58-.39 1.04-.95 1.37-1.68.34-.73.5-1.61.5-2.64s-.17-1.91-.5-2.64-.79-1.29-1.37-1.68-1.24-.59-1.99-.59-1.41.2-1.99.59-1.04.95-1.37 1.68-.5 1.61-.5 2.64.17 1.91.5 2.64.79 1.29 1.37 1.68zm-.5-6.51c.24-.59.57-1.04 1.01-1.35s.92-.46 1.48-.46 1.07.15 1.49.46.75.76.99 1.35.36 1.32.36 2.19-.12 1.59-.36 2.19-.57 1.04-.99 1.35-.92.46-1.49.46-1.04-.15-1.48-.46c-.43-.31-.77-.76-1.01-1.35s-.36-1.32-.36-2.19.12-1.59.36-2.19zm45.49-1.76h-2.28v-.88h3.27v9.66h-.99v-8.78zm45.35 8.27c.58.39 1.24.59 1.99.59s1.41-.19 1.99-.59c.58-.39 1.04-.95 1.37-1.68.34-.73.5-1.61.5-2.64s-.17-1.91-.5-2.64-.79-1.29-1.37-1.68-1.24-.59-1.99-.59-1.41.2-1.99.59-1.04.95-1.37 1.68-.5 1.61-.5 2.64.17 1.91.5 2.64.79 1.29 1.37 1.68zm-.5-6.51c.24-.59.57-1.04 1.01-1.35s.92-.46 1.48-.46 1.07.15 1.49.46.75.76.99 1.35.36 1.32.36 2.19-.12 1.59-.36 2.19c-.24.59-.57 1.04-.99 1.35s-.92.46-1.49.46-1.04-.15-1.48-.46c-.43-.31-.77-.76-1.01-1.35s-.36-1.32-.36-2.19.12-1.59.36-2.19zm45.67 6.51c.58.39 1.24.59 1.99.59s1.41-.19 1.99-.59c.58-.39 1.04-.95 1.37-1.68.34-.73.5-1.61.5-2.64s-.17-1.91-.5-2.64-.79-1.29-1.37-1.68-1.24-.59-1.99-.59-1.41.2-1.99.59-1.04.95-1.37 1.68-.5 1.61-.5 2.64.17 1.91.5 2.64.79 1.29 1.37 1.68zm-.5-6.51c.24-.59.57-1.04 1.01-1.35s.92-.46 1.48-.46 1.07.15 1.49.46.75.76.99 1.35.36 1.32.36 2.19-.12 1.59-.36 2.19-.57 1.04-.99 1.35-.92.46-1.49.46-1.04-.15-1.48-.46c-.43-.31-.77-.76-1.01-1.35s-.36-1.32-.36-2.19.12-1.59.36-2.19zm45.49-1.76h-2.28v-.88h3.27v9.66h-.99v-8.78zm45.35 8.27c.58.39 1.24.59 1.99.59s1.41-.19 1.99-.59c.58-.39 1.04-.95 1.37-1.68.34-.73.5-1.61.5-2.64s-.17-1.91-.5-2.64-.79-1.29-1.37-1.68-1.24-.59-1.99-.59-1.41.2-1.99.59-1.04.95-1.37 1.68-.5 1.61-.5 2.64.17 1.91.5 2.64.79 1.29 1.37 1.68zm-.5-6.51c.24-.59.57-1.04 1.01-1.35s.92-.46 1.48-.46 1.07.15 1.49.46.75.76.99 1.35.36 1.32.36 2.19-.12 1.59-.36 2.19-.57 1.04-.99 1.35-.92.46-1.49.46-1.04-.15-1.48-.46c-.43-.31-.77-.76-1.01-1.35s-.36-1.32-.36-2.19.12-1.59.36-2.19zm45.49-1.76h-2.28v-.88h3.27v9.66h-.99v-8.78zm45.17 0h-2.28v-.88h3.27v9.66h-.99v-8.78zm45.17 0h-2.28v-.88h3.27v9.66h-.99v-8.78zm45.17 0h-2.28v-.88h3.27v9.66h-.99v-8.78zm45.35 8.27c.58.39 1.24.59 1.99.59s1.41-.19 1.99-.59c.58-.39 1.04-.95 1.37-1.68.34-.73.5-1.61.5-2.64s-.17-1.91-.5-2.64-.79-1.29-1.37-1.68-1.24-.59-1.99-.59-1.41.2-1.99.59-1.04.95-1.37 1.68-.5 1.61-.5 2.64.17 1.91.5 2.64.79 1.29 1.37 1.68zm-.5-6.51c.24-.59.57-1.04 1.01-1.35s.92-.46 1.48-.46 1.07.15 1.49.46.75.76.99 1.35.36 1.32.36 2.19-.12 1.59-.36 2.19-.57 1.04-.99 1.35-.92.46-1.49.46-1.04-.15-1.48-.46c-.43-.31-.77-.76-1.01-1.35s-.36-1.32-.36-2.19.12-1.59.36-2.19zm45.49-1.76H1239v-.88h3.27v9.66h-.99v-8.78zm-964.33-14.01c.58.39 1.24.59 1.99.59s1.41-.19 1.99-.59c.58-.39 1.04-.95 1.37-1.68.34-.73.5-1.61.5-2.64s-.17-1.91-.5-2.64c-.34-.73-.79-1.29-1.37-1.68s-1.24-.59-1.99-.59-1.41.2-1.99.59-1.04.95-1.37 1.68-.5 1.61-.5 2.64.17 1.91.5 2.64.79 1.29 1.37 1.68zm-.5-6.51c.24-.59.57-1.04 1.01-1.35s.93-.46 1.48-.46 1.07.15 1.49.46.75.76.99 1.35.36 1.32.36 2.19-.12 1.59-.36 2.19-.57 1.04-.99 1.35-.92.46-1.49.46-1.04-.15-1.48-.46c-.43-.31-.77-.76-1.01-1.35s-.36-1.32-.36-2.19.12-1.59.36-2.19zm45.49-1.76h-2.28v-.88h3.27v9.66h-.99v-8.78zm45.17 0h-2.28v-.88h3.27v9.66h-.99v-8.78zm45.35 8.27c.58.39 1.24.59 1.99.59s1.41-.19 1.99-.59c.58-.39 1.04-.95 1.37-1.68.34-.73.5-1.61.5-2.64s-.17-1.91-.5-2.64c-.34-.73-.79-1.29-1.37-1.68s-1.24-.59-1.99-.59-1.41.2-1.99.59-1.04.95-1.37 1.68-.5 1.61-.5 2.64.17 1.91.5 2.64.79 1.29 1.37 1.68zm-.5-6.51c.24-.59.57-1.04 1.01-1.35s.93-.46 1.48-.46 1.07.15 1.49.46.75.76.99 1.35.36 1.32.36 2.19-.12 1.59-.36 2.19-.57 1.04-.99 1.35-.92.46-1.49.46-1.04-.15-1.48-.46c-.43-.31-.77-.76-1.01-1.35s-.36-1.32-.36-2.19.12-1.59.36-2.19zm45.49-1.76h-2.28v-.88h3.27v9.66h-.99v-8.78zm45.17 0h-2.28v-.88h3.27v9.66h-.99v-8.78zm45.35 8.27c.58.39 1.24.59 1.99.59s1.41-.19 1.99-.59c.58-.39 1.04-.95 1.37-1.68.34-.73.5-1.61.5-2.64s-.17-1.91-.5-2.64c-.34-.73-.79-1.29-1.37-1.68s-1.24-.59-1.99-.59-1.41.2-1.99.59-1.04.95-1.37 1.68-.5 1.61-.5 2.64.17 1.91.5 2.64.79 1.29 1.37 1.68zm-.5-6.51c.24-.59.57-1.04 1.01-1.35s.93-.46 1.48-.46 1.07.15 1.49.46.75.76.99 1.35.36 1.32.36 2.19-.12 1.59-.36 2.19-.57 1.04-.99 1.35-.92.46-1.49.46-1.04-.15-1.48-.46c-.43-.31-.77-.76-1.01-1.35s-.36-1.32-.36-2.19.12-1.59.36-2.19zm45.67 6.51c.58.39 1.24.59 1.99.59s1.41-.19 1.99-.59c.58-.39 1.04-.95 1.37-1.68.34-.73.5-1.61.5-2.64s-.17-1.91-.5-2.64c-.34-.73-.79-1.29-1.37-1.68s-1.24-.59-1.99-.59-1.41.2-1.99.59-1.04.95-1.37 1.68-.5 1.61-.5 2.64.17 1.91.5 2.64.79 1.29 1.37 1.68zm-.5-6.51c.24-.59.57-1.04 1.01-1.35s.93-.46 1.48-.46 1.07.15 1.49.46.75.76.99 1.35.36 1.32.36 2.19-.12 1.59-.36 2.19-.57 1.04-.99 1.35-.92.46-1.49.46-1.04-.15-1.48-.46c-.43-.31-.77-.76-1.01-1.35s-.36-1.32-.36-2.19.12-1.59.36-2.19zm45.67 6.51c.58.39 1.24.59 1.99.59s1.41-.19 1.99-.59c.58-.39 1.04-.95 1.37-1.68.34-.73.5-1.61.5-2.64s-.17-1.91-.5-2.64c-.34-.73-.79-1.29-1.37-1.68s-1.24-.59-1.99-.59-1.41.2-1.99.59-1.04.95-1.37 1.68-.5 1.61-.5 2.64.17 1.91.5 2.64.79 1.29 1.37 1.68zm-.5-6.51c.24-.59.57-1.04 1.01-1.35s.93-.46 1.48-.46 1.07.15 1.49.46.75.76.99 1.35.36 1.32.36 2.19-.12 1.59-.36 2.19-.57 1.04-.99 1.35-.92.46-1.49.46-1.04-.15-1.48-.46c-.43-.31-.77-.76-1.01-1.35s-.36-1.32-.36-2.19.12-1.59.36-2.19zm45.49-1.76h-2.28v-.88h3.27v9.66h-.99v-8.78zm45.35 8.27c.58.39 1.24.59 1.99.59s1.41-.19 1.99-.59c.58-.39 1.04-.95 1.37-1.68.34-.73.5-1.61.5-2.64s-.17-1.91-.5-2.64-.79-1.29-1.37-1.68-1.24-.59-1.99-.59-1.41.2-1.99.59-1.04.95-1.37 1.68-.5 1.61-.5 2.64.17 1.91.5 2.64.79 1.29 1.37 1.68zm-.5-6.51c.24-.59.57-1.04 1.01-1.35s.92-.46 1.48-.46 1.07.15 1.49.46.75.76.99 1.35.36 1.32.36 2.19-.12 1.59-.36 2.19c-.24.59-.57 1.04-.99 1.35s-.92.46-1.49.46-1.04-.15-1.48-.46c-.43-.31-.77-.76-1.01-1.35s-.36-1.32-.36-2.19.12-1.59.36-2.19zm45.49-1.76h-2.28v-.88h3.27v9.66h-.99v-8.78zm45.35 8.27c.58.39 1.24.59 1.99.59s1.41-.19 1.99-.59c.58-.39 1.04-.95 1.37-1.68.34-.73.5-1.61.5-2.64s-.17-1.91-.5-2.64-.79-1.29-1.37-1.68-1.24-.59-1.99-.59-1.41.2-1.99.59-1.04.95-1.37 1.68-.5 1.61-.5 2.64.17 1.91.5 2.64.79 1.29 1.37 1.68zm-.5-6.51c.24-.59.57-1.04 1.01-1.35s.92-.46 1.48-.46 1.07.15 1.49.46.75.76.99 1.35.36 1.32.36 2.19-.12 1.59-.36 2.19-.57 1.04-.99 1.35-.92.46-1.49.46-1.04-.15-1.48-.46c-.43-.31-.77-.76-1.01-1.35s-.36-1.32-.36-2.19.12-1.59.36-2.19zm45.67 6.51c.58.39 1.24.59 1.99.59s1.41-.19 1.99-.59c.58-.39 1.04-.95 1.37-1.68.34-.73.5-1.61.5-2.64s-.17-1.91-.5-2.64-.79-1.29-1.37-1.68-1.24-.59-1.99-.59-1.41.2-1.99.59-1.04.95-1.37 1.68-.5 1.61-.5 2.64.17 1.91.5 2.64.79 1.29 1.37 1.68zm-.5-6.51c.24-.59.57-1.04 1.01-1.35s.92-.46 1.48-.46 1.07.15 1.49.46.75.76.99 1.35.36 1.32.36 2.19-.12 1.59-.36 2.19-.57 1.04-.99 1.35-.92.46-1.49.46-1.04-.15-1.48-.46c-.43-.31-.77-.76-1.01-1.35s-.36-1.32-.36-2.19.12-1.59.36-2.19zm45.49-1.76h-2.28v-.88h3.27v9.66h-.99v-8.78zm45.35 8.27c.58.39 1.24.59 1.99.59s1.41-.19 1.99-.59c.58-.39 1.04-.95 1.37-1.68.34-.73.5-1.61.5-2.64s-.17-1.91-.5-2.64-.79-1.29-1.37-1.68-1.24-.59-1.99-.59-1.41.2-1.99.59-1.04.95-1.37 1.68-.5 1.61-.5 2.64.17 1.91.5 2.64.79 1.29 1.37 1.68zm-.5-6.51c.24-.59.57-1.04 1.01-1.35s.92-.46 1.48-.46 1.07.15 1.49.46.75.76.99 1.35.36 1.32.36 2.19-.12 1.59-.36 2.19-.57 1.04-.99 1.35-.92.46-1.49.46-1.04-.15-1.48-.46c-.43-.31-.77-.76-1.01-1.35s-.36-1.32-.36-2.19.12-1.59.36-2.19zm45.49-1.76h-2.28v-.88h3.27v9.66h-.99v-8.78zm45.17 0h-2.28v-.88h3.27v9.66h-.99v-8.78zm45.17 0h-2.28v-.88h3.27v9.66h-.99v-8.78zm45.17 0h-2.28v-.88h3.27v9.66h-.99v-8.78zm45.35 8.27c.58.39 1.24.59 1.99.59s1.41-.19 1.99-.59c.58-.39 1.04-.95 1.37-1.68.34-.73.5-1.61.5-2.64s-.17-1.91-.5-2.64-.79-1.29-1.37-1.68-1.24-.59-1.99-.59-1.41.2-1.99.59-1.04.95-1.37 1.68-.5 1.61-.5 2.64.17 1.91.5 2.64.79 1.29 1.37 1.68zm-.5-6.51c.24-.59.57-1.04 1.01-1.35s.92-.46 1.48-.46 1.07.15 1.49.46.75.76.99 1.35.36 1.32.36 2.19-.12 1.59-.36 2.19-.57 1.04-.99 1.35-.92.46-1.49.46-1.04-.15-1.48-.46c-.43-.31-.77-.76-1.01-1.35s-.36-1.32-.36-2.19.12-1.59.36-2.19zm45.49-1.76h-2.28v-.88h3.27v9.66h-.99v-8.78zm-948.42 8.27c.58.39 1.24.59 1.99.59s1.41-.19 1.99-.59c.58-.39 1.04-.95 1.37-1.68.34-.73.5-1.61.5-2.64s-.17-1.91-.5-2.64c-.34-.73-.79-1.29-1.37-1.68s-1.24-.59-1.99-.59-1.41.2-1.99.59-1.04.95-1.37 1.68-.5 1.61-.5 2.64.17 1.91.5 2.64.79 1.29 1.37 1.68zm-.5-6.51c.24-.59.57-1.04 1.01-1.35s.93-.46 1.48-.46 1.07.15 1.49.46.75.76.99 1.35.36 1.32.36 2.19-.12 1.59-.36 2.19-.57 1.04-.99 1.35-.92.46-1.49.46-1.04-.15-1.48-.46c-.43-.31-.77-.76-1.01-1.35s-.36-1.32-.36-2.19.12-1.59.36-2.19zm45.49-1.76h-2.28v-.88h3.27v9.66h-.99v-8.78zm45.17 0h-2.28v-.88h3.27v9.66h-.99v-8.78zm45.35 8.27c.58.39 1.24.59 1.99.59s1.41-.19 1.99-.59c.58-.39 1.04-.95 1.37-1.68.34-.73.5-1.61.5-2.64s-.17-1.91-.5-2.64c-.34-.73-.79-1.29-1.37-1.68s-1.24-.59-1.99-.59-1.41.2-1.99.59-1.04.95-1.37 1.68-.5 1.61-.5 2.64.17 1.91.5 2.64.79 1.29 1.37 1.68zm-.5-6.51c.24-.59.57-1.04 1.01-1.35s.93-.46 1.48-.46 1.07.15 1.49.46.75.76.99 1.35.36 1.32.36 2.19-.12 1.59-.36 2.19-.57 1.04-.99 1.35-.92.46-1.49.46-1.04-.15-1.48-.46c-.43-.31-.77-.76-1.01-1.35s-.36-1.32-.36-2.19.12-1.59.36-2.19zm45.49-1.76h-2.28v-.88h3.27v9.66h-.99v-8.78zm45.17 0h-2.28v-.88h3.27v9.66h-.99v-8.78zm45.35 8.27c.58.39 1.24.59 1.99.59s1.41-.19 1.99-.59c.58-.39 1.04-.95 1.37-1.68.34-.73.5-1.61.5-2.64s-.17-1.91-.5-2.64c-.34-.73-.79-1.29-1.37-1.68s-1.24-.59-1.99-.59-1.41.2-1.99.59-1.04.95-1.37 1.68-.5 1.61-.5 2.64.17 1.91.5 2.64.79 1.29 1.37 1.68zm-.5-6.51c.24-.59.57-1.04 1.01-1.35s.93-.46 1.48-.46 1.07.15 1.49.46.75.76.99 1.35.36 1.32.36 2.19-.12 1.59-.36 2.19-.57 1.04-.99 1.35-.92.46-1.49.46-1.04-.15-1.48-.46c-.43-.31-.77-.76-1.01-1.35s-.36-1.32-.36-2.19.12-1.59.36-2.19zm45.67 6.51c.58.39 1.24.59 1.99.59s1.41-.19 1.99-.59c.58-.39 1.04-.95 1.37-1.68.34-.73.5-1.61.5-2.64s-.17-1.91-.5-2.64c-.34-.73-.79-1.29-1.37-1.68s-1.24-.59-1.99-.59-1.41.2-1.99.59-1.04.95-1.37 1.68-.5 1.61-.5 2.64.17 1.91.5 2.64.79 1.29 1.37 1.68zm-.5-6.51c.24-.59.57-1.04 1.01-1.35s.93-.46 1.48-.46 1.07.15 1.49.46.75.76.99 1.35.36 1.32.36 2.19-.12 1.59-.36 2.19-.57 1.04-.99 1.35-.92.46-1.49.46-1.04-.15-1.48-.46c-.43-.31-.77-.76-1.01-1.35s-.36-1.32-.36-2.19.12-1.59.36-2.19zm45.67 6.51c.58.39 1.24.59 1.99.59s1.41-.19 1.99-.59c.58-.39 1.04-.95 1.37-1.68.34-.73.5-1.61.5-2.64s-.17-1.91-.5-2.64c-.34-.73-.79-1.29-1.37-1.68s-1.24-.59-1.99-.59-1.41.2-1.99.59-1.04.95-1.37 1.68-.5 1.61-.5 2.64.17 1.91.5 2.64.79 1.29 1.37 1.68zm-.5-6.51c.24-.59.57-1.04 1.01-1.35s.93-.46 1.48-.46 1.07.15 1.49.46.75.76.99 1.35.36 1.32.36 2.19-.12 1.59-.36 2.19-.57 1.04-.99 1.35-.92.46-1.49.46-1.04-.15-1.48-.46c-.43-.31-.77-.76-1.01-1.35s-.36-1.32-.36-2.19.12-1.59.36-2.19zm45.49-1.76h-2.28v-.88h3.27v9.66h-.99v-8.78zm45.35 8.27c.58.39 1.24.59 1.99.59s1.41-.19 1.99-.59c.58-.39 1.04-.95 1.37-1.68.34-.73.5-1.61.5-2.64s-.17-1.91-.5-2.64-.79-1.29-1.37-1.68-1.24-.59-1.99-.59-1.41.2-1.99.59-1.04.95-1.37 1.68-.5 1.61-.5 2.64.17 1.91.5 2.64.79 1.29 1.37 1.68zm-.5-6.51c.24-.59.57-1.04 1.01-1.35s.92-.46 1.48-.46 1.07.15 1.49.46.75.76.99 1.35.36 1.32.36 2.19-.12 1.59-.36 2.19c-.24.59-.57 1.04-.99 1.35s-.92.46-1.49.46-1.04-.15-1.48-.46c-.43-.31-.77-.76-1.01-1.35s-.36-1.32-.36-2.19.12-1.59.36-2.19zm45.49-1.76h-2.28v-.88h3.27v9.66h-.99v-8.78zm45.35 8.27c.58.39 1.24.59 1.99.59s1.41-.19 1.99-.59c.58-.39 1.04-.95 1.37-1.68.34-.73.5-1.61.5-2.64s-.17-1.91-.5-2.64-.79-1.29-1.37-1.68-1.24-.59-1.99-.59-1.41.2-1.99.59-1.04.95-1.37 1.68-.5 1.61-.5 2.64.17 1.91.5 2.64.79 1.29 1.37 1.68zm-.5-6.51c.24-.59.57-1.04 1.01-1.35s.92-.46 1.48-.46 1.07.15 1.49.46.75.76.99 1.35.36 1.32.36 2.19-.12 1.59-.36 2.19-.57 1.04-.99 1.35-.92.46-1.49.46-1.04-.15-1.48-.46c-.43-.31-.77-.76-1.01-1.35s-.36-1.32-.36-2.19.12-1.59.36-2.19zm45.67 6.51c.58.39 1.24.59 1.99.59s1.41-.19 1.99-.59c.58-.39 1.04-.95 1.37-1.68.34-.73.5-1.61.5-2.64s-.17-1.91-.5-2.64-.79-1.29-1.37-1.68-1.24-.59-1.99-.59-1.41.2-1.99.59-1.04.95-1.37 1.68-.5 1.61-.5 2.64.17 1.91.5 2.64.79 1.29 1.37 1.68zm-.5-6.51c.24-.59.57-1.04 1.01-1.35s.92-.46 1.48-.46 1.07.15 1.49.46.75.76.99 1.35.36 1.32.36 2.19-.12 1.59-.36 2.19-.57 1.04-.99 1.35-.92.46-1.49.46-1.04-.15-1.48-.46c-.43-.31-.77-.76-1.01-1.35s-.36-1.32-.36-2.19.12-1.59.36-2.19zm45.49-1.76h-2.28v-.88h3.27v9.66h-.99v-8.78zm45.35 8.27c.58.39 1.24.59 1.99.59s1.41-.19 1.99-.59c.58-.39 1.04-.95 1.37-1.68.34-.73.5-1.61.5-2.64s-.17-1.91-.5-2.64-.79-1.29-1.37-1.68-1.24-.59-1.99-.59-1.41.2-1.99.59-1.04.95-1.37 1.68-.5 1.61-.5 2.64.17 1.91.5 2.64.79 1.29 1.37 1.68zm-.5-6.51c.24-.59.57-1.04 1.01-1.35s.92-.46 1.48-.46 1.07.15 1.49.46.75.76.99 1.35.36 1.32.36 2.19-.12 1.59-.36 2.19-.57 1.04-.99 1.35-.92.46-1.49.46-1.04-.15-1.48-.46c-.43-.31-.77-.76-1.01-1.35s-.36-1.32-.36-2.19.12-1.59.36-2.19zm45.49-1.76h-2.28v-.88h3.27v9.66h-.99v-8.78zm45.17 0h-2.28v-.88h3.27v9.66h-.99v-8.78zm45.17 0h-2.28v-.88h3.27v9.66h-.99v-8.78zm45.17 0h-2.28v-.88h3.27v9.66h-.99v-8.78zm45.35 8.27c.58.39 1.24.59 1.99.59s1.41-.19 1.99-.59c.58-.39 1.04-.95 1.37-1.68.34-.73.5-1.61.5-2.64s-.17-1.91-.5-2.64-.79-1.29-1.37-1.68-1.24-.59-1.99-.59-1.41.2-1.99.59-1.04.95-1.37 1.68-.5 1.61-.5 2.64.17 1.91.5 2.64.79 1.29 1.37 1.68zm-.5-6.51c.24-.59.57-1.04 1.01-1.35s.92-.46 1.48-.46 1.07.15 1.49.46.75.76.99 1.35.36 1.32.36 2.19-.12 1.59-.36 2.19-.57 1.04-.99 1.35-.92.46-1.49.46-1.04-.15-1.48-.46c-.43-.31-.77-.76-1.01-1.35s-.36-1.32-.36-2.19.12-1.59.36-2.19zm45.49-1.76h-2.28v-.88h3.27v9.66h-.99v-8.78zM276.89 332.02c.58.39 1.24.59 1.99.59s1.41-.19 1.99-.59c.58-.39 1.04-.95 1.37-1.68.34-.73.5-1.61.5-2.64s-.17-1.91-.5-2.64c-.34-.73-.79-1.29-1.37-1.68s-1.24-.59-1.99-.59-1.41.2-1.99.59-1.04.95-1.37 1.68-.5 1.61-.5 2.64.17 1.91.5 2.64.79 1.29 1.37 1.68zm-.5-6.51c.24-.59.57-1.04 1.01-1.35s.93-.46 1.48-.46 1.07.15 1.49.46.75.76.99 1.35.36 1.32.36 2.19-.12 1.59-.36 2.19-.57 1.04-.99 1.35-.92.46-1.49.46-1.04-.15-1.48-.46c-.43-.31-.77-.76-1.01-1.35s-.36-1.32-.36-2.19.12-1.59.36-2.19zm45.49-1.76h-2.28v-.88h3.27v9.66h-.99v-8.78zm45.17 0h-2.28v-.88h3.27v9.66h-.99v-8.78zm45.35 8.27c.58.39 1.24.59 1.99.59s1.41-.19 1.99-.59c.58-.39 1.04-.95 1.37-1.68.34-.73.5-1.61.5-2.64s-.17-1.91-.5-2.64c-.34-.73-.79-1.29-1.37-1.68s-1.24-.59-1.99-.59-1.41.2-1.99.59-1.04.95-1.37 1.68-.5 1.61-.5 2.64.17 1.91.5 2.64.79 1.29 1.37 1.68zm-.5-6.51c.24-.59.57-1.04 1.01-1.35s.93-.46 1.48-.46 1.07.15 1.49.46.75.76.99 1.35.36 1.32.36 2.19-.12 1.59-.36 2.19-.57 1.04-.99 1.35-.92.46-1.49.46-1.04-.15-1.48-.46c-.43-.31-.77-.76-1.01-1.35s-.36-1.32-.36-2.19.12-1.59.36-2.19zm45.49-1.76h-2.28v-.88h3.27v9.66h-.99v-8.78zm45.17 0h-2.28v-.88h3.27v9.66h-.99v-8.78zm45.35 8.27c.58.39 1.24.59 1.99.59s1.41-.19 1.99-.59c.58-.39 1.04-.95 1.37-1.68.34-.73.5-1.61.5-2.64s-.17-1.91-.5-2.64c-.34-.73-.79-1.29-1.37-1.68s-1.24-.59-1.99-.59-1.41.2-1.99.59-1.04.95-1.37 1.68-.5 1.61-.5 2.64.17 1.91.5 2.64.79 1.29 1.37 1.68zm-.5-6.51c.24-.59.57-1.04 1.01-1.35s.93-.46 1.48-.46 1.07.15 1.49.46.75.76.99 1.35.36 1.32.36 2.19-.12 1.59-.36 2.19-.57 1.04-.99 1.35-.92.46-1.49.46-1.04-.15-1.48-.46c-.43-.31-.77-.76-1.01-1.35s-.36-1.32-.36-2.19.12-1.59.36-2.19zm45.67 6.51c.58.39 1.24.59 1.99.59s1.41-.19 1.99-.59c.58-.39 1.04-.95 1.37-1.68.34-.73.5-1.61.5-2.64s-.17-1.91-.5-2.64c-.34-.73-.79-1.29-1.37-1.68s-1.24-.59-1.99-.59-1.41.2-1.99.59-1.04.95-1.37 1.68-.5 1.61-.5 2.64.17 1.91.5 2.64.79 1.29 1.37 1.68zm-.5-6.51c.24-.59.57-1.04 1.01-1.35s.93-.46 1.48-.46 1.07.15 1.49.46.75.76.99 1.35.36 1.32.36 2.19-.12 1.59-.36 2.19-.57 1.04-.99 1.35-.92.46-1.49.46-1.04-.15-1.48-.46c-.43-.31-.77-.76-1.01-1.35s-.36-1.32-.36-2.19.12-1.59.36-2.19zm45.67 6.51c.58.39 1.24.59 1.99.59s1.41-.19 1.99-.59c.58-.39 1.04-.95 1.37-1.68.34-.73.5-1.61.5-2.64s-.17-1.91-.5-2.64c-.34-.73-.79-1.29-1.37-1.68s-1.24-.59-1.99-.59-1.41.2-1.99.59-1.04.95-1.37 1.68-.5 1.61-.5 2.64.17 1.91.5 2.64.79 1.29 1.37 1.68zm-.5-6.51c.24-.59.57-1.04 1.01-1.35s.93-.46 1.48-.46 1.07.15 1.49.46.75.76.99 1.35.36 1.32.36 2.19-.12 1.59-.36 2.19-.57 1.04-.99 1.35-.92.46-1.49.46-1.04-.15-1.48-.46c-.43-.31-.77-.76-1.01-1.35s-.36-1.32-.36-2.19.12-1.59.36-2.19zm45.49-1.76h-2.28v-.88h3.27v9.66h-.99v-8.78zm45.35 8.27c.58.39 1.24.59 1.99.59s1.41-.19 1.99-.59c.58-.39 1.04-.95 1.37-1.68.34-.73.5-1.61.5-2.64s-.17-1.91-.5-2.64-.79-1.29-1.37-1.68-1.24-.59-1.99-.59-1.41.2-1.99.59-1.04.95-1.37 1.68-.5 1.61-.5 2.64.17 1.91.5 2.64.79 1.29 1.37 1.68zm-.5-6.51c.24-.59.57-1.04 1.01-1.35s.92-.46 1.48-.46 1.07.15 1.49.46.75.76.99 1.35.36 1.32.36 2.19-.12 1.59-.36 2.19-.57 1.04-.99 1.35-.92.46-1.49.46-1.04-.15-1.48-.46c-.43-.31-.77-.76-1.01-1.35s-.36-1.32-.36-2.19.12-1.59.36-2.19zm45.49-1.76h-2.28v-.88h3.27v9.66h-.99v-8.78zm45.35 8.27c.58.39 1.24.59 1.99.59s1.41-.19 1.99-.59c.58-.39 1.04-.95 1.37-1.68.34-.73.5-1.61.5-2.64s-.17-1.91-.5-2.64-.79-1.29-1.37-1.68-1.24-.59-1.99-.59-1.41.2-1.99.59-1.04.95-1.37 1.68-.5 1.61-.5 2.64.17 1.91.5 2.64.79 1.29 1.37 1.68zm-.5-6.51c.24-.59.57-1.04 1.01-1.35s.92-.46 1.48-.46 1.07.15 1.49.46.75.76.99 1.35.36 1.32.36 2.19-.12 1.59-.36 2.19-.57 1.04-.99 1.35-.92.46-1.49.46-1.04-.15-1.48-.46c-.43-.31-.77-.76-1.01-1.35s-.36-1.32-.36-2.19.12-1.59.36-2.19zm45.67 6.51c.58.39 1.24.59 1.99.59s1.41-.19 1.99-.59c.58-.39 1.04-.95 1.37-1.68.34-.73.5-1.61.5-2.64s-.17-1.91-.5-2.64-.79-1.29-1.37-1.68-1.24-.59-1.99-.59-1.41.2-1.99.59-1.04.95-1.37 1.68-.5 1.61-.5 2.64.17 1.91.5 2.64.79 1.29 1.37 1.68zm-.5-6.51c.24-.59.57-1.04 1.01-1.35s.92-.46 1.48-.46 1.07.15 1.49.46.75.76.99 1.35.36 1.32.36 2.19-.12 1.59-.36 2.19-.57 1.04-.99 1.35-.92.46-1.49.46-1.04-.15-1.48-.46c-.43-.31-.77-.76-1.01-1.35s-.36-1.32-.36-2.19.12-1.59.36-2.19zm45.49-1.76h-2.28v-.88h3.27v9.66h-.99v-8.78zm45.35 8.27c.58.39 1.24.59 1.99.59s1.41-.19 1.99-.59c.58-.39 1.04-.95 1.37-1.68.34-.73.5-1.61.5-2.64s-.17-1.91-.5-2.64-.79-1.29-1.37-1.68-1.24-.59-1.99-.59-1.41.2-1.99.59-1.04.95-1.37 1.68-.5 1.61-.5 2.64.17 1.91.5 2.64.79 1.29 1.37 1.68zm-.5-6.51c.24-.59.57-1.04 1.01-1.35s.92-.46 1.48-.46 1.07.15 1.49.46.75.76.99 1.35.36 1.32.36 2.19-.12 1.59-.36 2.19-.57 1.04-.99 1.35-.92.46-1.49.46-1.04-.15-1.48-.46c-.43-.31-.77-.76-1.01-1.35s-.36-1.32-.36-2.19.12-1.59.36-2.19zm45.49-1.76h-2.28v-.88h3.27v9.66h-.99v-8.78zm45.17 0h-2.28v-.88h3.27v9.66h-.99v-8.78zm45.17 0h-2.28v-.88h3.27v9.66h-.99v-8.78zm45.17 0h-2.28v-.88h3.27v9.66h-.99v-8.78zm45.35 8.27c.58.39 1.24.59 1.99.59s1.41-.19 1.99-.59c.58-.39 1.04-.95 1.37-1.68.34-.73.5-1.61.5-2.64s-.17-1.91-.5-2.64-.79-1.29-1.37-1.68-1.24-.59-1.99-.59-1.41.2-1.99.59-1.04.95-1.37 1.68-.5 1.61-.5 2.64.17 1.91.5 2.64.79 1.29 1.37 1.68zm-.5-6.51c.24-.59.57-1.04 1.01-1.35s.92-.46 1.48-.46 1.07.15 1.49.46.75.76.99 1.35.36 1.32.36 2.19-.12 1.59-.36 2.19-.57 1.04-.99 1.35-.92.46-1.49.46-1.04-.15-1.48-.46c-.43-.31-.77-.76-1.01-1.35s-.36-1.32-.36-2.19.12-1.59.36-2.19zm45.49-1.76H1223v-.88h3.27v9.66h-.99v-8.78zm-948.42 8.27c.58.39 1.24.59 1.99.59s1.41-.19 1.99-.59c.58-.39 1.04-.95 1.37-1.68.34-.73.5-1.61.5-2.64s-.17-1.91-.5-2.64c-.34-.73-.79-1.29-1.37-1.68s-1.24-.59-1.99-.59-1.41.2-1.99.59-1.04.95-1.37 1.68-.5 1.61-.5 2.64.17 1.91.5 2.64.79 1.29 1.37 1.68zm-.5-6.51c.24-.59.57-1.04 1.01-1.35s.93-.46 1.48-.46 1.07.15 1.49.46.75.76.99 1.35.36 1.32.36 2.19-.12 1.59-.36 2.19-.57 1.04-.99 1.35-.92.46-1.49.46-1.04-.15-1.48-.46c-.43-.31-.77-.76-1.01-1.35s-.36-1.32-.36-2.19.12-1.59.36-2.19zm45.49-1.76h-2.28v-.88h3.27v9.66h-.99v-8.78zm45.17 0h-2.28v-.88h3.27v9.66h-.99v-8.78zm45.35 8.27c.58.39 1.24.59 1.99.59s1.41-.19 1.99-.59c.58-.39 1.04-.95 1.37-1.68.34-.73.5-1.61.5-2.64s-.17-1.91-.5-2.64c-.34-.73-.79-1.29-1.37-1.68s-1.24-.59-1.99-.59-1.41.2-1.99.59-1.04.95-1.37 1.68-.5 1.61-.5 2.64.17 1.91.5 2.64.79 1.29 1.37 1.68zm-.5-6.51c.24-.59.57-1.04 1.01-1.35s.93-.46 1.48-.46 1.07.15 1.49.46.75.76.99 1.35.36 1.32.36 2.19-.12 1.59-.36 2.19-.57 1.04-.99 1.35-.92.46-1.49.46-1.04-.15-1.48-.46c-.43-.31-.77-.76-1.01-1.35s-.36-1.32-.36-2.19.12-1.59.36-2.19zm45.49-1.76h-2.28v-.88h3.27v9.66h-.99v-8.78zm45.17 0h-2.28v-.88h3.27v9.66h-.99v-8.78zm45.35 8.27c.58.39 1.24.59 1.99.59s1.41-.19 1.99-.59c.58-.39 1.04-.95 1.37-1.68.34-.73.5-1.61.5-2.64s-.17-1.91-.5-2.64c-.34-.73-.79-1.29-1.37-1.68s-1.24-.59-1.99-.59-1.41.2-1.99.59-1.04.95-1.37 1.68-.5 1.61-.5 2.64.17 1.91.5 2.64.79 1.29 1.37 1.68zm-.5-6.51c.24-.59.57-1.04 1.01-1.35s.93-.46 1.48-.46 1.07.15 1.49.46.75.76.99 1.35.36 1.32.36 2.19-.12 1.59-.36 2.19-.57 1.04-.99 1.35-.92.46-1.49.46-1.04-.15-1.48-.46c-.43-.31-.77-.76-1.01-1.35s-.36-1.32-.36-2.19.12-1.59.36-2.19zm45.67 6.51c.58.39 1.24.59 1.99.59s1.41-.19 1.99-.59c.58-.39 1.04-.95 1.37-1.68.34-.73.5-1.61.5-2.64s-.17-1.91-.5-2.64c-.34-.73-.79-1.29-1.37-1.68s-1.24-.59-1.99-.59-1.41.2-1.99.59-1.04.95-1.37 1.68-.5 1.61-.5 2.64.17 1.91.5 2.64.79 1.29 1.37 1.68zm-.5-6.51c.24-.59.57-1.04 1.01-1.35s.93-.46 1.48-.46 1.07.15 1.49.46.75.76.99 1.35.36 1.32.36 2.19-.12 1.59-.36 2.19-.57 1.04-.99 1.35-.92.46-1.49.46-1.04-.15-1.48-.46c-.43-.31-.77-.76-1.01-1.35s-.36-1.32-.36-2.19.12-1.59.36-2.19zm45.67 6.51c.58.39 1.24.59 1.99.59s1.41-.19 1.99-.59c.58-.39 1.04-.95 1.37-1.68.34-.73.5-1.61.5-2.64s-.17-1.91-.5-2.64c-.34-.73-.79-1.29-1.37-1.68s-1.24-.59-1.99-.59-1.41.2-1.99.59-1.04.95-1.37 1.68-.5 1.61-.5 2.64.17 1.91.5 2.64.79 1.29 1.37 1.68zm-.5-6.51c.24-.59.57-1.04 1.01-1.35s.93-.46 1.48-.46 1.07.15 1.49.46.75.76.99 1.35.36 1.32.36 2.19-.12 1.59-.36 2.19-.57 1.04-.99 1.35-.92.46-1.49.46-1.04-.15-1.48-.46c-.43-.31-.77-.76-1.01-1.35s-.36-1.32-.36-2.19.12-1.59.36-2.19zm45.49-1.76h-2.28v-.88h3.27v9.66h-.99v-8.78zm45.35 8.27c.58.39 1.24.59 1.99.59s1.41-.19 1.99-.59c.58-.39 1.04-.95 1.37-1.68.34-.73.5-1.61.5-2.64s-.17-1.91-.5-2.64-.79-1.29-1.37-1.68-1.24-.59-1.99-.59-1.41.2-1.99.59-1.04.95-1.37 1.68-.5 1.61-.5 2.64.17 1.91.5 2.64.79 1.29 1.37 1.68zm-.5-6.51c.24-.59.57-1.04 1.01-1.35s.92-.46 1.48-.46 1.07.15 1.49.46.75.76.99 1.35.36 1.32.36 2.19-.12 1.59-.36 2.19-.57 1.04-.99 1.35-.92.46-1.49.46-1.04-.15-1.48-.46c-.43-.31-.77-.76-1.01-1.35s-.36-1.32-.36-2.19.12-1.59.36-2.19zm45.49-1.76h-2.28v-.88h3.27v9.66h-.99v-8.78zm45.35 8.27c.58.39 1.24.59 1.99.59s1.41-.19 1.99-.59c.58-.39 1.04-.95 1.37-1.68.34-.73.5-1.61.5-2.64s-.17-1.91-.5-2.64-.79-1.29-1.37-1.68-1.24-.59-1.99-.59-1.41.2-1.99.59-1.04.95-1.37 1.68-.5 1.61-.5 2.64.17 1.91.5 2.64.79 1.29 1.37 1.68zm-.5-6.51c.24-.59.57-1.04 1.01-1.35s.92-.46 1.48-.46 1.07.15 1.49.46.75.76.99 1.35.36 1.32.36 2.19-.12 1.59-.36 2.19-.57 1.04-.99 1.35-.92.46-1.49.46-1.04-.15-1.48-.46c-.43-.31-.77-.76-1.01-1.35s-.36-1.32-.36-2.19.12-1.59.36-2.19zm45.67 6.51c.58.39 1.24.59 1.99.59s1.41-.19 1.99-.59c.58-.39 1.04-.95 1.37-1.68.34-.73.5-1.61.5-2.64s-.17-1.91-.5-2.64-.79-1.29-1.37-1.68-1.24-.59-1.99-.59-1.41.2-1.99.59-1.04.95-1.37 1.68-.5 1.61-.5 2.64.17 1.91.5 2.64.79 1.29 1.37 1.68zm-.5-6.51c.24-.59.57-1.04 1.01-1.35s.92-.46 1.48-.46 1.07.15 1.49.46.75.76.99 1.35.36 1.32.36 2.19-.12 1.59-.36 2.19-.57 1.04-.99 1.35-.92.46-1.49.46-1.04-.15-1.48-.46c-.43-.31-.77-.76-1.01-1.35s-.36-1.32-.36-2.19.12-1.59.36-2.19zm45.49-1.76h-2.28v-.88h3.27v9.66h-.99v-8.78zm45.35 8.27c.58.39 1.24.59 1.99.59s1.41-.19 1.99-.59c.58-.39 1.04-.95 1.37-1.68.34-.73.5-1.61.5-2.64s-.17-1.91-.5-2.64-.79-1.29-1.37-1.68-1.24-.59-1.99-.59-1.41.2-1.99.59-1.04.95-1.37 1.68-.5 1.61-.5 2.64.17 1.91.5 2.64.79 1.29 1.37 1.68zm-.5-6.51c.24-.59.57-1.04 1.01-1.35s.92-.46 1.48-.46 1.07.15 1.49.46.75.76.99 1.35.36 1.32.36 2.19-.12 1.59-.36 2.19-.57 1.04-.99 1.35-.92.46-1.49.46-1.04-.15-1.48-.46c-.43-.31-.77-.76-1.01-1.35s-.36-1.32-.36-2.19.12-1.59.36-2.19zm45.49-1.76h-2.28v-.88h3.27v9.66h-.99v-8.78zm45.17 0h-2.28v-.88h3.27v9.66h-.99v-8.78zm45.17 0h-2.28v-.88h3.27v9.66h-.99v-8.78zm45.17 0h-2.28v-.88h3.27v9.66h-.99v-8.78zm45.35 8.27c.58.39 1.24.59 1.99.59s1.41-.19 1.99-.59c.58-.39 1.04-.95 1.37-1.68.34-.73.5-1.61.5-2.64s-.17-1.91-.5-2.64-.79-1.29-1.37-1.68-1.24-.59-1.99-.59-1.41.2-1.99.59-1.04.95-1.37 1.68-.5 1.61-.5 2.64.17 1.91.5 2.64.79 1.29 1.37 1.68zm-.5-6.51c.24-.59.57-1.04 1.01-1.35s.92-.46 1.48-.46 1.07.15 1.49.46.75.76.99 1.35.36 1.32.36 2.19-.12 1.59-.36 2.19-.57 1.04-.99 1.35-.92.46-1.49.46-1.04-.15-1.48-.46c-.43-.31-.77-.76-1.01-1.35s-.36-1.32-.36-2.19.12-1.59.36-2.19zm45.49-1.76h-2.28v-.88h3.27v9.66h-.99v-8.78zm-914.32-67.22c-.58-.39-1.24-.59-1.99-.59s-1.41.2-1.99.59-1.04.95-1.37 1.68-.5 1.61-.5 2.64.17 1.91.5 2.64.79 1.29 1.37 1.68 1.24.59 1.99.59 1.41-.19 1.99-.59c.58-.39 1.04-.95 1.37-1.68.34-.73.5-1.61.5-2.64s-.17-1.91-.5-2.64c-.34-.73-.79-1.29-1.37-1.68zm.5 6.51c-.24.59-.57 1.04-.99 1.35s-.92.46-1.49.46-1.04-.15-1.48-.46c-.43-.31-.77-.76-1.01-1.35s-.36-1.32-.36-2.19.12-1.59.36-2.19c.24-.59.57-1.04 1.01-1.35s.93-.46 1.48-.46 1.07.15 1.49.46.75.76.99 1.35.36 1.32.36 2.19-.12 1.59-.36 2.19zm38.24-7.02h3.27v9.66h-.99v-8.78h-2.28v-.88zm45.17 0h3.27v9.66h-.99v-8.78h-2.28v-.88zm51.6.5c-.58-.39-1.24-.59-1.99-.59s-1.41.2-1.99.59-1.04.95-1.37 1.68-.5 1.61-.5 2.64.17 1.91.5 2.64.79 1.29 1.37 1.68 1.24.59 1.99.59 1.41-.19 1.99-.59c.58-.39 1.04-.95 1.37-1.68.34-.73.5-1.61.5-2.64s-.17-1.91-.5-2.64c-.34-.73-.79-1.29-1.37-1.68zm.5 6.51c-.24.59-.57 1.04-.99 1.35s-.92.46-1.49.46-1.04-.15-1.48-.46c-.43-.31-.77-.76-1.01-1.35s-.36-1.32-.36-2.19.12-1.59.36-2.19c.24-.59.57-1.04 1.01-1.35s.93-.46 1.48-.46 1.07.15 1.49.46.75.76.99 1.35.36 1.32.36 2.19-.12 1.59-.36 2.19zm38.24-7.02h3.27v9.66h-.99v-8.78h-2.28v-.88zm45.17 0h3.27v9.66h-.99v-8.78h-2.28v-.88zm51.6.5c-.58-.39-1.24-.59-1.99-.59s-1.41.2-1.99.59-1.04.95-1.37 1.68-.5 1.61-.5 2.64.17 1.91.5 2.64.79 1.29 1.37 1.68 1.24.59 1.99.59 1.41-.19 1.99-.59c.58-.39 1.04-.95 1.37-1.68.34-.73.5-1.61.5-2.64s-.17-1.91-.5-2.64c-.34-.73-.79-1.29-1.37-1.68zm.5 6.51c-.24.59-.57 1.04-.99 1.35s-.92.46-1.49.46-1.04-.15-1.48-.46c-.43-.31-.77-.76-1.01-1.35s-.36-1.32-.36-2.19.12-1.59.36-2.19c.24-.59.57-1.04 1.01-1.35s.93-.46 1.48-.46 1.07.15 1.49.46.75.76.99 1.35.36 1.32.36 2.19-.12 1.59-.36 2.19zm44.67-6.51c-.58-.39-1.24-.59-1.99-.59s-1.41.2-1.99.59-1.04.95-1.37 1.68-.5 1.61-.5 2.64.17 1.91.5 2.64.79 1.29 1.37 1.68 1.24.59 1.99.59 1.41-.19 1.99-.59c.58-.39 1.04-.95 1.37-1.68.34-.73.5-1.61.5-2.64s-.17-1.91-.5-2.64c-.34-.73-.79-1.29-1.37-1.68zm.5 6.51c-.24.59-.57 1.04-.99 1.35s-.92.46-1.49.46-1.04-.15-1.48-.46c-.43-.31-.77-.76-1.01-1.35s-.36-1.32-.36-2.19.12-1.59.36-2.19c.24-.59.57-1.04 1.01-1.35s.93-.46 1.48-.46 1.07.15 1.49.46.75.76.99 1.35.36 1.32.36 2.19-.12 1.59-.36 2.19zm44.67-6.51c-.58-.39-1.24-.59-1.99-.59s-1.41.2-1.99.59-1.04.95-1.37 1.68-.5 1.61-.5 2.64.17 1.91.5 2.64.79 1.29 1.37 1.68 1.24.59 1.99.59 1.41-.19 1.99-.59c.58-.39 1.04-.95 1.37-1.68.34-.73.5-1.61.5-2.64s-.17-1.91-.5-2.64c-.34-.73-.79-1.29-1.37-1.68zm.5 6.51c-.24.59-.57 1.04-.99 1.35s-.92.46-1.49.46-1.04-.15-1.48-.46c-.43-.31-.77-.76-1.01-1.35s-.36-1.32-.36-2.19.12-1.59.36-2.19c.24-.59.57-1.04 1.01-1.35s.93-.46 1.48-.46 1.07.15 1.49.46.75.76.99 1.35.36 1.32.36 2.19-.12 1.59-.36 2.19zm38.24-7.02h3.27v9.66h-.99v-8.78h-2.28V256zm51.6.5c-.58-.39-1.24-.59-1.99-.59s-1.41.2-1.99.59-1.04.95-1.37 1.68-.5 1.61-.5 2.64.17 1.91.5 2.64.79 1.29 1.37 1.68 1.24.59 1.99.59 1.41-.19 1.99-.59c.58-.39 1.04-.95 1.37-1.68.34-.73.5-1.61.5-2.64s-.17-1.91-.5-2.64-.79-1.29-1.37-1.68zm.5 6.51c-.24.59-.57 1.04-.99 1.35s-.92.46-1.49.46-1.04-.15-1.48-.46c-.43-.31-.77-.76-1.01-1.35s-.36-1.32-.36-2.19.12-1.59.36-2.19c.24-.59.57-1.04 1.01-1.35s.92-.46 1.48-.46 1.07.15 1.49.46.75.76.99 1.35.36 1.32.36 2.19-.12 1.59-.36 2.19zm38.24-7.02h3.27v9.66h-.99v-8.78h-2.28v-.88zm51.6.5c-.58-.39-1.24-.59-1.99-.59s-1.41.2-1.99.59-1.04.95-1.37 1.68-.5 1.61-.5 2.64.17 1.91.5 2.64.79 1.29 1.37 1.68 1.24.59 1.99.59 1.41-.19 1.99-.59c.58-.39 1.04-.95 1.37-1.68.34-.73.5-1.61.5-2.64s-.17-1.91-.5-2.64-.79-1.29-1.37-1.68zm.5 6.51c-.24.59-.57 1.04-.99 1.35s-.92.46-1.49.46-1.04-.15-1.48-.46c-.43-.31-.77-.76-1.01-1.35s-.36-1.32-.36-2.19.12-1.59.36-2.19.57-1.04 1.01-1.35.92-.46 1.48-.46 1.07.15 1.49.46.75.76.99 1.35.36 1.32.36 2.19-.12 1.59-.36 2.19zm44.67-6.51c-.58-.39-1.24-.59-1.99-.59s-1.41.2-1.99.59-1.04.95-1.37 1.68-.5 1.61-.5 2.64.17 1.91.5 2.64.79 1.29 1.37 1.68 1.24.59 1.99.59 1.41-.19 1.99-.59c.58-.39 1.04-.95 1.37-1.68.34-.73.5-1.61.5-2.64s-.17-1.91-.5-2.64-.79-1.29-1.37-1.68zm.5 6.51c-.24.59-.57 1.04-.99 1.35s-.92.46-1.49.46-1.04-.15-1.48-.46c-.43-.31-.77-.76-1.01-1.35s-.36-1.32-.36-2.19.12-1.59.36-2.19.57-1.04 1.01-1.35.92-.46 1.48-.46 1.07.15 1.49.46.75.76.99 1.35.36 1.32.36 2.19-.12 1.59-.36 2.19zm38.24-7.02h3.27v9.66h-.99v-8.78h-2.28v-.88zm51.6.5c-.58-.39-1.24-.59-1.99-.59s-1.41.2-1.99.59-1.04.95-1.37 1.68-.5 1.61-.5 2.64.17 1.91.5 2.64.79 1.29 1.37 1.68 1.24.59 1.99.59 1.41-.19 1.99-.59c.58-.39 1.04-.95 1.37-1.68.34-.73.5-1.61.5-2.64s-.17-1.91-.5-2.64-.79-1.29-1.37-1.68zm.5 6.51c-.24.59-.57 1.04-.99 1.35s-.92.46-1.49.46-1.04-.15-1.48-.46c-.43-.31-.77-.76-1.01-1.35s-.36-1.32-.36-2.19.12-1.59.36-2.19.57-1.04 1.01-1.35c.43-.31.92-.46 1.48-.46s1.07.15 1.49.46.75.76.99 1.35.36 1.32.36 2.19-.12 1.59-.36 2.19zm38.24-7.02h3.27v9.66h-.99v-8.78h-2.28v-.88zm45.17 0h3.27v9.66h-.99v-8.78h-2.28v-.88zm45.17 0h3.27v9.66h-.99v-8.78h-2.28v-.88zm45.17 0h3.27v9.66h-.99v-8.78h-2.28v-.88zm51.6.5c-.58-.39-1.24-.59-1.99-.59s-1.41.2-1.99.59-1.04.95-1.37 1.68-.5 1.61-.5 2.64.17 1.91.5 2.64.79 1.29 1.37 1.68 1.24.59 1.99.59 1.41-.19 1.99-.59c.58-.39 1.04-.95 1.37-1.68.34-.73.5-1.61.5-2.64s-.17-1.91-.5-2.64-.79-1.29-1.37-1.68zm.5 6.51c-.24.59-.57 1.04-.99 1.35s-.92.46-1.49.46-1.04-.15-1.48-.46c-.43-.31-.77-.76-1.01-1.35s-.36-1.32-.36-2.19.12-1.59.36-2.19.57-1.04 1.01-1.35.92-.46 1.48-.46 1.07.15 1.49.46.75.76.99 1.35.36 1.32.36 2.19-.12 1.59-.36 2.19zm41.51-7.02v9.66h-.99v-8.78h-2.28v-.88h3.27zm-945.44.5c-.58-.39-1.24-.59-1.99-.59s-1.41.2-1.99.59-1.04.95-1.37 1.68-.5 1.61-.5 2.64.17 1.91.5 2.64.79 1.29 1.37 1.68 1.24.59 1.99.59 1.41-.19 1.99-.59c.58-.39 1.04-.95 1.37-1.68.34-.73.5-1.61.5-2.64s-.17-1.91-.5-2.64c-.34-.73-.79-1.29-1.37-1.68zm.5 6.51c-.24.59-.57 1.04-.99 1.35s-.92.46-1.49.46-1.04-.15-1.48-.46c-.43-.31-.77-.76-1.01-1.35s-.36-1.32-.36-2.19.12-1.59.36-2.19c.24-.59.57-1.04 1.01-1.35s.93-.46 1.48-.46 1.07.15 1.49.46.75.76.99 1.35.36 1.32.36 2.19-.12 1.59-.36 2.19zm38.24-7.02h3.27v9.66h-.99v-8.78h-2.28v-.88zm45.17 0h3.27v9.66h-.99v-8.78h-2.28v-.88zm51.6.5c-.58-.39-1.24-.59-1.99-.59s-1.41.2-1.99.59-1.04.95-1.37 1.68-.5 1.61-.5 2.64.17 1.91.5 2.64.79 1.29 1.37 1.68 1.24.59 1.99.59 1.41-.19 1.99-.59c.58-.39 1.04-.95 1.37-1.68.34-.73.5-1.61.5-2.64s-.17-1.91-.5-2.64c-.34-.73-.79-1.29-1.37-1.68zm.5 6.51c-.24.59-.57 1.04-.99 1.35s-.92.46-1.49.46-1.04-.15-1.48-.46c-.43-.31-.77-.76-1.01-1.35s-.36-1.32-.36-2.19.12-1.59.36-2.19c.24-.59.57-1.04 1.01-1.35s.93-.46 1.48-.46 1.07.15 1.49.46.75.76.99 1.35.36 1.32.36 2.19-.12 1.59-.36 2.19zm38.24-7.02h3.27v9.66h-.99v-8.78h-2.28v-.88zm45.17 0h3.27v9.66h-.99v-8.78h-2.28v-.88zm51.6.5c-.58-.39-1.24-.59-1.99-.59s-1.41.2-1.99.59-1.04.95-1.37 1.68-.5 1.61-.5 2.64.17 1.91.5 2.64.79 1.29 1.37 1.68 1.24.59 1.99.59 1.41-.19 1.99-.59c.58-.39 1.04-.95 1.37-1.68.34-.73.5-1.61.5-2.64s-.17-1.91-.5-2.64c-.34-.73-.79-1.29-1.37-1.68zm.5 6.51c-.24.59-.57 1.04-.99 1.35s-.92.46-1.49.46-1.04-.15-1.48-.46c-.43-.31-.77-.76-1.01-1.35s-.36-1.32-.36-2.19.12-1.59.36-2.19c.24-.59.57-1.04 1.01-1.35s.93-.46 1.48-.46 1.07.15 1.49.46.75.76.99 1.35.36 1.32.36 2.19-.12 1.59-.36 2.19zm44.67-6.51c-.58-.39-1.24-.59-1.99-.59s-1.41.2-1.99.59-1.04.95-1.37 1.68-.5 1.61-.5 2.64.17 1.91.5 2.64.79 1.29 1.37 1.68 1.24.59 1.99.59 1.41-.19 1.99-.59c.58-.39 1.04-.95 1.37-1.68.34-.73.5-1.61.5-2.64s-.17-1.91-.5-2.64c-.34-.73-.79-1.29-1.37-1.68zm.5 6.51c-.24.59-.57 1.04-.99 1.35s-.92.46-1.49.46-1.04-.15-1.48-.46c-.43-.31-.77-.76-1.01-1.35s-.36-1.32-.36-2.19.12-1.59.36-2.19c.24-.59.57-1.04 1.01-1.35s.93-.46 1.48-.46 1.07.15 1.49.46.75.76.99 1.35.36 1.32.36 2.19-.12 1.59-.36 2.19zm44.67-6.51c-.58-.39-1.24-.59-1.99-.59s-1.41.2-1.99.59-1.04.95-1.37 1.68-.5 1.61-.5 2.64.17 1.91.5 2.64.79 1.29 1.37 1.68 1.24.59 1.99.59 1.41-.19 1.99-.59c.58-.39 1.04-.95 1.37-1.68.34-.73.5-1.61.5-2.64s-.17-1.91-.5-2.64c-.34-.73-.79-1.29-1.37-1.68zm.5 6.51c-.24.59-.57 1.04-.99 1.35s-.92.46-1.49.46-1.04-.15-1.48-.46c-.43-.31-.77-.76-1.01-1.35s-.36-1.32-.36-2.19.12-1.59.36-2.19c.24-.59.57-1.04 1.01-1.35s.93-.46 1.48-.46 1.07.15 1.49.46.75.76.99 1.35.36 1.32.36 2.19-.12 1.59-.36 2.19zm38.24-7.02h3.27v9.66h-.99v-8.78H711v-.88zm51.6.5c-.58-.39-1.24-.59-1.99-.59s-1.41.2-1.99.59-1.04.95-1.37 1.68-.5 1.61-.5 2.64.17 1.91.5 2.64.79 1.29 1.37 1.68 1.24.59 1.99.59 1.41-.19 1.99-.59c.58-.39 1.04-.95 1.37-1.68.34-.73.5-1.61.5-2.64s-.17-1.91-.5-2.64-.79-1.29-1.37-1.68zm.5 6.51c-.24.59-.57 1.04-.99 1.35s-.92.46-1.49.46-1.04-.15-1.48-.46c-.43-.31-.77-.76-1.01-1.35s-.36-1.32-.36-2.19.12-1.59.36-2.19c.24-.59.57-1.04 1.01-1.35s.92-.46 1.48-.46 1.07.15 1.49.46.75.76.99 1.35.36 1.32.36 2.19-.12 1.59-.36 2.19zm38.24-7.02h3.27v9.66h-.99v-8.78h-2.28v-.88zm51.6.5c-.58-.39-1.24-.59-1.99-.59s-1.41.2-1.99.59-1.04.95-1.37 1.68-.5 1.61-.5 2.64.17 1.91.5 2.64.79 1.29 1.37 1.68 1.24.59 1.99.59 1.41-.19 1.99-.59c.58-.39 1.04-.95 1.37-1.68.34-.73.5-1.61.5-2.64s-.17-1.91-.5-2.64-.79-1.29-1.37-1.68zm.5 6.51c-.24.59-.57 1.04-.99 1.35s-.92.46-1.49.46-1.04-.15-1.48-.46c-.43-.31-.77-.76-1.01-1.35s-.36-1.32-.36-2.19.12-1.59.36-2.19.57-1.04 1.01-1.35.92-.46 1.48-.46 1.07.15 1.49.46.75.76.99 1.35.36 1.32.36 2.19-.12 1.59-.36 2.19zm44.67-6.51c-.58-.39-1.24-.59-1.99-.59s-1.41.2-1.99.59-1.04.95-1.37 1.68-.5 1.61-.5 2.64.17 1.91.5 2.64.79 1.29 1.37 1.68 1.24.59 1.99.59 1.41-.19 1.99-.59c.58-.39 1.04-.95 1.37-1.68.34-.73.5-1.61.5-2.64s-.17-1.91-.5-2.64-.79-1.29-1.37-1.68zm.5 6.51c-.24.59-.57 1.04-.99 1.35s-.92.46-1.49.46-1.04-.15-1.48-.46c-.43-.31-.77-.76-1.01-1.35s-.36-1.32-.36-2.19.12-1.59.36-2.19.57-1.04 1.01-1.35.92-.46 1.48-.46 1.07.15 1.49.46.75.76.99 1.35.36 1.32.36 2.19-.12 1.59-.36 2.19zm38.24-7.02h3.27v9.66h-.99v-8.78h-2.28v-.88zm51.6.5c-.58-.39-1.24-.59-1.99-.59s-1.41.2-1.99.59-1.04.95-1.37 1.68-.5 1.61-.5 2.64.17 1.91.5 2.64.79 1.29 1.37 1.68 1.24.59 1.99.59 1.41-.19 1.99-.59c.58-.39 1.04-.95 1.37-1.68.34-.73.5-1.61.5-2.64s-.17-1.91-.5-2.64-.79-1.29-1.37-1.68zm.5 6.51c-.24.59-.57 1.04-.99 1.35s-.92.46-1.49.46-1.04-.15-1.48-.46c-.43-.31-.77-.76-1.01-1.35s-.36-1.32-.36-2.19.12-1.59.36-2.19.57-1.04 1.01-1.35c.43-.31.92-.46 1.48-.46s1.07.15 1.49.46.75.76.99 1.35.36 1.32.36 2.19-.12 1.59-.36 2.19zm38.24-7.02h3.27v9.66h-.99v-8.78h-2.28v-.88zm45.17 0h3.27v9.66h-.99v-8.78h-2.28v-.88zm45.17 0h3.27v9.66h-.99v-8.78h-2.28v-.88zm45.17 0h3.27v9.66h-.99v-8.78h-2.28v-.88zm51.6.5c-.58-.39-1.24-.59-1.99-.59s-1.41.2-1.99.59-1.04.95-1.37 1.68-.5 1.61-.5 2.64.17 1.91.5 2.64.79 1.29 1.37 1.68 1.24.59 1.99.59 1.41-.19 1.99-.59c.58-.39 1.04-.95 1.37-1.68.34-.73.5-1.61.5-2.64s-.17-1.91-.5-2.64-.79-1.29-1.37-1.68zm.5 6.51c-.24.59-.57 1.04-.99 1.35s-.92.46-1.49.46-1.04-.15-1.48-.46c-.43-.31-.77-.76-1.01-1.35s-.36-1.32-.36-2.19.12-1.59.36-2.19.57-1.04 1.01-1.35.92-.46 1.48-.46 1.07.15 1.49.46.75.76.99 1.35.36 1.32.36 2.19-.12 1.59-.36 2.19zm41.51-7.02v9.66h-.99v-8.78h-2.28v-.88h3.27zm-945.44 22.78c-.58-.39-1.24-.59-1.99-.59s-1.41.2-1.99.59-1.04.95-1.37 1.68-.5 1.61-.5 2.64.17 1.91.5 2.64.79 1.29 1.37 1.68 1.24.59 1.99.59 1.41-.19 1.99-.59c.58-.39 1.04-.95 1.37-1.68.34-.73.5-1.61.5-2.64s-.17-1.91-.5-2.64c-.34-.73-.79-1.29-1.37-1.68zm.5 6.51c-.24.59-.57 1.04-.99 1.35s-.92.46-1.49.46-1.04-.15-1.48-.46c-.43-.31-.77-.76-1.01-1.35s-.36-1.32-.36-2.19.12-1.59.36-2.19c.24-.59.57-1.04 1.01-1.35s.93-.46 1.48-.46 1.07.15 1.49.46.75.76.99 1.35.36 1.32.36 2.19-.12 1.59-.36 2.19zm38.24-7.02h3.27v9.66h-.99v-8.78h-2.28v-.88zm45.17 0h3.27v9.66h-.99v-8.78h-2.28v-.88zm51.6.5c-.58-.39-1.24-.59-1.99-.59s-1.41.2-1.99.59-1.04.95-1.37 1.68-.5 1.61-.5 2.64.17 1.91.5 2.64.79 1.29 1.37 1.68 1.24.59 1.99.59 1.41-.19 1.99-.59c.58-.39 1.04-.95 1.37-1.68.34-.73.5-1.61.5-2.64s-.17-1.91-.5-2.64c-.34-.73-.79-1.29-1.37-1.68zm.5 6.51c-.24.59-.57 1.04-.99 1.35s-.92.46-1.49.46-1.04-.15-1.48-.46c-.43-.31-.77-.76-1.01-1.35s-.36-1.32-.36-2.19.12-1.59.36-2.19c.24-.59.57-1.04 1.01-1.35s.93-.46 1.48-.46 1.07.15 1.49.46.75.76.99 1.35.36 1.32.36 2.19-.12 1.59-.36 2.19zm38.24-7.02h3.27v9.66h-.99v-8.78h-2.28v-.88zm45.17 0h3.27v9.66h-.99v-8.78h-2.28v-.88zm51.6.5c-.58-.39-1.24-.59-1.99-.59s-1.41.2-1.99.59-1.04.95-1.37 1.68-.5 1.61-.5 2.64.17 1.91.5 2.64.79 1.29 1.37 1.68 1.24.59 1.99.59 1.41-.19 1.99-.59c.58-.39 1.04-.95 1.37-1.68.34-.73.5-1.61.5-2.64s-.17-1.91-.5-2.64c-.34-.73-.79-1.29-1.37-1.68zm.5 6.51c-.24.59-.57 1.04-.99 1.35s-.92.46-1.49.46-1.04-.15-1.48-.46c-.43-.31-.77-.76-1.01-1.35s-.36-1.32-.36-2.19.12-1.59.36-2.19c.24-.59.57-1.04 1.01-1.35s.93-.46 1.48-.46 1.07.15 1.49.46.75.76.99 1.35.36 1.32.36 2.19-.12 1.59-.36 2.19zm44.67-6.51c-.58-.39-1.24-.59-1.99-.59s-1.41.2-1.99.59-1.04.95-1.37 1.68-.5 1.61-.5 2.64.17 1.91.5 2.64.79 1.29 1.37 1.68 1.24.59 1.99.59 1.41-.19 1.99-.59c.58-.39 1.04-.95 1.37-1.68.34-.73.5-1.61.5-2.64s-.17-1.91-.5-2.64c-.34-.73-.79-1.29-1.37-1.68zm.5 6.51c-.24.59-.57 1.04-.99 1.35s-.92.46-1.49.46-1.04-.15-1.48-.46c-.43-.31-.77-.76-1.01-1.35s-.36-1.32-.36-2.19.12-1.59.36-2.19c.24-.59.57-1.04 1.01-1.35s.93-.46 1.48-.46 1.07.15 1.49.46.75.76.99 1.35.36 1.32.36 2.19-.12 1.59-.36 2.19zm44.67-6.51c-.58-.39-1.24-.59-1.99-.59s-1.41.2-1.99.59-1.04.95-1.37 1.68-.5 1.61-.5 2.64.17 1.91.5 2.64.79 1.29 1.37 1.68 1.24.59 1.99.59 1.41-.19 1.99-.59c.58-.39 1.04-.95 1.37-1.68.34-.73.5-1.61.5-2.64s-.17-1.91-.5-2.64c-.34-.73-.79-1.29-1.37-1.68zm.5 6.51c-.24.59-.57 1.04-.99 1.35s-.92.46-1.49.46-1.04-.15-1.48-.46c-.43-.31-.77-.76-1.01-1.35s-.36-1.32-.36-2.19.12-1.59.36-2.19c.24-.59.57-1.04 1.01-1.35s.93-.46 1.48-.46 1.07.15 1.49.46.75.76.99 1.35.36 1.32.36 2.19-.12 1.59-.36 2.19zm38.24-7.02h3.27v9.66h-.99v-8.78h-2.28v-.88zm51.6.5c-.58-.39-1.24-.59-1.99-.59s-1.41.2-1.99.59-1.04.95-1.37 1.68-.5 1.61-.5 2.64.17 1.91.5 2.64.79 1.29 1.37 1.68 1.24.59 1.99.59 1.41-.19 1.99-.59c.58-.39 1.04-.95 1.37-1.68.34-.73.5-1.61.5-2.64s-.17-1.91-.5-2.64-.79-1.29-1.37-1.68zm.5 6.51c-.24.59-.57 1.04-.99 1.35s-.92.46-1.49.46-1.04-.15-1.48-.46c-.43-.31-.77-.76-1.01-1.35s-.36-1.32-.36-2.19.12-1.59.36-2.19.57-1.04 1.01-1.35.92-.46 1.48-.46 1.07.15 1.49.46.75.76.99 1.35.36 1.32.36 2.19-.12 1.59-.36 2.19zm38.24-7.02h3.27v9.66h-.99v-8.78h-2.28v-.88zm51.6.5c-.58-.39-1.24-.59-1.99-.59s-1.41.2-1.99.59-1.04.95-1.37 1.68-.5 1.61-.5 2.64.17 1.91.5 2.64.79 1.29 1.37 1.68 1.24.59 1.99.59 1.41-.19 1.99-.59c.58-.39 1.04-.95 1.37-1.68.34-.73.5-1.61.5-2.64s-.17-1.91-.5-2.64-.79-1.29-1.37-1.68zm.5 6.51c-.24.59-.57 1.04-.99 1.35s-.92.46-1.49.46-1.04-.15-1.48-.46c-.43-.31-.77-.76-1.01-1.35s-.36-1.32-.36-2.19.12-1.59.36-2.19.57-1.04 1.01-1.35.92-.46 1.48-.46 1.07.15 1.49.46.75.76.99 1.35.36 1.32.36 2.19-.12 1.59-.36 2.19zm44.67-6.51c-.58-.39-1.24-.59-1.99-.59s-1.41.2-1.99.59-1.04.95-1.37 1.68-.5 1.61-.5 2.64.17 1.91.5 2.64.79 1.29 1.37 1.68 1.24.59 1.99.59 1.41-.19 1.99-.59c.58-.39 1.04-.95 1.37-1.68.34-.73.5-1.61.5-2.64s-.17-1.91-.5-2.64-.79-1.29-1.37-1.68zm.5 6.51c-.24.59-.57 1.04-.99 1.35s-.92.46-1.49.46-1.04-.15-1.48-.46c-.43-.31-.77-.76-1.01-1.35s-.36-1.32-.36-2.19.12-1.59.36-2.19.57-1.04 1.01-1.35.92-.46 1.48-.46 1.07.15 1.49.46.75.76.99 1.35.36 1.32.36 2.19-.12 1.59-.36 2.19zm38.24-7.02h3.27v9.66h-.99V279h-2.28v-.88zm51.6.5c-.58-.39-1.24-.59-1.99-.59s-1.41.2-1.99.59-1.04.95-1.37 1.68-.5 1.61-.5 2.64.17 1.91.5 2.64.79 1.29 1.37 1.68 1.24.59 1.99.59 1.41-.19 1.99-.59c.58-.39 1.04-.95 1.37-1.68.34-.73.5-1.61.5-2.64s-.17-1.91-.5-2.64-.79-1.29-1.37-1.68zm.5 6.51c-.24.59-.57 1.04-.99 1.35s-.92.46-1.49.46-1.04-.15-1.48-.46c-.43-.31-.77-.76-1.01-1.35s-.36-1.32-.36-2.19.12-1.59.36-2.19.57-1.04 1.01-1.35.92-.46 1.48-.46 1.07.15 1.49.46.75.76.99 1.35.36 1.32.36 2.19-.12 1.59-.36 2.19zm38.24-7.02h3.27v9.66h-.99v-8.78h-2.28v-.88zm45.17 0h3.27v9.66h-.99v-8.78h-2.28v-.88zm45.17 0h3.27v9.66h-.99v-8.78h-2.28v-.88zm45.17 0h3.27v9.66h-.99v-8.78h-2.28v-.88zm51.6.5c-.58-.39-1.24-.59-1.99-.59s-1.41.2-1.99.59-1.04.95-1.37 1.68-.5 1.61-.5 2.64.17 1.91.5 2.64.79 1.29 1.37 1.68 1.24.59 1.99.59 1.41-.19 1.99-.59c.58-.39 1.04-.95 1.37-1.68.34-.73.5-1.61.5-2.64s-.17-1.91-.5-2.64-.79-1.29-1.37-1.68zm.5 6.51c-.24.59-.57 1.04-.99 1.35s-.92.46-1.49.46-1.04-.15-1.48-.46c-.43-.31-.77-.76-1.01-1.35s-.36-1.32-.36-2.19.12-1.59.36-2.19c.24-.59.57-1.04 1.01-1.35s.92-.46 1.48-.46 1.07.15 1.49.46.75.76.99 1.35.36 1.32.36 2.19-.12 1.59-.36 2.19zm41.51-7.02v9.66h-.99v-8.78h-2.28v-.88h3.27zm-945.44.5c-.58-.39-1.24-.59-1.99-.59s-1.41.2-1.99.59-1.04.95-1.37 1.68-.5 1.61-.5 2.64.17 1.91.5 2.64.79 1.29 1.37 1.68 1.24.59 1.99.59 1.41-.19 1.99-.59c.58-.39 1.04-.95 1.37-1.68.34-.73.5-1.61.5-2.64s-.17-1.91-.5-2.64c-.34-.73-.79-1.29-1.37-1.68zm.5 6.51c-.24.59-.57 1.04-.99 1.35s-.92.46-1.49.46-1.04-.15-1.48-.46c-.43-.31-.77-.76-1.01-1.35s-.36-1.32-.36-2.19.12-1.59.36-2.19c.24-.59.57-1.04 1.01-1.35s.93-.46 1.48-.46 1.07.15 1.49.46.75.76.99 1.35.36 1.32.36 2.19-.12 1.59-.36 2.19zm38.24-7.02h3.27v9.66h-.99v-8.78h-2.28v-.88zm45.17 0h3.27v9.66h-.99v-8.78h-2.28v-.88zm51.6.5c-.58-.39-1.24-.59-1.99-.59s-1.41.2-1.99.59-1.04.95-1.37 1.68-.5 1.61-.5 2.64.17 1.91.5 2.64.79 1.29 1.37 1.68 1.24.59 1.99.59 1.41-.19 1.99-.59c.58-.39 1.04-.95 1.37-1.68.34-.73.5-1.61.5-2.64s-.17-1.91-.5-2.64c-.34-.73-.79-1.29-1.37-1.68zm.5 6.51c-.24.59-.57 1.04-.99 1.35s-.92.46-1.49.46-1.04-.15-1.48-.46c-.43-.31-.77-.76-1.01-1.35s-.36-1.32-.36-2.19.12-1.59.36-2.19c.24-.59.57-1.04 1.01-1.35s.93-.46 1.48-.46 1.07.15 1.49.46.75.76.99 1.35.36 1.32.36 2.19-.12 1.59-.36 2.19zm38.24-7.02h3.27v9.66h-.99v-8.78h-2.28v-.88zm45.17 0h3.27v9.66h-.99v-8.78h-2.28v-.88zm51.6.5c-.58-.39-1.24-.59-1.99-.59s-1.41.2-1.99.59-1.04.95-1.37 1.68-.5 1.61-.5 2.64.17 1.91.5 2.64.79 1.29 1.37 1.68 1.24.59 1.99.59 1.41-.19 1.99-.59c.58-.39 1.04-.95 1.37-1.68.34-.73.5-1.61.5-2.64s-.17-1.91-.5-2.64c-.34-.73-.79-1.29-1.37-1.68zm.5 6.51c-.24.59-.57 1.04-.99 1.35s-.92.46-1.49.46-1.04-.15-1.48-.46c-.43-.31-.77-.76-1.01-1.35s-.36-1.32-.36-2.19.12-1.59.36-2.19c.24-.59.57-1.04 1.01-1.35s.93-.46 1.48-.46 1.07.15 1.49.46.75.76.99 1.35.36 1.32.36 2.19-.12 1.59-.36 2.19zm44.67-6.51c-.58-.39-1.24-.59-1.99-.59s-1.41.2-1.99.59-1.04.95-1.37 1.68-.5 1.61-.5 2.64.17 1.91.5 2.64.79 1.29 1.37 1.68 1.24.59 1.99.59 1.41-.19 1.99-.59c.58-.39 1.04-.95 1.37-1.68.34-.73.5-1.61.5-2.64s-.17-1.91-.5-2.64c-.34-.73-.79-1.29-1.37-1.68zm.5 6.51c-.24.59-.57 1.04-.99 1.35s-.92.46-1.49.46-1.04-.15-1.48-.46c-.43-.31-.77-.76-1.01-1.35s-.36-1.32-.36-2.19.12-1.59.36-2.19c.24-.59.57-1.04 1.01-1.35s.93-.46 1.48-.46 1.07.15 1.49.46.75.76.99 1.35.36 1.32.36 2.19-.12 1.59-.36 2.19zm44.67-6.51c-.58-.39-1.24-.59-1.99-.59s-1.41.2-1.99.59-1.04.95-1.37 1.68-.5 1.61-.5 2.64.17 1.91.5 2.64.79 1.29 1.37 1.68 1.24.59 1.99.59 1.41-.19 1.99-.59c.58-.39 1.04-.95 1.37-1.68.34-.73.5-1.61.5-2.64s-.17-1.91-.5-2.64c-.34-.73-.79-1.29-1.37-1.68zm.5 6.51c-.24.59-.57 1.04-.99 1.35s-.92.46-1.49.46-1.04-.15-1.48-.46c-.43-.31-.77-.76-1.01-1.35s-.36-1.32-.36-2.19.12-1.59.36-2.19c.24-.59.57-1.04 1.01-1.35s.93-.46 1.48-.46 1.07.15 1.49.46.75.76.99 1.35.36 1.32.36 2.19-.12 1.59-.36 2.19zm38.24-7.02h3.27v9.66h-.99v-8.78h-2.28v-.88zm51.6.5c-.58-.39-1.24-.59-1.99-.59s-1.41.2-1.99.59-1.04.95-1.37 1.68-.5 1.61-.5 2.64.17 1.91.5 2.64.79 1.29 1.37 1.68 1.24.59 1.99.59 1.41-.19 1.99-.59c.58-.39 1.04-.95 1.37-1.68.34-.73.5-1.61.5-2.64s-.17-1.91-.5-2.64-.79-1.29-1.37-1.68zm.5 6.51c-.24.59-.57 1.04-.99 1.35s-.92.46-1.49.46-1.04-.15-1.48-.46c-.43-.31-.77-.76-1.01-1.35s-.36-1.32-.36-2.19.12-1.59.36-2.19.57-1.04 1.01-1.35.92-.46 1.48-.46 1.07.15 1.49.46.75.76.99 1.35.36 1.32.36 2.19-.12 1.59-.36 2.19zm38.24-7.02h3.27v9.66h-.99v-8.78h-2.28v-.88zm51.6.5c-.58-.39-1.24-.59-1.99-.59s-1.41.2-1.99.59-1.04.95-1.37 1.68-.5 1.61-.5 2.64.17 1.91.5 2.64.79 1.29 1.37 1.68 1.24.59 1.99.59 1.41-.19 1.99-.59c.58-.39 1.04-.95 1.37-1.68.34-.73.5-1.61.5-2.64s-.17-1.91-.5-2.64-.79-1.29-1.37-1.68zm.5 6.51c-.24.59-.57 1.04-.99 1.35s-.92.46-1.49.46-1.04-.15-1.48-.46c-.43-.31-.77-.76-1.01-1.35s-.36-1.32-.36-2.19.12-1.59.36-2.19.57-1.04 1.01-1.35.92-.46 1.48-.46 1.07.15 1.49.46.75.76.99 1.35.36 1.32.36 2.19-.12 1.59-.36 2.19zm44.67-6.51c-.58-.39-1.24-.59-1.99-.59s-1.41.2-1.99.59-1.04.95-1.37 1.68-.5 1.61-.5 2.64.17 1.91.5 2.64.79 1.29 1.37 1.68 1.24.59 1.99.59 1.41-.19 1.99-.59c.58-.39 1.04-.95 1.37-1.68.34-.73.5-1.61.5-2.64s-.17-1.91-.5-2.64-.79-1.29-1.37-1.68zm.5 6.51c-.24.59-.57 1.04-.99 1.35s-.92.46-1.49.46-1.04-.15-1.48-.46c-.43-.31-.77-.76-1.01-1.35s-.36-1.32-.36-2.19.12-1.59.36-2.19.57-1.04 1.01-1.35.92-.46 1.48-.46 1.07.15 1.49.46.75.76.99 1.35.36 1.32.36 2.19-.12 1.59-.36 2.19zm38.24-7.02h3.27v9.66h-.99v-8.78h-2.28v-.88zm51.6.5c-.58-.39-1.24-.59-1.99-.59s-1.41.2-1.99.59-1.04.95-1.37 1.68-.5 1.61-.5 2.64.17 1.91.5 2.64.79 1.29 1.37 1.68 1.24.59 1.99.59 1.41-.19 1.99-.59c.58-.39 1.04-.95 1.37-1.68.34-.73.5-1.61.5-2.64s-.17-1.91-.5-2.64-.79-1.29-1.37-1.68zm.5 6.51c-.24.59-.57 1.04-.99 1.35s-.92.46-1.49.46-1.04-.15-1.48-.46c-.43-.31-.77-.76-1.01-1.35s-.36-1.32-.36-2.19.12-1.59.36-2.19.57-1.04 1.01-1.35.92-.46 1.48-.46 1.07.15 1.49.46.75.76.99 1.35.36 1.32.36 2.19-.12 1.59-.36 2.19zm38.24-7.02h3.27v9.66h-.99v-8.78h-2.28v-.88zm45.17 0h3.27v9.66h-.99v-8.78h-2.28v-.88zm45.17 0h3.27v9.66h-.99v-8.78h-2.28v-.88zm45.17 0h3.27v9.66h-.99v-8.78h-2.28v-.88zm51.6.5c-.58-.39-1.24-.59-1.99-.59s-1.41.2-1.99.59-1.04.95-1.37 1.68-.5 1.61-.5 2.64.17 1.91.5 2.64.79 1.29 1.37 1.68 1.24.59 1.99.59 1.41-.19 1.99-.59c.58-.39 1.04-.95 1.37-1.68.34-.73.5-1.61.5-2.64s-.17-1.91-.5-2.64-.79-1.29-1.37-1.68zm.5 6.51c-.24.59-.57 1.04-.99 1.35s-.92.46-1.49.46-1.04-.15-1.48-.46c-.43-.31-.77-.76-1.01-1.35s-.36-1.32-.36-2.19.12-1.59.36-2.19c.24-.59.57-1.04 1.01-1.35s.92-.46 1.48-.46 1.07.15 1.49.46.75.76.99 1.35.36 1.32.36 2.19-.12 1.59-.36 2.19zm41.51-7.02v9.66h-.99v-8.78h-2.28v-.88h3.27zM297.5 300.81c-.58-.39-1.24-.59-1.99-.59s-1.41.2-1.99.59-1.04.95-1.37 1.68-.5 1.61-.5 2.64.17 1.91.5 2.64.79 1.29 1.37 1.68 1.24.59 1.99.59 1.41-.19 1.99-.59c.58-.39 1.04-.95 1.37-1.68.34-.73.5-1.61.5-2.64s-.17-1.91-.5-2.64c-.34-.73-.79-1.29-1.37-1.68zm.5 6.51c-.24.59-.57 1.04-.99 1.35s-.92.46-1.49.46-1.04-.15-1.48-.46c-.43-.31-.77-.76-1.01-1.35s-.36-1.32-.36-2.19.12-1.59.36-2.19c.24-.59.57-1.04 1.01-1.35s.93-.46 1.48-.46 1.07.15 1.49.46.75.76.99 1.35.36 1.32.36 2.19-.12 1.59-.36 2.19zm38.24-7.02h3.27v9.66h-.99v-8.78h-2.28v-.88zm45.17 0h3.27v9.66h-.99v-8.78h-2.28v-.88zm51.6.5c-.58-.39-1.24-.59-1.99-.59s-1.41.2-1.99.59-1.04.95-1.37 1.68-.5 1.61-.5 2.64.17 1.91.5 2.64.79 1.29 1.37 1.68 1.24.59 1.99.59 1.41-.19 1.99-.59c.58-.39 1.04-.95 1.37-1.68.34-.73.5-1.61.5-2.64s-.17-1.91-.5-2.64c-.34-.73-.79-1.29-1.37-1.68zm.5 6.51c-.24.59-.57 1.04-.99 1.35s-.92.46-1.49.46-1.04-.15-1.48-.46c-.43-.31-.77-.76-1.01-1.35s-.36-1.32-.36-2.19.12-1.59.36-2.19c.24-.59.57-1.04 1.01-1.35s.93-.46 1.48-.46 1.07.15 1.49.46.75.76.99 1.35.36 1.32.36 2.19-.12 1.59-.36 2.19zm38.24-7.02h3.27v9.66h-.99v-8.78h-2.28v-.88zm45.17 0h3.27v9.66h-.99v-8.78h-2.28v-.88zm51.6.5c-.58-.39-1.24-.59-1.99-.59s-1.41.2-1.99.59-1.04.95-1.37 1.68-.5 1.61-.5 2.64.17 1.91.5 2.64.79 1.29 1.37 1.68 1.24.59 1.99.59 1.41-.19 1.99-.59c.58-.39 1.04-.95 1.37-1.68.34-.73.5-1.61.5-2.64s-.17-1.91-.5-2.64c-.34-.73-.79-1.29-1.37-1.68zm.5 6.51c-.24.59-.57 1.04-.99 1.35s-.92.46-1.49.46-1.04-.15-1.48-.46c-.43-.31-.77-.76-1.01-1.35s-.36-1.32-.36-2.19.12-1.59.36-2.19c.24-.59.57-1.04 1.01-1.35.43-.31.93-.46 1.48-.46s1.07.15 1.49.46.75.76.99 1.35.36 1.32.36 2.19-.12 1.59-.36 2.19zm44.67-6.51c-.58-.39-1.24-.59-1.99-.59s-1.41.2-1.99.59-1.04.95-1.37 1.68-.5 1.61-.5 2.64.17 1.91.5 2.64.79 1.29 1.37 1.68 1.24.59 1.99.59 1.41-.19 1.99-.59c.58-.39 1.04-.95 1.37-1.68.34-.73.5-1.61.5-2.64s-.17-1.91-.5-2.64c-.34-.73-.79-1.29-1.37-1.68zm.5 6.51c-.24.59-.57 1.04-.99 1.35s-.92.46-1.49.46-1.04-.15-1.48-.46c-.43-.31-.77-.76-1.01-1.35s-.36-1.32-.36-2.19.12-1.59.36-2.19c.24-.59.57-1.04 1.01-1.35s.93-.46 1.48-.46 1.07.15 1.49.46.75.76.99 1.35.36 1.32.36 2.19-.12 1.59-.36 2.19zm44.67-6.51c-.58-.39-1.24-.59-1.99-.59s-1.41.2-1.99.59-1.04.95-1.37 1.68-.5 1.61-.5 2.64.17 1.91.5 2.64.79 1.29 1.37 1.68 1.24.59 1.99.59 1.41-.19 1.99-.59c.58-.39 1.04-.95 1.37-1.68.34-.73.5-1.61.5-2.64s-.17-1.91-.5-2.64c-.34-.73-.79-1.29-1.37-1.68zm.5 6.51c-.24.59-.57 1.04-.99 1.35s-.92.46-1.49.46-1.04-.15-1.48-.46c-.43-.31-.77-.76-1.01-1.35s-.36-1.32-.36-2.19.12-1.59.36-2.19c.24-.59.57-1.04 1.01-1.35s.93-.46 1.48-.46 1.07.15 1.49.46.75.76.99 1.35.36 1.32.36 2.19-.12 1.59-.36 2.19zm38.24-7.02h3.27v9.66h-.99v-8.78h-2.28v-.88zm51.6.5c-.58-.39-1.24-.59-1.99-.59s-1.41.2-1.99.59-1.04.95-1.37 1.68-.5 1.61-.5 2.64.17 1.91.5 2.64.79 1.29 1.37 1.68 1.24.59 1.99.59 1.41-.19 1.99-.59c.58-.39 1.04-.95 1.37-1.68.34-.73.5-1.61.5-2.64s-.17-1.91-.5-2.64-.79-1.29-1.37-1.68zm.5 6.51c-.24.59-.57 1.04-.99 1.35s-.92.46-1.49.46-1.04-.15-1.48-.46c-.43-.31-.77-.76-1.01-1.35s-.36-1.32-.36-2.19.12-1.59.36-2.19.57-1.04 1.01-1.35.92-.46 1.48-.46 1.07.15 1.49.46.75.76.99 1.35.36 1.32.36 2.19-.12 1.59-.36 2.19zm38.24-7.02h3.27v9.66h-.99v-8.78h-2.28v-.88zm51.6.5c-.58-.39-1.24-.59-1.99-.59s-1.41.2-1.99.59-1.04.95-1.37 1.68-.5 1.61-.5 2.64.17 1.91.5 2.64.79 1.29 1.37 1.68 1.24.59 1.99.59 1.41-.19 1.99-.59c.58-.39 1.04-.95 1.37-1.68.34-.73.5-1.61.5-2.64s-.17-1.91-.5-2.64-.79-1.29-1.37-1.68zm.5 6.51c-.24.59-.57 1.04-.99 1.35s-.92.46-1.49.46-1.04-.15-1.48-.46c-.43-.31-.77-.76-1.01-1.35s-.36-1.32-.36-2.19.12-1.59.36-2.19.57-1.04 1.01-1.35.92-.46 1.48-.46 1.07.15 1.49.46.75.76.99 1.35.36 1.32.36 2.19-.12 1.59-.36 2.19zm44.67-6.51c-.58-.39-1.24-.59-1.99-.59s-1.41.2-1.99.59-1.04.95-1.37 1.68-.5 1.61-.5 2.64.17 1.91.5 2.64.79 1.29 1.37 1.68 1.24.59 1.99.59 1.41-.19 1.99-.59c.58-.39 1.04-.95 1.37-1.68.34-.73.5-1.61.5-2.64s-.17-1.91-.5-2.64-.79-1.29-1.37-1.68zm.5 6.51c-.24.59-.57 1.04-.99 1.35s-.92.46-1.49.46-1.04-.15-1.48-.46c-.43-.31-.77-.76-1.01-1.35s-.36-1.32-.36-2.19.12-1.59.36-2.19.57-1.04 1.01-1.35.92-.46 1.48-.46 1.07.15 1.49.46.75.76.99 1.35.36 1.32.36 2.19-.12 1.59-.36 2.19zm38.24-7.02h3.27v9.66h-.99v-8.78h-2.28v-.88zm51.6.5c-.58-.39-1.24-.59-1.99-.59s-1.41.2-1.99.59-1.04.95-1.37 1.68-.5 1.61-.5 2.64.17 1.91.5 2.64.79 1.29 1.37 1.68 1.24.59 1.99.59 1.41-.19 1.99-.59c.58-.39 1.04-.95 1.37-1.68.34-.73.5-1.61.5-2.64s-.17-1.91-.5-2.64-.79-1.29-1.37-1.68zm.5 6.51c-.24.59-.57 1.04-.99 1.35s-.92.46-1.49.46-1.04-.15-1.48-.46c-.43-.31-.77-.76-1.01-1.35s-.36-1.32-.36-2.19.12-1.59.36-2.19.57-1.04 1.01-1.35.92-.46 1.48-.46 1.07.15 1.49.46.75.76.99 1.35.36 1.32.36 2.19-.12 1.59-.36 2.19zm38.24-7.02h3.27v9.66h-.99v-8.78h-2.28v-.88zm45.17 0h3.27v9.66h-.99v-8.78h-2.28v-.88zm45.17 0h3.27v9.66h-.99v-8.78h-2.28v-.88zm45.17 0h3.27v9.66h-.99v-8.78h-2.28v-.88zm51.6.5c-.58-.39-1.24-.59-1.99-.59s-1.41.2-1.99.59-1.04.95-1.37 1.68-.5 1.61-.5 2.64.17 1.91.5 2.64.79 1.29 1.37 1.68 1.24.59 1.99.59 1.41-.19 1.99-.59c.58-.39 1.04-.95 1.37-1.68.34-.73.5-1.61.5-2.64s-.17-1.91-.5-2.64-.79-1.29-1.37-1.68zm.5 6.51c-.24.59-.57 1.04-.99 1.35s-.92.46-1.49.46-1.04-.15-1.48-.46c-.43-.31-.77-.76-1.01-1.35s-.36-1.32-.36-2.19.12-1.59.36-2.19.57-1.04 1.01-1.35.92-.46 1.48-.46 1.07.15 1.49.46.75.76.99 1.35.36 1.32.36 2.19-.12 1.59-.36 2.19zm38.24-7.02h3.27v9.66h-.99v-8.78h-2.28v-.88zm-942.16.5c-.58-.39-1.24-.59-1.99-.59s-1.41.2-1.99.59-1.04.95-1.37 1.68-.5 1.61-.5 2.64.17 1.91.5 2.64.79 1.29 1.37 1.68 1.24.59 1.99.59 1.41-.19 1.99-.59c.58-.39 1.04-.95 1.37-1.68.34-.73.5-1.61.5-2.64s-.17-1.91-.5-2.64c-.34-.73-.79-1.29-1.37-1.68zm.5 6.51c-.24.59-.57 1.04-.99 1.35s-.92.46-1.49.46-1.04-.15-1.48-.46c-.43-.31-.77-.76-1.01-1.35s-.36-1.32-.36-2.19.12-1.59.36-2.19c.24-.59.57-1.04 1.01-1.35s.93-.46 1.48-.46 1.07.15 1.49.46.75.76.99 1.35.36 1.32.36 2.19-.12 1.59-.36 2.19zm38.24-7.02h3.27v9.66h-.99v-8.78h-2.28v-.88zm45.17 0h3.27v9.66h-.99v-8.78h-2.28v-.88zm51.6.5c-.58-.39-1.24-.59-1.99-.59s-1.41.2-1.99.59-1.04.95-1.37 1.68-.5 1.61-.5 2.64.17 1.91.5 2.64.79 1.29 1.37 1.68 1.24.59 1.99.59 1.41-.19 1.99-.59c.58-.39 1.04-.95 1.37-1.68.34-.73.5-1.61.5-2.64s-.17-1.91-.5-2.64c-.34-.73-.79-1.29-1.37-1.68zm.5 6.51c-.24.59-.57 1.04-.99 1.35s-.92.46-1.49.46-1.04-.15-1.48-.46c-.43-.31-.77-.76-1.01-1.35s-.36-1.32-.36-2.19.12-1.59.36-2.19c.24-.59.57-1.04 1.01-1.35s.93-.46 1.48-.46 1.07.15 1.49.46.75.76.99 1.35.36 1.32.36 2.19-.12 1.59-.36 2.19zm38.24-7.02H475v9.66h-.99v-8.78h-2.28v-.88zm45.17 0h3.27v9.66h-.99v-8.78h-2.28v-.88zm51.6.5c-.58-.39-1.24-.59-1.99-.59s-1.41.2-1.99.59-1.04.95-1.37 1.68-.5 1.61-.5 2.64.17 1.91.5 2.64.79 1.29 1.37 1.68 1.24.59 1.99.59 1.41-.19 1.99-.59c.58-.39 1.04-.95 1.37-1.68.34-.73.5-1.61.5-2.64s-.17-1.91-.5-2.64c-.34-.73-.79-1.29-1.37-1.68zm.5 6.51c-.24.59-.57 1.04-.99 1.35s-.92.46-1.49.46-1.04-.15-1.48-.46c-.43-.31-.77-.76-1.01-1.35s-.36-1.32-.36-2.19.12-1.59.36-2.19c.24-.59.57-1.04 1.01-1.35.43-.31.93-.46 1.48-.46s1.07.15 1.49.46.75.76.99 1.35.36 1.32.36 2.19-.12 1.59-.36 2.19zm44.67-6.51c-.58-.39-1.24-.59-1.99-.59s-1.41.2-1.99.59-1.04.95-1.37 1.68-.5 1.61-.5 2.64.17 1.91.5 2.64.79 1.29 1.37 1.68 1.24.59 1.99.59 1.41-.19 1.99-.59c.58-.39 1.04-.95 1.37-1.68.34-.73.5-1.61.5-2.64s-.17-1.91-.5-2.64c-.34-.73-.79-1.29-1.37-1.68zm.5 6.51c-.24.59-.57 1.04-.99 1.35s-.92.46-1.49.46-1.04-.15-1.48-.46c-.43-.31-.77-.76-1.01-1.35s-.36-1.32-.36-2.19.12-1.59.36-2.19c.24-.59.57-1.04 1.01-1.35s.93-.46 1.48-.46 1.07.15 1.49.46.75.76.99 1.35.36 1.32.36 2.19-.12 1.59-.36 2.19zm44.67-6.51c-.58-.39-1.24-.59-1.99-.59s-1.41.2-1.99.59-1.04.95-1.37 1.68-.5 1.61-.5 2.64.17 1.91.5 2.64.79 1.29 1.37 1.68 1.24.59 1.99.59 1.41-.19 1.99-.59c.58-.39 1.04-.95 1.37-1.68.34-.73.5-1.61.5-2.64s-.17-1.91-.5-2.64c-.34-.73-.79-1.29-1.37-1.68zm.5 6.51c-.24.59-.57 1.04-.99 1.35s-.92.46-1.49.46-1.04-.15-1.48-.46c-.43-.31-.77-.76-1.01-1.35s-.36-1.32-.36-2.19.12-1.59.36-2.19c.24-.59.57-1.04 1.01-1.35s.93-.46 1.48-.46 1.07.15 1.49.46.75.76.99 1.35.36 1.32.36 2.19-.12 1.59-.36 2.19zm38.24-7.02h3.27v9.66h-.99v-8.78h-2.28v-.88zm51.6.5c-.58-.39-1.24-.59-1.99-.59s-1.41.2-1.99.59-1.04.95-1.37 1.68-.5 1.61-.5 2.64.17 1.91.5 2.64.79 1.29 1.37 1.68 1.24.59 1.99.59 1.41-.19 1.99-.59c.58-.39 1.04-.95 1.37-1.68.34-.73.5-1.61.5-2.64s-.17-1.91-.5-2.64-.79-1.29-1.37-1.68zm.5 6.51c-.24.59-.57 1.04-.99 1.35s-.92.46-1.49.46-1.04-.15-1.48-.46c-.43-.31-.77-.76-1.01-1.35s-.36-1.32-.36-2.19.12-1.59.36-2.19.57-1.04 1.01-1.35.92-.46 1.48-.46 1.07.15 1.49.46.75.76.99 1.35.36 1.32.36 2.19-.12 1.59-.36 2.19zm38.24-7.02h3.27v9.66h-.99v-8.78h-2.28v-.88zm51.6.5c-.58-.39-1.24-.59-1.99-.59s-1.41.2-1.99.59-1.04.95-1.37 1.68-.5 1.61-.5 2.64.17 1.91.5 2.64.79 1.29 1.37 1.68 1.24.59 1.99.59 1.41-.19 1.99-.59c.58-.39 1.04-.95 1.37-1.68.34-.73.5-1.61.5-2.64s-.17-1.91-.5-2.64-.79-1.29-1.37-1.68zm.5 6.51c-.24.59-.57 1.04-.99 1.35s-.92.46-1.49.46-1.04-.15-1.48-.46c-.43-.31-.77-.76-1.01-1.35s-.36-1.32-.36-2.19.12-1.59.36-2.19.57-1.04 1.01-1.35.92-.46 1.48-.46 1.07.15 1.49.46.75.76.99 1.35.36 1.32.36 2.19-.12 1.59-.36 2.19zm44.67-6.51c-.58-.39-1.24-.59-1.99-.59s-1.41.2-1.99.59-1.04.95-1.37 1.68-.5 1.61-.5 2.64.17 1.91.5 2.64.79 1.29 1.37 1.68 1.24.59 1.99.59 1.41-.19 1.99-.59c.58-.39 1.04-.95 1.37-1.68.34-.73.5-1.61.5-2.64s-.17-1.91-.5-2.64-.79-1.29-1.37-1.68zm.5 6.51c-.24.59-.57 1.04-.99 1.35s-.92.46-1.49.46-1.04-.15-1.48-.46c-.43-.31-.77-.76-1.01-1.35s-.36-1.32-.36-2.19.12-1.59.36-2.19.57-1.04 1.01-1.35.92-.46 1.48-.46 1.07.15 1.49.46.75.76.99 1.35.36 1.32.36 2.19-.12 1.59-.36 2.19zm38.24-7.02h3.27v9.66h-.99v-8.78h-2.28v-.88zm51.6.5c-.58-.39-1.24-.59-1.99-.59s-1.41.2-1.99.59-1.04.95-1.37 1.68-.5 1.61-.5 2.64.17 1.91.5 2.64.79 1.29 1.37 1.68 1.24.59 1.99.59 1.41-.19 1.99-.59c.58-.39 1.04-.95 1.37-1.68.34-.73.5-1.61.5-2.64s-.17-1.91-.5-2.64-.79-1.29-1.37-1.68zm.5 6.51c-.24.59-.57 1.04-.99 1.35s-.92.46-1.49.46-1.04-.15-1.48-.46c-.43-.31-.77-.76-1.01-1.35s-.36-1.32-.36-2.19.12-1.59.36-2.19.57-1.04 1.01-1.35.92-.46 1.48-.46 1.07.15 1.49.46.75.76.99 1.35.36 1.32.36 2.19-.12 1.59-.36 2.19zm38.24-7.02h3.27v9.66h-.99v-8.78h-2.28v-.88zm45.17 0h3.27v9.66h-.99v-8.78h-2.28v-.88zm45.17 0h3.27v9.66h-.99v-8.78h-2.28v-.88zm45.17 0h3.27v9.66h-.99v-8.78h-2.28v-.88zm51.6.5c-.58-.39-1.24-.59-1.99-.59s-1.41.2-1.99.59-1.04.95-1.37 1.68-.5 1.61-.5 2.64.17 1.91.5 2.64.79 1.29 1.37 1.68 1.24.59 1.99.59 1.41-.19 1.99-.59c.58-.39 1.04-.95 1.37-1.68.34-.73.5-1.61.5-2.64s-.17-1.91-.5-2.64-.79-1.29-1.37-1.68zm.5 6.51c-.24.59-.57 1.04-.99 1.35s-.92.46-1.49.46-1.04-.15-1.48-.46c-.43-.31-.77-.76-1.01-1.35s-.36-1.32-.36-2.19.12-1.59.36-2.19.57-1.04 1.01-1.35.92-.46 1.48-.46 1.07.15 1.49.46.75.76.99 1.35.36 1.32.36 2.19-.12 1.59-.36 2.19zm38.24-7.02h3.27v9.66h-.99v-8.78h-2.28v-.88z"/><path id="E" d="M703 360.19c-.8 0-1.48-.28-2.04-.84s-.84-1.24-.84-2.04.28-1.53.84-2.07 1.24-.81 2.04-.81 1.48.27 2.04.81.84 1.23.84 2.07a2.71 2.71 0 0 1-.84 2.04c-.56.56-1.24.84-2.04.84zm-2.16 37.8v-31.5h4.26v31.5h-4.26z"/><path id="F" d="M773.97 398.29c-3.28 0-6.16-.69-8.64-2.07s-4.42-3.28-5.82-5.7-2.1-5.19-2.1-8.31.67-5.88 2.01-8.28 3.18-4.29 5.52-5.67 4.97-2.07 7.89-2.07 5.59.67 7.89 2.01 4.11 3.22 5.43 5.64 1.98 5.21 1.98 8.37l-.03.63-.03.69h-27.42v-3.18h25.14l-1.68 1.26c0-2.28-.49-4.31-1.47-6.09s-2.31-3.17-3.99-4.17-3.62-1.5-5.82-1.5-4.1.5-5.82 1.5-3.06 2.4-4.02 4.2-1.44 3.86-1.44 6.18v.66c0 2.4.53 4.51 1.59 6.33s2.54 3.24 4.44 4.26 4.07 1.53 6.51 1.53c1.92 0 3.71-.34 5.37-1.02s3.09-1.72 4.29-3.12l2.4 2.76c-1.4 1.68-3.15 2.96-5.25 3.84s-4.41 1.32-6.93 1.32z"/></defs><g fill="none" class="P Q"><path d="M467.93 257.11l-1.41-1.49c-10.15-10.35-23.17-16.95-37.3-19.06 1.62-4.96 2.46-10.17 2.46-15.4 0-27.41-22.35-49.7-49.82-49.7-3.06 0-6.11.28-9.11.84-4.01-12.01-9.86-23.07-17.17-32.93-22.04-29.7-57.42-48.4-95.93-48.4s-73.75 18.15-96.01 48.4c-2.82 3.82-5.42 7.84-7.8 12.04-1.21-.2-2.43-.3-3.66-.3-11.07 0-20.32 7.94-22.32 18.42-39.23 7.45-68.66 41.08-70.81 80.92-24.18.64-44.76 15.96-53.1 37.34-2.56 6.56-3.97 13.7-3.97 21.15 0 32.26 26.3 58.51 58.64 58.51h358.72c36.38 0 65.98-29.53 65.98-65.83 0-16.63-6.17-32.37-17.41-44.54zm56.44 14.88h561.46" class="S"/><circle cx="507.65" cy="271.99" r="16.72"/><circle cx="1102.55" cy="271.99" r="16.72"/></g><path d="M675.88 214.01h303.44c32.02 0 57.98 25.96 57.98 57.98s-25.96 57.98-57.98 57.98H675.88c15.93-14.27 25.98-34.97 25.98-57.98s-10.05-43.72-25.98-57.98zM572.9 272c0 32.03 25.96 57.99 57.99 57.99s57.99-25.96 57.99-57.99-25.96-57.99-57.99-57.99S572.9 239.97 572.9 272z" fill="#e10819"/><g clip-path="url(#A)"><g fill="url(#B)"><use xlink:href="#D" opacity=".51"/><use xlink:href="#D" opacity=".51"/></g><ellipse cx="539.6" cy="71.64" rx="91.29" ry="71.64" fill="url(#C)"/></g><path d="M1181.22 332.95v-5.1-201.43c0-13.75 6.65-23.32 18.72-26.59 3.05-.83 6.35-1.06 9.53-1.06l321.31-.04c18.19 0 28.44 10.23 28.44 28.3v205.92" fill="none" stroke-linecap="round" stroke-linejoin="round" class="P Q"/><g class="O"><path d="M1388.22 336.92c.06.54.08.91.07 1.16-.49.11-1.5.25-3.54.26l-22.63.05c-7.59 0-15.25-.02-22.95-.05-1.96 0-2.97-.1-3.48-.2-.04-.29-.06-.7-.07-1.22h52.59m3.34-4h-59.76c-.63 8.48.05 9.39 7.35 9.42l22.97.05 22.64-.05c7.5-.03 8.52-1.51 6.79-9.42h0zm-188.18-225.23l.03 4 166.7.13 167.02-.13c2.36 0 5.61.44 7.71 2.55 1.57 1.57 2.36 3.97 2.34 7.13v188.59c.01 3.13-.78 5.52-2.35 7.1-2.1 2.11-5.33 2.55-7.68 2.55h-.08l-85.71-.16-40.57.01-40.57.01c-13.52 0-26.95 0-40.43-.01-13.48 0-26.96-.01-40.43-.01l-85.99.16h-.08c-2.33 0-5.55-.44-7.64-2.54-1.57-1.58-2.37-3.98-2.35-7.14V121.34c-.01-3.13.77-5.51 2.34-7.08 2.11-2.12 5.38-2.56 7.75-2.56v-4m0 0c-7.88 0-14.13 3.99-14.09 13.66v188.56c-.04 9.62 6.11 13.7 13.99 13.7h.1l85.97-.16 80.86.03 81.14-.03 85.69.16h.1c8 0 14.06-4.16 14.02-13.67V121.39c.04-9.79-6.29-13.7-14.05-13.7h-.04l-166.98.13c-55.66 0-111.13-.04-166.7-.13h-.04 0z"/><path d="M1575.86 336.92v8.4a1.84 1.84 0 0 1-1.84 1.84h-406.55a1.84 1.84 0 0 1-1.84-1.84v-8.4h410.24m4-4h-418.24v12.4a5.84 5.84 0 0 0 5.84 5.84h406.55a5.84 5.84 0 0 0 5.84-5.84v-12.4h0z"/></g><path d="M1141.57 191.83h86.96c3.03 0 5.49 2.46 5.49 5.49v146.36c0 3.03-2.46 5.49-5.49 5.49h-86.96c-3.03 0-5.49-2.46-5.49-5.49V197.32c0-3.03 2.46-5.49 5.49-5.49z" class="N"/><path d="M1228.53 193.83a3.5 3.5 0 0 1 3.49 3.49v146.36a3.5 3.5 0 0 1-3.49 3.49h-86.96a3.5 3.5 0 0 1-3.49-3.49V197.32a3.5 3.5 0 0 1 3.49-3.49h86.96m0-4h-86.96c-4.14 0-7.49 3.35-7.49 7.49v146.36c0 4.14 3.35 7.49 7.49 7.49h86.96c4.14 0 7.49-3.35 7.49-7.49V197.32c0-4.14-3.35-7.49-7.49-7.49h0z"/><path d="m1185.04,337.74c1.79,0,3.24,1.45,3.24,3.23,0,.86-.33,1.67-.94,2.27-.61.61-1.42.95-2.29.95-1.79,0-3.24-1.45-3.24-3.23,0-.86.33-1.67.94-2.27.61-.61,1.42-.95,2.29-.95h0m0-4c-4,0-7.23,3.23-7.23,7.22,0,3.99,3.24,7.23,7.24,7.23h0c4,0,7.23-3.23,7.23-7.22,0-3.99-3.24-7.23-7.24-7.23h0Z" class="O"/><rect x="1447.47" y="188.26" width="253.24" height="160.9" rx="15.13" class="N"/><path d="M1685.58 190.26c7.24 0 13.13 5.89 13.13 13.13v130.64c0 7.24-5.89 13.13-13.13 13.13h-222.97c-7.24 0-13.13-5.89-13.13-13.13V203.39c0-7.24 5.89-13.13 13.13-13.13h222.97m0-4h-222.97c-9.46 0-17.13 7.67-17.13 17.13v130.64c0 9.46 7.67 17.13 17.13 17.13h222.97c9.46 0 17.13-7.67 17.13-17.13V203.39c0-9.46-7.67-17.13-17.13-17.13h0z"/><rect x="1456.47" y="197.27" width="235.24" height="142.9" rx="6.13" class="N"/><path d="M1685.58 199.27a4.13 4.13 0 0 1 4.13 4.13v130.64a4.13 4.13 0 0 1-4.13 4.13h-222.97a4.13 4.13 0 0 1-4.13-4.13V203.4a4.13 4.13 0 0 1 4.13-4.13h222.97m0-4h-222.97c-4.48 0-8.13 3.65-8.13 8.13v130.64c0 4.48 3.65 8.13 8.13 8.13h222.97c4.48 0 8.13-3.65 8.13-8.13V203.4c0-4.48-3.65-8.13-8.13-8.13h0z"/><circle cx="110.14" cy="295.57" r="39.73" class="O"/><path d="M87.58 275.74l18.42 20.9c1.05 1.19 2.56 1.87 4.14 1.87s3.09-.68 4.14-1.87l18.1-20.54a2.19 2.19 0 0 1 .51-.41 6.15 6.15 0 0 0-2.5-.52h-40.5c-.85 0-1.66.17-2.4.48.03.03.07.06.09.09zm48.1 2.36c-.08.21-.19.42-.35.6l-18.1 20.54a9.47 9.47 0 0 1-14.18 0l-18.42-20.9s-.06-.09-.1-.13c-.57.94-.9 2.04-.9 3.22v28.29a6.26 6.26 0 0 0 6.26 6.26h40.5c3.45 0 6.26-2.8 6.26-6.26v-28.29c0-1.22-.36-2.36-.96-3.32z" class="N"/><circle cx="254.8" cy="154.18" r="28.82" class="O"/><path d="M263.74 143.28c-1.09 0-1.98.89-1.98 1.98s.89 1.98 1.98 1.98 1.98-.89 1.98-1.98-.89-1.98-1.98-1.98zm-8.8 2.54a8.33 8.33 0 0 0-8.32 8.32 8.33 8.33 0 0 0 8.32 8.32 8.33 8.33 0 0 0 8.32-8.32 8.33 8.33 0 0 0-8.32-8.32zm0 13.65c-2.94 0-5.33-2.39-5.33-5.33s2.39-5.33 5.33-5.33 5.33 2.39 5.33 5.33-2.39 5.33-5.33 5.33zm6.6 11.57h-13.49a10.16 10.16 0 0 1-10.15-10.15V147.4a10.16 10.16 0 0 1 10.15-10.15h13.49a10.16 10.16 0 0 1 10.15 10.15v13.49a10.16 10.16 0 0 1-10.15 10.15zm-13.49-30.61c-3.84 0-6.97 3.13-6.97 6.97v13.49c0 3.84 3.13 6.97 6.97 6.97h13.49c3.84 0 6.97-3.13 6.97-6.97V147.4c0-3.84-3.13-6.97-6.97-6.97h-13.49z" class="N"/><path d="M221.04 221.72c0-18.05-14.72-32.68-32.88-32.68s-32.87 14.63-32.87 32.68c0 16.31 12.02 29.83 27.74 32.28v-22.83h-8.35v-9.45h8.35v-7.2c0-8.19 4.91-12.71 12.42-12.71 3.6 0 7.36.64 7.36.64v8.04h-4.15c-4.08 0-5.36 2.52-5.36 5.1v6.13h9.12l-1.46 9.45h-7.66V254c15.72-2.45 27.74-15.97 27.74-32.28z" class="O"/><path d="M200.97 231.17l1.46-9.45h-9.12v-6.13c0-2.58 1.27-5.1 5.36-5.1h4.15v-8.04s-3.76-.64-7.36-.64c-7.51 0-12.42 4.52-12.42 12.71v7.2h-8.35v9.45h8.35V254c1.67.26 3.39.4 5.14.4s3.46-.14 5.14-.4v-22.83h7.66z" class="N"/><circle cx="327.19" cy="321.27" r="25.98" class="O"/><path d="M340.69 318.28c-.27.03-.53.04-.8.04a8.67 8.67 0 0 1-7.26-3.93v13.37a9.88 9.88 0 0 1-19.76 0 9.88 9.88 0 0 1 9.88-9.88h0l.61.03v4.87c-.2-.02-.4-.06-.61-.06-2.78 0-5.04 2.26-5.04 5.04s2.26 5.04 5.04 5.04 5.25-2.19 5.25-4.98l.05-22.7h4.66c.44 4.18 3.81 7.44 8 7.75v5.41" class="N"/><path d="M334.6 165.34c-15.47 0-28 12.54-28 28 0 11.39 6.81 21.18 16.58 25.55-.03-.79-.07-1.57-.04-2.36.09-2.72.43-3.66 3.94-18.42.05-.23 0-.41-.08-.62-.84-2.27-1.01-4.57-.27-6.9 1.59-5.04 7.3-5.42 8.3-1.27.61 2.57-1.01 5.93-2.26 10.9-1.03 4.1 3.79 7.02 7.92 4.02 3.81-2.76 5.28-9.38 5-14.07-.55-9.35-10.81-11.37-17.31-8.36-7.46 3.45-9.15 12.69-5.79 16.92.43.54.76.87.62 1.41l-.64 2.54c-.17.63-.7.85-1.33.6a7.55 7.55 0 0 1-3.11-2.33c-2.86-3.54-3.68-10.54.1-16.47 4.19-6.57 11.98-9.23 19.09-8.42 8.5.97 13.87 6.77 14.87 13.36.46 3 .13 10.4-4.08 15.63-4.84 6.01-12.7 6.41-16.32 2.72-.28-.28-.5-.61-.78-.95-.04.14-.08.25-.11.37-1.74 6.82-1.93 8.33-3.72 11.49-.28.49-.58.95-.88 1.42 2.63.82 5.42 1.25 8.31 1.25 15.47 0 28-12.54 28-28s-12.54-28-28-28z" class="O"/><path d="M330.89 207.18l.11-.37.78.95c3.62 3.69 11.48 3.29 16.32-2.72 4.21-5.23 4.54-12.63 4.08-15.63-1.01-6.59-6.38-12.39-14.87-13.36-7.11-.81-14.9 1.85-19.09 8.42-3.78 5.93-2.96 12.93-.1 16.47.84 1.04 1.87 1.83 3.11 2.33.63.26 1.16.03 1.33-.6.23-.84.42-1.69.64-2.54.14-.54-.19-.87-.62-1.41-3.37-4.22-1.67-13.47 5.79-16.92 6.51-3.01 16.76-.99 17.31 8.36.28 4.69-1.2 11.31-5 14.07-4.13 2.99-8.95.08-7.92-4.02 1.25-4.97 2.88-8.33 2.26-10.9-1-4.16-6.71-3.77-8.3 1.27-.73 2.33-.57 4.63.27 6.9.08.2.13.39.08.62-3.51 14.76-3.85 15.7-3.94 18.42-.03.79 0 1.58.04 2.36 1.01.45 2.04.87 3.11 1.2l.88-1.42c1.79-3.16 1.98-4.68 3.72-11.49z" class="N"/><circle cx="234.33" cy="309.41" r="31.31" transform="matrix(.654345 -.756196 .756196 .654345 -152.98 284.15)" class="O"/><g class="N"><path d="m217.41,327.13l2.61-9.74c-1.48-2.67-2.26-5.65-2.26-8.69,0-9.92,8.07-17.98,17.98-17.98s17.98,8.07,17.98,17.98-8.07,17.98-17.98,17.98c-2.98,0-5.92-.75-8.55-2.18l-9.79,2.62Zm10.28-6.27l.62.37c2.26,1.35,4.84,2.06,7.44,2.06,8.04,0,14.58-6.54,14.58-14.58s-6.54-14.58-14.58-14.58-14.58,6.54-14.58,14.58c0,2.66.74,5.27,2.13,7.56l.38.62-1.46,5.44,5.47-1.47Z"/><path d="m242.44,311.2c-.74-.44-1.7-.94-2.58-.58-.67.27-1.1,1.32-1.53,1.86-.22.27-.49.32-.83.18-2.51-1-4.44-2.68-5.82-4.99-.23-.36-.19-.64.09-.97.42-.49.94-1.05,1.06-1.72.11-.66-.2-1.44-.47-2.03-.35-.76-.74-1.83-1.5-2.26-.7-.39-1.61-.17-2.23.33-1.07.87-1.59,2.24-1.57,3.59,0,.38.05.77.14,1.14.22.89.63,1.73,1.09,2.52.35.6.73,1.18,1.14,1.74,1.34,1.82,3.01,3.41,4.95,4.6.97.59,2.01,1.11,3.09,1.47,1.21.4,2.29.82,3.59.57,1.37-.26,2.72-1.11,3.26-2.42.16-.39.24-.82.15-1.24-.19-.85-1.34-1.36-2.03-1.77Z" fill-rule="evenodd"/></g><circle cx="400.38" cy="300.48" r="26.35" class="O"/><path d="m414.48,296.72c0-3.49-2.83-6.33-6.33-6.33h-16.18c-3.49,0-6.33,2.83-6.33,6.33v7.53c0,3.49,2.83,6.33,6.33,6.33h16.18c3.49,0,6.33-2.83,6.33-6.33v-7.53Zm-9.51,4.33l-7.26,3.59c-.28.15-1.25-.05-1.25-.38v-7.37c0-.33.97-.53,1.26-.37l6.94,3.78c.29.17.6.59.3.75Z" class="N"/><circle cx="307.29" cy="258.65" r="26.61" class="O"/><path d="M321.26 273.31l-.19-.29-3.87-5.62-6.93-10.08c-.22-.31-.18-.52.05-.78l1.91-2.22 5.8-6.78 2.14-2.52c.05-.06.14-.11.1-.2-.04-.08-.14-.06-.22-.06-.45 0-.9.02-1.34-.01-.41-.03-.67.14-.9.45-.42.56-.91 1.06-1.36 1.6l-2.41 2.78-4.8 5.59c-.15.18-.28.19-.41 0l-.21-.28-2.88-4.21-3.77-5.52c-.21-.31-.46-.43-.83-.43l-6.86.01c-.22 0-.54-.11-.64.09-.09.19.17.4.3.58l3.9 5.64 2.46 3.62 3.9 5.68c.19.28.17.5-.06.76l-3.58 4.14-4.94 5.75-1.87 2.21c-.05.06-.14.12-.1.21s.14.06.22.07l1.24.03c.39.04.68-.08.94-.38l4.11-4.78 4.95-5.79c.27-.32.39-.32.63.03l3.9 5.68 3.42 4.97c.11.16.23.27.45.26h3.76v-.02h2.55l1.31.02c.19 0 .23-.07.13-.23zm-3.44-1.39h-1.65-1.48c-.28 0-.46-.09-.63-.33l-5.78-8.27-4.82-6.93-3.99-5.69-2.56-3.67a4.6 4.6 0 0 0-.15-.23c-.14-.23-.05-.35.19-.37.23-.02.46-.01.69-.01h2.41a.83.83 0 0 1 .75.38l2.76 3.95 6.26 8.95 4.33 6.22 3.79 5.42c.03.05.07.09.1.14.2.31.14.44-.22.45z" class="N"/><path d="M836.25 122.61h-.14v.02c-4.67.46-16.9 3.8-32.08 9.65-15.31 5.89-30.29 8.04-42.83 11.28-12.44 3.21-10.15 18.12-10.15 18.12s4.67 60.32 6.56 70.26c9.07 47.48 77.58 85.65 77.58 85.65h.02s69.82-37.03 79.27-85.39c1.98-10.16 6.87-71.91 6.87-71.91s2.4-15.32-10.61-18.33c-13.01-3.02-28.45-4.86-44.09-10.45-15.38-5.49-25.67-8.55-30.27-8.89v-.02s-.09 0-.14.01zm24.7 22.17c11.98 4.3 23.56 6.56 33.82 8.56l10.87 2.59s.39-.06.28 2.53c-.02.4-.07.46-.1.91-1.86 23.54-5.3 63.42-6.63 70.27-4.06 20.82-22.89 40.06-37.91 52.48-9.95 8.23-19.64 14.66-26.06 18.63-6.3-4.02-15.7-10.48-25.45-18.72-14.92-12.62-33.45-31.92-37.4-52.56-1.29-6.73-4.61-45.87-6.39-68.94-.04-.44-.03-.5-.1-.89-.08-.87 0-2.03.16-2.82 3.28-.82 6.84-1.58 10.59-2.4 9.96-2.15 21.27-4.61 33.04-9.11 13.26-5.07 22.7-7.62 26.5-8.37 2.46.49 9 2.16 24.8 7.84z" class="R"/><path d="M835.28 311.83c-11.93-7.15-65.14-41.06-72.74-80.83-1.46-7.64-4.88-48.94-6.49-69.71v-.19l-.04-.19c-.15-1.05-1.27-10.53 6.46-12.52 3.75-.97 7.75-1.84 11.98-2.77 9.57-2.09 20.42-4.47 31.39-8.69 15.72-6.05 26.66-8.84 30.48-9.3 2.99.29 10.4 2.06 28.67 8.59 11.19 4 22.35 6.15 32.19 8.05l12.45 2.56c3.43.79 5.46 2.82 6.39 6.38.84 3.2.4 6.3.4 6.33l-.02.16-.02.19c-1.68 21.26-5.26 63.53-6.79 71.34-7.93 40.58-62.2 73.67-74.31 80.6z" class="N"/><path d="M835.98 142.22h-.1v.02c-3.45.35-12.5 2.94-23.76 7.49-11.35 4.59-22.48 6.25-31.8 8.76-9.25 2.5-7.55 14.23-7.55 14.23l4.88 55.24c6.74 37.31 57.54 67.1 57.54 67.1h.01s51.52-29.15 58.47-66.98c1.46-7.94 5.05-56.2 5.05-56.2s1.76-11.96-7.8-14.35c-9.58-2.39-20.96-3.86-32.49-8.27-11.36-4.34-18.96-6.76-22.36-7.04v-.02s-.07 0-.1.01z" class="R"/><path d="m836.26,188.57h0c5.67,0,10.28,4.61,10.28,10.28v11.36h-20.56v-11.36c0-5.67,4.61-10.28,10.28-10.28Z" stroke="#fff" stroke-width="6" fill="none" class="S"/><rect x="815.93" y="207.15" width="40.66" height="34.48" rx="3.32" class="N"/><path d="m840.65,218.9c0-2.42-1.96-4.39-4.39-4.39s-4.39,1.96-4.39,4.39c0,1.82,1.11,3.39,2.7,4.05l-1.95,6.69h7.28l-1.95-6.69c1.58-.66,2.7-2.22,2.7-4.05Z" class="R"/><path d="M676.42 398.35c-3.12 0-6.11-.51-8.97-1.53s-5.07-2.33-6.63-3.93l1.74-3.42c1.48 1.44 3.47 2.65 5.97 3.63s5.13 1.47 7.89 1.47 4.79-.33 6.45-.99 2.88-1.55 3.66-2.67 1.17-2.36 1.17-3.72c0-1.64-.47-2.96-1.41-3.96s-2.17-1.79-3.69-2.37-3.2-1.09-5.04-1.53l-5.52-1.41c-1.84-.5-3.53-1.17-5.07-2.01s-2.78-1.95-3.72-3.33-1.41-3.19-1.41-5.43a10.51 10.51 0 0 1 1.65-5.73c1.1-1.74 2.79-3.14 5.07-4.2s5.2-1.59 8.76-1.59a25.54 25.54 0 0 1 7.02.99c2.32.66 4.32 1.57 6 2.73l-1.5 3.54c-1.8-1.2-3.71-2.08-5.73-2.64s-3.97-.84-5.85-.84c-2.52 0-4.6.34-6.24 1.02s-2.85 1.59-3.63 2.73-1.17 2.43-1.17 3.87c0 1.64.47 2.96 1.41 3.96s2.18 1.78 3.72 2.34 3.23 1.06 5.07 1.5l5.49 1.44c1.82.52 3.5 1.19 5.04 2.01s2.78 1.91 3.72 3.27 1.41 3.14 1.41 5.34c0 2.04-.56 3.93-1.68 5.67s-2.83 3.14-5.13 4.2-5.25 1.59-8.85 1.59zm-.48 12.84c-1 0-1.91-.12-2.73-.36a9.56 9.56 0 0 1-2.31-1.02l1.02-2.28a8.39 8.39 0 0 0 1.89.84 7.1 7.1 0 0 0 2.07.3c1.2 0 2.12-.25 2.76-.75s.96-1.19.96-2.07a2.47 2.47 0 0 0-.93-1.98c-.62-.52-1.55-.78-2.79-.78h-1.38l1.44-5.46h2.58l-.9 3.48c1.64.12 2.9.63 3.78 1.53s1.32 2.01 1.32 3.33c0 1.6-.63 2.87-1.89 3.81s-2.89 1.41-4.89 1.41z"/><use xlink:href="#E"/><path d="M712.05 370.03v-3.54h19.5v3.54h-19.5zm5.64 27.96v-35.46c0-2.8.82-5.06 2.46-6.78s4-2.58 7.08-2.58c1.2 0 2.36.16 3.48.48s2.06.82 2.82 1.5l-1.44 3.18c-.6-.52-1.3-.91-2.1-1.17a8.3 8.3 0 0 0-2.58-.39c-1.8 0-3.18.5-4.14 1.5s-1.44 2.48-1.44 4.44v4.8l.12 1.98v28.5h-4.26zm19.63 0v-31.5h4.08v8.58l-.42-1.5c.88-2.4 2.36-4.23 4.44-5.49s4.66-1.89 7.74-1.89v4.14c-.16 0-.32 0-.48-.03-.16-.02-.32-.03-.48-.03-3.32 0-5.92 1.01-7.8 3.03s-2.82 4.89-2.82 8.61v16.08h-4.26z"/><use xlink:href="#F"/><path d="m796.83,397.99v-44.52h4.26v44.52h-4.26Z"/><use xlink:href="#E" x="112.13"/><path d="M853.89 397.99v-38.16h-14.76v-3.84h33.96v3.84h-14.76v38.16h-4.44zm37.56.3c-2.68 0-5.02-.5-7.02-1.5s-3.55-2.5-4.65-4.5-1.65-4.5-1.65-7.5v-18.3h4.26v17.82c0 3.36.83 5.89 2.49 7.59s3.99 2.55 6.99 2.55c2.2 0 4.11-.45 5.73-1.35s2.86-2.21 3.72-3.93 1.29-3.78 1.29-6.18v-16.5h4.26v31.5h-4.08v-8.64l.66 1.56c-1 2.32-2.55 4.13-4.65 5.43s-4.55 1.95-7.35 1.95zm-4.26-38.1c-.72 0-1.33-.24-1.83-.72s-.75-1.1-.75-1.86.25-1.38.75-1.86 1.11-.72 1.83-.72c.68 0 1.28.24 1.8.72s.78 1.1.78 1.86-.26 1.38-.78 1.86-1.12.72-1.8.72zm10.68 0c-.68 0-1.28-.24-1.8-.72s-.78-1.1-.78-1.86.26-1.38.78-1.86 1.12-.72 1.8-.72c.72 0 1.33.24 1.83.72s.75 1.1.75 1.86-.25 1.38-.75 1.86-1.11.72-1.83.72zm36.96 6c2.56 0 4.81.49 6.75 1.47s3.46 2.47 4.56 4.47 1.65 4.52 1.65 7.56v18.3h-4.26v-17.88c0-3.32-.83-5.83-2.49-7.53s-3.99-2.55-6.99-2.55c-2.24 0-4.19.45-5.85 1.35s-2.94 2.2-3.84 3.9-1.35 3.75-1.35 6.15v16.56h-4.26v-31.5h4.08v8.64l-.66-1.62c1-2.28 2.6-4.07 4.8-5.37s4.82-1.95 7.86-1.95z"/><use xlink:href="#F" x="198.72"/><path d="m995.55,397.99v-44.52h4.26v44.52h-4.26Z"/></svg>