<?xml version="1.0" encoding="utf-8"?>
<!-- Generator: Adobe Illustrator 27.8.1, SVG Export Plug-In . SVG Version: 6.00 Build 0)  -->
<svg version="1.1" id="katman_1" xmlns="http://www.w3.org/2000/svg" xmlns:xlink="http://www.w3.org/1999/xlink" x="0px" y="0px"
	 viewBox="0 0 655 487.7" style="enable-background:new 0 0 655 487.7;" xml:space="preserve">
<style type="text/css">
	.st0{fill:#F5FBFF;}
	.st1{fill:url(#Background-3_00000181063185316024655860000012911055793547018412_);}
	.st2{fill:#A4BBDD;}
	.st3{fill:url(#Leaf_Part_00000155834528819581263560000015809729797022632084_);}
	.st4{fill:#D2EBFF;}
	.st5{fill:url(#Leaf_Part-4_00000173123582262987185850000002905816440312618170_);}
	.st6{fill:url(#Leaf_Part-7_00000021094448543043347220000015055479890481400766_);}
	.st7{fill:url(#Leaf_Part-10_00000013904333759676599410000009458822704523613323_);}
	.st8{fill:url(#Leaf_Part-13_00000167390835833459702110000008541720610094598545_);}
	.st9{fill:url(#Leaf_Part-16_00000024712072185092510510000004202814920652694150_);}
	.st10{fill:url(#Laptop_Part_00000029024886507517401100000010002471421835296189_);}
	.st11{fill:url(#Laptop_Part-2_00000016788856712543249050000006895453271191251135_);}
	.st12{fill:#85B5DD;}
	.st13{fill:#5697D1;}
	.st14{fill:#FFFFFF;}
	.st15{fill:url(#Board_2_Part_00000169523523139322630700000002664142288101676977_);}
	.st16{fill:url(#Board_1_Part_00000119095539958932437020000009076958202270874809_);}
</style>
<g id="Background">
	<path id="Background-2" class="st0" d="M89.8,345.8C149.4,465.4,299.5,511.6,425.1,449S640.8,256,574,140.2
		c-49-85-132.9-29.9-222.2-61.4c-67.1-23.6-83.9-84-162.6-78.5C32,11.4,30.2,226.1,89.8,345.8z"/>
	
		<linearGradient id="Background-3_00000016060639720149314490000012473497279166619566_" gradientUnits="userSpaceOnUse" x1="-1829.8395" y1="-40.8715" x2="-1238.2496" y2="134.2185" gradientTransform="matrix(-1 0 0 -1 -1200.89 490)">
		<stop  offset="0" style="stop-color:#EFF5FF"/>
		<stop  offset="0.11" style="stop-color:#EAF1FC"/>
		<stop  offset="0.58" style="stop-color:#DDE7F6"/>
		<stop  offset="1" style="stop-color:#D9E4F4"/>
	</linearGradient>
	<path id="Background-3" style="fill:url(#Background-3_00000016060639720149314490000012473497279166619566_);" d="M37.7,448.2
		c0,25.6,142.4,56,320.9,29c187.3-28.3,296.5-5.4,296.5-31s-107.1-42-296.5-42S37.7,422.6,37.7,448.2L37.7,448.2z"/>
</g>
<g id="Gear">
	<g id="Gear_Part">
		<path id="Gear_Part-2" class="st2" d="M569.3,97.3l-12.3,4.1c-1.5-2.1-3.1-4.2-4.8-6.2l12.8-3.9l13.7,2.7l2.4,5.4L569.3,97.3
			L569.3,97.3z"/>
		<path id="Gear_Part-3" class="st2" d="M500.1,241.1l6.4,10.5l10.3,6.3l-16.4-8.4l-5-7.7C497,241.7,498.6,241.4,500.1,241.1
			L500.1,241.1z"/>
		<path id="Gear_Part-4" class="st2" d="M435.3,228.5l-3.8,15.3l2.8,11.7l-17.1-16.9l1.1-24.3C423.4,219.7,429.1,224.5,435.3,228.5
			L435.3,228.5z"/>
		<path id="Gear_Part-5" class="st2" d="M369,95.5l15.6-4.2l7.8,2.5c6.7-10.7,13.3-16.2,23.5-23.1l-2.5-10.9L418,44l15.5-6.5
			l20.8,15.9c9.3-1.9,18-3,34.4-2.2l4.8-9.3l10.6-6.9l18.4,6.9l8.3,8.3l-16.9-6.4l-9.9,6.9l-6.8,13.5c-11.6-1.8-23.2-1.2-34.3,1.4
			L456.3,55l-10.3-6.3l-16.5,7.5L427.5,68l4,12c-9.6,6.8-17.9,15.7-24.3,26.1l-12.2-3l-11.4,2.9l-6.4,16.9l6.6,9.8l11.4,5.8
			c-2,11.9-1.4,23.8,1.3,35.2l-14.8,8.9l-8.7,14.1l9.9,12.6l-20.5-26.2l9.4-17.4l5.4-2.2c-0.5-13.9-1-20.8,0.9-33.1l-9.3-7.3
			l-6.9-11.6L369,95.5L369,95.5z"/>
	</g>
	<path id="Gear_Part-6" class="st0" d="M395,103.1l12.2,3c6.4-10.4,14.7-19.2,24.3-26.1l-4-12l2.1-11.9l16.5-7.5l10.3,6.3l6.5,10.7
		c11-2.7,22.7-3.2,34.3-1.4l6.8-13.5l9.9-6.9l16.9,6.4l2.8,11.7L530,76.2c10.9,6.5,20,15.2,27,25.2l12.3-4.1l11.9,2.1l7.5,16.5
		l-6.3,10.3l-11.3,6.8c2.6,11.4,3,23.3,1,35.3l9.6,4.9l6.6,9.8l-6.4,16.9l-11.4,2.9l-10.5-2.5c-7.2,11.6-16.8,21.2-27.9,28.3
		l3.3,10.1l-2.1,11.9l-16.5,7.5l-10.3-6.3l-6.4-10.5c-10.4,2-21.2,2.1-32,0.1l-6.9,13.8l-9.9,6.9l-16.9-6.4l-2.8-11.7l3.8-15.3
		c-9.5-6.1-17.5-13.7-24-22.5l-16.7,5.5l-11.9-2.1l-9.9-12.6l8.7-14.1l14.8-8.9c-2.7-11.3-3.2-23.3-1.3-35.2l-11.4-5.8l-6.6-9.8
		l6.4-16.9L395,103.1L395,103.1z M468.3,191.1c21.1,7.9,44.6-2.7,52.5-23.8s-2.7-44.6-23.8-52.5c-21.1-7.9-44.6,2.7-52.5,23.8
		C436.6,159.7,447.3,183.2,468.3,191.1L468.3,191.1z"/>
	<path id="Gear_Part-7" class="st2" d="M482.7,193.7c-1.9,0-3.8-0.2-5.6-0.4c14.2-2.1,27-11.6,32.4-26c7.9-21.1-2.7-44.6-23.8-52.5
		c-2.8-1.1-5.7-1.8-8.6-2.2c1.9-0.3,3.7-0.4,5.6-0.4c22.5,0,40.8,18.3,40.8,40.8S505.2,193.7,482.7,193.7L482.7,193.7z"/>
</g>
<g id="Leaf">
	<g id="Leaf-2">
		
			<linearGradient id="Leaf_Part_00000134951884170447218050000001998817744753881480_" gradientUnits="userSpaceOnUse" x1="-2024.3757" y1="49.7957" x2="-1752.0582" y2="49.7957" gradientTransform="matrix(-1 4.886881e-03 -3.665161e-03 -0.75 -1774.4904 382.1041)">
			<stop  offset="3.000000e-02" style="stop-color:#004D8A"/>
			<stop  offset="1" style="stop-color:#FF0000"/>
		</linearGradient>
		<path id="Leaf_Part" style="fill:url(#Leaf_Part_00000134951884170447218050000001998817744753881480_);" d="M259.4,342.9
			c0,0-115.2,24.4-168.9-33.3c-43-46.2-71.6-44.8-85.5-32.1c-21.6,19.6,25.1,110.7,171,122.3C321.9,411.5,259.4,342.9,259.4,342.9z"
			/>
		<g id="Leaf_Part-2">
			<path id="Leaf_Part-3" class="st4" d="M224.2,357.6c3.1-0.3,6.1-0.7,9.3-1.2c0.4-0.1,0.6-0.4,0.6-0.8s-0.4-0.6-0.8-0.6
				c-63.4,9.2-115.3-6.8-147.7-21.8c-35.1-16.3-55.4-35-55.6-35.1c-0.3-0.3-0.7-0.2-1,0c-0.3,0.3-0.2,0.7,0,1
				c0.2,0.2,20.7,19,56,35.4C116,348.9,164.7,364.1,224.2,357.6L224.2,357.6z"/>
		</g>
	</g>
	<g id="Leaf-3">
		
			<linearGradient id="Leaf_Part-4_00000114783044023116321710000017211470129375746961_" gradientUnits="userSpaceOnUse" x1="-1807.2959" y1="1907.627" x2="-1518.0156" y2="1907.627" gradientTransform="matrix(-0.78 -0.6258 0.4506 -0.5616 -2045.1437 307.5113)">
			<stop  offset="3.000000e-02" style="stop-color:#004D8A"/>
			<stop  offset="0.99" style="stop-color:#FF0000"/>
		</linearGradient>
		<path id="Leaf_Part-4" style="fill:url(#Leaf_Part-4_00000114783044023116321710000017211470129375746961_);" d="M241,385.1
			c0,0-95.8-52-121.9-121.4c-23.1-61.4-48.5-77.2-62.5-77.5c-34-0.8-32,74.3,89.6,172.7S241,385.1,241,385.1L241,385.1z"/>
		<g id="Leaf_Part-5">
			<path id="Leaf_Part-6" class="st4" d="M206.4,366c0.2,0,0.3-0.2,0.4-0.3c0.2-0.3,0.1-0.8-0.3-1C89.3,301.4,63.2,206.9,62.9,205.9
				c-0.1-0.4-0.5-0.6-0.9-0.5c-0.4,0.1-0.7,0.5-0.6,0.9c0.1,0.2,6.6,24.2,27.5,55.7c19.3,29.1,55.3,70.7,116.8,103.9
				C206,366,206.2,366,206.4,366L206.4,366z"/>
		</g>
	</g>
	<g id="Leaf-4">
		
			<linearGradient id="Leaf_Part-7_00000104669261867293313540000009377094936030417573_" gradientUnits="userSpaceOnUse" x1="-2300.9241" y1="-143.8139" x2="-2173.0042" y2="-194.6439" gradientTransform="matrix(-0.8698 -0.4935 -0.3849 0.6784 -1886.4561 -572.2256)">
			<stop  offset="3.000000e-02" style="stop-color:#004D8A"/>
			<stop  offset="1" style="stop-color:#FF0000"/>
		</linearGradient>
		<path id="Leaf_Part-7" style="fill:url(#Leaf_Part-7_00000104669261867293313540000009377094936030417573_);" d="M194.4,435.9
			c0,0-12.6-11.8-76.4-1.6c-54.1,8.6-72,3.5-76.9-18.4c-8.4-37.6,85.9-52,176.6,8.5C250.4,446.2,194.4,435.9,194.4,435.9
			L194.4,435.9z"/>
		<g id="Leaf_Part-8">
			<path id="Leaf_Part-9" class="st4" d="M223.1,442.1c0.2,0,0.4-0.2,0.4-0.4c0.2-0.4,0.1-1-0.3-1.2C145.1,386,67,411.2,66.2,411.5
				c-0.4,0.1-0.6,0.6-0.5,1.1c0.1,0.5,0.5,0.7,0.9,0.6c0.8-0.3,78.4-25.3,156,28.9C222.8,442.1,222.9,442.2,223.1,442.1L223.1,442.1
				z"/>
		</g>
	</g>
	<g id="Leaf-5">
		
			<linearGradient id="Leaf_Part-10_00000123441750402006138890000000312630451885328790_" gradientUnits="userSpaceOnUse" x1="1584.7317" y1="151.2505" x2="1858.4446" y2="151.2505" gradientTransform="matrix(0.9975 7.010469e-02 5.257852e-02 -0.7482 -1206.9932 355.5136)">
			<stop  offset="3.000000e-02" style="stop-color:#004D8A"/>
			<stop  offset="1" style="stop-color:#FF0000"/>
		</linearGradient>
		<path id="Leaf_Part-10" style="fill:url(#Leaf_Part-10_00000123441750402006138890000000312630451885328790_);" d="M372.4,369.4
			c0,0,113.4,31.9,170.7-22.2c45.9-43.3,74.4-40,87.4-26.5c20.2,21-34.6,91.1-180.9,93.2S372.4,369.4,372.4,369.4L372.4,369.4z"/>
		<g id="Leaf_Part-11">
			<path id="Leaf_Part-12" class="st4" d="M406.6,386.4c59,10.4,108.6-1.7,140.4-14c36.3-14,58-31.5,58.2-31.7
				c0.3-0.2,0.3-0.7,0.1-1c-0.2-0.3-0.7-0.4-1-0.1c-0.2,0.2-21.8,17.5-57.8,31.5c-33.3,12.9-86.1,25.4-148.7,12.1
				c-0.4,0-0.8,0.2-0.8,0.5s0.2,0.8,0.5,0.8C400.5,385.3,403.5,385.9,406.6,386.4L406.6,386.4z"/>
		</g>
	</g>
	<g id="Leaf-6">
		
			<linearGradient id="Leaf_Part-13_00000165930486062438826410000007354066429103464086_" gradientUnits="userSpaceOnUse" x1="1127.4817" y1="-1041.2321" x2="1394.3169" y2="-1041.2321" gradientTransform="matrix(0.8743 -0.4854 -0.3495 -0.6295 -945.8473 271.75)">
			<stop  offset="3.000000e-02" style="stop-color:#004D8A"/>
			<stop  offset="1" style="stop-color:#FF0000"/>
		</linearGradient>
		<path id="Leaf_Part-13" style="fill:url(#Leaf_Part-13_00000165930486062438826410000007354066429103464086_);" d="M409,376.2
			c0,0,98-26.5,133.5-90.9c31.3-56.9,57.1-68.5,69.8-66.7c31.1,4.5,13.1,72.8-110.6,156.3C400.3,443.4,409,376.2,409,376.2
			L409,376.2z"/>
		<g id="Leaf_Part-14">
			<path id="Leaf_Part-15" class="st4" d="M445.8,372.6c0.2,0.1,0.4,0.1,0.6,0c61.6-23.2,101.3-58.6,123.7-84.3
				c24.4-27.8,34.3-50.4,34.4-50.6c0.2-0.4,0-0.8-0.4-0.9s-0.8,0-0.9,0.4c-0.1,0.2-10,22.7-34.2,50.3
				c-22.4,25.5-61.9,60.7-123.1,83.8c-0.4,0.1-0.5,0.5-0.4,0.9C445.6,372.4,445.7,372.5,445.8,372.6z"/>
		</g>
	</g>
	<g id="Leaf-7">
		
			<linearGradient id="Leaf_Part-16_00000128487407574448314260000006893376356614473346_" gradientUnits="userSpaceOnUse" x1="856.4977" y1="-1564.3802" x2="1072.7404" y2="-1564.3802" gradientTransform="matrix(0.6901 -0.7237 -0.4993 -0.4762 -960.0768 200.5875)">
			<stop  offset="3.000000e-02" style="stop-color:#004D8A"/>
			<stop  offset="1" style="stop-color:#FF0000"/>
		</linearGradient>
		<path id="Leaf_Part-16" style="fill:url(#Leaf_Part-16_00000128487407574448314260000006893376356614473346_);" d="M397.4,350.8
			c0,0,77.3-47.4,78.8-108.9c1.2-49.3,21.3-70.7,39.8-71.2c23.1-0.6,32.8,56.3-56.6,162.9C419.2,381.5,397.4,350.8,397.4,350.8z"/>
		<g id="Leaf_Part-17">
			<path id="Leaf_Part-18" class="st4" d="M396.7,335.1c0.2,0,0.3,0,0.5-0.1c54.1-29.5,83-67.5,97.6-94.2
				c15.9-28.9,19.1-51.2,19.1-51.4c0-0.4-0.2-0.7-0.6-0.8c-0.4-0.1-0.7,0.2-0.8,0.6c0,0.2-3.1,22.3-19,51
				c-14.6,26.5-43.2,64.2-97,93.6c-0.3,0.2-0.5,0.6-0.3,1C396.3,334.9,396.5,335,396.7,335.1L396.7,335.1z"/>
		</g>
	</g>
</g>
<g id="Laptop">
	
		<linearGradient id="Laptop_Part_00000064346317892466247540000007491764256146630830_" gradientUnits="userSpaceOnUse" x1="146.2022" y1="245.8876" x2="482.4622" y2="147.1976" gradientTransform="matrix(1 0 0 -1 0 490)">
		<stop  offset="0" style="stop-color:#FAFFFF"/>
		<stop  offset="1" style="stop-color:#D4E8FF"/>
	</linearGradient>
	<path id="Laptop_Part" style="fill:url(#Laptop_Part_00000064346317892466247540000007491764256146630830_);" d="M469.9,403.2
		l-315.9,25c-7.6,0.6-14.2-5.6-14.2-13.4V170.1c0-7.4,5.9-13.4,13.1-13.4h315.9c7.3,0,13.1,6,13.1,13.4v219.7
		C482,396.8,476.7,402.6,469.9,403.2L469.9,403.2z"/>
	
		<linearGradient id="Laptop_Part-2_00000109734545584622930120000015161191592106404775_" gradientUnits="userSpaceOnUse" x1="-1814.7174" y1="-7.7574" x2="-1353.3375" y2="148.6226" gradientTransform="matrix(-1 0 0 -1 -1200.89 490)">
		<stop  offset="0" style="stop-color:#FAFFFF"/>
		<stop  offset="1" style="stop-color:#CAEBEF"/>
	</linearGradient>
	<path id="Laptop_Part-2" style="fill:url(#Laptop_Part-2_00000109734545584622930120000015161191592106404775_);" d="M637.7,418.4
		l-353.9,33.5c-7.1,0.7-14.3,0.3-21.4-1.1l-111.9-22.5l322-26L637.7,418.4z"/>
	<path id="Laptop_Part-3" class="st2" d="M139.8,414.8V170.1c0-7.4,6-13.4,13.4-13.4h-8.4c-7.4,0-13.4,6-13.4,13.4v244.7
		c0,7.8,6.6,14,14.4,13.4l4.4-0.4C144.3,426.5,139.8,421.3,139.8,414.8L139.8,414.8z"/>
	<path id="Laptop_Part-4" class="st12" d="M150.6,428.2L150.6,428.2c-2.7,0.4-3.5,12,5.1,14.9l105.6,22.4c7.4,1.6,14.9,2,22.4,1.2
		l345.3-35c4.9-0.5,8.7-7,8.7-12.2v-1.2l-350.4,33.1c-9.5,0.9-19,0.4-28.3-1.5L150.6,428.2L150.6,428.2z"/>
	<path class="st0" d="M457.8,381.6l-292.2,20.6c-7.1,0.5-13.1-4.6-13.1-11V189.4c0-6.1,5.4-11.1,12.2-11.1h292.2
		c6.7,0,12.2,5,12.2,11.1v181.1C469,376.3,464.1,381.1,457.8,381.6L457.8,381.6z"/>
	<polygon id="Laptop_Part-5" class="st2" points="479.9,408.5 550,415.5 264.5,441.2 200.7,431 	"/>
	<path id="Laptop_Part-6" class="st13" d="M504.1,431.1l-2.5,2.2c-3.5,3-7.6,4.9-11.9,5.3l-96.5,9.5c-3.7,0.4-7.4-0.2-10.9-1.7
		l-7.1-3.1L504.1,431.1L504.1,431.1z"/>
</g>
<g id="Shield">
	<path id="Shield_Part" class="st2" d="M51.6,90.6c0-4.9,4-8.9,8.9-9.1c23.3-0.5,84.8-2,144.7-38.3l0.2-0.1
		C150,81.5,92.3,86.1,69.8,87.6c-4.9,0.3-8.6,4.5-8.5,9.4c5.3,167.5,86,217.9,125.9,232.6C143.6,314.3,50.4,261.7,51.6,90.6z"/>
	<path id="Shield_Part-2" class="st14" d="M213.9,43.7c54.5,35.9,113.4,42.6,134.9,43.9c4.7,0.3,8.4,4.3,8.2,9
		c-6.6,211-132.5,236.4-146.6,238.6c-0.9,0.1-1.7,0.1-2.6,0c-14.1-2.2-140-27.6-146.6-238.6c-0.2-4.7,3.5-8.7,8.2-9
		c21.5-1.2,80.4-7.9,134.9-43.9C207.3,41.8,211,41.8,213.9,43.7L213.9,43.7z"/>
	<path id="Shield_Part-3" class="st0" d="M214.1,63.8C260.8,94.6,311,101,331,102.4c5,0.3,8.9,4.7,8.5,9.8
		c-11.7,176.4-113.8,203.1-129,206c-1.2,0.2-2.5,0.2-3.8,0c-15.4-3.4-120.4-32.5-128.3-206.2c-0.2-5,3.6-9.3,8.6-9.6
		c19.9-1.3,70.3-7.7,117.1-38.5C207.2,61.8,211.1,61.8,214.1,63.8L214.1,63.8z"/>
</g>
<g id="Board_2">
	
		<linearGradient id="Board_2_Part_00000077292727358527881990000001607871560246894773_" gradientUnits="userSpaceOnUse" x1="-1761.9225" y1="196.9117" x2="-1609.7725" y2="152.2516" gradientTransform="matrix(-1 0 0 -1 -1200.8899 490)">
		<stop  offset="0" style="stop-color:#FAFFFF"/>
		<stop  offset="1" style="stop-color:#D4E8FF"/>
	</linearGradient>
	<path id="Board_2_Part" style="fill:url(#Board_2_Part_00000077292727358527881990000001607871560246894773_);" d="M563.2,363.7
		H412.9c-2,0-3.6-1.6-3.6-3.6v-91.3c0-2,1.6-3.6,3.6-3.6h150.3c2,0,3.6,1.6,3.6,3.6v91.3C566.8,362.1,565.2,363.7,563.2,363.7z"/>
	<path id="Board_2_Part-2" class="st13" d="M410.3,265.3h5.2c-3.4,0-6.2,2.8-6.2,6.2v86.1c0,3.4,2.8,6.2,6.2,6.2h-5.2
		c-3.4,0-6.2-2.8-6.2-6.2v-86.1C404.1,268,406.9,265.3,410.3,265.3z"/>
	<path id="Board_2_Part-3" class="st13" d="M542.9,298.2h-108c-1.3,0-2.4-1.1-2.4-2.4v-10.2c0-1.3,1.1-2.4,2.4-2.4h108
		c1.3,0,2.4,1.1,2.4,2.4v10.2C545.3,297.2,544.2,298.2,542.9,298.2z"/>
	<path id="Board_2_Part-4" class="st13" d="M543.8,314h-68.9c-0.8,0-1.5-0.7-1.5-1.5v-4.9c0-0.8,0.7-1.5,1.5-1.5h68.9
		c0.8,0,1.5,0.7,1.5,1.5v4.9C545.3,313.4,544.6,314,543.8,314z"/>
	<path id="Board_2_Part-5" class="st13" d="M543.8,329.4h-68.9c-0.8,0-1.5-0.7-1.5-1.5V323c0-0.8,0.7-1.5,1.5-1.5h68.9
		c0.8,0,1.5,0.7,1.5,1.5v4.9C545.3,328.8,544.6,329.4,543.8,329.4z"/>
	<path id="Board_2_Part-6" class="st13" d="M543.8,345.9h-68.9c-0.8,0-1.5-0.7-1.5-1.5v-4.9c0-0.8,0.7-1.5,1.5-1.5h68.9
		c0.8,0,1.5,0.7,1.5,1.5v4.9C545.3,345.2,544.6,345.9,543.8,345.9z"/>
	<path id="Board_2_Part-7" class="st13" d="M461.2,345.9h-27.3c-0.8,0-1.5-0.7-1.5-1.5v-36.7c0-0.8,0.7-1.5,1.5-1.5h27.3
		c0.8,0,1.5,0.7,1.5,1.5v36.7C462.7,345.2,462.1,345.9,461.2,345.9z"/>
</g>
<g id="Board_1">
	
		<linearGradient id="Board_1_Part_00000180337162229087764390000007203130132759076511_" gradientUnits="userSpaceOnUse" x1="-1744.0391" y1="294.7032" x2="-1580.4291" y2="246.6832" gradientTransform="matrix(-1 0 0 -1 -1200.8999 490)">
		<stop  offset="0" style="stop-color:#FAFFFF"/>
		<stop  offset="1" style="stop-color:#D4E8FF"/>
	</linearGradient>
	<path id="Board_1_Part" style="fill:url(#Board_1_Part_00000180337162229087764390000007203130132759076511_);" d="M554.2,241.7
		h-179c-2.1,0-3.8-1.7-3.8-3.8v-39.1c0-2.1,1.7-3.8,3.8-3.8h179c2.1,0,3.8,1.7,3.8,3.8v39.1C558,240,556.3,241.7,554.2,241.7z"/>
	<path id="Board_1_Part-2" class="st13" d="M373.2,195h4.7c-3.6,0-6.6,3-6.6,6.6v33.5c0,3.6,3,6.6,6.6,6.6h-4.7
		c-3.6,0-6.6-3-6.6-6.6v-33.5C366.6,197.9,369.6,195,373.2,195z"/>
	<path id="Board_1_Part-3" class="st13" d="M510.7,216.8h1.1c1.4,0,2.1-1.7,1.1-2.7l-0.8-0.8c-0.6-0.6-0.6-1.6,0-2.2l0,0
		c0.6-0.6,1.6-0.6,2.2,0l0.8,0.8c1,1,2.7,0.3,2.7-1.1v-1.1c0-0.9,0.7-1.6,1.6-1.6l0,0c0.9,0,1.6,0.7,1.6,1.6v1.1
		c0,1.4,1.7,2.1,2.7,1.1l0.8-0.8c0.6-0.6,1.6-0.6,2.2,0l0,0c0.6,0.6,0.6,1.6,0,2.2l-0.8,0.8c-1,1-0.3,2.7,1.1,2.7h1.1
		c0.9,0,1.6,0.7,1.6,1.6l0,0c0,0.9-0.7,1.6-1.6,1.6H527c-1.4,0-2.1,1.7-1.1,2.7l0.8,0.8c0.6,0.6,0.6,1.6,0,2.2l0,0
		c-0.6,0.6-1.6,0.6-2.2,0l-0.8-0.8c-1-1-2.7-0.3-2.7,1.1v1.1c0,0.9-0.7,1.6-1.6,1.6l0,0c-0.9,0-1.6-0.7-1.6-1.6V226
		c0-1.4-1.7-2.1-2.7-1.1l-0.8,0.8c-0.6,0.6-1.6,0.6-2.2,0l0,0c-0.6-0.6-0.6-1.6,0-2.2l0.8-0.8c1-1,0.3-2.7-1.1-2.7h-1.1
		c-0.9,0-1.6-0.7-1.6-1.6l0,0C509.1,217.5,509.8,216.8,510.7,216.8L510.7,216.8z"/>
	<path id="Board_1_Part-4" class="st13" d="M483.6,216.8h1.1c1.4,0,2.1-1.7,1.1-2.7l-0.8-0.8c-0.6-0.6-0.6-1.6,0-2.2l0,0
		c0.6-0.6,1.6-0.6,2.2,0l0.8,0.8c1,1,2.7,0.3,2.7-1.1v-1.1c0-0.9,0.7-1.6,1.6-1.6l0,0c0.9,0,1.6,0.7,1.6,1.6v1.1
		c0,1.4,1.7,2.1,2.7,1.1l0.8-0.8c0.6-0.6,1.6-0.6,2.2,0l0,0c0.6,0.6,0.6,1.6,0,2.2l-0.8,0.8c-1,1-0.3,2.7,1.1,2.7h1.1
		c0.9,0,1.6,0.7,1.6,1.6l0,0c0,0.9-0.7,1.6-1.6,1.6h-1.1c-1.4,0-2.1,1.7-1.1,2.7l0.8,0.8c0.6,0.6,0.6,1.6,0,2.2l0,0
		c-0.6,0.6-1.6,0.6-2.2,0l-0.8-0.8c-1-1-2.7-0.3-2.7,1.1v1.1c0,0.9-0.7,1.6-1.6,1.6l0,0c-0.9,0-1.6-0.7-1.6-1.6V226
		c0-1.4-1.7-2.1-2.7-1.1l-0.8,0.8c-0.6,0.6-1.6,0.6-2.2,0l0,0c-0.6-0.6-0.6-1.6,0-2.2l0.8-0.8c1-1,0.3-2.7-1.1-2.7h-1.1
		c-0.9,0-1.6-0.7-1.6-1.6l0,0C482,217.5,482.7,216.8,483.6,216.8z"/>
	<path id="Board_1_Part-5" class="st13" d="M455.3,216.8h1.1c1.4,0,2.1-1.7,1.1-2.7l-0.8-0.8c-0.6-0.6-0.6-1.6,0-2.2l0,0
		c0.6-0.6,1.6-0.6,2.2,0l0.8,0.8c1,1,2.7,0.3,2.7-1.1v-1.1c0-0.9,0.7-1.6,1.6-1.6l0,0c0.9,0,1.6,0.7,1.6,1.6v1.1
		c0,1.4,1.7,2.1,2.7,1.1l0.8-0.8c0.6-0.6,1.6-0.6,2.2,0l0,0c0.6,0.6,0.6,1.6,0,2.2l-0.8,0.8c-1,1-0.3,2.7,1.1,2.7h1.1
		c0.9,0,1.6,0.7,1.6,1.6l0,0c0,0.9-0.7,1.6-1.6,1.6h-1.1c-1.4,0-2.1,1.7-1.1,2.7l0.8,0.8c0.6,0.6,0.6,1.6,0,2.2l0,0
		c-0.6,0.6-1.6,0.6-2.2,0l-0.8-0.8c-1-1-2.7-0.3-2.7,1.1v1.1c0,0.9-0.7,1.6-1.6,1.6l0,0c-0.9,0-1.6-0.7-1.6-1.6V226
		c0-1.4-1.7-2.1-2.7-1.1l-0.8,0.8c-0.6,0.6-1.6,0.6-2.2,0l0,0c-0.6-0.6-0.6-1.6,0-2.2l0.8-0.8c1-1,0.3-2.7-1.1-2.7h-1.1
		c-0.9,0-1.6-0.7-1.6-1.6l0,0C453.7,217.5,454.4,216.8,455.3,216.8z"/>
	<path id="Board_1_Part-6" class="st13" d="M427,216.8h1.1c1.4,0,2.1-1.7,1.1-2.7l-0.8-0.8c-0.6-0.6-0.6-1.6,0-2.2l0,0
		c0.6-0.6,1.6-0.6,2.2,0l0.8,0.8c1,1,2.7,0.3,2.7-1.1v-1.1c0-0.9,0.7-1.6,1.6-1.6l0,0c0.9,0,1.6,0.7,1.6,1.6v1.1
		c0,1.4,1.7,2.1,2.7,1.1l0.8-0.8c0.6-0.6,1.6-0.6,2.2,0l0,0c0.6,0.6,0.6,1.6,0,2.2l-0.8,0.8c-1,1-0.3,2.7,1.1,2.7h1.1
		c0.9,0,1.6,0.7,1.6,1.6l0,0c0,0.9-0.7,1.6-1.6,1.6h-1.1c-1.4,0-2.1,1.7-1.1,2.7l0.8,0.8c0.6,0.6,0.6,1.6,0,2.2l0,0
		c-0.6,0.6-1.6,0.6-2.2,0l-0.8-0.8c-1-1-2.7-0.3-2.7,1.1v1.1c0,0.9-0.7,1.6-1.6,1.6l0,0c-0.9,0-1.6-0.7-1.6-1.6V226
		c0-1.4-1.7-2.1-2.7-1.1l-0.8,0.8c-0.6,0.6-1.6,0.6-2.2,0l0,0c-0.6-0.6-0.6-1.6,0-2.2l0.8-0.8c1-1,0.3-2.7-1.1-2.7H427
		c-0.9,0-1.6-0.7-1.6-1.6l0,0C425.4,217.5,426.1,216.8,427,216.8z"/>
	<path id="Board_1_Part-7" class="st13" d="M397.3,216.8h1.1c1.4,0,2.1-1.7,1.1-2.7l-0.8-0.8c-0.6-0.6-0.6-1.6,0-2.2l0,0
		c0.6-0.6,1.6-0.6,2.2,0l0.8,0.8c1,1,2.7,0.3,2.7-1.1v-1.1c0-0.9,0.7-1.6,1.6-1.6l0,0c0.9,0,1.6,0.7,1.6,1.6v1.1
		c0,1.4,1.7,2.1,2.7,1.1l0.8-0.8c0.6-0.6,1.6-0.6,2.2,0l0,0c0.6,0.6,0.6,1.6,0,2.2l-0.8,0.8c-1,1-0.3,2.7,1.1,2.7h1.1
		c0.9,0,1.6,0.7,1.6,1.6l0,0c0,0.9-0.7,1.6-1.6,1.6h-1.1c-1.4,0-2.1,1.7-1.1,2.7l0.8,0.8c0.6,0.6,0.6,1.6,0,2.2l0,0
		c-0.6,0.6-1.6,0.6-2.2,0l-0.8-0.8c-1-1-2.7-0.3-2.7,1.1v1.1c0,0.9-0.7,1.6-1.6,1.6l0,0c-0.9,0-1.6-0.7-1.6-1.6V226
		c0-1.4-1.7-2.1-2.7-1.1l-0.8,0.8c-0.6,0.6-1.6,0.6-2.2,0l0,0c-0.6-0.6-0.6-1.6,0-2.2l0.8-0.8c1-1,0.3-2.7-1.1-2.7h-1.1
		c-0.9,0-1.6-0.7-1.6-1.6l0,0C395.8,217.5,396.5,216.8,397.3,216.8z"/>
</g>
<g id="Gear-2">
	<g id="Gear_Part-8">
		<path id="Gear_Part-9" class="st2" d="M208.6,381.8l-6.6,2.2c-0.8-1.1-1.7-2.2-2.6-3.3l6.9-2.1l7.3,1.4l1.3,2.9L208.6,381.8
			L208.6,381.8z"/>
		<path id="Gear_Part-10" class="st2" d="M171.6,458.5l3.4,5.6l5.5,3.4l-8.8-4.5l-2.6-4.1C170,458.8,170.8,458.7,171.6,458.5
			L171.6,458.5z"/>
		<path id="Gear_Part-11" class="st2" d="M137.1,451.8l-2,8.2l1.5,6.3l-9.1-9l0.6-13C130.7,447.1,133.7,449.6,137.1,451.8
			L137.1,451.8z"/>
		<path id="Gear_Part-12" class="st2" d="M101.7,380.8l8.3-2.2l4.2,1.3c3.6-5.7,7.1-8.7,12.5-12.4l-1.3-5.8l2.5-8.4l8.3-3.5
			l11.1,8.5c5-1,9.6-1.6,18.4-1.2l2.5-5l5.6-3.7l9.8,3.7l4.4,4.4l-9-3.4l-5.3,3.7l-3.6,7.2c-6.2-1-12.4-0.6-18.3,0.8l-3.5-5.7
			l-5.5-3.4l-8.8,4l-1.1,6.4l2.1,6.4c-5.1,3.7-9.6,8.4-12.9,13.9l-6.5-1.6l-6.1,1.5l-3.4,9l3.5,5.2l6.1,3.1
			c-1,6.4-0.8,12.7,0.7,18.8l-7.9,4.8l-4.7,7.5l5.3,6.7l-10.9-14l5-9.3l2.9-1.2c-0.3-7.4-0.5-11.1,0.5-17.7l-4.9-3.9l-3.7-6.2
			L101.7,380.8L101.7,380.8z"/>
	</g>
	<path id="Gear_Part-13" class="st0" d="M115.5,384.9l6.5,1.6c3.4-5.6,7.8-10.3,12.9-13.9l-2.1-6.4l1.1-6.4l8.8-4l5.5,3.4l3.5,5.7
		c5.9-1.4,12.1-1.7,18.3-0.8l3.6-7.2l5.3-3.7l9,3.4l1.5,6.3l-1.9,7.6c5.8,3.5,10.6,8.1,14.4,13.4l6.6-2.2l6.4,1.1l4,8.8l-3.4,5.5
		l-6,3.6c1.4,6.1,1.6,12.5,0.5,18.8l5.1,2.6l3.5,5.2l-3.4,9l-6.1,1.5l-5.6-1.4c-3.8,6.2-9,11.3-14.9,15.1l1.8,5.4l-1.1,6.4l-8.8,4
		l-5.5-3.4l-3.4-5.6c-5.6,1-11.3,1.1-17.1,0.1l-3.7,7.4l-5.3,3.7l-9-3.4l-1.5-6.3l2-8.2c-5.1-3.2-9.4-7.3-12.8-12l-8.9,3l-6.3-1.1
		l-5.3-6.7l4.7-7.5l7.9-4.8c-1.4-6-1.7-12.4-0.7-18.8l-6.1-3.1l-3.5-5.2l3.4-9L115.5,384.9L115.5,384.9z M154.7,431.8
		c11.2,4.2,23.8-1.5,28-12.7s-1.5-23.8-12.7-28c-11.2-4.2-23.8,1.5-28,12.7S143.4,427.6,154.7,431.8z"/>
	<path id="Gear_Part-14" class="st2" d="M162.3,433.2c-1,0-2-0.1-3-0.2c7.6-1.1,14.4-6.2,17.3-13.9c4.2-11.2-1.5-23.8-12.7-28
		c-1.5-0.6-3.1-1-4.6-1.2c1-0.1,2-0.2,3-0.2c12,0,21.8,9.7,21.8,21.8S174.3,433.2,162.3,433.2L162.3,433.2z"/>
</g>
<path class="st13" d="M256.3,172.9c0.1-5.1-7.3-1.2-9.1-3.2c2.2-19.8-8.2-38.3-28.7-40.9c-0.3-0.2-7.3-0.1-7.4,0c0,0,0,0,0,0
	c-36.3,2.3-28.6,44.6-28.6,44.6s-7.3-1.1-9.2,1.8c0.1,15.1,0.3,40.5,0.4,55.3c0,4.9,1,12.9,5.9,12.9l67-4c4.9,0,9-4,9-8.9
	C255.8,216.1,256,187.6,256.3,172.9L256.3,172.9z M223.8,199.2c-3.1,9.9-4.8,1.2-2.6,15.4c0.1,2.2,1.5,6.5-2.2,6.3
	c-3.2-0.7-10.5,2.1-11-2.5c0.5-4,0.8-8,1.4-12c0.1-0.4,0.2-1.1-0.2-1.4c-2.6-2-3.7-5.3-3.3-8.5C207.8,185,225.3,187.5,223.8,199.2
	L223.8,199.2z M232.7,170.2c-0.6-0.2-35.9,2.4-36.2,1.7c0.2-4.3-0.5-10.8,0.5-15C205.1,131.8,239.1,142.1,232.7,170.2z"/>
</svg>
