<?xml version="1.0" encoding="UTF-8"?>
<svg id="Layer_1" data-name="Layer 1" xmlns="http://www.w3.org/2000/svg" viewBox="0 0 258.38 114.08">
  <defs>
    <style>
      .cls-1 {
        fill: #e31f26;
      }

      .cls-1, .cls-2 {
        stroke-width: 0px;
      }

      .cls-2 {
        fill: #fff;
      }
    </style>
  </defs>
  <path class="cls-2" d="m237.74,110.11c-.31,1.9-.11,2.08,1.6,2.24l-.13.81h-5.76l.13-.81c1.73-.16,2.01-.34,2.32-2.24l2.16-13.42c.32-1.99.16-2.05-1.55-2.17l.12-.78c1.42-.19,3.03-.68,3.91-1.03l-2.8,17.4Zm-12.34,0c-.31,1.9-.11,2.08,1.6,2.24l-.13.81h-5.76l.13-.81c1.73-.16,2.01-.34,2.32-2.24l2.16-13.42c.32-1.99.16-2.05-1.55-2.17l.13-.78c1.42-.19,3.03-.68,3.91-1.03l-2.8,17.4Zm-16.29-2.61c-1.16.5-1.84,1.06-2.01,2.11-.24,1.46.73,2.17,1.58,2.17.74,0,1.92-.62,2.51-1.15l.71-4.41-2.79,1.27Zm4.64,4.1c.31,0,.73-.16,1.02-.34l.15.84-2.38,1.4c-.31,0-.84-.25-1.05-.53-.3-.4-.41-.81-.41-1.3-1.23.78-2.62,1.83-3.53,1.83-1.79,0-2.82-1.68-2.52-3.54.22-1.37,1.06-2.36,2.65-2.89,1.68-.59,3.74-1.4,4.38-1.86l.07-.4c.34-2.11-.43-3.29-1.8-3.29-.57,0-1.03.25-1.34.59-.41.4-.7.99-1.09,1.83-.16.43-.47.62-.84.62-.43,0-.99-.53-.88-1.21.07-.4.46-.75,1.04-1.15.74-.53,2.59-1.65,4.18-1.99.77,0,1.55.25,2,.78.72.84.81,1.99.58,3.45l-.88,5.44c-.21,1.3.17,1.74.66,1.74Zm-13.92-10.25c-1.37.22-1.65.56-2.48,2.21-1.17,2.33-2.89,6-4.71,9.88h-.77c-.56-3.2-1.16-6.03-1.74-9.07-1.45,2.86-3.01,5.81-4.61,9.07h-.79c-.39-3.39-.8-6.68-1.34-10.16-.24-1.52-.45-1.77-1.7-1.93l.13-.81h5.28l-.13.81c-1.6.25-1.74.43-1.57,1.8.24,2.24.55,4.54.84,6.77h.06c1.44-2.8,2.89-5.78,4.58-9.23h.74c.47,3.04,1.05,6.18,1.65,9.32h.06c.89-2.02,2.03-4.5,2.92-6.71.62-1.58.48-1.74-1.19-1.96l.13-.81h4.79l-.13.81Zm-29.58-.03c-1.28,0-2.63,1.21-3.49,3.51,1.53.03,3.06,0,4.69-.06.52-.03.72-.22.78-.62.24-1.52-.51-2.83-1.98-2.83Zm4.01,3.29c-.11.65-.25.87-.73.99-.44.09-3.83.37-7.08.47-.6,3.91,1.24,5.53,3.05,5.53,1.11,0,2.15-.5,3.27-1.46l.34.71c-2.05,2.14-3.86,2.64-4.68,2.64-3.15,0-4.58-2.89-4.06-6.15.31-1.96,1.23-3.76,2.52-5.06,1.26-1.3,2.8-2.08,4.14-2.08,2.18,0,3.6,2.11,3.23,4.41Zm-15.65-3.01c-.09.53-.45,1.06-1.01,1.34-.3.12-.53.09-.67-.06-.3-.43-.56-.59-.98-.59-.74,0-1.86.99-2.7,2.7l-.82,5.1c-.31,1.93-.23,2.11,1.82,2.27l-.13.81h-5.93l.13-.81c1.76-.16,1.96-.34,2.26-2.24l.94-5.84c.32-1.96.22-2.05-1.31-2.24l.12-.75c1.25-.22,2.42-.59,3.71-1.18l-.51,3.14h.06c1.02-1.43,2.39-3.04,3.72-3.04.94,0,1.41.75,1.31,1.4Zm-18.89,8.48c-.31,1.93-.14,2.11,1.54,2.27l-.13.81h-5.64l.13-.81c1.73-.16,1.96-.34,2.27-2.27l.96-5.93c.28-1.71.24-1.86-1.39-2.11l.12-.75c1.37-.25,2.6-.62,3.76-1.15l-1.6,9.94Zm2.43-13.86c-.12.75-.77,1.43-1.51,1.43-.68,0-1.17-.68-1.05-1.43.13-.84.83-1.46,1.54-1.46s1.15.62,1.01,1.46Zm-11.59,2.58l-.86.06c-.03-1.21-.07-1.71-.31-2.33-.27-.78-.78-.99-2.7-.99h-2.24c-.77,0-.87.09-1,.9l-1.09,6.77h2.81c2.35,0,2.47-.22,3.11-2.08h.85l-.9,5.56h-.85c-.01-2.05-.05-2.33-2.4-2.33h-2.81l-.83,5.16c-.39,2.42-.16,2.58,2.28,2.73l-.14.9h-7.06l.14-.9c2.18-.12,2.4-.31,2.79-2.73l1.84-11.4c.39-2.42.21-2.55-1.83-2.73l.14-.87h11.49c-.16,1.15-.32,2.89-.43,4.29Z"/>
  <g>
    <path class="cls-1" d="m172.2,37.07c-4.33,0-6.96,2.73-8.72,6.47-2.22,4.74-2.63,11.33-2.63,16.49,0,5.91.63,13.74,4.04,18.79,1.75,2.59,4.11,3.83,7.23,3.83,1.89,0,3.7-.43,5.2-1.62,2.19-1.73,3.52-4.56,4.35-7.16,1.34-4.2,1.65-9.16,1.65-13.54s-.19-10.57-1.68-14.89c-.79-2.29-2.04-5.04-4.02-6.56-1.6-1.24-3.41-1.82-5.44-1.82m66.66,44.43v-9.79c0-.74,0-2.84-.28-3.52-.17-.42-.68-.8-1.05-1.02-.67-.41-1.43-.55-2.21-.55h-1.21c-.72,0-1.31-.59-1.31-1.31v-1.33c0-.72.59-1.31,1.31-1.31h22.96c.72,0,1.31.59,1.31,1.31v1.33c0,.69-.53,1.26-1.21,1.31-.79.06-2.4.21-3.09.61-.5.3-.82.82-1.05,1.4-.21.54-.21,2.47-.21,3.07v10.69c0,.51-.28.95-.74,1.18-3.1,1.51-6.34,2.66-9.69,3.43-3.42.79-6.93,1.15-10.44,1.15-3.92,0-8.08-.49-11.68-2.12-3.03-1.37-5.8-3.2-8.2-5.5-2.32-2.23-4.22-4.81-5.58-7.72-1.81-3.87-2.56-8.05-2.56-12.3,0-7.86,2.46-14.81,7.84-20.57,5.33-5.72,12.02-8.45,19.82-8.45,2.21,0,4.44.17,6.61.63,1.69.36,3.6,1.14,5.2,1.8.76.31,2.82,1.22,3.55,1.32.37,0,.67-.19.93-.43.52-.49.97-1.74,1.18-2.4.17-.55.67-.91,1.25-.91h1.21c.72,0,1.31.59,1.31,1.31v18.17c0,.72-.59,1.31-1.31,1.31h-1.21c-.58,0-1.07-.36-1.25-.92-1.27-4.03-3.29-7.92-6.6-10.65-2.73-2.26-5.83-3.56-9.38-3.56-3.02,0-5.71.84-7.94,2.9-2.43,2.24-3.82,5.27-4.61,8.43-.96,3.81-1.42,7.7-1.42,11.63,0,4.22.37,8.58,1.54,12.65.83,2.88,2.22,5.7,4.69,7.52,2.27,1.68,4.87,2.37,7.68,2.37,1.08,0,2.15-.14,3.21-.37.9-.2,1.78-.46,2.65-.78Zm-67.08-49.47c7.52-.29,14.17,2.04,19.31,7.61,5.18,5.61,7.41,12.44,7.41,20.04,0,6.56-1.72,12.65-5.5,18.03-5.02,7.12-12.09,10.45-20.76,10.45s-15.67-3.04-20.78-9.97c-4.02-5.45-5.77-11.72-5.77-18.47,0-7.63,2.29-14.46,7.52-20.05,5-5.35,11.28-7.93,18.58-7.63Zm-55.69,49.21c.72.25,2.95.24,3.7.24h3.92c1.91,0,3.91-.3,5.58-1.27,1.65-.95,2.9-2.46,3.85-4.09,1.51-2.59,2.54-6,3.31-8.88.15-.58.66-.97,1.26-.97h1.5c.38,0,.71.15.97.43.26.28.37.63.33,1.01l-1.78,18.09c-.07.67-.62,1.18-1.3,1.18h-41.86c-.72,0-1.31-.59-1.31-1.31v-1.33c0-.72.59-1.31,1.31-1.31h1.56c.86,0,1.86-.12,2.63-.62.42-.25.67-.73.85-1.22.29-.71.28-3.54.28-4.34v-34.08c0-.89.02-3.72-.29-4.52-.18-.47-.62-.84-1.03-1.11-.68-.44-1.64-.54-2.44-.54h-1.56c-.72,0-1.31-.59-1.31-1.31v-1.33c0-.72.59-1.31,1.31-1.31h25.17c.72,0,1.31.59,1.31,1.31v1.33c0,.72-.59,1.31-1.31,1.31h-2.07c-.87,0-1.86.13-2.64.62-.43.26-.71.76-.9,1.22-.29.7-.28,3.55-.28,4.34v32.99c0,.99-.01,3.68.33,4.6.16.43.5.68.9.87Z"/>
    <path class="cls-1" d="m96.58,3.41l-35.46,51.18,35.19,50.4s3.64,3.14,6.92,3.94c2.89.7,3.7,3.7,3.91,5.14h-35.09s-1.83-4.14,7.99-7l-27.64-39.89-27.41,39.56c.37.1.75.21,1.14.33,9.47,2.86,7.71,7,7.71,7H0c.21-1.44.98-4.44,3.77-5.14,2.58-.65,6.06-2.89,7.58-5.11L73.33,13.34c3.5-5.11,6.93-10.83,13.53-12.19,5.65-1.16,9.72,2.26,9.72,2.26M8.21,3.41l33.58,48.46,8.63-12.6L28.07,7.26C18.53-6.4,8.21,3.41,8.21,3.41Z"/>
  </g>
</svg>