<?xml version="1.0" encoding="UTF-8"?>
<svg id="katman_1" data-name="katman 1" xmlns="http://www.w3.org/2000/svg" viewBox="0 0 258.36 114.08">
  <defs>
    <style>
      .cls-1 {
        fill: #fff;
        stroke-width: 0px;
      }
    </style>
  </defs>
  <path class="cls-1" d="m237.74,110.11c-.31,1.9-.11,2.08,1.6,2.24l-.13.81h-5.76l.13-.81c1.73-.16,2.01-.34,2.32-2.24l2.16-13.42c.32-1.99.16-2.05-1.55-2.17l.12-.78c1.42-.19,3.03-.68,3.91-1.03l-2.8,17.4h0Z"/>
  <path class="cls-1" d="m225.4,110.11c-.31,1.9-.11,2.08,1.6,2.24l-.13.81h-5.76l.13-.81c1.73-.16,2.01-.34,2.32-2.24l2.16-13.42c.32-1.99.16-2.05-1.55-2.17l.13-.78c1.42-.19,3.03-.68,3.91-1.03l-2.8,17.4h-.01Z"/>
  <path class="cls-1" d="m214.77,111.26c-.29.18-.71.34-1.02.34v.02c-.48,0-.86-.44-.65-1.74l.88-5.44c.23-1.46.14-2.61-.58-3.45-.45-.53-1.23-.78-2-.78-1.59.34-3.44,1.46-4.18,1.99-.58.4-.97.75-1.04,1.15-.11.68.45,1.21.88,1.21.37,0,.68-.19.84-.62.39-.84.68-1.43,1.09-1.83.31-.34.77-.59,1.34-.59,1.37,0,2.14,1.18,1.8,3.29l-.07.4c-.64.46-2.7,1.27-4.38,1.86-1.59.53-2.43,1.52-2.65,2.89-.3,1.86.73,3.54,2.52,3.54.91,0,2.3-1.05,3.53-1.83,0,.49.11.9.41,1.3.21.28.74.53,1.05.53l2.38-1.4-.15-.84Zm-3.58-.63c-.59.53-1.77,1.15-2.51,1.15-.85,0-1.82-.71-1.58-2.17.17-1.05.85-1.61,2.01-2.11h0s2.79-1.28,2.79-1.28l-.71,4.41Z"/>
  <path class="cls-1" d="m199.83,101.35c-1.37.22-1.65.56-2.48,2.21-1.17,2.33-2.89,6-4.71,9.88h-.77c-.56-3.2-1.16-6.03-1.74-9.07-1.45,2.86-3.01,5.81-4.61,9.07h-.79c-.39-3.39-.8-6.68-1.34-10.16-.24-1.52-.45-1.77-1.7-1.93l.13-.81h5.28l-.13.81c-1.6.25-1.74.43-1.57,1.8.24,2.24.55,4.54.84,6.77h.06c1.44-2.8,2.89-5.78,4.58-9.23h.74c.47,3.04,1.05,6.18,1.65,9.32h.06c.89-2.02,2.03-4.5,2.92-6.71.62-1.58.48-1.74-1.19-1.96l.13-.81h4.79l-.13.81h-.02Z"/>
  <path class="cls-1" d="m171.03,100.2c-1.34,0-2.88.78-4.14,2.08-1.29,1.3-2.21,3.1-2.52,5.06-.52,3.26.91,6.15,4.06,6.15.82,0,2.63-.5,4.68-2.64l-.34-.71c-1.12.96-2.16,1.46-3.27,1.46-1.81,0-3.65-1.62-3.05-5.53,3.25-.1,6.64-.38,7.08-.47.48-.12.62-.34.73-.99.37-2.3-1.05-4.41-3.23-4.41Zm1.2,3.95c-.06.4-.26.59-.78.62-1.63.06-3.16.09-4.69.06.86-2.3,2.21-3.51,3.49-3.51,1.47,0,2.22,1.31,1.98,2.83Z"/>
  <path class="cls-1" d="m158.61,101.6c-.09.53-.45,1.06-1.01,1.34-.3.12-.53.09-.67-.06-.3-.43-.56-.59-.98-.59-.74,0-1.86.99-2.7,2.7l-.82,5.1c-.31,1.93-.23,2.11,1.82,2.27l-.13.81h-5.93l.13-.81c1.76-.16,1.96-.34,2.26-2.24l.94-5.84c.32-1.96.22-2.05-1.31-2.24l.12-.75c1.25-.22,2.42-.59,3.71-1.18l-.51,3.14h.06c1.02-1.43,2.39-3.04,3.72-3.04.94,0,1.41.75,1.31,1.4h-.01Z"/>
  <path class="cls-1" d="m139.72,110.08c-.31,1.93-.14,2.11,1.54,2.27l-.13.81h-5.64l.13-.81c1.73-.16,1.96-.34,2.27-2.27l.96-5.93c.28-1.71.24-1.86-1.39-2.11l.12-.75c1.37-.25,2.6-.62,3.76-1.15l-1.6,9.94h-.02Z"/>
  <path class="cls-1" d="m142.15,96.22c-.12.75-.77,1.43-1.51,1.43-.68,0-1.17-.68-1.05-1.43.13-.84.83-1.46,1.54-1.46s1.15.62,1.01,1.46h.01Z"/>
  <path class="cls-1" d="m130.56,98.8l-.86.06c-.03-1.21-.07-1.71-.31-2.33-.27-.78-.78-.99-2.7-.99h-2.24c-.77,0-.87.09-1,.9l-1.09,6.77h2.81c2.35,0,2.47-.22,3.11-2.08h.85l-.9,5.56h-.85c-.01-2.05-.05-2.33-2.4-2.33h-2.81l-.83,5.16c-.39,2.42-.16,2.58,2.28,2.73l-.14.9h-7.06l.14-.9c2.18-.12,2.4-.31,2.79-2.73l1.84-11.4c.39-2.42.21-2.55-1.83-2.73l.14-.87h11.49c-.16,1.15-.32,2.89-.43,4.29h0Z"/>
  <path class="cls-1" d="m238.84,81.49v-9.79c0-.74,0-2.84-.28-3.52-.17-.42-.68-.8-1.05-1.02-.67-.41-1.43-.55-2.21-.55h-1.21c-.72,0-1.31-.59-1.31-1.31v-1.33c0-.72.59-1.31,1.31-1.31h22.96c.72,0,1.31.59,1.31,1.31v1.33c0,.69-.53,1.26-1.21,1.31-.79.06-2.4.21-3.09.61-.5.3-.82.82-1.05,1.4-.21.54-.21,2.47-.21,3.07v10.69c0,.51-.28.95-.74,1.18-3.1,1.51-6.34,2.66-9.69,3.43-3.42.79-6.93,1.15-10.44,1.15-3.92,0-8.08-.49-11.68-2.12-3.03-1.37-5.8-3.2-8.2-5.5-2.32-2.23-4.22-4.81-5.58-7.72-1.81-3.87-2.56-8.05-2.56-12.3,0-7.86,2.46-14.81,7.84-20.57,5.33-5.72,12.02-8.45,19.82-8.45,2.21,0,4.44.17,6.61.63,1.69.36,3.6,1.14,5.2,1.8.76.31,2.82,1.22,3.55,1.32.37,0,.67-.19.93-.43.52-.49.97-1.74,1.18-2.4.17-.55.67-.91,1.25-.91h1.21c.72,0,1.31.59,1.31,1.31v18.17c0,.72-.59,1.31-1.31,1.31h-1.21c-.58,0-1.07-.36-1.25-.92-1.27-4.03-3.29-7.92-6.6-10.65-2.73-2.26-5.83-3.56-9.38-3.56-3.02,0-5.71.84-7.94,2.9-2.43,2.24-3.82,5.27-4.61,8.43-.96,3.81-1.42,7.7-1.42,11.63,0,4.22.37,8.58,1.54,12.65.83,2.88,2.22,5.7,4.69,7.52,2.27,1.68,4.87,2.37,7.68,2.37,1.08,0,2.15-.14,3.21-.37.9-.2,1.78-.46,2.65-.78h-.02Z"/>
  <path class="cls-1" d="m191.07,39.63c-5.14-5.57-11.79-7.9-19.31-7.61h.01c-7.3-.29-13.58,2.29-18.58,7.64-5.23,5.59-7.52,12.42-7.52,20.05,0,6.75,1.75,13.02,5.77,18.47,5.11,6.93,12.11,9.97,20.78,9.97s15.74-3.33,20.76-10.45c3.78-5.38,5.5-11.47,5.5-18.03,0-7.6-2.23-14.43-7.41-20.04Zm-9.4,34.24c-.83,2.6-2.16,5.43-4.35,7.16-1.5,1.19-3.31,1.62-5.2,1.62-3.12,0-5.48-1.24-7.23-3.83-3.41-5.05-4.04-12.88-4.04-18.79,0-5.16.41-11.75,2.63-16.49,1.76-3.74,4.39-6.47,8.72-6.47h-.02c2.03-.01,3.84.57,5.44,1.81,1.98,1.52,3.23,4.27,4.02,6.56,1.49,4.32,1.68,10.51,1.68,14.89s-.31,9.34-1.65,13.54Z"/>
  <path class="cls-1" d="m116.07,81.23c.72.25,2.95.24,3.7.24h3.92c1.91,0,3.91-.3,5.58-1.27,1.65-.95,2.9-2.46,3.85-4.09,1.51-2.59,2.54-6,3.31-8.88.15-.58.66-.97,1.26-.97h1.5c.38,0,.71.15.97.43s.37.63.33,1.01l-1.78,18.09c-.07.67-.62,1.18-1.3,1.18h-41.86c-.72,0-1.31-.59-1.31-1.31v-1.33c0-.72.59-1.31,1.31-1.31h1.56c.86,0,1.86-.12,2.63-.62.42-.25.67-.73.85-1.22.29-.71.28-3.54.28-4.34v-34.06c0-.89.02-3.72-.29-4.52-.18-.47-.62-.84-1.03-1.11-.68-.44-1.64-.54-2.44-.54h-1.56c-.72,0-1.31-.59-1.31-1.31v-1.33c0-.72.59-1.31,1.31-1.31h25.17c.72,0,1.31.59,1.31,1.31v1.33c0,.72-.59,1.31-1.31,1.31h-2.07c-.87,0-1.86.13-2.64.62-.43.26-.71.76-.9,1.22-.29.7-.28,3.55-.28,4.34v32.99c0,.99-.01,3.68.33,4.6.16.43.5.68.9.87v-.02Z"/>
  <path class="cls-1" d="m96.58,3.41l-35.46,51.19,35.19,50.4s3.64,3.14,6.92,3.94c2.89.7,3.7,3.7,3.91,5.14h-35.09s-1.83-4.14,7.99-7l-27.64-39.89-27.41,39.56c.37.1.75.21,1.14.33,9.47,2.86,7.71,7,7.71,7H0c.21-1.44.98-4.44,3.77-5.14,2.58-.65,6.06-2.89,7.58-5.11L73.33,13.34c3.5-5.11,6.93-10.83,13.53-12.19,5.65-1.16,9.72,2.26,9.72,2.26h0ZM8.21,3.41l33.57,48.46,8.63-12.6L28.07,7.26C18.53-6.4,8.21,3.41,8.21,3.41Z"/>
</svg>