<?xml version="1.0" encoding="utf-8"?>
<!-- Generator: Adobe Illustrator 27.8.1, SVG Export Plug-In . SVG Version: 6.00 Build 0)  -->
<svg version="1.1" id="katman_1" xmlns="http://www.w3.org/2000/svg" xmlns:xlink="http://www.w3.org/1999/xlink" x="0px" y="0px"
	 viewBox="0 0 273.5 273.5" style="enable-background:new 0 0 273.5 273.5;" xml:space="preserve">
<style type="text/css">
	.st0{fill:#e30613;}
</style>
<g>
	<path class="st0" d="M159,135.8L159,135.8l-36-19.6c-1.5-0.8-6.5,0.2-6.5,1.9v38.2c0,1.7,5,2.8,6.5,2l37.6-18.6
		C162.1,138.8,160.5,136.6,159,135.8z"/>
	<path class="st0" d="M136.7,0C61.2,0,0,61.2,0,136.7s61.2,136.7,136.7,136.7s136.7-61.2,136.7-136.7S212.2,0,136.7,0z M209.9,156.3
		c0,18.1-14.7,32.8-32.8,32.8H93.2c-18.1,0-32.8-14.7-32.8-32.8v-39.1c0-18.1,14.7-32.8,32.8-32.8h83.9c18.1,0,32.8,14.7,32.8,32.8
		V156.3z"/>
</g>
</svg>
